<?xml version="1.0" encoding="UTF-8" standalone="no"?>
<svg
   xmlns:dc="http://purl.org/dc/elements/1.1/"
   xmlns:cc="http://creativecommons.org/ns#"
   xmlns:rdf="http://www.w3.org/1999/02/22-rdf-syntax-ns#"
   xmlns:svg="http://www.w3.org/2000/svg"
   xmlns="http://www.w3.org/2000/svg"
   version="1.1"
   id="svg476"
   xml:space="preserve"
   width="766.39771"
   height="326.86417"
   viewBox="0 0 919.67723 392.237"><metadata
     id="metadata482"><rdf:RDF><cc:Work
         rdf:about=""><dc:format>image/svg+xml</dc:format><dc:type
           rdf:resource="http://purl.org/dc/dcmitype/StillImage" /><dc:title></dc:title></cc:Work></rdf:RDF></metadata><defs
     id="defs480"><clipPath
       clipPathUnits="userSpaceOnUse"
       id="clipPath494"><path
         d="m 375,299.582 h 1729.17 v 2908.34 H 375 Z"
         id="path492" /></clipPath></defs><g
     id="g484"
     transform="matrix(0,-1.3333333,-1.3333333,0,1019.5785,594.60523)"><g
       id="g486"
       transform="scale(0.24)"><g
         id="g488"><g
           id="g490"
           clip-path="url(#clipPath494)"><path
             d="m 1285.04,2245.77 -23.76,23.75"
             style="fill:none;stroke:#ffffff;stroke-width:4.16667;stroke-linecap:butt;stroke-linejoin:miter;stroke-miterlimit:10;stroke-dasharray:none;stroke-opacity:1"
             id="path496" /><path
             d="m 1225.64,2186.38 59.4,59.39"
             style="fill:none;stroke:#ffffff;stroke-width:4.16667;stroke-linecap:butt;stroke-linejoin:miter;stroke-miterlimit:10;stroke-dasharray:none;stroke-opacity:1"
             id="path498" /><path
             d="m 1225.64,2186.38 35.64,83.14"
             style="fill:none;stroke:#ffffff;stroke-width:4.16667;stroke-linecap:butt;stroke-linejoin:miter;stroke-miterlimit:10;stroke-dasharray:none;stroke-opacity:1"
             id="path500" /><path
             d="m 1273.16,2257.64 47.51,71.27"
             style="fill:none;stroke:#ffffff;stroke-width:4.16667;stroke-linecap:butt;stroke-linejoin:miter;stroke-miterlimit:10;stroke-dasharray:none;stroke-opacity:1"
             id="path502" /><path
             d="M 1273.16,2328.91 H 1463.2"
             style="fill:none;stroke:#ffffff;stroke-width:4.16667;stroke-linecap:butt;stroke-linejoin:miter;stroke-miterlimit:10;stroke-dasharray:none;stroke-opacity:1"
             id="path504" /><path
             d="m 1415.69,2328.91 95.02,-142.53"
             style="fill:none;stroke:#ffffff;stroke-width:4.16667;stroke-linecap:butt;stroke-linejoin:miter;stroke-miterlimit:10;stroke-dasharray:none;stroke-opacity:1"
             id="path506" /><path
             d="m 1368.18,2328.91 v 47.52"
             style="fill:none;stroke:#ffffff;stroke-width:4.16667;stroke-linecap:butt;stroke-linejoin:miter;stroke-miterlimit:10;stroke-dasharray:none;stroke-opacity:1"
             id="path508" /><g
             id="g510"
             transform="scale(4.16667)"><text
               transform="matrix(0,-1,-1,0,333.265,530.433)"
               style="font-variant:normal;font-weight:normal;font-size:15.6787px;font-family:Geneva;-inkscape-font-specification:Geneva;writing-mode:lr-tb;fill:#999999;fill-opacity:1;fill-rule:nonzero;stroke:none"
               id="text516"><tspan
                 x="0 11.522321"
                 y="0"
                 id="tspan512">Q1</tspan><tspan
                 x="0 11.399939 21.608412 32.051983 42.495556"
                 y="25.6556"
                 id="tspan514">AC127</tspan></text></g><path
             d="m 1451.32,3112.85 v -47.51"
             style="fill:none;stroke:#ffffff;stroke-width:4.16667;stroke-linecap:butt;stroke-linejoin:miter;stroke-miterlimit:10;stroke-dasharray:none;stroke-opacity:1"
             id="path518" /><path
             d="m 1332.55,3112.85 v -47.51"
             style="fill:none;stroke:#ffffff;stroke-width:4.16667;stroke-linecap:butt;stroke-linejoin:miter;stroke-miterlimit:10;stroke-dasharray:none;stroke-opacity:1"
             id="path520" /><path
             d="m 1475.08,3089.09 h -47.51"
             style="fill:none;stroke:#ffffff;stroke-width:4.16667;stroke-linecap:butt;stroke-linejoin:miter;stroke-miterlimit:10;stroke-dasharray:none;stroke-opacity:1"
             id="path522" /><path
             d="m 1273.16,3089.09 h 23.75"
             style="fill:none;stroke:#ffffff;stroke-width:4.16667;stroke-linecap:butt;stroke-linejoin:miter;stroke-miterlimit:10;stroke-dasharray:none;stroke-opacity:1"
             id="path524" /><path
             d="m 1510.71,3089.09 h -23.75"
             style="fill:none;stroke:#ffffff;stroke-width:4.16667;stroke-linecap:butt;stroke-linejoin:miter;stroke-miterlimit:10;stroke-dasharray:none;stroke-opacity:1"
             id="path526" /><path
             d="m 1459.13,3021.9 c -37.11,-37.11 -97.28,-37.11 -134.39,0 -37.1,37.11 -37.1,97.28 0,134.38 37.11,37.11 97.28,37.11 134.39,0 37.1,-37.1 37.1,-97.27 0,-134.38"
             style="fill:none;stroke:#ffffff;stroke-width:4.16667;stroke-linecap:butt;stroke-linejoin:miter;stroke-miterlimit:10;stroke-dasharray:none;stroke-opacity:1"
             id="path528" /><g
             id="g530"
             transform="scale(4.16667)"><text
               transform="matrix(0,-1,-1,0,356.071,724.278)"
               style="font-variant:normal;font-weight:normal;font-size:15.6787px;font-family:Geneva;-inkscape-font-specification:Geneva;writing-mode:lr-tb;fill:#999999;fill-opacity:1;fill-rule:nonzero;stroke:none"
               id="text536"><tspan
                 x="0 11.399939"
                 y="0"
                 id="tspan532">V1</tspan><tspan
                 x="0"
                 y="57.0131"
                 id="tspan534">9</tspan></text></g><path
             d="m 1581.98,2613.98 h 23.75"
             style="fill:none;stroke:#ffffff;stroke-width:4.16667;stroke-linecap:butt;stroke-linejoin:miter;stroke-miterlimit:10;stroke-dasharray:none;stroke-opacity:1"
             id="path538" /><path
             d="m 1564.16,2563.5 17.82,50.48"
             style="fill:none;stroke:#ffffff;stroke-width:4.16667;stroke-linecap:butt;stroke-linejoin:miter;stroke-miterlimit:10;stroke-dasharray:none;stroke-opacity:1"
             id="path540" /><path
             d="m 1534.47,2664.46 29.69,-100.96"
             style="fill:none;stroke:#ffffff;stroke-width:4.16667;stroke-linecap:butt;stroke-linejoin:miter;stroke-miterlimit:10;stroke-dasharray:none;stroke-opacity:1"
             id="path542" /><path
             d="m 1495.87,2563.5 38.6,100.96"
             style="fill:none;stroke:#ffffff;stroke-width:4.16667;stroke-linecap:butt;stroke-linejoin:miter;stroke-miterlimit:10;stroke-dasharray:none;stroke-opacity:1"
             id="path544" /><path
             d="m 1463.2,2661.49 32.67,-97.99"
             style="fill:none;stroke:#ffffff;stroke-width:4.16667;stroke-linecap:butt;stroke-linejoin:miter;stroke-miterlimit:10;stroke-dasharray:none;stroke-opacity:1"
             id="path546" /><path
             d="m 1415.69,2613.98 h 23.76"
             style="fill:none;stroke:#ffffff;stroke-width:4.16667;stroke-linecap:butt;stroke-linejoin:miter;stroke-miterlimit:10;stroke-dasharray:none;stroke-opacity:1"
             id="path548" /><path
             d="m 1439.45,2613.98 23.75,47.51"
             style="fill:none;stroke:#ffffff;stroke-width:4.16667;stroke-linecap:butt;stroke-linejoin:miter;stroke-miterlimit:10;stroke-dasharray:none;stroke-opacity:1"
             id="path550" /><g
             id="g552"
             transform="scale(4.16667)"><text
               transform="matrix(0,-1,-1,0,350.37,661.559)"
               style="font-variant:normal;font-weight:normal;font-size:15.6787px;font-family:Geneva;-inkscape-font-specification:Geneva;writing-mode:lr-tb;fill:#999999;fill-opacity:1;fill-rule:nonzero;stroke:none"
               id="text558"><tspan
                 x="0 9.5012922"
                 y="0"
                 id="tspan554">R2</tspan><tspan
                 x="-36.6478 -26.197958 -21.43952 -10.989678 1.3729889 10.396069"
                 y="-14.2528"
                 id="tspan556">2.2Meg</tspan></text></g><path
             d="m 1724.51,2186.38 h 23.76"
             style="fill:none;stroke:#ffffff;stroke-width:4.16667;stroke-linecap:butt;stroke-linejoin:miter;stroke-miterlimit:10;stroke-dasharray:none;stroke-opacity:1"
             id="path560" /><path
             d="m 1706.7,2135.9 17.81,50.48"
             style="fill:none;stroke:#ffffff;stroke-width:4.16667;stroke-linecap:butt;stroke-linejoin:miter;stroke-miterlimit:10;stroke-dasharray:none;stroke-opacity:1"
             id="path562" /><path
             d="m 1677,2236.86 29.7,-100.96"
             style="fill:none;stroke:#ffffff;stroke-width:4.16667;stroke-linecap:butt;stroke-linejoin:miter;stroke-miterlimit:10;stroke-dasharray:none;stroke-opacity:1"
             id="path564" /><path
             d="m 1638.4,2135.9 38.6,100.96"
             style="fill:none;stroke:#ffffff;stroke-width:4.16667;stroke-linecap:butt;stroke-linejoin:miter;stroke-miterlimit:10;stroke-dasharray:none;stroke-opacity:1"
             id="path566" /><path
             d="m 1605.73,2233.89 32.67,-97.99"
             style="fill:none;stroke:#ffffff;stroke-width:4.16667;stroke-linecap:butt;stroke-linejoin:miter;stroke-miterlimit:10;stroke-dasharray:none;stroke-opacity:1"
             id="path568" /><path
             d="m 1558.22,2186.38 h 23.76"
             style="fill:none;stroke:#ffffff;stroke-width:4.16667;stroke-linecap:butt;stroke-linejoin:miter;stroke-miterlimit:10;stroke-dasharray:none;stroke-opacity:1"
             id="path570" /><path
             d="m 1581.98,2186.38 23.75,47.51"
             style="fill:none;stroke:#ffffff;stroke-width:4.16667;stroke-linecap:butt;stroke-linejoin:miter;stroke-miterlimit:10;stroke-dasharray:none;stroke-opacity:1"
             id="path572" /><g
             id="g574"
             transform="scale(4.16667)"><text
               transform="matrix(0,-1,-1,0,384.577,558.935)"
               style="font-variant:normal;font-weight:normal;font-size:15.6787px;font-family:Geneva;-inkscape-font-specification:Geneva;writing-mode:lr-tb;fill:#999999;fill-opacity:1;fill-rule:nonzero;stroke:none"
               id="text580"><tspan
                 x="0 9.5012922"
                 y="0"
                 id="tspan576">R1</tspan><tspan
                 x="-21.8494 -11.399559 -0.94971734 9.500124"
                 y="-14.2538"
                 id="tspan578">2651</tspan></text></g><path
             d="m 940.578,3130.66 v -83.14 l -41.57,41.57 z"
             style="fill:none;stroke:#ffffff;stroke-width:4.16667;stroke-linecap:butt;stroke-linejoin:miter;stroke-miterlimit:10;stroke-dasharray:none;stroke-opacity:1"
             id="path582" /><path
             d="m 1601.97,2091.36 v -250.88 l -43.75,-32.67 -43.75,32.67 v 250.88 z"
             style="fill:none;stroke:#ffffff;stroke-width:4.16667;stroke-linecap:butt;stroke-linejoin:miter;stroke-miterlimit:10;stroke-dasharray:none;stroke-opacity:1"
             id="path584" /><g
             id="g586"
             transform="scale(4.16667)"><text
               transform="matrix(0,-1,-1,0,367.474,499.788)"
               style="font-variant:normal;font-weight:normal;font-size:15.6787px;font-family:Geneva;-inkscape-font-specification:Geneva;writing-mode:lr-tb;fill:#999999;fill-opacity:1;fill-rule:nonzero;stroke:none"
               id="text590"><tspan
                 x="0 11.399997 20.840128 26.895241 36.396534 45.958988"
                 y="0"
                 id="tspan588">Vprobe</tspan></text></g><path
             d="m 1174.38,2138.87 v -59.4 l -43.75,-32.66 -43.75,32.66 v 59.4 z"
             style="fill:none;stroke:#ffffff;stroke-width:4.16667;stroke-linecap:butt;stroke-linejoin:miter;stroke-miterlimit:10;stroke-dasharray:none;stroke-opacity:1"
             id="path592" /><g
             id="g594"
             transform="scale(4.16667)"><text
               transform="matrix(0,-1,-1,0,264.849,511.191)"
               style="font-variant:normal;font-weight:normal;font-size:15.6787px;font-family:Geneva;-inkscape-font-specification:Geneva;writing-mode:lr-tb;fill:#999999;fill-opacity:1;fill-rule:nonzero;stroke:none"
               id="text598"><tspan
                 x="0"
                 y="0"
                 id="tspan596">e</tspan></text></g><path
             d="m 1320.67,2515.2 h -61.63 l -32.66,-43.75 32.66,-43.75 h 61.63 z"
             style="fill:none;stroke:#ffffff;stroke-width:4.16667;stroke-linecap:butt;stroke-linejoin:miter;stroke-miterlimit:10;stroke-dasharray:none;stroke-opacity:1"
             id="path600" /><g
             id="g602"
             transform="scale(4.16667)"><text
               transform="matrix(1,0,0,-1,305.26,585.308)"
               style="font-variant:normal;font-weight:normal;font-size:15.6787px;font-family:Geneva;-inkscape-font-specification:Geneva;writing-mode:lr-tb;fill:#999999;fill-opacity:1;fill-rule:nonzero;stroke:none"
               id="text606"><tspan
                 x="0"
                 y="0"
                 id="tspan604">b</tspan></text><text
               transform="matrix(0,-1,-1,0,424.487,410.705)"
               style="font-variant:normal;font-weight:normal;font-size:15.6787px;font-family:Geneva;-inkscape-font-specification:Geneva;writing-mode:lr-tb;fill:#999999;fill-opacity:1;fill-rule:nonzero;stroke:none"
               id="text626"><tspan
                 x="0 4.7537808 11.702609 17.757723 26.431149 35.574966 40.799107 51.244263 56.468403 66.913589 77.358742"
                 y="0"
                 id="tspan608">.tran 0 10m</tspan><tspan
                 x="0 4.7537808 14.193911 22.867367 28.92248 37.595936 51.612694 59.597839 64.826698 74.327988 80.444237 86.560478 94.545654 103.57187 110.52383 120.9737 131.42355 136.17735 146.62723 157.07707 167.52693 177.97678 188.42664"
                 y="15.6788"
                 id="tspan610">.params offset=0.958654</tspan><tspan
                 x="0 4.7537808 18.770538 27.796782 36.470238 44.455414 49.684242 58.534882 67.975014 74.030121 83.531418 92.97155 98.200409 112.21716 120.89059 129.20502 134.43385 143.28448 150.28973 159.85219"
                 y="31.357599"
                 id="tspan612">.meas vdrop max v(b)</tspan><tspan
                 x="0 4.7537808 18.770538 27.796782 36.470238 44.455414 49.684242 53.367184 62.393398 71.066856 79.503578 88.177002 97.739456 106.7657 111.99453 126.01129 134.68474 142.99915 148.228 155.23325 165.68311 171.62375 180.47437 187.47961 196.33025 205.77039 211.8255 221.32678 230.88922 239.91544 246.92068 253.92593 262.36264 272.8125 283.26236 293.71219"
                 y="47.0354"
                 id="tspan614">.meas leakage max (9-v(vprobe))/2651</tspan><tspan
                 x="0 4.7537808 18.770538 27.796782 36.470238 44.455414 49.684242 59.185535 65.301781 71.41803 79.403198 88.429413 95.381378 100.61024 114.627 123.30042 131.61485 136.84367 143.84892 154.2988 160.23944 169.09007 176.09531 184.94594 194.38609 200.44121 209.94249 219.50493 228.53116 235.53641"
                 y="62.714199"
                 id="tspan616">.meas offset max (9-v(vprobe))</tspan><tspan
                 x="0 4.7537808 18.770538 27.796782 36.470238 44.455414 49.684242 58.832748 64.94899 73.975235 84.42511 89.653969 103.67072 112.34415 120.65858 125.88741 132.89265 143.34253 149.2832 158.13383 165.13907 173.98969 183.42984 189.48494 198.98624 208.54868 217.57489 224.58014 230.5208 237.58719 247.08849 253.20474 259.32101 267.30615 276.33237 283.2843 290.35071 297.35596 305.3176 315.76743 326.21729"
                 y="78.392998"
                 id="tspan618">.meas hfe2 max (9-v(vprobe)-{offset})*100</tspan><tspan
                 x="0 4.7537808 18.770538 27.796782 36.470238 44.455414 49.684242 53.367184 62.929611 68.15847 82.175224 90.848656 99.163078 104.39191 108.07485 117.63728 124.64252 136.16481 146.61465"
                 y="94.0718"
                 id="tspan620">.meas ib max ib(Q1)</tspan><tspan
                 x="0 4.7537808 18.770538 27.796782 36.470238 44.455414 49.684242 53.367184 61.918346 67.147202 81.163963 89.837387 98.151817 103.38065 107.06359 115.61475 122.62 134.14226 144.59213"
                 y="109.7506"
                 id="tspan622">.meas ic max ic(Q1)</tspan><tspan
                 x="0 4.7537808 18.770538 27.796782 36.470238 44.455414 49.684242 58.832748 64.94899 73.975235 79.204094 93.220856 101.89431 110.20871 115.43757 119.12048 127.67164 134.67688 146.19917 156.64902 163.65427 172.09099 175.77391 185.33635 192.3416 203.86388 214.31372"
                 y="125.4294"
                 id="tspan624">.meas hfe max ic(Q1)/ib(Q1)</tspan></text></g><g
             id="g628"
             transform="scale(4.16667)"><text
               transform="matrix(0,-1,-1,0,270.551,365.093)"
               style="font-variant:normal;font-weight:normal;font-size:15.6787px;font-family:Geneva;-inkscape-font-specification:Geneva;writing-mode:lr-tb;fill:#0000ca;fill-opacity:1;fill-rule:nonzero;stroke:none"
               id="text642"><tspan
                 x="0 3.6829126 12.709156 21.382612 29.819305 38.49276 48.055214 57.081429 61.835239 67.064072 77.513939 82.267723 92.71759 103.16747 117.18422"
                 y="0"
                 id="tspan630">leakage: 0.36mA</tspan><tspan
                 x="0 9.1485043 17.826647 26.849756 31.608253 36.837112 47.286953"
                 y="15.6788"
                 id="tspan632">hFE: 95</tspan><tspan
                 x="-159.638 -148.23807 -138.73677 -135.05386 -128.10193 -119.42847 -109.86604 -100.8398 -95.610939 -86.170807 -80.1157 -70.614403 -61.174274 -55.945415 -46.919174 -38.604774 -29.164644 -20.138399 -11.58721 -4.6352758 4.3909678 13.831098 19.059956 27.733383 34.685345 39.914177 50.364044 55.117855 65.567696"
                 y="68.416"
                 id="tspan634">Voltage drop expected at 0.7V</tspan><tspan
                 x="-159.638 -150.1367 -140.63542 -135.40656 -126.55592 -117.05463 -113.37171 -106.41975 -97.746323 -88.183868 -79.157654 -73.928795 -64.427505 -55.576897 -46.550652 -40.495541 -35.266682 -25.765388 -15.315517 -10.086658 0.36321175 5.592041 16.041912 20.795721 31.245564"
                 y="84.094803"
                 id="tspan636">So voltage over R2 = 8.3V</tspan><tspan
                 x="-159.638 -149.66324 -140.98976 -133.0062 -123.98777 -118.76363 -110.2156 -101.07178 -95.016701 -88.961586 -79.943169 -70.799377 -63.850552 -58.626411 -48.181255 -42.957115 -32.511932 -27.75815 -17.312996 -8.8747215 1.5704618 6.3242426 16.769396 29.127377 38.145767 47.71291 52.937054 63.382236 68.606377 79.051529 83.805313 94.250496 104.69565 115.1408 124.28464"
                 y="99.773598"
                 id="tspan638">Base current = 8.3/2.2Meg = 3.773uA</tspan><tspan
                 x="-159.638 -150.61182 -141.93832 -133.95319 -124.98811 -119.75925 -112.80731 -103.30602 -98.077156 -92.022049 -82.995804 -74.32235 -64.882217 -59.653385 -55.970444 -47.985271 -43.231491 -38.002632 -27.55279 -22.798979 -12.349109 -1.8992672 6.5374556 16.987326 21.741106 32.190979 42.64085 53.090717 62.239223 73.639221 78.86805 89.317917 94.546776 104.99665 115.44652 125.89636 136.34622 141.57506 153.09734 162.24586"
                 y="115.4524"
                 id="tspan640">Easy to read is: 0.01/3.773uA = 2651 Ohm</tspan></text></g><path
             d="m 1843.29,2613.98 v 475.11"
             style="fill:none;stroke:#ffffff;stroke-width:4.16667;stroke-linecap:butt;stroke-linejoin:miter;stroke-miterlimit:10;stroke-dasharray:none;stroke-opacity:1"
             id="path644" /><path
             d="m 1843.29,2186.38 v 427.6"
             style="fill:none;stroke:#ffffff;stroke-width:4.16667;stroke-linecap:butt;stroke-linejoin:miter;stroke-miterlimit:10;stroke-dasharray:none;stroke-opacity:1"
             id="path646" /><path
             d="m 1748.27,2186.38 h 95.02"
             style="fill:none;stroke:#ffffff;stroke-width:4.16667;stroke-linecap:butt;stroke-linejoin:miter;stroke-miterlimit:10;stroke-dasharray:none;stroke-opacity:1"
             id="path648" /><path
             d="m 1605.73,2613.98 h 237.56"
             style="fill:none;stroke:#ffffff;stroke-width:4.16667;stroke-linecap:butt;stroke-linejoin:miter;stroke-miterlimit:10;stroke-dasharray:none;stroke-opacity:1"
             id="path650" /><path
             d="m 1558.22,2091.36 v 95.02"
             style="fill:none;stroke:#ffffff;stroke-width:4.16667;stroke-linecap:butt;stroke-linejoin:miter;stroke-miterlimit:10;stroke-dasharray:none;stroke-opacity:1"
             id="path652" /><path
             d="m 1510.71,3089.09 h 332.58"
             style="fill:none;stroke:#ffffff;stroke-width:4.16667;stroke-linecap:butt;stroke-linejoin:miter;stroke-miterlimit:10;stroke-dasharray:none;stroke-opacity:1"
             id="path654" /><path
             d="m 1510.71,2186.38 h 47.51"
             style="fill:none;stroke:#ffffff;stroke-width:4.16667;stroke-linecap:butt;stroke-linejoin:miter;stroke-miterlimit:10;stroke-dasharray:none;stroke-opacity:1"
             id="path656" /><path
             d="m 1368.18,2613.98 h 47.51"
             style="fill:none;stroke:#ffffff;stroke-width:4.16667;stroke-linecap:butt;stroke-linejoin:miter;stroke-miterlimit:10;stroke-dasharray:none;stroke-opacity:1"
             id="path658" /><path
             d="m 1368.18,2471.45 v 142.53"
             style="fill:none;stroke:#ffffff;stroke-width:4.16667;stroke-linecap:butt;stroke-linejoin:miter;stroke-miterlimit:10;stroke-dasharray:none;stroke-opacity:1"
             id="path660" /><path
             d="m 1368.18,2376.43 v 95.02"
             style="fill:none;stroke:#ffffff;stroke-width:4.16667;stroke-linecap:butt;stroke-linejoin:miter;stroke-miterlimit:10;stroke-dasharray:none;stroke-opacity:1"
             id="path662" /><path
             d="m 1320.67,2471.45 h 47.51"
             style="fill:none;stroke:#ffffff;stroke-width:4.16667;stroke-linecap:butt;stroke-linejoin:miter;stroke-miterlimit:10;stroke-dasharray:none;stroke-opacity:1"
             id="path664" /><path
             d="m 1130.63,2186.38 h 95.01"
             style="fill:none;stroke:#ffffff;stroke-width:4.16667;stroke-linecap:butt;stroke-linejoin:miter;stroke-miterlimit:10;stroke-dasharray:none;stroke-opacity:1"
             id="path666" /><path
             d="m 1130.63,2138.87 v 47.51"
             style="fill:none;stroke:#ffffff;stroke-width:4.16667;stroke-linecap:butt;stroke-linejoin:miter;stroke-miterlimit:10;stroke-dasharray:none;stroke-opacity:1"
             id="path668" /><path
             d="m 988.09,3089.09 h 285.07"
             style="fill:none;stroke:#ffffff;stroke-width:4.16667;stroke-linecap:butt;stroke-linejoin:miter;stroke-miterlimit:10;stroke-dasharray:none;stroke-opacity:1"
             id="path670" /><path
             d="m 988.09,2186.38 h 142.54"
             style="fill:none;stroke:#ffffff;stroke-width:4.16667;stroke-linecap:butt;stroke-linejoin:miter;stroke-miterlimit:10;stroke-dasharray:none;stroke-opacity:1"
             id="path672" /><path
             d="m 988.09,2186.38 v 902.71"
             style="fill:none;stroke:#ffffff;stroke-width:4.16667;stroke-linecap:butt;stroke-linejoin:miter;stroke-miterlimit:10;stroke-dasharray:none;stroke-opacity:1"
             id="path674" /><path
             d="M 940.578,3089.09 H 988.09"
             style="fill:none;stroke:#ffffff;stroke-width:4.16667;stroke-linecap:butt;stroke-linejoin:miter;stroke-miterlimit:10;stroke-dasharray:none;stroke-opacity:1"
             id="path676" /><path
             d="m 973.242,3074.25 h 29.6953 v 29.6914 H 973.242 Z"
             style="fill:#ffffff;fill-opacity:1;fill-rule:nonzero;stroke:none"
             id="path678" /><path
             d="m 1828.45,2599.13 h 29.6914 v 29.6953 H 1828.45 Z"
             style="fill:#ffffff;fill-opacity:1;fill-rule:nonzero;stroke:none"
             id="path680" /><path
             d="m 1353.33,2456.6 h 29.6953 v 29.6953 H 1353.33 Z"
             style="fill:#ffffff;fill-opacity:1;fill-rule:nonzero;stroke:none"
             id="path682" /><path
             d="m 1543.38,2171.53 h 29.6953 v 29.6953 H 1543.38 Z"
             style="fill:#ffffff;fill-opacity:1;fill-rule:nonzero;stroke:none"
             id="path684" /><path
             d="m 1115.78,2171.53 h 29.6914 v 29.6953 H 1115.78 Z"
             style="fill:#ffffff;fill-opacity:1;fill-rule:nonzero;stroke:none"
             id="path686" /></g></g></g></g></svg>
