<?xml version="1.0" encoding="UTF-8" standalone="no"?>
<svg
   xmlns:dc="http://purl.org/dc/elements/1.1/"
   xmlns:cc="http://creativecommons.org/ns#"
   xmlns:rdf="http://www.w3.org/1999/02/22-rdf-syntax-ns#"
   xmlns:svg="http://www.w3.org/2000/svg"
   xmlns="http://www.w3.org/2000/svg"
   version="1.1"
   id="svg240"
   xml:space="preserve"
   width="767.51593"
   height="284.83792"
   viewBox="0 0 921.0191 341.8055"><metadata
     id="metadata246"><rdf:RDF><cc:Work
         rdf:about=""><dc:format>image/svg+xml</dc:format><dc:type
           rdf:resource="http://purl.org/dc/dcmitype/StillImage" /><dc:title></dc:title></cc:Work></rdf:RDF></metadata><defs
     id="defs244"><clipPath
       clipPathUnits="userSpaceOnUse"
       id="clipPath258"><path
         d="m 375,299.582 h 1729.17 v 2908.34 H 375 Z"
         id="path256" /></clipPath></defs><g
     id="g248"
     transform="matrix(0,-1.3333333,-1.3333333,0,1019.8616,568.82398)"><g
       id="g250"
       transform="scale(0.24)"><g
         id="g252"><g
           id="g254"
           clip-path="url(#clipPath258)"><path
             d="m 1175.89,2483.48 25.05,-58.46"
             style="fill:none;stroke:#ffffff;stroke-width:4.16667;stroke-linecap:butt;stroke-linejoin:miter;stroke-miterlimit:10;stroke-dasharray:none;stroke-opacity:1"
             id="path260" /><path
             d="m 1200.94,2425.02 16.7,16.7"
             style="fill:none;stroke:#ffffff;stroke-width:4.16667;stroke-linecap:butt;stroke-linejoin:miter;stroke-miterlimit:10;stroke-dasharray:none;stroke-opacity:1"
             id="path262" /><path
             d="m 1175.89,2483.48 41.75,-41.76"
             style="fill:none;stroke:#ffffff;stroke-width:4.16667;stroke-linecap:butt;stroke-linejoin:miter;stroke-miterlimit:10;stroke-dasharray:none;stroke-opacity:1"
             id="path264" /><path
             d="m 1209.29,2433.37 33.41,-50.11"
             style="fill:none;stroke:#ffffff;stroke-width:4.16667;stroke-linecap:butt;stroke-linejoin:miter;stroke-miterlimit:10;stroke-dasharray:none;stroke-opacity:1"
             id="path266" /><path
             d="M 1209.29,2483.48 H 1075.67"
             style="fill:none;stroke:#ffffff;stroke-width:4.16667;stroke-linecap:butt;stroke-linejoin:miter;stroke-miterlimit:10;stroke-dasharray:none;stroke-opacity:1"
             id="path268" /><path
             d="m 1109.07,2483.48 -66.81,-100.22"
             style="fill:none;stroke:#ffffff;stroke-width:4.16667;stroke-linecap:butt;stroke-linejoin:miter;stroke-miterlimit:10;stroke-dasharray:none;stroke-opacity:1"
             id="path270" /><path
             d="m 1142.48,2483.48 v 33.4"
             style="fill:none;stroke:#ffffff;stroke-width:4.16667;stroke-linecap:butt;stroke-linejoin:miter;stroke-miterlimit:10;stroke-dasharray:none;stroke-opacity:1"
             id="path272" /><g
             id="g274"
             transform="scale(4.16667)"><text
               transform="matrix(0,-1,-1,0,261.678,561.96)"
               style="font-variant:normal;font-weight:normal;font-size:11.0239px;font-family:Geneva;-inkscape-font-specification:Geneva;writing-mode:lr-tb;fill:#999999;fill-opacity:1;fill-rule:nonzero;stroke:none"
               id="text280"><tspan
                 x="0 8.1014528"
                 y="0"
                 id="tspan276">Q1</tspan><tspan
                 x="0 8.0154305 15.193102 22.53614 29.879181"
                 y="-18.0394"
                 id="tspan278">AC128</tspan></text></g><path
             d="m 1134.13,3134.89 v -33.41"
             style="fill:none;stroke:#ffffff;stroke-width:4.16667;stroke-linecap:butt;stroke-linejoin:miter;stroke-miterlimit:10;stroke-dasharray:none;stroke-opacity:1"
             id="path282" /><path
             d="m 1050.61,3134.89 v -33.41"
             style="fill:none;stroke:#ffffff;stroke-width:4.16667;stroke-linecap:butt;stroke-linejoin:miter;stroke-miterlimit:10;stroke-dasharray:none;stroke-opacity:1"
             id="path284" /><path
             d="m 1150.83,3118.18 h -33.4"
             style="fill:none;stroke:#ffffff;stroke-width:4.16667;stroke-linecap:butt;stroke-linejoin:miter;stroke-miterlimit:10;stroke-dasharray:none;stroke-opacity:1"
             id="path286" /><path
             d="m 1008.86,3118.18 h 16.7"
             style="fill:none;stroke:#ffffff;stroke-width:4.16667;stroke-linecap:butt;stroke-linejoin:miter;stroke-miterlimit:10;stroke-dasharray:none;stroke-opacity:1"
             id="path288" /><path
             d="m 1175.89,3118.18 h -16.71"
             style="fill:none;stroke:#ffffff;stroke-width:4.16667;stroke-linecap:butt;stroke-linejoin:miter;stroke-miterlimit:10;stroke-dasharray:none;stroke-opacity:1"
             id="path290" /><path
             d="m 1139.61,3070.94 c -26.09,-26.09 -68.39,-26.09 -94.48,0 -26.09,26.09 -26.09,68.4 0,94.49 26.09,26.09 68.39,26.09 94.48,0 26.1,-26.09 26.1,-68.4 0,-94.49"
             style="fill:none;stroke:#ffffff;stroke-width:4.16667;stroke-linecap:butt;stroke-linejoin:miter;stroke-miterlimit:10;stroke-dasharray:none;stroke-opacity:1"
             id="path292" /><g
             id="g294"
             transform="scale(4.16667)"><text
               transform="matrix(0,-1,-1,0,277.713,736.338)"
               style="font-variant:normal;font-weight:normal;font-size:11.0239px;font-family:Geneva;-inkscape-font-specification:Geneva;writing-mode:lr-tb;fill:#999999;fill-opacity:1;fill-rule:nonzero;stroke:none"
               id="text300"><tspan
                 x="0 8.0154305"
                 y="0"
                 id="tspan296">V1</tspan><tspan
                 x="0"
                 y="40.087502"
                 id="tspan298">9</tspan></text></g><path
             d="m 958.75,2383.26 h 16.703"
             style="fill:none;stroke:#ffffff;stroke-width:4.16667;stroke-linecap:butt;stroke-linejoin:miter;stroke-miterlimit:10;stroke-dasharray:none;stroke-opacity:1"
             id="path302" /><path
             d="m 946.223,2347.77 12.527,35.49"
             style="fill:none;stroke:#ffffff;stroke-width:4.16667;stroke-linecap:butt;stroke-linejoin:miter;stroke-miterlimit:10;stroke-dasharray:none;stroke-opacity:1"
             id="path304" /><path
             d="m 925.344,2418.75 20.879,-70.98"
             style="fill:none;stroke:#ffffff;stroke-width:4.16667;stroke-linecap:butt;stroke-linejoin:miter;stroke-miterlimit:10;stroke-dasharray:none;stroke-opacity:1"
             id="path306" /><path
             d="m 898.199,2347.77 27.145,70.98"
             style="fill:none;stroke:#ffffff;stroke-width:4.16667;stroke-linecap:butt;stroke-linejoin:miter;stroke-miterlimit:10;stroke-dasharray:none;stroke-opacity:1"
             id="path308" /><path
             d="m 875.234,2416.66 22.965,-68.89"
             style="fill:none;stroke:#ffffff;stroke-width:4.16667;stroke-linecap:butt;stroke-linejoin:miter;stroke-miterlimit:10;stroke-dasharray:none;stroke-opacity:1"
             id="path310" /><path
             d="m 841.828,2383.26 h 16.703"
             style="fill:none;stroke:#ffffff;stroke-width:4.16667;stroke-linecap:butt;stroke-linejoin:miter;stroke-miterlimit:10;stroke-dasharray:none;stroke-opacity:1"
             id="path312" /><path
             d="m 858.531,2383.26 16.703,33.4"
             style="fill:none;stroke:#ffffff;stroke-width:4.16667;stroke-linecap:butt;stroke-linejoin:miter;stroke-miterlimit:10;stroke-dasharray:none;stroke-opacity:1"
             id="path314" /><g
             id="g316"
             transform="scale(4.16667)"><text
               transform="matrix(0,-1,-1,0,209.565,596.031)"
               style="font-variant:normal;font-weight:normal;font-size:11.0239px;font-family:Geneva;-inkscape-font-specification:Geneva;writing-mode:lr-tb;fill:#999999;fill-opacity:1;fill-rule:nonzero;stroke:none"
               id="text322"><tspan
                 x="0 6.6804833"
                 y="0"
                 id="tspan318">R1</tspan><tspan
                 x="-15.3628 -8.0153666 -0.66793305 6.6795006"
                 y="-10.0219"
                 id="tspan320">2472</tspan></text></g><path
             d="m 1058.96,2750.72 h 16.71"
             style="fill:none;stroke:#ffffff;stroke-width:4.16667;stroke-linecap:butt;stroke-linejoin:miter;stroke-miterlimit:10;stroke-dasharray:none;stroke-opacity:1"
             id="path324" /><path
             d="m 1046.44,2715.23 12.52,35.49"
             style="fill:none;stroke:#ffffff;stroke-width:4.16667;stroke-linecap:butt;stroke-linejoin:miter;stroke-miterlimit:10;stroke-dasharray:none;stroke-opacity:1"
             id="path326" /><path
             d="m 1025.56,2786.21 20.88,-70.98"
             style="fill:none;stroke:#ffffff;stroke-width:4.16667;stroke-linecap:butt;stroke-linejoin:miter;stroke-miterlimit:10;stroke-dasharray:none;stroke-opacity:1"
             id="path328" /><path
             d="m 998.418,2715.23 27.142,70.98"
             style="fill:none;stroke:#ffffff;stroke-width:4.16667;stroke-linecap:butt;stroke-linejoin:miter;stroke-miterlimit:10;stroke-dasharray:none;stroke-opacity:1"
             id="path330" /><path
             d="m 975.453,2784.13 22.965,-68.9"
             style="fill:none;stroke:#ffffff;stroke-width:4.16667;stroke-linecap:butt;stroke-linejoin:miter;stroke-miterlimit:10;stroke-dasharray:none;stroke-opacity:1"
             id="path332" /><path
             d="M 942.047,2750.72 H 958.75"
             style="fill:none;stroke:#ffffff;stroke-width:4.16667;stroke-linecap:butt;stroke-linejoin:miter;stroke-miterlimit:10;stroke-dasharray:none;stroke-opacity:1"
             id="path334" /><path
             d="m 958.75,2750.72 16.703,33.41"
             style="fill:none;stroke:#ffffff;stroke-width:4.16667;stroke-linecap:butt;stroke-linejoin:miter;stroke-miterlimit:10;stroke-dasharray:none;stroke-opacity:1"
             id="path336" /><g
             id="g338"
             transform="scale(4.16667)"><text
               transform="matrix(0,-1,-1,0,233.617,684.222)"
               style="font-variant:normal;font-weight:normal;font-size:11.0239px;font-family:Geneva;-inkscape-font-specification:Geneva;writing-mode:lr-tb;fill:#999999;fill-opacity:1;fill-rule:nonzero;stroke:none"
               id="text344"><tspan
                 x="0 6.6804833"
                 y="0"
                 id="tspan340">R2</tspan><tspan
                 x="-25.7672 -18.419767 -15.074017 -7.7265835 0.96575749 7.3100748"
                 y="-10.0219"
                 id="tspan342">2.2Meg</tspan></text></g><path
             d="m 741.609,3147.41 v -58.46 l -29.23,29.23 z"
             style="fill:none;stroke:#ffffff;stroke-width:4.16667;stroke-linecap:butt;stroke-linejoin:miter;stroke-miterlimit:10;stroke-dasharray:none;stroke-opacity:1"
             id="path346" /><path
             d="m 1040.11,2249.63 v -176.39 l -31.25,-22.97 -31.255,22.97 v 176.39 z"
             style="fill:none;stroke:#ffffff;stroke-width:4.16667;stroke-linecap:butt;stroke-linejoin:miter;stroke-miterlimit:10;stroke-dasharray:none;stroke-opacity:1"
             id="path348" /><g
             id="g350"
             transform="scale(4.16667)"><text
               transform="matrix(0,-1,-1,0,237.625,538.409)"
               style="font-variant:normal;font-weight:normal;font-size:11.0239px;font-family:Geneva;-inkscape-font-specification:Geneva;writing-mode:lr-tb;fill:#999999;fill-opacity:1;fill-rule:nonzero;stroke:none"
               id="text354"><tspan
                 x="0 8.0154305 14.652931 18.910324 25.590807 32.314274"
                 y="0"
                 id="tspan352">Vprobe</tspan></text></g><path
             d="m 1209.29,2614.94 h 43.33 l 22.97,-31.25 -22.97,-31.25 h -43.33 z"
             style="fill:none;stroke:#ffffff;stroke-width:4.16667;stroke-linecap:butt;stroke-linejoin:miter;stroke-miterlimit:10;stroke-dasharray:none;stroke-opacity:1"
             id="path356" /><g
             id="g358"
             transform="scale(4.16667)"><text
               transform="matrix(1,0,0,-1,291.733,614.574)"
               style="font-variant:normal;font-weight:normal;font-size:11.0239px;font-family:Geneva;-inkscape-font-specification:Geneva;writing-mode:lr-tb;fill:#999999;fill-opacity:1;fill-rule:nonzero;stroke:none"
               id="text362"><tspan
                 x="0"
                 y="0"
                 id="tspan360">b</tspan></text></g><path
             d="m 1340.76,2349.85 v -40.37 l -31.25,-22.96 -31.25,22.96 v 40.37 z"
             style="fill:none;stroke:#ffffff;stroke-width:4.16667;stroke-linecap:butt;stroke-linejoin:miter;stroke-miterlimit:10;stroke-dasharray:none;stroke-opacity:1"
             id="path364" /><g
             id="g366"
             transform="scale(4.16667)"><text
               transform="matrix(0,-1,-1,0,309.782,562.462)"
               style="font-variant:normal;font-weight:normal;font-size:11.0239px;font-family:Geneva;-inkscape-font-specification:Geneva;writing-mode:lr-tb;fill:#999999;fill-opacity:1;fill-rule:nonzero;stroke:none"
               id="text386"><tspan
                 x="0"
                 y="0"
                 id="tspan368">c</tspan><tspan
                 x="30.5662 33.908611 38.794422 43.051819 49.150204 55.579361 59.252548 66.596703 70.269829 77.613976 84.958099"
                 y="-108.234"
                 id="tspan370">.tran 0 10m</tspan><tspan
                 x="30.5662 33.908611 40.546112 46.644554 50.901947 57.000389 66.855759 72.47023 76.146698 82.827187 87.127617 91.428055 97.042496 103.38895 108.27696 115.6244 122.97183 126.31427 133.6617 141.00914 148.3566 155.70404 163.05147"
                 y="-97.210899"
                 id="tspan372">.params offset=0.258645</tspan><tspan
                 x="30.5662 33.908611 43.763977 50.110462 56.208847 61.823353 65.499817 71.722801 78.360275 82.617729 89.29821 95.935715 99.612183 109.46754 115.56599 121.41194 125.0884 131.31142 136.23691 142.24933 147.17482 151.35179 157.57477 162.50026 169.22375"
                 y="-86.186798"
                 id="tspan374">.meas vdrop max v(c)-v(b)</tspan><tspan
                 x="30.5662 33.908611 43.763977 50.110462 56.208847 61.823353 65.499817 68.089317 74.435776 80.534187 86.466164 92.564575 99.288071 105.63453 109.311 119.16636 125.26477 131.11075 134.78722 141.01021 145.93568 152.15871 158.79617 163.05363 169.73412 176.45758 182.80403 187.72952 193.6615 201.00893 208.35637 215.7038"
                 y="-75.162697"
                 id="tspan376">.meas leakage max v(vprobe)/2472</tspan><tspan
                 x="30.5662 33.908611 43.763977 50.110462 56.208847 61.823353 65.499817 72.180298 76.480705 80.781143 86.395615 92.742043 97.630051 101.30652 111.16189 117.2603 123.10628 126.78275 133.00574 137.93121 144.15424 150.79173 155.04916 161.72964 168.45314 174.79956"
                 y="-64.138603"
                 id="tspan378">.meas offset max v(vprobe)</tspan><tspan
                 x="30.5662 33.908611 43.763977 50.110462 56.208847 61.823353 65.499817 71.932228 76.232666 82.579117 89.926552 93.60302 103.45839 109.5568 115.40278 119.07925 124.00473 130.22772 135.1532 141.37622 148.01369 152.27115 158.95163 165.67513 172.02155 176.94704 181.12401 186.09248 192.77296 197.07339 201.37383 206.98831 213.33473 218.22275 223.19124 228.11673 233.71468 241.0621 248.40953"
                 y="-53.114498"
                 id="tspan380">.meas hfe2 max (v(vprobe)-{offset})*100</tspan><tspan
                 x="30.5662 33.908611 43.763977 50.110462 56.208847 61.823353 65.499817 68.089317 74.812813 78.489281 88.34465 94.443062 100.28904 103.96551 106.55501 113.2785 118.20399 126.30544 133.65288"
                 y="-42.0914"
                 id="tspan382">.meas ib max ib(Q1)</tspan><tspan
                 x="30.5662 33.908611 43.763977 50.110462 56.208847 61.823353 65.499817 71.932228 76.232666 82.579117 86.255585 96.110954 102.2094 108.05534 111.73184 114.32134 120.33379 125.25928 133.36073 140.70816 145.63365 151.56563 154.15512 160.87862 165.80411 173.90556 181.25299"
                 y="-31.067301"
                 id="tspan384">.meas hfe max ic(Q1)/ib(Q1)</tspan></text></g><g
             id="g388"
             transform="scale(4.16667)"><text
               transform="matrix(0,-1,-1,0,369.912,215.209)"
               style="font-variant:normal;font-weight:normal;font-size:11.0239px;font-family:Geneva;-inkscape-font-specification:Geneva;writing-mode:lr-tb;fill:#0000ca;fill-opacity:1;fill-rule:nonzero;stroke:none"
               id="text410"><tspan
                 x="0 6.432456 12.778912 18.87734 24.809298 30.907726 37.631191 43.977661 47.320114 50.996582 58.344017 61.686455 69.03389 76.38131 86.236671"
                 y="0"
                 id="tspan390">Leakage: 0.10mA</tspan><tspan
                 x="0 6.432456 12.534181 18.878439 22.224203 25.900669 33.248104"
                 y="11.0241"
                 id="tspan392">hFE: 62</tspan><tspan
                 x="-136.29601 -128.28052 -121.60003 -119.0105 -114.12251 -108.02407 -101.30058 -94.954147 -91.277649 -84.640182 -80.382729 -73.702248 -67.064774 -63.388306 -57.041851 -51.195873 -44.558403 -38.211945 -32.199497 -27.311501 -20.965044 -14.327543 -10.651076 -4.5526481 0.33534899 4.0118303 11.359249 14.701703 22.049122"
                 y="136.2961"
                 id="tspan394">Voltage drop expected at 0.1V</tspan><tspan
                 x="-136.29601 -129.61551 -122.93504 -119.25857 -111.24308 -104.56259 -101.97309 -97.085083 -90.986664 -84.263168 -77.916718 -74.24025 -67.559769 -61.33675 -54.990322 -50.732868 -47.056404 -40.375919 -33.028488 -29.352005 -22.004587 -18.328106 -10.980686 -7.6382332"
                 y="147.3192"
                 id="tspan396">So Voltage over R2 = 8.9</tspan><tspan
                 x="-136.29601 -129.28261 -123.18419 -117.57082 -111.22988 -107.55672 -101.5465 -95.117371 -90.859917 -86.602493 -80.261543 -73.832443 -68.946632 -65.273476 -57.929352 -54.256165 -46.912041 -43.569603 -36.225479 -30.29241 -22.948288 -19.605848 -12.261725 -3.5726807 2.7682674 9.4950438 13.168214 20.512323 24.185493 31.529615 34.872055 42.216179 49.560303 56.904408 63.333553"
                 y="158.34331"
                 id="tspan398">Base current = 8.9/2.2Meg = 4.045uA</tspan><tspan
                 x="-136.29601 -129.94954 -123.85113 -118.23666 -111.93321 -108.25674 -103.36873 -96.688248 -93.01178 -88.754333 -82.407906 -76.309464 -69.671989 -65.995491 -63.405991 -57.791515 -54.449074 -50.77261 -43.425175 -40.082737 -32.735302 -25.387869 -19.455912 -12.108479 -8.7660398 -1.4186064 5.9288125 13.276246 19.708687 27.724161 31.400642 38.748062 42.424541 49.771961 57.119396 64.466812 71.814232 75.490715 83.592178 90.02462"
                 y="169.3674"
                 id="tspan400">Easy to read is: 0.01/4.045uA = 2472 Ohm</tspan><tspan
                 x="-252.548 -245.20056 -241.85812 -238.18166 -231.50117 -225.15472 -215.29936 -208.61887 -202.39589 -196.04942 -192.37296 -186.36052 -179.68002 -173.24759 -166.81517 -160.46872 -154.45627 -149.56828 -146.97876 -140.29828 -133.86583 -130.18936 -123.46587 -117.11942 -112.23143 -103.62945 -97.28302 -90.936569 -84.504128 -80.82766 -74.147179 -66.799744 -63.123245 -57.024834 -50.592392 -43.954891 -40.278423 -35.390442 -28.957985 -22.611515 -18.935047 -12.211567 -6.1131387 -0.49867764 5.8477783 9.5242596 16.204742 20.505177 24.181644 32.283112 39.630531 43.307011 48.195007 54.875492 58.551971 65.275436 71.62191 76.509903 80.186371 85.073997 91.506439 97.852905 101.52938 104.11889 110.46535 116.56376 122.49572 128.59415 135.31761"
                 y="72.157097"
                 id="tspan402">1. Remove connection between R2 and the base of Q1 to get the leakage</tspan><tspan
                 x="-252.548 -245.20056 -241.85812 -238.18166 -227.74423 -223.48677 -220.89725 -216.00926 -209.6628 -205.98634 -199.34883 -192.66835 -184.06641 -177.63396 -173.95749 -169.06947 -162.63704 -156.2906 -152.61412 -145.93364 -141.63322 -137.33279 -131.71832 -125.37186 -120.48388 -116.80741 -110.70897 -104.27653 -97.639053 -93.962563 -84.107193 -78.008751 -72.076805 -65.730354 -62.053886 -57.165874 -50.733433 -48.143929 -42.529453 -38.852989 -33.964977 -27.532534 -21.186064 -17.509598 -11.28661 -5.1881814 -2.5986781 3.8337781 10.180248 13.856715 20.537199 24.837633 28.514099 33.402111 39.834553 46.181 49.857468 56.494953 62.59338 66.850822 72.949249 82.804611 86.481079 93.161568 97.461983 101.76241 107.37688 113.72334"
                 y="83.180199"
                 id="tspan404">2. Write down the offset and make this the value of the param offset</tspan><tspan
                 x="-252.548 -245.20056 -241.85812 -238.18166 -231.50117 -225.15472 -219.14227 -212.46179 -206.02934 -199.59694 -193.25047 -187.23804 -182.35005 -178.67358 -171.9931 -164.64566 -160.96919 -152.36725 -149.77771 -144.88969 -138.45729 -134.78079 -129.89281 -123.46037 -117.11391 -113.43745 -106.71395 -100.61554 -95.00106 -88.65461 -84.978142 -78.297653 -73.997223 -70.320755 -62.219303 -54.871868 -51.195404 -45.096958 -38.664516 -32.027046 -28.350565 -18.495199 -12.148743 -6.0503139 -0.43585306 5.996603 10.254041 16.600496 20.276978 26.375391 33.098873 39.1973 41.786804"
                 y="94.2043"
                 id="tspan406">3. Reconnect R2 with the base of Q1 and measure again</tspan><tspan
                 x="-252.548 -245.20056 -241.85812 -238.18166 -230.83423 -225.21976 -218.87329 -215.19682 -210.30882 -203.87637 -197.52995 -193.85345 -187.63046 -181.53206 -178.94252 -172.51009 -166.16362 -162.48715 -155.80667 -151.50624 -147.82977 -141.39732 -137.09689 -130.75047 -123.40301 -119.72654 -113.62813 -109.95163 -105.06365 -98.63121 -92.284752 -88.608284 -78.752914 -72.406464 -66.308022 -60.693573 -54.261131 -50.003708 -43.657253 -37.019753 -33.343285 -27.120298 -21.02187 -18.432365 -11.999909"
                 y="105.2284"
                 id="tspan408">4. Use the value of hfe2 a the measured value</tspan></text></g><path
             d="m 1476.54,2383.26 v 734.92"
             style="fill:none;stroke:#ffffff;stroke-width:4.16667;stroke-linecap:butt;stroke-linejoin:miter;stroke-miterlimit:10;stroke-dasharray:none;stroke-opacity:1"
             id="path412" /><path
             d="m 1309.51,2383.26 h 167.03"
             style="fill:none;stroke:#ffffff;stroke-width:4.16667;stroke-linecap:butt;stroke-linejoin:miter;stroke-miterlimit:10;stroke-dasharray:none;stroke-opacity:1"
             id="path414" /><path
             d="m 1309.51,2349.85 v 33.41"
             style="fill:none;stroke:#ffffff;stroke-width:4.16667;stroke-linecap:butt;stroke-linejoin:miter;stroke-miterlimit:10;stroke-dasharray:none;stroke-opacity:1"
             id="path416" /><path
             d="m 1242.7,2383.26 h 66.81"
             style="fill:none;stroke:#ffffff;stroke-width:4.16667;stroke-linecap:butt;stroke-linejoin:miter;stroke-miterlimit:10;stroke-dasharray:none;stroke-opacity:1"
             id="path418" /><path
             d="m 1175.89,3118.18 h 300.65"
             style="fill:none;stroke:#ffffff;stroke-width:4.16667;stroke-linecap:butt;stroke-linejoin:miter;stroke-miterlimit:10;stroke-dasharray:none;stroke-opacity:1"
             id="path420" /><path
             d="m 1142.48,2583.69 h 66.81"
             style="fill:none;stroke:#ffffff;stroke-width:4.16667;stroke-linecap:butt;stroke-linejoin:miter;stroke-miterlimit:10;stroke-dasharray:none;stroke-opacity:1"
             id="path422" /><path
             d="m 1142.48,2583.69 v 167.03"
             style="fill:none;stroke:#ffffff;stroke-width:4.16667;stroke-linecap:butt;stroke-linejoin:miter;stroke-miterlimit:10;stroke-dasharray:none;stroke-opacity:1"
             id="path424" /><path
             d="m 1142.48,2516.88 v 66.81"
             style="fill:none;stroke:#ffffff;stroke-width:4.16667;stroke-linecap:butt;stroke-linejoin:miter;stroke-miterlimit:10;stroke-dasharray:none;stroke-opacity:1"
             id="path426" /><path
             d="m 1075.67,2750.72 h 66.81"
             style="fill:none;stroke:#ffffff;stroke-width:4.16667;stroke-linecap:butt;stroke-linejoin:miter;stroke-miterlimit:10;stroke-dasharray:none;stroke-opacity:1"
             id="path428" /><path
             d="m 1008.86,2383.26 h 33.4"
             style="fill:none;stroke:#ffffff;stroke-width:4.16667;stroke-linecap:butt;stroke-linejoin:miter;stroke-miterlimit:10;stroke-dasharray:none;stroke-opacity:1"
             id="path430" /><path
             d="m 1008.86,2249.63 v 133.63"
             style="fill:none;stroke:#ffffff;stroke-width:4.16667;stroke-linecap:butt;stroke-linejoin:miter;stroke-miterlimit:10;stroke-dasharray:none;stroke-opacity:1"
             id="path432" /><path
             d="m 975.453,2383.26 h 33.407"
             style="fill:none;stroke:#ffffff;stroke-width:4.16667;stroke-linecap:butt;stroke-linejoin:miter;stroke-miterlimit:10;stroke-dasharray:none;stroke-opacity:1"
             id="path434" /><path
             d="M 808.422,3118.18 H 1008.86"
             style="fill:none;stroke:#ffffff;stroke-width:4.16667;stroke-linecap:butt;stroke-linejoin:miter;stroke-miterlimit:10;stroke-dasharray:none;stroke-opacity:1"
             id="path436" /><path
             d="M 808.422,2750.72 H 942.047"
             style="fill:none;stroke:#ffffff;stroke-width:4.16667;stroke-linecap:butt;stroke-linejoin:miter;stroke-miterlimit:10;stroke-dasharray:none;stroke-opacity:1"
             id="path438" /><path
             d="m 808.422,2750.72 v 367.46"
             style="fill:none;stroke:#ffffff;stroke-width:4.16667;stroke-linecap:butt;stroke-linejoin:miter;stroke-miterlimit:10;stroke-dasharray:none;stroke-opacity:1"
             id="path440" /><path
             d="m 808.422,2383.26 h 33.406"
             style="fill:none;stroke:#ffffff;stroke-width:4.16667;stroke-linecap:butt;stroke-linejoin:miter;stroke-miterlimit:10;stroke-dasharray:none;stroke-opacity:1"
             id="path442" /><path
             d="m 808.422,2383.26 v 367.46"
             style="fill:none;stroke:#ffffff;stroke-width:4.16667;stroke-linecap:butt;stroke-linejoin:miter;stroke-miterlimit:10;stroke-dasharray:none;stroke-opacity:1"
             id="path444" /><path
             d="m 741.609,3118.18 h 66.813"
             style="fill:none;stroke:#ffffff;stroke-width:4.16667;stroke-linecap:butt;stroke-linejoin:miter;stroke-miterlimit:10;stroke-dasharray:none;stroke-opacity:1"
             id="path446" /><path
             d="m 797.984,3107.75 h 20.8789 v 20.8789 H 797.984 Z"
             style="fill:#ffffff;fill-opacity:1;fill-rule:nonzero;stroke:none"
             id="path448" /><path
             d="m 797.984,2740.28 h 20.8789 v 20.8789 H 797.984 Z"
             style="fill:#ffffff;fill-opacity:1;fill-rule:nonzero;stroke:none"
             id="path450" /><path
             d="m 1132.04,2573.25 h 20.8789 v 20.8789 H 1132.04 Z"
             style="fill:#ffffff;fill-opacity:1;fill-rule:nonzero;stroke:none"
             id="path452" /><path
             d="m 1299.07,2372.82 h 20.8789 v 20.8789 H 1299.07 Z"
             style="fill:#ffffff;fill-opacity:1;fill-rule:nonzero;stroke:none"
             id="path454" /><path
             d="m 998.418,2372.82 h 20.8789 v 20.8789 H 998.418 Z"
             style="fill:#ffffff;fill-opacity:1;fill-rule:nonzero;stroke:none"
             id="path456" /></g></g></g></g></svg>
