<?xml version="1.0" encoding="UTF-8" standalone="no"?>
<svg
   xmlns:dc="http://purl.org/dc/elements/1.1/"
   xmlns:cc="http://creativecommons.org/ns#"
   xmlns:rdf="http://www.w3.org/1999/02/22-rdf-syntax-ns#"
   xmlns:svg="http://www.w3.org/2000/svg"
   xmlns="http://www.w3.org/2000/svg"
   version="1.1"
   id="svg10"
   xml:space="preserve"
   width="656.07672"
   height="243.48486"
   viewBox="0 0 590.46905 219.13637"><metadata
     id="metadata16"><rdf:RDF><cc:Work
         rdf:about=""><dc:format>image/svg+xml</dc:format><dc:type
           rdf:resource="http://purl.org/dc/dcmitype/StillImage" /><dc:title></dc:title></cc:Work></rdf:RDF></metadata><defs
     id="defs14"><clipPath
       clipPathUnits="userSpaceOnUse"
       id="clipPath28"><path
         d="M 300,375 H 2179.17 V 3133.33 H 300 Z"
         id="path26" /></clipPath></defs><g
     id="g18"
     transform="matrix(1.3333333,0,0,-1.3333333,-104.32068,697.59537)"><g
       id="g20"
       transform="scale(0.24)"><g
         id="g22"><g
           id="g24"
           clip-path="url(#clipPath28)"><path
             d="m 1138.8,1728.79 -14.2,-14.2"
             style="fill:none;stroke:#ffffff;stroke-width:4.16667;stroke-linecap:butt;stroke-linejoin:miter;stroke-miterlimit:10;stroke-dasharray:none;stroke-opacity:1"
             id="path30" /><path
             d="m 1174.28,1693.3 -35.48,35.49"
             style="fill:none;stroke:#ffffff;stroke-width:4.16667;stroke-linecap:butt;stroke-linejoin:miter;stroke-miterlimit:10;stroke-dasharray:none;stroke-opacity:1"
             id="path32" /><path
             d="m 1174.28,1693.3 -49.68,21.29"
             style="fill:none;stroke:#ffffff;stroke-width:4.16667;stroke-linecap:butt;stroke-linejoin:miter;stroke-miterlimit:10;stroke-dasharray:none;stroke-opacity:1"
             id="path34" /><path
             d="m 1131.7,1721.69 -42.59,28.39"
             style="fill:none;stroke:#ffffff;stroke-width:4.16667;stroke-linecap:butt;stroke-linejoin:miter;stroke-miterlimit:10;stroke-dasharray:none;stroke-opacity:1"
             id="path36" /><path
             d="m 1089.11,1721.69 v 113.56"
             style="fill:none;stroke:#ffffff;stroke-width:4.16667;stroke-linecap:butt;stroke-linejoin:miter;stroke-miterlimit:10;stroke-dasharray:none;stroke-opacity:1"
             id="path38" /><path
             d="m 1089.11,1806.86 85.17,56.78"
             style="fill:none;stroke:#ffffff;stroke-width:4.16667;stroke-linecap:butt;stroke-linejoin:miter;stroke-miterlimit:10;stroke-dasharray:none;stroke-opacity:1"
             id="path40" /><path
             d="m 1089.11,1778.47 h -28.38"
             style="fill:none;stroke:#ffffff;stroke-width:4.16667;stroke-linecap:butt;stroke-linejoin:miter;stroke-miterlimit:10;stroke-dasharray:none;stroke-opacity:1"
             id="path42" /><g
             id="g44"
             transform="scale(4.16667)"><text
               transform="matrix(1,0,0,-1,278.422,430.646)"
               style="font-variant:normal;font-weight:normal;font-size:9.36842px;font-family:Geneva;-inkscape-font-specification:Geneva;writing-mode:lr-tb;fill:#999999;fill-opacity:1;fill-rule:nonzero;stroke:none"
               id="text50"><tspan
                 x="0 6.884851"
                 y="0"
                 id="tspan46">Q1</tspan><tspan
                 x="0 5.9601903 12.060906 18.302143 24.543407 30.784645"
                 y="15.33"
                 id="tspan48">BC549C</tspan></text></g><path
             d="m 620.695,1828.15 h 28.387"
             style="fill:none;stroke:#ffffff;stroke-width:4.16667;stroke-linecap:butt;stroke-linejoin:miter;stroke-miterlimit:10;stroke-dasharray:none;stroke-opacity:1"
             id="path52" /><path
             d="m 620.695,1757.18 h 28.387"
             style="fill:none;stroke:#ffffff;stroke-width:4.16667;stroke-linecap:butt;stroke-linejoin:miter;stroke-miterlimit:10;stroke-dasharray:none;stroke-opacity:1"
             id="path54" /><path
             d="m 634.887,1842.34 v -28.38"
             style="fill:none;stroke:#ffffff;stroke-width:4.16667;stroke-linecap:butt;stroke-linejoin:miter;stroke-miterlimit:10;stroke-dasharray:none;stroke-opacity:1"
             id="path56" /><path
             d="m 634.887,1721.69 v 14.2"
             style="fill:none;stroke:#ffffff;stroke-width:4.16667;stroke-linecap:butt;stroke-linejoin:miter;stroke-miterlimit:10;stroke-dasharray:none;stroke-opacity:1"
             id="path58" /><path
             d="m 634.887,1863.64 v -14.2"
             style="fill:none;stroke:#ffffff;stroke-width:4.16667;stroke-linecap:butt;stroke-linejoin:miter;stroke-miterlimit:10;stroke-dasharray:none;stroke-opacity:1"
             id="path60" /><path
             d="m 675.035,1832.81 c 22.176,-22.17 22.176,-58.12 0,-80.29 -22.172,-22.18 -58.121,-22.18 -80.297,0 -22.172,22.17 -22.172,58.12 0,80.29 22.176,22.17 58.125,22.17 80.297,0"
             style="fill:none;stroke:#ffffff;stroke-width:4.16667;stroke-linecap:butt;stroke-linejoin:miter;stroke-miterlimit:10;stroke-dasharray:none;stroke-opacity:1"
             id="path62" /><g
             id="g64"
             transform="scale(4.16667)"><text
               transform="matrix(1,0,0,-1,162.593,444.273)"
               style="font-variant:normal;font-weight:normal;font-size:9.36842px;font-family:Geneva;-inkscape-font-specification:Geneva;writing-mode:lr-tb;fill:#999999;fill-opacity:1;fill-rule:nonzero;stroke:none"
               id="text70"><tspan
                 x="0 6.811779"
                 y="0"
                 id="tspan66">V1</tspan><tspan
                 x="0"
                 y="34.066898"
                 id="tspan68">9</tspan></text></g><path
             d="m 918.781,1906.22 v 14.19"
             style="fill:none;stroke:#ffffff;stroke-width:4.16667;stroke-linecap:butt;stroke-linejoin:miter;stroke-miterlimit:10;stroke-dasharray:none;stroke-opacity:1"
             id="path72" /><path
             d="m 948.941,1895.57 -30.16,10.65"
             style="fill:none;stroke:#ffffff;stroke-width:4.16667;stroke-linecap:butt;stroke-linejoin:miter;stroke-miterlimit:10;stroke-dasharray:none;stroke-opacity:1"
             id="path74" /><path
             d="m 888.617,1877.83 60.324,17.74"
             style="fill:none;stroke:#ffffff;stroke-width:4.16667;stroke-linecap:butt;stroke-linejoin:miter;stroke-miterlimit:10;stroke-dasharray:none;stroke-opacity:1"
             id="path76" /><path
             d="m 948.941,1854.77 -60.324,23.06"
             style="fill:none;stroke:#ffffff;stroke-width:4.16667;stroke-linecap:butt;stroke-linejoin:miter;stroke-miterlimit:10;stroke-dasharray:none;stroke-opacity:1"
             id="path78" /><path
             d="m 890.391,1835.25 58.55,19.52"
             style="fill:none;stroke:#ffffff;stroke-width:4.16667;stroke-linecap:butt;stroke-linejoin:miter;stroke-miterlimit:10;stroke-dasharray:none;stroke-opacity:1"
             id="path80" /><path
             d="m 918.781,1806.86 v 14.19"
             style="fill:none;stroke:#ffffff;stroke-width:4.16667;stroke-linecap:butt;stroke-linejoin:miter;stroke-miterlimit:10;stroke-dasharray:none;stroke-opacity:1"
             id="path82" /><path
             d="m 918.781,1821.05 -28.39,14.2"
             style="fill:none;stroke:#ffffff;stroke-width:4.16667;stroke-linecap:butt;stroke-linejoin:miter;stroke-miterlimit:10;stroke-dasharray:none;stroke-opacity:1"
             id="path84" /><g
             id="g86"
             transform="scale(4.16667)"><text
               transform="matrix(1,0,0,-1,200.069,440.866)"
               style="font-variant:normal;font-weight:normal;font-size:9.36842px;font-family:Geneva;-inkscape-font-specification:Geneva;writing-mode:lr-tb;fill:#999999;fill-opacity:1;fill-rule:nonzero;stroke:none"
               id="text92"><tspan
                 x="0 5.6772623"
                 y="0"
                 id="tspan88">R2</tspan><tspan
                 x="-21.8972 -15.653136 -12.809833 -6.5657692 0.82123315 6.2127557"
                 y="-8.51719"
                 id="tspan90">2.2Meg</tspan></text></g><path
             d="m 1174.28,1991.39 v 14.19"
             style="fill:none;stroke:#ffffff;stroke-width:4.16667;stroke-linecap:butt;stroke-linejoin:miter;stroke-miterlimit:10;stroke-dasharray:none;stroke-opacity:1"
             id="path94" /><path
             d="m 1204.45,1980.74 -30.17,10.65"
             style="fill:none;stroke:#ffffff;stroke-width:4.16667;stroke-linecap:butt;stroke-linejoin:miter;stroke-miterlimit:10;stroke-dasharray:none;stroke-opacity:1"
             id="path96" /><path
             d="m 1144.12,1963 60.33,17.74"
             style="fill:none;stroke:#ffffff;stroke-width:4.16667;stroke-linecap:butt;stroke-linejoin:miter;stroke-miterlimit:10;stroke-dasharray:none;stroke-opacity:1"
             id="path98" /><path
             d="M 1204.45,1939.93 1144.12,1963"
             style="fill:none;stroke:#ffffff;stroke-width:4.16667;stroke-linecap:butt;stroke-linejoin:miter;stroke-miterlimit:10;stroke-dasharray:none;stroke-opacity:1"
             id="path100" /><path
             d="m 1145.89,1920.41 58.56,19.52"
             style="fill:none;stroke:#ffffff;stroke-width:4.16667;stroke-linecap:butt;stroke-linejoin:miter;stroke-miterlimit:10;stroke-dasharray:none;stroke-opacity:1"
             id="path102" /><path
             d="m 1174.28,1892.02 v 14.2"
             style="fill:none;stroke:#ffffff;stroke-width:4.16667;stroke-linecap:butt;stroke-linejoin:miter;stroke-miterlimit:10;stroke-dasharray:none;stroke-opacity:1"
             id="path104" /><path
             d="m 1174.28,1906.22 -28.39,14.19"
             style="fill:none;stroke:#ffffff;stroke-width:4.16667;stroke-linecap:butt;stroke-linejoin:miter;stroke-miterlimit:10;stroke-dasharray:none;stroke-opacity:1"
             id="path106" /><g
             id="g108"
             transform="scale(4.16667)"><text
               transform="matrix(1,0,0,-1,261.39,461.306)"
               style="font-variant:normal;font-weight:normal;font-size:9.36842px;font-family:Geneva;-inkscape-font-specification:Geneva;writing-mode:lr-tb;fill:#999999;fill-opacity:1;fill-rule:nonzero;stroke:none"
               id="text114"><tspan
                 x="0 5.6772623"
                 y="0"
                 id="tspan110">R1</tspan><tspan
                 x="-13.0556 -6.8115516 -0.56747341 5.6765752"
                 y="-8.51719"
                 id="tspan112">2651</tspan></text></g><path
             d="m 610.047,1522.96 h 49.683 l -24.843,-24.83 z"
             style="fill:none;stroke:#ffffff;stroke-width:4.16667;stroke-linecap:butt;stroke-linejoin:miter;stroke-miterlimit:10;stroke-dasharray:none;stroke-opacity:1"
             id="path116" /><path
             d="m 1231.06,1917.02 h 149.91 l 19.51,-25 -19.51,-25 h -149.91 z"
             style="fill:none;stroke:#ffffff;stroke-width:4.16667;stroke-linecap:butt;stroke-linejoin:miter;stroke-miterlimit:10;stroke-dasharray:none;stroke-opacity:1"
             id="path118" /><g
             id="g120"
             transform="scale(4.16667)"><text
               transform="matrix(1,0,0,-1,296.732,451.086)"
               style="font-variant:normal;font-weight:normal;font-size:9.36842px;font-family:Geneva;-inkscape-font-specification:Geneva;writing-mode:lr-tb;fill:#999999;fill-opacity:1;fill-rule:nonzero;stroke:none"
               id="text124"><tspan
                 x="0 6.811779 12.452476 16.070591 21.747852 27.461651"
                 y="0"
                 id="tspan122">Vprobe</tspan></text></g><path
             d="m 1202.67,1661.52 h 35.49 l 19.52,-25 -19.52,-25 h -35.49 z"
             style="fill:none;stroke:#ffffff;stroke-width:4.16667;stroke-linecap:butt;stroke-linejoin:miter;stroke-miterlimit:10;stroke-dasharray:none;stroke-opacity:1"
             id="path126" /><g
             id="g128"
             transform="scale(4.16667)"><text
               transform="matrix(1,0,0,-1,289.919,389.766)"
               style="font-variant:normal;font-weight:normal;font-size:9.36842px;font-family:Geneva;-inkscape-font-specification:Geneva;writing-mode:lr-tb;fill:#999999;fill-opacity:1;fill-rule:nonzero;stroke:none"
               id="text132"><tspan
                 x="0"
                 y="0"
                 id="tspan130">e</tspan></text></g><path
             d="m 978.949,1750.08 v -36.83 l 25.001,-19.51 25,19.51 v 36.83 z"
             style="fill:none;stroke:#ffffff;stroke-width:4.16667;stroke-linecap:butt;stroke-linejoin:miter;stroke-miterlimit:10;stroke-dasharray:none;stroke-opacity:1"
             id="path134" /><g
             id="g136"
             transform="scale(4.16667)"><text
               transform="matrix(0,1,1,0,245.632,413.028)"
               style="font-variant:normal;font-weight:normal;font-size:9.36842px;font-family:Geneva;-inkscape-font-specification:Geneva;writing-mode:lr-tb;fill:#999999;fill-opacity:1;fill-rule:nonzero;stroke:none"
               id="text140"><tspan
                 x="0"
                 y="0"
                 id="tspan138">b</tspan></text><text
               transform="matrix(1,0,0,-1,77.4262,515.813)"
               style="font-variant:normal;font-weight:normal;font-size:9.36842px;font-family:Geneva;-inkscape-font-specification:Geneva;writing-mode:lr-tb;fill:#999999;fill-opacity:1;fill-rule:nonzero;stroke:none"
               id="text160"><tspan
                 x="0 2.8405063 5.0439525 7.2474065 12.964018 16.085577 22.045759 28.146475 34.387718 40.628956 46.870205 52.970909 55.811413 60.581814 66.045494"
                 y="0"
                 id="tspan142">.lib BC549C.sub</tspan><tspan
                 x="272.535 275.37552 279.52756 283.14569 288.32825 293.79193 296.91351 303.15475 306.27631 312.51758 318.75882"
                 y="30.66"
                 id="tspan144">.tran 0 10m</tspan><tspan
                 x="272.535 275.37552 283.75089 289.14426 294.32687 299.09821 302.22256 307.51108 313.15176 316.76987 322.44714 328.08786 331.21225 339.58762 344.7702 349.73825 352.86264 358.15115 362.33691 368.05072"
                 y="40.028439"
                 id="tspan146">.meas vdrop max v(b)</tspan><tspan
                 x="272.535 275.37552 283.75089 289.14426 294.32687 299.09821 302.22256 304.42325 309.81659 314.99921 320.04037 325.22296 330.93677 336.33017 339.45453 347.8299 353.01251 357.98059 361.10495 366.39343 370.57925 375.86774 381.50845 385.12653 390.8038 396.51761 401.91101 406.09677 411.13791 417.38196 423.62601 429.87006"
                 y="49.396881"
                 id="tspan148">.meas leakage max v(vprobe)/2651</tspan><tspan
                 x="272.535 275.37552 283.75089 289.14426 294.32687 299.09821 302.22256 307.89981 311.55447 315.20911 319.98044 325.37381 329.52777 332.65213 341.0275 346.21011 351.17819 354.30255 359.59103 363.77686 369.06531 374.70605 378.32413 384.0014 389.71518 395.10858"
                 y="58.76532"
                 id="tspan150">.meas offset max v(vprobe)</tspan><tspan
                 x="272.535 275.37552 283.75089 289.14426 294.32687 299.09821 302.22256 307.68903 311.34369 316.73706 322.98114 326.1055 334.48087 339.66348 344.63156 347.75592 351.94171 358.18579 361.73547 367.02396 371.20978 376.49823 382.13898 385.75705 391.43433 397.14813 402.5415 406.72729 410.27698 416.52103 420.70685 425.46414 431.70819 437.95224"
                 y="68.133759"
                 id="tspan152">.meas hfe2 max (9-v(vprobe)-0)*100</tspan><tspan
                 x="272.535 275.37552 283.75089 289.14426 294.32687 299.09821 302.22256 304.42325 310.13702 313.26141 321.63678 326.8194 331.78745 334.91183 337.11246 342.82626 347.01208 353.89694 360.14099"
                 y="77.502197"
                 id="tspan154">.meas ib max ib(Q1)</tspan><tspan
                 x="272.535 275.37552 283.75089 289.14426 294.32687 299.09821 302.22256 304.42325 309.53275 312.6571 321.03247 326.21509 331.18317 334.30753 336.50818 341.61771 345.80353 352.68839 358.93243"
                 y="86.870644"
                 id="tspan156">.meas ic max ic(Q1)</tspan><tspan
                 x="272.535 275.37552 283.75089 289.14426 294.32687 299.09821 302.22256 307.68903 311.34369 316.73706 319.86142 328.23679 333.41937 338.38745 341.51181 343.71249 348.82199 353.00781 359.89267 366.13672 370.32251 375.36368 377.5643 383.27811 387.46393 394.34875 400.5928"
                 y="96.239082"
                 id="tspan158">.meas hfe max ic(Q1)/ib(Q1)</tspan></text></g><g
             id="g162"
             transform="scale(4.16667)"><text
               transform="matrix(1,0,0,-1,377.215,393.173)"
               style="font-variant:normal;font-weight:normal;font-size:9.36842px;font-family:Geneva;-inkscape-font-specification:Geneva;writing-mode:lr-tb;fill:#0000ca;fill-opacity:1;fill-rule:nonzero;stroke:none"
               id="text176"><tspan
                 x="0 2.2006412 7.5940385 12.776649 17.817797 23.000408 28.714207 34.107574 36.948082 40.072453 46.316532 54.691898"
                 y="0"
                 id="tspan164">leakage: 0mA</tspan><tspan
                 x="0 5.4664764 10.6519 16.043394 18.886711 22.011084 28.255161 34.49921"
                 y="9.3684397"
                 id="tspan166">hFE: 524</tspan></text></g><path
             d="M 918.781,2062.36 H 634.887"
             style="fill:none;stroke:#ffffff;stroke-width:4.16667;stroke-linecap:butt;stroke-linejoin:miter;stroke-miterlimit:10;stroke-dasharray:none;stroke-opacity:1"
             id="path178" /><path
             d="M 1174.28,2062.36 H 918.781"
             style="fill:none;stroke:#ffffff;stroke-width:4.16667;stroke-linecap:butt;stroke-linejoin:miter;stroke-miterlimit:10;stroke-dasharray:none;stroke-opacity:1"
             id="path180" /><path
             d="m 1174.28,2005.58 v 56.78"
             style="fill:none;stroke:#ffffff;stroke-width:4.16667;stroke-linecap:butt;stroke-linejoin:miter;stroke-miterlimit:10;stroke-dasharray:none;stroke-opacity:1"
             id="path182" /><path
             d="m 918.781,1920.41 v 141.95"
             style="fill:none;stroke:#ffffff;stroke-width:4.16667;stroke-linecap:butt;stroke-linejoin:miter;stroke-miterlimit:10;stroke-dasharray:none;stroke-opacity:1"
             id="path184" /><path
             d="m 1231.06,1892.02 h -56.78"
             style="fill:none;stroke:#ffffff;stroke-width:4.16667;stroke-linecap:butt;stroke-linejoin:miter;stroke-miterlimit:10;stroke-dasharray:none;stroke-opacity:1"
             id="path186" /><path
             d="m 634.887,1863.64 v 198.72"
             style="fill:none;stroke:#ffffff;stroke-width:4.16667;stroke-linecap:butt;stroke-linejoin:miter;stroke-miterlimit:10;stroke-dasharray:none;stroke-opacity:1"
             id="path188" /><path
             d="m 1174.28,1863.64 v 28.38"
             style="fill:none;stroke:#ffffff;stroke-width:4.16667;stroke-linecap:butt;stroke-linejoin:miter;stroke-miterlimit:10;stroke-dasharray:none;stroke-opacity:1"
             id="path190" /><path
             d="m 918.781,1778.47 v 28.39"
             style="fill:none;stroke:#ffffff;stroke-width:4.16667;stroke-linecap:butt;stroke-linejoin:miter;stroke-miterlimit:10;stroke-dasharray:none;stroke-opacity:1"
             id="path192" /><path
             d="M 1003.95,1778.47 H 918.781"
             style="fill:none;stroke:#ffffff;stroke-width:4.16667;stroke-linecap:butt;stroke-linejoin:miter;stroke-miterlimit:10;stroke-dasharray:none;stroke-opacity:1"
             id="path194" /><path
             d="m 1060.73,1778.47 h -56.78"
             style="fill:none;stroke:#ffffff;stroke-width:4.16667;stroke-linecap:butt;stroke-linejoin:miter;stroke-miterlimit:10;stroke-dasharray:none;stroke-opacity:1"
             id="path196" /><path
             d="m 1003.95,1750.08 v 28.39"
             style="fill:none;stroke:#ffffff;stroke-width:4.16667;stroke-linecap:butt;stroke-linejoin:miter;stroke-miterlimit:10;stroke-dasharray:none;stroke-opacity:1"
             id="path198" /><path
             d="m 1174.28,1636.52 v 56.78"
             style="fill:none;stroke:#ffffff;stroke-width:4.16667;stroke-linecap:butt;stroke-linejoin:miter;stroke-miterlimit:10;stroke-dasharray:none;stroke-opacity:1"
             id="path200" /><path
             d="m 1202.67,1636.52 h -28.39"
             style="fill:none;stroke:#ffffff;stroke-width:4.16667;stroke-linecap:butt;stroke-linejoin:miter;stroke-miterlimit:10;stroke-dasharray:none;stroke-opacity:1"
             id="path202" /><path
             d="m 634.887,1551.36 v 170.33"
             style="fill:none;stroke:#ffffff;stroke-width:4.16667;stroke-linecap:butt;stroke-linejoin:miter;stroke-miterlimit:10;stroke-dasharray:none;stroke-opacity:1"
             id="path204" /><path
             d="m 1174.28,1551.36 v 85.16"
             style="fill:none;stroke:#ffffff;stroke-width:4.16667;stroke-linecap:butt;stroke-linejoin:miter;stroke-miterlimit:10;stroke-dasharray:none;stroke-opacity:1"
             id="path206" /><path
             d="M 1174.28,1551.36 H 634.887"
             style="fill:none;stroke:#ffffff;stroke-width:4.16667;stroke-linecap:butt;stroke-linejoin:miter;stroke-miterlimit:10;stroke-dasharray:none;stroke-opacity:1"
             id="path208" /><path
             d="m 634.887,1522.96 v 28.4"
             style="fill:none;stroke:#ffffff;stroke-width:4.16667;stroke-linecap:butt;stroke-linejoin:miter;stroke-miterlimit:10;stroke-dasharray:none;stroke-opacity:1"
             id="path210" /><path
             d="m 626.016,1542.48 h 17.7461 v 17.7422 H 626.016 Z"
             style="fill:#ffffff;fill-opacity:1;fill-rule:nonzero;stroke:none"
             id="path212" /><path
             d="m 909.91,2053.49 h 17.7422 v 17.7422 H 909.91 Z"
             style="fill:#ffffff;fill-opacity:1;fill-rule:nonzero;stroke:none"
             id="path214" /><path
             d="m 995.074,1769.6 h 17.7461 v 17.7422 H 995.074 Z"
             style="fill:#ffffff;fill-opacity:1;fill-rule:nonzero;stroke:none"
             id="path216" /><path
             d="m 1165.41,1883.15 h 17.7422 v 17.7461 H 1165.41 Z"
             style="fill:#ffffff;fill-opacity:1;fill-rule:nonzero;stroke:none"
             id="path218" /><path
             d="m 1165.41,1627.65 h 17.7422 v 17.7422 H 1165.41 Z"
             style="fill:#ffffff;fill-opacity:1;fill-rule:nonzero;stroke:none"
             id="path220" /></g></g></g></g></svg>
