<?xml version="1.0" encoding="UTF-8" standalone="no"?>
<svg
   xmlns:dc="http://purl.org/dc/elements/1.1/"
   xmlns:cc="http://creativecommons.org/ns#"
   xmlns:rdf="http://www.w3.org/1999/02/22-rdf-syntax-ns#"
   xmlns:svg="http://www.w3.org/2000/svg"
   xmlns="http://www.w3.org/2000/svg"
   version="1.1"
   id="svg815"
   xml:space="preserve"
   width="604.84106"
   height="361.33768"
   viewBox="0 0 907.26158 542.00654"><metadata
     id="metadata821"><rdf:RDF><cc:Work
         rdf:about=""><dc:format>image/svg+xml</dc:format><dc:type
           rdf:resource="http://purl.org/dc/dcmitype/StillImage" /><dc:title></dc:title></cc:Work></rdf:RDF></metadata><defs
     id="defs819"><clipPath
       clipPathUnits="userSpaceOnUse"
       id="clipPath833"><path
         d="m 375,299.582 h 1729.17 v 2908.34 H 375 Z"
         id="path831" /></clipPath><clipPath
       clipPathUnits="userSpaceOnUse"
       id="clipPath1031"><path
         d="m 500,370.418 h 720.832 v 2620.83 H 500 Z"
         id="path1029" /></clipPath><clipPath
       clipPathUnits="userSpaceOnUse"
       id="clipPath1041"><path
         d="m 375,299.582 h 1729.17 v 2908.34 H 375 Z"
         id="path1039" /></clipPath><clipPath
       clipPathUnits="userSpaceOnUse"
       id="clipPath1055"><path
         d="m 1300,370.418 h 720.832 v 2620.83 H 1300 Z"
         id="path1053" /></clipPath></defs><g
     id="g823"
     transform="matrix(0,-1.3333333,-1.3333333,0,1025.6049,667.07604)"><g
       id="g825"
       transform="scale(0.24)"><g
         id="g827"><g
           id="g829"
           clip-path="url(#clipPath833)"><path
             d="M 500,2990.65 H 458.332"
             style="fill:none;stroke:#969696;stroke-width:4.16667;stroke-linecap:butt;stroke-linejoin:miter;stroke-miterlimit:10;stroke-dasharray:none;stroke-opacity:1"
             id="path835" /><g
             id="g837"
             transform="scale(4.16667)"><text
               transform="matrix(0,-1,-1,0,94.0003,730.4)"
               style="font-variant:normal;font-weight:normal;font-size:14px;font-family:Menlo;-inkscape-font-specification:Menlo-Regular;writing-mode:lr-tb;fill:#969696;fill-opacity:1;fill-rule:nonzero;stroke:none"
               id="text841"><tspan
                 x="0 8.4280005 16.855413"
                 y="0"
                 id="tspan839">0ms</tspan></text></g><path
             d="M 500,2728.78 H 458.332"
             style="fill:none;stroke:#969696;stroke-width:4.16667;stroke-linecap:butt;stroke-linejoin:miter;stroke-miterlimit:10;stroke-dasharray:none;stroke-opacity:1"
             id="path843" /><g
             id="g845"
             transform="scale(4.16667)"><text
               transform="matrix(0,-1,-1,0,94.0003,667.55)"
               style="font-variant:normal;font-weight:normal;font-size:14px;font-family:Menlo;-inkscape-font-specification:Menlo-Regular;writing-mode:lr-tb;fill:#969696;fill-opacity:1;fill-rule:nonzero;stroke:none"
               id="text849"><tspan
                 x="0 8.4280005 16.855413"
                 y="0"
                 id="tspan847">1ms</tspan></text></g><path
             d="M 500,2466.9 H 458.332"
             style="fill:none;stroke:#969696;stroke-width:4.16667;stroke-linecap:butt;stroke-linejoin:miter;stroke-miterlimit:10;stroke-dasharray:none;stroke-opacity:1"
             id="path851" /><g
             id="g853"
             transform="scale(4.16667)"><text
               transform="matrix(0,-1,-1,0,94.0003,604.7)"
               style="font-variant:normal;font-weight:normal;font-size:14px;font-family:Menlo;-inkscape-font-specification:Menlo-Regular;writing-mode:lr-tb;fill:#969696;fill-opacity:1;fill-rule:nonzero;stroke:none"
               id="text857"><tspan
                 x="0 8.4280005 16.855413"
                 y="0"
                 id="tspan855">2ms</tspan></text></g><path
             d="M 500,2205.03 H 458.332"
             style="fill:none;stroke:#969696;stroke-width:4.16667;stroke-linecap:butt;stroke-linejoin:miter;stroke-miterlimit:10;stroke-dasharray:none;stroke-opacity:1"
             id="path859" /><g
             id="g861"
             transform="scale(4.16667)"><text
               transform="matrix(0,-1,-1,0,94.0003,541.85)"
               style="font-variant:normal;font-weight:normal;font-size:14px;font-family:Menlo;-inkscape-font-specification:Menlo-Regular;writing-mode:lr-tb;fill:#969696;fill-opacity:1;fill-rule:nonzero;stroke:none"
               id="text865"><tspan
                 x="0 8.4274139 16.855413"
                 y="0"
                 id="tspan863">3ms</tspan></text></g><path
             d="M 500,1943.15 H 458.332"
             style="fill:none;stroke:#969696;stroke-width:4.16667;stroke-linecap:butt;stroke-linejoin:miter;stroke-miterlimit:10;stroke-dasharray:none;stroke-opacity:1"
             id="path867" /><g
             id="g869"
             transform="scale(4.16667)"><text
               transform="matrix(0,-1,-1,0,94.0003,479)"
               style="font-variant:normal;font-weight:normal;font-size:14px;font-family:Menlo;-inkscape-font-specification:Menlo-Regular;writing-mode:lr-tb;fill:#969696;fill-opacity:1;fill-rule:nonzero;stroke:none"
               id="text873"><tspan
                 x="0 8.4274139 16.855413"
                 y="0"
                 id="tspan871">4ms</tspan></text></g><path
             d="M 500,1681.28 H 458.332"
             style="fill:none;stroke:#969696;stroke-width:4.16667;stroke-linecap:butt;stroke-linejoin:miter;stroke-miterlimit:10;stroke-dasharray:none;stroke-opacity:1"
             id="path875" /><g
             id="g877"
             transform="scale(4.16667)"><text
               transform="matrix(0,-1,-1,0,94.0003,416.15)"
               style="font-variant:normal;font-weight:normal;font-size:14px;font-family:Menlo;-inkscape-font-specification:Menlo-Regular;writing-mode:lr-tb;fill:#969696;fill-opacity:1;fill-rule:nonzero;stroke:none"
               id="text881"><tspan
                 x="0 8.4274139 16.855413"
                 y="0"
                 id="tspan879">5ms</tspan></text></g><path
             d="M 500,1419.41 H 458.332"
             style="fill:none;stroke:#969696;stroke-width:4.16667;stroke-linecap:butt;stroke-linejoin:miter;stroke-miterlimit:10;stroke-dasharray:none;stroke-opacity:1"
             id="path883" /><g
             id="g885"
             transform="scale(4.16667)"><text
               transform="matrix(0,-1,-1,0,94.0003,353.3)"
               style="font-variant:normal;font-weight:normal;font-size:14px;font-family:Menlo;-inkscape-font-specification:Menlo-Regular;writing-mode:lr-tb;fill:#969696;fill-opacity:1;fill-rule:nonzero;stroke:none"
               id="text889"><tspan
                 x="0 8.4274139 16.855413"
                 y="0"
                 id="tspan887">6ms</tspan></text></g><path
             d="M 500,1157.53 H 458.332"
             style="fill:none;stroke:#969696;stroke-width:4.16667;stroke-linecap:butt;stroke-linejoin:miter;stroke-miterlimit:10;stroke-dasharray:none;stroke-opacity:1"
             id="path891" /><g
             id="g893"
             transform="scale(4.16667)"><text
               transform="matrix(0,-1,-1,0,94.0003,290.451)"
               style="font-variant:normal;font-weight:normal;font-size:14px;font-family:Menlo;-inkscape-font-specification:Menlo-Regular;writing-mode:lr-tb;fill:#969696;fill-opacity:1;fill-rule:nonzero;stroke:none"
               id="text897"><tspan
                 x="0 8.4280005 16.856001"
                 y="0"
                 id="tspan895">7ms</tspan></text></g><path
             d="M 500,895.656 H 458.332"
             style="fill:none;stroke:#969696;stroke-width:4.16667;stroke-linecap:butt;stroke-linejoin:miter;stroke-miterlimit:10;stroke-dasharray:none;stroke-opacity:1"
             id="path899" /><g
             id="g901"
             transform="scale(4.16667)"><text
               transform="matrix(0,-1,-1,0,94.0003,227.601)"
               style="font-variant:normal;font-weight:normal;font-size:14px;font-family:Menlo;-inkscape-font-specification:Menlo-Regular;writing-mode:lr-tb;fill:#969696;fill-opacity:1;fill-rule:nonzero;stroke:none"
               id="text905"><tspan
                 x="0 8.4280005 16.856001"
                 y="0"
                 id="tspan903">8ms</tspan></text></g><path
             d="M 500,633.781 H 458.332"
             style="fill:none;stroke:#969696;stroke-width:4.16667;stroke-linecap:butt;stroke-linejoin:miter;stroke-miterlimit:10;stroke-dasharray:none;stroke-opacity:1"
             id="path907" /><g
             id="g909"
             transform="scale(4.16667)"><text
               transform="matrix(0,-1,-1,0,94.0003,164.751)"
               style="font-variant:normal;font-weight:normal;font-size:14px;font-family:Menlo;-inkscape-font-specification:Menlo-Regular;writing-mode:lr-tb;fill:#969696;fill-opacity:1;fill-rule:nonzero;stroke:none"
               id="text915"><tspan
                 x="0 8.4280005 16.855413"
                 y="0"
                 id="tspan911">9ms</tspan><tspan
                 x="-571.43402 -579.86304 -588.2912 -596.72028 -605.14929"
                 y="-20"
                 id="tspan913">Vm01-</tspan></text></g><path
             d="m 500,2990.65 v 41.67"
             style="fill:none;stroke:#969696;stroke-width:4.16667;stroke-linecap:butt;stroke-linejoin:miter;stroke-miterlimit:10;stroke-dasharray:none;stroke-opacity:1"
             id="path917" /><g
             id="g919"
             transform="scale(4.16667)"><text
               transform="matrix(0,-1,-1,0,148.5,736.185)"
               style="font-variant:normal;font-weight:normal;font-size:14px;font-family:Menlo;-inkscape-font-specification:Menlo-Regular;writing-mode:lr-tb;fill:#969696;fill-opacity:1;fill-rule:nonzero;stroke:none"
               id="text923"><tspan
                 x="0 -8.42906 -16.857189 -25.286249"
                 y="0"
                 id="tspan921">Vm6-</tspan></text></g><path
             d="m 643.75,2990.65 v 41.67"
             style="fill:none;stroke:#969696;stroke-width:4.16667;stroke-linecap:butt;stroke-linejoin:miter;stroke-miterlimit:10;stroke-dasharray:none;stroke-opacity:1"
             id="path925" /><g
             id="g927"
             transform="scale(4.16667)"><text
               transform="matrix(0,-1,-1,0,183,736.185)"
               style="font-variant:normal;font-weight:normal;font-size:14px;font-family:Menlo;-inkscape-font-specification:Menlo-Regular;writing-mode:lr-tb;fill:#969696;fill-opacity:1;fill-rule:nonzero;stroke:none"
               id="text931"><tspan
                 x="0 -8.42906 -16.857189 -25.286249"
                 y="0"
                 id="tspan929">Vm2-</tspan></text></g><path
             d="m 787.5,2990.65 v 41.67"
             style="fill:none;stroke:#969696;stroke-width:4.16667;stroke-linecap:butt;stroke-linejoin:miter;stroke-miterlimit:10;stroke-dasharray:none;stroke-opacity:1"
             id="path933" /><g
             id="g935"
             transform="scale(4.16667)"><text
               transform="matrix(0,-1,-1,0,217.5,736.185)"
               style="font-variant:normal;font-weight:normal;font-size:14px;font-family:Menlo;-inkscape-font-specification:Menlo-Regular;writing-mode:lr-tb;fill:#969696;fill-opacity:1;fill-rule:nonzero;stroke:none"
               id="text939"><tspan
                 x="0 -8.42906 -16.857189"
                 y="0"
                 id="tspan937">Vm2</tspan></text></g><path
             d="m 931.25,2990.65 v 41.67"
             style="fill:none;stroke:#969696;stroke-width:4.16667;stroke-linecap:butt;stroke-linejoin:miter;stroke-miterlimit:10;stroke-dasharray:none;stroke-opacity:1"
             id="path941" /><g
             id="g943"
             transform="scale(4.16667)"><text
               transform="matrix(0,-1,-1,0,252,736.185)"
               style="font-variant:normal;font-weight:normal;font-size:14px;font-family:Menlo;-inkscape-font-specification:Menlo-Regular;writing-mode:lr-tb;fill:#969696;fill-opacity:1;fill-rule:nonzero;stroke:none"
               id="text947"><tspan
                 x="0 -8.42906 -16.857189"
                 y="0"
                 id="tspan945">Vm6</tspan></text></g><path
             d="m 1075,2990.65 v 41.67"
             style="fill:none;stroke:#969696;stroke-width:4.16667;stroke-linecap:butt;stroke-linejoin:miter;stroke-miterlimit:10;stroke-dasharray:none;stroke-opacity:1"
             id="path949" /><g
             id="g951"
             transform="scale(4.16667)"><text
               transform="matrix(0,-1,-1,0,286.5,736.185)"
               style="font-variant:normal;font-weight:normal;font-size:14px;font-family:Menlo;-inkscape-font-specification:Menlo-Regular;writing-mode:lr-tb;fill:#969696;fill-opacity:1;fill-rule:nonzero;stroke:none"
               id="text955"><tspan
                 x="0 -8.42906 -16.857189 -25.286249"
                 y="0"
                 id="tspan953">Vm01</tspan></text></g><path
             d="m 1218.75,2990.65 v 41.67"
             style="fill:none;stroke:#969696;stroke-width:4.16667;stroke-linecap:butt;stroke-linejoin:miter;stroke-miterlimit:10;stroke-dasharray:none;stroke-opacity:1"
             id="path957" /><path
             d="m 500,371.906 h 718.75 v 2618.75 H 500 Z"
             style="fill:none;stroke:#969696;stroke-width:4.16667;stroke-linecap:butt;stroke-linejoin:miter;stroke-miterlimit:10;stroke-dasharray:none;stroke-opacity:1"
             id="path959" /><g
             id="g961"
             transform="scale(4.16667)"><text
               transform="matrix(0,-1,-1,0,306.5,736.185)"
               style="font-variant:normal;font-weight:normal;font-size:14px;font-family:Menlo;-inkscape-font-specification:Menlo-Regular;writing-mode:lr-tb;fill:#afafaf;fill-opacity:1;fill-rule:nonzero;stroke:none"
               id="text965"><tspan
                 x="0 -8.42906 -16.857189 -25.286249 -33.715309"
                 y="0"
                 id="tspan963">V2.1-</tspan></text></g><path
             d="m 1302.08,2990.65 v 41.67"
             style="fill:none;stroke:#afafaf;stroke-width:4.16667;stroke-linecap:butt;stroke-linejoin:miter;stroke-miterlimit:10;stroke-dasharray:none;stroke-opacity:1"
             id="path967" /><g
             id="g969"
             transform="scale(4.16667)"><text
               transform="matrix(0,-1,-1,0,335.25,736.185)"
               style="font-variant:normal;font-weight:normal;font-size:14px;font-family:Menlo;-inkscape-font-specification:Menlo-Regular;writing-mode:lr-tb;fill:#afafaf;fill-opacity:1;fill-rule:nonzero;stroke:none"
               id="text973"><tspan
                 x="0 -8.42906 -16.857189 -25.286249 -33.715309"
                 y="0"
                 id="tspan971">V8.0-</tspan></text></g><path
             d="m 1421.88,2990.65 v 41.67"
             style="fill:none;stroke:#afafaf;stroke-width:4.16667;stroke-linecap:butt;stroke-linejoin:miter;stroke-miterlimit:10;stroke-dasharray:none;stroke-opacity:1"
             id="path975" /><g
             id="g977"
             transform="scale(4.16667)"><text
               transform="matrix(0,-1,-1,0,364,736.185)"
               style="font-variant:normal;font-weight:normal;font-size:14px;font-family:Menlo;-inkscape-font-specification:Menlo-Regular;writing-mode:lr-tb;fill:#afafaf;fill-opacity:1;fill-rule:nonzero;stroke:none"
               id="text981"><tspan
                 x="0 -8.42906 -16.857189 -25.286249 -33.715309"
                 y="0"
                 id="tspan979">V4.0-</tspan></text></g><path
             d="m 1541.67,2990.65 v 41.67"
             style="fill:none;stroke:#afafaf;stroke-width:4.16667;stroke-linecap:butt;stroke-linejoin:miter;stroke-miterlimit:10;stroke-dasharray:none;stroke-opacity:1"
             id="path983" /><g
             id="g985"
             transform="scale(4.16667)"><text
               transform="matrix(0,-1,-1,0,392.75,736.185)"
               style="font-variant:normal;font-weight:normal;font-size:14px;font-family:Menlo;-inkscape-font-specification:Menlo-Regular;writing-mode:lr-tb;fill:#afafaf;fill-opacity:1;fill-rule:nonzero;stroke:none"
               id="text989"><tspan
                 x="0 -8.42906 -16.857189 -25.286249"
                 y="0"
                 id="tspan987">V0.0</tspan></text></g><path
             d="m 1661.46,2990.65 v 41.67"
             style="fill:none;stroke:#afafaf;stroke-width:4.16667;stroke-linecap:butt;stroke-linejoin:miter;stroke-miterlimit:10;stroke-dasharray:none;stroke-opacity:1"
             id="path991" /><g
             id="g993"
             transform="scale(4.16667)"><text
               transform="matrix(0,-1,-1,0,421.5,736.185)"
               style="font-variant:normal;font-weight:normal;font-size:14px;font-family:Menlo;-inkscape-font-specification:Menlo-Regular;writing-mode:lr-tb;fill:#afafaf;fill-opacity:1;fill-rule:nonzero;stroke:none"
               id="text997"><tspan
                 x="0 -8.42906 -16.857189 -25.286249"
                 y="0"
                 id="tspan995">V4.0</tspan></text></g><path
             d="m 1781.25,2990.65 v 41.67"
             style="fill:none;stroke:#afafaf;stroke-width:4.16667;stroke-linecap:butt;stroke-linejoin:miter;stroke-miterlimit:10;stroke-dasharray:none;stroke-opacity:1"
             id="path999" /><g
             id="g1001"
             transform="scale(4.16667)"><text
               transform="matrix(0,-1,-1,0,450.25,736.185)"
               style="font-variant:normal;font-weight:normal;font-size:14px;font-family:Menlo;-inkscape-font-specification:Menlo-Regular;writing-mode:lr-tb;fill:#afafaf;fill-opacity:1;fill-rule:nonzero;stroke:none"
               id="text1005"><tspan
                 x="0 -8.42906 -16.857189 -25.286249"
                 y="0"
                 id="tspan1003">V8.0</tspan></text></g><path
             d="m 1901.04,2990.65 v 41.67"
             style="fill:none;stroke:#afafaf;stroke-width:4.16667;stroke-linecap:butt;stroke-linejoin:miter;stroke-miterlimit:10;stroke-dasharray:none;stroke-opacity:1"
             id="path1007" /><g
             id="g1009"
             transform="scale(4.16667)"><text
               transform="matrix(0,-1,-1,0,479,736.185)"
               style="font-variant:normal;font-weight:normal;font-size:14px;font-family:Menlo;-inkscape-font-specification:Menlo-Regular;writing-mode:lr-tb;fill:#afafaf;fill-opacity:1;fill-rule:nonzero;stroke:none"
               id="text1013"><tspan
                 x="0 -8.42906 -16.857189 -25.286249"
                 y="0"
                 id="tspan1011">V2.1</tspan></text></g><path
             d="m 2020.83,2990.65 v 41.67"
             style="fill:none;stroke:#afafaf;stroke-width:4.16667;stroke-linecap:butt;stroke-linejoin:miter;stroke-miterlimit:10;stroke-dasharray:none;stroke-opacity:1"
             id="path1015" /><path
             d="m 1302.08,371.906 h 718.75 v 2618.75 h -718.75 z"
             style="fill:none;stroke:#afafaf;stroke-width:4.16667;stroke-linecap:butt;stroke-linejoin:miter;stroke-miterlimit:10;stroke-dasharray:none;stroke-opacity:1"
             id="path1017" /><g
             id="g1019"
             transform="scale(4.16667)"><text
               transform="matrix(0,-1,-1,0,296,429.042)"
               style="font-variant:normal;font-weight:normal;font-size:14px;font-family:Menlo;-inkscape-font-specification:Menlo-Regular;writing-mode:lr-tb;fill:#0eff00;fill-opacity:1;fill-rule:nonzero;stroke:none"
               id="text1023"><tspan
                 x="0 8.4274139 16.855413 25.282827 33.710827 42.138828"
                 y="0"
                 id="tspan1021">V(vin)</tspan></text></g></g></g><g
         id="g1025"><g
           id="g1027"
           clip-path="url(#clipPath1031)"><path
             d="m 853.949,2990.65 v 0 l 37.434,-10.74 36.012,-10.47 35.199,-10.48 33.926,-10.48 32.26,-10.47 30.2,-10.47 27.8,-10.48 25.05,-10.47 22.01,-10.48 18.71,-10.47 15.17,-10.48 11.46,-10.47 7.6,-10.48 3.67,-10.48 -0.3,-10.1 -4.29,-10.47 -8.23,-10.48 -12.13,-10.48 -15.87,-10.47 -19.44,-10.48 -22.78,-10.47 -25.84,-10.48 -28.61,-10.47 -31.01,-10.47 -33.044,-10.48 -34.672,-10.47 -35.871,-10.48 -36.629,-10.48 -36.929,-10.47 -36.77,-10.48 -36.16,-10.47 -35.09,-10.48 -33.594,-10.47 -31.668,-10.47 -29.355,-10.48 -26.672,-10.47 -23.664,-10.48 -20.355,-10.47 -16.801,-10.48 -13.043,-10.48 -9.117,-10.47 -5.094,-10.48 -1.004,-10.47 3.09,-10.47 7.14,-10.48 11.09,-10.47 14.903,-10.48 18.519,-10.47 21.903,-10.48 25.007,-10.48 27.801,-10.47 30.246,-10.48 32.321,-10.47 33.992,-10.47 35.254,-10.48 36.082,-10.47 36.476,-10.48 36.43,-10.47 35.949,-10.48 35.035,-10.48 33.714,-10.47 31.98,-10.48 29.87,-10.47 27.41,-10.47 24.63,-10.48 21.54,-10.47 18.2,-10.48 14.64,-10.47 10.9,-10.48 7.15,-10.48 2.92,-9.14 -0.46,-9.98 -4.33,-10.47 -8.26,-10.48 -12.15,-10.47 -15.9,-10.48 -19.47,-10.47 -22.8,-10.47 -25.86,-10.48 -28.63,-10.47 -31.03,-10.48 -33.056,-10.47 -34.68,-10.48 -35.879,-10.48 -36.632,-10.47 -36.926,-10.48 -36.77,-10.47 -36.152,-10.47 -35.086,-10.48 -33.578,-10.47 -31.652,-10.48 -29.336,-10.47 -26.653,-10.48 -23.64,-10.48 -20.332,-10.47 -16.778,-10.48 -13.011,-10.47 -9.09,-10.47 -5.063,-10.48 -0.972,-10.47 3.117,-10.48 7.168,-10.47 11.121,-10.48 14.926,-10.48 18.543,-10.47 21.925,-10.48 25.032,-10.47 27.82,-10.47 30.262,-10.48 32.332,-10.47 34.008,-10.48 35.257,-10.47 36.086,-10.48 36.481,-10.47 36.426,-10.48 35.941,-10.48 35.031,-10.47 33.7,-10.47 31.96,-10.48 29.86,-10.47 27.39,-10.48 24.61,-10.47 21.52,-10.48 18.18,-10.47 14.61,-10.48 10.87,-10.48 7.12,-10.47 2.9,-9.09 -0.48,-9.97 -4.33,-10.47 -8.27,-10.48 -12.15,-10.47 -15.9,-10.48 -19.47,-10.47 -22.81,-10.47 -25.87,-10.48 -28.62,-10.47 -31.03,-10.48 -33.063,-10.47 -34.684,-10.48 -35.879,-10.48 -36.633,-10.47 -36.929,-10.48 -36.766,-10.47 -36.152,-10.47 -35.082,-10.48 -33.578,-10.47 -31.653,-10.48 -29.332,-10.47 -26.652,-10.48 -23.633,-10.48 -20.332,-10.47 -16.769,-10.48 -13.008,-10.47 -9.09,-10.47 -5.055,-10.48 -0.972,-10.47 3.125,-10.48 7.167,-10.47 11.125,-10.48 14.934,-10.48 18.547,-10.47 21.93,-10.48 25.031,-10.47 27.82,-10.47 30.266,-10.48 32.336,-10.47 34.008,-10.48 35.261,-10.47 36.086,-10.48 36.477,-10.48 36.429,-10.47 35.942,-10.48 35.027,-10.47 33.691,-10.47 31.97,-10.48 29.85,-10.47 27.4,-10.48 24.6,-10.47 21.51,-10.48 18.17,-10.48 14.62,-10.47 10.87,-10.48 7.12,-10.47 2.89,-9.09 -0.48,-9.95 -4.34,-10.48 -8.27,-10.47 -12.15,-10.48 -15.9,-10.48 -19.47,-10.47 -22.81,-10.476 -25.86,-10.473 -28.63,-10.477 -31.03,-10.476 -33.063,-10.473 -34.684,-10.476 -35.879,-10.477 -36.633,-10.473 -36.929,-10.476 -36.766,-10.473 -36.152,-10.476 -35.082,-10.473 -33.578,-10.477 -31.649,-10.476 -29.336,-10.473 -26.648,-10.476 -23.637,-10.473 -20.328,-10.477 -16.77,-10.476 -13.011,-10.473 -9.086,-10.476 -5.055,-10.473 -0.973,-10.477 3.125,-10.476 7.172,-10.473 11.125,-10.476 14.93,-10.473 18.551,-10.477 21.929,-10.476 25.032,-10.473 27.824,-10.476 30.266,-10.473 32.335,-10.477 34.004,-10.476 35.262,-10.473 36.09,-10.476 36.477,-10.473 36.425,-10.477 35.942,-10.472 35.027,-10.477 33.693,-10.476 31.97,-10.473 29.85,-10.477 27.39,-10.472 24.6,-10.477 21.52,-10.476 18.17,-10.473 14.61,-10.477 10.87,-10.472 7.12,-10.477 2.89,-9.086 -0.48,-9.961 -4.34,-10.472 -8.26,-10.477 -12.15,-10.473 -15.91,-10.476 -19.46,-10.477 -22.81,-10.472 -25.69,-10.477 -20.16,-7.633"
             style="fill:none;stroke:#0eff00;stroke-width:4.16667;stroke-linecap:butt;stroke-linejoin:miter;stroke-miterlimit:1;stroke-dasharray:none;stroke-opacity:1"
             id="path1033" /></g></g><g
         id="g1035"><g
           id="g1037"
           clip-path="url(#clipPath1041)"><g
             id="g1043"
             transform="scale(4.16667)"><text
               transform="matrix(0,-1,-1,0,489,433.257)"
               style="font-variant:normal;font-weight:normal;font-size:14px;font-family:Menlo;-inkscape-font-specification:Menlo-Regular;writing-mode:lr-tb;fill:#0000ff;fill-opacity:1;fill-rule:nonzero;stroke:none"
               id="text1047"><tspan
                 x="0 8.4280005 16.855413 25.283415 33.711414 42.138828 50.56683"
                 y="0"
                 id="tspan1045">V(vout)</tspan></text></g></g></g><g
         id="g1049"><g
           id="g1051"
           clip-path="url(#clipPath1055)"><path
             d="m 1546.85,2990.65 v 0 l -36.39,-10.74 -33.78,-10.47 -31.76,-10.48 -29.06,-10.48 -25.89,-10.47 -22.3,-10.47 -18.34,-10.48 -14.09,-10.47 -9.62,-10.48 -5,-10.47 -0.33,-10.48 4.34,-10.47 8.91,-10.48 13.25,-10.48 16.77,-10.1 21.19,-10.47 24.66,-10.48 27.74,-10.48 30.38,-10.47 32.54,-10.48 34.22,-10.47 35.4,-10.48 36.07,-10.47 36.26,-10.47 36,-10.48 35.3,-10.47 34.18,-10.48 32.71,-10.48 30.92,-10.47 28.81,-10.48 26.48,-10.47 23.92,-10.48 21.19,-10.47 18.31,-10.47 15.31,-10.48 12.21,-10.47 9.04,-10.48 5.81,-10.47 2.54,-10.48 -0.75,-10.48 -4.05,-10.47 -7.36,-10.48 -10.64,-10.47 -13.88,-10.47 -17.06,-10.48 -20.15,-10.47 -23.11,-10.48 -25.92,-10.47 -28.53,-10.48 -30.89,-10.48 -32.95,-10.47 -34.67,-10.48 -36.01,-10.47 -36.9,-10.47 -37.31,-10.48 -37.21,-10.47 -36.57,-10.48 -35.38,-10.47 -33.66,-10.48 -31.39,-10.48 -28.62,-10.47 -25.39,-10.48 -21.73,-10.47 -17.73,-10.47 -13.44,-10.48 -8.95,-10.47 -4.31,-10.48 0.36,-10.47 5.02,-10.48 9.43,-10.48 11.88,-9.14 16.74,-9.98 21.24,-10.47 24.68,-10.48 27.76,-10.47 30.4,-10.48 32.57,-10.47 34.23,-10.47 35.4,-10.48 36.07,-10.47 36.27,-10.48 36,-10.47 35.29,-10.48 34.18,-10.48 32.7,-10.47 30.9,-10.48 28.8,-10.47 26.46,-10.47 23.91,-10.48 21.16,-10.47 18.29,-10.48 15.29,-10.47 12.19,-10.48 9.02,-10.48 5.78,-10.47 2.53,-10.48 -0.78,-10.47 -4.08,-10.47 -7.38,-10.48 -10.66,-10.47 -13.9,-10.48 -17.08,-10.47 -20.17,-10.48 -23.14,-10.48 -25.94,-10.47 -28.54,-10.48 -30.9,-10.47 -32.97,-10.47 -34.69,-10.48 -36.01,-10.47 -36.91,-10.48 -37.3,-10.47 -37.21,-10.48 -36.56,-10.47 -35.38,-10.48 -33.64,-10.48 -31.37,-10.47 -28.6,-10.47 -25.36,-10.48 -21.71,-10.47 -17.7,-10.48 -13.41,-10.47 -8.91,-10.48 -4.28,-10.47 0.4,-10.48 5.05,-10.48 9.46,-10.47 11.83,-9.09 16.73,-9.97 21.24,-10.47 24.68,-10.48 27.77,-10.47 30.4,-10.48 32.57,-10.47 34.23,-10.47 35.4,-10.48 36.08,-10.47 36.27,-10.48 36,-10.47 35.28,-10.48 34.18,-10.48 32.7,-10.47 30.9,-10.48 28.8,-10.47 26.46,-10.47 23.9,-10.48 21.17,-10.47 18.28,-10.48 15.29,-10.47 12.18,-10.48 9.02,-10.48 5.78,-10.47 2.52,-10.48 -0.78,-10.47 -4.08,-10.47 -7.39,-10.48 -10.66,-10.47 -13.91,-10.48 -17.08,-10.47 -20.17,-10.48 -23.14,-10.48 -25.94,-10.47 -28.54,-10.48 -30.91,-10.47 -32.97,-10.47 -34.69,-10.48 -36.02,-10.47 -36.9,-10.48 -37.31,-10.47 -37.2,-10.48 -36.57,-10.48 -35.37,-10.47 -33.64,-10.48 -31.37,-10.47 -28.59,-10.47 -25.36,-10.48 -21.7,-10.47 -17.7,-10.48 -13.41,-10.47 -8.9,-10.48 -4.28,-10.48 0.41,-10.47 5.06,-10.48 9.45,-10.47 11.83,-9.09 16.72,-9.95 21.25,-10.48 24.68,-10.47 27.77,-10.48 30.4,-10.48 32.57,-10.47 34.23,-10.476 35.4,-10.473 36.08,-10.477 36.27,-10.476 36,-10.473 35.28,-10.476 34.18,-10.477 32.7,-10.473 30.89,-10.476 28.81,-10.473 26.46,-10.476 23.89,-10.473 21.17,-10.477 18.29,-10.476 15.28,-10.473 12.19,-10.476 9.01,-10.473 5.79,-10.477 2.51,-10.476 -0.77,-10.473 -4.09,-10.476 -7.38,-10.473 -10.67,-10.477 -13.91,-10.476 -17.08,-10.473 -20.17,-10.476 -23.14,-10.473 -25.94,-10.477 -28.55,-10.476 -30.9,-10.473 -32.97,-10.476 -34.69,-10.473 -36.01,-10.477 -36.91,-10.476 -37.31,-10.473 -37.2,-10.476 -36.57,-10.473 -35.37,-10.477 -33.64,-10.472 -31.37,-10.477 -28.59,-10.476 -25.36,-10.473 -21.7,-10.477 -17.7,-10.472 -13.4,-10.477 -8.91,-10.476 -4.28,-10.473 0.41,-10.477 5.06,-10.472 9.46,-10.477 11.83,-9.086 16.72,-9.961 21.24,-10.472 24.69,-10.477 27.76,-10.473 30.41,-10.476 32.56,-10.477 34.24,-10.472 35.36,-10.477 26.21,-7.633"
             style="fill:none;stroke:#0000ff;stroke-width:4.16667;stroke-linecap:butt;stroke-linejoin:miter;stroke-miterlimit:1;stroke-dasharray:none;stroke-opacity:1"
             id="path1057" /></g></g></g></g></svg>
