<?xml version="1.0" encoding="UTF-8" standalone="no"?>
<svg
   xmlns:dc="http://purl.org/dc/elements/1.1/"
   xmlns:cc="http://creativecommons.org/ns#"
   xmlns:rdf="http://www.w3.org/1999/02/22-rdf-syntax-ns#"
   xmlns:svg="http://www.w3.org/2000/svg"
   xmlns="http://www.w3.org/2000/svg"
   version="1.1"
   id="svg461"
   xml:space="preserve"
   width="614.89771"
   height="361.33768"
   viewBox="0 0 922.34654 542.00654"><metadata
     id="metadata467"><rdf:RDF><cc:Work
         rdf:about=""><dc:format>image/svg+xml</dc:format><dc:type
           rdf:resource="http://purl.org/dc/dcmitype/StillImage" /><dc:title></dc:title></cc:Work></rdf:RDF></metadata><defs
     id="defs465"><clipPath
       clipPathUnits="userSpaceOnUse"
       id="clipPath479"><path
         d="m 375,299.582 h 1729.17 v 2908.34 H 375 Z"
         id="path477" /></clipPath><clipPath
       clipPathUnits="userSpaceOnUse"
       id="clipPath783"><path
         d="m 500,537.082 h 1520.83 v 2454.17 H 500 Z"
         id="path781" /></clipPath></defs><g
     id="g469"
     transform="matrix(0,-1.3333333,-1.3333333,0,1025.6049,667.07604)"><g
       id="g471"
       transform="scale(0.24)"><g
         id="g473"><g
           id="g475"
           clip-path="url(#clipPath479)"><g
             id="g481"
             transform="scale(4.16667)"><text
               transform="matrix(0,-1,-1,0,94.0003,734.614)"
               style="font-variant:normal;font-weight:normal;font-size:14px;font-family:Menlo;-inkscape-font-specification:Menlo-Regular;writing-mode:lr-tb;fill:#afafaf;fill-opacity:1;fill-rule:nonzero;stroke:none"
               id="text485"><tspan
                 x="0 8.4274139 16.855413 25.283415"
                 y="0"
                 id="tspan483">10Hz</tspan></text></g><path
             d="M 500,2990.65 H 458.332"
             style="fill:none;stroke:#afafaf;stroke-width:4.16667;stroke-linecap:butt;stroke-linejoin:miter;stroke-miterlimit:10;stroke-dasharray:none;stroke-opacity:1"
             id="path487" /><path
             d="M 500,2758.36 H 479.168"
             style="fill:none;stroke:#afafaf;stroke-width:4.16667;stroke-linecap:butt;stroke-linejoin:miter;stroke-miterlimit:10;stroke-dasharray:none;stroke-opacity:1"
             id="path489" /><path
             d="M 500,2622.47 H 479.168"
             style="fill:none;stroke:#afafaf;stroke-width:4.16667;stroke-linecap:butt;stroke-linejoin:miter;stroke-miterlimit:10;stroke-dasharray:none;stroke-opacity:1"
             id="path491" /><path
             d="M 500,2526.06 H 479.168"
             style="fill:none;stroke:#afafaf;stroke-width:4.16667;stroke-linecap:butt;stroke-linejoin:miter;stroke-miterlimit:10;stroke-dasharray:none;stroke-opacity:1"
             id="path493" /><path
             d="M 500,2451.28 H 479.168"
             style="fill:none;stroke:#afafaf;stroke-width:4.16667;stroke-linecap:butt;stroke-linejoin:miter;stroke-miterlimit:10;stroke-dasharray:none;stroke-opacity:1"
             id="path495" /><path
             d="M 500,2390.18 H 479.168"
             style="fill:none;stroke:#afafaf;stroke-width:4.16667;stroke-linecap:butt;stroke-linejoin:miter;stroke-miterlimit:10;stroke-dasharray:none;stroke-opacity:1"
             id="path497" /><path
             d="M 500,2338.52 H 479.168"
             style="fill:none;stroke:#afafaf;stroke-width:4.16667;stroke-linecap:butt;stroke-linejoin:miter;stroke-miterlimit:10;stroke-dasharray:none;stroke-opacity:1"
             id="path499" /><path
             d="M 500,2293.77 H 479.168"
             style="fill:none;stroke:#afafaf;stroke-width:4.16667;stroke-linecap:butt;stroke-linejoin:miter;stroke-miterlimit:10;stroke-dasharray:none;stroke-opacity:1"
             id="path501" /><path
             d="M 500,2254.29 H 479.168"
             style="fill:none;stroke:#afafaf;stroke-width:4.16667;stroke-linecap:butt;stroke-linejoin:miter;stroke-miterlimit:10;stroke-dasharray:none;stroke-opacity:1"
             id="path503" /><g
             id="g505"
             transform="scale(4.16667)"><text
               transform="matrix(0,-1,-1,0,94.0003,553.628)"
               style="font-variant:normal;font-weight:normal;font-size:14px;font-family:Menlo;-inkscape-font-specification:Menlo-Regular;writing-mode:lr-tb;fill:#afafaf;fill-opacity:1;fill-rule:nonzero;stroke:none"
               id="text509"><tspan
                 x="0 8.4280005 16.856001 25.283415 33.711414"
                 y="0"
                 id="tspan507">100Hz</tspan></text></g><path
             d="M 500,2218.98 H 458.332"
             style="fill:none;stroke:#afafaf;stroke-width:4.16667;stroke-linecap:butt;stroke-linejoin:miter;stroke-miterlimit:10;stroke-dasharray:none;stroke-opacity:1"
             id="path511" /><path
             d="M 500,1986.69 H 479.168"
             style="fill:none;stroke:#afafaf;stroke-width:4.16667;stroke-linecap:butt;stroke-linejoin:miter;stroke-miterlimit:10;stroke-dasharray:none;stroke-opacity:1"
             id="path513" /><path
             d="M 500,1850.8 H 479.168"
             style="fill:none;stroke:#afafaf;stroke-width:4.16667;stroke-linecap:butt;stroke-linejoin:miter;stroke-miterlimit:10;stroke-dasharray:none;stroke-opacity:1"
             id="path515" /><path
             d="M 500,1754.39 H 479.168"
             style="fill:none;stroke:#afafaf;stroke-width:4.16667;stroke-linecap:butt;stroke-linejoin:miter;stroke-miterlimit:10;stroke-dasharray:none;stroke-opacity:1"
             id="path517" /><path
             d="M 500,1679.61 H 479.168"
             style="fill:none;stroke:#afafaf;stroke-width:4.16667;stroke-linecap:butt;stroke-linejoin:miter;stroke-miterlimit:10;stroke-dasharray:none;stroke-opacity:1"
             id="path519" /><path
             d="M 500,1618.51 H 479.168"
             style="fill:none;stroke:#afafaf;stroke-width:4.16667;stroke-linecap:butt;stroke-linejoin:miter;stroke-miterlimit:10;stroke-dasharray:none;stroke-opacity:1"
             id="path521" /><path
             d="M 500,1566.85 H 479.168"
             style="fill:none;stroke:#afafaf;stroke-width:4.16667;stroke-linecap:butt;stroke-linejoin:miter;stroke-miterlimit:10;stroke-dasharray:none;stroke-opacity:1"
             id="path523" /><path
             d="M 500,1522.1 H 479.168"
             style="fill:none;stroke:#afafaf;stroke-width:4.16667;stroke-linecap:butt;stroke-linejoin:miter;stroke-miterlimit:10;stroke-dasharray:none;stroke-opacity:1"
             id="path525" /><path
             d="M 500,1482.63 H 479.168"
             style="fill:none;stroke:#afafaf;stroke-width:4.16667;stroke-linecap:butt;stroke-linejoin:miter;stroke-miterlimit:10;stroke-dasharray:none;stroke-opacity:1"
             id="path527" /><g
             id="g529"
             transform="scale(4.16667)"><text
               transform="matrix(0,-1,-1,0,94.0003,364.213)"
               style="font-variant:normal;font-weight:normal;font-size:14px;font-family:Menlo;-inkscape-font-specification:Menlo-Regular;writing-mode:lr-tb;fill:#afafaf;fill-opacity:1;fill-rule:nonzero;stroke:none"
               id="text533"><tspan
                 x="0 8.4274139 16.855413 25.283415"
                 y="0"
                 id="tspan531">1KHz</tspan></text></g><path
             d="M 500,1447.32 H 458.332"
             style="fill:none;stroke:#afafaf;stroke-width:4.16667;stroke-linecap:butt;stroke-linejoin:miter;stroke-miterlimit:10;stroke-dasharray:none;stroke-opacity:1"
             id="path535" /><path
             d="M 500,1215.02 H 479.168"
             style="fill:none;stroke:#afafaf;stroke-width:4.16667;stroke-linecap:butt;stroke-linejoin:miter;stroke-miterlimit:10;stroke-dasharray:none;stroke-opacity:1"
             id="path537" /><path
             d="M 500,1079.14 H 479.168"
             style="fill:none;stroke:#afafaf;stroke-width:4.16667;stroke-linecap:butt;stroke-linejoin:miter;stroke-miterlimit:10;stroke-dasharray:none;stroke-opacity:1"
             id="path539" /><path
             d="M 500,982.727 H 479.168"
             style="fill:none;stroke:#afafaf;stroke-width:4.16667;stroke-linecap:butt;stroke-linejoin:miter;stroke-miterlimit:10;stroke-dasharray:none;stroke-opacity:1"
             id="path541" /><path
             d="M 500,907.945 H 479.168"
             style="fill:none;stroke:#afafaf;stroke-width:4.16667;stroke-linecap:butt;stroke-linejoin:miter;stroke-miterlimit:10;stroke-dasharray:none;stroke-opacity:1"
             id="path543" /><path
             d="M 500,846.844 H 479.168"
             style="fill:none;stroke:#afafaf;stroke-width:4.16667;stroke-linecap:butt;stroke-linejoin:miter;stroke-miterlimit:10;stroke-dasharray:none;stroke-opacity:1"
             id="path545" /><path
             d="M 500,795.184 H 479.168"
             style="fill:none;stroke:#afafaf;stroke-width:4.16667;stroke-linecap:butt;stroke-linejoin:miter;stroke-miterlimit:10;stroke-dasharray:none;stroke-opacity:1"
             id="path547" /><path
             d="M 500,750.43 H 479.168"
             style="fill:none;stroke:#afafaf;stroke-width:4.16667;stroke-linecap:butt;stroke-linejoin:miter;stroke-miterlimit:10;stroke-dasharray:none;stroke-opacity:1"
             id="path549" /><path
             d="M 500,710.957 H 479.168"
             style="fill:none;stroke:#afafaf;stroke-width:4.16667;stroke-linecap:butt;stroke-linejoin:miter;stroke-miterlimit:10;stroke-dasharray:none;stroke-opacity:1"
             id="path551" /><g
             id="g553"
             transform="scale(4.16667)"><text
               transform="matrix(0,-1,-1,0,94.0003,183.228)"
               style="font-variant:normal;font-weight:normal;font-size:14px;font-family:Menlo;-inkscape-font-specification:Menlo-Regular;writing-mode:lr-tb;fill:#afafaf;fill-opacity:1;fill-rule:nonzero;stroke:none"
               id="text557"><tspan
                 x="0 8.4280005 16.855413 25.283415 33.711414"
                 y="0"
                 id="tspan555">10KHz</tspan></text></g><path
             d="M 500,675.648 H 458.332"
             style="fill:none;stroke:#afafaf;stroke-width:4.16667;stroke-linecap:butt;stroke-linejoin:miter;stroke-miterlimit:10;stroke-dasharray:none;stroke-opacity:1"
             id="path559" /><g
             id="g561"
             transform="scale(4.16667)"><text
               transform="matrix(0,-1,-1,0,114,736.185)"
               style="font-variant:normal;font-weight:normal;font-size:14px;font-family:Menlo;-inkscape-font-specification:Menlo-Regular;writing-mode:lr-tb;fill:#afafaf;fill-opacity:1;fill-rule:nonzero;stroke:none"
               id="text565"><tspan
                 x="0 -8.42906 -16.857189 -25.286249 -33.715309"
                 y="0"
                 id="tspan563">Bd42-</tspan></text></g><path
             d="m 500,2990.65 v 41.67"
             style="fill:none;stroke:#afafaf;stroke-width:4.16667;stroke-linecap:butt;stroke-linejoin:miter;stroke-miterlimit:10;stroke-dasharray:none;stroke-opacity:1"
             id="path567" /><g
             id="g569"
             transform="scale(4.16667)"><text
               transform="matrix(0,-1,-1,0,142.077,736.185)"
               style="font-variant:normal;font-weight:normal;font-size:14px;font-family:Menlo;-inkscape-font-specification:Menlo-Regular;writing-mode:lr-tb;fill:#afafaf;fill-opacity:1;fill-rule:nonzero;stroke:none"
               id="text573"><tspan
                 x="0 -8.42906 -16.857189 -25.286249 -33.715309"
                 y="0"
                 id="tspan571">Bd22-</tspan></text></g><path
             d="m 616.988,2990.65 v 41.67"
             style="fill:none;stroke:#afafaf;stroke-width:4.16667;stroke-linecap:butt;stroke-linejoin:miter;stroke-miterlimit:10;stroke-dasharray:none;stroke-opacity:1"
             id="path575" /><g
             id="g577"
             transform="scale(4.16667)"><text
               transform="matrix(0,-1,-1,0,170.153,736.185)"
               style="font-variant:normal;font-weight:normal;font-size:14px;font-family:Menlo;-inkscape-font-specification:Menlo-Regular;writing-mode:lr-tb;fill:#afafaf;fill-opacity:1;fill-rule:nonzero;stroke:none"
               id="text581"><tspan
                 x="0 -8.42906 -16.857189 -25.286249 -33.715309"
                 y="0"
                 id="tspan579">Bd02-</tspan></text></g><path
             d="m 733.973,2990.65 v 41.67"
             style="fill:none;stroke:#afafaf;stroke-width:4.16667;stroke-linecap:butt;stroke-linejoin:miter;stroke-miterlimit:10;stroke-dasharray:none;stroke-opacity:1"
             id="path583" /><g
             id="g585"
             transform="scale(4.16667)"><text
               transform="matrix(0,-1,-1,0,198.231,736.185)"
               style="font-variant:normal;font-weight:normal;font-size:14px;font-family:Menlo;-inkscape-font-specification:Menlo-Regular;writing-mode:lr-tb;fill:#afafaf;fill-opacity:1;fill-rule:nonzero;stroke:none"
               id="text589"><tspan
                 x="0 -8.42906 -16.857189 -25.286249 -33.715309"
                 y="0"
                 id="tspan587">Bd81-</tspan></text></g><path
             d="m 850.961,2990.65 v 41.67"
             style="fill:none;stroke:#afafaf;stroke-width:4.16667;stroke-linecap:butt;stroke-linejoin:miter;stroke-miterlimit:10;stroke-dasharray:none;stroke-opacity:1"
             id="path591" /><g
             id="g593"
             transform="scale(4.16667)"><text
               transform="matrix(0,-1,-1,0,226.308,736.185)"
               style="font-variant:normal;font-weight:normal;font-size:14px;font-family:Menlo;-inkscape-font-specification:Menlo-Regular;writing-mode:lr-tb;fill:#afafaf;fill-opacity:1;fill-rule:nonzero;stroke:none"
               id="text597"><tspan
                 x="0 -8.42906 -16.857189 -25.286249 -33.715309"
                 y="0"
                 id="tspan595">Bd61-</tspan></text></g><path
             d="m 967.949,2990.65 v 41.67"
             style="fill:none;stroke:#afafaf;stroke-width:4.16667;stroke-linecap:butt;stroke-linejoin:miter;stroke-miterlimit:10;stroke-dasharray:none;stroke-opacity:1"
             id="path599" /><g
             id="g601"
             transform="scale(4.16667)"><text
               transform="matrix(0,-1,-1,0,254.385,736.185)"
               style="font-variant:normal;font-weight:normal;font-size:14px;font-family:Menlo;-inkscape-font-specification:Menlo-Regular;writing-mode:lr-tb;fill:#afafaf;fill-opacity:1;fill-rule:nonzero;stroke:none"
               id="text605"><tspan
                 x="0 -8.42906 -16.857189 -25.286249 -33.715309"
                 y="0"
                 id="tspan603">Bd41-</tspan></text></g><path
             d="m 1084.94,2990.65 v 41.67"
             style="fill:none;stroke:#afafaf;stroke-width:4.16667;stroke-linecap:butt;stroke-linejoin:miter;stroke-miterlimit:10;stroke-dasharray:none;stroke-opacity:1"
             id="path607" /><g
             id="g609"
             transform="scale(4.16667)"><text
               transform="matrix(0,-1,-1,0,282.461,736.185)"
               style="font-variant:normal;font-weight:normal;font-size:14px;font-family:Menlo;-inkscape-font-specification:Menlo-Regular;writing-mode:lr-tb;fill:#afafaf;fill-opacity:1;fill-rule:nonzero;stroke:none"
               id="text613"><tspan
                 x="0 -8.42906 -16.857189 -25.286249 -33.715309"
                 y="0"
                 id="tspan611">Bd21-</tspan></text></g><path
             d="m 1201.92,2990.65 v 41.67"
             style="fill:none;stroke:#afafaf;stroke-width:4.16667;stroke-linecap:butt;stroke-linejoin:miter;stroke-miterlimit:10;stroke-dasharray:none;stroke-opacity:1"
             id="path615" /><g
             id="g617"
             transform="scale(4.16667)"><text
               transform="matrix(0,-1,-1,0,310.538,736.185)"
               style="font-variant:normal;font-weight:normal;font-size:14px;font-family:Menlo;-inkscape-font-specification:Menlo-Regular;writing-mode:lr-tb;fill:#afafaf;fill-opacity:1;fill-rule:nonzero;stroke:none"
               id="text621"><tspan
                 x="0 -8.42906 -16.857189 -25.286249 -33.715309"
                 y="0"
                 id="tspan619">Bd01-</tspan></text></g><path
             d="m 1318.91,2990.65 v 41.67"
             style="fill:none;stroke:#afafaf;stroke-width:4.16667;stroke-linecap:butt;stroke-linejoin:miter;stroke-miterlimit:10;stroke-dasharray:none;stroke-opacity:1"
             id="path623" /><g
             id="g625"
             transform="scale(4.16667)"><text
               transform="matrix(0,-1,-1,0,338.616,736.185)"
               style="font-variant:normal;font-weight:normal;font-size:14px;font-family:Menlo;-inkscape-font-specification:Menlo-Regular;writing-mode:lr-tb;fill:#afafaf;fill-opacity:1;fill-rule:nonzero;stroke:none"
               id="text629"><tspan
                 x="0 -8.42906 -16.857189 -25.286249"
                 y="0"
                 id="tspan627">Bd8-</tspan></text></g><path
             d="m 1435.9,2990.65 v 41.67"
             style="fill:none;stroke:#afafaf;stroke-width:4.16667;stroke-linecap:butt;stroke-linejoin:miter;stroke-miterlimit:10;stroke-dasharray:none;stroke-opacity:1"
             id="path631" /><g
             id="g633"
             transform="scale(4.16667)"><text
               transform="matrix(0,-1,-1,0,366.692,736.185)"
               style="font-variant:normal;font-weight:normal;font-size:14px;font-family:Menlo;-inkscape-font-specification:Menlo-Regular;writing-mode:lr-tb;fill:#afafaf;fill-opacity:1;fill-rule:nonzero;stroke:none"
               id="text637"><tspan
                 x="0 -8.42906 -16.857189 -25.286249"
                 y="0"
                 id="tspan635">Bd6-</tspan></text></g><path
             d="m 1552.88,2990.65 v 41.67"
             style="fill:none;stroke:#afafaf;stroke-width:4.16667;stroke-linecap:butt;stroke-linejoin:miter;stroke-miterlimit:10;stroke-dasharray:none;stroke-opacity:1"
             id="path639" /><g
             id="g641"
             transform="scale(4.16667)"><text
               transform="matrix(0,-1,-1,0,394.769,736.185)"
               style="font-variant:normal;font-weight:normal;font-size:14px;font-family:Menlo;-inkscape-font-specification:Menlo-Regular;writing-mode:lr-tb;fill:#afafaf;fill-opacity:1;fill-rule:nonzero;stroke:none"
               id="text645"><tspan
                 x="0 -8.42906 -16.857189 -25.286249"
                 y="0"
                 id="tspan643">Bd4-</tspan></text></g><path
             d="m 1669.87,2990.65 v 41.67"
             style="fill:none;stroke:#afafaf;stroke-width:4.16667;stroke-linecap:butt;stroke-linejoin:miter;stroke-miterlimit:10;stroke-dasharray:none;stroke-opacity:1"
             id="path647" /><g
             id="g649"
             transform="scale(4.16667)"><text
               transform="matrix(0,-1,-1,0,422.846,736.185)"
               style="font-variant:normal;font-weight:normal;font-size:14px;font-family:Menlo;-inkscape-font-specification:Menlo-Regular;writing-mode:lr-tb;fill:#afafaf;fill-opacity:1;fill-rule:nonzero;stroke:none"
               id="text653"><tspan
                 x="0 -8.42906 -16.857189 -25.286249"
                 y="0"
                 id="tspan651">Bd2-</tspan></text></g><path
             d="m 1786.86,2990.65 v 41.67"
             style="fill:none;stroke:#afafaf;stroke-width:4.16667;stroke-linecap:butt;stroke-linejoin:miter;stroke-miterlimit:10;stroke-dasharray:none;stroke-opacity:1"
             id="path655" /><g
             id="g657"
             transform="scale(4.16667)"><text
               transform="matrix(0,-1,-1,0,450.923,736.185)"
               style="font-variant:normal;font-weight:normal;font-size:14px;font-family:Menlo;-inkscape-font-specification:Menlo-Regular;writing-mode:lr-tb;fill:#afafaf;fill-opacity:1;fill-rule:nonzero;stroke:none"
               id="text661"><tspan
                 x="0 -8.42906 -16.857189"
                 y="0"
                 id="tspan659">Bd0</tspan></text></g><path
             d="m 1903.85,2990.65 v 41.67"
             style="fill:none;stroke:#afafaf;stroke-width:4.16667;stroke-linecap:butt;stroke-linejoin:miter;stroke-miterlimit:10;stroke-dasharray:none;stroke-opacity:1"
             id="path663" /><g
             id="g665"
             transform="scale(4.16667)"><text
               transform="matrix(0,-1,-1,0,479,736.185)"
               style="font-variant:normal;font-weight:normal;font-size:14px;font-family:Menlo;-inkscape-font-specification:Menlo-Regular;writing-mode:lr-tb;fill:#afafaf;fill-opacity:1;fill-rule:nonzero;stroke:none"
               id="text669"><tspan
                 x="0 -8.42906 -16.857189"
                 y="0"
                 id="tspan667">Bd2</tspan></text></g><path
             d="m 2020.83,2990.65 v 41.67"
             style="fill:none;stroke:#afafaf;stroke-width:4.16667;stroke-linecap:butt;stroke-linejoin:miter;stroke-miterlimit:10;stroke-dasharray:none;stroke-opacity:1"
             id="path671" /><g
             id="g673"
             transform="scale(4.16667)"><text
               transform="matrix(0,-1,-1,0,114,83.8284)"
               style="font-variant:normal;font-weight:normal;font-size:14px;font-family:Menlo;-inkscape-font-specification:Menlo-Regular;writing-mode:lr-tb;fill:#afafaf;fill-opacity:1;fill-rule:nonzero;stroke:none"
               id="text677"><tspan
                 x="0 -8.42906 -16.85812 -25.286249 -33.715309"
                 y="0"
                 id="tspan675">°081-</tspan></text></g><path
             d="M 500,539.766 V 498.098"
             style="fill:none;stroke:#afafaf;stroke-width:4.16667;stroke-linecap:butt;stroke-linejoin:miter;stroke-miterlimit:10;stroke-dasharray:none;stroke-opacity:1"
             id="path679" /><g
             id="g681"
             transform="scale(4.16667)"><text
               transform="matrix(0,-1,-1,0,147.182,83.8284)"
               style="font-variant:normal;font-weight:normal;font-size:14px;font-family:Menlo;-inkscape-font-specification:Menlo-Regular;writing-mode:lr-tb;fill:#afafaf;fill-opacity:1;fill-rule:nonzero;stroke:none"
               id="text685"><tspan
                 x="0 -8.42906 -16.85812 -25.286249 -33.715309"
                 y="0"
                 id="tspan683">°071-</tspan></text></g><path
             d="M 638.258,539.766 V 498.098"
             style="fill:none;stroke:#afafaf;stroke-width:4.16667;stroke-linecap:butt;stroke-linejoin:miter;stroke-miterlimit:10;stroke-dasharray:none;stroke-opacity:1"
             id="path687" /><g
             id="g689"
             transform="scale(4.16667)"><text
               transform="matrix(0,-1,-1,0,180.364,83.8284)"
               style="font-variant:normal;font-weight:normal;font-size:14px;font-family:Menlo;-inkscape-font-specification:Menlo-Regular;writing-mode:lr-tb;fill:#afafaf;fill-opacity:1;fill-rule:nonzero;stroke:none"
               id="text693"><tspan
                 x="0 -8.42906 -16.85812 -25.286249 -33.715309"
                 y="0"
                 id="tspan691">°061-</tspan></text></g><path
             d="M 776.516,539.766 V 498.098"
             style="fill:none;stroke:#afafaf;stroke-width:4.16667;stroke-linecap:butt;stroke-linejoin:miter;stroke-miterlimit:10;stroke-dasharray:none;stroke-opacity:1"
             id="path695" /><g
             id="g697"
             transform="scale(4.16667)"><text
               transform="matrix(0,-1,-1,0,213.546,83.8284)"
               style="font-variant:normal;font-weight:normal;font-size:14px;font-family:Menlo;-inkscape-font-specification:Menlo-Regular;writing-mode:lr-tb;fill:#afafaf;fill-opacity:1;fill-rule:nonzero;stroke:none"
               id="text701"><tspan
                 x="0 -8.42906 -16.85812 -25.286249 -33.715309"
                 y="0"
                 id="tspan699">°051-</tspan></text></g><path
             d="M 914.773,539.766 V 498.098"
             style="fill:none;stroke:#afafaf;stroke-width:4.16667;stroke-linecap:butt;stroke-linejoin:miter;stroke-miterlimit:10;stroke-dasharray:none;stroke-opacity:1"
             id="path703" /><g
             id="g705"
             transform="scale(4.16667)"><text
               transform="matrix(0,-1,-1,0,246.727,83.8284)"
               style="font-variant:normal;font-weight:normal;font-size:14px;font-family:Menlo;-inkscape-font-specification:Menlo-Regular;writing-mode:lr-tb;fill:#afafaf;fill-opacity:1;fill-rule:nonzero;stroke:none"
               id="text709"><tspan
                 x="0 -8.42906 -16.85812 -25.286249 -33.715309"
                 y="0"
                 id="tspan707">°041-</tspan></text></g><path
             d="M 1053.03,539.766 V 498.098"
             style="fill:none;stroke:#afafaf;stroke-width:4.16667;stroke-linecap:butt;stroke-linejoin:miter;stroke-miterlimit:10;stroke-dasharray:none;stroke-opacity:1"
             id="path711" /><g
             id="g713"
             transform="scale(4.16667)"><text
               transform="matrix(0,-1,-1,0,279.909,83.8284)"
               style="font-variant:normal;font-weight:normal;font-size:14px;font-family:Menlo;-inkscape-font-specification:Menlo-Regular;writing-mode:lr-tb;fill:#afafaf;fill-opacity:1;fill-rule:nonzero;stroke:none"
               id="text717"><tspan
                 x="0 -8.42906 -16.85812 -25.286249 -33.715309"
                 y="0"
                 id="tspan715">°031-</tspan></text></g><path
             d="M 1191.29,539.766 V 498.098"
             style="fill:none;stroke:#afafaf;stroke-width:4.16667;stroke-linecap:butt;stroke-linejoin:miter;stroke-miterlimit:10;stroke-dasharray:none;stroke-opacity:1"
             id="path719" /><g
             id="g721"
             transform="scale(4.16667)"><text
               transform="matrix(0,-1,-1,0,313.091,83.8284)"
               style="font-variant:normal;font-weight:normal;font-size:14px;font-family:Menlo;-inkscape-font-specification:Menlo-Regular;writing-mode:lr-tb;fill:#afafaf;fill-opacity:1;fill-rule:nonzero;stroke:none"
               id="text725"><tspan
                 x="0 -8.42906 -16.85812 -25.286249 -33.715309"
                 y="0"
                 id="tspan723">°021-</tspan></text></g><path
             d="M 1329.55,539.766 V 498.098"
             style="fill:none;stroke:#afafaf;stroke-width:4.16667;stroke-linecap:butt;stroke-linejoin:miter;stroke-miterlimit:10;stroke-dasharray:none;stroke-opacity:1"
             id="path727" /><g
             id="g729"
             transform="scale(4.16667)"><text
               transform="matrix(0,-1,-1,0,346.273,83.8284)"
               style="font-variant:normal;font-weight:normal;font-size:14px;font-family:Menlo;-inkscape-font-specification:Menlo-Regular;writing-mode:lr-tb;fill:#afafaf;fill-opacity:1;fill-rule:nonzero;stroke:none"
               id="text733"><tspan
                 x="0 -8.42906 -16.85812 -25.286249 -33.715309"
                 y="0"
                 id="tspan731">°011-</tspan></text></g><path
             d="M 1467.8,539.766 V 498.098"
             style="fill:none;stroke:#afafaf;stroke-width:4.16667;stroke-linecap:butt;stroke-linejoin:miter;stroke-miterlimit:10;stroke-dasharray:none;stroke-opacity:1"
             id="path735" /><g
             id="g737"
             transform="scale(4.16667)"><text
               transform="matrix(0,-1,-1,0,379.454,83.8284)"
               style="font-variant:normal;font-weight:normal;font-size:14px;font-family:Menlo;-inkscape-font-specification:Menlo-Regular;writing-mode:lr-tb;fill:#afafaf;fill-opacity:1;fill-rule:nonzero;stroke:none"
               id="text741"><tspan
                 x="0 -8.42906 -16.85812 -25.286249 -33.715309"
                 y="0"
                 id="tspan739">°001-</tspan></text></g><path
             d="M 1606.06,539.766 V 498.098"
             style="fill:none;stroke:#afafaf;stroke-width:4.16667;stroke-linecap:butt;stroke-linejoin:miter;stroke-miterlimit:10;stroke-dasharray:none;stroke-opacity:1"
             id="path743" /><g
             id="g745"
             transform="scale(4.16667)"><text
               transform="matrix(0,-1,-1,0,412.637,83.8284)"
               style="font-variant:normal;font-weight:normal;font-size:14px;font-family:Menlo;-inkscape-font-specification:Menlo-Regular;writing-mode:lr-tb;fill:#afafaf;fill-opacity:1;fill-rule:nonzero;stroke:none"
               id="text749"><tspan
                 x="0 -8.42906 -16.85812 -25.286249"
                 y="0"
                 id="tspan747">°09-</tspan></text></g><path
             d="M 1744.32,539.766 V 498.098"
             style="fill:none;stroke:#afafaf;stroke-width:4.16667;stroke-linecap:butt;stroke-linejoin:miter;stroke-miterlimit:10;stroke-dasharray:none;stroke-opacity:1"
             id="path751" /><g
             id="g753"
             transform="scale(4.16667)"><text
               transform="matrix(0,-1,-1,0,445.818,83.8284)"
               style="font-variant:normal;font-weight:normal;font-size:14px;font-family:Menlo;-inkscape-font-specification:Menlo-Regular;writing-mode:lr-tb;fill:#afafaf;fill-opacity:1;fill-rule:nonzero;stroke:none"
               id="text757"><tspan
                 x="0 -8.42906 -16.85812 -25.286249"
                 y="0"
                 id="tspan755">°08-</tspan></text></g><path
             d="M 1882.57,539.766 V 498.098"
             style="fill:none;stroke:#afafaf;stroke-width:4.16667;stroke-linecap:butt;stroke-linejoin:miter;stroke-miterlimit:10;stroke-dasharray:none;stroke-opacity:1"
             id="path759" /><g
             id="g761"
             transform="scale(4.16667)"><text
               transform="matrix(0,-1,-1,0,479,83.8284)"
               style="font-variant:normal;font-weight:normal;font-size:14px;font-family:Menlo;-inkscape-font-specification:Menlo-Regular;writing-mode:lr-tb;fill:#afafaf;fill-opacity:1;fill-rule:nonzero;stroke:none"
               id="text765"><tspan
                 x="0 -8.42906 -16.85812 -25.286249"
                 y="0"
                 id="tspan763">°07-</tspan></text></g><path
             d="M 2020.83,539.766 V 498.098"
             style="fill:none;stroke:#afafaf;stroke-width:4.16667;stroke-linecap:butt;stroke-linejoin:miter;stroke-miterlimit:10;stroke-dasharray:none;stroke-opacity:1"
             id="path767" /><path
             d="m 500,539.766 h 1520.83 v 2450.89 H 500 Z"
             style="fill:none;stroke:#afafaf;stroke-width:4.16667;stroke-linecap:butt;stroke-linejoin:miter;stroke-miterlimit:10;stroke-dasharray:none;stroke-opacity:1"
             id="path769" /><g
             id="g771"
             transform="scale(4.16667)"><text
               transform="matrix(0,-1,-1,0,489,453.257)"
               style="font-variant:normal;font-weight:normal;font-size:14px;font-family:Menlo;-inkscape-font-specification:Menlo-Regular;writing-mode:lr-tb;fill:#0eff00;fill-opacity:1;fill-rule:nonzero;stroke:none"
               id="text775"><tspan
                 x="0 8.4280005 16.855413 25.283415 33.710827 42.138828 50.56683"
                 y="0"
                 id="tspan773">V(vout)</tspan></text></g></g></g><g
         id="g777"><g
           id="g779"
           clip-path="url(#clipPath783)"><path
             d="m 538.137,2990.65 v 0 l 1.871,-1.16 1.871,-1.16 1.867,-1.16 1.867,-1.16 1.864,-1.17 1.863,-1.16 1.863,-1.16 1.86,-1.16 1.855,-1.16 1.855,-1.16 1.856,-1.16 1.851,-1.17 1.852,-1.16 1.852,-1.16 1.847,-1.16 1.844,-1.16 1.844,-1.16 1.844,-1.16 1.839,-1.17 1.84,-1.16 1.84,-1.16 1.836,-1.16 1.836,-1.16 1.832,-1.16 1.832,-1.17 1.832,-1.16 1.828,-1.16 1.828,-1.16 1.824,-1.16 1.825,-1.16 1.824,-1.17 1.82,-1.16 1.821,-1.16 1.82,-1.16 1.816,-1.16 1.817,-1.16 1.812,-1.16 1.813,-1.16 1.812,-1.16 1.813,-1.17 1.808,-1.16 1.809,-1.16 1.805,-1.16 1.804,-1.16 1.805,-1.16 1.801,-1.17 1.804,-1.16 1.797,-1.16 1.801,-1.16 1.797,-1.16 1.797,-1.16 1.797,-1.17 1.793,-1.16 1.793,-1.16 1.793,-1.16 1.789,-1.16 1.789,-1.16 1.789,-1.16 1.785,-1.16 1.789,-1.17 1.785,-1.16 1.781,-1.16 1.786,-1.16 1.781,-1.16 1.781,-1.16 1.777,-1.16 1.782,-1.17 1.777,-1.16 1.777,-1.16 1.774,-1.16 1.773,-1.16 1.774,-1.16 1.773,-1.17 1.774,-1.16 1.769,-1.16 1.77,-1.16 1.769,-1.16 1.77,-1.16 1.765,-1.17 1.766,-1.16 1.766,-1.16 1.765,-1.16 1.762,-1.16 1.762,-1.16 1.761,-1.16 1.762,-1.16 1.758,-1.16 1.762,-1.17 1.757,-1.16 1.758,-1.16 1.758,-1.16 1.754,-1.16 1.754,-1.17 1.758,-1.16 1.75,-1.16 1.754,-1.16 1.753,-1.16 1.75,-1.16 1.75,-1.17 1.75,-1.16 1.75,-1.16 1.75,-1.16 1.747,-1.16 1.746,-1.16 1.746,-1.16 1.746,-1.16 1.746,-1.16 1.742,-1.17 1.746,-1.16 1.742,-1.16 1.743,-1.16 1.742,-1.16 1.742,-1.16 1.738,-1.17 1.742,-1.16 1.739,-1.16 1.738,-1.16 1.738,-1.16 1.739,-1.16 1.738,-1.17 1.734,-1.16 1.735,-1.16 1.738,-1.16 1.734,-1.16 1.735,-1.16 1.734,-1.17 1.73,-1.16 1.735,-1.16 1.73,-1.16 1.731,-1.16 1.734,-1.16 1.731,-1.16 1.73,-1.16 1.727,-1.16 1.73,-1.17 1.731,-1.16 1.726,-1.16 1.727,-1.16 1.726,-1.16 1.731,-1.16 1.722,-1.17 1.727,-1.16 1.726,-1.16 1.727,-1.16 1.723,-1.16 1.726,-1.16 1.723,-1.17 1.723,-1.16 1.722,-1.16 1.723,-1.16 1.723,-1.16 1.722,-1.16 1.723,-1.16 1.719,-1.16 1.722,-1.16 1.719,-1.17 1.719,-1.16 1.722,-1.16 1.719,-1.16 1.719,-1.16 1.719,-1.16 1.718,-1.17 1.719,-1.16 1.715,-1.16 1.719,-1.16 1.715,-1.16 1.718,-1.17 1.715,-1.16 1.715,-1.16 1.719,-1.16 1.715,-1.16 1.714,-1.16 1.715,-1.17 1.715,-1.16 1.715,-1.16 1.711,-1.16 1.715,-1.16 1.715,-1.16 1.711,-1.16 1.714,-1.16 1.711,-1.16 1.711,-1.17 1.715,-1.16 1.711,-1.16 1.711,-1.16 1.711,-1.16 1.711,-1.16 1.711,-1.17 1.711,-1.16 1.711,-1.16 1.711,-1.16 1.707,-1.16 1.711,-1.16 1.707,-1.17 1.711,-1.16 1.707,-1.16 1.711,-1.16 1.707,-1.16 1.711,-1.16 1.707,-1.16 1.707,-1.16 1.707,-1.16 1.707,-1.17 1.707,-1.16 1.707,-1.16 1.707,-1.16 1.707,-1.16 1.707,-1.16 1.703,-1.17 1.707,-1.16 1.707,-1.16 1.703,-1.16 1.707,-1.16 1.703,-1.16 1.707,-1.17 1.703,-1.16 1.707,-1.16 1.704,-1.16 1.703,-1.16 1.703,-1.16 1.707,-1.17 1.703,-1.16 1.703,-1.16 1.703,-1.16 1.703,-1.16 1.703,-1.16 1.704,-1.16 1.699,-1.16 1.703,-1.16 1.703,-1.17 1.703,-1.16 1.699,-1.16 1.704,-1.16 1.703,-1.16 1.699,-1.16 1.703,-1.17 1.699,-1.16 1.703,-1.16 1.7,-1.16 1.699,-1.16 1.703,-1.16 1.699,-1.17 1.699,-1.16 1.7,-1.16 1.699,-1.16 1.699,-1.16 1.699,-1.16 1.699,-1.16 1.7,-1.16 1.699,-1.17 1.699,-1.16 1.699,-1.16 1.7,-1.16 1.695,-1.16 1.699,-1.16 1.699,-1.17 1.696,-1.16 1.699,-1.16 1.695,-1.16 1.699,-1.16 1.696,-1.16 1.699,-1.17 1.695,-1.16 1.696,-1.16 1.702,-1.16 1.69,-1.16 1.7,-1.16 1.69,-1.16 1.7,-1.17 1.69,-1.16 1.7,-1.16 1.69,-1.16 1.7,-1.16 1.69,-1.16 1.7,-1.16 1.7,-1.16 1.69,-1.17 1.69,-1.16 1.7,-1.16 1.69,-1.16 1.69,-1.16 1.7,-1.16 1.69,-1.17 1.69,-1.16 1.7,-1.16 1.69,-1.16 1.69,-1.16 1.69,-1.16 1.7,-1.17 1.69,-1.16 1.69,-1.16 1.69,-1.16 1.69,-1.16 1.69,-1.16 1.7,-1.16 1.68,-1.16 1.69,-1.16 1.7,-1.17 1.69,-1.16 1.68,-1.16 1.7,-1.16 1.68,-1.16 1.69,-1.16 1.69,-1.17 1.69,-1.16 1.69,-1.16 1.69,-1.16 1.69,-1.16 1.69,-1.16 1.69,-1.17 1.68,-1.16 1.69,-1.16 1.69,-1.16 1.69,-1.16 1.68,-1.16 1.69,-1.16 1.68,-1.17 1.69,-1.16 1.68,-1.16 1.69,-1.16 1.69,-1.16 1.68,-1.16 1.69,-1.16 1.68,-1.17 1.68,-1.16 1.69,-1.16 1.68,-1.16 1.69,-1.16 1.68,-1.16 1.68,-1.17 1.69,-1.16 1.68,-1.16 1.68,-1.16 1.68,-1.16 1.68,-1.16 1.69,-1.17 1.68,-1.16 1.68,-1.16 1.68,-1.16 1.68,-1.16 1.68,-1.16 1.68,-1.16 1.68,-1.16 1.68,-1.16 1.68,-1.17 1.68,-1.16 1.67,-1.16 1.68,-1.16 1.68,-1.16 1.68,-1.16 1.67,-1.17 1.68,-1.16 1.68,-1.16 1.67,-1.16 1.68,-1.16 1.68,-1.16 1.67,-1.17 1.67,-1.16 1.68,-1.16 1.68,-1.16 1.67,-1.16 1.67,-1.16 1.68,-1.16 1.67,-1.16 1.67,-1.17 1.67,-1.16 1.67,-1.16 1.67,-1.16 1.68,-1.16 1.67,-1.16 1.67,-1.16 1.67,-1.17 1.67,-1.16 1.67,-1.16 1.67,-1.16 1.66,-1.16 1.67,-1.16 1.67,-1.17 1.67,-1.16 1.66,-1.16 1.67,-1.16 1.67,-1.16 1.66,-1.16 1.67,-1.17 1.66,-1.16 1.66,-1.16 1.67,-1.16 1.66,-1.16 1.67,-1.16 1.66,-1.16 1.66,-1.16 1.66,-1.17 1.66,-1.16 1.66,-1.16 1.66,-1.16 1.67,-1.16 1.66,-1.16 1.66,-1.17 1.66,-1.16 1.65,-1.16 1.66,-1.16 1.66,-1.16 1.65,-1.16 1.66,-1.17 1.66,-1.16 1.65,-1.16 1.66,-1.16 1.65,-1.16 1.65,-1.16 1.66,-1.16 1.65,-1.16 1.65,-1.16 1.65,-1.17 1.66,-1.16 1.64,-1.16 1.66,-1.16 1.65,-1.16 1.64,-1.16 1.65,-1.17 1.65,-1.16 1.65,-1.16 1.64,-1.16 1.65,-1.16 1.65,-1.16 1.64,-1.17 1.65,-1.16 1.64,-1.16 1.64,-1.16 1.65,-1.16 1.64,-1.16 1.64,-1.17 1.64,-1.16 1.64,-1.16 1.64,-1.16 1.64,-1.16 1.64,-1.16 1.64,-1.16 1.63,-1.16 1.64,-1.16 1.64,-1.17 1.63,-1.16 1.64,-1.16 1.63,-1.16 1.64,-1.16 1.63,-1.16 1.63,-1.17 1.63,-1.16 1.63,-1.16 1.63,-1.16 1.63,-1.16 1.63,-1.16 1.63,-1.17 1.62,-1.16 1.63,-1.16 1.63,-1.16 1.62,-1.16 1.63,-1.16 1.62,-1.16 1.62,-1.16 1.62,-1.16 1.63,-1.17 1.62,-1.16 1.62,-1.16 1.62,-1.16 1.62,-1.16 1.61,-1.16 1.62,-1.17 1.62,-1.16 1.61,-1.16 1.62,-1.16 1.61,-1.16 1.61,-1.16 1.61,-1.17 1.62,-1.16 1.61,-1.16 1.61,-1.16 1.61,-1.16 1.6,-1.16 1.61,-1.17 1.61,-1.16 1.6,-1.16 1.61,-1.16 1.6,-1.16 1.6,-1.16 1.61,-1.16 1.6,-1.16 1.6,-1.17 1.6,-1.16 1.59,-1.16 1.6,-1.16 1.6,-1.16 1.6,-1.16 1.59,-1.17 1.59,-1.16 1.6,-1.16 1.59,-1.16 1.59,-1.16 1.59,-1.16 1.59,-1.17 1.59,-1.16 1.58,-1.16 1.59,-1.16 1.58,-1.16 1.59,-1.16 1.58,-1.16 1.58,-1.16 1.59,-1.16 1.58,-1.17 1.58,-1.16 1.58,-1.16"
             style="fill:none;stroke:#0eff00;stroke-width:4.16667;stroke-linecap:butt;stroke-linejoin:miter;stroke-miterlimit:1;stroke-dasharray:none;stroke-opacity:1"
             id="path785" /><path
             d="m 1406.79,2398.3 v 0 l 1.57,-1.16 1.58,-1.16 1.58,-1.16 1.57,-1.17 1.57,-1.16 1.57,-1.16 1.57,-1.16 1.58,-1.16 1.56,-1.16 1.57,-1.17 1.57,-1.16 1.56,-1.16 1.57,-1.16 1.56,-1.16 1.56,-1.16 1.56,-1.17 1.56,-1.16 1.56,-1.16 1.56,-1.16 1.56,-1.16 1.55,-1.16 1.55,-1.16 1.56,-1.16 1.55,-1.16 1.55,-1.17 1.55,-1.16 1.55,-1.16 1.55,-1.16 1.54,-1.16 1.55,-1.16 1.54,-1.17 1.54,-1.16 1.54,-1.16 1.54,-1.16 1.54,-1.16 1.53,-1.16 1.54,-1.17 1.53,-1.16 1.54,-1.16 1.53,-1.16 1.53,-1.16 1.53,-1.16 1.53,-1.16 1.52,-1.16 1.53,-1.17 1.52,-1.16 1.53,-1.16 1.52,-1.16 1.52,-1.16 1.52,-1.16 1.51,-1.17 1.52,-1.16 1.51,-1.16 1.51,-1.16 1.52,-1.16 1.51,-1.16 1.51,-1.17 1.5,-1.16 1.51,-1.16 1.5,-1.16 1.51,-1.16 1.5,-1.16 1.5,-1.16 1.5,-1.17 1.49,-1.16 1.5,-1.16 1.49,-1.16 1.5,-1.16 1.48,-1.16 1.5,-1.16 1.48,-1.16 1.49,-1.17 1.48,-1.16 1.49,-1.16 1.48,-1.16 1.48,-1.16 1.48,-1.16 1.48,-1.17 1.47,-1.16 1.48,-1.16 1.47,-1.16 1.47,-1.16 1.47,-1.16 1.46,-1.17 1.47,-1.16 1.46,-1.16 1.47,-1.16 1.46,-1.16 1.46,-1.16 1.45,-1.16 1.46,-1.16 1.45,-1.16 1.46,-1.17 1.45,-1.16 1.45,-1.16 1.44,-1.16 1.45,-1.16 1.44,-1.16 1.44,-1.17 1.44,-1.16 1.44,-1.16 1.44,-1.16 1.43,-1.16 1.44,-1.16 1.43,-1.17 1.43,-1.16 1.43,-1.16 1.42,-1.16 1.43,-1.16 1.42,-1.16 1.42,-1.16 1.41,-1.17 1.42,-1.16 1.42,-1.16 1.41,-1.16 1.41,-1.16 1.41,-1.16 1.41,-1.16 1.4,-1.17 1.41,-1.16 1.4,-1.16 1.4,-1.16 1.39,-1.16 1.4,-1.16 1.39,-1.17 1.39,-1.16 1.39,-1.16 2.77,-2.32 2.77,-2.33 2.76,-2.32 2.74,-2.32 2.75,-2.32 2.73,-2.32 2.72,-2.33 2.72,-2.32 2.71,-2.32 2.69,-2.33 2.69,-2.32 2.69,-2.32 2.67,-2.33 2.66,-2.32 2.65,-2.32 2.65,-2.32 2.64,-2.33 2.62,-2.32 2.62,-2.32 2.61,-2.33 2.6,-2.32 2.59,-2.32 2.58,-2.33 2.57,-2.32 2.57,-2.32 2.55,-2.33 2.54,-2.32 2.53,-2.32 2.53,-2.32 2.51,-2.32 2.51,-2.33 2.49,-2.32 2.48,-2.32 2.47,-2.33 2.47,-2.32 2.45,-2.32 2.44,-2.33 2.44,-2.32 2.42,-2.32 2.41,-2.32 2.4,-2.33 2.39,-2.32 2.38,-2.32 2.37,-2.33 2.36,-2.32 2.35,-2.32 2.34,-2.33 2.32,-2.32 2.32,-2.32 2.3,-2.33 2.3,-2.32 2.28,-2.32 2.27,-2.32 2.26,-2.33 2.25,-2.32 2.24,-2.32 2.22,-2.33 2.22,-2.32 2.2,-2.32 2.2,-2.33 2.18,-2.32 2.17,-2.32 2.16,-2.32 2.14,-2.32 2.14,-2.33 2.12,-2.32 2.11,-2.32 2.1,-2.33 2.09,-2.32 2.08,-2.32 2.06,-2.33 2.06,-2.32 2.04,-2.33 2.03,-2.32 2.01,-2.32 2.01,-2.32 1.99,-2.32 1.98,-2.33 1.98,-2.32 1.95,-2.32 1.95,-2.33 1.93,-2.32 1.93,-2.32 1.91,-2.33 1.89,-2.32 1.89,-2.32 1.87,-2.32 1.86,-2.33 1.85,-2.32 1.84,-2.32 1.82,-2.33 1.82,-2.32 1.8,-2.32 1.78,-2.33 1.78,-2.32 1.76,-2.32 1.75,-2.33 1.75,-2.32 1.72,-2.32 1.72,-2.32 1.7,-2.32 1.69,-2.33 1.68,-2.32 1.67,-2.32 1.65,-2.33 1.64,-2.32 1.63,-2.32 1.62,-2.33 1.61,-2.32 1.59,-2.32 1.58,-2.32 1.57,-2.33 1.56,-2.32 1.55,-2.32 1.53,-2.33 1.52,-2.32 1.51,-2.32 1.5,-2.33 1.49,-2.32 1.47,-2.32 1.46,-2.33 1.45,-2.32 1.44,-2.32 1.43,-2.32 1.41,-2.33 1.41,-2.32 1.39,-2.32 1.38,-2.33 1.37,-2.32 1.35,-2.32 1.35,-2.33 1.33,-2.32 1.33,-2.32 1.31,-2.32 1.3,-2.32 1.29,-2.33 1.27,-2.32 1.27,-2.32 1.25,-2.33 1.24,-2.32 1.24,-2.32 1.22,-2.33 1.21,-2.32 1.2,-2.32 1.19,-2.33 1.17,-2.32 1.17,-2.32 1.16,-2.32 1.14,-2.33 1.14,-2.32 1.12,-2.32 1.11,-2.33 1.11,-2.32 1.09,-2.32 1.08,-2.33 1.07,-2.32 1.06,-2.32 1.06,-2.32 1.03,-2.33 1.04,-2.32 1.02,-2.32 1.01,-2.33 1,-2.32 0.99,-2.32 0.98,-2.33 0.97,-2.32 0.96,-2.32 0.95,-2.32 0.94,-2.33 0.94,-2.32 0.92,-2.32 0.91,-2.32 0.91,-2.33 0.89,-2.32 0.89,-2.32 0.88,-2.33 0.86,-2.32 0.86,-2.32 0.85,-2.33 0.84,-2.32 0.84,-2.32 0.82,-2.32 0.81,-2.33 0.81,-2.32 0.79,-2.32 0.79,-2.33 0.78,-2.32 0.78,-2.32 0.76,-2.33 0.75,-2.32 0.75,-2.32 0.74,-2.32 0.73,-2.33 0.73,-2.32 0.71,-2.32 0.71,-2.33 0.7,-2.32 0.69,-2.32 0.68,-2.33 0.68,-2.32 0.67,-2.32 0.66,-2.33 0.65,-2.32 0.65,-2.32 0.64,-2.32 0.63,-2.32 0.62,-2.33 0.62,-2.32 0.61,-2.32 0.61,-2.33 0.59,-2.32 0.59,-2.32 0.59,-2.33 0.57,-2.32 0.57,-2.32 0.57,-2.32 0.56,-2.33 0.55,-2.32 0.54,-2.32 0.54,-2.33 0.53,-2.32 0.52,-2.32 0.52,-2.33 0.51,-2.32 0.51,-2.32 0.5,-2.33 0.5,-2.32 0.49,-2.32 0.48,-2.32 0.48,-2.33 0.47,-2.32 0.46,-2.32 0.47,-2.33 0.45,-2.32 0.45,-2.32 0.44,-2.33 0.44,-2.32 0.44,-2.32 0.42,-2.32 0.43,-2.32 0.41,-2.33 0.42,-2.32 0.41,-2.32 0.4,-2.33 0.4,-2.32 0.39,-2.32 0.39,-2.33 0.38,-2.32 0.38,-2.32 0.38,-2.33 0.36,-2.32 0.37,-2.32 0.36,-2.32 0.36,-2.33 0.35,-2.32 0.35,-2.32 0.34,-2.33 0.34,-2.32 0.33,-2.32 0.33,-2.33 0.33,-2.32 0.32,-2.32 0.32,-2.32 0.31,-2.33 0.31,-2.32 0.31,-2.32 0.3,-2.33 0.3,-2.32 0.29,-2.32 0.3,-2.33 0.28,-2.32 0.29,-2.32 0.28,-2.32 0.27,-2.33 0.27,-2.32 0.28,-2.32 0.26,-2.32 0.26,-2.33 0.26,-2.32 0.26,-2.32 0.25,-2.33 0.25,-2.32 0.25,-2.32 0.24,-2.33 0.24,-2.32 0.24,-2.32 0.23,-2.32 0.23,-2.33 0.23,-2.32 0.23,-2.32 0.22,-2.33 0.22,-2.32 0.22,-2.32 0.21,-2.33 0.21,-2.32 0.21,-2.32 0.2,-2.32 0.21,-2.33 0.2,-2.32 0.19,-2.32 0.2,-2.33 0.19,-2.32 0.19,-2.32 0.19,-2.33 0.18,-2.32 0.19,-2.32 0.18,-2.33 0.17,-2.32 0.18,-2.32 0.17,-2.32 0.18,-2.32 0.16,-2.33 0.17,-2.32 0.17,-2.32 0.16,-2.33 0.16,-2.32 0.15,-2.32 0.16,-2.33 0.16,-2.32 0.15,-2.32 0.15,-2.32 0.14,-2.33 0.15,-2.32 0.14,-2.32 0.14,-2.33 0.14,-2.32 0.15,-2.32 0.13,-2.33 0.13,-2.32 0.14,-2.32 0.13,-2.33 0.13,-2.32 0.12,-2.32 0.13,-2.32 0.13,-2.32 0.12,-2.33 0.12,-2.32 0.12,-2.33 0.12,-2.32 0.11,-2.32 0.12,-2.33 0.11,-2.32 0.11,-2.32 0.12,-2.32 0.1,-2.32 0.11,-2.33 0.11,-2.32 0.1,-2.32 0.1,-2.33 0.1,-2.32 0.11,-2.32 0.09,-2.33 0.1,-2.32 0.1,-2.32 0.09,-2.33 0.1,-2.32 0.09,-2.32 0.09,-2.32 0.09,-2.33 0.09,-2.32 0.09,-2.32 0.08,-2.33 0.09,-2.32 0.08,-2.32 0.09,-2.33 0.08,-2.32 0.08,-2.32 0.08,-2.32 0.08,-2.32 0.07,-2.33 0.08,-2.32 0.08,-2.32 0.07,-2.33 0.07,-2.32 0.08,-2.33 0.07,-2.32 0.07,-2.32 0.07,-2.33 0.07,-2.32 0.07,-2.32 0.06,-2.32 0.07,-2.32 0.06,-2.33"
             style="fill:none;stroke:#0eff00;stroke-width:4.16667;stroke-linecap:butt;stroke-linejoin:miter;stroke-miterlimit:1;stroke-dasharray:none;stroke-opacity:1"
             id="path787" /><path
             d="m 1988.6,1361.1 v 0 l 0.07,-2.32 0.06,-2.32 0.06,-2.33 0.07,-2.32 0.05,-2.32 0.07,-2.33 0.06,-2.32 0.05,-2.32 0.06,-2.32 0.06,-2.33 0.05,-2.32 0.06,-2.32 0.05,-2.33 0.06,-2.32 0.05,-2.32 0.05,-2.33 0.05,-2.32 0.05,-2.32 0.05,-2.33 0.05,-2.32 0.05,-2.32 0.05,-2.32 0.05,-2.32 0.05,-2.33 0.04,-2.32 0.05,-2.32 0.04,-2.33 0.05,-2.32 0.04,-2.33 0.04,-2.32 0.04,-2.32 0.05,-2.32 0.04,-2.32 0.04,-2.33 0.04,-2.32 0.04,-2.32 0.04,-2.33 0.04,-2.32 0.03,-2.32 0.04,-2.33 0.04,-2.32 0.04,-2.32 0.03,-2.33 0.04,-2.32 0.03,-2.32 0.04,-2.32 0.03,-2.33 0.04,-2.32 0.03,-2.32 0.03,-2.33 0.03,-2.32 0.04,-2.32 0.03,-2.33 0.03,-2.32 0.03,-2.32 0.03,-2.32 0.03,-2.32 0.03,-2.33 0.03,-2.32 0.03,-2.32 0.02,-2.33 0.03,-2.32 0.03,-2.33 0.03,-2.32 0.02,-2.32 0.03,-2.32 0.03,-2.33 0.02,-2.32 0.03,-2.32 0.02,-2.32 0.03,-2.33 0.02,-2.32 0.03,-2.32 0.02,-2.33 0.02,-2.32 0.03,-2.32 0.02,-2.33 0.02,-2.32 0.02,-2.32 0.02,-2.32 0.03,-2.33 0.02,-2.32 0.02,-2.32 0.02,-2.33 0.02,-2.32 0.02,-2.32 0.02,-2.33 0.02,-2.32 0.02,-2.32 0.02,-2.32 0.01,-2.33 0.02,-2.32 0.02,-2.32 0.02,-2.32 0.02,-2.33 0.01,-2.32 0.02,-2.32 0.02,-2.33 0.02,-2.32 0.01,-2.33 0.02,-2.32 0.01,-2.32 0.02,-2.32 0.01,-2.32 0.02,-2.33 0.01,-2.32 0.02,-2.32 0.02,-2.33 0.01,-2.32 0.01,-2.32 0.02,-2.33 0.01,-2.32 0.02,-2.32 0.01,-2.32 0.01,-2.33 0.02,-2.32 0.01,-2.32 0.01,-2.33 0.01,-2.32 0.02,-2.32 0.01,-2.33 0.01,-2.32 0.01,-2.32 0.01,-2.33 0.01,-2.32 0.02,-2.32 0.01,-2.32 0.01,-2.32 0.01,-2.33 0.01,-2.32 0.02,-2.32 v -2.33 l 0.01,-2.32 0.02,-2.32 v -2.33 l 0.02,-2.32 v -2.32 l 0.02,-2.32 v -2.33 l 0.02,-2.32 v -2.32 l 0.01,-2.33 0.01,-2.32 0.01,-2.32 0.01,-2.33 0.01,-2.32 0.01,-2.32 0.01,-2.33 v -2.32 l 0.01,-2.32 0.01,-2.32 0.01,-2.33 v -2.32 l 0.01,-2.32 0.01,-2.33 0.01,-2.317 0.01,-2.325 v -2.324 l 0.01,-2.32 0.01,-2.324 0.01,-2.325 v -2.32 l 0.01,-2.324 0.01,-2.324 v -2.321 l 0.01,-2.324 0.01,-2.324 v -2.32 l 0.01,-2.325 0.01,-2.324 v -2.32 l 0.01,-2.324 v -2.325 l 0.01,-2.324 v -2.32 l 0.01,-2.324 v -2.324 l 0.01,-2.321 0.01,-2.324 v -2.32 l 0.01,-2.325 v -2.324 l 0.01,-2.32 v -2.324 l 0.01,-2.325 0.01,-2.324 v -2.32 -2.324 l 0.01,-2.324 v -2.321 l 0.01,-2.324 v -2.324 l 0.01,-2.321 v -2.324 -2.324 l 0.01,-2.32 0.01,-2.325 v -2.324 -2.32 l 0.01,-2.324 v -2.324 l 0.01,-2.321 v -2.324 -2.324 l 0.01,-2.321 v -2.324 l 0.01,-2.324 v -2.32 -2.325 l 0.01,-2.324 v -2.32 -2.324 -2.324 l 0.01,-2.325 v -2.32 l 0.01,-2.324 v -2.321 -2.324 -2.324 l 0.01,-2.324 v -2.321 l 0.01,-2.324 v -2.324 -2.32 -2.324 l 0.01,-2.325 v -2.32 -2.324 l 0.01,-2.324 v -2.321 -2.324 -2.324 l 0.01,-2.321 v -2.324 -2.324 l 0.01,-2.32 v -2.324 -2.325 -2.32 -2.324 l 0.01,-2.324 v -2.321 -2.324 -2.324 -2.321 l 0.01,-2.324 v -2.324 -2.32 -2.324 l 0.01,-2.325 v -2.32 -2.324 -2.324 -2.321 -2.324 l 0.01,-2.324 v -2.324 -2.321 -2.324 l 0.01,-2.324 v -2.32 -2.325 -2.324 -2.32 -2.324 -2.325 l 0.01,-2.32 v -2.324 -2.324 -2.321 -2.324 l 0.01,-2.324 v -2.32 -2.325 -2.324 -2.32 -2.324 -2.325 -2.32 l 0.01,-2.324 v -2.324 -2.321 -2.324 -2.324 -2.32 -2.325 -2.324 -2.32 l 0.01,-2.324 v -2.325 -2.32 -2.324 -2.324 -2.325 -2.32 l 0.01,-2.324 v -2.324 -2.321 -2.324 -2.324 -2.32 -2.325 -2.324 -2.32 -2.324 -2.325 -2.32 l 0.01,-2.324 v -2.324 -2.321 -2.324 -2.324 -2.32 -2.325 -2.324 -2.32 l 0.01,-2.324 v -2.325 -2.32 -2.324 -2.324 -2.321 -2.324 -2.324 -2.32 -2.325 -2.324 -2.32 -2.324 -2.325 -2.324 -2.32 l 0.01,-2.324 v -2.325 -2.32 -2.324 -2.324 -2.321 -2.324 -2.324 -2.32 -2.325 -2.324 -2.32 -2.324 -2.325 l 0.01,-2.32 v -2.324 -2.324 -2.321 -2.324 -2.324 -2.32"
             style="fill:none;stroke:#0eff00;stroke-width:4.16667;stroke-linecap:butt;stroke-linejoin:miter;stroke-miterlimit:1;stroke-dasharray:none;stroke-opacity:1"
             id="path789" /><path
             d="m 1961.18,2990.65 v 0 l -2.43,-2.32 -2.42,-2.32 -2.41,-2.33 -2.4,-2.32 -2.38,-2.32 -2.37,-2.33 -2.36,-2.32 -2.35,-2.32 -2.34,-2.32 -2.33,-2.33 -2.31,-2.32 -2.3,-2.32 -2.29,-2.33 -2.28,-2.32 -2.26,-2.32 -2.25,-2.33 -2.24,-2.32 -2.23,-2.32 -2.22,-2.32 -2.21,-2.33 -2.2,-2.32 -2.18,-2.32 -2.17,-2.33 -2.16,-2.32 -2.16,-2.32 -2.13,-2.33 -2.13,-2.32 -2.12,-2.32 -2.1,-2.32 -2.1,-2.33 -2.08,-2.32 -2.07,-2.32 -2.07,-2.32 -2.05,-2.33 -2.04,-2.32 -2.03,-2.32 -2.02,-2.33 -2.01,-2.32 -1.99,-2.32 -1.99,-2.33 -1.98,-2.32 -1.97,-2.32 -1.96,-2.32 -1.94,-2.33 -1.94,-2.32 -1.93,-2.32 -1.92,-2.33 -1.9,-2.32 -1.91,-2.32 -1.88,-2.33 -1.88,-2.32 -1.88,-2.32 -1.86,-2.32 -1.85,-2.33 -1.84,-2.32 -1.84,-2.32 -1.82,-2.33 -1.82,-2.32 -1.81,-2.32 -1.8,-2.33 -1.79,-2.32 -1.78,-2.32 -1.78,-2.33 -1.76,-2.32 -1.77,-2.32 -1.75,-2.32 -1.74,-2.32 -1.73,-2.33 -1.73,-2.32 -1.72,-2.32 -1.72,-2.33 -1.7,-2.32 -1.7,-2.32 -1.69,-2.33 -1.68,-2.32 -1.68,-2.32 -1.67,-2.32 -1.67,-2.33 -1.65,-2.32 -1.65,-2.32 -1.65,-2.33 -1.63,-2.32 -1.64,-2.32 -1.62,-2.33 -1.62,-2.32 -1.62,-2.32 -1.61,-2.33 -1.6,-2.32 -1.6,-2.32 -1.59,-2.32 -1.58,-2.33 -1.58,-2.32 -1.58,-2.32 -1.57,-2.33 -1.57,-2.32 -1.56,-2.32 -1.56,-2.33 -1.55,-2.32 -1.54,-2.32 -1.55,-2.32 -1.54,-2.32 -1.53,-2.33 -1.53,-2.32 -1.53,-2.32 -1.52,-2.33 -1.52,-2.32 -1.51,-2.32 -1.52,-2.33 -1.5,-2.32 -1.51,-2.32 -1.5,-2.33 -1.5,-2.32 -1.49,-2.32 -1.5,-2.32 -1.49,-2.33 -1.48,-2.32 -1.49,-2.32 -1.48,-2.33 -1.48,-2.32 -1.47,-2.32 -1.48,-2.33 -1.47,-2.32 -1.47,-2.32 -1.47,-2.32 -1.47,-2.33 -1.46,-2.32 -1.46,-2.32 -1.46,-2.33 -1.46,-2.32 -1.46,-2.32 -1.46,-2.33 -1.45,-2.32 -1.46,-2.32 -1.45,-2.32 -1.45,-2.33 -1.46,-2.32 -1.45,-2.32 -1.45,-2.32 -1.44,-2.33 -1.45,-2.32 -1.45,-2.32 -1.45,-2.33 -1.45,-2.32 -1.45,-2.32 -1.45,-2.33 -1.44,-2.32 -1.45,-2.32 -1.45,-2.32 -1.45,-2.33 -1.45,-2.32 -1.45,-2.32 -1.45,-2.33 -1.45,-2.32 -1.45,-2.32 -1.45,-2.33 -1.45,-2.32 -1.46,-2.32 -1.45,-2.32 -1.46,-2.33 -1.46,-2.32 -1.45,-2.32 -1.46,-2.33 -1.46,-2.32 -1.47,-2.32 -1.46,-2.33 -1.47,-2.32 -1.47,-2.32 -1.47,-2.33 -1.47,-2.32 -1.47,-2.32 -1.48,-2.32 -1.47,-2.32 -1.49,-2.33 -1.48,-2.32 -1.48,-2.32 -1.49,-2.33 -1.49,-2.32 -1.49,-2.32 -1.5,-2.33 -1.49,-2.32 -1.5,-2.32 -1.51,-2.32 -1.51,-2.33 -1.51,-2.32 -1.51,-2.32 -1.52,-2.33 -1.52,-2.32 -1.52,-2.32 -1.52,-2.33 -1.53,-2.32 -1.54,-2.32 -1.53,-2.33 -1.54,-2.32 -1.55,-2.32 -1.55,-2.32 -1.55,-2.33 -1.55,-2.32 -1.56,-2.32 -1.57,-2.33 -1.57,-2.32 -1.57,-2.32 -1.58,-2.33 -1.58,-2.32 -1.58,-2.32 -1.59,-2.32 -1.6,-2.32 -1.59,-2.33 -1.61,-2.32 -1.61,-2.32 -1.61,-2.33 -1.62,-2.32 -1.63,-2.32 -1.62,-2.33 -1.64,-2.32 -1.63,-2.32 -1.65,-2.33 -1.65,-2.32 -1.65,-2.32 -1.66,-2.32 -1.66,-2.33 -1.67,-2.32 -1.68,-2.32 -1.68,-2.33 -1.69,-2.32 -1.69,-2.32 -1.7,-2.33 -1.71,-2.32 -1.71,-2.32 -1.71,-2.32 -1.72,-2.32 -1.73,-2.33 -1.73,-2.32 -1.75,-2.32 -1.74,-2.33 -1.76,-2.32 -1.75,-2.32 -1.77,-2.33 -1.77,-2.32 -1.78,-2.32 -1.79,-2.33 -1.79,-2.32 -1.8,-2.32 -1.8,-2.32 -1.81,-2.33 -1.82,-2.32 -1.82,-2.32 -1.84,-2.33 -1.84,-2.32 -1.84,-2.32 -1.85,-2.33 -1.86,-2.32 -1.87,-2.32 -1.87,-2.32 -1.88,-2.33 -1.89,-2.32 -1.89,-2.32 -1.91,-2.33 -1.91,-2.32 -1.91,-2.32 -1.93,-2.33 -1.93,-2.32 -1.94,-2.32 -1.94,-2.33 -1.95,-2.32 -1.97,-2.32 -1.97,-2.32 -1.98,-2.32 -1.98,-2.33 -1.99,-2.32 -2,-2.32 -2.01,-2.33 -2.01,-2.32 -2.02,-2.32 -2.03,-2.33 -2.04,-2.32 -2.05,-2.32 -2.05,-2.32 -2.06,-2.33 -2.07,-2.32 -2.08,-2.32 -2.09,-2.33 -2.09,-2.32 -2.1,-2.32 -2.11,-2.33 -2.12,-2.32 -2.12,-2.32 -2.14,-2.33 -2.14,-2.32 -2.15,-2.32 -2.15,-2.32 -2.17,-2.33 -2.17,-2.32 -2.19,-2.32 -2.19,-2.33 -2.19,-2.32 -2.21,-2.32 -2.22,-2.33 -2.22,-2.32 -2.23,-2.32 -2.24,-2.32 -2.24,-2.32 -2.26,-2.33 -2.26,-2.32 -2.27,-2.32 -2.28,-2.33 -2.29,-2.32 -2.3,-2.32 -2.3,-2.33 -2.31,-2.32 -2.32,-2.32 -2.33,-2.33 -2.33,-2.32 -2.35,-2.32 -2.35,-2.32 -2.36,-2.33 -2.37,-2.32 -2.37,-2.32 -2.38,-2.33 -2.39,-2.32 -2.41,-2.32 -2.4,-2.33 -2.42,-2.32 -2.42,-2.32 -2.43,-2.32 -2.44,-2.33 -2.44,-2.32 -2.46,-2.32 -2.46,-2.33 -2.46,-2.32 -2.48,-2.32 -2.49,-2.33 -2.49,-2.32 -2.49,-2.32 -2.51,-2.32 -2.51,-2.33 -2.52,-2.32 -2.53,-2.32 -2.53,-2.32 -2.54,-2.33 -2.55,-2.32 -2.56,-2.32 -2.56,-2.33 -2.57,-2.32 -2.58,-2.32 -2.58,-2.33 -2.59,-2.32 -2.6,-2.32 -2.6,-2.32 -2.61,-2.33 -2.61,-2.32 -2.63,-2.32 -2.62,-2.33 -2.64,-2.32 -2.64,-2.32 -2.65,-2.33 -2.65,-2.32 -2.65,-2.32 -2.67,-2.32 -2.67,-2.33 -2.68,-2.32 -2.68,-2.32 -2.68,-2.33 -2.69,-2.32 -2.7,-2.32 -2.71,-2.33 -2.7,-2.32 -2.72,-2.32 -2.71,-2.33 -2.73,-2.32 -2.72,-2.32 -2.73,-2.32 -2.74,-2.32 -2.74,-2.33 -2.75,-2.32 -2.75,-2.32 -2.75,-2.33 -2.76,-2.32 -2.76,-2.32 -2.77,-2.33 -2.76,-2.32 -2.78,-2.32 -2.78,-2.32 -1.38,-1.16 -1.39,-1.17 -1.39,-1.16 -1.4,-1.16 -1.39,-1.16 -1.39,-1.16 -1.4,-1.16 -1.39,-1.17 -1.4,-1.16 -1.4,-1.16 -1.39,-1.16 -1.4,-1.16 -1.4,-1.16 -1.4,-1.17 -1.4,-1.16 -1.4,-1.16 -1.4,-1.16 -1.4,-1.16 -1.4,-1.17 -1.41,-1.16 -1.4,-1.16 -1.4,-1.16 -1.41,-1.16 -1.4,-1.16 -1.41,-1.16 -1.41,-1.16 -1.4,-1.16 -1.41,-1.17 -1.4,-1.16 -1.41,-1.16 -1.41,-1.16 -1.41,-1.16 -1.41,-1.16 -1.41,-1.17 -1.41,-1.16 -1.41,-1.16 -1.41,-1.16 -1.41,-1.16 -1.41,-1.16 -1.41,-1.17 -1.41,-1.16 -1.41,-1.16 -1.42,-1.16 -1.41,-1.16 -1.41,-1.16 -1.41,-1.16 -1.41,-1.16 -1.41,-1.16 -1.42,-1.17 -1.41,-1.16 -1.42,-1.16 -1.41,-1.16 -1.41,-1.16 -1.42,-1.16 -1.41,-1.17 -1.41,-1.16 -1.42,-1.16 -1.41,-1.16 -1.41,-1.16 -1.42,-1.16 -1.41,-1.17 -1.41,-1.16 -1.41,-1.16 -1.42,-1.16 -1.41,-1.16 -1.41,-1.16 -1.42,-1.17 -1.41,-1.16 -1.41,-1.16 -1.41,-1.16 -1.41,-1.16 -1.41,-1.16 -1.41,-1.16 -1.42,-1.16 -1.41,-1.16 -1.41,-1.17 -1.41,-1.16 -1.41,-1.16 -1.41,-1.16 -1.41,-1.16 -1.41,-1.16 -1.4,-1.17 -1.41,-1.16 -1.41,-1.16 -1.41,-1.16 -1.4,-1.16 -1.41,-1.16 -1.4,-1.17 -1.41,-1.16 -1.4,-1.16 -1.4,-1.16 -1.41,-1.16 -1.4,-1.16 -1.41,-1.16 -1.4,-1.16 -1.4,-1.17 -1.4,-1.16 -1.4,-1.16 -1.4,-1.16 -1.39,-1.16 -1.4,-1.16 -1.4,-1.17 -1.4,-1.16 -1.39,-1.16 -1.39,-1.16 -1.4,-1.16 -1.39,-1.16 -1.39,-1.17 -1.4,-1.16 -1.39,-1.16 -1.39,-1.16 -1.39,-1.16 -2.77,-2.32 -2.77,-2.33 -2.77,-2.32 -2.76,-2.32 -2.77,-2.32 -2.75,-2.33 -2.75,-2.32 -2.75,-2.32 -2.74,-2.33 -2.74,-2.32 -2.74,-2.32 -2.73,-2.33 -2.72,-2.32 -2.72,-2.32 -2.71,-2.32 -2.71,-2.33"
             style="fill:none;stroke:#0eff00;stroke-width:4.16667;stroke-linecap:butt;stroke-linejoin:miter;stroke-miterlimit:1;stroke-dasharray:12.5, 12.5;stroke-dashoffset:0;stroke-opacity:1"
             id="path791" /><path
             d="m 1023.55,1936.03 v 0 l -2.71,-2.32 -2.69,-2.32 -2.7,-2.33 -2.68,-2.32 -2.68,-2.32 -2.68,-2.33 -2.67,-2.32 -2.66,-2.32 -2.658,-2.32 -2.649,-2.33 -2.644,-2.32 -2.641,-2.32 -2.629,-2.33 -2.625,-2.32 -2.621,-2.32 -2.609,-2.33 -2.606,-2.32 -2.597,-2.32 -2.59,-2.33 -2.586,-2.32 -2.574,-2.32 -2.571,-2.32 -2.562,-2.32 -2.551,-2.33 -2.547,-2.32 -2.539,-2.32 -2.531,-2.33 -2.523,-2.32 -2.516,-2.32 -2.508,-2.33 -2.5,-2.32 -2.492,-2.32 -2.484,-2.32 -2.477,-2.33 -2.469,-2.32 -2.457,-2.32 -2.449,-2.33 -2.445,-2.32 -2.434,-2.32 -2.426,-2.33 -2.414,-2.32 -2.41,-2.32 -2.398,-2.33 -2.391,-2.32 -2.383,-2.32 -2.371,-2.32 -2.367,-2.32 -2.356,-2.33 -2.343,-2.32 -2.34,-2.32 -2.328,-2.33 -2.317,-2.32 -2.312,-2.33 -2.301,-2.32 -2.293,-2.32 -2.281,-2.32 -2.274,-2.32 -2.261,-2.33 -2.254,-2.32 -2.246,-2.32 -2.239,-2.33 -2.226,-2.32 -2.215,-2.32 -2.207,-2.33 -2.199,-2.32 -2.188,-2.32 -2.179,-2.33 -2.168,-2.32 -2.161,-2.32 -2.148,-2.32 -2.141,-2.33 -2.132,-2.32 -2.122,-2.32 -2.109,-2.33 -2.105,-2.32 -2.09,-2.32 -2.082,-2.33 -2.074,-2.32 -2.063,-2.32 -2.055,-2.32 -2.043,-2.32 -2.035,-2.33 -2.023,-2.32 -2.012,-2.32 -2.008,-2.33 -1.992,-2.32 -1.988,-2.32 -1.973,-2.33 -1.969,-2.32 -1.953,-2.33 -1.945,-2.32 -1.938,-2.32 -1.925,-2.32 -1.918,-2.32 -1.907,-2.33 -1.898,-2.32 -1.891,-2.32 -1.875,-2.33 -1.871,-2.32 -1.859,-2.32 -1.848,-2.33 -1.84,-2.32 -1.832,-2.32 -1.82,-2.32 -1.809,-2.33 -1.8,-2.32 -1.793,-2.32 -1.782,-2.33 -1.773,-2.32 -1.762,-2.32 -1.754,-2.33 -1.746,-2.32 -1.734,-2.32 -1.723,-2.33 -1.715,-2.32 -1.707,-2.32 -1.699,-2.32 -1.687,-2.32 -1.676,-2.33 -1.668,-2.32 -1.66,-2.32 -1.653,-2.33 -1.64,-2.32 -1.633,-2.33 -1.621,-2.32 -1.613,-2.32 -1.606,-2.32 -1.594,-2.32 -1.586,-2.33 -1.578,-2.32 -1.566,-2.32 -1.563,-2.33 -1.546,-2.32 -1.543,-2.32 -1.532,-2.33 -1.523,-2.32 -1.516,-2.32 -1.504,-2.33 -1.5,-2.32 -1.488,-2.32 -1.476,-2.32 -1.473,-2.33 -1.461,-2.32 -1.453,-2.32 -1.445,-2.33 -1.438,-2.32 -1.426,-2.32 -1.422,-2.33 -1.41,-2.32 -1.402,-2.32 -1.395,-2.32 -1.386,-2.32 -1.375,-2.33 -1.371,-2.32 -1.36,-2.32 -1.351,-2.33 -1.344,-2.32 -1.336,-2.32 -1.328,-2.33 -1.321,-2.32 -1.312,-2.32 -1.305,-2.33 -1.297,-2.32 -1.285,-2.32 -1.281,-2.32 -1.273,-2.33 -1.262,-2.32 -1.258,-2.32 -1.25,-2.33 -1.238,-2.32 -1.235,-2.32 -1.226,-2.33 -1.219,-2.32 -1.211,-2.32 -1.203,-2.32 -1.195,-2.33 -1.188,-2.32 -1.18,-2.32 -1.171,-2.33 -1.168,-2.32 -1.157,-2.32 -1.152,-2.33 -1.144,-2.32 -1.137,-2.32 -1.129,-2.32 -1.125,-2.33 -1.113,-2.32 -1.11,-2.32 -1.101,-2.32 -1.094,-2.33 -1.086,-2.32 -1.082,-2.32 -1.074,-2.33 -1.067,-2.32 -1.058,-2.32 -1.051,-2.33 -1.047,-2.32 -1.039,-2.32 -1.035,-2.32 -1.027,-2.33 -1.02,-2.32 -1.012,-2.32 -1.008,-2.33 -1,-2.32 -0.992,-2.32 -0.988,-2.33 -0.98,-2.32 -0.977,-2.32 -0.965,-2.32 -0.965,-2.33 -0.953,-2.32 -0.949,-2.32 -0.945,-2.33 -0.938,-2.32 -0.93,-2.32 -0.925,-2.33 -0.918,-2.32 -0.914,-2.32 -0.907,-2.33 -0.902,-2.32 -0.895,-2.32 -0.89,-2.32 -0.883,-2.32 -0.879,-2.33 -0.871,-2.32 -0.867,-2.32 -0.86,-2.33 -0.855,-2.32 -0.852,-2.32 -0.843,-2.33 -0.836,-2.32 -0.836,-2.32 -0.824,-2.32 -0.825,-2.33 -0.816,-2.32 -0.809,-2.32 -0.808,-2.33 -0.801,-2.32 -0.793,-2.32 -0.789,-2.33 -0.785,-2.32 -0.781,-2.32 -0.774,-2.33 -0.769,-2.32 -0.766,-2.32 -0.758,-2.32 -0.754,-2.33 -0.75,-2.32 -0.742,-2.32 -0.738,-2.33 -0.735,-2.32 -0.73,-2.32 -0.723,-2.33 -0.722,-2.32 -0.715,-2.32 -0.707,-2.32 -0.707,-2.32 -0.699,-2.33 -0.696,-2.32 -0.691,-2.32 -0.688,-2.33 -0.683,-2.32 -0.676,-2.32 -0.676,-2.33 -0.668,-2.32 -0.664,-2.32 -0.66,-2.33 -0.652,-2.32 -0.653,-2.32 -0.644,-2.32 -0.645,-2.33 -0.637,-2.32 -0.632,-2.32 -0.629,-2.33 -0.625,-2.32 -0.621,-2.32 -0.618,-2.33 -0.613,-2.32 -0.609,-2.32 -0.606,-2.32 -0.597,-2.33 -0.598,-2.32 -0.594,-2.32 -0.586,-2.33 -0.586,-2.32 -0.578,-2.32 -0.578,-2.33 -0.574,-2.32 -0.566,-2.32 -0.567,-2.32 -0.562,-2.33 -0.555,-2.32 -0.555,-2.32 -0.551,-2.32 -0.546,-2.33 -0.543,-2.32 -0.536,-2.32 -0.535,-2.33 -0.535,-2.32 -0.527,-2.32 -0.524,-2.33 -0.519,-2.32 -0.52,-2.32 -0.511,-2.32 -0.512,-2.33 -0.508,-2.32 -0.504,-2.32 -0.5,-2.33 -0.496,-2.32 -0.496,-2.32 -0.488,-2.33 -0.489,-2.32 -0.48,-2.32 -0.481,-2.32 -0.48,-2.33 -0.473,-2.32 -0.468,-2.32 -0.469,-2.33 -0.465,-2.32 -0.461,-2.32 -0.457,-2.33 -0.457,-2.32 -0.449,-2.32 -0.449,-2.33 -0.446,-2.32 -0.445,-2.32 -0.438,-2.32 -0.437,-2.32 -0.434,-2.33 -0.433,-2.32 -0.426,-2.32 -0.426,-2.33 -0.422,-2.32 -0.418,-2.32 -0.418,-2.33 -0.414,-2.32 -0.41,-2.32 -0.41,-2.32 -0.402,-2.33 -0.407,-2.32 -0.398,-2.32 -0.398,-2.33 -0.395,-2.32 -0.391,-2.32 -0.39,-2.33 -0.387,-2.32 -0.383,-2.32 -0.383,-2.33 -0.378,-2.32 -0.375,-2.32 -0.375,-2.32 -0.372,-2.32 -0.367,-2.33 -0.367,-2.32 -0.363,-2.33 -0.36,-2.32 -0.359,-2.32 -0.355,-2.33 -0.356,-2.32 -0.351,-2.32 -0.348,-2.32 -0.348,-2.32 -0.344,-2.33 -0.343,-2.32 -0.34,-2.32 -0.34,-2.33 -0.332,-2.32 -0.336,-2.32 -0.328,-2.33 -0.328,-2.32 -0.328,-2.32 -0.325,-2.33 -0.32,-2.32 -0.32,-2.32 -0.32,-2.32 -0.313,-2.33 -0.316,-2.32 -0.309,-2.32 -0.309,-2.33 -0.308,-2.32 -0.305,-2.32 -0.305,-2.33 -0.3,-2.32 -0.297,-2.32 -0.297,-2.32 -0.297,-2.32 -0.293,-2.33 -0.289,-2.32 -0.289,-2.33 -0.289,-2.32 -0.285,-2.32 -0.282,-2.33 -0.281,-2.32 -0.281,-2.32 -0.277,-2.33 -0.274,-2.32 -0.273,-2.32 -0.274,-2.32 -0.269,-2.32 -0.27,-2.33 -0.265,-2.32 -0.266,-2.32 -0.262,-2.327 -0.261,-2.324 -0.262,-2.321 -0.258,-2.324 -0.254,-2.324 -0.254,-2.32 -0.254,-2.325 -0.25,-2.324 -0.25,-2.32 -0.246,-2.324 -0.246,-2.325 -0.246,-2.32 -0.242,-2.324 -0.242,-2.324 -0.239,-2.321 -0.238,-2.324 -0.234,-2.324 -0.235,-2.32 -0.234,-2.325 -0.23,-2.324 -0.231,-2.32 -0.23,-2.324 -0.227,-2.325 -0.227,-2.324 -0.222,-2.32 -0.223,-2.324 -0.223,-2.325 -0.218,-2.32 -0.219,-2.324 -0.215,-2.324 -0.215,-2.321 -0.215,-2.324 -0.21,-2.324 -0.211,-2.32 -0.211,-2.325 -0.207,-2.324 -0.207,-2.32 -0.207,-2.324 -0.204,-2.325 -0.203,-2.32 -0.199,-2.324 -0.203,-2.324 -0.199,-2.321 -0.196,-2.324 -0.195,-2.324 -0.195,-2.32 -0.196,-2.325 -0.191,-2.324 -0.191,-2.32 -0.192,-2.324 -0.187,-2.325 -0.188,-2.32 -0.187,-2.324 -0.184,-2.324 -0.183,-2.321 -0.184,-2.324 -0.18,-2.324 -0.179,-2.32 -0.18,-2.325 -0.18,-2.324 -0.176,-2.324 -0.175,-2.32 -0.172,-2.325 -0.176,-2.324 -0.172,-2.32 -0.172,-2.324 -0.168,-2.325 -0.168,-2.32 -0.168,-2.324 -0.168,-2.324 -0.164,-2.321 -0.168,-2.324 -0.16,-2.324 -0.164,-2.32 -0.16,-2.325 -0.16,-2.324 -0.16,-2.32 -0.16,-2.324 -0.157,-2.325 -0.156,-2.32 -0.156,-2.324 -0.153,-2.324 -0.156,-2.321 -0.152,-2.324 -0.149,-2.324 -0.152,-2.32 -0.148,-2.325 -0.149,-2.324 -0.148,-2.32 -0.145,-2.324 -0.148,-2.325 -0.145,-2.32 -0.144,-2.324 -0.141,-2.324 -0.144,-2.321 -0.141,-2.324 -0.141,-2.324 -0.14,-2.32 -0.137,-2.325 -0.137,-2.324 -0.136,-2.324 -0.137,-2.32 -0.137,-2.325 -0.133,-2.324 -0.133,-2.32 -0.132,-2.324 -0.133,-2.325 -0.133,-2.32"
             style="fill:none;stroke:#0eff00;stroke-width:4.16667;stroke-linecap:butt;stroke-linejoin:miter;stroke-miterlimit:1;stroke-dasharray:12.5, 12.5;stroke-dashoffset:0;stroke-opacity:1"
             id="path793" /><path
             d="m 516.75,751.328 v 0 l -0.129,-2.324 -0.129,-2.324 -0.129,-2.321 -0.129,-2.324 -0.129,-2.324 -0.125,-2.32 -0.125,-2.325 -0.125,-2.324 -0.125,-2.32 -0.121,-2.324 -0.125,-2.325 -0.121,-2.32 -0.121,-2.324 -0.121,-2.324 -0.117,-2.321 -0.121,-2.324 -0.117,-2.324 -0.118,-2.32 -0.117,-2.325 -0.117,-2.324 -0.117,-2.32 -0.113,-2.324 -0.114,-2.325 -0.113,-2.324 -0.113,-2.32 -0.114,-2.324 -0.109,-2.321 -0.113,-2.324 -0.11,-2.324 -0.109,-2.324 -0.109,-2.321 -0.11,-2.324 -0.105,-2.324 -0.11,-2.32 -0.105,-2.325 -0.105,-2.324 -0.106,-2.32 -0.105,-2.324 -0.102,-2.325 -0.105,-2.32 -0.102,-2.324 -0.102,-2.324 -0.101,-2.321 -0.102,-2.324 -0.101,-2.324 -0.102,-2.32 -0.097,-2.325 -0.102,-2.324 -0.098,-2.32 -0.097,-2.324 -0.098,-2.325 -0.094,-2.32 -0.097,-2.324 -0.098,-2.324 -0.094,-2.321 -0.094,-2.324 -0.093,-2.324 -0.094,-2.32 -0.094,-2.325 -0.094,-2.324 -0.093,-2.32 -0.09,-2.324 -0.094,-2.325 -0.09,-2.32 -0.09,-2.324 -0.089,-2.324 -0.09,-2.321 -0.09,-2.324 -0.086,-2.324 -0.09,-2.324 -0.086,-2.321 -0.09,-2.324 -0.086,-2.324 -0.086,-2.32 -0.085,-2.325 -0.086,-2.324 -0.086,-2.32 -0.082,-2.324 -0.086,-2.324 -0.082,-2.321 -0.086,-2.324 -0.082,-2.324 -0.082,-2.321 -0.082,-2.324 -0.082,-2.324 -0.082,-2.32 -0.082,-2.325 -0.079,-2.324 -0.082,-2.32 -0.082,-2.324 -0.078,-2.324"
             style="fill:none;stroke:#0eff00;stroke-width:4.16667;stroke-linecap:butt;stroke-linejoin:miter;stroke-miterlimit:1;stroke-dasharray:12.5, 12.5;stroke-dashoffset:0;stroke-opacity:1"
             id="path795" /></g></g></g></g></svg>
