<?xml version="1.0" encoding="UTF-8" standalone="no"?>
<svg
   xmlns:dc="http://purl.org/dc/elements/1.1/"
   xmlns:cc="http://creativecommons.org/ns#"
   xmlns:rdf="http://www.w3.org/1999/02/22-rdf-syntax-ns#"
   xmlns:svg="http://www.w3.org/2000/svg"
   xmlns="http://www.w3.org/2000/svg"
   version="1.1"
   id="svg10"
   xml:space="preserve"
   width="569.20642"
   height="224.97246"
   viewBox="0 0 569.20642 224.97245"><metadata
     id="metadata16"><rdf:RDF><cc:Work
         rdf:about=""><dc:format>image/svg+xml</dc:format><dc:type
           rdf:resource="http://purl.org/dc/dcmitype/StillImage" /><dc:title></dc:title></cc:Work></rdf:RDF></metadata><defs
     id="defs14"><clipPath
       clipPathUnits="userSpaceOnUse"
       id="clipPath28"><path
         d="M 300,375 H 2179.17 V 3133.33 H 300 Z"
         id="path26" /></clipPath></defs><g
     id="g18"
     transform="matrix(1.3333333,0,0,-1.3333333,-114.06183,666.19945)"><g
       id="g20"
       transform="scale(0.24)"><g
         id="g22"><g
           id="g24"
           clip-path="url(#clipPath28)"><path
             d="m 1733.83,1661.23 -12.56,-12.55"
             style="fill:none;stroke:#ffffff;stroke-width:4.16667;stroke-linecap:butt;stroke-linejoin:miter;stroke-miterlimit:10;stroke-dasharray:none;stroke-opacity:1"
             id="path30" /><path
             d="m 1765.23,1629.84 -31.4,31.39"
             style="fill:none;stroke:#ffffff;stroke-width:4.16667;stroke-linecap:butt;stroke-linejoin:miter;stroke-miterlimit:10;stroke-dasharray:none;stroke-opacity:1"
             id="path32" /><path
             d="m 1765.23,1629.84 -43.96,18.84"
             style="fill:none;stroke:#ffffff;stroke-width:4.16667;stroke-linecap:butt;stroke-linejoin:miter;stroke-miterlimit:10;stroke-dasharray:none;stroke-opacity:1"
             id="path34" /><path
             d="m 1727.55,1654.95 -37.68,25.12"
             style="fill:none;stroke:#ffffff;stroke-width:4.16667;stroke-linecap:butt;stroke-linejoin:miter;stroke-miterlimit:10;stroke-dasharray:none;stroke-opacity:1"
             id="path36" /><path
             d="m 1689.87,1654.95 v 100.48"
             style="fill:none;stroke:#ffffff;stroke-width:4.16667;stroke-linecap:butt;stroke-linejoin:miter;stroke-miterlimit:10;stroke-dasharray:none;stroke-opacity:1"
             id="path38" /><path
             d="m 1689.87,1730.32 75.36,50.23"
             style="fill:none;stroke:#ffffff;stroke-width:4.16667;stroke-linecap:butt;stroke-linejoin:miter;stroke-miterlimit:10;stroke-dasharray:none;stroke-opacity:1"
             id="path40" /><path
             d="m 1689.87,1705.2 h -25.12"
             style="fill:none;stroke:#ffffff;stroke-width:4.16667;stroke-linecap:butt;stroke-linejoin:miter;stroke-miterlimit:10;stroke-dasharray:none;stroke-opacity:1"
             id="path42" /><g
             id="g44"
             transform="scale(4.16667)"><text
               transform="matrix(1,0,0,-1,420.641,412.776)"
               style="font-variant:normal;font-weight:normal;font-size:8.28959px;font-family:Geneva;-inkscape-font-specification:Geneva;writing-mode:lr-tb;fill:#999999;fill-opacity:1;fill-rule:nonzero;stroke:none"
               id="text50"><tspan
                 x="0 6.0920281"
                 y="0"
                 id="tspan46">Q1</tspan><tspan
                 x="0 5.273849 10.672013 16.194548 21.717083 27.239649"
                 y="13.5647"
                 id="tspan48">BC549C</tspan></text></g><path
             d="m 396.191,1774.27 h 25.122"
             style="fill:none;stroke:#ffffff;stroke-width:4.16667;stroke-linecap:butt;stroke-linejoin:miter;stroke-miterlimit:10;stroke-dasharray:none;stroke-opacity:1"
             id="path52" /><path
             d="m 396.191,1711.48 h 25.122"
             style="fill:none;stroke:#ffffff;stroke-width:4.16667;stroke-linecap:butt;stroke-linejoin:miter;stroke-miterlimit:10;stroke-dasharray:none;stroke-opacity:1"
             id="path54" /><path
             d="m 408.754,1786.84 v -25.13"
             style="fill:none;stroke:#ffffff;stroke-width:4.16667;stroke-linecap:butt;stroke-linejoin:miter;stroke-miterlimit:10;stroke-dasharray:none;stroke-opacity:1"
             id="path56" /><path
             d="m 408.754,1680.07 v 12.57"
             style="fill:none;stroke:#ffffff;stroke-width:4.16667;stroke-linecap:butt;stroke-linejoin:miter;stroke-miterlimit:10;stroke-dasharray:none;stroke-opacity:1"
             id="path58" /><path
             d="m 408.754,1805.68 v -12.57"
             style="fill:none;stroke:#ffffff;stroke-width:4.16667;stroke-linecap:butt;stroke-linejoin:miter;stroke-miterlimit:10;stroke-dasharray:none;stroke-opacity:1"
             id="path60" /><path
             d="m 444.277,1778.4 c 19.621,-19.62 19.621,-51.43 0,-71.05 -19.617,-19.62 -51.429,-19.62 -71.05,0 -19.618,19.62 -19.618,51.43 0,71.05 19.621,19.62 51.433,19.62 71.05,0"
             style="fill:none;stroke:#ffffff;stroke-width:4.16667;stroke-linecap:butt;stroke-linejoin:miter;stroke-miterlimit:10;stroke-dasharray:none;stroke-opacity:1"
             id="path62" /><g
             id="g64"
             transform="scale(4.16667)"><text
               transform="matrix(1,0,0,-1,107.144,430.862)"
               style="font-variant:normal;font-weight:normal;font-size:8.28959px;font-family:Geneva;-inkscape-font-specification:Geneva;writing-mode:lr-tb;fill:#999999;fill-opacity:1;fill-rule:nonzero;stroke:none"
               id="text70"><tspan
                 x="0 6.0273595"
                 y="0"
                 id="tspan66">V2</tspan><tspan
                 x="0 5.5250111"
                 y="30.1434"
                 id="tspan68">12</tspan></text></g><path
             d="m 1765.23,1918.71 v 12.56"
             style="fill:none;stroke:#ffffff;stroke-width:4.16667;stroke-linecap:butt;stroke-linejoin:miter;stroke-miterlimit:10;stroke-dasharray:none;stroke-opacity:1"
             id="path72" /><path
             d="m 1791.92,1909.29 -26.69,9.42"
             style="fill:none;stroke:#ffffff;stroke-width:4.16667;stroke-linecap:butt;stroke-linejoin:miter;stroke-miterlimit:10;stroke-dasharray:none;stroke-opacity:1"
             id="path74" /><path
             d="m 1738.54,1893.59 53.38,15.7"
             style="fill:none;stroke:#ffffff;stroke-width:4.16667;stroke-linecap:butt;stroke-linejoin:miter;stroke-miterlimit:10;stroke-dasharray:none;stroke-opacity:1"
             id="path76" /><path
             d="m 1791.92,1873.18 -53.38,20.41"
             style="fill:none;stroke:#ffffff;stroke-width:4.16667;stroke-linecap:butt;stroke-linejoin:miter;stroke-miterlimit:10;stroke-dasharray:none;stroke-opacity:1"
             id="path78" /><path
             d="m 1740.11,1855.91 51.81,17.27"
             style="fill:none;stroke:#ffffff;stroke-width:4.16667;stroke-linecap:butt;stroke-linejoin:miter;stroke-miterlimit:10;stroke-dasharray:none;stroke-opacity:1"
             id="path80" /><path
             d="m 1765.23,1830.8 v 12.56"
             style="fill:none;stroke:#ffffff;stroke-width:4.16667;stroke-linecap:butt;stroke-linejoin:miter;stroke-miterlimit:10;stroke-dasharray:none;stroke-opacity:1"
             id="path82" /><path
             d="m 1765.23,1843.36 -25.12,12.55"
             style="fill:none;stroke:#ffffff;stroke-width:4.16667;stroke-linecap:butt;stroke-linejoin:miter;stroke-miterlimit:10;stroke-dasharray:none;stroke-opacity:1"
             id="path84" /><g
             id="g86"
             transform="scale(4.16667)"><text
               transform="matrix(1,0,0,-1,406.575,445.934)"
               style="font-variant:normal;font-weight:normal;font-size:8.28959px;font-family:Geneva;-inkscape-font-specification:Geneva;writing-mode:lr-tb;fill:#999999;fill-opacity:1;fill-rule:nonzero;stroke:none"
               id="text92"><tspan
                 x="0 5.0234914"
                 y="0"
                 id="tspan88">Rc</tspan><tspan
                 x="-7.0303102 -1.5052843 4.0197415"
                 y="-7.5356302"
                 id="tspan90">270</tspan></text></g><path
             d="m 1564.27,1818.23 v 12.57"
             style="fill:none;stroke:#ffffff;stroke-width:4.16667;stroke-linecap:butt;stroke-linejoin:miter;stroke-miterlimit:10;stroke-dasharray:none;stroke-opacity:1"
             id="path94" /><path
             d="m 1590.96,1808.82 -26.69,9.41"
             style="fill:none;stroke:#ffffff;stroke-width:4.16667;stroke-linecap:butt;stroke-linejoin:miter;stroke-miterlimit:10;stroke-dasharray:none;stroke-opacity:1"
             id="path96" /><path
             d="m 1537.58,1793.11 53.38,15.71"
             style="fill:none;stroke:#ffffff;stroke-width:4.16667;stroke-linecap:butt;stroke-linejoin:miter;stroke-miterlimit:10;stroke-dasharray:none;stroke-opacity:1"
             id="path98" /><path
             d="m 1590.96,1772.7 -53.38,20.41"
             style="fill:none;stroke:#ffffff;stroke-width:4.16667;stroke-linecap:butt;stroke-linejoin:miter;stroke-miterlimit:10;stroke-dasharray:none;stroke-opacity:1"
             id="path100" /><path
             d="m 1539.15,1755.43 51.81,17.27"
             style="fill:none;stroke:#ffffff;stroke-width:4.16667;stroke-linecap:butt;stroke-linejoin:miter;stroke-miterlimit:10;stroke-dasharray:none;stroke-opacity:1"
             id="path102" /><path
             d="m 1564.27,1730.32 v 12.56"
             style="fill:none;stroke:#ffffff;stroke-width:4.16667;stroke-linecap:butt;stroke-linejoin:miter;stroke-miterlimit:10;stroke-dasharray:none;stroke-opacity:1"
             id="path104" /><path
             d="m 1564.27,1742.88 -25.12,12.55"
             style="fill:none;stroke:#ffffff;stroke-width:4.16667;stroke-linecap:butt;stroke-linejoin:miter;stroke-miterlimit:10;stroke-dasharray:none;stroke-opacity:1"
             id="path106" /><g
             id="g108"
             transform="scale(4.16667)"><text
               transform="matrix(1,0,0,-1,352.285,421.819)"
               style="font-variant:normal;font-weight:normal;font-size:8.28959px;font-family:Geneva;-inkscape-font-specification:Geneva;writing-mode:lr-tb;fill:#999999;fill-opacity:1;fill-rule:nonzero;stroke:none"
               id="text114"><tspan
                 x="0 5.0234914 10.079321"
                 y="0"
                 id="tspan110">Rb1</tspan><tspan
                 x="-5.43188 0.093145669 5.6181712 10.082102"
                 y="-7.5356302"
                 id="tspan112">22k7</tspan></text></g><path
             d="m 1564.27,1667.52 v 12.55"
             style="fill:none;stroke:#ffffff;stroke-width:4.16667;stroke-linecap:butt;stroke-linejoin:miter;stroke-miterlimit:10;stroke-dasharray:none;stroke-opacity:1"
             id="path116" /><path
             d="m 1590.96,1658.09 -26.69,9.43"
             style="fill:none;stroke:#ffffff;stroke-width:4.16667;stroke-linecap:butt;stroke-linejoin:miter;stroke-miterlimit:10;stroke-dasharray:none;stroke-opacity:1"
             id="path118" /><path
             d="m 1537.58,1642.39 53.38,15.7"
             style="fill:none;stroke:#ffffff;stroke-width:4.16667;stroke-linecap:butt;stroke-linejoin:miter;stroke-miterlimit:10;stroke-dasharray:none;stroke-opacity:1"
             id="path120" /><path
             d="m 1590.96,1621.98 -53.38,20.41"
             style="fill:none;stroke:#ffffff;stroke-width:4.16667;stroke-linecap:butt;stroke-linejoin:miter;stroke-miterlimit:10;stroke-dasharray:none;stroke-opacity:1"
             id="path122" /><path
             d="m 1539.15,1604.71 51.81,17.27"
             style="fill:none;stroke:#ffffff;stroke-width:4.16667;stroke-linecap:butt;stroke-linejoin:miter;stroke-miterlimit:10;stroke-dasharray:none;stroke-opacity:1"
             id="path124" /><path
             d="m 1564.27,1579.59 v 12.57"
             style="fill:none;stroke:#ffffff;stroke-width:4.16667;stroke-linecap:butt;stroke-linejoin:miter;stroke-miterlimit:10;stroke-dasharray:none;stroke-opacity:1"
             id="path126" /><path
             d="m 1564.27,1592.16 -25.12,12.55"
             style="fill:none;stroke:#ffffff;stroke-width:4.16667;stroke-linecap:butt;stroke-linejoin:miter;stroke-miterlimit:10;stroke-dasharray:none;stroke-opacity:1"
             id="path128" /><g
             id="g130"
             transform="scale(4.16667)"><text
               transform="matrix(1,0,0,-1,352.285,385.646)"
               style="font-variant:normal;font-weight:normal;font-size:8.28959px;font-family:Geneva;-inkscape-font-specification:Geneva;writing-mode:lr-tb;fill:#999999;fill-opacity:1;fill-rule:nonzero;stroke:none"
               id="text136"><tspan
                 x="0 5.0234914 10.079321"
                 y="0"
                 id="tspan132">Rb2</tspan><tspan
                 x="0.092812501 5.6178384 10.081768"
                 y="-7.5356302"
                 id="tspan134">4k7</tspan></text></g><path
             d="m 1765.23,1567.04 v 12.55"
             style="fill:none;stroke:#ffffff;stroke-width:4.16667;stroke-linecap:butt;stroke-linejoin:miter;stroke-miterlimit:10;stroke-dasharray:none;stroke-opacity:1"
             id="path138" /><path
             d="m 1791.92,1557.62 -26.69,9.42"
             style="fill:none;stroke:#ffffff;stroke-width:4.16667;stroke-linecap:butt;stroke-linejoin:miter;stroke-miterlimit:10;stroke-dasharray:none;stroke-opacity:1"
             id="path140" /><path
             d="m 1738.54,1541.91 53.38,15.71"
             style="fill:none;stroke:#ffffff;stroke-width:4.16667;stroke-linecap:butt;stroke-linejoin:miter;stroke-miterlimit:10;stroke-dasharray:none;stroke-opacity:1"
             id="path142" /><path
             d="m 1791.92,1521.5 -53.38,20.41"
             style="fill:none;stroke:#ffffff;stroke-width:4.16667;stroke-linecap:butt;stroke-linejoin:miter;stroke-miterlimit:10;stroke-dasharray:none;stroke-opacity:1"
             id="path144" /><path
             d="m 1740.11,1504.23 51.81,17.27"
             style="fill:none;stroke:#ffffff;stroke-width:4.16667;stroke-linecap:butt;stroke-linejoin:miter;stroke-miterlimit:10;stroke-dasharray:none;stroke-opacity:1"
             id="path146" /><path
             d="m 1765.23,1479.12 v 12.56"
             style="fill:none;stroke:#ffffff;stroke-width:4.16667;stroke-linecap:butt;stroke-linejoin:miter;stroke-miterlimit:10;stroke-dasharray:none;stroke-opacity:1"
             id="path148" /><path
             d="m 1765.23,1491.68 -25.12,12.55"
             style="fill:none;stroke:#ffffff;stroke-width:4.16667;stroke-linecap:butt;stroke-linejoin:miter;stroke-miterlimit:10;stroke-dasharray:none;stroke-opacity:1"
             id="path150" /><g
             id="g152"
             transform="scale(4.16667)"><text
               transform="matrix(1,0,0,-1,406.324,361.531)"
               style="font-variant:normal;font-weight:normal;font-size:8.28959px;font-family:Geneva;-inkscape-font-specification:Geneva;writing-mode:lr-tb;fill:#999999;fill-opacity:1;fill-rule:nonzero;stroke:none"
               id="text158"><tspan
                 x="0 5.0234914"
                 y="0"
                 id="tspan154">Re</tspan><tspan
                 x="-1.25438 4.2706456"
                 y="-7.5356302"
                 id="tspan156">33</tspan></text></g><path
             d="m 386.773,1629.84 h 43.961 l -21.98,-21.98 z"
             style="fill:none;stroke:#ffffff;stroke-width:4.16667;stroke-linecap:butt;stroke-linejoin:miter;stroke-miterlimit:10;stroke-dasharray:none;stroke-opacity:1"
             id="path160" /><path
             d="m 385.836,1830.8 v 74.3 l 22.918,17.27 22.914,-17.27 v -74.3 z"
             style="fill:none;stroke:#ffffff;stroke-width:4.16667;stroke-linecap:butt;stroke-linejoin:miter;stroke-miterlimit:10;stroke-dasharray:none;stroke-opacity:1"
             id="path162" /><g
             id="g164"
             transform="scale(4.16667)"><text
               transform="matrix(0,1,1,0,102.246,440.521)"
               style="font-variant:normal;font-weight:normal;font-size:8.28959px;font-family:Geneva;-inkscape-font-specification:Geneva;writing-mode:lr-tb;fill:#999999;fill-opacity:1;fill-rule:nonzero;stroke:none"
               id="text168"><tspan
                 x="0 6.0265317 10.544358"
                 y="0"
                 id="tspan166">Vcc</tspan></text></g><path
             d="m 2041.55,2056.88 17.27,22.91 h 74.31 v -45.83 h -74.31 z"
             style="fill:none;stroke:#ffffff;stroke-width:4.16667;stroke-linecap:butt;stroke-linejoin:miter;stroke-miterlimit:10;stroke-dasharray:none;stroke-opacity:1"
             id="path170" /><g
             id="g172"
             transform="scale(4.16667)"><text
               transform="matrix(1,0,0,-1,494.117,491.15)"
               style="font-variant:normal;font-weight:normal;font-size:8.28959px;font-family:Geneva;-inkscape-font-specification:Geneva;writing-mode:lr-tb;fill:#999999;fill-opacity:1;fill-rule:nonzero;stroke:none"
               id="text176"><tspan
                 x="0 6.0273523 10.546"
                 y="0"
                 id="tspan174">Vcc</tspan></text></g><path
             d="m 1743.25,1403.75 h 43.96 l -21.98,-21.97 z"
             style="fill:none;stroke:#ffffff;stroke-width:4.16667;stroke-linecap:butt;stroke-linejoin:miter;stroke-miterlimit:10;stroke-dasharray:none;stroke-opacity:1"
             id="path178" /><path
             d="m 1815.47,1627.63 h 56.51 l 17.27,-22.92 -17.27,-22.91 h -56.51 z"
             style="fill:none;stroke:#ffffff;stroke-width:4.16667;stroke-linecap:butt;stroke-linejoin:miter;stroke-miterlimit:10;stroke-dasharray:none;stroke-opacity:1"
             id="path180" /><g
             id="g182"
             transform="scale(4.16667)"><text
               transform="matrix(1,0,0,-1,436.843,382.631)"
               style="font-variant:normal;font-weight:normal;font-size:8.28959px;font-family:Geneva;-inkscape-font-specification:Geneva;writing-mode:lr-tb;fill:#999999;fill-opacity:1;fill-rule:nonzero;stroke:none"
               id="text186"><tspan
                 x="0 6.0273814"
                 y="0"
                 id="tspan184">Ve</tspan></text></g><path
             d="m 1815.47,1828.59 h 55.47 l 17.27,-22.91 -17.27,-22.92 h -55.47 z"
             style="fill:none;stroke:#ffffff;stroke-width:4.16667;stroke-linecap:butt;stroke-linejoin:miter;stroke-miterlimit:10;stroke-dasharray:none;stroke-opacity:1"
             id="path188" /><g
             id="g190"
             transform="scale(4.16667)"><text
               transform="matrix(1,0,0,-1,436.843,430.862)"
               style="font-variant:normal;font-weight:normal;font-size:8.28959px;font-family:Geneva;-inkscape-font-specification:Geneva;writing-mode:lr-tb;fill:#999999;fill-opacity:1;fill-rule:nonzero;stroke:none"
               id="text194"><tspan
                 x="0 6.0273814"
                 y="0"
                 id="tspan192">Vc</tspan></text></g><path
             d="m 1616.71,1755.43 v 57.7 l 22.92,17.27 22.92,-17.27 v -57.7 z"
             style="fill:none;stroke:#ffffff;stroke-width:4.16667;stroke-linecap:butt;stroke-linejoin:miter;stroke-miterlimit:10;stroke-dasharray:none;stroke-opacity:1"
             id="path196" /><g
             id="g198"
             transform="scale(4.16667)"><text
               transform="matrix(0,1,1,0,397.657,422.435)"
               style="font-variant:normal;font-weight:normal;font-size:8.28959px;font-family:Geneva;-inkscape-font-specification:Geneva;writing-mode:lr-tb;fill:#999999;fill-opacity:1;fill-rule:nonzero;stroke:none"
               id="text202"><tspan
                 x="0 6.0265317"
                 y="0"
                 id="tspan200">Vb</tspan></text><text
               transform="matrix(1,0,0,-1,149.346,421.819)"
               style="font-variant:normal;font-weight:normal;font-size:8.28959px;font-family:Geneva;-inkscape-font-specification:Geneva;writing-mode:lr-tb;fill:#999999;fill-opacity:1;fill-rule:nonzero;stroke:none"
               id="text228"><tspan
                 x="0 2.5134156 6.1890144 9.3904514 13.97625 18.813227 21.57782 27.102831 29.867411 35.392422 40.917431 48.328327 51.092918 56.617931 62.142941"
                 y="0"
                 id="tspan204">.tran 0 60m 50m</tspan><tspan
                 x="0 2.5134156 9.9243088 14.696623 19.282421 23.504313 26.268906 28.216125 33.271954 38.796967 41.561546 46.523712 51.360691 56.351845 59.116436 61.124172 64.82798 69.851471 74.907303 80.432312 84.136101 86.900696 91.486496 95.162094 97.926689 103.45171"
                 y="8.2893801"
                 id="tspan206">.meas ib1 ﬁnd I(Rb1) at 5m</tspan><tspan
                 x="0 2.5134156 9.9243088 14.696623 19.282421 23.504313 26.268906 28.216125 33.271954 38.796967 41.561546 46.523712 51.360691 56.351845 59.116436 61.124172 64.82798 69.851471 74.907303 80.432312 84.136101 86.900696 91.486496 95.162094 97.926689 103.45171"
                 y="16.57876"
                 id="tspan208">.meas ib2 ﬁnd I(Rb2) at 5m</tspan><tspan
                 x="0 2.5134156 9.9243088 14.696623 19.282421 23.504313 26.268906 28.216125 31.417578 35.938713 38.703293 43.665462 48.502438 53.493591 56.258186 58.265923 61.969711 66.993202 71.514343 75.218147 77.982727 82.568527 86.244125 89.00872 94.53373"
                 y="24.86907"
                 id="tspan210">.meas irc ﬁnd I(Rc) at 5m</tspan><tspan
                 x="0 2.5134156 9.9243088 14.696623 19.282421 23.504313 26.268906 28.276642 31.478094 36.250408 39.014988 43.977142 48.814117 53.805286 56.569878 58.577614 62.281406 67.304901 72.077209 75.781006 78.545593 83.131393 86.806992 89.571571 95.096581"
                 y="33.158451"
                 id="tspan212">.meas Ire ﬁnd I(Re) at 5m</tspan><tspan
                 x="0 2.5134156 9.9243088 14.696623 19.282421 23.504313 26.268906 28.216125 33.271954 36.036549 40.998703 45.835678 50.826847 53.591427 55.599178 60.654991 64.358795 70.450813 75.975822 79.679611 82.444206 87.030006 90.705605 93.470184 98.995209"
                 y="41.44783"
                 id="tspan214">.meas ib ﬁnd Ib(Q1) at 5m</tspan><tspan
                 x="0 2.5134156 9.9243088 14.696623 19.282421 23.504313 26.268906 28.216125 32.737263 35.501858 40.464008 45.300987 50.292156 53.056732 55.064484 59.585621 63.289413 69.381439 74.906448 78.610245 81.374825 85.960625 89.636223 92.40081 97.925812"
                 y="49.737209"
                 id="tspan216">.meas ic ﬁnd Ic(Q1) at 5m</tspan><tspan
                 x="0 2.5134156 9.9243088 14.696623 19.282421 23.504313 26.268906 28.216125 32.988438 35.753033 40.715187 45.552162 50.543331 53.307911 55.315662 60.087975 63.791767 69.883781 75.408791 79.112579 81.877174 86.462975 90.138573 92.903168 98.428162"
                 y="58.027519"
                 id="tspan218">.meas ie ﬁnd Ie(Q1) at 5m</tspan><tspan
                 x="0 2.5134156 9.9243088 14.696623 19.282421 23.504313 26.268906 30.948381 36.004211 38.768791 43.730942 48.567921 53.55909 56.323666 62.351032 66.054825 72.082191 77.138023 80.841812 83.606392 88.192192 91.86779 94.632385 100.15741"
                 y="66.316902"
                 id="tspan220">.meas vb ﬁnd V(Vb) at 5m</tspan><tspan
                 x="0 2.5134156 9.9243088 14.696623 19.282421 23.504313 26.268906 30.948381 35.469517 38.234097 43.196251 48.033226 53.024395 55.78899 61.816341 65.520134 71.547501 76.068634 79.77243 82.537025 87.122818 90.798416 93.562996 99.08802"
                 y="74.606277"
                 id="tspan222">.meas vc ﬁnd V(Vc) at 5m</tspan><tspan
                 x="0 2.5134156 9.9243088 14.696623 19.282421 23.504313 26.268906 30.948381 35.720695 38.485271 43.447426 48.284405 53.27557 56.040165 62.067516 65.771309 71.798676 76.570992 80.27478 83.03936 87.625175 91.300774 94.065353 99.590378"
                 y="82.89566"
                 id="tspan224">.meas ve ﬁnd V(Ve) at 5m</tspan><tspan
                 x="-39.1875 -36.674099 -34.724384 -32.774673 -27.716368 -24.954279 -19.680445 -14.282252 -8.7597313 -3.2372108 2.28531 7.6835032 10.196918 14.417975 19.252462"
                 y="-60.287338"
                 id="tspan226">.lib BC549C.sub</tspan></text></g><g
             id="g230"
             transform="scale(4.16667)"><text
               transform="matrix(1,0,0,-1,209.633,485.121)"
               style="font-variant:normal;font-weight:normal;font-size:8.28959px;font-family:Geneva;-inkscape-font-specification:Geneva;writing-mode:lr-tb;fill:#0000ca;fill-opacity:1;fill-rule:nonzero;stroke:none"
               id="text242"><tspan
                 x="0 6.0273671 11.084852 13.84612 19.367805 22.129074 27.650774 30.163355 35.685043 41.206757 47.234138 52.756645 54.763546 59.821045 62.582298 68.104012 70.865273 76.386986 81.908669 84.421265 89.942978 94.776604"
                 y="0"
                 id="tspan232">Vb = 1.77V Ib = 73.4uA</tspan><tspan
                 x="0 6.0273671 10.548504 13.313083 18.838095 21.602673 27.127684 29.6411 35.166111 40.691109 46.718487 52.247646 54.255367 58.776535 61.5411 67.066124 69.830688 75.355713 80.880737 83.645302 91.056198 97.083549 99.848145 103.55192 106.31651 111.84151 114.6061 116.61382 119.81528 124.33644"
                 y="8.2893801"
                 id="tspan234">Vc = 3.71V Ic = 31 mA ( = Irc)</tspan><tspan
                 x="0 6.0273671 10.799681 13.56426 19.08927 21.853849 27.37886 29.892277 35.417286 40.942314 46.969696 52.498821 54.506573 59.278889 62.043453 67.568474 70.333038 75.85807 81.383095 84.147659 91.558548 97.585899 100.35049 104.05428 106.81884 112.34386 115.10846 117.11618 120.31763 125.08994"
                 y="16.57876"
                 id="tspan236">Ve = 1.02V Ie = 31 mA ( = Ire)</tspan><tspan
                 x="0 2.0077507 7.0660558 12.588576 15.35068 20.873201 23.635303 29.157825 34.680347 40.202881 45.037354"
                 y="24.868139"
                 id="tspan238">Ib1 = 450uA</tspan><tspan
                 x="0 2.0077507 7.0660558 12.588576 15.35068 20.873201 23.635303 29.157825 34.680347 40.202881 45.037354"
                 y="33.15752"
                 id="tspan240">Ib2 = 378uA</tspan></text></g><path
             d="M 1765.23,2056.88 H 1564.27"
             style="fill:none;stroke:#ffffff;stroke-width:4.16667;stroke-linecap:butt;stroke-linejoin:miter;stroke-miterlimit:10;stroke-dasharray:none;stroke-opacity:1"
             id="path244" /><path
             d="M 2041.55,2056.88 H 1765.23"
             style="fill:none;stroke:#ffffff;stroke-width:4.16667;stroke-linecap:butt;stroke-linejoin:miter;stroke-miterlimit:10;stroke-dasharray:none;stroke-opacity:1"
             id="path246" /><path
             d="m 1765.23,1931.27 v 125.61"
             style="fill:none;stroke:#ffffff;stroke-width:4.16667;stroke-linecap:butt;stroke-linejoin:miter;stroke-miterlimit:10;stroke-dasharray:none;stroke-opacity:1"
             id="path248" /><path
             d="m 1564.27,1830.8 v 226.08"
             style="fill:none;stroke:#ffffff;stroke-width:4.16667;stroke-linecap:butt;stroke-linejoin:miter;stroke-miterlimit:10;stroke-dasharray:none;stroke-opacity:1"
             id="path250" /><path
             d="m 408.754,1805.68 v 25.12"
             style="fill:none;stroke:#ffffff;stroke-width:4.16667;stroke-linecap:butt;stroke-linejoin:miter;stroke-miterlimit:10;stroke-dasharray:none;stroke-opacity:1"
             id="path252" /><path
             d="m 1765.23,1805.68 v 25.12"
             style="fill:none;stroke:#ffffff;stroke-width:4.16667;stroke-linecap:butt;stroke-linejoin:miter;stroke-miterlimit:10;stroke-dasharray:none;stroke-opacity:1"
             id="path254" /><path
             d="m 1815.47,1805.68 h -50.24"
             style="fill:none;stroke:#ffffff;stroke-width:4.16667;stroke-linecap:butt;stroke-linejoin:miter;stroke-miterlimit:10;stroke-dasharray:none;stroke-opacity:1"
             id="path256" /><path
             d="m 1765.23,1780.55 v 25.13"
             style="fill:none;stroke:#ffffff;stroke-width:4.16667;stroke-linecap:butt;stroke-linejoin:miter;stroke-miterlimit:10;stroke-dasharray:none;stroke-opacity:1"
             id="path258" /><path
             d="m 1564.27,1705.2 v 25.12"
             style="fill:none;stroke:#ffffff;stroke-width:4.16667;stroke-linecap:butt;stroke-linejoin:miter;stroke-miterlimit:10;stroke-dasharray:none;stroke-opacity:1"
             id="path260" /><path
             d="m 1639.63,1705.2 v 50.23"
             style="fill:none;stroke:#ffffff;stroke-width:4.16667;stroke-linecap:butt;stroke-linejoin:miter;stroke-miterlimit:10;stroke-dasharray:none;stroke-opacity:1"
             id="path262" /><path
             d="m 1639.63,1705.2 h -75.36"
             style="fill:none;stroke:#ffffff;stroke-width:4.16667;stroke-linecap:butt;stroke-linejoin:miter;stroke-miterlimit:10;stroke-dasharray:none;stroke-opacity:1"
             id="path264" /><path
             d="m 1664.75,1705.2 h -25.12"
             style="fill:none;stroke:#ffffff;stroke-width:4.16667;stroke-linecap:butt;stroke-linejoin:miter;stroke-miterlimit:10;stroke-dasharray:none;stroke-opacity:1"
             id="path266" /><path
             d="m 1564.27,1680.07 v 25.13"
             style="fill:none;stroke:#ffffff;stroke-width:4.16667;stroke-linecap:butt;stroke-linejoin:miter;stroke-miterlimit:10;stroke-dasharray:none;stroke-opacity:1"
             id="path268" /><path
             d="m 408.754,1629.84 v 50.23"
             style="fill:none;stroke:#ffffff;stroke-width:4.16667;stroke-linecap:butt;stroke-linejoin:miter;stroke-miterlimit:10;stroke-dasharray:none;stroke-opacity:1"
             id="path270" /><path
             d="m 1765.23,1604.71 v 25.13"
             style="fill:none;stroke:#ffffff;stroke-width:4.16667;stroke-linecap:butt;stroke-linejoin:miter;stroke-miterlimit:10;stroke-dasharray:none;stroke-opacity:1"
             id="path272" /><path
             d="m 1815.47,1604.71 h -50.24"
             style="fill:none;stroke:#ffffff;stroke-width:4.16667;stroke-linecap:butt;stroke-linejoin:miter;stroke-miterlimit:10;stroke-dasharray:none;stroke-opacity:1"
             id="path274" /><path
             d="m 1765.23,1579.59 v 25.12"
             style="fill:none;stroke:#ffffff;stroke-width:4.16667;stroke-linecap:butt;stroke-linejoin:miter;stroke-miterlimit:10;stroke-dasharray:none;stroke-opacity:1"
             id="path276" /><path
             d="m 1564.27,1454 v 125.59"
             style="fill:none;stroke:#ffffff;stroke-width:4.16667;stroke-linecap:butt;stroke-linejoin:miter;stroke-miterlimit:10;stroke-dasharray:none;stroke-opacity:1"
             id="path278" /><path
             d="m 1765.23,1454 v 25.12"
             style="fill:none;stroke:#ffffff;stroke-width:4.16667;stroke-linecap:butt;stroke-linejoin:miter;stroke-miterlimit:10;stroke-dasharray:none;stroke-opacity:1"
             id="path280" /><path
             d="M 1765.23,1454 H 1564.27"
             style="fill:none;stroke:#ffffff;stroke-width:4.16667;stroke-linecap:butt;stroke-linejoin:miter;stroke-miterlimit:10;stroke-dasharray:none;stroke-opacity:1"
             id="path282" /><path
             d="M 1765.23,1403.75 V 1454"
             style="fill:none;stroke:#ffffff;stroke-width:4.16667;stroke-linecap:butt;stroke-linejoin:miter;stroke-miterlimit:10;stroke-dasharray:none;stroke-opacity:1"
             id="path284" /><path
             d="m 1556.42,1697.34 h 15.6992 v 15.7031 H 1556.42 Z"
             style="fill:#ffffff;fill-opacity:1;fill-rule:nonzero;stroke:none"
             id="path286" /><path
             d="m 1631.78,1697.34 h 15.6992 v 15.7031 H 1631.78 Z"
             style="fill:#ffffff;fill-opacity:1;fill-rule:nonzero;stroke:none"
             id="path288" /><path
             d="m 1757.38,2049.02 h 15.7031 v 15.7031 H 1757.38 Z"
             style="fill:#ffffff;fill-opacity:1;fill-rule:nonzero;stroke:none"
             id="path290" /><path
             d="m 1757.38,1797.82 h 15.7031 v 15.6992 H 1757.38 Z"
             style="fill:#ffffff;fill-opacity:1;fill-rule:nonzero;stroke:none"
             id="path292" /><path
             d="m 1757.38,1596.87 h 15.7031 v 15.6992 H 1757.38 Z"
             style="fill:#ffffff;fill-opacity:1;fill-rule:nonzero;stroke:none"
             id="path294" /><path
             d="m 1757.38,1446.14 h 15.7031 v 15.6992 H 1757.38 Z"
             style="fill:#ffffff;fill-opacity:1;fill-rule:nonzero;stroke:none"
             id="path296" /></g></g></g></g></svg>
