<?xml version="1.0" encoding="UTF-8" standalone="no"?>
<svg
   xmlns:dc="http://purl.org/dc/elements/1.1/"
   xmlns:cc="http://creativecommons.org/ns#"
   xmlns:rdf="http://www.w3.org/1999/02/22-rdf-syntax-ns#"
   xmlns:svg="http://www.w3.org/2000/svg"
   xmlns="http://www.w3.org/2000/svg"
   version="1.1"
   id="svg710"
   xml:space="preserve"
   width="619.03339"
   height="361.33768"
   viewBox="0 0 928.55006 542.00654"><metadata
     id="metadata716"><rdf:RDF><cc:Work
         rdf:about=""><dc:format>image/svg+xml</dc:format><dc:type
           rdf:resource="http://purl.org/dc/dcmitype/StillImage" /><dc:title></dc:title></cc:Work></rdf:RDF></metadata><defs
     id="defs714"><clipPath
       clipPathUnits="userSpaceOnUse"
       id="clipPath728"><path
         d="m 375,299.582 h 1729.17 v 2908.34 H 375 Z"
         id="path726" /></clipPath><clipPath
       clipPathUnits="userSpaceOnUse"
       id="clipPath948"><path
         d="m 500,353.75 h 1520.83 v 2675 H 500 Z"
         id="path946" /></clipPath><clipPath
       clipPathUnits="userSpaceOnUse"
       id="clipPath978"><path
         d="m 375,299.582 h 1729.17 v 2908.34 H 375 Z"
         id="path976" /></clipPath><clipPath
       clipPathUnits="userSpaceOnUse"
       id="clipPath992"><path
         d="m 500,353.75 h 1520.83 v 2675 H 500 Z"
         id="path990" /></clipPath><clipPath
       clipPathUnits="userSpaceOnUse"
       id="clipPath1022"><path
         d="m 375,299.582 h 1729.17 v 2908.34 H 375 Z"
         id="path1020" /></clipPath><clipPath
       clipPathUnits="userSpaceOnUse"
       id="clipPath1036"><path
         d="m 500,353.75 h 1520.83 v 2675 H 500 Z"
         id="path1034" /></clipPath></defs><g
     id="g718"
     transform="matrix(0,-1.3333333,-1.3333333,0,1025.6056,667.07604)"><g
       id="g720"
       transform="scale(0.24)"><g
         id="g722"><g
           id="g724"
           clip-path="url(#clipPath728)"><path
             d="M 500,3025.77 H 458.332"
             style="fill:none;stroke:#afafaf;stroke-width:4.16667;stroke-linecap:butt;stroke-linejoin:miter;stroke-miterlimit:10;stroke-dasharray:none;stroke-opacity:1"
             id="path730" /><g
             id="g732"
             transform="scale(4.16667)"><text
               transform="matrix(0,-1,-1,0,94.0003,734.614)"
               style="font-variant:normal;font-weight:normal;font-size:14px;font-family:Menlo;-inkscape-font-specification:Menlo-Regular;writing-mode:lr-tb;fill:#afafaf;fill-opacity:1;fill-rule:nonzero;stroke:none"
               id="text736"><tspan
                 x="0 8.4274139"
                 y="0"
                 id="tspan734">0V</tspan></text></g><path
             d="M 500,2803.15 H 458.332"
             style="fill:none;stroke:#afafaf;stroke-width:4.16667;stroke-linecap:butt;stroke-linejoin:miter;stroke-miterlimit:10;stroke-dasharray:none;stroke-opacity:1"
             id="path738" /><g
             id="g740"
             transform="scale(4.16667)"><text
               transform="matrix(0,-1,-1,0,94.0003,681.186)"
               style="font-variant:normal;font-weight:normal;font-size:14px;font-family:Menlo;-inkscape-font-specification:Menlo-Regular;writing-mode:lr-tb;fill:#afafaf;fill-opacity:1;fill-rule:nonzero;stroke:none"
               id="text744"><tspan
                 x="0 8.4280005"
                 y="0"
                 id="tspan742">1V</tspan></text></g><path
             d="M 500,2580.54 H 458.332"
             style="fill:none;stroke:#afafaf;stroke-width:4.16667;stroke-linecap:butt;stroke-linejoin:miter;stroke-miterlimit:10;stroke-dasharray:none;stroke-opacity:1"
             id="path746" /><g
             id="g748"
             transform="scale(4.16667)"><text
               transform="matrix(0,-1,-1,0,94.0003,627.757)"
               style="font-variant:normal;font-weight:normal;font-size:14px;font-family:Menlo;-inkscape-font-specification:Menlo-Regular;writing-mode:lr-tb;fill:#afafaf;fill-opacity:1;fill-rule:nonzero;stroke:none"
               id="text752"><tspan
                 x="0 8.4274139"
                 y="0"
                 id="tspan750">2V</tspan></text></g><path
             d="M 500,2357.91 H 458.332"
             style="fill:none;stroke:#afafaf;stroke-width:4.16667;stroke-linecap:butt;stroke-linejoin:miter;stroke-miterlimit:10;stroke-dasharray:none;stroke-opacity:1"
             id="path754" /><g
             id="g756"
             transform="scale(4.16667)"><text
               transform="matrix(0,-1,-1,0,94.0003,574.328)"
               style="font-variant:normal;font-weight:normal;font-size:14px;font-family:Menlo;-inkscape-font-specification:Menlo-Regular;writing-mode:lr-tb;fill:#afafaf;fill-opacity:1;fill-rule:nonzero;stroke:none"
               id="text760"><tspan
                 x="0 8.4280005"
                 y="0"
                 id="tspan758">3V</tspan></text></g><path
             d="M 500,2135.3 H 458.332"
             style="fill:none;stroke:#afafaf;stroke-width:4.16667;stroke-linecap:butt;stroke-linejoin:miter;stroke-miterlimit:10;stroke-dasharray:none;stroke-opacity:1"
             id="path762" /><g
             id="g764"
             transform="scale(4.16667)"><text
               transform="matrix(0,-1,-1,0,94.0003,520.9)"
               style="font-variant:normal;font-weight:normal;font-size:14px;font-family:Menlo;-inkscape-font-specification:Menlo-Regular;writing-mode:lr-tb;fill:#afafaf;fill-opacity:1;fill-rule:nonzero;stroke:none"
               id="text768"><tspan
                 x="0 8.4280005"
                 y="0"
                 id="tspan766">4V</tspan></text></g><path
             d="M 500,1912.68 H 458.332"
             style="fill:none;stroke:#afafaf;stroke-width:4.16667;stroke-linecap:butt;stroke-linejoin:miter;stroke-miterlimit:10;stroke-dasharray:none;stroke-opacity:1"
             id="path770" /><g
             id="g772"
             transform="scale(4.16667)"><text
               transform="matrix(0,-1,-1,0,94.0003,467.471)"
               style="font-variant:normal;font-weight:normal;font-size:14px;font-family:Menlo;-inkscape-font-specification:Menlo-Regular;writing-mode:lr-tb;fill:#afafaf;fill-opacity:1;fill-rule:nonzero;stroke:none"
               id="text776"><tspan
                 x="0 8.4280005"
                 y="0"
                 id="tspan774">5V</tspan></text></g><path
             d="M 500,1690.06 H 458.332"
             style="fill:none;stroke:#afafaf;stroke-width:4.16667;stroke-linecap:butt;stroke-linejoin:miter;stroke-miterlimit:10;stroke-dasharray:none;stroke-opacity:1"
             id="path778" /><g
             id="g780"
             transform="scale(4.16667)"><text
               transform="matrix(0,-1,-1,0,94.0003,414.043)"
               style="font-variant:normal;font-weight:normal;font-size:14px;font-family:Menlo;-inkscape-font-specification:Menlo-Regular;writing-mode:lr-tb;fill:#afafaf;fill-opacity:1;fill-rule:nonzero;stroke:none"
               id="text784"><tspan
                 x="0 8.4280005"
                 y="0"
                 id="tspan782">6V</tspan></text></g><path
             d="M 500,1467.44 H 458.332"
             style="fill:none;stroke:#afafaf;stroke-width:4.16667;stroke-linecap:butt;stroke-linejoin:miter;stroke-miterlimit:10;stroke-dasharray:none;stroke-opacity:1"
             id="path786" /><g
             id="g788"
             transform="scale(4.16667)"><text
               transform="matrix(0,-1,-1,0,94.0003,360.614)"
               style="font-variant:normal;font-weight:normal;font-size:14px;font-family:Menlo;-inkscape-font-specification:Menlo-Regular;writing-mode:lr-tb;fill:#afafaf;fill-opacity:1;fill-rule:nonzero;stroke:none"
               id="text792"><tspan
                 x="0 8.4274139"
                 y="0"
                 id="tspan790">7V</tspan></text></g><path
             d="M 500,1244.82 H 458.332"
             style="fill:none;stroke:#afafaf;stroke-width:4.16667;stroke-linecap:butt;stroke-linejoin:miter;stroke-miterlimit:10;stroke-dasharray:none;stroke-opacity:1"
             id="path794" /><g
             id="g796"
             transform="scale(4.16667)"><text
               transform="matrix(0,-1,-1,0,94.0003,307.186)"
               style="font-variant:normal;font-weight:normal;font-size:14px;font-family:Menlo;-inkscape-font-specification:Menlo-Regular;writing-mode:lr-tb;fill:#afafaf;fill-opacity:1;fill-rule:nonzero;stroke:none"
               id="text800"><tspan
                 x="0 8.4280005"
                 y="0"
                 id="tspan798">8V</tspan></text></g><path
             d="M 500,1022.2 H 458.332"
             style="fill:none;stroke:#afafaf;stroke-width:4.16667;stroke-linecap:butt;stroke-linejoin:miter;stroke-miterlimit:10;stroke-dasharray:none;stroke-opacity:1"
             id="path802" /><g
             id="g804"
             transform="scale(4.16667)"><text
               transform="matrix(0,-1,-1,0,94.0003,253.758)"
               style="font-variant:normal;font-weight:normal;font-size:14px;font-family:Menlo;-inkscape-font-specification:Menlo-Regular;writing-mode:lr-tb;fill:#afafaf;fill-opacity:1;fill-rule:nonzero;stroke:none"
               id="text808"><tspan
                 x="0 8.4280005"
                 y="0"
                 id="tspan806">9V</tspan></text></g><path
             d="M 500,799.586 H 458.332"
             style="fill:none;stroke:#afafaf;stroke-width:4.16667;stroke-linecap:butt;stroke-linejoin:miter;stroke-miterlimit:10;stroke-dasharray:none;stroke-opacity:1"
             id="path810" /><g
             id="g812"
             transform="scale(4.16667)"><text
               transform="matrix(0,-1,-1,0,94.0003,204.543)"
               style="font-variant:normal;font-weight:normal;font-size:14px;font-family:Menlo;-inkscape-font-specification:Menlo-Regular;writing-mode:lr-tb;fill:#afafaf;fill-opacity:1;fill-rule:nonzero;stroke:none"
               id="text816"><tspan
                 x="0 8.4274139 16.855413"
                 y="0"
                 id="tspan814">10V</tspan></text></g><path
             d="M 500,576.965 H 458.332"
             style="fill:none;stroke:#afafaf;stroke-width:4.16667;stroke-linecap:butt;stroke-linejoin:miter;stroke-miterlimit:10;stroke-dasharray:none;stroke-opacity:1"
             id="path818" /><g
             id="g820"
             transform="scale(4.16667)"><text
               transform="matrix(0,-1,-1,0,94.0003,151.115)"
               style="font-variant:normal;font-weight:normal;font-size:14px;font-family:Menlo;-inkscape-font-specification:Menlo-Regular;writing-mode:lr-tb;fill:#afafaf;fill-opacity:1;fill-rule:nonzero;stroke:none"
               id="text824"><tspan
                 x="0 8.4280005 16.855413"
                 y="0"
                 id="tspan822">11V</tspan></text></g><path
             d="M 500,354.348 H 458.332"
             style="fill:none;stroke:#afafaf;stroke-width:4.16667;stroke-linecap:butt;stroke-linejoin:miter;stroke-miterlimit:10;stroke-dasharray:none;stroke-opacity:1"
             id="path826" /><g
             id="g828"
             transform="scale(4.16667)"><text
               transform="matrix(0,-1,-1,0,94.0003,97.6866)"
               style="font-variant:normal;font-weight:normal;font-size:14px;font-family:Menlo;-inkscape-font-specification:Menlo-Regular;writing-mode:lr-tb;fill:#afafaf;fill-opacity:1;fill-rule:nonzero;stroke:none"
               id="text834"><tspan
                 x="0 8.4280005 16.856001"
                 y="0"
                 id="tspan830">12V</tspan><tspan
                 x="-646.92798 -655.35614 -663.78522 -672.21423"
                 y="-20"
                 id="tspan832">Am5-</tspan></text></g><path
             d="m 500,3025.77 v 41.67"
             style="fill:none;stroke:#afafaf;stroke-width:4.16667;stroke-linecap:butt;stroke-linejoin:miter;stroke-miterlimit:10;stroke-dasharray:none;stroke-opacity:1"
             id="path836" /><g
             id="g838"
             transform="scale(4.16667)"><text
               transform="matrix(0,-1,-1,0,144.416,744.614)"
               style="font-variant:normal;font-weight:normal;font-size:14px;font-family:Menlo;-inkscape-font-specification:Menlo-Regular;writing-mode:lr-tb;fill:#afafaf;fill-opacity:1;fill-rule:nonzero;stroke:none"
               id="text842"><tspan
                 x="0 -8.4281301"
                 y="0"
                 id="tspan840">A0</tspan></text></g><path
             d="m 626.734,3025.77 v 41.67"
             style="fill:none;stroke:#afafaf;stroke-width:4.16667;stroke-linecap:butt;stroke-linejoin:miter;stroke-miterlimit:10;stroke-dasharray:none;stroke-opacity:1"
             id="path844" /><g
             id="g846"
             transform="scale(4.16667)"><text
               transform="matrix(0,-1,-1,0,174.833,744.614)"
               style="font-variant:normal;font-weight:normal;font-size:14px;font-family:Menlo;-inkscape-font-specification:Menlo-Regular;writing-mode:lr-tb;fill:#afafaf;fill-opacity:1;fill-rule:nonzero;stroke:none"
               id="text850"><tspan
                 x="0 -8.4281301 -16.857189"
                 y="0"
                 id="tspan848">Am5</tspan></text></g><path
             d="m 753.473,3025.77 v 41.67"
             style="fill:none;stroke:#afafaf;stroke-width:4.16667;stroke-linecap:butt;stroke-linejoin:miter;stroke-miterlimit:10;stroke-dasharray:none;stroke-opacity:1"
             id="path852" /><g
             id="g854"
             transform="scale(4.16667)"><text
               transform="matrix(0,-1,-1,0,205.25,744.614)"
               style="font-variant:normal;font-weight:normal;font-size:14px;font-family:Menlo;-inkscape-font-specification:Menlo-Regular;writing-mode:lr-tb;fill:#afafaf;fill-opacity:1;fill-rule:nonzero;stroke:none"
               id="text858"><tspan
                 x="0 -8.4281301 -16.857189 -25.286249"
                 y="0"
                 id="tspan856">Am01</tspan></text></g><path
             d="m 880.207,3025.77 v 41.67"
             style="fill:none;stroke:#afafaf;stroke-width:4.16667;stroke-linecap:butt;stroke-linejoin:miter;stroke-miterlimit:10;stroke-dasharray:none;stroke-opacity:1"
             id="path860" /><g
             id="g862"
             transform="scale(4.16667)"><text
               transform="matrix(0,-1,-1,0,235.667,744.614)"
               style="font-variant:normal;font-weight:normal;font-size:14px;font-family:Menlo;-inkscape-font-specification:Menlo-Regular;writing-mode:lr-tb;fill:#afafaf;fill-opacity:1;fill-rule:nonzero;stroke:none"
               id="text866"><tspan
                 x="0 -8.4281301 -16.857189 -25.286249"
                 y="0"
                 id="tspan864">Am51</tspan></text></g><path
             d="m 1006.95,3025.77 v 41.67"
             style="fill:none;stroke:#afafaf;stroke-width:4.16667;stroke-linecap:butt;stroke-linejoin:miter;stroke-miterlimit:10;stroke-dasharray:none;stroke-opacity:1"
             id="path868" /><g
             id="g870"
             transform="scale(4.16667)"><text
               transform="matrix(0,-1,-1,0,266.083,744.614)"
               style="font-variant:normal;font-weight:normal;font-size:14px;font-family:Menlo;-inkscape-font-specification:Menlo-Regular;writing-mode:lr-tb;fill:#afafaf;fill-opacity:1;fill-rule:nonzero;stroke:none"
               id="text874"><tspan
                 x="0 -8.4281301 -16.857189 -25.286249"
                 y="0"
                 id="tspan872">Am02</tspan></text></g><path
             d="m 1133.68,3025.77 v 41.67"
             style="fill:none;stroke:#afafaf;stroke-width:4.16667;stroke-linecap:butt;stroke-linejoin:miter;stroke-miterlimit:10;stroke-dasharray:none;stroke-opacity:1"
             id="path876" /><g
             id="g878"
             transform="scale(4.16667)"><text
               transform="matrix(0,-1,-1,0,296.5,744.614)"
               style="font-variant:normal;font-weight:normal;font-size:14px;font-family:Menlo;-inkscape-font-specification:Menlo-Regular;writing-mode:lr-tb;fill:#afafaf;fill-opacity:1;fill-rule:nonzero;stroke:none"
               id="text882"><tspan
                 x="0 -8.4281301 -16.857189 -25.286249"
                 y="0"
                 id="tspan880">Am52</tspan></text></g><path
             d="m 1260.42,3025.77 v 41.67"
             style="fill:none;stroke:#afafaf;stroke-width:4.16667;stroke-linecap:butt;stroke-linejoin:miter;stroke-miterlimit:10;stroke-dasharray:none;stroke-opacity:1"
             id="path884" /><g
             id="g886"
             transform="scale(4.16667)"><text
               transform="matrix(0,-1,-1,0,326.917,744.614)"
               style="font-variant:normal;font-weight:normal;font-size:14px;font-family:Menlo;-inkscape-font-specification:Menlo-Regular;writing-mode:lr-tb;fill:#afafaf;fill-opacity:1;fill-rule:nonzero;stroke:none"
               id="text890"><tspan
                 x="0 -8.4281301 -16.857189 -25.286249"
                 y="0"
                 id="tspan888">Am03</tspan></text></g><path
             d="m 1387.15,3025.77 v 41.67"
             style="fill:none;stroke:#afafaf;stroke-width:4.16667;stroke-linecap:butt;stroke-linejoin:miter;stroke-miterlimit:10;stroke-dasharray:none;stroke-opacity:1"
             id="path892" /><g
             id="g894"
             transform="scale(4.16667)"><text
               transform="matrix(0,-1,-1,0,357.334,744.614)"
               style="font-variant:normal;font-weight:normal;font-size:14px;font-family:Menlo;-inkscape-font-specification:Menlo-Regular;writing-mode:lr-tb;fill:#afafaf;fill-opacity:1;fill-rule:nonzero;stroke:none"
               id="text898"><tspan
                 x="0 -8.4281301 -16.857189 -25.286249"
                 y="0"
                 id="tspan896">Am53</tspan></text></g><path
             d="m 1513.89,3025.77 v 41.67"
             style="fill:none;stroke:#afafaf;stroke-width:4.16667;stroke-linecap:butt;stroke-linejoin:miter;stroke-miterlimit:10;stroke-dasharray:none;stroke-opacity:1"
             id="path900" /><g
             id="g902"
             transform="scale(4.16667)"><text
               transform="matrix(0,-1,-1,0,387.75,744.614)"
               style="font-variant:normal;font-weight:normal;font-size:14px;font-family:Menlo;-inkscape-font-specification:Menlo-Regular;writing-mode:lr-tb;fill:#afafaf;fill-opacity:1;fill-rule:nonzero;stroke:none"
               id="text906"><tspan
                 x="0 -8.4281301 -16.857189 -25.286249"
                 y="0"
                 id="tspan904">Am04</tspan></text></g><path
             d="m 1640.63,3025.77 v 41.67"
             style="fill:none;stroke:#afafaf;stroke-width:4.16667;stroke-linecap:butt;stroke-linejoin:miter;stroke-miterlimit:10;stroke-dasharray:none;stroke-opacity:1"
             id="path908" /><g
             id="g910"
             transform="scale(4.16667)"><text
               transform="matrix(0,-1,-1,0,418.166,744.614)"
               style="font-variant:normal;font-weight:normal;font-size:14px;font-family:Menlo;-inkscape-font-specification:Menlo-Regular;writing-mode:lr-tb;fill:#afafaf;fill-opacity:1;fill-rule:nonzero;stroke:none"
               id="text914"><tspan
                 x="0 -8.4281301 -16.857189 -25.286249"
                 y="0"
                 id="tspan912">Am54</tspan></text></g><path
             d="m 1767.36,3025.77 v 41.67"
             style="fill:none;stroke:#afafaf;stroke-width:4.16667;stroke-linecap:butt;stroke-linejoin:miter;stroke-miterlimit:10;stroke-dasharray:none;stroke-opacity:1"
             id="path916" /><g
             id="g918"
             transform="scale(4.16667)"><text
               transform="matrix(0,-1,-1,0,448.583,744.614)"
               style="font-variant:normal;font-weight:normal;font-size:14px;font-family:Menlo;-inkscape-font-specification:Menlo-Regular;writing-mode:lr-tb;fill:#afafaf;fill-opacity:1;fill-rule:nonzero;stroke:none"
               id="text922"><tspan
                 x="0 -8.4281301 -16.857189 -25.286249"
                 y="0"
                 id="tspan920">Am05</tspan></text></g><path
             d="m 1894.1,3025.77 v 41.67"
             style="fill:none;stroke:#afafaf;stroke-width:4.16667;stroke-linecap:butt;stroke-linejoin:miter;stroke-miterlimit:10;stroke-dasharray:none;stroke-opacity:1"
             id="path924" /><g
             id="g926"
             transform="scale(4.16667)"><text
               transform="matrix(0,-1,-1,0,479,744.614)"
               style="font-variant:normal;font-weight:normal;font-size:14px;font-family:Menlo;-inkscape-font-specification:Menlo-Regular;writing-mode:lr-tb;fill:#afafaf;fill-opacity:1;fill-rule:nonzero;stroke:none"
               id="text930"><tspan
                 x="0 -8.4281301 -16.857189 -25.286249"
                 y="0"
                 id="tspan928">Am55</tspan></text></g><path
             d="m 2020.83,3025.77 v 41.67"
             style="fill:none;stroke:#afafaf;stroke-width:4.16667;stroke-linecap:butt;stroke-linejoin:miter;stroke-miterlimit:10;stroke-dasharray:none;stroke-opacity:1"
             id="path932" /><path
             d="m 500,354.348 h 1520.83 v 2671.43 H 500 Z"
             style="fill:none;stroke:#afafaf;stroke-width:4.16667;stroke-linecap:butt;stroke-linejoin:miter;stroke-miterlimit:10;stroke-dasharray:none;stroke-opacity:1"
             id="path934" /><g
             id="g936"
             transform="scale(4.16667)"><text
               transform="matrix(0,-1,-1,0,489,644.971)"
               style="font-variant:normal;font-weight:normal;font-size:14px;font-family:Menlo;-inkscape-font-specification:Menlo-Regular;writing-mode:lr-tb;fill:#0eff00;fill-opacity:1;fill-rule:nonzero;stroke:none"
               id="text940"><tspan
                 x="0 8.4274139 16.855413 25.282827 33.710827 42.138828"
                 y="0"
                 id="tspan938">Ic(Q1)</tspan></text></g></g></g><g
         id="g942"><g
           id="g944"
           clip-path="url(#clipPath948)"><path
             d="m 626.734,3025.77 v 0 -2671.422"
             style="fill:none;stroke:#0eff00;stroke-width:4.16667;stroke-linecap:butt;stroke-linejoin:miter;stroke-miterlimit:1;stroke-dasharray:none;stroke-opacity:1"
             id="path950" /><path
             d="m 626.484,3025.77 v 0 l 8.012,-22.26 70.723,-22.26 33.191,-22.27 3.43,-22.26 0.711,-22.26 0.504,-22.26 0.492,-22.26 0.488,-22.26 0.488,-22.27 0.489,-22.26 0.492,-22.26 0.488,-22.26 0.488,-22.26 0.489,-22.26 0.488,-22.27 0.488,-22.26 0.493,-22.26 0.488,-22.26 0.488,-22.26 0.488,-22.26 0.489,-22.27 0.492,-22.26 0.488,-22.26 0.488,-22.26 0.489,-22.26 0.488,-22.27 0.492,-22.26 0.488,-22.26 0.489,-22.26 0.488,-22.27 0.488,-22.26 0.492,-22.26 0.489,-22.26 0.488,-22.26 0.488,-22.26 0.489,-22.27 0.492,-22.26 0.488,-22.26 0.488,-22.26 0.489,-22.26 0.488,-22.26 0.492,-22.27 0.488,-22.26 0.489,-22.26 0.488,-22.26 0.488,-22.26 0.492,-22.27 0.489,-22.26 0.488,-22.26 0.488,-22.26 0.489,-22.26 0.492,-22.27 0.488,-22.26 0.488,-22.26 0.489,-22.26 0.488,-22.26 0.492,-22.27 0.488,-22.26 0.489,-22.26 0.488,-22.26 0.488,-22.26 0.488,-22.26 0.493,-22.27 0.488,-22.26 0.488,-22.26 0.488,-22.26 0.489,-22.26 0.492,-22.27 0.488,-22.26 0.488,-22.26 0.489,-22.26 0.488,-22.26 0.492,-22.26 0.489,-22.27 0.488,-22.26 0.488,-22.26 0.488,-22.26 0.493,-22.27 0.488,-22.26 0.488,-22.26 0.488,-22.26 0.489,-22.26 0.492,-22.26 0.488,-22.27 0.488,-22.26 0.489,-22.26 0.488,-22.26 0.492,-22.26 0.488,-22.27 0.489,-22.26 0.488,-22.259 0.488,-22.261 0.492,-22.262 0.489,-22.262 0.488,-22.261 0.488,-22.262 0.489,-22.262 0.492,-22.262 0.488,-22.265 0.488,-22.258 0.489,-22.266 0.488,-22.261 0.492,-22.262 0.488,-22.262 0.489,-22.262 0.488,-22.261 0.488,-22.262 0.492,-22.262 0.489,-22.261 0.488,-22.262 0.488,-22.262 0.489,-22.262 0.488,-22.261 0.492,-22.262 0.488,-22.262 0.489,-22.261 0.488,-22.262 0.488,-22.262 0.492,-22.262 0.489,-22.261"
             style="fill:none;stroke:#0eff00;stroke-width:4.16667;stroke-linecap:butt;stroke-linejoin:miter;stroke-miterlimit:1;stroke-dasharray:none;stroke-opacity:1"
             id="path952" /><path
             d="m 626.23,3025.77 v 0 l 19.094,-22.26 139.578,-22.26 59.571,-22.27 6.05,-22.26 1.329,-22.26 0.98,-22.26 0.953,-22.26 0.953,-22.26 0.95,-22.27 0.953,-22.26 0.949,-22.26 0.953,-22.26 0.949,-22.26 0.953,-22.26 0.95,-22.27 0.953,-22.26 0.949,-22.26 0.953,-22.26 0.953,-22.26 0.949,-22.26 0.953,-22.27 0.95,-22.26 0.953,-22.26 0.949,-22.26 0.953,-22.26 0.949,-22.27 0.954,-22.26 0.949,-22.26 0.953,-22.26 0.949,-22.27 0.953,-22.26 0.949,-22.26 0.954,-22.26 0.953,-22.26 0.949,-22.26 0.953,-22.27 0.949,-22.26 0.953,-22.26 0.95,-22.26 0.953,-22.26 0.949,-22.26 0.953,-22.27 0.949,-22.26 0.953,-22.26 0.95,-22.26 0.953,-22.26 0.953,-22.27 0.949,-22.26 0.953,-22.26 0.949,-22.26 0.954,-22.26 0.949,-22.27 0.953,-22.26 0.949,-22.26 0.953,-22.26 0.949,-22.26 0.954,-22.27 0.949,-22.26 0.953,-22.26 0.949,-22.26 0.953,-22.26 0.953,-22.26 0.95,-22.27 0.953,-22.26 0.949,-22.26 0.953,-22.26 0.949,-22.26 0.953,-22.27 0.95,-22.26 0.953,-22.26 0.949,-22.26 0.953,-22.26 0.949,-22.26 0.953,-22.27 0.95,-22.26 0.953,-22.26 0.953,-22.26 0.949,-22.27 0.953,-22.26 0.949,-22.26 0.954,-22.26 0.949,-22.26 0.953,-22.26 0.949,-22.27 0.953,-22.26 0.95,-22.26 0.953,-22.26 0.949,-22.26 0.953,-22.27 0.953,-22.26 0.949,-22.259 0.953,-22.261 0.95,-22.262 0.953,-22.262 0.949,-22.261 0.953,-22.262 0.949,-22.262 0.953,-22.262 0.95,-22.265 0.953,-22.258 0.949,-22.266 0.953,-22.261 0.949,-22.262 0.954,-22.262 0.953,-22.262 0.949,-22.261 0.953,-22.262 0.949,-22.262 0.953,-22.261 0.95,-22.262 0.953,-22.262 0.949,-22.262 0.953,-22.261 0.949,-22.262 0.953,-22.262 0.95,-22.261 0.953,-22.262 0.949,-22.262 0.953,-22.262 0.953,-22.261"
             style="fill:none;stroke:#0eff00;stroke-width:4.16667;stroke-linecap:butt;stroke-linejoin:miter;stroke-miterlimit:1;stroke-dasharray:none;stroke-opacity:1"
             id="path954" /><path
             d="m 625.98,3025.77 v 0 l 31.02,-22.26 202.16,-22.26 84.692,-22.27 8.601,-22.26 1.914,-22.26 1.426,-22.26 1.387,-22.26 1.386,-22.26 1.383,-22.27 1.387,-22.26 1.387,-22.26 1.382,-22.26 1.387,-22.26 1.383,-22.26 1.387,-22.27 1.386,-22.26 1.383,-22.26 1.387,-22.26 1.383,-22.26 1.387,-22.26 1.386,-22.27 1.383,-22.26 1.387,-22.26 1.383,-22.26 1.386,-22.26 1.383,-22.27 1.387,-22.26 1.387,-22.26 1.382,-22.26 1.387,-22.27 1.383,-22.26 1.387,-22.26 1.386,-22.26 1.383,-22.26 1.387,-22.26 1.387,-22.27 1.382,-22.26 1.386,-22.26 1.38,-22.26 1.39,-22.26 1.38,-22.26 1.39,-22.27 1.39,-22.26 1.38,-22.26 1.39,-22.26 1.38,-22.26 1.39,-22.27 1.38,-22.26 1.39,-22.26 1.38,-22.26 1.39,-22.26 1.38,-22.27 1.39,-22.26 1.38,-22.26 1.39,-22.26 1.38,-22.26 1.39,-22.27 1.38,-22.26 1.39,-22.26 1.38,-22.26 1.39,-22.26 1.38,-22.26 1.39,-22.27 1.38,-22.26 1.39,-22.26 1.38,-22.26 1.39,-22.26 1.38,-22.27 1.39,-22.26 1.39,-22.26 1.38,-22.26 1.38,-22.26 1.39,-22.26 1.38,-22.27 1.39,-22.26 1.38,-22.26 1.39,-22.26 1.38,-22.27 1.39,-22.26 1.39,-22.26 1.38,-22.26 1.39,-22.26 1.38,-22.26 1.39,-22.27 1.38,-22.26 1.39,-22.26 1.38,-22.26 1.39,-22.26 1.38,-22.27 1.38,-22.26 1.39,-22.259 1.39,-22.261 1.38,-22.262 1.39,-22.262 1.38,-22.261 1.39,-22.262 1.38,-22.262 1.39,-22.262 1.38,-22.265 1.39,-22.258 1.38,-22.266 1.39,-22.261 1.38,-22.262 1.39,-22.262 1.38,-22.262 1.39,-22.261 1.38,-22.262 1.39,-22.262 1.38,-22.261 1.39,-22.262 1.38,-22.262 1.39,-22.262 1.38,-22.261 1.39,-22.262 1.38,-22.262 1.39,-22.261 1.39,-22.262 1.38,-22.262 1.39,-22.262 1.38,-22.261"
             style="fill:none;stroke:#0eff00;stroke-width:4.16667;stroke-linecap:butt;stroke-linejoin:miter;stroke-miterlimit:1;stroke-dasharray:none;stroke-opacity:1"
             id="path956" /><path
             d="m 625.727,3025.77 v 0 l 43.238,-22.26 258.918,-22.26 109.367,-22.27 11.19,-22.26 2.47,-22.26 1.85,-22.26 1.79,-22.26 1.8,-22.26 1.79,-22.27 1.8,-22.26 1.79,-22.26 1.8,-22.26 1.79,-22.26 1.79,-22.26 1.8,-22.27 1.79,-22.26 1.8,-22.26 1.79,-22.26 1.79,-22.26 1.8,-22.26 1.79,-22.27 1.79,-22.26 1.8,-22.26 1.79,-22.26 1.8,-22.26 1.79,-22.27 1.79,-22.26 1.8,-22.26 1.79,-22.26 1.8,-22.27 1.79,-22.26 1.79,-22.26 1.8,-22.26 1.79,-22.26 1.8,-22.26 1.79,-22.27 1.79,-22.26 1.79,-22.26 1.8,-22.26 1.79,-22.26 1.8,-22.26 1.79,-22.27 1.8,-22.26 1.79,-22.26 1.79,-22.26 1.8,-22.26 1.79,-22.27 1.8,-22.26 1.79,-22.26 1.79,-22.26 1.79,-22.26 1.8,-22.27 1.79,-22.26 1.8,-22.26 1.79,-22.26 1.8,-22.26 1.79,-22.27 1.79,-22.26 1.8,-22.26 1.79,-22.26 1.8,-22.26 1.79,-22.26 1.79,-22.27 1.79,-22.26 1.8,-22.26 1.79,-22.26 1.8,-22.26 1.79,-22.27 1.8,-22.26 1.79,-22.26 1.79,-22.26 1.8,-22.26 1.79,-22.26 1.8,-22.27 1.79,-22.26 1.79,-22.26 1.8,-22.26 1.79,-22.27 1.79,-22.26 1.8,-22.26 1.79,-22.26 1.8,-22.26 1.79,-22.26 1.79,-22.27 1.8,-22.26 1.79,-22.26 1.8,-22.26 1.79,-22.26 1.79,-22.27 1.8,-22.26 1.79,-22.259 1.8,-22.261 1.79,-22.262 1.79,-22.262 1.8,-22.261 1.79,-22.262 1.79,-22.262 1.8,-22.262 1.79,-22.265 1.8,-22.258 1.79,-22.266 1.79,-22.261 1.8,-22.262 1.79,-22.262 1.8,-22.262 1.79,-22.261 1.79,-22.262 1.79,-22.262 1.8,-22.261 1.79,-22.262 1.8,-22.262 1.79,-22.262 1.8,-22.261 1.79,-22.262 1.79,-22.262 1.8,-22.261 1.79,-22.262 1.8,-22.262 1.79,-22.262 1.79,-22.261"
             style="fill:none;stroke:#0eff00;stroke-width:4.16667;stroke-linecap:butt;stroke-linejoin:miter;stroke-miterlimit:1;stroke-dasharray:none;stroke-opacity:1"
             id="path958" /><path
             d="m 625.477,3025.77 v 0 l 55.476,-22.26 310.527,-22.26 133.88,-22.27 13.83,-22.26 3.02,-22.26 2.24,-22.26 2.19,-22.26 2.18,-22.26 2.18,-22.27 2.18,-22.26 2.18,-22.26 2.18,-22.26 2.18,-22.26 2.18,-22.26 2.18,-22.27 2.19,-22.26 2.18,-22.26 2.18,-22.26 2.17,-22.26 2.18,-22.26 2.19,-22.27 2.18,-22.26 2.18,-22.26 2.18,-22.26 2.18,-22.26 2.18,-22.27 2.18,-22.26 2.18,-22.26 2.18,-22.26 2.18,-22.27 2.18,-22.26 2.18,-22.26 2.18,-22.26 2.18,-22.26 2.19,-22.26 2.18,-22.27 2.17,-22.26 2.18,-22.26 2.18,-22.26 2.19,-22.26 2.18,-22.26 2.18,-22.27 2.18,-22.26 2.18,-22.26 2.18,-22.26 2.18,-22.26 2.18,-22.27 2.18,-22.26 2.18,-22.26 2.18,-22.26 2.18,-22.26 2.18,-22.27 2.18,-22.26 2.19,-22.26 2.17,-22.26 2.18,-22.26 2.18,-22.27 2.18,-22.26 2.19,-22.26 2.18,-22.26 2.18,-22.26 2.18,-22.26 2.18,-22.27 2.18,-22.26 2.18,-22.26 2.18,-22.26 2.18,-22.26 2.18,-22.27 2.18,-22.26 2.18,-22.26 2.18,-22.26 2.18,-22.26 2.18,-22.26 2.18,-22.27 2.18,-22.26 2.18,-22.26 2.18,-22.26 2.19,-22.27 2.18,-22.26 2.18,-22.26 2.18,-22.26 2.18,-22.26 2.18,-22.26 2.18,-22.27 2.18,-22.26 2.18,-22.26 2.18,-22.26 2.18,-22.26 2.18,-22.27 2.18,-22.26 2.18,-22.259 2.18,-22.261 2.18,-22.262 2.18,-22.262 2.18,-22.261 2.18,-22.262 2.19,-22.262 2.18,-22.262 2.18,-22.265 2.18,-22.258 2.18,-22.266 2.18,-22.261 2.18,-22.262 2.18,-22.262 2.18,-22.262 2.18,-22.261 2.18,-22.262 2.18,-22.262 2.18,-22.261 2.18,-22.262 2.18,-22.262 2.18,-22.262 2.18,-22.261 2.18,-22.262 2.18,-22.262 2.19,-22.261 2.18,-22.262 2.18,-22.262 2.18,-22.262 2.18,-22.261"
             style="fill:none;stroke:#0eff00;stroke-width:4.16667;stroke-linecap:butt;stroke-linejoin:miter;stroke-miterlimit:1;stroke-dasharray:none;stroke-opacity:1"
             id="path960" /><path
             d="m 625.227,3025.77 v 0 l 67.605,-22.26 357.608,-22.26 158.29,-22.27 16.59,-22.26 3.55,-22.26 2.62,-22.26 2.55,-22.26 2.55,-22.26 2.55,-22.27 2.54,-22.26 2.55,-22.26 2.55,-22.26 2.55,-22.26 2.55,-22.26 2.54,-22.27 2.55,-22.26 2.55,-22.26 2.55,-22.26 2.54,-22.26 2.55,-22.26 2.55,-22.27 2.54,-22.26 2.55,-22.26 2.55,-22.26 2.55,-22.26 2.55,-22.27 2.54,-22.26 2.55,-22.26 2.55,-22.26 2.55,-22.27 2.54,-22.26 2.55,-22.26 2.55,-22.26 2.55,-22.26 2.55,-22.26 2.54,-22.27 2.55,-22.26 2.55,-22.26 2.55,-22.26 2.54,-22.26 2.55,-22.26 2.55,-22.27 2.54,-22.26 2.55,-22.26 2.55,-22.26 2.55,-22.26 2.55,-22.27 2.54,-22.26 2.55,-22.26 2.55,-22.26 2.55,-22.26 2.54,-22.27 2.55,-22.26 2.55,-22.26 2.54,-22.26 2.56,-22.26 2.54,-22.27 2.55,-22.26 2.55,-22.26 2.54,-22.26 2.55,-22.26 2.55,-22.26 2.55,-22.27 2.54,-22.26 2.55,-22.26 2.55,-22.26 2.55,-22.26 2.55,-22.27 2.54,-22.26 2.55,-22.26 2.55,-22.26 2.54,-22.26 2.55,-22.26 2.55,-22.27 2.55,-22.26 2.54,-22.26 2.55,-22.26 2.55,-22.27 2.55,-22.26 2.55,-22.26 2.54,-22.26 2.55,-22.26 2.55,-22.26 2.55,-22.27 2.54,-22.26 2.55,-22.26 2.55,-22.26 2.54,-22.26 2.56,-22.27 2.54,-22.26 2.55,-22.259 2.55,-22.261 2.54,-22.262 2.55,-22.262 2.55,-22.261 2.55,-22.262 2.54,-22.262 2.55,-22.262 2.55,-22.265 2.55,-22.258 2.55,-22.266 2.54,-22.261 2.55,-22.262 2.55,-22.262 2.54,-22.262 2.55,-22.261 2.55,-22.262 2.55,-22.262 2.54,-22.261 2.55,-22.262 2.55,-22.262 2.55,-22.262 2.55,-22.261 2.54,-22.262 2.55,-22.262 2.55,-22.261 2.55,-22.262 2.54,-22.262 2.55,-22.262 2.55,-22.261"
             style="fill:none;stroke:#0eff00;stroke-width:4.16667;stroke-linecap:butt;stroke-linejoin:miter;stroke-miterlimit:1;stroke-dasharray:none;stroke-opacity:1"
             id="path962" /><path
             d="m 624.977,3025.77 v 0 l 79.55,-22.26 400.723,-22.26 182.62,-22.27 19.44,-22.26 4.08,-22.26 2.98,-22.26 2.9,-22.26 2.9,-22.26 2.9,-22.27 2.89,-22.26 2.9,-22.26 2.9,-22.26 2.9,-22.26 2.89,-22.26 2.9,-22.27 2.9,-22.26 2.9,-22.26 2.89,-22.26 2.9,-22.26 2.9,-22.26 2.9,-22.27 2.89,-22.26 2.9,-22.26 2.9,-22.26 2.9,-22.26 2.89,-22.27 2.9,-22.26 2.9,-22.26 2.89,-22.26 2.9,-22.27 2.9,-22.26 2.89,-22.26 2.9,-22.26 2.9,-22.26 2.9,-22.26 2.89,-22.27 2.9,-22.26 2.9,-22.26 2.89,-22.26 2.9,-22.26 2.9,-22.26 2.9,-22.27 2.89,-22.26 2.9,-22.26 2.9,-22.26 2.9,-22.26 2.89,-22.27 2.9,-22.26 2.9,-22.26 2.9,-22.26 2.89,-22.26 2.9,-22.27 2.9,-22.26 2.9,-22.26 2.89,-22.26 2.9,-22.26 2.9,-22.27 2.89,-22.26 2.9,-22.26 2.9,-22.26 2.89,-22.26 2.9,-22.26 2.9,-22.27 2.89,-22.26 2.9,-22.26 2.9,-22.26 2.9,-22.26 2.89,-22.27 2.9,-22.26 2.9,-22.26 2.9,-22.26 2.89,-22.26 2.9,-22.26 2.9,-22.27 2.9,-22.26 2.89,-22.26 2.9,-22.26 2.9,-22.27 2.9,-22.26 2.89,-22.26 2.9,-22.26 2.9,-22.26 2.89,-22.26 2.9,-22.27 2.9,-22.26 2.9,-22.26 2.89,-22.26 2.9,-22.26 2.9,-22.27 2.89,-22.26 2.9,-22.259 2.9,-22.261 2.89,-22.262 2.9,-22.262 2.9,-22.261 2.9,-22.262 2.89,-22.262 2.9,-22.262 2.9,-22.265 2.89,-22.258 2.9,-22.266 2.9,-22.261 2.9,-22.262 2.89,-22.262 2.9,-22.262 2.9,-22.261 2.9,-22.262 2.89,-22.262 2.9,-22.261 2.9,-22.262 2.9,-22.262 2.89,-22.262 2.9,-22.261 2.9,-22.262 2.9,-22.262 2.89,-22.261 2.9,-22.262 2.9,-22.262 2.89,-22.262 2.9,-22.261"
             style="fill:none;stroke:#0eff00;stroke-width:4.16667;stroke-linecap:butt;stroke-linejoin:miter;stroke-miterlimit:1;stroke-dasharray:none;stroke-opacity:1"
             id="path964" /><path
             d="m 624.723,3025.77 v 0 l 91.273,-22.26 440.324,-22.26 206.86,-22.27 22.43,-22.26 4.59,-22.26 3.33,-22.26 3.24,-22.26 3.23,-22.26 3.23,-22.27 3.23,-22.26 3.23,-22.26 3.24,-22.26 3.23,-22.26 3.23,-22.26 3.23,-22.27 3.23,-22.26 3.23,-22.26 3.23,-22.26 3.23,-22.26 3.23,-22.26 3.23,-22.27 3.23,-22.26 3.24,-22.26 3.23,-22.26 3.23,-22.26 3.23,-22.27 3.23,-22.26 3.24,-22.26 3.23,-22.26 3.23,-22.27 3.23,-22.26 3.23,-22.26 3.23,-22.26 3.23,-22.26 3.23,-22.26 3.23,-22.27 3.23,-22.26 3.24,-22.26 3.23,-22.26 3.23,-22.26 3.23,-22.26 3.23,-22.27 3.23,-22.26 3.23,-22.26 3.23,-22.26 3.24,-22.26 3.23,-22.27 3.23,-22.26 3.23,-22.26 3.23,-22.26 3.23,-22.26 3.23,-22.27 3.23,-22.26 3.24,-22.26 3.23,-22.26 3.23,-22.26 3.23,-22.27 3.23,-22.26 3.23,-22.26 3.23,-22.26 3.23,-22.26 3.23,-22.26 3.23,-22.27 3.24,-22.26 3.23,-22.26 3.23,-22.26 3.23,-22.26 3.23,-22.27 3.23,-22.26 3.24,-22.26 3.23,-22.26 3.23,-22.26 3.23,-22.26 3.23,-22.27 3.23,-22.26 3.23,-22.26 3.23,-22.26 3.23,-22.27 3.23,-22.26 3.24,-22.26 3.23,-22.26 3.23,-22.26 3.23,-22.26 3.23,-22.27 3.23,-22.26 3.24,-22.26 3.23,-22.26 3.23,-22.26 3.23,-22.27 3.23,-22.26 3.23,-22.259 3.23,-22.261 3.23,-22.262 3.23,-22.262 3.23,-22.261 3.24,-22.262 3.23,-22.262 3.23,-22.262 3.23,-22.265 3.23,-22.258 3.23,-22.266 3.23,-22.261 3.23,-22.262 3.24,-22.262 3.23,-22.262 3.23,-22.261 3.23,-22.262 3.23,-22.262 3.23,-22.261 3.23,-22.262 3.23,-22.262 3.24,-22.262 3.23,-22.261 3.23,-22.262 3.23,-22.262 3.23,-22.261 3.23,-22.262 3.23,-22.262 3.23,-22.262 3.23,-22.261"
             style="fill:none;stroke:#0eff00;stroke-width:4.16667;stroke-linecap:butt;stroke-linejoin:miter;stroke-miterlimit:1;stroke-dasharray:none;stroke-opacity:1"
             id="path966" /><path
             d="m 624.477,3025.77 v 0 l 102.734,-22.26 476.839,-22.26 230.97,-22.27 25.55,-22.26 5.09,-22.26 3.67,-22.26 3.56,-22.26 3.55,-22.26 3.55,-22.27 3.55,-22.26 3.55,-22.26 3.55,-22.26 3.56,-22.26 3.55,-22.26 3.55,-22.27 3.55,-22.26 3.55,-22.26 3.55,-22.26 3.55,-22.26 3.55,-22.26 3.56,-22.27 3.55,-22.26 3.55,-22.26 3.55,-22.26 3.55,-22.26 3.55,-22.27 3.55,-22.26 3.55,-22.26 3.55,-22.26 3.55,-22.27 3.56,-22.26 3.55,-22.26 3.55,-22.26 3.55,-22.26 3.55,-22.26 3.55,-22.27 3.55,-22.26 3.55,-22.26 3.55,-22.26 3.55,-22.26 3.56,-22.26 3.55,-22.27 3.55,-22.26 3.55,-22.26 3.55,-22.26 3.55,-22.26 3.55,-22.27 3.55,-22.26 3.56,-22.26 3.55,-22.26 3.55,-22.26 3.55,-22.27 3.55,-22.26 3.55,-22.26 3.55,-22.26 3.55,-22.26 3.56,-22.27 3.55,-22.26 3.55,-22.26 3.55,-22.26 3.55,-22.26 3.55,-22.26 3.55,-22.27 3.55,-22.26 3.55,-22.26 3.55,-22.26 3.55,-22.26 3.55,-22.27 3.55,-22.26 3.56,-22.26 3.55,-22.26 3.55,-22.26 3.55,-22.26 3.55,-22.27 3.55,-22.26 3.55,-22.26 3.55,-22.26 3.56,-22.27 3.55,-22.26 3.55,-22.26 3.55,-22.26 3.55,-22.26 3.55,-22.26 3.55,-22.27 3.56,-22.26 3.55,-22.26 3.55,-22.26 3.55,-22.26 3.55,-22.27 3.55,-22.26 3.55,-22.259 3.55,-22.261 3.55,-22.262 3.55,-22.262 3.56,-22.261 3.55,-22.262 3.55,-22.262 3.55,-22.262 3.55,-22.265 3.55,-22.258 3.55,-22.266 3.55,-22.261 3.55,-22.262 3.55,-22.262 3.55,-22.262 3.56,-22.261 3.55,-22.262 3.55,-22.262 3.55,-22.261 3.55,-22.262 3.55,-22.262 3.55,-22.262 3.55,-22.261 3.56,-22.262 3.55,-22.262 3.55,-22.261 3.55,-22.262 3.55,-22.262 3.55,-22.262 3.55,-22.261"
             style="fill:none;stroke:#0eff00;stroke-width:4.16667;stroke-linecap:butt;stroke-linejoin:miter;stroke-miterlimit:1;stroke-dasharray:none;stroke-opacity:1"
             id="path968" /><path
             d="m 624.227,3025.77 v 0 l 113.937,-22.26 510.606,-22.26 254.91,-22.27 28.82,-22.26 5.59,-22.26 3.99,-22.26 3.87,-22.26 3.86,-22.26 3.86,-22.27 3.86,-22.26 3.85,-22.26 3.86,-22.26 3.86,-22.26 3.86,-22.26 3.86,-22.27 3.86,-22.26 3.85,-22.26 3.86,-22.26 3.86,-22.26 3.86,-22.26 3.85,-22.27 3.86,-22.26 3.86,-22.26 3.86,-22.26 3.86,-22.26 3.85,-22.27 3.86,-22.26 3.86,-22.26 3.86,-22.26 3.86,-22.27 3.86,-22.26 3.86,-22.26 3.85,-22.26 3.86,-22.26 3.86,-22.26 3.86,-22.27 3.86,-22.26 3.85,-22.26 3.86,-22.26 3.86,-22.26 3.86,-22.26 3.85,-22.27 3.86,-22.26 3.86,-22.26 3.86,-22.26 3.86,-22.26 3.86,-22.27 3.86,-22.26 3.85,-22.26 3.86,-22.26 3.86,-22.26 3.86,-22.27 3.86,-22.26 3.86,-22.26 3.85,-22.26 3.86,-22.26 3.86,-22.27 3.85,-22.26 3.86,-22.26 3.86,-22.26 3.86,-22.26 3.86,-22.26 3.86,-22.27 3.86,-22.26 3.85,-22.26 3.86,-22.26 3.86,-22.26 3.86,-22.27 3.86,-22.26 3.86,-22.26 3.85,-22.26 3.86,-22.26 3.86,-22.26 3.86,-22.27 3.85,-22.26 3.86,-22.26 3.86,-22.26 3.86,-22.27 3.86,-22.26 3.86,-22.26 3.85,-22.26 3.86,-22.26 3.86,-22.26 3.86,-22.27 3.86,-22.26 3.86,-22.26 3.85,-22.26 3.86,-22.26 3.86,-22.27 3.86,-22.26 3.86,-22.259 3.85,-22.261 3.86,-22.262 3.86,-22.262 3.86,-22.261 3.86,-22.262 3.85,-22.262 3.86,-22.262 3.86,-22.265 3.86,-22.258 3.86,-22.266 3.86,-22.261 3.85,-22.262 3.86,-22.262 3.86,-22.262 3.86,-22.261 3.86,-22.262 3.86,-22.262 3.85,-22.261 3.86,-22.262 3.86,-22.262 3.86,-22.262 3.85,-22.261 3.86,-22.262 3.86,-22.262 3.86,-22.261 3.86,-22.262 3.86,-22.262 3.85,-22.262 3.86,-22.261"
             style="fill:none;stroke:#0eff00;stroke-width:4.16667;stroke-linecap:butt;stroke-linejoin:miter;stroke-miterlimit:1;stroke-dasharray:none;stroke-opacity:1"
             id="path970" /></g></g><g
         id="g972"><g
           id="g974"
           clip-path="url(#clipPath978)"><g
             id="g980"
             transform="scale(4.16667)"><text
               transform="matrix(0,-1,-1,0,489,474.115)"
               style="font-variant:normal;font-weight:normal;font-size:14px;font-family:Menlo;-inkscape-font-specification:Menlo-Regular;writing-mode:lr-tb;fill:#0000ff;fill-opacity:1;fill-rule:nonzero;stroke:none"
               id="text984"><tspan
                 x="0 8.4280005 16.856001 25.283415 33.711414 42.139416 50.56683 58.994827 67.422241 75.850243 84.278244 92.705658 101.13366 109.56165 117.98907 126.41707"
                 y="0"
                 id="tspan982">1A*(12V-v1)/273V</tspan></text></g></g></g><g
         id="g986"><g
           id="g988"
           clip-path="url(#clipPath992)"><path
             d="m 1740.9,3025.77 v 0 l -9.29,-22.26 -9.28,-22.26 -9.28,-22.27 -9.29,-22.26 -9.28,-22.26 -9.29,-22.26 -9.28,-22.26 -9.29,-22.26 -9.28,-22.27 -9.29,-22.26 -9.28,-22.26 -9.29,-22.26 -9.28,-22.26 -9.29,-22.26 -9.28,-22.27 -9.29,-22.26 -9.28,-22.26 -9.29,-22.26 -9.28,-22.26 -9.28,-22.26 -9.29,-22.27 -9.28,-22.26 -9.29,-22.26 -9.28,-22.26 -9.29,-22.26 -9.28,-22.27 -9.29,-22.26 -9.28,-22.26 -9.29,-22.26 -9.28,-22.27 -9.29,-22.26 -9.28,-22.26 -9.29,-22.26 -9.28,-22.26 -9.29,-22.26 -9.28,-22.27 -9.28,-22.26 -9.29,-22.26 -9.28,-22.26 -9.29,-22.26 -9.28,-22.26 -9.29,-22.27 -9.28,-22.26 -9.29,-22.26 -9.28,-22.26 -9.29,-22.26 -9.28,-22.27 -9.29,-22.26 -9.28,-22.26 -9.29,-22.26 -9.28,-22.26 -9.29,-22.27 -9.28,-22.26 -9.28,-22.26 -9.29,-22.26 -9.28,-22.26 -9.29,-22.27 -9.28,-22.26 -9.29,-22.26 -9.28,-22.26 -9.28,-22.26 -9.29,-22.26 -9.29,-22.27 -9.28,-22.26 -9.29,-22.26 -9.28,-22.26 -9.29,-22.26 -9.28,-22.27 -9.29,-22.26 -9.28,-22.26 -9.28,-22.26 -9.29,-22.26 -9.28,-22.26 -9.29,-22.27 -9.28,-22.26 -9.29,-22.26 -9.28,-22.26 -9.29,-22.27 -9.28,-22.26 -9.285,-22.26 -9.285,-22.26 -9.285,-22.26 -9.285,-22.26 -9.286,-22.27 -9.285,-22.26 -9.285,-22.26 -9.281,-22.26 -9.285,-22.26 -9.285,-22.27 -9.286,-22.26 -9.285,-22.259 -9.285,-22.261 -9.285,-22.262 -9.285,-22.262 -9.285,-22.261 -9.282,-22.262 -9.285,-22.262 -9.285,-22.262 -9.285,-22.265 -9.285,-22.258 -9.285,-22.266 -9.286,-22.261 -9.285,-22.262 -9.281,-22.262 -9.285,-22.262 -9.285,-22.261 -9.285,-22.262 -9.286,-22.262 -9.285,-22.261 -9.285,-22.262 -9.285,-22.262 -9.285,-22.262 -9.282,-22.261 -9.285,-22.262 -9.285,-22.262 -9.285,-22.261 -9.285,-22.262 -9.285,-22.262 -9.285,-22.262"
             style="fill:none;stroke:#0000ff;stroke-width:4.16667;stroke-linecap:butt;stroke-linejoin:miter;stroke-miterlimit:1;stroke-dasharray:none;stroke-opacity:1"
             id="path994" /><path
             d="m 1740.9,3025.77 v 0 l -9.29,-22.26 -9.28,-22.26 -9.28,-22.27 -9.29,-22.26 -9.28,-22.26 -9.29,-22.26 -9.28,-22.26 -9.29,-22.26 -9.28,-22.27 -9.29,-22.26 -9.28,-22.26 -9.29,-22.26 -9.28,-22.26 -9.29,-22.26 -9.28,-22.27 -9.29,-22.26 -9.28,-22.26 -9.29,-22.26 -9.28,-22.26 -9.28,-22.26 -9.29,-22.27 -9.28,-22.26 -9.29,-22.26 -9.28,-22.26 -9.29,-22.26 -9.28,-22.27 -9.29,-22.26 -9.28,-22.26 -9.29,-22.26 -9.28,-22.27 -9.29,-22.26 -9.28,-22.26 -9.29,-22.26 -9.28,-22.26 -9.29,-22.26 -9.28,-22.27 -9.28,-22.26 -9.29,-22.26 -9.28,-22.26 -9.29,-22.26 -9.28,-22.26 -9.29,-22.27 -9.28,-22.26 -9.29,-22.26 -9.28,-22.26 -9.29,-22.26 -9.28,-22.27 -9.29,-22.26 -9.28,-22.26 -9.29,-22.26 -9.28,-22.26 -9.29,-22.27 -9.28,-22.26 -9.28,-22.26 -9.29,-22.26 -9.28,-22.26 -9.29,-22.27 -9.28,-22.26 -9.29,-22.26 -9.28,-22.26 -9.28,-22.26 -9.29,-22.26 -9.29,-22.27 -9.28,-22.26 -9.29,-22.26 -9.28,-22.26 -9.29,-22.26 -9.28,-22.27 -9.29,-22.26 -9.28,-22.26 -9.28,-22.26 -9.29,-22.26 -9.28,-22.26 -9.29,-22.27 -9.28,-22.26 -9.29,-22.26 -9.28,-22.26 -9.29,-22.27 -9.28,-22.26 -9.285,-22.26 -9.285,-22.26 -9.285,-22.26 -9.285,-22.26 -9.286,-22.27 -9.285,-22.26 -9.285,-22.26 -9.281,-22.26 -9.285,-22.26 -9.285,-22.27 -9.286,-22.26 -9.285,-22.259 -9.285,-22.261 -9.285,-22.262 -9.285,-22.262 -9.285,-22.261 -9.282,-22.262 -9.285,-22.262 -9.285,-22.262 -9.285,-22.265 -9.285,-22.258 -9.285,-22.266 -9.286,-22.261 -9.285,-22.262 -9.281,-22.262 -9.285,-22.262 -9.285,-22.261 -9.285,-22.262 -9.286,-22.262 -9.285,-22.261 -9.285,-22.262 -9.285,-22.262 -9.285,-22.262 -9.282,-22.261 -9.285,-22.262 -9.285,-22.262 -9.285,-22.261 -9.285,-22.262 -9.285,-22.262 -9.285,-22.262"
             style="fill:none;stroke:#0000ff;stroke-width:4.16667;stroke-linecap:butt;stroke-linejoin:miter;stroke-miterlimit:1;stroke-dasharray:none;stroke-opacity:1"
             id="path996" /><path
             d="m 1740.9,3025.77 v 0 l -9.29,-22.26 -9.28,-22.26 -9.28,-22.27 -9.29,-22.26 -9.28,-22.26 -9.29,-22.26 -9.28,-22.26 -9.29,-22.26 -9.28,-22.27 -9.29,-22.26 -9.28,-22.26 -9.29,-22.26 -9.28,-22.26 -9.29,-22.26 -9.28,-22.27 -9.29,-22.26 -9.28,-22.26 -9.29,-22.26 -9.28,-22.26 -9.28,-22.26 -9.29,-22.27 -9.28,-22.26 -9.29,-22.26 -9.28,-22.26 -9.29,-22.26 -9.28,-22.27 -9.29,-22.26 -9.28,-22.26 -9.29,-22.26 -9.28,-22.27 -9.29,-22.26 -9.28,-22.26 -9.29,-22.26 -9.28,-22.26 -9.29,-22.26 -9.28,-22.27 -9.28,-22.26 -9.29,-22.26 -9.28,-22.26 -9.29,-22.26 -9.28,-22.26 -9.29,-22.27 -9.28,-22.26 -9.29,-22.26 -9.28,-22.26 -9.29,-22.26 -9.28,-22.27 -9.29,-22.26 -9.28,-22.26 -9.29,-22.26 -9.28,-22.26 -9.29,-22.27 -9.28,-22.26 -9.28,-22.26 -9.29,-22.26 -9.28,-22.26 -9.29,-22.27 -9.28,-22.26 -9.29,-22.26 -9.28,-22.26 -9.28,-22.26 -9.29,-22.26 -9.29,-22.27 -9.28,-22.26 -9.29,-22.26 -9.28,-22.26 -9.29,-22.26 -9.28,-22.27 -9.29,-22.26 -9.28,-22.26 -9.28,-22.26 -9.29,-22.26 -9.28,-22.26 -9.29,-22.27 -9.28,-22.26 -9.29,-22.26 -9.28,-22.26 -9.29,-22.27 -9.28,-22.26 -9.285,-22.26 -9.285,-22.26 -9.285,-22.26 -9.285,-22.26 -9.286,-22.27 -9.285,-22.26 -9.285,-22.26 -9.281,-22.26 -9.285,-22.26 -9.285,-22.27 -9.286,-22.26 -9.285,-22.259 -9.285,-22.261 -9.285,-22.262 -9.285,-22.262 -9.285,-22.261 -9.282,-22.262 -9.285,-22.262 -9.285,-22.262 -9.285,-22.265 -9.285,-22.258 -9.285,-22.266 -9.286,-22.261 -9.285,-22.262 -9.281,-22.262 -9.285,-22.262 -9.285,-22.261 -9.285,-22.262 -9.286,-22.262 -9.285,-22.261 -9.285,-22.262 -9.285,-22.262 -9.285,-22.262 -9.282,-22.261 -9.285,-22.262 -9.285,-22.262 -9.285,-22.261 -9.285,-22.262 -9.285,-22.262 -9.285,-22.262"
             style="fill:none;stroke:#0000ff;stroke-width:4.16667;stroke-linecap:butt;stroke-linejoin:miter;stroke-miterlimit:1;stroke-dasharray:none;stroke-opacity:1"
             id="path998" /><path
             d="m 1740.9,3025.77 v 0 l -9.29,-22.26 -9.28,-22.26 -9.28,-22.27 -9.29,-22.26 -9.28,-22.26 -9.29,-22.26 -9.28,-22.26 -9.29,-22.26 -9.28,-22.27 -9.29,-22.26 -9.28,-22.26 -9.29,-22.26 -9.28,-22.26 -9.29,-22.26 -9.28,-22.27 -9.29,-22.26 -9.28,-22.26 -9.29,-22.26 -9.28,-22.26 -9.28,-22.26 -9.29,-22.27 -9.28,-22.26 -9.29,-22.26 -9.28,-22.26 -9.29,-22.26 -9.28,-22.27 -9.29,-22.26 -9.28,-22.26 -9.29,-22.26 -9.28,-22.27 -9.29,-22.26 -9.28,-22.26 -9.29,-22.26 -9.28,-22.26 -9.29,-22.26 -9.28,-22.27 -9.28,-22.26 -9.29,-22.26 -9.28,-22.26 -9.29,-22.26 -9.28,-22.26 -9.29,-22.27 -9.28,-22.26 -9.29,-22.26 -9.28,-22.26 -9.29,-22.26 -9.28,-22.27 -9.29,-22.26 -9.28,-22.26 -9.29,-22.26 -9.28,-22.26 -9.29,-22.27 -9.28,-22.26 -9.28,-22.26 -9.29,-22.26 -9.28,-22.26 -9.29,-22.27 -9.28,-22.26 -9.29,-22.26 -9.28,-22.26 -9.28,-22.26 -9.29,-22.26 -9.29,-22.27 -9.28,-22.26 -9.29,-22.26 -9.28,-22.26 -9.29,-22.26 -9.28,-22.27 -9.29,-22.26 -9.28,-22.26 -9.28,-22.26 -9.29,-22.26 -9.28,-22.26 -9.29,-22.27 -9.28,-22.26 -9.29,-22.26 -9.28,-22.26 -9.29,-22.27 -9.28,-22.26 -9.285,-22.26 -9.285,-22.26 -9.285,-22.26 -9.285,-22.26 -9.286,-22.27 -9.285,-22.26 -9.285,-22.26 -9.281,-22.26 -9.285,-22.26 -9.285,-22.27 -9.286,-22.26 -9.285,-22.259 -9.285,-22.261 -9.285,-22.262 -9.285,-22.262 -9.285,-22.261 -9.282,-22.262 -9.285,-22.262 -9.285,-22.262 -9.285,-22.265 -9.285,-22.258 -9.285,-22.266 -9.286,-22.261 -9.285,-22.262 -9.281,-22.262 -9.285,-22.262 -9.285,-22.261 -9.285,-22.262 -9.286,-22.262 -9.285,-22.261 -9.285,-22.262 -9.285,-22.262 -9.285,-22.262 -9.282,-22.261 -9.285,-22.262 -9.285,-22.262 -9.285,-22.261 -9.285,-22.262 -9.285,-22.262 -9.285,-22.262"
             style="fill:none;stroke:#0000ff;stroke-width:4.16667;stroke-linecap:butt;stroke-linejoin:miter;stroke-miterlimit:1;stroke-dasharray:none;stroke-opacity:1"
             id="path1000" /><path
             d="m 1740.9,3025.77 v 0 l -9.29,-22.26 -9.28,-22.26 -9.28,-22.27 -9.29,-22.26 -9.28,-22.26 -9.29,-22.26 -9.28,-22.26 -9.29,-22.26 -9.28,-22.27 -9.29,-22.26 -9.28,-22.26 -9.29,-22.26 -9.28,-22.26 -9.29,-22.26 -9.28,-22.27 -9.29,-22.26 -9.28,-22.26 -9.29,-22.26 -9.28,-22.26 -9.28,-22.26 -9.29,-22.27 -9.28,-22.26 -9.29,-22.26 -9.28,-22.26 -9.29,-22.26 -9.28,-22.27 -9.29,-22.26 -9.28,-22.26 -9.29,-22.26 -9.28,-22.27 -9.29,-22.26 -9.28,-22.26 -9.29,-22.26 -9.28,-22.26 -9.29,-22.26 -9.28,-22.27 -9.28,-22.26 -9.29,-22.26 -9.28,-22.26 -9.29,-22.26 -9.28,-22.26 -9.29,-22.27 -9.28,-22.26 -9.29,-22.26 -9.28,-22.26 -9.29,-22.26 -9.28,-22.27 -9.29,-22.26 -9.28,-22.26 -9.29,-22.26 -9.28,-22.26 -9.29,-22.27 -9.28,-22.26 -9.28,-22.26 -9.29,-22.26 -9.28,-22.26 -9.29,-22.27 -9.28,-22.26 -9.29,-22.26 -9.28,-22.26 -9.28,-22.26 -9.29,-22.26 -9.29,-22.27 -9.28,-22.26 -9.29,-22.26 -9.28,-22.26 -9.29,-22.26 -9.28,-22.27 -9.29,-22.26 -9.28,-22.26 -9.28,-22.26 -9.29,-22.26 -9.28,-22.26 -9.29,-22.27 -9.28,-22.26 -9.29,-22.26 -9.28,-22.26 -9.29,-22.27 -9.28,-22.26 -9.285,-22.26 -9.285,-22.26 -9.285,-22.26 -9.285,-22.26 -9.286,-22.27 -9.285,-22.26 -9.285,-22.26 -9.281,-22.26 -9.285,-22.26 -9.285,-22.27 -9.286,-22.26 -9.285,-22.259 -9.285,-22.261 -9.285,-22.262 -9.285,-22.262 -9.285,-22.261 -9.282,-22.262 -9.285,-22.262 -9.285,-22.262 -9.285,-22.265 -9.285,-22.258 -9.285,-22.266 -9.286,-22.261 -9.285,-22.262 -9.281,-22.262 -9.285,-22.262 -9.285,-22.261 -9.285,-22.262 -9.286,-22.262 -9.285,-22.261 -9.285,-22.262 -9.285,-22.262 -9.285,-22.262 -9.282,-22.261 -9.285,-22.262 -9.285,-22.262 -9.285,-22.261 -9.285,-22.262 -9.285,-22.262 -9.285,-22.262"
             style="fill:none;stroke:#0000ff;stroke-width:4.16667;stroke-linecap:butt;stroke-linejoin:miter;stroke-miterlimit:1;stroke-dasharray:none;stroke-opacity:1"
             id="path1002" /><path
             d="m 1740.9,3025.77 v 0 l -9.29,-22.26 -9.28,-22.26 -9.28,-22.27 -9.29,-22.26 -9.28,-22.26 -9.29,-22.26 -9.28,-22.26 -9.29,-22.26 -9.28,-22.27 -9.29,-22.26 -9.28,-22.26 -9.29,-22.26 -9.28,-22.26 -9.29,-22.26 -9.28,-22.27 -9.29,-22.26 -9.28,-22.26 -9.29,-22.26 -9.28,-22.26 -9.28,-22.26 -9.29,-22.27 -9.28,-22.26 -9.29,-22.26 -9.28,-22.26 -9.29,-22.26 -9.28,-22.27 -9.29,-22.26 -9.28,-22.26 -9.29,-22.26 -9.28,-22.27 -9.29,-22.26 -9.28,-22.26 -9.29,-22.26 -9.28,-22.26 -9.29,-22.26 -9.28,-22.27 -9.28,-22.26 -9.29,-22.26 -9.28,-22.26 -9.29,-22.26 -9.28,-22.26 -9.29,-22.27 -9.28,-22.26 -9.29,-22.26 -9.28,-22.26 -9.29,-22.26 -9.28,-22.27 -9.29,-22.26 -9.28,-22.26 -9.29,-22.26 -9.28,-22.26 -9.29,-22.27 -9.28,-22.26 -9.28,-22.26 -9.29,-22.26 -9.28,-22.26 -9.29,-22.27 -9.28,-22.26 -9.29,-22.26 -9.28,-22.26 -9.28,-22.26 -9.29,-22.26 -9.29,-22.27 -9.28,-22.26 -9.29,-22.26 -9.28,-22.26 -9.29,-22.26 -9.28,-22.27 -9.29,-22.26 -9.28,-22.26 -9.28,-22.26 -9.29,-22.26 -9.28,-22.26 -9.29,-22.27 -9.28,-22.26 -9.29,-22.26 -9.28,-22.26 -9.29,-22.27 -9.28,-22.26 -9.285,-22.26 -9.285,-22.26 -9.285,-22.26 -9.285,-22.26 -9.286,-22.27 -9.285,-22.26 -9.285,-22.26 -9.281,-22.26 -9.285,-22.26 -9.285,-22.27 -9.286,-22.26 -9.285,-22.259 -9.285,-22.261 -9.285,-22.262 -9.285,-22.262 -9.285,-22.261 -9.282,-22.262 -9.285,-22.262 -9.285,-22.262 -9.285,-22.265 -9.285,-22.258 -9.285,-22.266 -9.286,-22.261 -9.285,-22.262 -9.281,-22.262 -9.285,-22.262 -9.285,-22.261 -9.285,-22.262 -9.286,-22.262 -9.285,-22.261 -9.285,-22.262 -9.285,-22.262 -9.285,-22.262 -9.282,-22.261 -9.285,-22.262 -9.285,-22.262 -9.285,-22.261 -9.285,-22.262 -9.285,-22.262 -9.285,-22.262"
             style="fill:none;stroke:#0000ff;stroke-width:4.16667;stroke-linecap:butt;stroke-linejoin:miter;stroke-miterlimit:1;stroke-dasharray:none;stroke-opacity:1"
             id="path1004" /><path
             d="m 1740.9,3025.77 v 0 l -9.29,-22.26 -9.28,-22.26 -9.28,-22.27 -9.29,-22.26 -9.28,-22.26 -9.29,-22.26 -9.28,-22.26 -9.29,-22.26 -9.28,-22.27 -9.29,-22.26 -9.28,-22.26 -9.29,-22.26 -9.28,-22.26 -9.29,-22.26 -9.28,-22.27 -9.29,-22.26 -9.28,-22.26 -9.29,-22.26 -9.28,-22.26 -9.28,-22.26 -9.29,-22.27 -9.28,-22.26 -9.29,-22.26 -9.28,-22.26 -9.29,-22.26 -9.28,-22.27 -9.29,-22.26 -9.28,-22.26 -9.29,-22.26 -9.28,-22.27 -9.29,-22.26 -9.28,-22.26 -9.29,-22.26 -9.28,-22.26 -9.29,-22.26 -9.28,-22.27 -9.28,-22.26 -9.29,-22.26 -9.28,-22.26 -9.29,-22.26 -9.28,-22.26 -9.29,-22.27 -9.28,-22.26 -9.29,-22.26 -9.28,-22.26 -9.29,-22.26 -9.28,-22.27 -9.29,-22.26 -9.28,-22.26 -9.29,-22.26 -9.28,-22.26 -9.29,-22.27 -9.28,-22.26 -9.28,-22.26 -9.29,-22.26 -9.28,-22.26 -9.29,-22.27 -9.28,-22.26 -9.29,-22.26 -9.28,-22.26 -9.28,-22.26 -9.29,-22.26 -9.29,-22.27 -9.28,-22.26 -9.29,-22.26 -9.28,-22.26 -9.29,-22.26 -9.28,-22.27 -9.29,-22.26 -9.28,-22.26 -9.28,-22.26 -9.29,-22.26 -9.28,-22.26 -9.29,-22.27 -9.28,-22.26 -9.29,-22.26 -9.28,-22.26 -9.29,-22.27 -9.28,-22.26 -9.285,-22.26 -9.285,-22.26 -9.285,-22.26 -9.285,-22.26 -9.286,-22.27 -9.285,-22.26 -9.285,-22.26 -9.281,-22.26 -9.285,-22.26 -9.285,-22.27 -9.286,-22.26 -9.285,-22.259 -9.285,-22.261 -9.285,-22.262 -9.285,-22.262 -9.285,-22.261 -9.282,-22.262 -9.285,-22.262 -9.285,-22.262 -9.285,-22.265 -9.285,-22.258 -9.285,-22.266 -9.286,-22.261 -9.285,-22.262 -9.281,-22.262 -9.285,-22.262 -9.285,-22.261 -9.285,-22.262 -9.286,-22.262 -9.285,-22.261 -9.285,-22.262 -9.285,-22.262 -9.285,-22.262 -9.282,-22.261 -9.285,-22.262 -9.285,-22.262 -9.285,-22.261 -9.285,-22.262 -9.285,-22.262 -9.285,-22.262"
             style="fill:none;stroke:#0000ff;stroke-width:4.16667;stroke-linecap:butt;stroke-linejoin:miter;stroke-miterlimit:1;stroke-dasharray:none;stroke-opacity:1"
             id="path1006" /><path
             d="m 1740.9,3025.77 v 0 l -9.29,-22.26 -9.28,-22.26 -9.28,-22.27 -9.29,-22.26 -9.28,-22.26 -9.29,-22.26 -9.28,-22.26 -9.29,-22.26 -9.28,-22.27 -9.29,-22.26 -9.28,-22.26 -9.29,-22.26 -9.28,-22.26 -9.29,-22.26 -9.28,-22.27 -9.29,-22.26 -9.28,-22.26 -9.29,-22.26 -9.28,-22.26 -9.28,-22.26 -9.29,-22.27 -9.28,-22.26 -9.29,-22.26 -9.28,-22.26 -9.29,-22.26 -9.28,-22.27 -9.29,-22.26 -9.28,-22.26 -9.29,-22.26 -9.28,-22.27 -9.29,-22.26 -9.28,-22.26 -9.29,-22.26 -9.28,-22.26 -9.29,-22.26 -9.28,-22.27 -9.28,-22.26 -9.29,-22.26 -9.28,-22.26 -9.29,-22.26 -9.28,-22.26 -9.29,-22.27 -9.28,-22.26 -9.29,-22.26 -9.28,-22.26 -9.29,-22.26 -9.28,-22.27 -9.29,-22.26 -9.28,-22.26 -9.29,-22.26 -9.28,-22.26 -9.29,-22.27 -9.28,-22.26 -9.28,-22.26 -9.29,-22.26 -9.28,-22.26 -9.29,-22.27 -9.28,-22.26 -9.29,-22.26 -9.28,-22.26 -9.28,-22.26 -9.29,-22.26 -9.29,-22.27 -9.28,-22.26 -9.29,-22.26 -9.28,-22.26 -9.29,-22.26 -9.28,-22.27 -9.29,-22.26 -9.28,-22.26 -9.28,-22.26 -9.29,-22.26 -9.28,-22.26 -9.29,-22.27 -9.28,-22.26 -9.29,-22.26 -9.28,-22.26 -9.29,-22.27 -9.28,-22.26 -9.285,-22.26 -9.285,-22.26 -9.285,-22.26 -9.285,-22.26 -9.286,-22.27 -9.285,-22.26 -9.285,-22.26 -9.281,-22.26 -9.285,-22.26 -9.285,-22.27 -9.286,-22.26 -9.285,-22.259 -9.285,-22.261 -9.285,-22.262 -9.285,-22.262 -9.285,-22.261 -9.282,-22.262 -9.285,-22.262 -9.285,-22.262 -9.285,-22.265 -9.285,-22.258 -9.285,-22.266 -9.286,-22.261 -9.285,-22.262 -9.281,-22.262 -9.285,-22.262 -9.285,-22.261 -9.285,-22.262 -9.286,-22.262 -9.285,-22.261 -9.285,-22.262 -9.285,-22.262 -9.285,-22.262 -9.282,-22.261 -9.285,-22.262 -9.285,-22.262 -9.285,-22.261 -9.285,-22.262 -9.285,-22.262 -9.285,-22.262"
             style="fill:none;stroke:#0000ff;stroke-width:4.16667;stroke-linecap:butt;stroke-linejoin:miter;stroke-miterlimit:1;stroke-dasharray:none;stroke-opacity:1"
             id="path1008" /><path
             d="m 1740.9,3025.77 v 0 l -9.29,-22.26 -9.28,-22.26 -9.28,-22.27 -9.29,-22.26 -9.28,-22.26 -9.29,-22.26 -9.28,-22.26 -9.29,-22.26 -9.28,-22.27 -9.29,-22.26 -9.28,-22.26 -9.29,-22.26 -9.28,-22.26 -9.29,-22.26 -9.28,-22.27 -9.29,-22.26 -9.28,-22.26 -9.29,-22.26 -9.28,-22.26 -9.28,-22.26 -9.29,-22.27 -9.28,-22.26 -9.29,-22.26 -9.28,-22.26 -9.29,-22.26 -9.28,-22.27 -9.29,-22.26 -9.28,-22.26 -9.29,-22.26 -9.28,-22.27 -9.29,-22.26 -9.28,-22.26 -9.29,-22.26 -9.28,-22.26 -9.29,-22.26 -9.28,-22.27 -9.28,-22.26 -9.29,-22.26 -9.28,-22.26 -9.29,-22.26 -9.28,-22.26 -9.29,-22.27 -9.28,-22.26 -9.29,-22.26 -9.28,-22.26 -9.29,-22.26 -9.28,-22.27 -9.29,-22.26 -9.28,-22.26 -9.29,-22.26 -9.28,-22.26 -9.29,-22.27 -9.28,-22.26 -9.28,-22.26 -9.29,-22.26 -9.28,-22.26 -9.29,-22.27 -9.28,-22.26 -9.29,-22.26 -9.28,-22.26 -9.28,-22.26 -9.29,-22.26 -9.29,-22.27 -9.28,-22.26 -9.29,-22.26 -9.28,-22.26 -9.29,-22.26 -9.28,-22.27 -9.29,-22.26 -9.28,-22.26 -9.28,-22.26 -9.29,-22.26 -9.28,-22.26 -9.29,-22.27 -9.28,-22.26 -9.29,-22.26 -9.28,-22.26 -9.29,-22.27 -9.28,-22.26 -9.285,-22.26 -9.285,-22.26 -9.285,-22.26 -9.285,-22.26 -9.286,-22.27 -9.285,-22.26 -9.285,-22.26 -9.281,-22.26 -9.285,-22.26 -9.285,-22.27 -9.286,-22.26 -9.285,-22.259 -9.285,-22.261 -9.285,-22.262 -9.285,-22.262 -9.285,-22.261 -9.282,-22.262 -9.285,-22.262 -9.285,-22.262 -9.285,-22.265 -9.285,-22.258 -9.285,-22.266 -9.286,-22.261 -9.285,-22.262 -9.281,-22.262 -9.285,-22.262 -9.285,-22.261 -9.285,-22.262 -9.286,-22.262 -9.285,-22.261 -9.285,-22.262 -9.285,-22.262 -9.285,-22.262 -9.282,-22.261 -9.285,-22.262 -9.285,-22.262 -9.285,-22.261 -9.285,-22.262 -9.285,-22.262 -9.285,-22.262"
             style="fill:none;stroke:#0000ff;stroke-width:4.16667;stroke-linecap:butt;stroke-linejoin:miter;stroke-miterlimit:1;stroke-dasharray:none;stroke-opacity:1"
             id="path1010" /><path
             d="m 1740.9,3025.77 v 0 l -9.29,-22.26 -9.28,-22.26 -9.28,-22.27 -9.29,-22.26 -9.28,-22.26 -9.29,-22.26 -9.28,-22.26 -9.29,-22.26 -9.28,-22.27 -9.29,-22.26 -9.28,-22.26 -9.29,-22.26 -9.28,-22.26 -9.29,-22.26 -9.28,-22.27 -9.29,-22.26 -9.28,-22.26 -9.29,-22.26 -9.28,-22.26 -9.28,-22.26 -9.29,-22.27 -9.28,-22.26 -9.29,-22.26 -9.28,-22.26 -9.29,-22.26 -9.28,-22.27 -9.29,-22.26 -9.28,-22.26 -9.29,-22.26 -9.28,-22.27 -9.29,-22.26 -9.28,-22.26 -9.29,-22.26 -9.28,-22.26 -9.29,-22.26 -9.28,-22.27 -9.28,-22.26 -9.29,-22.26 -9.28,-22.26 -9.29,-22.26 -9.28,-22.26 -9.29,-22.27 -9.28,-22.26 -9.29,-22.26 -9.28,-22.26 -9.29,-22.26 -9.28,-22.27 -9.29,-22.26 -9.28,-22.26 -9.29,-22.26 -9.28,-22.26 -9.29,-22.27 -9.28,-22.26 -9.28,-22.26 -9.29,-22.26 -9.28,-22.26 -9.29,-22.27 -9.28,-22.26 -9.29,-22.26 -9.28,-22.26 -9.28,-22.26 -9.29,-22.26 -9.29,-22.27 -9.28,-22.26 -9.29,-22.26 -9.28,-22.26 -9.29,-22.26 -9.28,-22.27 -9.29,-22.26 -9.28,-22.26 -9.28,-22.26 -9.29,-22.26 -9.28,-22.26 -9.29,-22.27 -9.28,-22.26 -9.29,-22.26 -9.28,-22.26 -9.29,-22.27 -9.28,-22.26 -9.285,-22.26 -9.285,-22.26 -9.285,-22.26 -9.285,-22.26 -9.286,-22.27 -9.285,-22.26 -9.285,-22.26 -9.281,-22.26 -9.285,-22.26 -9.285,-22.27 -9.286,-22.26 -9.285,-22.259 -9.285,-22.261 -9.285,-22.262 -9.285,-22.262 -9.285,-22.261 -9.282,-22.262 -9.285,-22.262 -9.285,-22.262 -9.285,-22.265 -9.285,-22.258 -9.285,-22.266 -9.286,-22.261 -9.285,-22.262 -9.281,-22.262 -9.285,-22.262 -9.285,-22.261 -9.285,-22.262 -9.286,-22.262 -9.285,-22.261 -9.285,-22.262 -9.285,-22.262 -9.285,-22.262 -9.282,-22.261 -9.285,-22.262 -9.285,-22.262 -9.285,-22.261 -9.285,-22.262 -9.285,-22.262 -9.285,-22.262"
             style="fill:none;stroke:#0000ff;stroke-width:4.16667;stroke-linecap:butt;stroke-linejoin:miter;stroke-miterlimit:1;stroke-dasharray:none;stroke-opacity:1"
             id="path1012" /><path
             d="m 1740.9,3025.77 v 0 l -9.29,-22.26 -9.28,-22.26 -9.28,-22.27 -9.29,-22.26 -9.28,-22.26 -9.29,-22.26 -9.28,-22.26 -9.29,-22.26 -9.28,-22.27 -9.29,-22.26 -9.28,-22.26 -9.29,-22.26 -9.28,-22.26 -9.29,-22.26 -9.28,-22.27 -9.29,-22.26 -9.28,-22.26 -9.29,-22.26 -9.28,-22.26 -9.28,-22.26 -9.29,-22.27 -9.28,-22.26 -9.29,-22.26 -9.28,-22.26 -9.29,-22.26 -9.28,-22.27 -9.29,-22.26 -9.28,-22.26 -9.29,-22.26 -9.28,-22.27 -9.29,-22.26 -9.28,-22.26 -9.29,-22.26 -9.28,-22.26 -9.29,-22.26 -9.28,-22.27 -9.28,-22.26 -9.29,-22.26 -9.28,-22.26 -9.29,-22.26 -9.28,-22.26 -9.29,-22.27 -9.28,-22.26 -9.29,-22.26 -9.28,-22.26 -9.29,-22.26 -9.28,-22.27 -9.29,-22.26 -9.28,-22.26 -9.29,-22.26 -9.28,-22.26 -9.29,-22.27 -9.28,-22.26 -9.28,-22.26 -9.29,-22.26 -9.28,-22.26 -9.29,-22.27 -9.28,-22.26 -9.29,-22.26 -9.28,-22.26 -9.28,-22.26 -9.29,-22.26 -9.29,-22.27 -9.28,-22.26 -9.29,-22.26 -9.28,-22.26 -9.29,-22.26 -9.28,-22.27 -9.29,-22.26 -9.28,-22.26 -9.28,-22.26 -9.29,-22.26 -9.28,-22.26 -9.29,-22.27 -9.28,-22.26 -9.29,-22.26 -9.28,-22.26 -9.29,-22.27 -9.28,-22.26 -9.285,-22.26 -9.285,-22.26 -9.285,-22.26 -9.285,-22.26 -9.286,-22.27 -9.285,-22.26 -9.285,-22.26 -9.281,-22.26 -9.285,-22.26 -9.285,-22.27 -9.286,-22.26 -9.285,-22.259 -9.285,-22.261 -9.285,-22.262 -9.285,-22.262 -9.285,-22.261 -9.282,-22.262 -9.285,-22.262 -9.285,-22.262 -9.285,-22.265 -9.285,-22.258 -9.285,-22.266 -9.286,-22.261 -9.285,-22.262 -9.281,-22.262 -9.285,-22.262 -9.285,-22.261 -9.285,-22.262 -9.286,-22.262 -9.285,-22.261 -9.285,-22.262 -9.285,-22.262 -9.285,-22.262 -9.282,-22.261 -9.285,-22.262 -9.285,-22.262 -9.285,-22.261 -9.285,-22.262 -9.285,-22.262 -9.285,-22.262 -9.286,-22.261"
             style="fill:none;stroke:#0000ff;stroke-width:4.16667;stroke-linecap:butt;stroke-linejoin:miter;stroke-miterlimit:1;stroke-dasharray:none;stroke-opacity:1"
             id="path1014" /></g></g><g
         id="g1016"><g
           id="g1018"
           clip-path="url(#clipPath1022)"><g
             id="g1024"
             transform="scale(4.16667)"><text
               transform="matrix(0,-1,-1,0,489,223.186)"
               style="font-variant:normal;font-weight:normal;font-size:14px;font-family:Menlo;-inkscape-font-specification:Menlo-Regular;writing-mode:lr-tb;fill:#ff0000;fill-opacity:1;fill-rule:nonzero;stroke:none"
               id="text1028"><tspan
                 x="0 8.4280005 16.855413 25.283415 33.711414 42.138828 50.56683"
                 y="0"
                 id="tspan1026">0.5W/v1</tspan></text></g></g></g><g
         id="g1030"><g
           id="g1032"
           clip-path="url(#clipPath1036)"><g
             id="g1038"
             transform="scale(7.81367)"><path
               d="m 16300,384.391 v 0 l -8109.89,-2.849 -2703.3,-2.849 -1351.65,-2.849 -810.99,-2.849 -540.66,-2.849 -386.19,-2.849 -289.64,-2.849 -225.27,-2.849 -180.22,-2.849 -147.45,-2.849 -122.88,-2.849 -103.97,-2.849 -89.12,-2.85 -77.24,-2.849 -67.58,-2.849 -59.63,-2.849 -53.011,-2.849 -47.425,-2.849 -42.684,-2.849 -38.619,-2.849 -35.108,-2.849 -32.055,-2.849 -29.383,-2.849 -27.033,-2.849 -24.954,-2.85 -23.105,-2.849 -21.455,-2.849 -19.975,-2.849 -18.643,-2.849 -17.441,-2.849 -16.35,-2.849 -15.36,-2.849 -14.456,-2.85 -13.63,-2.849 -12.873,-2.849 -12.177,-2.849 -11.536,-2.849 -10.945,-2.849 -10.397,-2.849 -9.89,-2.849 -9.419,-2.849 -8.982,-2.849 -8.572,-2.849 -8.192,-2.849 -7.835,-2.849 -7.503,-2.849 -7.19,-2.85 -6.896,-2.849 -6.62,-2.849 -6.361,-2.849 -6.116,-2.849 -5.885,-2.849 -5.667,-2.849 -5.462,-2.85 -5.265,-2.849 -5.082,-2.849 -4.906,-2.849 -4.74,-2.849 -4.582,-2.849 -4.431,-2.849 -4.289,-2.849 -4.153,-2.849 -4.022,-2.849 -3.899,-2.849 -3.781,-2.849 -3.668,-2.849 -3.56,-2.849 -3.457,-2.85 -3.358,-2.849 -3.264,-2.849 -3.173,-2.849 -3.086,-2.849 -3.002,-2.849 -2.923,-2.849 -2.845,-2.85 -2.772,-2.849 -2.701,-2.849 -2.632,-2.849 -2.566,-2.849 -2.504,-2.849 -2.442,-2.849 -2.383,-2.849 -2.326,-2.849 -2.272,-2.849 -2.219,-2.849 -2.167,-2.849 -2.119,-2.849 -2.071,-2.85 -2.025,-2.849 -1.98,-2.849 -1.938,-2.849 -1.896,-2.849 -1.855,-2.849 -1.816,-2.849 -1.779,-2.849 -1.742,-2.849 -1.706,-2.849 -1.672,-2.85 -1.638,-2.848 -1.606,-2.8499 -1.574,-2.8491 -1.544,-2.8491 -1.514,-2.849 -1.486,-2.8491 -1.457,-2.8491 -1.43,-2.849 -1.404,-2.8491 -1.377,-2.8491 -1.353,-2.8491 -1.328,-2.849 -1.305,-2.8491 -1.282,-2.8491 -1.259,-2.8491 -1.237,-2.849 -1.216,-2.8491 -1.195,-2.8491 -1.175,-2.849 -1.155,-2.8491"
               style="fill:none;stroke:#ff0000;stroke-width:0.533253;stroke-linecap:butt;stroke-linejoin:miter;stroke-miterlimit:1;stroke-dasharray:none;stroke-opacity:1"
               id="path1040" /></g><g
             id="g1042"
             transform="scale(7.81367)"><path
               d="m 16300,384.391 v 0 l -8109.89,-2.849 -2703.3,-2.849 -1351.65,-2.849 -810.99,-2.849 -540.66,-2.849 -386.19,-2.849 -289.64,-2.849 -225.27,-2.849 -180.22,-2.849 -147.45,-2.849 -122.88,-2.849 -103.97,-2.849 -89.12,-2.85 -77.24,-2.849 -67.58,-2.849 -59.63,-2.849 -53.011,-2.849 -47.425,-2.849 -42.684,-2.849 -38.619,-2.849 -35.108,-2.849 -32.055,-2.849 -29.383,-2.849 -27.033,-2.849 -24.954,-2.85 -23.105,-2.849 -21.455,-2.849 -19.975,-2.849 -18.643,-2.849 -17.441,-2.849 -16.35,-2.849 -15.36,-2.849 -14.456,-2.85 -13.63,-2.849 -12.873,-2.849 -12.177,-2.849 -11.536,-2.849 -10.945,-2.849 -10.397,-2.849 -9.89,-2.849 -9.419,-2.849 -8.982,-2.849 -8.572,-2.849 -8.192,-2.849 -7.835,-2.849 -7.503,-2.849 -7.19,-2.85 -6.896,-2.849 -6.62,-2.849 -6.361,-2.849 -6.116,-2.849 -5.885,-2.849 -5.667,-2.849 -5.462,-2.85 -5.265,-2.849 -5.082,-2.849 -4.906,-2.849 -4.74,-2.849 -4.582,-2.849 -4.431,-2.849 -4.289,-2.849 -4.153,-2.849 -4.022,-2.849 -3.899,-2.849 -3.781,-2.849 -3.668,-2.849 -3.56,-2.849 -3.457,-2.85 -3.358,-2.849 -3.264,-2.849 -3.173,-2.849 -3.086,-2.849 -3.002,-2.849 -2.923,-2.849 -2.845,-2.85 -2.772,-2.849 -2.701,-2.849 -2.632,-2.849 -2.566,-2.849 -2.504,-2.849 -2.442,-2.849 -2.383,-2.849 -2.326,-2.849 -2.272,-2.849 -2.219,-2.849 -2.167,-2.849 -2.119,-2.849 -2.071,-2.85 -2.025,-2.849 -1.98,-2.849 -1.938,-2.849 -1.896,-2.849 -1.855,-2.849 -1.816,-2.849 -1.779,-2.849 -1.742,-2.849 -1.706,-2.849 -1.672,-2.85 -1.638,-2.848 -1.606,-2.8499 -1.574,-2.8491 -1.544,-2.8491 -1.514,-2.849 -1.486,-2.8491 -1.457,-2.8491 -1.43,-2.849 -1.404,-2.8491 -1.377,-2.8491 -1.353,-2.8491 -1.328,-2.849 -1.305,-2.8491 -1.282,-2.8491 -1.259,-2.8491 -1.237,-2.849 -1.216,-2.8491 -1.195,-2.8491 -1.175,-2.849 -1.155,-2.8491"
               style="fill:none;stroke:#ff0000;stroke-width:0.533253;stroke-linecap:butt;stroke-linejoin:miter;stroke-miterlimit:1;stroke-dasharray:none;stroke-opacity:1"
               id="path1044" /></g><g
             id="g1046"
             transform="scale(7.81367)"><path
               d="m 16300,384.391 v 0 l -8109.89,-2.849 -2703.3,-2.849 -1351.65,-2.849 -810.99,-2.849 -540.66,-2.849 -386.19,-2.849 -289.64,-2.849 -225.27,-2.849 -180.22,-2.849 -147.45,-2.849 -122.88,-2.849 -103.97,-2.849 -89.12,-2.85 -77.24,-2.849 -67.58,-2.849 -59.63,-2.849 -53.011,-2.849 -47.425,-2.849 -42.684,-2.849 -38.619,-2.849 -35.108,-2.849 -32.055,-2.849 -29.383,-2.849 -27.033,-2.849 -24.954,-2.85 -23.105,-2.849 -21.455,-2.849 -19.975,-2.849 -18.643,-2.849 -17.441,-2.849 -16.35,-2.849 -15.36,-2.849 -14.456,-2.85 -13.63,-2.849 -12.873,-2.849 -12.177,-2.849 -11.536,-2.849 -10.945,-2.849 -10.397,-2.849 -9.89,-2.849 -9.419,-2.849 -8.982,-2.849 -8.572,-2.849 -8.192,-2.849 -7.835,-2.849 -7.503,-2.849 -7.19,-2.85 -6.896,-2.849 -6.62,-2.849 -6.361,-2.849 -6.116,-2.849 -5.885,-2.849 -5.667,-2.849 -5.462,-2.85 -5.265,-2.849 -5.082,-2.849 -4.906,-2.849 -4.74,-2.849 -4.582,-2.849 -4.431,-2.849 -4.289,-2.849 -4.153,-2.849 -4.022,-2.849 -3.899,-2.849 -3.781,-2.849 -3.668,-2.849 -3.56,-2.849 -3.457,-2.85 -3.358,-2.849 -3.264,-2.849 -3.173,-2.849 -3.086,-2.849 -3.002,-2.849 -2.923,-2.849 -2.845,-2.85 -2.772,-2.849 -2.701,-2.849 -2.632,-2.849 -2.566,-2.849 -2.504,-2.849 -2.442,-2.849 -2.383,-2.849 -2.326,-2.849 -2.272,-2.849 -2.219,-2.849 -2.167,-2.849 -2.119,-2.849 -2.071,-2.85 -2.025,-2.849 -1.98,-2.849 -1.938,-2.849 -1.896,-2.849 -1.855,-2.849 -1.816,-2.849 -1.779,-2.849 -1.742,-2.849 -1.706,-2.849 -1.672,-2.85 -1.638,-2.848 -1.606,-2.8499 -1.574,-2.8491 -1.544,-2.8491 -1.514,-2.849 -1.486,-2.8491 -1.457,-2.8491 -1.43,-2.849 -1.404,-2.8491 -1.377,-2.8491 -1.353,-2.8491 -1.328,-2.849 -1.305,-2.8491 -1.282,-2.8491 -1.259,-2.8491 -1.237,-2.849 -1.216,-2.8491 -1.195,-2.8491 -1.175,-2.849 -1.155,-2.8491"
               style="fill:none;stroke:#ff0000;stroke-width:0.533253;stroke-linecap:butt;stroke-linejoin:miter;stroke-miterlimit:1;stroke-dasharray:none;stroke-opacity:1"
               id="path1048" /></g><g
             id="g1050"
             transform="scale(7.81367)"><path
               d="m 16300,384.391 v 0 l -8109.89,-2.849 -2703.3,-2.849 -1351.65,-2.849 -810.99,-2.849 -540.66,-2.849 -386.19,-2.849 -289.64,-2.849 -225.27,-2.849 -180.22,-2.849 -147.45,-2.849 -122.88,-2.849 -103.97,-2.849 -89.12,-2.85 -77.24,-2.849 -67.58,-2.849 -59.63,-2.849 -53.011,-2.849 -47.425,-2.849 -42.684,-2.849 -38.619,-2.849 -35.108,-2.849 -32.055,-2.849 -29.383,-2.849 -27.033,-2.849 -24.954,-2.85 -23.105,-2.849 -21.455,-2.849 -19.975,-2.849 -18.643,-2.849 -17.441,-2.849 -16.35,-2.849 -15.36,-2.849 -14.456,-2.85 -13.63,-2.849 -12.873,-2.849 -12.177,-2.849 -11.536,-2.849 -10.945,-2.849 -10.397,-2.849 -9.89,-2.849 -9.419,-2.849 -8.982,-2.849 -8.572,-2.849 -8.192,-2.849 -7.835,-2.849 -7.503,-2.849 -7.19,-2.85 -6.896,-2.849 -6.62,-2.849 -6.361,-2.849 -6.116,-2.849 -5.885,-2.849 -5.667,-2.849 -5.462,-2.85 -5.265,-2.849 -5.082,-2.849 -4.906,-2.849 -4.74,-2.849 -4.582,-2.849 -4.431,-2.849 -4.289,-2.849 -4.153,-2.849 -4.022,-2.849 -3.899,-2.849 -3.781,-2.849 -3.668,-2.849 -3.56,-2.849 -3.457,-2.85 -3.358,-2.849 -3.264,-2.849 -3.173,-2.849 -3.086,-2.849 -3.002,-2.849 -2.923,-2.849 -2.845,-2.85 -2.772,-2.849 -2.701,-2.849 -2.632,-2.849 -2.566,-2.849 -2.504,-2.849 -2.442,-2.849 -2.383,-2.849 -2.326,-2.849 -2.272,-2.849 -2.219,-2.849 -2.167,-2.849 -2.119,-2.849 -2.071,-2.85 -2.025,-2.849 -1.98,-2.849 -1.938,-2.849 -1.896,-2.849 -1.855,-2.849 -1.816,-2.849 -1.779,-2.849 -1.742,-2.849 -1.706,-2.849 -1.672,-2.85 -1.638,-2.848 -1.606,-2.8499 -1.574,-2.8491 -1.544,-2.8491 -1.514,-2.849 -1.486,-2.8491 -1.457,-2.8491 -1.43,-2.849 -1.404,-2.8491 -1.377,-2.8491 -1.353,-2.8491 -1.328,-2.849 -1.305,-2.8491 -1.282,-2.8491 -1.259,-2.8491 -1.237,-2.849 -1.216,-2.8491 -1.195,-2.8491 -1.175,-2.849 -1.155,-2.8491"
               style="fill:none;stroke:#ff0000;stroke-width:0.533253;stroke-linecap:butt;stroke-linejoin:miter;stroke-miterlimit:1;stroke-dasharray:none;stroke-opacity:1"
               id="path1052" /></g><g
             id="g1054"
             transform="scale(7.81367)"><path
               d="m 16300,384.391 v 0 l -8109.89,-2.849 -2703.3,-2.849 -1351.65,-2.849 -810.99,-2.849 -540.66,-2.849 -386.19,-2.849 -289.64,-2.849 -225.27,-2.849 -180.22,-2.849 -147.45,-2.849 -122.88,-2.849 -103.97,-2.849 -89.12,-2.85 -77.24,-2.849 -67.58,-2.849 -59.63,-2.849 -53.011,-2.849 -47.425,-2.849 -42.684,-2.849 -38.619,-2.849 -35.108,-2.849 -32.055,-2.849 -29.383,-2.849 -27.033,-2.849 -24.954,-2.85 -23.105,-2.849 -21.455,-2.849 -19.975,-2.849 -18.643,-2.849 -17.441,-2.849 -16.35,-2.849 -15.36,-2.849 -14.456,-2.85 -13.63,-2.849 -12.873,-2.849 -12.177,-2.849 -11.536,-2.849 -10.945,-2.849 -10.397,-2.849 -9.89,-2.849 -9.419,-2.849 -8.982,-2.849 -8.572,-2.849 -8.192,-2.849 -7.835,-2.849 -7.503,-2.849 -7.19,-2.85 -6.896,-2.849 -6.62,-2.849 -6.361,-2.849 -6.116,-2.849 -5.885,-2.849 -5.667,-2.849 -5.462,-2.85 -5.265,-2.849 -5.082,-2.849 -4.906,-2.849 -4.74,-2.849 -4.582,-2.849 -4.431,-2.849 -4.289,-2.849 -4.153,-2.849 -4.022,-2.849 -3.899,-2.849 -3.781,-2.849 -3.668,-2.849 -3.56,-2.849 -3.457,-2.85 -3.358,-2.849 -3.264,-2.849 -3.173,-2.849 -3.086,-2.849 -3.002,-2.849 -2.923,-2.849 -2.845,-2.85 -2.772,-2.849 -2.701,-2.849 -2.632,-2.849 -2.566,-2.849 -2.504,-2.849 -2.442,-2.849 -2.383,-2.849 -2.326,-2.849 -2.272,-2.849 -2.219,-2.849 -2.167,-2.849 -2.119,-2.849 -2.071,-2.85 -2.025,-2.849 -1.98,-2.849 -1.938,-2.849 -1.896,-2.849 -1.855,-2.849 -1.816,-2.849 -1.779,-2.849 -1.742,-2.849 -1.706,-2.849 -1.672,-2.85 -1.638,-2.848 -1.606,-2.8499 -1.574,-2.8491 -1.544,-2.8491 -1.514,-2.849 -1.486,-2.8491 -1.457,-2.8491 -1.43,-2.849 -1.404,-2.8491 -1.377,-2.8491 -1.353,-2.8491 -1.328,-2.849 -1.305,-2.8491 -1.282,-2.8491 -1.259,-2.8491 -1.237,-2.849 -1.216,-2.8491 -1.195,-2.8491 -1.175,-2.849 -1.155,-2.8491"
               style="fill:none;stroke:#ff0000;stroke-width:0.533253;stroke-linecap:butt;stroke-linejoin:miter;stroke-miterlimit:1;stroke-dasharray:none;stroke-opacity:1"
               id="path1056" /></g><g
             id="g1058"
             transform="scale(7.81367)"><path
               d="m 16300,384.391 v 0 l -8109.89,-2.849 -2703.3,-2.849 -1351.65,-2.849 -810.99,-2.849 -540.66,-2.849 -386.19,-2.849 -289.64,-2.849 -225.27,-2.849 -180.22,-2.849 -147.45,-2.849 -122.88,-2.849 -103.97,-2.849 -89.12,-2.85 -77.24,-2.849 -67.58,-2.849 -59.63,-2.849 -53.011,-2.849 -47.425,-2.849 -42.684,-2.849 -38.619,-2.849 -35.108,-2.849 -32.055,-2.849 -29.383,-2.849 -27.033,-2.849 -24.954,-2.85 -23.105,-2.849 -21.455,-2.849 -19.975,-2.849 -18.643,-2.849 -17.441,-2.849 -16.35,-2.849 -15.36,-2.849 -14.456,-2.85 -13.63,-2.849 -12.873,-2.849 -12.177,-2.849 -11.536,-2.849 -10.945,-2.849 -10.397,-2.849 -9.89,-2.849 -9.419,-2.849 -8.982,-2.849 -8.572,-2.849 -8.192,-2.849 -7.835,-2.849 -7.503,-2.849 -7.19,-2.85 -6.896,-2.849 -6.62,-2.849 -6.361,-2.849 -6.116,-2.849 -5.885,-2.849 -5.667,-2.849 -5.462,-2.85 -5.265,-2.849 -5.082,-2.849 -4.906,-2.849 -4.74,-2.849 -4.582,-2.849 -4.431,-2.849 -4.289,-2.849 -4.153,-2.849 -4.022,-2.849 -3.899,-2.849 -3.781,-2.849 -3.668,-2.849 -3.56,-2.849 -3.457,-2.85 -3.358,-2.849 -3.264,-2.849 -3.173,-2.849 -3.086,-2.849 -3.002,-2.849 -2.923,-2.849 -2.845,-2.85 -2.772,-2.849 -2.701,-2.849 -2.632,-2.849 -2.566,-2.849 -2.504,-2.849 -2.442,-2.849 -2.383,-2.849 -2.326,-2.849 -2.272,-2.849 -2.219,-2.849 -2.167,-2.849 -2.119,-2.849 -2.071,-2.85 -2.025,-2.849 -1.98,-2.849 -1.938,-2.849 -1.896,-2.849 -1.855,-2.849 -1.816,-2.849 -1.779,-2.849 -1.742,-2.849 -1.706,-2.849 -1.672,-2.85 -1.638,-2.848 -1.606,-2.8499 -1.574,-2.8491 -1.544,-2.8491 -1.514,-2.849 -1.486,-2.8491 -1.457,-2.8491 -1.43,-2.849 -1.404,-2.8491 -1.377,-2.8491 -1.353,-2.8491 -1.328,-2.849 -1.305,-2.8491 -1.282,-2.8491 -1.259,-2.8491 -1.237,-2.849 -1.216,-2.8491 -1.195,-2.8491 -1.175,-2.849 -1.155,-2.8491"
               style="fill:none;stroke:#ff0000;stroke-width:0.533253;stroke-linecap:butt;stroke-linejoin:miter;stroke-miterlimit:1;stroke-dasharray:none;stroke-opacity:1"
               id="path1060" /></g><g
             id="g1062"
             transform="scale(7.81367)"><path
               d="m 16300,384.391 v 0 l -8109.89,-2.849 -2703.3,-2.849 -1351.65,-2.849 -810.99,-2.849 -540.66,-2.849 -386.19,-2.849 -289.64,-2.849 -225.27,-2.849 -180.22,-2.849 -147.45,-2.849 -122.88,-2.849 -103.97,-2.849 -89.12,-2.85 -77.24,-2.849 -67.58,-2.849 -59.63,-2.849 -53.011,-2.849 -47.425,-2.849 -42.684,-2.849 -38.619,-2.849 -35.108,-2.849 -32.055,-2.849 -29.383,-2.849 -27.033,-2.849 -24.954,-2.85 -23.105,-2.849 -21.455,-2.849 -19.975,-2.849 -18.643,-2.849 -17.441,-2.849 -16.35,-2.849 -15.36,-2.849 -14.456,-2.85 -13.63,-2.849 -12.873,-2.849 -12.177,-2.849 -11.536,-2.849 -10.945,-2.849 -10.397,-2.849 -9.89,-2.849 -9.419,-2.849 -8.982,-2.849 -8.572,-2.849 -8.192,-2.849 -7.835,-2.849 -7.503,-2.849 -7.19,-2.85 -6.896,-2.849 -6.62,-2.849 -6.361,-2.849 -6.116,-2.849 -5.885,-2.849 -5.667,-2.849 -5.462,-2.85 -5.265,-2.849 -5.082,-2.849 -4.906,-2.849 -4.74,-2.849 -4.582,-2.849 -4.431,-2.849 -4.289,-2.849 -4.153,-2.849 -4.022,-2.849 -3.899,-2.849 -3.781,-2.849 -3.668,-2.849 -3.56,-2.849 -3.457,-2.85 -3.358,-2.849 -3.264,-2.849 -3.173,-2.849 -3.086,-2.849 -3.002,-2.849 -2.923,-2.849 -2.845,-2.85 -2.772,-2.849 -2.701,-2.849 -2.632,-2.849 -2.566,-2.849 -2.504,-2.849 -2.442,-2.849 -2.383,-2.849 -2.326,-2.849 -2.272,-2.849 -2.219,-2.849 -2.167,-2.849 -2.119,-2.849 -2.071,-2.85 -2.025,-2.849 -1.98,-2.849 -1.938,-2.849 -1.896,-2.849 -1.855,-2.849 -1.816,-2.849 -1.779,-2.849 -1.742,-2.849 -1.706,-2.849 -1.672,-2.85 -1.638,-2.848 -1.606,-2.8499 -1.574,-2.8491 -1.544,-2.8491 -1.514,-2.849 -1.486,-2.8491 -1.457,-2.8491 -1.43,-2.849 -1.404,-2.8491 -1.377,-2.8491 -1.353,-2.8491 -1.328,-2.849 -1.305,-2.8491 -1.282,-2.8491 -1.259,-2.8491 -1.237,-2.849 -1.216,-2.8491 -1.195,-2.8491 -1.175,-2.849 -1.155,-2.8491"
               style="fill:none;stroke:#ff0000;stroke-width:0.533253;stroke-linecap:butt;stroke-linejoin:miter;stroke-miterlimit:1;stroke-dasharray:none;stroke-opacity:1"
               id="path1064" /></g><g
             id="g1066"
             transform="scale(7.81367)"><path
               d="m 16300,384.391 v 0 l -8109.89,-2.849 -2703.3,-2.849 -1351.65,-2.849 -810.99,-2.849 -540.66,-2.849 -386.19,-2.849 -289.64,-2.849 -225.27,-2.849 -180.22,-2.849 -147.45,-2.849 -122.88,-2.849 -103.97,-2.849 -89.12,-2.85 -77.24,-2.849 -67.58,-2.849 -59.63,-2.849 -53.011,-2.849 -47.425,-2.849 -42.684,-2.849 -38.619,-2.849 -35.108,-2.849 -32.055,-2.849 -29.383,-2.849 -27.033,-2.849 -24.954,-2.85 -23.105,-2.849 -21.455,-2.849 -19.975,-2.849 -18.643,-2.849 -17.441,-2.849 -16.35,-2.849 -15.36,-2.849 -14.456,-2.85 -13.63,-2.849 -12.873,-2.849 -12.177,-2.849 -11.536,-2.849 -10.945,-2.849 -10.397,-2.849 -9.89,-2.849 -9.419,-2.849 -8.982,-2.849 -8.572,-2.849 -8.192,-2.849 -7.835,-2.849 -7.503,-2.849 -7.19,-2.85 -6.896,-2.849 -6.62,-2.849 -6.361,-2.849 -6.116,-2.849 -5.885,-2.849 -5.667,-2.849 -5.462,-2.85 -5.265,-2.849 -5.082,-2.849 -4.906,-2.849 -4.74,-2.849 -4.582,-2.849 -4.431,-2.849 -4.289,-2.849 -4.153,-2.849 -4.022,-2.849 -3.899,-2.849 -3.781,-2.849 -3.668,-2.849 -3.56,-2.849 -3.457,-2.85 -3.358,-2.849 -3.264,-2.849 -3.173,-2.849 -3.086,-2.849 -3.002,-2.849 -2.923,-2.849 -2.845,-2.85 -2.772,-2.849 -2.701,-2.849 -2.632,-2.849 -2.566,-2.849 -2.504,-2.849 -2.442,-2.849 -2.383,-2.849 -2.326,-2.849 -2.272,-2.849 -2.219,-2.849 -2.167,-2.849 -2.119,-2.849 -2.071,-2.85 -2.025,-2.849 -1.98,-2.849 -1.938,-2.849 -1.896,-2.849 -1.855,-2.849 -1.816,-2.849 -1.779,-2.849 -1.742,-2.849 -1.706,-2.849 -1.672,-2.85 -1.638,-2.848 -1.606,-2.8499 -1.574,-2.8491 -1.544,-2.8491 -1.514,-2.849 -1.486,-2.8491 -1.457,-2.8491 -1.43,-2.849 -1.404,-2.8491 -1.377,-2.8491 -1.353,-2.8491 -1.328,-2.849 -1.305,-2.8491 -1.282,-2.8491 -1.259,-2.8491 -1.237,-2.849 -1.216,-2.8491 -1.195,-2.8491 -1.175,-2.849 -1.155,-2.8491"
               style="fill:none;stroke:#ff0000;stroke-width:0.533253;stroke-linecap:butt;stroke-linejoin:miter;stroke-miterlimit:1;stroke-dasharray:none;stroke-opacity:1"
               id="path1068" /></g><g
             id="g1070"
             transform="scale(7.81367)"><path
               d="m 16300,384.391 v 0 l -8109.89,-2.849 -2703.3,-2.849 -1351.65,-2.849 -810.99,-2.849 -540.66,-2.849 -386.19,-2.849 -289.64,-2.849 -225.27,-2.849 -180.22,-2.849 -147.45,-2.849 -122.88,-2.849 -103.97,-2.849 -89.12,-2.85 -77.24,-2.849 -67.58,-2.849 -59.63,-2.849 -53.011,-2.849 -47.425,-2.849 -42.684,-2.849 -38.619,-2.849 -35.108,-2.849 -32.055,-2.849 -29.383,-2.849 -27.033,-2.849 -24.954,-2.85 -23.105,-2.849 -21.455,-2.849 -19.975,-2.849 -18.643,-2.849 -17.441,-2.849 -16.35,-2.849 -15.36,-2.849 -14.456,-2.85 -13.63,-2.849 -12.873,-2.849 -12.177,-2.849 -11.536,-2.849 -10.945,-2.849 -10.397,-2.849 -9.89,-2.849 -9.419,-2.849 -8.982,-2.849 -8.572,-2.849 -8.192,-2.849 -7.835,-2.849 -7.503,-2.849 -7.19,-2.85 -6.896,-2.849 -6.62,-2.849 -6.361,-2.849 -6.116,-2.849 -5.885,-2.849 -5.667,-2.849 -5.462,-2.85 -5.265,-2.849 -5.082,-2.849 -4.906,-2.849 -4.74,-2.849 -4.582,-2.849 -4.431,-2.849 -4.289,-2.849 -4.153,-2.849 -4.022,-2.849 -3.899,-2.849 -3.781,-2.849 -3.668,-2.849 -3.56,-2.849 -3.457,-2.85 -3.358,-2.849 -3.264,-2.849 -3.173,-2.849 -3.086,-2.849 -3.002,-2.849 -2.923,-2.849 -2.845,-2.85 -2.772,-2.849 -2.701,-2.849 -2.632,-2.849 -2.566,-2.849 -2.504,-2.849 -2.442,-2.849 -2.383,-2.849 -2.326,-2.849 -2.272,-2.849 -2.219,-2.849 -2.167,-2.849 -2.119,-2.849 -2.071,-2.85 -2.025,-2.849 -1.98,-2.849 -1.938,-2.849 -1.896,-2.849 -1.855,-2.849 -1.816,-2.849 -1.779,-2.849 -1.742,-2.849 -1.706,-2.849 -1.672,-2.85 -1.638,-2.848 -1.606,-2.8499 -1.574,-2.8491 -1.544,-2.8491 -1.514,-2.849 -1.486,-2.8491 -1.457,-2.8491 -1.43,-2.849 -1.404,-2.8491 -1.377,-2.8491 -1.353,-2.8491 -1.328,-2.849 -1.305,-2.8491 -1.282,-2.8491 -1.259,-2.8491 -1.237,-2.849 -1.216,-2.8491 -1.195,-2.8491 -1.175,-2.849 -1.155,-2.8491"
               style="fill:none;stroke:#ff0000;stroke-width:0.533253;stroke-linecap:butt;stroke-linejoin:miter;stroke-miterlimit:1;stroke-dasharray:none;stroke-opacity:1"
               id="path1072" /></g><g
             id="g1074"
             transform="scale(7.81367)"><path
               d="m 16300,384.391 v 0 l -8109.89,-2.849 -2703.3,-2.849 -1351.65,-2.849 -810.99,-2.849 -540.66,-2.849 -386.19,-2.849 -289.64,-2.849 -225.27,-2.849 -180.22,-2.849 -147.45,-2.849 -122.88,-2.849 -103.97,-2.849 -89.12,-2.85 -77.24,-2.849 -67.58,-2.849 -59.63,-2.849 -53.011,-2.849 -47.425,-2.849 -42.684,-2.849 -38.619,-2.849 -35.108,-2.849 -32.055,-2.849 -29.383,-2.849 -27.033,-2.849 -24.954,-2.85 -23.105,-2.849 -21.455,-2.849 -19.975,-2.849 -18.643,-2.849 -17.441,-2.849 -16.35,-2.849 -15.36,-2.849 -14.456,-2.85 -13.63,-2.849 -12.873,-2.849 -12.177,-2.849 -11.536,-2.849 -10.945,-2.849 -10.397,-2.849 -9.89,-2.849 -9.419,-2.849 -8.982,-2.849 -8.572,-2.849 -8.192,-2.849 -7.835,-2.849 -7.503,-2.849 -7.19,-2.85 -6.896,-2.849 -6.62,-2.849 -6.361,-2.849 -6.116,-2.849 -5.885,-2.849 -5.667,-2.849 -5.462,-2.85 -5.265,-2.849 -5.082,-2.849 -4.906,-2.849 -4.74,-2.849 -4.582,-2.849 -4.431,-2.849 -4.289,-2.849 -4.153,-2.849 -4.022,-2.849 -3.899,-2.849 -3.781,-2.849 -3.668,-2.849 -3.56,-2.849 -3.457,-2.85 -3.358,-2.849 -3.264,-2.849 -3.173,-2.849 -3.086,-2.849 -3.002,-2.849 -2.923,-2.849 -2.845,-2.85 -2.772,-2.849 -2.701,-2.849 -2.632,-2.849 -2.566,-2.849 -2.504,-2.849 -2.442,-2.849 -2.383,-2.849 -2.326,-2.849 -2.272,-2.849 -2.219,-2.849 -2.167,-2.849 -2.119,-2.849 -2.071,-2.85 -2.025,-2.849 -1.98,-2.849 -1.938,-2.849 -1.896,-2.849 -1.855,-2.849 -1.816,-2.849 -1.779,-2.849 -1.742,-2.849 -1.706,-2.849 -1.672,-2.85 -1.638,-2.848 -1.606,-2.8499 -1.574,-2.8491 -1.544,-2.8491 -1.514,-2.849 -1.486,-2.8491 -1.457,-2.8491 -1.43,-2.849 -1.404,-2.8491 -1.377,-2.8491 -1.353,-2.8491 -1.328,-2.849 -1.305,-2.8491 -1.282,-2.8491 -1.259,-2.8491 -1.237,-2.849 -1.216,-2.8491 -1.195,-2.8491 -1.175,-2.849 -1.155,-2.8491"
               style="fill:none;stroke:#ff0000;stroke-width:0.533253;stroke-linecap:butt;stroke-linejoin:miter;stroke-miterlimit:1;stroke-dasharray:none;stroke-opacity:1"
               id="path1076" /></g><g
             id="g1078"
             transform="scale(7.81367)"><path
               d="m 16300,384.391 v 0 l -8109.89,-2.849 -2703.3,-2.849 -1351.65,-2.849 -810.99,-2.849 -540.66,-2.849 -386.19,-2.849 -289.64,-2.849 -225.27,-2.849 -180.22,-2.849 -147.45,-2.849 -122.88,-2.849 -103.97,-2.849 -89.12,-2.85 -77.24,-2.849 -67.58,-2.849 -59.63,-2.849 -53.011,-2.849 -47.425,-2.849 -42.684,-2.849 -38.619,-2.849 -35.108,-2.849 -32.055,-2.849 -29.383,-2.849 -27.033,-2.849 -24.954,-2.85 -23.105,-2.849 -21.455,-2.849 -19.975,-2.849 -18.643,-2.849 -17.441,-2.849 -16.35,-2.849 -15.36,-2.849 -14.456,-2.85 -13.63,-2.849 -12.873,-2.849 -12.177,-2.849 -11.536,-2.849 -10.945,-2.849 -10.397,-2.849 -9.89,-2.849 -9.419,-2.849 -8.982,-2.849 -8.572,-2.849 -8.192,-2.849 -7.835,-2.849 -7.503,-2.849 -7.19,-2.85 -6.896,-2.849 -6.62,-2.849 -6.361,-2.849 -6.116,-2.849 -5.885,-2.849 -5.667,-2.849 -5.462,-2.85 -5.265,-2.849 -5.082,-2.849 -4.906,-2.849 -4.74,-2.849 -4.582,-2.849 -4.431,-2.849 -4.289,-2.849 -4.153,-2.849 -4.022,-2.849 -3.899,-2.849 -3.781,-2.849 -3.668,-2.849 -3.56,-2.849 -3.457,-2.85 -3.358,-2.849 -3.264,-2.849 -3.173,-2.849 -3.086,-2.849 -3.002,-2.849 -2.923,-2.849 -2.845,-2.85 -2.772,-2.849 -2.701,-2.849 -2.632,-2.849 -2.566,-2.849 -2.504,-2.849 -2.442,-2.849 -2.383,-2.849 -2.326,-2.849 -2.272,-2.849 -2.219,-2.849 -2.167,-2.849 -2.119,-2.849 -2.071,-2.85 -2.025,-2.849 -1.98,-2.849 -1.938,-2.849 -1.896,-2.849 -1.855,-2.849 -1.816,-2.849 -1.779,-2.849 -1.742,-2.849 -1.706,-2.849 -1.672,-2.85 -1.638,-2.848 -1.606,-2.8499 -1.574,-2.8491 -1.544,-2.8491 -1.514,-2.849 -1.486,-2.8491 -1.457,-2.8491 -1.43,-2.849 -1.404,-2.8491 -1.377,-2.8491 -1.353,-2.8491 -1.328,-2.849 -1.305,-2.8491 -1.282,-2.8491 -1.259,-2.8491 -1.237,-2.849 -1.216,-2.8491 -1.195,-2.8491 -1.175,-2.849 -1.155,-2.8491 -1.136,-2.8491"
               style="fill:none;stroke:#ff0000;stroke-width:0.533253;stroke-linecap:butt;stroke-linejoin:miter;stroke-miterlimit:1;stroke-dasharray:none;stroke-opacity:1"
               id="path1080" /></g></g></g></g></g></svg>
