<?xml version="1.0" encoding="UTF-8" standalone="no"?>
<svg
   xmlns:dc="http://purl.org/dc/elements/1.1/"
   xmlns:cc="http://creativecommons.org/ns#"
   xmlns:rdf="http://www.w3.org/1999/02/22-rdf-syntax-ns#"
   xmlns:svg="http://www.w3.org/2000/svg"
   xmlns="http://www.w3.org/2000/svg"
   version="1.1"
   id="svg10"
   xml:space="preserve"
   width="737.00885"
   height="290.73672"
   viewBox="0 0 884.4106 348.88407"><metadata
     id="metadata16"><rdf:RDF><cc:Work
         rdf:about=""><dc:format>image/svg+xml</dc:format><dc:type
           rdf:resource="http://purl.org/dc/dcmitype/StillImage" /><dc:title></dc:title></cc:Work></rdf:RDF></metadata><defs
     id="defs14"><clipPath
       clipPathUnits="userSpaceOnUse"
       id="clipPath28"><path
         d="m 375,299.582 h 1729.17 v 2908.34 H 375 Z"
         id="path26" /></clipPath></defs><g
     id="g18"
     transform="matrix(0,-1.3333333,-1.3333333,0,1001.7801,557.81865)"><g
       id="g20"
       transform="scale(0.24)"><g
         id="g22"><g
           id="g24"
           clip-path="url(#clipPath28)"><path
             d="m 1090.45,989.793 -19.54,19.527"
             style="fill:none;stroke:#ffffff;stroke-width:4.16667;stroke-linecap:butt;stroke-linejoin:miter;stroke-miterlimit:10;stroke-dasharray:none;stroke-opacity:1"
             id="path30" /><path
             d="m 1041.62,940.965 48.83,48.828"
             style="fill:none;stroke:#ffffff;stroke-width:4.16667;stroke-linecap:butt;stroke-linejoin:miter;stroke-miterlimit:10;stroke-dasharray:none;stroke-opacity:1"
             id="path32" /><path
             d="m 1041.62,940.965 29.29,68.355"
             style="fill:none;stroke:#ffffff;stroke-width:4.16667;stroke-linecap:butt;stroke-linejoin:miter;stroke-miterlimit:10;stroke-dasharray:none;stroke-opacity:1"
             id="path34" /><path
             d="m 1080.68,999.559 39.06,58.591"
             style="fill:none;stroke:#ffffff;stroke-width:4.16667;stroke-linecap:butt;stroke-linejoin:miter;stroke-miterlimit:10;stroke-dasharray:none;stroke-opacity:1"
             id="path36" /><path
             d="m 1080.68,1058.15 h 156.25"
             style="fill:none;stroke:#ffffff;stroke-width:4.16667;stroke-linecap:butt;stroke-linejoin:miter;stroke-miterlimit:10;stroke-dasharray:none;stroke-opacity:1"
             id="path38" /><path
             d="m 1197.87,1058.15 78.12,-117.185"
             style="fill:none;stroke:#ffffff;stroke-width:4.16667;stroke-linecap:butt;stroke-linejoin:miter;stroke-miterlimit:10;stroke-dasharray:none;stroke-opacity:1"
             id="path40" /><path
             d="m 1158.8,1058.15 v 39.06"
             style="fill:none;stroke:#ffffff;stroke-width:4.16667;stroke-linecap:butt;stroke-linejoin:miter;stroke-miterlimit:10;stroke-dasharray:none;stroke-opacity:1"
             id="path42" /><g
             id="g44"
             transform="scale(4.16667)"><text
               transform="matrix(0,-1,-1,0,282.988,230.519)"
               style="font-variant:normal;font-weight:normal;font-size:12.8908px;font-family:Geneva;-inkscape-font-specification:Geneva;writing-mode:lr-tb;fill:#999999;fill-opacity:1;fill-rule:nonzero;stroke:none"
               id="text50"><tspan
                 x="0 9.4734488"
                 y="0"
                 id="tspan46">Q1</tspan><tspan
                 x="0 8.2011271 16.595631 25.183468 33.771317 42.359154"
                 y="21.0938"
                 id="tspan48">BC549C</tspan></text></g><path
             d="m 1266.23,3069.89 v -39.06"
             style="fill:none;stroke:#ffffff;stroke-width:4.16667;stroke-linecap:butt;stroke-linejoin:miter;stroke-miterlimit:10;stroke-dasharray:none;stroke-opacity:1"
             id="path52" /><path
             d="m 1168.57,3069.89 v -39.06"
             style="fill:none;stroke:#ffffff;stroke-width:4.16667;stroke-linecap:butt;stroke-linejoin:miter;stroke-miterlimit:10;stroke-dasharray:none;stroke-opacity:1"
             id="path54" /><path
             d="M 1285.76,3050.36 H 1246.7"
             style="fill:none;stroke:#ffffff;stroke-width:4.16667;stroke-linecap:butt;stroke-linejoin:miter;stroke-miterlimit:10;stroke-dasharray:none;stroke-opacity:1"
             id="path56" /><path
             d="m 1119.74,3050.36 h 19.53"
             style="fill:none;stroke:#ffffff;stroke-width:4.16667;stroke-linecap:butt;stroke-linejoin:miter;stroke-miterlimit:10;stroke-dasharray:none;stroke-opacity:1"
             id="path58" /><path
             d="m 1315.05,3050.36 h -19.53"
             style="fill:none;stroke:#ffffff;stroke-width:4.16667;stroke-linecap:butt;stroke-linejoin:miter;stroke-miterlimit:10;stroke-dasharray:none;stroke-opacity:1"
             id="path60" /><path
             d="m 1272.64,2995.12 c -30.51,-30.51 -79.98,-30.51 -110.48,0 -30.52,30.51 -30.52,79.98 0,110.49 30.5,30.51 79.97,30.51 110.48,0 30.51,-30.51 30.51,-79.98 0,-110.49"
             style="fill:none;stroke:#ffffff;stroke-width:4.16667;stroke-linecap:butt;stroke-linejoin:miter;stroke-miterlimit:10;stroke-dasharray:none;stroke-opacity:1"
             id="path62" /><g
             id="g64"
             transform="scale(4.16667)"><text
               transform="matrix(0,-1,-1,0,311.113,718.025)"
               style="font-variant:normal;font-weight:normal;font-size:12.8908px;font-family:Geneva;-inkscape-font-specification:Geneva;writing-mode:lr-tb;fill:#999999;fill-opacity:1;fill-rule:nonzero;stroke:none"
               id="text70"><tspan
                 x="0 9.372901"
                 y="0"
                 id="tspan66">V2</tspan><tspan
                 x="0 8.5917187"
                 y="46.875"
                 id="tspan68">12</tspan></text></g><path
             d="m 1490.84,940.965 h 19.53"
             style="fill:none;stroke:#ffffff;stroke-width:4.16667;stroke-linecap:butt;stroke-linejoin:miter;stroke-miterlimit:10;stroke-dasharray:none;stroke-opacity:1"
             id="path72" /><path
             d="m 1476.19,899.461 14.65,41.504"
             style="fill:none;stroke:#ffffff;stroke-width:4.16667;stroke-linecap:butt;stroke-linejoin:miter;stroke-miterlimit:10;stroke-dasharray:none;stroke-opacity:1"
             id="path74" /><path
             d="m 1451.78,982.469 24.41,-83.008"
             style="fill:none;stroke:#ffffff;stroke-width:4.16667;stroke-linecap:butt;stroke-linejoin:miter;stroke-miterlimit:10;stroke-dasharray:none;stroke-opacity:1"
             id="path76" /><path
             d="m 1420.04,899.461 31.74,83.008"
             style="fill:none;stroke:#ffffff;stroke-width:4.16667;stroke-linecap:butt;stroke-linejoin:miter;stroke-miterlimit:10;stroke-dasharray:none;stroke-opacity:1"
             id="path78" /><path
             d="m 1393.18,980.027 26.86,-80.566"
             style="fill:none;stroke:#ffffff;stroke-width:4.16667;stroke-linecap:butt;stroke-linejoin:miter;stroke-miterlimit:10;stroke-dasharray:none;stroke-opacity:1"
             id="path80" /><path
             d="m 1354.12,940.965 h 19.53"
             style="fill:none;stroke:#ffffff;stroke-width:4.16667;stroke-linecap:butt;stroke-linejoin:miter;stroke-miterlimit:10;stroke-dasharray:none;stroke-opacity:1"
             id="path82" /><path
             d="m 1373.65,940.965 19.53,39.062"
             style="fill:none;stroke:#ffffff;stroke-width:4.16667;stroke-linecap:butt;stroke-linejoin:miter;stroke-miterlimit:10;stroke-dasharray:none;stroke-opacity:1"
             id="path84" /><g
             id="g86"
             transform="scale(4.16667)"><text
               transform="matrix(0,-1,-1,0,334.552,252.393)"
               style="font-variant:normal;font-weight:normal;font-size:12.8908px;font-family:Geneva;-inkscape-font-specification:Geneva;writing-mode:lr-tb;fill:#999999;fill-opacity:1;fill-rule:nonzero;stroke:none"
               id="text92"><tspan
                 x="0 7.8118248"
                 y="0"
                 id="tspan88">Rc</tspan><tspan
                 x="-10.9331 -2.3413818 6.2503657"
                 y="-11.7188"
                 id="tspan90">270</tspan></text></g><path
             d="m 1334.59,1253.47 h 19.53"
             style="fill:none;stroke:#ffffff;stroke-width:4.16667;stroke-linecap:butt;stroke-linejoin:miter;stroke-miterlimit:10;stroke-dasharray:none;stroke-opacity:1"
             id="path94" /><path
             d="m 1319.94,1211.96 14.65,41.51"
             style="fill:none;stroke:#ffffff;stroke-width:4.16667;stroke-linecap:butt;stroke-linejoin:miter;stroke-miterlimit:10;stroke-dasharray:none;stroke-opacity:1"
             id="path96" /><path
             d="m 1295.52,1294.97 24.42,-83.01"
             style="fill:none;stroke:#ffffff;stroke-width:4.16667;stroke-linecap:butt;stroke-linejoin:miter;stroke-miterlimit:10;stroke-dasharray:none;stroke-opacity:1"
             id="path98" /><path
             d="m 1263.79,1211.96 31.73,83.01"
             style="fill:none;stroke:#ffffff;stroke-width:4.16667;stroke-linecap:butt;stroke-linejoin:miter;stroke-miterlimit:10;stroke-dasharray:none;stroke-opacity:1"
             id="path100" /><path
             d="m 1236.93,1292.53 26.86,-80.57"
             style="fill:none;stroke:#ffffff;stroke-width:4.16667;stroke-linecap:butt;stroke-linejoin:miter;stroke-miterlimit:10;stroke-dasharray:none;stroke-opacity:1"
             id="path102" /><path
             d="m 1197.87,1253.47 h 19.53"
             style="fill:none;stroke:#ffffff;stroke-width:4.16667;stroke-linecap:butt;stroke-linejoin:miter;stroke-miterlimit:10;stroke-dasharray:none;stroke-opacity:1"
             id="path104" /><path
             d="m 1217.4,1253.47 19.53,39.06"
             style="fill:none;stroke:#ffffff;stroke-width:4.16667;stroke-linecap:butt;stroke-linejoin:miter;stroke-miterlimit:10;stroke-dasharray:none;stroke-opacity:1"
             id="path106" /><g
             id="g108"
             transform="scale(4.16667)"><text
               transform="matrix(0,-1,-1,0,297.051,336.816)"
               style="font-variant:normal;font-weight:normal;font-size:12.8908px;font-family:Geneva;-inkscape-font-specification:Geneva;writing-mode:lr-tb;fill:#999999;fill-opacity:1;fill-rule:nonzero;stroke:none"
               id="text114"><tspan
                 x="0 7.8118248 15.673923"
                 y="0"
                 id="tspan110">Rb1</tspan><tspan
                 x="-8.4468803 0.14483827 8.7365856 15.678252"
                 y="-11.7188"
                 id="tspan112">14k7</tspan></text></g><path
             d="m 1100.21,1253.47 h 19.53"
             style="fill:none;stroke:#ffffff;stroke-width:4.16667;stroke-linecap:butt;stroke-linejoin:miter;stroke-miterlimit:10;stroke-dasharray:none;stroke-opacity:1"
             id="path116" /><path
             d="m 1085.56,1211.96 14.65,41.51"
             style="fill:none;stroke:#ffffff;stroke-width:4.16667;stroke-linecap:butt;stroke-linejoin:miter;stroke-miterlimit:10;stroke-dasharray:none;stroke-opacity:1"
             id="path118" /><path
             d="m 1061.15,1294.97 24.41,-83.01"
             style="fill:none;stroke:#ffffff;stroke-width:4.16667;stroke-linecap:butt;stroke-linejoin:miter;stroke-miterlimit:10;stroke-dasharray:none;stroke-opacity:1"
             id="path120" /><path
             d="m 1029.41,1211.96 31.74,83.01"
             style="fill:none;stroke:#ffffff;stroke-width:4.16667;stroke-linecap:butt;stroke-linejoin:miter;stroke-miterlimit:10;stroke-dasharray:none;stroke-opacity:1"
             id="path122" /><path
             d="m 1002.55,1292.53 26.86,-80.57"
             style="fill:none;stroke:#ffffff;stroke-width:4.16667;stroke-linecap:butt;stroke-linejoin:miter;stroke-miterlimit:10;stroke-dasharray:none;stroke-opacity:1"
             id="path124" /><path
             d="M 963.488,1253.47 H 983.02"
             style="fill:none;stroke:#ffffff;stroke-width:4.16667;stroke-linecap:butt;stroke-linejoin:miter;stroke-miterlimit:10;stroke-dasharray:none;stroke-opacity:1"
             id="path126" /><path
             d="m 983.02,1253.47 19.53,39.06"
             style="fill:none;stroke:#ffffff;stroke-width:4.16667;stroke-linecap:butt;stroke-linejoin:miter;stroke-miterlimit:10;stroke-dasharray:none;stroke-opacity:1"
             id="path128" /><g
             id="g130"
             transform="scale(4.16667)"><text
               transform="matrix(0,-1,-1,0,240.801,336.816)"
               style="font-variant:normal;font-weight:normal;font-size:12.8908px;font-family:Geneva;-inkscape-font-specification:Geneva;writing-mode:lr-tb;fill:#999999;fill-opacity:1;fill-rule:nonzero;stroke:none"
               id="text136"><tspan
                 x="0 7.8118248 15.673923"
                 y="0"
                 id="tspan132">Rb2</tspan><tspan
                 x="0.144375 8.7360935 15.677789"
                 y="-11.7188"
                 id="tspan134">1k8</tspan></text></g><path
             d="m 943.957,940.965 h 19.531"
             style="fill:none;stroke:#ffffff;stroke-width:4.16667;stroke-linecap:butt;stroke-linejoin:miter;stroke-miterlimit:10;stroke-dasharray:none;stroke-opacity:1"
             id="path138" /><path
             d="m 929.309,899.461 14.648,41.504"
             style="fill:none;stroke:#ffffff;stroke-width:4.16667;stroke-linecap:butt;stroke-linejoin:miter;stroke-miterlimit:10;stroke-dasharray:none;stroke-opacity:1"
             id="path140" /><path
             d="m 904.895,982.469 24.414,-83.008"
             style="fill:none;stroke:#ffffff;stroke-width:4.16667;stroke-linecap:butt;stroke-linejoin:miter;stroke-miterlimit:10;stroke-dasharray:none;stroke-opacity:1"
             id="path142" /><path
             d="m 873.156,899.461 31.739,83.008"
             style="fill:none;stroke:#ffffff;stroke-width:4.16667;stroke-linecap:butt;stroke-linejoin:miter;stroke-miterlimit:10;stroke-dasharray:none;stroke-opacity:1"
             id="path144" /><path
             d="m 846.301,980.027 26.855,-80.566"
             style="fill:none;stroke:#ffffff;stroke-width:4.16667;stroke-linecap:butt;stroke-linejoin:miter;stroke-miterlimit:10;stroke-dasharray:none;stroke-opacity:1"
             id="path146" /><path
             d="M 807.238,940.965 H 826.77"
             style="fill:none;stroke:#ffffff;stroke-width:4.16667;stroke-linecap:butt;stroke-linejoin:miter;stroke-miterlimit:10;stroke-dasharray:none;stroke-opacity:1"
             id="path148" /><path
             d="m 826.77,940.965 19.531,39.062"
             style="fill:none;stroke:#ffffff;stroke-width:4.16667;stroke-linecap:butt;stroke-linejoin:miter;stroke-miterlimit:10;stroke-dasharray:none;stroke-opacity:1"
             id="path150" /><g
             id="g152"
             transform="scale(4.16667)"><text
               transform="matrix(0,-1,-1,0,203.3,252.783)"
               style="font-variant:normal;font-weight:normal;font-size:12.8908px;font-family:Geneva;-inkscape-font-specification:Geneva;writing-mode:lr-tb;fill:#999999;fill-opacity:1;fill-rule:nonzero;stroke:none"
               id="text158"><tspan
                 x="0 7.8118248"
                 y="0"
                 id="tspan154">Re</tspan><tspan
                 x="-1.95094 6.6407781"
                 y="-11.7188"
                 id="tspan156">33</tspan></text></g><path
             d="m 1041.62,3084.54 v -68.36 l -34.19,34.18 z"
             style="fill:none;stroke:#ffffff;stroke-width:4.16667;stroke-linecap:butt;stroke-linejoin:miter;stroke-miterlimit:10;stroke-dasharray:none;stroke-opacity:1"
             id="path160" /><path
             d="m 1354.12,3085.78 h 115.55 l 26.86,-35.42 -26.86,-35.41 h -115.55 z"
             style="fill:none;stroke:#ffffff;stroke-width:4.16667;stroke-linecap:butt;stroke-linejoin:miter;stroke-miterlimit:10;stroke-dasharray:none;stroke-opacity:1"
             id="path162" /><g
             id="g164"
             transform="scale(4.16667)"><text
               transform="matrix(1,0,0,-1,326.746,725.642)"
               style="font-variant:normal;font-weight:normal;font-size:12.8908px;font-family:Geneva;-inkscape-font-specification:Geneva;writing-mode:lr-tb;fill:#999999;fill-opacity:1;fill-rule:nonzero;stroke:none"
               id="text168"><tspan
                 x="0 9.3724909 16.397976"
                 y="0"
                 id="tspan166">Vcc</tspan></text></g><path
             d="m 1705.68,511.273 35.42,-26.855 V 368.863 h -70.83 v 115.555 z"
             style="fill:none;stroke:#ffffff;stroke-width:4.16667;stroke-linecap:butt;stroke-linejoin:miter;stroke-miterlimit:10;stroke-dasharray:none;stroke-opacity:1"
             id="path170" /><g
             id="g172"
             transform="scale(4.16667)"><text
               transform="matrix(0,-1,-1,0,404.864,116.26)"
               style="font-variant:normal;font-weight:normal;font-size:12.8908px;font-family:Geneva;-inkscape-font-specification:Geneva;writing-mode:lr-tb;fill:#999999;fill-opacity:1;fill-rule:nonzero;stroke:none"
               id="text176"><tspan
                 x="0 9.372901 16.399675"
                 y="0"
                 id="tspan174">Vcc</tspan></text></g><path
             d="m 690.051,975.145 v -68.36 l -34.184,34.18 z"
             style="fill:none;stroke:#ffffff;stroke-width:4.16667;stroke-linecap:butt;stroke-linejoin:miter;stroke-miterlimit:10;stroke-dasharray:none;stroke-opacity:1"
             id="path178" /><path
             d="m 1037.97,862.84 v -87.887 l -35.42,-26.855 -35.413,26.855 v 87.887 z"
             style="fill:none;stroke:#ffffff;stroke-width:4.16667;stroke-linecap:butt;stroke-linejoin:miter;stroke-miterlimit:10;stroke-dasharray:none;stroke-opacity:1"
             id="path180" /><g
             id="g182"
             transform="scale(4.16667)"><text
               transform="matrix(0,-1,-1,0,236.112,205.324)"
               style="font-variant:normal;font-weight:normal;font-size:12.8908px;font-family:Geneva;-inkscape-font-specification:Geneva;writing-mode:lr-tb;fill:#999999;fill-opacity:1;fill-rule:nonzero;stroke:none"
               id="text186"><tspan
                 x="0 9.372901"
                 y="0"
                 id="tspan184">Ve</tspan></text></g><path
             d="m 1350.47,862.84 v -86.258 l -35.42,-26.859 -35.41,26.859 v 86.258 z"
             style="fill:none;stroke:#ffffff;stroke-width:4.16667;stroke-linecap:butt;stroke-linejoin:miter;stroke-miterlimit:10;stroke-dasharray:none;stroke-opacity:1"
             id="path188" /><g
             id="g190"
             transform="scale(4.16667)"><text
               transform="matrix(0,-1,-1,0,311.113,205.324)"
               style="font-variant:normal;font-weight:normal;font-size:12.8908px;font-family:Geneva;-inkscape-font-specification:Geneva;writing-mode:lr-tb;fill:#999999;fill-opacity:1;fill-rule:nonzero;stroke:none"
               id="text194"><tspan
                 x="0 9.372901"
                 y="0"
                 id="tspan192">Vc</tspan></text></g><path
             d="m 1236.93,1171.7 h 89.72 l 26.86,-35.42 -26.86,-35.42 h -89.72 z"
             style="fill:none;stroke:#ffffff;stroke-width:4.16667;stroke-linecap:butt;stroke-linejoin:miter;stroke-miterlimit:10;stroke-dasharray:none;stroke-opacity:1"
             id="path196" /><g
             id="g198"
             transform="scale(4.16667)"><text
               transform="matrix(1,0,0,-1,298.621,266.261)"
               style="font-variant:normal;font-weight:normal;font-size:12.8908px;font-family:Geneva;-inkscape-font-specification:Geneva;writing-mode:lr-tb;fill:#999999;fill-opacity:1;fill-rule:nonzero;stroke:none"
               id="text202"><tspan
                 x="0 9.3716116"
                 y="0"
                 id="tspan200">Vb</tspan></text><text
               transform="matrix(0,-1,-1,0,297.051,652.399)"
               style="font-variant:normal;font-weight:normal;font-size:12.8908px;font-family:Geneva;-inkscape-font-specification:Geneva;writing-mode:lr-tb;fill:#999999;fill-opacity:1;fill-rule:nonzero;stroke:none"
               id="text228"><tspan
                 x="0 3.9084904 9.6242714 14.602698 21.733889 29.25573 33.554752 42.146469 46.445553 55.037212 63.628929 75.153305 79.452385 88.044106 96.635765"
                 y="0"
                 id="tspan204">.tran 0 60m 50m</tspan><tspan
                 x="0 3.9084904 15.432866 22.854099 29.985348 36.550632 40.849716 43.877705 51.739803 60.331524 64.630547 72.347038 79.86882 87.630424 91.929512 95.051605 100.81121 108.62304 116.48508 125.0768 130.83641 135.13548 142.26668 147.98245 152.28154 160.87329"
                 y="12.8906"
                 id="tspan206">.meas ib1 ﬁnd I(Rb1) at 5m</tspan><tspan
                 x="0 3.9084904 15.432866 22.854099 29.985348 36.550632 40.849716 43.877705 51.739803 60.331524 64.630547 72.347038 79.86882 87.630424 91.929512 95.051605 100.81121 108.62304 116.48508 125.0768 130.83641 135.13548 142.26668 147.98245 152.28154 160.87329"
                 y="25.7812"
                 id="tspan208">.meas ib2 ﬁnd I(Rb2) at 5m</tspan><tspan
                 x="0 3.9084904 15.432866 22.854099 29.985348 36.550632 40.849716 43.877705 48.856133 55.886833 60.185856 67.902344 75.424126 83.185738 87.484818 90.606911 96.366524 104.17834 111.20899 116.9686 121.26768 128.39893 134.11472 138.41373 147.00545"
                 y="38.671799"
                 id="tspan210">.meas irc ﬁnd I(Rc) at 5m</tspan><tspan
                 x="0 3.9084904 15.432866 22.854099 29.985348 36.550632 40.849716 43.971809 48.950233 56.371529 60.670609 68.387039 75.908821 83.670433 87.969513 91.091606 96.851219 104.66304 112.08427 117.84389 122.14297 129.27422 134.98999 139.28908 147.88074"
                 y="51.562401"
                 id="tspan212">.meas Ire ﬁnd I(Re) at 5m</tspan><tspan
                 x="0 3.9084904 15.432866 22.854099 29.985348 36.550632 40.849716 43.877705 51.739803 56.038887 63.755318 71.277161 79.038712 83.337791 86.459946 94.321983 100.0816 109.55504 118.14676 123.90637 128.2054 135.33664 141.05243 145.3515 153.94316"
                 y="64.454002"
                 id="tspan214">.meas ib ﬁnd Ib(Q1) at 5m</tspan><tspan
                 x="0 3.9084904 15.432866 22.854099 29.985348 36.550632 40.849716 43.877705 50.908405 55.207489 62.92392 70.445702 78.207314 82.506393 85.628487 92.659187 98.4188 107.89224 116.4839 122.24352 126.54259 133.67384 139.38963 143.68864 152.28036"
                 y="77.344597"
                 id="tspan216">.meas ic ﬁnd Ic(Q1) at 5m</tspan><tspan
                 x="0 3.9084904 15.432866 22.854099 29.985348 36.550632 40.849716 43.877705 51.298996 55.59808 63.31451 70.836349 78.5979 82.896988 86.019081 93.440369 99.199982 108.67343 117.26509 123.0247 127.32378 134.45503 140.17081 144.46989 153.06155"
                 y="90.235199"
                 id="tspan218">.meas ie ﬁnd Ie(Q1) at 5m</tspan><tspan
                 x="0 3.9084904 15.432866 22.854099 29.985348 36.550632 40.849716 48.126572 55.98867 60.28775 68.004181 75.525963 83.287575 87.586655 96.959557 102.71917 112.09201 119.95411 125.71371 130.0128 137.144 142.85977 147.15886 155.75056"
                 y="103.1258"
                 id="tspan220">.meas vb ﬁnd V(Vb) at 5m</tspan><tspan
                 x="0 3.9084904 15.432866 22.854099 29.985348 36.550632 40.849716 48.126572 55.157272 59.456295 67.172783 74.694565 82.456177 86.755257 96.128105 101.88771 111.26061 118.29131 124.05092 128.35001 135.4812 141.19698 145.49606 154.08772"
                 y="116.0164"
                 id="tspan222">.meas vc ﬁnd V(Vc) at 5m</tspan><tspan
                 x="0 3.9084904 15.432866 22.854099 29.985348 36.550632 40.849716 48.126572 55.547863 59.846886 67.563377 75.085159 82.846771 87.145851 96.518692 102.27836 111.6512 119.07249 124.83211 129.13118 136.26237 141.97816 146.27724 154.86896"
                 y="128.907"
                 id="tspan224">.meas ve ﬁnd V(Ve) at 5m</tspan><tspan
                 x="-60.9384 -57.029911 -53.998051 -50.966137 -43.100227 -38.805016 -30.603888 -22.209457 -13.621605 -5.0337543 3.5540383 11.948527 15.857018 22.421013 29.938927"
                 y="-93.750999"
                 id="tspan226">.lib BC549C.sub</tspan></text></g><g
             id="g230"
             transform="scale(4.16667)"><text
               transform="matrix(0,-1,-1,0,395.489,558.648)"
               style="font-variant:normal;font-weight:normal;font-size:12.8908px;font-family:Geneva;-inkscape-font-specification:Geneva;writing-mode:lr-tb;fill:#0000ca;fill-opacity:1;fill-rule:nonzero;stroke:none"
               id="text242"><tspan
                 x="0 9.372901 17.237518 21.531445 30.118006 34.411934 42.998436 46.905636 55.492199 64.078705 73.451607 82.039421 85.160316 93.024994 97.318893 105.90545 110.19938 118.78594 127.37253 131.27974 139.86629 147.38292"
                 y="0"
                 id="tspan232">Vb = 1.26V Ib = 29.0uA</tspan><tspan
                 x="0 9.372901 16.403543 20.702625 29.294342 33.593365 42.185085 46.093575 54.685234 63.276955 72.649857 81.247986 84.37014 91.40078 95.69986 104.29158 108.59064 117.18238 125.7741 130.07318 141.59755 150.97046 155.26952 161.02911 165.3282 173.91992 178.21899 181.34116 186.31958 193.35022"
                 y="12.8906"
                 id="tspan234">Vc = 7.67V Ic = 16 mA ( = Irc)</tspan><tspan
                 x="0 9.372901 16.794134 21.093216 29.684935 33.983959 42.575676 46.484165 55.075825 63.667545 73.040443 81.63858 84.760727 92.181961 96.481049 105.07276 109.37185 117.96356 126.55528 130.85437 142.37874 151.75163 156.05072 161.81033 166.10939 174.70113 179.00018 182.12233 187.10077 194.522"
                 y="25.7812"
                 id="tspan236">Ve = 0.53V Ie = 16 mA ( = Ire)</tspan><tspan
                 x="0 3.1221516 10.988059 19.575911 23.871124 32.458916 36.754131 45.341984 53.929775 62.517628 70.035538"
                 y="38.671799"
                 id="tspan238">Ib1 = 730uA</tspan><tspan
                 x="0 3.1221516 10.988059 19.575911 23.871124 32.458916 36.754131 45.341984 53.929775 62.517628 70.035538"
                 y="51.562401"
                 id="tspan240">Ib2 = 701uA</tspan></text></g><path
             d="M 1705.68,940.965 V 1253.47"
             style="fill:none;stroke:#ffffff;stroke-width:4.16667;stroke-linecap:butt;stroke-linejoin:miter;stroke-miterlimit:10;stroke-dasharray:none;stroke-opacity:1"
             id="path244" /><path
             d="M 1705.68,511.273 V 940.965"
             style="fill:none;stroke:#ffffff;stroke-width:4.16667;stroke-linecap:butt;stroke-linejoin:miter;stroke-miterlimit:10;stroke-dasharray:none;stroke-opacity:1"
             id="path246" /><path
             d="m 1510.37,940.965 h 195.31"
             style="fill:none;stroke:#ffffff;stroke-width:4.16667;stroke-linecap:butt;stroke-linejoin:miter;stroke-miterlimit:10;stroke-dasharray:none;stroke-opacity:1"
             id="path248" /><path
             d="m 1354.12,1253.47 h 351.56"
             style="fill:none;stroke:#ffffff;stroke-width:4.16667;stroke-linecap:butt;stroke-linejoin:miter;stroke-miterlimit:10;stroke-dasharray:none;stroke-opacity:1"
             id="path250" /><path
             d="m 1315.05,3050.36 h 39.07"
             style="fill:none;stroke:#ffffff;stroke-width:4.16667;stroke-linecap:butt;stroke-linejoin:miter;stroke-miterlimit:10;stroke-dasharray:none;stroke-opacity:1"
             id="path252" /><path
             d="m 1315.05,940.965 h 39.07"
             style="fill:none;stroke:#ffffff;stroke-width:4.16667;stroke-linecap:butt;stroke-linejoin:miter;stroke-miterlimit:10;stroke-dasharray:none;stroke-opacity:1"
             id="path254" /><path
             d="m 1315.05,862.84 v 78.125"
             style="fill:none;stroke:#ffffff;stroke-width:4.16667;stroke-linecap:butt;stroke-linejoin:miter;stroke-miterlimit:10;stroke-dasharray:none;stroke-opacity:1"
             id="path256" /><path
             d="m 1275.99,940.965 h 39.06"
             style="fill:none;stroke:#ffffff;stroke-width:4.16667;stroke-linecap:butt;stroke-linejoin:miter;stroke-miterlimit:10;stroke-dasharray:none;stroke-opacity:1"
             id="path258" /><path
             d="m 1158.8,1253.47 h 39.07"
             style="fill:none;stroke:#ffffff;stroke-width:4.16667;stroke-linecap:butt;stroke-linejoin:miter;stroke-miterlimit:10;stroke-dasharray:none;stroke-opacity:1"
             id="path260" /><path
             d="m 1158.8,1136.28 h 78.13"
             style="fill:none;stroke:#ffffff;stroke-width:4.16667;stroke-linecap:butt;stroke-linejoin:miter;stroke-miterlimit:10;stroke-dasharray:none;stroke-opacity:1"
             id="path262" /><path
             d="m 1158.8,1136.28 v 117.19"
             style="fill:none;stroke:#ffffff;stroke-width:4.16667;stroke-linecap:butt;stroke-linejoin:miter;stroke-miterlimit:10;stroke-dasharray:none;stroke-opacity:1"
             id="path264" /><path
             d="m 1158.8,1097.21 v 39.07"
             style="fill:none;stroke:#ffffff;stroke-width:4.16667;stroke-linecap:butt;stroke-linejoin:miter;stroke-miterlimit:10;stroke-dasharray:none;stroke-opacity:1"
             id="path266" /><path
             d="m 1119.74,1253.47 h 39.06"
             style="fill:none;stroke:#ffffff;stroke-width:4.16667;stroke-linecap:butt;stroke-linejoin:miter;stroke-miterlimit:10;stroke-dasharray:none;stroke-opacity:1"
             id="path268" /><path
             d="m 1041.62,3050.36 h 78.12"
             style="fill:none;stroke:#ffffff;stroke-width:4.16667;stroke-linecap:butt;stroke-linejoin:miter;stroke-miterlimit:10;stroke-dasharray:none;stroke-opacity:1"
             id="path270" /><path
             d="m 1002.55,940.965 h 39.07"
             style="fill:none;stroke:#ffffff;stroke-width:4.16667;stroke-linecap:butt;stroke-linejoin:miter;stroke-miterlimit:10;stroke-dasharray:none;stroke-opacity:1"
             id="path272" /><path
             d="m 1002.55,862.84 v 78.125"
             style="fill:none;stroke:#ffffff;stroke-width:4.16667;stroke-linecap:butt;stroke-linejoin:miter;stroke-miterlimit:10;stroke-dasharray:none;stroke-opacity:1"
             id="path274" /><path
             d="m 963.488,940.965 h 39.062"
             style="fill:none;stroke:#ffffff;stroke-width:4.16667;stroke-linecap:butt;stroke-linejoin:miter;stroke-miterlimit:10;stroke-dasharray:none;stroke-opacity:1"
             id="path276" /><path
             d="M 768.176,1253.47 H 963.488"
             style="fill:none;stroke:#ffffff;stroke-width:4.16667;stroke-linecap:butt;stroke-linejoin:miter;stroke-miterlimit:10;stroke-dasharray:none;stroke-opacity:1"
             id="path278" /><path
             d="m 768.176,940.965 h 39.062"
             style="fill:none;stroke:#ffffff;stroke-width:4.16667;stroke-linecap:butt;stroke-linejoin:miter;stroke-miterlimit:10;stroke-dasharray:none;stroke-opacity:1"
             id="path280" /><path
             d="M 768.176,940.965 V 1253.47"
             style="fill:none;stroke:#ffffff;stroke-width:4.16667;stroke-linecap:butt;stroke-linejoin:miter;stroke-miterlimit:10;stroke-dasharray:none;stroke-opacity:1"
             id="path282" /><path
             d="m 690.051,940.965 h 78.125"
             style="fill:none;stroke:#ffffff;stroke-width:4.16667;stroke-linecap:butt;stroke-linejoin:miter;stroke-miterlimit:10;stroke-dasharray:none;stroke-opacity:1"
             id="path284" /><path
             d="m 1146.6,1241.26 h 24.4141 v 24.4141 H 1146.6 Z"
             style="fill:#ffffff;fill-opacity:1;fill-rule:nonzero;stroke:none"
             id="path286" /><path
             d="m 1146.6,1124.07 h 24.4141 v 24.418 H 1146.6 Z"
             style="fill:#ffffff;fill-opacity:1;fill-rule:nonzero;stroke:none"
             id="path288" /><path
             d="m 1693.48,928.758 h 24.418 v 24.4141 h -24.418 z"
             style="fill:#ffffff;fill-opacity:1;fill-rule:nonzero;stroke:none"
             id="path290" /><path
             d="m 1302.85,928.758 h 24.4141 v 24.4141 H 1302.85 Z"
             style="fill:#ffffff;fill-opacity:1;fill-rule:nonzero;stroke:none"
             id="path292" /><path
             d="m 990.344,928.758 h 24.4141 v 24.4141 H 990.344 Z"
             style="fill:#ffffff;fill-opacity:1;fill-rule:nonzero;stroke:none"
             id="path294" /><path
             d="m 755.969,928.758 h 24.4141 v 24.4141 H 755.969 Z"
             style="fill:#ffffff;fill-opacity:1;fill-rule:nonzero;stroke:none"
             id="path296" /></g></g></g></g></svg>
