<?xml version="1.0" encoding="UTF-8" standalone="no"?>
<svg
   xmlns:dc="http://purl.org/dc/elements/1.1/"
   xmlns:cc="http://creativecommons.org/ns#"
   xmlns:rdf="http://www.w3.org/1999/02/22-rdf-syntax-ns#"
   xmlns:svg="http://www.w3.org/2000/svg"
   xmlns="http://www.w3.org/2000/svg"
   version="1.1"
   id="svg10"
   xml:space="preserve"
   width="619.03339"
   height="361.33768"
   viewBox="0 0 928.55006 542.00654"><metadata
     id="metadata16"><rdf:RDF><cc:Work
         rdf:about=""><dc:format>image/svg+xml</dc:format><dc:type
           rdf:resource="http://purl.org/dc/dcmitype/StillImage" /><dc:title></dc:title></cc:Work></rdf:RDF></metadata><defs
     id="defs14"><clipPath
       clipPathUnits="userSpaceOnUse"
       id="clipPath28"><path
         d="m 375,299.582 h 1729.17 v 2908.34 H 375 Z"
         id="path26" /></clipPath><clipPath
       clipPathUnits="userSpaceOnUse"
       id="clipPath248"><path
         d="m 500,353.75 h 1520.83 v 2675 H 500 Z"
         id="path246" /></clipPath><clipPath
       clipPathUnits="userSpaceOnUse"
       id="clipPath278"><path
         d="m 375,299.582 h 1729.17 v 2908.34 H 375 Z"
         id="path276" /></clipPath><clipPath
       clipPathUnits="userSpaceOnUse"
       id="clipPath292"><path
         d="m 500,353.75 h 1520.83 v 2675 H 500 Z"
         id="path290" /></clipPath><clipPath
       clipPathUnits="userSpaceOnUse"
       id="clipPath344"><path
         d="m 375,299.582 h 1729.17 v 2908.34 H 375 Z"
         id="path342" /></clipPath><clipPath
       clipPathUnits="userSpaceOnUse"
       id="clipPath358"><path
         d="m 500,353.75 h 1520.83 v 2675 H 500 Z"
         id="path356" /></clipPath></defs><g
     id="g18"
     transform="matrix(0,-1.3333333,-1.3333333,0,1025.6056,667.07604)"><g
       id="g20"
       transform="scale(0.24)"><g
         id="g22"><g
           id="g24"
           clip-path="url(#clipPath28)"><path
             d="M 500,3025.77 H 458.332"
             style="fill:none;stroke:#afafaf;stroke-width:4.16667;stroke-linecap:butt;stroke-linejoin:miter;stroke-miterlimit:10;stroke-dasharray:none;stroke-opacity:1"
             id="path30" /><g
             id="g32"
             transform="scale(4.16667)"><text
               transform="matrix(0,-1,-1,0,94.0003,734.614)"
               style="font-variant:normal;font-weight:normal;font-size:14px;font-family:Menlo;-inkscape-font-specification:Menlo-Regular;writing-mode:lr-tb;fill:#afafaf;fill-opacity:1;fill-rule:nonzero;stroke:none"
               id="text36"><tspan
                 x="0 8.4274139"
                 y="0"
                 id="tspan34">0V</tspan></text></g><path
             d="M 500,2803.15 H 458.332"
             style="fill:none;stroke:#afafaf;stroke-width:4.16667;stroke-linecap:butt;stroke-linejoin:miter;stroke-miterlimit:10;stroke-dasharray:none;stroke-opacity:1"
             id="path38" /><g
             id="g40"
             transform="scale(4.16667)"><text
               transform="matrix(0,-1,-1,0,94.0003,681.186)"
               style="font-variant:normal;font-weight:normal;font-size:14px;font-family:Menlo;-inkscape-font-specification:Menlo-Regular;writing-mode:lr-tb;fill:#afafaf;fill-opacity:1;fill-rule:nonzero;stroke:none"
               id="text44"><tspan
                 x="0 8.4280005"
                 y="0"
                 id="tspan42">1V</tspan></text></g><path
             d="M 500,2580.54 H 458.332"
             style="fill:none;stroke:#afafaf;stroke-width:4.16667;stroke-linecap:butt;stroke-linejoin:miter;stroke-miterlimit:10;stroke-dasharray:none;stroke-opacity:1"
             id="path46" /><g
             id="g48"
             transform="scale(4.16667)"><text
               transform="matrix(0,-1,-1,0,94.0003,627.757)"
               style="font-variant:normal;font-weight:normal;font-size:14px;font-family:Menlo;-inkscape-font-specification:Menlo-Regular;writing-mode:lr-tb;fill:#afafaf;fill-opacity:1;fill-rule:nonzero;stroke:none"
               id="text52"><tspan
                 x="0 8.4274139"
                 y="0"
                 id="tspan50">2V</tspan></text></g><path
             d="M 500,2357.91 H 458.332"
             style="fill:none;stroke:#afafaf;stroke-width:4.16667;stroke-linecap:butt;stroke-linejoin:miter;stroke-miterlimit:10;stroke-dasharray:none;stroke-opacity:1"
             id="path54" /><g
             id="g56"
             transform="scale(4.16667)"><text
               transform="matrix(0,-1,-1,0,94.0003,574.328)"
               style="font-variant:normal;font-weight:normal;font-size:14px;font-family:Menlo;-inkscape-font-specification:Menlo-Regular;writing-mode:lr-tb;fill:#afafaf;fill-opacity:1;fill-rule:nonzero;stroke:none"
               id="text60"><tspan
                 x="0 8.4280005"
                 y="0"
                 id="tspan58">3V</tspan></text></g><path
             d="M 500,2135.3 H 458.332"
             style="fill:none;stroke:#afafaf;stroke-width:4.16667;stroke-linecap:butt;stroke-linejoin:miter;stroke-miterlimit:10;stroke-dasharray:none;stroke-opacity:1"
             id="path62" /><g
             id="g64"
             transform="scale(4.16667)"><text
               transform="matrix(0,-1,-1,0,94.0003,520.9)"
               style="font-variant:normal;font-weight:normal;font-size:14px;font-family:Menlo;-inkscape-font-specification:Menlo-Regular;writing-mode:lr-tb;fill:#afafaf;fill-opacity:1;fill-rule:nonzero;stroke:none"
               id="text68"><tspan
                 x="0 8.4280005"
                 y="0"
                 id="tspan66">4V</tspan></text></g><path
             d="M 500,1912.68 H 458.332"
             style="fill:none;stroke:#afafaf;stroke-width:4.16667;stroke-linecap:butt;stroke-linejoin:miter;stroke-miterlimit:10;stroke-dasharray:none;stroke-opacity:1"
             id="path70" /><g
             id="g72"
             transform="scale(4.16667)"><text
               transform="matrix(0,-1,-1,0,94.0003,467.471)"
               style="font-variant:normal;font-weight:normal;font-size:14px;font-family:Menlo;-inkscape-font-specification:Menlo-Regular;writing-mode:lr-tb;fill:#afafaf;fill-opacity:1;fill-rule:nonzero;stroke:none"
               id="text76"><tspan
                 x="0 8.4280005"
                 y="0"
                 id="tspan74">5V</tspan></text></g><path
             d="M 500,1690.06 H 458.332"
             style="fill:none;stroke:#afafaf;stroke-width:4.16667;stroke-linecap:butt;stroke-linejoin:miter;stroke-miterlimit:10;stroke-dasharray:none;stroke-opacity:1"
             id="path78" /><g
             id="g80"
             transform="scale(4.16667)"><text
               transform="matrix(0,-1,-1,0,94.0003,414.043)"
               style="font-variant:normal;font-weight:normal;font-size:14px;font-family:Menlo;-inkscape-font-specification:Menlo-Regular;writing-mode:lr-tb;fill:#afafaf;fill-opacity:1;fill-rule:nonzero;stroke:none"
               id="text84"><tspan
                 x="0 8.4280005"
                 y="0"
                 id="tspan82">6V</tspan></text></g><path
             d="M 500,1467.44 H 458.332"
             style="fill:none;stroke:#afafaf;stroke-width:4.16667;stroke-linecap:butt;stroke-linejoin:miter;stroke-miterlimit:10;stroke-dasharray:none;stroke-opacity:1"
             id="path86" /><g
             id="g88"
             transform="scale(4.16667)"><text
               transform="matrix(0,-1,-1,0,94.0003,360.614)"
               style="font-variant:normal;font-weight:normal;font-size:14px;font-family:Menlo;-inkscape-font-specification:Menlo-Regular;writing-mode:lr-tb;fill:#afafaf;fill-opacity:1;fill-rule:nonzero;stroke:none"
               id="text92"><tspan
                 x="0 8.4274139"
                 y="0"
                 id="tspan90">7V</tspan></text></g><path
             d="M 500,1244.82 H 458.332"
             style="fill:none;stroke:#afafaf;stroke-width:4.16667;stroke-linecap:butt;stroke-linejoin:miter;stroke-miterlimit:10;stroke-dasharray:none;stroke-opacity:1"
             id="path94" /><g
             id="g96"
             transform="scale(4.16667)"><text
               transform="matrix(0,-1,-1,0,94.0003,307.186)"
               style="font-variant:normal;font-weight:normal;font-size:14px;font-family:Menlo;-inkscape-font-specification:Menlo-Regular;writing-mode:lr-tb;fill:#afafaf;fill-opacity:1;fill-rule:nonzero;stroke:none"
               id="text100"><tspan
                 x="0 8.4280005"
                 y="0"
                 id="tspan98">8V</tspan></text></g><path
             d="M 500,1022.2 H 458.332"
             style="fill:none;stroke:#afafaf;stroke-width:4.16667;stroke-linecap:butt;stroke-linejoin:miter;stroke-miterlimit:10;stroke-dasharray:none;stroke-opacity:1"
             id="path102" /><g
             id="g104"
             transform="scale(4.16667)"><text
               transform="matrix(0,-1,-1,0,94.0003,253.758)"
               style="font-variant:normal;font-weight:normal;font-size:14px;font-family:Menlo;-inkscape-font-specification:Menlo-Regular;writing-mode:lr-tb;fill:#afafaf;fill-opacity:1;fill-rule:nonzero;stroke:none"
               id="text108"><tspan
                 x="0 8.4280005"
                 y="0"
                 id="tspan106">9V</tspan></text></g><path
             d="M 500,799.586 H 458.332"
             style="fill:none;stroke:#afafaf;stroke-width:4.16667;stroke-linecap:butt;stroke-linejoin:miter;stroke-miterlimit:10;stroke-dasharray:none;stroke-opacity:1"
             id="path110" /><g
             id="g112"
             transform="scale(4.16667)"><text
               transform="matrix(0,-1,-1,0,94.0003,204.543)"
               style="font-variant:normal;font-weight:normal;font-size:14px;font-family:Menlo;-inkscape-font-specification:Menlo-Regular;writing-mode:lr-tb;fill:#afafaf;fill-opacity:1;fill-rule:nonzero;stroke:none"
               id="text116"><tspan
                 x="0 8.4274139 16.855413"
                 y="0"
                 id="tspan114">10V</tspan></text></g><path
             d="M 500,576.965 H 458.332"
             style="fill:none;stroke:#afafaf;stroke-width:4.16667;stroke-linecap:butt;stroke-linejoin:miter;stroke-miterlimit:10;stroke-dasharray:none;stroke-opacity:1"
             id="path118" /><g
             id="g120"
             transform="scale(4.16667)"><text
               transform="matrix(0,-1,-1,0,94.0003,151.115)"
               style="font-variant:normal;font-weight:normal;font-size:14px;font-family:Menlo;-inkscape-font-specification:Menlo-Regular;writing-mode:lr-tb;fill:#afafaf;fill-opacity:1;fill-rule:nonzero;stroke:none"
               id="text124"><tspan
                 x="0 8.4280005 16.855413"
                 y="0"
                 id="tspan122">11V</tspan></text></g><path
             d="M 500,354.348 H 458.332"
             style="fill:none;stroke:#afafaf;stroke-width:4.16667;stroke-linecap:butt;stroke-linejoin:miter;stroke-miterlimit:10;stroke-dasharray:none;stroke-opacity:1"
             id="path126" /><g
             id="g128"
             transform="scale(4.16667)"><text
               transform="matrix(0,-1,-1,0,94.0003,97.6866)"
               style="font-variant:normal;font-weight:normal;font-size:14px;font-family:Menlo;-inkscape-font-specification:Menlo-Regular;writing-mode:lr-tb;fill:#afafaf;fill-opacity:1;fill-rule:nonzero;stroke:none"
               id="text134"><tspan
                 x="0 8.4280005 16.856001"
                 y="0"
                 id="tspan130">12V</tspan><tspan
                 x="-646.92798 -655.35614 -663.78522 -672.21423"
                 y="-20"
                 id="tspan132">Am5-</tspan></text></g><path
             d="m 500,3025.77 v 41.67"
             style="fill:none;stroke:#afafaf;stroke-width:4.16667;stroke-linecap:butt;stroke-linejoin:miter;stroke-miterlimit:10;stroke-dasharray:none;stroke-opacity:1"
             id="path136" /><g
             id="g138"
             transform="scale(4.16667)"><text
               transform="matrix(0,-1,-1,0,144.416,744.614)"
               style="font-variant:normal;font-weight:normal;font-size:14px;font-family:Menlo;-inkscape-font-specification:Menlo-Regular;writing-mode:lr-tb;fill:#afafaf;fill-opacity:1;fill-rule:nonzero;stroke:none"
               id="text142"><tspan
                 x="0 -8.4281301"
                 y="0"
                 id="tspan140">A0</tspan></text></g><path
             d="m 626.734,3025.77 v 41.67"
             style="fill:none;stroke:#afafaf;stroke-width:4.16667;stroke-linecap:butt;stroke-linejoin:miter;stroke-miterlimit:10;stroke-dasharray:none;stroke-opacity:1"
             id="path144" /><g
             id="g146"
             transform="scale(4.16667)"><text
               transform="matrix(0,-1,-1,0,174.833,744.614)"
               style="font-variant:normal;font-weight:normal;font-size:14px;font-family:Menlo;-inkscape-font-specification:Menlo-Regular;writing-mode:lr-tb;fill:#afafaf;fill-opacity:1;fill-rule:nonzero;stroke:none"
               id="text150"><tspan
                 x="0 -8.4281301 -16.857189"
                 y="0"
                 id="tspan148">Am5</tspan></text></g><path
             d="m 753.473,3025.77 v 41.67"
             style="fill:none;stroke:#afafaf;stroke-width:4.16667;stroke-linecap:butt;stroke-linejoin:miter;stroke-miterlimit:10;stroke-dasharray:none;stroke-opacity:1"
             id="path152" /><g
             id="g154"
             transform="scale(4.16667)"><text
               transform="matrix(0,-1,-1,0,205.25,744.614)"
               style="font-variant:normal;font-weight:normal;font-size:14px;font-family:Menlo;-inkscape-font-specification:Menlo-Regular;writing-mode:lr-tb;fill:#afafaf;fill-opacity:1;fill-rule:nonzero;stroke:none"
               id="text158"><tspan
                 x="0 -8.4281301 -16.857189 -25.286249"
                 y="0"
                 id="tspan156">Am01</tspan></text></g><path
             d="m 880.207,3025.77 v 41.67"
             style="fill:none;stroke:#afafaf;stroke-width:4.16667;stroke-linecap:butt;stroke-linejoin:miter;stroke-miterlimit:10;stroke-dasharray:none;stroke-opacity:1"
             id="path160" /><g
             id="g162"
             transform="scale(4.16667)"><text
               transform="matrix(0,-1,-1,0,235.667,744.614)"
               style="font-variant:normal;font-weight:normal;font-size:14px;font-family:Menlo;-inkscape-font-specification:Menlo-Regular;writing-mode:lr-tb;fill:#afafaf;fill-opacity:1;fill-rule:nonzero;stroke:none"
               id="text166"><tspan
                 x="0 -8.4281301 -16.857189 -25.286249"
                 y="0"
                 id="tspan164">Am51</tspan></text></g><path
             d="m 1006.95,3025.77 v 41.67"
             style="fill:none;stroke:#afafaf;stroke-width:4.16667;stroke-linecap:butt;stroke-linejoin:miter;stroke-miterlimit:10;stroke-dasharray:none;stroke-opacity:1"
             id="path168" /><g
             id="g170"
             transform="scale(4.16667)"><text
               transform="matrix(0,-1,-1,0,266.083,744.614)"
               style="font-variant:normal;font-weight:normal;font-size:14px;font-family:Menlo;-inkscape-font-specification:Menlo-Regular;writing-mode:lr-tb;fill:#afafaf;fill-opacity:1;fill-rule:nonzero;stroke:none"
               id="text174"><tspan
                 x="0 -8.4281301 -16.857189 -25.286249"
                 y="0"
                 id="tspan172">Am02</tspan></text></g><path
             d="m 1133.68,3025.77 v 41.67"
             style="fill:none;stroke:#afafaf;stroke-width:4.16667;stroke-linecap:butt;stroke-linejoin:miter;stroke-miterlimit:10;stroke-dasharray:none;stroke-opacity:1"
             id="path176" /><g
             id="g178"
             transform="scale(4.16667)"><text
               transform="matrix(0,-1,-1,0,296.5,744.614)"
               style="font-variant:normal;font-weight:normal;font-size:14px;font-family:Menlo;-inkscape-font-specification:Menlo-Regular;writing-mode:lr-tb;fill:#afafaf;fill-opacity:1;fill-rule:nonzero;stroke:none"
               id="text182"><tspan
                 x="0 -8.4281301 -16.857189 -25.286249"
                 y="0"
                 id="tspan180">Am52</tspan></text></g><path
             d="m 1260.42,3025.77 v 41.67"
             style="fill:none;stroke:#afafaf;stroke-width:4.16667;stroke-linecap:butt;stroke-linejoin:miter;stroke-miterlimit:10;stroke-dasharray:none;stroke-opacity:1"
             id="path184" /><g
             id="g186"
             transform="scale(4.16667)"><text
               transform="matrix(0,-1,-1,0,326.917,744.614)"
               style="font-variant:normal;font-weight:normal;font-size:14px;font-family:Menlo;-inkscape-font-specification:Menlo-Regular;writing-mode:lr-tb;fill:#afafaf;fill-opacity:1;fill-rule:nonzero;stroke:none"
               id="text190"><tspan
                 x="0 -8.4281301 -16.857189 -25.286249"
                 y="0"
                 id="tspan188">Am03</tspan></text></g><path
             d="m 1387.15,3025.77 v 41.67"
             style="fill:none;stroke:#afafaf;stroke-width:4.16667;stroke-linecap:butt;stroke-linejoin:miter;stroke-miterlimit:10;stroke-dasharray:none;stroke-opacity:1"
             id="path192" /><g
             id="g194"
             transform="scale(4.16667)"><text
               transform="matrix(0,-1,-1,0,357.334,744.614)"
               style="font-variant:normal;font-weight:normal;font-size:14px;font-family:Menlo;-inkscape-font-specification:Menlo-Regular;writing-mode:lr-tb;fill:#afafaf;fill-opacity:1;fill-rule:nonzero;stroke:none"
               id="text198"><tspan
                 x="0 -8.4281301 -16.857189 -25.286249"
                 y="0"
                 id="tspan196">Am53</tspan></text></g><path
             d="m 1513.89,3025.77 v 41.67"
             style="fill:none;stroke:#afafaf;stroke-width:4.16667;stroke-linecap:butt;stroke-linejoin:miter;stroke-miterlimit:10;stroke-dasharray:none;stroke-opacity:1"
             id="path200" /><g
             id="g202"
             transform="scale(4.16667)"><text
               transform="matrix(0,-1,-1,0,387.75,744.614)"
               style="font-variant:normal;font-weight:normal;font-size:14px;font-family:Menlo;-inkscape-font-specification:Menlo-Regular;writing-mode:lr-tb;fill:#afafaf;fill-opacity:1;fill-rule:nonzero;stroke:none"
               id="text206"><tspan
                 x="0 -8.4281301 -16.857189 -25.286249"
                 y="0"
                 id="tspan204">Am04</tspan></text></g><path
             d="m 1640.63,3025.77 v 41.67"
             style="fill:none;stroke:#afafaf;stroke-width:4.16667;stroke-linecap:butt;stroke-linejoin:miter;stroke-miterlimit:10;stroke-dasharray:none;stroke-opacity:1"
             id="path208" /><g
             id="g210"
             transform="scale(4.16667)"><text
               transform="matrix(0,-1,-1,0,418.166,744.614)"
               style="font-variant:normal;font-weight:normal;font-size:14px;font-family:Menlo;-inkscape-font-specification:Menlo-Regular;writing-mode:lr-tb;fill:#afafaf;fill-opacity:1;fill-rule:nonzero;stroke:none"
               id="text214"><tspan
                 x="0 -8.4281301 -16.857189 -25.286249"
                 y="0"
                 id="tspan212">Am54</tspan></text></g><path
             d="m 1767.36,3025.77 v 41.67"
             style="fill:none;stroke:#afafaf;stroke-width:4.16667;stroke-linecap:butt;stroke-linejoin:miter;stroke-miterlimit:10;stroke-dasharray:none;stroke-opacity:1"
             id="path216" /><g
             id="g218"
             transform="scale(4.16667)"><text
               transform="matrix(0,-1,-1,0,448.583,744.614)"
               style="font-variant:normal;font-weight:normal;font-size:14px;font-family:Menlo;-inkscape-font-specification:Menlo-Regular;writing-mode:lr-tb;fill:#afafaf;fill-opacity:1;fill-rule:nonzero;stroke:none"
               id="text222"><tspan
                 x="0 -8.4281301 -16.857189 -25.286249"
                 y="0"
                 id="tspan220">Am05</tspan></text></g><path
             d="m 1894.1,3025.77 v 41.67"
             style="fill:none;stroke:#afafaf;stroke-width:4.16667;stroke-linecap:butt;stroke-linejoin:miter;stroke-miterlimit:10;stroke-dasharray:none;stroke-opacity:1"
             id="path224" /><g
             id="g226"
             transform="scale(4.16667)"><text
               transform="matrix(0,-1,-1,0,479,744.614)"
               style="font-variant:normal;font-weight:normal;font-size:14px;font-family:Menlo;-inkscape-font-specification:Menlo-Regular;writing-mode:lr-tb;fill:#afafaf;fill-opacity:1;fill-rule:nonzero;stroke:none"
               id="text230"><tspan
                 x="0 -8.4281301 -16.857189 -25.286249"
                 y="0"
                 id="tspan228">Am55</tspan></text></g><path
             d="m 2020.83,3025.77 v 41.67"
             style="fill:none;stroke:#afafaf;stroke-width:4.16667;stroke-linecap:butt;stroke-linejoin:miter;stroke-miterlimit:10;stroke-dasharray:none;stroke-opacity:1"
             id="path232" /><path
             d="m 500,354.348 h 1520.83 v 2671.43 H 500 Z"
             style="fill:none;stroke:#afafaf;stroke-width:4.16667;stroke-linecap:butt;stroke-linejoin:miter;stroke-miterlimit:10;stroke-dasharray:none;stroke-opacity:1"
             id="path234" /><g
             id="g236"
             transform="scale(4.16667)"><text
               transform="matrix(0,-1,-1,0,489,644.971)"
               style="font-variant:normal;font-weight:normal;font-size:14px;font-family:Menlo;-inkscape-font-specification:Menlo-Regular;writing-mode:lr-tb;fill:#0eff00;fill-opacity:1;fill-rule:nonzero;stroke:none"
               id="text240"><tspan
                 x="0 8.4274139 16.855413 25.282827 33.710827 42.138828"
                 y="0"
                 id="tspan238">Ic(Q1)</tspan></text></g></g></g><g
         id="g242"><g
           id="g244"
           clip-path="url(#clipPath248)"><path
             d="m 626.734,3025.77 v 0 -2671.422"
             style="fill:none;stroke:#0eff00;stroke-width:4.16667;stroke-linecap:butt;stroke-linejoin:miter;stroke-miterlimit:1;stroke-dasharray:none;stroke-opacity:1"
             id="path250" /><path
             d="m 626.484,3025.77 v 0 l 8.012,-22.26 70.723,-22.26 33.191,-22.27 3.43,-22.26 0.711,-22.26 0.504,-22.26 0.492,-22.26 0.488,-22.26 0.488,-22.27 0.489,-22.26 0.492,-22.26 0.488,-22.26 0.488,-22.26 0.489,-22.26 0.488,-22.27 0.488,-22.26 0.493,-22.26 0.488,-22.26 0.488,-22.26 0.488,-22.26 0.489,-22.27 0.492,-22.26 0.488,-22.26 0.488,-22.26 0.489,-22.26 0.488,-22.27 0.492,-22.26 0.488,-22.26 0.489,-22.26 0.488,-22.27 0.488,-22.26 0.492,-22.26 0.489,-22.26 0.488,-22.26 0.488,-22.26 0.489,-22.27 0.492,-22.26 0.488,-22.26 0.488,-22.26 0.489,-22.26 0.488,-22.26 0.492,-22.27 0.488,-22.26 0.489,-22.26 0.488,-22.26 0.488,-22.26 0.492,-22.27 0.489,-22.26 0.488,-22.26 0.488,-22.26 0.489,-22.26 0.492,-22.27 0.488,-22.26 0.488,-22.26 0.489,-22.26 0.488,-22.26 0.492,-22.27 0.488,-22.26 0.489,-22.26 0.488,-22.26 0.488,-22.26 0.488,-22.26 0.493,-22.27 0.488,-22.26 0.488,-22.26 0.488,-22.26 0.489,-22.26 0.492,-22.27 0.488,-22.26 0.488,-22.26 0.489,-22.26 0.488,-22.26 0.492,-22.26 0.489,-22.27 0.488,-22.26 0.488,-22.26 0.488,-22.26 0.493,-22.27 0.488,-22.26 0.488,-22.26 0.488,-22.26 0.489,-22.26 0.492,-22.26 0.488,-22.27 0.488,-22.26 0.489,-22.26 0.488,-22.26 0.492,-22.26 0.488,-22.27 0.489,-22.26 0.488,-22.259 0.488,-22.261 0.492,-22.262 0.489,-22.262 0.488,-22.261 0.488,-22.262 0.489,-22.262 0.492,-22.262 0.488,-22.265 0.488,-22.258 0.489,-22.266 0.488,-22.261 0.492,-22.262 0.488,-22.262 0.489,-22.262 0.488,-22.261 0.488,-22.262 0.492,-22.262 0.489,-22.261 0.488,-22.262 0.488,-22.262 0.489,-22.262 0.488,-22.261 0.492,-22.262 0.488,-22.262 0.489,-22.261 0.488,-22.262 0.488,-22.262 0.492,-22.262 0.489,-22.261"
             style="fill:none;stroke:#0eff00;stroke-width:4.16667;stroke-linecap:butt;stroke-linejoin:miter;stroke-miterlimit:1;stroke-dasharray:none;stroke-opacity:1"
             id="path252" /><path
             d="m 626.23,3025.77 v 0 l 19.094,-22.26 139.578,-22.26 59.571,-22.27 6.05,-22.26 1.329,-22.26 0.98,-22.26 0.953,-22.26 0.953,-22.26 0.95,-22.27 0.953,-22.26 0.949,-22.26 0.953,-22.26 0.949,-22.26 0.953,-22.26 0.95,-22.27 0.953,-22.26 0.949,-22.26 0.953,-22.26 0.953,-22.26 0.949,-22.26 0.953,-22.27 0.95,-22.26 0.953,-22.26 0.949,-22.26 0.953,-22.26 0.949,-22.27 0.954,-22.26 0.949,-22.26 0.953,-22.26 0.949,-22.27 0.953,-22.26 0.949,-22.26 0.954,-22.26 0.953,-22.26 0.949,-22.26 0.953,-22.27 0.949,-22.26 0.953,-22.26 0.95,-22.26 0.953,-22.26 0.949,-22.26 0.953,-22.27 0.949,-22.26 0.953,-22.26 0.95,-22.26 0.953,-22.26 0.953,-22.27 0.949,-22.26 0.953,-22.26 0.949,-22.26 0.954,-22.26 0.949,-22.27 0.953,-22.26 0.949,-22.26 0.953,-22.26 0.949,-22.26 0.954,-22.27 0.949,-22.26 0.953,-22.26 0.949,-22.26 0.953,-22.26 0.953,-22.26 0.95,-22.27 0.953,-22.26 0.949,-22.26 0.953,-22.26 0.949,-22.26 0.953,-22.27 0.95,-22.26 0.953,-22.26 0.949,-22.26 0.953,-22.26 0.949,-22.26 0.953,-22.27 0.95,-22.26 0.953,-22.26 0.953,-22.26 0.949,-22.27 0.953,-22.26 0.949,-22.26 0.954,-22.26 0.949,-22.26 0.953,-22.26 0.949,-22.27 0.953,-22.26 0.95,-22.26 0.953,-22.26 0.949,-22.26 0.953,-22.27 0.953,-22.26 0.949,-22.259 0.953,-22.261 0.95,-22.262 0.953,-22.262 0.949,-22.261 0.953,-22.262 0.949,-22.262 0.953,-22.262 0.95,-22.265 0.953,-22.258 0.949,-22.266 0.953,-22.261 0.949,-22.262 0.954,-22.262 0.953,-22.262 0.949,-22.261 0.953,-22.262 0.949,-22.262 0.953,-22.261 0.95,-22.262 0.953,-22.262 0.949,-22.262 0.953,-22.261 0.949,-22.262 0.953,-22.262 0.95,-22.261 0.953,-22.262 0.949,-22.262 0.953,-22.262 0.953,-22.261"
             style="fill:none;stroke:#0eff00;stroke-width:4.16667;stroke-linecap:butt;stroke-linejoin:miter;stroke-miterlimit:1;stroke-dasharray:none;stroke-opacity:1"
             id="path254" /><path
             d="m 625.98,3025.77 v 0 l 31.02,-22.26 202.16,-22.26 84.692,-22.27 8.601,-22.26 1.914,-22.26 1.426,-22.26 1.387,-22.26 1.386,-22.26 1.383,-22.27 1.387,-22.26 1.387,-22.26 1.382,-22.26 1.387,-22.26 1.383,-22.26 1.387,-22.27 1.386,-22.26 1.383,-22.26 1.387,-22.26 1.383,-22.26 1.387,-22.26 1.386,-22.27 1.383,-22.26 1.387,-22.26 1.383,-22.26 1.386,-22.26 1.383,-22.27 1.387,-22.26 1.387,-22.26 1.382,-22.26 1.387,-22.27 1.383,-22.26 1.387,-22.26 1.386,-22.26 1.383,-22.26 1.387,-22.26 1.387,-22.27 1.382,-22.26 1.386,-22.26 1.38,-22.26 1.39,-22.26 1.38,-22.26 1.39,-22.27 1.39,-22.26 1.38,-22.26 1.39,-22.26 1.38,-22.26 1.39,-22.27 1.38,-22.26 1.39,-22.26 1.38,-22.26 1.39,-22.26 1.38,-22.27 1.39,-22.26 1.38,-22.26 1.39,-22.26 1.38,-22.26 1.39,-22.27 1.38,-22.26 1.39,-22.26 1.38,-22.26 1.39,-22.26 1.38,-22.26 1.39,-22.27 1.38,-22.26 1.39,-22.26 1.38,-22.26 1.39,-22.26 1.38,-22.27 1.39,-22.26 1.39,-22.26 1.38,-22.26 1.38,-22.26 1.39,-22.26 1.38,-22.27 1.39,-22.26 1.38,-22.26 1.39,-22.26 1.38,-22.27 1.39,-22.26 1.39,-22.26 1.38,-22.26 1.39,-22.26 1.38,-22.26 1.39,-22.27 1.38,-22.26 1.39,-22.26 1.38,-22.26 1.39,-22.26 1.38,-22.27 1.38,-22.26 1.39,-22.259 1.39,-22.261 1.38,-22.262 1.39,-22.262 1.38,-22.261 1.39,-22.262 1.38,-22.262 1.39,-22.262 1.38,-22.265 1.39,-22.258 1.38,-22.266 1.39,-22.261 1.38,-22.262 1.39,-22.262 1.38,-22.262 1.39,-22.261 1.38,-22.262 1.39,-22.262 1.38,-22.261 1.39,-22.262 1.38,-22.262 1.39,-22.262 1.38,-22.261 1.39,-22.262 1.38,-22.262 1.39,-22.261 1.39,-22.262 1.38,-22.262 1.39,-22.262 1.38,-22.261"
             style="fill:none;stroke:#0eff00;stroke-width:4.16667;stroke-linecap:butt;stroke-linejoin:miter;stroke-miterlimit:1;stroke-dasharray:none;stroke-opacity:1"
             id="path256" /><path
             d="m 625.727,3025.77 v 0 l 43.238,-22.26 258.918,-22.26 109.367,-22.27 11.19,-22.26 2.47,-22.26 1.85,-22.26 1.79,-22.26 1.8,-22.26 1.79,-22.27 1.8,-22.26 1.79,-22.26 1.8,-22.26 1.79,-22.26 1.79,-22.26 1.8,-22.27 1.79,-22.26 1.8,-22.26 1.79,-22.26 1.79,-22.26 1.8,-22.26 1.79,-22.27 1.79,-22.26 1.8,-22.26 1.79,-22.26 1.8,-22.26 1.79,-22.27 1.79,-22.26 1.8,-22.26 1.79,-22.26 1.8,-22.27 1.79,-22.26 1.79,-22.26 1.8,-22.26 1.79,-22.26 1.8,-22.26 1.79,-22.27 1.79,-22.26 1.79,-22.26 1.8,-22.26 1.79,-22.26 1.8,-22.26 1.79,-22.27 1.8,-22.26 1.79,-22.26 1.79,-22.26 1.8,-22.26 1.79,-22.27 1.8,-22.26 1.79,-22.26 1.79,-22.26 1.79,-22.26 1.8,-22.27 1.79,-22.26 1.8,-22.26 1.79,-22.26 1.8,-22.26 1.79,-22.27 1.79,-22.26 1.8,-22.26 1.79,-22.26 1.8,-22.26 1.79,-22.26 1.79,-22.27 1.79,-22.26 1.8,-22.26 1.79,-22.26 1.8,-22.26 1.79,-22.27 1.8,-22.26 1.79,-22.26 1.79,-22.26 1.8,-22.26 1.79,-22.26 1.8,-22.27 1.79,-22.26 1.79,-22.26 1.8,-22.26 1.79,-22.27 1.79,-22.26 1.8,-22.26 1.79,-22.26 1.8,-22.26 1.79,-22.26 1.79,-22.27 1.8,-22.26 1.79,-22.26 1.8,-22.26 1.79,-22.26 1.79,-22.27 1.8,-22.26 1.79,-22.259 1.8,-22.261 1.79,-22.262 1.79,-22.262 1.8,-22.261 1.79,-22.262 1.79,-22.262 1.8,-22.262 1.79,-22.265 1.8,-22.258 1.79,-22.266 1.79,-22.261 1.8,-22.262 1.79,-22.262 1.8,-22.262 1.79,-22.261 1.79,-22.262 1.79,-22.262 1.8,-22.261 1.79,-22.262 1.8,-22.262 1.79,-22.262 1.8,-22.261 1.79,-22.262 1.79,-22.262 1.8,-22.261 1.79,-22.262 1.8,-22.262 1.79,-22.262 1.79,-22.261"
             style="fill:none;stroke:#0eff00;stroke-width:4.16667;stroke-linecap:butt;stroke-linejoin:miter;stroke-miterlimit:1;stroke-dasharray:none;stroke-opacity:1"
             id="path258" /><path
             d="m 625.477,3025.77 v 0 l 55.476,-22.26 310.527,-22.26 133.88,-22.27 13.83,-22.26 3.02,-22.26 2.24,-22.26 2.19,-22.26 2.18,-22.26 2.18,-22.27 2.18,-22.26 2.18,-22.26 2.18,-22.26 2.18,-22.26 2.18,-22.26 2.18,-22.27 2.19,-22.26 2.18,-22.26 2.18,-22.26 2.17,-22.26 2.18,-22.26 2.19,-22.27 2.18,-22.26 2.18,-22.26 2.18,-22.26 2.18,-22.26 2.18,-22.27 2.18,-22.26 2.18,-22.26 2.18,-22.26 2.18,-22.27 2.18,-22.26 2.18,-22.26 2.18,-22.26 2.18,-22.26 2.19,-22.26 2.18,-22.27 2.17,-22.26 2.18,-22.26 2.18,-22.26 2.19,-22.26 2.18,-22.26 2.18,-22.27 2.18,-22.26 2.18,-22.26 2.18,-22.26 2.18,-22.26 2.18,-22.27 2.18,-22.26 2.18,-22.26 2.18,-22.26 2.18,-22.26 2.18,-22.27 2.18,-22.26 2.19,-22.26 2.17,-22.26 2.18,-22.26 2.18,-22.27 2.18,-22.26 2.19,-22.26 2.18,-22.26 2.18,-22.26 2.18,-22.26 2.18,-22.27 2.18,-22.26 2.18,-22.26 2.18,-22.26 2.18,-22.26 2.18,-22.27 2.18,-22.26 2.18,-22.26 2.18,-22.26 2.18,-22.26 2.18,-22.26 2.18,-22.27 2.18,-22.26 2.18,-22.26 2.18,-22.26 2.19,-22.27 2.18,-22.26 2.18,-22.26 2.18,-22.26 2.18,-22.26 2.18,-22.26 2.18,-22.27 2.18,-22.26 2.18,-22.26 2.18,-22.26 2.18,-22.26 2.18,-22.27 2.18,-22.26 2.18,-22.259 2.18,-22.261 2.18,-22.262 2.18,-22.262 2.18,-22.261 2.18,-22.262 2.19,-22.262 2.18,-22.262 2.18,-22.265 2.18,-22.258 2.18,-22.266 2.18,-22.261 2.18,-22.262 2.18,-22.262 2.18,-22.262 2.18,-22.261 2.18,-22.262 2.18,-22.262 2.18,-22.261 2.18,-22.262 2.18,-22.262 2.18,-22.262 2.18,-22.261 2.18,-22.262 2.18,-22.262 2.19,-22.261 2.18,-22.262 2.18,-22.262 2.18,-22.262 2.18,-22.261"
             style="fill:none;stroke:#0eff00;stroke-width:4.16667;stroke-linecap:butt;stroke-linejoin:miter;stroke-miterlimit:1;stroke-dasharray:none;stroke-opacity:1"
             id="path260" /><path
             d="m 625.227,3025.77 v 0 l 67.605,-22.26 357.608,-22.26 158.29,-22.27 16.59,-22.26 3.55,-22.26 2.62,-22.26 2.55,-22.26 2.55,-22.26 2.55,-22.27 2.54,-22.26 2.55,-22.26 2.55,-22.26 2.55,-22.26 2.55,-22.26 2.54,-22.27 2.55,-22.26 2.55,-22.26 2.55,-22.26 2.54,-22.26 2.55,-22.26 2.55,-22.27 2.54,-22.26 2.55,-22.26 2.55,-22.26 2.55,-22.26 2.55,-22.27 2.54,-22.26 2.55,-22.26 2.55,-22.26 2.55,-22.27 2.54,-22.26 2.55,-22.26 2.55,-22.26 2.55,-22.26 2.55,-22.26 2.54,-22.27 2.55,-22.26 2.55,-22.26 2.55,-22.26 2.54,-22.26 2.55,-22.26 2.55,-22.27 2.54,-22.26 2.55,-22.26 2.55,-22.26 2.55,-22.26 2.55,-22.27 2.54,-22.26 2.55,-22.26 2.55,-22.26 2.55,-22.26 2.54,-22.27 2.55,-22.26 2.55,-22.26 2.54,-22.26 2.56,-22.26 2.54,-22.27 2.55,-22.26 2.55,-22.26 2.54,-22.26 2.55,-22.26 2.55,-22.26 2.55,-22.27 2.54,-22.26 2.55,-22.26 2.55,-22.26 2.55,-22.26 2.55,-22.27 2.54,-22.26 2.55,-22.26 2.55,-22.26 2.54,-22.26 2.55,-22.26 2.55,-22.27 2.55,-22.26 2.54,-22.26 2.55,-22.26 2.55,-22.27 2.55,-22.26 2.55,-22.26 2.54,-22.26 2.55,-22.26 2.55,-22.26 2.55,-22.27 2.54,-22.26 2.55,-22.26 2.55,-22.26 2.54,-22.26 2.56,-22.27 2.54,-22.26 2.55,-22.259 2.55,-22.261 2.54,-22.262 2.55,-22.262 2.55,-22.261 2.55,-22.262 2.54,-22.262 2.55,-22.262 2.55,-22.265 2.55,-22.258 2.55,-22.266 2.54,-22.261 2.55,-22.262 2.55,-22.262 2.54,-22.262 2.55,-22.261 2.55,-22.262 2.55,-22.262 2.54,-22.261 2.55,-22.262 2.55,-22.262 2.55,-22.262 2.55,-22.261 2.54,-22.262 2.55,-22.262 2.55,-22.261 2.55,-22.262 2.54,-22.262 2.55,-22.262 2.55,-22.261"
             style="fill:none;stroke:#0eff00;stroke-width:4.16667;stroke-linecap:butt;stroke-linejoin:miter;stroke-miterlimit:1;stroke-dasharray:none;stroke-opacity:1"
             id="path262" /><path
             d="m 624.977,3025.77 v 0 l 79.55,-22.26 400.723,-22.26 182.62,-22.27 19.44,-22.26 4.08,-22.26 2.98,-22.26 2.9,-22.26 2.9,-22.26 2.9,-22.27 2.89,-22.26 2.9,-22.26 2.9,-22.26 2.9,-22.26 2.89,-22.26 2.9,-22.27 2.9,-22.26 2.9,-22.26 2.89,-22.26 2.9,-22.26 2.9,-22.26 2.9,-22.27 2.89,-22.26 2.9,-22.26 2.9,-22.26 2.9,-22.26 2.89,-22.27 2.9,-22.26 2.9,-22.26 2.89,-22.26 2.9,-22.27 2.9,-22.26 2.89,-22.26 2.9,-22.26 2.9,-22.26 2.9,-22.26 2.89,-22.27 2.9,-22.26 2.9,-22.26 2.89,-22.26 2.9,-22.26 2.9,-22.26 2.9,-22.27 2.89,-22.26 2.9,-22.26 2.9,-22.26 2.9,-22.26 2.89,-22.27 2.9,-22.26 2.9,-22.26 2.9,-22.26 2.89,-22.26 2.9,-22.27 2.9,-22.26 2.9,-22.26 2.89,-22.26 2.9,-22.26 2.9,-22.27 2.89,-22.26 2.9,-22.26 2.9,-22.26 2.89,-22.26 2.9,-22.26 2.9,-22.27 2.89,-22.26 2.9,-22.26 2.9,-22.26 2.9,-22.26 2.89,-22.27 2.9,-22.26 2.9,-22.26 2.9,-22.26 2.89,-22.26 2.9,-22.26 2.9,-22.27 2.9,-22.26 2.89,-22.26 2.9,-22.26 2.9,-22.27 2.9,-22.26 2.89,-22.26 2.9,-22.26 2.9,-22.26 2.89,-22.26 2.9,-22.27 2.9,-22.26 2.9,-22.26 2.89,-22.26 2.9,-22.26 2.9,-22.27 2.89,-22.26 2.9,-22.259 2.9,-22.261 2.89,-22.262 2.9,-22.262 2.9,-22.261 2.9,-22.262 2.89,-22.262 2.9,-22.262 2.9,-22.265 2.89,-22.258 2.9,-22.266 2.9,-22.261 2.9,-22.262 2.89,-22.262 2.9,-22.262 2.9,-22.261 2.9,-22.262 2.89,-22.262 2.9,-22.261 2.9,-22.262 2.9,-22.262 2.89,-22.262 2.9,-22.261 2.9,-22.262 2.9,-22.262 2.89,-22.261 2.9,-22.262 2.9,-22.262 2.89,-22.262 2.9,-22.261"
             style="fill:none;stroke:#0eff00;stroke-width:4.16667;stroke-linecap:butt;stroke-linejoin:miter;stroke-miterlimit:1;stroke-dasharray:none;stroke-opacity:1"
             id="path264" /><path
             d="m 624.723,3025.77 v 0 l 91.273,-22.26 440.324,-22.26 206.86,-22.27 22.43,-22.26 4.59,-22.26 3.33,-22.26 3.24,-22.26 3.23,-22.26 3.23,-22.27 3.23,-22.26 3.23,-22.26 3.24,-22.26 3.23,-22.26 3.23,-22.26 3.23,-22.27 3.23,-22.26 3.23,-22.26 3.23,-22.26 3.23,-22.26 3.23,-22.26 3.23,-22.27 3.23,-22.26 3.24,-22.26 3.23,-22.26 3.23,-22.26 3.23,-22.27 3.23,-22.26 3.24,-22.26 3.23,-22.26 3.23,-22.27 3.23,-22.26 3.23,-22.26 3.23,-22.26 3.23,-22.26 3.23,-22.26 3.23,-22.27 3.23,-22.26 3.24,-22.26 3.23,-22.26 3.23,-22.26 3.23,-22.26 3.23,-22.27 3.23,-22.26 3.23,-22.26 3.23,-22.26 3.24,-22.26 3.23,-22.27 3.23,-22.26 3.23,-22.26 3.23,-22.26 3.23,-22.26 3.23,-22.27 3.23,-22.26 3.24,-22.26 3.23,-22.26 3.23,-22.26 3.23,-22.27 3.23,-22.26 3.23,-22.26 3.23,-22.26 3.23,-22.26 3.23,-22.26 3.23,-22.27 3.24,-22.26 3.23,-22.26 3.23,-22.26 3.23,-22.26 3.23,-22.27 3.23,-22.26 3.24,-22.26 3.23,-22.26 3.23,-22.26 3.23,-22.26 3.23,-22.27 3.23,-22.26 3.23,-22.26 3.23,-22.26 3.23,-22.27 3.23,-22.26 3.24,-22.26 3.23,-22.26 3.23,-22.26 3.23,-22.26 3.23,-22.27 3.23,-22.26 3.24,-22.26 3.23,-22.26 3.23,-22.26 3.23,-22.27 3.23,-22.26 3.23,-22.259 3.23,-22.261 3.23,-22.262 3.23,-22.262 3.23,-22.261 3.24,-22.262 3.23,-22.262 3.23,-22.262 3.23,-22.265 3.23,-22.258 3.23,-22.266 3.23,-22.261 3.23,-22.262 3.24,-22.262 3.23,-22.262 3.23,-22.261 3.23,-22.262 3.23,-22.262 3.23,-22.261 3.23,-22.262 3.23,-22.262 3.24,-22.262 3.23,-22.261 3.23,-22.262 3.23,-22.262 3.23,-22.261 3.23,-22.262 3.23,-22.262 3.23,-22.262 3.23,-22.261"
             style="fill:none;stroke:#0eff00;stroke-width:4.16667;stroke-linecap:butt;stroke-linejoin:miter;stroke-miterlimit:1;stroke-dasharray:none;stroke-opacity:1"
             id="path266" /><path
             d="m 624.477,3025.77 v 0 l 102.734,-22.26 476.839,-22.26 230.97,-22.27 25.55,-22.26 5.09,-22.26 3.67,-22.26 3.56,-22.26 3.55,-22.26 3.55,-22.27 3.55,-22.26 3.55,-22.26 3.55,-22.26 3.56,-22.26 3.55,-22.26 3.55,-22.27 3.55,-22.26 3.55,-22.26 3.55,-22.26 3.55,-22.26 3.55,-22.26 3.56,-22.27 3.55,-22.26 3.55,-22.26 3.55,-22.26 3.55,-22.26 3.55,-22.27 3.55,-22.26 3.55,-22.26 3.55,-22.26 3.55,-22.27 3.56,-22.26 3.55,-22.26 3.55,-22.26 3.55,-22.26 3.55,-22.26 3.55,-22.27 3.55,-22.26 3.55,-22.26 3.55,-22.26 3.55,-22.26 3.56,-22.26 3.55,-22.27 3.55,-22.26 3.55,-22.26 3.55,-22.26 3.55,-22.26 3.55,-22.27 3.55,-22.26 3.56,-22.26 3.55,-22.26 3.55,-22.26 3.55,-22.27 3.55,-22.26 3.55,-22.26 3.55,-22.26 3.55,-22.26 3.56,-22.27 3.55,-22.26 3.55,-22.26 3.55,-22.26 3.55,-22.26 3.55,-22.26 3.55,-22.27 3.55,-22.26 3.55,-22.26 3.55,-22.26 3.55,-22.26 3.55,-22.27 3.55,-22.26 3.56,-22.26 3.55,-22.26 3.55,-22.26 3.55,-22.26 3.55,-22.27 3.55,-22.26 3.55,-22.26 3.55,-22.26 3.56,-22.27 3.55,-22.26 3.55,-22.26 3.55,-22.26 3.55,-22.26 3.55,-22.26 3.55,-22.27 3.56,-22.26 3.55,-22.26 3.55,-22.26 3.55,-22.26 3.55,-22.27 3.55,-22.26 3.55,-22.259 3.55,-22.261 3.55,-22.262 3.55,-22.262 3.56,-22.261 3.55,-22.262 3.55,-22.262 3.55,-22.262 3.55,-22.265 3.55,-22.258 3.55,-22.266 3.55,-22.261 3.55,-22.262 3.55,-22.262 3.55,-22.262 3.56,-22.261 3.55,-22.262 3.55,-22.262 3.55,-22.261 3.55,-22.262 3.55,-22.262 3.55,-22.262 3.55,-22.261 3.56,-22.262 3.55,-22.262 3.55,-22.261 3.55,-22.262 3.55,-22.262 3.55,-22.262 3.55,-22.261"
             style="fill:none;stroke:#0eff00;stroke-width:4.16667;stroke-linecap:butt;stroke-linejoin:miter;stroke-miterlimit:1;stroke-dasharray:none;stroke-opacity:1"
             id="path268" /><path
             d="m 624.227,3025.77 v 0 l 113.937,-22.26 510.606,-22.26 254.91,-22.27 28.82,-22.26 5.59,-22.26 3.99,-22.26 3.87,-22.26 3.86,-22.26 3.86,-22.27 3.86,-22.26 3.85,-22.26 3.86,-22.26 3.86,-22.26 3.86,-22.26 3.86,-22.27 3.86,-22.26 3.85,-22.26 3.86,-22.26 3.86,-22.26 3.86,-22.26 3.85,-22.27 3.86,-22.26 3.86,-22.26 3.86,-22.26 3.86,-22.26 3.85,-22.27 3.86,-22.26 3.86,-22.26 3.86,-22.26 3.86,-22.27 3.86,-22.26 3.86,-22.26 3.85,-22.26 3.86,-22.26 3.86,-22.26 3.86,-22.27 3.86,-22.26 3.85,-22.26 3.86,-22.26 3.86,-22.26 3.86,-22.26 3.85,-22.27 3.86,-22.26 3.86,-22.26 3.86,-22.26 3.86,-22.26 3.86,-22.27 3.86,-22.26 3.85,-22.26 3.86,-22.26 3.86,-22.26 3.86,-22.27 3.86,-22.26 3.86,-22.26 3.85,-22.26 3.86,-22.26 3.86,-22.27 3.85,-22.26 3.86,-22.26 3.86,-22.26 3.86,-22.26 3.86,-22.26 3.86,-22.27 3.86,-22.26 3.85,-22.26 3.86,-22.26 3.86,-22.26 3.86,-22.27 3.86,-22.26 3.86,-22.26 3.85,-22.26 3.86,-22.26 3.86,-22.26 3.86,-22.27 3.85,-22.26 3.86,-22.26 3.86,-22.26 3.86,-22.27 3.86,-22.26 3.86,-22.26 3.85,-22.26 3.86,-22.26 3.86,-22.26 3.86,-22.27 3.86,-22.26 3.86,-22.26 3.85,-22.26 3.86,-22.26 3.86,-22.27 3.86,-22.26 3.86,-22.259 3.85,-22.261 3.86,-22.262 3.86,-22.262 3.86,-22.261 3.86,-22.262 3.85,-22.262 3.86,-22.262 3.86,-22.265 3.86,-22.258 3.86,-22.266 3.86,-22.261 3.85,-22.262 3.86,-22.262 3.86,-22.262 3.86,-22.261 3.86,-22.262 3.86,-22.262 3.85,-22.261 3.86,-22.262 3.86,-22.262 3.86,-22.262 3.85,-22.261 3.86,-22.262 3.86,-22.262 3.86,-22.261 3.86,-22.262 3.86,-22.262 3.85,-22.262 3.86,-22.261"
             style="fill:none;stroke:#0eff00;stroke-width:4.16667;stroke-linecap:butt;stroke-linejoin:miter;stroke-miterlimit:1;stroke-dasharray:none;stroke-opacity:1"
             id="path270" /></g></g><g
         id="g272"><g
           id="g274"
           clip-path="url(#clipPath278)"><g
             id="g280"
             transform="scale(4.16667)"><text
               transform="matrix(0,-1,-1,0,489,436.186)"
               style="font-variant:normal;font-weight:normal;font-size:14px;font-family:Menlo;-inkscape-font-specification:Menlo-Regular;writing-mode:lr-tb;fill:#ff0000;fill-opacity:1;fill-rule:nonzero;stroke:none"
               id="text284"><tspan
                 x="0 8.4280005 16.856001 25.283415 33.711414 42.138828 50.56683"
                 y="0"
                 id="tspan282">0.5W/v1</tspan></text></g></g></g><g
         id="g286"><g
           id="g288"
           clip-path="url(#clipPath292)"><g
             id="g294"
             transform="scale(7.81367)"><path
               d="m 16300,384.391 v 0 l -8109.89,-2.849 -2703.3,-2.849 -1351.65,-2.849 -810.99,-2.849 -540.66,-2.849 -386.19,-2.849 -289.64,-2.849 -225.27,-2.849 -180.22,-2.849 -147.45,-2.849 -122.88,-2.849 -103.97,-2.849 -89.12,-2.85 -77.24,-2.849 -67.58,-2.849 -59.63,-2.849 -53.011,-2.849 -47.425,-2.849 -42.684,-2.849 -38.619,-2.849 -35.108,-2.849 -32.055,-2.849 -29.383,-2.849 -27.033,-2.849 -24.954,-2.85 -23.105,-2.849 -21.455,-2.849 -19.975,-2.849 -18.643,-2.849 -17.441,-2.849 -16.35,-2.849 -15.36,-2.849 -14.456,-2.85 -13.63,-2.849 -12.873,-2.849 -12.177,-2.849 -11.536,-2.849 -10.945,-2.849 -10.397,-2.849 -9.89,-2.849 -9.419,-2.849 -8.982,-2.849 -8.572,-2.849 -8.192,-2.849 -7.835,-2.849 -7.503,-2.849 -7.19,-2.85 -6.896,-2.849 -6.62,-2.849 -6.361,-2.849 -6.116,-2.849 -5.885,-2.849 -5.667,-2.849 -5.462,-2.85 -5.265,-2.849 -5.082,-2.849 -4.906,-2.849 -4.74,-2.849 -4.582,-2.849 -4.431,-2.849 -4.289,-2.849 -4.153,-2.849 -4.022,-2.849 -3.899,-2.849 -3.781,-2.849 -3.668,-2.849 -3.56,-2.849 -3.457,-2.85 -3.358,-2.849 -3.264,-2.849 -3.173,-2.849 -3.086,-2.849 -3.002,-2.849 -2.923,-2.849 -2.845,-2.85 -2.772,-2.849 -2.701,-2.849 -2.632,-2.849 -2.566,-2.849 -2.504,-2.849 -2.442,-2.849 -2.383,-2.849 -2.326,-2.849 -2.272,-2.849 -2.219,-2.849 -2.167,-2.849 -2.119,-2.849 -2.071,-2.85 -2.025,-2.849 -1.98,-2.849 -1.938,-2.849 -1.896,-2.849 -1.855,-2.849 -1.816,-2.849 -1.779,-2.849 -1.742,-2.849 -1.706,-2.849 -1.672,-2.85 -1.638,-2.848 -1.606,-2.8499 -1.574,-2.8491 -1.544,-2.8491 -1.514,-2.849 -1.486,-2.8491 -1.457,-2.8491 -1.43,-2.849 -1.404,-2.8491 -1.377,-2.8491 -1.353,-2.8491 -1.328,-2.849 -1.305,-2.8491 -1.282,-2.8491 -1.259,-2.8491 -1.237,-2.849 -1.216,-2.8491 -1.195,-2.8491 -1.175,-2.849 -1.155,-2.8491"
               style="fill:none;stroke:#ff0000;stroke-width:0.533253;stroke-linecap:butt;stroke-linejoin:miter;stroke-miterlimit:1;stroke-dasharray:none;stroke-opacity:1"
               id="path296" /></g><g
             id="g298"
             transform="scale(7.81367)"><path
               d="m 16300,384.391 v 0 l -8109.89,-2.849 -2703.3,-2.849 -1351.65,-2.849 -810.99,-2.849 -540.66,-2.849 -386.19,-2.849 -289.64,-2.849 -225.27,-2.849 -180.22,-2.849 -147.45,-2.849 -122.88,-2.849 -103.97,-2.849 -89.12,-2.85 -77.24,-2.849 -67.58,-2.849 -59.63,-2.849 -53.011,-2.849 -47.425,-2.849 -42.684,-2.849 -38.619,-2.849 -35.108,-2.849 -32.055,-2.849 -29.383,-2.849 -27.033,-2.849 -24.954,-2.85 -23.105,-2.849 -21.455,-2.849 -19.975,-2.849 -18.643,-2.849 -17.441,-2.849 -16.35,-2.849 -15.36,-2.849 -14.456,-2.85 -13.63,-2.849 -12.873,-2.849 -12.177,-2.849 -11.536,-2.849 -10.945,-2.849 -10.397,-2.849 -9.89,-2.849 -9.419,-2.849 -8.982,-2.849 -8.572,-2.849 -8.192,-2.849 -7.835,-2.849 -7.503,-2.849 -7.19,-2.85 -6.896,-2.849 -6.62,-2.849 -6.361,-2.849 -6.116,-2.849 -5.885,-2.849 -5.667,-2.849 -5.462,-2.85 -5.265,-2.849 -5.082,-2.849 -4.906,-2.849 -4.74,-2.849 -4.582,-2.849 -4.431,-2.849 -4.289,-2.849 -4.153,-2.849 -4.022,-2.849 -3.899,-2.849 -3.781,-2.849 -3.668,-2.849 -3.56,-2.849 -3.457,-2.85 -3.358,-2.849 -3.264,-2.849 -3.173,-2.849 -3.086,-2.849 -3.002,-2.849 -2.923,-2.849 -2.845,-2.85 -2.772,-2.849 -2.701,-2.849 -2.632,-2.849 -2.566,-2.849 -2.504,-2.849 -2.442,-2.849 -2.383,-2.849 -2.326,-2.849 -2.272,-2.849 -2.219,-2.849 -2.167,-2.849 -2.119,-2.849 -2.071,-2.85 -2.025,-2.849 -1.98,-2.849 -1.938,-2.849 -1.896,-2.849 -1.855,-2.849 -1.816,-2.849 -1.779,-2.849 -1.742,-2.849 -1.706,-2.849 -1.672,-2.85 -1.638,-2.848 -1.606,-2.8499 -1.574,-2.8491 -1.544,-2.8491 -1.514,-2.849 -1.486,-2.8491 -1.457,-2.8491 -1.43,-2.849 -1.404,-2.8491 -1.377,-2.8491 -1.353,-2.8491 -1.328,-2.849 -1.305,-2.8491 -1.282,-2.8491 -1.259,-2.8491 -1.237,-2.849 -1.216,-2.8491 -1.195,-2.8491 -1.175,-2.849 -1.155,-2.8491"
               style="fill:none;stroke:#ff0000;stroke-width:0.533253;stroke-linecap:butt;stroke-linejoin:miter;stroke-miterlimit:1;stroke-dasharray:none;stroke-opacity:1"
               id="path300" /></g><g
             id="g302"
             transform="scale(7.81367)"><path
               d="m 16300,384.391 v 0 l -8109.89,-2.849 -2703.3,-2.849 -1351.65,-2.849 -810.99,-2.849 -540.66,-2.849 -386.19,-2.849 -289.64,-2.849 -225.27,-2.849 -180.22,-2.849 -147.45,-2.849 -122.88,-2.849 -103.97,-2.849 -89.12,-2.85 -77.24,-2.849 -67.58,-2.849 -59.63,-2.849 -53.011,-2.849 -47.425,-2.849 -42.684,-2.849 -38.619,-2.849 -35.108,-2.849 -32.055,-2.849 -29.383,-2.849 -27.033,-2.849 -24.954,-2.85 -23.105,-2.849 -21.455,-2.849 -19.975,-2.849 -18.643,-2.849 -17.441,-2.849 -16.35,-2.849 -15.36,-2.849 -14.456,-2.85 -13.63,-2.849 -12.873,-2.849 -12.177,-2.849 -11.536,-2.849 -10.945,-2.849 -10.397,-2.849 -9.89,-2.849 -9.419,-2.849 -8.982,-2.849 -8.572,-2.849 -8.192,-2.849 -7.835,-2.849 -7.503,-2.849 -7.19,-2.85 -6.896,-2.849 -6.62,-2.849 -6.361,-2.849 -6.116,-2.849 -5.885,-2.849 -5.667,-2.849 -5.462,-2.85 -5.265,-2.849 -5.082,-2.849 -4.906,-2.849 -4.74,-2.849 -4.582,-2.849 -4.431,-2.849 -4.289,-2.849 -4.153,-2.849 -4.022,-2.849 -3.899,-2.849 -3.781,-2.849 -3.668,-2.849 -3.56,-2.849 -3.457,-2.85 -3.358,-2.849 -3.264,-2.849 -3.173,-2.849 -3.086,-2.849 -3.002,-2.849 -2.923,-2.849 -2.845,-2.85 -2.772,-2.849 -2.701,-2.849 -2.632,-2.849 -2.566,-2.849 -2.504,-2.849 -2.442,-2.849 -2.383,-2.849 -2.326,-2.849 -2.272,-2.849 -2.219,-2.849 -2.167,-2.849 -2.119,-2.849 -2.071,-2.85 -2.025,-2.849 -1.98,-2.849 -1.938,-2.849 -1.896,-2.849 -1.855,-2.849 -1.816,-2.849 -1.779,-2.849 -1.742,-2.849 -1.706,-2.849 -1.672,-2.85 -1.638,-2.848 -1.606,-2.8499 -1.574,-2.8491 -1.544,-2.8491 -1.514,-2.849 -1.486,-2.8491 -1.457,-2.8491 -1.43,-2.849 -1.404,-2.8491 -1.377,-2.8491 -1.353,-2.8491 -1.328,-2.849 -1.305,-2.8491 -1.282,-2.8491 -1.259,-2.8491 -1.237,-2.849 -1.216,-2.8491 -1.195,-2.8491 -1.175,-2.849 -1.155,-2.8491"
               style="fill:none;stroke:#ff0000;stroke-width:0.533253;stroke-linecap:butt;stroke-linejoin:miter;stroke-miterlimit:1;stroke-dasharray:none;stroke-opacity:1"
               id="path304" /></g><g
             id="g306"
             transform="scale(7.81367)"><path
               d="m 16300,384.391 v 0 l -8109.89,-2.849 -2703.3,-2.849 -1351.65,-2.849 -810.99,-2.849 -540.66,-2.849 -386.19,-2.849 -289.64,-2.849 -225.27,-2.849 -180.22,-2.849 -147.45,-2.849 -122.88,-2.849 -103.97,-2.849 -89.12,-2.85 -77.24,-2.849 -67.58,-2.849 -59.63,-2.849 -53.011,-2.849 -47.425,-2.849 -42.684,-2.849 -38.619,-2.849 -35.108,-2.849 -32.055,-2.849 -29.383,-2.849 -27.033,-2.849 -24.954,-2.85 -23.105,-2.849 -21.455,-2.849 -19.975,-2.849 -18.643,-2.849 -17.441,-2.849 -16.35,-2.849 -15.36,-2.849 -14.456,-2.85 -13.63,-2.849 -12.873,-2.849 -12.177,-2.849 -11.536,-2.849 -10.945,-2.849 -10.397,-2.849 -9.89,-2.849 -9.419,-2.849 -8.982,-2.849 -8.572,-2.849 -8.192,-2.849 -7.835,-2.849 -7.503,-2.849 -7.19,-2.85 -6.896,-2.849 -6.62,-2.849 -6.361,-2.849 -6.116,-2.849 -5.885,-2.849 -5.667,-2.849 -5.462,-2.85 -5.265,-2.849 -5.082,-2.849 -4.906,-2.849 -4.74,-2.849 -4.582,-2.849 -4.431,-2.849 -4.289,-2.849 -4.153,-2.849 -4.022,-2.849 -3.899,-2.849 -3.781,-2.849 -3.668,-2.849 -3.56,-2.849 -3.457,-2.85 -3.358,-2.849 -3.264,-2.849 -3.173,-2.849 -3.086,-2.849 -3.002,-2.849 -2.923,-2.849 -2.845,-2.85 -2.772,-2.849 -2.701,-2.849 -2.632,-2.849 -2.566,-2.849 -2.504,-2.849 -2.442,-2.849 -2.383,-2.849 -2.326,-2.849 -2.272,-2.849 -2.219,-2.849 -2.167,-2.849 -2.119,-2.849 -2.071,-2.85 -2.025,-2.849 -1.98,-2.849 -1.938,-2.849 -1.896,-2.849 -1.855,-2.849 -1.816,-2.849 -1.779,-2.849 -1.742,-2.849 -1.706,-2.849 -1.672,-2.85 -1.638,-2.848 -1.606,-2.8499 -1.574,-2.8491 -1.544,-2.8491 -1.514,-2.849 -1.486,-2.8491 -1.457,-2.8491 -1.43,-2.849 -1.404,-2.8491 -1.377,-2.8491 -1.353,-2.8491 -1.328,-2.849 -1.305,-2.8491 -1.282,-2.8491 -1.259,-2.8491 -1.237,-2.849 -1.216,-2.8491 -1.195,-2.8491 -1.175,-2.849 -1.155,-2.8491"
               style="fill:none;stroke:#ff0000;stroke-width:0.533253;stroke-linecap:butt;stroke-linejoin:miter;stroke-miterlimit:1;stroke-dasharray:none;stroke-opacity:1"
               id="path308" /></g><g
             id="g310"
             transform="scale(7.81367)"><path
               d="m 16300,384.391 v 0 l -8109.89,-2.849 -2703.3,-2.849 -1351.65,-2.849 -810.99,-2.849 -540.66,-2.849 -386.19,-2.849 -289.64,-2.849 -225.27,-2.849 -180.22,-2.849 -147.45,-2.849 -122.88,-2.849 -103.97,-2.849 -89.12,-2.85 -77.24,-2.849 -67.58,-2.849 -59.63,-2.849 -53.011,-2.849 -47.425,-2.849 -42.684,-2.849 -38.619,-2.849 -35.108,-2.849 -32.055,-2.849 -29.383,-2.849 -27.033,-2.849 -24.954,-2.85 -23.105,-2.849 -21.455,-2.849 -19.975,-2.849 -18.643,-2.849 -17.441,-2.849 -16.35,-2.849 -15.36,-2.849 -14.456,-2.85 -13.63,-2.849 -12.873,-2.849 -12.177,-2.849 -11.536,-2.849 -10.945,-2.849 -10.397,-2.849 -9.89,-2.849 -9.419,-2.849 -8.982,-2.849 -8.572,-2.849 -8.192,-2.849 -7.835,-2.849 -7.503,-2.849 -7.19,-2.85 -6.896,-2.849 -6.62,-2.849 -6.361,-2.849 -6.116,-2.849 -5.885,-2.849 -5.667,-2.849 -5.462,-2.85 -5.265,-2.849 -5.082,-2.849 -4.906,-2.849 -4.74,-2.849 -4.582,-2.849 -4.431,-2.849 -4.289,-2.849 -4.153,-2.849 -4.022,-2.849 -3.899,-2.849 -3.781,-2.849 -3.668,-2.849 -3.56,-2.849 -3.457,-2.85 -3.358,-2.849 -3.264,-2.849 -3.173,-2.849 -3.086,-2.849 -3.002,-2.849 -2.923,-2.849 -2.845,-2.85 -2.772,-2.849 -2.701,-2.849 -2.632,-2.849 -2.566,-2.849 -2.504,-2.849 -2.442,-2.849 -2.383,-2.849 -2.326,-2.849 -2.272,-2.849 -2.219,-2.849 -2.167,-2.849 -2.119,-2.849 -2.071,-2.85 -2.025,-2.849 -1.98,-2.849 -1.938,-2.849 -1.896,-2.849 -1.855,-2.849 -1.816,-2.849 -1.779,-2.849 -1.742,-2.849 -1.706,-2.849 -1.672,-2.85 -1.638,-2.848 -1.606,-2.8499 -1.574,-2.8491 -1.544,-2.8491 -1.514,-2.849 -1.486,-2.8491 -1.457,-2.8491 -1.43,-2.849 -1.404,-2.8491 -1.377,-2.8491 -1.353,-2.8491 -1.328,-2.849 -1.305,-2.8491 -1.282,-2.8491 -1.259,-2.8491 -1.237,-2.849 -1.216,-2.8491 -1.195,-2.8491 -1.175,-2.849 -1.155,-2.8491"
               style="fill:none;stroke:#ff0000;stroke-width:0.533253;stroke-linecap:butt;stroke-linejoin:miter;stroke-miterlimit:1;stroke-dasharray:none;stroke-opacity:1"
               id="path312" /></g><g
             id="g314"
             transform="scale(7.81367)"><path
               d="m 16300,384.391 v 0 l -8109.89,-2.849 -2703.3,-2.849 -1351.65,-2.849 -810.99,-2.849 -540.66,-2.849 -386.19,-2.849 -289.64,-2.849 -225.27,-2.849 -180.22,-2.849 -147.45,-2.849 -122.88,-2.849 -103.97,-2.849 -89.12,-2.85 -77.24,-2.849 -67.58,-2.849 -59.63,-2.849 -53.011,-2.849 -47.425,-2.849 -42.684,-2.849 -38.619,-2.849 -35.108,-2.849 -32.055,-2.849 -29.383,-2.849 -27.033,-2.849 -24.954,-2.85 -23.105,-2.849 -21.455,-2.849 -19.975,-2.849 -18.643,-2.849 -17.441,-2.849 -16.35,-2.849 -15.36,-2.849 -14.456,-2.85 -13.63,-2.849 -12.873,-2.849 -12.177,-2.849 -11.536,-2.849 -10.945,-2.849 -10.397,-2.849 -9.89,-2.849 -9.419,-2.849 -8.982,-2.849 -8.572,-2.849 -8.192,-2.849 -7.835,-2.849 -7.503,-2.849 -7.19,-2.85 -6.896,-2.849 -6.62,-2.849 -6.361,-2.849 -6.116,-2.849 -5.885,-2.849 -5.667,-2.849 -5.462,-2.85 -5.265,-2.849 -5.082,-2.849 -4.906,-2.849 -4.74,-2.849 -4.582,-2.849 -4.431,-2.849 -4.289,-2.849 -4.153,-2.849 -4.022,-2.849 -3.899,-2.849 -3.781,-2.849 -3.668,-2.849 -3.56,-2.849 -3.457,-2.85 -3.358,-2.849 -3.264,-2.849 -3.173,-2.849 -3.086,-2.849 -3.002,-2.849 -2.923,-2.849 -2.845,-2.85 -2.772,-2.849 -2.701,-2.849 -2.632,-2.849 -2.566,-2.849 -2.504,-2.849 -2.442,-2.849 -2.383,-2.849 -2.326,-2.849 -2.272,-2.849 -2.219,-2.849 -2.167,-2.849 -2.119,-2.849 -2.071,-2.85 -2.025,-2.849 -1.98,-2.849 -1.938,-2.849 -1.896,-2.849 -1.855,-2.849 -1.816,-2.849 -1.779,-2.849 -1.742,-2.849 -1.706,-2.849 -1.672,-2.85 -1.638,-2.848 -1.606,-2.8499 -1.574,-2.8491 -1.544,-2.8491 -1.514,-2.849 -1.486,-2.8491 -1.457,-2.8491 -1.43,-2.849 -1.404,-2.8491 -1.377,-2.8491 -1.353,-2.8491 -1.328,-2.849 -1.305,-2.8491 -1.282,-2.8491 -1.259,-2.8491 -1.237,-2.849 -1.216,-2.8491 -1.195,-2.8491 -1.175,-2.849 -1.155,-2.8491"
               style="fill:none;stroke:#ff0000;stroke-width:0.533253;stroke-linecap:butt;stroke-linejoin:miter;stroke-miterlimit:1;stroke-dasharray:none;stroke-opacity:1"
               id="path316" /></g><g
             id="g318"
             transform="scale(7.81367)"><path
               d="m 16300,384.391 v 0 l -8109.89,-2.849 -2703.3,-2.849 -1351.65,-2.849 -810.99,-2.849 -540.66,-2.849 -386.19,-2.849 -289.64,-2.849 -225.27,-2.849 -180.22,-2.849 -147.45,-2.849 -122.88,-2.849 -103.97,-2.849 -89.12,-2.85 -77.24,-2.849 -67.58,-2.849 -59.63,-2.849 -53.011,-2.849 -47.425,-2.849 -42.684,-2.849 -38.619,-2.849 -35.108,-2.849 -32.055,-2.849 -29.383,-2.849 -27.033,-2.849 -24.954,-2.85 -23.105,-2.849 -21.455,-2.849 -19.975,-2.849 -18.643,-2.849 -17.441,-2.849 -16.35,-2.849 -15.36,-2.849 -14.456,-2.85 -13.63,-2.849 -12.873,-2.849 -12.177,-2.849 -11.536,-2.849 -10.945,-2.849 -10.397,-2.849 -9.89,-2.849 -9.419,-2.849 -8.982,-2.849 -8.572,-2.849 -8.192,-2.849 -7.835,-2.849 -7.503,-2.849 -7.19,-2.85 -6.896,-2.849 -6.62,-2.849 -6.361,-2.849 -6.116,-2.849 -5.885,-2.849 -5.667,-2.849 -5.462,-2.85 -5.265,-2.849 -5.082,-2.849 -4.906,-2.849 -4.74,-2.849 -4.582,-2.849 -4.431,-2.849 -4.289,-2.849 -4.153,-2.849 -4.022,-2.849 -3.899,-2.849 -3.781,-2.849 -3.668,-2.849 -3.56,-2.849 -3.457,-2.85 -3.358,-2.849 -3.264,-2.849 -3.173,-2.849 -3.086,-2.849 -3.002,-2.849 -2.923,-2.849 -2.845,-2.85 -2.772,-2.849 -2.701,-2.849 -2.632,-2.849 -2.566,-2.849 -2.504,-2.849 -2.442,-2.849 -2.383,-2.849 -2.326,-2.849 -2.272,-2.849 -2.219,-2.849 -2.167,-2.849 -2.119,-2.849 -2.071,-2.85 -2.025,-2.849 -1.98,-2.849 -1.938,-2.849 -1.896,-2.849 -1.855,-2.849 -1.816,-2.849 -1.779,-2.849 -1.742,-2.849 -1.706,-2.849 -1.672,-2.85 -1.638,-2.848 -1.606,-2.8499 -1.574,-2.8491 -1.544,-2.8491 -1.514,-2.849 -1.486,-2.8491 -1.457,-2.8491 -1.43,-2.849 -1.404,-2.8491 -1.377,-2.8491 -1.353,-2.8491 -1.328,-2.849 -1.305,-2.8491 -1.282,-2.8491 -1.259,-2.8491 -1.237,-2.849 -1.216,-2.8491 -1.195,-2.8491 -1.175,-2.849 -1.155,-2.8491"
               style="fill:none;stroke:#ff0000;stroke-width:0.533253;stroke-linecap:butt;stroke-linejoin:miter;stroke-miterlimit:1;stroke-dasharray:none;stroke-opacity:1"
               id="path320" /></g><g
             id="g322"
             transform="scale(7.81367)"><path
               d="m 16300,384.391 v 0 l -8109.89,-2.849 -2703.3,-2.849 -1351.65,-2.849 -810.99,-2.849 -540.66,-2.849 -386.19,-2.849 -289.64,-2.849 -225.27,-2.849 -180.22,-2.849 -147.45,-2.849 -122.88,-2.849 -103.97,-2.849 -89.12,-2.85 -77.24,-2.849 -67.58,-2.849 -59.63,-2.849 -53.011,-2.849 -47.425,-2.849 -42.684,-2.849 -38.619,-2.849 -35.108,-2.849 -32.055,-2.849 -29.383,-2.849 -27.033,-2.849 -24.954,-2.85 -23.105,-2.849 -21.455,-2.849 -19.975,-2.849 -18.643,-2.849 -17.441,-2.849 -16.35,-2.849 -15.36,-2.849 -14.456,-2.85 -13.63,-2.849 -12.873,-2.849 -12.177,-2.849 -11.536,-2.849 -10.945,-2.849 -10.397,-2.849 -9.89,-2.849 -9.419,-2.849 -8.982,-2.849 -8.572,-2.849 -8.192,-2.849 -7.835,-2.849 -7.503,-2.849 -7.19,-2.85 -6.896,-2.849 -6.62,-2.849 -6.361,-2.849 -6.116,-2.849 -5.885,-2.849 -5.667,-2.849 -5.462,-2.85 -5.265,-2.849 -5.082,-2.849 -4.906,-2.849 -4.74,-2.849 -4.582,-2.849 -4.431,-2.849 -4.289,-2.849 -4.153,-2.849 -4.022,-2.849 -3.899,-2.849 -3.781,-2.849 -3.668,-2.849 -3.56,-2.849 -3.457,-2.85 -3.358,-2.849 -3.264,-2.849 -3.173,-2.849 -3.086,-2.849 -3.002,-2.849 -2.923,-2.849 -2.845,-2.85 -2.772,-2.849 -2.701,-2.849 -2.632,-2.849 -2.566,-2.849 -2.504,-2.849 -2.442,-2.849 -2.383,-2.849 -2.326,-2.849 -2.272,-2.849 -2.219,-2.849 -2.167,-2.849 -2.119,-2.849 -2.071,-2.85 -2.025,-2.849 -1.98,-2.849 -1.938,-2.849 -1.896,-2.849 -1.855,-2.849 -1.816,-2.849 -1.779,-2.849 -1.742,-2.849 -1.706,-2.849 -1.672,-2.85 -1.638,-2.848 -1.606,-2.8499 -1.574,-2.8491 -1.544,-2.8491 -1.514,-2.849 -1.486,-2.8491 -1.457,-2.8491 -1.43,-2.849 -1.404,-2.8491 -1.377,-2.8491 -1.353,-2.8491 -1.328,-2.849 -1.305,-2.8491 -1.282,-2.8491 -1.259,-2.8491 -1.237,-2.849 -1.216,-2.8491 -1.195,-2.8491 -1.175,-2.849 -1.155,-2.8491"
               style="fill:none;stroke:#ff0000;stroke-width:0.533253;stroke-linecap:butt;stroke-linejoin:miter;stroke-miterlimit:1;stroke-dasharray:none;stroke-opacity:1"
               id="path324" /></g><g
             id="g326"
             transform="scale(7.81367)"><path
               d="m 16300,384.391 v 0 l -8109.89,-2.849 -2703.3,-2.849 -1351.65,-2.849 -810.99,-2.849 -540.66,-2.849 -386.19,-2.849 -289.64,-2.849 -225.27,-2.849 -180.22,-2.849 -147.45,-2.849 -122.88,-2.849 -103.97,-2.849 -89.12,-2.85 -77.24,-2.849 -67.58,-2.849 -59.63,-2.849 -53.011,-2.849 -47.425,-2.849 -42.684,-2.849 -38.619,-2.849 -35.108,-2.849 -32.055,-2.849 -29.383,-2.849 -27.033,-2.849 -24.954,-2.85 -23.105,-2.849 -21.455,-2.849 -19.975,-2.849 -18.643,-2.849 -17.441,-2.849 -16.35,-2.849 -15.36,-2.849 -14.456,-2.85 -13.63,-2.849 -12.873,-2.849 -12.177,-2.849 -11.536,-2.849 -10.945,-2.849 -10.397,-2.849 -9.89,-2.849 -9.419,-2.849 -8.982,-2.849 -8.572,-2.849 -8.192,-2.849 -7.835,-2.849 -7.503,-2.849 -7.19,-2.85 -6.896,-2.849 -6.62,-2.849 -6.361,-2.849 -6.116,-2.849 -5.885,-2.849 -5.667,-2.849 -5.462,-2.85 -5.265,-2.849 -5.082,-2.849 -4.906,-2.849 -4.74,-2.849 -4.582,-2.849 -4.431,-2.849 -4.289,-2.849 -4.153,-2.849 -4.022,-2.849 -3.899,-2.849 -3.781,-2.849 -3.668,-2.849 -3.56,-2.849 -3.457,-2.85 -3.358,-2.849 -3.264,-2.849 -3.173,-2.849 -3.086,-2.849 -3.002,-2.849 -2.923,-2.849 -2.845,-2.85 -2.772,-2.849 -2.701,-2.849 -2.632,-2.849 -2.566,-2.849 -2.504,-2.849 -2.442,-2.849 -2.383,-2.849 -2.326,-2.849 -2.272,-2.849 -2.219,-2.849 -2.167,-2.849 -2.119,-2.849 -2.071,-2.85 -2.025,-2.849 -1.98,-2.849 -1.938,-2.849 -1.896,-2.849 -1.855,-2.849 -1.816,-2.849 -1.779,-2.849 -1.742,-2.849 -1.706,-2.849 -1.672,-2.85 -1.638,-2.848 -1.606,-2.8499 -1.574,-2.8491 -1.544,-2.8491 -1.514,-2.849 -1.486,-2.8491 -1.457,-2.8491 -1.43,-2.849 -1.404,-2.8491 -1.377,-2.8491 -1.353,-2.8491 -1.328,-2.849 -1.305,-2.8491 -1.282,-2.8491 -1.259,-2.8491 -1.237,-2.849 -1.216,-2.8491 -1.195,-2.8491 -1.175,-2.849 -1.155,-2.8491"
               style="fill:none;stroke:#ff0000;stroke-width:0.533253;stroke-linecap:butt;stroke-linejoin:miter;stroke-miterlimit:1;stroke-dasharray:none;stroke-opacity:1"
               id="path328" /></g><g
             id="g330"
             transform="scale(7.81367)"><path
               d="m 16300,384.391 v 0 l -8109.89,-2.849 -2703.3,-2.849 -1351.65,-2.849 -810.99,-2.849 -540.66,-2.849 -386.19,-2.849 -289.64,-2.849 -225.27,-2.849 -180.22,-2.849 -147.45,-2.849 -122.88,-2.849 -103.97,-2.849 -89.12,-2.85 -77.24,-2.849 -67.58,-2.849 -59.63,-2.849 -53.011,-2.849 -47.425,-2.849 -42.684,-2.849 -38.619,-2.849 -35.108,-2.849 -32.055,-2.849 -29.383,-2.849 -27.033,-2.849 -24.954,-2.85 -23.105,-2.849 -21.455,-2.849 -19.975,-2.849 -18.643,-2.849 -17.441,-2.849 -16.35,-2.849 -15.36,-2.849 -14.456,-2.85 -13.63,-2.849 -12.873,-2.849 -12.177,-2.849 -11.536,-2.849 -10.945,-2.849 -10.397,-2.849 -9.89,-2.849 -9.419,-2.849 -8.982,-2.849 -8.572,-2.849 -8.192,-2.849 -7.835,-2.849 -7.503,-2.849 -7.19,-2.85 -6.896,-2.849 -6.62,-2.849 -6.361,-2.849 -6.116,-2.849 -5.885,-2.849 -5.667,-2.849 -5.462,-2.85 -5.265,-2.849 -5.082,-2.849 -4.906,-2.849 -4.74,-2.849 -4.582,-2.849 -4.431,-2.849 -4.289,-2.849 -4.153,-2.849 -4.022,-2.849 -3.899,-2.849 -3.781,-2.849 -3.668,-2.849 -3.56,-2.849 -3.457,-2.85 -3.358,-2.849 -3.264,-2.849 -3.173,-2.849 -3.086,-2.849 -3.002,-2.849 -2.923,-2.849 -2.845,-2.85 -2.772,-2.849 -2.701,-2.849 -2.632,-2.849 -2.566,-2.849 -2.504,-2.849 -2.442,-2.849 -2.383,-2.849 -2.326,-2.849 -2.272,-2.849 -2.219,-2.849 -2.167,-2.849 -2.119,-2.849 -2.071,-2.85 -2.025,-2.849 -1.98,-2.849 -1.938,-2.849 -1.896,-2.849 -1.855,-2.849 -1.816,-2.849 -1.779,-2.849 -1.742,-2.849 -1.706,-2.849 -1.672,-2.85 -1.638,-2.848 -1.606,-2.8499 -1.574,-2.8491 -1.544,-2.8491 -1.514,-2.849 -1.486,-2.8491 -1.457,-2.8491 -1.43,-2.849 -1.404,-2.8491 -1.377,-2.8491 -1.353,-2.8491 -1.328,-2.849 -1.305,-2.8491 -1.282,-2.8491 -1.259,-2.8491 -1.237,-2.849 -1.216,-2.8491 -1.195,-2.8491 -1.175,-2.849 -1.155,-2.8491"
               style="fill:none;stroke:#ff0000;stroke-width:0.533253;stroke-linecap:butt;stroke-linejoin:miter;stroke-miterlimit:1;stroke-dasharray:none;stroke-opacity:1"
               id="path332" /></g><g
             id="g334"
             transform="scale(7.81367)"><path
               d="m 16300,384.391 v 0 l -8109.89,-2.849 -2703.3,-2.849 -1351.65,-2.849 -810.99,-2.849 -540.66,-2.849 -386.19,-2.849 -289.64,-2.849 -225.27,-2.849 -180.22,-2.849 -147.45,-2.849 -122.88,-2.849 -103.97,-2.849 -89.12,-2.85 -77.24,-2.849 -67.58,-2.849 -59.63,-2.849 -53.011,-2.849 -47.425,-2.849 -42.684,-2.849 -38.619,-2.849 -35.108,-2.849 -32.055,-2.849 -29.383,-2.849 -27.033,-2.849 -24.954,-2.85 -23.105,-2.849 -21.455,-2.849 -19.975,-2.849 -18.643,-2.849 -17.441,-2.849 -16.35,-2.849 -15.36,-2.849 -14.456,-2.85 -13.63,-2.849 -12.873,-2.849 -12.177,-2.849 -11.536,-2.849 -10.945,-2.849 -10.397,-2.849 -9.89,-2.849 -9.419,-2.849 -8.982,-2.849 -8.572,-2.849 -8.192,-2.849 -7.835,-2.849 -7.503,-2.849 -7.19,-2.85 -6.896,-2.849 -6.62,-2.849 -6.361,-2.849 -6.116,-2.849 -5.885,-2.849 -5.667,-2.849 -5.462,-2.85 -5.265,-2.849 -5.082,-2.849 -4.906,-2.849 -4.74,-2.849 -4.582,-2.849 -4.431,-2.849 -4.289,-2.849 -4.153,-2.849 -4.022,-2.849 -3.899,-2.849 -3.781,-2.849 -3.668,-2.849 -3.56,-2.849 -3.457,-2.85 -3.358,-2.849 -3.264,-2.849 -3.173,-2.849 -3.086,-2.849 -3.002,-2.849 -2.923,-2.849 -2.845,-2.85 -2.772,-2.849 -2.701,-2.849 -2.632,-2.849 -2.566,-2.849 -2.504,-2.849 -2.442,-2.849 -2.383,-2.849 -2.326,-2.849 -2.272,-2.849 -2.219,-2.849 -2.167,-2.849 -2.119,-2.849 -2.071,-2.85 -2.025,-2.849 -1.98,-2.849 -1.938,-2.849 -1.896,-2.849 -1.855,-2.849 -1.816,-2.849 -1.779,-2.849 -1.742,-2.849 -1.706,-2.849 -1.672,-2.85 -1.638,-2.848 -1.606,-2.8499 -1.574,-2.8491 -1.544,-2.8491 -1.514,-2.849 -1.486,-2.8491 -1.457,-2.8491 -1.43,-2.849 -1.404,-2.8491 -1.377,-2.8491 -1.353,-2.8491 -1.328,-2.849 -1.305,-2.8491 -1.282,-2.8491 -1.259,-2.8491 -1.237,-2.849 -1.216,-2.8491 -1.195,-2.8491 -1.175,-2.849 -1.155,-2.8491 -1.136,-2.8491"
               style="fill:none;stroke:#ff0000;stroke-width:0.533253;stroke-linecap:butt;stroke-linejoin:miter;stroke-miterlimit:1;stroke-dasharray:none;stroke-opacity:1"
               id="path336" /></g></g></g><g
         id="g338"><g
           id="g340"
           clip-path="url(#clipPath344)"><g
             id="g346"
             transform="scale(4.16667)"><text
               transform="matrix(0,-1,-1,0,489,261.115)"
               style="font-variant:normal;font-weight:normal;font-size:14px;font-family:Menlo;-inkscape-font-specification:Menlo-Regular;writing-mode:lr-tb;fill:#0000ff;fill-opacity:1;fill-rule:nonzero;stroke:none"
               id="text350"><tspan
                 x="0 8.4280005 16.856001 25.283415 33.711414 42.139416 50.56683 58.994827 67.422241 75.850243 84.278244 92.705658 101.13366 109.56165 117.98907 126.41707"
                 y="0"
                 id="tspan348">1A*(12V-v1)/303V</tspan></text></g></g></g><g
         id="g352"><g
           id="g354"
           clip-path="url(#clipPath358)"><path
             d="m 1630.59,3025.77 v 0 l -8.37,-22.26 -8.36,-22.26 -8.37,-22.27 -8.36,-22.26 -8.37,-22.26 -8.37,-22.26 -8.36,-22.26 -8.37,-22.26 -8.36,-22.27 -8.37,-22.26 -8.36,-22.26 -8.37,-22.26 -8.36,-22.26 -8.37,-22.26 -8.36,-22.27 -8.37,-22.26 -8.36,-22.26 -8.37,-22.26 -8.37,-22.26 -8.36,-22.26 -8.37,-22.27 -8.36,-22.26 -8.37,-22.26 -8.36,-22.26 -8.37,-22.26 -8.36,-22.27 -8.37,-22.26 -8.36,-22.26 -8.37,-22.26 -8.36,-22.27 -8.37,-22.26 -8.37,-22.26 -8.36,-22.26 -8.37,-22.26 -8.36,-22.26 -8.37,-22.27 -8.36,-22.26 -8.37,-22.26 -8.36,-22.26 -8.37,-22.26 -8.36,-22.26 -8.37,-22.27 -8.36,-22.26 -8.37,-22.26 -8.37,-22.26 -8.36,-22.26 -8.37,-22.27 -8.36,-22.26 -8.37,-22.26 -8.36,-22.26 -8.37,-22.26 -8.36,-22.27 -8.37,-22.26 -8.36,-22.26 -8.37,-22.26 -8.37,-22.26 -8.36,-22.27 -8.37,-22.26 -8.36,-22.26 -8.37,-22.26 -8.36,-22.26 -8.37,-22.26 -8.36,-22.27 -8.37,-22.26 -8.36,-22.26 -8.37,-22.26 -8.37,-22.26 -8.36,-22.27 -8.37,-22.26 -8.36,-22.26 -8.37,-22.26 -8.36,-22.26 -8.37,-22.26 -8.36,-22.27 -8.37,-22.26 -8.364,-22.26 -8.367,-22.26 -8.367,-22.27 -8.363,-22.26 -8.367,-22.26 -8.364,-22.26 -8.367,-22.26 -8.363,-22.26 -8.367,-22.27 -8.364,-22.26 -8.367,-22.26 -8.363,-22.26 -8.367,-22.26 -8.367,-22.27 -8.364,-22.26 -8.367,-22.259 -8.363,-22.261 -8.367,-22.262 -8.364,-22.262 -8.367,-22.261 -8.363,-22.262 -8.367,-22.262 -8.364,-22.262 -8.367,-22.265 -8.367,-22.258 -8.363,-22.266 -8.367,-22.261 -8.364,-22.262 -8.367,-22.262 -8.363,-22.262 -8.367,-22.261 -8.364,-22.262 -8.367,-22.262 -8.367,-22.261 -8.363,-22.262 -8.368,-22.262 -8.363,-22.262 -8.367,-22.261 -8.363,-22.262 -8.367,-22.262 -8.364,-22.261 -8.367,-22.262 -8.363,-22.262 -8.367,-22.262"
             style="fill:none;stroke:#0000ff;stroke-width:4.16667;stroke-linecap:butt;stroke-linejoin:miter;stroke-miterlimit:1;stroke-dasharray:none;stroke-opacity:1"
             id="path360" /><path
             d="m 1630.59,3025.77 v 0 l -8.37,-22.26 -8.36,-22.26 -8.37,-22.27 -8.36,-22.26 -8.37,-22.26 -8.37,-22.26 -8.36,-22.26 -8.37,-22.26 -8.36,-22.27 -8.37,-22.26 -8.36,-22.26 -8.37,-22.26 -8.36,-22.26 -8.37,-22.26 -8.36,-22.27 -8.37,-22.26 -8.36,-22.26 -8.37,-22.26 -8.37,-22.26 -8.36,-22.26 -8.37,-22.27 -8.36,-22.26 -8.37,-22.26 -8.36,-22.26 -8.37,-22.26 -8.36,-22.27 -8.37,-22.26 -8.36,-22.26 -8.37,-22.26 -8.36,-22.27 -8.37,-22.26 -8.37,-22.26 -8.36,-22.26 -8.37,-22.26 -8.36,-22.26 -8.37,-22.27 -8.36,-22.26 -8.37,-22.26 -8.36,-22.26 -8.37,-22.26 -8.36,-22.26 -8.37,-22.27 -8.36,-22.26 -8.37,-22.26 -8.37,-22.26 -8.36,-22.26 -8.37,-22.27 -8.36,-22.26 -8.37,-22.26 -8.36,-22.26 -8.37,-22.26 -8.36,-22.27 -8.37,-22.26 -8.36,-22.26 -8.37,-22.26 -8.37,-22.26 -8.36,-22.27 -8.37,-22.26 -8.36,-22.26 -8.37,-22.26 -8.36,-22.26 -8.37,-22.26 -8.36,-22.27 -8.37,-22.26 -8.36,-22.26 -8.37,-22.26 -8.37,-22.26 -8.36,-22.27 -8.37,-22.26 -8.36,-22.26 -8.37,-22.26 -8.36,-22.26 -8.37,-22.26 -8.36,-22.27 -8.37,-22.26 -8.364,-22.26 -8.367,-22.26 -8.367,-22.27 -8.363,-22.26 -8.367,-22.26 -8.364,-22.26 -8.367,-22.26 -8.363,-22.26 -8.367,-22.27 -8.364,-22.26 -8.367,-22.26 -8.363,-22.26 -8.367,-22.26 -8.367,-22.27 -8.364,-22.26 -8.367,-22.259 -8.363,-22.261 -8.367,-22.262 -8.364,-22.262 -8.367,-22.261 -8.363,-22.262 -8.367,-22.262 -8.364,-22.262 -8.367,-22.265 -8.367,-22.258 -8.363,-22.266 -8.367,-22.261 -8.364,-22.262 -8.367,-22.262 -8.363,-22.262 -8.367,-22.261 -8.364,-22.262 -8.367,-22.262 -8.367,-22.261 -8.363,-22.262 -8.368,-22.262 -8.363,-22.262 -8.367,-22.261 -8.363,-22.262 -8.367,-22.262 -8.364,-22.261 -8.367,-22.262 -8.363,-22.262 -8.367,-22.262"
             style="fill:none;stroke:#0000ff;stroke-width:4.16667;stroke-linecap:butt;stroke-linejoin:miter;stroke-miterlimit:1;stroke-dasharray:none;stroke-opacity:1"
             id="path362" /><path
             d="m 1630.59,3025.77 v 0 l -8.37,-22.26 -8.36,-22.26 -8.37,-22.27 -8.36,-22.26 -8.37,-22.26 -8.37,-22.26 -8.36,-22.26 -8.37,-22.26 -8.36,-22.27 -8.37,-22.26 -8.36,-22.26 -8.37,-22.26 -8.36,-22.26 -8.37,-22.26 -8.36,-22.27 -8.37,-22.26 -8.36,-22.26 -8.37,-22.26 -8.37,-22.26 -8.36,-22.26 -8.37,-22.27 -8.36,-22.26 -8.37,-22.26 -8.36,-22.26 -8.37,-22.26 -8.36,-22.27 -8.37,-22.26 -8.36,-22.26 -8.37,-22.26 -8.36,-22.27 -8.37,-22.26 -8.37,-22.26 -8.36,-22.26 -8.37,-22.26 -8.36,-22.26 -8.37,-22.27 -8.36,-22.26 -8.37,-22.26 -8.36,-22.26 -8.37,-22.26 -8.36,-22.26 -8.37,-22.27 -8.36,-22.26 -8.37,-22.26 -8.37,-22.26 -8.36,-22.26 -8.37,-22.27 -8.36,-22.26 -8.37,-22.26 -8.36,-22.26 -8.37,-22.26 -8.36,-22.27 -8.37,-22.26 -8.36,-22.26 -8.37,-22.26 -8.37,-22.26 -8.36,-22.27 -8.37,-22.26 -8.36,-22.26 -8.37,-22.26 -8.36,-22.26 -8.37,-22.26 -8.36,-22.27 -8.37,-22.26 -8.36,-22.26 -8.37,-22.26 -8.37,-22.26 -8.36,-22.27 -8.37,-22.26 -8.36,-22.26 -8.37,-22.26 -8.36,-22.26 -8.37,-22.26 -8.36,-22.27 -8.37,-22.26 -8.364,-22.26 -8.367,-22.26 -8.367,-22.27 -8.363,-22.26 -8.367,-22.26 -8.364,-22.26 -8.367,-22.26 -8.363,-22.26 -8.367,-22.27 -8.364,-22.26 -8.367,-22.26 -8.363,-22.26 -8.367,-22.26 -8.367,-22.27 -8.364,-22.26 -8.367,-22.259 -8.363,-22.261 -8.367,-22.262 -8.364,-22.262 -8.367,-22.261 -8.363,-22.262 -8.367,-22.262 -8.364,-22.262 -8.367,-22.265 -8.367,-22.258 -8.363,-22.266 -8.367,-22.261 -8.364,-22.262 -8.367,-22.262 -8.363,-22.262 -8.367,-22.261 -8.364,-22.262 -8.367,-22.262 -8.367,-22.261 -8.363,-22.262 -8.368,-22.262 -8.363,-22.262 -8.367,-22.261 -8.363,-22.262 -8.367,-22.262 -8.364,-22.261 -8.367,-22.262 -8.363,-22.262 -8.367,-22.262"
             style="fill:none;stroke:#0000ff;stroke-width:4.16667;stroke-linecap:butt;stroke-linejoin:miter;stroke-miterlimit:1;stroke-dasharray:none;stroke-opacity:1"
             id="path364" /><path
             d="m 1630.59,3025.77 v 0 l -8.37,-22.26 -8.36,-22.26 -8.37,-22.27 -8.36,-22.26 -8.37,-22.26 -8.37,-22.26 -8.36,-22.26 -8.37,-22.26 -8.36,-22.27 -8.37,-22.26 -8.36,-22.26 -8.37,-22.26 -8.36,-22.26 -8.37,-22.26 -8.36,-22.27 -8.37,-22.26 -8.36,-22.26 -8.37,-22.26 -8.37,-22.26 -8.36,-22.26 -8.37,-22.27 -8.36,-22.26 -8.37,-22.26 -8.36,-22.26 -8.37,-22.26 -8.36,-22.27 -8.37,-22.26 -8.36,-22.26 -8.37,-22.26 -8.36,-22.27 -8.37,-22.26 -8.37,-22.26 -8.36,-22.26 -8.37,-22.26 -8.36,-22.26 -8.37,-22.27 -8.36,-22.26 -8.37,-22.26 -8.36,-22.26 -8.37,-22.26 -8.36,-22.26 -8.37,-22.27 -8.36,-22.26 -8.37,-22.26 -8.37,-22.26 -8.36,-22.26 -8.37,-22.27 -8.36,-22.26 -8.37,-22.26 -8.36,-22.26 -8.37,-22.26 -8.36,-22.27 -8.37,-22.26 -8.36,-22.26 -8.37,-22.26 -8.37,-22.26 -8.36,-22.27 -8.37,-22.26 -8.36,-22.26 -8.37,-22.26 -8.36,-22.26 -8.37,-22.26 -8.36,-22.27 -8.37,-22.26 -8.36,-22.26 -8.37,-22.26 -8.37,-22.26 -8.36,-22.27 -8.37,-22.26 -8.36,-22.26 -8.37,-22.26 -8.36,-22.26 -8.37,-22.26 -8.36,-22.27 -8.37,-22.26 -8.364,-22.26 -8.367,-22.26 -8.367,-22.27 -8.363,-22.26 -8.367,-22.26 -8.364,-22.26 -8.367,-22.26 -8.363,-22.26 -8.367,-22.27 -8.364,-22.26 -8.367,-22.26 -8.363,-22.26 -8.367,-22.26 -8.367,-22.27 -8.364,-22.26 -8.367,-22.259 -8.363,-22.261 -8.367,-22.262 -8.364,-22.262 -8.367,-22.261 -8.363,-22.262 -8.367,-22.262 -8.364,-22.262 -8.367,-22.265 -8.367,-22.258 -8.363,-22.266 -8.367,-22.261 -8.364,-22.262 -8.367,-22.262 -8.363,-22.262 -8.367,-22.261 -8.364,-22.262 -8.367,-22.262 -8.367,-22.261 -8.363,-22.262 -8.368,-22.262 -8.363,-22.262 -8.367,-22.261 -8.363,-22.262 -8.367,-22.262 -8.364,-22.261 -8.367,-22.262 -8.363,-22.262 -8.367,-22.262"
             style="fill:none;stroke:#0000ff;stroke-width:4.16667;stroke-linecap:butt;stroke-linejoin:miter;stroke-miterlimit:1;stroke-dasharray:none;stroke-opacity:1"
             id="path366" /><path
             d="m 1630.59,3025.77 v 0 l -8.37,-22.26 -8.36,-22.26 -8.37,-22.27 -8.36,-22.26 -8.37,-22.26 -8.37,-22.26 -8.36,-22.26 -8.37,-22.26 -8.36,-22.27 -8.37,-22.26 -8.36,-22.26 -8.37,-22.26 -8.36,-22.26 -8.37,-22.26 -8.36,-22.27 -8.37,-22.26 -8.36,-22.26 -8.37,-22.26 -8.37,-22.26 -8.36,-22.26 -8.37,-22.27 -8.36,-22.26 -8.37,-22.26 -8.36,-22.26 -8.37,-22.26 -8.36,-22.27 -8.37,-22.26 -8.36,-22.26 -8.37,-22.26 -8.36,-22.27 -8.37,-22.26 -8.37,-22.26 -8.36,-22.26 -8.37,-22.26 -8.36,-22.26 -8.37,-22.27 -8.36,-22.26 -8.37,-22.26 -8.36,-22.26 -8.37,-22.26 -8.36,-22.26 -8.37,-22.27 -8.36,-22.26 -8.37,-22.26 -8.37,-22.26 -8.36,-22.26 -8.37,-22.27 -8.36,-22.26 -8.37,-22.26 -8.36,-22.26 -8.37,-22.26 -8.36,-22.27 -8.37,-22.26 -8.36,-22.26 -8.37,-22.26 -8.37,-22.26 -8.36,-22.27 -8.37,-22.26 -8.36,-22.26 -8.37,-22.26 -8.36,-22.26 -8.37,-22.26 -8.36,-22.27 -8.37,-22.26 -8.36,-22.26 -8.37,-22.26 -8.37,-22.26 -8.36,-22.27 -8.37,-22.26 -8.36,-22.26 -8.37,-22.26 -8.36,-22.26 -8.37,-22.26 -8.36,-22.27 -8.37,-22.26 -8.364,-22.26 -8.367,-22.26 -8.367,-22.27 -8.363,-22.26 -8.367,-22.26 -8.364,-22.26 -8.367,-22.26 -8.363,-22.26 -8.367,-22.27 -8.364,-22.26 -8.367,-22.26 -8.363,-22.26 -8.367,-22.26 -8.367,-22.27 -8.364,-22.26 -8.367,-22.259 -8.363,-22.261 -8.367,-22.262 -8.364,-22.262 -8.367,-22.261 -8.363,-22.262 -8.367,-22.262 -8.364,-22.262 -8.367,-22.265 -8.367,-22.258 -8.363,-22.266 -8.367,-22.261 -8.364,-22.262 -8.367,-22.262 -8.363,-22.262 -8.367,-22.261 -8.364,-22.262 -8.367,-22.262 -8.367,-22.261 -8.363,-22.262 -8.368,-22.262 -8.363,-22.262 -8.367,-22.261 -8.363,-22.262 -8.367,-22.262 -8.364,-22.261 -8.367,-22.262 -8.363,-22.262 -8.367,-22.262"
             style="fill:none;stroke:#0000ff;stroke-width:4.16667;stroke-linecap:butt;stroke-linejoin:miter;stroke-miterlimit:1;stroke-dasharray:none;stroke-opacity:1"
             id="path368" /><path
             d="m 1630.59,3025.77 v 0 l -8.37,-22.26 -8.36,-22.26 -8.37,-22.27 -8.36,-22.26 -8.37,-22.26 -8.37,-22.26 -8.36,-22.26 -8.37,-22.26 -8.36,-22.27 -8.37,-22.26 -8.36,-22.26 -8.37,-22.26 -8.36,-22.26 -8.37,-22.26 -8.36,-22.27 -8.37,-22.26 -8.36,-22.26 -8.37,-22.26 -8.37,-22.26 -8.36,-22.26 -8.37,-22.27 -8.36,-22.26 -8.37,-22.26 -8.36,-22.26 -8.37,-22.26 -8.36,-22.27 -8.37,-22.26 -8.36,-22.26 -8.37,-22.26 -8.36,-22.27 -8.37,-22.26 -8.37,-22.26 -8.36,-22.26 -8.37,-22.26 -8.36,-22.26 -8.37,-22.27 -8.36,-22.26 -8.37,-22.26 -8.36,-22.26 -8.37,-22.26 -8.36,-22.26 -8.37,-22.27 -8.36,-22.26 -8.37,-22.26 -8.37,-22.26 -8.36,-22.26 -8.37,-22.27 -8.36,-22.26 -8.37,-22.26 -8.36,-22.26 -8.37,-22.26 -8.36,-22.27 -8.37,-22.26 -8.36,-22.26 -8.37,-22.26 -8.37,-22.26 -8.36,-22.27 -8.37,-22.26 -8.36,-22.26 -8.37,-22.26 -8.36,-22.26 -8.37,-22.26 -8.36,-22.27 -8.37,-22.26 -8.36,-22.26 -8.37,-22.26 -8.37,-22.26 -8.36,-22.27 -8.37,-22.26 -8.36,-22.26 -8.37,-22.26 -8.36,-22.26 -8.37,-22.26 -8.36,-22.27 -8.37,-22.26 -8.364,-22.26 -8.367,-22.26 -8.367,-22.27 -8.363,-22.26 -8.367,-22.26 -8.364,-22.26 -8.367,-22.26 -8.363,-22.26 -8.367,-22.27 -8.364,-22.26 -8.367,-22.26 -8.363,-22.26 -8.367,-22.26 -8.367,-22.27 -8.364,-22.26 -8.367,-22.259 -8.363,-22.261 -8.367,-22.262 -8.364,-22.262 -8.367,-22.261 -8.363,-22.262 -8.367,-22.262 -8.364,-22.262 -8.367,-22.265 -8.367,-22.258 -8.363,-22.266 -8.367,-22.261 -8.364,-22.262 -8.367,-22.262 -8.363,-22.262 -8.367,-22.261 -8.364,-22.262 -8.367,-22.262 -8.367,-22.261 -8.363,-22.262 -8.368,-22.262 -8.363,-22.262 -8.367,-22.261 -8.363,-22.262 -8.367,-22.262 -8.364,-22.261 -8.367,-22.262 -8.363,-22.262 -8.367,-22.262"
             style="fill:none;stroke:#0000ff;stroke-width:4.16667;stroke-linecap:butt;stroke-linejoin:miter;stroke-miterlimit:1;stroke-dasharray:none;stroke-opacity:1"
             id="path370" /><path
             d="m 1630.59,3025.77 v 0 l -8.37,-22.26 -8.36,-22.26 -8.37,-22.27 -8.36,-22.26 -8.37,-22.26 -8.37,-22.26 -8.36,-22.26 -8.37,-22.26 -8.36,-22.27 -8.37,-22.26 -8.36,-22.26 -8.37,-22.26 -8.36,-22.26 -8.37,-22.26 -8.36,-22.27 -8.37,-22.26 -8.36,-22.26 -8.37,-22.26 -8.37,-22.26 -8.36,-22.26 -8.37,-22.27 -8.36,-22.26 -8.37,-22.26 -8.36,-22.26 -8.37,-22.26 -8.36,-22.27 -8.37,-22.26 -8.36,-22.26 -8.37,-22.26 -8.36,-22.27 -8.37,-22.26 -8.37,-22.26 -8.36,-22.26 -8.37,-22.26 -8.36,-22.26 -8.37,-22.27 -8.36,-22.26 -8.37,-22.26 -8.36,-22.26 -8.37,-22.26 -8.36,-22.26 -8.37,-22.27 -8.36,-22.26 -8.37,-22.26 -8.37,-22.26 -8.36,-22.26 -8.37,-22.27 -8.36,-22.26 -8.37,-22.26 -8.36,-22.26 -8.37,-22.26 -8.36,-22.27 -8.37,-22.26 -8.36,-22.26 -8.37,-22.26 -8.37,-22.26 -8.36,-22.27 -8.37,-22.26 -8.36,-22.26 -8.37,-22.26 -8.36,-22.26 -8.37,-22.26 -8.36,-22.27 -8.37,-22.26 -8.36,-22.26 -8.37,-22.26 -8.37,-22.26 -8.36,-22.27 -8.37,-22.26 -8.36,-22.26 -8.37,-22.26 -8.36,-22.26 -8.37,-22.26 -8.36,-22.27 -8.37,-22.26 -8.364,-22.26 -8.367,-22.26 -8.367,-22.27 -8.363,-22.26 -8.367,-22.26 -8.364,-22.26 -8.367,-22.26 -8.363,-22.26 -8.367,-22.27 -8.364,-22.26 -8.367,-22.26 -8.363,-22.26 -8.367,-22.26 -8.367,-22.27 -8.364,-22.26 -8.367,-22.259 -8.363,-22.261 -8.367,-22.262 -8.364,-22.262 -8.367,-22.261 -8.363,-22.262 -8.367,-22.262 -8.364,-22.262 -8.367,-22.265 -8.367,-22.258 -8.363,-22.266 -8.367,-22.261 -8.364,-22.262 -8.367,-22.262 -8.363,-22.262 -8.367,-22.261 -8.364,-22.262 -8.367,-22.262 -8.367,-22.261 -8.363,-22.262 -8.368,-22.262 -8.363,-22.262 -8.367,-22.261 -8.363,-22.262 -8.367,-22.262 -8.364,-22.261 -8.367,-22.262 -8.363,-22.262 -8.367,-22.262"
             style="fill:none;stroke:#0000ff;stroke-width:4.16667;stroke-linecap:butt;stroke-linejoin:miter;stroke-miterlimit:1;stroke-dasharray:none;stroke-opacity:1"
             id="path372" /><path
             d="m 1630.59,3025.77 v 0 l -8.37,-22.26 -8.36,-22.26 -8.37,-22.27 -8.36,-22.26 -8.37,-22.26 -8.37,-22.26 -8.36,-22.26 -8.37,-22.26 -8.36,-22.27 -8.37,-22.26 -8.36,-22.26 -8.37,-22.26 -8.36,-22.26 -8.37,-22.26 -8.36,-22.27 -8.37,-22.26 -8.36,-22.26 -8.37,-22.26 -8.37,-22.26 -8.36,-22.26 -8.37,-22.27 -8.36,-22.26 -8.37,-22.26 -8.36,-22.26 -8.37,-22.26 -8.36,-22.27 -8.37,-22.26 -8.36,-22.26 -8.37,-22.26 -8.36,-22.27 -8.37,-22.26 -8.37,-22.26 -8.36,-22.26 -8.37,-22.26 -8.36,-22.26 -8.37,-22.27 -8.36,-22.26 -8.37,-22.26 -8.36,-22.26 -8.37,-22.26 -8.36,-22.26 -8.37,-22.27 -8.36,-22.26 -8.37,-22.26 -8.37,-22.26 -8.36,-22.26 -8.37,-22.27 -8.36,-22.26 -8.37,-22.26 -8.36,-22.26 -8.37,-22.26 -8.36,-22.27 -8.37,-22.26 -8.36,-22.26 -8.37,-22.26 -8.37,-22.26 -8.36,-22.27 -8.37,-22.26 -8.36,-22.26 -8.37,-22.26 -8.36,-22.26 -8.37,-22.26 -8.36,-22.27 -8.37,-22.26 -8.36,-22.26 -8.37,-22.26 -8.37,-22.26 -8.36,-22.27 -8.37,-22.26 -8.36,-22.26 -8.37,-22.26 -8.36,-22.26 -8.37,-22.26 -8.36,-22.27 -8.37,-22.26 -8.364,-22.26 -8.367,-22.26 -8.367,-22.27 -8.363,-22.26 -8.367,-22.26 -8.364,-22.26 -8.367,-22.26 -8.363,-22.26 -8.367,-22.27 -8.364,-22.26 -8.367,-22.26 -8.363,-22.26 -8.367,-22.26 -8.367,-22.27 -8.364,-22.26 -8.367,-22.259 -8.363,-22.261 -8.367,-22.262 -8.364,-22.262 -8.367,-22.261 -8.363,-22.262 -8.367,-22.262 -8.364,-22.262 -8.367,-22.265 -8.367,-22.258 -8.363,-22.266 -8.367,-22.261 -8.364,-22.262 -8.367,-22.262 -8.363,-22.262 -8.367,-22.261 -8.364,-22.262 -8.367,-22.262 -8.367,-22.261 -8.363,-22.262 -8.368,-22.262 -8.363,-22.262 -8.367,-22.261 -8.363,-22.262 -8.367,-22.262 -8.364,-22.261 -8.367,-22.262 -8.363,-22.262 -8.367,-22.262"
             style="fill:none;stroke:#0000ff;stroke-width:4.16667;stroke-linecap:butt;stroke-linejoin:miter;stroke-miterlimit:1;stroke-dasharray:none;stroke-opacity:1"
             id="path374" /><path
             d="m 1630.59,3025.77 v 0 l -8.37,-22.26 -8.36,-22.26 -8.37,-22.27 -8.36,-22.26 -8.37,-22.26 -8.37,-22.26 -8.36,-22.26 -8.37,-22.26 -8.36,-22.27 -8.37,-22.26 -8.36,-22.26 -8.37,-22.26 -8.36,-22.26 -8.37,-22.26 -8.36,-22.27 -8.37,-22.26 -8.36,-22.26 -8.37,-22.26 -8.37,-22.26 -8.36,-22.26 -8.37,-22.27 -8.36,-22.26 -8.37,-22.26 -8.36,-22.26 -8.37,-22.26 -8.36,-22.27 -8.37,-22.26 -8.36,-22.26 -8.37,-22.26 -8.36,-22.27 -8.37,-22.26 -8.37,-22.26 -8.36,-22.26 -8.37,-22.26 -8.36,-22.26 -8.37,-22.27 -8.36,-22.26 -8.37,-22.26 -8.36,-22.26 -8.37,-22.26 -8.36,-22.26 -8.37,-22.27 -8.36,-22.26 -8.37,-22.26 -8.37,-22.26 -8.36,-22.26 -8.37,-22.27 -8.36,-22.26 -8.37,-22.26 -8.36,-22.26 -8.37,-22.26 -8.36,-22.27 -8.37,-22.26 -8.36,-22.26 -8.37,-22.26 -8.37,-22.26 -8.36,-22.27 -8.37,-22.26 -8.36,-22.26 -8.37,-22.26 -8.36,-22.26 -8.37,-22.26 -8.36,-22.27 -8.37,-22.26 -8.36,-22.26 -8.37,-22.26 -8.37,-22.26 -8.36,-22.27 -8.37,-22.26 -8.36,-22.26 -8.37,-22.26 -8.36,-22.26 -8.37,-22.26 -8.36,-22.27 -8.37,-22.26 -8.364,-22.26 -8.367,-22.26 -8.367,-22.27 -8.363,-22.26 -8.367,-22.26 -8.364,-22.26 -8.367,-22.26 -8.363,-22.26 -8.367,-22.27 -8.364,-22.26 -8.367,-22.26 -8.363,-22.26 -8.367,-22.26 -8.367,-22.27 -8.364,-22.26 -8.367,-22.259 -8.363,-22.261 -8.367,-22.262 -8.364,-22.262 -8.367,-22.261 -8.363,-22.262 -8.367,-22.262 -8.364,-22.262 -8.367,-22.265 -8.367,-22.258 -8.363,-22.266 -8.367,-22.261 -8.364,-22.262 -8.367,-22.262 -8.363,-22.262 -8.367,-22.261 -8.364,-22.262 -8.367,-22.262 -8.367,-22.261 -8.363,-22.262 -8.368,-22.262 -8.363,-22.262 -8.367,-22.261 -8.363,-22.262 -8.367,-22.262 -8.364,-22.261 -8.367,-22.262 -8.363,-22.262 -8.367,-22.262"
             style="fill:none;stroke:#0000ff;stroke-width:4.16667;stroke-linecap:butt;stroke-linejoin:miter;stroke-miterlimit:1;stroke-dasharray:none;stroke-opacity:1"
             id="path376" /><path
             d="m 1630.59,3025.77 v 0 l -8.37,-22.26 -8.36,-22.26 -8.37,-22.27 -8.36,-22.26 -8.37,-22.26 -8.37,-22.26 -8.36,-22.26 -8.37,-22.26 -8.36,-22.27 -8.37,-22.26 -8.36,-22.26 -8.37,-22.26 -8.36,-22.26 -8.37,-22.26 -8.36,-22.27 -8.37,-22.26 -8.36,-22.26 -8.37,-22.26 -8.37,-22.26 -8.36,-22.26 -8.37,-22.27 -8.36,-22.26 -8.37,-22.26 -8.36,-22.26 -8.37,-22.26 -8.36,-22.27 -8.37,-22.26 -8.36,-22.26 -8.37,-22.26 -8.36,-22.27 -8.37,-22.26 -8.37,-22.26 -8.36,-22.26 -8.37,-22.26 -8.36,-22.26 -8.37,-22.27 -8.36,-22.26 -8.37,-22.26 -8.36,-22.26 -8.37,-22.26 -8.36,-22.26 -8.37,-22.27 -8.36,-22.26 -8.37,-22.26 -8.37,-22.26 -8.36,-22.26 -8.37,-22.27 -8.36,-22.26 -8.37,-22.26 -8.36,-22.26 -8.37,-22.26 -8.36,-22.27 -8.37,-22.26 -8.36,-22.26 -8.37,-22.26 -8.37,-22.26 -8.36,-22.27 -8.37,-22.26 -8.36,-22.26 -8.37,-22.26 -8.36,-22.26 -8.37,-22.26 -8.36,-22.27 -8.37,-22.26 -8.36,-22.26 -8.37,-22.26 -8.37,-22.26 -8.36,-22.27 -8.37,-22.26 -8.36,-22.26 -8.37,-22.26 -8.36,-22.26 -8.37,-22.26 -8.36,-22.27 -8.37,-22.26 -8.364,-22.26 -8.367,-22.26 -8.367,-22.27 -8.363,-22.26 -8.367,-22.26 -8.364,-22.26 -8.367,-22.26 -8.363,-22.26 -8.367,-22.27 -8.364,-22.26 -8.367,-22.26 -8.363,-22.26 -8.367,-22.26 -8.367,-22.27 -8.364,-22.26 -8.367,-22.259 -8.363,-22.261 -8.367,-22.262 -8.364,-22.262 -8.367,-22.261 -8.363,-22.262 -8.367,-22.262 -8.364,-22.262 -8.367,-22.265 -8.367,-22.258 -8.363,-22.266 -8.367,-22.261 -8.364,-22.262 -8.367,-22.262 -8.363,-22.262 -8.367,-22.261 -8.364,-22.262 -8.367,-22.262 -8.367,-22.261 -8.363,-22.262 -8.368,-22.262 -8.363,-22.262 -8.367,-22.261 -8.363,-22.262 -8.367,-22.262 -8.364,-22.261 -8.367,-22.262 -8.363,-22.262 -8.367,-22.262"
             style="fill:none;stroke:#0000ff;stroke-width:4.16667;stroke-linecap:butt;stroke-linejoin:miter;stroke-miterlimit:1;stroke-dasharray:none;stroke-opacity:1"
             id="path378" /><path
             d="m 1630.59,3025.77 v 0 l -8.37,-22.26 -8.36,-22.26 -8.37,-22.27 -8.36,-22.26 -8.37,-22.26 -8.37,-22.26 -8.36,-22.26 -8.37,-22.26 -8.36,-22.27 -8.37,-22.26 -8.36,-22.26 -8.37,-22.26 -8.36,-22.26 -8.37,-22.26 -8.36,-22.27 -8.37,-22.26 -8.36,-22.26 -8.37,-22.26 -8.37,-22.26 -8.36,-22.26 -8.37,-22.27 -8.36,-22.26 -8.37,-22.26 -8.36,-22.26 -8.37,-22.26 -8.36,-22.27 -8.37,-22.26 -8.36,-22.26 -8.37,-22.26 -8.36,-22.27 -8.37,-22.26 -8.37,-22.26 -8.36,-22.26 -8.37,-22.26 -8.36,-22.26 -8.37,-22.27 -8.36,-22.26 -8.37,-22.26 -8.36,-22.26 -8.37,-22.26 -8.36,-22.26 -8.37,-22.27 -8.36,-22.26 -8.37,-22.26 -8.37,-22.26 -8.36,-22.26 -8.37,-22.27 -8.36,-22.26 -8.37,-22.26 -8.36,-22.26 -8.37,-22.26 -8.36,-22.27 -8.37,-22.26 -8.36,-22.26 -8.37,-22.26 -8.37,-22.26 -8.36,-22.27 -8.37,-22.26 -8.36,-22.26 -8.37,-22.26 -8.36,-22.26 -8.37,-22.26 -8.36,-22.27 -8.37,-22.26 -8.36,-22.26 -8.37,-22.26 -8.37,-22.26 -8.36,-22.27 -8.37,-22.26 -8.36,-22.26 -8.37,-22.26 -8.36,-22.26 -8.37,-22.26 -8.36,-22.27 -8.37,-22.26 -8.364,-22.26 -8.367,-22.26 -8.367,-22.27 -8.363,-22.26 -8.367,-22.26 -8.364,-22.26 -8.367,-22.26 -8.363,-22.26 -8.367,-22.27 -8.364,-22.26 -8.367,-22.26 -8.363,-22.26 -8.367,-22.26 -8.367,-22.27 -8.364,-22.26 -8.367,-22.259 -8.363,-22.261 -8.367,-22.262 -8.364,-22.262 -8.367,-22.261 -8.363,-22.262 -8.367,-22.262 -8.364,-22.262 -8.367,-22.265 -8.367,-22.258 -8.363,-22.266 -8.367,-22.261 -8.364,-22.262 -8.367,-22.262 -8.363,-22.262 -8.367,-22.261 -8.364,-22.262 -8.367,-22.262 -8.367,-22.261 -8.363,-22.262 -8.368,-22.262 -8.363,-22.262 -8.367,-22.261 -8.363,-22.262 -8.367,-22.262 -8.364,-22.261 -8.367,-22.262 -8.363,-22.262 -8.367,-22.262 -8.368,-22.261"
             style="fill:none;stroke:#0000ff;stroke-width:4.16667;stroke-linecap:butt;stroke-linejoin:miter;stroke-miterlimit:1;stroke-dasharray:none;stroke-opacity:1"
             id="path380" /></g></g></g></g></svg>
