<?xml version="1.0" encoding="UTF-8" standalone="no"?>
<svg
   xmlns:dc="http://purl.org/dc/elements/1.1/"
   xmlns:cc="http://creativecommons.org/ns#"
   xmlns:rdf="http://www.w3.org/1999/02/22-rdf-syntax-ns#"
   xmlns:svg="http://www.w3.org/2000/svg"
   xmlns="http://www.w3.org/2000/svg"
   version="1.1"
   id="svg3334"
   xml:space="preserve"
   width="601.09497"
   height="361.33768"
   viewBox="0 0 901.64244 542.00654"><metadata
     id="metadata3340"><rdf:RDF><cc:Work
         rdf:about=""><dc:format>image/svg+xml</dc:format><dc:type
           rdf:resource="http://purl.org/dc/dcmitype/StillImage" /><dc:title></dc:title></cc:Work></rdf:RDF></metadata><defs
     id="defs3338"><clipPath
       clipPathUnits="userSpaceOnUse"
       id="clipPath3352"><path
         d="m 375,299.582 h 1729.17 v 2908.34 H 375 Z"
         id="path3350" /></clipPath><clipPath
       clipPathUnits="userSpaceOnUse"
       id="clipPath3516"><path
         d="m 500,387.082 h 1520.83 v 2675 H 500 Z"
         id="path3514" /></clipPath></defs><g
     id="g3342"
     transform="matrix(0,-1.3333333,-1.3333333,0,1025.6046,667.07604)"><g
       id="g3344"
       transform="scale(0.24)"><g
         id="g3346"><g
           id="g3348"
           clip-path="url(#clipPath3352)"><path
             d="M 500,3060.89 H 458.332"
             style="fill:none;stroke:#afafaf;stroke-width:4.16667;stroke-linecap:butt;stroke-linejoin:miter;stroke-miterlimit:10;stroke-dasharray:none;stroke-opacity:1"
             id="path3354" /><g
             id="g3356"
             transform="scale(4.16667)"><text
               transform="matrix(0,-1,-1,0,94.0003,755.686)"
               style="font-variant:normal;font-weight:normal;font-size:14px;font-family:Menlo;-inkscape-font-specification:Menlo-Regular;writing-mode:lr-tb;fill:#afafaf;fill-opacity:1;fill-rule:nonzero;stroke:none"
               id="text3360"><tspan
                 x="0 8.4280005 16.856001 25.283415 33.711414"
                 y="0"
                 id="tspan3358">0.0ms</tspan></text></g><path
             d="M 500,2726.96 H 458.332"
             style="fill:none;stroke:#afafaf;stroke-width:4.16667;stroke-linecap:butt;stroke-linejoin:miter;stroke-miterlimit:10;stroke-dasharray:none;stroke-opacity:1"
             id="path3362" /><g
             id="g3364"
             transform="scale(4.16667)"><text
               transform="matrix(0,-1,-1,0,94.0003,675.543)"
               style="font-variant:normal;font-weight:normal;font-size:14px;font-family:Menlo;-inkscape-font-specification:Menlo-Regular;writing-mode:lr-tb;fill:#afafaf;fill-opacity:1;fill-rule:nonzero;stroke:none"
               id="text3368"><tspan
                 x="0 8.4274139 16.855413 25.283415 33.710827"
                 y="0"
                 id="tspan3366">0.2ms</tspan></text></g><path
             d="M 500,2393.04 H 458.332"
             style="fill:none;stroke:#afafaf;stroke-width:4.16667;stroke-linecap:butt;stroke-linejoin:miter;stroke-miterlimit:10;stroke-dasharray:none;stroke-opacity:1"
             id="path3370" /><g
             id="g3372"
             transform="scale(4.16667)"><text
               transform="matrix(0,-1,-1,0,94.0003,595.4)"
               style="font-variant:normal;font-weight:normal;font-size:14px;font-family:Menlo;-inkscape-font-specification:Menlo-Regular;writing-mode:lr-tb;fill:#afafaf;fill-opacity:1;fill-rule:nonzero;stroke:none"
               id="text3376"><tspan
                 x="0 8.4274139 16.855413 25.282827 33.710827"
                 y="0"
                 id="tspan3374">0.4ms</tspan></text></g><path
             d="M 500,2059.11 H 458.332"
             style="fill:none;stroke:#afafaf;stroke-width:4.16667;stroke-linecap:butt;stroke-linejoin:miter;stroke-miterlimit:10;stroke-dasharray:none;stroke-opacity:1"
             id="path3378" /><g
             id="g3380"
             transform="scale(4.16667)"><text
               transform="matrix(0,-1,-1,0,94.0003,515.257)"
               style="font-variant:normal;font-weight:normal;font-size:14px;font-family:Menlo;-inkscape-font-specification:Menlo-Regular;writing-mode:lr-tb;fill:#afafaf;fill-opacity:1;fill-rule:nonzero;stroke:none"
               id="text3384"><tspan
                 x="0 8.4280005 16.855413 25.283415 33.711414"
                 y="0"
                 id="tspan3382">0.6ms</tspan></text></g><path
             d="M 500,1725.18 H 458.332"
             style="fill:none;stroke:#afafaf;stroke-width:4.16667;stroke-linecap:butt;stroke-linejoin:miter;stroke-miterlimit:10;stroke-dasharray:none;stroke-opacity:1"
             id="path3386" /><g
             id="g3388"
             transform="scale(4.16667)"><text
               transform="matrix(0,-1,-1,0,94.0003,435.114)"
               style="font-variant:normal;font-weight:normal;font-size:14px;font-family:Menlo;-inkscape-font-specification:Menlo-Regular;writing-mode:lr-tb;fill:#afafaf;fill-opacity:1;fill-rule:nonzero;stroke:none"
               id="text3392"><tspan
                 x="0 8.4274139 16.855413 25.283415 33.710827"
                 y="0"
                 id="tspan3390">0.8ms</tspan></text></g><path
             d="M 500,1391.25 H 458.332"
             style="fill:none;stroke:#afafaf;stroke-width:4.16667;stroke-linecap:butt;stroke-linejoin:miter;stroke-miterlimit:10;stroke-dasharray:none;stroke-opacity:1"
             id="path3394" /><g
             id="g3396"
             transform="scale(4.16667)"><text
               transform="matrix(0,-1,-1,0,94.0003,354.972)"
               style="font-variant:normal;font-weight:normal;font-size:14px;font-family:Menlo;-inkscape-font-specification:Menlo-Regular;writing-mode:lr-tb;fill:#afafaf;fill-opacity:1;fill-rule:nonzero;stroke:none"
               id="text3400"><tspan
                 x="0 8.4280005 16.856001 25.283415 33.711414"
                 y="0"
                 id="tspan3398">1.0ms</tspan></text></g><path
             d="M 500,1057.32 H 458.332"
             style="fill:none;stroke:#afafaf;stroke-width:4.16667;stroke-linecap:butt;stroke-linejoin:miter;stroke-miterlimit:10;stroke-dasharray:none;stroke-opacity:1"
             id="path3402" /><g
             id="g3404"
             transform="scale(4.16667)"><text
               transform="matrix(0,-1,-1,0,94.0003,274.829)"
               style="font-variant:normal;font-weight:normal;font-size:14px;font-family:Menlo;-inkscape-font-specification:Menlo-Regular;writing-mode:lr-tb;fill:#afafaf;fill-opacity:1;fill-rule:nonzero;stroke:none"
               id="text3408"><tspan
                 x="0 8.4280005 16.855413 25.283415 33.710827"
                 y="0"
                 id="tspan3406">1.2ms</tspan></text></g><path
             d="M 500,723.395 H 458.332"
             style="fill:none;stroke:#afafaf;stroke-width:4.16667;stroke-linecap:butt;stroke-linejoin:miter;stroke-miterlimit:10;stroke-dasharray:none;stroke-opacity:1"
             id="path3410" /><g
             id="g3412"
             transform="scale(4.16667)"><text
               transform="matrix(0,-1,-1,0,94.0003,194.686)"
               style="font-variant:normal;font-weight:normal;font-size:14px;font-family:Menlo;-inkscape-font-specification:Menlo-Regular;writing-mode:lr-tb;fill:#afafaf;fill-opacity:1;fill-rule:nonzero;stroke:none"
               id="text3418"><tspan
                 x="0 8.4274139 16.855413 25.282827 33.710827"
                 y="0"
                 id="tspan3414">1.4ms</tspan><tspan
                 x="-558.35602 -566.78503 -575.21411"
                 y="-20"
                 id="tspan3416">V5-</tspan></text></g><path
             d="m 500,3060.89 v 41.67"
             style="fill:none;stroke:#afafaf;stroke-width:4.16667;stroke-linecap:butt;stroke-linejoin:miter;stroke-miterlimit:10;stroke-dasharray:none;stroke-opacity:1"
             id="path3420" /><g
             id="g3422"
             transform="scale(4.16667)"><text
               transform="matrix(0,-1,-1,0,150.5,753.042)"
               style="font-variant:normal;font-weight:normal;font-size:14px;font-family:Menlo;-inkscape-font-specification:Menlo-Regular;writing-mode:lr-tb;fill:#afafaf;fill-opacity:1;fill-rule:nonzero;stroke:none"
               id="text3426"><tspan
                 x="0 -8.42906 -16.85812"
                 y="0"
                 id="tspan3424">V4-</tspan></text></g><path
             d="m 652.082,3060.89 v 41.67"
             style="fill:none;stroke:#afafaf;stroke-width:4.16667;stroke-linecap:butt;stroke-linejoin:miter;stroke-miterlimit:10;stroke-dasharray:none;stroke-opacity:1"
             id="path3428" /><g
             id="g3430"
             transform="scale(4.16667)"><text
               transform="matrix(0,-1,-1,0,187,753.042)"
               style="font-variant:normal;font-weight:normal;font-size:14px;font-family:Menlo;-inkscape-font-specification:Menlo-Regular;writing-mode:lr-tb;fill:#afafaf;fill-opacity:1;fill-rule:nonzero;stroke:none"
               id="text3434"><tspan
                 x="0 -8.42906 -16.85812"
                 y="0"
                 id="tspan3432">V3-</tspan></text></g><path
             d="m 804.168,3060.89 v 41.67"
             style="fill:none;stroke:#afafaf;stroke-width:4.16667;stroke-linecap:butt;stroke-linejoin:miter;stroke-miterlimit:10;stroke-dasharray:none;stroke-opacity:1"
             id="path3436" /><g
             id="g3438"
             transform="scale(4.16667)"><text
               transform="matrix(0,-1,-1,0,223.5,753.042)"
               style="font-variant:normal;font-weight:normal;font-size:14px;font-family:Menlo;-inkscape-font-specification:Menlo-Regular;writing-mode:lr-tb;fill:#afafaf;fill-opacity:1;fill-rule:nonzero;stroke:none"
               id="text3442"><tspan
                 x="0 -8.42906 -16.85812"
                 y="0"
                 id="tspan3440">V2-</tspan></text></g><path
             d="m 956.25,3060.89 v 41.67"
             style="fill:none;stroke:#afafaf;stroke-width:4.16667;stroke-linecap:butt;stroke-linejoin:miter;stroke-miterlimit:10;stroke-dasharray:none;stroke-opacity:1"
             id="path3444" /><g
             id="g3446"
             transform="scale(4.16667)"><text
               transform="matrix(0,-1,-1,0,260,753.042)"
               style="font-variant:normal;font-weight:normal;font-size:14px;font-family:Menlo;-inkscape-font-specification:Menlo-Regular;writing-mode:lr-tb;fill:#afafaf;fill-opacity:1;fill-rule:nonzero;stroke:none"
               id="text3450"><tspan
                 x="0 -8.42906 -16.85812"
                 y="0"
                 id="tspan3448">V1-</tspan></text></g><path
             d="m 1108.33,3060.89 v 41.67"
             style="fill:none;stroke:#afafaf;stroke-width:4.16667;stroke-linecap:butt;stroke-linejoin:miter;stroke-miterlimit:10;stroke-dasharray:none;stroke-opacity:1"
             id="path3452" /><g
             id="g3454"
             transform="scale(4.16667)"><text
               transform="matrix(0,-1,-1,0,296.5,753.042)"
               style="font-variant:normal;font-weight:normal;font-size:14px;font-family:Menlo;-inkscape-font-specification:Menlo-Regular;writing-mode:lr-tb;fill:#afafaf;fill-opacity:1;fill-rule:nonzero;stroke:none"
               id="text3458"><tspan
                 x="0 -8.42906"
                 y="0"
                 id="tspan3456">V0</tspan></text></g><path
             d="m 1260.42,3060.89 v 41.67"
             style="fill:none;stroke:#afafaf;stroke-width:4.16667;stroke-linecap:butt;stroke-linejoin:miter;stroke-miterlimit:10;stroke-dasharray:none;stroke-opacity:1"
             id="path3460" /><g
             id="g3462"
             transform="scale(4.16667)"><text
               transform="matrix(0,-1,-1,0,333,753.042)"
               style="font-variant:normal;font-weight:normal;font-size:14px;font-family:Menlo;-inkscape-font-specification:Menlo-Regular;writing-mode:lr-tb;fill:#afafaf;fill-opacity:1;fill-rule:nonzero;stroke:none"
               id="text3466"><tspan
                 x="0 -8.42906"
                 y="0"
                 id="tspan3464">V1</tspan></text></g><path
             d="m 1412.5,3060.89 v 41.67"
             style="fill:none;stroke:#afafaf;stroke-width:4.16667;stroke-linecap:butt;stroke-linejoin:miter;stroke-miterlimit:10;stroke-dasharray:none;stroke-opacity:1"
             id="path3468" /><g
             id="g3470"
             transform="scale(4.16667)"><text
               transform="matrix(0,-1,-1,0,369.5,753.042)"
               style="font-variant:normal;font-weight:normal;font-size:14px;font-family:Menlo;-inkscape-font-specification:Menlo-Regular;writing-mode:lr-tb;fill:#afafaf;fill-opacity:1;fill-rule:nonzero;stroke:none"
               id="text3474"><tspan
                 x="0 -8.42906"
                 y="0"
                 id="tspan3472">V2</tspan></text></g><path
             d="m 1564.58,3060.89 v 41.67"
             style="fill:none;stroke:#afafaf;stroke-width:4.16667;stroke-linecap:butt;stroke-linejoin:miter;stroke-miterlimit:10;stroke-dasharray:none;stroke-opacity:1"
             id="path3476" /><g
             id="g3478"
             transform="scale(4.16667)"><text
               transform="matrix(0,-1,-1,0,406,753.042)"
               style="font-variant:normal;font-weight:normal;font-size:14px;font-family:Menlo;-inkscape-font-specification:Menlo-Regular;writing-mode:lr-tb;fill:#afafaf;fill-opacity:1;fill-rule:nonzero;stroke:none"
               id="text3482"><tspan
                 x="0 -8.42906"
                 y="0"
                 id="tspan3480">V3</tspan></text></g><path
             d="m 1716.67,3060.89 v 41.67"
             style="fill:none;stroke:#afafaf;stroke-width:4.16667;stroke-linecap:butt;stroke-linejoin:miter;stroke-miterlimit:10;stroke-dasharray:none;stroke-opacity:1"
             id="path3484" /><g
             id="g3486"
             transform="scale(4.16667)"><text
               transform="matrix(0,-1,-1,0,442.5,753.042)"
               style="font-variant:normal;font-weight:normal;font-size:14px;font-family:Menlo;-inkscape-font-specification:Menlo-Regular;writing-mode:lr-tb;fill:#afafaf;fill-opacity:1;fill-rule:nonzero;stroke:none"
               id="text3490"><tspan
                 x="0 -8.42906"
                 y="0"
                 id="tspan3488">V4</tspan></text></g><path
             d="m 1868.75,3060.89 v 41.67"
             style="fill:none;stroke:#afafaf;stroke-width:4.16667;stroke-linecap:butt;stroke-linejoin:miter;stroke-miterlimit:10;stroke-dasharray:none;stroke-opacity:1"
             id="path3492" /><g
             id="g3494"
             transform="scale(4.16667)"><text
               transform="matrix(0,-1,-1,0,479,753.042)"
               style="font-variant:normal;font-weight:normal;font-size:14px;font-family:Menlo;-inkscape-font-specification:Menlo-Regular;writing-mode:lr-tb;fill:#afafaf;fill-opacity:1;fill-rule:nonzero;stroke:none"
               id="text3498"><tspan
                 x="0 -8.42906"
                 y="0"
                 id="tspan3496">V5</tspan></text></g><path
             d="m 2020.83,3060.89 v 41.67"
             style="fill:none;stroke:#afafaf;stroke-width:4.16667;stroke-linecap:butt;stroke-linejoin:miter;stroke-miterlimit:10;stroke-dasharray:none;stroke-opacity:1"
             id="path3500" /><path
             d="m 500,389.465 h 1520.83 v 2671.43 H 500 Z"
             style="fill:none;stroke:#afafaf;stroke-width:4.16667;stroke-linecap:butt;stroke-linejoin:miter;stroke-miterlimit:10;stroke-dasharray:none;stroke-opacity:1"
             id="path3502" /><g
             id="g3504"
             transform="scale(4.16667)"><text
               transform="matrix(0,-1,-1,0,489,443.615)"
               style="font-variant:normal;font-weight:normal;font-size:14px;font-family:Menlo;-inkscape-font-specification:Menlo-Regular;writing-mode:lr-tb;fill:#0eff00;fill-opacity:1;fill-rule:nonzero;stroke:none"
               id="text3508"><tspan
                 x="0 8.4280005 16.856001 25.283415 33.711414 42.138828 50.56683"
                 y="0"
                 id="tspan3506">V(vout) @ 2744Hz</tspan></text></g></g></g><g
         id="g3510"><g
           id="g3512"
           clip-path="url(#clipPath3516)"><path
             d="m 818.734,3060.89 v 0 l 50.172,-10.53 55.047,-10.69 57.59,-10.69 55.977,-10.06 60.19,-10.68 59.65,-10.69 57.75,-10.68 54.56,-10.69 50.21,-10.69 44.93,-10.68 39.07,-10.69 33.03,-10.68 27.17,-10.69 21.78,-10.68 17.05,-10.69 13.08,-10.68 9.87,-10.69 7.35,-10.69 5.42,-10.68 3.95,-10.69 2.88,-10.68 2.07,-10.69 1.48,-10.69 1.03,-10.68 0.68,-10.69 0.4,-10.68 0.16,-10.69 -0.08,-10.69 -0.33,-10.68 -0.64,-10.69 -1.02,-10.68 -1.57,-10.69 -2.37,-10.68 -3.55,-10.69 -5.37,-10.69 -8.17,-10.68 -12.47,-10.69 -19,-10.68 -28.61,-10.69 -41.92,-10.68 -58.83,-10.69 -77.66,-10.68 -94.85,-10.69 -105.92,-10.68 -107.518,-10.69 -99.117,-10.68 -83.101,-10.69 -63.243,-10.69 -43.023,-10.68 -24.621,-10.69 -8.77,-10.68 4.512,-10.69 15.527,-10.69 24.739,-10.68 32.578,-10.69 39.312,-10.68 45.129,-10.69 50.071,-10.69 54.128,-10.68 57.184,-10.69 55.673,-10.05 59.97,-10.68 59.48,-10.69 57.63,-10.69 54.47,-10.68 50.14,-10.69 44.88,-10.68 39.03,-10.69 33,-10.69 27.15,-10.68 21.76,-10.69 17.04,-10.68 13.08,-10.69 9.87,-10.69 7.34,-10.68 5.41,-10.69 3.96,-10.68 2.87,-10.69 2.08,-10.68 1.47,-10.69 1.03,-10.68 0.68,-10.69 0.41,-10.69 0.16,-10.68 -0.08,-10.69 -0.33,-10.68 -0.64,-10.69 -1.02,-10.68 -1.57,-10.69 -2.36,-10.68 -3.55,-10.69 -5.36,-10.69 -8.16,-10.68 -12.45,-10.69 -18.98,-10.68 -28.58,-10.69 -41.87,-10.68 -58.77,-10.69 -77.61,-10.69 -94.8,-10.68 -105.91,-10.69 -107.527,-10.68 -99.149,-10.69 -83.152,-10.69 -63.297,-10.68 -43.074,-10.69 -24.664,-10.68 -8.809,-10.69 4.485,-10.69 15.503,-10.68 24.723,-10.69 32.563,-10.68 39.3,-10.69 45.118,-10.68 50.066,-10.69 54.121,-10.68 57.18,-10.69 55.603,-10.04 59.97,-10.69 59.49,-10.68 57.64,-10.69 54.47,-10.68 50.15,-10.69 44.9,-10.69 39.04,-10.68 33.02,-10.69 27.16,-10.68 21.77,-10.69 17.05,-10.69 13.08,-10.68 9.88,-10.69 7.35,-10.68 5.42,-10.69 3.95,-10.69 2.88,-10.68 2.07,-10.69 1.48,-10.68 1.03,-10.69 0.68,-10.68 0.41,-10.69 0.16,-10.68 -0.08,-10.69 -0.33,-10.68 -0.63,-10.69 -1.03,-10.69 -1.56,-10.68 -2.36,-10.69 -3.55,-10.68 -5.35,-10.69 -8.15,-10.68 -12.43,-10.69 -18.96,-10.69 -28.53,-10.68 -41.83,-10.69 -58.71,-10.68 -77.55,-10.69 -94.76,-10.68 -105.88,-10.69 -107.534,-10.69 -99.187,-10.68 -83.207,-10.69 -63.359,-10.68 -43.133,-10.69 -24.715,-10.69 -8.848,-10.68 4.449,-10.69 15.473,-10.68 24.699,-10.69 32.539,-10.68 39.286,-10.69 45.105,-10.69 50.051,-10.68 54.113,-10.69 57.172,-10.68 55.506,-10.03 59.97,-10.68 59.49,-10.69 57.65,-10.68 54.49,-10.69 50.17,-10.68 44.91,-10.69 39.07,-10.69 33.04,-10.68 27.18,-10.69 21.8,-10.68 17.06,-10.69 13.1,-10.68 9.89,-10.69 7.36,-10.69 5.42,-10.68 3.96,-10.69 2.88,-10.68 2.08,-10.69 1.48,-10.686 1.03,-10.687 0.68,-10.684 0.41,-10.687 0.16,-10.684 -0.08,-10.687 -0.33,-10.684 -0.63,-10.688 -1.02,-10.683 -1.56,-10.688 -2.36,-10.683 -3.54,-10.688 -5.34,-10.683 -8.13,-10.688 -12.41,-10.687 -18.92,-10.684 -28.48,-10.687 -41.75,-10.684 -58.63,-10.688 -77.45,-10.683 -94.69,-10.688 -105.84,-10.683 -107.552,-10.688 -99.246,-10.683 -83.293,-10.688 -63.453,-10.683 -43.223,-10.688 -24.793,-10.687 -8.918,-10.684 4.399,-10.687 15.426,-10.684 24.664,-10.688 32.507,-10.683 39.258,-10.688 45.082,-10.683 50.035,-10.688 54.098,-10.683 57.156,-10.688 55.343,-9.996 59.97,-10.687 59.5,-10.684 57.66,-10.688 54.52,-10.687 50.2,-10.684 44.95,-10.687 39.11,-10.684 33.08,-10.687 27.21,-10.684 21.83,-10.687 17.1,-10.684 13.12,-10.687 9.9,-10.684 7.37,-10.688 5.44,-10.683 3.97,-10.688 2.88,-10.687 2.18,-10.684 0.57,-3.398"
             style="fill:none;stroke:#0eff00;stroke-width:4.16667;stroke-linecap:butt;stroke-linejoin:miter;stroke-miterlimit:1;stroke-dasharray:none;stroke-opacity:1"
             id="path3518" /><path
             d="m 1262.13,3057.7 1.03,-2666.044"
             style="fill:none;stroke:#afafaf;stroke-width:4.16667;stroke-linecap:butt;stroke-linejoin:miter;stroke-miterlimit:10;stroke-dasharray:none;stroke-opacity:1"
             id="path3520" /></g></g></g></g></svg>
