<?xml version="1.0" encoding="UTF-8" standalone="no"?>
<svg
   xmlns:dc="http://purl.org/dc/elements/1.1/"
   xmlns:cc="http://creativecommons.org/ns#"
   xmlns:rdf="http://www.w3.org/1999/02/22-rdf-syntax-ns#"
   xmlns:svg="http://www.w3.org/2000/svg"
   xmlns="http://www.w3.org/2000/svg"
   version="1.1"
   id="svg3540"
   xml:space="preserve"
   width="601.15894"
   height="363.76218"
   viewBox="0 0 901.73839 545.64328"><metadata
     id="metadata3546"><rdf:RDF><cc:Work
         rdf:about=""><dc:format>image/svg+xml</dc:format><dc:type
           rdf:resource="http://purl.org/dc/dcmitype/StillImage" /><dc:title></dc:title></cc:Work></rdf:RDF></metadata><defs
     id="defs3544"><clipPath
       clipPathUnits="userSpaceOnUse"
       id="clipPath3558"><path
         d="m 375,299.582 h 1729.17 v 2908.34 H 375 Z"
         id="path3556" /></clipPath><clipPath
       clipPathUnits="userSpaceOnUse"
       id="clipPath3746"><path
         d="m 500,387.082 h 1520.83 v 2675 H 500 Z"
         id="path3744" /></clipPath></defs><g
     id="g3548"
     transform="matrix(0,-1.3333333,-1.3333333,0,1025.6046,667.07604)"><g
       id="g3550"
       transform="scale(0.24)"><g
         id="g3552"><g
           id="g3554"
           clip-path="url(#clipPath3558)"><path
             d="M 500,3060.89 H 458.332"
             style="fill:none;stroke:#afafaf;stroke-width:4.16667;stroke-linecap:butt;stroke-linejoin:miter;stroke-miterlimit:10;stroke-dasharray:none;stroke-opacity:1"
             id="path3560" /><g
             id="g3562"
             transform="scale(4.16667)"><text
               transform="matrix(0,-1,-1,0,94.0003,747.257)"
               style="font-variant:normal;font-weight:normal;font-size:14px;font-family:Menlo;-inkscape-font-specification:Menlo-Regular;writing-mode:lr-tb;fill:#afafaf;fill-opacity:1;fill-rule:nonzero;stroke:none"
               id="text3566"><tspan
                 x="0 8.4280005 16.855413"
                 y="0"
                 id="tspan3564">0µs</tspan></text></g><path
             d="M 500,2784.54 H 458.332"
             style="fill:none;stroke:#afafaf;stroke-width:4.16667;stroke-linecap:butt;stroke-linejoin:miter;stroke-miterlimit:10;stroke-dasharray:none;stroke-opacity:1"
             id="path3568" /><g
             id="g3570"
             transform="scale(4.16667)"><text
               transform="matrix(0,-1,-1,0,94.0003,685.147)"
               style="font-variant:normal;font-weight:normal;font-size:14px;font-family:Menlo;-inkscape-font-specification:Menlo-Regular;writing-mode:lr-tb;fill:#afafaf;fill-opacity:1;fill-rule:nonzero;stroke:none"
               id="text3574"><tspan
                 x="0 8.4280005 16.856001 25.283415"
                 y="0"
                 id="tspan3572">30µs</tspan></text></g><path
             d="M 500,2508.18 H 458.332"
             style="fill:none;stroke:#afafaf;stroke-width:4.16667;stroke-linecap:butt;stroke-linejoin:miter;stroke-miterlimit:10;stroke-dasharray:none;stroke-opacity:1"
             id="path3576" /><g
             id="g3578"
             transform="scale(4.16667)"><text
               transform="matrix(0,-1,-1,0,94.0003,618.821)"
               style="font-variant:normal;font-weight:normal;font-size:14px;font-family:Menlo;-inkscape-font-specification:Menlo-Regular;writing-mode:lr-tb;fill:#afafaf;fill-opacity:1;fill-rule:nonzero;stroke:none"
               id="text3582"><tspan
                 x="0 8.4280005 16.855413 25.283415"
                 y="0"
                 id="tspan3580">60µs</tspan></text></g><path
             d="M 500,2231.83 H 458.332"
             style="fill:none;stroke:#afafaf;stroke-width:4.16667;stroke-linecap:butt;stroke-linejoin:miter;stroke-miterlimit:10;stroke-dasharray:none;stroke-opacity:1"
             id="path3584" /><g
             id="g3586"
             transform="scale(4.16667)"><text
               transform="matrix(0,-1,-1,0,94.0003,552.496)"
               style="font-variant:normal;font-weight:normal;font-size:14px;font-family:Menlo;-inkscape-font-specification:Menlo-Regular;writing-mode:lr-tb;fill:#afafaf;fill-opacity:1;fill-rule:nonzero;stroke:none"
               id="text3590"><tspan
                 x="0 8.4274139 16.855413 25.283415"
                 y="0"
                 id="tspan3588">90µs</tspan></text></g><path
             d="M 500,1955.47 H 458.332"
             style="fill:none;stroke:#afafaf;stroke-width:4.16667;stroke-linecap:butt;stroke-linejoin:miter;stroke-miterlimit:10;stroke-dasharray:none;stroke-opacity:1"
             id="path3592" /><g
             id="g3594"
             transform="scale(4.16667)"><text
               transform="matrix(0,-1,-1,0,94.0003,490.386)"
               style="font-variant:normal;font-weight:normal;font-size:14px;font-family:Menlo;-inkscape-font-specification:Menlo-Regular;writing-mode:lr-tb;fill:#afafaf;fill-opacity:1;fill-rule:nonzero;stroke:none"
               id="text3598"><tspan
                 x="0 8.4280005 16.855413 25.283415 33.711414"
                 y="0"
                 id="tspan3596">120µs</tspan></text></g><path
             d="M 500,1679.12 H 458.332"
             style="fill:none;stroke:#afafaf;stroke-width:4.16667;stroke-linecap:butt;stroke-linejoin:miter;stroke-miterlimit:10;stroke-dasharray:none;stroke-opacity:1"
             id="path3600" /><g
             id="g3602"
             transform="scale(4.16667)"><text
               transform="matrix(0,-1,-1,0,94.0003,424.06)"
               style="font-variant:normal;font-weight:normal;font-size:14px;font-family:Menlo;-inkscape-font-specification:Menlo-Regular;writing-mode:lr-tb;fill:#afafaf;fill-opacity:1;fill-rule:nonzero;stroke:none"
               id="text3606"><tspan
                 x="0 8.4274139 16.855413 25.283415 33.710827"
                 y="0"
                 id="tspan3604">150µs</tspan></text></g><path
             d="M 500,1402.77 H 458.332"
             style="fill:none;stroke:#afafaf;stroke-width:4.16667;stroke-linecap:butt;stroke-linejoin:miter;stroke-miterlimit:10;stroke-dasharray:none;stroke-opacity:1"
             id="path3608" /><g
             id="g3610"
             transform="scale(4.16667)"><text
               transform="matrix(0,-1,-1,0,94.0003,357.735)"
               style="font-variant:normal;font-weight:normal;font-size:14px;font-family:Menlo;-inkscape-font-specification:Menlo-Regular;writing-mode:lr-tb;fill:#afafaf;fill-opacity:1;fill-rule:nonzero;stroke:none"
               id="text3614"><tspan
                 x="0 8.4274139 16.855413 25.282827 33.710827"
                 y="0"
                 id="tspan3612">180µs</tspan></text></g><path
             d="M 500,1126.41 H 458.332"
             style="fill:none;stroke:#afafaf;stroke-width:4.16667;stroke-linecap:butt;stroke-linejoin:miter;stroke-miterlimit:10;stroke-dasharray:none;stroke-opacity:1"
             id="path3616" /><g
             id="g3618"
             transform="scale(4.16667)"><text
               transform="matrix(0,-1,-1,0,94.0003,291.411)"
               style="font-variant:normal;font-weight:normal;font-size:14px;font-family:Menlo;-inkscape-font-specification:Menlo-Regular;writing-mode:lr-tb;fill:#afafaf;fill-opacity:1;fill-rule:nonzero;stroke:none"
               id="text3622"><tspan
                 x="0 8.4280005 16.856001 25.283415 33.711414"
                 y="0"
                 id="tspan3620">210µs</tspan></text></g><path
             d="M 500,850.059 H 458.332"
             style="fill:none;stroke:#afafaf;stroke-width:4.16667;stroke-linecap:butt;stroke-linejoin:miter;stroke-miterlimit:10;stroke-dasharray:none;stroke-opacity:1"
             id="path3624" /><g
             id="g3626"
             transform="scale(4.16667)"><text
               transform="matrix(0,-1,-1,0,94.0003,225.085)"
               style="font-variant:normal;font-weight:normal;font-size:14px;font-family:Menlo;-inkscape-font-specification:Menlo-Regular;writing-mode:lr-tb;fill:#afafaf;fill-opacity:1;fill-rule:nonzero;stroke:none"
               id="text3630"><tspan
                 x="0 8.4280005 16.855413 25.283415 33.710827"
                 y="0"
                 id="tspan3628">240µs</tspan></text></g><path
             d="M 500,573.703 H 458.332"
             style="fill:none;stroke:#afafaf;stroke-width:4.16667;stroke-linecap:butt;stroke-linejoin:miter;stroke-miterlimit:10;stroke-dasharray:none;stroke-opacity:1"
             id="path3632" /><g
             id="g3634"
             transform="scale(4.16667)"><text
               transform="matrix(0,-1,-1,0,94.0003,158.76)"
               style="font-variant:normal;font-weight:normal;font-size:14px;font-family:Menlo;-inkscape-font-specification:Menlo-Regular;writing-mode:lr-tb;fill:#afafaf;fill-opacity:1;fill-rule:nonzero;stroke:none"
               id="text3640"><tspan
                 x="0 8.4274139 16.855413 25.283415 33.710827"
                 y="0"
                 id="tspan3636">270µs</tspan><tspan
                 x="-594.28198 -602.71106 -611.14014"
                 y="-20"
                 id="tspan3638">V6-</tspan></text></g><path
             d="m 500,3060.89 v 41.67"
             style="fill:none;stroke:#afafaf;stroke-width:4.16667;stroke-linecap:butt;stroke-linejoin:miter;stroke-miterlimit:10;stroke-dasharray:none;stroke-opacity:1"
             id="path3642" /><g
             id="g3644"
             transform="scale(4.16667)"><text
               transform="matrix(0,-1,-1,0,147.182,753.042)"
               style="font-variant:normal;font-weight:normal;font-size:14px;font-family:Menlo;-inkscape-font-specification:Menlo-Regular;writing-mode:lr-tb;fill:#afafaf;fill-opacity:1;fill-rule:nonzero;stroke:none"
               id="text3648"><tspan
                 x="0 -8.42906 -16.85812"
                 y="0"
                 id="tspan3646">V5-</tspan></text></g><path
             d="m 638.258,3060.89 v 41.67"
             style="fill:none;stroke:#afafaf;stroke-width:4.16667;stroke-linecap:butt;stroke-linejoin:miter;stroke-miterlimit:10;stroke-dasharray:none;stroke-opacity:1"
             id="path3650" /><g
             id="g3652"
             transform="scale(4.16667)"><text
               transform="matrix(0,-1,-1,0,180.364,753.042)"
               style="font-variant:normal;font-weight:normal;font-size:14px;font-family:Menlo;-inkscape-font-specification:Menlo-Regular;writing-mode:lr-tb;fill:#afafaf;fill-opacity:1;fill-rule:nonzero;stroke:none"
               id="text3656"><tspan
                 x="0 -8.42906 -16.85812"
                 y="0"
                 id="tspan3654">V4-</tspan></text></g><path
             d="m 776.516,3060.89 v 41.67"
             style="fill:none;stroke:#afafaf;stroke-width:4.16667;stroke-linecap:butt;stroke-linejoin:miter;stroke-miterlimit:10;stroke-dasharray:none;stroke-opacity:1"
             id="path3658" /><g
             id="g3660"
             transform="scale(4.16667)"><text
               transform="matrix(0,-1,-1,0,213.546,753.042)"
               style="font-variant:normal;font-weight:normal;font-size:14px;font-family:Menlo;-inkscape-font-specification:Menlo-Regular;writing-mode:lr-tb;fill:#afafaf;fill-opacity:1;fill-rule:nonzero;stroke:none"
               id="text3664"><tspan
                 x="0 -8.42906 -16.85812"
                 y="0"
                 id="tspan3662">V3-</tspan></text></g><path
             d="m 914.773,3060.89 v 41.67"
             style="fill:none;stroke:#afafaf;stroke-width:4.16667;stroke-linecap:butt;stroke-linejoin:miter;stroke-miterlimit:10;stroke-dasharray:none;stroke-opacity:1"
             id="path3666" /><g
             id="g3668"
             transform="scale(4.16667)"><text
               transform="matrix(0,-1,-1,0,246.727,753.042)"
               style="font-variant:normal;font-weight:normal;font-size:14px;font-family:Menlo;-inkscape-font-specification:Menlo-Regular;writing-mode:lr-tb;fill:#afafaf;fill-opacity:1;fill-rule:nonzero;stroke:none"
               id="text3672"><tspan
                 x="0 -8.42906 -16.85812"
                 y="0"
                 id="tspan3670">V2-</tspan></text></g><path
             d="m 1053.03,3060.89 v 41.67"
             style="fill:none;stroke:#afafaf;stroke-width:4.16667;stroke-linecap:butt;stroke-linejoin:miter;stroke-miterlimit:10;stroke-dasharray:none;stroke-opacity:1"
             id="path3674" /><g
             id="g3676"
             transform="scale(4.16667)"><text
               transform="matrix(0,-1,-1,0,279.909,753.042)"
               style="font-variant:normal;font-weight:normal;font-size:14px;font-family:Menlo;-inkscape-font-specification:Menlo-Regular;writing-mode:lr-tb;fill:#afafaf;fill-opacity:1;fill-rule:nonzero;stroke:none"
               id="text3680"><tspan
                 x="0 -8.42906 -16.85812"
                 y="0"
                 id="tspan3678">V1-</tspan></text></g><path
             d="m 1191.29,3060.89 v 41.67"
             style="fill:none;stroke:#afafaf;stroke-width:4.16667;stroke-linecap:butt;stroke-linejoin:miter;stroke-miterlimit:10;stroke-dasharray:none;stroke-opacity:1"
             id="path3682" /><g
             id="g3684"
             transform="scale(4.16667)"><text
               transform="matrix(0,-1,-1,0,313.091,753.042)"
               style="font-variant:normal;font-weight:normal;font-size:14px;font-family:Menlo;-inkscape-font-specification:Menlo-Regular;writing-mode:lr-tb;fill:#afafaf;fill-opacity:1;fill-rule:nonzero;stroke:none"
               id="text3688"><tspan
                 x="0 -8.42906"
                 y="0"
                 id="tspan3686">V0</tspan></text></g><path
             d="m 1329.55,3060.89 v 41.67"
             style="fill:none;stroke:#afafaf;stroke-width:4.16667;stroke-linecap:butt;stroke-linejoin:miter;stroke-miterlimit:10;stroke-dasharray:none;stroke-opacity:1"
             id="path3690" /><g
             id="g3692"
             transform="scale(4.16667)"><text
               transform="matrix(0,-1,-1,0,346.273,753.042)"
               style="font-variant:normal;font-weight:normal;font-size:14px;font-family:Menlo;-inkscape-font-specification:Menlo-Regular;writing-mode:lr-tb;fill:#afafaf;fill-opacity:1;fill-rule:nonzero;stroke:none"
               id="text3696"><tspan
                 x="0 -8.42906"
                 y="0"
                 id="tspan3694">V1</tspan></text></g><path
             d="m 1467.8,3060.89 v 41.67"
             style="fill:none;stroke:#afafaf;stroke-width:4.16667;stroke-linecap:butt;stroke-linejoin:miter;stroke-miterlimit:10;stroke-dasharray:none;stroke-opacity:1"
             id="path3698" /><g
             id="g3700"
             transform="scale(4.16667)"><text
               transform="matrix(0,-1,-1,0,379.454,753.042)"
               style="font-variant:normal;font-weight:normal;font-size:14px;font-family:Menlo;-inkscape-font-specification:Menlo-Regular;writing-mode:lr-tb;fill:#afafaf;fill-opacity:1;fill-rule:nonzero;stroke:none"
               id="text3704"><tspan
                 x="0 -8.42906"
                 y="0"
                 id="tspan3702">V2</tspan></text></g><path
             d="m 1606.06,3060.89 v 41.67"
             style="fill:none;stroke:#afafaf;stroke-width:4.16667;stroke-linecap:butt;stroke-linejoin:miter;stroke-miterlimit:10;stroke-dasharray:none;stroke-opacity:1"
             id="path3706" /><g
             id="g3708"
             transform="scale(4.16667)"><text
               transform="matrix(0,-1,-1,0,412.637,753.042)"
               style="font-variant:normal;font-weight:normal;font-size:14px;font-family:Menlo;-inkscape-font-specification:Menlo-Regular;writing-mode:lr-tb;fill:#afafaf;fill-opacity:1;fill-rule:nonzero;stroke:none"
               id="text3712"><tspan
                 x="0 -8.42906"
                 y="0"
                 id="tspan3710">V3</tspan></text></g><path
             d="m 1744.32,3060.89 v 41.67"
             style="fill:none;stroke:#afafaf;stroke-width:4.16667;stroke-linecap:butt;stroke-linejoin:miter;stroke-miterlimit:10;stroke-dasharray:none;stroke-opacity:1"
             id="path3714" /><g
             id="g3716"
             transform="scale(4.16667)"><text
               transform="matrix(0,-1,-1,0,445.818,753.042)"
               style="font-variant:normal;font-weight:normal;font-size:14px;font-family:Menlo;-inkscape-font-specification:Menlo-Regular;writing-mode:lr-tb;fill:#afafaf;fill-opacity:1;fill-rule:nonzero;stroke:none"
               id="text3720"><tspan
                 x="0 -8.42906"
                 y="0"
                 id="tspan3718">V4</tspan></text></g><path
             d="m 1882.57,3060.89 v 41.67"
             style="fill:none;stroke:#afafaf;stroke-width:4.16667;stroke-linecap:butt;stroke-linejoin:miter;stroke-miterlimit:10;stroke-dasharray:none;stroke-opacity:1"
             id="path3722" /><g
             id="g3724"
             transform="scale(4.16667)"><text
               transform="matrix(0,-1,-1,0,479,753.042)"
               style="font-variant:normal;font-weight:normal;font-size:14px;font-family:Menlo;-inkscape-font-specification:Menlo-Regular;writing-mode:lr-tb;fill:#afafaf;fill-opacity:1;fill-rule:nonzero;stroke:none"
               id="text3728"><tspan
                 x="0 -8.42906"
                 y="0"
                 id="tspan3726">V5</tspan></text></g><path
             d="m 2020.83,3060.89 v 41.67"
             style="fill:none;stroke:#afafaf;stroke-width:4.16667;stroke-linecap:butt;stroke-linejoin:miter;stroke-miterlimit:10;stroke-dasharray:none;stroke-opacity:1"
             id="path3730" /><path
             d="m 500,389.465 h 1520.83 v 2671.43 H 500 Z"
             style="fill:none;stroke:#afafaf;stroke-width:4.16667;stroke-linecap:butt;stroke-linejoin:miter;stroke-miterlimit:10;stroke-dasharray:none;stroke-opacity:1"
             id="path3732" /><g
             id="g3734"
             transform="scale(4.16667)"><text
               transform="matrix(0,-1,-1,0,489,443.615)"
               style="font-variant:normal;font-weight:normal;font-size:14px;font-family:Menlo;-inkscape-font-specification:Menlo-Regular;writing-mode:lr-tb;fill:#0eff00;fill-opacity:1;fill-rule:nonzero;stroke:none"
               id="text3738"><tspan
                 x="0 8.4280005 16.856001 25.283415 33.711414 42.138828 50.56683"
                 y="0"
                 id="tspan3736">V(vout) @ 15kHz</tspan></text></g></g></g><g
         id="g3740"><g
           id="g3742"
           clip-path="url(#clipPath3746)"><path
             d="m 1510.12,3060.89 v 0 l -28.76,-6.87 -55.65,-10.69 -71.57,-10.69 -88.48,-10.68 -102.11,-10.69 -109.66,-10.68 -109.488,-10.69 -101.582,-10.68 -87.3,-10.69 -68.684,-10.68 -47.801,-10.69 -26.254,-10.68 -5.086,-10.69 15.118,-10.68 33.992,-10.69 51.211,-10.69 66.351,-10.68 78.871,-10.69 88.114,-10.68 93.428,-10.69 94.29,-10.69 90.62,-10.68 82.83,-10.69 71.96,-10.68 59.47,-10.69 46.85,-10.68 35.34,-10.69 25.68,-10.69 18.1,-10.68 12.47,-10.69 8.44,-10.68 5.66,-10.69 3.77,-10.69 2.52,-10.68 1.68,-10.69 1.14,-10.68 0.76,-10.69 0.52,-10.68 0.35,-10.69 0.23,-10.68 0.15,-10.69 0.06,-10.69 0.01,-10.68 -0.05,-10.69 -0.13,-10.68 -0.21,-10.69 -0.33,-10.68 -0.5,-10.69 -0.75,-10.68 -1.12,-10.69 -1.72,-10.69 -2.64,-10.68 -4.07,-10.69 -6.32,-10.68 -9.79,-10.69 -15.04,-10.69 -22.73,-10.68 -33.46,-10.69 -47.44,-10.68 -64.02,-10.69 -81.47,-10.68 -97,-10.69 -107.59,-10.69 -110.964,-10.68 -106.383,-10.69 -94.672,-10.68 -77.676,-10.69 -57.523,-10.69 -36.082,-10.68 -14.629,-10.69 6.067,-10.68 25.523,-10.69 42.848,-10.53 59.621,-10.68 73.418,-10.69 84.34,-10.68 91.644,-10.69 94.718,-10.68 93.25,-10.69 87.35,-10.68 77.81,-10.69 65.89,-10.68 53.13,-10.69 40.9,-10.69 30.23,-10.68 21.62,-10.69 15.05,-10.68 10.26,-10.69 6.91,-10.68 4.62,-10.69 3.08,-10.69 2.06,-10.68 1.38,-10.69 0.93,-10.68 0.62,-10.69 0.43,-10.68 0.29,-10.69 0.18,-10.69 0.1,-10.68 0.04,-10.69 -0.02,-9.57 -0.07,-9.55 -0.15,-10.69 -0.24,-10.68 -0.38,-10.69 -0.56,-10.68 -0.85,-10.69 -1.29,-10.69 -1.96,-10.68 -3.02,-10.69 -4.68,-10.68 -7.24,-10.69 -11.21,-10.68 -17.15,-10.69 -25.73,-10.69 -37.49,-10.68 -52.41,-10.69 -69.52,-10.68 -86.72,-10.69 -101.04,-10.68 -109.57,-10.69 -110.485,-10.68 -103.536,-10.69 -89.953,-10.69 -71.742,-10.68 -51.008,-10.69 -29.441,-10.68 -8.16,-10.69 12.211,-10.68 31.015,-10.69 44.871,-9.93 63.582,-10.69 76.465,-10.69 86.571,-10.68 92.89,-10.69 94.86,-10.68 92.26,-10.69 85.35,-10.69 75.08,-10.68 62.81,-10.69 50.05,-10.68 38.12,-10.69 27.93,-10.69 19.83,-10.68 13.72,-10.69 9.33,-10.68 6.26,-10.69 4.19,-10.68 2.78,-10.69 1.87,-10.68 1.25,-10.69 0.84,-10.68 0.58,-10.69 0.38,-10.68 0.26,-10.69 0.16,-10.69 0.09,-10.68 0.02,-10.69 -0.04,-10.68 -0.11,-10.69 -0.19,-10.69 -0.3,-10.68 -0.45,-10.69 -0.68,-10.68 -1.03,-10.69 -1.57,-10.68 -2.39,-10.69 -3.69,-10.69 -5.71,-10.68 -8.87,-10.69 -13.66,-10.68 -20.74,-10.69 -30.74,-10.69 -43.99,-10.68 -60.13,-10.69 -77.61,-10.68 -93.89,-10.69 -105.85,-10.68 -111.02,-10.69 -108.239,-10.68 -98.023,-10.69 -82.035,-10.68 -62.418,-10.69 -41.121,-10.69 -19.582,-10.68 1.339,-10.69 21.164,-10.68 39.571,-10.69 56.215,-10.68 70.644,-10.69 82.278,-10.69 90.445,-10.68 94.512,-10.69 94.06,-10.684 89.11,-10.688 80.28,-10.683 68.76,-10.688 56.05,-10.683 43.56,-10.688 32.49,-10.683 23.39,-10.688 16.37,-10.683 11.21,-10.688 7.57,-10.684 5.06,-10.687 3.37,-10.688 2.26,-10.683 1.51,-10.688 1.02,-10.683 0.68,-10.688 0.47,-10.683 0.31,-10.688 0.2,-10.683 0.13,-10.688 0.05,-10.683 -0.02,-10.688 -0.07,-10.352 -0.14,-10.683 -0.24,-10.688 -0.37,-10.683 -0.56,-10.688 -0.83,-10.683 -1.27,-10.688 -1.93,-10.683 -2.96,-10.688 -4.59,-10.684 -7.12,-10.687 -11.01,-10.684 -16.85,-10.687 -25.32,-10.688 -36.94,-10.683 -51.73,-10.688 -68.79,-10.683 -86.06,-10.688 L 1180.32,557.059 1070.93,546.371 960.293,535.688 856.289,525 l -90.66,-10.684 -72.598,-10.687 -51.929,-10.688 -30.372,-10.683 -9.058,-10.688 11.359,-10.683 30.106,-10.688 42.683,-9.636 62.668,-10.684 75.633,-10.688 85.984,-10.683 92.535,-10.688 74.61,-8.355"
             style="fill:none;stroke:#0eff00;stroke-width:4.16667;stroke-linecap:butt;stroke-linejoin:miter;stroke-miterlimit:1;stroke-dasharray:none;stroke-opacity:1"
             id="path3748" /><path
             d="m 1330.17,3059 2.98,-2672.059"
             style="fill:none;stroke:#afafaf;stroke-width:4.16667;stroke-linecap:butt;stroke-linejoin:miter;stroke-miterlimit:10;stroke-dasharray:none;stroke-opacity:1"
             id="path3750" /></g></g></g></g></svg>
