<?xml version="1.0" encoding="UTF-8" standalone="no"?>
<svg
   xmlns:dc="http://purl.org/dc/elements/1.1/"
   xmlns:cc="http://creativecommons.org/ns#"
   xmlns:rdf="http://www.w3.org/1999/02/22-rdf-syntax-ns#"
   xmlns:svg="http://www.w3.org/2000/svg"
   xmlns="http://www.w3.org/2000/svg"
   version="1.1"
   id="svg3112"
   xml:space="preserve"
   width="604.84088"
   height="361.33768"
   viewBox="0 0 907.26131 542.00654"><metadata
     id="metadata3118"><rdf:RDF><cc:Work
         rdf:about=""><dc:format>image/svg+xml</dc:format><dc:type
           rdf:resource="http://purl.org/dc/dcmitype/StillImage" /><dc:title></dc:title></cc:Work></rdf:RDF></metadata><defs
     id="defs3116"><clipPath
       clipPathUnits="userSpaceOnUse"
       id="clipPath3130"><path
         d="m 375,299.582 h 1729.17 v 2908.34 H 375 Z"
         id="path3128" /></clipPath><clipPath
       clipPathUnits="userSpaceOnUse"
       id="clipPath3310"><path
         d="m 500,370.418 h 1520.83 v 2691.66 H 500 Z"
         id="path3308" /></clipPath></defs><g
     id="g3120"
     transform="matrix(0,-1.3333333,-1.3333333,0,1025.6046,667.07604)"><g
       id="g3122"
       transform="scale(0.24)"><g
         id="g3124"><g
           id="g3126"
           clip-path="url(#clipPath3130)"><path
             d="M 500,3060.89 H 458.332"
             style="fill:none;stroke:#afafaf;stroke-width:4.16667;stroke-linecap:butt;stroke-linejoin:miter;stroke-miterlimit:10;stroke-dasharray:none;stroke-opacity:1"
             id="path3132" /><g
             id="g3134"
             transform="scale(4.16667)"><text
               transform="matrix(0,-1,-1,0,94.0003,747.257)"
               style="font-variant:normal;font-weight:normal;font-size:14px;font-family:Menlo;-inkscape-font-specification:Menlo-Regular;writing-mode:lr-tb;fill:#afafaf;fill-opacity:1;fill-rule:nonzero;stroke:none"
               id="text3138"><tspan
                 x="0 8.4280005 16.855413"
                 y="0"
                 id="tspan3136">0ms</tspan></text></g><path
             d="M 500,2791.99 H 458.332"
             style="fill:none;stroke:#afafaf;stroke-width:4.16667;stroke-linecap:butt;stroke-linejoin:miter;stroke-miterlimit:10;stroke-dasharray:none;stroke-opacity:1"
             id="path3140" /><g
             id="g3142"
             transform="scale(4.16667)"><text
               transform="matrix(0,-1,-1,0,94.0003,682.721)"
               style="font-variant:normal;font-weight:normal;font-size:14px;font-family:Menlo;-inkscape-font-specification:Menlo-Regular;writing-mode:lr-tb;fill:#afafaf;fill-opacity:1;fill-rule:nonzero;stroke:none"
               id="text3146"><tspan
                 x="0 8.4280005 16.855413"
                 y="0"
                 id="tspan3144">1ms</tspan></text></g><path
             d="M 500,2523.09 H 458.332"
             style="fill:none;stroke:#afafaf;stroke-width:4.16667;stroke-linecap:butt;stroke-linejoin:miter;stroke-miterlimit:10;stroke-dasharray:none;stroke-opacity:1"
             id="path3148" /><g
             id="g3150"
             transform="scale(4.16667)"><text
               transform="matrix(0,-1,-1,0,94.0003,618.186)"
               style="font-variant:normal;font-weight:normal;font-size:14px;font-family:Menlo;-inkscape-font-specification:Menlo-Regular;writing-mode:lr-tb;fill:#afafaf;fill-opacity:1;fill-rule:nonzero;stroke:none"
               id="text3154"><tspan
                 x="0 8.4280005 16.855413"
                 y="0"
                 id="tspan3152">2ms</tspan></text></g><path
             d="M 500,2254.2 H 458.332"
             style="fill:none;stroke:#afafaf;stroke-width:4.16667;stroke-linecap:butt;stroke-linejoin:miter;stroke-miterlimit:10;stroke-dasharray:none;stroke-opacity:1"
             id="path3156" /><g
             id="g3158"
             transform="scale(4.16667)"><text
               transform="matrix(0,-1,-1,0,94.0003,553.65)"
               style="font-variant:normal;font-weight:normal;font-size:14px;font-family:Menlo;-inkscape-font-specification:Menlo-Regular;writing-mode:lr-tb;fill:#afafaf;fill-opacity:1;fill-rule:nonzero;stroke:none"
               id="text3162"><tspan
                 x="0 8.4280005 16.855413"
                 y="0"
                 id="tspan3160">3ms</tspan></text></g><path
             d="M 500,1985.3 H 458.332"
             style="fill:none;stroke:#afafaf;stroke-width:4.16667;stroke-linecap:butt;stroke-linejoin:miter;stroke-miterlimit:10;stroke-dasharray:none;stroke-opacity:1"
             id="path3164" /><g
             id="g3166"
             transform="scale(4.16667)"><text
               transform="matrix(0,-1,-1,0,94.0003,489.114)"
               style="font-variant:normal;font-weight:normal;font-size:14px;font-family:Menlo;-inkscape-font-specification:Menlo-Regular;writing-mode:lr-tb;fill:#afafaf;fill-opacity:1;fill-rule:nonzero;stroke:none"
               id="text3170"><tspan
                 x="0 8.4280005 16.855413"
                 y="0"
                 id="tspan3168">4ms</tspan></text></g><path
             d="M 500,1716.4 H 458.332"
             style="fill:none;stroke:#afafaf;stroke-width:4.16667;stroke-linecap:butt;stroke-linejoin:miter;stroke-miterlimit:10;stroke-dasharray:none;stroke-opacity:1"
             id="path3172" /><g
             id="g3174"
             transform="scale(4.16667)"><text
               transform="matrix(0,-1,-1,0,94.0003,424.579)"
               style="font-variant:normal;font-weight:normal;font-size:14px;font-family:Menlo;-inkscape-font-specification:Menlo-Regular;writing-mode:lr-tb;fill:#afafaf;fill-opacity:1;fill-rule:nonzero;stroke:none"
               id="text3178"><tspan
                 x="0 8.4280005 16.855413"
                 y="0"
                 id="tspan3176">5ms</tspan></text></g><path
             d="M 500,1447.5 H 458.332"
             style="fill:none;stroke:#afafaf;stroke-width:4.16667;stroke-linecap:butt;stroke-linejoin:miter;stroke-miterlimit:10;stroke-dasharray:none;stroke-opacity:1"
             id="path3180" /><g
             id="g3182"
             transform="scale(4.16667)"><text
               transform="matrix(0,-1,-1,0,94.0003,360.043)"
               style="font-variant:normal;font-weight:normal;font-size:14px;font-family:Menlo;-inkscape-font-specification:Menlo-Regular;writing-mode:lr-tb;fill:#afafaf;fill-opacity:1;fill-rule:nonzero;stroke:none"
               id="text3186"><tspan
                 x="0 8.4280005 16.855413"
                 y="0"
                 id="tspan3184">6ms</tspan></text></g><path
             d="M 500,1178.6 H 458.332"
             style="fill:none;stroke:#afafaf;stroke-width:4.16667;stroke-linecap:butt;stroke-linejoin:miter;stroke-miterlimit:10;stroke-dasharray:none;stroke-opacity:1"
             id="path3188" /><g
             id="g3190"
             transform="scale(4.16667)"><text
               transform="matrix(0,-1,-1,0,94.0003,295.507)"
               style="font-variant:normal;font-weight:normal;font-size:14px;font-family:Menlo;-inkscape-font-specification:Menlo-Regular;writing-mode:lr-tb;fill:#afafaf;fill-opacity:1;fill-rule:nonzero;stroke:none"
               id="text3194"><tspan
                 x="0 8.4280005 16.855413"
                 y="0"
                 id="tspan3192">7ms</tspan></text></g><path
             d="M 500,909.703 H 458.332"
             style="fill:none;stroke:#afafaf;stroke-width:4.16667;stroke-linecap:butt;stroke-linejoin:miter;stroke-miterlimit:10;stroke-dasharray:none;stroke-opacity:1"
             id="path3196" /><g
             id="g3198"
             transform="scale(4.16667)"><text
               transform="matrix(0,-1,-1,0,94.0003,230.972)"
               style="font-variant:normal;font-weight:normal;font-size:14px;font-family:Menlo;-inkscape-font-specification:Menlo-Regular;writing-mode:lr-tb;fill:#afafaf;fill-opacity:1;fill-rule:nonzero;stroke:none"
               id="text3202"><tspan
                 x="0 8.4280005 16.855413"
                 y="0"
                 id="tspan3200">8ms</tspan></text></g><path
             d="M 500,640.805 H 458.332"
             style="fill:none;stroke:#afafaf;stroke-width:4.16667;stroke-linecap:butt;stroke-linejoin:miter;stroke-miterlimit:10;stroke-dasharray:none;stroke-opacity:1"
             id="path3204" /><g
             id="g3206"
             transform="scale(4.16667)"><text
               transform="matrix(0,-1,-1,0,94.0003,166.436)"
               style="font-variant:normal;font-weight:normal;font-size:14px;font-family:Menlo;-inkscape-font-specification:Menlo-Regular;writing-mode:lr-tb;fill:#afafaf;fill-opacity:1;fill-rule:nonzero;stroke:none"
               id="text3212"><tspan
                 x="0 8.4280005 16.855413"
                 y="0"
                 id="tspan3208">9ms</tspan><tspan
                 x="-586.60602 -595.03503 -603.46411"
                 y="-20"
                 id="tspan3210">V5-</tspan></text></g><path
             d="m 500,3060.89 v 41.67"
             style="fill:none;stroke:#afafaf;stroke-width:4.16667;stroke-linecap:butt;stroke-linejoin:miter;stroke-miterlimit:10;stroke-dasharray:none;stroke-opacity:1"
             id="path3214" /><g
             id="g3216"
             transform="scale(4.16667)"><text
               transform="matrix(0,-1,-1,0,150.5,753.042)"
               style="font-variant:normal;font-weight:normal;font-size:14px;font-family:Menlo;-inkscape-font-specification:Menlo-Regular;writing-mode:lr-tb;fill:#afafaf;fill-opacity:1;fill-rule:nonzero;stroke:none"
               id="text3220"><tspan
                 x="0 -8.42906 -16.85812"
                 y="0"
                 id="tspan3218">V4-</tspan></text></g><path
             d="m 652.082,3060.89 v 41.67"
             style="fill:none;stroke:#afafaf;stroke-width:4.16667;stroke-linecap:butt;stroke-linejoin:miter;stroke-miterlimit:10;stroke-dasharray:none;stroke-opacity:1"
             id="path3222" /><g
             id="g3224"
             transform="scale(4.16667)"><text
               transform="matrix(0,-1,-1,0,187,753.042)"
               style="font-variant:normal;font-weight:normal;font-size:14px;font-family:Menlo;-inkscape-font-specification:Menlo-Regular;writing-mode:lr-tb;fill:#afafaf;fill-opacity:1;fill-rule:nonzero;stroke:none"
               id="text3228"><tspan
                 x="0 -8.42906 -16.85812"
                 y="0"
                 id="tspan3226">V3-</tspan></text></g><path
             d="m 804.168,3060.89 v 41.67"
             style="fill:none;stroke:#afafaf;stroke-width:4.16667;stroke-linecap:butt;stroke-linejoin:miter;stroke-miterlimit:10;stroke-dasharray:none;stroke-opacity:1"
             id="path3230" /><g
             id="g3232"
             transform="scale(4.16667)"><text
               transform="matrix(0,-1,-1,0,223.5,753.042)"
               style="font-variant:normal;font-weight:normal;font-size:14px;font-family:Menlo;-inkscape-font-specification:Menlo-Regular;writing-mode:lr-tb;fill:#afafaf;fill-opacity:1;fill-rule:nonzero;stroke:none"
               id="text3236"><tspan
                 x="0 -8.42906 -16.85812"
                 y="0"
                 id="tspan3234">V2-</tspan></text></g><path
             d="m 956.25,3060.89 v 41.67"
             style="fill:none;stroke:#afafaf;stroke-width:4.16667;stroke-linecap:butt;stroke-linejoin:miter;stroke-miterlimit:10;stroke-dasharray:none;stroke-opacity:1"
             id="path3238" /><g
             id="g3240"
             transform="scale(4.16667)"><text
               transform="matrix(0,-1,-1,0,260,753.042)"
               style="font-variant:normal;font-weight:normal;font-size:14px;font-family:Menlo;-inkscape-font-specification:Menlo-Regular;writing-mode:lr-tb;fill:#afafaf;fill-opacity:1;fill-rule:nonzero;stroke:none"
               id="text3244"><tspan
                 x="0 -8.42906 -16.85812"
                 y="0"
                 id="tspan3242">V1-</tspan></text></g><path
             d="m 1108.33,3060.89 v 41.67"
             style="fill:none;stroke:#afafaf;stroke-width:4.16667;stroke-linecap:butt;stroke-linejoin:miter;stroke-miterlimit:10;stroke-dasharray:none;stroke-opacity:1"
             id="path3246" /><g
             id="g3248"
             transform="scale(4.16667)"><text
               transform="matrix(0,-1,-1,0,296.5,753.042)"
               style="font-variant:normal;font-weight:normal;font-size:14px;font-family:Menlo;-inkscape-font-specification:Menlo-Regular;writing-mode:lr-tb;fill:#afafaf;fill-opacity:1;fill-rule:nonzero;stroke:none"
               id="text3252"><tspan
                 x="0 -8.42906"
                 y="0"
                 id="tspan3250">V0</tspan></text></g><path
             d="m 1260.42,3060.89 v 41.67"
             style="fill:none;stroke:#afafaf;stroke-width:4.16667;stroke-linecap:butt;stroke-linejoin:miter;stroke-miterlimit:10;stroke-dasharray:none;stroke-opacity:1"
             id="path3254" /><g
             id="g3256"
             transform="scale(4.16667)"><text
               transform="matrix(0,-1,-1,0,333,753.042)"
               style="font-variant:normal;font-weight:normal;font-size:14px;font-family:Menlo;-inkscape-font-specification:Menlo-Regular;writing-mode:lr-tb;fill:#afafaf;fill-opacity:1;fill-rule:nonzero;stroke:none"
               id="text3260"><tspan
                 x="0 -8.42906"
                 y="0"
                 id="tspan3258">V1</tspan></text></g><path
             d="m 1412.5,3060.89 v 41.67"
             style="fill:none;stroke:#afafaf;stroke-width:4.16667;stroke-linecap:butt;stroke-linejoin:miter;stroke-miterlimit:10;stroke-dasharray:none;stroke-opacity:1"
             id="path3262" /><g
             id="g3264"
             transform="scale(4.16667)"><text
               transform="matrix(0,-1,-1,0,369.5,753.042)"
               style="font-variant:normal;font-weight:normal;font-size:14px;font-family:Menlo;-inkscape-font-specification:Menlo-Regular;writing-mode:lr-tb;fill:#afafaf;fill-opacity:1;fill-rule:nonzero;stroke:none"
               id="text3268"><tspan
                 x="0 -8.42906"
                 y="0"
                 id="tspan3266">V2</tspan></text></g><path
             d="m 1564.58,3060.89 v 41.67"
             style="fill:none;stroke:#afafaf;stroke-width:4.16667;stroke-linecap:butt;stroke-linejoin:miter;stroke-miterlimit:10;stroke-dasharray:none;stroke-opacity:1"
             id="path3270" /><g
             id="g3272"
             transform="scale(4.16667)"><text
               transform="matrix(0,-1,-1,0,406,753.042)"
               style="font-variant:normal;font-weight:normal;font-size:14px;font-family:Menlo;-inkscape-font-specification:Menlo-Regular;writing-mode:lr-tb;fill:#afafaf;fill-opacity:1;fill-rule:nonzero;stroke:none"
               id="text3276"><tspan
                 x="0 -8.42906"
                 y="0"
                 id="tspan3274">V3</tspan></text></g><path
             d="m 1716.67,3060.89 v 41.67"
             style="fill:none;stroke:#afafaf;stroke-width:4.16667;stroke-linecap:butt;stroke-linejoin:miter;stroke-miterlimit:10;stroke-dasharray:none;stroke-opacity:1"
             id="path3278" /><g
             id="g3280"
             transform="scale(4.16667)"><text
               transform="matrix(0,-1,-1,0,442.5,753.042)"
               style="font-variant:normal;font-weight:normal;font-size:14px;font-family:Menlo;-inkscape-font-specification:Menlo-Regular;writing-mode:lr-tb;fill:#afafaf;fill-opacity:1;fill-rule:nonzero;stroke:none"
               id="text3284"><tspan
                 x="0 -8.42906"
                 y="0"
                 id="tspan3282">V4</tspan></text></g><path
             d="m 1868.75,3060.89 v 41.67"
             style="fill:none;stroke:#afafaf;stroke-width:4.16667;stroke-linecap:butt;stroke-linejoin:miter;stroke-miterlimit:10;stroke-dasharray:none;stroke-opacity:1"
             id="path3286" /><g
             id="g3288"
             transform="scale(4.16667)"><text
               transform="matrix(0,-1,-1,0,479,753.042)"
               style="font-variant:normal;font-weight:normal;font-size:14px;font-family:Menlo;-inkscape-font-specification:Menlo-Regular;writing-mode:lr-tb;fill:#afafaf;fill-opacity:1;fill-rule:nonzero;stroke:none"
               id="text3292"><tspan
                 x="0 -8.42906"
                 y="0"
                 id="tspan3290">V5</tspan></text></g><path
             d="m 2020.83,3060.89 v 41.67"
             style="fill:none;stroke:#afafaf;stroke-width:4.16667;stroke-linecap:butt;stroke-linejoin:miter;stroke-miterlimit:10;stroke-dasharray:none;stroke-opacity:1"
             id="path3294" /><path
             d="m 500,371.906 h 1520.83 v 2688.98 H 500 Z"
             style="fill:none;stroke:#afafaf;stroke-width:4.16667;stroke-linecap:butt;stroke-linejoin:miter;stroke-miterlimit:10;stroke-dasharray:none;stroke-opacity:1"
             id="path3296" /><g
             id="g3298"
             transform="scale(4.16667)"><text
               transform="matrix(0,-1,-1,0,489,441.614)"
               style="font-variant:normal;font-weight:normal;font-size:14px;font-family:Menlo;-inkscape-font-specification:Menlo-Regular;writing-mode:lr-tb;fill:#0eff00;fill-opacity:1;fill-rule:nonzero;stroke:none"
               id="text3302"><tspan
                 x="0 8.4274139 16.855413 25.283415 33.710827 42.138828 50.566242"
                 y="0"
                 id="tspan3300">V(vout) @ 440Hz</tspan></text></g></g></g><g
         id="g3304"><g
           id="g3306"
           clip-path="url(#clipPath3310)"><path
             d="m 1121.8,3060.89 v 0 l -0.36,-4.73 0.02,-6.3 1.17,-10.75 2.63,-10.76 4.23,-10.76 5.76,-10.75 7.22,-10.76 8.59,-10.75 9.87,-10.76 11.01,-10.75 12.03,-10.76 12.91,-10.76 13.63,-10.75 14.19,-10.76 14.57,-10.75 14.26,-10.38 14.81,-10.76 14.66,-10.76 14.35,-10.75 13.86,-10.76 13.21,-10.75 12.43,-10.76 11.51,-10.75 10.5,-10.76 9.37,-10.75 8.17,-10.76 6.91,-10.76 5.59,-10.75 4.23,-10.76 2.8,-10.76 1.35,-10.75 -0.15,-10.76 -1.7,-10.76 -3.28,-10.75 -4.91,-10.76 -6.54,-10.75 -8.2,-10.76 -9.8,-10.75 -11.36,-10.76 -12.79,-10.75 -14.04,-10.76 -15.1,-10.76 -15.88,-10.75 -16.41,-10.76 -16.64,-10.76 -16.58,-10.75 -16.25,-10.76 -15.69,-10.75 -14.89,-10.76 -13.91,-10.75 -12.75,-10.76 -11.48,-10.75 -10.07,-10.76 -8.58,-10.76 -7.01,-10.75 -5.4,-10.76 -3.75,-10.76 -2.07,-10.75 -0.41,-10.76 1.25,-10.76 2.88,-10.75 4.46,-10.76 5.98,-10.75 7.43,-10.76 8.79,-10.75 10.03,-10.76 11.18,-10.75 12.17,-10.76 13.02,-10.76 13.72,-10.75 14.25,-10.76 12.75,-9.38 14.08,-10.25 14.82,-10.76 14.66,-10.76 14.34,-10.75 13.85,-10.76 13.21,-10.75 12.42,-10.76 11.51,-10.75 10.48,-10.76 9.37,-10.76 8.16,-10.75 6.91,-10.76 5.57,-10.75 4.21,-10.76 2.8,-10.76 1.34,-10.75 -0.17,-10.76 -1.7,-10.75 -3.3,-10.76 -4.91,-10.76 -6.56,-10.75 -8.21,-10.76 -9.82,-10.75 -11.36,-10.76 -12.8,-10.76 -14.05,-10.75 -15.1,-10.76 -15.89,-10.75 -16.41,-10.76 -16.64,-10.76 -16.58,-10.75 -16.25,-10.76 -15.68,-10.75 -14.89,-10.76 -13.9,-10.75 -12.75,-10.76 -11.46,-10.76 -10.06,-10.75 -8.57,-10.76 -7.01,-10.76 -5.38,-10.75 -3.73,-10.76 -2.07,-10.75 -0.39,-10.76 1.26,-10.75 2.89,-10.76 4.48,-10.76 5.99,-10.75 7.44,-10.76 8.79,-10.75 10.05,-10.76 11.17,-10.76 12.18,-10.75 13.04,-10.76 13.72,-10.75 14.25,-10.76 12.68,-9.34 14.06,-10.23 14.81,-10.75 14.67,-10.76 14.34,-10.75 13.85,-10.76 13.21,-10.76 12.42,-10.75 11.51,-10.76 10.48,-10.76 9.36,-10.75 8.17,-10.76 6.9,-10.75 5.58,-10.76 4.2,-10.75 2.8,-10.76 1.33,-10.76 -0.16,-10.75 -1.71,-10.76 -3.29,-10.75 -4.92,-10.76 -6.56,-10.76 -8.21,-10.75 -9.82,-10.76 -11.37,-10.75 -12.8,-10.76 -14.05,-10.75 -15.1,-10.76 -15.9,-10.76 -16.4,-10.75 -16.64,-10.76 -16.58,-10.75 -16.25,-10.76 -15.68,-10.76 -14.88,-10.75 -13.9,-10.76 -12.75,-10.76 -11.46,-10.75 -10.07,-10.76 -8.56,-10.75 -7,-10.76 -5.39,-10.75 -3.73,-10.76 -2.06,-10.76 -0.39,-10.75 1.26,-10.76 2.89,-10.75 4.48,-10.76 5.99,-10.76 7.44,-10.75 8.8,-10.76 10.04,-10.75 11.18,-10.76 12.18,-10.75 13.03,-10.76 13.73,-10.76 14.25,-10.75 12.67,-9.34 14.06,-10.22 14.81,-10.76 14.66,-10.75 14.34,-10.76 13.86,-10.76 13.21,-10.75 12.42,-10.76 11.5,-10.751 10.49,-10.758 9.36,-10.754 8.16,-10.758 6.91,-10.754 5.57,-10.757 4.21,-10.758 2.79,-10.754 1.34,-10.758 -0.16,-10.754 -1.72,-10.758 -3.29,-10.753 -4.92,-10.758 -6.56,-10.754 -8.21,-10.758 -9.82,-10.754 -11.37,-10.758 -12.79,-10.754 -14.05,-10.757 -15.11,-10.754 -15.89,-10.758 -16.41,-10.754 -16.64,-10.758 -16.58,-10.754 -16.25,-10.758 -15.68,-10.754 -14.88,-10.757 -13.9,-10.754 -12.75,-10.758 -11.46,-10.758 -10.06,-10.754 -8.57,-10.758 -7,-10.753 -5.38,-10.758 -3.73,-10.754 -2.07,-10.758 -0.39,-10.754 1.27,-10.758 2.89,-10.754 4.47,-10.757 6,-10.754 7.44,-10.758 8.8,-10.754 10.04,-10.758 11.18,-10.754 12.18,-10.758 13.03,-10.754 13.73,-10.757 14.25,-10.754 12.67,-9.332 14.06,-10.227 14.81,-10.754 14.66,-10.758 14.34,-10.753 13.85,-10.758 13.21,-10.754 12.42,-10.758 11.58,-10.754 7.94,-7.84"
             style="fill:none;stroke:#0eff00;stroke-width:4.16667;stroke-linecap:butt;stroke-linejoin:miter;stroke-miterlimit:1;stroke-dasharray:none;stroke-opacity:1"
             id="path3312" /><path
             d="M 1260.7,3057.55 1259.83,376.43"
             style="fill:none;stroke:#afafaf;stroke-width:4.16667;stroke-linecap:butt;stroke-linejoin:miter;stroke-miterlimit:10;stroke-dasharray:none;stroke-opacity:1"
             id="path3314" /></g></g></g></g></svg>
