<?xml version="1.0" encoding="UTF-8" standalone="no"?>
<svg
   xmlns:dc="http://purl.org/dc/elements/1.1/"
   xmlns:cc="http://creativecommons.org/ns#"
   xmlns:rdf="http://www.w3.org/1999/02/22-rdf-syntax-ns#"
   xmlns:svg="http://www.w3.org/2000/svg"
   xmlns="http://www.w3.org/2000/svg"
   version="1.1"
   id="svg2872"
   xml:space="preserve"
   width="569.03094"
   height="361.33768"
   viewBox="0 0 853.5464 542.00654"><metadata
     id="metadata2878"><rdf:RDF><cc:Work
         rdf:about=""><dc:format>image/svg+xml</dc:format><dc:type
           rdf:resource="http://purl.org/dc/dcmitype/StillImage" /><dc:title></dc:title></cc:Work></rdf:RDF></metadata><defs
     id="defs2876"><clipPath
       clipPathUnits="userSpaceOnUse"
       id="clipPath2890"><path
         d="m 375,299.582 h 1729.17 v 2908.34 H 375 Z"
         id="path2888" /></clipPath><clipPath
       clipPathUnits="userSpaceOnUse"
       id="clipPath3082"><path
         d="m 500,537.082 h 1520.83 v 2454.17 H 500 Z"
         id="path3080" /></clipPath></defs><g
     id="g2880"
     transform="matrix(0,-1.3333333,-1.3333333,0,1025.6049,667.07604)"><g
       id="g2882"
       transform="scale(0.24)"><g
         id="g2884"><g
           id="g2886"
           clip-path="url(#clipPath2890)"><g
             id="g2892"
             transform="scale(4.16667)"><text
               transform="matrix(0,-1,-1,0,94.0003,734.614)"
               style="font-variant:normal;font-weight:normal;font-size:14px;font-family:Menlo;-inkscape-font-specification:Menlo-Regular;writing-mode:lr-tb;fill:#afafaf;fill-opacity:1;fill-rule:nonzero;stroke:none"
               id="text2896"><tspan
                 x="0 8.4274139 16.855413 25.283415"
                 y="0"
                 id="tspan2894">10Hz</tspan></text></g><path
             d="M 500,2990.65 H 458.332"
             style="fill:none;stroke:#afafaf;stroke-width:4.16667;stroke-linecap:butt;stroke-linejoin:miter;stroke-miterlimit:10;stroke-dasharray:none;stroke-opacity:1"
             id="path2898" /><path
             d="M 500,2758.36 H 479.168"
             style="fill:none;stroke:#afafaf;stroke-width:4.16667;stroke-linecap:butt;stroke-linejoin:miter;stroke-miterlimit:10;stroke-dasharray:none;stroke-opacity:1"
             id="path2900" /><path
             d="M 500,2622.47 H 479.168"
             style="fill:none;stroke:#afafaf;stroke-width:4.16667;stroke-linecap:butt;stroke-linejoin:miter;stroke-miterlimit:10;stroke-dasharray:none;stroke-opacity:1"
             id="path2902" /><path
             d="M 500,2526.06 H 479.168"
             style="fill:none;stroke:#afafaf;stroke-width:4.16667;stroke-linecap:butt;stroke-linejoin:miter;stroke-miterlimit:10;stroke-dasharray:none;stroke-opacity:1"
             id="path2904" /><path
             d="M 500,2451.28 H 479.168"
             style="fill:none;stroke:#afafaf;stroke-width:4.16667;stroke-linecap:butt;stroke-linejoin:miter;stroke-miterlimit:10;stroke-dasharray:none;stroke-opacity:1"
             id="path2906" /><path
             d="M 500,2390.18 H 479.168"
             style="fill:none;stroke:#afafaf;stroke-width:4.16667;stroke-linecap:butt;stroke-linejoin:miter;stroke-miterlimit:10;stroke-dasharray:none;stroke-opacity:1"
             id="path2908" /><path
             d="M 500,2338.52 H 479.168"
             style="fill:none;stroke:#afafaf;stroke-width:4.16667;stroke-linecap:butt;stroke-linejoin:miter;stroke-miterlimit:10;stroke-dasharray:none;stroke-opacity:1"
             id="path2910" /><path
             d="M 500,2293.77 H 479.168"
             style="fill:none;stroke:#afafaf;stroke-width:4.16667;stroke-linecap:butt;stroke-linejoin:miter;stroke-miterlimit:10;stroke-dasharray:none;stroke-opacity:1"
             id="path2912" /><path
             d="M 500,2254.29 H 479.168"
             style="fill:none;stroke:#afafaf;stroke-width:4.16667;stroke-linecap:butt;stroke-linejoin:miter;stroke-miterlimit:10;stroke-dasharray:none;stroke-opacity:1"
             id="path2914" /><g
             id="g2916"
             transform="scale(4.16667)"><text
               transform="matrix(0,-1,-1,0,94.0003,553.628)"
               style="font-variant:normal;font-weight:normal;font-size:14px;font-family:Menlo;-inkscape-font-specification:Menlo-Regular;writing-mode:lr-tb;fill:#afafaf;fill-opacity:1;fill-rule:nonzero;stroke:none"
               id="text2920"><tspan
                 x="0 8.4280005 16.856001 25.283415 33.711414"
                 y="0"
                 id="tspan2918">100Hz</tspan></text></g><path
             d="M 500,2218.98 H 458.332"
             style="fill:none;stroke:#afafaf;stroke-width:4.16667;stroke-linecap:butt;stroke-linejoin:miter;stroke-miterlimit:10;stroke-dasharray:none;stroke-opacity:1"
             id="path2922" /><path
             d="M 500,1986.69 H 479.168"
             style="fill:none;stroke:#afafaf;stroke-width:4.16667;stroke-linecap:butt;stroke-linejoin:miter;stroke-miterlimit:10;stroke-dasharray:none;stroke-opacity:1"
             id="path2924" /><path
             d="M 500,1850.8 H 479.168"
             style="fill:none;stroke:#afafaf;stroke-width:4.16667;stroke-linecap:butt;stroke-linejoin:miter;stroke-miterlimit:10;stroke-dasharray:none;stroke-opacity:1"
             id="path2926" /><path
             d="M 500,1754.39 H 479.168"
             style="fill:none;stroke:#afafaf;stroke-width:4.16667;stroke-linecap:butt;stroke-linejoin:miter;stroke-miterlimit:10;stroke-dasharray:none;stroke-opacity:1"
             id="path2928" /><path
             d="M 500,1679.61 H 479.168"
             style="fill:none;stroke:#afafaf;stroke-width:4.16667;stroke-linecap:butt;stroke-linejoin:miter;stroke-miterlimit:10;stroke-dasharray:none;stroke-opacity:1"
             id="path2930" /><path
             d="M 500,1618.51 H 479.168"
             style="fill:none;stroke:#afafaf;stroke-width:4.16667;stroke-linecap:butt;stroke-linejoin:miter;stroke-miterlimit:10;stroke-dasharray:none;stroke-opacity:1"
             id="path2932" /><path
             d="M 500,1566.85 H 479.168"
             style="fill:none;stroke:#afafaf;stroke-width:4.16667;stroke-linecap:butt;stroke-linejoin:miter;stroke-miterlimit:10;stroke-dasharray:none;stroke-opacity:1"
             id="path2934" /><path
             d="M 500,1522.1 H 479.168"
             style="fill:none;stroke:#afafaf;stroke-width:4.16667;stroke-linecap:butt;stroke-linejoin:miter;stroke-miterlimit:10;stroke-dasharray:none;stroke-opacity:1"
             id="path2936" /><path
             d="M 500,1482.63 H 479.168"
             style="fill:none;stroke:#afafaf;stroke-width:4.16667;stroke-linecap:butt;stroke-linejoin:miter;stroke-miterlimit:10;stroke-dasharray:none;stroke-opacity:1"
             id="path2938" /><g
             id="g2940"
             transform="scale(4.16667)"><text
               transform="matrix(0,-1,-1,0,94.0003,364.213)"
               style="font-variant:normal;font-weight:normal;font-size:14px;font-family:Menlo;-inkscape-font-specification:Menlo-Regular;writing-mode:lr-tb;fill:#afafaf;fill-opacity:1;fill-rule:nonzero;stroke:none"
               id="text2944"><tspan
                 x="0 8.4274139 16.855413 25.283415"
                 y="0"
                 id="tspan2942">1KHz</tspan></text></g><path
             d="M 500,1447.32 H 458.332"
             style="fill:none;stroke:#afafaf;stroke-width:4.16667;stroke-linecap:butt;stroke-linejoin:miter;stroke-miterlimit:10;stroke-dasharray:none;stroke-opacity:1"
             id="path2946" /><path
             d="M 500,1215.02 H 479.168"
             style="fill:none;stroke:#afafaf;stroke-width:4.16667;stroke-linecap:butt;stroke-linejoin:miter;stroke-miterlimit:10;stroke-dasharray:none;stroke-opacity:1"
             id="path2948" /><path
             d="M 500,1079.14 H 479.168"
             style="fill:none;stroke:#afafaf;stroke-width:4.16667;stroke-linecap:butt;stroke-linejoin:miter;stroke-miterlimit:10;stroke-dasharray:none;stroke-opacity:1"
             id="path2950" /><path
             d="M 500,982.727 H 479.168"
             style="fill:none;stroke:#afafaf;stroke-width:4.16667;stroke-linecap:butt;stroke-linejoin:miter;stroke-miterlimit:10;stroke-dasharray:none;stroke-opacity:1"
             id="path2952" /><path
             d="M 500,907.945 H 479.168"
             style="fill:none;stroke:#afafaf;stroke-width:4.16667;stroke-linecap:butt;stroke-linejoin:miter;stroke-miterlimit:10;stroke-dasharray:none;stroke-opacity:1"
             id="path2954" /><path
             d="M 500,846.844 H 479.168"
             style="fill:none;stroke:#afafaf;stroke-width:4.16667;stroke-linecap:butt;stroke-linejoin:miter;stroke-miterlimit:10;stroke-dasharray:none;stroke-opacity:1"
             id="path2956" /><path
             d="M 500,795.184 H 479.168"
             style="fill:none;stroke:#afafaf;stroke-width:4.16667;stroke-linecap:butt;stroke-linejoin:miter;stroke-miterlimit:10;stroke-dasharray:none;stroke-opacity:1"
             id="path2958" /><path
             d="M 500,750.43 H 479.168"
             style="fill:none;stroke:#afafaf;stroke-width:4.16667;stroke-linecap:butt;stroke-linejoin:miter;stroke-miterlimit:10;stroke-dasharray:none;stroke-opacity:1"
             id="path2960" /><path
             d="M 500,710.957 H 479.168"
             style="fill:none;stroke:#afafaf;stroke-width:4.16667;stroke-linecap:butt;stroke-linejoin:miter;stroke-miterlimit:10;stroke-dasharray:none;stroke-opacity:1"
             id="path2962" /><g
             id="g2964"
             transform="scale(4.16667)"><text
               transform="matrix(0,-1,-1,0,94.0003,183.228)"
               style="font-variant:normal;font-weight:normal;font-size:14px;font-family:Menlo;-inkscape-font-specification:Menlo-Regular;writing-mode:lr-tb;fill:#afafaf;fill-opacity:1;fill-rule:nonzero;stroke:none"
               id="text2968"><tspan
                 x="0 8.4280005 16.855413 25.283415 33.711414"
                 y="0"
                 id="tspan2966">10KHz</tspan></text></g><path
             d="M 500,675.648 H 458.332"
             style="fill:none;stroke:#afafaf;stroke-width:4.16667;stroke-linecap:butt;stroke-linejoin:miter;stroke-miterlimit:10;stroke-dasharray:none;stroke-opacity:1"
             id="path2970" /><g
             id="g2972"
             transform="scale(4.16667)"><text
               transform="matrix(0,-1,-1,0,114,736.185)"
               style="font-variant:normal;font-weight:normal;font-size:14px;font-family:Menlo;-inkscape-font-specification:Menlo-Regular;writing-mode:lr-tb;fill:#afafaf;fill-opacity:1;fill-rule:nonzero;stroke:none"
               id="text2976"><tspan
                 x="0 -8.42906 -16.857189 -25.286249 -33.715309"
                 y="0"
                 id="tspan2974">Bd53-</tspan></text></g><path
             d="m 500,2990.65 v 41.67"
             style="fill:none;stroke:#afafaf;stroke-width:4.16667;stroke-linecap:butt;stroke-linejoin:miter;stroke-miterlimit:10;stroke-dasharray:none;stroke-opacity:1"
             id="path2978" /><g
             id="g2980"
             transform="scale(4.16667)"><text
               transform="matrix(0,-1,-1,0,147.182,736.185)"
               style="font-variant:normal;font-weight:normal;font-size:14px;font-family:Menlo;-inkscape-font-specification:Menlo-Regular;writing-mode:lr-tb;fill:#afafaf;fill-opacity:1;fill-rule:nonzero;stroke:none"
               id="text2984"><tspan
                 x="0 -8.42906 -16.857189 -25.286249 -33.715309"
                 y="0"
                 id="tspan2982">Bd03-</tspan></text></g><path
             d="m 638.258,2990.65 v 41.67"
             style="fill:none;stroke:#afafaf;stroke-width:4.16667;stroke-linecap:butt;stroke-linejoin:miter;stroke-miterlimit:10;stroke-dasharray:none;stroke-opacity:1"
             id="path2986" /><g
             id="g2988"
             transform="scale(4.16667)"><text
               transform="matrix(0,-1,-1,0,180.364,736.185)"
               style="font-variant:normal;font-weight:normal;font-size:14px;font-family:Menlo;-inkscape-font-specification:Menlo-Regular;writing-mode:lr-tb;fill:#afafaf;fill-opacity:1;fill-rule:nonzero;stroke:none"
               id="text2992"><tspan
                 x="0 -8.42906 -16.857189 -25.286249 -33.715309"
                 y="0"
                 id="tspan2990">Bd52-</tspan></text></g><path
             d="m 776.516,2990.65 v 41.67"
             style="fill:none;stroke:#afafaf;stroke-width:4.16667;stroke-linecap:butt;stroke-linejoin:miter;stroke-miterlimit:10;stroke-dasharray:none;stroke-opacity:1"
             id="path2994" /><g
             id="g2996"
             transform="scale(4.16667)"><text
               transform="matrix(0,-1,-1,0,213.546,736.185)"
               style="font-variant:normal;font-weight:normal;font-size:14px;font-family:Menlo;-inkscape-font-specification:Menlo-Regular;writing-mode:lr-tb;fill:#afafaf;fill-opacity:1;fill-rule:nonzero;stroke:none"
               id="text3000"><tspan
                 x="0 -8.42906 -16.857189 -25.286249 -33.715309"
                 y="0"
                 id="tspan2998">Bd02-</tspan></text></g><path
             d="m 914.773,2990.65 v 41.67"
             style="fill:none;stroke:#afafaf;stroke-width:4.16667;stroke-linecap:butt;stroke-linejoin:miter;stroke-miterlimit:10;stroke-dasharray:none;stroke-opacity:1"
             id="path3002" /><g
             id="g3004"
             transform="scale(4.16667)"><text
               transform="matrix(0,-1,-1,0,246.727,736.185)"
               style="font-variant:normal;font-weight:normal;font-size:14px;font-family:Menlo;-inkscape-font-specification:Menlo-Regular;writing-mode:lr-tb;fill:#afafaf;fill-opacity:1;fill-rule:nonzero;stroke:none"
               id="text3008"><tspan
                 x="0 -8.42906 -16.857189 -25.286249 -33.715309"
                 y="0"
                 id="tspan3006">Bd51-</tspan></text></g><path
             d="m 1053.03,2990.65 v 41.67"
             style="fill:none;stroke:#afafaf;stroke-width:4.16667;stroke-linecap:butt;stroke-linejoin:miter;stroke-miterlimit:10;stroke-dasharray:none;stroke-opacity:1"
             id="path3010" /><g
             id="g3012"
             transform="scale(4.16667)"><text
               transform="matrix(0,-1,-1,0,279.909,736.185)"
               style="font-variant:normal;font-weight:normal;font-size:14px;font-family:Menlo;-inkscape-font-specification:Menlo-Regular;writing-mode:lr-tb;fill:#afafaf;fill-opacity:1;fill-rule:nonzero;stroke:none"
               id="text3016"><tspan
                 x="0 -8.42906 -16.857189 -25.286249 -33.715309"
                 y="0"
                 id="tspan3014">Bd01-</tspan></text></g><path
             d="m 1191.29,2990.65 v 41.67"
             style="fill:none;stroke:#afafaf;stroke-width:4.16667;stroke-linecap:butt;stroke-linejoin:miter;stroke-miterlimit:10;stroke-dasharray:none;stroke-opacity:1"
             id="path3018" /><g
             id="g3020"
             transform="scale(4.16667)"><text
               transform="matrix(0,-1,-1,0,313.091,736.185)"
               style="font-variant:normal;font-weight:normal;font-size:14px;font-family:Menlo;-inkscape-font-specification:Menlo-Regular;writing-mode:lr-tb;fill:#afafaf;fill-opacity:1;fill-rule:nonzero;stroke:none"
               id="text3024"><tspan
                 x="0 -8.42906 -16.857189 -25.286249"
                 y="0"
                 id="tspan3022">Bd5-</tspan></text></g><path
             d="m 1329.55,2990.65 v 41.67"
             style="fill:none;stroke:#afafaf;stroke-width:4.16667;stroke-linecap:butt;stroke-linejoin:miter;stroke-miterlimit:10;stroke-dasharray:none;stroke-opacity:1"
             id="path3026" /><g
             id="g3028"
             transform="scale(4.16667)"><text
               transform="matrix(0,-1,-1,0,346.273,736.185)"
               style="font-variant:normal;font-weight:normal;font-size:14px;font-family:Menlo;-inkscape-font-specification:Menlo-Regular;writing-mode:lr-tb;fill:#afafaf;fill-opacity:1;fill-rule:nonzero;stroke:none"
               id="text3032"><tspan
                 x="0 -8.42906 -16.857189"
                 y="0"
                 id="tspan3030">Bd0</tspan></text></g><path
             d="m 1467.8,2990.65 v 41.67"
             style="fill:none;stroke:#afafaf;stroke-width:4.16667;stroke-linecap:butt;stroke-linejoin:miter;stroke-miterlimit:10;stroke-dasharray:none;stroke-opacity:1"
             id="path3034" /><g
             id="g3036"
             transform="scale(4.16667)"><text
               transform="matrix(0,-1,-1,0,379.454,736.185)"
               style="font-variant:normal;font-weight:normal;font-size:14px;font-family:Menlo;-inkscape-font-specification:Menlo-Regular;writing-mode:lr-tb;fill:#afafaf;fill-opacity:1;fill-rule:nonzero;stroke:none"
               id="text3040"><tspan
                 x="0 -8.42906 -16.857189"
                 y="0"
                 id="tspan3038">Bd5</tspan></text></g><path
             d="m 1606.06,2990.65 v 41.67"
             style="fill:none;stroke:#afafaf;stroke-width:4.16667;stroke-linecap:butt;stroke-linejoin:miter;stroke-miterlimit:10;stroke-dasharray:none;stroke-opacity:1"
             id="path3042" /><g
             id="g3044"
             transform="scale(4.16667)"><text
               transform="matrix(0,-1,-1,0,412.637,736.185)"
               style="font-variant:normal;font-weight:normal;font-size:14px;font-family:Menlo;-inkscape-font-specification:Menlo-Regular;writing-mode:lr-tb;fill:#afafaf;fill-opacity:1;fill-rule:nonzero;stroke:none"
               id="text3048"><tspan
                 x="0 -8.42906 -16.857189 -25.286249"
                 y="0"
                 id="tspan3046">Bd01</tspan></text></g><path
             d="m 1744.32,2990.65 v 41.67"
             style="fill:none;stroke:#afafaf;stroke-width:4.16667;stroke-linecap:butt;stroke-linejoin:miter;stroke-miterlimit:10;stroke-dasharray:none;stroke-opacity:1"
             id="path3050" /><g
             id="g3052"
             transform="scale(4.16667)"><text
               transform="matrix(0,-1,-1,0,445.818,736.185)"
               style="font-variant:normal;font-weight:normal;font-size:14px;font-family:Menlo;-inkscape-font-specification:Menlo-Regular;writing-mode:lr-tb;fill:#afafaf;fill-opacity:1;fill-rule:nonzero;stroke:none"
               id="text3056"><tspan
                 x="0 -8.42906 -16.857189 -25.286249"
                 y="0"
                 id="tspan3054">Bd51</tspan></text></g><path
             d="m 1882.57,2990.65 v 41.67"
             style="fill:none;stroke:#afafaf;stroke-width:4.16667;stroke-linecap:butt;stroke-linejoin:miter;stroke-miterlimit:10;stroke-dasharray:none;stroke-opacity:1"
             id="path3058" /><g
             id="g3060"
             transform="scale(4.16667)"><text
               transform="matrix(0,-1,-1,0,479,736.185)"
               style="font-variant:normal;font-weight:normal;font-size:14px;font-family:Menlo;-inkscape-font-specification:Menlo-Regular;writing-mode:lr-tb;fill:#afafaf;fill-opacity:1;fill-rule:nonzero;stroke:none"
               id="text3064"><tspan
                 x="0 -8.42906 -16.857189 -25.286249"
                 y="0"
                 id="tspan3062">Bd02</tspan></text></g><path
             d="m 2020.83,2990.65 v 41.67"
             style="fill:none;stroke:#afafaf;stroke-width:4.16667;stroke-linecap:butt;stroke-linejoin:miter;stroke-miterlimit:10;stroke-dasharray:none;stroke-opacity:1"
             id="path3066" /><path
             d="m 500,539.766 h 1520.83 v 2450.89 H 500 Z"
             style="fill:none;stroke:#afafaf;stroke-width:4.16667;stroke-linecap:butt;stroke-linejoin:miter;stroke-miterlimit:10;stroke-dasharray:none;stroke-opacity:1"
             id="path3068" /><g
             id="g3070"
             transform="scale(4.16667)"><text
               transform="matrix(0,-1,-1,0,489,453.257)"
               style="font-variant:normal;font-weight:normal;font-size:14px;font-family:Menlo;-inkscape-font-specification:Menlo-Regular;writing-mode:lr-tb;fill:#0eff00;fill-opacity:1;fill-rule:nonzero;stroke:none"
               id="text3074"><tspan
                 x="0 8.4280005 16.855413 25.283415 33.710827 42.138828 50.56683"
                 y="0"
                 id="tspan3072">V(vout)</tspan></text></g></g></g><g
         id="g3076"><g
           id="g3078"
           clip-path="url(#clipPath3082)"><path
             d="m 517.438,2990.65 v 0 l 1.984,-2.32 1.984,-2.32 1.981,-2.33 1.976,-2.32 1.973,-2.32 1.969,-2.33 1.965,-2.32 1.96,-2.32 1.961,-2.32 1.957,-2.33 1.95,-2.32 1.953,-2.32 1.945,-2.33 1.942,-2.32 1.941,-2.32 1.934,-2.33 1.933,-2.32 1.934,-2.32 1.925,-2.32 1.926,-2.33 1.922,-2.32 1.918,-2.32 1.914,-2.33 1.914,-2.32 1.91,-2.32 1.907,-2.33 1.902,-2.32 1.902,-2.32 1.899,-2.32 1.898,-2.33 1.891,-2.32 1.89,-2.32 1.887,-2.32 1.887,-2.33 1.883,-2.32 1.879,-2.32 1.879,-2.33 1.875,-2.32 1.871,-2.32 1.871,-2.33 1.867,-2.32 1.863,-2.32 1.863,-2.32 1.86,-2.33 1.859,-2.32 1.856,-2.32 1.851,-2.33 1.852,-2.32 1.847,-2.32 1.848,-2.33 1.844,-2.32 1.844,-2.32 1.839,-2.32 1.836,-2.33 1.836,-2.32 1.836,-2.32 1.828,-2.33 1.832,-2.32 1.829,-2.32 1.824,-2.33 1.824,-2.32 1.82,-2.32 1.821,-2.33 1.816,-2.32 1.816,-2.32 1.813,-2.32 1.812,-2.32 1.809,-2.33 1.809,-2.32 1.808,-2.32 1.805,-2.33 1.801,-2.32 1.8,-2.32 1.801,-2.33 1.797,-2.32 1.797,-2.32 1.793,-2.32 1.793,-2.33 1.793,-2.32 1.789,-2.32 1.789,-2.33 1.785,-2.32 1.785,-2.32 1.782,-2.33 1.781,-2.32 1.781,-2.32 1.781,-2.33 1.778,-2.32 1.773,-2.32 1.774,-2.32 1.773,-2.33 1.773,-2.32 1.77,-2.32 1.769,-2.33 1.77,-2.32 1.766,-2.32 1.765,-2.33 1.762,-2.32 1.762,-2.32 1.761,-2.32 1.762,-2.32 1.758,-2.33 1.758,-2.32 1.754,-2.32 1.757,-2.33 1.754,-2.32 1.75,-2.32 1.754,-2.33 1.75,-2.32 1.75,-2.32 1.746,-2.33 1.75,-2.32 1.746,-2.32 1.743,-2.32 1.746,-2.33 1.742,-2.32 1.742,-2.32 1.738,-2.33 1.743,-2.32 1.738,-2.32 1.738,-2.33 1.738,-2.32 1.735,-2.32 1.734,-2.32 1.735,-2.33 1.734,-2.32 1.73,-2.32 1.735,-2.33 1.73,-2.32 1.727,-2.32 1.73,-2.33 1.727,-2.32 1.726,-2.32 1.727,-2.32 1.727,-2.33 1.726,-2.32 1.723,-2.32 1.722,-2.32 1.723,-2.33 1.723,-2.32 1.718,-2.32 1.719,-2.33 1.723,-2.32 1.719,-2.32 1.714,-2.33 1.719,-2.32 1.715,-2.32 1.719,-2.32 1.715,-2.33 1.711,-2.32 1.714,-2.32 1.715,-2.33 1.711,-2.32 1.711,-2.32 1.711,-2.33 1.711,-2.32 1.711,-2.32 1.711,-2.32 1.707,-2.33 1.707,-2.32 1.707,-2.32 1.707,-2.33 1.707,-2.32 1.707,-2.32 1.703,-2.33 1.707,-2.32 1.703,-2.32 1.704,-2.33 1.703,-2.32 1.703,-2.32 1.703,-2.32 1.699,-2.32 1.703,-2.33 1.699,-2.32 1.7,-2.32 1.703,-2.33 1.699,-2.32 1.695,-2.32 1.7,-2.33 1.699,-2.32 1.695,-2.32 1.699,-2.32 1.696,-2.33 1.695,-2.32 1.695,-2.32 1.696,-2.33 1.695,-2.32 1.695,-2.32 1.692,-2.33 1.695,-2.32 1.691,-2.32 1.696,-2.33 1.691,-2.32 1.691,-2.32 1.692,-2.32 1.691,-2.33 1.692,-2.32 1.691,-2.32 1.688,-2.33 1.691,-2.32 1.687,-2.32 1.692,-2.33 1.687,-2.32 1.688,-2.32 1.687,-2.32 1.688,-2.32 1.687,-2.33 1.688,-2.32 1.687,-2.32 1.688,-2.33 1.687,-2.32 1.684,-2.32 1.687,-2.33 1.684,-2.32 1.684,-2.32 1.687,-2.33 1.684,-2.32 1.683,-2.32 1.684,-2.32 1.684,-2.33 1.683,-2.32 1.684,-2.32 1.683,-2.33 1.68,-2.32 1.684,-2.32 1.683,-2.33 1.68,-2.32 1.683,-2.32 1.68,-2.32 1.68,-2.32 1.683,-2.33 1.68,-2.32 1.68,-2.32 1.679,-2.33 1.68,-2.32 1.68,-2.32 1.68,-2.33 1.679,-2.32 1.68,-2.32 1.68,-2.33 1.675,-2.32 1.68,-2.32 1.68,-2.32 1.676,-2.33 1.679,-2.32 1.676,-2.32 1.68,-2.33 1.675,-2.32 1.68,-2.32 1.676,-2.33 1.676,-2.32 1.676,-2.32 1.675,-2.32 1.676,-2.33 1.68,-2.32 1.676,-2.32 1.671,-2.33 1.676,-2.32 1.676,-2.32 1.676,-2.33 1.676,-2.32 1.675,-2.32 1.672,-2.33 1.676,-2.32 1.676,-2.32 1.672,-2.32 1.675,-2.32 1.672,-2.33 1.676,-2.32 1.672,-2.32 1.676,-2.33 1.672,-2.32 1.671,-2.32 1.676,-2.33 1.669,-2.32 1.68,-2.32 1.67,-2.32 1.67,-2.33 1.67,-2.32 1.68,-2.32 1.67,-2.33 1.67,-2.32 1.67,-2.32 1.67,-2.33 1.68,-2.32 1.67,-2.32 1.67,-2.33 1.67,-2.32 1.67,-2.32 1.67,-2.32 1.67,-2.33 1.67,-2.32 1.67,-2.32 1.67,-2.33 1.67,-2.32 1.67,-2.32 1.68,-2.33 1.66,-2.32 1.68,-2.32 1.66,-2.32 1.68,-2.32 1.66,-2.33 1.68,-2.32 1.66,-2.32 1.67,-2.33 1.67,-2.32 1.67,-2.32 1.67,-2.33 1.67,-2.32 1.67,-2.32 1.67,-2.33 1.67,-2.32 1.66,-2.32 1.67,-2.32 1.67,-2.33 1.67,-2.32 1.67,-2.32 1.67,-2.33 1.67,-2.32 1.66,-2.32 1.67,-2.33 1.67,-2.32 1.66,-2.32 1.67,-2.32 1.67,-2.33 1.67,-2.32 1.67,-2.32 1.66,-2.33 1.67,-2.32 1.67,-2.32 1.66,-2.33 1.67,-2.32 1.67,-2.32 1.66,-2.32 1.67,-2.33 1.67,-2.32 1.66,-2.32 1.67,-2.32 1.67,-2.33 1.66,-2.32 1.67,-2.32 1.67,-2.33 1.66,-2.32 1.67,-2.32 1.66,-2.33 1.67,-2.32 1.66,-2.32 1.67,-2.32 1.67,-2.33 1.66,-2.32 1.67,-2.32 1.66,-2.33 1.67,-2.32 1.66,-2.32 1.67,-2.33 1.66,-2.32 1.67,-2.32 1.66,-2.32 1.66,-2.33 1.67,-2.32 1.67,-2.32 1.66,-2.33 1.66,-2.32 1.67,-2.32 1.66,-2.33 1.67,-2.32 1.66,-2.32 1.66,-2.33 1.67,-2.32 1.66,-2.32 1.67,-2.32 1.66,-2.32 1.66,-2.33 1.66,-2.32 1.67,-2.32 1.66,-2.33 1.67,-2.32 1.66,-2.32 1.66,-2.33 1.67,-2.32 1.66,-2.32 1.66,-2.32 1.66,-2.33 1.67,-2.32 1.66,-2.32 1.66,-2.33 1.66,-2.32 1.67,-2.32 1.66,-2.33 1.66,-2.32 1.66,-2.32 1.66,-2.33 1.66,-2.32 1.67,-2.32 1.66,-2.32 1.66,-2.33 1.66,-2.32 1.66,-2.32 1.67,-2.33 1.66,-2.32 1.66,-2.32 1.66,-2.33 1.66,-2.32 1.66,-2.32 1.66,-2.32 1.66,-2.32 1.66,-2.33 1.66,-2.32 1.66,-2.32 1.66,-2.33 1.66,-2.32 1.66,-2.32 1.66,-2.33 1.66,-2.32 1.66,-2.32 1.66,-2.33 1.66,-2.32 1.66,-2.32 1.66,-2.32 1.66,-2.33 1.66,-2.32 1.66,-2.32 1.66,-2.33 1.66,-2.32 1.65,-2.32 1.66,-2.33 1.66,-2.32 1.66,-2.32 1.66,-2.32 1.66,-2.33 1.65,-2.32 1.66,-2.32 1.66,-2.33 1.66,-2.32 1.66,-2.32 1.65,-2.33 1.66,-2.32 1.65,-2.32 1.66,-2.32 1.66,-2.33 1.66,-2.32 1.65,-2.32 1.66,-2.32 1.66,-2.33 1.65,-2.32 1.66,-2.32 1.65,-2.33 1.66,-2.32 1.65,-2.32 1.66,-2.33 1.66,-2.32 1.65,-2.32 1.65,-2.32 1.66,-2.33 1.65,-2.32 1.66,-2.32 1.65,-2.33 1.66,-2.32 1.65,-2.32 1.65,-2.33 1.66,-2.32 1.65,-2.32 1.65,-2.32 1.66,-2.33 1.65,-2.32 1.65,-2.32 1.65,-2.33 1.65,-2.32 1.66,-2.32 1.65,-2.33 1.65,-2.32 1.65,-2.32 1.65,-2.33 1.66,-2.32 1.65,-2.32 1.65,-2.32 1.65,-2.32 1.65,-2.33 1.65,-2.32 1.65,-2.32 1.65,-2.33 1.65,-2.32 1.65,-2.32 1.65,-2.33 1.64,-2.32 1.65,-2.32 1.65,-2.32 1.65,-2.33 1.64,-2.32 1.65,-2.32 1.65,-2.33 1.64,-2.32 1.65,-2.32 1.65,-2.33 1.65,-2.32 1.64,-2.32 1.65,-2.33 1.64,-2.32 1.65,-2.32 1.64,-2.32 1.65,-2.32 1.64,-2.33 1.65,-2.32 1.64,-2.32 1.64,-2.33 1.65,-2.32 1.64,-2.33 1.64,-2.32 1.64,-2.32 1.64,-2.32"
             style="fill:none;stroke:#0eff00;stroke-width:4.16667;stroke-linecap:butt;stroke-linejoin:miter;stroke-miterlimit:1;stroke-dasharray:none;stroke-opacity:1"
             id="path3084" /><path
             d="m 1390.9,1805.95 v 0 l 1.64,-2.32 1.64,-2.33 1.64,-2.32 1.64,-2.32 1.65,-2.33 1.64,-2.32 1.64,-2.32 1.63,-2.33 1.64,-2.32 1.64,-2.32 1.64,-2.33 1.64,-2.32 1.63,-2.32 1.64,-2.32 1.63,-2.33 1.64,-2.32 1.64,-2.32 1.63,-2.33 1.64,-2.32 1.63,-2.32 1.64,-2.33 1.63,-2.32 1.63,-2.32 1.64,-2.32 1.63,-2.32 1.63,-2.33 1.63,-2.32 1.63,-2.32 1.63,-2.33 1.63,-2.32 1.63,-2.32 1.63,-2.33 1.63,-2.32 1.62,-2.33 1.63,-2.32 1.63,-2.32 1.63,-2.32 1.62,-2.32 1.63,-2.33 1.62,-2.32 1.62,-2.32 1.63,-2.33 1.62,-2.32 1.62,-2.32 1.62,-2.33 1.62,-2.32 1.63,-2.32 1.62,-2.32 1.61,-2.33 1.62,-2.32 1.62,-2.32 1.62,-2.33 1.62,-2.32 1.61,-2.32 1.62,-2.33 1.61,-2.32 1.62,-2.32 1.61,-2.33 1.61,-2.32 1.61,-2.32 1.62,-2.32 1.61,-2.32 1.61,-2.33 1.6,-2.32 1.61,-2.32 1.61,-2.33 1.61,-2.32 1.6,-2.33 1.61,-2.32 1.61,-2.32 1.6,-2.32 1.6,-2.32 1.6,-2.33 1.6,-2.32 1.6,-2.32 1.6,-2.33 1.6,-2.32 1.6,-2.32 1.59,-2.33 1.6,-2.32 1.6,-2.32 1.59,-2.33 1.59,-2.32 1.6,-2.32 1.59,-2.32 1.59,-2.33 1.59,-2.32 1.58,-2.32 1.59,-2.33 1.59,-2.32 1.58,-2.32 1.59,-2.33 1.58,-2.32 1.58,-2.32 1.58,-2.32 1.58,-2.32 1.58,-2.33 1.58,-2.32 1.57,-2.32 1.57,-2.33 1.58,-2.32 1.57,-2.32 1.57,-2.33 1.57,-2.32 1.57,-2.32 1.57,-2.33 1.57,-2.32 1.56,-2.32 1.57,-2.32 1.56,-2.33 1.56,-2.32 1.56,-2.32 1.55,-2.33 1.56,-2.32 1.56,-2.32 1.55,-2.33 1.55,-2.32 1.55,-2.32 1.55,-2.32 1.55,-2.33 1.55,-2.32 1.54,-2.32 1.55,-2.33 1.54,-2.32 1.54,-2.32 1.54,-2.33 1.53,-2.32 1.54,-2.32 1.53,-2.32 1.54,-2.33 1.53,-2.32 1.53,-2.32 1.52,-2.32 1.53,-2.33 1.52,-2.32 1.52,-2.32 1.52,-2.33 1.52,-2.32 1.52,-2.32 1.51,-2.33 1.51,-2.32 1.52,-2.32 1.5,-2.32 1.51,-2.33 1.5,-2.32 1.51,-2.32 1.5,-2.33 1.5,-2.32 1.49,-2.32 1.49,-2.33 1.5,-2.32 1.48,-2.32 1.49,-2.32 1.49,-2.33 1.48,-2.32 1.48,-2.32 1.48,-2.33 1.48,-2.32 1.47,-2.32 1.47,-2.33 1.47,-2.32 1.47,-2.32 1.46,-2.33 1.46,-2.32 1.46,-2.32 1.46,-2.32 1.45,-2.32 1.46,-2.33 1.45,-2.32 1.44,-2.32 1.45,-2.33 1.44,-2.32 1.44,-2.32 1.43,-2.33 1.44,-2.32 1.43,-2.32 1.42,-2.32 1.43,-2.33 1.42,-2.32 1.42,-2.32 1.42,-2.33 1.41,-2.32 1.41,-2.32 1.41,-2.33 1.4,-2.32 1.4,-2.32 1.4,-2.33 1.39,-2.32 1.4,-2.32 1.39,-2.32 1.38,-2.33 1.38,-2.32 1.38,-2.32 1.38,-2.33 1.37,-2.32 1.37,-2.32 1.36,-2.33 1.36,-2.32 1.36,-2.32 1.35,-2.32 1.36,-2.32 1.35,-2.33 1.34,-2.32 1.34,-2.32 1.34,-2.33 1.33,-2.32 1.33,-2.32 1.33,-2.33 1.32,-2.32 1.32,-2.32 1.31,-2.33 1.32,-2.32 1.3,-2.32 1.3,-2.32 1.3,-2.33 1.3,-2.32 1.29,-2.32 1.29,-2.33 1.28,-2.32 1.28,-2.32 1.27,-2.33 1.28,-2.32 1.26,-2.32 1.26,-2.32 1.26,-2.33 1.26,-2.32 1.25,-2.32 1.24,-2.33 1.24,-2.32 1.24,-2.32 1.23,-2.33 1.22,-2.32 1.23,-2.32 1.22,-2.32 1.21,-2.33 1.21,-2.32 1.21,-2.32 1.19,-2.32 1.2,-2.33 1.19,-2.32 1.19,-2.32 1.18,-2.33 1.17,-2.32 1.18,-2.32 1.16,-2.33 1.17,-2.32 1.15,-2.32 1.16,-2.32 1.14,-2.33 1.15,-2.32 1.13,-2.32 1.14,-2.33 1.12,-2.32 1.13,-2.32 1.11,-2.33 1.12,-2.32 1.1,-2.32 1.1,-2.32 1.1,-2.33 1.09,-2.32 1.09,-2.32 1.08,-2.33 1.08,-2.32 1.07,-2.32 1.06,-2.33 1.06,-2.32 1.05,-2.32 1.05,-2.33 1.05,-2.32 1.04,-2.32 1.03,-2.32 1.02,-2.32 1.03,-2.33 1.01,-2.32 1.01,-2.32 1.01,-2.33 1,-2.32 0.99,-2.32 0.99,-2.33 0.99,-2.32 0.97,-2.32 0.98,-2.32 0.97,-2.33 0.96,-2.32 0.95,-2.32 0.95,-2.33 0.94,-2.32 0.94,-2.32 0.93,-2.33 0.93,-2.32 0.92,-2.32 0.92,-2.33 0.91,-2.32 0.9,-2.32 0.9,-2.32 0.89,-2.32 0.89,-2.33 0.88,-2.32 0.88,-2.33 0.86,-2.32 0.87,-2.32 0.86,-2.33 0.85,-2.32 0.85,-2.32 0.84,-2.32 0.83,-2.32 0.83,-2.33 0.82,-2.32 0.82,-2.32 0.81,-2.33 0.81,-2.32 0.8,-2.32 0.79,-2.33 0.79,-2.32 0.79,-2.32 0.77,-2.33 0.78,-2.32 0.76,-2.32 0.76,-2.32 0.75,-2.33 0.75,-2.32 0.75,-2.32 0.73,-2.33 0.73,-2.32 0.73,-2.32 0.72,-2.33 0.71,-2.32 0.72,-2.32 0.7,-2.32 0.7,-2.32 0.69,-2.33 0.68,-2.32 0.69,-2.33 0.67,-2.32 0.67,-2.32 0.66,-2.33 0.66,-2.32 0.66,-2.32 0.65,-2.33 0.64,-2.32 0.63,-2.32 0.64,-2.32 0.62,-2.32 0.62,-2.33 0.61,-2.32 0.61,-2.32 0.61,-2.327 0.6,-2.324 0.59,-2.321 0.59,-2.324 0.58,-2.324 0.58,-2.32 0.58,-2.325 0.56,-2.324 0.56,-2.32 0.56,-2.324 0.55,-2.325 0.55,-2.32 0.54,-2.324 0.54,-2.324 0.53,-2.321 0.53,-2.324 0.52,-2.324 0.52,-2.32 0.51,-2.325 0.51,-2.324 0.5,-2.32 0.5,-2.324 0.49,-2.325 0.49,-2.324 0.48,-2.32 0.48,-2.324 0.47,-2.325 0.47,-2.32 0.46,-2.324 0.46,-2.324 0.46,-2.321 0.45,-2.324 0.45,-2.324 0.43,-2.32 0.44,-2.325 0.43,-2.324 0.43,-2.32 0.43,-2.324 0.41,-2.325 0.42,-2.32 0.41,-2.324 0.41,-2.324 0.4,-2.321 0.4,-2.324 0.39,-2.324 0.39,-2.32 0.39,-2.325 0.38,-2.324 0.37,-2.32 0.38,-2.324 0.37,-2.325 0.36,-2.32 0.36,-2.324 0.36,-2.324 0.35,-2.321 0.35,-2.324 0.35,-2.324 0.34,-2.32 0.34,-2.325 0.34,-2.324 0.32,-2.324 0.33,-2.32 0.33,-2.325 0.32,-2.324 0.31,-2.32 0.32,-2.324 0.3,-2.325 0.31,-2.32 0.3,-2.324 0.3,-2.324 0.3,-2.321 0.29,-2.324 0.29,-2.324 0.28,-2.32 0.29,-2.325 0.28,-2.324 0.27,-2.32 0.27,-2.324 0.27,-2.325 0.27,-2.32 0.26,-2.324 0.27,-2.324 0.25,-2.321 0.26,-2.324 0.25,-2.324 0.25,-2.32 0.24,-2.325 0.25,-2.324 0.23,-2.32 0.24,-2.324 0.24,-2.325 0.23,-2.32 0.23,-2.324 0.22,-2.324 0.22,-2.321 0.23,-2.324 0.21,-2.324 0.22,-2.32 0.21,-2.325 0.21,-2.324 0.21,-2.324 0.21,-2.32 0.2,-2.325 0.2,-2.324 0.19,-2.32 0.2,-2.324 0.19,-2.325 0.19,-2.32 0.19,-2.324 0.19,-2.324 0.18,-2.321 0.18,-2.324 0.18,-2.324 0.18,-2.32 0.17,-2.325 0.18,-2.324 0.17,-2.32 0.17,-2.324 0.16,-2.325 0.17,-2.32 0.16,-2.324 0.16,-2.324 0.16,-2.321 0.15,-2.324 0.16,-2.324 0.15,-2.32 0.15,-2.325 0.15,-2.324 0.14,-2.32 0.15,-2.324 0.14,-2.325 0.14,-2.324 0.15,-2.32 0.13,-2.324 0.14,-2.321 0.13,-2.324 0.13,-2.324 0.14,-2.324 0.13,-2.321 0.12,-2.324 0.13,-2.324 0.12,-2.32 0.13,-2.325 0.12,-2.324 0.12,-2.32 0.12,-2.324 0.11,-2.325 0.12,-2.32 0.11,-2.324 0.11,-2.324 0.11,-2.321 0.11,-2.324 0.11,-2.324 0.11,-2.32 0.1,-2.325 0.11,-2.324 0.1,-2.32 0.1,-2.324 0.1,-2.325 0.1,-2.32 0.09,-2.324 0.1,-2.324 0.09,-2.321 0.1,-2.324"
             style="fill:none;stroke:#0eff00;stroke-width:4.16667;stroke-linecap:butt;stroke-linejoin:miter;stroke-miterlimit:1;stroke-dasharray:none;stroke-opacity:1"
             id="path3086" /><path
             d="m 1895.08,621.242 v 0 l 0.09,-2.324 0.09,-2.32 0.09,-2.325 0.09,-2.324 0.09,-2.32 0.08,-2.324 0.09,-2.325 0.09,-2.32 0.08,-2.324 0.08,-2.324 0.08,-2.321 0.08,-2.324 0.08,-2.324 0.08,-2.324 0.07,-2.321 0.08,-2.324 0.07,-2.324 0.08,-2.32 0.07,-2.325 0.07,-2.324 0.07,-2.32 0.07,-2.324 0.07,-2.324 0.07,-2.321 0.06,-2.324 0.07,-2.324 0.07,-2.321 0.06,-2.324 0.07,-2.324 0.06,-2.32 0.06,-2.325 0.06,-2.324 0.06,-2.32 0.06,-2.324 0.06,-2.324"
             style="fill:none;stroke:#0eff00;stroke-width:4.16667;stroke-linecap:butt;stroke-linejoin:miter;stroke-miterlimit:1;stroke-dasharray:none;stroke-opacity:1"
             id="path3088" /><path
             d="m 502.527,1026.79 1332.693,1"
             style="fill:none;stroke:#afafaf;stroke-width:4.16667;stroke-linecap:butt;stroke-linejoin:miter;stroke-miterlimit:10;stroke-dasharray:12.5, 12.5;stroke-opacity:1"
             id="path3090" /><path
             d="m 1835.22,1027.79 -1.9,1957.17"
             style="fill:none;stroke:#afafaf;stroke-width:4.16667;stroke-linecap:butt;stroke-linejoin:miter;stroke-miterlimit:10;stroke-dasharray:12.5, 12.5;stroke-opacity:1"
             id="path3092" /></g></g></g></g></svg>
