<?xml version="1.0" encoding="UTF-8" standalone="no"?>
<svg
   xmlns:dc="http://purl.org/dc/elements/1.1/"
   xmlns:cc="http://creativecommons.org/ns#"
   xmlns:rdf="http://www.w3.org/1999/02/22-rdf-syntax-ns#"
   xmlns:svg="http://www.w3.org/2000/svg"
   xmlns="http://www.w3.org/2000/svg"
   version="1.1"
   id="svg318"
   xml:space="preserve"
   width="569.03094"
   height="361.33768"
   viewBox="0 0 853.5464 542.00654"><metadata
     id="metadata324"><rdf:RDF><cc:Work
         rdf:about=""><dc:format>image/svg+xml</dc:format><dc:type
           rdf:resource="http://purl.org/dc/dcmitype/StillImage" /><dc:title></dc:title></cc:Work></rdf:RDF></metadata><defs
     id="defs322"><clipPath
       clipPathUnits="userSpaceOnUse"
       id="clipPath336"><path
         d="m 375,299.582 h 1729.17 v 2908.34 H 375 Z"
         id="path334" /></clipPath><clipPath
       clipPathUnits="userSpaceOnUse"
       id="clipPath562"><path
         d="m 500,537.082 h 1520.83 v 2454.17 H 500 Z"
         id="path560" /></clipPath></defs><g
     id="g326"
     transform="matrix(0,-1.3333333,-1.3333333,0,1025.6049,667.07604)"><g
       id="g328"
       transform="scale(0.24)"><g
         id="g330"><g
           id="g332"
           clip-path="url(#clipPath336)"><path
             d="M 500,2990.65 H 479.168"
             style="fill:none;stroke:#afafaf;stroke-width:4.16667;stroke-linecap:butt;stroke-linejoin:miter;stroke-miterlimit:10;stroke-dasharray:none;stroke-opacity:1"
             id="path338" /><path
             d="M 500,2882.76 H 479.168"
             style="fill:none;stroke:#afafaf;stroke-width:4.16667;stroke-linecap:butt;stroke-linejoin:miter;stroke-miterlimit:10;stroke-dasharray:none;stroke-opacity:1"
             id="path340" /><path
             d="M 500,2806.2 H 479.168"
             style="fill:none;stroke:#afafaf;stroke-width:4.16667;stroke-linecap:butt;stroke-linejoin:miter;stroke-miterlimit:10;stroke-dasharray:none;stroke-opacity:1"
             id="path342" /><path
             d="M 500,2746.82 H 479.168"
             style="fill:none;stroke:#afafaf;stroke-width:4.16667;stroke-linecap:butt;stroke-linejoin:miter;stroke-miterlimit:10;stroke-dasharray:none;stroke-opacity:1"
             id="path344" /><path
             d="M 500,2698.31 H 479.168"
             style="fill:none;stroke:#afafaf;stroke-width:4.16667;stroke-linecap:butt;stroke-linejoin:miter;stroke-miterlimit:10;stroke-dasharray:none;stroke-opacity:1"
             id="path346" /><path
             d="M 500,2657.29 H 479.168"
             style="fill:none;stroke:#afafaf;stroke-width:4.16667;stroke-linecap:butt;stroke-linejoin:miter;stroke-miterlimit:10;stroke-dasharray:none;stroke-opacity:1"
             id="path348" /><path
             d="M 500,2621.76 H 479.168"
             style="fill:none;stroke:#afafaf;stroke-width:4.16667;stroke-linecap:butt;stroke-linejoin:miter;stroke-miterlimit:10;stroke-dasharray:none;stroke-opacity:1"
             id="path350" /><path
             d="M 500,2590.41 H 479.168"
             style="fill:none;stroke:#afafaf;stroke-width:4.16667;stroke-linecap:butt;stroke-linejoin:miter;stroke-miterlimit:10;stroke-dasharray:none;stroke-opacity:1"
             id="path352" /><g
             id="g354"
             transform="scale(4.16667)"><text
               transform="matrix(0,-1,-1,0,94.0003,631.828)"
               style="font-variant:normal;font-weight:normal;font-size:14px;font-family:Menlo;-inkscape-font-specification:Menlo-Regular;writing-mode:lr-tb;fill:#afafaf;fill-opacity:1;fill-rule:nonzero;stroke:none"
               id="text358"><tspan
                 x="0 8.4280005 16.855413 25.283415"
                 y="0"
                 id="tspan356">10Hz</tspan></text></g><path
             d="M 500,2562.38 H 458.332"
             style="fill:none;stroke:#afafaf;stroke-width:4.16667;stroke-linecap:butt;stroke-linejoin:miter;stroke-miterlimit:10;stroke-dasharray:none;stroke-opacity:1"
             id="path360" /><path
             d="M 500,2377.93 H 479.168"
             style="fill:none;stroke:#afafaf;stroke-width:4.16667;stroke-linecap:butt;stroke-linejoin:miter;stroke-miterlimit:10;stroke-dasharray:none;stroke-opacity:1"
             id="path362" /><path
             d="M 500,2270.04 H 479.168"
             style="fill:none;stroke:#afafaf;stroke-width:4.16667;stroke-linecap:butt;stroke-linejoin:miter;stroke-miterlimit:10;stroke-dasharray:none;stroke-opacity:1"
             id="path364" /><path
             d="M 500,2193.48 H 479.168"
             style="fill:none;stroke:#afafaf;stroke-width:4.16667;stroke-linecap:butt;stroke-linejoin:miter;stroke-miterlimit:10;stroke-dasharray:none;stroke-opacity:1"
             id="path366" /><path
             d="M 500,2134.11 H 479.168"
             style="fill:none;stroke:#afafaf;stroke-width:4.16667;stroke-linecap:butt;stroke-linejoin:miter;stroke-miterlimit:10;stroke-dasharray:none;stroke-opacity:1"
             id="path368" /><path
             d="M 500,2085.59 H 479.168"
             style="fill:none;stroke:#afafaf;stroke-width:4.16667;stroke-linecap:butt;stroke-linejoin:miter;stroke-miterlimit:10;stroke-dasharray:none;stroke-opacity:1"
             id="path370" /><path
             d="M 500,2044.57 H 479.168"
             style="fill:none;stroke:#afafaf;stroke-width:4.16667;stroke-linecap:butt;stroke-linejoin:miter;stroke-miterlimit:10;stroke-dasharray:none;stroke-opacity:1"
             id="path372" /><path
             d="M 500,2009.04 H 479.168"
             style="fill:none;stroke:#afafaf;stroke-width:4.16667;stroke-linecap:butt;stroke-linejoin:miter;stroke-miterlimit:10;stroke-dasharray:none;stroke-opacity:1"
             id="path374" /><path
             d="M 500,1977.69 H 479.168"
             style="fill:none;stroke:#afafaf;stroke-width:4.16667;stroke-linecap:butt;stroke-linejoin:miter;stroke-miterlimit:10;stroke-dasharray:none;stroke-opacity:1"
             id="path376" /><g
             id="g378"
             transform="scale(4.16667)"><text
               transform="matrix(0,-1,-1,0,94.0003,488.99)"
               style="font-variant:normal;font-weight:normal;font-size:14px;font-family:Menlo;-inkscape-font-specification:Menlo-Regular;writing-mode:lr-tb;fill:#afafaf;fill-opacity:1;fill-rule:nonzero;stroke:none"
               id="text382"><tspan
                 x="0 8.4280005 16.856001 25.283415 33.711414"
                 y="0"
                 id="tspan380">100Hz</tspan></text></g><path
             d="M 500,1949.66 H 458.332"
             style="fill:none;stroke:#afafaf;stroke-width:4.16667;stroke-linecap:butt;stroke-linejoin:miter;stroke-miterlimit:10;stroke-dasharray:none;stroke-opacity:1"
             id="path384" /><path
             d="M 500,1765.21 H 479.168"
             style="fill:none;stroke:#afafaf;stroke-width:4.16667;stroke-linecap:butt;stroke-linejoin:miter;stroke-miterlimit:10;stroke-dasharray:none;stroke-opacity:1"
             id="path386" /><path
             d="M 500,1657.31 H 479.168"
             style="fill:none;stroke:#afafaf;stroke-width:4.16667;stroke-linecap:butt;stroke-linejoin:miter;stroke-miterlimit:10;stroke-dasharray:none;stroke-opacity:1"
             id="path388" /><path
             d="M 500,1580.76 H 479.168"
             style="fill:none;stroke:#afafaf;stroke-width:4.16667;stroke-linecap:butt;stroke-linejoin:miter;stroke-miterlimit:10;stroke-dasharray:none;stroke-opacity:1"
             id="path390" /><path
             d="M 500,1521.38 H 479.168"
             style="fill:none;stroke:#afafaf;stroke-width:4.16667;stroke-linecap:butt;stroke-linejoin:miter;stroke-miterlimit:10;stroke-dasharray:none;stroke-opacity:1"
             id="path392" /><path
             d="M 500,1472.87 H 479.168"
             style="fill:none;stroke:#afafaf;stroke-width:4.16667;stroke-linecap:butt;stroke-linejoin:miter;stroke-miterlimit:10;stroke-dasharray:none;stroke-opacity:1"
             id="path394" /><path
             d="M 500,1431.85 H 479.168"
             style="fill:none;stroke:#afafaf;stroke-width:4.16667;stroke-linecap:butt;stroke-linejoin:miter;stroke-miterlimit:10;stroke-dasharray:none;stroke-opacity:1"
             id="path396" /><path
             d="M 500,1396.31 H 479.168"
             style="fill:none;stroke:#afafaf;stroke-width:4.16667;stroke-linecap:butt;stroke-linejoin:miter;stroke-miterlimit:10;stroke-dasharray:none;stroke-opacity:1"
             id="path398" /><path
             d="M 500,1364.97 H 479.168"
             style="fill:none;stroke:#afafaf;stroke-width:4.16667;stroke-linecap:butt;stroke-linejoin:miter;stroke-miterlimit:10;stroke-dasharray:none;stroke-opacity:1"
             id="path400" /><g
             id="g402"
             transform="scale(4.16667)"><text
               transform="matrix(0,-1,-1,0,94.0003,337.721)"
               style="font-variant:normal;font-weight:normal;font-size:14px;font-family:Menlo;-inkscape-font-specification:Menlo-Regular;writing-mode:lr-tb;fill:#afafaf;fill-opacity:1;fill-rule:nonzero;stroke:none"
               id="text406"><tspan
                 x="0 8.4274139 16.855413 25.282827"
                 y="0"
                 id="tspan404">1KHz</tspan></text></g><path
             d="M 500,1336.93 H 458.332"
             style="fill:none;stroke:#afafaf;stroke-width:4.16667;stroke-linecap:butt;stroke-linejoin:miter;stroke-miterlimit:10;stroke-dasharray:none;stroke-opacity:1"
             id="path408" /><path
             d="M 500,1152.49 H 479.168"
             style="fill:none;stroke:#afafaf;stroke-width:4.16667;stroke-linecap:butt;stroke-linejoin:miter;stroke-miterlimit:10;stroke-dasharray:none;stroke-opacity:1"
             id="path410" /><path
             d="M 500,1044.59 H 479.168"
             style="fill:none;stroke:#afafaf;stroke-width:4.16667;stroke-linecap:butt;stroke-linejoin:miter;stroke-miterlimit:10;stroke-dasharray:none;stroke-opacity:1"
             id="path412" /><path
             d="M 500,968.039 H 479.168"
             style="fill:none;stroke:#afafaf;stroke-width:4.16667;stroke-linecap:butt;stroke-linejoin:miter;stroke-miterlimit:10;stroke-dasharray:none;stroke-opacity:1"
             id="path414" /><path
             d="M 500,908.66 H 479.168"
             style="fill:none;stroke:#afafaf;stroke-width:4.16667;stroke-linecap:butt;stroke-linejoin:miter;stroke-miterlimit:10;stroke-dasharray:none;stroke-opacity:1"
             id="path416" /><path
             d="M 500,860.145 H 479.168"
             style="fill:none;stroke:#afafaf;stroke-width:4.16667;stroke-linecap:butt;stroke-linejoin:miter;stroke-miterlimit:10;stroke-dasharray:none;stroke-opacity:1"
             id="path418" /><path
             d="M 500,819.125 H 479.168"
             style="fill:none;stroke:#afafaf;stroke-width:4.16667;stroke-linecap:butt;stroke-linejoin:miter;stroke-miterlimit:10;stroke-dasharray:none;stroke-opacity:1"
             id="path420" /><path
             d="M 500,783.59 H 479.168"
             style="fill:none;stroke:#afafaf;stroke-width:4.16667;stroke-linecap:butt;stroke-linejoin:miter;stroke-miterlimit:10;stroke-dasharray:none;stroke-opacity:1"
             id="path422" /><path
             d="M 500,752.25 H 479.168"
             style="fill:none;stroke:#afafaf;stroke-width:4.16667;stroke-linecap:butt;stroke-linejoin:miter;stroke-miterlimit:10;stroke-dasharray:none;stroke-opacity:1"
             id="path424" /><g
             id="g426"
             transform="scale(4.16667)"><text
               transform="matrix(0,-1,-1,0,94.0003,194.883)"
               style="font-variant:normal;font-weight:normal;font-size:14px;font-family:Menlo;-inkscape-font-specification:Menlo-Regular;writing-mode:lr-tb;fill:#afafaf;fill-opacity:1;fill-rule:nonzero;stroke:none"
               id="text430"><tspan
                 x="0 8.4280005 16.855413 25.283415 33.711414"
                 y="0"
                 id="tspan428">10KHz</tspan></text></g><path
             d="M 500,724.211 H 458.332"
             style="fill:none;stroke:#afafaf;stroke-width:4.16667;stroke-linecap:butt;stroke-linejoin:miter;stroke-miterlimit:10;stroke-dasharray:none;stroke-opacity:1"
             id="path432" /><path
             d="M 500,539.766 H 479.168"
             style="fill:none;stroke:#afafaf;stroke-width:4.16667;stroke-linecap:butt;stroke-linejoin:miter;stroke-miterlimit:10;stroke-dasharray:none;stroke-opacity:1"
             id="path434" /><g
             id="g436"
             transform="scale(4.16667)"><text
               transform="matrix(0,-1,-1,0,114,736.185)"
               style="font-variant:normal;font-weight:normal;font-size:14px;font-family:Menlo;-inkscape-font-specification:Menlo-Regular;writing-mode:lr-tb;fill:#afafaf;fill-opacity:1;fill-rule:nonzero;stroke:none"
               id="text440"><tspan
                 x="0 -8.42906 -16.857189 -25.286249 -33.715309"
                 y="0"
                 id="tspan438">Bd45-</tspan></text></g><path
             d="m 500,2990.65 v 41.67"
             style="fill:none;stroke:#afafaf;stroke-width:4.16667;stroke-linecap:butt;stroke-linejoin:miter;stroke-miterlimit:10;stroke-dasharray:none;stroke-opacity:1"
             id="path442" /><g
             id="g444"
             transform="scale(4.16667)"><text
               transform="matrix(0,-1,-1,0,142.077,736.185)"
               style="font-variant:normal;font-weight:normal;font-size:14px;font-family:Menlo;-inkscape-font-specification:Menlo-Regular;writing-mode:lr-tb;fill:#afafaf;fill-opacity:1;fill-rule:nonzero;stroke:none"
               id="text448"><tspan
                 x="0 -8.42906 -16.857189 -25.286249 -33.715309"
                 y="0"
                 id="tspan446">Bd15-</tspan></text></g><path
             d="m 616.988,2990.65 v 41.67"
             style="fill:none;stroke:#afafaf;stroke-width:4.16667;stroke-linecap:butt;stroke-linejoin:miter;stroke-miterlimit:10;stroke-dasharray:none;stroke-opacity:1"
             id="path450" /><g
             id="g452"
             transform="scale(4.16667)"><text
               transform="matrix(0,-1,-1,0,170.153,736.185)"
               style="font-variant:normal;font-weight:normal;font-size:14px;font-family:Menlo;-inkscape-font-specification:Menlo-Regular;writing-mode:lr-tb;fill:#afafaf;fill-opacity:1;fill-rule:nonzero;stroke:none"
               id="text456"><tspan
                 x="0 -8.42906 -16.857189 -25.286249 -33.715309"
                 y="0"
                 id="tspan454">Bd84-</tspan></text></g><path
             d="m 733.973,2990.65 v 41.67"
             style="fill:none;stroke:#afafaf;stroke-width:4.16667;stroke-linecap:butt;stroke-linejoin:miter;stroke-miterlimit:10;stroke-dasharray:none;stroke-opacity:1"
             id="path458" /><g
             id="g460"
             transform="scale(4.16667)"><text
               transform="matrix(0,-1,-1,0,198.231,736.185)"
               style="font-variant:normal;font-weight:normal;font-size:14px;font-family:Menlo;-inkscape-font-specification:Menlo-Regular;writing-mode:lr-tb;fill:#afafaf;fill-opacity:1;fill-rule:nonzero;stroke:none"
               id="text464"><tspan
                 x="0 -8.42906 -16.857189 -25.286249 -33.715309"
                 y="0"
                 id="tspan462">Bd54-</tspan></text></g><path
             d="m 850.961,2990.65 v 41.67"
             style="fill:none;stroke:#afafaf;stroke-width:4.16667;stroke-linecap:butt;stroke-linejoin:miter;stroke-miterlimit:10;stroke-dasharray:none;stroke-opacity:1"
             id="path466" /><g
             id="g468"
             transform="scale(4.16667)"><text
               transform="matrix(0,-1,-1,0,226.308,736.185)"
               style="font-variant:normal;font-weight:normal;font-size:14px;font-family:Menlo;-inkscape-font-specification:Menlo-Regular;writing-mode:lr-tb;fill:#afafaf;fill-opacity:1;fill-rule:nonzero;stroke:none"
               id="text472"><tspan
                 x="0 -8.42906 -16.857189 -25.286249 -33.715309"
                 y="0"
                 id="tspan470">Bd24-</tspan></text></g><path
             d="m 967.949,2990.65 v 41.67"
             style="fill:none;stroke:#afafaf;stroke-width:4.16667;stroke-linecap:butt;stroke-linejoin:miter;stroke-miterlimit:10;stroke-dasharray:none;stroke-opacity:1"
             id="path474" /><g
             id="g476"
             transform="scale(4.16667)"><text
               transform="matrix(0,-1,-1,0,254.385,736.185)"
               style="font-variant:normal;font-weight:normal;font-size:14px;font-family:Menlo;-inkscape-font-specification:Menlo-Regular;writing-mode:lr-tb;fill:#afafaf;fill-opacity:1;fill-rule:nonzero;stroke:none"
               id="text480"><tspan
                 x="0 -8.42906 -16.857189 -25.286249 -33.715309"
                 y="0"
                 id="tspan478">Bd93-</tspan></text></g><path
             d="m 1084.94,2990.65 v 41.67"
             style="fill:none;stroke:#afafaf;stroke-width:4.16667;stroke-linecap:butt;stroke-linejoin:miter;stroke-miterlimit:10;stroke-dasharray:none;stroke-opacity:1"
             id="path482" /><g
             id="g484"
             transform="scale(4.16667)"><text
               transform="matrix(0,-1,-1,0,282.461,736.185)"
               style="font-variant:normal;font-weight:normal;font-size:14px;font-family:Menlo;-inkscape-font-specification:Menlo-Regular;writing-mode:lr-tb;fill:#afafaf;fill-opacity:1;fill-rule:nonzero;stroke:none"
               id="text488"><tspan
                 x="0 -8.42906 -16.857189 -25.286249 -33.715309"
                 y="0"
                 id="tspan486">Bd63-</tspan></text></g><path
             d="m 1201.92,2990.65 v 41.67"
             style="fill:none;stroke:#afafaf;stroke-width:4.16667;stroke-linecap:butt;stroke-linejoin:miter;stroke-miterlimit:10;stroke-dasharray:none;stroke-opacity:1"
             id="path490" /><g
             id="g492"
             transform="scale(4.16667)"><text
               transform="matrix(0,-1,-1,0,310.538,736.185)"
               style="font-variant:normal;font-weight:normal;font-size:14px;font-family:Menlo;-inkscape-font-specification:Menlo-Regular;writing-mode:lr-tb;fill:#afafaf;fill-opacity:1;fill-rule:nonzero;stroke:none"
               id="text496"><tspan
                 x="0 -8.42906 -16.857189 -25.286249 -33.715309"
                 y="0"
                 id="tspan494">Bd33-</tspan></text></g><path
             d="m 1318.91,2990.65 v 41.67"
             style="fill:none;stroke:#afafaf;stroke-width:4.16667;stroke-linecap:butt;stroke-linejoin:miter;stroke-miterlimit:10;stroke-dasharray:none;stroke-opacity:1"
             id="path498" /><g
             id="g500"
             transform="scale(4.16667)"><text
               transform="matrix(0,-1,-1,0,338.616,736.185)"
               style="font-variant:normal;font-weight:normal;font-size:14px;font-family:Menlo;-inkscape-font-specification:Menlo-Regular;writing-mode:lr-tb;fill:#afafaf;fill-opacity:1;fill-rule:nonzero;stroke:none"
               id="text504"><tspan
                 x="0 -8.42906 -16.857189 -25.286249 -33.715309"
                 y="0"
                 id="tspan502">Bd03-</tspan></text></g><path
             d="m 1435.9,2990.65 v 41.67"
             style="fill:none;stroke:#afafaf;stroke-width:4.16667;stroke-linecap:butt;stroke-linejoin:miter;stroke-miterlimit:10;stroke-dasharray:none;stroke-opacity:1"
             id="path506" /><g
             id="g508"
             transform="scale(4.16667)"><text
               transform="matrix(0,-1,-1,0,366.692,736.185)"
               style="font-variant:normal;font-weight:normal;font-size:14px;font-family:Menlo;-inkscape-font-specification:Menlo-Regular;writing-mode:lr-tb;fill:#afafaf;fill-opacity:1;fill-rule:nonzero;stroke:none"
               id="text512"><tspan
                 x="0 -8.42906 -16.857189 -25.286249 -33.715309"
                 y="0"
                 id="tspan510">Bd72-</tspan></text></g><path
             d="m 1552.88,2990.65 v 41.67"
             style="fill:none;stroke:#afafaf;stroke-width:4.16667;stroke-linecap:butt;stroke-linejoin:miter;stroke-miterlimit:10;stroke-dasharray:none;stroke-opacity:1"
             id="path514" /><g
             id="g516"
             transform="scale(4.16667)"><text
               transform="matrix(0,-1,-1,0,394.769,736.185)"
               style="font-variant:normal;font-weight:normal;font-size:14px;font-family:Menlo;-inkscape-font-specification:Menlo-Regular;writing-mode:lr-tb;fill:#afafaf;fill-opacity:1;fill-rule:nonzero;stroke:none"
               id="text520"><tspan
                 x="0 -8.42906 -16.857189 -25.286249 -33.715309"
                 y="0"
                 id="tspan518">Bd42-</tspan></text></g><path
             d="m 1669.87,2990.65 v 41.67"
             style="fill:none;stroke:#afafaf;stroke-width:4.16667;stroke-linecap:butt;stroke-linejoin:miter;stroke-miterlimit:10;stroke-dasharray:none;stroke-opacity:1"
             id="path522" /><g
             id="g524"
             transform="scale(4.16667)"><text
               transform="matrix(0,-1,-1,0,422.846,736.185)"
               style="font-variant:normal;font-weight:normal;font-size:14px;font-family:Menlo;-inkscape-font-specification:Menlo-Regular;writing-mode:lr-tb;fill:#afafaf;fill-opacity:1;fill-rule:nonzero;stroke:none"
               id="text528"><tspan
                 x="0 -8.42906 -16.857189 -25.286249 -33.715309"
                 y="0"
                 id="tspan526">Bd12-</tspan></text></g><path
             d="m 1786.86,2990.65 v 41.67"
             style="fill:none;stroke:#afafaf;stroke-width:4.16667;stroke-linecap:butt;stroke-linejoin:miter;stroke-miterlimit:10;stroke-dasharray:none;stroke-opacity:1"
             id="path530" /><g
             id="g532"
             transform="scale(4.16667)"><text
               transform="matrix(0,-1,-1,0,450.923,736.185)"
               style="font-variant:normal;font-weight:normal;font-size:14px;font-family:Menlo;-inkscape-font-specification:Menlo-Regular;writing-mode:lr-tb;fill:#afafaf;fill-opacity:1;fill-rule:nonzero;stroke:none"
               id="text536"><tspan
                 x="0 -8.42906 -16.857189 -25.286249 -33.715309"
                 y="0"
                 id="tspan534">Bd81-</tspan></text></g><path
             d="m 1903.85,2990.65 v 41.67"
             style="fill:none;stroke:#afafaf;stroke-width:4.16667;stroke-linecap:butt;stroke-linejoin:miter;stroke-miterlimit:10;stroke-dasharray:none;stroke-opacity:1"
             id="path538" /><g
             id="g540"
             transform="scale(4.16667)"><text
               transform="matrix(0,-1,-1,0,479,736.185)"
               style="font-variant:normal;font-weight:normal;font-size:14px;font-family:Menlo;-inkscape-font-specification:Menlo-Regular;writing-mode:lr-tb;fill:#afafaf;fill-opacity:1;fill-rule:nonzero;stroke:none"
               id="text544"><tspan
                 x="0 -8.42906 -16.857189 -25.286249 -33.715309"
                 y="0"
                 id="tspan542">Bd51-</tspan></text></g><path
             d="m 2020.83,2990.65 v 41.67"
             style="fill:none;stroke:#afafaf;stroke-width:4.16667;stroke-linecap:butt;stroke-linejoin:miter;stroke-miterlimit:10;stroke-dasharray:none;stroke-opacity:1"
             id="path546" /><path
             d="m 500,539.766 h 1520.83 v 2450.89 H 500 Z"
             style="fill:none;stroke:#afafaf;stroke-width:4.16667;stroke-linecap:butt;stroke-linejoin:miter;stroke-miterlimit:10;stroke-dasharray:none;stroke-opacity:1"
             id="path548" /><g
             id="g550"
             transform="scale(4.16667)"><text
               transform="matrix(0,-1,-1,0,489,453.257)"
               style="font-variant:normal;font-weight:normal;font-size:14px;font-family:Menlo;-inkscape-font-specification:Menlo-Regular;writing-mode:lr-tb;fill:#0eff00;fill-opacity:1;fill-rule:nonzero;stroke:none"
               id="text554"><tspan
                 x="0 8.4280005 16.855413 25.283415 33.710827 42.138828 50.56683"
                 y="0"
                 id="tspan552">V(vout)</tspan></text></g></g></g><g
         id="g556"><g
           id="g558"
           clip-path="url(#clipPath562)"><path
             d="m 1640.45,2990.65 v 0 -3.69 -3.69 -3.68 l -0.01,-3.7 v -3.68 l -0.01,-3.69 v -3.69 -3.69 l -0.01,-3.69 v -3.69 l -0.01,-3.69 v -3.69 -3.68 l -0.01,-3.69 -0.01,-3.69 v -3.69 -3.69 l -0.01,-3.69 v -3.69 l -0.01,-3.69 v -3.69 l -0.01,-3.68 v -3.7 l -0.01,-3.68 -0.01,-3.69 v -3.69 l -0.01,-3.69 -0.01,-3.69 v -3.69 l -0.01,-3.69 -0.01,-3.69 v -3.68 l -0.01,-3.69 -0.01,-3.69 -0.01,-3.69 v -3.69 l -0.01,-3.69 -0.01,-3.69 -0.01,-3.69 -0.01,-3.69 -0.01,-3.68 -0.01,-3.7 -0.01,-3.68 v -3.69 l -0.02,-3.69 v -3.69 l -0.02,-3.69 -0.01,-3.69 -0.01,-3.69 -0.01,-3.69 -0.01,-3.68 -0.01,-3.69 -0.01,-3.69 -0.01,-3.69 -0.02,-3.69 -0.01,-3.69 -0.01,-3.69 -0.01,-3.69 -0.02,-3.69 -0.01,-3.68 -0.02,-3.69 -0.01,-3.69 -0.02,-3.69 -0.01,-3.69 -0.02,-3.69 -0.01,-3.69 -0.02,-3.69 -0.01,-3.69 -0.02,-3.69 -0.02,-3.68 -0.02,-3.69 -0.01,-3.69 -0.02,-3.69 -0.02,-3.69 -0.02,-3.69 -0.02,-3.69 -0.02,-3.69 -0.02,-3.69 -0.02,-3.68 -0.02,-3.69 -0.02,-3.69 -0.02,-3.69 -0.03,-3.69 -0.02,-3.69 -0.02,-3.69 -0.02,-3.69 -0.03,-3.69 -0.02,-3.69 -0.03,-3.68 -0.02,-3.7 -0.02,-3.68 -0.03,-3.69 -0.03,-3.69 -0.02,-3.69 -0.03,-3.69 -0.03,-3.69 -0.02,-3.69 -0.03,-3.69 -0.03,-3.68 -0.03,-3.69 -0.03,-3.69 -0.03,-3.69 -0.03,-3.69 -0.03,-3.69 -0.03,-3.69 -0.03,-3.68 -0.03,-3.7 -0.03,-3.68 -0.03,-3.7 -0.04,-3.68 -0.03,-3.69 -0.03,-3.69 -0.04,-3.69 -0.03,-3.69 -0.03,-3.69 -0.04,-3.69 -0.03,-3.69 -0.04,-3.68 -0.03,-3.69 -0.04,-3.69 -0.03,-3.69 -0.04,-3.69 -0.04,-3.69 -0.03,-3.69 -0.04,-3.69 -0.04,-3.69 -0.03,-3.68 -0.04,-3.7 -0.04,-3.68 -0.03,-3.69 -0.04,-3.69 -0.04,-3.69 -0.03,-3.69 -0.04,-3.69 -0.04,-3.69 -0.04,-3.69 -0.04,-3.68 -0.04,-3.69 -0.03,-3.69 -0.04,-3.69 -0.04,-3.69 -0.03,-3.69 -0.04,-3.69 -0.04,-3.69 -0.04,-3.69 -0.04,-3.68 -0.04,-3.69 -0.03,-3.69 -0.04,-3.69 -0.04,-3.69 -0.03,-3.69 -0.04,-3.69 -0.03,-3.69 -0.04,-3.69 -0.04,-3.69 -0.03,-3.68 -0.04,-3.69 -0.04,-3.69 -0.03,-3.69 -0.04,-3.69 -0.03,-3.69 -0.04,-3.69 -0.03,-3.69 -0.04,-3.69 -0.03,-3.68 -0.04,-3.69 -0.03,-3.69 -0.03,-3.69 -0.03,-3.69 -0.03,-3.69 -0.04,-3.69 -0.03,-3.69 -0.03,-3.69 -0.03,-3.69 -0.03,-3.68 -0.03,-3.7 -0.03,-3.68 -0.03,-3.69 -0.04,-3.69 -0.02,-3.69 -0.03,-3.69 -0.03,-3.69 -0.03,-3.69 -0.03,-3.69 -0.02,-3.68 -0.03,-3.69 -0.03,-3.69 -0.03,-3.69 -0.02,-3.69 -0.03,-3.69 -0.02,-3.69 -0.03,-3.68 -0.02,-3.7 -0.03,-3.68 -0.03,-3.7 -0.02,-3.68 -0.03,-3.69 -0.02,-3.69 -0.02,-3.69 -0.03,-3.69 -0.02,-3.69 -0.02,-3.69 -0.02,-3.69 -0.03,-3.68 -0.02,-3.69 -0.02,-3.69 -0.02,-3.69 -0.03,-3.69 -0.02,-3.69 -0.02,-3.69 -0.02,-3.69 -0.02,-3.69 -0.02,-3.68 -0.02,-3.7 -0.02,-3.68 -0.02,-3.69 -0.02,-3.69 -0.02,-3.69 -0.02,-3.69 -0.02,-3.69 -0.02,-3.69 -0.02,-3.69 -0.02,-3.68 -0.02,-3.69 -0.02,-3.69 -0.02,-3.69 -0.02,-3.69 -0.02,-3.69 -0.02,-3.69 -0.02,-3.69 -0.02,-3.69 -0.02,-3.68 -0.02,-3.69 -0.02,-3.69 -0.02,-3.69 -0.02,-3.69 -0.02,-3.69 -0.02,-3.69 -0.02,-3.69 -0.02,-3.69 -0.02,-3.69 -0.02,-3.68 -0.03,-3.69 -0.02,-3.69 -0.02,-3.69 -0.02,-3.69 -0.02,-3.69 -0.03,-3.69 -0.02,-3.69 -0.02,-3.69 -0.03,-3.68 -0.02,-3.69 -0.02,-3.69 -0.03,-3.69 -0.02,-3.69 -0.03,-3.69 -0.03,-3.69 -0.02,-3.69 -0.03,-3.69 -0.03,-3.69 -0.02,-3.68 -0.03,-3.7 -0.03,-3.68 -0.03,-3.69 -0.03,-3.69 -0.03,-3.69 -0.03,-3.69 -0.04,-3.69 -0.03,-3.69 -0.03,-3.69 -0.04,-3.68 -0.03,-3.69 -0.04,-3.69 -0.03,-3.69 -0.04,-3.69 -0.04,-3.69 -0.04,-3.69 -0.04,-3.68 -0.04,-3.7 -0.04,-3.68 -0.04,-3.7 -0.05,-3.68 -0.04,-3.69 -0.05,-3.69 -0.05,-3.69 -0.05,-3.69 -0.05,-3.69 -0.05,-3.69 -0.05,-3.69 -0.06,-3.68 -0.05,-3.69 -0.05,-3.69 -0.06,-3.69 -0.06,-3.69 -0.06,-3.69 -0.07,-3.69 -0.06,-3.69 -0.07,-3.69 -0.07,-3.68 -0.07,-3.7 -0.07,-3.68 -0.07,-3.69 -0.08,-3.69 -0.07,-3.69 -0.08,-3.69 -0.08,-3.69 -0.09,-3.69 -0.08,-3.69 -0.09,-3.68 -0.09,-3.69 -0.09,-3.69 -0.1,-3.69 -0.1,-3.69 -0.1,-3.69 -0.1,-3.69 -0.11,-3.69 -0.11,-3.69 -0.11,-3.68 -0.11,-3.69 -0.12,-3.69 -0.12,-3.69 -0.13,-3.69 -0.12,-3.69 -0.14,-3.69 -0.13,-3.69 -0.14,-3.69 -0.14,-3.69 -0.15,-3.68 -0.15,-3.69 -0.15,-3.69 -0.16,-3.69 -0.16,-3.69 -0.17,-3.69 -0.17,-3.69 -0.18,-3.69 -0.17,-3.69 -0.19,-3.68 -0.19,-3.69 -0.2,-3.69 -0.2,-3.69 -0.21,-3.69 -0.21,-3.69 -0.21,-3.69 -0.23,-3.69 -0.22,-3.69 -0.24,-3.69 -0.24,-3.68 -0.25,-3.7 -0.25,-3.68 -0.27,-3.69 -0.26,-3.69 -0.28,-3.69 -0.28,-3.69 -0.29,-3.69 -0.3,-3.69 -0.3,-3.68 -0.31,-3.69 -0.32,-3.69 -0.34,-3.69 -0.33,-3.69 -0.35,-3.69 -0.36,-3.69 -0.36,-3.69 -0.38,-3.68 -0.38,-3.7 -0.39,-3.68 -0.41,-3.7 -0.41,-3.68 -0.43,-3.69 -0.43,-3.69 -0.45,-3.69 -0.46,-3.69 -0.47,-3.69 -0.48,-3.69 -0.5,-3.69 -0.5,-3.68 -0.52,-3.69 -0.53,-3.69 -0.55,-3.69 -0.56,-3.69 -0.57,-3.69 -0.59,-3.69 -0.6,-3.69 -0.61,-3.69 -0.63,-3.68 -0.65,-3.7 -0.66,-3.68 -0.68,-3.69 -0.69,-3.69 -0.71,-3.69 -0.73,-3.69 -0.74,-3.69 -0.76,-3.69 -0.78,-3.69 -0.8,-3.68 -0.82,-3.69 -0.83,-3.69 -0.86,-3.69 -0.87,-3.69 -0.89,-3.69 -0.92,-3.69 -0.93,-3.69 -0.96,-3.69 -0.97,-3.68 -1,-3.69 -1.02,-3.69 -1.05,-3.69 -1.06,-3.69 -1.09,-3.69 -1.11,-3.69 -1.14,-3.69 -1.15,-3.69 -1.19,-3.69 -1.21,-3.68 -1.23,-3.69 -1.26,-3.69 -1.29,-3.69 -1.31,-3.69 -1.34,-3.69 -1.36,-3.69 -1.39,-3.69 -1.42,-3.69 -1.44,-3.68 -1.48,-3.69 -1.5,-3.69 -1.53,-3.69 -1.56,-3.69 -1.59,-3.69 -1.62,-3.69 -1.64,-3.69 -1.68,-3.69 -1.71,-3.69 -1.73,-3.68 -1.77,-3.69 -1.8,-3.69 -1.83,-3.69 -1.86,-3.69 -1.89,-3.69 -1.92,-3.69 -1.96,-3.69 -1.98,-3.69 -2.02,-3.68 -2.05,-3.69 -2.09,-3.69 -2.11,-3.69 -2.15,-3.69 -2.18,-3.69 -2.21,-3.69 -2.24,-3.69 -2.28,-3.68 -2.31,-3.7 -2.34,-3.68 -2.37,-3.7 -2.41,-3.68 -2.44,-3.69 -2.48,-3.69 -2.5,-3.69 -2.54,-3.69 -2.57,-3.69 -2.6,-3.69 -2.64,-3.69 -2.66,-3.68 -2.7,-3.69 -2.73,-3.69 -2.76,-3.69 -2.8,-3.69 -2.82,-3.69 -2.86,-3.69 -2.89,-3.69 -2.91,-3.69 -2.95,-3.68 -2.98,-3.7 -3.01,-3.68 -3.04,-3.69 -3.07,-3.69 -3.1,-3.69 -3.13,-3.69 -3.16,-3.69 -3.18,-3.69 -3.22,-3.69 -3.24,-3.68 -3.27,-3.69 -3.3,-3.69 -3.33,-3.69 -3.35,-3.69 -3.38,-3.69 -3.4,-3.69 -3.44,-3.69 -3.45,-3.69 -3.48,-3.68 -3.52,-3.69 -3.53,-3.69 -3.56,-3.69 -3.57,-3.69 -3.61,-3.69 -3.63,-3.69 -3.65,-3.69 -3.68,-3.69 -3.69,-3.69 -3.72,-3.68 -3.74,-3.69 -3.76,-3.69 -3.79,-3.69 -3.8,-3.69 -3.82,-3.69 -3.85,-3.69 -3.86,-3.69 -3.88,-3.69 -3.91,-3.68 -3.92,-3.69"
             style="fill:none;stroke:#0eff00;stroke-width:4.16667;stroke-linecap:butt;stroke-linejoin:miter;stroke-miterlimit:1;stroke-dasharray:none;stroke-opacity:1"
             id="path564" /><path
             d="m 1330.51,1109.29 v 0 l -3.94,-3.69 -3.96,-3.69 -3.97,-3.69 -3.99,-3.69 -4.01,-3.69 -4.03,-3.69 -4.04,-3.69 -4.06,-3.69 -4.08,-3.68 -4.09,-3.69 -4.1,-3.69 -4.12,-3.69 -4.14,-3.69 -4.15,-3.69 -4.17,-3.69 -4.18,-3.69 -4.19,-3.69 -4.2,-3.68 -4.22,-3.69 -4.23,-3.69 -4.25,-3.69 -4.25,-3.69 -4.27,-3.69 -4.28,-3.69 -4.29,-3.69 -4.31,-3.68 -4.31,-3.7 -4.33,-3.68 -4.33,-3.7 -4.35,-3.683 -4.36,-3.687 -4.37,-3.692 -4.38,-3.687 -4.39,-3.688 -4.39,-3.691 -4.41,-3.688 -4.42,-3.687 -4.42,-3.692 -4.44,-3.687 -4.44,-3.691 -4.45,-3.688 -4.47,-3.687 -4.46,-3.692 -4.48,-3.687 -4.49,-3.688 -4.49,-3.691 -4.5,-3.688 -4.51,-3.691 -4.51,-3.688 -4.53,-3.687 -4.53,-3.692 -4.54,-3.687 -4.54,-3.688 -4.56,-3.691 -4.55,-3.687 -4.57,-3.692 -4.58,-3.687 -4.57,-3.688 -4.59,-3.691 -4.59,-3.688 -4.6,-3.687 -4.61,-3.692 -4.61,-3.687 -4.62,-3.692 -4.63,-3.687 -4.63,-3.688 -4.64,-3.691 -4.64,-3.687 -4.65,-3.688 -4.65,-3.691 -4.67,-3.688 -4.67,-3.691 -4.67,-3.688 -4.68,-3.687 -4.69,-3.692 -4.691,-3.687 -4.695,-3.688 -4.703,-3.691 -4.711,-3.688 -4.719,-3.687 -4.719,-3.692 -4.73,-3.687 -4.735,-3.691 -4.738,-3.688 -4.746,-3.687 -4.754,-3.692 -4.758,-3.687 -4.765,-3.688 -4.774,-3.691 -4.777,-3.688 -4.781,-3.691 -4.793,-3.688 -4.797,-3.687 -4.805,-3.692 -4.809,-3.687 -4.816,-3.688 -4.824,-3.691 -4.832,-3.687 -4.836,-3.692 -4.844,-3.687 -4.851,-3.688 -4.86,-3.691 -4.867,-3.688 -4.871,-3.687 -4.883,-3.692 -4.891,-3.687 -4.894,-3.692 -4.906,-3.687 -4.914,-3.688 -4.918,-3.691 -4.93,-3.687 -4.938,-3.688 -4.949,-3.691 -4.953,-3.688 -4.965,-3.687 -4.972,-3.692 -4.985,-3.687 -4.992,-3.692 -5,-3.687 -5.012,-3.688 -5.023,-3.691 -5.031,-3.688 -5.039,-3.687 -5.055,-3.692 -5.063,-3.687 -5.074,-3.691 -5.086,-3.688 -5.097,-3.687 -5.11,-3.692 -5.121,-3.687 -5.133,-3.688 -5.144,-3.691 -5.156,-3.688 -5.172,-3.691 -5.184,-3.688 -5.195,-3.687 -5.211,-3.692 -5.227,-3.687 -5.238,-3.688 -5.254,-3.691 -5.266,-3.687 -5.285,-3.692 -5.297,-3.687 -5.312,-3.688 -5.332,-3.691 -5.344,-3.688 -5.363,-3.687 -5.379,-3.692 -5.395,-3.687 -5.414,-3.688 -5.429,-3.691 -5.45,-3.688 -5.468,-3.691 -5.489,-3.687 -2.117,-1.422"
             style="fill:none;stroke:#0eff00;stroke-width:4.16667;stroke-linecap:butt;stroke-linejoin:miter;stroke-miterlimit:1;stroke-dasharray:none;stroke-opacity:1"
             id="path566" /><path
             d="m 1794,2990.65 v 0 -3.69 l -0.01,-3.69 v -3.68 l -0.01,-3.7 v -3.68 l -0.01,-3.69 -0.01,-3.69 v -3.69 l -0.01,-3.69 v -3.69 l -0.01,-3.69 -0.01,-3.69 v -3.68 l -0.01,-3.69 -0.01,-3.69 v -3.69 l -0.01,-3.69 -0.01,-3.69 -0.01,-3.69 -0.01,-3.69 -0.01,-3.69 v -3.68 l -0.01,-3.7 -0.01,-3.68 -0.01,-3.69 -0.01,-3.69 -0.01,-3.69 -0.01,-3.69 -0.01,-3.69 -0.01,-3.69 -0.01,-3.69 -0.01,-3.68 -0.01,-3.69 -0.02,-3.69 -0.01,-3.69 -0.01,-3.69 -0.01,-3.69 -0.02,-3.69 -0.01,-3.69 -0.01,-3.69 -0.02,-3.68 -0.01,-3.7 -0.02,-3.68 -0.01,-3.69 -0.01,-3.69 -0.02,-3.69 -0.02,-3.69 -0.01,-3.69 -0.02,-3.69 -0.02,-3.69 -0.02,-3.68 -0.01,-3.69 -0.02,-3.69 -0.02,-3.69 -0.02,-3.69 -0.02,-3.69 -0.02,-3.69 -0.02,-3.69 -0.02,-3.69 -0.02,-3.68 -0.02,-3.69 -0.02,-3.69 -0.03,-3.69 -0.02,-3.69 -0.03,-3.69 -0.02,-3.69 -0.03,-3.69 -0.02,-3.69 -0.03,-3.69 -0.02,-3.68 -0.03,-3.69 -0.03,-3.69 -0.03,-3.69 -0.03,-3.69 -0.02,-3.69 -0.04,-3.69 -0.03,-3.69 -0.03,-3.69 -0.03,-3.68 -0.03,-3.69 -0.03,-3.69 -0.04,-3.69 -0.03,-3.69 -0.04,-3.69 -0.03,-3.69 -0.04,-3.69 -0.03,-3.69 -0.04,-3.69 -0.04,-3.68 -0.04,-3.7 -0.03,-3.68 -0.04,-3.69 -0.04,-3.69 -0.05,-3.69 -0.04,-3.69 -0.04,-3.69 -0.04,-3.69 -0.04,-3.69 -0.05,-3.68 -0.04,-3.69 -0.05,-3.69 -0.04,-3.69 -0.05,-3.69 -0.05,-3.69 -0.04,-3.69 -0.05,-3.68 -0.05,-3.7 -0.05,-3.68 -0.05,-3.7 -0.05,-3.68 -0.05,-3.69 -0.05,-3.69 -0.05,-3.69 -0.05,-3.69 -0.05,-3.69 -0.06,-3.69 -0.05,-3.69 -0.05,-3.68 -0.06,-3.69 -0.05,-3.69 -0.05,-3.69 -0.06,-3.69 -0.06,-3.69 -0.05,-3.69 -0.06,-3.69 -0.05,-3.69 -0.06,-3.68 -0.06,-3.7 -0.05,-3.68 -0.06,-3.69 -0.06,-3.69 -0.06,-3.69 -0.05,-3.69 -0.06,-3.69 -0.06,-3.69 -0.05,-3.69 -0.06,-3.68 -0.06,-3.69 -0.06,-3.69 -0.05,-3.69 -0.06,-3.69 -0.06,-3.69 -0.05,-3.69 -0.06,-3.69 -0.06,-3.69 -0.06,-3.68 -0.06,-3.69 -0.05,-3.69 -0.05,-3.69 -0.06,-3.69 -0.06,-3.69 -0.05,-3.69 -0.06,-3.69 -0.05,-3.69 -0.06,-3.69 -0.05,-3.68 -0.06,-3.69 -0.05,-3.69 -0.05,-3.69 -0.05,-3.69 -0.05,-3.69 -0.06,-3.69 -0.05,-3.69 -0.05,-3.69 -0.05,-3.68 -0.05,-3.69 -0.05,-3.69 -0.04,-3.69 -0.05,-3.69 -0.05,-3.69 -0.05,-3.69 -0.04,-3.69 -0.05,-3.69 -0.04,-3.69 -0.05,-3.68 -0.04,-3.7 -0.04,-3.68 -0.05,-3.69 -0.04,-3.69 -0.04,-3.69 -0.04,-3.69 -0.04,-3.69 -0.04,-3.69 -0.04,-3.69 -0.04,-3.68 -0.04,-3.69 -0.03,-3.69 -0.04,-3.69 -0.04,-3.69 -0.03,-3.69 -0.04,-3.69 -0.03,-3.68 -0.03,-3.7 -0.04,-3.68 -0.03,-3.7 -0.03,-3.68 -0.03,-3.69 -0.03,-3.69 -0.04,-3.69 -0.02,-3.69 -0.03,-3.69 -0.03,-3.69 -0.03,-3.69 -0.03,-3.68 -0.02,-3.69 -0.03,-3.69 -0.02,-3.69 -0.03,-3.69 -0.02,-3.69 -0.03,-3.69 -0.02,-3.69 -0.03,-3.69 -0.02,-3.68 -0.02,-3.7 -0.02,-3.68 -0.02,-3.69 -0.02,-3.69 -0.02,-3.69 -0.02,-3.69 -0.02,-3.69 -0.02,-3.69 -0.02,-3.69 -0.02,-3.68 -0.01,-3.69 -0.02,-3.69 -0.02,-3.69 -0.01,-3.69 -0.02,-3.69 -0.02,-3.69 -0.01,-3.69 -0.02,-3.69 -0.01,-3.68 -0.02,-3.69 -0.01,-3.69 -0.02,-3.69 -0.01,-3.69 -0.01,-3.69 -0.01,-3.69 -0.02,-3.69 -0.01,-3.69 -0.01,-3.69 -0.01,-3.68 -0.01,-3.69 -0.01,-3.69 -0.01,-3.69 -0.01,-3.69 -0.01,-3.69 -0.01,-3.69 -0.01,-3.69 -0.01,-3.69 -0.01,-3.68 -0.01,-3.69 -0.01,-3.69 -0.01,-3.69 -0.01,-3.69 v -3.69 l -0.01,-3.69 -0.01,-3.69 -0.01,-3.69 -0.01,-3.69 v -3.68 l -0.01,-3.7 v -3.68 l -0.01,-3.69 -0.01,-3.69 v -3.69 l -0.01,-3.69 -0.01,-3.69 v -3.69 l -0.01,-3.69 -0.01,-3.68 v -3.69 -3.69 l -0.01,-3.69 -0.01,-3.69 v -3.69 -3.69 l -0.01,-3.68 v -3.7 l -0.01,-3.68 v -3.7 l -0.01,-3.68 v -3.69 -3.69 l -0.01,-3.69 v -3.69 l -0.01,-3.69 v -3.69 -3.69 l -0.01,-3.68 v -3.69 -3.69 l -0.01,-3.69 v -3.69 -3.69 -3.69 l -0.01,-3.69 v -3.69 l -0.01,-3.68 v -3.7 -3.68 -3.69 -3.69 l -0.01,-3.69 v -3.69 -3.69 -3.69 -3.69 l -0.01,-3.68 v -3.69 -3.69 -3.69 l -0.01,-3.69 v -3.69 -3.69 -3.69 -3.69 -3.68 l -0.01,-3.69 v -3.69 -3.69 -3.69 l -0.01,-3.69 v -3.69 -3.69 -3.69 -3.69 -3.68 -3.69 l -0.01,-3.69 v -3.69 -3.69 -3.69 -3.69 l -0.01,-3.69 v -3.69 -3.68 -3.69 -3.69 -3.69 -3.69 -3.69 l -0.01,-3.69 v -3.69 -3.69 -3.69 -3.68 -3.7 -3.68 -3.69 l -0.01,-3.69 v -3.69 -3.69 -3.69 -3.69 l -0.01,-3.68 v -3.69 -3.69 -3.69 -3.69 -3.69 -3.69 -3.69 l -0.01,-3.68 v -3.7 -3.68 -3.7 l -0.01,-3.68 v -3.69 -3.69 -3.69 -3.69 -3.69 l -0.01,-3.69 v -3.69 -3.68 -3.69 l -0.01,-3.69 v -3.69 -3.69 -3.69 -3.69 l -0.01,-3.69 v -3.69 -3.68 l -0.01,-3.7 v -3.68 -3.69 -3.69 l -0.01,-3.69 v -3.69 -3.69 -3.69 l -0.01,-3.69 v -3.68 l -0.01,-3.69 v -3.69 -3.69 l -0.01,-3.69 v -3.69 l -0.01,-3.69 v -3.69 -3.69 l -0.01,-3.68 -0.01,-3.69 v -3.69 -3.69 l -0.01,-3.69 -0.01,-3.69 v -3.69 l -0.01,-3.69 v -3.69 l -0.01,-3.69 -0.01,-3.68 v -3.69 l -0.01,-3.69 -0.01,-3.69 v -3.69 l -0.01,-3.69 -0.01,-3.69 -0.01,-3.69 v -3.69 l -0.01,-3.68 -0.01,-3.69 -0.01,-3.69 -0.01,-3.69 -0.01,-3.69 -0.01,-3.69 -0.02,-3.69 -0.01,-3.69 -0.01,-3.69 -0.01,-3.69 -0.01,-3.68 -0.01,-3.69 -0.02,-3.69 -0.01,-3.69 -0.02,-3.69 -0.01,-3.69 -0.02,-3.69 -0.01,-3.69 -0.02,-3.69 -0.02,-3.68 -0.02,-3.69 -0.02,-3.69 -0.02,-3.69 -0.02,-3.69 -0.02,-3.69 -0.02,-3.69 -0.02,-3.69 -0.03,-3.68 -0.02,-3.7 -0.03,-3.68 -0.03,-3.7 -0.03,-3.68 -0.03,-3.69 -0.03,-3.69 -0.03,-3.69 -0.04,-3.69 -0.03,-3.69 -0.04,-3.69 -0.04,-3.69 -0.04,-3.68 -0.04,-3.69 -0.04,-3.69 -0.05,-3.69 -0.05,-3.69 -0.05,-3.69 -0.05,-3.69 -0.06,-3.69 -0.05,-3.69 -0.06,-3.68 -0.07,-3.7 -0.06,-3.68 -0.07,-3.69 -0.07,-3.69 -0.08,-3.69 -0.08,-3.69 -0.08,-3.69 -0.08,-3.69 -0.09,-3.69 -0.1,-3.68 -0.1,-3.69 -0.1,-3.69 -0.11,-3.69 -0.11,-3.69 -0.12,-3.69 -0.13,-3.69 -0.13,-3.69 -0.14,-3.69 -0.14,-3.68 -0.15,-3.69 -0.16,-3.69 -0.16,-3.69 -0.18,-3.69 -0.18,-3.69 -0.19,-3.69 -0.2,-3.69 -0.21,-3.69 -0.22,-3.69 -0.24,-3.68 -0.24,-3.69 -0.25,-3.69 -0.27,-3.69 -0.28,-3.69 -0.3,-3.69 -0.31,-3.69 -0.32,-3.69 -0.34,-3.69 -0.36,-3.68 -0.38,-3.69"
             style="fill:none;stroke:#0000ff;stroke-width:4.16667;stroke-linecap:butt;stroke-linejoin:miter;stroke-miterlimit:1;stroke-dasharray:none;stroke-opacity:1"
             id="path568" /><path
             d="m 1777.56,1109.29 v 0 l -0.39,-3.69 -0.42,-3.69 -0.43,-3.69 -0.46,-3.69 -0.48,-3.69 -0.5,-3.69 -0.53,-3.69 -0.55,-3.69 -0.59,-3.68 -0.6,-3.69 -0.65,-3.69 -0.67,-3.69 -0.7,-3.69 -0.74,-3.69 -0.78,-3.69 -0.81,-3.69 -0.85,-3.69 -0.89,-3.68 -0.94,-3.69 -0.98,-3.69 -1.03,-3.69 -1.08,-3.69 -1.13,-3.69 -1.18,-3.69 -1.23,-3.69 -1.3,-3.68 -1.35,-3.7 -1.42,-3.68 -1.48,-3.7 -1.54,-3.683 -1.62,-3.687 -1.69,-3.692 -1.76,-3.687 -1.84,-3.688 -1.92,-3.691 -2,-3.688 -2.09,-3.687 -2.17,-3.692 -2.26,-3.687 -2.36,-3.691 -2.45,-3.688 -2.55,-3.687 -2.65,-3.692 -2.75,-3.687 -2.85,-3.688 -2.96,-3.691 -3.07,-3.688 -3.19,-3.691 -3.29,-3.688 -3.41,-3.687 -3.53,-3.692 -3.64,-3.687 -3.76,-3.688 -3.89,-3.691 -4.01,-3.687 -4.13,-3.692 -4.25,-3.687 -4.38,-3.688 -4.51,-3.691 -4.63,-3.688 -4.75,-3.687 -4.88,-3.692 -5,-3.687 -5.14,-3.692 -5.25,-3.687 -5.37,-3.688 -5.5,-3.691 -5.62,-3.687 -5.74,-3.688 -5.86,-3.691 -5.98,-3.688 -6.09,-3.691 -6.2,-3.688 -6.31,-3.687 -6.42,-3.692 -6.53,-3.687 -6.64,-3.688 -6.74,-3.691 -6.84,-3.688 -6.93,-3.687 -7.03,-3.692 -7.12,-3.687 -7.22,-3.691 -7.3,-3.688 -7.38,-3.687 -7.47,-3.692 -7.55,-3.687 -7.62,-3.688 -7.7,-3.691 -7.77,-3.688 -7.84,-3.691 -7.91,-3.688 -7.97,-3.687 -8.03,-3.692 -8.1,-3.687 -8.15,-3.688 -8.21,-3.691 -8.26,-3.687 -8.31,-3.692 -8.36,-3.687 -8.41,-3.688 -8.45,-3.691 -8.49,-3.688 -8.54,-3.687 -8.57,-3.692 -8.62,-3.687 -8.65,-3.692 -8.68,-3.687 -8.72,-3.688 -8.75,-3.691 -8.78,-3.687 -8.81,-3.688 -8.83,-3.691 -8.86,-3.688 -8.89,-3.687 -8.91,-3.692 -8.93,-3.687 -8.96,-3.692 -8.97,-3.687 -9,-3.688 -9.01,-3.691 -9.04,-3.688 -9.04,-3.687 -9.07,-3.692 -9.08,-3.687 -9.1,-3.691 -9.11,-3.688 -9.12,-3.687 -9.13,-3.692 -9.15,-3.687 -9.16,-3.688 -9.17,-3.691 -9.18,-3.688 -9.19,-3.691 -9.2,-3.688 -9.2,-3.687 -9.22,-3.692 -9.22,-3.687 -9.24,-3.688 -9.24,-3.691 -9.24,-3.687 -9.26,-3.692 -9.26,-3.687 -9.265,-3.688 -9.273,-3.691 -9.274,-3.688 -9.285,-3.687 -9.285,-3.692 -9.293,-3.687 -9.297,-3.688 -9.3,-3.691 -9.305,-3.688 -9.309,-3.691 -9.312,-3.687 -3.59,-1.422"
             style="fill:none;stroke:#0000ff;stroke-width:4.16667;stroke-linecap:butt;stroke-linejoin:miter;stroke-miterlimit:1;stroke-dasharray:none;stroke-opacity:1"
             id="path570" /><path
             d="m 1811.44,2990.65 v 0 l -0.01,-3.69 v -3.69 l -0.01,-3.68 -0.01,-3.7 v -3.68 l -0.01,-3.69 -0.01,-3.69 v -3.69 l -0.01,-3.69 v -3.69 l -0.01,-3.69 -0.01,-3.69 v -3.68 l -0.01,-3.69 -0.01,-3.69 -0.01,-3.69 -0.01,-3.69 v -3.69 l -0.01,-3.69 -0.01,-3.69 -0.01,-3.69 -0.01,-3.68 -0.01,-3.7 -0.01,-3.68 -0.01,-3.69 -0.01,-3.69 -0.01,-3.69 -0.01,-3.69 -0.01,-3.69 -0.01,-3.69 -0.01,-3.69 -0.01,-3.68 -0.02,-3.69 -0.01,-3.69 -0.01,-3.69 -0.01,-3.69 -0.02,-3.69 -0.01,-3.69 -0.01,-3.69 -0.02,-3.69 -0.01,-3.68 -0.02,-3.7 -0.01,-3.68 -0.02,-3.69 -0.01,-3.69 -0.02,-3.69 -0.02,-3.69 -0.01,-3.69 -0.02,-3.69 -0.02,-3.69 -0.02,-3.68 -0.01,-3.69 -0.02,-3.69 -0.02,-3.69 -0.03,-3.69 -0.02,-3.69 -0.02,-3.69 -0.02,-3.69 -0.02,-3.69 -0.02,-3.68 -0.03,-3.69 -0.02,-3.69 -0.02,-3.69 -0.03,-3.69 -0.02,-3.69 -0.03,-3.69 -0.02,-3.69 -0.03,-3.69 -0.03,-3.69 -0.03,-3.68 -0.03,-3.69 -0.03,-3.69 -0.03,-3.69 -0.03,-3.69 -0.03,-3.69 -0.03,-3.69 -0.03,-3.69 -0.03,-3.69 -0.04,-3.68 -0.03,-3.69 -0.03,-3.69 -0.04,-3.69 -0.03,-3.69 -0.04,-3.69 -0.04,-3.69 -0.04,-3.69 -0.04,-3.69 -0.03,-3.69 -0.05,-3.68 -0.03,-3.7 -0.04,-3.68 -0.05,-3.69 -0.04,-3.69 -0.04,-3.69 -0.05,-3.69 -0.04,-3.69 -0.05,-3.69 -0.04,-3.69 -0.04,-3.68 -0.05,-3.69 -0.05,-3.69 -0.05,-3.69 -0.05,-3.69 -0.04,-3.69 -0.05,-3.69 -0.05,-3.68 -0.06,-3.7 -0.05,-3.68 -0.05,-3.7 -0.05,-3.68 -0.05,-3.69 -0.06,-3.69 -0.05,-3.69 -0.06,-3.69 -0.05,-3.69 -0.06,-3.69 -0.05,-3.69 -0.06,-3.68 -0.05,-3.69 -0.06,-3.69 -0.06,-3.69 -0.06,-3.69 -0.05,-3.69 -0.06,-3.69 -0.06,-3.69 -0.06,-3.69 -0.06,-3.68 -0.06,-3.7 -0.06,-3.68 -0.06,-3.69 -0.06,-3.69 -0.06,-3.69 -0.06,-3.69 -0.06,-3.69 -0.06,-3.69 -0.06,-3.69 -0.06,-3.68 -0.06,-3.69 -0.06,-3.69 -0.06,-3.69 -0.06,-3.69 -0.06,-3.69 -0.06,-3.69 -0.06,-3.69 -0.06,-3.69 -0.06,-3.68 -0.06,-3.69 -0.06,-3.69 -0.06,-3.69 -0.06,-3.69 -0.06,-3.69 -0.05,-3.69 -0.06,-3.69 -0.06,-3.69 -0.06,-3.69 -0.05,-3.68 -0.06,-3.69 -0.05,-3.69 -0.06,-3.69 -0.05,-3.69 -0.06,-3.69 -0.05,-3.69 -0.06,-3.69 -0.05,-3.69 -0.05,-3.68 -0.05,-3.69 -0.06,-3.69 -0.05,-3.69 -0.05,-3.69 -0.04,-3.69 -0.05,-3.69 -0.05,-3.69 -0.05,-3.69 -0.05,-3.69 -0.05,-3.68 -0.04,-3.7 -0.05,-3.68 -0.04,-3.69 -0.05,-3.69 -0.04,-3.69 -0.04,-3.69 -0.04,-3.69 -0.04,-3.69 -0.05,-3.69 -0.04,-3.68 -0.03,-3.69 -0.04,-3.69 -0.04,-3.69 -0.04,-3.69 -0.04,-3.69 -0.03,-3.69 -0.04,-3.68 -0.03,-3.7 -0.04,-3.68 -0.03,-3.7 -0.03,-3.68 -0.04,-3.69 -0.03,-3.69 -0.03,-3.69 -0.03,-3.69 -0.03,-3.69 -0.03,-3.69 -0.03,-3.69 -0.03,-3.68 -0.03,-3.69 -0.02,-3.69 -0.03,-3.69 -0.03,-3.69 -0.02,-3.69 -0.03,-3.69 -0.02,-3.69 -0.02,-3.69 -0.03,-3.68 -0.02,-3.7 -0.02,-3.68 -0.03,-3.69 -0.02,-3.69 -0.02,-3.69 -0.02,-3.69 -0.02,-3.69 -0.02,-3.69 -0.02,-3.69 -0.01,-3.68 -0.02,-3.69 -0.02,-3.69 -0.02,-3.69 -0.01,-3.69 -0.02,-3.69 -0.02,-3.69 -0.01,-3.69 -0.02,-3.69 -0.01,-3.68 -0.02,-3.69 -0.01,-3.69 -0.02,-3.69 -0.01,-3.69 -0.01,-3.69 -0.01,-3.69 -0.02,-3.69 -0.01,-3.69 -0.01,-3.69 -0.01,-3.68 -0.01,-3.69 -0.01,-3.69 -0.01,-3.69 -0.01,-3.69 -0.01,-3.69 -0.01,-3.69 -0.01,-3.69 -0.01,-3.69 -0.01,-3.68 -0.01,-3.69 -0.01,-3.69 v -3.69 l -0.01,-3.69 -0.01,-3.69 -0.01,-3.69 v -3.69 l -0.01,-3.69 -0.01,-3.69 v -3.68 l -0.01,-3.7 v -3.68 l -0.01,-3.69 v -3.69 l -0.01,-3.69 -0.01,-3.69 v -3.69 -3.69 l -0.01,-3.69 v -3.68 l -0.01,-3.69 v -3.69 -3.69 l -0.01,-3.69 v -3.69 l -0.01,-3.69 v -3.68 -3.7 -3.68 -3.7 l -0.01,-3.68 v -3.69 -3.69 -3.69 -3.69 -3.69 -3.69 l -0.01,-3.69 v -3.68 -3.69 -3.69 -3.69 -3.69 -3.69 -3.69 -3.69 -3.69 -3.68 -3.7 -3.68 l 0.01,-3.69 v -3.69 -3.69 -3.69 -3.69 -3.69 -3.69 l 0.01,-3.68 v -3.69 -3.69 -3.69 l 0.01,-3.69 v -3.69 -3.69 l 0.01,-3.69 v -3.69 -3.68 l 0.01,-3.69 0.01,-3.69 v -3.69 -3.69 l 0.01,-3.69 0.01,-3.69 v -3.69 -3.69 l 0.01,-3.69 0.01,-3.68 v -3.69 l 0.01,-3.69 0.01,-3.69 0.01,-3.69 v -3.69 l 0.01,-3.69 0.01,-3.69 0.01,-3.69 0.01,-3.68 v -3.69 l 0.01,-3.69 0.01,-3.69 0.01,-3.69 0.01,-3.69 0.01,-3.69 0.01,-3.69 0.01,-3.69 0.02,-3.69 0.01,-3.68 0.01,-3.7 0.01,-3.68 0.02,-3.69 0.01,-3.69 0.01,-3.69 0.01,-3.69 0.02,-3.69 0.02,-3.69 0.01,-3.68 0.02,-3.69 0.01,-3.69 0.02,-3.69 0.02,-3.69 0.01,-3.69 0.02,-3.69 0.02,-3.69 0.02,-3.68 0.02,-3.7 0.02,-3.68 0.02,-3.7 0.02,-3.68 0.03,-3.69 0.02,-3.69 0.02,-3.69 0.03,-3.69 0.03,-3.69 0.02,-3.69 0.03,-3.69 0.03,-3.68 0.02,-3.69 0.03,-3.69 0.03,-3.69 0.03,-3.69 0.04,-3.69 0.03,-3.69 0.03,-3.69 0.04,-3.69 0.03,-3.68 0.04,-3.7 0.04,-3.68 0.04,-3.69 0.04,-3.69 0.04,-3.69 0.04,-3.69 0.04,-3.69 0.05,-3.69 0.04,-3.69 0.05,-3.68 0.05,-3.69 0.05,-3.69 0.05,-3.69 0.05,-3.69 0.05,-3.69 0.06,-3.69 0.06,-3.69 0.06,-3.69 0.06,-3.68 0.06,-3.69 0.06,-3.69 0.07,-3.69 0.07,-3.69 0.07,-3.69 0.07,-3.69 0.07,-3.69 0.08,-3.69 0.07,-3.69 0.08,-3.68 0.08,-3.69 0.09,-3.69 0.09,-3.69 0.09,-3.69 0.09,-3.69 0.09,-3.69 0.1,-3.69 0.09,-3.69 0.11,-3.68 0.1,-3.69 0.11,-3.69 0.11,-3.69 0.12,-3.69 0.11,-3.69 0.12,-3.69 0.13,-3.69 0.13,-3.69 0.12,-3.69 0.14,-3.68 0.14,-3.69 0.14,-3.69 0.15,-3.69 0.15,-3.69 0.15,-3.69 0.16,-3.69 0.16,-3.69 0.17,-3.69 0.17,-3.68 0.18,-3.69 0.18,-3.69 0.19,-3.69 0.19,-3.69 0.2,-3.69 0.2,-3.69 0.21,-3.69 0.21,-3.68 0.22,-3.7 0.23,-3.68 0.23,-3.7 0.24,-3.68 0.24,-3.69 0.26,-3.69 0.26,-3.69 0.26,-3.69 0.28,-3.69 0.28,-3.69 0.29,-3.69 0.29,-3.68 0.31,-3.69 0.31,-3.69 0.32,-3.69 0.33,-3.69 0.34,-3.69 0.35,-3.69 0.36,-3.69 0.37,-3.69 0.37,-3.68 0.39,-3.7 0.4,-3.68 0.41,-3.69 0.42,-3.69 0.43,-3.69 0.44,-3.69 0.46,-3.69 0.46,-3.69 0.48,-3.69 0.49,-3.68 0.51,-3.69 0.51,-3.69 0.54,-3.69 0.54,-3.69 0.56,-3.69 0.57,-3.69 0.59,-3.69 0.61,-3.69 0.62,-3.68 0.63,-3.69 0.65,-3.69 0.67,-3.69 0.68,-3.69 0.71,-3.69 0.72,-3.69 0.73,-3.69 0.76,-3.69 0.77,-3.69 0.79,-3.68 0.81,-3.69 0.83,-3.69 0.85,-3.69 0.87,-3.69 0.89,-3.69 0.91,-3.69 0.93,-3.69 0.95,-3.69 0.96,-3.68 1,-3.69"
             style="fill:none;stroke:#ff0000;stroke-width:4.16667;stroke-linecap:butt;stroke-linejoin:miter;stroke-miterlimit:1;stroke-dasharray:none;stroke-opacity:1"
             id="path572" /><path
             d="m 1842.48,1109.29 v 0 l 1.01,-3.69 1.03,-3.69 1.05,-3.69 1.07,-3.69 1.1,-3.69 1.11,-3.69 1.13,-3.69 1.16,-3.69 1.17,-3.68 1.19,-3.69 1.2,-3.69 1.23,-3.69 1.23,-3.69 1.26,-3.69 1.26,-3.69 1.28,-3.69 1.29,-3.69 1.3,-3.68 1.3,-3.69 1.31,-3.69 1.3,-3.69 1.31,-3.69 1.3,-3.69 1.29,-3.69 1.27,-3.69 1.26,-3.68 1.24,-3.7 1.21,-3.68 1.17,-3.7 1.13,-3.683 1.09,-3.687 1.03,-3.692 0.97,-3.687 0.9,-3.688 0.82,-3.691 0.73,-3.688 0.62,-3.687 0.52,-3.692 0.39,-3.687 0.25,-3.691 0.1,-3.688 -0.06,-3.687 -0.24,-3.692 -0.42,-3.687 -0.64,-3.688 -0.85,-3.691 -1.09,-3.688 -1.34,-3.691 -1.6,-3.688 -1.88,-3.687 -2.16,-3.692 -2.47,-3.687 -2.78,-3.688 -3.1,-3.691 -3.43,-3.687 -3.76,-3.692 -4.11,-3.687 -4.45,-3.688 -4.79,-3.691 -5.14,-3.688 -5.48,-3.687 -5.82,-3.692 -6.15,-3.687 -6.47,-3.692 -6.79,-3.687 -7.1,-3.688 -7.39,-3.691 -7.67,-3.687 -7.94,-3.688 -8.2,-3.691 -8.44,-3.688 -8.66,-3.691 -8.87,-3.688 -9.08,-3.687 -9.26,-3.692 -9.42,-3.687 -9.58,-3.688 -9.72,-3.691 -9.85,-3.688 -9.98,-3.687 -10.07,-3.692 -10.17,-3.687 -10.26,-3.691 -10.33,-3.688 -10.4,-3.687 -10.45,-3.692 -10.51,-3.687 -10.55,-3.688 -10.59,-3.691 -10.61,-3.688 -10.64,-3.691 -10.66,-3.688 -10.68,-3.687 -10.68,-3.692 -10.7,-3.687 -10.69,-3.688 -10.7,-3.691 -10.7,-3.687 -10.69,-3.692 -10.68,-3.687 -10.67,-3.688 -10.67,-3.691 -10.65,-3.688 -10.63,-3.687 -10.62,-3.692 -10.61,-3.687 -10.59,-3.692 -10.57,-3.687 -10.55,-3.688 -10.53,-3.691 -10.51,-3.687 -10.5,-3.688 -10.47,-3.691 -10.45,-3.688 -10.44,-3.687 -10.41,-3.692 -10.39,-3.687 -10.37,-3.692 -10.35,-3.687 -10.32,-3.688 -10.31,-3.691 -10.29,-3.688 -10.27,-3.687 -10.25,-3.692 -10.23,-3.687 -10.21,-3.691 -10.19,-3.688 -10.17,-3.687 -10.15,-3.692 -10.14,-3.687 -10.12,-3.688 -10.1,-3.691 -10.08,-3.688 -10.07,-3.691 -10.05,-3.688 -10.03,-3.687 -10.02,-3.692 -10,-3.687 -9.99,-3.688 -9.97,-3.691 -9.95,-3.687 -9.94,-3.692 -9.93,-3.687 -9.92,-3.688 -9.9,-3.691 -9.888,-3.688 -9.875,-3.687 -9.863,-3.692 -9.851,-3.687 -9.84,-3.688 -9.825,-3.691 -9.816,-3.688 -9.805,-3.691 -9.793,-3.687 -3.777,-1.422"
             style="fill:none;stroke:#ff0000;stroke-width:4.16667;stroke-linecap:butt;stroke-linejoin:miter;stroke-miterlimit:1;stroke-dasharray:none;stroke-opacity:1"
             id="path574" /><path
             d="m 1814.01,2990.65 v 0 l -0.01,-3.69 v -3.69 l -0.01,-3.68 v -3.7 l -0.01,-3.68 v -3.69 l -0.01,-3.69 -0.01,-3.69 v -3.69 l -0.01,-3.69 -0.01,-3.69 -0.01,-3.69 v -3.68 l -0.01,-3.69 -0.01,-3.69 v -3.69 l -0.01,-3.69 -0.01,-3.69 -0.01,-3.69 -0.01,-3.69 -0.01,-3.69 -0.01,-3.68 -0.01,-3.7 v -3.68 l -0.02,-3.69 v -3.69 l -0.02,-3.69 -0.01,-3.69 -0.01,-3.69 -0.01,-3.69 -0.01,-3.69 -0.01,-3.68 -0.02,-3.69 -0.01,-3.69 -0.01,-3.69 -0.01,-3.69 -0.02,-3.69 -0.01,-3.69 -0.01,-3.69 -0.02,-3.69 -0.01,-3.68 -0.02,-3.7 -0.01,-3.68 -0.02,-3.69 -0.01,-3.69 -0.02,-3.69 -0.02,-3.69 -0.01,-3.69 -0.02,-3.69 -0.02,-3.69 -0.02,-3.68 -0.02,-3.69 -0.02,-3.69 -0.02,-3.69 -0.02,-3.69 -0.02,-3.69 -0.02,-3.69 -0.02,-3.69 -0.02,-3.69 -0.03,-3.68 -0.02,-3.69 -0.02,-3.69 -0.03,-3.69 -0.02,-3.69 -0.03,-3.69 -0.02,-3.69 -0.03,-3.69 -0.03,-3.69 -0.03,-3.69 -0.02,-3.68 -0.03,-3.69 -0.03,-3.69 -0.03,-3.69 -0.03,-3.69 -0.03,-3.69 -0.03,-3.69 -0.04,-3.69 -0.03,-3.69 -0.03,-3.68 -0.04,-3.69 -0.03,-3.69 -0.04,-3.69 -0.03,-3.69 -0.04,-3.69 -0.04,-3.69 -0.04,-3.69 -0.03,-3.69 -0.04,-3.69 -0.04,-3.68 -0.05,-3.7 -0.03,-3.68 -0.05,-3.69 -0.04,-3.69 -0.04,-3.69 -0.05,-3.69 -0.04,-3.69 -0.05,-3.69 -0.04,-3.69 -0.05,-3.68 -0.05,-3.69 -0.04,-3.69 -0.05,-3.69 -0.05,-3.69 -0.05,-3.69 -0.05,-3.69 -0.05,-3.68 -0.05,-3.7 -0.05,-3.68 -0.06,-3.7 -0.05,-3.68 -0.05,-3.69 -0.06,-3.69 -0.05,-3.69 -0.06,-3.69 -0.05,-3.69 -0.06,-3.69 -0.05,-3.69 -0.06,-3.68 -0.05,-3.69 -0.06,-3.69 -0.06,-3.69 -0.06,-3.69 -0.06,-3.69 -0.06,-3.69 -0.05,-3.69 -0.06,-3.69 -0.06,-3.68 -0.06,-3.7 -0.06,-3.68 -0.07,-3.69 -0.05,-3.69 -0.06,-3.69 -0.07,-3.69 -0.06,-3.69 -0.06,-3.69 -0.06,-3.69 -0.06,-3.68 -0.06,-3.69 -0.06,-3.69 -0.06,-3.69 -0.06,-3.69 -0.06,-3.69 -0.06,-3.69 -0.06,-3.69 -0.06,-3.69 -0.06,-3.68 -0.06,-3.69 -0.06,-3.69 -0.06,-3.69 -0.06,-3.69 -0.06,-3.69 -0.06,-3.69 -0.06,-3.69 -0.05,-3.69 -0.06,-3.69 -0.06,-3.68 -0.05,-3.69 -0.06,-3.69 -0.06,-3.69 -0.05,-3.69 -0.06,-3.69 -0.05,-3.69 -0.06,-3.69 -0.05,-3.69 -0.05,-3.68 -0.05,-3.69 -0.05,-3.69 -0.05,-3.69 -0.06,-3.69 -0.05,-3.69 -0.05,-3.69 -0.04,-3.69 -0.05,-3.69 -0.05,-3.69 -0.05,-3.68 -0.05,-3.7 -0.04,-3.68 -0.05,-3.69 -0.04,-3.69 -0.05,-3.69 -0.04,-3.69 -0.04,-3.69 -0.04,-3.69 -0.04,-3.69 -0.04,-3.68 -0.04,-3.69 -0.04,-3.69 -0.04,-3.69 -0.04,-3.69 -0.03,-3.69 -0.04,-3.69 -0.04,-3.68 -0.03,-3.7 -0.04,-3.68 -0.03,-3.7 -0.03,-3.68 -0.04,-3.69 -0.03,-3.69 -0.03,-3.69 -0.03,-3.69 -0.03,-3.69 -0.03,-3.69 -0.03,-3.69 -0.03,-3.68 -0.03,-3.69 -0.03,-3.69 -0.02,-3.69 -0.03,-3.69 -0.02,-3.69 -0.03,-3.69 -0.02,-3.69 -0.03,-3.69 -0.02,-3.68 -0.02,-3.7 -0.02,-3.68 -0.03,-3.69 -0.02,-3.69 -0.02,-3.69 -0.02,-3.69 -0.02,-3.69 -0.02,-3.69 -0.02,-3.69 -0.02,-3.68 -0.02,-3.69 -0.01,-3.69 -0.02,-3.69 -0.02,-3.69 -0.01,-3.69 -0.02,-3.69 -0.02,-3.69 -0.01,-3.69 -0.02,-3.68 -0.01,-3.69 -0.01,-3.69 -0.02,-3.69 -0.01,-3.69 -0.02,-3.69 -0.01,-3.69 -0.01,-3.69 -0.01,-3.69 -0.01,-3.69 -0.02,-3.68 -0.01,-3.69 v -3.69 l -0.02,-3.69 -0.01,-3.69 -0.01,-3.69 -0.01,-3.69 -0.01,-3.69 v -3.69 l -0.01,-3.68 -0.01,-3.69 -0.01,-3.69 -0.01,-3.69 -0.01,-3.69 v -3.69 l -0.01,-3.69 -0.01,-3.69 v -3.69 l -0.01,-3.69 -0.01,-3.68 v -3.7 l -0.01,-3.68 v -3.69 l -0.01,-3.69 v -3.69 l -0.01,-3.69 v -3.69 l -0.01,-3.69 v -3.69 l -0.01,-3.68 v -3.69 -3.69 l -0.01,-3.69 v -3.69 -3.69 l -0.01,-3.69 v -3.68 -3.7 -3.68 -3.7 l -0.01,-3.68 v -3.69 -3.69 -3.69 -3.69 l -0.01,-3.69 v -3.69 -3.69 -3.68 -3.69 -3.69 -3.69 -3.69 -3.69 -3.69 -3.69 -3.69 -3.68 l 0.01,-3.7 v -3.68 -3.69 -3.69 -3.69 l 0.01,-3.69 v -3.69 -3.69 -3.69 -3.68 l 0.01,-3.69 v -3.69 l 0.01,-3.69 v -3.69 -3.69 l 0.01,-3.69 v -3.69 l 0.01,-3.69 v -3.68 l 0.01,-3.69 v -3.69 -3.69 l 0.01,-3.69 0.01,-3.69 v -3.69 l 0.01,-3.69 0.01,-3.69 v -3.69 l 0.01,-3.68 0.01,-3.69 v -3.69 l 0.01,-3.69 0.01,-3.69 0.01,-3.69 0.01,-3.69 0.01,-3.69 0.01,-3.69 0.01,-3.68 0.01,-3.69 0.01,-3.69 0.01,-3.69 0.01,-3.69 0.01,-3.69 0.01,-3.69 0.01,-3.69 0.02,-3.69 0.01,-3.69 0.01,-3.68 0.01,-3.7 0.02,-3.68 0.02,-3.69 0.01,-3.69 0.01,-3.69 0.02,-3.69 0.02,-3.69 0.01,-3.69 0.02,-3.68 0.02,-3.69 0.02,-3.69 0.02,-3.69 0.02,-3.69 0.02,-3.69 0.02,-3.69 0.02,-3.69 0.02,-3.68 0.02,-3.7 0.03,-3.68 0.02,-3.7 0.02,-3.68 0.03,-3.69 0.03,-3.69 0.02,-3.69 0.03,-3.69 0.03,-3.69 0.03,-3.69 0.03,-3.69 0.03,-3.68 0.03,-3.69 0.04,-3.69 0.03,-3.69 0.03,-3.69 0.04,-3.69 0.04,-3.69 0.03,-3.69 0.04,-3.69 0.04,-3.68 0.04,-3.7 0.05,-3.68 0.04,-3.69 0.04,-3.69 0.05,-3.69 0.05,-3.69 0.05,-3.69 0.04,-3.69 0.06,-3.69 0.05,-3.68 0.05,-3.69 0.06,-3.69 0.06,-3.69 0.06,-3.69 0.06,-3.69 0.06,-3.69 0.06,-3.69 0.07,-3.69 0.07,-3.68 0.07,-3.69 0.07,-3.69 0.07,-3.69 0.08,-3.69 0.08,-3.69 0.08,-3.69 0.08,-3.69 0.08,-3.69 0.09,-3.69 0.09,-3.68 0.09,-3.69 0.1,-3.69 0.09,-3.69 0.11,-3.69 0.1,-3.69 0.1,-3.69 0.11,-3.69 0.12,-3.69 0.11,-3.68 0.12,-3.69 0.12,-3.69 0.13,-3.69 0.13,-3.69 0.12,-3.69 0.14,-3.69 0.14,-3.69 0.15,-3.69 0.14,-3.69 0.16,-3.68 0.15,-3.69 0.16,-3.69 0.17,-3.69 0.17,-3.69 0.17,-3.69 0.18,-3.69 0.18,-3.69 0.19,-3.69 0.2,-3.68 0.2,-3.69 0.2,-3.69 0.21,-3.69 0.22,-3.69 0.23,-3.69 0.23,-3.69 0.23,-3.69 0.24,-3.68 0.25,-3.7 0.26,-3.68 0.27,-3.7 0.27,-3.68 0.27,-3.69 0.29,-3.69 0.29,-3.69 0.31,-3.69 0.31,-3.69 0.32,-3.69 0.33,-3.69 0.34,-3.68 0.34,-3.69 0.36,-3.69 0.37,-3.69 0.37,-3.69 0.39,-3.69 0.4,-3.69 0.41,-3.69 0.42,-3.69 0.43,-3.68 0.44,-3.7 0.46,-3.68 0.47,-3.69 0.48,-3.69 0.5,-3.69 0.51,-3.69 0.52,-3.69 0.54,-3.69 0.55,-3.69 0.57,-3.68 0.58,-3.69 0.6,-3.69 0.61,-3.69 0.63,-3.69 0.66,-3.69 0.66,-3.69 0.69,-3.69 0.7,-3.69 0.72,-3.68 0.74,-3.69 0.76,-3.69 0.78,-3.69 0.81,-3.69 0.82,-3.69 0.85,-3.69 0.86,-3.69 0.89,-3.69 0.92,-3.69 0.94,-3.68 0.96,-3.69 0.99,-3.69 1.01,-3.69 1.04,-3.69 1.06,-3.69 1.09,-3.69 1.12,-3.69 1.14,-3.69 1.17,-3.68 1.21,-3.69"
             style="fill:none;stroke:#00afaf;stroke-width:4.16667;stroke-linecap:butt;stroke-linejoin:miter;stroke-miterlimit:1;stroke-dasharray:none;stroke-opacity:1"
             id="path576" /><path
             d="m 1851.36,1109.29 v 0 l 1.23,-3.69 1.25,-3.69 1.29,-3.69 1.32,-3.69 1.35,-3.69 1.38,-3.69 1.4,-3.69 1.44,-3.69 1.47,-3.68 1.49,-3.69 1.53,-3.69 1.56,-3.69 1.58,-3.69 1.62,-3.69 1.63,-3.69 1.67,-3.69 1.69,-3.69 1.71,-3.68 1.74,-3.69 1.75,-3.69 1.78,-3.69 1.79,-3.69 1.79,-3.69 1.81,-3.69 1.82,-3.69 1.81,-3.68 1.81,-3.7 1.8,-3.68 1.78,-3.7 1.76,-3.683 1.73,-3.687 1.7,-3.692 1.64,-3.687 1.59,-3.688 1.53,-3.691 1.44,-3.688 1.35,-3.687 1.25,-3.692 1.12,-3.687 0.99,-3.691 0.84,-3.688 0.67,-3.687 0.48,-3.692 0.27,-3.687 0.05,-3.688 -0.2,-3.691 -0.47,-3.688 -0.75,-3.691 -1.05,-3.688 -1.39,-3.687 -1.72,-3.692 -2.09,-3.687 -2.46,-3.688 -2.85,-3.691 -3.26,-3.687 -3.66,-3.692 -4.09,-3.687 -4.5,-3.688 -4.93,-3.691 -5.35,-3.688 -5.77,-3.687 -6.18,-3.692 -6.58,-3.687 -6.97,-3.692 -7.34,-3.687 -7.7,-3.688 -8.04,-3.691 -8.37,-3.687 -8.67,-3.688 -8.96,-3.691 -9.21,-3.688 -9.46,-3.691 -9.69,-3.688 -9.89,-3.687 -10.08,-3.692 -10.24,-3.687 -10.4,-3.688 -10.53,-3.691 -10.65,-3.688 -10.75,-3.687 -10.84,-3.692 -10.92,-3.687 -10.99,-3.691 -11.04,-3.688 -11.09,-3.687 -11.13,-3.692 -11.15,-3.687 -11.18,-3.688 -11.19,-3.691 -11.2,-3.688 -11.21,-3.691 -11.2,-3.688 -11.2,-3.687 -11.19,-3.692 -11.18,-3.687 -11.16,-3.688 -11.14,-3.691 -11.13,-3.687 -11.1,-3.692 -11.08,-3.687 -11.06,-3.688 -11.02,-3.691 -11,-3.688 -10.98,-3.687 -10.94,-3.692 -10.92,-3.687 -10.88,-3.692 -10.85,-3.687 -10.83,-3.688 -10.8,-3.691 -10.76,-3.687 -10.74,-3.688 -10.7,-3.691 -10.68,-3.688 -10.65,-3.687 -10.61,-3.692 -10.59,-3.687 -10.57,-3.692 -10.53,-3.687 -10.5,-3.688 -10.49,-3.691 -10.44,-3.688 -10.43,-3.687 -10.4,-3.692 -10.38,-3.687 -10.35,-3.691 -10.32,-3.688 -10.31,-3.687 -10.28,-3.692 -10.25,-3.687 -10.24,-3.688 -10.21,-3.691 -10.19,-3.688 -10.17,-3.691 -10.15,-3.688 -10.13,-3.687 -10.11,-3.692 -10.1,-3.687 -10.07,-3.688 -10.06,-3.691 -10.03,-3.687 -10.02,-3.692 -10.01,-3.687 -9.99,-3.688 -9.97,-3.691 -9.956,-3.688 -9.941,-3.687 -9.93,-3.692 -9.914,-3.687 -9.898,-3.688 -9.883,-3.691 -9.871,-3.688 -9.86,-3.691 -9.847,-3.687 -3.793,-1.422"
             style="fill:none;stroke:#00afaf;stroke-width:4.16667;stroke-linecap:butt;stroke-linejoin:miter;stroke-miterlimit:1;stroke-dasharray:none;stroke-opacity:1"
             id="path578" /><path
             d="m 1815.82,2990.65 v 0 l -0.01,-3.69 -0.01,-3.69 v -3.68 l -0.01,-3.7 v -3.68 l -0.01,-3.69 v -3.69 l -0.01,-3.69 -0.01,-3.69 -0.01,-3.69 v -3.69 l -0.01,-3.69 -0.01,-3.68 v -3.69 l -0.01,-3.69 -0.01,-3.69 -0.01,-3.69 v -3.69 l -0.01,-3.69 -0.01,-3.69 -0.01,-3.69 -0.01,-3.68 -0.01,-3.7 -0.01,-3.68 -0.01,-3.69 -0.01,-3.69 -0.01,-3.69 -0.01,-3.69 -0.01,-3.69 -0.01,-3.69 -0.01,-3.69 -0.02,-3.68 -0.01,-3.69 -0.01,-3.69 -0.01,-3.69 -0.02,-3.69 -0.01,-3.69 -0.01,-3.69 -0.02,-3.69 -0.01,-3.69 -0.02,-3.68 -0.01,-3.7 -0.02,-3.68 -0.01,-3.69 -0.02,-3.69 -0.01,-3.69 -0.02,-3.69 -0.02,-3.69 -0.02,-3.69 -0.01,-3.69 -0.02,-3.68 -0.02,-3.69 -0.02,-3.69 -0.02,-3.69 -0.02,-3.69 -0.03,-3.69 -0.02,-3.69 -0.02,-3.69 -0.02,-3.69 -0.02,-3.68 -0.03,-3.69 -0.02,-3.69 -0.03,-3.69 -0.02,-3.69 -0.03,-3.69 -0.02,-3.69 -0.03,-3.69 -0.02,-3.69 -0.03,-3.69 -0.03,-3.68 -0.03,-3.69 -0.03,-3.69 -0.03,-3.69 -0.03,-3.69 -0.03,-3.69 -0.03,-3.69 -0.03,-3.69 -0.04,-3.69 -0.03,-3.68 -0.04,-3.69 -0.03,-3.69 -0.04,-3.69 -0.04,-3.69 -0.03,-3.69 -0.04,-3.69 -0.03,-3.69 -0.04,-3.69 -0.04,-3.69 -0.05,-3.68 -0.03,-3.7 -0.05,-3.68 -0.04,-3.69 -0.04,-3.69 -0.05,-3.69 -0.04,-3.69 -0.04,-3.69 -0.05,-3.69 -0.05,-3.69 -0.04,-3.68 -0.05,-3.69 -0.05,-3.69 -0.04,-3.69 -0.05,-3.69 -0.06,-3.69 -0.04,-3.69 -0.05,-3.68 -0.06,-3.7 -0.05,-3.68 -0.05,-3.7 -0.05,-3.68 -0.06,-3.69 -0.05,-3.69 -0.05,-3.69 -0.06,-3.69 -0.06,-3.69 -0.05,-3.69 -0.06,-3.69 -0.06,-3.68 -0.05,-3.69 -0.06,-3.69 -0.06,-3.69 -0.06,-3.69 -0.06,-3.69 -0.06,-3.69 -0.06,-3.69 -0.05,-3.69 -0.07,-3.68 -0.06,-3.7 -0.05,-3.68 -0.07,-3.69 -0.06,-3.69 -0.06,-3.69 -0.06,-3.69 -0.06,-3.69 -0.06,-3.69 -0.06,-3.69 -0.06,-3.68 -0.06,-3.69 -0.06,-3.69 -0.07,-3.69 -0.06,-3.69 -0.06,-3.69 -0.06,-3.69 -0.06,-3.69 -0.06,-3.69 -0.06,-3.68 -0.06,-3.69 -0.06,-3.69 -0.06,-3.69 -0.06,-3.69 -0.06,-3.69 -0.06,-3.69 -0.06,-3.69 -0.05,-3.69 -0.06,-3.69 -0.06,-3.68 -0.06,-3.69 -0.05,-3.69 -0.06,-3.69 -0.06,-3.69 -0.05,-3.69 -0.05,-3.69 -0.06,-3.69 -0.05,-3.69 -0.06,-3.68 -0.05,-3.69 -0.05,-3.69 -0.05,-3.69 -0.05,-3.69 -0.05,-3.69 -0.05,-3.69 -0.05,-3.69 -0.05,-3.69 -0.04,-3.69 -0.05,-3.68 -0.05,-3.7 -0.04,-3.68 -0.05,-3.69 -0.04,-3.69 -0.05,-3.69 -0.04,-3.69 -0.04,-3.69 -0.05,-3.69 -0.04,-3.69 -0.04,-3.68 -0.04,-3.69 -0.04,-3.69 -0.04,-3.69 -0.03,-3.69 -0.04,-3.69 -0.04,-3.69 -0.03,-3.68 -0.04,-3.7 -0.03,-3.68 -0.04,-3.7 -0.03,-3.68 -0.04,-3.69 -0.03,-3.69 -0.03,-3.69 -0.03,-3.69 -0.03,-3.69 -0.03,-3.69 -0.03,-3.69 -0.03,-3.68 -0.03,-3.69 -0.03,-3.69 -0.02,-3.69 -0.03,-3.69 -0.02,-3.69 -0.03,-3.69 -0.02,-3.69 -0.03,-3.69 -0.02,-3.68 -0.02,-3.7 -0.03,-3.68 -0.02,-3.69 -0.02,-3.69 -0.02,-3.69 -0.02,-3.69 -0.02,-3.69 -0.02,-3.69 -0.02,-3.69 -0.02,-3.68 -0.02,-3.69 -0.02,-3.69 -0.01,-3.69 -0.02,-3.69 -0.02,-3.69 -0.01,-3.69 -0.02,-3.69 -0.02,-3.69 -0.01,-3.68 -0.01,-3.69 -0.02,-3.69 -0.01,-3.69 -0.02,-3.69 -0.01,-3.69 -0.01,-3.69 -0.01,-3.69 -0.01,-3.69 -0.01,-3.69 -0.02,-3.68 -0.01,-3.69 -0.01,-3.69 -0.01,-3.69 -0.01,-3.69 -0.01,-3.69 -0.01,-3.69 -0.01,-3.69 -0.01,-3.69 -0.01,-3.68 v -3.69 l -0.01,-3.69 -0.01,-3.69 -0.01,-3.69 v -3.69 l -0.01,-3.69 -0.01,-3.69 v -3.69 l -0.01,-3.69 -0.01,-3.68 v -3.7 l -0.01,-3.68 -0.01,-3.69 v -3.69 -3.69 l -0.01,-3.69 -0.01,-3.69 v -3.69 -3.69 l -0.01,-3.68 v -3.69 -3.69 l -0.01,-3.69 v -3.69 -3.69 l -0.01,-3.69 v -3.68 -3.7 -3.68 -3.7 l -0.01,-3.68 v -3.69 -3.69 -3.69 -3.69 -3.69 l -0.01,-3.69 v -3.69 -3.68 -3.69 -3.69 -3.69 -3.69 -3.69 l 0.01,-3.69 v -3.69 -3.69 -3.68 -3.7 -3.68 l 0.01,-3.69 v -3.69 -3.69 -3.69 -3.69 l 0.01,-3.69 v -3.69 -3.68 l 0.01,-3.69 v -3.69 -3.69 l 0.01,-3.69 v -3.69 -3.69 l 0.01,-3.69 0.01,-3.69 v -3.68 -3.69 l 0.01,-3.69 0.01,-3.69 v -3.69 l 0.01,-3.69 0.01,-3.69 v -3.69 l 0.01,-3.69 0.01,-3.69 v -3.68 l 0.01,-3.69 0.01,-3.69 0.01,-3.69 0.01,-3.69 0.01,-3.69 0.01,-3.69 0.01,-3.69 0.01,-3.69 0.01,-3.68 0.01,-3.69 0.01,-3.69 0.01,-3.69 0.01,-3.69 0.01,-3.69 0.02,-3.69 0.01,-3.69 0.01,-3.69 0.02,-3.69 0.01,-3.68 0.02,-3.7 0.01,-3.68 0.02,-3.69 0.01,-3.69 0.02,-3.69 0.02,-3.69 0.01,-3.69 0.02,-3.69 0.02,-3.68 0.02,-3.69 0.02,-3.69 0.02,-3.69 0.02,-3.69 0.02,-3.69 0.02,-3.69 0.03,-3.69 0.02,-3.68 0.03,-3.7 0.02,-3.68 0.03,-3.7 0.02,-3.68 0.03,-3.69 0.03,-3.69 0.03,-3.69 0.03,-3.69 0.03,-3.69 0.03,-3.69 0.03,-3.69 0.03,-3.68 0.04,-3.69 0.03,-3.69 0.04,-3.69 0.04,-3.69 0.03,-3.69 0.04,-3.69 0.05,-3.69 0.03,-3.69 0.05,-3.68 0.04,-3.7 0.05,-3.68 0.04,-3.69 0.05,-3.69 0.05,-3.69 0.05,-3.69 0.05,-3.69 0.06,-3.69 0.05,-3.69 0.06,-3.68 0.06,-3.69 0.06,-3.69 0.06,-3.69 0.06,-3.69 0.07,-3.69 0.07,-3.69 0.06,-3.69 0.08,-3.69 0.07,-3.68 0.07,-3.69 0.08,-3.69 0.08,-3.69 0.08,-3.69 0.08,-3.69 0.09,-3.69 0.09,-3.69 0.09,-3.69 0.09,-3.69 0.1,-3.68 0.1,-3.69 0.1,-3.69 0.1,-3.69 0.11,-3.69 0.11,-3.69 0.12,-3.69 0.11,-3.69 0.12,-3.69 0.13,-3.68 0.12,-3.69 0.13,-3.69 0.14,-3.69 0.14,-3.69 0.14,-3.69 0.15,-3.69 0.14,-3.69 0.16,-3.69 0.16,-3.69 0.16,-3.68 0.17,-3.69 0.17,-3.69 0.18,-3.69 0.18,-3.69 0.19,-3.69 0.19,-3.69 0.2,-3.69 0.2,-3.69 0.21,-3.68 0.22,-3.69 0.22,-3.69 0.23,-3.69 0.23,-3.69 0.24,-3.69 0.25,-3.69 0.25,-3.69 0.26,-3.68 0.27,-3.7 0.28,-3.68 0.29,-3.7 0.29,-3.68 0.3,-3.69 0.31,-3.69 0.32,-3.69 0.32,-3.69 0.34,-3.69 0.34,-3.69 0.36,-3.69 0.36,-3.68 0.38,-3.69 0.38,-3.69 0.4,-3.69 0.41,-3.69 0.42,-3.69 0.43,-3.69 0.45,-3.69 0.45,-3.69 0.47,-3.68 0.48,-3.7 0.5,-3.68 0.51,-3.69 0.52,-3.69 0.54,-3.69 0.55,-3.69 0.57,-3.69 0.58,-3.69 0.61,-3.69 0.61,-3.68 0.64,-3.69 0.65,-3.69 0.67,-3.69 0.69,-3.69 0.71,-3.69 0.73,-3.69 0.75,-3.69 0.77,-3.69 0.79,-3.68 0.81,-3.69 0.84,-3.69 0.86,-3.69 0.88,-3.69 0.9,-3.69 0.94,-3.69 0.96,-3.69 0.98,-3.69 1.01,-3.69 1.03,-3.68 1.07,-3.69 1.09,-3.69 1.12,-3.69 1.16,-3.69 1.18,-3.69 1.22,-3.69 1.24,-3.69 1.29,-3.69 1.31,-3.68 1.35,-3.69"
             style="fill:none;stroke:#ff00ff;stroke-width:4.16667;stroke-linecap:butt;stroke-linejoin:miter;stroke-miterlimit:1;stroke-dasharray:none;stroke-opacity:1"
             id="path580" /><path
             d="m 1857.41,1109.29 v 0 l 1.38,-3.69 1.41,-3.69 1.46,-3.69 1.49,-3.69 1.52,-3.69 1.56,-3.69 1.61,-3.69 1.64,-3.69 1.67,-3.68 1.72,-3.69 1.76,-3.69 1.79,-3.69 1.83,-3.69 1.87,-3.69 1.91,-3.69 1.95,-3.69 1.98,-3.69 2.02,-3.68 2.05,-3.69 2.09,-3.69 2.12,-3.69 2.14,-3.69 2.18,-3.69 2.2,-3.69 2.22,-3.69 2.23,-3.68 2.25,-3.7 2.25,-3.68 2.25,-3.7 2.25,-3.683 2.24,-3.687 2.21,-3.692 2.19,-3.687 2.14,-3.688 2.09,-3.691 2.02,-3.688 1.94,-3.687 1.85,-3.692 1.74,-3.687 1.6,-3.691 1.46,-3.688 1.28,-3.687 1.09,-3.692 0.88,-3.687 0.64,-3.688 0.37,-3.691 0.08,-3.688 -0.23,-3.691 -0.58,-3.688 -0.94,-3.687 -1.33,-3.692 -1.75,-3.687 -2.18,-3.688 -2.64,-3.691 -3.1,-3.687 -3.58,-3.692 -4.07,-3.687 -4.57,-3.688 -5.06,-3.691 -5.55,-3.688 -6.04,-3.687 -6.52,-3.692 -6.98,-3.687 -7.41,-3.692 -7.85,-3.687 -8.25,-3.688 -8.62,-3.691 -8.98,-3.687 -9.32,-3.688 -9.61,-3.691 -9.89,-3.688 -10.15,-3.691 -10.37,-3.688 -10.58,-3.687 -10.76,-3.692 -10.92,-3.687 -11.06,-3.688 -11.19,-3.691 -11.28,-3.688 -11.38,-3.687 -11.44,-3.692 -11.51,-3.687 -11.55,-3.691 -11.59,-3.688 -11.62,-3.687 -11.63,-3.692 -11.65,-3.687 -11.64,-3.688 -11.65,-3.691 -11.63,-3.688 -11.62,-3.691 -11.6,-3.688 -11.58,-3.687 -11.55,-3.692 -11.53,-3.687 -11.49,-3.688 -11.46,-3.691 -11.43,-3.687 -11.39,-3.692 -11.36,-3.687 -11.32,-3.688 -11.28,-3.691 -11.25,-3.688 -11.2,-3.687 -11.17,-3.692 -11.12,-3.687 -11.09,-3.692 -11.05,-3.687 -11.01,-3.688 -10.98,-3.691 -10.94,-3.687 -10.89,-3.688 -10.87,-3.691 -10.82,-3.688 -10.79,-3.687 -10.76,-3.692 -10.72,-3.687 -10.69,-3.692 -10.66,-3.687 -10.62,-3.688 -10.59,-3.691 -10.56,-3.688 -10.53,-3.687 -10.5,-3.692 -10.48,-3.687 -10.44,-3.691 -10.41,-3.688 -10.39,-3.687 -10.36,-3.692 -10.34,-3.687 -10.31,-3.688 -10.28,-3.691 -10.27,-3.688 -10.23,-3.691 -10.22,-3.688 -10.19,-3.687 -10.18,-3.692 -10.15,-3.687 -10.13,-3.688 -10.11,-3.691 -10.09,-3.687 -10.07,-3.692 -10.05,-3.687 -10.04,-3.688 -10.02,-3.691 -10,-3.688 -9.981,-3.687 -9.969,-3.692 -9.953,-3.687 -9.938,-3.688 -9.921,-3.691 -9.907,-3.688 -9.894,-3.691 -9.883,-3.687 -3.805,-1.422"
             style="fill:none;stroke:#ff00ff;stroke-width:4.16667;stroke-linecap:butt;stroke-linejoin:miter;stroke-miterlimit:1;stroke-dasharray:none;stroke-opacity:1"
             id="path582" /><path
             d="m 1816.07,2990.65 v 0 -3.69 -3.69 l -0.01,-3.68 -0.01,-3.7 v -3.68 l -0.01,-3.69 v -3.69 l -0.01,-3.69 -0.01,-3.69 v -3.69 l -0.01,-3.69 -0.01,-3.69 v -3.68 l -0.01,-3.69 -0.01,-3.69 -0.01,-3.69 -0.01,-3.69 -0.01,-3.69 v -3.69 l -0.01,-3.69 -0.01,-3.69 -0.01,-3.68 -0.01,-3.7 -0.01,-3.68 -0.01,-3.69 -0.01,-3.69 -0.01,-3.69 -0.01,-3.69 -0.01,-3.69 -0.01,-3.69 -0.02,-3.69 -0.01,-3.68 -0.01,-3.69 -0.01,-3.69 -0.01,-3.69 -0.02,-3.69 -0.01,-3.69 -0.02,-3.69 -0.01,-3.69 -0.01,-3.69 -0.02,-3.68 -0.01,-3.7 -0.02,-3.68 -0.02,-3.69 -0.01,-3.69 -0.02,-3.69 -0.01,-3.69 -0.02,-3.69 -0.02,-3.69 -0.02,-3.69 -0.02,-3.68 -0.02,-3.69 -0.02,-3.69 -0.02,-3.69 -0.01,-3.69 -0.03,-3.69 -0.02,-3.69 -0.02,-3.69 -0.02,-3.69 -0.02,-3.68 -0.03,-3.69 -0.02,-3.69 -0.02,-3.69 -0.03,-3.69 -0.03,-3.69 -0.02,-3.69 -0.03,-3.69 -0.03,-3.69 -0.02,-3.69 -0.03,-3.68 -0.03,-3.69 -0.03,-3.69 -0.03,-3.69 -0.03,-3.69 -0.03,-3.69 -0.04,-3.69 -0.03,-3.69 -0.03,-3.69 -0.03,-3.68 -0.04,-3.69 -0.03,-3.69 -0.04,-3.69 -0.03,-3.69 -0.04,-3.69 -0.04,-3.69 -0.04,-3.69 -0.04,-3.69 -0.04,-3.69 -0.04,-3.68 -0.04,-3.7 -0.04,-3.68 -0.04,-3.69 -0.04,-3.69 -0.05,-3.69 -0.04,-3.69 -0.04,-3.69 -0.05,-3.69 -0.05,-3.69 -0.05,-3.68 -0.04,-3.69 -0.05,-3.69 -0.05,-3.69 -0.05,-3.69 -0.05,-3.69 -0.04,-3.69 -0.06,-3.68 -0.05,-3.7 -0.05,-3.68 -0.05,-3.7 -0.06,-3.68 -0.05,-3.69 -0.06,-3.69 -0.05,-3.69 -0.06,-3.69 -0.05,-3.69 -0.05,-3.69 -0.06,-3.69 -0.06,-3.68 -0.06,-3.69 -0.05,-3.69 -0.06,-3.69 -0.06,-3.69 -0.06,-3.69 -0.06,-3.69 -0.06,-3.69 -0.06,-3.69 -0.06,-3.68 -0.06,-3.7 -0.06,-3.68 -0.06,-3.69 -0.06,-3.69 -0.06,-3.69 -0.06,-3.69 -0.06,-3.69 -0.06,-3.69 -0.07,-3.69 -0.05,-3.68 -0.07,-3.69 -0.06,-3.69 -0.06,-3.69 -0.06,-3.69 -0.06,-3.69 -0.06,-3.69 -0.06,-3.69 -0.06,-3.69 -0.07,-3.68 -0.05,-3.69 -0.07,-3.69 -0.05,-3.69 -0.06,-3.69 -0.06,-3.69 -0.06,-3.69 -0.06,-3.69 -0.06,-3.69 -0.06,-3.69 -0.06,-3.68 -0.05,-3.69 -0.06,-3.69 -0.05,-3.69 -0.06,-3.69 -0.05,-3.69 -0.06,-3.69 -0.05,-3.69 -0.06,-3.69 -0.05,-3.68 -0.05,-3.69 -0.05,-3.69 -0.05,-3.69 -0.05,-3.69 -0.06,-3.69 -0.05,-3.69 -0.04,-3.69 -0.05,-3.69 -0.05,-3.69 -0.05,-3.68 -0.04,-3.7 -0.05,-3.68 -0.04,-3.69 -0.05,-3.69 -0.04,-3.69 -0.05,-3.69 -0.04,-3.69 -0.04,-3.69 -0.05,-3.69 -0.03,-3.68 -0.04,-3.69 -0.04,-3.69 -0.04,-3.69 -0.04,-3.69 -0.04,-3.69 -0.04,-3.69 -0.03,-3.68 -0.04,-3.7 -0.03,-3.68 -0.04,-3.7 -0.03,-3.68 -0.03,-3.69 -0.03,-3.69 -0.03,-3.69 -0.04,-3.69 -0.03,-3.69 -0.03,-3.69 -0.03,-3.69 -0.03,-3.68 -0.02,-3.69 -0.03,-3.69 -0.03,-3.69 -0.02,-3.69 -0.03,-3.69 -0.02,-3.69 -0.03,-3.69 -0.02,-3.69 -0.03,-3.68 -0.02,-3.7 -0.02,-3.68 -0.02,-3.69 -0.03,-3.69 -0.02,-3.69 -0.02,-3.69 -0.02,-3.69 -0.02,-3.69 -0.02,-3.69 -0.01,-3.68 -0.02,-3.69 -0.02,-3.69 -0.02,-3.69 -0.01,-3.69 -0.02,-3.69 -0.02,-3.69 -0.02,-3.69 -0.01,-3.69 -0.01,-3.68 -0.02,-3.69 -0.01,-3.69 -0.02,-3.69 -0.01,-3.69 -0.01,-3.69 -0.02,-3.69 -0.01,-3.69 -0.01,-3.69 -0.01,-3.69 -0.01,-3.68 -0.01,-3.69 -0.02,-3.69 -0.01,-3.69 v -3.69 l -0.02,-3.69 v -3.69 l -0.01,-3.69 -0.01,-3.69 -0.01,-3.68 -0.01,-3.69 -0.01,-3.69 -0.01,-3.69 v -3.69 l -0.01,-3.69 -0.01,-3.69 -0.01,-3.69 v -3.69 l -0.01,-3.69 v -3.68 l -0.01,-3.7 v -3.68 l -0.01,-3.69 -0.01,-3.69 v -3.69 l -0.01,-3.69 v -3.69 l -0.01,-3.69 v -3.69 -3.68 l -0.01,-3.69 v -3.69 -3.69 -3.69 l -0.01,-3.69 v -3.69 l -0.01,-3.68 v -3.7 -3.68 -3.7 -3.68 -3.69 l -0.01,-3.69 v -3.69 -3.69 -3.69 -3.69 -3.69 -3.68 -3.69 -3.69 -3.69 -3.69 -3.69 -3.69 -3.69 -3.69 l 0.01,-3.68 v -3.7 -3.68 -3.69 -3.69 -3.69 -3.69 l 0.01,-3.69 v -3.69 l 0.01,-3.69 v -3.68 -3.69 -3.69 l 0.01,-3.69 v -3.69 -3.69 l 0.01,-3.69 0.01,-3.69 v -3.69 -3.68 l 0.01,-3.69 0.01,-3.69 v -3.69 l 0.01,-3.69 0.01,-3.69 v -3.69 l 0.01,-3.69 0.01,-3.69 v -3.69 l 0.01,-3.68 0.01,-3.69 0.01,-3.69 v -3.69 l 0.02,-3.69 v -3.69 l 0.01,-3.69 0.01,-3.69 0.02,-3.69 v -3.68 l 0.01,-3.69 0.02,-3.69 0.01,-3.69 0.01,-3.69 0.01,-3.69 0.01,-3.69 0.02,-3.69 0.01,-3.69 0.02,-3.69 0.01,-3.68 0.01,-3.7 0.02,-3.68 0.01,-3.69 0.02,-3.69 0.02,-3.69 0.02,-3.69 0.02,-3.69 0.01,-3.69 0.02,-3.68 0.02,-3.69 0.02,-3.69 0.02,-3.69 0.02,-3.69 0.03,-3.69 0.02,-3.69 0.02,-3.69 0.02,-3.68 0.03,-3.7 0.02,-3.68 0.03,-3.7 0.02,-3.68 0.03,-3.69 0.03,-3.69 0.03,-3.69 0.03,-3.69 0.03,-3.69 0.03,-3.69 0.03,-3.69 0.04,-3.68 0.03,-3.69 0.04,-3.69 0.04,-3.69 0.03,-3.69 0.04,-3.69 0.04,-3.69 0.04,-3.69 0.04,-3.69 0.05,-3.68 0.04,-3.7 0.05,-3.68 0.04,-3.69 0.05,-3.69 0.05,-3.69 0.05,-3.69 0.06,-3.69 0.05,-3.69 0.06,-3.69 0.05,-3.68 0.06,-3.69 0.06,-3.69 0.06,-3.69 0.07,-3.69 0.06,-3.69 0.07,-3.69 0.07,-3.69 0.07,-3.69 0.08,-3.68 0.07,-3.69 0.08,-3.69 0.08,-3.69 0.08,-3.69 0.09,-3.69 0.08,-3.69 0.09,-3.69 0.09,-3.69 0.1,-3.69 0.09,-3.68 0.11,-3.69 0.1,-3.69 0.1,-3.69 0.11,-3.69 0.11,-3.69 0.12,-3.69 0.12,-3.69 0.12,-3.69 0.12,-3.68 0.13,-3.69 0.13,-3.69 0.14,-3.69 0.14,-3.69 0.14,-3.69 0.15,-3.69 0.15,-3.69 0.16,-3.69 0.16,-3.69 0.16,-3.68 0.17,-3.69 0.17,-3.69 0.18,-3.69 0.19,-3.69 0.18,-3.69 0.2,-3.69 0.2,-3.69 0.21,-3.69 0.21,-3.68 0.22,-3.69 0.22,-3.69 0.23,-3.69 0.24,-3.69 0.24,-3.69 0.25,-3.69 0.26,-3.69 0.26,-3.68 0.27,-3.7 0.28,-3.68 0.29,-3.7 0.29,-3.68 0.31,-3.69 0.31,-3.69 0.32,-3.69 0.33,-3.69 0.34,-3.69 0.35,-3.69 0.36,-3.69 0.36,-3.68 0.39,-3.69 0.38,-3.69 0.41,-3.69 0.41,-3.69 0.42,-3.69 0.44,-3.69 0.45,-3.69 0.46,-3.69 0.47,-3.68 0.49,-3.7 0.5,-3.68 0.51,-3.69 0.53,-3.69 0.55,-3.69 0.56,-3.69 0.57,-3.69 0.59,-3.69 0.61,-3.69 0.63,-3.68 0.64,-3.69 0.66,-3.69 0.68,-3.69 0.7,-3.69 0.72,-3.69 0.73,-3.69 0.76,-3.69 0.78,-3.69 0.8,-3.68 0.82,-3.69 0.85,-3.69 0.87,-3.69 0.89,-3.69 0.92,-3.69 0.94,-3.69 0.97,-3.69 1,-3.69 1.02,-3.69 1.05,-3.68 1.08,-3.69 1.11,-3.69 1.14,-3.69 1.17,-3.69 1.2,-3.69 1.24,-3.69 1.26,-3.69 1.3,-3.69 1.33,-3.68 1.37,-3.69"
             style="fill:none;stroke:#808080;stroke-width:4.16667;stroke-linecap:butt;stroke-linejoin:miter;stroke-miterlimit:1;stroke-dasharray:none;stroke-opacity:1"
             id="path584" /><path
             d="m 1858.26,1109.29 v 0 l 1.4,-3.69 1.44,-3.69 1.48,-3.69 1.51,-3.69 1.55,-3.69 1.59,-3.69 1.63,-3.69 1.67,-3.69 1.71,-3.68 1.74,-3.69 1.79,-3.69 1.83,-3.69 1.87,-3.69 1.91,-3.69 1.94,-3.69 1.99,-3.69 2.03,-3.69 2.06,-3.68 2.1,-3.69 2.14,-3.69 2.16,-3.69 2.21,-3.69 2.22,-3.69 2.26,-3.69 2.28,-3.69 2.3,-3.68 2.31,-3.7 2.32,-3.68 2.33,-3.7 2.32,-3.683 2.31,-3.687 2.29,-3.692 2.27,-3.687 2.23,-3.688 2.17,-3.691 2.11,-3.688 2.04,-3.687 1.94,-3.692 1.83,-3.687 1.69,-3.691 1.56,-3.688 1.38,-3.687 1.19,-3.692 0.97,-3.687 0.73,-3.688 0.47,-3.691 0.17,-3.688 -0.15,-3.691 -0.5,-3.688 -0.87,-3.687 -1.27,-3.692 -1.7,-3.687 -2.13,-3.688 -2.6,-3.691 -3.08,-3.687 -3.57,-3.692 -4.07,-3.687 -4.58,-3.688 -5.08,-3.691 -5.59,-3.688 -6.08,-3.687 -6.57,-3.692 -7.04,-3.687 -7.5,-3.692 -7.93,-3.687 -8.33,-3.688 -8.72,-3.691 -9.08,-3.687 -9.42,-3.688 -9.71,-3.691 -10,-3.688 -10.26,-3.691 -10.48,-3.688 -10.69,-3.687 -10.86,-3.692 -11.03,-3.687 -11.16,-3.688 -11.28,-3.691 -11.39,-3.688 -11.46,-3.687 -11.54,-3.692 -11.6,-3.687 -11.64,-3.691 -11.67,-3.688 -11.69,-3.687 -11.72,-3.692 -11.71,-3.687 -11.72,-3.688 -11.7,-3.691 -11.7,-3.688 -11.68,-3.691 -11.66,-3.688 -11.63,-3.687 -11.61,-3.692 -11.57,-3.687 -11.54,-3.688 -11.51,-3.691 -11.47,-3.687 -11.44,-3.692 -11.4,-3.687 -11.35,-3.688 -11.32,-3.691 -11.28,-3.688 -11.23,-3.687 -11.2,-3.692 -11.16,-3.687 -11.12,-3.692 -11.07,-3.687 -11.04,-3.688 -11,-3.691 -10.96,-3.687 -10.93,-3.688 -10.88,-3.691 -10.85,-3.688 -10.81,-3.687 -10.77,-3.692 -10.74,-3.687 -10.71,-3.692 -10.67,-3.687 -10.64,-3.688 -10.61,-3.691 -10.57,-3.688 -10.55,-3.687 -10.51,-3.692 -10.49,-3.687 -10.45,-3.691 -10.43,-3.688 -10.4,-3.687 -10.37,-3.692 -10.35,-3.687 -10.32,-3.688 -10.3,-3.691 -10.27,-3.688 -10.25,-3.691 -10.22,-3.688 -10.2,-3.687 -10.18,-3.692 -10.16,-3.687 -10.14,-3.688 -10.12,-3.691 -10.1,-3.687 -10.08,-3.692 -10.06,-3.687 -10.04,-3.688 -10.02,-3.691 -10.01,-3.688 -9.992,-3.687 -9.972,-3.692 -9.957,-3.687 -9.942,-3.688 -9.929,-3.691 -9.91,-3.688 -9.903,-3.691 -9.883,-3.687 -3.808,-1.422"
             style="fill:none;stroke:#808080;stroke-width:4.16667;stroke-linecap:butt;stroke-linejoin:miter;stroke-miterlimit:1;stroke-dasharray:none;stroke-opacity:1"
             id="path586" /></g></g></g></g></svg>
