<?xml version="1.0" encoding="UTF-8" standalone="no"?>
<svg
   xmlns:dc="http://purl.org/dc/elements/1.1/"
   xmlns:cc="http://creativecommons.org/ns#"
   xmlns:rdf="http://www.w3.org/1999/02/22-rdf-syntax-ns#"
   xmlns:svg="http://www.w3.org/2000/svg"
   xmlns="http://www.w3.org/2000/svg"
   version="1.1"
   id="svg10"
   xml:space="preserve"
   width="766.11243"
   height="234.13348"
   viewBox="0 0 919.3349 280.96018"><metadata
     id="metadata16"><rdf:RDF><cc:Work
         rdf:about=""><dc:format>image/svg+xml</dc:format><dc:type
           rdf:resource="http://purl.org/dc/dcmitype/StillImage" /><dc:title></dc:title></cc:Work></rdf:RDF></metadata><defs
     id="defs14"><clipPath
       clipPathUnits="userSpaceOnUse"
       id="clipPath28"><path
         d="m 375,299.582 h 1729.17 v 2908.34 H 375 Z"
         id="path26" /></clipPath></defs><g
     id="g18"
     transform="matrix(0,-1.3333333,-1.3333333,0,1018.7534,538.65478)"><g
       id="g20"
       transform="scale(0.24)"><g
         id="g22"><g
           id="g24"
           clip-path="url(#clipPath28)"><path
             d="m 1554.52,2845.26 v 20.87"
             style="fill:none;stroke:#ffffff;stroke-width:4.16667;stroke-linecap:butt;stroke-linejoin:miter;stroke-miterlimit:10;stroke-dasharray:none;stroke-opacity:1"
             id="path30" /><path
             d="m 1598.88,2829.6 -44.36,15.66"
             style="fill:none;stroke:#ffffff;stroke-width:4.16667;stroke-linecap:butt;stroke-linejoin:miter;stroke-miterlimit:10;stroke-dasharray:none;stroke-opacity:1"
             id="path32" /><path
             d="m 1510.16,2803.51 88.72,26.09"
             style="fill:none;stroke:#ffffff;stroke-width:4.16667;stroke-linecap:butt;stroke-linejoin:miter;stroke-miterlimit:10;stroke-dasharray:none;stroke-opacity:1"
             id="path34" /><path
             d="m 1598.88,2769.59 -88.72,33.92"
             style="fill:none;stroke:#ffffff;stroke-width:4.16667;stroke-linecap:butt;stroke-linejoin:miter;stroke-miterlimit:10;stroke-dasharray:none;stroke-opacity:1"
             id="path36" /><path
             d="m 1512.77,2740.88 86.11,28.71"
             style="fill:none;stroke:#ffffff;stroke-width:4.16667;stroke-linecap:butt;stroke-linejoin:miter;stroke-miterlimit:10;stroke-dasharray:none;stroke-opacity:1"
             id="path38" /><path
             d="m 1554.52,2699.13 v 20.88"
             style="fill:none;stroke:#ffffff;stroke-width:4.16667;stroke-linecap:butt;stroke-linejoin:miter;stroke-miterlimit:10;stroke-dasharray:none;stroke-opacity:1"
             id="path40" /><path
             d="m 1554.52,2720.01 -41.75,20.87"
             style="fill:none;stroke:#ffffff;stroke-width:4.16667;stroke-linecap:butt;stroke-linejoin:miter;stroke-miterlimit:10;stroke-dasharray:none;stroke-opacity:1"
             id="path42" /><g
             id="g44"
             transform="scale(4.16667)"><text
               transform="matrix(0,-1,-1,0,392.507,679.727)"
               style="font-variant:normal;font-weight:normal;font-size:13.7774px;font-family:Geneva;-inkscape-font-specification:Geneva;writing-mode:lr-tb;fill:#999999;fill-opacity:1;fill-rule:nonzero;stroke:none"
               id="text50"><tspan
                 x="0 8.3491039"
                 y="0"
                 id="tspan46">R1</tspan><tspan
                 x="0.93468797 10.117358"
                 y="44.462799"
                 id="tspan48">7k</tspan></text></g><path
             d="m 1491.89,2198.14 h 20.88"
             style="fill:none;stroke:#ffffff;stroke-width:4.16667;stroke-linecap:butt;stroke-linejoin:miter;stroke-miterlimit:10;stroke-dasharray:none;stroke-opacity:1"
             id="path52" /><path
             d="m 1476.23,2153.78 15.66,44.36"
             style="fill:none;stroke:#ffffff;stroke-width:4.16667;stroke-linecap:butt;stroke-linejoin:miter;stroke-miterlimit:10;stroke-dasharray:none;stroke-opacity:1"
             id="path54" /><path
             d="m 1450.14,2242.5 26.09,-88.72"
             style="fill:none;stroke:#ffffff;stroke-width:4.16667;stroke-linecap:butt;stroke-linejoin:miter;stroke-miterlimit:10;stroke-dasharray:none;stroke-opacity:1"
             id="path56" /><path
             d="m 1416.22,2153.78 33.92,88.72"
             style="fill:none;stroke:#ffffff;stroke-width:4.16667;stroke-linecap:butt;stroke-linejoin:miter;stroke-miterlimit:10;stroke-dasharray:none;stroke-opacity:1"
             id="path58" /><path
             d="m 1387.52,2239.89 28.7,-86.11"
             style="fill:none;stroke:#ffffff;stroke-width:4.16667;stroke-linecap:butt;stroke-linejoin:miter;stroke-miterlimit:10;stroke-dasharray:none;stroke-opacity:1"
             id="path60" /><path
             d="m 1345.77,2198.14 h 20.87"
             style="fill:none;stroke:#ffffff;stroke-width:4.16667;stroke-linecap:butt;stroke-linejoin:miter;stroke-miterlimit:10;stroke-dasharray:none;stroke-opacity:1"
             id="path62" /><path
             d="m 1366.64,2198.14 20.88,41.75"
             style="fill:none;stroke:#ffffff;stroke-width:4.16667;stroke-linecap:butt;stroke-linejoin:miter;stroke-miterlimit:10;stroke-dasharray:none;stroke-opacity:1"
             id="path64" /><g
             id="g66"
             transform="scale(4.16667)"><text
               transform="matrix(0,-1,-1,0,333.014,557.61)"
               style="font-variant:normal;font-weight:normal;font-size:13.7774px;font-family:Geneva;-inkscape-font-specification:Geneva;writing-mode:lr-tb;fill:#999999;fill-opacity:1;fill-rule:nonzero;stroke:none"
               id="text72"><tspan
                 x="0 8.3491039"
                 y="0"
                 id="tspan68">R2</tspan><tspan
                 x="-17.43 -8.2473297 0.93534064 10.117952"
                 y="-12.525"
                 id="tspan70">250k</tspan></text></g><path
             d="m 1491.89,1947.64 h 20.88"
             style="fill:none;stroke:#ffffff;stroke-width:4.16667;stroke-linecap:butt;stroke-linejoin:miter;stroke-miterlimit:10;stroke-dasharray:none;stroke-opacity:1"
             id="path74" /><path
             d="m 1476.23,1903.28 15.66,44.36"
             style="fill:none;stroke:#ffffff;stroke-width:4.16667;stroke-linecap:butt;stroke-linejoin:miter;stroke-miterlimit:10;stroke-dasharray:none;stroke-opacity:1"
             id="path76" /><path
             d="m 1450.14,1992 26.09,-88.72"
             style="fill:none;stroke:#ffffff;stroke-width:4.16667;stroke-linecap:butt;stroke-linejoin:miter;stroke-miterlimit:10;stroke-dasharray:none;stroke-opacity:1"
             id="path78" /><path
             d="m 1416.22,1903.28 33.92,88.72"
             style="fill:none;stroke:#ffffff;stroke-width:4.16667;stroke-linecap:butt;stroke-linejoin:miter;stroke-miterlimit:10;stroke-dasharray:none;stroke-opacity:1"
             id="path80" /><path
             d="m 1387.52,1989.39 28.7,-86.11"
             style="fill:none;stroke:#ffffff;stroke-width:4.16667;stroke-linecap:butt;stroke-linejoin:miter;stroke-miterlimit:10;stroke-dasharray:none;stroke-opacity:1"
             id="path82" /><path
             d="m 1345.77,1947.64 h 20.87"
             style="fill:none;stroke:#ffffff;stroke-width:4.16667;stroke-linecap:butt;stroke-linejoin:miter;stroke-miterlimit:10;stroke-dasharray:none;stroke-opacity:1"
             id="path84" /><path
             d="m 1366.64,1947.64 20.88,41.75"
             style="fill:none;stroke:#ffffff;stroke-width:4.16667;stroke-linecap:butt;stroke-linejoin:miter;stroke-miterlimit:10;stroke-dasharray:none;stroke-opacity:1"
             id="path86" /><g
             id="g88"
             transform="scale(4.16667)"><text
               transform="matrix(0,-1,-1,0,333.014,497.49)"
               style="font-variant:normal;font-weight:normal;font-size:13.7774px;font-family:Geneva;-inkscape-font-specification:Geneva;writing-mode:lr-tb;fill:#999999;fill-opacity:1;fill-rule:nonzero;stroke:none"
               id="text94"><tspan
                 x="0 8.3491039"
                 y="0"
                 id="tspan90">R3</tspan><tspan
                 x="8.3484402"
                 y="-12.525"
                 id="tspan92">1</tspan></text></g><path
             d="m 1241.39,1947.64 h 20.88"
             style="fill:none;stroke:#ffffff;stroke-width:4.16667;stroke-linecap:butt;stroke-linejoin:miter;stroke-miterlimit:10;stroke-dasharray:none;stroke-opacity:1"
             id="path96" /><path
             d="m 1225.74,1903.28 15.65,44.36"
             style="fill:none;stroke:#ffffff;stroke-width:4.16667;stroke-linecap:butt;stroke-linejoin:miter;stroke-miterlimit:10;stroke-dasharray:none;stroke-opacity:1"
             id="path98" /><path
             d="m 1199.64,1992 26.1,-88.72"
             style="fill:none;stroke:#ffffff;stroke-width:4.16667;stroke-linecap:butt;stroke-linejoin:miter;stroke-miterlimit:10;stroke-dasharray:none;stroke-opacity:1"
             id="path100" /><path
             d="m 1165.72,1903.28 33.92,88.72"
             style="fill:none;stroke:#ffffff;stroke-width:4.16667;stroke-linecap:butt;stroke-linejoin:miter;stroke-miterlimit:10;stroke-dasharray:none;stroke-opacity:1"
             id="path102" /><path
             d="m 1137.02,1989.39 28.7,-86.11"
             style="fill:none;stroke:#ffffff;stroke-width:4.16667;stroke-linecap:butt;stroke-linejoin:miter;stroke-miterlimit:10;stroke-dasharray:none;stroke-opacity:1"
             id="path104" /><path
             d="m 1095.27,1947.64 h 20.87"
             style="fill:none;stroke:#ffffff;stroke-width:4.16667;stroke-linecap:butt;stroke-linejoin:miter;stroke-miterlimit:10;stroke-dasharray:none;stroke-opacity:1"
             id="path106" /><path
             d="m 1116.14,1947.64 20.88,41.75"
             style="fill:none;stroke:#ffffff;stroke-width:4.16667;stroke-linecap:butt;stroke-linejoin:miter;stroke-miterlimit:10;stroke-dasharray:none;stroke-opacity:1"
             id="path108" /><g
             id="g110"
             transform="scale(4.16667)"><text
               transform="matrix(0,-1,-1,0,272.895,497.49)"
               style="font-variant:normal;font-weight:normal;font-size:13.7774px;font-family:Geneva;-inkscape-font-specification:Geneva;writing-mode:lr-tb;fill:#999999;fill-opacity:1;fill-rule:nonzero;stroke:none"
               id="text116"><tspan
                 x="0 8.3491039"
                 y="0"
                 id="tspan112">R4</tspan><tspan
                 x="-17.43 -8.2473297 0.93534064 10.117952"
                 y="-12.5241"
                 id="tspan114">250k</tspan></text></g><path
             d="m 1241.39,1530.14 h 20.88"
             style="fill:none;stroke:#ffffff;stroke-width:4.16667;stroke-linecap:butt;stroke-linejoin:miter;stroke-miterlimit:10;stroke-dasharray:none;stroke-opacity:1"
             id="path118" /><path
             d="m 1225.74,1485.79 15.65,44.35"
             style="fill:none;stroke:#ffffff;stroke-width:4.16667;stroke-linecap:butt;stroke-linejoin:miter;stroke-miterlimit:10;stroke-dasharray:none;stroke-opacity:1"
             id="path120" /><path
             d="m 1199.64,1574.5 26.1,-88.71"
             style="fill:none;stroke:#ffffff;stroke-width:4.16667;stroke-linecap:butt;stroke-linejoin:miter;stroke-miterlimit:10;stroke-dasharray:none;stroke-opacity:1"
             id="path122" /><path
             d="m 1165.72,1485.79 33.92,88.71"
             style="fill:none;stroke:#ffffff;stroke-width:4.16667;stroke-linecap:butt;stroke-linejoin:miter;stroke-miterlimit:10;stroke-dasharray:none;stroke-opacity:1"
             id="path124" /><path
             d="m 1137.02,1571.89 28.7,-86.1"
             style="fill:none;stroke:#ffffff;stroke-width:4.16667;stroke-linecap:butt;stroke-linejoin:miter;stroke-miterlimit:10;stroke-dasharray:none;stroke-opacity:1"
             id="path126" /><path
             d="m 1095.27,1530.14 h 20.87"
             style="fill:none;stroke:#ffffff;stroke-width:4.16667;stroke-linecap:butt;stroke-linejoin:miter;stroke-miterlimit:10;stroke-dasharray:none;stroke-opacity:1"
             id="path128" /><path
             d="m 1116.14,1530.14 20.88,41.75"
             style="fill:none;stroke:#ffffff;stroke-width:4.16667;stroke-linecap:butt;stroke-linejoin:miter;stroke-miterlimit:10;stroke-dasharray:none;stroke-opacity:1"
             id="path130" /><g
             id="g132"
             transform="scale(4.16667)"><text
               transform="matrix(0,-1,-1,0,283.54,352.828)"
               style="font-variant:normal;font-weight:normal;font-size:13.7774px;font-family:Geneva;-inkscape-font-specification:Geneva;writing-mode:lr-tb;fill:#999999;fill-opacity:1;fill-rule:nonzero;stroke:none"
               id="text138"><tspan
                 x="0 8.3491039"
                 y="0"
                 id="tspan134">R5</tspan><tspan
                 x="-1.30313 4.9063463 13.255451 21.187103 29.536207 36.532372 45.714985 54.897625 65.755592 73.687248 82.09008"
                 y="16.281601"
                 id="tspan136">{RES*10Meg}</tspan></text></g><path
             d="m 1584.04,2523.49 -4.65,-4.01 -5.19,-3.29 -5.62,-2.49 -5.92,-1.64 -6.1,-0.75 -6.14,0.15 -6.05,1.05 -5.83,1.93 -5.49,2.76 -5.02,3.54 -4.45,4.23 -3.78,4.85 -3.03,5.34 -2.21,5.73 -1.34,6 -0.45,6.12 0.45,6.13 1.34,5.99 2.21,5.73 3.03,5.35 3.78,4.84 4.45,4.24 5.02,3.53 5.49,2.76 5.83,1.93 6.05,1.05 6.14,0.15 6.1,-0.75 5.92,-1.64 5.62,-2.49 5.19,-3.29 4.65,-4.01"
             style="fill:none;stroke:#ffffff;stroke-width:4.16667;stroke-linecap:butt;stroke-linejoin:miter;stroke-miterlimit:10;stroke-dasharray:none;stroke-opacity:1"
             id="path140" /><path
             d="m 1584.04,2586.11 -3.84,-3.39 -4.22,-2.9 -4.55,-2.35 -4.8,-1.79 -4.98,-1.18 -5.09,-0.56 -5.11,0.06 -5.08,0.69 -4.95,1.3 -4.76,1.9 -4.48,2.47 -4.15,3 -3.75,3.49 -3.3,3.92 -2.79,4.29 -2.24,4.6 -1.67,4.84 -1.06,5.01 -0.44,5.1 0.18,5.12 0.82,5.05 1.43,4.92 2.01,4.71 2.58,4.42 3.1,4.08 3.58,3.66 4,3.2 4.36,2.69 4.65,2.13 4.88,1.54 5.04,0.94 5.11,0.32"
             style="fill:none;stroke:#ffffff;stroke-width:4.16667;stroke-linecap:butt;stroke-linejoin:miter;stroke-miterlimit:10;stroke-dasharray:none;stroke-opacity:1"
             id="path142" /><path
             d="m 1554.52,2448.64 -5.11,0.31 -5.04,0.94 -4.88,1.54 -4.65,2.14 -4.36,2.68 -4,3.2 -3.58,3.67 -3.1,4.07 -2.58,4.43 -2.01,4.7 -1.43,4.92 -0.82,5.05 -0.18,5.12 0.44,5.1 1.06,5.01 1.67,4.84 2.24,4.6 2.79,4.3 3.3,3.92 3.75,3.48 4.15,3 4.48,2.47 4.76,1.9 4.95,1.3 5.08,0.69 5.11,0.07 5.09,-0.57 4.98,-1.18 4.8,-1.79 4.55,-2.35 4.22,-2.9 3.84,-3.39"
             style="fill:none;stroke:#ffffff;stroke-width:4.16667;stroke-linecap:butt;stroke-linejoin:miter;stroke-miterlimit:10;stroke-dasharray:none;stroke-opacity:1"
             id="path144" /><g
             id="g146"
             transform="scale(4.16667)"><text
               transform="matrix(0,-1,-1,0,383.973,621.334)"
               style="font-variant:normal;font-weight:normal;font-size:13.7774px;font-family:Geneva;-inkscape-font-specification:Geneva;writing-mode:lr-tb;fill:#999999;fill-opacity:1;fill-rule:nonzero;stroke:none"
               id="text152"><tspan
                 x="0 8.0391378"
                 y="0"
                 id="tspan148">L1</tspan><tspan
                 x="-7.4099998 1.7726703 5.9540782 15.136748"
                 y="34.908798"
                 id="tspan150">2.5H</tspan></text></g><path
             d="m 1168.33,2198.14 h -73.06"
             style="fill:none;stroke:#ffffff;stroke-width:4.16667;stroke-linecap:butt;stroke-linejoin:miter;stroke-miterlimit:10;stroke-dasharray:none;stroke-opacity:1"
             id="path154" /><path
             d="m 1189.21,2198.14 h 73.06"
             style="fill:none;stroke:#ffffff;stroke-width:4.16667;stroke-linecap:butt;stroke-linejoin:miter;stroke-miterlimit:10;stroke-dasharray:none;stroke-opacity:1"
             id="path156" /><path
             d="m 1189.21,2239.89 v -83.5"
             style="fill:none;stroke:#ffffff;stroke-width:4.16667;stroke-linecap:butt;stroke-linejoin:miter;stroke-miterlimit:10;stroke-dasharray:none;stroke-opacity:1"
             id="path158" /><path
             d="m 1168.33,2239.89 v -83.5"
             style="fill:none;stroke:#ffffff;stroke-width:4.16667;stroke-linecap:butt;stroke-linejoin:miter;stroke-miterlimit:10;stroke-dasharray:none;stroke-opacity:1"
             id="path160" /><g
             id="g162"
             transform="scale(4.16667)"><text
               transform="matrix(0,-1,-1,0,292.308,550.724)"
               style="font-variant:normal;font-weight:normal;font-size:13.7774px;font-family:Geneva;-inkscape-font-specification:Geneva;writing-mode:lr-tb;fill:#999999;fill-opacity:1;fill-rule:nonzero;stroke:none"
               id="text168"><tspan
                 x="0 8.9745951"
                 y="0"
                 id="tspan164">C1</tspan><tspan
                 x="-28.181299 -24.003994 -14.825483 -5.6469736 3.524857 11.676792"
                 y="28.1803"
                 id="tspan166">.047µF</tspan></text></g><path
             d="m 1168.33,1780.64 h -73.06"
             style="fill:none;stroke:#ffffff;stroke-width:4.16667;stroke-linecap:butt;stroke-linejoin:miter;stroke-miterlimit:10;stroke-dasharray:none;stroke-opacity:1"
             id="path170" /><path
             d="m 1189.21,1780.64 h 73.06"
             style="fill:none;stroke:#ffffff;stroke-width:4.16667;stroke-linecap:butt;stroke-linejoin:miter;stroke-miterlimit:10;stroke-dasharray:none;stroke-opacity:1"
             id="path172" /><path
             d="m 1189.21,1822.39 v -83.5"
             style="fill:none;stroke:#ffffff;stroke-width:4.16667;stroke-linecap:butt;stroke-linejoin:miter;stroke-miterlimit:10;stroke-dasharray:none;stroke-opacity:1"
             id="path174" /><path
             d="m 1168.33,1822.39 v -83.5"
             style="fill:none;stroke:#ffffff;stroke-width:4.16667;stroke-linecap:butt;stroke-linejoin:miter;stroke-miterlimit:10;stroke-dasharray:none;stroke-opacity:1"
             id="path176" /><g
             id="g178"
             transform="scale(4.16667)"><text
               transform="matrix(0,-1,-1,0,292.934,422.345)"
               style="font-variant:normal;font-weight:normal;font-size:13.7774px;font-family:Geneva;-inkscape-font-specification:Geneva;writing-mode:lr-tb;fill:#999999;fill-opacity:1;fill-rule:nonzero;stroke:none"
               id="text184"><tspan
                 x="0 8.9745951"
                 y="0"
                 id="tspan180">C2</tspan><tspan
                 x="0 9.182641 18.365253 27.547894 35.848774"
                 y="30.059099"
                 id="tspan182">390pF</tspan></text></g><path
             d="m 1304.02,3001.82 v -20.87"
             style="fill:none;stroke:#ffffff;stroke-width:4.16667;stroke-linecap:butt;stroke-linejoin:miter;stroke-miterlimit:10;stroke-dasharray:none;stroke-opacity:1"
             id="path186" /><path
             d="m 1178.77,3001.82 v -20.87"
             style="fill:none;stroke:#ffffff;stroke-width:4.16667;stroke-linecap:butt;stroke-linejoin:miter;stroke-miterlimit:10;stroke-dasharray:none;stroke-opacity:1"
             id="path188" /><path
             d="m 1314.45,2991.38 h -20.87"
             style="fill:none;stroke:#ffffff;stroke-width:4.16667;stroke-linecap:butt;stroke-linejoin:miter;stroke-miterlimit:10;stroke-dasharray:none;stroke-opacity:1"
             id="path190" /><path
             d="m 1137.02,2991.38 h 20.87"
             style="fill:none;stroke:#ffffff;stroke-width:4.16667;stroke-linecap:butt;stroke-linejoin:miter;stroke-miterlimit:10;stroke-dasharray:none;stroke-opacity:1"
             id="path192" /><path
             d="m 1345.77,2991.38 h -20.88"
             style="fill:none;stroke:#ffffff;stroke-width:4.16667;stroke-linecap:butt;stroke-linejoin:miter;stroke-miterlimit:10;stroke-dasharray:none;stroke-opacity:1"
             id="path194" /><path
             d="m 1300.44,2932.34 c -32.61,-32.61 -85.48,-32.61 -118.09,0 -32.61,32.61 -32.61,85.48 0,118.09 32.61,32.61 85.48,32.61 118.09,0 32.6,-32.61 32.6,-85.48 0,-118.09"
             style="fill:none;stroke:#ffffff;stroke-width:4.16667;stroke-linecap:butt;stroke-linejoin:miter;stroke-miterlimit:10;stroke-dasharray:none;stroke-opacity:1"
             id="path196" /><path
             d="m 1241.39,2928.76 -3.07,0.15 -3.03,0.45 -2.99,0.75 -2.89,1.03 -2.78,1.31 -2.63,1.59 -2.47,1.82 -2.28,2.07 -2.06,2.28 -1.83,2.46 -1.58,2.64 -1.32,2.78 -1.03,2.89 -0.75,2.98 -0.45,3.04 -0.15,3.07 0.15,3.07 0.45,3.04 0.75,2.98 1.03,2.89 1.32,2.78 1.58,2.63 1.83,2.47 2.06,2.28 2.28,2.06 2.47,1.84 2.63,1.57 2.78,1.32 2.89,1.04 2.99,0.74 3.03,0.45 3.07,0.15"
             style="fill:none;stroke:#ffffff;stroke-width:4.16667;stroke-linecap:butt;stroke-linejoin:miter;stroke-miterlimit:10;stroke-dasharray:none;stroke-opacity:1"
             id="path198" /><path
             d="m 1241.39,3054.01 3.07,-0.15 3.04,-0.45 2.98,-0.75 2.9,-1.04 2.77,-1.31 2.64,-1.58 2.47,-1.83 2.28,-2.06 2.06,-2.28 1.83,-2.47 1.58,-2.64 1.31,-2.77 1.04,-2.89 0.75,-2.99 0.44,-3.04 0.16,-3.06 -0.16,-3.07 -0.44,-3.04 -0.75,-2.98 -1.04,-2.9 -1.31,-2.78 -1.58,-2.63 -1.83,-2.47 -2.06,-2.28 -2.28,-2.06 -2.47,-1.83 -2.64,-1.58 -2.77,-1.31 -2.9,-1.04 -2.98,-0.75 -3.04,-0.45 -3.07,-0.15"
             style="fill:none;stroke:#ffffff;stroke-width:4.16667;stroke-linecap:butt;stroke-linejoin:miter;stroke-miterlimit:10;stroke-dasharray:none;stroke-opacity:1"
             id="path200" /><g
             id="g202"
             transform="scale(4.16667)"><text
               transform="matrix(0,-1,-1,0,262.875,764.273)"
               style="font-variant:normal;font-weight:normal;font-size:13.7774px;font-family:Geneva;-inkscape-font-specification:Geneva;writing-mode:lr-tb;fill:#999999;fill-opacity:1;fill-rule:nonzero;stroke:none"
               id="text210"><tspan
                 x="0 8.3491039 11.686048 21.447302 29.378983 35.534668 44.717339 49.312069 58.49474 67.677406 79.994408 90.011978 94.606712 103.78938 112.97199 122.15466"
                 y="0"
                 id="tspan204">SINE(0 50mA 440)</tspan><tspan
                 x="0 10.017576 18.99217 23.586901 32.769569 41.95224 54.269238"
                 y="18.161301"
                 id="tspan206">AC 50mA</tspan><tspan
                 x="61.371601 71.389175"
                 y="-55.109001"
                 id="tspan208">V1</tspan></text></g><path
             d="m 1341.52,1404.89 v -154.61 l -37.5,-28.7 -37.5,28.7 v 154.61 z"
             style="fill:none;stroke:#ffffff;stroke-width:4.16667;stroke-linecap:butt;stroke-linejoin:miter;stroke-miterlimit:10;stroke-dasharray:none;stroke-opacity:1"
             id="path212" /><g
             id="g214"
             transform="scale(4.16667)"><text
               transform="matrix(0,-1,-1,0,307.964,335.297)"
               style="font-variant:normal;font-weight:normal;font-size:13.7774px;font-family:Geneva;-inkscape-font-specification:Geneva;writing-mode:lr-tb;fill:#999999;fill-opacity:1;fill-rule:nonzero;stroke:none"
               id="text218"><tspan
                 x="0 10.017547 18.366652 26.40576"
                 y="0"
                 id="tspan216">Vout</tspan></text></g><path
             d="m 844.773,2234.67 v -73.06 l -36.531,36.53 z"
             style="fill:none;stroke:#ffffff;stroke-width:4.16667;stroke-linecap:butt;stroke-linejoin:miter;stroke-miterlimit:10;stroke-dasharray:none;stroke-opacity:1"
             id="path220" /><g
             id="g222"
             transform="scale(4.16667)"><text
               transform="matrix(0,-1,-1,0,393.133,387.275)"
               style="font-variant:normal;font-weight:normal;font-size:13.7774px;font-family:Geneva;-inkscape-font-specification:Geneva;writing-mode:lr-tb;fill:#999999;fill-opacity:1;fill-rule:nonzero;stroke:none"
               id="text228"><tspan
                 x="0 4.1773062 11.194163 17.30303 25.234711 33.530083 38.12484 46.420242 54.041897 59.362728 66.984383 79.301384 83.896141 92.245247 100.1769 108.526 113.12076 116.35707 119.59338 126.61024 132.71913 137.31389 141.4912 150.67384 159.85648 169.03914 173.6339 177.81122 186.99387 196.1765 200.77127 204.94858 214.13123 223.31386 232.49651 237.09128 241.26859 250.45123 255.04599 259.22333 268.40594 277.58859 282.18335 286.36066 295.54327 304.72592"
                 y="0"
                 id="tspan224">.step param RES list .001 .01 .047 .1 .47 .999</tspan><tspan
                 x="0 4.1773062 11.798963 19.313183 23.907942 32.257046 39.771236 45.880131 50.474892 59.657532 68.840172 73.434929 82.617546 87.212334 96.394943 105.57758 114.7602 123.94284"
                 y="20.039101"
                 id="tspan226">.ac oct 50 2 20000</tspan></text></g><g
             id="g230"
             transform="scale(4.16667)"><text
               transform="matrix(0,-1,-1,0,353.054,387.275)"
               style="font-variant:normal;font-weight:normal;font-size:13.7774px;font-family:Geneva;-inkscape-font-specification:Geneva;writing-mode:lr-tb;fill:#0000ca;fill-opacity:1;fill-rule:nonzero;stroke:none"
               id="text234"><tspan
                 x="0 4.1773062 10.286202 15.607033 23.228718 31.267826 35.862587 45.045227 49.639984 58.822628 68.005241 80.322235 84.916992 94.099632 103.28225"
                 y="0"
                 id="tspan232">.tran 0 60m 50m</tspan></text></g><path
             d="m 1554.52,2866.13 v 125.25"
             style="fill:none;stroke:#ffffff;stroke-width:4.16667;stroke-linecap:butt;stroke-linejoin:miter;stroke-miterlimit:10;stroke-dasharray:none;stroke-opacity:1"
             id="path236" /><path
             d="m 1554.52,2657.39 v 41.74"
             style="fill:none;stroke:#ffffff;stroke-width:4.16667;stroke-linecap:butt;stroke-linejoin:miter;stroke-miterlimit:10;stroke-dasharray:none;stroke-opacity:1"
             id="path238" /><path
             d="m 1554.52,2198.14 v 250.5"
             style="fill:none;stroke:#ffffff;stroke-width:4.16667;stroke-linecap:butt;stroke-linejoin:miter;stroke-miterlimit:10;stroke-dasharray:none;stroke-opacity:1"
             id="path240" /><path
             d="m 1554.52,1947.64 v 250.5"
             style="fill:none;stroke:#ffffff;stroke-width:4.16667;stroke-linecap:butt;stroke-linejoin:miter;stroke-miterlimit:10;stroke-dasharray:none;stroke-opacity:1"
             id="path242" /><path
             d="m 1512.77,2198.14 h 41.75"
             style="fill:none;stroke:#ffffff;stroke-width:4.16667;stroke-linecap:butt;stroke-linejoin:miter;stroke-miterlimit:10;stroke-dasharray:none;stroke-opacity:1"
             id="path244" /><path
             d="m 1512.77,1947.64 h 41.75"
             style="fill:none;stroke:#ffffff;stroke-width:4.16667;stroke-linecap:butt;stroke-linejoin:miter;stroke-miterlimit:10;stroke-dasharray:none;stroke-opacity:1"
             id="path246" /><path
             d="m 1345.77,2991.38 h 208.75"
             style="fill:none;stroke:#ffffff;stroke-width:4.16667;stroke-linecap:butt;stroke-linejoin:miter;stroke-miterlimit:10;stroke-dasharray:none;stroke-opacity:1"
             id="path248" /><path
             d="m 1304.02,1947.64 h 41.75"
             style="fill:none;stroke:#ffffff;stroke-width:4.16667;stroke-linecap:butt;stroke-linejoin:miter;stroke-miterlimit:10;stroke-dasharray:none;stroke-opacity:1"
             id="path250" /><path
             d="m 1304.02,1780.64 v 167"
             style="fill:none;stroke:#ffffff;stroke-width:4.16667;stroke-linecap:butt;stroke-linejoin:miter;stroke-miterlimit:10;stroke-dasharray:none;stroke-opacity:1"
             id="path252" /><path
             d="m 1304.02,1530.14 v 250.5"
             style="fill:none;stroke:#ffffff;stroke-width:4.16667;stroke-linecap:butt;stroke-linejoin:miter;stroke-miterlimit:10;stroke-dasharray:none;stroke-opacity:1"
             id="path254" /><path
             d="m 1304.02,1404.89 v 125.25"
             style="fill:none;stroke:#ffffff;stroke-width:4.16667;stroke-linecap:butt;stroke-linejoin:miter;stroke-miterlimit:10;stroke-dasharray:none;stroke-opacity:1"
             id="path256" /><path
             d="m 1262.27,2198.14 h 83.5"
             style="fill:none;stroke:#ffffff;stroke-width:4.16667;stroke-linecap:butt;stroke-linejoin:miter;stroke-miterlimit:10;stroke-dasharray:none;stroke-opacity:1"
             id="path258" /><path
             d="m 1262.27,1947.64 h 41.75"
             style="fill:none;stroke:#ffffff;stroke-width:4.16667;stroke-linecap:butt;stroke-linejoin:miter;stroke-miterlimit:10;stroke-dasharray:none;stroke-opacity:1"
             id="path260" /><path
             d="m 1262.27,1780.64 h 41.75"
             style="fill:none;stroke:#ffffff;stroke-width:4.16667;stroke-linecap:butt;stroke-linejoin:miter;stroke-miterlimit:10;stroke-dasharray:none;stroke-opacity:1"
             id="path262" /><path
             d="m 1262.27,1530.14 h 41.75"
             style="fill:none;stroke:#ffffff;stroke-width:4.16667;stroke-linecap:butt;stroke-linejoin:miter;stroke-miterlimit:10;stroke-dasharray:none;stroke-opacity:1"
             id="path264" /><path
             d="m 928.27,2991.38 h 208.75"
             style="fill:none;stroke:#ffffff;stroke-width:4.16667;stroke-linecap:butt;stroke-linejoin:miter;stroke-miterlimit:10;stroke-dasharray:none;stroke-opacity:1"
             id="path266" /><path
             d="m 928.27,2198.14 h 167"
             style="fill:none;stroke:#ffffff;stroke-width:4.16667;stroke-linecap:butt;stroke-linejoin:miter;stroke-miterlimit:10;stroke-dasharray:none;stroke-opacity:1"
             id="path268" /><path
             d="m 928.27,2198.14 v 793.24"
             style="fill:none;stroke:#ffffff;stroke-width:4.16667;stroke-linecap:butt;stroke-linejoin:miter;stroke-miterlimit:10;stroke-dasharray:none;stroke-opacity:1"
             id="path270" /><path
             d="m 928.27,1947.64 h 167"
             style="fill:none;stroke:#ffffff;stroke-width:4.16667;stroke-linecap:butt;stroke-linejoin:miter;stroke-miterlimit:10;stroke-dasharray:none;stroke-opacity:1"
             id="path272" /><path
             d="m 928.27,1947.64 v 250.5"
             style="fill:none;stroke:#ffffff;stroke-width:4.16667;stroke-linecap:butt;stroke-linejoin:miter;stroke-miterlimit:10;stroke-dasharray:none;stroke-opacity:1"
             id="path274" /><path
             d="m 928.27,1780.64 h 167"
             style="fill:none;stroke:#ffffff;stroke-width:4.16667;stroke-linecap:butt;stroke-linejoin:miter;stroke-miterlimit:10;stroke-dasharray:none;stroke-opacity:1"
             id="path276" /><path
             d="m 928.27,1780.64 v 167"
             style="fill:none;stroke:#ffffff;stroke-width:4.16667;stroke-linecap:butt;stroke-linejoin:miter;stroke-miterlimit:10;stroke-dasharray:none;stroke-opacity:1"
             id="path278" /><path
             d="m 928.27,1530.14 h 167"
             style="fill:none;stroke:#ffffff;stroke-width:4.16667;stroke-linecap:butt;stroke-linejoin:miter;stroke-miterlimit:10;stroke-dasharray:none;stroke-opacity:1"
             id="path280" /><path
             d="m 928.27,1530.14 v 250.5"
             style="fill:none;stroke:#ffffff;stroke-width:4.16667;stroke-linecap:butt;stroke-linejoin:miter;stroke-miterlimit:10;stroke-dasharray:none;stroke-opacity:1"
             id="path282" /><path
             d="M 844.773,2198.14 H 928.27"
             style="fill:none;stroke:#ffffff;stroke-width:4.16667;stroke-linecap:butt;stroke-linejoin:miter;stroke-miterlimit:10;stroke-dasharray:none;stroke-opacity:1"
             id="path284" /><path
             d="m 1541.47,2185.09 h 26.0938 v 26.0938 H 1541.47 Z"
             style="fill:#ffffff;fill-opacity:1;fill-rule:nonzero;stroke:none"
             id="path286" /><path
             d="m 915.223,2185.09 h 26.0938 v 26.0938 H 915.223 Z"
             style="fill:#ffffff;fill-opacity:1;fill-rule:nonzero;stroke:none"
             id="path288" /><path
             d="m 1290.97,1934.59 h 26.0898 v 26.0938 H 1290.97 Z"
             style="fill:#ffffff;fill-opacity:1;fill-rule:nonzero;stroke:none"
             id="path290" /><path
             d="m 915.223,1934.59 h 26.0938 v 26.0938 H 915.223 Z"
             style="fill:#ffffff;fill-opacity:1;fill-rule:nonzero;stroke:none"
             id="path292" /><path
             d="m 1290.97,1767.6 h 26.0898 v 26.0938 H 1290.97 Z"
             style="fill:#ffffff;fill-opacity:1;fill-rule:nonzero;stroke:none"
             id="path294" /><path
             d="m 915.223,1767.6 h 26.0938 v 26.0938 H 915.223 Z"
             style="fill:#ffffff;fill-opacity:1;fill-rule:nonzero;stroke:none"
             id="path296" /><path
             d="m 1290.97,1517.1 h 26.0898 v 26.0938 H 1290.97 Z"
             style="fill:#ffffff;fill-opacity:1;fill-rule:nonzero;stroke:none"
             id="path298" /></g></g></g></g></svg>
