<?xml version="1.0" encoding="UTF-8" standalone="no"?>
<svg
   xmlns:dc="http://purl.org/dc/elements/1.1/"
   xmlns:cc="http://creativecommons.org/ns#"
   xmlns:rdf="http://www.w3.org/1999/02/22-rdf-syntax-ns#"
   xmlns:svg="http://www.w3.org/2000/svg"
   xmlns="http://www.w3.org/2000/svg"
   version="1.1"
   id="svg10"
   xml:space="preserve"
   width="619.03339"
   height="361.33768"
   viewBox="0 0 928.55006 542.00654"><metadata
     id="metadata16"><rdf:RDF><cc:Work
         rdf:about=""><dc:format>image/svg+xml</dc:format><dc:type
           rdf:resource="http://purl.org/dc/dcmitype/StillImage" /><dc:title></dc:title></cc:Work></rdf:RDF></metadata><defs
     id="defs14"><clipPath
       clipPathUnits="userSpaceOnUse"
       id="clipPath28"><path
         d="m 375,299.582 h 1729.17 v 2908.34 H 375 Z"
         id="path26" /></clipPath><clipPath
       clipPathUnits="userSpaceOnUse"
       id="clipPath272"><path
         d="m 500,353.75 h 1520.83 v 2675 H 500 Z"
         id="path270" /></clipPath></defs><g
     id="g18"
     transform="matrix(0,-1.3333333,-1.3333333,0,1025.6056,667.07604)"><g
       id="g20"
       transform="scale(0.24)"><g
         id="g22"><g
           id="g24"
           clip-path="url(#clipPath28)"><path
             d="M 500,3025.77 H 458.332"
             style="fill:none;stroke:#afafaf;stroke-width:4.16667;stroke-linecap:butt;stroke-linejoin:miter;stroke-miterlimit:10;stroke-dasharray:none;stroke-opacity:1"
             id="path30" /><g
             id="g32"
             transform="scale(4.16667)"><text
               transform="matrix(0,-1,-1,0,94.0003,734.614)"
               style="font-variant:normal;font-weight:normal;font-size:14px;font-family:Menlo;-inkscape-font-specification:Menlo-Regular;writing-mode:lr-tb;fill:#afafaf;fill-opacity:1;fill-rule:nonzero;stroke:none"
               id="text36"><tspan
                 x="0 8.4274139"
                 y="0"
                 id="tspan34">0V</tspan></text></g><path
             d="M 500,2803.15 H 458.332"
             style="fill:none;stroke:#afafaf;stroke-width:4.16667;stroke-linecap:butt;stroke-linejoin:miter;stroke-miterlimit:10;stroke-dasharray:none;stroke-opacity:1"
             id="path38" /><g
             id="g40"
             transform="scale(4.16667)"><text
               transform="matrix(0,-1,-1,0,94.0003,681.186)"
               style="font-variant:normal;font-weight:normal;font-size:14px;font-family:Menlo;-inkscape-font-specification:Menlo-Regular;writing-mode:lr-tb;fill:#afafaf;fill-opacity:1;fill-rule:nonzero;stroke:none"
               id="text44"><tspan
                 x="0 8.4280005"
                 y="0"
                 id="tspan42">1V</tspan></text></g><path
             d="M 500,2580.54 H 458.332"
             style="fill:none;stroke:#afafaf;stroke-width:4.16667;stroke-linecap:butt;stroke-linejoin:miter;stroke-miterlimit:10;stroke-dasharray:none;stroke-opacity:1"
             id="path46" /><g
             id="g48"
             transform="scale(4.16667)"><text
               transform="matrix(0,-1,-1,0,94.0003,627.757)"
               style="font-variant:normal;font-weight:normal;font-size:14px;font-family:Menlo;-inkscape-font-specification:Menlo-Regular;writing-mode:lr-tb;fill:#afafaf;fill-opacity:1;fill-rule:nonzero;stroke:none"
               id="text52"><tspan
                 x="0 8.4274139"
                 y="0"
                 id="tspan50">2V</tspan></text></g><path
             d="M 500,2357.91 H 458.332"
             style="fill:none;stroke:#afafaf;stroke-width:4.16667;stroke-linecap:butt;stroke-linejoin:miter;stroke-miterlimit:10;stroke-dasharray:none;stroke-opacity:1"
             id="path54" /><g
             id="g56"
             transform="scale(4.16667)"><text
               transform="matrix(0,-1,-1,0,94.0003,574.328)"
               style="font-variant:normal;font-weight:normal;font-size:14px;font-family:Menlo;-inkscape-font-specification:Menlo-Regular;writing-mode:lr-tb;fill:#afafaf;fill-opacity:1;fill-rule:nonzero;stroke:none"
               id="text60"><tspan
                 x="0 8.4280005"
                 y="0"
                 id="tspan58">3V</tspan></text></g><path
             d="M 500,2135.3 H 458.332"
             style="fill:none;stroke:#afafaf;stroke-width:4.16667;stroke-linecap:butt;stroke-linejoin:miter;stroke-miterlimit:10;stroke-dasharray:none;stroke-opacity:1"
             id="path62" /><g
             id="g64"
             transform="scale(4.16667)"><text
               transform="matrix(0,-1,-1,0,94.0003,520.9)"
               style="font-variant:normal;font-weight:normal;font-size:14px;font-family:Menlo;-inkscape-font-specification:Menlo-Regular;writing-mode:lr-tb;fill:#afafaf;fill-opacity:1;fill-rule:nonzero;stroke:none"
               id="text68"><tspan
                 x="0 8.4280005"
                 y="0"
                 id="tspan66">4V</tspan></text></g><path
             d="M 500,1912.68 H 458.332"
             style="fill:none;stroke:#afafaf;stroke-width:4.16667;stroke-linecap:butt;stroke-linejoin:miter;stroke-miterlimit:10;stroke-dasharray:none;stroke-opacity:1"
             id="path70" /><g
             id="g72"
             transform="scale(4.16667)"><text
               transform="matrix(0,-1,-1,0,94.0003,467.471)"
               style="font-variant:normal;font-weight:normal;font-size:14px;font-family:Menlo;-inkscape-font-specification:Menlo-Regular;writing-mode:lr-tb;fill:#afafaf;fill-opacity:1;fill-rule:nonzero;stroke:none"
               id="text76"><tspan
                 x="0 8.4280005"
                 y="0"
                 id="tspan74">5V</tspan></text></g><path
             d="M 500,1690.06 H 458.332"
             style="fill:none;stroke:#afafaf;stroke-width:4.16667;stroke-linecap:butt;stroke-linejoin:miter;stroke-miterlimit:10;stroke-dasharray:none;stroke-opacity:1"
             id="path78" /><g
             id="g80"
             transform="scale(4.16667)"><text
               transform="matrix(0,-1,-1,0,94.0003,414.043)"
               style="font-variant:normal;font-weight:normal;font-size:14px;font-family:Menlo;-inkscape-font-specification:Menlo-Regular;writing-mode:lr-tb;fill:#afafaf;fill-opacity:1;fill-rule:nonzero;stroke:none"
               id="text84"><tspan
                 x="0 8.4280005"
                 y="0"
                 id="tspan82">6V</tspan></text></g><path
             d="M 500,1467.44 H 458.332"
             style="fill:none;stroke:#afafaf;stroke-width:4.16667;stroke-linecap:butt;stroke-linejoin:miter;stroke-miterlimit:10;stroke-dasharray:none;stroke-opacity:1"
             id="path86" /><g
             id="g88"
             transform="scale(4.16667)"><text
               transform="matrix(0,-1,-1,0,94.0003,360.614)"
               style="font-variant:normal;font-weight:normal;font-size:14px;font-family:Menlo;-inkscape-font-specification:Menlo-Regular;writing-mode:lr-tb;fill:#afafaf;fill-opacity:1;fill-rule:nonzero;stroke:none"
               id="text92"><tspan
                 x="0 8.4274139"
                 y="0"
                 id="tspan90">7V</tspan></text></g><path
             d="M 500,1244.82 H 458.332"
             style="fill:none;stroke:#afafaf;stroke-width:4.16667;stroke-linecap:butt;stroke-linejoin:miter;stroke-miterlimit:10;stroke-dasharray:none;stroke-opacity:1"
             id="path94" /><g
             id="g96"
             transform="scale(4.16667)"><text
               transform="matrix(0,-1,-1,0,94.0003,307.186)"
               style="font-variant:normal;font-weight:normal;font-size:14px;font-family:Menlo;-inkscape-font-specification:Menlo-Regular;writing-mode:lr-tb;fill:#afafaf;fill-opacity:1;fill-rule:nonzero;stroke:none"
               id="text100"><tspan
                 x="0 8.4280005"
                 y="0"
                 id="tspan98">8V</tspan></text></g><path
             d="M 500,1022.2 H 458.332"
             style="fill:none;stroke:#afafaf;stroke-width:4.16667;stroke-linecap:butt;stroke-linejoin:miter;stroke-miterlimit:10;stroke-dasharray:none;stroke-opacity:1"
             id="path102" /><g
             id="g104"
             transform="scale(4.16667)"><text
               transform="matrix(0,-1,-1,0,94.0003,253.758)"
               style="font-variant:normal;font-weight:normal;font-size:14px;font-family:Menlo;-inkscape-font-specification:Menlo-Regular;writing-mode:lr-tb;fill:#afafaf;fill-opacity:1;fill-rule:nonzero;stroke:none"
               id="text108"><tspan
                 x="0 8.4280005"
                 y="0"
                 id="tspan106">9V</tspan></text></g><path
             d="M 500,799.586 H 458.332"
             style="fill:none;stroke:#afafaf;stroke-width:4.16667;stroke-linecap:butt;stroke-linejoin:miter;stroke-miterlimit:10;stroke-dasharray:none;stroke-opacity:1"
             id="path110" /><g
             id="g112"
             transform="scale(4.16667)"><text
               transform="matrix(0,-1,-1,0,94.0003,204.543)"
               style="font-variant:normal;font-weight:normal;font-size:14px;font-family:Menlo;-inkscape-font-specification:Menlo-Regular;writing-mode:lr-tb;fill:#afafaf;fill-opacity:1;fill-rule:nonzero;stroke:none"
               id="text116"><tspan
                 x="0 8.4274139 16.855413"
                 y="0"
                 id="tspan114">10V</tspan></text></g><path
             d="M 500,576.965 H 458.332"
             style="fill:none;stroke:#afafaf;stroke-width:4.16667;stroke-linecap:butt;stroke-linejoin:miter;stroke-miterlimit:10;stroke-dasharray:none;stroke-opacity:1"
             id="path118" /><g
             id="g120"
             transform="scale(4.16667)"><text
               transform="matrix(0,-1,-1,0,94.0003,151.115)"
               style="font-variant:normal;font-weight:normal;font-size:14px;font-family:Menlo;-inkscape-font-specification:Menlo-Regular;writing-mode:lr-tb;fill:#afafaf;fill-opacity:1;fill-rule:nonzero;stroke:none"
               id="text124"><tspan
                 x="0 8.4280005 16.855413"
                 y="0"
                 id="tspan122">11V</tspan></text></g><path
             d="M 500,354.348 H 458.332"
             style="fill:none;stroke:#afafaf;stroke-width:4.16667;stroke-linecap:butt;stroke-linejoin:miter;stroke-miterlimit:10;stroke-dasharray:none;stroke-opacity:1"
             id="path126" /><g
             id="g128"
             transform="scale(4.16667)"><text
               transform="matrix(0,-1,-1,0,94.0003,97.6866)"
               style="font-variant:normal;font-weight:normal;font-size:14px;font-family:Menlo;-inkscape-font-specification:Menlo-Regular;writing-mode:lr-tb;fill:#afafaf;fill-opacity:1;fill-rule:nonzero;stroke:none"
               id="text134"><tspan
                 x="0 8.4280005 16.856001"
                 y="0"
                 id="tspan130">12V</tspan><tspan
                 x="-646.92798 -655.35614 -663.78522 -672.21423"
                 y="-20"
                 id="tspan132">Am1-</tspan></text></g><path
             d="m 500,3025.77 v 41.67"
             style="fill:none;stroke:#afafaf;stroke-width:4.16667;stroke-linecap:butt;stroke-linejoin:miter;stroke-miterlimit:10;stroke-dasharray:none;stroke-opacity:1"
             id="path136" /><g
             id="g138"
             transform="scale(4.16667)"><text
               transform="matrix(0,-1,-1,0,138.334,744.614)"
               style="font-variant:normal;font-weight:normal;font-size:14px;font-family:Menlo;-inkscape-font-specification:Menlo-Regular;writing-mode:lr-tb;fill:#afafaf;fill-opacity:1;fill-rule:nonzero;stroke:none"
               id="text142"><tspan
                 x="0 -8.4281301 -16.857189"
                 y="0"
                 id="tspan140">Am0</tspan></text></g><path
             d="m 601.391,3025.77 v 41.67"
             style="fill:none;stroke:#afafaf;stroke-width:4.16667;stroke-linecap:butt;stroke-linejoin:miter;stroke-miterlimit:10;stroke-dasharray:none;stroke-opacity:1"
             id="path144" /><g
             id="g146"
             transform="scale(4.16667)"><text
               transform="matrix(0,-1,-1,0,162.667,744.614)"
               style="font-variant:normal;font-weight:normal;font-size:14px;font-family:Menlo;-inkscape-font-specification:Menlo-Regular;writing-mode:lr-tb;fill:#afafaf;fill-opacity:1;fill-rule:nonzero;stroke:none"
               id="text150"><tspan
                 x="0 -8.4281301 -16.857189"
                 y="0"
                 id="tspan148">Am1</tspan></text></g><path
             d="m 702.777,3025.77 v 41.67"
             style="fill:none;stroke:#afafaf;stroke-width:4.16667;stroke-linecap:butt;stroke-linejoin:miter;stroke-miterlimit:10;stroke-dasharray:none;stroke-opacity:1"
             id="path152" /><g
             id="g154"
             transform="scale(4.16667)"><text
               transform="matrix(0,-1,-1,0,187,744.614)"
               style="font-variant:normal;font-weight:normal;font-size:14px;font-family:Menlo;-inkscape-font-specification:Menlo-Regular;writing-mode:lr-tb;fill:#afafaf;fill-opacity:1;fill-rule:nonzero;stroke:none"
               id="text158"><tspan
                 x="0 -8.4281301 -16.857189"
                 y="0"
                 id="tspan156">Am2</tspan></text></g><path
             d="m 804.168,3025.77 v 41.67"
             style="fill:none;stroke:#afafaf;stroke-width:4.16667;stroke-linecap:butt;stroke-linejoin:miter;stroke-miterlimit:10;stroke-dasharray:none;stroke-opacity:1"
             id="path160" /><g
             id="g162"
             transform="scale(4.16667)"><text
               transform="matrix(0,-1,-1,0,211.333,744.614)"
               style="font-variant:normal;font-weight:normal;font-size:14px;font-family:Menlo;-inkscape-font-specification:Menlo-Regular;writing-mode:lr-tb;fill:#afafaf;fill-opacity:1;fill-rule:nonzero;stroke:none"
               id="text166"><tspan
                 x="0 -8.4281301 -16.857189"
                 y="0"
                 id="tspan164">Am3</tspan></text></g><path
             d="m 905.555,3025.77 v 41.67"
             style="fill:none;stroke:#afafaf;stroke-width:4.16667;stroke-linecap:butt;stroke-linejoin:miter;stroke-miterlimit:10;stroke-dasharray:none;stroke-opacity:1"
             id="path168" /><g
             id="g170"
             transform="scale(4.16667)"><text
               transform="matrix(0,-1,-1,0,235.667,744.614)"
               style="font-variant:normal;font-weight:normal;font-size:14px;font-family:Menlo;-inkscape-font-specification:Menlo-Regular;writing-mode:lr-tb;fill:#afafaf;fill-opacity:1;fill-rule:nonzero;stroke:none"
               id="text174"><tspan
                 x="0 -8.4281301 -16.857189"
                 y="0"
                 id="tspan172">Am4</tspan></text></g><path
             d="m 1006.95,3025.77 v 41.67"
             style="fill:none;stroke:#afafaf;stroke-width:4.16667;stroke-linecap:butt;stroke-linejoin:miter;stroke-miterlimit:10;stroke-dasharray:none;stroke-opacity:1"
             id="path176" /><g
             id="g178"
             transform="scale(4.16667)"><text
               transform="matrix(0,-1,-1,0,260,744.614)"
               style="font-variant:normal;font-weight:normal;font-size:14px;font-family:Menlo;-inkscape-font-specification:Menlo-Regular;writing-mode:lr-tb;fill:#afafaf;fill-opacity:1;fill-rule:nonzero;stroke:none"
               id="text182"><tspan
                 x="0 -8.4281301 -16.857189"
                 y="0"
                 id="tspan180">Am5</tspan></text></g><path
             d="m 1108.33,3025.77 v 41.67"
             style="fill:none;stroke:#afafaf;stroke-width:4.16667;stroke-linecap:butt;stroke-linejoin:miter;stroke-miterlimit:10;stroke-dasharray:none;stroke-opacity:1"
             id="path184" /><g
             id="g186"
             transform="scale(4.16667)"><text
               transform="matrix(0,-1,-1,0,284.333,744.614)"
               style="font-variant:normal;font-weight:normal;font-size:14px;font-family:Menlo;-inkscape-font-specification:Menlo-Regular;writing-mode:lr-tb;fill:#afafaf;fill-opacity:1;fill-rule:nonzero;stroke:none"
               id="text190"><tspan
                 x="0 -8.4281301 -16.857189"
                 y="0"
                 id="tspan188">Am6</tspan></text></g><path
             d="m 1209.72,3025.77 v 41.67"
             style="fill:none;stroke:#afafaf;stroke-width:4.16667;stroke-linecap:butt;stroke-linejoin:miter;stroke-miterlimit:10;stroke-dasharray:none;stroke-opacity:1"
             id="path192" /><g
             id="g194"
             transform="scale(4.16667)"><text
               transform="matrix(0,-1,-1,0,308.666,744.614)"
               style="font-variant:normal;font-weight:normal;font-size:14px;font-family:Menlo;-inkscape-font-specification:Menlo-Regular;writing-mode:lr-tb;fill:#afafaf;fill-opacity:1;fill-rule:nonzero;stroke:none"
               id="text198"><tspan
                 x="0 -8.4281301 -16.857189"
                 y="0"
                 id="tspan196">Am7</tspan></text></g><path
             d="m 1311.11,3025.77 v 41.67"
             style="fill:none;stroke:#afafaf;stroke-width:4.16667;stroke-linecap:butt;stroke-linejoin:miter;stroke-miterlimit:10;stroke-dasharray:none;stroke-opacity:1"
             id="path200" /><g
             id="g202"
             transform="scale(4.16667)"><text
               transform="matrix(0,-1,-1,0,333,744.614)"
               style="font-variant:normal;font-weight:normal;font-size:14px;font-family:Menlo;-inkscape-font-specification:Menlo-Regular;writing-mode:lr-tb;fill:#afafaf;fill-opacity:1;fill-rule:nonzero;stroke:none"
               id="text206"><tspan
                 x="0 -8.4281301 -16.857189"
                 y="0"
                 id="tspan204">Am8</tspan></text></g><path
             d="m 1412.5,3025.77 v 41.67"
             style="fill:none;stroke:#afafaf;stroke-width:4.16667;stroke-linecap:butt;stroke-linejoin:miter;stroke-miterlimit:10;stroke-dasharray:none;stroke-opacity:1"
             id="path208" /><g
             id="g210"
             transform="scale(4.16667)"><text
               transform="matrix(0,-1,-1,0,357.334,744.614)"
               style="font-variant:normal;font-weight:normal;font-size:14px;font-family:Menlo;-inkscape-font-specification:Menlo-Regular;writing-mode:lr-tb;fill:#afafaf;fill-opacity:1;fill-rule:nonzero;stroke:none"
               id="text214"><tspan
                 x="0 -8.4281301 -16.857189"
                 y="0"
                 id="tspan212">Am9</tspan></text></g><path
             d="m 1513.89,3025.77 v 41.67"
             style="fill:none;stroke:#afafaf;stroke-width:4.16667;stroke-linecap:butt;stroke-linejoin:miter;stroke-miterlimit:10;stroke-dasharray:none;stroke-opacity:1"
             id="path216" /><g
             id="g218"
             transform="scale(4.16667)"><text
               transform="matrix(0,-1,-1,0,381.667,744.614)"
               style="font-variant:normal;font-weight:normal;font-size:14px;font-family:Menlo;-inkscape-font-specification:Menlo-Regular;writing-mode:lr-tb;fill:#afafaf;fill-opacity:1;fill-rule:nonzero;stroke:none"
               id="text222"><tspan
                 x="0 -8.4281301 -16.857189 -25.286249"
                 y="0"
                 id="tspan220">Am01</tspan></text></g><path
             d="m 1615.28,3025.77 v 41.67"
             style="fill:none;stroke:#afafaf;stroke-width:4.16667;stroke-linecap:butt;stroke-linejoin:miter;stroke-miterlimit:10;stroke-dasharray:none;stroke-opacity:1"
             id="path224" /><g
             id="g226"
             transform="scale(4.16667)"><text
               transform="matrix(0,-1,-1,0,406,744.614)"
               style="font-variant:normal;font-weight:normal;font-size:14px;font-family:Menlo;-inkscape-font-specification:Menlo-Regular;writing-mode:lr-tb;fill:#afafaf;fill-opacity:1;fill-rule:nonzero;stroke:none"
               id="text230"><tspan
                 x="0 -8.4281301 -16.857189 -25.286249"
                 y="0"
                 id="tspan228">Am11</tspan></text></g><path
             d="m 1716.67,3025.77 v 41.67"
             style="fill:none;stroke:#afafaf;stroke-width:4.16667;stroke-linecap:butt;stroke-linejoin:miter;stroke-miterlimit:10;stroke-dasharray:none;stroke-opacity:1"
             id="path232" /><g
             id="g234"
             transform="scale(4.16667)"><text
               transform="matrix(0,-1,-1,0,430.333,744.614)"
               style="font-variant:normal;font-weight:normal;font-size:14px;font-family:Menlo;-inkscape-font-specification:Menlo-Regular;writing-mode:lr-tb;fill:#afafaf;fill-opacity:1;fill-rule:nonzero;stroke:none"
               id="text238"><tspan
                 x="0 -8.4281301 -16.857189 -25.286249"
                 y="0"
                 id="tspan236">Am21</tspan></text></g><path
             d="m 1818.05,3025.77 v 41.67"
             style="fill:none;stroke:#afafaf;stroke-width:4.16667;stroke-linecap:butt;stroke-linejoin:miter;stroke-miterlimit:10;stroke-dasharray:none;stroke-opacity:1"
             id="path240" /><g
             id="g242"
             transform="scale(4.16667)"><text
               transform="matrix(0,-1,-1,0,454.667,744.614)"
               style="font-variant:normal;font-weight:normal;font-size:14px;font-family:Menlo;-inkscape-font-specification:Menlo-Regular;writing-mode:lr-tb;fill:#afafaf;fill-opacity:1;fill-rule:nonzero;stroke:none"
               id="text246"><tspan
                 x="0 -8.4281301 -16.857189 -25.286249"
                 y="0"
                 id="tspan244">Am31</tspan></text></g><path
             d="m 1919.45,3025.77 v 41.67"
             style="fill:none;stroke:#afafaf;stroke-width:4.16667;stroke-linecap:butt;stroke-linejoin:miter;stroke-miterlimit:10;stroke-dasharray:none;stroke-opacity:1"
             id="path248" /><g
             id="g250"
             transform="scale(4.16667)"><text
               transform="matrix(0,-1,-1,0,479,744.614)"
               style="font-variant:normal;font-weight:normal;font-size:14px;font-family:Menlo;-inkscape-font-specification:Menlo-Regular;writing-mode:lr-tb;fill:#afafaf;fill-opacity:1;fill-rule:nonzero;stroke:none"
               id="text254"><tspan
                 x="0 -8.4281301 -16.857189 -25.286249"
                 y="0"
                 id="tspan252">Am41</tspan></text></g><path
             d="m 2020.83,3025.77 v 41.67"
             style="fill:none;stroke:#afafaf;stroke-width:4.16667;stroke-linecap:butt;stroke-linejoin:miter;stroke-miterlimit:10;stroke-dasharray:none;stroke-opacity:1"
             id="path256" /><path
             d="m 500,354.348 h 1520.83 v 2671.43 H 500 Z"
             style="fill:none;stroke:#afafaf;stroke-width:4.16667;stroke-linecap:butt;stroke-linejoin:miter;stroke-miterlimit:10;stroke-dasharray:none;stroke-opacity:1"
             id="path258" /><g
             id="g260"
             transform="scale(4.16667)"><text
               transform="matrix(0,-1,-1,0,489,430.972)"
               style="font-variant:normal;font-weight:normal;font-size:14px;font-family:Menlo;-inkscape-font-specification:Menlo-Regular;writing-mode:lr-tb;fill:#0eff00;fill-opacity:1;fill-rule:nonzero;stroke:none"
               id="text264"><tspan
                 x="0 8.4280005 16.855413 25.283415 33.711414 42.138828"
                 y="0"
                 id="tspan262">Ic(Q1)</tspan></text></g></g></g><g
         id="g266"><g
           id="g268"
           clip-path="url(#clipPath272)"><path
             d="m 601.391,3025.77 v 0 -22.26 l 0.023,-22.26 0.977,-22.27 9.312,-22.26 6.895,-22.26 1.519,-22.26 0.387,-22.26 0.211,-22.26 0.187,-22.27 0.184,-22.26 0.184,-22.26 0.179,-22.26 0.184,-22.26 0.183,-22.26 0.18,-22.27 0.184,-22.26 0.183,-22.26 0.184,-22.26 0.18,-22.26 0.183,-22.26 0.184,-22.27 0.179,-22.26 0.184,-22.26 0.184,-22.26 0.183,-22.26 0.18,-22.27 0.184,-22.26 0.183,-22.26 0.18,-22.26 0.183,-22.27 0.184,-22.26 0.184,-22.26 0.179,-22.26 0.184,-22.26 0.183,-22.26 0.18,-22.27 0.184,-22.26 0.183,-22.26 0.184,-22.26 0.18,-22.26 0.183,-22.26 0.184,-22.27 0.179,-22.26 0.184,-22.26 0.184,-22.26 0.183,-22.26 0.18,-22.27 0.184,-22.26 0.183,-22.26 0.18,-22.26 0.183,-22.26 0.184,-22.27 0.184,-22.26 0.179,-22.26 0.184,-22.26 0.183,-22.26 0.18,-22.27 0.184,-22.26 0.183,-22.26 0.184,-22.26 0.18,-22.26 0.183,-22.26 0.184,-22.27 0.18,-22.26 0.183,-22.26 0.184,-22.26 0.183,-22.26 0.18,-22.27 0.184,-22.26 0.183,-22.26 0.18,-22.26 0.183,-22.26 0.184,-22.26 0.184,-22.27 0.179,-22.26 0.184,-22.26 0.184,-22.26 0.179,-22.27 0.184,-22.26 0.183,-22.26 0.18,-22.26 0.184,-22.26 0.183,-22.26 0.184,-22.27 0.18,-22.26 0.183,-22.26 0.184,-22.26 0.179,-22.26 0.184,-22.27 0.184,-22.26 0.183,-22.259 0.18,-22.261 0.183,-22.262 0.184,-22.262 0.18,-22.261 0.183,-22.262 0.184,-22.262 0.184,-22.262 0.179,-22.265 0.184,-22.258 0.183,-22.266 0.18,-22.261 0.184,-22.262 0.183,-22.262 0.184,-22.262 0.18,-22.261 0.183,-22.262 0.184,-22.262 0.179,-22.261 0.184,-22.262 0.184,-22.262 0.183,-22.262 0.18,-22.261 0.184,-22.262 0.183,-22.262 0.18,-22.261 0.183,-22.262 0.184,-22.262 0.184,-22.262 0.179,-22.261"
             style="fill:none;stroke:#0eff00;stroke-width:4.16667;stroke-linecap:butt;stroke-linejoin:miter;stroke-miterlimit:1;stroke-dasharray:none;stroke-opacity:1"
             id="path274" /><path
             d="m 600.375,3025.77 v 0 l 0.008,-22.26 0.426,-22.26 13.23,-22.27 44.984,-22.26 18.661,-22.26 3.968,-22.26 1.266,-22.26 0.863,-22.26 0.801,-22.27 0.789,-22.26 0.793,-22.26 0.789,-22.26 0.789,-22.26 0.793,-22.26 0.789,-22.27 0.789,-22.26 0.793,-22.26 0.789,-22.26 0.789,-22.26 0.789,-22.26 0.793,-22.27 0.789,-22.26 0.79,-22.26 0.793,-22.26 0.789,-22.26 0.789,-22.27 0.793,-22.26 0.789,-22.26 0.789,-22.26 0.789,-22.27 0.793,-22.26 0.789,-22.26 0.789,-22.26 0.793,-22.26 0.789,-22.26 0.789,-22.27 0.793,-22.26 0.789,-22.26 0.789,-22.26 0.789,-22.26 0.793,-22.26 0.789,-22.27 0.789,-22.26 0.793,-22.26 0.789,-22.26 0.789,-22.26 0.789,-22.27 0.793,-22.26 0.789,-22.26 0.789,-22.26 0.793,-22.26 0.79,-22.27 0.789,-22.26 0.793,-22.26 0.789,-22.26 0.789,-22.26 0.789,-22.27 0.793,-22.26 0.789,-22.26 0.789,-22.26 0.793,-22.26 0.789,-22.26 0.789,-22.27 0.793,-22.26 0.789,-22.26 0.789,-22.26 0.789,-22.26 0.793,-22.27 0.789,-22.26 0.789,-22.26 0.793,-22.26 0.789,-22.26 0.789,-22.26 0.793,-22.27 0.789,-22.26 0.789,-22.26 0.789,-22.26 0.793,-22.27 0.789,-22.26 0.79,-22.26 0.792,-22.26 0.79,-22.26 0.789,-22.26 0.789,-22.27 0.793,-22.26 0.789,-22.26 0.789,-22.26 0.793,-22.26 0.789,-22.27 0.789,-22.26 0.793,-22.259 0.789,-22.261 0.789,-22.262 0.789,-22.262 0.793,-22.261 0.789,-22.262 0.789,-22.262 0.793,-22.262 0.789,-22.265 0.789,-22.258 0.793,-22.266 0.789,-22.261 0.789,-22.262 0.789,-22.262 0.793,-22.262 0.789,-22.261 0.789,-22.262 0.793,-22.262 0.789,-22.261 0.79,-22.262 0.793,-22.262 0.789,-22.262 0.789,-22.261 0.789,-22.262 0.793,-22.262 0.789,-22.261 0.789,-22.262 0.793,-22.262 0.789,-22.262 0.789,-22.261"
             style="fill:none;stroke:#0000ff;stroke-width:4.16667;stroke-linecap:butt;stroke-linejoin:miter;stroke-miterlimit:1;stroke-dasharray:none;stroke-opacity:1"
             id="path276" /><path
             d="m 599.359,3025.77 v 0 l 0.032,-22.26 1.304,-22.26 32.137,-22.27 75.801,-22.26 28.246,-22.26 6.137,-22.26 2.113,-22.26 1.504,-22.26 1.414,-22.27 1.398,-22.26 1.399,-22.26 1.394,-22.26 1.399,-22.26 1.398,-22.26 1.395,-22.27 1.398,-22.26 1.399,-22.26 1.398,-22.26 1.395,-22.26 1.398,-22.26 1.398,-22.27 1.395,-22.26 1.398,-22.26 1.399,-22.26 1.394,-22.26 1.399,-22.27 1.398,-22.26 1.399,-22.26 1.394,-22.26 1.399,-22.27 1.398,-22.26 1.395,-22.26 1.398,-22.26 1.398,-22.26 1.395,-22.26 1.398,-22.27 1.399,-22.26 1.394,-22.26 1.399,-22.26 1.398,-22.26 1.399,-22.26 1.394,-22.27 1.399,-22.26 1.398,-22.26 1.395,-22.26 1.398,-22.26 1.399,-22.27 1.394,-22.26 1.399,-22.26 1.398,-22.26 1.398,-22.26 1.395,-22.27 1.398,-22.26 1.399,-22.26 1.394,-22.26 1.399,-22.26 1.398,-22.27 1.395,-22.26 1.398,-22.26 1.399,-22.26 1.394,-22.26 1.399,-22.26 1.398,-22.27 1.398,-22.26 1.395,-22.26 1.398,-22.26 1.399,-22.26 1.394,-22.27 1.399,-22.26 1.398,-22.26 1.395,-22.26 1.398,-22.26 1.399,-22.26 1.398,-22.27 1.395,-22.26 1.398,-22.26 1.399,-22.26 1.394,-22.27 1.398,-22.26 1.399,-22.26 1.394,-22.26 1.399,-22.26 1.398,-22.26 1.395,-22.27 1.398,-22.26 1.399,-22.26 1.398,-22.26 1.395,-22.26 1.398,-22.27 1.399,-22.26 1.394,-22.259 1.399,-22.261 1.398,-22.262 1.395,-22.262 1.398,-22.261 1.398,-22.262 1.395,-22.262 1.398,-22.262 1.399,-22.265 1.398,-22.258 1.395,-22.266 1.398,-22.261 1.399,-22.262 1.394,-22.262 1.399,-22.262 1.398,-22.261 1.395,-22.262 1.398,-22.262 1.398,-22.261 1.399,-22.262 1.394,-22.262 1.399,-22.262 1.398,-22.261 1.395,-22.262 1.398,-22.262 1.399,-22.261 1.394,-22.262 1.399,-22.262 1.398,-22.262 1.395,-22.261"
             style="fill:none;stroke:#ff0000;stroke-width:4.16667;stroke-linecap:butt;stroke-linejoin:miter;stroke-miterlimit:1;stroke-dasharray:none;stroke-opacity:1"
             id="path278" /><path
             d="m 598.348,3025.77 v 0 l 0.058,-22.26 2.645,-22.26 53.644,-22.27 103.512,-22.26 37.652,-22.26 8.368,-22.26 2.964,-22.26 2.145,-22.26 2.027,-22.27 2.004,-22.26 2.004,-22.26 2.004,-22.26 2.004,-22.26 2.004,-22.26 2.004,-22.27 2.004,-22.26 2.004,-22.26 2.003,-22.26 2.004,-22.26 2.004,-22.26 2,-22.27 2.004,-22.26 2.004,-22.26 2.004,-22.26 2.004,-22.26 2.004,-22.27 2.004,-22.26 2.004,-22.26 2.004,-22.26 2.003,-22.27 2,-22.26 2.004,-22.26 2.004,-22.26 2.004,-22.26 2.004,-22.26 2.004,-22.27 2.004,-22.26 2.004,-22.26 2.004,-22.26 2.004,-22.26 2.003,-22.26 2.004,-22.27 2,-22.26 2.004,-22.26 2.004,-22.26 2.004,-22.26 2.004,-22.27 2.004,-22.26 2.004,-22.26 2.004,-22.26 2.004,-22.26 2.004,-22.27 2,-22.26 2.003,-22.26 2.004,-22.26 2.004,-22.26 2.004,-22.27 2.004,-22.26 2.004,-22.26 2.004,-22.26 2.004,-22.26 2.004,-22.26 2.004,-22.27 2,-22.26 2.004,-22.26 2.003,-22.26 2.004,-22.26 2.004,-22.27 2.004,-22.26 2.004,-22.26 2.004,-22.26 2.004,-22.26 2.004,-22.26 2.004,-22.27 2,-22.26 2.004,-22.26 2.003,-22.26 2.004,-22.27 2.004,-22.26 2.004,-22.26 2.004,-22.26 2.004,-22.26 2.004,-22.26 2.004,-22.27 2,-22.26 2.004,-22.26 2.004,-22.26 2.004,-22.26 2.003,-22.27 2.004,-22.26 2.004,-22.259 2.004,-22.261 2.004,-22.262 2.004,-22.262 2.004,-22.261 2,-22.262 2.004,-22.262 2.004,-22.262 2.004,-22.265 2.004,-22.258 2.003,-22.266 2.004,-22.261 2.004,-22.262 2.001,-22.262 2.01,-22.262 2,-22.261 2,-22.262 2,-22.262 2.01,-22.261 2,-22.262 2.01,-22.262 2,-22.262 2,-22.261 2.01,-22.262 2,-22.262 2.01,-22.261 2,-22.262 2,-22.262 2,-22.262 2.01,-22.261"
             style="fill:none;stroke:#00afaf;stroke-width:4.16667;stroke-linecap:butt;stroke-linejoin:miter;stroke-miterlimit:1;stroke-dasharray:none;stroke-opacity:1"
             id="path280" /><path
             d="m 597.332,3025.77 v 0 l 0.098,-22.26 4.422,-22.26 76.066,-22.27 129.281,-22.26 47.356,-22.26 10.726,-22.26 3.844,-22.26 2.793,-22.26 2.637,-22.27 2.613,-22.26 2.609,-22.26 2.61,-22.26 2.609,-22.26 2.606,-22.26 2.609,-22.27 2.609,-22.26 2.61,-22.26 2.609,-22.26 2.609,-22.26 2.61,-22.26 2.609,-22.27 2.61,-22.26 2.609,-22.26 2.609,-22.26 2.61,-22.26 2.609,-22.27 2.609,-22.26 2.606,-22.26 2.609,-22.26 2.61,-22.27 2.609,-22.26 2.609,-22.26 2.61,-22.26 2.609,-22.26 2.61,-22.26 2.609,-22.27 2.609,-22.26 2.61,-22.26 2.609,-22.26 2.609,-22.26 2.61,-22.26 2.609,-22.27 2.606,-22.26 2.609,-22.26 2.609,-22.26 2.61,-22.26 2.609,-22.27 2.61,-22.26 2.609,-22.26 2.609,-22.26 2.61,-22.26 2.609,-22.27 2.609,-22.26 2.61,-22.26 2.609,-22.26 2.61,-22.26 2.609,-22.27 2.603,-22.26 2.61,-22.26 2.61,-22.26 2.61,-22.26 2.61,-22.26 2.61,-22.27 2.61,-22.26 2.61,-22.26 2.61,-22.26 2.61,-22.26 2.61,-22.27 2.61,-22.26 2.6,-22.26 2.61,-22.26 2.61,-22.26 2.61,-22.26 2.61,-22.27 2.61,-22.26 2.61,-22.26 2.61,-22.26 2.61,-22.27 2.61,-22.26 2.6,-22.26 2.61,-22.26 2.61,-22.26 2.61,-22.26 2.61,-22.27 2.61,-22.26 2.61,-22.26 2.61,-22.26 2.61,-22.26 2.61,-22.27 2.6,-22.26 2.61,-22.259 2.61,-22.261 2.61,-22.262 2.61,-22.262 2.61,-22.261 2.61,-22.262 2.61,-22.262 2.61,-22.262 2.61,-22.265 2.61,-22.258 2.61,-22.266 2.6,-22.261 2.61,-22.262 2.61,-22.262 2.61,-22.262 2.61,-22.261 2.61,-22.262 2.61,-22.262 2.61,-22.261 2.61,-22.262 2.61,-22.262 2.61,-22.262 2.61,-22.261 2.61,-22.262 2.61,-22.262 2.6,-22.261 2.61,-22.262 2.61,-22.262 2.61,-22.262 2.61,-22.261"
             style="fill:none;stroke:#ff00ff;stroke-width:4.16667;stroke-linecap:butt;stroke-linejoin:miter;stroke-miterlimit:1;stroke-dasharray:none;stroke-opacity:1"
             id="path282" /><path
             d="m 596.32,3025.77 v 0 l 0.149,-22.26 6.597,-22.26 98.575,-22.27 153.722,-22.26 57.543,-22.26 13.282,-22.26 4.753,-22.26 3.442,-22.26 3.246,-22.27 3.219,-22.26 3.215,-22.26 3.214,-22.26 3.215,-22.26 3.215,-22.26 3.215,-22.27 3.211,-22.26 3.215,-22.26 3.215,-22.26 3.214,-22.26 3.211,-22.26 3.215,-22.27 3.215,-22.26 3.215,-22.26 3.215,-22.26 3.211,-22.26 3.214,-22.27 3.215,-22.26 3.215,-22.26 3.207,-22.26 3.22,-22.27 3.21,-22.26 3.22,-22.26 3.21,-22.26 3.21,-22.26 3.22,-22.26 3.21,-22.27 3.22,-22.26 3.21,-22.26 3.21,-22.26 3.22,-22.26 3.21,-22.26 3.22,-22.27 3.21,-22.26 3.22,-22.26 3.21,-22.26 3.21,-22.26 3.22,-22.27 3.21,-22.26 3.22,-22.26 3.21,-22.26 3.21,-22.26 3.22,-22.27 3.21,-22.26 3.22,-22.26 3.21,-22.26 3.21,-22.26 3.22,-22.27 3.21,-22.26 3.22,-22.26 3.21,-22.26 3.21,-22.26 3.22,-22.26 3.21,-22.27 3.21,-22.26 3.22,-22.26 3.21,-22.26 3.22,-22.26 3.21,-22.27 3.21,-22.26 3.22,-22.26 3.21,-22.26 3.22,-22.26 3.21,-22.26 3.21,-22.27 3.22,-22.26 3.21,-22.26 3.21,-22.26 3.22,-22.27 3.21,-22.26 3.22,-22.26 3.21,-22.26 3.21,-22.26 3.22,-22.26 3.21,-22.27 3.22,-22.26 3.21,-22.26 3.21,-22.26 3.22,-22.26 3.21,-22.27 3.21,-22.26 3.22,-22.259 3.21,-22.261 3.22,-22.262 3.21,-22.262 3.22,-22.261 3.21,-22.262 3.21,-22.262 3.22,-22.262 3.21,-22.265 3.22,-22.258 3.21,-22.266 3.22,-22.261 3.21,-22.262 3.21,-22.262 3.22,-22.262 3.21,-22.261 3.22,-22.262 3.21,-22.262 3.21,-22.261 3.22,-22.262 3.21,-22.262 3.21,-22.262 3.22,-22.261 3.21,-22.262 3.22,-22.262 3.21,-22.261 3.21,-22.262 3.22,-22.262 3.21,-22.262 3.22,-22.261"
             style="fill:none;stroke:#808080;stroke-width:4.16667;stroke-linecap:butt;stroke-linejoin:miter;stroke-miterlimit:1;stroke-dasharray:none;stroke-opacity:1"
             id="path284" /><path
             d="m 595.305,3025.77 v 0 l 0.211,-22.26 9.152,-22.26 120.738,-22.27 177.153,-22.26 68.324,-22.26 16.058,-22.26 5.704,-22.26 4.097,-22.26 3.858,-22.27 3.83,-22.26 3.82,-22.26 3.81,-22.26 3.82,-22.26 3.82,-22.26 3.82,-22.27 3.82,-22.26 3.81,-22.26 3.82,-22.26 3.82,-22.26 3.82,-22.26 3.82,-22.27 3.81,-22.26 3.82,-22.26 3.82,-22.26 3.82,-22.26 3.82,-22.27 3.81,-22.26 3.82,-22.26 3.82,-22.26 3.82,-22.27 3.82,-22.26 3.82,-22.26 3.81,-22.26 3.82,-22.26 3.82,-22.26 3.82,-22.27 3.82,-22.26 3.81,-22.26 3.82,-22.26 3.82,-22.26 3.82,-22.26 3.82,-22.27 3.81,-22.26 3.82,-22.26 3.82,-22.26 3.82,-22.26 3.82,-22.27 3.81,-22.26 3.82,-22.26 3.82,-22.26 3.82,-22.26 3.82,-22.27 3.82,-22.26 3.81,-22.26 3.82,-22.26 3.82,-22.26 3.82,-22.27 3.82,-22.26 3.81,-22.26 3.82,-22.26 3.82,-22.26 3.81,-22.26 3.83,-22.27 3.81,-22.26 3.82,-22.26 3.82,-22.26 3.82,-22.26 3.82,-22.27 3.81,-22.26 3.82,-22.26 3.82,-22.26 3.82,-22.26 3.81,-22.26 3.83,-22.27 3.81,-22.26 3.82,-22.26 3.82,-22.26 3.81,-22.27 3.83,-22.26 3.81,-22.26 3.82,-22.26 3.82,-22.26 3.81,-22.26 3.82,-22.27 3.82,-22.26 3.82,-22.26 3.82,-22.26 3.82,-22.26 3.81,-22.27 3.82,-22.26 3.82,-22.259 3.82,-22.261 3.82,-22.262 3.81,-22.262 3.82,-22.261 3.82,-22.262 3.82,-22.262 3.82,-22.262 3.81,-22.265 3.82,-22.258 3.82,-22.266 3.82,-22.261 3.82,-22.262 3.81,-22.262 3.82,-22.262 3.82,-22.261 3.82,-22.262 3.82,-22.262 3.82,-22.261 3.81,-22.262 3.82,-22.262 3.82,-22.262 3.82,-22.261 3.82,-22.262 3.81,-22.262 3.82,-22.261 3.82,-22.262 3.82,-22.262 3.82,-22.262 3.81,-22.261"
             style="fill:none;stroke:#038000;stroke-width:4.16667;stroke-linecap:butt;stroke-linejoin:miter;stroke-miterlimit:1;stroke-dasharray:none;stroke-opacity:1"
             id="path286" /><path
             d="m 594.293,3025.77 v 0 l 0.277,-22.26 12.051,-22.26 142.32,-22.27 199.747,-22.26 79.742,-22.26 19.11,-22.26 6.7,-22.26 4.76,-22.26 4.47,-22.27 4.43,-22.26 4.42,-22.26 4.42,-22.26 4.42,-22.26 4.43,-22.26 4.42,-22.27 4.42,-22.26 4.42,-22.26 4.42,-22.26 4.43,-22.26 4.42,-22.26 4.42,-22.27 4.42,-22.26 4.42,-22.26 4.42,-22.26 4.42,-22.26 4.42,-22.27 4.43,-22.26 4.42,-22.26 4.42,-22.26 4.42,-22.27 4.42,-22.26 4.42,-22.26 4.42,-22.26 4.43,-22.26 4.42,-22.26 4.42,-22.27 4.42,-22.26 4.42,-22.26 4.43,-22.26 4.42,-22.26 4.41,-22.26 4.43,-22.27 4.42,-22.26 4.42,-22.26 4.42,-22.26 4.42,-22.26 4.43,-22.27 4.42,-22.26 4.42,-22.26 4.42,-22.26 4.42,-22.26 4.42,-22.27 4.42,-22.26 4.43,-22.26 4.42,-22.26 4.42,-22.26 4.42,-22.27 4.42,-22.26 4.42,-22.26 4.42,-22.26 4.42,-22.26 4.43,-22.26 4.42,-22.27 4.42,-22.26 4.42,-22.26 4.42,-22.26 4.43,-22.26 4.42,-22.27 4.42,-22.26 4.42,-22.26 4.42,-22.26 4.42,-22.26 4.42,-22.26 4.43,-22.27 4.42,-22.26 4.42,-22.26 4.42,-22.26 4.42,-22.27 4.42,-22.26 4.42,-22.26 4.42,-22.26 4.43,-22.26 4.42,-22.26 4.42,-22.27 4.42,-22.26 4.42,-22.26 4.43,-22.26 4.42,-22.26 4.42,-22.27 4.42,-22.26 4.42,-22.259 4.42,-22.261 4.42,-22.262 4.42,-22.262 4.43,-22.261 4.42,-22.262 4.42,-22.262 4.42,-22.262 4.42,-22.265 4.42,-22.258 4.42,-22.266 4.43,-22.261 4.42,-22.262 4.42,-22.262 4.42,-22.262 4.42,-22.261 4.43,-22.262 4.42,-22.262 4.42,-22.261 4.42,-22.262 4.42,-22.262 4.42,-22.262 4.42,-22.261 4.42,-22.262 4.43,-22.262 4.42,-22.261 4.42,-22.262 4.42,-22.262 4.42,-22.262 4.42,-22.261"
             style="fill:none;stroke:#0000b1;stroke-width:4.16667;stroke-linecap:butt;stroke-linejoin:miter;stroke-miterlimit:1;stroke-dasharray:none;stroke-opacity:1"
             id="path288" /><path
             d="m 593.277,3025.77 v 0 l 0.364,-22.26 15.261,-22.26 163.184,-22.27 221.598,-22.26 91.846,-22.26 22.45,-22.26 7.75,-22.26 5.43,-22.26 5.08,-22.27 5.03,-22.26 5.03,-22.26 5.02,-22.26 5.03,-22.26 5.03,-22.26 5.02,-22.27 5.02,-22.26 5.03,-22.26 5.02,-22.26 5.02,-22.26 5.03,-22.26 5.02,-22.27 5.03,-22.26 5.02,-22.26 5.02,-22.26 5.03,-22.26 5.02,-22.27 5.03,-22.26 5.02,-22.26 5.02,-22.26 5.03,-22.27 5.03,-22.26 5.02,-22.26 5.02,-22.26 5.03,-22.26 5.02,-22.26 5.03,-22.27 5.02,-22.26 5.02,-22.26 5.03,-22.26 5.02,-22.26 5.02,-22.26 5.03,-22.27 5.02,-22.26 5.03,-22.26 5.02,-22.26 5.02,-22.26 5.03,-22.27 5.03,-22.26 5.02,-22.26 5.02,-22.26 5.03,-22.26 5.02,-22.27 5.03,-22.26 5.02,-22.26 5.02,-22.26 5.03,-22.26 5.02,-22.27 5.03,-22.26 5.02,-22.26 5.02,-22.26 5.03,-22.26 5.02,-22.26 5.03,-22.27 5.02,-22.26 5.03,-22.26 5.02,-22.26 5.02,-22.26 5.03,-22.27 5.02,-22.26 5.03,-22.26 5.02,-22.26 5.02,-22.26 5.03,-22.26 5.02,-22.27 5.03,-22.26 5.02,-22.26 5.02,-22.26 5.03,-22.27 5.02,-22.26 5.03,-22.26 5.02,-22.26 5.03,-22.26 5.02,-22.26 5.02,-22.27 5.03,-22.26 5.02,-22.26 5.03,-22.26 5.02,-22.26 5.02,-22.27 5.03,-22.26 5.02,-22.259 5.03,-22.261 5.02,-22.262 5.02,-22.262 5.03,-22.261 5.03,-22.262 5.02,-22.262 5.02,-22.262 5.03,-22.265 5.02,-22.258 5.02,-22.266 5.03,-22.261 5.02,-22.262 5.03,-22.262 5.02,-22.262 5.02,-22.261 5.03,-22.262 5.02,-22.262 5.03,-22.261 5.02,-22.262 5.02,-22.262 5.03,-22.262 5.03,-22.261 5.02,-22.262 5.02,-22.262 5.03,-22.261 5.02,-22.262 5.03,-22.262 5.02,-22.262 5.02,-22.261"
             style="fill:none;stroke:#af8000;stroke-width:4.16667;stroke-linecap:butt;stroke-linejoin:miter;stroke-miterlimit:1;stroke-dasharray:none;stroke-opacity:1"
             id="path290" /><path
             d="m 592.266,3025.77 v 0 l 0.449,-22.26 18.762,-22.26 183.261,-22.27 242.762,-22.26 104.62,-22.26 26.13,-22.26 8.86,-22.26 6.11,-22.26 5.7,-22.27 5.63,-22.26 5.63,-22.26 5.63,-22.26 5.62,-22.26 5.63,-22.26 5.63,-22.27 5.62,-22.26 5.63,-22.26 5.63,-22.26 5.62,-22.26 5.63,-22.26 5.63,-22.27 5.62,-22.26 5.63,-22.26 5.62,-22.26 5.63,-22.26 5.62,-22.27 5.63,-22.26 5.63,-22.26 5.62,-22.26 5.63,-22.27 5.62,-22.26 5.63,-22.26 5.63,-22.26 5.62,-22.26 5.63,-22.26 5.63,-22.27 5.62,-22.26 5.63,-22.26 5.62,-22.26 5.63,-22.26 5.62,-22.26 5.63,-22.27 5.63,-22.26 5.62,-22.26 5.63,-22.26 5.63,-22.26 5.62,-22.27 5.63,-22.26 5.63,-22.26 5.62,-22.26 5.63,-22.26 5.62,-22.27 5.63,-22.26 5.63,-22.26 5.62,-22.26 5.63,-22.26 5.62,-22.27 5.63,-22.26 5.62,-22.26 5.63,-22.26 5.63,-22.26 5.62,-22.26 5.63,-22.27 5.63,-22.26 5.62,-22.26 5.63,-22.26 5.63,-22.26 5.62,-22.27 5.63,-22.26 5.63,-22.26 5.62,-22.26 5.63,-22.26 5.62,-22.26 5.63,-22.27 5.62,-22.26 5.63,-22.26 5.63,-22.26 5.62,-22.27 5.63,-22.26 5.62,-22.26 5.63,-22.26 5.63,-22.26 5.62,-22.26 5.63,-22.27 5.63,-22.26 5.62,-22.26 5.63,-22.26 5.62,-22.26 5.63,-22.27 5.62,-22.26 5.63,-22.259 5.63,-22.261 5.62,-22.262 5.63,-22.262 5.63,-22.261 5.62,-22.262 5.63,-22.262 5.63,-22.262 5.62,-22.265 5.63,-22.258 5.62,-22.266 5.63,-22.261 5.63,-22.262 5.62,-22.262 5.63,-22.262 5.62,-22.261 5.63,-22.262 5.62,-22.262 5.63,-22.261 5.63,-22.262 5.62,-22.262 5.63,-22.262 5.63,-22.261 5.62,-22.262 5.63,-22.262 5.63,-22.261 5.62,-22.262 5.63,-22.262 5.62,-22.262 5.63,-22.261"
             style="fill:none;stroke:#7f0081;stroke-width:4.16667;stroke-linecap:butt;stroke-linejoin:miter;stroke-miterlimit:1;stroke-dasharray:none;stroke-opacity:1"
             id="path292" /><path
             d="m 591.25,3025.77 v 0 l 0.555,-22.26 22.511,-22.26 202.532,-22.27 263.262,-22.26 118.05,-22.26 30.19,-22.26 10.04,-22.26 6.8,-22.26 6.31,-22.27 6.24,-22.26 6.23,-22.26 6.23,-22.26 6.23,-22.26 6.22,-22.26 6.23,-22.27 6.23,-22.26 6.23,-22.26 6.22,-22.26 6.23,-22.26 6.23,-22.26 6.22,-22.27 6.23,-22.26 6.23,-22.26 6.23,-22.26 6.22,-22.26 6.23,-22.27 6.23,-22.26 6.23,-22.26 6.22,-22.26 6.23,-22.27 6.23,-22.26 6.23,-22.26 6.22,-22.26 6.23,-22.26 6.23,-22.26 6.22,-22.27 6.23,-22.26 6.23,-22.26 6.23,-22.26 6.22,-22.26 6.23,-22.26 6.23,-22.27 6.23,-22.26 6.22,-22.26 6.23,-22.26 6.23,-22.26 6.23,-22.27 6.22,-22.26 6.23,-22.26 6.23,-22.26 6.23,-22.26 6.22,-22.27 6.23,-22.26 6.23,-22.26 6.22,-22.26 6.23,-22.26 6.23,-22.27 6.23,-22.26 6.22,-22.26 6.23,-22.26 6.23,-22.26 6.23,-22.26 6.22,-22.27 6.23,-22.26 6.23,-22.26 6.22,-22.26 6.23,-22.26 6.23,-22.27 6.23,-22.26 6.22,-22.26 6.23,-22.26 6.23,-22.26 6.23,-22.26 6.22,-22.27 6.23,-22.26 6.23,-22.26 6.23,-22.26 6.22,-22.27 6.23,-22.26 6.23,-22.26 6.23,-22.26 6.22,-22.26 6.23,-22.26 6.23,-22.27 6.22,-22.26 6.23,-22.26 6.23,-22.26 6.23,-22.26 6.22,-22.27 6.23,-22.26 6.23,-22.259 6.23,-22.261 6.22,-22.262 6.23,-22.262 6.23,-22.261 6.23,-22.262 6.22,-22.262 6.23,-22.262 6.23,-22.265 6.22,-22.258 6.23,-22.266 6.23,-22.261 6.23,-22.262 6.22,-22.262 6.23,-22.262 6.23,-22.261 6.23,-22.262 6.22,-22.262 6.23,-22.261 6.23,-22.262 6.23,-22.262 6.22,-22.262 6.23,-22.261 6.23,-22.262 6.22,-22.262 6.23,-22.261 6.23,-22.262 6.23,-22.262 6.22,-22.262 6.23,-22.261"
             style="fill:none;stroke:#800000;stroke-width:4.16667;stroke-linecap:butt;stroke-linejoin:miter;stroke-miterlimit:1;stroke-dasharray:none;stroke-opacity:1"
             id="path294" /></g></g></g></g></svg>
