<?xml version="1.0" encoding="UTF-8" standalone="no"?>
<svg
   xmlns:dc="http://purl.org/dc/elements/1.1/"
   xmlns:cc="http://creativecommons.org/ns#"
   xmlns:rdf="http://www.w3.org/1999/02/22-rdf-syntax-ns#"
   xmlns:svg="http://www.w3.org/2000/svg"
   xmlns="http://www.w3.org/2000/svg"
   version="1.1"
   id="svg1486"
   xml:space="preserve"
   width="601.1391"
   height="361.33768"
   viewBox="0 0 901.70863 542.00654"><metadata
     id="metadata1492"><rdf:RDF><cc:Work
         rdf:about=""><dc:format>image/svg+xml</dc:format><dc:type
           rdf:resource="http://purl.org/dc/dcmitype/StillImage" /><dc:title></dc:title></cc:Work></rdf:RDF></metadata><defs
     id="defs1490"><clipPath
       clipPathUnits="userSpaceOnUse"
       id="clipPath1504"><path
         d="m 375,299.582 h 1729.17 v 2908.34 H 375 Z"
         id="path1502" /></clipPath><clipPath
       clipPathUnits="userSpaceOnUse"
       id="clipPath1668"><path
         d="m 500,387.082 h 1520.83 v 2675 H 500 Z"
         id="path1666" /></clipPath></defs><g
     id="g1494"
     transform="matrix(0,-1.3333333,-1.3333333,0,1025.6046,667.07604)"><g
       id="g1496"
       transform="scale(0.24)"><g
         id="g1498"><g
           id="g1500"
           clip-path="url(#clipPath1504)"><path
             d="M 500,3060.89 H 458.332"
             style="fill:none;stroke:#afafaf;stroke-width:4.16667;stroke-linecap:butt;stroke-linejoin:miter;stroke-miterlimit:10;stroke-dasharray:none;stroke-opacity:1"
             id="path1506" /><g
             id="g1508"
             transform="scale(4.16667)"><text
               transform="matrix(0,-1,-1,0,94.0003,755.686)"
               style="font-variant:normal;font-weight:normal;font-size:14px;font-family:Menlo;-inkscape-font-specification:Menlo-Regular;writing-mode:lr-tb;fill:#afafaf;fill-opacity:1;fill-rule:nonzero;stroke:none"
               id="text1512"><tspan
                 x="0 8.4280005 16.856001 25.283415 33.711414"
                 y="0"
                 id="tspan1510">0.0ms</tspan></text></g><path
             d="M 500,2726.96 H 458.332"
             style="fill:none;stroke:#afafaf;stroke-width:4.16667;stroke-linecap:butt;stroke-linejoin:miter;stroke-miterlimit:10;stroke-dasharray:none;stroke-opacity:1"
             id="path1514" /><g
             id="g1516"
             transform="scale(4.16667)"><text
               transform="matrix(0,-1,-1,0,94.0003,675.543)"
               style="font-variant:normal;font-weight:normal;font-size:14px;font-family:Menlo;-inkscape-font-specification:Menlo-Regular;writing-mode:lr-tb;fill:#afafaf;fill-opacity:1;fill-rule:nonzero;stroke:none"
               id="text1520"><tspan
                 x="0 8.4274139 16.855413 25.283415 33.710827"
                 y="0"
                 id="tspan1518">0.2ms</tspan></text></g><path
             d="M 500,2393.04 H 458.332"
             style="fill:none;stroke:#afafaf;stroke-width:4.16667;stroke-linecap:butt;stroke-linejoin:miter;stroke-miterlimit:10;stroke-dasharray:none;stroke-opacity:1"
             id="path1522" /><g
             id="g1524"
             transform="scale(4.16667)"><text
               transform="matrix(0,-1,-1,0,94.0003,595.4)"
               style="font-variant:normal;font-weight:normal;font-size:14px;font-family:Menlo;-inkscape-font-specification:Menlo-Regular;writing-mode:lr-tb;fill:#afafaf;fill-opacity:1;fill-rule:nonzero;stroke:none"
               id="text1528"><tspan
                 x="0 8.4274139 16.855413 25.282827 33.710827"
                 y="0"
                 id="tspan1526">0.4ms</tspan></text></g><path
             d="M 500,2059.11 H 458.332"
             style="fill:none;stroke:#afafaf;stroke-width:4.16667;stroke-linecap:butt;stroke-linejoin:miter;stroke-miterlimit:10;stroke-dasharray:none;stroke-opacity:1"
             id="path1530" /><g
             id="g1532"
             transform="scale(4.16667)"><text
               transform="matrix(0,-1,-1,0,94.0003,515.257)"
               style="font-variant:normal;font-weight:normal;font-size:14px;font-family:Menlo;-inkscape-font-specification:Menlo-Regular;writing-mode:lr-tb;fill:#afafaf;fill-opacity:1;fill-rule:nonzero;stroke:none"
               id="text1536"><tspan
                 x="0 8.4280005 16.855413 25.283415 33.711414"
                 y="0"
                 id="tspan1534">0.6ms</tspan></text></g><path
             d="M 500,1725.18 H 458.332"
             style="fill:none;stroke:#afafaf;stroke-width:4.16667;stroke-linecap:butt;stroke-linejoin:miter;stroke-miterlimit:10;stroke-dasharray:none;stroke-opacity:1"
             id="path1538" /><g
             id="g1540"
             transform="scale(4.16667)"><text
               transform="matrix(0,-1,-1,0,94.0003,435.114)"
               style="font-variant:normal;font-weight:normal;font-size:14px;font-family:Menlo;-inkscape-font-specification:Menlo-Regular;writing-mode:lr-tb;fill:#afafaf;fill-opacity:1;fill-rule:nonzero;stroke:none"
               id="text1544"><tspan
                 x="0 8.4274139 16.855413 25.283415 33.710827"
                 y="0"
                 id="tspan1542">0.8ms</tspan></text></g><path
             d="M 500,1391.25 H 458.332"
             style="fill:none;stroke:#afafaf;stroke-width:4.16667;stroke-linecap:butt;stroke-linejoin:miter;stroke-miterlimit:10;stroke-dasharray:none;stroke-opacity:1"
             id="path1546" /><g
             id="g1548"
             transform="scale(4.16667)"><text
               transform="matrix(0,-1,-1,0,94.0003,354.972)"
               style="font-variant:normal;font-weight:normal;font-size:14px;font-family:Menlo;-inkscape-font-specification:Menlo-Regular;writing-mode:lr-tb;fill:#afafaf;fill-opacity:1;fill-rule:nonzero;stroke:none"
               id="text1552"><tspan
                 x="0 8.4280005 16.856001 25.283415 33.711414"
                 y="0"
                 id="tspan1550">1.0ms</tspan></text></g><path
             d="M 500,1057.32 H 458.332"
             style="fill:none;stroke:#afafaf;stroke-width:4.16667;stroke-linecap:butt;stroke-linejoin:miter;stroke-miterlimit:10;stroke-dasharray:none;stroke-opacity:1"
             id="path1554" /><g
             id="g1556"
             transform="scale(4.16667)"><text
               transform="matrix(0,-1,-1,0,94.0003,274.829)"
               style="font-variant:normal;font-weight:normal;font-size:14px;font-family:Menlo;-inkscape-font-specification:Menlo-Regular;writing-mode:lr-tb;fill:#afafaf;fill-opacity:1;fill-rule:nonzero;stroke:none"
               id="text1560"><tspan
                 x="0 8.4280005 16.855413 25.283415 33.710827"
                 y="0"
                 id="tspan1558">1.2ms</tspan></text></g><path
             d="M 500,723.395 H 458.332"
             style="fill:none;stroke:#afafaf;stroke-width:4.16667;stroke-linecap:butt;stroke-linejoin:miter;stroke-miterlimit:10;stroke-dasharray:none;stroke-opacity:1"
             id="path1562" /><g
             id="g1564"
             transform="scale(4.16667)"><text
               transform="matrix(0,-1,-1,0,94.0003,194.686)"
               style="font-variant:normal;font-weight:normal;font-size:14px;font-family:Menlo;-inkscape-font-specification:Menlo-Regular;writing-mode:lr-tb;fill:#afafaf;fill-opacity:1;fill-rule:nonzero;stroke:none"
               id="text1570"><tspan
                 x="0 8.4274139 16.855413 25.282827 33.710827"
                 y="0"
                 id="tspan1566">1.4ms</tspan><tspan
                 x="-558.35602 -566.78503 -575.21411"
                 y="-20"
                 id="tspan1568">V5-</tspan></text></g><path
             d="m 500,3060.89 v 41.67"
             style="fill:none;stroke:#afafaf;stroke-width:4.16667;stroke-linecap:butt;stroke-linejoin:miter;stroke-miterlimit:10;stroke-dasharray:none;stroke-opacity:1"
             id="path1572" /><g
             id="g1574"
             transform="scale(4.16667)"><text
               transform="matrix(0,-1,-1,0,150.5,753.042)"
               style="font-variant:normal;font-weight:normal;font-size:14px;font-family:Menlo;-inkscape-font-specification:Menlo-Regular;writing-mode:lr-tb;fill:#afafaf;fill-opacity:1;fill-rule:nonzero;stroke:none"
               id="text1578"><tspan
                 x="0 -8.42906 -16.85812"
                 y="0"
                 id="tspan1576">V4-</tspan></text></g><path
             d="m 652.082,3060.89 v 41.67"
             style="fill:none;stroke:#afafaf;stroke-width:4.16667;stroke-linecap:butt;stroke-linejoin:miter;stroke-miterlimit:10;stroke-dasharray:none;stroke-opacity:1"
             id="path1580" /><g
             id="g1582"
             transform="scale(4.16667)"><text
               transform="matrix(0,-1,-1,0,187,753.042)"
               style="font-variant:normal;font-weight:normal;font-size:14px;font-family:Menlo;-inkscape-font-specification:Menlo-Regular;writing-mode:lr-tb;fill:#afafaf;fill-opacity:1;fill-rule:nonzero;stroke:none"
               id="text1586"><tspan
                 x="0 -8.42906 -16.85812"
                 y="0"
                 id="tspan1584">V3-</tspan></text></g><path
             d="m 804.168,3060.89 v 41.67"
             style="fill:none;stroke:#afafaf;stroke-width:4.16667;stroke-linecap:butt;stroke-linejoin:miter;stroke-miterlimit:10;stroke-dasharray:none;stroke-opacity:1"
             id="path1588" /><g
             id="g1590"
             transform="scale(4.16667)"><text
               transform="matrix(0,-1,-1,0,223.5,753.042)"
               style="font-variant:normal;font-weight:normal;font-size:14px;font-family:Menlo;-inkscape-font-specification:Menlo-Regular;writing-mode:lr-tb;fill:#afafaf;fill-opacity:1;fill-rule:nonzero;stroke:none"
               id="text1594"><tspan
                 x="0 -8.42906 -16.85812"
                 y="0"
                 id="tspan1592">V2-</tspan></text></g><path
             d="m 956.25,3060.89 v 41.67"
             style="fill:none;stroke:#afafaf;stroke-width:4.16667;stroke-linecap:butt;stroke-linejoin:miter;stroke-miterlimit:10;stroke-dasharray:none;stroke-opacity:1"
             id="path1596" /><g
             id="g1598"
             transform="scale(4.16667)"><text
               transform="matrix(0,-1,-1,0,260,753.042)"
               style="font-variant:normal;font-weight:normal;font-size:14px;font-family:Menlo;-inkscape-font-specification:Menlo-Regular;writing-mode:lr-tb;fill:#afafaf;fill-opacity:1;fill-rule:nonzero;stroke:none"
               id="text1602"><tspan
                 x="0 -8.42906 -16.85812"
                 y="0"
                 id="tspan1600">V1-</tspan></text></g><path
             d="m 1108.33,3060.89 v 41.67"
             style="fill:none;stroke:#afafaf;stroke-width:4.16667;stroke-linecap:butt;stroke-linejoin:miter;stroke-miterlimit:10;stroke-dasharray:none;stroke-opacity:1"
             id="path1604" /><g
             id="g1606"
             transform="scale(4.16667)"><text
               transform="matrix(0,-1,-1,0,296.5,753.042)"
               style="font-variant:normal;font-weight:normal;font-size:14px;font-family:Menlo;-inkscape-font-specification:Menlo-Regular;writing-mode:lr-tb;fill:#afafaf;fill-opacity:1;fill-rule:nonzero;stroke:none"
               id="text1610"><tspan
                 x="0 -8.42906"
                 y="0"
                 id="tspan1608">V0</tspan></text></g><path
             d="m 1260.42,3060.89 v 41.67"
             style="fill:none;stroke:#afafaf;stroke-width:4.16667;stroke-linecap:butt;stroke-linejoin:miter;stroke-miterlimit:10;stroke-dasharray:none;stroke-opacity:1"
             id="path1612" /><g
             id="g1614"
             transform="scale(4.16667)"><text
               transform="matrix(0,-1,-1,0,333,753.042)"
               style="font-variant:normal;font-weight:normal;font-size:14px;font-family:Menlo;-inkscape-font-specification:Menlo-Regular;writing-mode:lr-tb;fill:#afafaf;fill-opacity:1;fill-rule:nonzero;stroke:none"
               id="text1618"><tspan
                 x="0 -8.42906"
                 y="0"
                 id="tspan1616">V1</tspan></text></g><path
             d="m 1412.5,3060.89 v 41.67"
             style="fill:none;stroke:#afafaf;stroke-width:4.16667;stroke-linecap:butt;stroke-linejoin:miter;stroke-miterlimit:10;stroke-dasharray:none;stroke-opacity:1"
             id="path1620" /><g
             id="g1622"
             transform="scale(4.16667)"><text
               transform="matrix(0,-1,-1,0,369.5,753.042)"
               style="font-variant:normal;font-weight:normal;font-size:14px;font-family:Menlo;-inkscape-font-specification:Menlo-Regular;writing-mode:lr-tb;fill:#afafaf;fill-opacity:1;fill-rule:nonzero;stroke:none"
               id="text1626"><tspan
                 x="0 -8.42906"
                 y="0"
                 id="tspan1624">V2</tspan></text></g><path
             d="m 1564.58,3060.89 v 41.67"
             style="fill:none;stroke:#afafaf;stroke-width:4.16667;stroke-linecap:butt;stroke-linejoin:miter;stroke-miterlimit:10;stroke-dasharray:none;stroke-opacity:1"
             id="path1628" /><g
             id="g1630"
             transform="scale(4.16667)"><text
               transform="matrix(0,-1,-1,0,406,753.042)"
               style="font-variant:normal;font-weight:normal;font-size:14px;font-family:Menlo;-inkscape-font-specification:Menlo-Regular;writing-mode:lr-tb;fill:#afafaf;fill-opacity:1;fill-rule:nonzero;stroke:none"
               id="text1634"><tspan
                 x="0 -8.42906"
                 y="0"
                 id="tspan1632">V3</tspan></text></g><path
             d="m 1716.67,3060.89 v 41.67"
             style="fill:none;stroke:#afafaf;stroke-width:4.16667;stroke-linecap:butt;stroke-linejoin:miter;stroke-miterlimit:10;stroke-dasharray:none;stroke-opacity:1"
             id="path1636" /><g
             id="g1638"
             transform="scale(4.16667)"><text
               transform="matrix(0,-1,-1,0,442.5,753.042)"
               style="font-variant:normal;font-weight:normal;font-size:14px;font-family:Menlo;-inkscape-font-specification:Menlo-Regular;writing-mode:lr-tb;fill:#afafaf;fill-opacity:1;fill-rule:nonzero;stroke:none"
               id="text1642"><tspan
                 x="0 -8.42906"
                 y="0"
                 id="tspan1640">V4</tspan></text></g><path
             d="m 1868.75,3060.89 v 41.67"
             style="fill:none;stroke:#afafaf;stroke-width:4.16667;stroke-linecap:butt;stroke-linejoin:miter;stroke-miterlimit:10;stroke-dasharray:none;stroke-opacity:1"
             id="path1644" /><g
             id="g1646"
             transform="scale(4.16667)"><text
               transform="matrix(0,-1,-1,0,479,753.042)"
               style="font-variant:normal;font-weight:normal;font-size:14px;font-family:Menlo;-inkscape-font-specification:Menlo-Regular;writing-mode:lr-tb;fill:#afafaf;fill-opacity:1;fill-rule:nonzero;stroke:none"
               id="text1650"><tspan
                 x="0 -8.42906"
                 y="0"
                 id="tspan1648">V5</tspan></text></g><path
             d="m 2020.83,3060.89 v 41.67"
             style="fill:none;stroke:#afafaf;stroke-width:4.16667;stroke-linecap:butt;stroke-linejoin:miter;stroke-miterlimit:10;stroke-dasharray:none;stroke-opacity:1"
             id="path1652" /><path
             d="m 500,389.465 h 1520.83 v 2671.43 H 500 Z"
             style="fill:none;stroke:#afafaf;stroke-width:4.16667;stroke-linecap:butt;stroke-linejoin:miter;stroke-miterlimit:10;stroke-dasharray:none;stroke-opacity:1"
             id="path1654" /><g
             id="g1656"
             transform="scale(4.16667)"><text
               transform="matrix(0,-1,-1,0,489,443.615)"
               style="font-variant:normal;font-weight:normal;font-size:14px;font-family:Menlo;-inkscape-font-specification:Menlo-Regular;writing-mode:lr-tb;fill:#0eff00;fill-opacity:1;fill-rule:nonzero;stroke:none"
               id="text1660"><tspan
                 x="0 8.4280005 16.856001 25.283415 33.711414 42.138828 50.56683"
                 y="0"
                 id="tspan1658">V(vout) @ 2744Hz</tspan></text></g></g></g><g
         id="g1662"><g
           id="g1664"
           clip-path="url(#clipPath1668)"><path
             d="m 568.203,3060.89 v 0 l -1.367,-2.09 0.527,-2.8 2.184,-3.72 3.16,-4.32 6.258,-6.46 14.629,-9.34 26.133,-10.19 40.683,-10.69 53.649,-10.68 64.468,-10.69 72.317,-10.68 76.945,-10.69 78.421,-10.69 77.05,-10.68 73.34,-10.69 67.88,-10.68 61.32,-10.69 54.2,-10.68 47.02,-10.69 40.11,-10.69 33.75,-10.68 28.05,-10.69 23.05,-10.68 18.77,-10.69 15.16,-10.68 12.13,-10.69 9.64,-10.69 7.59,-10.68 5.91,-10.69 4.54,-10.68 3.44,-10.69 2.54,-10.69 1.79,-10.68 1.19,-10.69 0.66,-10.68 0.2,-10.69 -0.23,-10.68 -0.65,-10.69 -1.12,-10.69 -1.69,-10.68 -2.41,-10.69 -3.4,-10.68 -4.8,-10.69 -6.79,-10.68 -9.66,-10.69 -13.77,-10.68 -19.54,-10.69 -27.44,-10.68 -37.86,-10.69 -50.92,-10.69 -66.28,-10.68 -82.86,-10.69 -98.81,-10.68 -111.76,-10.69 -119.413,-10.69 -119.992,-10.68 -112.743,-10.69 -97.226,-10.68 -39.43,-6.25 -7.461,-3.47 2.508,-4.58 1.078,-2.31 0.281,-3.19 1.485,-4.15 2.269,-4.26 3.555,-6 8.047,-9.21 14.75,-9.72 26.234,-10.3 40.59,-10.68 53.59,-10.69 64.41,-10.69 72.262,-10.68 76.91,-10.69 78.396,-10.68 77.03,-10.69 73.35,-10.69 67.9,-10.68 61.33,-10.69 54.22,-10.68 47.04,-10.69 40.14,-10.68 33.78,-10.69 28.06,-10.68 23.08,-10.69 18.79,-10.68 15.17,-10.69 12.14,-10.68 9.65,-10.69 7.6,-10.69 5.91,-10.68 4.56,-10.69 3.44,-10.68 2.54,-10.69 1.8,-10.69 1.18,-10.68 0.67,-10.69 0.2,-10.68 -0.22,-10.69 -0.65,-10.69 -1.12,-10.68 -1.68,-10.69 -2.4,-10.68 -3.4,-10.69 -4.78,-10.68 -6.78,-10.69 -9.64,-10.69 -13.73,-10.68 -19.5,-10.69 -27.38,-10.68 -37.78,-10.69 -50.83,-10.68 -66.17,-10.69 -82.75,-10.68 -98.71,-10.69 -111.69,-10.69 -119.375,-10.68 -120.004,-10.69 -112.805,-10.68 -97.363,-10.69 -39.922,-6.29 -7.571,-3.48 2.504,-4.59 1.075,-2.3 0.265,-3.2 1.449,-4.09 2.25,-4.22 3.52,-5.97 7.902,-9.14 14.539,-9.68 26.446,-10.45 40.429,-10.68 53.485,-10.69 64.336,-10.68 72.215,-10.69 76.886,-10.69 78.399,-10.68 77.06,-10.69 73.39,-10.68 67.95,-10.69 61.4,-10.69 54.29,-10.68 47.1,-10.69 40.2,-10.68 33.82,-10.69 28.12,-10.68 23.11,-10.69 18.83,-10.68 15.19,-10.69 12.18,-10.68 9.66,-10.69 7.61,-10.69 5.94,-10.68 4.56,-10.69 3.45,-10.68 2.55,-10.69 1.81,-10.68 1.19,-10.69 0.66,-10.69 0.21,-10.68 -0.21,-10.69 -0.65,-10.68 -1.11,-10.69 -1.68,-10.69 -2.4,-10.68 -3.38,-10.69 -4.76,-10.68 -6.76,-10.69 -9.61,-10.68 -13.7,-10.69 -19.43,-10.69 -27.31,-10.68 -37.67,-10.69 -50.71,-10.68 -66.03,-10.69 -82.6,-10.68 -98.57,-10.69 -111.6,-10.68 -119.339,-10.69 -120.027,-10.69 -112.902,-10.68 -97.489,-10.69 -40.621,-6.37 -7.683,-3.49 2.511,-4.63 1.075,-2.3 0.25,-3.2 1.437,-4.06 2.238,-4.21 3.508,-5.94 7.828,-9.1 14.434,-9.64 26.543,-10.52 40.355,-10.68 53.45,-10.69 64.3,-10.68 72.196,-10.69 76.879,-10.69 78.407,-10.68 77.07,-10.69 73.41,-10.68 67.98,-10.69 61.43,-10.69 54.31,-10.68 47.13,-10.69 40.22,-10.68 33.86,-10.69 28.13,-10.68 23.13,-10.69 18.84,-10.68 15.22,-10.69 12.18,-10.683 9.67,-10.688 7.62,-10.684 5.94,-10.687 4.57,-10.688 3.45,-10.683 2.56,-10.688 1.81,-10.683 1.19,-10.688 0.67,-10.683 0.21,-10.688 -0.21,-10.683 -0.65,-10.688 -1.11,-10.683 -1.67,-10.688 -2.4,-10.684 -3.37,-10.687 -4.77,-10.688 -6.74,-10.683 -9.6,-10.688 -13.67,-10.683 -19.41,-10.688 -27.27,-10.683 -37.63,-10.688 -50.65,-10.683 -65.97,-10.688 -82.54,-10.684 -98.51,-10.687 -111.55,-10.688 -119.315,-10.683 -120.039,-10.688 -112.937,-10.683 -97.508,-10.688 -41.012,-6.433 -7.719,-3.5 2.524,-4.653 1.074,-2.3 0.25,-3.207 1.449,-4.083 2.25,-4.218 3.516,-5.942 7.871,-9.093 14.5,-9.645 26.469,-10.457 40.426,-10.687 53.488,-10.684 64.336,-10.688 72.222,-10.683 76.891,-10.688 78.404,-10.687 77.07,-10.684 73.39,-10.687 67.97,-10.684 61.4,-10.687 54.3,-10.684 47.1,-10.687 40.21,-10.684 33.83,-10.688 28.12,-10.683 23.12,-10.688 18.82,-10.683 15.49,-10.688 8.04,-6.441"
             style="fill:none;stroke:#0eff00;stroke-width:4.16667;stroke-linecap:butt;stroke-linejoin:miter;stroke-miterlimit:1;stroke-dasharray:none;stroke-opacity:1"
             id="path1670" /><path
             d="m 1261.02,3057.48 -1.4,-2670.304"
             style="fill:none;stroke:#afafaf;stroke-width:4.16667;stroke-linecap:butt;stroke-linejoin:miter;stroke-miterlimit:10;stroke-dasharray:none;stroke-opacity:1"
             id="path1672" /></g></g></g></g></svg>
