<?xml version="1.0" encoding="UTF-8" standalone="no"?>
<svg
   xmlns:dc="http://purl.org/dc/elements/1.1/"
   xmlns:cc="http://creativecommons.org/ns#"
   xmlns:rdf="http://www.w3.org/1999/02/22-rdf-syntax-ns#"
   xmlns:svg="http://www.w3.org/2000/svg"
   xmlns="http://www.w3.org/2000/svg"
   version="1.1"
   id="svg1264"
   xml:space="preserve"
   width="604.84088"
   height="361.33768"
   viewBox="0 0 907.26131 542.00654"><metadata
     id="metadata1270"><rdf:RDF><cc:Work
         rdf:about=""><dc:format>image/svg+xml</dc:format><dc:type
           rdf:resource="http://purl.org/dc/dcmitype/StillImage" /><dc:title></dc:title></cc:Work></rdf:RDF></metadata><defs
     id="defs1268"><clipPath
       clipPathUnits="userSpaceOnUse"
       id="clipPath1282"><path
         d="m 375,299.582 h 1729.17 v 2908.34 H 375 Z"
         id="path1280" /></clipPath><clipPath
       clipPathUnits="userSpaceOnUse"
       id="clipPath1462"><path
         d="m 500,370.418 h 1520.83 v 2691.66 H 500 Z"
         id="path1460" /></clipPath></defs><g
     id="g1272"
     transform="matrix(0,-1.3333333,-1.3333333,0,1025.6046,667.07604)"><g
       id="g1274"
       transform="scale(0.24)"><g
         id="g1276"><g
           id="g1278"
           clip-path="url(#clipPath1282)"><path
             d="M 500,3060.89 H 458.332"
             style="fill:none;stroke:#afafaf;stroke-width:4.16667;stroke-linecap:butt;stroke-linejoin:miter;stroke-miterlimit:10;stroke-dasharray:none;stroke-opacity:1"
             id="path1284" /><g
             id="g1286"
             transform="scale(4.16667)"><text
               transform="matrix(0,-1,-1,0,94.0003,747.257)"
               style="font-variant:normal;font-weight:normal;font-size:14px;font-family:Menlo;-inkscape-font-specification:Menlo-Regular;writing-mode:lr-tb;fill:#afafaf;fill-opacity:1;fill-rule:nonzero;stroke:none"
               id="text1290"><tspan
                 x="0 8.4280005 16.855413"
                 y="0"
                 id="tspan1288">0ms</tspan></text></g><path
             d="M 500,2791.99 H 458.332"
             style="fill:none;stroke:#afafaf;stroke-width:4.16667;stroke-linecap:butt;stroke-linejoin:miter;stroke-miterlimit:10;stroke-dasharray:none;stroke-opacity:1"
             id="path1292" /><g
             id="g1294"
             transform="scale(4.16667)"><text
               transform="matrix(0,-1,-1,0,94.0003,682.721)"
               style="font-variant:normal;font-weight:normal;font-size:14px;font-family:Menlo;-inkscape-font-specification:Menlo-Regular;writing-mode:lr-tb;fill:#afafaf;fill-opacity:1;fill-rule:nonzero;stroke:none"
               id="text1298"><tspan
                 x="0 8.4280005 16.855413"
                 y="0"
                 id="tspan1296">1ms</tspan></text></g><path
             d="M 500,2523.09 H 458.332"
             style="fill:none;stroke:#afafaf;stroke-width:4.16667;stroke-linecap:butt;stroke-linejoin:miter;stroke-miterlimit:10;stroke-dasharray:none;stroke-opacity:1"
             id="path1300" /><g
             id="g1302"
             transform="scale(4.16667)"><text
               transform="matrix(0,-1,-1,0,94.0003,618.186)"
               style="font-variant:normal;font-weight:normal;font-size:14px;font-family:Menlo;-inkscape-font-specification:Menlo-Regular;writing-mode:lr-tb;fill:#afafaf;fill-opacity:1;fill-rule:nonzero;stroke:none"
               id="text1306"><tspan
                 x="0 8.4280005 16.855413"
                 y="0"
                 id="tspan1304">2ms</tspan></text></g><path
             d="M 500,2254.2 H 458.332"
             style="fill:none;stroke:#afafaf;stroke-width:4.16667;stroke-linecap:butt;stroke-linejoin:miter;stroke-miterlimit:10;stroke-dasharray:none;stroke-opacity:1"
             id="path1308" /><g
             id="g1310"
             transform="scale(4.16667)"><text
               transform="matrix(0,-1,-1,0,94.0003,553.65)"
               style="font-variant:normal;font-weight:normal;font-size:14px;font-family:Menlo;-inkscape-font-specification:Menlo-Regular;writing-mode:lr-tb;fill:#afafaf;fill-opacity:1;fill-rule:nonzero;stroke:none"
               id="text1314"><tspan
                 x="0 8.4280005 16.855413"
                 y="0"
                 id="tspan1312">3ms</tspan></text></g><path
             d="M 500,1985.3 H 458.332"
             style="fill:none;stroke:#afafaf;stroke-width:4.16667;stroke-linecap:butt;stroke-linejoin:miter;stroke-miterlimit:10;stroke-dasharray:none;stroke-opacity:1"
             id="path1316" /><g
             id="g1318"
             transform="scale(4.16667)"><text
               transform="matrix(0,-1,-1,0,94.0003,489.114)"
               style="font-variant:normal;font-weight:normal;font-size:14px;font-family:Menlo;-inkscape-font-specification:Menlo-Regular;writing-mode:lr-tb;fill:#afafaf;fill-opacity:1;fill-rule:nonzero;stroke:none"
               id="text1322"><tspan
                 x="0 8.4280005 16.855413"
                 y="0"
                 id="tspan1320">4ms</tspan></text></g><path
             d="M 500,1716.4 H 458.332"
             style="fill:none;stroke:#afafaf;stroke-width:4.16667;stroke-linecap:butt;stroke-linejoin:miter;stroke-miterlimit:10;stroke-dasharray:none;stroke-opacity:1"
             id="path1324" /><g
             id="g1326"
             transform="scale(4.16667)"><text
               transform="matrix(0,-1,-1,0,94.0003,424.579)"
               style="font-variant:normal;font-weight:normal;font-size:14px;font-family:Menlo;-inkscape-font-specification:Menlo-Regular;writing-mode:lr-tb;fill:#afafaf;fill-opacity:1;fill-rule:nonzero;stroke:none"
               id="text1330"><tspan
                 x="0 8.4280005 16.855413"
                 y="0"
                 id="tspan1328">5ms</tspan></text></g><path
             d="M 500,1447.5 H 458.332"
             style="fill:none;stroke:#afafaf;stroke-width:4.16667;stroke-linecap:butt;stroke-linejoin:miter;stroke-miterlimit:10;stroke-dasharray:none;stroke-opacity:1"
             id="path1332" /><g
             id="g1334"
             transform="scale(4.16667)"><text
               transform="matrix(0,-1,-1,0,94.0003,360.043)"
               style="font-variant:normal;font-weight:normal;font-size:14px;font-family:Menlo;-inkscape-font-specification:Menlo-Regular;writing-mode:lr-tb;fill:#afafaf;fill-opacity:1;fill-rule:nonzero;stroke:none"
               id="text1338"><tspan
                 x="0 8.4280005 16.855413"
                 y="0"
                 id="tspan1336">6ms</tspan></text></g><path
             d="M 500,1178.6 H 458.332"
             style="fill:none;stroke:#afafaf;stroke-width:4.16667;stroke-linecap:butt;stroke-linejoin:miter;stroke-miterlimit:10;stroke-dasharray:none;stroke-opacity:1"
             id="path1340" /><g
             id="g1342"
             transform="scale(4.16667)"><text
               transform="matrix(0,-1,-1,0,94.0003,295.507)"
               style="font-variant:normal;font-weight:normal;font-size:14px;font-family:Menlo;-inkscape-font-specification:Menlo-Regular;writing-mode:lr-tb;fill:#afafaf;fill-opacity:1;fill-rule:nonzero;stroke:none"
               id="text1346"><tspan
                 x="0 8.4280005 16.855413"
                 y="0"
                 id="tspan1344">7ms</tspan></text></g><path
             d="M 500,909.703 H 458.332"
             style="fill:none;stroke:#afafaf;stroke-width:4.16667;stroke-linecap:butt;stroke-linejoin:miter;stroke-miterlimit:10;stroke-dasharray:none;stroke-opacity:1"
             id="path1348" /><g
             id="g1350"
             transform="scale(4.16667)"><text
               transform="matrix(0,-1,-1,0,94.0003,230.972)"
               style="font-variant:normal;font-weight:normal;font-size:14px;font-family:Menlo;-inkscape-font-specification:Menlo-Regular;writing-mode:lr-tb;fill:#afafaf;fill-opacity:1;fill-rule:nonzero;stroke:none"
               id="text1354"><tspan
                 x="0 8.4280005 16.855413"
                 y="0"
                 id="tspan1352">8ms</tspan></text></g><path
             d="M 500,640.805 H 458.332"
             style="fill:none;stroke:#afafaf;stroke-width:4.16667;stroke-linecap:butt;stroke-linejoin:miter;stroke-miterlimit:10;stroke-dasharray:none;stroke-opacity:1"
             id="path1356" /><g
             id="g1358"
             transform="scale(4.16667)"><text
               transform="matrix(0,-1,-1,0,94.0003,166.436)"
               style="font-variant:normal;font-weight:normal;font-size:14px;font-family:Menlo;-inkscape-font-specification:Menlo-Regular;writing-mode:lr-tb;fill:#afafaf;fill-opacity:1;fill-rule:nonzero;stroke:none"
               id="text1364"><tspan
                 x="0 8.4280005 16.855413"
                 y="0"
                 id="tspan1360">9ms</tspan><tspan
                 x="-586.60602 -595.03503 -603.46411"
                 y="-20"
                 id="tspan1362">V5-</tspan></text></g><path
             d="m 500,3060.89 v 41.67"
             style="fill:none;stroke:#afafaf;stroke-width:4.16667;stroke-linecap:butt;stroke-linejoin:miter;stroke-miterlimit:10;stroke-dasharray:none;stroke-opacity:1"
             id="path1366" /><g
             id="g1368"
             transform="scale(4.16667)"><text
               transform="matrix(0,-1,-1,0,150.5,753.042)"
               style="font-variant:normal;font-weight:normal;font-size:14px;font-family:Menlo;-inkscape-font-specification:Menlo-Regular;writing-mode:lr-tb;fill:#afafaf;fill-opacity:1;fill-rule:nonzero;stroke:none"
               id="text1372"><tspan
                 x="0 -8.42906 -16.85812"
                 y="0"
                 id="tspan1370">V4-</tspan></text></g><path
             d="m 652.082,3060.89 v 41.67"
             style="fill:none;stroke:#afafaf;stroke-width:4.16667;stroke-linecap:butt;stroke-linejoin:miter;stroke-miterlimit:10;stroke-dasharray:none;stroke-opacity:1"
             id="path1374" /><g
             id="g1376"
             transform="scale(4.16667)"><text
               transform="matrix(0,-1,-1,0,187,753.042)"
               style="font-variant:normal;font-weight:normal;font-size:14px;font-family:Menlo;-inkscape-font-specification:Menlo-Regular;writing-mode:lr-tb;fill:#afafaf;fill-opacity:1;fill-rule:nonzero;stroke:none"
               id="text1380"><tspan
                 x="0 -8.42906 -16.85812"
                 y="0"
                 id="tspan1378">V3-</tspan></text></g><path
             d="m 804.168,3060.89 v 41.67"
             style="fill:none;stroke:#afafaf;stroke-width:4.16667;stroke-linecap:butt;stroke-linejoin:miter;stroke-miterlimit:10;stroke-dasharray:none;stroke-opacity:1"
             id="path1382" /><g
             id="g1384"
             transform="scale(4.16667)"><text
               transform="matrix(0,-1,-1,0,223.5,753.042)"
               style="font-variant:normal;font-weight:normal;font-size:14px;font-family:Menlo;-inkscape-font-specification:Menlo-Regular;writing-mode:lr-tb;fill:#afafaf;fill-opacity:1;fill-rule:nonzero;stroke:none"
               id="text1388"><tspan
                 x="0 -8.42906 -16.85812"
                 y="0"
                 id="tspan1386">V2-</tspan></text></g><path
             d="m 956.25,3060.89 v 41.67"
             style="fill:none;stroke:#afafaf;stroke-width:4.16667;stroke-linecap:butt;stroke-linejoin:miter;stroke-miterlimit:10;stroke-dasharray:none;stroke-opacity:1"
             id="path1390" /><g
             id="g1392"
             transform="scale(4.16667)"><text
               transform="matrix(0,-1,-1,0,260,753.042)"
               style="font-variant:normal;font-weight:normal;font-size:14px;font-family:Menlo;-inkscape-font-specification:Menlo-Regular;writing-mode:lr-tb;fill:#afafaf;fill-opacity:1;fill-rule:nonzero;stroke:none"
               id="text1396"><tspan
                 x="0 -8.42906 -16.85812"
                 y="0"
                 id="tspan1394">V1-</tspan></text></g><path
             d="m 1108.33,3060.89 v 41.67"
             style="fill:none;stroke:#afafaf;stroke-width:4.16667;stroke-linecap:butt;stroke-linejoin:miter;stroke-miterlimit:10;stroke-dasharray:none;stroke-opacity:1"
             id="path1398" /><g
             id="g1400"
             transform="scale(4.16667)"><text
               transform="matrix(0,-1,-1,0,296.5,753.042)"
               style="font-variant:normal;font-weight:normal;font-size:14px;font-family:Menlo;-inkscape-font-specification:Menlo-Regular;writing-mode:lr-tb;fill:#afafaf;fill-opacity:1;fill-rule:nonzero;stroke:none"
               id="text1404"><tspan
                 x="0 -8.42906"
                 y="0"
                 id="tspan1402">V0</tspan></text></g><path
             d="m 1260.42,3060.89 v 41.67"
             style="fill:none;stroke:#afafaf;stroke-width:4.16667;stroke-linecap:butt;stroke-linejoin:miter;stroke-miterlimit:10;stroke-dasharray:none;stroke-opacity:1"
             id="path1406" /><g
             id="g1408"
             transform="scale(4.16667)"><text
               transform="matrix(0,-1,-1,0,333,753.042)"
               style="font-variant:normal;font-weight:normal;font-size:14px;font-family:Menlo;-inkscape-font-specification:Menlo-Regular;writing-mode:lr-tb;fill:#afafaf;fill-opacity:1;fill-rule:nonzero;stroke:none"
               id="text1412"><tspan
                 x="0 -8.42906"
                 y="0"
                 id="tspan1410">V1</tspan></text></g><path
             d="m 1412.5,3060.89 v 41.67"
             style="fill:none;stroke:#afafaf;stroke-width:4.16667;stroke-linecap:butt;stroke-linejoin:miter;stroke-miterlimit:10;stroke-dasharray:none;stroke-opacity:1"
             id="path1414" /><g
             id="g1416"
             transform="scale(4.16667)"><text
               transform="matrix(0,-1,-1,0,369.5,753.042)"
               style="font-variant:normal;font-weight:normal;font-size:14px;font-family:Menlo;-inkscape-font-specification:Menlo-Regular;writing-mode:lr-tb;fill:#afafaf;fill-opacity:1;fill-rule:nonzero;stroke:none"
               id="text1420"><tspan
                 x="0 -8.42906"
                 y="0"
                 id="tspan1418">V2</tspan></text></g><path
             d="m 1564.58,3060.89 v 41.67"
             style="fill:none;stroke:#afafaf;stroke-width:4.16667;stroke-linecap:butt;stroke-linejoin:miter;stroke-miterlimit:10;stroke-dasharray:none;stroke-opacity:1"
             id="path1422" /><g
             id="g1424"
             transform="scale(4.16667)"><text
               transform="matrix(0,-1,-1,0,406,753.042)"
               style="font-variant:normal;font-weight:normal;font-size:14px;font-family:Menlo;-inkscape-font-specification:Menlo-Regular;writing-mode:lr-tb;fill:#afafaf;fill-opacity:1;fill-rule:nonzero;stroke:none"
               id="text1428"><tspan
                 x="0 -8.42906"
                 y="0"
                 id="tspan1426">V3</tspan></text></g><path
             d="m 1716.67,3060.89 v 41.67"
             style="fill:none;stroke:#afafaf;stroke-width:4.16667;stroke-linecap:butt;stroke-linejoin:miter;stroke-miterlimit:10;stroke-dasharray:none;stroke-opacity:1"
             id="path1430" /><g
             id="g1432"
             transform="scale(4.16667)"><text
               transform="matrix(0,-1,-1,0,442.5,753.042)"
               style="font-variant:normal;font-weight:normal;font-size:14px;font-family:Menlo;-inkscape-font-specification:Menlo-Regular;writing-mode:lr-tb;fill:#afafaf;fill-opacity:1;fill-rule:nonzero;stroke:none"
               id="text1436"><tspan
                 x="0 -8.42906"
                 y="0"
                 id="tspan1434">V4</tspan></text></g><path
             d="m 1868.75,3060.89 v 41.67"
             style="fill:none;stroke:#afafaf;stroke-width:4.16667;stroke-linecap:butt;stroke-linejoin:miter;stroke-miterlimit:10;stroke-dasharray:none;stroke-opacity:1"
             id="path1438" /><g
             id="g1440"
             transform="scale(4.16667)"><text
               transform="matrix(0,-1,-1,0,479,753.042)"
               style="font-variant:normal;font-weight:normal;font-size:14px;font-family:Menlo;-inkscape-font-specification:Menlo-Regular;writing-mode:lr-tb;fill:#afafaf;fill-opacity:1;fill-rule:nonzero;stroke:none"
               id="text1444"><tspan
                 x="0 -8.42906"
                 y="0"
                 id="tspan1442">V5</tspan></text></g><path
             d="m 2020.83,3060.89 v 41.67"
             style="fill:none;stroke:#afafaf;stroke-width:4.16667;stroke-linecap:butt;stroke-linejoin:miter;stroke-miterlimit:10;stroke-dasharray:none;stroke-opacity:1"
             id="path1446" /><path
             d="m 500,371.906 h 1520.83 v 2688.98 H 500 Z"
             style="fill:none;stroke:#afafaf;stroke-width:4.16667;stroke-linecap:butt;stroke-linejoin:miter;stroke-miterlimit:10;stroke-dasharray:none;stroke-opacity:1"
             id="path1448" /><g
             id="g1450"
             transform="scale(4.16667)"><text
               transform="matrix(0,-1,-1,0,489,441.614)"
               style="font-variant:normal;font-weight:normal;font-size:14px;font-family:Menlo;-inkscape-font-specification:Menlo-Regular;writing-mode:lr-tb;fill:#0eff00;fill-opacity:1;fill-rule:nonzero;stroke:none"
               id="text1454"><tspan
                 x="0 8.4274139 16.855413 25.283415 33.710827 42.138828 50.566242"
                 y="0"
                 id="tspan1452">V(vout) @ 440Hz</tspan></text></g></g></g><g
         id="g1456"><g
           id="g1458"
           clip-path="url(#clipPath1462)"><path
             d="m 893.504,3060.89 v 0 l -4,-4.73 -3.016,-6.3 -0.312,-10.75 5.484,-10.76 11.664,-10.76 17.418,-10.75 22.649,-10.76 27.281,-10.75 31.258,-10.76 34.53,-10.75 37.05,-10.76 38.79,-10.76 39.73,-10.75 39.89,-10.76 39.32,-10.75 36.7,-10.38 36.17,-10.76 33.79,-10.76 31,-10.75 27.94,-10.76 24.74,-10.75 21.51,-10.76 18.34,-10.75 15.32,-10.76 12.5,-10.75 9.91,-10.76 7.57,-10.76 5.47,-10.75 3.6,-10.76 1.91,-10.76 0.4,-10.75 -1,-10.76 -2.3,-10.76 -3.57,-10.75 -4.83,-10.76 -6.15,-10.75 -7.57,-10.76 -9.14,-10.75 -10.93,-10.76 -12.97,-10.75 -15.34,-10.76 -18.07,-10.76 -21.17,-10.75 -24.65,-10.76 -28.4,-10.76 -32.32,-10.75 -36.18,-10.76 -39.69,-10.75 -42.54,-10.76 -44.39,-10.75 -44.95,-10.76 -44.06,-10.75 -41.69,-10.76 -37.919,-10.76 -32.965,-10.75 -27.101,-10.76 -20.637,-10.76 -13.832,-10.75 -6.949,-10.76 -0.164,-10.76 6.363,-10.75 12.516,-10.76 18.211,-10.75 23.359,-10.76 27.902,-10.75 31.786,-10.76 34.94,-10.75 37.36,-10.76 38.98,-10.76 39.8,-10.75 39.88,-10.76 34.26,-9.38 36.19,-10.25 36.15,-10.76 33.78,-10.76 30.98,-10.75 27.91,-10.76 24.72,-10.75 21.48,-10.76 18.32,-10.75 15.3,-10.76 12.48,-10.76 9.9,-10.75 7.55,-10.76 5.46,-10.75 3.58,-10.76 1.91,-10.76 0.38,-10.75 -1.01,-10.76 -2.3,-10.75 -3.58,-10.76 -4.84,-10.76 -6.16,-10.75 -7.58,-10.76 -9.16,-10.75 -10.93,-10.76 -12.99,-10.76 -15.36,-10.75 -18.09,-10.76 -21.2,-10.75 -24.67,-10.76 -28.43,-10.76 -32.35,-10.75 -36.2,-10.76 -39.72,-10.75 -42.56,-10.76 -44.4,-10.75 -44.94,-10.76 -44.06,-10.76 -41.66,-10.75 -37.89,-10.76 -32.922,-10.76 -27.058,-10.75 -20.586,-10.76 -13.786,-10.75 -6.898,-10.76 -0.113,-10.75 6.406,-10.76 12.562,-10.76 18.25,-10.75 23.395,-10.76 27.934,-10.75 31.806,-10.76 34.97,-10.76 37.37,-10.75 38.99,-10.76 39.81,-10.75 39.88,-10.76 34.08,-9.34 36.12,-10.23 36.15,-10.75 33.77,-10.76 30.97,-10.75 27.92,-10.76 24.71,-10.76 21.48,-10.75 18.32,-10.76 15.29,-10.76 12.48,-10.75 9.9,-10.76 7.55,-10.75 5.46,-10.76 3.58,-10.75 1.9,-10.76 0.38,-10.76 -1,-10.75 -2.31,-10.76 -3.58,-10.75 -4.84,-10.76 -6.16,-10.76 -7.59,-10.75 -9.15,-10.76 -10.94,-10.75 -12.99,-10.76 -15.37,-10.75 -18.09,-10.76 -21.2,-10.76 -24.67,-10.75 -28.44,-10.76 -32.35,-10.75 -36.21,-10.76 -39.72,-10.76 -42.56,-10.75 -44.4,-10.76 -44.95,-10.76 -44.05,-10.75 -41.66,-10.76 -37.883,-10.75 -32.918,-10.76 -27.051,-10.75 -20.578,-10.76 -13.781,-10.76 -6.887,-10.75 -0.109,-10.76 6.414,-10.75 12.566,-10.76 18.258,-10.76 23.399,-10.75 27.937,-10.76 31.813,-10.75 34.97,-10.76 37.37,-10.75 38.99,-10.76 39.81,-10.76 39.88,-10.75 34.06,-9.34 36.11,-10.22 36.15,-10.76 33.77,-10.75 30.98,-10.76 27.91,-10.76 24.71,-10.75 21.48,-10.76 18.32,-10.751 15.29,-10.758 12.48,-10.754 9.9,-10.758 7.55,-10.754 5.46,-10.757 3.58,-10.758 1.9,-10.754 0.38,-10.758 -1,-10.754 -2.32,-10.758 -3.57,-10.753 -4.84,-10.758 -6.17,-10.754 -7.58,-10.758 -9.15,-10.754 -10.94,-10.758 -13,-10.754 -15.36,-10.757 -18.09,-10.754 -21.2,-10.758 -24.68,-10.754 -28.44,-10.758 -32.35,-10.754 -36.21,-10.758 -39.72,-10.754 -42.56,-10.757 -44.39,-10.754 -44.96,-10.758 -44.05,-10.758 -41.66,-10.754 -37.881,-10.758 -32.918,-10.753 -27.051,-10.758 -20.578,-10.754 -13.773,-10.758 -6.891,-10.754 -0.109,-10.758 6.418,-10.754 12.57,-10.757 18.254,-10.754 23.402,-10.758 27.938,-10.754 31.809,-10.758 34.98,-10.754 37.37,-10.758 38.99,-10.754 39.8,-10.757 39.89,-10.754 34.05,-9.332 36.11,-10.227 36.15,-10.754 33.77,-10.758 30.98,-10.753 27.91,-10.758 24.71,-10.754 21.48,-10.758 18.52,-10.754 11.95,-7.84"
             style="fill:none;stroke:#0eff00;stroke-width:4.16667;stroke-linecap:butt;stroke-linejoin:miter;stroke-miterlimit:1;stroke-dasharray:none;stroke-opacity:1"
             id="path1464" /><path
             d="M 1262.43,3057.09 1261,370.34"
             style="fill:none;stroke:#afafaf;stroke-width:4.16667;stroke-linecap:butt;stroke-linejoin:miter;stroke-miterlimit:10;stroke-dasharray:none;stroke-opacity:1"
             id="path1466" /></g></g></g></g></svg>
