<?xml version="1.0" encoding="UTF-8" standalone="no"?>
<svg
   xmlns:dc="http://purl.org/dc/elements/1.1/"
   xmlns:cc="http://creativecommons.org/ns#"
   xmlns:rdf="http://www.w3.org/1999/02/22-rdf-syntax-ns#"
   xmlns:svg="http://www.w3.org/2000/svg"
   xmlns="http://www.w3.org/2000/svg"
   version="1.1"
   id="svg10"
   xml:space="preserve"
   width="569.03094"
   height="361.33768"
   viewBox="0 0 853.5464 542.00654"><metadata
     id="metadata16"><rdf:RDF><cc:Work
         rdf:about=""><dc:format>image/svg+xml</dc:format><dc:type
           rdf:resource="http://purl.org/dc/dcmitype/StillImage" /><dc:title></dc:title></cc:Work></rdf:RDF></metadata><defs
     id="defs14"><clipPath
       clipPathUnits="userSpaceOnUse"
       id="clipPath28"><path
         d="m 375,299.582 h 1729.17 v 2908.34 H 375 Z"
         id="path26" /></clipPath><clipPath
       clipPathUnits="userSpaceOnUse"
       id="clipPath212"><path
         d="m 500,537.082 h 1520.83 v 2454.17 H 500 Z"
         id="path210" /></clipPath></defs><g
     id="g18"
     transform="matrix(0,-1.3333333,-1.3333333,0,1025.6049,667.07604)"><g
       id="g20"
       transform="scale(0.24)"><g
         id="g22"><g
           id="g24"
           clip-path="url(#clipPath28)"><g
             id="g30"
             transform="scale(4.16667)"><text
               transform="matrix(0,-1,-1,0,94.0003,734.614)"
               style="font-variant:normal;font-weight:normal;font-size:14px;font-family:Menlo;-inkscape-font-specification:Menlo-Regular;writing-mode:lr-tb;fill:#afafaf;fill-opacity:1;fill-rule:nonzero;stroke:none"
               id="text34"><tspan
                 x="0 8.4274139 16.855413 25.283415"
                 y="0"
                 id="tspan32">10Hz</tspan></text></g><path
             d="M 500,2990.65 H 458.332"
             style="fill:none;stroke:#afafaf;stroke-width:4.16667;stroke-linecap:butt;stroke-linejoin:miter;stroke-miterlimit:10;stroke-dasharray:none;stroke-opacity:1"
             id="path36" /><path
             d="M 500,2758.36 H 479.168"
             style="fill:none;stroke:#afafaf;stroke-width:4.16667;stroke-linecap:butt;stroke-linejoin:miter;stroke-miterlimit:10;stroke-dasharray:none;stroke-opacity:1"
             id="path38" /><path
             d="M 500,2622.47 H 479.168"
             style="fill:none;stroke:#afafaf;stroke-width:4.16667;stroke-linecap:butt;stroke-linejoin:miter;stroke-miterlimit:10;stroke-dasharray:none;stroke-opacity:1"
             id="path40" /><path
             d="M 500,2526.06 H 479.168"
             style="fill:none;stroke:#afafaf;stroke-width:4.16667;stroke-linecap:butt;stroke-linejoin:miter;stroke-miterlimit:10;stroke-dasharray:none;stroke-opacity:1"
             id="path42" /><path
             d="M 500,2451.28 H 479.168"
             style="fill:none;stroke:#afafaf;stroke-width:4.16667;stroke-linecap:butt;stroke-linejoin:miter;stroke-miterlimit:10;stroke-dasharray:none;stroke-opacity:1"
             id="path44" /><path
             d="M 500,2390.18 H 479.168"
             style="fill:none;stroke:#afafaf;stroke-width:4.16667;stroke-linecap:butt;stroke-linejoin:miter;stroke-miterlimit:10;stroke-dasharray:none;stroke-opacity:1"
             id="path46" /><path
             d="M 500,2338.52 H 479.168"
             style="fill:none;stroke:#afafaf;stroke-width:4.16667;stroke-linecap:butt;stroke-linejoin:miter;stroke-miterlimit:10;stroke-dasharray:none;stroke-opacity:1"
             id="path48" /><path
             d="M 500,2293.77 H 479.168"
             style="fill:none;stroke:#afafaf;stroke-width:4.16667;stroke-linecap:butt;stroke-linejoin:miter;stroke-miterlimit:10;stroke-dasharray:none;stroke-opacity:1"
             id="path50" /><path
             d="M 500,2254.29 H 479.168"
             style="fill:none;stroke:#afafaf;stroke-width:4.16667;stroke-linecap:butt;stroke-linejoin:miter;stroke-miterlimit:10;stroke-dasharray:none;stroke-opacity:1"
             id="path52" /><g
             id="g54"
             transform="scale(4.16667)"><text
               transform="matrix(0,-1,-1,0,94.0003,553.628)"
               style="font-variant:normal;font-weight:normal;font-size:14px;font-family:Menlo;-inkscape-font-specification:Menlo-Regular;writing-mode:lr-tb;fill:#afafaf;fill-opacity:1;fill-rule:nonzero;stroke:none"
               id="text58"><tspan
                 x="0 8.4280005 16.856001 25.283415 33.711414"
                 y="0"
                 id="tspan56">100Hz</tspan></text></g><path
             d="M 500,2218.98 H 458.332"
             style="fill:none;stroke:#afafaf;stroke-width:4.16667;stroke-linecap:butt;stroke-linejoin:miter;stroke-miterlimit:10;stroke-dasharray:none;stroke-opacity:1"
             id="path60" /><path
             d="M 500,1986.69 H 479.168"
             style="fill:none;stroke:#afafaf;stroke-width:4.16667;stroke-linecap:butt;stroke-linejoin:miter;stroke-miterlimit:10;stroke-dasharray:none;stroke-opacity:1"
             id="path62" /><path
             d="M 500,1850.8 H 479.168"
             style="fill:none;stroke:#afafaf;stroke-width:4.16667;stroke-linecap:butt;stroke-linejoin:miter;stroke-miterlimit:10;stroke-dasharray:none;stroke-opacity:1"
             id="path64" /><path
             d="M 500,1754.39 H 479.168"
             style="fill:none;stroke:#afafaf;stroke-width:4.16667;stroke-linecap:butt;stroke-linejoin:miter;stroke-miterlimit:10;stroke-dasharray:none;stroke-opacity:1"
             id="path66" /><path
             d="M 500,1679.61 H 479.168"
             style="fill:none;stroke:#afafaf;stroke-width:4.16667;stroke-linecap:butt;stroke-linejoin:miter;stroke-miterlimit:10;stroke-dasharray:none;stroke-opacity:1"
             id="path68" /><path
             d="M 500,1618.51 H 479.168"
             style="fill:none;stroke:#afafaf;stroke-width:4.16667;stroke-linecap:butt;stroke-linejoin:miter;stroke-miterlimit:10;stroke-dasharray:none;stroke-opacity:1"
             id="path70" /><path
             d="M 500,1566.85 H 479.168"
             style="fill:none;stroke:#afafaf;stroke-width:4.16667;stroke-linecap:butt;stroke-linejoin:miter;stroke-miterlimit:10;stroke-dasharray:none;stroke-opacity:1"
             id="path72" /><path
             d="M 500,1522.1 H 479.168"
             style="fill:none;stroke:#afafaf;stroke-width:4.16667;stroke-linecap:butt;stroke-linejoin:miter;stroke-miterlimit:10;stroke-dasharray:none;stroke-opacity:1"
             id="path74" /><path
             d="M 500,1482.63 H 479.168"
             style="fill:none;stroke:#afafaf;stroke-width:4.16667;stroke-linecap:butt;stroke-linejoin:miter;stroke-miterlimit:10;stroke-dasharray:none;stroke-opacity:1"
             id="path76" /><g
             id="g78"
             transform="scale(4.16667)"><text
               transform="matrix(0,-1,-1,0,94.0003,364.213)"
               style="font-variant:normal;font-weight:normal;font-size:14px;font-family:Menlo;-inkscape-font-specification:Menlo-Regular;writing-mode:lr-tb;fill:#afafaf;fill-opacity:1;fill-rule:nonzero;stroke:none"
               id="text82"><tspan
                 x="0 8.4274139 16.855413 25.283415"
                 y="0"
                 id="tspan80">1KHz</tspan></text></g><path
             d="M 500,1447.32 H 458.332"
             style="fill:none;stroke:#afafaf;stroke-width:4.16667;stroke-linecap:butt;stroke-linejoin:miter;stroke-miterlimit:10;stroke-dasharray:none;stroke-opacity:1"
             id="path84" /><path
             d="M 500,1215.02 H 479.168"
             style="fill:none;stroke:#afafaf;stroke-width:4.16667;stroke-linecap:butt;stroke-linejoin:miter;stroke-miterlimit:10;stroke-dasharray:none;stroke-opacity:1"
             id="path86" /><path
             d="M 500,1079.14 H 479.168"
             style="fill:none;stroke:#afafaf;stroke-width:4.16667;stroke-linecap:butt;stroke-linejoin:miter;stroke-miterlimit:10;stroke-dasharray:none;stroke-opacity:1"
             id="path88" /><path
             d="M 500,982.727 H 479.168"
             style="fill:none;stroke:#afafaf;stroke-width:4.16667;stroke-linecap:butt;stroke-linejoin:miter;stroke-miterlimit:10;stroke-dasharray:none;stroke-opacity:1"
             id="path90" /><path
             d="M 500,907.945 H 479.168"
             style="fill:none;stroke:#afafaf;stroke-width:4.16667;stroke-linecap:butt;stroke-linejoin:miter;stroke-miterlimit:10;stroke-dasharray:none;stroke-opacity:1"
             id="path92" /><path
             d="M 500,846.844 H 479.168"
             style="fill:none;stroke:#afafaf;stroke-width:4.16667;stroke-linecap:butt;stroke-linejoin:miter;stroke-miterlimit:10;stroke-dasharray:none;stroke-opacity:1"
             id="path94" /><path
             d="M 500,795.184 H 479.168"
             style="fill:none;stroke:#afafaf;stroke-width:4.16667;stroke-linecap:butt;stroke-linejoin:miter;stroke-miterlimit:10;stroke-dasharray:none;stroke-opacity:1"
             id="path96" /><path
             d="M 500,750.43 H 479.168"
             style="fill:none;stroke:#afafaf;stroke-width:4.16667;stroke-linecap:butt;stroke-linejoin:miter;stroke-miterlimit:10;stroke-dasharray:none;stroke-opacity:1"
             id="path98" /><path
             d="M 500,710.957 H 479.168"
             style="fill:none;stroke:#afafaf;stroke-width:4.16667;stroke-linecap:butt;stroke-linejoin:miter;stroke-miterlimit:10;stroke-dasharray:none;stroke-opacity:1"
             id="path100" /><g
             id="g102"
             transform="scale(4.16667)"><text
               transform="matrix(0,-1,-1,0,94.0003,183.228)"
               style="font-variant:normal;font-weight:normal;font-size:14px;font-family:Menlo;-inkscape-font-specification:Menlo-Regular;writing-mode:lr-tb;fill:#afafaf;fill-opacity:1;fill-rule:nonzero;stroke:none"
               id="text106"><tspan
                 x="0 8.4280005 16.855413 25.283415 33.711414"
                 y="0"
                 id="tspan104">10KHz</tspan></text></g><path
             d="M 500,675.648 H 458.332"
             style="fill:none;stroke:#afafaf;stroke-width:4.16667;stroke-linecap:butt;stroke-linejoin:miter;stroke-miterlimit:10;stroke-dasharray:none;stroke-opacity:1"
             id="path108" /><g
             id="g110"
             transform="scale(4.16667)"><text
               transform="matrix(0,-1,-1,0,114,736.185)"
               style="font-variant:normal;font-weight:normal;font-size:14px;font-family:Menlo;-inkscape-font-specification:Menlo-Regular;writing-mode:lr-tb;fill:#afafaf;fill-opacity:1;fill-rule:nonzero;stroke:none"
               id="text114"><tspan
                 x="0 -8.42906 -16.857189 -25.286249 -33.715309"
                 y="0"
                 id="tspan112">Bd27-</tspan></text></g><path
             d="m 500,2990.65 v 41.67"
             style="fill:none;stroke:#afafaf;stroke-width:4.16667;stroke-linecap:butt;stroke-linejoin:miter;stroke-miterlimit:10;stroke-dasharray:none;stroke-opacity:1"
             id="path116" /><g
             id="g118"
             transform="scale(4.16667)"><text
               transform="matrix(0,-1,-1,0,150.5,736.185)"
               style="font-variant:normal;font-weight:normal;font-size:14px;font-family:Menlo;-inkscape-font-specification:Menlo-Regular;writing-mode:lr-tb;fill:#afafaf;fill-opacity:1;fill-rule:nonzero;stroke:none"
               id="text122"><tspan
                 x="0 -8.42906 -16.857189 -25.286249 -33.715309"
                 y="0"
                 id="tspan120">Bd36-</tspan></text></g><path
             d="m 652.082,2990.65 v 41.67"
             style="fill:none;stroke:#afafaf;stroke-width:4.16667;stroke-linecap:butt;stroke-linejoin:miter;stroke-miterlimit:10;stroke-dasharray:none;stroke-opacity:1"
             id="path124" /><g
             id="g126"
             transform="scale(4.16667)"><text
               transform="matrix(0,-1,-1,0,187,736.185)"
               style="font-variant:normal;font-weight:normal;font-size:14px;font-family:Menlo;-inkscape-font-specification:Menlo-Regular;writing-mode:lr-tb;fill:#afafaf;fill-opacity:1;fill-rule:nonzero;stroke:none"
               id="text130"><tspan
                 x="0 -8.42906 -16.857189 -25.286249 -33.715309"
                 y="0"
                 id="tspan128">Bd45-</tspan></text></g><path
             d="m 804.168,2990.65 v 41.67"
             style="fill:none;stroke:#afafaf;stroke-width:4.16667;stroke-linecap:butt;stroke-linejoin:miter;stroke-miterlimit:10;stroke-dasharray:none;stroke-opacity:1"
             id="path132" /><g
             id="g134"
             transform="scale(4.16667)"><text
               transform="matrix(0,-1,-1,0,223.5,736.185)"
               style="font-variant:normal;font-weight:normal;font-size:14px;font-family:Menlo;-inkscape-font-specification:Menlo-Regular;writing-mode:lr-tb;fill:#afafaf;fill-opacity:1;fill-rule:nonzero;stroke:none"
               id="text138"><tspan
                 x="0 -8.42906 -16.857189 -25.286249 -33.715309"
                 y="0"
                 id="tspan136">Bd54-</tspan></text></g><path
             d="m 956.25,2990.65 v 41.67"
             style="fill:none;stroke:#afafaf;stroke-width:4.16667;stroke-linecap:butt;stroke-linejoin:miter;stroke-miterlimit:10;stroke-dasharray:none;stroke-opacity:1"
             id="path140" /><g
             id="g142"
             transform="scale(4.16667)"><text
               transform="matrix(0,-1,-1,0,260,736.185)"
               style="font-variant:normal;font-weight:normal;font-size:14px;font-family:Menlo;-inkscape-font-specification:Menlo-Regular;writing-mode:lr-tb;fill:#afafaf;fill-opacity:1;fill-rule:nonzero;stroke:none"
               id="text146"><tspan
                 x="0 -8.42906 -16.857189 -25.286249 -33.715309"
                 y="0"
                 id="tspan144">Bd63-</tspan></text></g><path
             d="m 1108.33,2990.65 v 41.67"
             style="fill:none;stroke:#afafaf;stroke-width:4.16667;stroke-linecap:butt;stroke-linejoin:miter;stroke-miterlimit:10;stroke-dasharray:none;stroke-opacity:1"
             id="path148" /><g
             id="g150"
             transform="scale(4.16667)"><text
               transform="matrix(0,-1,-1,0,296.5,736.185)"
               style="font-variant:normal;font-weight:normal;font-size:14px;font-family:Menlo;-inkscape-font-specification:Menlo-Regular;writing-mode:lr-tb;fill:#afafaf;fill-opacity:1;fill-rule:nonzero;stroke:none"
               id="text154"><tspan
                 x="0 -8.42906 -16.857189 -25.286249 -33.715309"
                 y="0"
                 id="tspan152">Bd72-</tspan></text></g><path
             d="m 1260.42,2990.65 v 41.67"
             style="fill:none;stroke:#afafaf;stroke-width:4.16667;stroke-linecap:butt;stroke-linejoin:miter;stroke-miterlimit:10;stroke-dasharray:none;stroke-opacity:1"
             id="path156" /><g
             id="g158"
             transform="scale(4.16667)"><text
               transform="matrix(0,-1,-1,0,333,736.185)"
               style="font-variant:normal;font-weight:normal;font-size:14px;font-family:Menlo;-inkscape-font-specification:Menlo-Regular;writing-mode:lr-tb;fill:#afafaf;fill-opacity:1;fill-rule:nonzero;stroke:none"
               id="text162"><tspan
                 x="0 -8.42906 -16.857189 -25.286249 -33.715309"
                 y="0"
                 id="tspan160">Bd81-</tspan></text></g><path
             d="m 1412.5,2990.65 v 41.67"
             style="fill:none;stroke:#afafaf;stroke-width:4.16667;stroke-linecap:butt;stroke-linejoin:miter;stroke-miterlimit:10;stroke-dasharray:none;stroke-opacity:1"
             id="path164" /><g
             id="g166"
             transform="scale(4.16667)"><text
               transform="matrix(0,-1,-1,0,369.5,736.185)"
               style="font-variant:normal;font-weight:normal;font-size:14px;font-family:Menlo;-inkscape-font-specification:Menlo-Regular;writing-mode:lr-tb;fill:#afafaf;fill-opacity:1;fill-rule:nonzero;stroke:none"
               id="text170"><tspan
                 x="0 -8.42906 -16.857189 -25.286249"
                 y="0"
                 id="tspan168">Bd9-</tspan></text></g><path
             d="m 1564.58,2990.65 v 41.67"
             style="fill:none;stroke:#afafaf;stroke-width:4.16667;stroke-linecap:butt;stroke-linejoin:miter;stroke-miterlimit:10;stroke-dasharray:none;stroke-opacity:1"
             id="path172" /><g
             id="g174"
             transform="scale(4.16667)"><text
               transform="matrix(0,-1,-1,0,406,736.185)"
               style="font-variant:normal;font-weight:normal;font-size:14px;font-family:Menlo;-inkscape-font-specification:Menlo-Regular;writing-mode:lr-tb;fill:#afafaf;fill-opacity:1;fill-rule:nonzero;stroke:none"
               id="text178"><tspan
                 x="0 -8.42906 -16.857189"
                 y="0"
                 id="tspan176">Bd0</tspan></text></g><path
             d="m 1716.67,2990.65 v 41.67"
             style="fill:none;stroke:#afafaf;stroke-width:4.16667;stroke-linecap:butt;stroke-linejoin:miter;stroke-miterlimit:10;stroke-dasharray:none;stroke-opacity:1"
             id="path180" /><g
             id="g182"
             transform="scale(4.16667)"><text
               transform="matrix(0,-1,-1,0,442.5,736.185)"
               style="font-variant:normal;font-weight:normal;font-size:14px;font-family:Menlo;-inkscape-font-specification:Menlo-Regular;writing-mode:lr-tb;fill:#afafaf;fill-opacity:1;fill-rule:nonzero;stroke:none"
               id="text186"><tspan
                 x="0 -8.42906 -16.857189"
                 y="0"
                 id="tspan184">Bd9</tspan></text></g><path
             d="m 1868.75,2990.65 v 41.67"
             style="fill:none;stroke:#afafaf;stroke-width:4.16667;stroke-linecap:butt;stroke-linejoin:miter;stroke-miterlimit:10;stroke-dasharray:none;stroke-opacity:1"
             id="path188" /><g
             id="g190"
             transform="scale(4.16667)"><text
               transform="matrix(0,-1,-1,0,479,736.185)"
               style="font-variant:normal;font-weight:normal;font-size:14px;font-family:Menlo;-inkscape-font-specification:Menlo-Regular;writing-mode:lr-tb;fill:#afafaf;fill-opacity:1;fill-rule:nonzero;stroke:none"
               id="text194"><tspan
                 x="0 -8.42906 -16.857189 -25.286249"
                 y="0"
                 id="tspan192">Bd81</tspan></text></g><path
             d="m 2020.83,2990.65 v 41.67"
             style="fill:none;stroke:#afafaf;stroke-width:4.16667;stroke-linecap:butt;stroke-linejoin:miter;stroke-miterlimit:10;stroke-dasharray:none;stroke-opacity:1"
             id="path196" /><path
             d="m 500,539.766 h 1520.83 v 2450.89 H 500 Z"
             style="fill:none;stroke:#afafaf;stroke-width:4.16667;stroke-linecap:butt;stroke-linejoin:miter;stroke-miterlimit:10;stroke-dasharray:none;stroke-opacity:1"
             id="path198" /><g
             id="g200"
             transform="scale(4.16667)"><text
               transform="matrix(0,-1,-1,0,489,453.257)"
               style="font-variant:normal;font-weight:normal;font-size:14px;font-family:Menlo;-inkscape-font-specification:Menlo-Regular;writing-mode:lr-tb;fill:#0eff00;fill-opacity:1;fill-rule:nonzero;stroke:none"
               id="text204"><tspan
                 x="0 8.4280005 16.855413 25.283415 33.710827 42.138828 50.56683"
                 y="0"
                 id="tspan202">V(vout)</tspan></text></g></g></g><g
         id="g206"><g
           id="g208"
           clip-path="url(#clipPath212)"><path
             d="m 515.695,2990.65 v 0 l 1.438,-1.16 1.437,-1.16 1.434,-1.16 1.437,-1.16 1.434,-1.17 1.438,-1.16 1.433,-1.16 1.434,-1.16 1.437,-1.16 1.434,-1.16 1.429,-1.16 1.434,-1.17 1.434,-1.16 1.429,-1.16 1.434,-1.16 1.43,-1.16 1.429,-1.16 1.434,-1.16 1.43,-1.17 1.429,-1.16 1.426,-1.16 1.43,-1.16 1.429,-1.16 1.426,-1.16 1.426,-1.17 1.426,-1.16 1.429,-1.16 1.426,-1.16 1.422,-1.16 1.426,-1.16 1.426,-1.17 1.422,-1.16 1.425,-1.16 1.422,-1.16 1.422,-1.16 1.422,-1.16 1.422,-1.16 1.418,-1.16 1.422,-1.16 1.422,-1.17 1.418,-1.16 1.418,-1.16 1.417,-1.16 1.418,-1.16 1.418,-1.16 1.418,-1.17 1.414,-1.16 1.418,-1.16 1.414,-1.16 1.415,-1.16 1.414,-1.16 1.414,-1.17 1.414,-1.16 1.414,-1.16 1.41,-1.16 1.414,-1.16 1.41,-1.16 1.41,-1.16 1.41,-1.16 1.411,-1.17 1.406,-1.16 1.41,-1.16 1.406,-1.16 1.407,-1.16 1.406,-1.16 1.406,-1.16 1.406,-1.17 1.407,-1.16 1.402,-1.16 1.406,-1.16 1.402,-1.16 1.403,-1.16 1.402,-1.17 1.403,-1.16 1.398,-1.16 1.402,-1.16 1.399,-1.16 1.398,-1.16 1.399,-1.17 1.398,-1.16 1.395,-1.16 1.398,-1.16 1.395,-1.16 1.398,-1.16 1.395,-1.16 1.39,-1.16 1.395,-1.16 1.394,-1.17 1.391,-1.16 1.39,-1.16 1.391,-1.16 1.391,-1.16 1.39,-1.17 1.391,-1.16 2.773,-2.32 2.774,-2.32 2.773,-2.33 2.766,-2.32 2.766,-2.32 2.765,-2.32 2.758,-2.33 2.758,-2.32 2.754,-2.32 2.754,-2.33 2.75,-2.32 2.746,-2.32 2.742,-2.33 2.738,-2.32 2.738,-2.32 2.735,-2.33 2.734,-2.32 2.727,-2.32 2.726,-2.32 2.723,-2.32 2.719,-2.33 2.718,-2.32 2.715,-2.32 2.711,-2.33 2.707,-2.32 2.703,-2.32 2.704,-2.33 2.699,-2.32 2.691,-2.32 2.695,-2.32 2.688,-2.33 2.684,-2.32 2.683,-2.32 2.68,-2.33 2.676,-2.32 2.671,-2.32 2.668,-2.33 2.668,-2.32 2.661,-2.32 2.66,-2.33 2.656,-2.32 2.648,-2.32 2.649,-2.32 2.648,-2.33 2.641,-2.32 2.637,-2.32 2.636,-2.33 2.629,-2.32 2.629,-2.32 2.625,-2.33 2.617,-2.32 2.618,-2.32 2.613,-2.32 2.609,-2.32 2.606,-2.33 2.601,-2.32 2.598,-2.32 2.598,-2.33 2.589,-2.32 2.586,-2.32 2.582,-2.33 2.582,-2.32 2.575,-2.32 2.574,-2.33 2.566,-2.32 2.563,-2.32 2.562,-2.32 2.555,-2.33 2.555,-2.32 2.546,-2.32 2.543,-2.33 2.543,-2.32 2.536,-2.32 2.531,-2.33 2.527,-2.32 2.528,-2.32 2.519,-2.32 2.516,-2.33 2.511,-2.32 2.508,-2.32 2.504,-2.33 2.5,-2.32 2.492,-2.32 2.492,-2.33 2.489,-2.32 2.48,-2.32 2.481,-2.32 2.472,-2.33 2.469,-2.32 2.469,-2.32 2.461,-2.32 2.457,-2.33 2.449,-2.32 2.449,-2.32 2.446,-2.33 2.437,-2.32 2.434,-2.32 2.433,-2.33 2.426,-2.32 2.418,-2.32 2.418,-2.32 2.414,-2.33 2.406,-2.32 2.403,-2.32 2.398,-2.33 2.395,-2.32 2.39,-2.32 2.383,-2.33 2.383,-2.32 2.375,-2.32 2.371,-2.32 2.363,-2.33 2.364,-2.32 2.355,-2.32 2.352,-2.33 2.347,-2.32 2.34,-2.32 2.34,-2.33 2.332,-2.32 2.328,-2.32 2.32,-2.33 2.321,-2.32 2.312,-2.32 2.309,-2.32 2.301,-2.32 2.296,-2.33 2.293,-2.32 2.289,-2.32 2.282,-2.33 2.281,-2.32 2.269,-2.32 2.27,-2.33 2.262,-2.32 2.258,-2.32 2.25,-2.32 2.25,-2.33 2.242,-2.32 2.234,-2.32 2.229,-2.33 2.23,-2.32 2.22,-2.32 2.22,-2.33 2.21,-2.32 2.2,-2.32 2.2,-2.33 2.19,-2.32 2.2,-2.32 2.18,-2.32 2.18,-2.33 2.17,-2.32 2.16,-2.32 2.17,-2.33 2.16,-2.32 2.14,-2.32 2.15,-2.33 2.14,-2.32 2.14,-2.32 2.12,-2.32 2.13,-2.32 2.11,-2.33 2.12,-2.32 2.1,-2.32 2.1,-2.33 2.1,-2.32 2.09,-2.32 2.08,-2.33 2.08,-2.32 2.07,-2.32 2.07,-2.33 2.06,-2.32 2.05,-2.32 2.05,-2.32 2.04,-2.33 2.04,-2.32 2.03,-2.32 2.03,-2.33 2.02,-2.32 2.02,-2.32 2.01,-2.33 2,-2.32 2,-2.32 1.99,-2.32 1.98,-2.32 1.98,-2.33 1.97,-2.32 1.97,-2.32 1.96,-2.33 1.96,-2.32 1.95,-2.32 1.95,-2.33 1.93,-2.32 1.94,-2.32 1.92,-2.33 1.92,-2.32 1.92,-2.32 1.91,-2.32 1.9,-2.33 1.9,-2.32 1.89,-2.32 1.88,-2.33 1.88,-2.32 1.87,-2.32 1.87,-2.33 1.86,-2.32 1.86,-2.32 1.84,-2.32 1.85,-2.33 1.84,-2.32 1.82,-2.32 1.83,-2.33 1.82,-2.32 1.82,-2.32 1.8,-2.33 1.8,-2.32 1.8,-2.32 1.79,-2.33 1.79,-2.32 1.77,-2.32 1.78,-2.32 1.76,-2.32 1.76,-2.33 1.76,-2.32 1.75,-2.32 1.74,-2.33 1.74,-2.32 1.73,-2.32 1.73,-2.33 1.72,-2.32 1.71,-2.32 1.71,-2.32 1.7,-2.33 1.7,-2.32 1.69,-2.32 1.69,-2.33 1.68,-2.32 1.67,-2.32 1.67,-2.33 1.67,-2.32 1.66,-2.32 1.65,-2.33 1.65,-2.32 1.64,-2.32 1.63,-2.32 1.63,-2.33 1.63,-2.32 1.62,-2.32 1.61,-2.33 1.61,-2.32 1.6,-2.32 1.6,-2.33 1.59,-2.32 1.59,-2.32 1.59,-2.32 1.57,-2.32 1.57,-2.33 1.57,-2.32 1.56,-2.32 1.56,-2.33 1.55,-2.32 1.55,-2.32 1.54,-2.33 1.53,-2.32 1.53,-2.32 1.53,-2.33 1.52,-2.32 1.52,-2.32 1.51,-2.32 1.5,-2.33 1.51,-2.32 1.49,-2.32 1.5,-2.33 1.48,-2.32 1.48,-2.32 1.48,-2.33 1.48,-2.32 1.46,-2.32 1.47,-2.32 1.46,-2.33 1.45,-2.32 1.45,-2.32 1.45,-2.33 1.44,-2.32 1.43,-2.32 1.44,-2.33 1.43,-2.32 1.42,-2.32 1.42,-2.32 1.42,-2.33 1.41,-2.32 1.4,-2.32 1.4,-2.32 1.4,-2.33 1.4,-2.32 1.39,-2.32 1.38,-2.33 1.39,-2.32 1.37,-2.32 1.38,-2.33 1.37,-2.32 1.37,-2.32 1.36,-2.32 1.35,-2.33 1.36,-2.32 1.35,-2.32 1.35,-2.33 1.34,-2.32 1.34,-2.32 1.34,-2.33 1.33,-2.32 1.33,-2.32 1.33,-2.32 1.32,-2.33 1.32,-2.32 1.31,-2.32 1.32,-2.33 1.3,-2.32 1.31,-2.32 1.3,-2.33 1.3,-2.32 1.29,-2.32 1.3,-2.33 1.29,-2.32 1.28,-2.32 1.28,-2.32 1.28,-2.32 1.28,-2.33 1.27,-2.32 1.27,-2.32 1.27,-2.33 1.26,-2.32 1.26,-2.32 1.26,-2.33 1.26,-2.32 1.25,-2.32 1.25,-2.32 1.24,-2.33 1.25,-2.32 1.24,-2.32 1.24,-2.33 1.24,-2.32 1.23,-2.32 1.23,-2.33 1.23,-2.32 1.22,-2.32 1.23,-2.33 1.22,-2.32 1.21,-2.32 1.22,-2.32 1.21,-2.33 1.21,-2.32 1.21,-2.32 1.21,-2.33 1.2,-2.32 1.2,-2.32 1.2,-2.33 1.2,-2.32 1.19,-2.32 1.19,-2.32 1.19,-2.32 1.19,-2.33 1.18,-2.32 1.19,-2.32 1.18,-2.33 1.18,-2.32 1.18,-2.32 1.17,-2.33 1.17,-2.32 1.18,-2.32 1.16,-2.33 1.17,-2.32 1.17,-2.32 1.16,-2.32 1.16,-2.33 1.16,-2.32 1.16,-2.32 1.15,-2.33 1.16,-2.32 1.15,-2.32 1.15,-2.33 1.15,-2.32 1.14,-2.32 1.15,-2.32 1.14,-2.33 1.15,-2.32 1.14,-2.32 1.13,-2.33 1.14,-2.32 1.14,-2.32 1.13,-2.33 1.13,-2.32 1.13,-2.32 1.13,-2.32 1.13,-2.33 1.13,-2.32 1.12,-2.32 1.13,-2.32 1.12,-2.33 1.12,-2.32 1.11,-2.32 1.12,-2.33 1.12,-2.32 1.11,-2.32 1.12,-2.33 1.11,-2.32 1.11,-2.32 1.11,-2.32 1.11,-2.33 1.11,-2.32 1.1,-2.32 1.1,-2.33 1.11,-2.32 1.1,-2.32 1.1,-2.33 1.1,-2.32 1.1,-2.32 1.1,-2.32"
             style="fill:none;stroke:#0eff00;stroke-width:4.16667;stroke-linecap:butt;stroke-linejoin:miter;stroke-miterlimit:1;stroke-dasharray:none;stroke-opacity:1"
             id="path214" /><path
             d="m 1426.63,1915.13 v 0 l 1.09,-2.33 1.1,-2.32 1.09,-2.32 1.09,-2.33 1.1,-2.32 1.09,-2.32 1.09,-2.33 1.08,-2.32 1.09,-2.32 1.09,-2.33 1.09,-2.32 1.08,-2.32 1.08,-2.32 1.09,-2.32 1.08,-2.33 1.08,-2.32 1.08,-2.32 1.08,-2.33 1.07,-2.32 1.08,-2.32 1.07,-2.33 1.08,-2.32 1.07,-2.32 1.07,-2.32 1.08,-2.33 1.07,-2.32 1.07,-2.32 1.07,-2.33 1.07,-2.32 1.07,-2.32 1.06,-2.33 1.07,-2.32 1.07,-2.32 1.06,-2.33 1.06,-2.32 1.07,-2.32 1.06,-2.32 1.06,-2.32 1.06,-2.33 1.06,-2.32 1.06,-2.32 1.06,-2.33 1.06,-2.32 1.05,-2.33 1.06,-2.32 1.06,-2.32 1.05,-2.32 1.06,-2.32 1.05,-2.33 1.05,-2.32 1.06,-2.32 1.05,-2.33 1.05,-2.32 1.05,-2.32 1.05,-2.33 1.05,-2.32 1.05,-2.32 1.04,-2.33 1.05,-2.32 1.05,-2.32 1.04,-2.32 1.05,-2.33 1.04,-2.32 1.05,-2.32 1.04,-2.33 1.04,-2.32 1.05,-2.32 1.04,-2.33 1.04,-2.32 1.04,-2.32 1.04,-2.32 1.04,-2.32 1.04,-2.33 1.03,-2.32 1.04,-2.32 1.04,-2.33 1.04,-2.32 1.03,-2.32 1.04,-2.33 1.03,-2.32 1.04,-2.33 1.03,-2.32 1.03,-2.32 1.04,-2.32 1.03,-2.32 1.03,-2.33 1.03,-2.32 1.03,-2.32 1.04,-2.33 1.02,-2.32 1.03,-2.32 1.03,-2.33 1.03,-2.32 1.03,-2.32 1.03,-2.32 1.02,-2.33 1.03,-2.32 1.03,-2.32 1.02,-2.33 1.02,-2.32 1.03,-2.32 1.02,-2.33 1.03,-2.32 1.02,-2.32 1.02,-2.33 1.02,-2.32 1.02,-2.32 1.03,-2.32 1.02,-2.32 1.02,-2.33 1.01,-2.32 1.02,-2.32 1.02,-2.33 1.02,-2.32 1.02,-2.33 1.01,-2.32 1.02,-2.32 1.02,-2.32 1.01,-2.32 1.02,-2.33 1.01,-2.32 1.01,-2.32 1.02,-2.33 1.01,-2.32 1.01,-2.32 1.02,-2.33 1.01,-2.32 1.01,-2.32 1.01,-2.33 1.01,-2.32 1.01,-2.32 1.01,-2.32 1.01,-2.33 1.01,-2.32 1,-2.32 1.01,-2.33 1.01,-2.32 1,-2.32 1.01,-2.33 1.01,-2.32 1,-2.32 1,-2.32 1.01,-2.32 1,-2.33 1.01,-2.32 1,-2.32 1,-2.33 1,-2.32 1,-2.32 1,-2.33 1,-2.32 1,-2.32 1,-2.33 1,-2.32 0.99,-2.32 1,-2.32 0.99,-2.33 1,-2.32 1,-2.32 0.99,-2.33 0.99,-2.32 1,-2.32 0.99,-2.33 0.99,-2.32 0.99,-2.32 1,-2.32 0.98,-2.33 0.99,-2.32 0.99,-2.32 0.99,-2.33 0.99,-2.32 0.99,-2.32 0.98,-2.33 0.99,-2.32 0.99,-2.32 0.98,-2.32 0.98,-2.33 0.99,-2.32 0.98,-2.32 0.98,-2.32 0.98,-2.33 0.98,-2.32 0.99,-2.32 0.97,-2.33 0.98,-2.32 0.98,-2.32 0.98,-2.33 0.98,-2.32 0.97,-2.32 0.98,-2.32 0.97,-2.33 0.97,-2.32 0.98,-2.32 0.97,-2.33 0.97,-2.32 0.97,-2.32 0.97,-2.33 0.97,-2.32 0.97,-2.32 0.96,-2.32 0.97,-2.33 0.97,-2.32 0.96,-2.32 0.97,-2.33 0.96,-2.32 0.96,-2.32 0.96,-2.33 0.96,-2.32 0.96,-2.32 0.96,-2.33 0.96,-2.32 0.96,-2.32 0.95,-2.32 0.96,-2.32 0.95,-2.33 0.95,-2.32 0.95,-2.32 0.96,-2.33 0.95,-2.32 0.95,-2.32 0.94,-2.33 0.95,-2.32 0.95,-2.32 0.94,-2.32 0.95,-2.33 0.94,-2.32 0.94,-2.32 0.94,-2.33 0.94,-2.32 0.94,-2.32 0.94,-2.33 0.93,-2.32 0.93,-2.32 0.94,-2.33 0.93,-2.32 0.94,-2.32 0.93,-2.32 0.92,-2.33 0.93,-2.32 0.93,-2.32 0.92,-2.33 0.92,-2.32 0.93,-2.32 0.92,-2.33 0.92,-2.32 0.92,-2.32 0.92,-2.32 0.91,-2.32 0.91,-2.33 0.92,-2.32 0.91,-2.32 0.91,-2.33 0.91,-2.32 0.9,-2.32 0.91,-2.33 0.9,-2.32 0.91,-2.32 0.9,-2.33 0.9,-2.32 0.89,-2.32 0.9,-2.32 0.9,-2.33 0.89,-2.32 0.89,-2.32 0.89,-2.33 0.89,-2.32 0.88,-2.32 0.89,-2.33 0.88,-2.32 0.88,-2.32 0.88,-2.32 0.88,-2.33 0.87,-2.32 0.88,-2.32 0.87,-2.33 0.87,-2.32 0.87,-2.32 0.87,-2.33 0.86,-2.32 0.86,-2.32 0.86,-2.32 0.86,-2.33 0.86,-2.32 0.85,-2.32 0.85,-2.32 0.85,-2.33 0.85,-2.32 0.85,-2.32 0.84,-2.33 0.84,-2.32 0.84,-2.32 0.84,-2.33 0.83,-2.32 0.83,-2.32 0.83,-2.32 0.83,-2.33 0.83,-2.32 0.82,-2.32 0.82,-2.33 0.82,-2.32 0.82,-2.32 0.81,-2.33 0.81,-2.32 0.81,-2.32 0.8,-2.32 0.8,-2.33 0.81,-2.32 0.79,-2.32 0.8,-2.33 0.79,-2.32 0.79,-2.32 0.79,-2.33 0.78,-2.32 0.78,-2.32 0.78,-2.33 0.78,-2.32 0.77,-2.32 0.77,-2.32 0.77,-2.32 0.76,-2.33 0.76,-2.32 0.76,-2.32 0.75,-2.33 0.76,-2.32 0.75,-2.32 0.74,-2.33 0.74,-2.32 0.74,-2.32 0.74,-2.32 0.73,-2.33 0.73,-2.32 0.72,-2.32 0.73,-2.33 0.72,-2.32 0.71,-2.32 0.71,-2.33 0.72,-2.32 0.7,-2.32 0.7,-2.33 0.7,-2.32 0.7,-2.32 0.69,-2.32 0.69,-2.32 0.68,-2.33 0.68,-2.32 0.68,-2.33 0.67,-2.32 0.67,-2.32 0.66,-2.33 0.67,-2.32 0.65,-2.32 0.65,-2.32 0.66,-2.32 0.64,-2.33 0.64,-2.32 0.64,-2.32 0.64,-2.33 0.62,-2.32 0.63,-2.32 0.62,-2.33 0.62,-2.32 0.61,-2.32 0.61,-2.33 0.6,-2.32 0.6,-2.32 0.6,-2.32 0.59,-2.33 0.59,-2.32 0.58,-2.32 0.58,-2.33 0.57,-2.32 0.57,-2.32 0.56,-2.33 0.56,-2.32 0.56,-2.32 0.55,-2.32 0.55,-2.32 0.54,-2.33 0.53,-2.32 0.53,-2.33 0.53,-2.32 0.53,-2.32 0.51,-2.33 0.51,-2.32 0.51,-2.32 0.5,-2.33 0.5,-2.32 0.49,-2.32 0.49,-2.32 0.48,-2.32 0.48,-2.33 0.47,-2.32 0.47,-2.32 0.46,-2.327 0.46,-2.324 0.45,-2.321 0.45,-2.324 0.44,-2.324 0.43,-2.32 0.43,-2.325 0.43,-2.324 0.42,-2.32 0.41,-2.324 0.41,-2.325 0.4,-2.32 0.4,-2.324 0.39,-2.324 0.39,-2.321 0.38,-2.324 0.38,-2.324 0.37,-2.32 0.37,-2.325 0.35,-2.324 0.36,-2.32 0.35,-2.324 0.34,-2.325 0.33,-2.324 0.33,-2.32 0.33,-2.324 0.32,-2.325 0.31,-2.32 0.31,-2.324 0.3,-2.324 0.3,-2.321 0.29,-2.324 0.28,-2.324 0.28,-2.32 0.27,-2.325 0.26,-2.324 0.26,-2.32 0.26,-2.324 0.25,-2.325 0.24,-2.32 0.24,-2.324 0.23,-2.324 0.22,-2.321 0.22,-2.324 0.21,-2.324 0.21,-2.32 0.19,-2.325 0.2,-2.324 0.18,-2.32 0.19,-2.324 0.17,-2.325 0.17,-2.32 0.16,-2.324 0.16,-2.324 0.15,-2.321 0.14,-2.324 0.14,-2.324 0.13,-2.32 0.12,-2.325 0.13,-2.324 0.11,-2.324 0.1,-2.32 0.1,-2.325 0.1,-2.324 0.09,-2.32 0.08,-2.324 0.07,-2.325 0.07,-2.32 0.06,-2.324 0.06,-2.324 0.05,-2.321 0.04,-2.324 0.04,-2.324 0.03,-2.32 0.02,-2.325 0.02,-2.324 0.01,-2.32 0.01,-2.324 -0.01,-2.325 v -2.32 l -0.02,-2.324 -0.01,-2.324 -0.03,-2.321 -0.03,-2.324 -0.04,-2.324 -0.05,-2.32 -0.05,-2.325 -0.06,-2.324 -0.07,-2.32 -0.07,-2.324 -0.07,-2.325 -0.09,-2.32 -0.09,-2.324 -0.09,-2.324 -0.1,-2.321 -0.11,-2.324 -0.12,-2.324 -0.12,-2.32 -0.12,-2.325 -0.14,-2.324 -0.14,-2.324 -0.15,-2.32 -0.15,-2.325 -0.15,-2.324 -0.17,-2.32 -0.17,-2.324 -0.18,-2.325 -0.18,-2.32 -0.19,-2.324 -0.2,-2.324 -0.2,-2.321 -0.21,-2.324 -0.21,-2.324 -0.22,-2.32 -0.23,-2.325 -0.23,-2.324 -0.24,-2.32"
             style="fill:none;stroke:#0eff00;stroke-width:4.16667;stroke-linecap:butt;stroke-linejoin:miter;stroke-miterlimit:1;stroke-dasharray:none;stroke-opacity:1"
             id="path216" /><path
             d="m 1798.21,730.422 v 0 l -0.24,-2.324 -0.25,-2.325 -0.26,-2.32 -0.26,-2.324 -0.27,-2.324 -0.27,-2.321 -0.28,-2.324 -0.29,-2.324 -0.29,-2.32 -0.3,-2.325 -0.3,-2.324 -0.31,-2.32 -0.32,-2.324 -0.32,-2.325 -0.33,-2.324 -0.33,-2.32 -0.34,-2.324 -0.34,-2.321 -0.35,-2.324 -0.36,-2.324 -0.36,-2.324 -0.37,-2.321 -0.37,-2.324 -0.38,-2.324 -0.38,-2.32 -0.39,-2.325 -0.4,-2.324 -0.39,-2.32 -0.41,-2.324 -0.41,-2.325 -0.42,-2.32 -0.42,-2.324 -0.43,-2.324 -0.43,-2.321 -0.44,-2.324 -0.44,-2.324 -0.45,-2.32 -0.45,-2.325 -0.46,-2.324 -0.47,-2.32 -0.47,-2.324 -0.47,-2.325 -0.48,-2.32 -0.49,-2.324 -0.48,-2.324 -0.5,-2.321 -0.5,-2.324 -0.5,-2.324 -0.52,-2.32 -0.51,-2.325 -0.52,-2.324 -0.53,-2.32 -0.52,-2.324 -0.54,-2.325 -0.54,-2.32 -0.54,-2.324 -0.55,-2.324 -0.55,-2.321 -0.56,-2.324 -0.56,-2.324 -0.57,-2.324 -0.57,-2.321 -0.57,-2.324 -0.59,-2.324 -0.58,-2.32 -0.59,-2.325 -0.59,-2.324 -0.6,-2.32 -0.6,-2.324 -0.61,-2.324 -0.61,-2.321 -0.62,-2.324 -0.62,-2.324 -0.62,-2.321 -0.63,-2.324 -0.63,-2.324 -0.64,-2.32 -0.64,-2.325 -0.64,-2.324 -0.65,-2.32 -0.65,-2.324 -0.66,-2.324"
             style="fill:none;stroke:#0eff00;stroke-width:4.16667;stroke-linecap:butt;stroke-linejoin:miter;stroke-miterlimit:1;stroke-dasharray:none;stroke-opacity:1"
             id="path218" /><path
             d="m 742.766,2990.65 v 0 l 1.437,-1.16 1.438,-1.16 1.433,-1.16 1.438,-1.16 1.433,-1.17 1.434,-1.16 1.437,-1.16 1.434,-1.16 1.434,-1.16 1.433,-1.16 1.43,-1.16 1.433,-1.17 1.434,-1.16 1.43,-1.16 1.429,-1.16 1.434,-1.16 1.43,-1.16 1.429,-1.16 1.43,-1.17 1.426,-1.16 1.43,-1.16 1.429,-1.16 1.426,-1.16 1.426,-1.16 1.43,-1.17 1.425,-1.16 1.426,-1.16 1.426,-1.16 1.422,-1.16 1.426,-1.16 1.421,-1.17 1.426,-1.16 1.422,-1.16 1.422,-1.16 1.422,-1.16 1.422,-1.16 1.422,-1.16 1.418,-1.16 1.421,-1.16 1.418,-1.17 1.418,-1.16 1.418,-1.16 1.418,-1.16 1.418,-1.16 1.418,-1.16 1.418,-1.17 1.414,-1.16 1.414,-1.16 1.414,-1.16 1.414,-1.16 1.414,-1.16 1.415,-1.17 1.414,-1.16 1.41,-1.16 1.414,-1.16 1.41,-1.16 1.41,-1.16 1.41,-1.16 1.41,-1.16 1.407,-1.17 1.41,-1.16 1.406,-1.16 1.41,-1.16 1.407,-1.16 1.406,-1.16 1.402,-1.16 1.406,-1.17 1.407,-1.16 1.402,-1.16 1.402,-1.16 1.403,-1.16 1.402,-1.16 1.402,-1.17 1.399,-1.16 1.402,-1.16 1.399,-1.16 1.398,-1.16 1.398,-1.16 1.399,-1.17 1.398,-1.16 1.395,-1.16 1.398,-1.16 1.395,-1.16 1.394,-1.16 1.395,-1.16 1.394,-1.16 1.391,-1.16 1.395,-1.17 1.39,-1.16 1.391,-1.16 1.39,-1.16 1.391,-1.16 1.387,-1.17 2.777,-2.32 2.774,-2.32 2.769,-2.33 2.77,-2.32 2.765,-2.32 2.762,-2.32 2.762,-2.32 2.757,-2.33 2.754,-2.32 2.754,-2.32 2.746,-2.33 2.746,-2.32 2.747,-2.32 2.738,-2.33 2.738,-2.32 2.735,-2.32 2.734,-2.33 2.726,-2.32 2.727,-2.32 2.723,-2.32 2.722,-2.33 2.715,-2.32 2.715,-2.32 2.711,-2.33 2.707,-2.32 2.707,-2.32 2.699,-2.33 2.699,-2.32 2.696,-2.32 2.691,-2.32 2.692,-2.32 2.683,-2.33 2.684,-2.32 2.679,-2.32 2.676,-2.33 2.672,-2.32 2.668,-2.33 2.668,-2.32 2.66,-2.32 2.66,-2.33 2.657,-2.32 2.652,-2.32 2.648,-2.32 2.645,-2.32 2.644,-2.33 2.637,-2.32 2.635,-2.32 2.63,-2.33 2.63,-2.32 2.62,-2.32 2.62,-2.33 2.62,-2.32 2.61,-2.32 2.62,-2.32 2.6,-2.33 2.6,-2.32 2.6,-2.32 2.59,-2.33 2.6,-2.32 2.58,-2.32 2.59,-2.33 2.58,-2.32 2.58,-2.32 2.57,-2.33 2.56,-2.32 2.57,-2.32 2.56,-2.32 2.56,-2.32 2.55,-2.33 2.55,-2.32 2.54,-2.32 2.54,-2.33 2.54,-2.32 2.53,-2.32 2.53,-2.33 2.52,-2.32 2.53,-2.32 2.51,-2.32 2.52,-2.33 2.5,-2.32 2.51,-2.32 2.5,-2.33 2.5,-2.32 2.49,-2.32 2.48,-2.33 2.49,-2.32 2.47,-2.32 2.48,-2.33 2.47,-2.32 2.47,-2.32 2.46,-2.32 2.46,-2.33 2.45,-2.32 2.45,-2.32 2.44,-2.33 2.44,-2.32 2.44,-2.32 2.43,-2.33 2.43,-2.32 2.42,-2.32 2.42,-2.32 2.41,-2.32 2.41,-2.33 2.4,-2.32 2.4,-2.32 2.4,-2.33 2.39,-2.32 2.38,-2.32 2.38,-2.33 2.38,-2.32 2.37,-2.32 2.37,-2.33 2.36,-2.32 2.36,-2.32 2.35,-2.32 2.35,-2.33 2.34,-2.32 2.34,-2.32 2.34,-2.33 2.32,-2.32 2.33,-2.32 2.31,-2.33 2.32,-2.32 2.31,-2.32 2.3,-2.32 2.3,-2.33 2.29,-2.32 2.29,-2.32 2.29,-2.33 2.28,-2.32 2.27,-2.32 2.27,-2.33 2.26,-2.32 2.26,-2.32 2.26,-2.32 2.25,-2.33 2.24,-2.32 2.24,-2.32 2.23,-2.32 2.23,-2.33 2.22,-2.32 2.21,-2.32 2.22,-2.33 2.2,-2.32 2.2,-2.32 2.2,-2.33 2.19,-2.32 2.19,-2.32 2.18,-2.32 2.17,-2.33 2.17,-2.32 2.16,-2.32 2.16,-2.33 2.15,-2.32 2.15,-2.32 2.14,-2.33 2.13,-2.32 2.13,-2.32 2.13,-2.32 2.12,-2.33 2.11,-2.32 2.11,-2.32 2.1,-2.33 2.1,-2.32 2.09,-2.32 2.09,-2.33 2.07,-2.32 2.08,-2.32 2.07,-2.33 2.06,-2.32 2.06,-2.32 2.05,-2.32 2.04,-2.32 2.04,-2.33 2.03,-2.32 2.03,-2.32 2.03,-2.33 2.01,-2.32 2.01,-2.32 2.01,-2.33 2,-2.32 1.99,-2.32 1.99,-2.32 1.98,-2.33 1.97,-2.32 1.97,-2.32 1.96,-2.33 1.96,-2.32 1.95,-2.32 1.95,-2.33 1.94,-2.32 1.93,-2.32 1.93,-2.33 1.93,-2.32 1.91,-2.32 1.91,-2.32 1.91,-2.33 1.89,-2.32 1.9,-2.32 1.88,-2.33 1.88,-2.32 1.88,-2.32 1.87,-2.33 1.86,-2.32 1.86,-2.32 1.85,-2.32 1.84,-2.32 1.84,-2.33 1.83,-2.32 1.83,-2.32 1.82,-2.33 1.82,-2.32 1.81,-2.32 1.8,-2.33 1.8,-2.32 1.79,-2.32 1.79,-2.33 1.78,-2.32 1.77,-2.32 1.77,-2.32 1.76,-2.33 1.76,-2.32 1.75,-2.32 1.74,-2.33 1.74,-2.32 1.73,-2.32 1.73,-2.33 1.72,-2.32 1.72,-2.32 1.71,-2.32 1.71,-2.33 1.7,-2.32 1.69,-2.32 1.68,-2.33 1.69,-2.32 1.67,-2.32 1.68,-2.33 1.66,-2.32 1.66,-2.32 1.65,-2.32 1.65,-2.33 1.65,-2.32 1.63,-2.32 1.63,-2.32 1.63,-2.33 1.62,-2.32 1.61,-2.32 1.61,-2.33 1.61,-2.32 1.6,-2.32 1.59,-2.33 1.59,-2.32 1.59,-2.32 1.57,-2.32 1.57,-2.33 1.58,-2.32 1.55,-2.32 1.56,-2.33 1.56,-2.32 1.54,-2.32 1.54,-2.33 1.54,-2.32 1.53,-2.32 1.53,-2.32 1.52,-2.33 1.52,-2.32 1.51,-2.32 1.51,-2.33 1.5,-2.32 1.5,-2.32 1.49,-2.33 1.49,-2.32 1.48,-2.32 1.48,-2.33 1.47,-2.32 1.47,-2.32 1.46,-2.32 1.46,-2.32 1.46,-2.33 1.45,-2.32 1.44,-2.32 1.44,-2.33 1.44,-2.32 1.43,-2.32 1.43,-2.33 1.43,-2.32 1.41,-2.32 1.42,-2.32 1.41,-2.33 1.41,-2.32 1.4,-2.32 1.4,-2.33 1.39,-2.32 1.39,-2.32 1.39,-2.33 1.38,-2.32 1.37,-2.32 1.38,-2.33 1.37,-2.32 1.36,-2.32 1.37,-2.32 1.36,-2.32 1.35,-2.33 1.35,-2.32 1.35,-2.32 1.34,-2.33 1.34,-2.32 1.33,-2.32 1.33,-2.33 1.33,-2.32 1.33,-2.32 1.32,-2.32 1.32,-2.33 1.31,-2.32 1.31,-2.32 1.31,-2.33 1.3,-2.32 1.3,-2.32 1.3,-2.33 1.29,-2.32 1.29,-2.32 1.29,-2.33 1.28,-2.32 1.28,-2.32 1.28,-2.32 1.27,-2.33 1.27,-2.32 1.27,-2.32 1.27,-2.33 1.26,-2.32 1.26,-2.32 1.25,-2.33 1.26,-2.32 1.25,-2.32 1.24,-2.32 1.25,-2.32 1.24,-2.33 1.24,-2.32 1.23,-2.32 1.24,-2.33 1.23,-2.32 1.22,-2.32 1.23,-2.33 1.22,-2.32 1.22,-2.33 1.22,-2.32 1.21,-2.32 1.22,-2.32 1.2,-2.32 1.21,-2.33 1.2,-2.32 1.21,-2.32 1.2,-2.33 1.2,-2.32 1.19,-2.32 1.19,-2.33 1.19,-2.32 1.19,-2.32 1.19,-2.32 1.18,-2.33 1.18,-2.32 1.18,-2.32 1.17,-2.33 1.18,-2.32 1.17,-2.32 1.17,-2.33 1.17,-2.32 1.17,-2.32 1.16,-2.33 1.16,-2.32 1.16,-2.32 1.16,-2.32 1.15,-2.32 1.16,-2.33 1.15,-2.32 1.15,-2.32 1.15,-2.33 1.14,-2.32 1.15,-2.32 1.14,-2.33 1.14,-2.32 1.14,-2.32 1.14,-2.32 1.13,-2.33 1.14,-2.32 1.12,-2.32 1.14,-2.33 1.12,-2.32 1.13,-2.32 1.13,-2.33 1.12,-2.32 1.12,-2.32 1.12,-2.33 1.12,-2.32 1.11,-2.32 1.12,-2.32 1.11,-2.33 1.11,-2.32 1.12,-2.32 1.1,-2.33 1.11,-2.32 1.11,-2.32 1.1,-2.33 1.1,-2.32 1.11,-2.32 1.1,-2.32 1.09,-2.32 1.1,-2.33 1.1,-2.32 1.09,-2.32 1.09,-2.33 1.1,-2.32 1.09,-2.32 1.09,-2.33 1.08,-2.32 1.09,-2.32 1.08,-2.33"
             style="fill:none;stroke:#0000ff;stroke-width:4.16667;stroke-linecap:butt;stroke-linejoin:miter;stroke-miterlimit:1;stroke-dasharray:none;stroke-opacity:1"
             id="path220" /><path
             d="m 1653.05,1913.96 v 0 l 1.09,-2.32 1.08,-2.32 1.08,-2.32 1.08,-2.33 1.08,-2.32 1.08,-2.32 1.07,-2.33 1.08,-2.32 1.07,-2.32 1.08,-2.33 1.07,-2.32 1.07,-2.32 1.06,-2.32 1.07,-2.33 1.07,-2.32 1.07,-2.32 1.06,-2.33 1.06,-2.32 1.06,-2.32 1.07,-2.33 1.05,-2.32 1.06,-2.32 1.06,-2.32 1.06,-2.33 1.05,-2.32 1.06,-2.32 1.05,-2.32 1.05,-2.33 1.05,-2.32 1.05,-2.32 1.05,-2.33 1.05,-2.32 1.05,-2.32 1.04,-2.33 1.05,-2.32 1.04,-2.32 1.04,-2.32 1.04,-2.33 1.05,-2.32 1.03,-2.32 1.04,-2.33 1.04,-2.32 1.04,-2.32 1.03,-2.33 1.04,-2.32 1.03,-2.32 1.03,-2.32 1.04,-2.33 1.03,-2.32 1.02,-2.32 1.04,-2.33 1.02,-2.32 1.03,-2.32 1.02,-2.33 1.03,-2.32 1.02,-2.32 1.02,-2.33 1.03,-2.32 1.02,-2.32 1.02,-2.32 1.02,-2.32 1.02,-2.33 1.01,-2.32 1.02,-2.32 1.01,-2.33 1.02,-2.32 1.01,-2.32 1.01,-2.33 1.01,-2.32 1.01,-2.32 1.01,-2.32 1.01,-2.33 1.01,-2.32 1.01,-2.32 1,-2.33 1,-2.32 1.01,-2.32 1,-2.33 1,-2.32 1,-2.32 1,-2.33 1,-2.32 1,-2.32 0.99,-2.32 1,-2.33 1,-2.32 0.99,-2.32 0.99,-2.33 0.99,-2.32 0.99,-2.32 0.99,-2.33 0.99,-2.32 0.99,-2.32 0.98,-2.32 0.99,-2.32 0.98,-2.33 0.99,-2.32 0.98,-2.32 0.98,-2.33 0.98,-2.32 0.98,-2.32 0.98,-2.33 0.97,-2.32 0.98,-2.32 0.97,-2.33 0.97,-2.32 0.98,-2.32 0.97,-2.32 0.97,-2.33 0.97,-2.32 0.97,-2.32 0.96,-2.33 0.97,-2.32 0.96,-2.32 0.97,-2.33 0.96,-2.32 0.96,-2.32 0.96,-2.32 0.95,-2.33 0.96,-2.32 0.96,-2.32 0.96,-2.33 0.95,-2.32 0.95,-2.32 0.95,-2.33 0.95,-2.32 0.95,-2.32 0.95,-2.32 0.94,-2.33 0.95,-2.32 0.94,-2.32 0.94,-2.32 0.94,-2.33 0.94,-2.32 0.94,-2.32 0.94,-2.33 0.93,-2.32 0.93,-2.32 0.94,-2.33 0.93,-2.32 0.93,-2.32 0.92,-2.32 0.93,-2.33 0.92,-2.32 0.93,-2.32 0.92,-2.33 0.92,-2.32 0.92,-2.32 0.92,-2.33 0.91,-2.32 0.92,-2.32 0.91,-2.32 0.91,-2.33 0.91,-2.32 0.91,-2.32 0.9,-2.33 0.91,-2.32 0.9,-2.32 0.9,-2.33 0.9,-2.32 0.9,-2.32 0.9,-2.33 0.89,-2.32 0.89,-2.32 0.89,-2.32 0.89,-2.32 0.89,-2.33 0.89,-2.32 0.88,-2.32 0.88,-2.33 0.88,-2.32 0.88,-2.32 0.88,-2.33 0.87,-2.32 0.87,-2.32 0.87,-2.32 0.87,-2.33 0.86,-2.32 0.87,-2.32 0.86,-2.33 0.86,-2.32 0.86,-2.32 0.85,-2.33 0.86,-2.32 0.85,-2.32 0.85,-2.33 0.84,-2.32 0.85,-2.32 0.84,-2.32 0.84,-2.32 0.84,-2.33 0.84,-2.32 0.83,-2.33 0.83,-2.32 0.83,-2.32 0.83,-2.33 0.82,-2.32 0.82,-2.32 0.82,-2.32 0.82,-2.32 0.81,-2.33 0.82,-2.32 0.8,-2.32 0.81,-2.33 0.81,-2.32 0.8,-2.32 0.8,-2.33 0.79,-2.32 0.8,-2.32 0.79,-2.33 0.79,-2.32 0.78,-2.32 0.79,-2.32 0.78,-2.33 0.78,-2.32 0.77,-2.32 0.77,-2.33 0.77,-2.32 0.77,-2.32 0.76,-2.33 0.76,-2.32 0.76,-2.32 0.75,-2.32 0.76,-2.32 0.74,-2.33 0.75,-2.32 0.74,-2.32 0.74,-2.33 0.74,-2.32 0.73,-2.33 0.73,-2.32 0.73,-2.32 0.72,-2.33 0.72,-2.32 0.72,-2.32 0.71,-2.32 0.72,-2.32 0.71,-2.33 0.7,-2.32 0.7,-2.32 0.7,-2.33 0.69,-2.32 0.69,-2.32 0.69,-2.33 0.69,-2.32 0.68,-2.32 0.67,-2.32 0.68,-2.33 0.66,-2.32 0.67,-2.32 0.67,-2.33 0.65,-2.32 0.66,-2.32 0.65,-2.33 0.65,-2.32 0.64,-2.32 0.65,-2.33 0.63,-2.32 0.63,-2.32 0.63,-2.32 0.63,-2.32 0.62,-2.33 0.62,-2.32 0.61,-2.32 0.62,-2.33 0.6,-2.32 0.6,-2.33 0.6,-2.32 0.6,-2.32 0.59,-2.32 0.59,-2.32 0.58,-2.33 0.58,-2.32 0.57,-2.32 0.57,-2.33 0.57,-2.32 0.56,-2.32 0.56,-2.33 0.55,-2.32 0.55,-2.32 0.55,-2.33 0.54,-2.32 0.53,-2.32 0.54,-2.32 0.53,-2.33 0.52,-2.32 0.52,-2.32 0.52,-2.33 0.51,-2.32 0.5,-2.32 0.5,-2.33 0.5,-2.32 0.5,-2.32 0.49,-2.32 0.48,-2.32 0.48,-2.33 0.48,-2.32 0.47,-2.32 0.47,-2.33 0.46,-2.32 0.46,-2.33 0.45,-2.32 0.45,-2.32 0.44,-2.32 0.45,-2.33 0.43,-2.32 0.43,-2.32 0.43,-2.32 0.42,-2.33 0.41,-2.32 0.42,-2.32 0.4,-2.33 0.41,-2.32 0.4,-2.32 0.39,-2.33 0.39,-2.32 0.38,-2.32 0.38,-2.32 0.37,-2.33 0.37,-2.32 0.37,-2.32 0.36,-2.33 0.36,-2.32 0.34,-2.32 0.35,-2.33 0.34,-2.32 0.34,-2.32 0.33,-2.32 0.33,-2.33 0.32,-2.32 0.31,-2.32 0.32,-2.32 0.31,-2.33 0.3,-2.32 0.3,-2.32 0.29,-2.33 0.29,-2.32 0.28,-2.33 0.28,-2.32 0.27,-2.32 0.27,-2.32 0.26,-2.32 0.26,-2.33 0.25,-2.32 0.25,-2.32 0.25,-2.33 0.23,-2.32 0.24,-2.32 0.23,-2.33 0.22,-2.32 0.22,-2.32 0.22,-2.32 0.2,-2.33 0.21,-2.32 0.19,-2.32 0.2,-2.33 0.19,-2.32 0.19,-2.32 0.17,-2.33 0.18,-2.32 0.16,-2.32 0.17,-2.33 0.16,-2.32 0.16,-2.32 0.14,-2.32 0.15,-2.32 0.14,-2.33 0.13,-2.32 0.13,-2.32 0.13,-2.33 0.11,-2.32 0.12,-2.32 0.11,-2.33 0.1,-2.32 0.1,-2.32 0.1,-2.32 0.09,-2.33 0.08,-2.32 0.08,-2.32 0.07,-2.33 0.07,-2.32 0.06,-2.32 0.07,-2.33 0.05,-2.32 0.05,-2.32 0.04,-2.33 0.04,-2.32 0.03,-2.32 0.03,-2.32 0.03,-2.33 0.01,-2.32 0.02,-2.32 0.01,-2.33 v -2.317 -2.325 l -0.01,-2.324 -0.01,-2.32 -0.01,-2.324 -0.02,-2.325 -0.03,-2.32 -0.03,-2.324 -0.04,-2.324 -0.04,-2.321 -0.05,-2.324 -0.05,-2.324 -0.06,-2.32 -0.06,-2.325 -0.06,-2.324 -0.07,-2.32 -0.08,-2.324 -0.08,-2.325 -0.09,-2.324 -0.09,-2.32 -0.1,-2.324 -0.1,-2.324 -0.11,-2.321 -0.11,-2.324 -0.12,-2.32 -0.12,-2.325 -0.12,-2.324 -0.13,-2.32 -0.14,-2.324 -0.14,-2.325 -0.15,-2.324 -0.15,-2.32 -0.16,-2.324 -0.16,-2.324 -0.17,-2.321 -0.17,-2.324 -0.17,-2.324 -0.19,-2.321 -0.19,-2.324 -0.19,-2.324 -0.19,-2.32 -0.21,-2.325 -0.2,-2.324 -0.21,-2.32 -0.22,-2.324 -0.22,-2.324 -0.23,-2.321 -0.23,-2.324 -0.23,-2.324 -0.24,-2.321 -0.25,-2.324 -0.25,-2.324 -0.26,-2.32 -0.26,-2.325 -0.27,-2.324 -0.27,-2.32 -0.27,-2.324 -0.28,-2.324 -0.29,-2.325 -0.29,-2.32 -0.29,-2.324 -0.3,-2.321 -0.31,-2.324 -0.31,-2.324 -0.31,-2.324 -0.32,-2.321 -0.33,-2.324 -0.32,-2.324 -0.34,-2.32 -0.34,-2.324 -0.34,-2.325 -0.35,-2.32 -0.35,-2.324 -0.36,-2.324 -0.36,-2.321 -0.37,-2.324 -0.37,-2.324 -0.38,-2.321 -0.38,-2.324 -0.39,-2.324 -0.39,-2.32 -0.39,-2.324 -0.41,-2.325 -0.4,-2.32 -0.41,-2.324 -0.41,-2.324 -0.42,-2.321 -0.43,-2.324 -0.43,-2.324 -0.43,-2.321 -0.44,-2.324 -0.44,-2.324 -0.44,-2.32 -0.46,-2.324 -0.45,-2.325 -0.46,-2.32 -0.47,-2.324 -0.46,-2.324 -0.48,-2.321 -0.48,-2.324 -0.48,-2.324 -0.49,-2.324 -0.49,-2.321 -0.5,-2.324 -0.5,-2.324 -0.5,-2.32 -0.51,-2.325 -0.51,-2.324 -0.52,-2.32 -0.53,-2.324 -0.52,-2.325 -0.53,-2.32 -0.54,-2.324 -0.53,-2.324 -0.55,-2.321 -0.54,-2.324 -0.56,-2.324"
             style="fill:none;stroke:#0000ff;stroke-width:4.16667;stroke-linecap:butt;stroke-linejoin:miter;stroke-miterlimit:1;stroke-dasharray:none;stroke-opacity:1"
             id="path222" /><path
             d="m 1901.62,729.258 v 0 l -0.55,-2.32 -0.57,-2.325 -0.56,-2.324 -0.56,-2.32 -0.58,-2.324 -0.58,-2.325 -0.58,-2.32 -0.58,-2.324 -0.59,-2.324 -0.59,-2.321 -0.6,-2.324 -0.6,-2.324 -0.61,-2.32 -0.6,-2.325 -0.61,-2.324 -0.62,-2.32 -0.62,-2.324 -0.62,-2.325 -0.63,-2.32 -0.64,-2.324 -0.63,-2.324 -0.64,-2.325 -0.64,-2.32 -0.65,-2.324 -0.65,-2.324 -0.65,-2.321 -0.66,-2.324 -0.66,-2.324 -0.67,-2.32 -0.67,-2.325 -0.67,-2.324 -0.67,-2.32 -0.68,-2.324 -0.68,-2.325 -0.69,-2.32 -0.69,-2.324 -0.69,-2.324 -0.7,-2.321 -0.7,-2.324 -0.7,-2.324 -0.71,-2.32 -0.7,-2.325 -0.72,-2.324 -0.71,-2.32 -0.72,-2.324 -0.73,-2.325 -0.72,-2.32 -0.73,-2.324 -0.73,-2.324 -0.74,-2.321 -0.74,-2.324 -0.74,-2.324 -0.74,-2.32 -0.75,-2.325 -0.75,-2.324 -0.75,-2.32 -0.76,-2.324 -0.76,-2.325 -0.76,-2.324 -0.77,-2.32 -0.76,-2.324 -0.78,-2.325 -0.77,-2.32 -0.78,-2.324 -0.77,-2.324 -0.79,-2.321 -0.78,-2.324 -0.79,-2.324 -0.79,-2.32 -0.79,-2.325 -0.8,-2.324 -0.8,-2.32 -0.8,-2.324 -0.8,-2.325 -0.81,-2.32 -0.8,-2.324 -0.82,-2.324 -0.81,-2.321 -0.82,-2.324 -0.81,-2.324 -0.82,-2.32"
             style="fill:none;stroke:#0000ff;stroke-width:4.16667;stroke-linecap:butt;stroke-linejoin:miter;stroke-miterlimit:1;stroke-dasharray:none;stroke-opacity:1"
             id="path224" /><path
             d="m 853.477,2990.65 v 0 l 1.433,-1.16 1.438,-1.16 1.433,-1.16 1.438,-1.16 1.433,-1.17 1.434,-1.16 1.434,-1.16 1.433,-1.16 1.434,-1.16 1.433,-1.16 1.43,-1.16 1.434,-1.17 1.429,-1.16 1.434,-1.16 1.43,-1.16 1.429,-1.16 1.43,-1.16 1.43,-1.16 1.425,-1.17 1.43,-1.16 1.426,-1.16 1.43,-1.16 1.425,-1.16 1.426,-1.16 1.426,-1.17 1.426,-1.16 1.425,-1.16 1.422,-1.16 1.426,-1.16 1.422,-1.16 1.426,-1.17 1.422,-1.16 1.422,-1.16 1.421,-1.16 1.422,-1.16 1.418,-1.16 1.422,-1.16 1.418,-1.16 1.422,-1.16 1.418,-1.17 1.418,-1.16 1.418,-1.16 1.418,-1.16 1.414,-1.16 1.418,-1.16 1.414,-1.17 1.414,-1.16 1.414,-1.16 1.414,-1.16 1.414,-1.16 1.414,-1.16 1.414,-1.17 1.41,-1.16 1.411,-1.16 1.41,-1.16 1.414,-1.16 1.406,-1.16 1.41,-1.16 1.41,-1.16 1.407,-1.17 1.41,-1.16 1.406,-1.16 1.406,-1.16 1.407,-1.16 1.402,-1.16 1.406,-1.16 1.403,-1.17 1.406,-1.16 1.402,-1.16 1.402,-1.16 1.403,-1.16 1.398,-1.16 1.403,-1.17 1.398,-1.16 1.398,-1.16 1.403,-1.16 1.394,-1.16 1.399,-1.16 1.398,-1.17 1.395,-1.16 1.398,-1.16 1.395,-1.16 1.394,-1.16 1.395,-1.16 1.39,-1.16 1.395,-1.16 1.391,-1.16 1.39,-1.17 1.391,-1.16 1.39,-1.16 1.391,-1.16 2.777,-2.33 2.774,-2.32 2.773,-2.32 2.766,-2.33 2.769,-2.32 2.762,-2.32 2.762,-2.32 2.76,-2.32 2.76,-2.33 2.75,-2.32 2.75,-2.32 2.75,-2.33 2.74,-2.32 2.74,-2.32 2.74,-2.33 2.74,-2.32 2.73,-2.32 2.73,-2.33 2.72,-2.32 2.73,-2.32 2.72,-2.32 2.72,-2.33 2.71,-2.32 2.71,-2.32 2.71,-2.33 2.71,-2.32 2.7,-2.32 2.7,-2.33 2.7,-2.32 2.69,-2.32 2.69,-2.32 2.69,-2.32 2.68,-2.33 2.68,-2.32 2.68,-2.32 2.67,-2.33 2.67,-2.32 2.67,-2.33 2.66,-2.32 2.66,-2.32 2.66,-2.33 2.65,-2.32 2.66,-2.32 2.64,-2.32 2.64,-2.32 2.65,-2.33 2.63,-2.32 2.63,-2.32 2.63,-2.33 2.63,-2.32 2.62,-2.32 2.62,-2.33 2.61,-2.32 2.61,-2.32 2.61,-2.32 2.6,-2.33 2.61,-2.32 2.59,-2.32 2.59,-2.33 2.59,-2.32 2.59,-2.32 2.58,-2.33 2.58,-2.32 2.57,-2.32 2.57,-2.33 2.57,-2.32 2.56,-2.32 2.56,-2.32 2.55,-2.32 2.55,-2.33 2.55,-2.32 2.54,-2.32 2.54,-2.33 2.53,-2.32 2.53,-2.32 2.53,-2.33 2.53,-2.32 2.51,-2.32 2.52,-2.32 2.51,-2.33 2.5,-2.32 2.51,-2.32 2.49,-2.33 2.49,-2.32 2.5,-2.32 2.48,-2.33 2.48,-2.32 2.48,-2.32 2.47,-2.33 2.47,-2.32 2.46,-2.32 2.46,-2.32 2.46,-2.33 2.45,-2.32 2.45,-2.32 2.44,-2.33 2.44,-2.32 2.43,-2.32 2.43,-2.33 2.42,-2.32 2.42,-2.32 2.42,-2.32 2.41,-2.32 2.4,-2.33 2.41,-2.32 2.39,-2.32 2.39,-2.33 2.39,-2.32 2.38,-2.32 2.38,-2.33 2.38,-2.32 2.37,-2.32 2.36,-2.33 2.36,-2.32 2.36,-2.32 2.35,-2.32 2.34,-2.33 2.34,-2.32 2.34,-2.32 2.33,-2.33 2.33,-2.32 2.32,-2.32 2.32,-2.33 2.31,-2.32 2.3,-2.32 2.31,-2.32 2.29,-2.33 2.29,-2.32 2.29,-2.32 2.28,-2.33 2.28,-2.32 2.27,-2.32 2.27,-2.33 2.26,-2.32 2.26,-2.32 2.25,-2.32 2.24,-2.33 2.24,-2.32 2.24,-2.32 2.23,-2.32 2.23,-2.33 2.21,-2.32 2.22,-2.32 2.21,-2.33 2.2,-2.32 2.2,-2.32 2.19,-2.33 2.19,-2.32 2.18,-2.32 2.18,-2.32 2.18,-2.33 2.16,-2.32 2.16,-2.32 2.16,-2.33 2.15,-2.32 2.14,-2.32 2.14,-2.33 2.14,-2.32 2.12,-2.32 2.13,-2.32 2.11,-2.33 2.11,-2.32 2.11,-2.32 2.1,-2.33 2.09,-2.32 2.09,-2.32 2.09,-2.33 2.07,-2.32 2.07,-2.32 2.07,-2.33 2.06,-2.32 2.05,-2.32 2.05,-2.32 2.05,-2.32 2.03,-2.33 2.03,-2.32 2.03,-2.32 2.02,-2.33 2.01,-2.32 2.01,-2.32 2,-2.33 2,-2.32 1.99,-2.32 1.98,-2.32 1.98,-2.33 1.98,-2.32 1.97,-2.32 1.96,-2.33 1.95,-2.32 1.95,-2.32 1.94,-2.33 1.94,-2.32 1.93,-2.32 1.93,-2.33 1.91,-2.32 1.92,-2.32 1.91,-2.32 1.9,-2.33 1.9,-2.32 1.88,-2.32 1.89,-2.33 1.88,-2.32 1.87,-2.32 1.86,-2.33 1.86,-2.32 1.86,-2.32 1.85,-2.32 1.84,-2.32 1.83,-2.33 1.83,-2.32 1.83,-2.32 1.82,-2.33 1.81,-2.32 1.8,-2.32 1.81,-2.33 1.79,-2.32 1.79,-2.32 1.78,-2.33 1.78,-2.32 1.77,-2.32 1.77,-2.32 1.76,-2.33 1.75,-2.32 1.75,-2.32 1.74,-2.33 1.73,-2.32 1.73,-2.32 1.73,-2.33 1.72,-2.32 1.71,-2.32 1.71,-2.32 1.7,-2.33 1.69,-2.32 1.69,-2.32 1.69,-2.33 1.68,-2.32 1.67,-2.32 1.67,-2.33 1.66,-2.32 1.65,-2.32 1.65,-2.32 1.65,-2.33 1.64,-2.32 1.63,-2.32 1.63,-2.32 1.62,-2.33 1.62,-2.32 1.61,-2.32 1.6,-2.33 1.6,-2.32 1.6,-2.32 1.59,-2.33 1.58,-2.32 1.58,-2.32 1.57,-2.32 1.57,-2.33 1.57,-2.32 1.56,-2.32 1.55,-2.33 1.54,-2.32 1.55,-2.32 1.54,-2.33 1.53,-2.32 1.52,-2.32 1.52,-2.32 1.52,-2.33 1.51,-2.32 1.51,-2.32 1.5,-2.33 1.5,-2.32 1.49,-2.32 1.49,-2.33 1.48,-2.32 1.48,-2.32 1.47,-2.33 1.47,-2.32 1.46,-2.32 1.46,-2.32 1.45,-2.32 1.45,-2.33 1.45,-2.32 1.44,-2.32 1.43,-2.33 1.43,-2.32 1.43,-2.32 1.42,-2.33 1.42,-2.32 1.41,-2.32 1.41,-2.32 1.4,-2.33 1.41,-2.32 1.39,-2.32 1.39,-2.33 1.39,-2.32 1.38,-2.32 1.38,-2.33 1.38,-2.32 1.37,-2.32 1.36,-2.33 1.37,-2.32 1.35,-2.32 1.36,-2.32 1.35,-2.32 1.34,-2.33 1.35,-2.32 1.34,-2.32 1.33,-2.33 1.33,-2.32 1.33,-2.32 1.32,-2.33 1.32,-2.32 1.32,-2.32 1.31,-2.32 1.31,-2.33 1.31,-2.32 1.3,-2.32 1.29,-2.33 1.3,-2.32 1.29,-2.32 1.28,-2.33 1.29,-2.32 1.28,-2.32 1.28,-2.33 1.27,-2.32 1.27,-2.32 1.27,-2.32 1.26,-2.33 1.26,-2.32 1.26,-2.32 1.26,-2.33 1.25,-2.32 1.24,-2.32 1.25,-2.33 1.24,-2.32 1.24,-2.32 1.23,-2.32 1.24,-2.32 1.22,-2.33 1.23,-2.32 1.23,-2.32 1.22,-2.33 1.21,-2.32 1.22,-2.32 1.21,-2.33 1.21,-2.32 1.21,-2.33 1.2,-2.32 1.2,-2.32 1.2,-2.32 1.19,-2.32 1.2,-2.33 1.19,-2.32 1.19,-2.32 1.18,-2.33 1.18,-2.32 1.18,-2.32 1.18,-2.33 1.17,-2.32 1.18,-2.32 1.17,-2.32 1.16,-2.33 1.17,-2.32 1.16,-2.32 1.16,-2.33 1.16,-2.32 1.15,-2.32 1.15,-2.33 1.15,-2.32 1.15,-2.32 1.15,-2.33 1.14,-2.32 1.14,-2.32 1.14,-2.32 1.14,-2.32 1.13,-2.33 1.13,-2.32 1.14,-2.32 1.12,-2.33 1.13,-2.32 1.12,-2.32 1.12,-2.33 1.12,-2.32 1.12,-2.32 1.11,-2.32 1.12,-2.33 1.11,-2.32 1.11,-2.32 1.11,-2.33 1.1,-2.32 1.1,-2.32 1.1,-2.33 1.1,-2.32 1.1,-2.32 1.1,-2.33 1.09,-2.32 1.09,-2.32 1.09,-2.32 1.09,-2.33 1.08,-2.32 1.08,-2.32 1.09,-2.33 1.08,-2.32 1.08,-2.32 1.07,-2.33 1.08,-2.32 1.07,-2.32 1.07,-2.32 1.07,-2.32 1.06,-2.33 1.07,-2.32 1.06,-2.32 1.06,-2.33 1.06,-2.32 1.06,-2.32 1.06,-2.33 1.05,-2.32 1.06,-2.32 1.05,-2.33 1.05,-2.32"
             style="fill:none;stroke:#ff0000;stroke-width:4.16667;stroke-linecap:butt;stroke-linejoin:miter;stroke-miterlimit:1;stroke-dasharray:none;stroke-opacity:1"
             id="path226" /><path
             d="m 1761.8,1911.64 v 0 l 1.04,-2.32 1.05,-2.32 1.04,-2.33 1.05,-2.32 1.04,-2.32 1.03,-2.33 1.04,-2.32 1.04,-2.32 1.03,-2.33 1.04,-2.32 1.03,-2.32 1.02,-2.32 1.03,-2.33 1.03,-2.32 1.02,-2.32 1.02,-2.33 1.03,-2.32 1.01,-2.32 1.02,-2.33 1.02,-2.32 1.01,-2.32 1.01,-2.32 1.01,-2.33 1.01,-2.32 1.01,-2.32 1,-2.32 1,-2.33 1.01,-2.32 1,-2.32 0.99,-2.33 1,-2.32 1,-2.32 0.99,-2.33 0.99,-2.32 0.99,-2.32 0.99,-2.32 0.99,-2.33 0.98,-2.32 0.99,-2.32 0.98,-2.33 0.98,-2.32 0.98,-2.32 0.97,-2.33 0.98,-2.32 0.97,-2.32 0.97,-2.32 0.97,-2.33 0.97,-2.32 0.96,-2.32 0.97,-2.33 0.96,-2.32 0.96,-2.32 0.96,-2.33 0.96,-2.32 0.95,-2.32 0.96,-2.33 0.95,-2.32 0.95,-2.32 0.95,-2.32 0.94,-2.32 0.95,-2.33 0.94,-2.32 0.94,-2.32 0.94,-2.33 0.93,-2.32 0.94,-2.32 0.93,-2.33 0.93,-2.32 0.93,-2.32 0.93,-2.32 0.93,-2.33 0.92,-2.32 0.92,-2.32 0.92,-2.33 0.92,-2.32 0.91,-2.32 0.91,-2.33 0.92,-2.32 0.91,-2.32 0.9,-2.33 0.91,-2.32 0.9,-2.32 0.91,-2.32 0.89,-2.33 0.9,-2.32 0.9,-2.32 0.89,-2.33 0.89,-2.32 0.88,-2.32 0.89,-2.33 0.89,-2.32 0.88,-2.32 0.88,-2.32 0.87,-2.32 0.88,-2.33 0.87,-2.32 0.88,-2.32 0.86,-2.33 0.87,-2.32 0.86,-2.32 0.86,-2.33 0.86,-2.32 0.86,-2.32 0.86,-2.33 0.85,-2.32 0.85,-2.32 0.84,-2.32 0.85,-2.33 0.84,-2.32 0.84,-2.32 0.84,-2.33 0.83,-2.32 0.84,-2.32 0.82,-2.33 0.83,-2.32 0.83,-2.32 0.82,-2.32 0.82,-2.33 0.82,-2.32 0.81,-2.32 0.81,-2.33 0.81,-2.32 0.8,-2.32 0.81,-2.33 0.8,-2.32 0.8,-2.32 0.79,-2.32 0.8,-2.33 0.79,-2.32 0.78,-2.32 0.79,-2.32 0.78,-2.33 0.77,-2.32 0.78,-2.32 0.77,-2.33 0.77,-2.32 0.77,-2.32 0.76,-2.33 0.76,-2.32 0.76,-2.32 0.76,-2.32 0.75,-2.33 0.75,-2.32 0.74,-2.32 0.74,-2.33 0.74,-2.32 0.74,-2.32 0.74,-2.33 0.72,-2.32 0.73,-2.32 0.72,-2.32 0.72,-2.33 0.72,-2.32 0.72,-2.32 0.71,-2.33 0.71,-2.32 0.7,-2.32 0.7,-2.33 0.7,-2.32 0.69,-2.32 0.69,-2.33 0.69,-2.32 0.68,-2.32 0.68,-2.32 0.68,-2.32 0.68,-2.33 0.67,-2.32 0.67,-2.32 0.66,-2.33 0.66,-2.32 0.66,-2.32 0.65,-2.33 0.65,-2.32 0.64,-2.32 0.65,-2.32 0.63,-2.33 0.64,-2.32 0.63,-2.32 0.63,-2.33 0.62,-2.32 0.62,-2.32 0.62,-2.33 0.61,-2.32 0.61,-2.32 0.61,-2.33 0.6,-2.32 0.6,-2.32 0.6,-2.32 0.59,-2.32 0.59,-2.33 0.58,-2.32 0.58,-2.33 0.58,-2.32 0.57,-2.32 0.57,-2.33 0.56,-2.32 0.56,-2.32 0.56,-2.32 0.55,-2.32 0.55,-2.33 0.55,-2.32 0.54,-2.32 0.54,-2.33 0.53,-2.32 0.53,-2.32 0.53,-2.33 0.52,-2.32 0.52,-2.32 0.51,-2.33 0.51,-2.32 0.51,-2.32 0.5,-2.32 0.5,-2.33 0.49,-2.32 0.5,-2.32 0.48,-2.33 0.49,-2.32 0.48,-2.32 0.47,-2.33 0.47,-2.32 0.47,-2.32 0.46,-2.32 0.46,-2.32 0.45,-2.33 0.46,-2.32 0.44,-2.32 0.45,-2.33 0.44,-2.32 0.43,-2.33 0.43,-2.32 0.43,-2.32 0.42,-2.33 0.42,-2.32 0.42,-2.32 0.41,-2.32 0.41,-2.32 0.4,-2.33 0.4,-2.32 0.4,-2.32 0.39,-2.33 0.39,-2.32 0.38,-2.32 0.38,-2.33 0.37,-2.32 0.38,-2.32 0.37,-2.32 0.36,-2.33 0.36,-2.32 0.35,-2.32 0.36,-2.33 0.34,-2.32 0.35,-2.32 0.34,-2.33 0.33,-2.32 0.34,-2.32 0.33,-2.33 0.32,-2.32 0.32,-2.32 0.32,-2.32 0.31,-2.32 0.31,-2.33 0.3,-2.32 0.31,-2.32 0.29,-2.33 0.29,-2.32 0.29,-2.33 0.29,-2.32 0.28,-2.32 0.28,-2.32 0.28,-2.32 0.26,-2.33 0.27,-2.32 0.27,-2.32 0.25,-2.33 0.26,-2.32 0.25,-2.32 0.25,-2.33 0.24,-2.32 0.24,-2.32 0.24,-2.33 0.23,-2.32 0.23,-2.32 0.22,-2.32 0.22,-2.33 0.22,-2.32 0.22,-2.32 0.2,-2.33 0.21,-2.32 0.2,-2.32 0.2,-2.33 0.2,-2.32 0.19,-2.32 0.19,-2.32 0.18,-2.32 0.18,-2.33 0.18,-2.32 0.17,-2.32 0.17,-2.33 0.17,-2.32 0.16,-2.33 0.16,-2.32 0.15,-2.32 0.15,-2.32 0.15,-2.33 0.15,-2.32 0.14,-2.32 0.13,-2.32 0.14,-2.33 0.12,-2.32 0.13,-2.32 0.12,-2.33 0.13,-2.32 0.11,-2.32 0.11,-2.33 0.11,-2.32 0.11,-2.32 0.1,-2.32 0.1,-2.33 0.09,-2.32 0.09,-2.32 0.09,-2.33 0.08,-2.32 0.08,-2.32 0.08,-2.33 0.07,-2.32 0.07,-2.32 0.07,-2.32 0.06,-2.33 0.06,-2.32 0.06,-2.32 0.05,-2.32 0.05,-2.33 0.05,-2.32 0.04,-2.32 0.04,-2.33 0.03,-2.32 0.03,-2.33 0.03,-2.32 0.03,-2.32 0.02,-2.32 0.02,-2.32 0.01,-2.33 0.01,-2.32 0.01,-2.32 v -2.33 -2.32 -2.32 -2.33 l -0.02,-2.32 -0.01,-2.32 -0.01,-2.32 -0.02,-2.33 -0.03,-2.32 -0.02,-2.32 -0.03,-2.33 -0.04,-2.32 -0.03,-2.32 -0.04,-2.33 -0.05,-2.32 -0.05,-2.32 -0.05,-2.33 -0.05,-2.32 -0.06,-2.32 -0.06,-2.32 -0.07,-2.32 -0.07,-2.33 -0.07,-2.32 -0.07,-2.32 -0.08,-2.33 -0.09,-2.32 -0.08,-2.32 -0.09,-2.33 -0.09,-2.32 -0.1,-2.32 -0.1,-2.32 -0.1,-2.33 -0.11,-2.32 -0.11,-2.32 -0.11,-2.33 -0.12,-2.32 -0.12,-2.32 -0.13,-2.33 -0.13,-2.32 -0.12,-2.32 -0.14,-2.33 -0.14,-2.32 -0.14,-2.32 -0.15,-2.32 -0.15,-2.33 -0.15,-2.32 -0.16,-2.32 -0.16,-2.33 -0.16,-2.317 -0.17,-2.325 -0.17,-2.324 -0.18,-2.32 -0.17,-2.324 -0.19,-2.325 -0.18,-2.32 -0.19,-2.324 -0.2,-2.324 -0.19,-2.321 -0.21,-2.324 -0.2,-2.324 -0.21,-2.32 -0.21,-2.325 -0.21,-2.324 -0.22,-2.32 -0.22,-2.324 -0.23,-2.325 -0.23,-2.324 -0.23,-2.32 -0.24,-2.324 -0.25,-2.324 -0.24,-2.321 -0.25,-2.324 -0.25,-2.32 -0.26,-2.325 -0.26,-2.324 -0.27,-2.32 -0.26,-2.324 -0.28,-2.325 -0.27,-2.324 -0.28,-2.32 -0.29,-2.324 -0.28,-2.324 -0.29,-2.321 -0.3,-2.324 -0.3,-2.324 -0.3,-2.321 -0.31,-2.324 -0.31,-2.324 -0.31,-2.32 -0.32,-2.325 -0.32,-2.324 -0.33,-2.32 -0.32,-2.324 -0.34,-2.324 -0.34,-2.321 -0.34,-2.324 -0.34,-2.324 -0.35,-2.321 -0.36,-2.324 -0.35,-2.324 -0.37,-2.32 -0.36,-2.325 -0.37,-2.324 -0.37,-2.32 -0.38,-2.324 -0.38,-2.324 -0.39,-2.325 -0.38,-2.32 -0.4,-2.324 -0.39,-2.321 -0.4,-2.324 -0.41,-2.324 -0.41,-2.324 -0.41,-2.321 -0.41,-2.324 -0.43,-2.324 -0.42,-2.32 -0.43,-2.324 -0.43,-2.325 -0.44,-2.32 -0.44,-2.324 -0.44,-2.324 -0.45,-2.321 -0.45,-2.324 -0.46,-2.324 -0.45,-2.321 -0.47,-2.324 -0.47,-2.324 -0.47,-2.32 -0.47,-2.324 -0.48,-2.325 -0.49,-2.32 -0.48,-2.324 -0.49,-2.324 -0.5,-2.321 -0.5,-2.324 -0.5,-2.324 -0.51,-2.321 -0.51,-2.324 -0.51,-2.324 -0.52,-2.32 -0.53,-2.324 -0.52,-2.325 -0.53,-2.32 -0.53,-2.324 -0.54,-2.324 -0.54,-2.321 -0.55,-2.324 -0.55,-2.324 -0.55,-2.324 -0.56,-2.321 -0.55,-2.324 -0.57,-2.324 -0.57,-2.32 -0.57,-2.325 -0.58,-2.324 -0.57,-2.32 -0.59,-2.324 -0.58,-2.325 -0.59,-2.32 -0.6,-2.324 -0.59,-2.324 -0.6,-2.321 -0.61,-2.324 -0.61,-2.324 -0.61,-2.32"
             style="fill:none;stroke:#ff0000;stroke-width:4.16667;stroke-linecap:butt;stroke-linejoin:miter;stroke-miterlimit:1;stroke-dasharray:none;stroke-opacity:1"
             id="path228" /><path
             d="m 1919.05,726.938 v 0 l -0.62,-2.325 -0.61,-2.324 -0.63,-2.32 -0.62,-2.324 -0.63,-2.325 -0.64,-2.32 -0.63,-2.324 -0.64,-2.324 -0.65,-2.321 -0.65,-2.324 -0.64,-2.324 -0.66,-2.32 -0.66,-2.325 -0.66,-2.324 -0.66,-2.32 -0.67,-2.324 -0.67,-2.325 -0.68,-2.32 -0.67,-2.324 -0.69,-2.324 -0.68,-2.325 -0.69,-2.32 -0.69,-2.324 -0.69,-2.324 -0.7,-2.321 -0.7,-2.324 -0.7,-2.324 -0.71,-2.32 -0.71,-2.325 -0.71,-2.324 -0.72,-2.32 -0.72,-2.324 -0.72,-2.325 -0.73,-2.32 -0.72,-2.324 -0.73,-2.324 -0.74,-2.321 -0.74,-2.324 -0.74,-2.324 -0.74,-2.32 -0.75,-2.325 -0.75,-2.324 -0.75,-2.32 -0.75,-2.324 -0.76,-2.325 -0.76,-2.32 -0.76,-2.324 -0.77,-2.324 -0.77,-2.321 -0.77,-2.324 -0.77,-2.324 -0.78,-2.32 -0.78,-2.325 -0.78,-2.324 -0.79,-2.32 -0.79,-2.324 -0.79,-2.325 -0.79,-2.324 -0.8,-2.32 -0.79,-2.324 -0.8,-2.325 -0.81,-2.32 -0.8,-2.324 -0.81,-2.324 -0.81,-2.321 -0.81,-2.324 -0.82,-2.324 -0.82,-2.32 -0.82,-2.325 -0.82,-2.324 -0.83,-2.32 -0.82,-2.324 -0.83,-2.325 -0.83,-2.32 -0.84,-2.324 -0.83,-2.324 -0.84,-2.321 -0.84,-2.324 -0.85,-2.324 -0.84,-2.32"
             style="fill:none;stroke:#ff0000;stroke-width:4.16667;stroke-linecap:butt;stroke-linejoin:miter;stroke-miterlimit:1;stroke-dasharray:none;stroke-opacity:1"
             id="path230" /><path
             d="m 1188.88,2990.65 v 0 l 1.42,-1.16 1.42,-1.16 1.42,-1.16 1.42,-1.16 1.42,-1.17 1.42,-1.16 1.42,-1.16 1.42,-1.16 1.41,-1.16 1.42,-1.16 1.42,-1.16 1.41,-1.17 1.42,-1.16 1.41,-1.16 1.42,-1.16 1.41,-1.16 1.42,-1.16 1.41,-1.16 1.41,-1.17 1.41,-1.16 1.42,-1.16 1.41,-1.16 1.41,-1.16 1.41,-1.16 1.4,-1.17 1.41,-1.16 1.41,-1.16 1.41,-1.16 1.4,-1.16 1.41,-1.16 1.41,-1.17 1.4,-1.16 1.41,-1.16 1.4,-1.16 1.4,-1.16 1.41,-1.16 1.4,-1.16 1.4,-1.16 1.4,-1.16 1.41,-1.17 1.39,-1.16 1.4,-1.16 1.41,-1.16 1.39,-1.16 1.4,-1.16 1.4,-1.17 1.4,-1.16 1.39,-1.16 1.39,-1.16 1.4,-1.16 1.39,-1.16 1.4,-1.17 1.39,-1.16 1.39,-1.16 1.39,-1.16 1.39,-1.16 1.39,-1.16 1.4,-1.16 1.39,-1.16 2.77,-2.33 2.78,-2.32 2.77,-2.32 2.77,-2.33 2.76,-2.32 2.77,-2.32 2.76,-2.33 2.76,-2.32 2.75,-2.32 2.75,-2.33 2.75,-2.32 2.75,-2.32 2.74,-2.32 2.74,-2.32 2.74,-2.33 2.74,-2.32 2.73,-2.33 2.73,-2.32 2.73,-2.32 2.73,-2.33 2.71,-2.32 2.72,-2.32 2.72,-2.32 2.71,-2.32 2.71,-2.33 2.71,-2.32 2.7,-2.32 2.7,-2.33 2.69,-2.32 2.7,-2.32 2.69,-2.33 2.68,-2.32 2.69,-2.32 2.68,-2.33 2.68,-2.32 2.67,-2.32 2.67,-2.32 2.67,-2.33 2.66,-2.32 2.66,-2.32 2.66,-2.33 2.65,-2.32 2.65,-2.32 2.65,-2.33 2.64,-2.32 2.64,-2.32 2.64,-2.32 2.63,-2.32 2.63,-2.33 2.63,-2.32 2.62,-2.32 2.62,-2.33 2.61,-2.32 2.62,-2.33 2.6,-2.32 2.61,-2.32 2.6,-2.33 2.59,-2.32 2.6,-2.32 2.59,-2.32 2.58,-2.32 2.58,-2.33 2.58,-2.32 2.57,-2.32 2.57,-2.33 2.57,-2.32 2.56,-2.32 2.56,-2.33 2.56,-2.32 2.55,-2.32 2.54,-2.32 2.54,-2.33 2.54,-2.32 2.54,-2.32 2.53,-2.33 2.52,-2.32 2.52,-2.32 2.52,-2.33 2.52,-2.32 2.51,-2.32 2.5,-2.33 2.51,-2.32 2.49,-2.32 2.49,-2.32 2.49,-2.32 2.49,-2.33 2.48,-2.32 2.47,-2.32 2.48,-2.33 2.46,-2.32 2.47,-2.32 2.46,-2.33 2.45,-2.32 2.45,-2.32 2.45,-2.32 2.44,-2.33 2.43,-2.32 2.44,-2.32 2.42,-2.33 2.43,-2.32 2.42,-2.32 2.41,-2.33 2.41,-2.32 2.41,-2.32 2.39,-2.33 2.4,-2.32 2.39,-2.32 2.39,-2.32 2.38,-2.33 2.38,-2.32 2.37,-2.32 2.37,-2.33 2.36,-2.32 2.36,-2.32 2.35,-2.33 2.35,-2.32 2.34,-2.32 2.34,-2.32 2.33,-2.32 2.33,-2.33 2.33,-2.32 2.31,-2.32 2.32,-2.33 2.31,-2.32 2.3,-2.32 2.3,-2.33 2.29,-2.32 2.29,-2.32 2.28,-2.33 2.28,-2.32 2.27,-2.32 2.27,-2.32 2.26,-2.33 2.26,-2.32 2.25,-2.32 2.24,-2.33 2.25,-2.32 2.23,-2.32 2.23,-2.33 2.23,-2.32 2.22,-2.32 2.21,-2.32 2.21,-2.33 2.2,-2.32 2.2,-2.32 2.19,-2.33 2.18,-2.32 2.18,-2.32 2.18,-2.33 2.17,-2.32 2.16,-2.32 2.16,-2.32 2.15,-2.33 2.14,-2.32 2.14,-2.32 2.14,-2.32 2.12,-2.33 2.12,-2.32 2.12,-2.32 2.11,-2.33 2.1,-2.32 2.1,-2.32 2.09,-2.33 2.09,-2.32 2.08,-2.32 2.07,-2.32 2.07,-2.33 2.06,-2.32 2.05,-2.32 2.05,-2.33 2.04,-2.32 2.04,-2.32 2.02,-2.33 2.03,-2.32 2.01,-2.32 2.01,-2.32 2,-2.33 2,-2.32 1.99,-2.32 1.98,-2.33 1.98,-2.32 1.97,-2.32 1.96,-2.33 1.96,-2.32 1.95,-2.32 1.94,-2.33 1.94,-2.32 1.93,-2.32 1.92,-2.32 1.91,-2.32 1.91,-2.33 1.91,-2.32 1.89,-2.32 1.89,-2.33 1.88,-2.32 1.87,-2.32 1.87,-2.33 1.86,-2.32 1.85,-2.32 1.85,-2.32 1.83,-2.33 1.83,-2.32 1.83,-2.32 1.81,-2.33 1.81,-2.32 1.8,-2.32 1.8,-2.33 1.79,-2.32 1.77,-2.32 1.78,-2.33 1.76,-2.32 1.76,-2.32 1.75,-2.32 1.74,-2.33 1.74,-2.32 1.72,-2.32 1.72,-2.33 1.72,-2.32 1.7,-2.32 1.7,-2.33 1.69,-2.32 1.68,-2.32 1.67,-2.32 1.67,-2.32 1.66,-2.33 1.65,-2.32 1.64,-2.32 1.64,-2.33 1.63,-2.32 1.62,-2.32 1.61,-2.33 1.61,-2.32 1.59,-2.32 1.59,-2.33 1.58,-2.32 1.58,-2.32 1.57,-2.32 1.55,-2.33 1.55,-2.32 1.55,-2.32 1.53,-2.33 1.53,-2.32 1.52,-2.32 1.51,-2.33 1.5,-2.32 1.5,-2.32 1.48,-2.32 1.48,-2.33 1.48,-2.32 1.46,-2.32 1.45,-2.33 1.45,-2.32 1.44,-2.32 1.43,-2.33 1.43,-2.32 1.41,-2.32 1.41,-2.32 1.4,-2.33 1.39,-2.32 1.39,-2.32 1.37,-2.32 1.38,-2.33 1.35,-2.32 1.36,-2.32 1.34,-2.33 1.34,-2.32 1.33,-2.32 1.32,-2.33 1.31,-2.32 1.31,-2.32 1.3,-2.32 1.29,-2.33 1.28,-2.32 1.27,-2.32 1.27,-2.33 1.26,-2.32 1.25,-2.32 1.24,-2.33 1.23,-2.32 1.23,-2.32 1.22,-2.32 1.21,-2.33 1.21,-2.32 1.19,-2.32 1.19,-2.33 1.18,-2.32 1.17,-2.32 1.17,-2.33 1.16,-2.32 1.14,-2.32 1.14,-2.33 1.14,-2.32 1.13,-2.32 1.12,-2.32 1.11,-2.32 1.1,-2.33 1.1,-2.32 1.09,-2.32 1.08,-2.33 1.07,-2.32 1.07,-2.32 1.06,-2.33 1.05,-2.32 1.04,-2.32 1.04,-2.32 1.02,-2.33 1.03,-2.32 1.01,-2.32 1.01,-2.33 1,-2.32 0.99,-2.32 0.98,-2.33 0.98,-2.32 0.97,-2.32 0.96,-2.33 0.96,-2.32 0.95,-2.32 0.94,-2.32 0.93,-2.32 0.93,-2.33 0.92,-2.32 0.91,-2.32 0.91,-2.33 0.9,-2.32 0.89,-2.32 0.88,-2.33 0.88,-2.32 0.87,-2.32 0.86,-2.32 0.86,-2.33 0.85,-2.32 0.84,-2.32 0.84,-2.33 0.83,-2.32 0.82,-2.32 0.82,-2.33 0.81,-2.32 0.8,-2.32 0.8,-2.33 0.79,-2.32 0.78,-2.32 0.78,-2.32 0.77,-2.33 0.76,-2.32 0.76,-2.32 0.75,-2.33 0.74,-2.32 0.74,-2.32 0.73,-2.33 0.72,-2.32 0.72,-2.32 0.71,-2.32 0.71,-2.32 0.7,-2.33 0.69,-2.32 0.69,-2.32 0.68,-2.33 0.68,-2.32 0.67,-2.32 0.66,-2.33 0.66,-2.32 0.65,-2.33 0.64,-2.32 0.64,-2.32 0.64,-2.32 0.63,-2.32 0.62,-2.33 0.61,-2.32 0.61,-2.32 0.6,-2.33 0.61,-2.32 0.59,-2.32 0.59,-2.33 0.58,-2.32 0.58,-2.32 0.57,-2.32 0.56,-2.33 0.56,-2.32 0.56,-2.32 0.54,-2.33 0.55,-2.32 0.53,-2.32 0.54,-2.33 0.53,-2.32 0.52,-2.32 0.52,-2.33 0.51,-2.32 0.51,-2.32 0.5,-2.32 0.5,-2.32 0.49,-2.33 0.49,-2.32 0.48,-2.32 0.48,-2.33 0.47,-2.32 0.47,-2.32 0.46,-2.33 0.46,-2.32 0.45,-2.32 0.45,-2.32 0.44,-2.33 0.44,-2.32 0.44,-2.32 0.43,-2.33 0.42,-2.32 0.43,-2.32 0.41,-2.33 0.41,-2.32 0.41,-2.32 0.41,-2.33 0.4,-2.32 0.39,-2.32 0.39,-2.32 0.39,-2.33 0.38,-2.32 0.38,-2.32 0.37,-2.33 0.37,-2.32 0.37,-2.32 0.36,-2.33 0.36,-2.32 0.35,-2.32 0.35,-2.32 0.35,-2.32 0.34,-2.33 0.34,-2.32 0.33,-2.32 0.33,-2.33 0.33,-2.32 0.32,-2.32 0.32,-2.33 0.32,-2.32 0.31,-2.32 0.31,-2.33 0.31,-2.32 0.3,-2.32 0.3,-2.32 0.29,-2.33 0.29,-2.32 0.29,-2.32 0.29,-2.33 0.28,-2.32 0.28,-2.32 0.27,-2.33 0.27,-2.32 0.27,-2.32 0.27,-2.32 0.26,-2.33 0.26,-2.32 0.26,-2.32 0.25,-2.33"
             style="fill:none;stroke:#00afaf;stroke-width:4.16667;stroke-linecap:butt;stroke-linejoin:miter;stroke-miterlimit:1;stroke-dasharray:none;stroke-opacity:1"
             id="path232" /><path
             d="m 1985.48,1874.47 v 0 l 0.25,-2.32 0.25,-2.32 0.24,-2.33 0.24,-2.32 0.24,-2.32 0.24,-2.32 0.23,-2.33 0.23,-2.32 0.23,-2.32 0.22,-2.32 0.22,-2.33 0.22,-2.32 0.22,-2.32 0.21,-2.33 0.21,-2.32 0.21,-2.32 0.2,-2.33 0.21,-2.32 0.2,-2.32 0.2,-2.32 0.19,-2.33 0.2,-2.32 0.19,-2.32 0.18,-2.33 0.19,-2.32 0.19,-2.32 0.18,-2.33 0.18,-2.32 0.17,-2.32 0.18,-2.32 0.17,-2.33 0.17,-2.32 0.17,-2.32 0.16,-2.33 0.17,-2.32 0.16,-2.32 0.16,-2.33 0.16,-2.32 0.15,-2.32 0.16,-2.33 0.14,-2.32 0.16,-2.32 0.14,-2.32 0.15,-2.32 0.14,-2.33 0.14,-2.32 0.15,-2.32 0.13,-2.33 0.14,-2.32 0.13,-2.32 0.13,-2.33 0.14,-2.32 0.13,-2.32 0.12,-2.32 0.13,-2.33 0.12,-2.32 0.12,-2.32 0.12,-2.33 0.12,-2.32 0.12,-2.32 0.11,-2.33 0.12,-2.32 0.11,-2.32 0.11,-2.33 0.11,-2.32 0.11,-2.32 0.11,-2.32 0.1,-2.33 0.11,-2.32 0.1,-2.32 0.1,-2.33 0.1,-2.32 0.09,-2.32 0.1,-2.33 0.1,-2.32 0.09,-2.32 0.09,-2.32 0.09,-2.32 0.09,-2.33 0.09,-2.32 0.09,-2.32 0.08,-2.33 0.09,-2.32 0.08,-2.32 0.08,-2.33 0.08,-2.32 0.08,-2.32 0.08,-2.33 0.08,-2.32 0.08,-2.32 0.07,-2.32 0.07,-2.33 0.07,-2.32 0.08,-2.32 0.07,-2.33 0.07,-2.32 0.07,-2.32 0.06,-2.33 0.07,-2.32 0.06,-2.32 0.07,-2.32 0.06,-2.33 0.06,-2.32 0.06,-2.32 0.06,-2.33 0.06,-2.32 0.06,-2.32 0.06,-2.33 0.05,-2.32 0.05,-2.32 0.06,-2.32 0.05,-2.33 0.05,-2.32 0.06,-2.32 0.05,-2.32 0.04,-2.33 0.05,-2.32 0.05,-2.32 0.05,-2.33 0.04,-2.32 0.05,-2.32 0.04,-2.33 0.04,-2.32 0.05,-2.32 0.04,-2.32 0.04,-2.33 0.04,-2.32 0.04,-2.32 0.04,-2.33 0.03,-2.32 0.04,-2.32 0.03,-2.33 0.04,-2.32 0.04,-2.32 0.03,-2.32 0.03,-2.33 0.03,-2.32 0.03,-2.32 0.04,-2.33 0.02,-2.32 0.03,-2.32 0.03,-2.33 0.03,-2.32 0.03,-2.32 0.02,-2.33 0.03,-2.32 0.02,-2.32 0.02,-2.32 0.03,-2.32 0.02,-2.33 0.02,-2.32 0.02,-2.32 0.02,-2.33 0.03,-2.32 0.01,-2.32 0.02,-2.33 0.02,-2.32 0.02,-2.32 0.01,-2.32 0.02,-2.33 0.01,-2.32 0.02,-2.32 0.01,-2.33 0.02,-2.32 0.01,-2.32 0.01,-2.33 0.01,-2.32 0.01,-2.32 0.01,-2.33 0.01,-2.32 0.01,-2.32 0.01,-2.32 0.01,-2.32 v -2.33 l 0.01,-2.32 0.01,-2.33 v -2.32 -2.32 l 0.01,-2.33 v -2.32 -2.32 l 0.01,-2.32 v -2.32 -2.33 -2.32 -2.32 l -0.01,-2.33 v -2.32 -2.32 l -0.01,-2.33 v -2.32 -2.32 l -0.01,-2.33 v -2.32 l -0.01,-2.32 -0.01,-2.32 -0.01,-2.33 v -2.32 l -0.01,-2.32 -0.01,-2.33 -0.01,-2.32 -0.01,-2.32 -0.01,-2.33 -0.02,-2.32 -0.01,-2.32 -0.01,-2.32 -0.01,-2.32 -0.02,-2.33 -0.02,-2.32 -0.01,-2.32 -0.02,-2.33 -0.02,-2.32 -0.01,-2.33 -0.02,-2.32 -0.02,-2.32 -0.02,-2.33 -0.02,-2.32 -0.02,-2.32 -0.02,-2.32 -0.03,-2.32 -0.02,-2.33 -0.03,-2.32 -0.02,-2.32 -0.02,-2.33 -0.03,-2.32 -0.03,-2.32 -0.03,-2.33 -0.02,-2.32 -0.04,-2.32 -0.02,-2.32 -0.03,-2.33 -0.03,-2.32 -0.04,-2.32 -0.03,-2.33 -0.03,-2.32 -0.04,-2.32 -0.03,-2.33 -0.04,-2.32 -0.03,-2.32 -0.04,-2.33 -0.04,-2.32 -0.04,-2.32 -0.04,-2.32 -0.04,-2.32 -0.04,-2.33 -0.04,-2.32 -0.04,-2.32 -0.05,-2.33 -0.04,-2.32 -0.05,-2.33 -0.05,-2.32 -0.04,-2.32 -0.05,-2.32 -0.05,-2.32 -0.05,-2.33 -0.05,-2.32 -0.05,-2.32 -0.05,-2.33 -0.06,-2.32 -0.05,-2.32 -0.06,-2.33 -0.05,-2.32 -0.06,-2.32 -0.06,-2.33 -0.06,-2.32 -0.06,-2.32 -0.06,-2.32 -0.06,-2.33 -0.06,-2.32 -0.07,-2.32 -0.06,-2.33 -0.07,-2.32 -0.07,-2.32 -0.06,-2.33 -0.07,-2.32 -0.07,-2.32 -0.07,-2.32 -0.07,-2.32 -0.08,-2.33 -0.07,-2.32 -0.08,-2.32 -0.08,-2.33 -0.07,-2.32 -0.09,-2.33 -0.07,-2.32 -0.09,-2.32 -0.08,-2.32 -0.08,-2.33 -0.09,-2.32 -0.09,-2.32 -0.08,-2.32 -0.09,-2.33 -0.09,-2.32 -0.09,-2.32 -0.09,-2.33 -0.1,-2.32 -0.1,-2.32 -0.09,-2.33 -0.1,-2.32 -0.1,-2.32 -0.1,-2.32 -0.1,-2.33 -0.1,-2.32 -0.11,-2.32 -0.1,-2.33 -0.11,-2.32 -0.11,-2.32 -0.11,-2.33 -0.12,-2.32 -0.11,-2.32 -0.11,-2.32 -0.12,-2.33 -0.12,-2.32 -0.12,-2.32 -0.12,-2.32 -0.12,-2.33 -0.13,-2.32 -0.12,-2.32 -0.13,-2.33 -0.13,-2.32 -0.13,-2.33 -0.13,-2.32 -0.14,-2.32 -0.13,-2.32 -0.14,-2.32 -0.14,-2.33 -0.15,-2.32 -0.14,-2.32 -0.14,-2.33 -0.15,-2.32 -0.15,-2.32 -0.15,-2.33 -0.15,-2.32 -0.15,-2.32 -0.16,-2.32 -0.16,-2.33 -0.16,-2.32 -0.16,-2.32 -0.16,-2.33 -0.17,-2.32 -0.17,-2.32 -0.17,-2.33 -0.17,-2.32 -0.17,-2.32 -0.18,-2.33 -0.17,-2.32 -0.18,-2.32 -0.19,-2.32 -0.18,-2.32 -0.19,-2.33 -0.19,-2.32 -0.19,-2.32 -0.19,-2.33 -0.2,-2.32 -0.19,-2.32 -0.2,-2.33 -0.21,-2.32 -0.2,-2.32 -0.21,-2.32 -0.21,-2.33 -0.21,-2.32 -0.21,-2.32 -0.22,-2.33 -0.22,-2.32 -0.22,-2.32 -0.22,-2.33 -0.23,-2.32 -0.22,-2.32 -0.24,-2.33 -0.23,-2.32 -0.23,-2.32 -0.24,-2.32 -0.24,-2.33 -0.25,-2.32 -0.25,-2.32 -0.24,-2.33 -0.26,-2.317 -0.25,-2.325 -0.26,-2.324 -0.26,-2.32 -0.26,-2.324 -0.26,-2.325 -0.27,-2.32 -0.27,-2.324 -0.28,-2.324 -0.27,-2.321 -0.28,-2.324 -0.29,-2.324 -0.28,-2.32 -0.29,-2.325 -0.29,-2.324 -0.29,-2.32 -0.3,-2.324 -0.3,-2.325 -0.3,-2.324 -0.31,-2.32 -0.3,-2.324 -0.32,-2.324 -0.31,-2.321 -0.32,-2.324 -0.32,-2.32 -0.32,-2.325 -0.33,-2.324 -0.33,-2.32 -0.33,-2.324 -0.34,-2.325 -0.34,-2.324 -0.34,-2.32 -0.35,-2.324 -0.34,-2.324 -0.35,-2.321 -0.36,-2.324 -0.36,-2.324 -0.36,-2.321 -0.37,-2.324 -0.37,-2.324 -0.37,-2.32 -0.37,-2.325 -0.38,-2.324 -0.38,-2.32 -0.39,-2.324 -0.38,-2.324 -0.4,-2.321 -0.39,-2.324 -0.4,-2.324 -0.4,-2.321 -0.41,-2.324 -0.41,-2.324 -0.41,-2.32 -0.41,-2.325 -0.42,-2.324 -0.42,-2.32 -0.43,-2.324 -0.43,-2.324 -0.43,-2.325 -0.44,-2.32 -0.44,-2.324 -0.44,-2.321 -0.45,-2.324 -0.45,-2.324 -0.45,-2.324 -0.46,-2.321 -0.46,-2.324 -0.46,-2.324 -0.47,-2.32 -0.47,-2.324 -0.47,-2.325 -0.49,-2.32 -0.48,-2.324 -0.48,-2.324 -0.49,-2.321 -0.49,-2.324 -0.5,-2.324 -0.5,-2.321 -0.5,-2.324 -0.51,-2.324 -0.51,-2.32 -0.51,-2.324 -0.52,-2.325 -0.52,-2.32 -0.52,-2.324 -0.54,-2.324 -0.53,-2.321 -0.53,-2.324 -0.54,-2.324 -0.54,-2.321 -0.55,-2.324 -0.55,-2.324 -0.55,-2.32 -0.56,-2.324 -0.56,-2.325 -0.56,-2.32 -0.57,-2.324 -0.57,-2.324 -0.57,-2.321 -0.58,-2.324 -0.58,-2.324 -0.59,-2.324 -0.58,-2.321 -0.59,-2.324 -0.6,-2.324 -0.6,-2.32 -0.6,-2.325 -0.6,-2.324 -0.61,-2.32 -0.62,-2.324 -0.61,-2.325 -0.62,-2.32 -0.62,-2.324 -0.63,-2.324 -0.63,-2.321 -0.63,-2.324 -0.63,-2.324 -0.65,-2.32 -0.64,-2.325 -0.64,-2.324 -0.65,-2.32 -0.66,-2.324 -0.65,-2.325 -0.66,-2.32 -0.66,-2.324 -0.67,-2.324 -0.66,-2.321 -0.68,-2.324 -0.67,-2.324 -0.68,-2.32 -0.68,-2.325 -0.69,-2.324 -0.69,-2.32 -0.69,-2.324"
             style="fill:none;stroke:#00afaf;stroke-width:4.16667;stroke-linecap:butt;stroke-linejoin:miter;stroke-miterlimit:1;stroke-dasharray:none;stroke-opacity:1"
             id="path234" /><path
             d="m 1922.06,689.77 v 0 l -0.69,-2.325 -0.7,-2.32 -0.7,-2.324 -0.7,-2.324 -0.71,-2.325 -0.71,-2.32 -0.71,-2.324 -0.72,-2.324 -0.72,-2.321 -0.72,-2.324 -0.72,-2.324 -0.73,-2.32 -0.73,-2.325 -0.73,-2.324 -0.74,-2.32 -0.74,-2.324 -0.74,-2.325 -0.75,-2.32 -0.74,-2.324 -0.76,-2.324 -0.75,-2.321 -0.76,-2.324 -0.76,-2.324 -0.76,-2.32 -0.76,-2.325 -0.77,-2.324 -0.77,-2.32 -0.77,-2.324 -0.78,-2.325 -0.78,-2.32 -0.78,-2.324 -0.78,-2.324 -0.79,-2.321 -0.79,-2.324 -0.78,-2.324 -0.8,-2.32 -0.8,-2.325 -0.79,-2.324 -0.81,-2.32 -0.8,-2.324 -0.81,-2.325 -0.8,-2.324 -0.82,-2.32 -0.81,-2.324 -0.82,-2.325 -0.81,-2.32 -0.82,-2.324 -0.83,-2.324 -0.82,-2.321 -0.83,-2.324 -0.83,-2.324 -0.83,-2.32 -0.83,-2.325 -0.84,-2.324 -0.84,-2.32 -0.84,-2.324 -0.84,-2.325 -0.85,-2.32 -0.85,-2.324 -0.85,-2.324 -0.85,-2.321 -0.85,-2.324 -0.86,-2.324 -0.85,-2.32"
             style="fill:none;stroke:#00afaf;stroke-width:4.16667;stroke-linecap:butt;stroke-linejoin:miter;stroke-miterlimit:1;stroke-dasharray:none;stroke-opacity:1"
             id="path236" /><g
             id="g238"
             transform="scale(4.16667)"><text
               transform="matrix(0,-1,-1,0,366.674,361.132)"
               style="font-variant:normal;font-weight:normal;font-size:14px;font-family:Menlo;-inkscape-font-specification:Menlo-Regular;writing-mode:lr-tb;fill:#0eff00;fill-opacity:1;fill-rule:nonzero;stroke:none"
               id="text242"><tspan
                 x="0 8.4274139 16.855413"
                 y="0"
                 id="tspan240">1nF</tspan></text></g><g
             id="g244"
             transform="scale(4.16667)"><text
               transform="matrix(0,-1,-1,0,400.722,413.091)"
               style="font-variant:normal;font-weight:normal;font-size:14px;font-family:Menlo;-inkscape-font-specification:Menlo-Regular;writing-mode:lr-tb;fill:#0000ff;fill-opacity:1;fill-rule:nonzero;stroke:none"
               id="text248"><tspan
                 x="0 8.4280005 16.855413 25.283415"
                 y="0"
                 id="tspan246">4n7F</tspan></text></g><g
             id="g250"
             transform="scale(4.16667)"><text
               transform="matrix(0,-1,-1,0,440.483,472.47)"
               style="font-variant:normal;font-weight:normal;font-size:14px;font-family:Menlo;-inkscape-font-specification:Menlo-Regular;writing-mode:lr-tb;fill:#ff0000;fill-opacity:1;fill-rule:nonzero;stroke:none"
               id="text254"><tspan
                 x="0 8.4280005 16.855413 25.283415"
                 y="0"
                 id="tspan252">10nF</tspan></text></g><g
             id="g256"
             transform="scale(4.16667)"><text
               transform="matrix(0,-1,-1,0,446.259,607.421)"
               style="font-variant:normal;font-weight:normal;font-size:14px;font-family:Menlo;-inkscape-font-specification:Menlo-Regular;writing-mode:lr-tb;fill:#00afaf;fill-opacity:1;fill-rule:nonzero;stroke:none"
               id="text260"><tspan
                 x="0 8.4280005 16.855413 25.283415 33.711414"
                 y="0"
                 id="tspan258">100nF</tspan></text></g></g></g></g></g></svg>
