<?xml version="1.0" encoding="UTF-8" standalone="no"?>
<svg
   xmlns:dc="http://purl.org/dc/elements/1.1/"
   xmlns:cc="http://creativecommons.org/ns#"
   xmlns:rdf="http://www.w3.org/1999/02/22-rdf-syntax-ns#"
   xmlns:svg="http://www.w3.org/2000/svg"
   xmlns="http://www.w3.org/2000/svg"
   version="1.1"
   id="svg10"
   xml:space="preserve"
   width="569.03094"
   height="361.33768"
   viewBox="0 0 853.5464 542.00654"><metadata
     id="metadata16"><rdf:RDF><cc:Work
         rdf:about=""><dc:format>image/svg+xml</dc:format><dc:type
           rdf:resource="http://purl.org/dc/dcmitype/StillImage" /><dc:title></dc:title></cc:Work></rdf:RDF></metadata><defs
     id="defs14"><clipPath
       clipPathUnits="userSpaceOnUse"
       id="clipPath28"><path
         d="m 375,299.582 h 1729.17 v 2908.34 H 375 Z"
         id="path26" /></clipPath><clipPath
       clipPathUnits="userSpaceOnUse"
       id="clipPath212"><path
         d="m 500,537.082 h 1520.83 v 2454.17 H 500 Z"
         id="path210" /></clipPath></defs><g
     id="g18"
     transform="matrix(0,-1.3333333,-1.3333333,0,1025.6049,667.07604)"><g
       id="g20"
       transform="scale(0.24)"><g
         id="g22"><g
           id="g24"
           clip-path="url(#clipPath28)"><g
             id="g30"
             transform="scale(4.16667)"><text
               transform="matrix(0,-1,-1,0,94.0003,734.614)"
               style="font-variant:normal;font-weight:normal;font-size:14px;font-family:Menlo;-inkscape-font-specification:Menlo-Regular;writing-mode:lr-tb;fill:#afafaf;fill-opacity:1;fill-rule:nonzero;stroke:none"
               id="text34"><tspan
                 x="0 8.4274139 16.855413 25.283415"
                 y="0"
                 id="tspan32">10Hz</tspan></text></g><path
             d="M 500,2990.65 H 458.332"
             style="fill:none;stroke:#afafaf;stroke-width:4.16667;stroke-linecap:butt;stroke-linejoin:miter;stroke-miterlimit:10;stroke-dasharray:none;stroke-opacity:1"
             id="path36" /><path
             d="M 500,2758.36 H 479.168"
             style="fill:none;stroke:#afafaf;stroke-width:4.16667;stroke-linecap:butt;stroke-linejoin:miter;stroke-miterlimit:10;stroke-dasharray:none;stroke-opacity:1"
             id="path38" /><path
             d="M 500,2622.47 H 479.168"
             style="fill:none;stroke:#afafaf;stroke-width:4.16667;stroke-linecap:butt;stroke-linejoin:miter;stroke-miterlimit:10;stroke-dasharray:none;stroke-opacity:1"
             id="path40" /><path
             d="M 500,2526.06 H 479.168"
             style="fill:none;stroke:#afafaf;stroke-width:4.16667;stroke-linecap:butt;stroke-linejoin:miter;stroke-miterlimit:10;stroke-dasharray:none;stroke-opacity:1"
             id="path42" /><path
             d="M 500,2451.28 H 479.168"
             style="fill:none;stroke:#afafaf;stroke-width:4.16667;stroke-linecap:butt;stroke-linejoin:miter;stroke-miterlimit:10;stroke-dasharray:none;stroke-opacity:1"
             id="path44" /><path
             d="M 500,2390.18 H 479.168"
             style="fill:none;stroke:#afafaf;stroke-width:4.16667;stroke-linecap:butt;stroke-linejoin:miter;stroke-miterlimit:10;stroke-dasharray:none;stroke-opacity:1"
             id="path46" /><path
             d="M 500,2338.52 H 479.168"
             style="fill:none;stroke:#afafaf;stroke-width:4.16667;stroke-linecap:butt;stroke-linejoin:miter;stroke-miterlimit:10;stroke-dasharray:none;stroke-opacity:1"
             id="path48" /><path
             d="M 500,2293.77 H 479.168"
             style="fill:none;stroke:#afafaf;stroke-width:4.16667;stroke-linecap:butt;stroke-linejoin:miter;stroke-miterlimit:10;stroke-dasharray:none;stroke-opacity:1"
             id="path50" /><path
             d="M 500,2254.29 H 479.168"
             style="fill:none;stroke:#afafaf;stroke-width:4.16667;stroke-linecap:butt;stroke-linejoin:miter;stroke-miterlimit:10;stroke-dasharray:none;stroke-opacity:1"
             id="path52" /><g
             id="g54"
             transform="scale(4.16667)"><text
               transform="matrix(0,-1,-1,0,94.0003,553.628)"
               style="font-variant:normal;font-weight:normal;font-size:14px;font-family:Menlo;-inkscape-font-specification:Menlo-Regular;writing-mode:lr-tb;fill:#afafaf;fill-opacity:1;fill-rule:nonzero;stroke:none"
               id="text58"><tspan
                 x="0 8.4280005 16.856001 25.283415 33.711414"
                 y="0"
                 id="tspan56">100Hz</tspan></text></g><path
             d="M 500,2218.98 H 458.332"
             style="fill:none;stroke:#afafaf;stroke-width:4.16667;stroke-linecap:butt;stroke-linejoin:miter;stroke-miterlimit:10;stroke-dasharray:none;stroke-opacity:1"
             id="path60" /><path
             d="M 500,1986.69 H 479.168"
             style="fill:none;stroke:#afafaf;stroke-width:4.16667;stroke-linecap:butt;stroke-linejoin:miter;stroke-miterlimit:10;stroke-dasharray:none;stroke-opacity:1"
             id="path62" /><path
             d="M 500,1850.8 H 479.168"
             style="fill:none;stroke:#afafaf;stroke-width:4.16667;stroke-linecap:butt;stroke-linejoin:miter;stroke-miterlimit:10;stroke-dasharray:none;stroke-opacity:1"
             id="path64" /><path
             d="M 500,1754.39 H 479.168"
             style="fill:none;stroke:#afafaf;stroke-width:4.16667;stroke-linecap:butt;stroke-linejoin:miter;stroke-miterlimit:10;stroke-dasharray:none;stroke-opacity:1"
             id="path66" /><path
             d="M 500,1679.61 H 479.168"
             style="fill:none;stroke:#afafaf;stroke-width:4.16667;stroke-linecap:butt;stroke-linejoin:miter;stroke-miterlimit:10;stroke-dasharray:none;stroke-opacity:1"
             id="path68" /><path
             d="M 500,1618.51 H 479.168"
             style="fill:none;stroke:#afafaf;stroke-width:4.16667;stroke-linecap:butt;stroke-linejoin:miter;stroke-miterlimit:10;stroke-dasharray:none;stroke-opacity:1"
             id="path70" /><path
             d="M 500,1566.85 H 479.168"
             style="fill:none;stroke:#afafaf;stroke-width:4.16667;stroke-linecap:butt;stroke-linejoin:miter;stroke-miterlimit:10;stroke-dasharray:none;stroke-opacity:1"
             id="path72" /><path
             d="M 500,1522.1 H 479.168"
             style="fill:none;stroke:#afafaf;stroke-width:4.16667;stroke-linecap:butt;stroke-linejoin:miter;stroke-miterlimit:10;stroke-dasharray:none;stroke-opacity:1"
             id="path74" /><path
             d="M 500,1482.63 H 479.168"
             style="fill:none;stroke:#afafaf;stroke-width:4.16667;stroke-linecap:butt;stroke-linejoin:miter;stroke-miterlimit:10;stroke-dasharray:none;stroke-opacity:1"
             id="path76" /><g
             id="g78"
             transform="scale(4.16667)"><text
               transform="matrix(0,-1,-1,0,94.0003,364.213)"
               style="font-variant:normal;font-weight:normal;font-size:14px;font-family:Menlo;-inkscape-font-specification:Menlo-Regular;writing-mode:lr-tb;fill:#afafaf;fill-opacity:1;fill-rule:nonzero;stroke:none"
               id="text82"><tspan
                 x="0 8.4274139 16.855413 25.283415"
                 y="0"
                 id="tspan80">1KHz</tspan></text></g><path
             d="M 500,1447.32 H 458.332"
             style="fill:none;stroke:#afafaf;stroke-width:4.16667;stroke-linecap:butt;stroke-linejoin:miter;stroke-miterlimit:10;stroke-dasharray:none;stroke-opacity:1"
             id="path84" /><path
             d="M 500,1215.02 H 479.168"
             style="fill:none;stroke:#afafaf;stroke-width:4.16667;stroke-linecap:butt;stroke-linejoin:miter;stroke-miterlimit:10;stroke-dasharray:none;stroke-opacity:1"
             id="path86" /><path
             d="M 500,1079.14 H 479.168"
             style="fill:none;stroke:#afafaf;stroke-width:4.16667;stroke-linecap:butt;stroke-linejoin:miter;stroke-miterlimit:10;stroke-dasharray:none;stroke-opacity:1"
             id="path88" /><path
             d="M 500,982.727 H 479.168"
             style="fill:none;stroke:#afafaf;stroke-width:4.16667;stroke-linecap:butt;stroke-linejoin:miter;stroke-miterlimit:10;stroke-dasharray:none;stroke-opacity:1"
             id="path90" /><path
             d="M 500,907.945 H 479.168"
             style="fill:none;stroke:#afafaf;stroke-width:4.16667;stroke-linecap:butt;stroke-linejoin:miter;stroke-miterlimit:10;stroke-dasharray:none;stroke-opacity:1"
             id="path92" /><path
             d="M 500,846.844 H 479.168"
             style="fill:none;stroke:#afafaf;stroke-width:4.16667;stroke-linecap:butt;stroke-linejoin:miter;stroke-miterlimit:10;stroke-dasharray:none;stroke-opacity:1"
             id="path94" /><path
             d="M 500,795.184 H 479.168"
             style="fill:none;stroke:#afafaf;stroke-width:4.16667;stroke-linecap:butt;stroke-linejoin:miter;stroke-miterlimit:10;stroke-dasharray:none;stroke-opacity:1"
             id="path96" /><path
             d="M 500,750.43 H 479.168"
             style="fill:none;stroke:#afafaf;stroke-width:4.16667;stroke-linecap:butt;stroke-linejoin:miter;stroke-miterlimit:10;stroke-dasharray:none;stroke-opacity:1"
             id="path98" /><path
             d="M 500,710.957 H 479.168"
             style="fill:none;stroke:#afafaf;stroke-width:4.16667;stroke-linecap:butt;stroke-linejoin:miter;stroke-miterlimit:10;stroke-dasharray:none;stroke-opacity:1"
             id="path100" /><g
             id="g102"
             transform="scale(4.16667)"><text
               transform="matrix(0,-1,-1,0,94.0003,183.228)"
               style="font-variant:normal;font-weight:normal;font-size:14px;font-family:Menlo;-inkscape-font-specification:Menlo-Regular;writing-mode:lr-tb;fill:#afafaf;fill-opacity:1;fill-rule:nonzero;stroke:none"
               id="text106"><tspan
                 x="0 8.4280005 16.855413 25.283415 33.711414"
                 y="0"
                 id="tspan104">10KHz</tspan></text></g><path
             d="M 500,675.648 H 458.332"
             style="fill:none;stroke:#afafaf;stroke-width:4.16667;stroke-linecap:butt;stroke-linejoin:miter;stroke-miterlimit:10;stroke-dasharray:none;stroke-opacity:1"
             id="path108" /><g
             id="g110"
             transform="scale(4.16667)"><text
               transform="matrix(0,-1,-1,0,114,736.185)"
               style="font-variant:normal;font-weight:normal;font-size:14px;font-family:Menlo;-inkscape-font-specification:Menlo-Regular;writing-mode:lr-tb;fill:#afafaf;fill-opacity:1;fill-rule:nonzero;stroke:none"
               id="text114"><tspan
                 x="0 -8.42906 -16.857189 -25.286249 -33.715309"
                 y="0"
                 id="tspan112">Bd94-</tspan></text></g><path
             d="m 500,2990.65 v 41.67"
             style="fill:none;stroke:#afafaf;stroke-width:4.16667;stroke-linecap:butt;stroke-linejoin:miter;stroke-miterlimit:10;stroke-dasharray:none;stroke-opacity:1"
             id="path116" /><g
             id="g118"
             transform="scale(4.16667)"><text
               transform="matrix(0,-1,-1,0,150.5,736.185)"
               style="font-variant:normal;font-weight:normal;font-size:14px;font-family:Menlo;-inkscape-font-specification:Menlo-Regular;writing-mode:lr-tb;fill:#afafaf;fill-opacity:1;fill-rule:nonzero;stroke:none"
               id="text122"><tspan
                 x="0 -8.42906 -16.857189 -25.286249 -33.715309"
                 y="0"
                 id="tspan120">Bd24-</tspan></text></g><path
             d="m 652.082,2990.65 v 41.67"
             style="fill:none;stroke:#afafaf;stroke-width:4.16667;stroke-linecap:butt;stroke-linejoin:miter;stroke-miterlimit:10;stroke-dasharray:none;stroke-opacity:1"
             id="path124" /><g
             id="g126"
             transform="scale(4.16667)"><text
               transform="matrix(0,-1,-1,0,187,736.185)"
               style="font-variant:normal;font-weight:normal;font-size:14px;font-family:Menlo;-inkscape-font-specification:Menlo-Regular;writing-mode:lr-tb;fill:#afafaf;fill-opacity:1;fill-rule:nonzero;stroke:none"
               id="text130"><tspan
                 x="0 -8.42906 -16.857189 -25.286249 -33.715309"
                 y="0"
                 id="tspan128">Bd53-</tspan></text></g><path
             d="m 804.168,2990.65 v 41.67"
             style="fill:none;stroke:#afafaf;stroke-width:4.16667;stroke-linecap:butt;stroke-linejoin:miter;stroke-miterlimit:10;stroke-dasharray:none;stroke-opacity:1"
             id="path132" /><g
             id="g134"
             transform="scale(4.16667)"><text
               transform="matrix(0,-1,-1,0,223.5,736.185)"
               style="font-variant:normal;font-weight:normal;font-size:14px;font-family:Menlo;-inkscape-font-specification:Menlo-Regular;writing-mode:lr-tb;fill:#afafaf;fill-opacity:1;fill-rule:nonzero;stroke:none"
               id="text138"><tspan
                 x="0 -8.42906 -16.857189 -25.286249 -33.715309"
                 y="0"
                 id="tspan136">Bd82-</tspan></text></g><path
             d="m 956.25,2990.65 v 41.67"
             style="fill:none;stroke:#afafaf;stroke-width:4.16667;stroke-linecap:butt;stroke-linejoin:miter;stroke-miterlimit:10;stroke-dasharray:none;stroke-opacity:1"
             id="path140" /><g
             id="g142"
             transform="scale(4.16667)"><text
               transform="matrix(0,-1,-1,0,260,736.185)"
               style="font-variant:normal;font-weight:normal;font-size:14px;font-family:Menlo;-inkscape-font-specification:Menlo-Regular;writing-mode:lr-tb;fill:#afafaf;fill-opacity:1;fill-rule:nonzero;stroke:none"
               id="text146"><tspan
                 x="0 -8.42906 -16.857189 -25.286249 -33.715309"
                 y="0"
                 id="tspan144">Bd12-</tspan></text></g><path
             d="m 1108.33,2990.65 v 41.67"
             style="fill:none;stroke:#afafaf;stroke-width:4.16667;stroke-linecap:butt;stroke-linejoin:miter;stroke-miterlimit:10;stroke-dasharray:none;stroke-opacity:1"
             id="path148" /><g
             id="g150"
             transform="scale(4.16667)"><text
               transform="matrix(0,-1,-1,0,296.5,736.185)"
               style="font-variant:normal;font-weight:normal;font-size:14px;font-family:Menlo;-inkscape-font-specification:Menlo-Regular;writing-mode:lr-tb;fill:#afafaf;fill-opacity:1;fill-rule:nonzero;stroke:none"
               id="text154"><tspan
                 x="0 -8.42906 -16.857189 -25.286249 -33.715309"
                 y="0"
                 id="tspan152">Bd41-</tspan></text></g><path
             d="m 1260.42,2990.65 v 41.67"
             style="fill:none;stroke:#afafaf;stroke-width:4.16667;stroke-linecap:butt;stroke-linejoin:miter;stroke-miterlimit:10;stroke-dasharray:none;stroke-opacity:1"
             id="path156" /><g
             id="g158"
             transform="scale(4.16667)"><text
               transform="matrix(0,-1,-1,0,333,736.185)"
               style="font-variant:normal;font-weight:normal;font-size:14px;font-family:Menlo;-inkscape-font-specification:Menlo-Regular;writing-mode:lr-tb;fill:#afafaf;fill-opacity:1;fill-rule:nonzero;stroke:none"
               id="text162"><tspan
                 x="0 -8.42906 -16.857189 -25.286249"
                 y="0"
                 id="tspan160">Bd7-</tspan></text></g><path
             d="m 1412.5,2990.65 v 41.67"
             style="fill:none;stroke:#afafaf;stroke-width:4.16667;stroke-linecap:butt;stroke-linejoin:miter;stroke-miterlimit:10;stroke-dasharray:none;stroke-opacity:1"
             id="path164" /><g
             id="g166"
             transform="scale(4.16667)"><text
               transform="matrix(0,-1,-1,0,369.5,736.185)"
               style="font-variant:normal;font-weight:normal;font-size:14px;font-family:Menlo;-inkscape-font-specification:Menlo-Regular;writing-mode:lr-tb;fill:#afafaf;fill-opacity:1;fill-rule:nonzero;stroke:none"
               id="text170"><tspan
                 x="0 -8.42906 -16.857189"
                 y="0"
                 id="tspan168">Bd0</tspan></text></g><path
             d="m 1564.58,2990.65 v 41.67"
             style="fill:none;stroke:#afafaf;stroke-width:4.16667;stroke-linecap:butt;stroke-linejoin:miter;stroke-miterlimit:10;stroke-dasharray:none;stroke-opacity:1"
             id="path172" /><g
             id="g174"
             transform="scale(4.16667)"><text
               transform="matrix(0,-1,-1,0,406,736.185)"
               style="font-variant:normal;font-weight:normal;font-size:14px;font-family:Menlo;-inkscape-font-specification:Menlo-Regular;writing-mode:lr-tb;fill:#afafaf;fill-opacity:1;fill-rule:nonzero;stroke:none"
               id="text178"><tspan
                 x="0 -8.42906 -16.857189"
                 y="0"
                 id="tspan176">Bd7</tspan></text></g><path
             d="m 1716.67,2990.65 v 41.67"
             style="fill:none;stroke:#afafaf;stroke-width:4.16667;stroke-linecap:butt;stroke-linejoin:miter;stroke-miterlimit:10;stroke-dasharray:none;stroke-opacity:1"
             id="path180" /><g
             id="g182"
             transform="scale(4.16667)"><text
               transform="matrix(0,-1,-1,0,442.5,736.185)"
               style="font-variant:normal;font-weight:normal;font-size:14px;font-family:Menlo;-inkscape-font-specification:Menlo-Regular;writing-mode:lr-tb;fill:#afafaf;fill-opacity:1;fill-rule:nonzero;stroke:none"
               id="text186"><tspan
                 x="0 -8.42906 -16.857189 -25.286249"
                 y="0"
                 id="tspan184">Bd41</tspan></text></g><path
             d="m 1868.75,2990.65 v 41.67"
             style="fill:none;stroke:#afafaf;stroke-width:4.16667;stroke-linecap:butt;stroke-linejoin:miter;stroke-miterlimit:10;stroke-dasharray:none;stroke-opacity:1"
             id="path188" /><g
             id="g190"
             transform="scale(4.16667)"><text
               transform="matrix(0,-1,-1,0,479,736.185)"
               style="font-variant:normal;font-weight:normal;font-size:14px;font-family:Menlo;-inkscape-font-specification:Menlo-Regular;writing-mode:lr-tb;fill:#afafaf;fill-opacity:1;fill-rule:nonzero;stroke:none"
               id="text194"><tspan
                 x="0 -8.42906 -16.857189 -25.286249"
                 y="0"
                 id="tspan192">Bd12</tspan></text></g><path
             d="m 2020.83,2990.65 v 41.67"
             style="fill:none;stroke:#afafaf;stroke-width:4.16667;stroke-linecap:butt;stroke-linejoin:miter;stroke-miterlimit:10;stroke-dasharray:none;stroke-opacity:1"
             id="path196" /><path
             d="m 500,539.766 h 1520.83 v 2450.89 H 500 Z"
             style="fill:none;stroke:#afafaf;stroke-width:4.16667;stroke-linecap:butt;stroke-linejoin:miter;stroke-miterlimit:10;stroke-dasharray:none;stroke-opacity:1"
             id="path198" /><g
             id="g200"
             transform="scale(4.16667)"><text
               transform="matrix(0,-1,-1,0,489,453.257)"
               style="font-variant:normal;font-weight:normal;font-size:14px;font-family:Menlo;-inkscape-font-specification:Menlo-Regular;writing-mode:lr-tb;fill:#0eff00;fill-opacity:1;fill-rule:nonzero;stroke:none"
               id="text204"><tspan
                 x="0 8.4280005 16.855413 25.283415 33.710827 42.138828 50.56683"
                 y="0"
                 id="tspan202">V(vout)</tspan></text></g></g></g><g
         id="g206"><g
           id="g208"
           clip-path="url(#clipPath212)"><path
             d="m 531.281,2990.65 v 0 l 1.848,-1.16 1.848,-1.16 1.843,-1.16 1.844,-1.16 1.844,-1.17 1.847,-1.16 1.84,-1.16 1.844,-1.16 1.844,-1.16 1.84,-1.16 1.843,-1.16 1.84,-1.17 1.84,-1.16 1.84,-1.16 1.84,-1.16 1.836,-1.16 1.84,-1.16 1.836,-1.16 1.835,-1.17 1.836,-1.16 1.836,-1.16 1.836,-1.16 1.836,-1.16 1.832,-1.16 1.836,-1.17 1.832,-1.16 1.832,-1.16 1.832,-1.16 1.828,-1.16 1.832,-1.16 1.829,-1.17 1.828,-1.16 1.832,-1.16 1.824,-1.16 1.828,-1.16 1.828,-1.16 1.824,-1.16 1.825,-1.16 1.828,-1.16 1.82,-1.17 1.824,-1.16 1.824,-1.16 1.821,-1.16 1.824,-1.16 1.82,-1.16 1.821,-1.17 1.816,-1.16 1.82,-1.16 1.817,-1.16 1.82,-1.16 1.816,-1.16 1.813,-1.17 1.816,-1.16 1.817,-1.16 1.812,-1.16 1.813,-1.16 1.812,-1.16 1.813,-1.16 1.812,-1.16 1.809,-1.17 1.808,-1.16 1.809,-1.16 1.809,-1.16 1.808,-1.16 1.805,-1.16 1.809,-1.16 1.804,-1.17 1.805,-1.16 1.805,-1.16 1.8,-1.16 1.805,-1.16 1.801,-1.16 1.801,-1.17 1.8,-1.16 1.797,-1.16 1.801,-1.16 1.797,-1.16 1.797,-1.16 1.793,-1.17 1.797,-1.16 1.793,-1.16 1.797,-1.16 1.792,-1.16 1.79,-1.16 1.793,-1.16 1.789,-1.16 1.793,-1.16 1.785,-1.17 1.789,-1.16 1.789,-1.16 1.785,-1.16 1.785,-1.16 1.785,-1.17 1.785,-1.16 1.782,-1.16 1.785,-1.16 1.781,-1.16 1.777,-1.16 1.782,-1.17 1.777,-1.16 1.781,-1.16 1.778,-1.16 1.773,-1.16 1.777,-1.16 1.774,-1.16 1.773,-1.16 1.774,-1.16 1.773,-1.17 1.77,-1.16 1.769,-1.16 1.77,-1.16 1.769,-1.16 1.766,-1.16 1.766,-1.17 1.765,-1.16 1.766,-1.16 1.765,-1.16 1.762,-1.16 1.762,-1.16 1.762,-1.17 1.761,-1.16 1.758,-1.16 1.758,-1.16 1.758,-1.16 1.758,-1.16 1.753,-1.17 1.754,-1.16 1.754,-1.16 1.754,-1.16 1.75,-1.16 1.75,-1.16 1.75,-1.16 1.75,-1.16 1.746,-1.16 1.746,-1.17 1.746,-1.16 1.747,-1.16 1.746,-1.16 1.742,-1.16 1.742,-1.16 1.738,-1.17 1.742,-1.16 1.739,-1.16 1.738,-1.16 1.734,-1.16 1.739,-1.16 1.734,-1.17 1.734,-1.16 1.731,-1.16 1.734,-1.16 1.731,-1.16 1.73,-1.16 1.727,-1.16 1.73,-1.16 1.727,-1.16 1.726,-1.17 1.723,-1.16 1.723,-1.16 1.722,-1.16 1.723,-1.16 1.719,-1.16 1.719,-1.17 1.718,-1.16 1.719,-1.16 1.715,-1.16 1.715,-1.16 1.715,-1.17 1.714,-1.16 1.711,-1.16 1.711,-1.16 1.711,-1.16 1.707,-1.16 1.707,-1.17 1.707,-1.16 1.703,-1.16 1.707,-1.16 1.704,-1.16 1.699,-1.16 1.703,-1.16 1.699,-1.16 1.699,-1.16 1.696,-1.17 1.699,-1.16 1.695,-1.16 1.692,-1.16 1.695,-1.16 1.691,-1.16 1.692,-1.17 1.687,-1.16 1.692,-1.16 1.683,-1.16 1.688,-1.16 1.683,-1.16 1.684,-1.17 1.684,-1.16 1.683,-1.16 1.68,-1.16 1.679,-1.16 1.676,-1.16 1.68,-1.16 1.676,-1.16 1.672,-1.16 1.675,-1.17 1.672,-1.16 1.668,-1.16 1.672,-1.16 1.668,-1.16 1.668,-1.16 1.664,-1.17 1.664,-1.16 1.664,-1.16 1.664,-1.16 1.66,-1.16 1.661,-1.16 1.66,-1.17 1.656,-1.16 1.656,-1.16 1.657,-1.16 1.652,-1.16 1.656,-1.16 1.649,-1.17 1.652,-1.16 1.648,-1.16 1.649,-1.16 1.644,-1.16 1.645,-1.16 1.644,-1.16 1.645,-1.16 1.641,-1.16 1.64,-1.17 1.637,-1.16 1.64,-1.16 1.637,-1.16 1.633,-1.16 1.637,-1.16 1.629,-1.17 1.632,-1.16 1.629,-1.16 1.629,-1.16 1.629,-1.16 1.625,-1.16 1.625,-1.17 1.625,-1.16 1.621,-1.16 1.621,-1.16 1.621,-1.16 1.618,-1.16 1.617,-1.16 1.613,-1.16 1.617,-1.17 1.614,-1.16 1.609,-1.16 1.613,-1.16 1.61,-1.16 1.605,-1.16 1.606,-1.17 1.605,-1.16 1.605,-1.16 1.602,-1.16 1.602,-1.16 1.597,-1.16 1.602,-1.17 1.594,-1.16 1.597,-1.16 1.594,-1.16 1.594,-1.16 1.59,-1.16 1.589,-1.16 1.59,-1.17 1.589,-1.16 1.58,-1.16 1.59,-1.16 1.58,-1.16 1.58,-1.16 1.59,-1.16 1.57,-1.16 1.58,-1.17 1.58,-1.16 1.57,-1.16 1.57,-1.16 1.58,-1.16 1.57,-1.16 1.57,-1.17 1.57,-1.16 1.56,-1.16 1.56,-1.16 1.57,-1.16 1.56,-1.16 1.56,-1.17 1.56,-1.16 1.56,-1.16 1.55,-1.16 1.56,-1.16 1.55,-1.16 1.56,-1.16 1.54,-1.16 1.56,-1.16 1.54,-1.17 1.55,-1.16 1.54,-1.16 1.55,-1.16 1.54,-1.16 1.54,-1.16 1.54,-1.17 1.54,-1.16 1.53,-1.16 1.54,-1.16 1.53,-1.16 1.53,-1.16 1.53,-1.17 1.53,-1.16 1.52,-1.16 1.53,-1.16 1.52,-1.16 1.53,-1.16 1.52,-1.16 1.52,-1.17 1.51,-1.16 1.52,-1.16 1.51,-1.16 1.52,-1.16 1.51,-1.16 1.51,-1.16 1.51,-1.17 1.5,-1.16 1.51,-1.16 1.51,-1.16 1.5,-1.16 1.5,-1.16 1.5,-1.17 1.5,-1.16 1.49,-1.16 1.5,-1.16 1.49,-1.16 1.49,-1.16 1.49,-1.17 1.49,-1.16 1.49,-1.16 1.48,-1.16 1.49,-1.16 1.48,-1.16 1.48,-1.16 1.48,-1.16 1.47,-1.16 1.48,-1.17 1.47,-1.16 1.48,-1.16 1.47,-1.16 1.47,-1.16 1.47,-1.16 1.46,-1.17 1.47,-1.16 1.46,-1.16 1.46,-1.16 1.46,-1.16 1.46,-1.16 1.45,-1.17 1.46,-1.16 1.45,-1.16 1.45,-1.16 1.45,-1.16 1.45,-1.16 1.45,-1.16 1.44,-1.16 1.44,-1.17 1.44,-1.16 1.45,-1.16 1.43,-1.16 1.44,-1.16 1.43,-1.16 1.44,-1.16 1.43,-1.17 1.43,-1.16 1.43,-1.16 1.42,-1.16 1.43,-1.16 1.42,-1.16 1.42,-1.17 1.42,-1.16 1.42,-1.16 1.41,-1.16 1.42,-1.16 1.41,-1.16 1.41,-1.17 1.41,-1.16 1.41,-1.16 1.4,-1.16 1.41,-1.16 1.4,-1.16 1.4,-1.16 1.4,-1.16 1.4,-1.17 1.39,-1.16 1.4,-1.16 1.39,-1.16 1.39,-1.16 2.78,-2.33 2.76,-2.32 2.76,-2.32 2.76,-2.33 2.74,-2.32 2.74,-2.32 2.74,-2.32 2.72,-2.32 2.72,-2.33 2.71,-2.32 2.7,-2.32 2.7,-2.33 2.69,-2.32 2.68,-2.32 2.67,-2.33 2.67,-2.32 2.66,-2.32 2.65,-2.33 2.65,-2.32 2.63,-2.32 2.64,-2.32 2.62,-2.33 2.62,-2.32 2.6,-2.32 2.6,-2.33 2.6,-2.32 2.58,-2.32 2.58,-2.33 2.57,-2.32 2.56,-2.32 2.56,-2.32 2.54,-2.32 2.55,-2.33 2.53,-2.32 2.52,-2.32 2.52,-2.33 2.51,-2.32 2.5,-2.32 2.5,-2.33 2.48,-2.32 2.48,-2.32 2.48,-2.33 2.46,-2.32 2.46,-2.32 2.44,-2.32 2.45,-2.33 2.43,-2.32 2.43,-2.32 2.41,-2.33 2.42,-2.32 2.4,-2.32 2.39,-2.33 2.39,-2.32 2.38,-2.32 2.37,-2.32 2.37,-2.33 2.35,-2.32 2.36,-2.32 2.33,-2.33 2.34,-2.32 2.33,-2.32 2.32,-2.33 2.31,-2.32 2.3,-2.32 2.3,-2.33 2.28,-2.32 2.29,-2.32 2.27,-2.32 2.26,-2.32 2.26,-2.33 2.25,-2.32 2.24,-2.32 2.24,-2.33 2.23,-2.32 2.22,-2.32 2.21,-2.33 2.21,-2.32 2.2,-2.32 2.19,-2.32 2.18,-2.33 2.18,-2.32 2.17,-2.32 2.16,-2.33 2.15,-2.32 2.15,-2.32 2.14,-2.33 2.13,-2.32 2.13,-2.32 2.11,-2.33 2.11,-2.32 2.11,-2.32 2.1,-2.32 2.08,-2.33 2.09,-2.32 2.07,-2.32 2.07,-2.33 2.06,-2.32 2.06,-2.32 2.04,-2.33 2.04,-2.32 2.04,-2.32 2.03,-2.32 2.02,-2.32 2.01,-2.33 2,-2.32 2,-2.32 2,-2.33 1.98,-2.32 1.98,-2.32 1.97,-2.33 1.97,-2.32 1.96,-2.32 1.96,-2.33 1.94,-2.32"
             style="fill:none;stroke:#0eff00;stroke-width:4.16667;stroke-linecap:butt;stroke-linejoin:miter;stroke-miterlimit:1;stroke-dasharray:none;stroke-opacity:1"
             id="path214" /><path
             d="m 1456.65,2265.89 v 0 l 1.94,-2.32 1.94,-2.32 1.92,-2.33 1.93,-2.32 1.91,-2.32 1.91,-2.33 1.9,-2.32 1.9,-2.32 1.89,-2.33 1.88,-2.32 1.88,-2.32 1.87,-2.32 1.87,-2.33 1.86,-2.32 1.86,-2.32 1.84,-2.33 1.85,-2.32 1.83,-2.32 1.83,-2.33 1.83,-2.32 1.82,-2.32 1.81,-2.32 1.81,-2.33 1.81,-2.32 1.79,-2.32 1.79,-2.32 1.79,-2.33 1.78,-2.32 1.77,-2.32 1.77,-2.33 1.77,-2.32 1.76,-2.32 1.75,-2.33 1.75,-2.32 1.75,-2.32 1.74,-2.32 1.73,-2.33 1.73,-2.32 1.72,-2.32 1.72,-2.33 1.71,-2.32 1.71,-2.32 1.71,-2.33 1.7,-2.32 1.69,-2.32 1.69,-2.32 1.68,-2.33 1.68,-2.32 1.68,-2.32 1.67,-2.33 1.67,-2.32 1.66,-2.32 1.65,-2.33 1.66,-2.32 1.65,-2.32 1.64,-2.33 1.64,-2.32 1.64,-2.32 1.63,-2.32 1.63,-2.32 1.62,-2.33 1.62,-2.32 1.61,-2.32 1.61,-2.33 1.61,-2.32 1.6,-2.32 1.6,-2.33 1.59,-2.32 1.6,-2.32 1.58,-2.32 1.58,-2.33 1.58,-2.32 1.58,-2.32 1.57,-2.33 1.57,-2.32 1.56,-2.32 1.56,-2.33 1.56,-2.32 1.55,-2.32 1.55,-2.33 1.55,-2.32 1.54,-2.32 1.54,-2.32 1.53,-2.33 1.53,-2.32 1.53,-2.32 1.53,-2.33 1.52,-2.32 1.52,-2.32 1.51,-2.33 1.51,-2.32 1.51,-2.32 1.51,-2.32 1.5,-2.32 1.5,-2.33 1.5,-2.32 1.49,-2.32 1.49,-2.33 1.49,-2.32 1.48,-2.32 1.48,-2.33 1.47,-2.32 1.48,-2.32 1.47,-2.33 1.47,-2.32 1.47,-2.32 1.46,-2.32 1.46,-2.33 1.45,-2.32 1.46,-2.32 1.45,-2.33 1.45,-2.32 1.45,-2.32 1.44,-2.33 1.44,-2.32 1.44,-2.32 1.43,-2.32 1.44,-2.33 1.43,-2.32 1.42,-2.32 1.43,-2.33 1.42,-2.32 1.42,-2.32 1.42,-2.33 1.41,-2.32 1.41,-2.32 1.41,-2.32 1.41,-2.33 1.4,-2.32 1.4,-2.32 1.4,-2.32 1.4,-2.33 1.39,-2.32 1.39,-2.32 1.39,-2.33 1.39,-2.32 1.39,-2.32 1.38,-2.33 1.38,-2.32 1.38,-2.32 1.37,-2.32 1.37,-2.33 1.37,-2.32 1.37,-2.32 1.37,-2.33 1.36,-2.32 1.37,-2.32 1.36,-2.33 1.35,-2.32 1.36,-2.32 1.35,-2.32 1.35,-2.33 1.35,-2.32 1.34,-2.32 1.35,-2.33 1.34,-2.32 1.34,-2.32 1.33,-2.33 1.34,-2.32 1.33,-2.32 1.33,-2.33 1.33,-2.32 1.33,-2.32 1.32,-2.32 1.32,-2.32 1.32,-2.33 1.32,-2.32 1.31,-2.32 1.32,-2.33 1.31,-2.32 1.31,-2.32 1.3,-2.33 1.31,-2.32 1.3,-2.32 1.3,-2.32 1.3,-2.33 1.29,-2.32 1.3,-2.32 1.29,-2.33 1.29,-2.32 1.29,-2.32 1.28,-2.33 1.28,-2.32 1.28,-2.32 1.28,-2.33 1.28,-2.32 1.27,-2.32 1.27,-2.32 1.27,-2.32 1.27,-2.33 1.27,-2.32 1.26,-2.32 1.26,-2.33 1.26,-2.32 1.26,-2.33 1.25,-2.32 1.25,-2.32 1.25,-2.32 1.25,-2.32 1.25,-2.33 1.24,-2.32 1.24,-2.32 1.23,-2.33 1.24,-2.32 1.24,-2.32 1.23,-2.33 1.23,-2.32 1.22,-2.32 1.23,-2.33 1.22,-2.32 1.22,-2.32 1.22,-2.32 1.21,-2.33 1.22,-2.32 1.21,-2.32 1.2,-2.33 1.21,-2.32 1.2,-2.32 1.2,-2.33 1.2,-2.32 1.2,-2.32 1.19,-2.32 1.2,-2.32 1.18,-2.33 1.19,-2.32 1.18,-2.32 1.18,-2.33 1.18,-2.32 1.18,-2.32 1.17,-2.33 1.17,-2.32 1.17,-2.33 1.16,-2.32 1.17,-2.32 1.16,-2.32 1.16,-2.32 1.15,-2.33 1.15,-2.32 1.15,-2.32 1.15,-2.33 1.14,-2.32 1.14,-2.32 1.14,-2.33 1.14,-2.32 1.12,-2.32 1.14,-2.32 1.12,-2.33 1.13,-2.32 1.12,-2.32 1.12,-2.33 1.11,-2.32 1.11,-2.32 1.11,-2.33 1.11,-2.32 1.1,-2.32 1.1,-2.33 1.1,-2.32 1.09,-2.32 1.09,-2.32 1.09,-2.32 1.08,-2.33 1.09,-2.32 1.07,-2.32 1.08,-2.33 1.07,-2.32 1.07,-2.33 1.06,-2.32 1.07,-2.32 1.06,-2.32 1.05,-2.32 1.05,-2.33 1.05,-2.32 1.04,-2.32 1.05,-2.33 1.04,-2.32 1.03,-2.32 1.03,-2.33 1.03,-2.32 1.02,-2.32 1.02,-2.33 1.02,-2.32 1.01,-2.32 1.02,-2.32 1,-2.33 1,-2.32 1,-2.32 1,-2.33 0.99,-2.32 0.99,-2.32 0.98,-2.33 0.98,-2.32 0.97,-2.32 0.98,-2.32 0.97,-2.32 0.96,-2.33 0.96,-2.32 0.96,-2.32 0.95,-2.33 0.95,-2.32 0.94,-2.32 0.94,-2.33 0.94,-2.32 0.94,-2.32 0.92,-2.33 0.93,-2.32 0.92,-2.32 0.91,-2.32 0.91,-2.33 0.91,-2.32 0.91,-2.32 0.89,-2.33 0.9,-2.32 0.89,-2.32 0.89,-2.33 0.88,-2.32 0.88,-2.32 0.87,-2.32 0.87,-2.33 0.86,-2.32 0.86,-2.32 0.86,-2.33 0.85,-2.32 0.84,-2.32 0.85,-2.33 0.83,-2.32 0.84,-2.32 0.83,-2.32 0.82,-2.33 0.82,-2.32 0.81,-2.32 0.81,-2.32 0.81,-2.33 0.8,-2.32 0.79,-2.32 0.79,-2.33 0.79,-2.32 0.78,-2.32 0.78,-2.33 0.77,-2.32 0.77,-2.32 0.76,-2.32 0.76,-2.33 0.75,-2.32 0.75,-2.32 0.74,-2.33 0.74,-2.32 0.73,-2.32 0.74,-2.33 0.72,-2.32 0.72,-2.32 0.71,-2.32 0.71,-2.33 0.7,-2.32 0.7,-2.32 0.7,-2.33 0.68,-2.32 0.69,-2.32 0.68,-2.33 0.67,-2.32 0.67,-2.32 0.66,-2.33 0.66,-2.32 0.66,-2.32 0.65,-2.32 0.64,-2.32 0.64,-2.33 0.63,-2.32 0.63,-2.32 0.62,-2.33 0.62,-2.32 0.62,-2.32 0.6,-2.33 0.61,-2.32 0.6,-2.32 0.59,-2.32 0.59,-2.33 0.58,-2.32 0.58,-2.32 0.57,-2.33 0.57,-2.32 0.56,-2.32 0.56,-2.33 0.55,-2.32 0.55,-2.32 0.54,-2.33 0.53,-2.32 0.54,-2.32 0.52,-2.32 0.52,-2.33 0.52,-2.32 0.51,-2.32 0.51,-2.33 0.5,-2.32 0.49,-2.32 0.5,-2.33 0.48,-2.32 0.48,-2.32 0.48,-2.32 0.47,-2.32 0.46,-2.33 0.46,-2.32 0.45,-2.32 0.46,-2.33 0.44,-2.32 0.44,-2.32 0.43,-2.33 0.44,-2.32 0.42,-2.32 0.42,-2.33 0.42,-2.32 0.41,-2.32 0.4,-2.32 0.4,-2.33 0.39,-2.32 0.39,-2.32 0.39,-2.33 0.38,-2.32 0.37,-2.32 0.37,-2.33 0.37,-2.32 0.36,-2.32 0.35,-2.32 0.35,-2.33 0.35,-2.32 0.34,-2.32 0.33,-2.33 0.33,-2.32 0.33,-2.32 0.32,-2.33 0.32,-2.32 0.3,-2.32 0.31,-2.32 0.3,-2.33 0.3,-2.32 0.29,-2.32 0.28,-2.32 0.29,-2.33 0.27,-2.32 0.28,-2.32 0.27,-2.33 0.26,-2.32 0.26,-2.32 0.25,-2.33 0.25,-2.32 0.24,-2.32 0.24,-2.32 0.23,-2.33 0.23,-2.32 0.23,-2.32 0.22,-2.33 0.22,-2.32 0.21,-2.32 0.2,-2.33 0.2,-2.32 0.2,-2.32 0.19,-2.32 0.19,-2.33 0.18,-2.32 0.18,-2.32 0.18,-2.33 0.17,-2.32 0.16,-2.32 0.16,-2.33 0.16,-2.32 0.15,-2.32 0.14,-2.33 0.15,-2.32 0.13,-2.32 0.13,-2.32 0.13,-2.32 0.13,-2.33 0.12,-2.32 0.11,-2.32 0.11,-2.33 0.11,-2.32 0.1,-2.32 0.09,-2.33 0.1,-2.32 0.08,-2.32 0.09,-2.32 0.08,-2.33 0.07,-2.32 0.07,-2.32 0.07,-2.33 0.06,-2.32 0.06,-2.32 0.05,-2.33 0.04,-2.32 0.05,-2.32 0.03,-2.33 0.04,-2.32 0.03,-2.32 0.02,-2.32 0.02,-2.32 0.02,-2.33 0.02,-2.32 v -2.33 l 0.01,-2.32 -0.01,-2.32 v -2.33 l -0.01,-2.32 -0.02,-2.32 -0.01,-2.32 -0.03,-2.32 -0.02,-2.33 -0.04,-2.32 -0.03,-2.32 -0.05,-2.33 -0.04,-2.32 -0.05,-2.32"
             style="fill:none;stroke:#0eff00;stroke-width:4.16667;stroke-linecap:butt;stroke-linejoin:miter;stroke-miterlimit:1;stroke-dasharray:none;stroke-opacity:1"
             id="path216" /><path
             d="m 1964.56,1081.19 v 0 l -0.06,-2.33 -0.05,-2.32 -0.07,-2.32 -0.07,-2.33 -0.07,-2.32 -0.08,-2.32 -0.08,-2.32 -0.08,-2.33 -0.09,-2.32 -0.1,-2.32 -0.1,-2.33 -0.1,-2.32 -0.11,-2.32 -0.11,-2.33 -0.12,-2.32 -0.12,-2.32 -0.13,-2.32 -0.13,-2.32 -0.13,-2.33 -0.14,-2.32 -0.15,-2.33 -0.15,-2.32 -0.15,-2.32 -0.15,-2.33 -0.17,-2.32 -0.17,-2.32 -0.17,-2.33 -0.17,-2.32 -0.18,-2.32 -0.19,-2.32 -0.19,-2.32 -0.19,-2.33 -0.2,-2.32 -0.21,-2.32 -0.21,-2.327 -0.21,-2.324 -0.22,-2.321 -0.22,-2.324 -0.23,-2.324 -0.23,-2.32 -0.24,-2.325 -0.24,-2.324 -0.24,-2.32 -0.26,-2.324 -0.25,-2.325 -0.26,-2.32 -0.26,-2.324 -0.27,-2.324 -0.28,-2.321 -0.28,-2.324 -0.28,-2.324 -0.29,-2.32 -0.3,-2.325 -0.3,-2.324 -0.3,-2.32 -0.31,-2.324 -0.31,-2.325 -0.32,-2.324 -0.32,-2.32 -0.33,-2.324 -0.33,-2.325 -0.34,-2.32 -0.34,-2.324 -0.35,-2.324 -0.35,-2.321 -0.36,-2.324 -0.36,-2.324 -0.36,-2.32 -0.38,-2.325 -0.37,-2.324 -0.39,-2.32 -0.38,-2.324 -0.39,-2.325 -0.4,-2.32 -0.4,-2.324 -0.41,-2.324 -0.41,-2.321 -0.42,-2.324 -0.42,-2.324 -0.42,-2.32 -0.44,-2.325 -0.43,-2.324 -0.45,-2.32 -0.44,-2.324 -0.45,-2.325 -0.46,-2.32 -0.46,-2.324 -0.47,-2.324 -0.47,-2.321 -0.48,-2.324 -0.48,-2.324 -0.48,-2.32 -0.5,-2.325 -0.5,-2.324 -0.5,-2.324 -0.5,-2.32 -0.52,-2.325 -0.52,-2.324 -0.52,-2.32 -0.53,-2.324 -0.53,-2.325 -0.54,-2.32 -0.54,-2.324 -0.55,-2.324 -0.55,-2.321 -0.56,-2.324 -0.56,-2.324 -0.57,-2.32 -0.57,-2.325 -0.58,-2.324 -0.59,-2.32 -0.58,-2.324 -0.6,-2.325 -0.6,-2.32 -0.6,-2.324 -0.61,-2.324 -0.61,-2.321 -0.62,-2.324 -0.63,-2.324 -0.62,-2.32 -0.64,-2.325 -0.64,-2.324 -0.64,-2.32 -0.65,-2.324 -0.66,-2.325 -0.65,-2.32 -0.67,-2.324 -0.67,-2.324 -0.67,-2.321 -0.68,-2.324 -0.68,-2.324 -0.69,-2.32 -0.7,-2.325 -0.69,-2.324 -0.71,-2.324 -0.71,-2.32 -0.71,-2.325 -0.72,-2.324 -0.72,-2.32 -0.73,-2.324 -0.73,-2.325 -0.74,-2.32 -0.74,-2.324 -0.75,-2.324 -0.75,-2.321 -0.75,-2.324 -0.77,-2.324 -0.76,-2.32 -0.77,-2.325 -0.77,-2.324 -0.79,-2.32 -0.78,-2.324 -0.79,-2.325 -0.79,-2.32 -0.8,-2.324 -0.8,-2.324 -0.81,-2.321 -0.81,-2.324 -0.82,-2.324 -0.82,-2.32 -0.83,-2.325 -0.82,-2.324 -0.84,-2.32 -0.84,-2.324 -0.84,-2.325 -0.85,-2.324 -0.85,-2.32 -0.86,-2.324 -0.86,-2.321 -0.87,-2.324 -0.86,-2.324 -0.88,-2.324 -0.87,-2.321 -0.89,-2.324 -0.88,-2.324 -0.89,-2.32 -0.9,-2.325 -0.9,-2.324 -0.9,-2.32 -0.9,-2.324 -0.91,-2.325 -0.92,-2.32 -0.92,-2.324 -0.92,-2.324 -0.93,-2.321 -0.93,-2.324 -0.94,-2.324 -0.93,-2.32 -0.94,-2.325 -0.95,-2.324 -0.95,-2.32 -0.96,-2.324 -0.95,-2.325 -0.96,-2.32 -0.97,-2.324 -0.97,-2.324 -0.97,-2.321 -0.98,-2.324 -0.97,-2.324 -0.99,-2.32 -0.99,-2.325 -0.98,-2.324 -1,-2.32 -1,-2.324 -1,-2.325 -1,-2.32 -1.01,-2.324 -1.01,-2.324 -1.02,-2.321 -1.01,-2.324 -1.02,-2.324 -1.03,-2.324 -1.02,-2.321 -1.04,-2.324 -1.03,-2.324 -1.04,-2.32 -1.04,-2.325 -1.04,-2.324 -1.05,-2.32 -1.05,-2.324 -1.05,-2.324 -1.06,-2.321 -1.05,-2.324 -1.07,-2.324 -1.06,-2.321 -1.07,-2.324 -1.07,-2.324 -1.07,-2.32 -1.08,-2.325 -1.08,-2.324 -1.08,-2.32 -1.09,-2.324 -1.09,-2.324"
             style="fill:none;stroke:#0eff00;stroke-width:4.16667;stroke-linecap:butt;stroke-linejoin:miter;stroke-miterlimit:1;stroke-dasharray:none;stroke-opacity:1"
             id="path218" /></g></g></g></g></svg>
