<?xml version="1.0" encoding="UTF-8" standalone="no"?>
<svg
   xmlns:dc="http://purl.org/dc/elements/1.1/"
   xmlns:cc="http://creativecommons.org/ns#"
   xmlns:rdf="http://www.w3.org/1999/02/22-rdf-syntax-ns#"
   xmlns:svg="http://www.w3.org/2000/svg"
   xmlns="http://www.w3.org/2000/svg"
   version="1.1"
   id="svg922"
   xml:space="preserve"
   width="604.84106"
   height="361.33768"
   viewBox="0 0 907.26158 542.00654"><metadata
     id="metadata928"><rdf:RDF><cc:Work
         rdf:about=""><dc:format>image/svg+xml</dc:format><dc:type
           rdf:resource="http://purl.org/dc/dcmitype/StillImage" /><dc:title></dc:title></cc:Work></rdf:RDF></metadata><defs
     id="defs926"><clipPath
       clipPathUnits="userSpaceOnUse"
       id="clipPath940"><path
         d="m 375,299.582 h 1729.17 v 2908.34 H 375 Z"
         id="path938" /></clipPath><clipPath
       clipPathUnits="userSpaceOnUse"
       id="clipPath1120"><path
         d="m 500,370.418 h 1520.83 v 2620.83 H 500 Z"
         id="path1118" /></clipPath></defs><g
     id="g930"
     transform="matrix(0,-1.3333333,-1.3333333,0,1025.6049,667.07604)"><g
       id="g932"
       transform="scale(0.24)"><g
         id="g934"><g
           id="g936"
           clip-path="url(#clipPath940)"><path
             d="M 500,2990.65 H 458.332"
             style="fill:none;stroke:#afafaf;stroke-width:4.16667;stroke-linecap:butt;stroke-linejoin:miter;stroke-miterlimit:10;stroke-dasharray:none;stroke-opacity:1"
             id="path942" /><g
             id="g944"
             transform="scale(4.16667)"><text
               transform="matrix(0,-1,-1,0,94.0003,730.4)"
               style="font-variant:normal;font-weight:normal;font-size:14px;font-family:Menlo;-inkscape-font-specification:Menlo-Regular;writing-mode:lr-tb;fill:#afafaf;fill-opacity:1;fill-rule:nonzero;stroke:none"
               id="text948"><tspan
                 x="0 8.4280005 16.855413"
                 y="0"
                 id="tspan946">0ms</tspan></text></g><path
             d="M 500,2728.78 H 458.332"
             style="fill:none;stroke:#afafaf;stroke-width:4.16667;stroke-linecap:butt;stroke-linejoin:miter;stroke-miterlimit:10;stroke-dasharray:none;stroke-opacity:1"
             id="path950" /><g
             id="g952"
             transform="scale(4.16667)"><text
               transform="matrix(0,-1,-1,0,94.0003,667.55)"
               style="font-variant:normal;font-weight:normal;font-size:14px;font-family:Menlo;-inkscape-font-specification:Menlo-Regular;writing-mode:lr-tb;fill:#afafaf;fill-opacity:1;fill-rule:nonzero;stroke:none"
               id="text956"><tspan
                 x="0 8.4280005 16.855413"
                 y="0"
                 id="tspan954">1ms</tspan></text></g><path
             d="M 500,2466.9 H 458.332"
             style="fill:none;stroke:#afafaf;stroke-width:4.16667;stroke-linecap:butt;stroke-linejoin:miter;stroke-miterlimit:10;stroke-dasharray:none;stroke-opacity:1"
             id="path958" /><g
             id="g960"
             transform="scale(4.16667)"><text
               transform="matrix(0,-1,-1,0,94.0003,604.7)"
               style="font-variant:normal;font-weight:normal;font-size:14px;font-family:Menlo;-inkscape-font-specification:Menlo-Regular;writing-mode:lr-tb;fill:#afafaf;fill-opacity:1;fill-rule:nonzero;stroke:none"
               id="text964"><tspan
                 x="0 8.4280005 16.855413"
                 y="0"
                 id="tspan962">2ms</tspan></text></g><path
             d="M 500,2205.03 H 458.332"
             style="fill:none;stroke:#afafaf;stroke-width:4.16667;stroke-linecap:butt;stroke-linejoin:miter;stroke-miterlimit:10;stroke-dasharray:none;stroke-opacity:1"
             id="path966" /><g
             id="g968"
             transform="scale(4.16667)"><text
               transform="matrix(0,-1,-1,0,94.0003,541.85)"
               style="font-variant:normal;font-weight:normal;font-size:14px;font-family:Menlo;-inkscape-font-specification:Menlo-Regular;writing-mode:lr-tb;fill:#afafaf;fill-opacity:1;fill-rule:nonzero;stroke:none"
               id="text972"><tspan
                 x="0 8.4274139 16.855413"
                 y="0"
                 id="tspan970">3ms</tspan></text></g><path
             d="M 500,1943.15 H 458.332"
             style="fill:none;stroke:#afafaf;stroke-width:4.16667;stroke-linecap:butt;stroke-linejoin:miter;stroke-miterlimit:10;stroke-dasharray:none;stroke-opacity:1"
             id="path974" /><g
             id="g976"
             transform="scale(4.16667)"><text
               transform="matrix(0,-1,-1,0,94.0003,479)"
               style="font-variant:normal;font-weight:normal;font-size:14px;font-family:Menlo;-inkscape-font-specification:Menlo-Regular;writing-mode:lr-tb;fill:#afafaf;fill-opacity:1;fill-rule:nonzero;stroke:none"
               id="text980"><tspan
                 x="0 8.4274139 16.855413"
                 y="0"
                 id="tspan978">4ms</tspan></text></g><path
             d="M 500,1681.28 H 458.332"
             style="fill:none;stroke:#afafaf;stroke-width:4.16667;stroke-linecap:butt;stroke-linejoin:miter;stroke-miterlimit:10;stroke-dasharray:none;stroke-opacity:1"
             id="path982" /><g
             id="g984"
             transform="scale(4.16667)"><text
               transform="matrix(0,-1,-1,0,94.0003,416.15)"
               style="font-variant:normal;font-weight:normal;font-size:14px;font-family:Menlo;-inkscape-font-specification:Menlo-Regular;writing-mode:lr-tb;fill:#afafaf;fill-opacity:1;fill-rule:nonzero;stroke:none"
               id="text988"><tspan
                 x="0 8.4274139 16.855413"
                 y="0"
                 id="tspan986">5ms</tspan></text></g><path
             d="M 500,1419.41 H 458.332"
             style="fill:none;stroke:#afafaf;stroke-width:4.16667;stroke-linecap:butt;stroke-linejoin:miter;stroke-miterlimit:10;stroke-dasharray:none;stroke-opacity:1"
             id="path990" /><g
             id="g992"
             transform="scale(4.16667)"><text
               transform="matrix(0,-1,-1,0,94.0003,353.3)"
               style="font-variant:normal;font-weight:normal;font-size:14px;font-family:Menlo;-inkscape-font-specification:Menlo-Regular;writing-mode:lr-tb;fill:#afafaf;fill-opacity:1;fill-rule:nonzero;stroke:none"
               id="text996"><tspan
                 x="0 8.4274139 16.855413"
                 y="0"
                 id="tspan994">6ms</tspan></text></g><path
             d="M 500,1157.53 H 458.332"
             style="fill:none;stroke:#afafaf;stroke-width:4.16667;stroke-linecap:butt;stroke-linejoin:miter;stroke-miterlimit:10;stroke-dasharray:none;stroke-opacity:1"
             id="path998" /><g
             id="g1000"
             transform="scale(4.16667)"><text
               transform="matrix(0,-1,-1,0,94.0003,290.451)"
               style="font-variant:normal;font-weight:normal;font-size:14px;font-family:Menlo;-inkscape-font-specification:Menlo-Regular;writing-mode:lr-tb;fill:#afafaf;fill-opacity:1;fill-rule:nonzero;stroke:none"
               id="text1004"><tspan
                 x="0 8.4280005 16.856001"
                 y="0"
                 id="tspan1002">7ms</tspan></text></g><path
             d="M 500,895.656 H 458.332"
             style="fill:none;stroke:#afafaf;stroke-width:4.16667;stroke-linecap:butt;stroke-linejoin:miter;stroke-miterlimit:10;stroke-dasharray:none;stroke-opacity:1"
             id="path1006" /><g
             id="g1008"
             transform="scale(4.16667)"><text
               transform="matrix(0,-1,-1,0,94.0003,227.601)"
               style="font-variant:normal;font-weight:normal;font-size:14px;font-family:Menlo;-inkscape-font-specification:Menlo-Regular;writing-mode:lr-tb;fill:#afafaf;fill-opacity:1;fill-rule:nonzero;stroke:none"
               id="text1012"><tspan
                 x="0 8.4280005 16.856001"
                 y="0"
                 id="tspan1010">8ms</tspan></text></g><path
             d="M 500,633.781 H 458.332"
             style="fill:none;stroke:#afafaf;stroke-width:4.16667;stroke-linecap:butt;stroke-linejoin:miter;stroke-miterlimit:10;stroke-dasharray:none;stroke-opacity:1"
             id="path1014" /><g
             id="g1016"
             transform="scale(4.16667)"><text
               transform="matrix(0,-1,-1,0,94.0003,164.751)"
               style="font-variant:normal;font-weight:normal;font-size:14px;font-family:Menlo;-inkscape-font-specification:Menlo-Regular;writing-mode:lr-tb;fill:#afafaf;fill-opacity:1;fill-rule:nonzero;stroke:none"
               id="text1022"><tspan
                 x="0 8.4280005 16.855413"
                 y="0"
                 id="tspan1018">9ms</tspan><tspan
                 x="-571.43402 -579.86304 -588.2912 -596.72028 -605.14929"
                 y="-20"
                 id="tspan1020">V5.2-</tspan></text></g><path
             d="m 500,2990.65 v 41.67"
             style="fill:none;stroke:#afafaf;stroke-width:4.16667;stroke-linecap:butt;stroke-linejoin:miter;stroke-miterlimit:10;stroke-dasharray:none;stroke-opacity:1"
             id="path1024" /><g
             id="g1026"
             transform="scale(4.16667)"><text
               transform="matrix(0,-1,-1,0,150.5,736.185)"
               style="font-variant:normal;font-weight:normal;font-size:14px;font-family:Menlo;-inkscape-font-specification:Menlo-Regular;writing-mode:lr-tb;fill:#afafaf;fill-opacity:1;fill-rule:nonzero;stroke:none"
               id="text1030"><tspan
                 x="0 -8.42906 -16.857189 -25.286249 -33.715309"
                 y="0"
                 id="tspan1028">V0.2-</tspan></text></g><path
             d="m 652.082,2990.65 v 41.67"
             style="fill:none;stroke:#afafaf;stroke-width:4.16667;stroke-linecap:butt;stroke-linejoin:miter;stroke-miterlimit:10;stroke-dasharray:none;stroke-opacity:1"
             id="path1032" /><g
             id="g1034"
             transform="scale(4.16667)"><text
               transform="matrix(0,-1,-1,0,187,736.185)"
               style="font-variant:normal;font-weight:normal;font-size:14px;font-family:Menlo;-inkscape-font-specification:Menlo-Regular;writing-mode:lr-tb;fill:#afafaf;fill-opacity:1;fill-rule:nonzero;stroke:none"
               id="text1038"><tspan
                 x="0 -8.42906 -16.857189 -25.286249 -33.715309"
                 y="0"
                 id="tspan1036">V5.1-</tspan></text></g><path
             d="m 804.168,2990.65 v 41.67"
             style="fill:none;stroke:#afafaf;stroke-width:4.16667;stroke-linecap:butt;stroke-linejoin:miter;stroke-miterlimit:10;stroke-dasharray:none;stroke-opacity:1"
             id="path1040" /><g
             id="g1042"
             transform="scale(4.16667)"><text
               transform="matrix(0,-1,-1,0,223.5,736.185)"
               style="font-variant:normal;font-weight:normal;font-size:14px;font-family:Menlo;-inkscape-font-specification:Menlo-Regular;writing-mode:lr-tb;fill:#afafaf;fill-opacity:1;fill-rule:nonzero;stroke:none"
               id="text1046"><tspan
                 x="0 -8.42906 -16.857189 -25.286249 -33.715309"
                 y="0"
                 id="tspan1044">V0.1-</tspan></text></g><path
             d="m 956.25,2990.65 v 41.67"
             style="fill:none;stroke:#afafaf;stroke-width:4.16667;stroke-linecap:butt;stroke-linejoin:miter;stroke-miterlimit:10;stroke-dasharray:none;stroke-opacity:1"
             id="path1048" /><g
             id="g1050"
             transform="scale(4.16667)"><text
               transform="matrix(0,-1,-1,0,260,736.185)"
               style="font-variant:normal;font-weight:normal;font-size:14px;font-family:Menlo;-inkscape-font-specification:Menlo-Regular;writing-mode:lr-tb;fill:#afafaf;fill-opacity:1;fill-rule:nonzero;stroke:none"
               id="text1054"><tspan
                 x="0 -8.42906 -16.857189 -25.286249 -33.715309"
                 y="0"
                 id="tspan1052">V5.0-</tspan></text></g><path
             d="m 1108.33,2990.65 v 41.67"
             style="fill:none;stroke:#afafaf;stroke-width:4.16667;stroke-linecap:butt;stroke-linejoin:miter;stroke-miterlimit:10;stroke-dasharray:none;stroke-opacity:1"
             id="path1056" /><g
             id="g1058"
             transform="scale(4.16667)"><text
               transform="matrix(0,-1,-1,0,296.5,736.185)"
               style="font-variant:normal;font-weight:normal;font-size:14px;font-family:Menlo;-inkscape-font-specification:Menlo-Regular;writing-mode:lr-tb;fill:#afafaf;fill-opacity:1;fill-rule:nonzero;stroke:none"
               id="text1062"><tspan
                 x="0 -8.42906 -16.857189 -25.286249"
                 y="0"
                 id="tspan1060">V0.0</tspan></text></g><path
             d="m 1260.42,2990.65 v 41.67"
             style="fill:none;stroke:#afafaf;stroke-width:4.16667;stroke-linecap:butt;stroke-linejoin:miter;stroke-miterlimit:10;stroke-dasharray:none;stroke-opacity:1"
             id="path1064" /><g
             id="g1066"
             transform="scale(4.16667)"><text
               transform="matrix(0,-1,-1,0,333,736.185)"
               style="font-variant:normal;font-weight:normal;font-size:14px;font-family:Menlo;-inkscape-font-specification:Menlo-Regular;writing-mode:lr-tb;fill:#afafaf;fill-opacity:1;fill-rule:nonzero;stroke:none"
               id="text1070"><tspan
                 x="0 -8.42906 -16.857189 -25.286249"
                 y="0"
                 id="tspan1068">V5.0</tspan></text></g><path
             d="m 1412.5,2990.65 v 41.67"
             style="fill:none;stroke:#afafaf;stroke-width:4.16667;stroke-linecap:butt;stroke-linejoin:miter;stroke-miterlimit:10;stroke-dasharray:none;stroke-opacity:1"
             id="path1072" /><g
             id="g1074"
             transform="scale(4.16667)"><text
               transform="matrix(0,-1,-1,0,369.5,736.185)"
               style="font-variant:normal;font-weight:normal;font-size:14px;font-family:Menlo;-inkscape-font-specification:Menlo-Regular;writing-mode:lr-tb;fill:#afafaf;fill-opacity:1;fill-rule:nonzero;stroke:none"
               id="text1078"><tspan
                 x="0 -8.42906 -16.857189 -25.286249"
                 y="0"
                 id="tspan1076">V0.1</tspan></text></g><path
             d="m 1564.58,2990.65 v 41.67"
             style="fill:none;stroke:#afafaf;stroke-width:4.16667;stroke-linecap:butt;stroke-linejoin:miter;stroke-miterlimit:10;stroke-dasharray:none;stroke-opacity:1"
             id="path1080" /><g
             id="g1082"
             transform="scale(4.16667)"><text
               transform="matrix(0,-1,-1,0,406,736.185)"
               style="font-variant:normal;font-weight:normal;font-size:14px;font-family:Menlo;-inkscape-font-specification:Menlo-Regular;writing-mode:lr-tb;fill:#afafaf;fill-opacity:1;fill-rule:nonzero;stroke:none"
               id="text1086"><tspan
                 x="0 -8.42906 -16.857189 -25.286249"
                 y="0"
                 id="tspan1084">V5.1</tspan></text></g><path
             d="m 1716.67,2990.65 v 41.67"
             style="fill:none;stroke:#afafaf;stroke-width:4.16667;stroke-linecap:butt;stroke-linejoin:miter;stroke-miterlimit:10;stroke-dasharray:none;stroke-opacity:1"
             id="path1088" /><g
             id="g1090"
             transform="scale(4.16667)"><text
               transform="matrix(0,-1,-1,0,442.5,736.185)"
               style="font-variant:normal;font-weight:normal;font-size:14px;font-family:Menlo;-inkscape-font-specification:Menlo-Regular;writing-mode:lr-tb;fill:#afafaf;fill-opacity:1;fill-rule:nonzero;stroke:none"
               id="text1094"><tspan
                 x="0 -8.42906 -16.857189 -25.286249"
                 y="0"
                 id="tspan1092">V0.2</tspan></text></g><path
             d="m 1868.75,2990.65 v 41.67"
             style="fill:none;stroke:#afafaf;stroke-width:4.16667;stroke-linecap:butt;stroke-linejoin:miter;stroke-miterlimit:10;stroke-dasharray:none;stroke-opacity:1"
             id="path1096" /><g
             id="g1098"
             transform="scale(4.16667)"><text
               transform="matrix(0,-1,-1,0,479,736.185)"
               style="font-variant:normal;font-weight:normal;font-size:14px;font-family:Menlo;-inkscape-font-specification:Menlo-Regular;writing-mode:lr-tb;fill:#afafaf;fill-opacity:1;fill-rule:nonzero;stroke:none"
               id="text1102"><tspan
                 x="0 -8.42906 -16.857189 -25.286249"
                 y="0"
                 id="tspan1100">V5.2</tspan></text></g><path
             d="m 2020.83,2990.65 v 41.67"
             style="fill:none;stroke:#afafaf;stroke-width:4.16667;stroke-linecap:butt;stroke-linejoin:miter;stroke-miterlimit:10;stroke-dasharray:none;stroke-opacity:1"
             id="path1104" /><path
             d="m 500,371.906 h 1520.83 v 2618.75 H 500 Z"
             style="fill:none;stroke:#afafaf;stroke-width:4.16667;stroke-linecap:butt;stroke-linejoin:miter;stroke-miterlimit:10;stroke-dasharray:none;stroke-opacity:1"
             id="path1106" /><g
             id="g1108"
             transform="scale(4.16667)"><text
               transform="matrix(0,-1,-1,0,489,433.257)"
               style="font-variant:normal;font-weight:normal;font-size:14px;font-family:Menlo;-inkscape-font-specification:Menlo-Regular;writing-mode:lr-tb;fill:#0eff00;fill-opacity:1;fill-rule:nonzero;stroke:none"
               id="text1112"><tspan
                 x="0 8.4280005 16.855413 25.283415 33.711414 42.138828 50.56683"
                 y="0"
                 id="tspan1110">V(vout)</tspan></text></g></g></g><g
         id="g1114"><g
           id="g1116"
           clip-path="url(#clipPath1120)"><path
             d="m 1363.76,2990.65 v 0 l 17.28,-4.6 24.34,-6.14 44.05,-10.47 46.93,-10.48 49.65,-10.48 51.55,-10.47 52.35,-10.47 51.79,-10.48 49.68,-10.47 45.89,-10.48 40.3,-10.47 33.21,-10.48 25.14,-10.47 15.97,-10.48 5.99,-10.48 -4.1,-10.1 -14.3,-10.47 -23.79,-10.48 -32.18,-10.48 -39.2,-10.47 -45,-10.48 -49.22,-10.47 -51.64,-10.48 -52.45,-10.47 -51.88,-10.47 -50.15,-10.48 -47.56,-10.47 -44.38,-10.48 -40.85,-10.48 -37.18,-10.47 -33.48,-10.48 -29.88,-10.47 -26.17,-10.48 -21.55,-10.47 -15.42,-10.47 -9.31,-10.48 -5.28,-10.47 -3.25,-10.48 -2.18,-10.47 -1.48,-10.48 -0.97,-10.48 -0.6,-10.47 -0.25,-10.48 0.05,-10.47 0.36,-10.47 0.71,-10.48 1.1,-10.47 1.6,-10.48 2.34,-10.47 3.5,-10.48 5.61,-10.48 9.56,-10.47 15.4,-10.48 21.33,-10.47 25.93,-10.47 29.65,-10.48 33.28,-10.47 36.97,-10.48 40.66,-10.47 44.2,-10.48 47.41,-10.48 50.02,-10.47 51.77,-10.48 52.4,-10.47 51.62,-10.47 49.27,-10.48 45.23,-10.47 39.4,-10.48 32.11,-10.47 23.85,-10.48 14.86,-10.48 4.51,-9.14 -4.49,-9.98 -14.42,-10.47 -23.87,-10.48 -32.26,-10.47 -39.27,-10.48 -45.07,-10.47 -49.29,-10.47 -51.69,-10.48 -52.49,-10.47 -51.9,-10.48 -50.18,-10.47 -47.57,-10.48 -44.39,-10.48 -40.85,-10.47 -37.18,-10.48 -33.48,-10.47 -29.86,-10.47 -26.16,-10.48 -21.55,-10.47 -15.41,-10.48 -9.3,-10.47 -5.28,-10.48 -3.26,-10.48 -2.18,-10.47 -1.47,-10.48 -0.97,-10.47 -0.59,-10.47 -0.26,-10.48 0.05,-10.47 0.37,-10.48 0.71,-10.47 1.11,-10.48 1.61,-10.48 2.34,-10.47 3.52,-10.48 5.65,-10.47 9.63,-10.47 15.47,-10.48 21.4,-10.47 25.98,-10.48 29.66,-10.47 33.31,-10.47 37.02,-10.47 40.7,-10.48 44.25,-10.47 47.46,-10.48 50.06,-10.47 51.82,-10.48 52.43,-10.48 51.64,-10.47 49.28,-10.48 45.22,-10.47 39.39,-10.47 32.07,-10.48 23.8,-10.47 14.82,-10.48 4.47,-9.1 -4.52,-9.96 -14.44,-10.48 -23.89,-10.47 -32.29,-10.48 -39.3,-10.48 -45.1,-10.47 -49.32,-10.47 -51.72,-10.48 -52.53,-10.47 -51.94,-10.48 -50.2,-10.47 -47.6,-10.48 -44.41,-10.47 -40.87,-10.48 -37.19,-10.48 -33.49,-10.47 -29.88,-10.47 -26.18,-10.48 -21.56,-10.47 -15.44,-10.48 -9.33,-10.47 -5.28,-10.48 -3.27,-10.47 -2.18,-10.48 -1.48,-10.48 -0.97,-10.47 -0.59,-10.47 -0.26,-10.48 0.05,-10.47 0.38,-10.48 0.71,-10.47 1.1,-10.48 1.62,-10.47 2.34,-10.48 3.53,-10.47 5.67,-10.48 9.65,-10.47 15.51,-10.48 21.42,-10.47 26,-10.48 29.7,-10.47 33.34,-10.48 37.03,-10.47 40.74,-10.48 44.28,-10.47 47.48,-10.48 50.09,-10.47 51.84,-10.48 52.46,-10.47 51.67,-10.48 49.29,-10.47 45.24,-10.48 39.39,-10.47 32.08,-10.48 23.8,-10.47 14.8,-10.48 4.45,-9.09 -4.52,-9.95 -14.45,-10.48 -23.91,-10.47 -32.31,-10.48 -39.31,-10.48 -45.13,-10.47 -49.35,-10.476 -51.74,-10.473 -52.55,-10.477 -51.97,-10.476 -50.22,-10.473 -47.63,-10.476 -44.43,-10.473 -40.89,-10.477 -37.2,-10.476 -33.51,-10.473 -29.89,-10.476 -26.19,-10.473 -21.58,-10.477 -15.47,-10.476 -9.34,-10.473 -5.3,-10.476 -3.27,-10.473 -2.18,-10.477 -1.48,-10.476 -0.97,-10.473 -0.6,-10.476 -0.26,-10.473 0.06,-10.477 0.37,-10.472 0.71,-10.477 1.11,-10.476 1.61,-10.473 2.35,-10.477 3.54,-10.472 5.68,-10.477 9.67,-10.476 15.53,-10.473 21.44,-10.477 26.01,-10.472 29.71,-10.477 33.36,-10.476 37.04,-10.473 40.75,-10.477 44.3,-10.472 47.5,-10.477 50.11,-10.476 51.87,-10.473 52.48,-10.477 51.68,-10.472 49.32,-10.477 45.25,-10.476 39.41,-10.473 32.09,-10.477 23.8,-10.472 14.81,-10.477 4.45,-9.086 -4.53,-9.961 -14.46,-10.472 -23.91,-10.477 -32.32,-10.473 -39.34,-10.476 -45.14,-10.477 -49.37,-10.472 -51.74,-10.477 -38.42,-7.633"
             style="fill:none;stroke:#0eff00;stroke-width:4.16667;stroke-linecap:butt;stroke-linejoin:miter;stroke-miterlimit:1;stroke-dasharray:none;stroke-opacity:1"
             id="path1122" /><path
             d="M 1259.12,2989.16 1252.7,367.043"
             style="fill:none;stroke:#afafaf;stroke-width:4.16667;stroke-linecap:butt;stroke-linejoin:miter;stroke-miterlimit:10;stroke-dasharray:none;stroke-opacity:1"
             id="path1124" /></g></g></g></g></svg>
