<?xml version="1.0" encoding="UTF-8" standalone="no"?>
<svg
   xmlns:dc="http://purl.org/dc/elements/1.1/"
   xmlns:cc="http://creativecommons.org/ns#"
   xmlns:rdf="http://www.w3.org/1999/02/22-rdf-syntax-ns#"
   xmlns:svg="http://www.w3.org/2000/svg"
   xmlns="http://www.w3.org/2000/svg"
   version="1.1"
   id="svg10"
   xml:space="preserve"
   width="569.03094"
   height="361.33768"
   viewBox="0 0 853.5464 542.00654"><metadata
     id="metadata16"><rdf:RDF><cc:Work
         rdf:about=""><dc:format>image/svg+xml</dc:format><dc:type
           rdf:resource="http://purl.org/dc/dcmitype/StillImage" /><dc:title></dc:title></cc:Work></rdf:RDF></metadata><defs
     id="defs14"><clipPath
       clipPathUnits="userSpaceOnUse"
       id="clipPath28"><path
         d="m 375,299.582 h 1729.17 v 2908.34 H 375 Z"
         id="path26" /></clipPath><clipPath
       clipPathUnits="userSpaceOnUse"
       id="clipPath220"><path
         d="m 500,537.082 h 1520.83 v 2454.17 H 500 Z"
         id="path218" /></clipPath></defs><g
     id="g18"
     transform="matrix(0,-1.3333333,-1.3333333,0,1025.6049,667.07604)"><g
       id="g20"
       transform="scale(0.24)"><g
         id="g22"><g
           id="g24"
           clip-path="url(#clipPath28)"><g
             id="g30"
             transform="scale(4.16667)"><text
               transform="matrix(0,-1,-1,0,94.0003,734.614)"
               style="font-variant:normal;font-weight:normal;font-size:14px;font-family:Menlo;-inkscape-font-specification:Menlo-Regular;writing-mode:lr-tb;fill:#afafaf;fill-opacity:1;fill-rule:nonzero;stroke:none"
               id="text34"><tspan
                 x="0 8.4274139 16.855413 25.283415"
                 y="0"
                 id="tspan32">10Hz</tspan></text></g><path
             d="M 500,2990.65 H 458.332"
             style="fill:none;stroke:#afafaf;stroke-width:4.16667;stroke-linecap:butt;stroke-linejoin:miter;stroke-miterlimit:10;stroke-dasharray:none;stroke-opacity:1"
             id="path36" /><path
             d="M 500,2758.36 H 479.168"
             style="fill:none;stroke:#afafaf;stroke-width:4.16667;stroke-linecap:butt;stroke-linejoin:miter;stroke-miterlimit:10;stroke-dasharray:none;stroke-opacity:1"
             id="path38" /><path
             d="M 500,2622.47 H 479.168"
             style="fill:none;stroke:#afafaf;stroke-width:4.16667;stroke-linecap:butt;stroke-linejoin:miter;stroke-miterlimit:10;stroke-dasharray:none;stroke-opacity:1"
             id="path40" /><path
             d="M 500,2526.06 H 479.168"
             style="fill:none;stroke:#afafaf;stroke-width:4.16667;stroke-linecap:butt;stroke-linejoin:miter;stroke-miterlimit:10;stroke-dasharray:none;stroke-opacity:1"
             id="path42" /><path
             d="M 500,2451.28 H 479.168"
             style="fill:none;stroke:#afafaf;stroke-width:4.16667;stroke-linecap:butt;stroke-linejoin:miter;stroke-miterlimit:10;stroke-dasharray:none;stroke-opacity:1"
             id="path44" /><path
             d="M 500,2390.18 H 479.168"
             style="fill:none;stroke:#afafaf;stroke-width:4.16667;stroke-linecap:butt;stroke-linejoin:miter;stroke-miterlimit:10;stroke-dasharray:none;stroke-opacity:1"
             id="path46" /><path
             d="M 500,2338.52 H 479.168"
             style="fill:none;stroke:#afafaf;stroke-width:4.16667;stroke-linecap:butt;stroke-linejoin:miter;stroke-miterlimit:10;stroke-dasharray:none;stroke-opacity:1"
             id="path48" /><path
             d="M 500,2293.77 H 479.168"
             style="fill:none;stroke:#afafaf;stroke-width:4.16667;stroke-linecap:butt;stroke-linejoin:miter;stroke-miterlimit:10;stroke-dasharray:none;stroke-opacity:1"
             id="path50" /><path
             d="M 500,2254.29 H 479.168"
             style="fill:none;stroke:#afafaf;stroke-width:4.16667;stroke-linecap:butt;stroke-linejoin:miter;stroke-miterlimit:10;stroke-dasharray:none;stroke-opacity:1"
             id="path52" /><g
             id="g54"
             transform="scale(4.16667)"><text
               transform="matrix(0,-1,-1,0,94.0003,553.628)"
               style="font-variant:normal;font-weight:normal;font-size:14px;font-family:Menlo;-inkscape-font-specification:Menlo-Regular;writing-mode:lr-tb;fill:#afafaf;fill-opacity:1;fill-rule:nonzero;stroke:none"
               id="text58"><tspan
                 x="0 8.4280005 16.856001 25.283415 33.711414"
                 y="0"
                 id="tspan56">100Hz</tspan></text></g><path
             d="M 500,2218.98 H 458.332"
             style="fill:none;stroke:#afafaf;stroke-width:4.16667;stroke-linecap:butt;stroke-linejoin:miter;stroke-miterlimit:10;stroke-dasharray:none;stroke-opacity:1"
             id="path60" /><path
             d="M 500,1986.69 H 479.168"
             style="fill:none;stroke:#afafaf;stroke-width:4.16667;stroke-linecap:butt;stroke-linejoin:miter;stroke-miterlimit:10;stroke-dasharray:none;stroke-opacity:1"
             id="path62" /><path
             d="M 500,1850.8 H 479.168"
             style="fill:none;stroke:#afafaf;stroke-width:4.16667;stroke-linecap:butt;stroke-linejoin:miter;stroke-miterlimit:10;stroke-dasharray:none;stroke-opacity:1"
             id="path64" /><path
             d="M 500,1754.39 H 479.168"
             style="fill:none;stroke:#afafaf;stroke-width:4.16667;stroke-linecap:butt;stroke-linejoin:miter;stroke-miterlimit:10;stroke-dasharray:none;stroke-opacity:1"
             id="path66" /><path
             d="M 500,1679.61 H 479.168"
             style="fill:none;stroke:#afafaf;stroke-width:4.16667;stroke-linecap:butt;stroke-linejoin:miter;stroke-miterlimit:10;stroke-dasharray:none;stroke-opacity:1"
             id="path68" /><path
             d="M 500,1618.51 H 479.168"
             style="fill:none;stroke:#afafaf;stroke-width:4.16667;stroke-linecap:butt;stroke-linejoin:miter;stroke-miterlimit:10;stroke-dasharray:none;stroke-opacity:1"
             id="path70" /><path
             d="M 500,1566.85 H 479.168"
             style="fill:none;stroke:#afafaf;stroke-width:4.16667;stroke-linecap:butt;stroke-linejoin:miter;stroke-miterlimit:10;stroke-dasharray:none;stroke-opacity:1"
             id="path72" /><path
             d="M 500,1522.1 H 479.168"
             style="fill:none;stroke:#afafaf;stroke-width:4.16667;stroke-linecap:butt;stroke-linejoin:miter;stroke-miterlimit:10;stroke-dasharray:none;stroke-opacity:1"
             id="path74" /><path
             d="M 500,1482.63 H 479.168"
             style="fill:none;stroke:#afafaf;stroke-width:4.16667;stroke-linecap:butt;stroke-linejoin:miter;stroke-miterlimit:10;stroke-dasharray:none;stroke-opacity:1"
             id="path76" /><g
             id="g78"
             transform="scale(4.16667)"><text
               transform="matrix(0,-1,-1,0,94.0003,364.213)"
               style="font-variant:normal;font-weight:normal;font-size:14px;font-family:Menlo;-inkscape-font-specification:Menlo-Regular;writing-mode:lr-tb;fill:#afafaf;fill-opacity:1;fill-rule:nonzero;stroke:none"
               id="text82"><tspan
                 x="0 8.4274139 16.855413 25.283415"
                 y="0"
                 id="tspan80">1KHz</tspan></text></g><path
             d="M 500,1447.32 H 458.332"
             style="fill:none;stroke:#afafaf;stroke-width:4.16667;stroke-linecap:butt;stroke-linejoin:miter;stroke-miterlimit:10;stroke-dasharray:none;stroke-opacity:1"
             id="path84" /><path
             d="M 500,1215.02 H 479.168"
             style="fill:none;stroke:#afafaf;stroke-width:4.16667;stroke-linecap:butt;stroke-linejoin:miter;stroke-miterlimit:10;stroke-dasharray:none;stroke-opacity:1"
             id="path86" /><path
             d="M 500,1079.14 H 479.168"
             style="fill:none;stroke:#afafaf;stroke-width:4.16667;stroke-linecap:butt;stroke-linejoin:miter;stroke-miterlimit:10;stroke-dasharray:none;stroke-opacity:1"
             id="path88" /><path
             d="M 500,982.727 H 479.168"
             style="fill:none;stroke:#afafaf;stroke-width:4.16667;stroke-linecap:butt;stroke-linejoin:miter;stroke-miterlimit:10;stroke-dasharray:none;stroke-opacity:1"
             id="path90" /><path
             d="M 500,907.945 H 479.168"
             style="fill:none;stroke:#afafaf;stroke-width:4.16667;stroke-linecap:butt;stroke-linejoin:miter;stroke-miterlimit:10;stroke-dasharray:none;stroke-opacity:1"
             id="path92" /><path
             d="M 500,846.844 H 479.168"
             style="fill:none;stroke:#afafaf;stroke-width:4.16667;stroke-linecap:butt;stroke-linejoin:miter;stroke-miterlimit:10;stroke-dasharray:none;stroke-opacity:1"
             id="path94" /><path
             d="M 500,795.184 H 479.168"
             style="fill:none;stroke:#afafaf;stroke-width:4.16667;stroke-linecap:butt;stroke-linejoin:miter;stroke-miterlimit:10;stroke-dasharray:none;stroke-opacity:1"
             id="path96" /><path
             d="M 500,750.43 H 479.168"
             style="fill:none;stroke:#afafaf;stroke-width:4.16667;stroke-linecap:butt;stroke-linejoin:miter;stroke-miterlimit:10;stroke-dasharray:none;stroke-opacity:1"
             id="path98" /><path
             d="M 500,710.957 H 479.168"
             style="fill:none;stroke:#afafaf;stroke-width:4.16667;stroke-linecap:butt;stroke-linejoin:miter;stroke-miterlimit:10;stroke-dasharray:none;stroke-opacity:1"
             id="path100" /><g
             id="g102"
             transform="scale(4.16667)"><text
               transform="matrix(0,-1,-1,0,94.0003,183.228)"
               style="font-variant:normal;font-weight:normal;font-size:14px;font-family:Menlo;-inkscape-font-specification:Menlo-Regular;writing-mode:lr-tb;fill:#afafaf;fill-opacity:1;fill-rule:nonzero;stroke:none"
               id="text106"><tspan
                 x="0 8.4280005 16.855413 25.283415 33.711414"
                 y="0"
                 id="tspan104">10KHz</tspan></text></g><path
             d="M 500,675.648 H 458.332"
             style="fill:none;stroke:#afafaf;stroke-width:4.16667;stroke-linecap:butt;stroke-linejoin:miter;stroke-miterlimit:10;stroke-dasharray:none;stroke-opacity:1"
             id="path108" /><g
             id="g110"
             transform="scale(4.16667)"><text
               transform="matrix(0,-1,-1,0,114,736.185)"
               style="font-variant:normal;font-weight:normal;font-size:14px;font-family:Menlo;-inkscape-font-specification:Menlo-Regular;writing-mode:lr-tb;fill:#afafaf;fill-opacity:1;fill-rule:nonzero;stroke:none"
               id="text114"><tspan
                 x="0 -8.42906 -16.857189 -25.286249 -33.715309"
                 y="0"
                 id="tspan112">Bd55-</tspan></text></g><path
             d="m 500,2990.65 v 41.67"
             style="fill:none;stroke:#afafaf;stroke-width:4.16667;stroke-linecap:butt;stroke-linejoin:miter;stroke-miterlimit:10;stroke-dasharray:none;stroke-opacity:1"
             id="path116" /><g
             id="g118"
             transform="scale(4.16667)"><text
               transform="matrix(0,-1,-1,0,147.182,736.185)"
               style="font-variant:normal;font-weight:normal;font-size:14px;font-family:Menlo;-inkscape-font-specification:Menlo-Regular;writing-mode:lr-tb;fill:#afafaf;fill-opacity:1;fill-rule:nonzero;stroke:none"
               id="text122"><tspan
                 x="0 -8.42906 -16.857189 -25.286249 -33.715309"
                 y="0"
                 id="tspan120">Bd05-</tspan></text></g><path
             d="m 638.258,2990.65 v 41.67"
             style="fill:none;stroke:#afafaf;stroke-width:4.16667;stroke-linecap:butt;stroke-linejoin:miter;stroke-miterlimit:10;stroke-dasharray:none;stroke-opacity:1"
             id="path124" /><g
             id="g126"
             transform="scale(4.16667)"><text
               transform="matrix(0,-1,-1,0,180.364,736.185)"
               style="font-variant:normal;font-weight:normal;font-size:14px;font-family:Menlo;-inkscape-font-specification:Menlo-Regular;writing-mode:lr-tb;fill:#afafaf;fill-opacity:1;fill-rule:nonzero;stroke:none"
               id="text130"><tspan
                 x="0 -8.42906 -16.857189 -25.286249 -33.715309"
                 y="0"
                 id="tspan128">Bd54-</tspan></text></g><path
             d="m 776.516,2990.65 v 41.67"
             style="fill:none;stroke:#afafaf;stroke-width:4.16667;stroke-linecap:butt;stroke-linejoin:miter;stroke-miterlimit:10;stroke-dasharray:none;stroke-opacity:1"
             id="path132" /><g
             id="g134"
             transform="scale(4.16667)"><text
               transform="matrix(0,-1,-1,0,213.546,736.185)"
               style="font-variant:normal;font-weight:normal;font-size:14px;font-family:Menlo;-inkscape-font-specification:Menlo-Regular;writing-mode:lr-tb;fill:#afafaf;fill-opacity:1;fill-rule:nonzero;stroke:none"
               id="text138"><tspan
                 x="0 -8.42906 -16.857189 -25.286249 -33.715309"
                 y="0"
                 id="tspan136">Bd04-</tspan></text></g><path
             d="m 914.773,2990.65 v 41.67"
             style="fill:none;stroke:#afafaf;stroke-width:4.16667;stroke-linecap:butt;stroke-linejoin:miter;stroke-miterlimit:10;stroke-dasharray:none;stroke-opacity:1"
             id="path140" /><g
             id="g142"
             transform="scale(4.16667)"><text
               transform="matrix(0,-1,-1,0,246.727,736.185)"
               style="font-variant:normal;font-weight:normal;font-size:14px;font-family:Menlo;-inkscape-font-specification:Menlo-Regular;writing-mode:lr-tb;fill:#afafaf;fill-opacity:1;fill-rule:nonzero;stroke:none"
               id="text146"><tspan
                 x="0 -8.42906 -16.857189 -25.286249 -33.715309"
                 y="0"
                 id="tspan144">Bd53-</tspan></text></g><path
             d="m 1053.03,2990.65 v 41.67"
             style="fill:none;stroke:#afafaf;stroke-width:4.16667;stroke-linecap:butt;stroke-linejoin:miter;stroke-miterlimit:10;stroke-dasharray:none;stroke-opacity:1"
             id="path148" /><g
             id="g150"
             transform="scale(4.16667)"><text
               transform="matrix(0,-1,-1,0,279.909,736.185)"
               style="font-variant:normal;font-weight:normal;font-size:14px;font-family:Menlo;-inkscape-font-specification:Menlo-Regular;writing-mode:lr-tb;fill:#afafaf;fill-opacity:1;fill-rule:nonzero;stroke:none"
               id="text154"><tspan
                 x="0 -8.42906 -16.857189 -25.286249 -33.715309"
                 y="0"
                 id="tspan152">Bd03-</tspan></text></g><path
             d="m 1191.29,2990.65 v 41.67"
             style="fill:none;stroke:#afafaf;stroke-width:4.16667;stroke-linecap:butt;stroke-linejoin:miter;stroke-miterlimit:10;stroke-dasharray:none;stroke-opacity:1"
             id="path156" /><g
             id="g158"
             transform="scale(4.16667)"><text
               transform="matrix(0,-1,-1,0,313.091,736.185)"
               style="font-variant:normal;font-weight:normal;font-size:14px;font-family:Menlo;-inkscape-font-specification:Menlo-Regular;writing-mode:lr-tb;fill:#afafaf;fill-opacity:1;fill-rule:nonzero;stroke:none"
               id="text162"><tspan
                 x="0 -8.42906 -16.857189 -25.286249 -33.715309"
                 y="0"
                 id="tspan160">Bd52-</tspan></text></g><path
             d="m 1329.55,2990.65 v 41.67"
             style="fill:none;stroke:#afafaf;stroke-width:4.16667;stroke-linecap:butt;stroke-linejoin:miter;stroke-miterlimit:10;stroke-dasharray:none;stroke-opacity:1"
             id="path164" /><g
             id="g166"
             transform="scale(4.16667)"><text
               transform="matrix(0,-1,-1,0,346.273,736.185)"
               style="font-variant:normal;font-weight:normal;font-size:14px;font-family:Menlo;-inkscape-font-specification:Menlo-Regular;writing-mode:lr-tb;fill:#afafaf;fill-opacity:1;fill-rule:nonzero;stroke:none"
               id="text170"><tspan
                 x="0 -8.42906 -16.857189 -25.286249 -33.715309"
                 y="0"
                 id="tspan168">Bd02-</tspan></text></g><path
             d="m 1467.8,2990.65 v 41.67"
             style="fill:none;stroke:#afafaf;stroke-width:4.16667;stroke-linecap:butt;stroke-linejoin:miter;stroke-miterlimit:10;stroke-dasharray:none;stroke-opacity:1"
             id="path172" /><g
             id="g174"
             transform="scale(4.16667)"><text
               transform="matrix(0,-1,-1,0,379.454,736.185)"
               style="font-variant:normal;font-weight:normal;font-size:14px;font-family:Menlo;-inkscape-font-specification:Menlo-Regular;writing-mode:lr-tb;fill:#afafaf;fill-opacity:1;fill-rule:nonzero;stroke:none"
               id="text178"><tspan
                 x="0 -8.42906 -16.857189 -25.286249 -33.715309"
                 y="0"
                 id="tspan176">Bd51-</tspan></text></g><path
             d="m 1606.06,2990.65 v 41.67"
             style="fill:none;stroke:#afafaf;stroke-width:4.16667;stroke-linecap:butt;stroke-linejoin:miter;stroke-miterlimit:10;stroke-dasharray:none;stroke-opacity:1"
             id="path180" /><g
             id="g182"
             transform="scale(4.16667)"><text
               transform="matrix(0,-1,-1,0,412.637,736.185)"
               style="font-variant:normal;font-weight:normal;font-size:14px;font-family:Menlo;-inkscape-font-specification:Menlo-Regular;writing-mode:lr-tb;fill:#afafaf;fill-opacity:1;fill-rule:nonzero;stroke:none"
               id="text186"><tspan
                 x="0 -8.42906 -16.857189 -25.286249 -33.715309"
                 y="0"
                 id="tspan184">Bd01-</tspan></text></g><path
             d="m 1744.32,2990.65 v 41.67"
             style="fill:none;stroke:#afafaf;stroke-width:4.16667;stroke-linecap:butt;stroke-linejoin:miter;stroke-miterlimit:10;stroke-dasharray:none;stroke-opacity:1"
             id="path188" /><g
             id="g190"
             transform="scale(4.16667)"><text
               transform="matrix(0,-1,-1,0,445.818,736.185)"
               style="font-variant:normal;font-weight:normal;font-size:14px;font-family:Menlo;-inkscape-font-specification:Menlo-Regular;writing-mode:lr-tb;fill:#afafaf;fill-opacity:1;fill-rule:nonzero;stroke:none"
               id="text194"><tspan
                 x="0 -8.42906 -16.857189 -25.286249"
                 y="0"
                 id="tspan192">Bd5-</tspan></text></g><path
             d="m 1882.57,2990.65 v 41.67"
             style="fill:none;stroke:#afafaf;stroke-width:4.16667;stroke-linecap:butt;stroke-linejoin:miter;stroke-miterlimit:10;stroke-dasharray:none;stroke-opacity:1"
             id="path196" /><g
             id="g198"
             transform="scale(4.16667)"><text
               transform="matrix(0,-1,-1,0,479,736.185)"
               style="font-variant:normal;font-weight:normal;font-size:14px;font-family:Menlo;-inkscape-font-specification:Menlo-Regular;writing-mode:lr-tb;fill:#afafaf;fill-opacity:1;fill-rule:nonzero;stroke:none"
               id="text202"><tspan
                 x="0 -8.42906 -16.857189"
                 y="0"
                 id="tspan200">Bd0</tspan></text></g><path
             d="m 2020.83,2990.65 v 41.67"
             style="fill:none;stroke:#afafaf;stroke-width:4.16667;stroke-linecap:butt;stroke-linejoin:miter;stroke-miterlimit:10;stroke-dasharray:none;stroke-opacity:1"
             id="path204" /><path
             d="m 500,539.766 h 1520.83 v 2450.89 H 500 Z"
             style="fill:none;stroke:#afafaf;stroke-width:4.16667;stroke-linecap:butt;stroke-linejoin:miter;stroke-miterlimit:10;stroke-dasharray:none;stroke-opacity:1"
             id="path206" /><g
             id="g208"
             transform="scale(4.16667)"><text
               transform="matrix(0,-1,-1,0,489,453.257)"
               style="font-variant:normal;font-weight:normal;font-size:14px;font-family:Menlo;-inkscape-font-specification:Menlo-Regular;writing-mode:lr-tb;fill:#0eff00;fill-opacity:1;fill-rule:nonzero;stroke:none"
               id="text212"><tspan
                 x="0 8.4280005 16.855413 25.283415 33.710827 42.138828 50.56683"
                 y="0"
                 id="tspan210">V(vout)</tspan></text></g></g></g><g
         id="g214"><g
           id="g216"
           clip-path="url(#clipPath220)"><path
             d="m 610.277,2990.65 v 0 l 1.676,-2.32 1.676,-2.32 1.676,-2.33 1.675,-2.32 1.676,-2.32 1.676,-2.33 1.672,-2.32 1.676,-2.32 1.675,-2.32 1.672,-2.33 1.676,-2.32 1.676,-2.32 1.672,-2.33 1.676,-2.32 1.671,-2.32 1.672,-2.33 1.676,-2.32 1.672,-2.32 1.676,-2.32 1.672,-2.33 1.672,-2.32 1.671,-2.32 1.676,-2.33 1.672,-2.32 1.672,-2.32 1.672,-2.33 1.672,-2.32 1.672,-2.32 1.671,-2.32 1.672,-2.33 1.672,-2.32 1.672,-2.32 1.672,-2.32 1.672,-2.33 1.672,-2.32 1.672,-2.32 1.671,-2.33 1.668,-2.32 1.672,-2.32 1.672,-2.33 1.672,-2.32 1.668,-2.32 1.672,-2.32 1.672,-2.33 1.668,-2.32 1.672,-2.32 1.668,-2.33 1.671,-2.32 1.672,-2.32 1.668,-2.33 1.672,-2.32 1.668,-2.32 1.668,-2.32 1.672,-2.33 1.668,-2.32 1.672,-2.32 1.668,-2.33 1.668,-2.32 1.672,-2.32 1.668,-2.33 1.668,-2.32 1.671,-2.32 1.668,-2.33 1.668,-2.32 1.668,-2.32 1.672,-2.32 1.668,-2.32 1.668,-2.33 1.668,-2.32 1.668,-2.32 1.668,-2.33 1.672,-2.32 1.668,-2.32 1.668,-2.33 1.668,-2.32 1.668,-2.32 1.668,-2.32 1.668,-2.33 1.668,-2.32 1.668,-2.32 1.668,-2.33 1.668,-2.32 1.668,-2.32 1.668,-2.33 1.668,-2.32 1.664,-2.32 1.668,-2.33 1.668,-2.32 1.667,-2.32 1.668,-2.32 1.668,-2.33 1.668,-2.32 1.664,-2.32 1.668,-2.33 1.668,-2.32 1.668,-2.32 1.668,-2.33 1.664,-2.32 1.668,-2.32 1.668,-2.32 1.664,-2.32 1.668,-2.33 1.668,-2.32 1.668,-2.32 1.664,-2.33 1.668,-2.32 1.664,-2.32 1.668,-2.33 1.668,-2.32 1.664,-2.32 1.668,-2.33 1.664,-2.32 1.668,-2.32 1.668,-2.32 1.664,-2.33 1.668,-2.32 1.664,-2.32 1.668,-2.33 1.664,-2.32 1.668,-2.32 1.665,-2.33 1.667,-2.32 1.665,-2.32 1.668,-2.32 1.664,-2.33 1.668,-2.32 1.664,-2.32 1.668,-2.33 1.664,-2.32 1.668,-2.32 1.664,-2.33 1.664,-2.32 1.668,-2.32 1.664,-2.32 1.668,-2.33 1.664,-2.32 1.664,-2.32 1.668,-2.32 1.664,-2.33 1.668,-2.32 1.664,-2.32 1.664,-2.33 1.668,-2.32 1.664,-2.32 1.664,-2.33 1.664,-2.32 1.668,-2.32 1.664,-2.32 1.664,-2.33 1.668,-2.32 1.664,-2.32 1.664,-2.33 1.664,-2.32 1.668,-2.32 1.664,-2.33 1.664,-2.32 1.668,-2.32 1.665,-2.32 1.664,-2.33 1.664,-2.32 1.664,-2.32 1.668,-2.33 1.664,-2.32 1.664,-2.32 1.664,-2.33 1.664,-2.32 1.668,-2.32 1.664,-2.33 1.664,-2.32 1.664,-2.32 1.664,-2.32 1.668,-2.32 1.664,-2.33 1.664,-2.32 1.664,-2.32 1.664,-2.33 1.664,-2.32 1.664,-2.32 1.668,-2.33 1.665,-2.32 1.664,-2.32 1.664,-2.32 1.664,-2.33 1.664,-2.32 1.664,-2.32 1.664,-2.33 1.668,-2.32 1.664,-2.32 1.664,-2.33 1.664,-2.32 1.664,-2.32 1.664,-2.33 1.664,-2.32 1.664,-2.32 1.664,-2.32 1.664,-2.33 1.664,-2.32 1.665,-2.32 1.664,-2.33 1.664,-2.32 1.668,-2.32 1.664,-2.33 1.664,-2.32 1.664,-2.32 1.664,-2.32 1.664,-2.32 1.664,-2.33 1.664,-2.32 1.664,-2.32 1.664,-2.33 1.664,-2.32 1.664,-2.32 1.664,-2.33 1.664,-2.32 1.665,-2.32 1.664,-2.33 1.664,-2.32 1.664,-2.32 1.664,-2.32 1.664,-2.33 1.664,-2.32 1.664,-2.32 1.664,-2.33 1.664,-2.32 1.664,-2.32 1.664,-2.33 1.664,-2.32 1.664,-2.32 1.664,-2.32 1.664,-2.32 1.665,-2.33 1.66,-2.32 1.668,-2.32 1.664,-2.33 1.66,-2.32 1.66,-2.32 1.67,-2.33 1.66,-2.32 1.67,-2.32 1.66,-2.33 1.66,-2.32 1.67,-2.32 1.66,-2.32 1.67,-2.33 1.66,-2.32 1.66,-2.32 1.67,-2.33 1.66,-2.32 1.66,-2.32 1.67,-2.33 1.66,-2.32 1.67,-2.32 1.66,-2.32 1.66,-2.33 1.67,-2.32 1.66,-2.32 1.67,-2.33 1.66,-2.32 1.66,-2.32 1.66,-2.33 1.67,-2.32 1.66,-2.32 1.67,-2.33 1.66,-2.32 1.66,-2.32 1.66,-2.32 1.67,-2.32 1.66,-2.33 1.67,-2.32 1.66,-2.32 1.66,-2.33 1.66,-2.32 1.67,-2.32 1.66,-2.33 1.67,-2.32 1.66,-2.32 1.66,-2.32 1.67,-2.33 1.66,-2.32 1.66,-2.32 1.67,-2.33 1.66,-2.32 1.66,-2.32 1.67,-2.33 1.66,-2.32 1.66,-2.32 1.66,-2.33 1.67,-2.32 1.66,-2.32 1.67,-2.32 1.66,-2.33 1.66,-2.32 1.66,-2.32 1.67,-2.33 1.66,-2.32 1.66,-2.32 1.67,-2.33 1.66,-2.32 1.66,-2.32 1.66,-2.32 1.67,-2.32 1.66,-2.33 1.66,-2.32 1.67,-2.32 1.66,-2.33 1.66,-2.32 1.67,-2.32 1.66,-2.33 1.66,-2.32 1.66,-2.32 1.67,-2.33 1.66,-2.32 1.66,-2.32 1.67,-2.32 1.66,-2.33 1.66,-2.32 1.66,-2.32 1.66,-2.33 1.67,-2.32 1.66,-2.32 1.66,-2.33 1.66,-2.32 1.67,-2.32 1.66,-2.32 1.66,-2.33 1.67,-2.32 1.66,-2.32 1.66,-2.33 1.66,-2.32 1.66,-2.32 1.66,-2.33 1.67,-2.32 1.66,-2.32 1.66,-2.32 1.66,-2.33 1.67,-2.32 1.66,-2.32 1.66,-2.32 1.66,-2.33 1.66,-2.32 1.67,-2.32 1.66,-2.33 1.66,-2.32 1.66,-2.32 1.66,-2.33 1.66,-2.32 1.66,-2.32 1.67,-2.32 1.66,-2.33 1.66,-2.32 1.66,-2.32 1.66,-2.33 1.66,-2.32 1.67,-2.32 1.66,-2.33 1.66,-2.32 1.66,-2.32 1.66,-2.32 1.66,-2.33 1.66,-2.32 1.66,-2.32 1.66,-2.33 1.67,-2.32 1.66,-2.32 1.66,-2.33 1.66,-2.32 1.66,-2.32 1.66,-2.33 1.66,-2.32 1.66,-2.32 1.66,-2.32 1.66,-2.32 1.66,-2.33 1.66,-2.32 1.66,-2.32 1.66,-2.33 1.66,-2.32 1.66,-2.32 1.66,-2.33 1.66,-2.32 1.66,-2.32 1.66,-2.32 1.66,-2.33 1.66,-2.32 1.66,-2.32 1.66,-2.33 1.66,-2.32 1.66,-2.32 1.66,-2.33 1.66,-2.32 1.66,-2.32 1.65,-2.33 1.66,-2.32 1.66,-2.32 1.66,-2.32 1.66,-2.33 1.66,-2.32 1.66,-2.32 1.66,-2.33 1.65,-2.32 1.66,-2.32 1.66,-2.33 1.66,-2.32 1.65,-2.32 1.67,-2.32 1.65,-2.32 1.66,-2.33 1.66,-2.32 1.65,-2.32 1.66,-2.33 1.66,-2.32 1.66,-2.32 1.65,-2.33 1.66,-2.32 1.66,-2.32 1.66,-2.33 1.65,-2.32 1.66,-2.32 1.65,-2.32 1.66,-2.33 1.66,-2.32 1.65,-2.32 1.66,-2.33 1.66,-2.32 1.65,-2.32 1.66,-2.33 1.65,-2.32 1.66,-2.32 1.65,-2.32 1.66,-2.33 1.66,-2.32 1.65,-2.32 1.65,-2.33 1.66,-2.32 1.65,-2.32 1.66,-2.33 1.65,-2.32 1.66,-2.32 1.65,-2.32 1.66,-2.33 1.65,-2.32 1.65,-2.32 1.65,-2.32 1.66,-2.33 1.65,-2.32 1.65,-2.32 1.66,-2.33 1.65,-2.32 1.65,-2.32 1.65,-2.33 1.66,-2.32 1.65,-2.32 1.65,-2.32 1.65,-2.33 1.65,-2.32 1.65,-2.32 1.66,-2.33 1.64,-2.32 1.66,-2.32 1.65,-2.33 1.65,-2.32 1.65,-2.32 1.64,-2.32 1.66,-2.33 1.65,-2.32 1.64,-2.32 1.65,-2.33 1.65,-2.32 1.65,-2.32 1.65,-2.33 1.65,-2.32 1.64,-2.32 1.65,-2.33 1.65,-2.32 1.65,-2.32 1.64,-2.32 1.65,-2.32 1.65,-2.33 1.64,-2.32 1.65,-2.32 1.64,-2.33 1.65,-2.32 1.64,-2.32 1.65,-2.33 1.64,-2.32 1.65,-2.32 1.64,-2.32 1.65,-2.33 1.64,-2.32 1.64,-2.32 1.65,-2.33 1.64,-2.32 1.64,-2.32 1.64,-2.33 1.64,-2.32 1.64,-2.32 1.64,-2.33 1.64,-2.32 1.64,-2.32 1.65,-2.32 1.64,-2.32 1.63,-2.33 1.64,-2.32 1.64,-2.32 1.64,-2.33 1.64,-2.32 1.63,-2.33 1.64,-2.32 1.64,-2.32 1.63,-2.32"
             style="fill:none;stroke:#0eff00;stroke-width:4.16667;stroke-linecap:butt;stroke-linejoin:miter;stroke-miterlimit:1;stroke-dasharray:none;stroke-opacity:1"
             id="path222" /><path
             d="m 1457.82,1805.95 v 0 l 1.64,-2.32 1.63,-2.33 1.64,-2.32 1.64,-2.32 1.63,-2.33 1.63,-2.32 1.64,-2.32 1.63,-2.33 1.63,-2.32 1.63,-2.32 1.64,-2.33 1.63,-2.32 1.63,-2.32 1.63,-2.32 1.63,-2.33 1.63,-2.32 1.63,-2.32 1.62,-2.33 1.63,-2.32 1.63,-2.32 1.63,-2.33 1.62,-2.32 1.63,-2.32 1.62,-2.32 1.63,-2.32 1.62,-2.33 1.63,-2.32 1.62,-2.32 1.62,-2.33 1.62,-2.32 1.62,-2.32 1.63,-2.33 1.62,-2.32 1.62,-2.33 1.61,-2.32 1.62,-2.32 1.62,-2.32 1.62,-2.32 1.61,-2.33 1.62,-2.32 1.61,-2.32 1.62,-2.33 1.61,-2.32 1.62,-2.32 1.61,-2.33 1.61,-2.32 1.61,-2.32 1.61,-2.32 1.61,-2.33 1.61,-2.32 1.61,-2.32 1.61,-2.33 1.6,-2.32 1.61,-2.32 1.6,-2.33 1.6,-2.32 1.61,-2.32 1.6,-2.33 1.6,-2.32 1.6,-2.32 1.6,-2.32 1.6,-2.32 1.6,-2.33 1.6,-2.32 1.59,-2.32 1.6,-2.33 1.59,-2.32 1.6,-2.33 1.59,-2.32 1.59,-2.32 1.59,-2.32 1.59,-2.32 1.59,-2.33 1.59,-2.32 1.59,-2.32 1.58,-2.33 1.59,-2.32 1.58,-2.32 1.58,-2.33 1.58,-2.32 1.58,-2.32 1.58,-2.33 1.58,-2.32 1.58,-2.32 1.57,-2.32 1.58,-2.33 1.57,-2.32 1.57,-2.32 1.57,-2.33 1.57,-2.32 1.57,-2.32 1.57,-2.33 1.56,-2.32 1.57,-2.32 1.56,-2.32 1.56,-2.32 1.56,-2.33 1.56,-2.32 1.56,-2.32 1.56,-2.33 1.55,-2.32 1.56,-2.32 1.55,-2.33 1.55,-2.32 1.55,-2.32 1.54,-2.33 1.55,-2.32 1.54,-2.32 1.55,-2.32 1.54,-2.33 1.54,-2.32 1.53,-2.32 1.54,-2.33 1.54,-2.32 1.53,-2.32 1.53,-2.33 1.53,-2.32 1.53,-2.32 1.53,-2.32 1.52,-2.33 1.52,-2.32 1.52,-2.32 1.52,-2.33 1.52,-2.32 1.52,-2.32 1.51,-2.33 1.51,-2.32 1.51,-2.32 1.51,-2.32 1.51,-2.33 1.5,-2.32 1.5,-2.32 1.5,-2.32 1.5,-2.33 1.49,-2.32 1.5,-2.32 1.49,-2.33 1.49,-2.32 1.48,-2.32 1.49,-2.33 1.48,-2.32 1.48,-2.32 1.48,-2.32 1.47,-2.33 1.48,-2.32 1.47,-2.32 1.46,-2.33 1.47,-2.32 1.46,-2.32 1.47,-2.33 1.46,-2.32 1.45,-2.32 1.46,-2.32 1.45,-2.33 1.45,-2.32 1.44,-2.32 1.44,-2.33 1.44,-2.32 1.44,-2.32 1.44,-2.33 1.43,-2.32 1.43,-2.32 1.42,-2.33 1.43,-2.32 1.42,-2.32 1.42,-2.32 1.41,-2.32 1.41,-2.33 1.41,-2.32 1.41,-2.32 1.4,-2.33 1.4,-2.32 1.4,-2.32 1.39,-2.33 1.39,-2.32 1.39,-2.32 1.38,-2.32 1.39,-2.33 1.38,-2.32 1.37,-2.32 1.37,-2.33 1.36,-2.32 1.37,-2.32 1.36,-2.33 1.36,-2.32 1.35,-2.32 1.35,-2.33 1.35,-2.32 1.34,-2.32 1.34,-2.32 1.34,-2.33 1.33,-2.32 1.33,-2.32 1.32,-2.33 1.32,-2.32 1.32,-2.32 1.31,-2.33 1.31,-2.32 1.31,-2.32 1.3,-2.32 1.3,-2.32 1.29,-2.33 1.29,-2.32 1.29,-2.32 1.28,-2.33 1.28,-2.32 1.27,-2.32 1.27,-2.33 1.26,-2.32 1.27,-2.32 1.25,-2.33 1.25,-2.32 1.25,-2.32 1.25,-2.32 1.23,-2.33 1.24,-2.32 1.23,-2.32 1.23,-2.33 1.21,-2.32 1.22,-2.32 1.21,-2.33 1.21,-2.32 1.2,-2.32 1.2,-2.32 1.19,-2.33 1.2,-2.32 1.18,-2.32 1.18,-2.33 1.17,-2.32 1.17,-2.32 1.17,-2.33 1.16,-2.32 1.15,-2.32 1.15,-2.32 1.15,-2.33 1.14,-2.32 1.13,-2.32 1.13,-2.32 1.13,-2.33 1.12,-2.32 1.11,-2.32 1.12,-2.33 1.1,-2.32 1.1,-2.32 1.09,-2.33 1.09,-2.32 1.08,-2.32 1.08,-2.32 1.08,-2.33 1.06,-2.32 1.07,-2.32 1.05,-2.33 1.05,-2.32 1.05,-2.32 1.04,-2.33 1.04,-2.32 1.03,-2.32 1.02,-2.32 1.02,-2.33 1.02,-2.32 1.01,-2.32 1,-2.33 0.99,-2.32 1,-2.32 0.98,-2.33 0.98,-2.32 0.98,-2.32 0.97,-2.33 0.96,-2.32 0.96,-2.32 0.95,-2.32 0.95,-2.32 0.94,-2.33 0.93,-2.32 0.93,-2.32 0.93,-2.33 0.91,-2.32 0.91,-2.32 0.91,-2.33 0.9,-2.32 0.9,-2.32 0.88,-2.32 0.89,-2.33 0.88,-2.32 0.87,-2.32 0.86,-2.33 0.86,-2.32 0.86,-2.32 0.85,-2.33 0.84,-2.32 0.84,-2.32 0.83,-2.33 0.82,-2.32 0.82,-2.32 0.82,-2.32 0.8,-2.32 0.8,-2.33 0.8,-2.32 0.79,-2.33 0.79,-2.32 0.77,-2.32 0.78,-2.33 0.77,-2.32 0.76,-2.32 0.75,-2.32 0.75,-2.32 0.74,-2.33 0.74,-2.32 0.74,-2.32 0.72,-2.33 0.73,-2.32 0.71,-2.32 0.71,-2.33 0.7,-2.32 0.7,-2.32 0.7,-2.33 0.68,-2.32 0.68,-2.32 0.68,-2.32 0.67,-2.33 0.66,-2.32 0.66,-2.32 0.65,-2.33 0.65,-2.32 0.65,-2.32 0.63,-2.33 0.63,-2.32 0.63,-2.32 0.62,-2.32 0.61,-2.32 0.61,-2.33 0.61,-2.32 0.59,-2.33 0.59,-2.32 0.59,-2.32 0.59,-2.33 0.57,-2.32 0.57,-2.32 0.57,-2.33 0.56,-2.32 0.55,-2.32 0.55,-2.32 0.55,-2.32 0.54,-2.33 0.54,-2.32 0.53,-2.32 0.52,-2.327 0.52,-2.324 0.51,-2.321 0.51,-2.324 0.51,-2.324 0.5,-2.32 0.49,-2.325 0.49,-2.324 0.49,-2.32 0.47,-2.324 0.48,-2.325 0.47,-2.32 0.46,-2.324 0.46,-2.324 0.46,-2.321 0.45,-2.324 0.44,-2.324 0.45,-2.32 0.43,-2.325 0.44,-2.324 0.42,-2.32 0.42,-2.324 0.42,-2.325 0.42,-2.324 0.41,-2.32 0.4,-2.324 0.4,-2.325 0.4,-2.32 0.39,-2.324 0.39,-2.324 0.38,-2.321 0.38,-2.324 0.37,-2.324 0.38,-2.32 0.36,-2.325 0.36,-2.324 0.36,-2.32 0.35,-2.324 0.35,-2.325 0.35,-2.32 0.34,-2.324 0.34,-2.324 0.33,-2.321 0.33,-2.324 0.33,-2.324 0.32,-2.32 0.32,-2.325 0.31,-2.324 0.31,-2.32 0.31,-2.324 0.3,-2.325 0.3,-2.32 0.29,-2.324 0.3,-2.324 0.29,-2.321 0.28,-2.324 0.28,-2.324 0.28,-2.32 0.27,-2.325 0.27,-2.324 0.27,-2.324 0.26,-2.32 0.26,-2.325 0.26,-2.324 0.25,-2.32 0.25,-2.324 0.25,-2.325 0.24,-2.32 0.24,-2.324 0.24,-2.324 0.23,-2.321 0.23,-2.324 0.23,-2.324 0.23,-2.32 0.22,-2.325 0.21,-2.324 0.22,-2.32 0.21,-2.324 0.21,-2.325 0.21,-2.32 0.2,-2.324 0.2,-2.324 0.2,-2.321 0.19,-2.324 0.19,-2.324 0.19,-2.32 0.19,-2.325 0.18,-2.324 0.18,-2.32 0.18,-2.324 0.17,-2.325 0.17,-2.32 0.17,-2.324 0.17,-2.324 0.16,-2.321 0.16,-2.324 0.16,-2.324 0.16,-2.32 0.15,-2.325 0.16,-2.324 0.14,-2.324 0.15,-2.32 0.14,-2.325 0.14,-2.324 0.14,-2.32 0.14,-2.324 0.13,-2.325 0.13,-2.32 0.13,-2.324 0.13,-2.324 0.12,-2.321 0.12,-2.324 0.12,-2.324 0.12,-2.32 0.11,-2.325 0.12,-2.324 0.11,-2.32 0.11,-2.324 0.1,-2.325 0.11,-2.32 0.1,-2.324 0.1,-2.324 0.09,-2.321 0.1,-2.324 0.09,-2.324 0.09,-2.32 0.09,-2.325 0.09,-2.324 0.08,-2.32 0.09,-2.324 0.07,-2.325 0.08,-2.324 0.08,-2.32 0.07,-2.324 0.07,-2.321 0.07,-2.324 0.07,-2.324 0.07,-2.324 0.06,-2.321 0.07,-2.324 0.06,-2.324 0.05,-2.32 0.06,-2.325 0.05,-2.324 0.06,-2.32 0.04,-2.324 0.06,-2.325 0.04,-2.32 0.05,-2.324 0.04,-2.324 0.04,-2.321 0.04,-2.324 0.04,-2.324 0.03,-2.32 0.03,-2.325 0.03,-2.324 0.03,-2.32 0.03,-2.324 0.03,-2.325 0.02,-2.32 0.02,-2.324 0.02,-2.324 0.02,-2.321 0.02,-2.324"
             style="fill:none;stroke:#0eff00;stroke-width:4.16667;stroke-linecap:butt;stroke-linejoin:miter;stroke-miterlimit:1;stroke-dasharray:none;stroke-opacity:1"
             id="path224" /><path
             d="m 1935.48,621.242 v 0 l 0.01,-2.324 0.01,-2.32 0.02,-2.325 v -2.324 l 0.01,-2.32 0.01,-2.324 v -2.325 -2.32 -2.324 -2.324 -2.321 l -0.01,-2.324 -0.01,-2.324 v -2.324 l -0.02,-2.321 -0.01,-2.324 -0.01,-2.324 -0.02,-2.32 -0.02,-2.325 -0.02,-2.324 -0.02,-2.32 -0.02,-2.324 -0.03,-2.324 -0.03,-2.321 -0.03,-2.324 -0.03,-2.324 -0.03,-2.321 -0.04,-2.324 -0.03,-2.324 -0.04,-2.32 -0.05,-2.325 -0.04,-2.324 -0.04,-2.32 -0.05,-2.324 -0.05,-2.324"
             style="fill:none;stroke:#0eff00;stroke-width:4.16667;stroke-linecap:butt;stroke-linejoin:miter;stroke-miterlimit:1;stroke-dasharray:none;stroke-opacity:1"
             id="path226" /><path
             d="m 776.633,2990.65 v 0 l 1.676,-2.32 1.675,-2.32 1.676,-2.33 1.676,-2.32 1.672,-2.32 1.676,-2.33 1.675,-2.32 1.676,-2.32 1.672,-2.32 1.676,-2.33 1.676,-2.32 1.671,-2.32 1.676,-2.33 1.672,-2.32 1.676,-2.32 1.672,-2.33 1.676,-2.32 1.671,-2.32 1.672,-2.32 1.676,-2.33 1.672,-2.32 1.672,-2.32 1.676,-2.33 1.672,-2.32 1.671,-2.32 1.672,-2.33 1.672,-2.32 1.672,-2.32 1.672,-2.32 1.672,-2.33 1.672,-2.32 1.672,-2.32 1.671,-2.32 1.672,-2.33 1.672,-2.32 1.672,-2.32 1.672,-2.33 1.672,-2.32 1.668,-2.32 1.672,-2.33 1.671,-2.32 1.672,-2.32 1.668,-2.32 1.672,-2.33 1.672,-2.32 1.668,-2.32 1.672,-2.33 1.668,-2.32 1.672,-2.32 1.672,-2.33 1.668,-2.32 1.671,-2.32 1.668,-2.32 1.672,-2.33 1.668,-2.32 1.668,-2.32 1.672,-2.33 1.668,-2.32 1.672,-2.32 1.668,-2.33 1.668,-2.32 1.668,-2.32 1.672,-2.33 1.668,-2.32 1.668,-2.32 1.672,-2.32 1.668,-2.32 1.668,-2.33 1.667,-2.32 1.668,-2.32 1.672,-2.33 1.668,-2.32 1.668,-2.32 1.668,-2.33 1.668,-2.32 1.668,-2.32 1.668,-2.32 1.668,-2.33 1.668,-2.32 1.668,-2.32 1.668,-2.33 1.668,-2.32 1.668,-2.32 1.668,-2.33 1.668,-2.32 1.668,-2.32 1.668,-2.33 1.668,-2.32 1.664,-2.32 1.668,-2.32 1.668,-2.33 1.668,-2.32 1.668,-2.32 1.668,-2.33 1.668,-2.32 1.664,-2.32 1.668,-2.33 1.668,-2.32 1.668,-2.32 1.664,-2.32 1.668,-2.32 1.668,-2.33 1.668,-2.32 1.664,-2.32 1.668,-2.33 1.668,-2.32 1.664,-2.32 1.668,-2.33 1.664,-2.32 1.668,-2.32 1.668,-2.33 1.664,-2.32 1.668,-2.32 1.668,-2.32 1.664,-2.33 1.668,-2.32 1.664,-2.32 1.668,-2.33 1.664,-2.32 1.668,-2.32 1.664,-2.33 1.668,-2.32 1.664,-2.32 1.668,-2.32 1.664,-2.33 1.668,-2.32 1.664,-2.32 1.668,-2.33 1.664,-2.32 1.664,-2.32 1.668,-2.33 1.664,-2.32 1.668,-2.32 1.662,-2.32 1.67,-2.33 1.66,-2.32 1.67,-2.32 1.67,-2.32 1.66,-2.33 1.66,-2.32 1.67,-2.32 1.67,-2.33 1.66,-2.32 1.67,-2.32 1.66,-2.33 1.67,-2.32 1.66,-2.32 1.67,-2.32 1.66,-2.33 1.67,-2.32 1.66,-2.32 1.67,-2.33 1.66,-2.32 1.67,-2.32 1.66,-2.33 1.67,-2.32 1.66,-2.32 1.67,-2.32 1.66,-2.33 1.67,-2.32 1.66,-2.32 1.67,-2.33 1.66,-2.32 1.67,-2.32 1.66,-2.33 1.66,-2.32 1.67,-2.32 1.67,-2.33 1.66,-2.32 1.66,-2.32 1.67,-2.32 1.66,-2.32 1.67,-2.33 1.66,-2.32 1.66,-2.32 1.67,-2.33 1.66,-2.32 1.67,-2.32 1.66,-2.33 1.67,-2.32 1.66,-2.32 1.67,-2.32 1.66,-2.33 1.66,-2.32 1.67,-2.32 1.66,-2.33 1.67,-2.32 1.66,-2.32 1.66,-2.33 1.67,-2.32 1.66,-2.32 1.67,-2.33 1.66,-2.32 1.66,-2.32 1.67,-2.32 1.66,-2.33 1.66,-2.32 1.67,-2.32 1.66,-2.33 1.67,-2.32 1.66,-2.32 1.66,-2.33 1.67,-2.32 1.66,-2.32 1.66,-2.32 1.67,-2.32 1.66,-2.33 1.66,-2.32 1.67,-2.32 1.66,-2.33 1.66,-2.32 1.67,-2.32 1.66,-2.33 1.66,-2.32 1.67,-2.32 1.66,-2.33 1.66,-2.32 1.67,-2.32 1.66,-2.32 1.66,-2.33 1.67,-2.32 1.66,-2.32 1.66,-2.33 1.66,-2.32 1.67,-2.32 1.66,-2.33 1.66,-2.32 1.67,-2.32 1.66,-2.32 1.66,-2.32 1.66,-2.33 1.67,-2.32 1.66,-2.32 1.66,-2.33 1.67,-2.32 1.66,-2.32 1.66,-2.33 1.66,-2.32 1.66,-2.32 1.66,-2.33 1.67,-2.32 1.66,-2.32 1.66,-2.32 1.67,-2.33 1.66,-2.32 1.66,-2.32 1.66,-2.33 1.67,-2.32 1.66,-2.32 1.66,-2.33 1.66,-2.32 1.66,-2.32 1.66,-2.32 1.66,-2.33 1.67,-2.32 1.66,-2.32 1.66,-2.33 1.66,-2.32 1.67,-2.32 1.66,-2.33 1.66,-2.32 1.66,-2.32 1.66,-2.33 1.66,-2.32 1.67,-2.32 1.66,-2.32 1.66,-2.32 1.66,-2.33 1.66,-2.32 1.66,-2.32 1.66,-2.33 1.66,-2.32 1.66,-2.32 1.66,-2.33 1.67,-2.32 1.66,-2.32 1.66,-2.32 1.66,-2.33 1.66,-2.32 1.66,-2.32 1.66,-2.33 1.66,-2.32 1.66,-2.32 1.66,-2.33 1.66,-2.32 1.66,-2.32 1.66,-2.33 1.66,-2.32 1.66,-2.32 1.66,-2.32 1.66,-2.33 1.66,-2.32 1.66,-2.32 1.66,-2.33 1.66,-2.32 1.66,-2.32 1.65,-2.33 1.66,-2.32 1.66,-2.32 1.67,-2.32 1.66,-2.32 1.65,-2.33 1.66,-2.32 1.66,-2.32 1.66,-2.33 1.66,-2.32 1.65,-2.32 1.66,-2.33 1.66,-2.32 1.66,-2.32 1.66,-2.33 1.66,-2.32 1.66,-2.32 1.65,-2.32 1.66,-2.33 1.66,-2.32 1.66,-2.32 1.66,-2.33 1.65,-2.32 1.66,-2.32 1.66,-2.33 1.66,-2.32 1.65,-2.32 1.66,-2.32 1.65,-2.33 1.66,-2.32 1.66,-2.32 1.66,-2.33 1.65,-2.32 1.66,-2.32 1.66,-2.33 1.65,-2.32 1.66,-2.32 1.65,-2.32 1.66,-2.33 1.65,-2.32 1.66,-2.32 1.66,-2.32 1.65,-2.33 1.65,-2.32 1.66,-2.32 1.65,-2.33 1.66,-2.32 1.66,-2.32 1.65,-2.33 1.65,-2.32 1.66,-2.32 1.65,-2.32 1.65,-2.33 1.66,-2.32 1.65,-2.32 1.66,-2.33 1.65,-2.32 1.65,-2.32 1.65,-2.33 1.66,-2.32 1.65,-2.32 1.65,-2.32 1.65,-2.33 1.65,-2.32 1.66,-2.32 1.65,-2.33 1.65,-2.32 1.65,-2.32 1.65,-2.33 1.65,-2.32 1.65,-2.32 1.66,-2.33 1.64,-2.32 1.66,-2.32 1.64,-2.32 1.66,-2.32 1.65,-2.33 1.64,-2.32 1.65,-2.32 1.65,-2.33 1.65,-2.32 1.65,-2.32 1.65,-2.33 1.64,-2.32 1.65,-2.32 1.65,-2.32 1.65,-2.33 1.64,-2.32 1.65,-2.32 1.65,-2.33 1.65,-2.32 1.64,-2.32 1.65,-2.33 1.64,-2.32 1.65,-2.32 1.64,-2.33 1.65,-2.32 1.64,-2.32 1.65,-2.32 1.64,-2.33 1.64,-2.32 1.65,-2.32 1.64,-2.33 1.64,-2.32 1.65,-2.32 1.64,-2.33 1.64,-2.32 1.64,-2.32 1.64,-2.32 1.64,-2.32 1.64,-2.33 1.64,-2.32 1.64,-2.32 1.64,-2.33 1.64,-2.32 1.64,-2.32 1.64,-2.33 1.64,-2.32 1.64,-2.32 1.63,-2.33 1.64,-2.32 1.64,-2.32 1.63,-2.32 1.64,-2.33 1.63,-2.32 1.64,-2.32 1.63,-2.33 1.63,-2.32 1.64,-2.32 1.63,-2.33 1.64,-2.32 1.63,-2.32 1.63,-2.32 1.63,-2.33 1.63,-2.32 1.63,-2.32 1.64,-2.33 1.63,-2.32 1.62,-2.32 1.63,-2.33 1.63,-2.32 1.63,-2.32 1.63,-2.32 1.62,-2.33 1.63,-2.32 1.62,-2.32 1.63,-2.32 1.62,-2.33 1.63,-2.32 1.62,-2.32 1.63,-2.33 1.62,-2.32 1.62,-2.32 1.62,-2.33 1.62,-2.32 1.62,-2.32 1.62,-2.32 1.62,-2.33 1.62,-2.32 1.62,-2.32 1.62,-2.33 1.61,-2.32 1.62,-2.32 1.61,-2.33 1.62,-2.32 1.61,-2.32 1.61,-2.32 1.61,-2.33 1.62,-2.32 1.6,-2.32 1.62,-2.33 1.61,-2.32 1.6,-2.32 1.61,-2.33 1.61,-2.32 1.61,-2.32 1.6,-2.33 1.61,-2.32 1.6,-2.32 1.6,-2.32 1.61,-2.32 1.6,-2.33 1.6,-2.32 1.6,-2.32 1.59,-2.33 1.6,-2.32 1.6,-2.32 1.6,-2.33 1.59,-2.32 1.6,-2.32 1.59,-2.32 1.59,-2.33 1.59,-2.32 1.6,-2.32 1.58,-2.33 1.59,-2.32 1.59,-2.32 1.59,-2.33 1.58,-2.32 1.59,-2.32 1.58,-2.33 1.58,-2.32 1.58,-2.32 1.58,-2.32 1.58,-2.32 1.58,-2.33 1.57,-2.32 1.58,-2.32 1.58,-2.33 1.57,-2.32 1.57,-2.33 1.57,-2.32 1.57,-2.32 1.57,-2.32"
             style="fill:none;stroke:#0000ff;stroke-width:4.16667;stroke-linecap:butt;stroke-linejoin:miter;stroke-miterlimit:1;stroke-dasharray:none;stroke-opacity:1"
             id="path228" /><path
             d="m 1619.15,1805.95 v 0 l 1.56,-2.32 1.57,-2.33 1.57,-2.32 1.56,-2.32 1.56,-2.33 1.56,-2.32 1.56,-2.32 1.56,-2.33 1.55,-2.32 1.56,-2.32 1.55,-2.33 1.55,-2.32 1.55,-2.32 1.55,-2.32 1.55,-2.33 1.54,-2.32 1.55,-2.32 1.54,-2.33 1.54,-2.32 1.54,-2.32 1.54,-2.33 1.54,-2.32 1.53,-2.32 1.54,-2.32 1.53,-2.32 1.53,-2.33 1.52,-2.32 1.53,-2.32 1.52,-2.33 1.53,-2.32 1.52,-2.32 1.52,-2.33 1.52,-2.32 1.51,-2.33 1.51,-2.32 1.52,-2.32 1.5,-2.32 1.51,-2.32 1.51,-2.33 1.5,-2.32 1.5,-2.32 1.5,-2.33 1.5,-2.32 1.49,-2.32 1.5,-2.33 1.49,-2.32 1.49,-2.32 1.48,-2.32 1.49,-2.33 1.48,-2.32 1.48,-2.32 1.48,-2.33 1.47,-2.32 1.48,-2.32 1.47,-2.33 1.46,-2.32 1.47,-2.32 1.46,-2.33 1.46,-2.32 1.46,-2.32 1.46,-2.32 1.45,-2.32 1.45,-2.33 1.45,-2.32 1.45,-2.32 1.44,-2.33 1.44,-2.32 1.44,-2.33 1.43,-2.32 1.43,-2.32 1.43,-2.32 1.43,-2.32 1.42,-2.33 1.42,-2.32 1.42,-2.32 1.41,-2.33 1.41,-2.32 1.41,-2.32 1.41,-2.33 1.4,-2.32 1.4,-2.32 1.4,-2.33 1.39,-2.32 1.4,-2.32 1.38,-2.32 1.38,-2.33 1.38,-2.32 1.38,-2.32 1.38,-2.33 1.36,-2.32 1.37,-2.32 1.37,-2.33 1.36,-2.32 1.35,-2.32 1.36,-2.32 1.35,-2.32 1.34,-2.33 1.35,-2.32 1.34,-2.32 1.33,-2.33 1.34,-2.32 1.32,-2.32 1.33,-2.33 1.32,-2.32 1.32,-2.32 1.31,-2.33 1.31,-2.32 1.3,-2.32 1.3,-2.32 1.3,-2.33 1.29,-2.32 1.29,-2.32 1.29,-2.33 1.28,-2.32 1.28,-2.32 1.27,-2.33 1.27,-2.32 1.26,-2.32 1.27,-2.32 1.25,-2.33 1.25,-2.32 1.25,-2.32 1.24,-2.33 1.24,-2.32 1.24,-2.32 1.22,-2.33 1.23,-2.32 1.22,-2.32 1.22,-2.32 1.21,-2.33 1.21,-2.32 1.2,-2.32 1.2,-2.32 1.19,-2.33 1.19,-2.32 1.19,-2.32 1.17,-2.33 1.18,-2.32 1.17,-2.32 1.16,-2.33 1.16,-2.32 1.16,-2.32 1.15,-2.32 1.14,-2.33 1.14,-2.32 1.14,-2.32 1.13,-2.33 1.12,-2.32 1.12,-2.32 1.12,-2.33 1.11,-2.32 1.1,-2.32 1.1,-2.32 1.09,-2.33 1.09,-2.32 1.09,-2.32 1.08,-2.33 1.07,-2.32 1.07,-2.32 1.06,-2.33 1.06,-2.32 1.05,-2.32 1.05,-2.33 1.04,-2.32 1.04,-2.32 1.02,-2.32 1.03,-2.32 1.02,-2.33 1.01,-2.32 1.01,-2.32 1,-2.33 1,-2.32 0.99,-2.32 0.99,-2.33 0.98,-2.32 0.97,-2.32 0.98,-2.32 0.96,-2.33 0.95,-2.32 0.96,-2.32 0.95,-2.33 0.94,-2.32 0.93,-2.32 0.93,-2.33 0.93,-2.32 0.91,-2.32 0.91,-2.33 0.91,-2.32 0.9,-2.32 0.9,-2.32 0.89,-2.33 0.88,-2.32 0.88,-2.32 0.87,-2.33 0.87,-2.32 0.86,-2.32 0.86,-2.33 0.84,-2.32 0.85,-2.32 0.83,-2.32 0.84,-2.32 0.82,-2.33 0.82,-2.32 0.82,-2.32 0.81,-2.33 0.8,-2.32 0.8,-2.32 0.79,-2.33 0.79,-2.32 0.78,-2.32 0.77,-2.33 0.77,-2.32 0.76,-2.32 0.76,-2.32 0.75,-2.33 0.75,-2.32 0.73,-2.32 0.74,-2.33 0.72,-2.32 0.73,-2.32 0.72,-2.33 0.71,-2.32 0.7,-2.32 0.7,-2.32 0.7,-2.33 0.69,-2.32 0.68,-2.32 0.68,-2.33 0.67,-2.32 0.66,-2.32 0.67,-2.33 0.65,-2.32 0.65,-2.32 0.64,-2.32 0.64,-2.33 0.64,-2.32 0.62,-2.32 0.63,-2.32 0.61,-2.33 0.61,-2.32 0.61,-2.32 0.6,-2.33 0.6,-2.32 0.59,-2.32 0.58,-2.33 0.58,-2.32 0.58,-2.32 0.56,-2.32 0.57,-2.33 0.56,-2.32 0.55,-2.32 0.55,-2.33 0.54,-2.32 0.54,-2.32 0.53,-2.33 0.53,-2.32 0.52,-2.32 0.52,-2.32 0.52,-2.33 0.5,-2.32 0.51,-2.32 0.49,-2.33 0.5,-2.32 0.49,-2.32 0.48,-2.33 0.48,-2.32 0.48,-2.32 0.46,-2.33 0.47,-2.32 0.46,-2.32 0.45,-2.32 0.46,-2.32 0.44,-2.33 0.44,-2.32 0.44,-2.32 0.43,-2.33 0.43,-2.32 0.43,-2.32 0.41,-2.33 0.42,-2.32 0.41,-2.32 0.4,-2.32 0.41,-2.33 0.39,-2.32 0.4,-2.32 0.39,-2.33 0.38,-2.32 0.38,-2.32 0.38,-2.33 0.37,-2.32 0.37,-2.32 0.37,-2.33 0.36,-2.32 0.35,-2.32 0.36,-2.32 0.34,-2.32 0.35,-2.33 0.34,-2.32 0.34,-2.33 0.33,-2.32 0.33,-2.32 0.33,-2.33 0.32,-2.32 0.32,-2.32 0.31,-2.32 0.31,-2.32 0.31,-2.33 0.3,-2.32 0.31,-2.32 0.29,-2.33 0.29,-2.32 0.3,-2.32 0.28,-2.33 0.29,-2.32 0.28,-2.32 0.27,-2.33 0.28,-2.32 0.27,-2.32 0.27,-2.32 0.26,-2.33 0.26,-2.32 0.26,-2.32 0.25,-2.33 0.25,-2.32 0.25,-2.32 0.25,-2.33 0.24,-2.32 0.24,-2.32 0.24,-2.32 0.23,-2.32 0.23,-2.33 0.23,-2.32 0.22,-2.33 0.22,-2.32 0.22,-2.32 0.22,-2.33 0.21,-2.32 0.21,-2.32 0.21,-2.33 0.21,-2.32 0.2,-2.32 0.2,-2.32 0.2,-2.32 0.19,-2.33 0.19,-2.32 0.2,-2.32 0.18,-2.327 0.19,-2.324 0.18,-2.321 0.18,-2.324 0.18,-2.324 0.18,-2.32 0.17,-2.325 0.17,-2.324 0.17,-2.32 0.16,-2.324 0.17,-2.325 0.16,-2.32 0.16,-2.324 0.16,-2.324 0.15,-2.321 0.15,-2.324 0.16,-2.324 0.14,-2.32 0.15,-2.325 0.15,-2.324 0.14,-2.32 0.14,-2.324 0.14,-2.325 0.14,-2.324 0.13,-2.32 0.13,-2.324 0.13,-2.325 0.13,-2.32 0.13,-2.324 0.13,-2.324 0.12,-2.321 0.12,-2.324 0.12,-2.324 0.12,-2.32 0.12,-2.325 0.11,-2.324 0.11,-2.32 0.11,-2.324 0.11,-2.325 0.11,-2.32 0.11,-2.324 0.1,-2.324 0.1,-2.321 0.1,-2.324 0.1,-2.324 0.1,-2.32 0.1,-2.325 0.09,-2.324 0.09,-2.32 0.09,-2.324 0.09,-2.325 0.09,-2.32 0.09,-2.324 0.08,-2.324 0.09,-2.321 0.08,-2.324 0.08,-2.324 0.08,-2.32 0.08,-2.325 0.08,-2.324 0.07,-2.324 0.07,-2.32 0.08,-2.325 0.07,-2.324 0.07,-2.32 0.07,-2.324 0.06,-2.325 0.07,-2.32 0.06,-2.324 0.06,-2.324 0.07,-2.321 0.05,-2.324 0.07,-2.324 0.05,-2.32 0.06,-2.325 0.06,-2.324 0.05,-2.32 0.05,-2.324 0.06,-2.325 0.05,-2.32 0.04,-2.324 0.05,-2.324 0.05,-2.321 0.04,-2.324 0.05,-2.324 0.04,-2.32 0.04,-2.325 0.05,-2.324 0.03,-2.32 0.04,-2.324 0.04,-2.325 0.04,-2.32 0.03,-2.324 0.04,-2.324 0.03,-2.321 0.03,-2.324 0.03,-2.324 0.03,-2.32 0.03,-2.325 0.03,-2.324 0.03,-2.324 0.02,-2.32 0.03,-2.325 0.02,-2.324 0.02,-2.32 0.02,-2.324 0.02,-2.325 0.02,-2.32 0.02,-2.324 0.02,-2.324 0.01,-2.321 0.02,-2.324 0.01,-2.324 0.01,-2.32 0.01,-2.325 0.01,-2.324 0.02,-2.32 v -2.324 l 0.01,-2.325 0.01,-2.32 v -2.324 l 0.01,-2.324 v -2.321 l 0.01,-2.324 v -2.324 -2.32 -2.325 -2.324 l -0.01,-2.32 v -2.324 l -0.01,-2.325 v -2.324 l -0.01,-2.32 -0.01,-2.324 -0.01,-2.321 -0.01,-2.324 -0.01,-2.324 -0.01,-2.324 -0.01,-2.321 -0.02,-2.324 -0.01,-2.324 -0.02,-2.32 -0.01,-2.325 -0.02,-2.324 -0.02,-2.32 -0.02,-2.324 -0.02,-2.325 -0.02,-2.32 -0.03,-2.324 -0.03,-2.324 -0.02,-2.321 -0.03,-2.324 -0.02,-2.324 -0.03,-2.32 -0.03,-2.325 -0.03,-2.324 -0.04,-2.32 -0.03,-2.324 -0.03,-2.325 -0.04,-2.32 -0.04,-2.324 -0.03,-2.324 -0.04,-2.321 -0.05,-2.324"
             style="fill:none;stroke:#0000ff;stroke-width:4.16667;stroke-linecap:butt;stroke-linejoin:miter;stroke-miterlimit:1;stroke-dasharray:none;stroke-opacity:1"
             id="path230" /><path
             d="m 1954,621.242 v 0 l -0.04,-2.324 -0.04,-2.32 -0.04,-2.325 -0.04,-2.324 -0.05,-2.32 -0.05,-2.324 -0.05,-2.325 -0.05,-2.32 -0.05,-2.324 -0.05,-2.324 -0.05,-2.321 -0.06,-2.324 -0.05,-2.324 -0.06,-2.324 -0.06,-2.321 -0.06,-2.324 -0.06,-2.324 -0.06,-2.32 -0.06,-2.325 -0.07,-2.324 -0.06,-2.32 -0.07,-2.324 -0.07,-2.324 -0.07,-2.321 -0.07,-2.324 -0.07,-2.324 -0.08,-2.321 -0.07,-2.324 -0.08,-2.324 -0.08,-2.32 -0.08,-2.325 -0.08,-2.324 -0.09,-2.32 -0.08,-2.324 -0.08,-2.324"
             style="fill:none;stroke:#0000ff;stroke-width:4.16667;stroke-linecap:butt;stroke-linejoin:miter;stroke-miterlimit:1;stroke-dasharray:none;stroke-opacity:1"
             id="path232" /><path
             d="m 981.723,2990.65 v 0 l 1.675,-2.32 1.676,-2.32 1.676,-2.33 1.676,-2.32 1.672,-2.32 1.675,-2.33 1.676,-2.32 1.676,-2.32 1.672,-2.32 1.676,-2.33 1.667,-2.32 1.68,-2.32 1.67,-2.33 1.68,-2.32 1.67,-2.32 1.67,-2.33 1.68,-2.32 1.67,-2.32 1.67,-2.32 1.67,-2.33 1.68,-2.32 1.67,-2.32 1.67,-2.33 1.67,-2.32 1.68,-2.32 1.67,-2.33 1.67,-2.32 1.67,-2.32 1.67,-2.32 1.68,-2.33 1.67,-2.32 1.67,-2.32 1.67,-2.32 1.67,-2.33 1.67,-2.32 1.67,-2.32 1.68,-2.33 1.66,-2.32 1.67,-2.32 1.68,-2.33 1.66,-2.32 1.68,-2.32 1.66,-2.32 1.68,-2.33 1.66,-2.32 1.68,-2.32 1.66,-2.33 1.68,-2.32 1.66,-2.32 1.68,-2.33 1.66,-2.32 1.67,-2.32 1.67,-2.32 1.67,-2.33 1.67,-2.32 1.67,-2.32 1.67,-2.33 1.67,-2.32 1.67,-2.32 1.66,-2.33 1.67,-2.32 1.67,-2.32 1.67,-2.33 1.67,-2.32 1.67,-2.32 1.67,-2.32 1.66,-2.32 1.67,-2.33 1.67,-2.32 1.67,-2.32 1.67,-2.33 1.66,-2.32 1.67,-2.32 1.67,-2.33 1.66,-2.32 1.67,-2.32 1.67,-2.32 1.67,-2.33 1.66,-2.32 1.67,-2.32 1.67,-2.33 1.66,-2.32 1.67,-2.32 1.67,-2.33 1.66,-2.32 1.67,-2.32 1.67,-2.33 1.66,-2.32 1.67,-2.32 1.67,-2.32 1.66,-2.33 1.67,-2.32 1.67,-2.32 1.66,-2.33 1.67,-2.32 1.66,-2.32 1.67,-2.33 1.67,-2.32 1.66,-2.32 1.67,-2.32 1.66,-2.32 1.67,-2.33 1.66,-2.32 1.67,-2.32 1.67,-2.33 1.66,-2.32 1.66,-2.32 1.67,-2.33 1.67,-2.32 1.66,-2.32 1.66,-2.33 1.67,-2.32 1.67,-2.32 1.66,-2.32 1.66,-2.33 1.67,-2.32 1.66,-2.32 1.67,-2.33 1.66,-2.32 1.67,-2.32 1.66,-2.33 1.67,-2.32 1.66,-2.32 1.66,-2.32 1.67,-2.33 1.66,-2.32 1.67,-2.32 1.66,-2.33 1.66,-2.32 1.67,-2.32 1.66,-2.33 1.67,-2.32 1.66,-2.32 1.66,-2.32 1.66,-2.33 1.67,-2.32 1.66,-2.32 1.66,-2.32 1.67,-2.33 1.66,-2.32 1.67,-2.32 1.66,-2.33 1.66,-2.32 1.66,-2.32 1.67,-2.33 1.66,-2.32 1.66,-2.32 1.66,-2.32 1.67,-2.33 1.66,-2.32 1.66,-2.32 1.66,-2.33 1.66,-2.32 1.67,-2.32 1.66,-2.33 1.66,-2.32 1.66,-2.32 1.67,-2.32 1.66,-2.33 1.66,-2.32 1.66,-2.32 1.66,-2.33 1.67,-2.32 1.66,-2.32 1.66,-2.33 1.66,-2.32 1.66,-2.32 1.66,-2.33 1.66,-2.32 1.66,-2.32 1.66,-2.32 1.66,-2.32 1.67,-2.33 1.66,-2.32 1.66,-2.32 1.66,-2.33 1.66,-2.32 1.66,-2.32 1.66,-2.33 1.66,-2.32 1.66,-2.32 1.66,-2.32 1.66,-2.33 1.66,-2.32 1.66,-2.32 1.66,-2.33 1.65,-2.32 1.66,-2.32 1.66,-2.33 1.66,-2.32 1.66,-2.32 1.66,-2.33 1.66,-2.32 1.66,-2.32 1.66,-2.32 1.66,-2.33 1.65,-2.32 1.66,-2.32 1.66,-2.33 1.66,-2.32 1.66,-2.32 1.66,-2.33 1.65,-2.32 1.66,-2.32 1.66,-2.32 1.66,-2.32 1.65,-2.33 1.66,-2.32 1.66,-2.32 1.65,-2.33 1.66,-2.32 1.66,-2.32 1.65,-2.33 1.66,-2.32 1.66,-2.32 1.66,-2.33 1.65,-2.32 1.65,-2.32 1.66,-2.32 1.66,-2.33 1.65,-2.32 1.66,-2.32 1.66,-2.33 1.65,-2.32 1.65,-2.32 1.66,-2.33 1.65,-2.32 1.66,-2.32 1.65,-2.32 1.66,-2.32 1.65,-2.33 1.66,-2.32 1.65,-2.32 1.65,-2.33 1.66,-2.32 1.65,-2.32 1.65,-2.33 1.65,-2.32 1.66,-2.32 1.65,-2.33 1.65,-2.32 1.66,-2.32 1.65,-2.32 1.65,-2.33 1.65,-2.32 1.65,-2.32 1.65,-2.33 1.66,-2.32 1.65,-2.32 1.65,-2.33 1.65,-2.32 1.65,-2.32 1.65,-2.32 1.65,-2.33 1.65,-2.32 1.65,-2.32 1.65,-2.33 1.65,-2.32 1.65,-2.32 1.64,-2.33 1.65,-2.32 1.65,-2.32 1.65,-2.33 1.64,-2.32 1.65,-2.32 1.65,-2.32 1.65,-2.32 1.64,-2.33 1.65,-2.32 1.65,-2.32 1.64,-2.33 1.65,-2.32 1.64,-2.32 1.65,-2.33 1.64,-2.32 1.65,-2.32 1.64,-2.32 1.65,-2.33 1.64,-2.32 1.65,-2.32 1.64,-2.33 1.64,-2.32 1.64,-2.32 1.65,-2.33 1.64,-2.32 1.64,-2.32 1.64,-2.33 1.64,-2.32 1.64,-2.32 1.64,-2.32 1.64,-2.33 1.64,-2.32 1.64,-2.32 1.64,-2.33 1.64,-2.32 1.64,-2.32 1.63,-2.33 1.64,-2.32 1.64,-2.32 1.64,-2.32 1.63,-2.32 1.64,-2.33 1.63,-2.32 1.64,-2.32 1.63,-2.33 1.64,-2.32 1.63,-2.32 1.63,-2.33 1.64,-2.32 1.63,-2.32 1.63,-2.33 1.63,-2.32 1.64,-2.32 1.63,-2.32 1.63,-2.33 1.63,-2.32 1.62,-2.32 1.63,-2.33 1.63,-2.32 1.63,-2.32 1.63,-2.33 1.63,-2.32 1.62,-2.32 1.63,-2.32 1.62,-2.33 1.63,-2.32 1.62,-2.32 1.63,-2.33 1.62,-2.32 1.62,-2.32 1.62,-2.33 1.62,-2.32 1.62,-2.32 1.63,-2.32 1.61,-2.33 1.62,-2.32 1.62,-2.32 1.62,-2.32 1.62,-2.33 1.61,-2.32 1.62,-2.32 1.61,-2.33 1.62,-2.32 1.61,-2.32 1.61,-2.33 1.62,-2.32 1.61,-2.32 1.61,-2.32 1.61,-2.33 1.61,-2.32 1.61,-2.32 1.61,-2.33 1.6,-2.32 1.61,-2.32 1.6,-2.33 1.61,-2.32 1.6,-2.32 1.61,-2.32 1.6,-2.33 1.6,-2.32 1.6,-2.32 1.6,-2.33 1.6,-2.32 1.6,-2.32 1.59,-2.33 1.6,-2.32 1.6,-2.32 1.59,-2.33 1.59,-2.32 1.6,-2.32 1.59,-2.32 1.59,-2.32 1.59,-2.33 1.59,-2.32 1.59,-2.32 1.58,-2.33 1.58,-2.32 1.59,-2.32 1.58,-2.33 1.58,-2.32 1.59,-2.32 1.58,-2.32 1.58,-2.33 1.57,-2.32 1.58,-2.32 1.58,-2.33 1.57,-2.32 1.58,-2.32 1.57,-2.33 1.57,-2.32 1.57,-2.32 1.56,-2.33 1.57,-2.32 1.57,-2.32 1.56,-2.32 1.56,-2.33 1.57,-2.32 1.56,-2.32 1.55,-2.33 1.56,-2.32 1.56,-2.32 1.55,-2.33 1.56,-2.32 1.55,-2.32 1.55,-2.32 1.55,-2.32 1.55,-2.33 1.54,-2.32 1.55,-2.32 1.54,-2.33 1.54,-2.32 1.54,-2.32 1.54,-2.33 1.54,-2.32 1.53,-2.32 1.53,-2.33 1.53,-2.32 1.53,-2.32 1.53,-2.32 1.53,-2.33 1.52,-2.32 1.53,-2.32 1.52,-2.33 1.51,-2.32 1.52,-2.32 1.52,-2.33 1.51,-2.32 1.51,-2.32 1.51,-2.32 1.51,-2.33 1.5,-2.32 1.51,-2.32 1.5,-2.33 1.5,-2.32 1.5,-2.32 1.49,-2.33 1.5,-2.32 1.48,-2.32 1.5,-2.32 1.48,-2.33 1.48,-2.32 1.49,-2.32 1.48,-2.32 1.48,-2.33 1.47,-2.32 1.47,-2.32 1.47,-2.33 1.47,-2.32 1.47,-2.32 1.46,-2.33 1.46,-2.32 1.46,-2.32 1.46,-2.32 1.45,-2.33 1.45,-2.32 1.45,-2.32 1.44,-2.33 1.45,-2.32 1.44,-2.32 1.43,-2.33 1.44,-2.32 1.43,-2.32 1.43,-2.32 1.43,-2.33 1.42,-2.32 1.42,-2.32 1.42,-2.33 1.41,-2.32 1.42,-2.32 1.4,-2.33 1.41,-2.32 1.4,-2.32 1.4,-2.33 1.4,-2.32 1.39,-2.32 1.39,-2.32 1.39,-2.32 1.38,-2.33 1.39,-2.32 1.37,-2.32 1.38,-2.33 1.37,-2.32 1.36,-2.32 1.37,-2.33 1.36,-2.32 1.36,-2.32 1.35,-2.32 1.35,-2.33 1.35,-2.32 1.34,-2.32 1.34,-2.33 1.33,-2.32 1.34,-2.32 1.33,-2.33 1.32,-2.32 1.32,-2.32 1.32,-2.33 1.31,-2.32 1.31,-2.32 1.3,-2.32 1.31,-2.32 1.3,-2.33 1.29,-2.32 1.29,-2.32 1.28,-2.33 1.28,-2.32 1.28,-2.33 1.27,-2.32 1.27,-2.32 1.27,-2.32"
             style="fill:none;stroke:#ff0000;stroke-width:4.16667;stroke-linecap:butt;stroke-linejoin:miter;stroke-miterlimit:1;stroke-dasharray:none;stroke-opacity:1"
             id="path234" /><path
             d="m 1798.36,1805.95 v 0 l 1.26,-2.32 1.26,-2.33 1.25,-2.32 1.25,-2.32 1.24,-2.33 1.24,-2.32 1.23,-2.32 1.23,-2.33 1.23,-2.32 1.22,-2.32 1.21,-2.33 1.22,-2.32 1.21,-2.32 1.2,-2.32 1.19,-2.33 1.2,-2.32 1.19,-2.32 1.18,-2.33 1.18,-2.32 1.18,-2.32 1.16,-2.33 1.17,-2.32 1.16,-2.32 1.16,-2.32 1.15,-2.32 1.14,-2.33 1.14,-2.32 1.14,-2.32 1.13,-2.33 1.12,-2.32 1.12,-2.32 1.12,-2.33 1.11,-2.32 1.1,-2.33 1.1,-2.32 1.1,-2.32 1.09,-2.32 1.08,-2.32 1.08,-2.33 1.08,-2.32 1.06,-2.32 1.06,-2.33 1.06,-2.32 1.05,-2.32 1.05,-2.33 1.04,-2.32 1.04,-2.32 1.03,-2.32 1.03,-2.33 1.02,-2.32 1.01,-2.32 1.01,-2.33 1,-2.32 1,-2.32 0.99,-2.33 0.99,-2.32 0.98,-2.32 0.97,-2.33 0.97,-2.32 0.97,-2.32 0.96,-2.32 0.95,-2.32 0.95,-2.33 0.94,-2.32 0.94,-2.32 0.93,-2.33 0.92,-2.32 0.92,-2.33 0.91,-2.32 0.91,-2.32 0.9,-2.32 0.9,-2.32 0.89,-2.33 0.88,-2.32 0.88,-2.32 0.87,-2.33 0.87,-2.32 0.86,-2.32 0.86,-2.33 0.85,-2.32 0.84,-2.32 0.84,-2.33 0.83,-2.32 0.83,-2.32 0.82,-2.32 0.81,-2.33 0.81,-2.32 0.81,-2.32 0.79,-2.33 0.8,-2.32 0.78,-2.32 0.78,-2.33 0.78,-2.32 0.77,-2.32 0.76,-2.32 0.76,-2.32 0.75,-2.33 0.75,-2.32 0.74,-2.32 0.73,-2.33 0.73,-2.32 0.73,-2.32 0.71,-2.33 0.72,-2.32 0.7,-2.32 0.7,-2.33 0.7,-2.32 0.69,-2.32 0.68,-2.32 0.68,-2.33 0.67,-2.32 0.67,-2.32 0.66,-2.33 0.66,-2.32 0.65,-2.32 0.65,-2.33 0.64,-2.32 0.63,-2.32 0.63,-2.32 0.62,-2.33 0.62,-2.32 0.61,-2.32 0.61,-2.33 0.6,-2.32 0.6,-2.32 0.59,-2.33 0.59,-2.32 0.58,-2.32 0.57,-2.32 0.57,-2.33 0.57,-2.32 0.56,-2.32 0.55,-2.32 0.55,-2.33 0.55,-2.32 0.54,-2.32 0.53,-2.33 0.53,-2.32 0.53,-2.32 0.52,-2.33 0.51,-2.32 0.51,-2.32 0.5,-2.32 0.5,-2.33 0.5,-2.32 0.49,-2.32 0.49,-2.33 0.48,-2.32 0.47,-2.32 0.47,-2.33 0.47,-2.32 0.46,-2.32 0.46,-2.32 0.45,-2.33 0.45,-2.32 0.44,-2.32 0.44,-2.33 0.44,-2.32 0.43,-2.32 0.42,-2.33 0.42,-2.32 0.42,-2.32 0.41,-2.33 0.41,-2.32 0.4,-2.32 0.4,-2.32 0.4,-2.32 0.39,-2.33 0.39,-2.32 0.38,-2.32 0.38,-2.33 0.38,-2.32 0.37,-2.32 0.36,-2.33 0.37,-2.32 0.36,-2.32 0.35,-2.32 0.35,-2.33 0.35,-2.32 0.35,-2.32 0.34,-2.33 0.33,-2.32 0.33,-2.32 0.33,-2.33 0.33,-2.32 0.32,-2.32 0.32,-2.33 0.31,-2.32 0.31,-2.32 0.31,-2.32 0.3,-2.33 0.3,-2.32 0.3,-2.32 0.29,-2.33 0.29,-2.32 0.29,-2.32 0.28,-2.33 0.29,-2.32 0.27,-2.32 0.28,-2.32 0.27,-2.32 0.27,-2.33 0.26,-2.32 0.26,-2.32 0.26,-2.33 0.25,-2.32 0.25,-2.32 0.25,-2.33 0.25,-2.32 0.24,-2.32 0.24,-2.33 0.24,-2.32 0.24,-2.32 0.23,-2.32 0.23,-2.33 0.23,-2.32 0.22,-2.32 0.22,-2.33 0.22,-2.32 0.21,-2.32 0.21,-2.33 0.22,-2.32 0.2,-2.32 0.21,-2.32 0.2,-2.33 0.2,-2.32 0.2,-2.32 0.2,-2.33 0.19,-2.32 0.19,-2.32 0.19,-2.33 0.18,-2.32 0.19,-2.32 0.18,-2.32 0.18,-2.33 0.18,-2.32 0.17,-2.32 0.17,-2.32 0.17,-2.33 0.17,-2.32 0.17,-2.32 0.16,-2.33 0.16,-2.32 0.16,-2.32 0.16,-2.33 0.16,-2.32 0.15,-2.32 0.15,-2.32 0.15,-2.33 0.15,-2.32 0.15,-2.32 0.14,-2.33 0.14,-2.32 0.14,-2.32 0.14,-2.33 0.14,-2.32 0.13,-2.32 0.14,-2.32 0.13,-2.33 0.13,-2.32 0.13,-2.32 0.12,-2.33 0.13,-2.32 0.12,-2.32 0.12,-2.33 0.12,-2.32 0.12,-2.32 0.12,-2.33 0.11,-2.32 0.12,-2.32 0.11,-2.32 0.11,-2.32 0.11,-2.33 0.1,-2.32 0.11,-2.32 0.11,-2.33 0.1,-2.32 0.1,-2.32 0.1,-2.33 0.1,-2.32 0.1,-2.32 0.1,-2.32 0.09,-2.33 0.09,-2.32 0.1,-2.32 0.09,-2.33 0.09,-2.32 0.09,-2.32 0.08,-2.33 0.09,-2.32 0.09,-2.32 0.08,-2.33 0.08,-2.32 0.09,-2.32 0.07,-2.32 0.08,-2.32 0.08,-2.33 0.08,-2.32 0.08,-2.33 0.07,-2.32 0.07,-2.32 0.08,-2.33 0.07,-2.32 0.07,-2.32 0.07,-2.32 0.07,-2.32 0.06,-2.33 0.07,-2.32 0.07,-2.32 0.06,-2.33 0.06,-2.32 0.07,-2.32 0.06,-2.33 0.06,-2.32 0.06,-2.32 0.06,-2.33 0.05,-2.32 0.06,-2.32 0.06,-2.32 0.06,-2.33 0.05,-2.32 0.05,-2.32 0.06,-2.33 0.05,-2.32 0.05,-2.32 0.05,-2.33 0.05,-2.32 0.05,-2.32 0.04,-2.32 0.05,-2.32 0.05,-2.33 0.04,-2.32 0.05,-2.33 0.04,-2.32 0.05,-2.32 0.04,-2.33 0.04,-2.32 0.04,-2.32 0.04,-2.33 0.04,-2.32 0.04,-2.32 0.04,-2.32 0.04,-2.32 0.03,-2.33 0.04,-2.32 0.04,-2.32 0.03,-2.327 0.04,-2.324 0.03,-2.321 0.03,-2.324 0.03,-2.324 0.04,-2.32 0.03,-2.325 0.03,-2.324 0.02,-2.32 0.04,-2.324 0.02,-2.325 0.03,-2.32 0.03,-2.324 0.03,-2.324 0.02,-2.321 0.03,-2.324 0.02,-2.324 0.03,-2.32 0.02,-2.325 0.02,-2.324 0.03,-2.32 0.02,-2.324 0.02,-2.325 0.02,-2.324 0.02,-2.32 0.02,-2.324 0.02,-2.325 0.02,-2.32 0.02,-2.324 0.02,-2.324 0.02,-2.321 0.01,-2.324 0.02,-2.324 0.01,-2.32 0.02,-2.325 0.01,-2.324 0.02,-2.32 0.01,-2.324 0.02,-2.325 0.01,-2.32 0.01,-2.324 0.01,-2.324 0.01,-2.321 0.02,-2.324 v -2.324 l 0.02,-2.32 v -2.325 l 0.02,-2.324 v -2.32 l 0.01,-2.324 0.01,-2.325 v -2.32 l 0.01,-2.324 0.01,-2.324 v -2.321 l 0.01,-2.324 v -2.324 l 0.01,-2.32 v -2.325 -2.324 l 0.01,-2.324 v -2.32 -2.325 -2.324 -2.32 -2.324 -2.325 -2.32 -2.324 -2.324 -2.321 -2.324 l -0.01,-2.324 v -2.32 l -0.01,-2.325 v -2.324 -2.32 l -0.01,-2.324 -0.01,-2.325 v -2.32 l -0.01,-2.324 -0.01,-2.324 v -2.321 l -0.01,-2.324 -0.01,-2.324 -0.01,-2.32 -0.01,-2.325 -0.01,-2.324 -0.01,-2.32 -0.01,-2.324 -0.01,-2.325 -0.01,-2.32 -0.01,-2.324 -0.02,-2.324 -0.01,-2.321 -0.02,-2.324 -0.01,-2.324 -0.01,-2.32 -0.02,-2.325 -0.02,-2.324 -0.02,-2.324 -0.01,-2.32 -0.02,-2.325 -0.02,-2.324 -0.02,-2.32 -0.02,-2.324 -0.01,-2.325 -0.02,-2.32 -0.02,-2.324 -0.03,-2.324 -0.02,-2.321 -0.02,-2.324 -0.02,-2.324 -0.03,-2.32 -0.02,-2.325 -0.03,-2.324 -0.02,-2.32 -0.03,-2.324 -0.03,-2.325 -0.02,-2.32 -0.03,-2.324 -0.03,-2.324 -0.03,-2.321 -0.03,-2.324 -0.03,-2.324 -0.03,-2.32 -0.03,-2.325 -0.03,-2.324 -0.03,-2.32 -0.03,-2.324 -0.04,-2.325 -0.03,-2.324 -0.04,-2.32 -0.03,-2.324 -0.04,-2.321 -0.04,-2.324 -0.04,-2.324 -0.04,-2.324 -0.04,-2.321 -0.04,-2.324 -0.03,-2.324 -0.05,-2.32 -0.04,-2.325 -0.04,-2.324 -0.05,-2.32 -0.04,-2.324 -0.05,-2.325 -0.04,-2.32 -0.05,-2.324 -0.05,-2.324 -0.04,-2.321 -0.05,-2.324 -0.06,-2.324 -0.04,-2.32 -0.06,-2.325 -0.05,-2.324 -0.05,-2.32 -0.05,-2.324 -0.06,-2.325 -0.06,-2.32 -0.05,-2.324 -0.06,-2.324 -0.06,-2.321 -0.06,-2.324"
             style="fill:none;stroke:#ff0000;stroke-width:4.16667;stroke-linecap:butt;stroke-linejoin:miter;stroke-miterlimit:1;stroke-dasharray:none;stroke-opacity:1"
             id="path236" /><path
             d="m 1963.95,621.242 v 0 l -0.06,-2.324 -0.06,-2.32 -0.06,-2.325 -0.06,-2.324 -0.07,-2.32 -0.06,-2.324 -0.07,-2.325 -0.06,-2.32 -0.07,-2.324 -0.07,-2.324 -0.07,-2.321 -0.08,-2.324 -0.07,-2.324 -0.07,-2.324 -0.07,-2.321 -0.08,-2.324 -0.08,-2.324 -0.08,-2.32 -0.07,-2.325 -0.08,-2.324 -0.08,-2.32 -0.09,-2.324 -0.08,-2.324 -0.08,-2.321 -0.09,-2.324 -0.09,-2.324 -0.09,-2.321 -0.08,-2.324 -0.09,-2.324 -0.09,-2.32 -0.1,-2.325 -0.09,-2.324 -0.1,-2.32 -0.1,-2.324 -0.1,-2.324"
             style="fill:none;stroke:#ff0000;stroke-width:4.16667;stroke-linecap:butt;stroke-linejoin:miter;stroke-miterlimit:1;stroke-dasharray:none;stroke-opacity:1"
             id="path238" /><path
             d="m 1531.2,2990.65 v 0 l 1.64,-2.32 1.63,-2.32 1.63,-2.33 1.63,-2.32 1.64,-2.32 1.63,-2.33 1.63,-2.32 1.62,-2.32 1.63,-2.32 1.63,-2.33 1.63,-2.32 1.62,-2.32 1.63,-2.33 1.62,-2.32 1.62,-2.32 1.63,-2.33 1.62,-2.32 1.62,-2.32 1.62,-2.32 1.62,-2.33 1.62,-2.32 1.62,-2.32 1.61,-2.33 1.62,-2.32 1.61,-2.32 1.62,-2.33 1.61,-2.32 1.61,-2.32 1.61,-2.32 1.61,-2.33 1.61,-2.32 1.61,-2.32 1.61,-2.32 1.61,-2.33 1.6,-2.32 1.6,-2.32 1.61,-2.33 1.6,-2.32 1.6,-2.32 1.6,-2.33 1.6,-2.32 1.6,-2.32 1.6,-2.32 1.59,-2.33 1.6,-2.32 1.6,-2.32 1.59,-2.33 1.59,-2.32 1.59,-2.32 1.59,-2.33 1.59,-2.32 1.58,-2.32 1.59,-2.32 1.59,-2.33 1.58,-2.32 1.58,-2.32 1.58,-2.33 1.58,-2.32 1.58,-2.32 1.58,-2.33 1.58,-2.32 1.57,-2.32 1.58,-2.33 1.57,-2.32 1.57,-2.32 1.57,-2.32 1.57,-2.32 1.57,-2.33 1.56,-2.32 1.56,-2.32 1.57,-2.33 1.56,-2.32 1.56,-2.32 1.56,-2.33 1.55,-2.32 1.56,-2.32 1.55,-2.32 1.56,-2.33 1.55,-2.32 1.55,-2.32 1.54,-2.33 1.55,-2.32 1.54,-2.32 1.55,-2.33 1.54,-2.32 1.53,-2.32 1.54,-2.33 1.54,-2.32 1.53,-2.32 1.54,-2.32 1.53,-2.33 1.52,-2.32 1.53,-2.32 1.52,-2.33 1.53,-2.32 1.52,-2.32 1.52,-2.33 1.52,-2.32 1.51,-2.32 1.52,-2.32 1.51,-2.32 1.51,-2.33 1.51,-2.32 1.5,-2.32 1.5,-2.33 1.51,-2.32 1.5,-2.32 1.49,-2.33 1.5,-2.32 1.49,-2.32 1.49,-2.33 1.49,-2.32 1.49,-2.32 1.48,-2.32 1.48,-2.33 1.48,-2.32 1.47,-2.32 1.48,-2.33 1.47,-2.32 1.47,-2.32 1.47,-2.33 1.46,-2.32 1.47,-2.32 1.45,-2.32 1.46,-2.33 1.46,-2.32 1.45,-2.32 1.45,-2.33 1.45,-2.32 1.44,-2.32 1.44,-2.33 1.44,-2.32 1.43,-2.32 1.44,-2.32 1.43,-2.33 1.42,-2.32 1.43,-2.32 1.42,-2.32 1.42,-2.33 1.41,-2.32 1.42,-2.32 1.4,-2.33 1.41,-2.32 1.4,-2.32 1.4,-2.33 1.4,-2.32 1.4,-2.32 1.39,-2.32 1.38,-2.33 1.39,-2.32 1.38,-2.32 1.38,-2.33 1.37,-2.32 1.37,-2.32 1.37,-2.33 1.36,-2.32 1.36,-2.32 1.36,-2.32 1.35,-2.33 1.36,-2.32 1.34,-2.32 1.34,-2.33 1.34,-2.32 1.34,-2.32 1.33,-2.33 1.33,-2.32 1.32,-2.32 1.32,-2.33 1.32,-2.32 1.31,-2.32 1.31,-2.32 1.31,-2.32 1.3,-2.33 1.3,-2.32 1.29,-2.32 1.29,-2.33 1.29,-2.32 1.28,-2.32 1.27,-2.33 1.27,-2.32 1.27,-2.32 1.27,-2.32 1.26,-2.33 1.25,-2.32 1.25,-2.32 1.25,-2.33 1.25,-2.32 1.23,-2.32 1.24,-2.33 1.23,-2.32 1.22,-2.32 1.22,-2.33 1.22,-2.32 1.21,-2.32 1.21,-2.32 1.2,-2.33 1.2,-2.32 1.19,-2.32 1.18,-2.33 1.19,-2.32 1.18,-2.32 1.17,-2.33 1.17,-2.32 1.17,-2.32 1.16,-2.32 1.15,-2.32 1.15,-2.33 1.14,-2.32 1.14,-2.32 1.13,-2.33 1.14,-2.32 1.12,-2.32 1.12,-2.33 1.11,-2.32 1.11,-2.32 1.11,-2.33 1.1,-2.32 1.09,-2.32 1.09,-2.32 1.08,-2.33 1.08,-2.32 1.07,-2.32 1.07,-2.33 1.06,-2.32 1.06,-2.32 1.05,-2.33 1.04,-2.32 1.04,-2.32 1.04,-2.32 1.03,-2.32 1.02,-2.33 1.02,-2.32 1.01,-2.32 1.01,-2.33 1,-2.32 1,-2.32 0.99,-2.33 0.99,-2.32 0.97,-2.32 0.98,-2.33 0.97,-2.32 0.96,-2.32 0.96,-2.32 0.95,-2.33 0.94,-2.32 0.95,-2.32 0.93,-2.33 0.93,-2.32 0.92,-2.32 0.92,-2.33 0.91,-2.32 0.9,-2.32 0.91,-2.32 0.89,-2.33 0.89,-2.32 0.88,-2.32 0.88,-2.33 0.87,-2.32 0.87,-2.32 0.86,-2.33 0.85,-2.32 0.85,-2.32 0.84,-2.33 0.84,-2.32 0.83,-2.32 0.83,-2.32 0.82,-2.32 0.81,-2.33 0.81,-2.32 0.8,-2.32 0.8,-2.33 0.78,-2.32 0.79,-2.32 0.78,-2.33 0.77,-2.32 0.77,-2.32 0.77,-2.32 0.75,-2.33 0.75,-2.32 0.75,-2.32 0.73,-2.33 0.74,-2.32 0.73,-2.32 0.72,-2.33 0.72,-2.32 0.71,-2.32 0.7,-2.33 0.7,-2.32 0.7,-2.32 0.68,-2.32 0.69,-2.33 0.67,-2.32 0.67,-2.32 0.67,-2.33 0.66,-2.32 0.65,-2.32 0.66,-2.33 0.64,-2.32 0.64,-2.32 0.63,-2.32 0.63,-2.32 0.62,-2.33 0.62,-2.32 0.61,-2.32 0.6,-2.33 0.6,-2.32 0.6,-2.32 0.59,-2.33 0.58,-2.32 0.59,-2.32 0.57,-2.33 0.57,-2.32 0.56,-2.32 0.56,-2.32 0.56,-2.33 0.54,-2.32 0.55,-2.32 0.54,-2.33 0.53,-2.32 0.53,-2.32 0.52,-2.33 0.52,-2.32 0.51,-2.32 0.51,-2.32 0.5,-2.33 0.5,-2.32 0.5,-2.32 0.49,-2.33 0.48,-2.32 0.48,-2.32 0.48,-2.33 0.47,-2.32 0.46,-2.32 0.46,-2.32 0.46,-2.33 0.45,-2.32 0.45,-2.32 0.44,-2.32 0.44,-2.33 0.44,-2.32 0.42,-2.32 0.43,-2.33 0.42,-2.32 0.41,-2.32 0.42,-2.33 0.4,-2.32 0.41,-2.32 0.4,-2.32 0.39,-2.33 0.39,-2.32 0.39,-2.32 0.38,-2.33 0.38,-2.32 0.38,-2.32 0.36,-2.33 0.37,-2.32 0.37,-2.32 0.35,-2.32 0.36,-2.33 0.35,-2.32 0.35,-2.32 0.34,-2.33 0.34,-2.32 0.33,-2.32 0.34,-2.33 0.32,-2.32 0.33,-2.32 0.32,-2.33 0.32,-2.32 0.31,-2.32 0.31,-2.32 0.31,-2.32 0.3,-2.33 0.3,-2.32 0.3,-2.32 0.29,-2.33 0.29,-2.32 0.29,-2.32 0.28,-2.33 0.29,-2.32 0.27,-2.32 0.28,-2.32 0.27,-2.33 0.27,-2.32 0.26,-2.32 0.26,-2.33 0.26,-2.32 0.25,-2.32 0.25,-2.33 0.25,-2.32 0.25,-2.32 0.25,-2.33 0.23,-2.32 0.24,-2.32 0.24,-2.32 0.23,-2.33 0.23,-2.32 0.22,-2.32 0.23,-2.33 0.22,-2.32 0.22,-2.32 0.22,-2.33 0.21,-2.32 0.21,-2.32 0.21,-2.32 0.2,-2.32 0.21,-2.33 0.2,-2.32 0.2,-2.32 0.19,-2.33 0.2,-2.32 0.19,-2.32 0.19,-2.33 0.19,-2.32 0.18,-2.32 0.18,-2.33 0.18,-2.32 0.18,-2.32 0.17,-2.32 0.18,-2.33 0.17,-2.32 0.17,-2.32 0.16,-2.33 0.17,-2.32 0.16,-2.32 0.16,-2.33 0.16,-2.32 0.16,-2.32 0.16,-2.32 0.15,-2.33 0.15,-2.32 0.15,-2.32 0.15,-2.33 0.14,-2.32 0.15,-2.32 0.14,-2.33 0.14,-2.32 0.13,-2.32 0.14,-2.32 0.14,-2.33 0.13,-2.32 0.13,-2.32 0.13,-2.32 0.13,-2.33 0.13,-2.32 0.12,-2.32 0.12,-2.33 0.12,-2.32 0.12,-2.32 0.12,-2.33 0.12,-2.32 0.12,-2.32 0.11,-2.32 0.11,-2.33 0.11,-2.32 0.11,-2.32 0.11,-2.33 0.11,-2.32 0.1,-2.32 0.11,-2.33 0.1,-2.32 0.1,-2.32 0.1,-2.32 0.1,-2.33 0.1,-2.32 0.09,-2.32 0.1,-2.33 0.09,-2.32 0.1,-2.32 0.09,-2.33 0.09,-2.32 0.09,-2.32 0.08,-2.33 0.09,-2.32 0.09,-2.32 0.08,-2.32 0.08,-2.32 0.09,-2.33 0.08,-2.32 0.08,-2.32 0.08,-2.33 0.08,-2.32 0.07,-2.32 0.08,-2.33 0.07,-2.32 0.08,-2.32 0.07,-2.32 0.07,-2.33 0.07,-2.32 0.07,-2.32 0.07,-2.33 0.07,-2.32 0.07,-2.32 0.07,-2.33 0.06,-2.32 0.07,-2.32 0.06,-2.33 0.06,-2.32 0.07,-2.32 0.06,-2.32 0.06,-2.32 0.06,-2.33 0.06,-2.32 0.05,-2.32 0.06,-2.33 0.06,-2.32 0.06,-2.33 0.05,-2.32 0.05,-2.32 0.06,-2.32"
             style="fill:none;stroke:#00afaf;stroke-width:4.16667;stroke-linecap:butt;stroke-linejoin:miter;stroke-miterlimit:1;stroke-dasharray:none;stroke-opacity:1"
             id="path240" /><path
             d="m 1971.02,1805.95 v 0 l 0.05,-2.32 0.05,-2.33 0.06,-2.32 0.05,-2.32 0.05,-2.33 0.04,-2.32 0.06,-2.32 0.04,-2.33 0.05,-2.32 0.05,-2.32 0.04,-2.33 0.05,-2.32 0.04,-2.32 0.05,-2.32 0.04,-2.33 0.05,-2.32 0.04,-2.32 0.04,-2.33 0.04,-2.32 0.04,-2.32 0.04,-2.33 0.05,-2.32 0.03,-2.32 0.04,-2.32 0.04,-2.32 0.04,-2.33 0.04,-2.32 0.03,-2.32 0.04,-2.33 0.03,-2.32 0.04,-2.32 0.03,-2.33 0.04,-2.32 0.03,-2.33 0.03,-2.32 0.04,-2.32 0.03,-2.32 0.03,-2.32 0.03,-2.33 0.03,-2.32 0.04,-2.32 0.03,-2.33 0.03,-2.32 0.03,-2.32 0.03,-2.33 0.02,-2.32 0.03,-2.32 0.03,-2.32 0.03,-2.33 0.03,-2.32 0.02,-2.32 0.03,-2.33 0.03,-2.32 0.02,-2.32 0.03,-2.33 0.02,-2.32 0.03,-2.32 0.02,-2.33 0.02,-2.32 0.03,-2.32 0.02,-2.32 0.02,-2.32 0.03,-2.33 0.02,-2.32 0.02,-2.32 0.02,-2.33 0.03,-2.32 0.02,-2.33 0.02,-2.32 0.02,-2.32 0.02,-2.32 0.02,-2.32 0.02,-2.33 0.02,-2.32 0.02,-2.32 0.02,-2.33 0.02,-2.32 0.01,-2.32 0.02,-2.33 0.02,-2.32 0.02,-2.32 0.02,-2.33 0.01,-2.32 0.02,-2.32 0.02,-2.32 0.01,-2.33 0.02,-2.32 0.01,-2.32 0.02,-2.33 0.02,-2.32 0.01,-2.32 0.02,-2.33 0.01,-2.32 0.02,-2.32 0.01,-2.32 0.02,-2.32 0.01,-2.33 0.01,-2.32 0.02,-2.32 0.01,-2.33 0.02,-2.32 0.01,-2.32 0.01,-2.33 0.01,-2.32 0.02,-2.32 0.01,-2.33 0.01,-2.32 0.01,-2.32 0.01,-2.32 0.01,-2.33 0.02,-2.32 0.01,-2.32 0.01,-2.33 0.01,-2.32 0.01,-2.32 0.01,-2.33 0.01,-2.32 0.01,-2.32 0.01,-2.32 0.01,-2.33 0.02,-2.32 v -2.32 l 0.02,-2.33 v -2.32 l 0.01,-2.32 0.01,-2.33 0.01,-2.32 0.01,-2.32 0.01,-2.32 0.01,-2.33 0.01,-2.32 0.01,-2.32 0.01,-2.32 v -2.33 l 0.01,-2.32 0.01,-2.32 0.01,-2.33 v -2.32 l 0.01,-2.32 0.01,-2.33 0.01,-2.32 0.01,-2.32 v -2.32 l 0.01,-2.33 0.01,-2.32 v -2.32 l 0.01,-2.33 v -2.32 l 0.01,-2.32 0.01,-2.33 v -2.32 l 0.01,-2.32 0.01,-2.32 v -2.33 l 0.01,-2.32 0.01,-2.32 v -2.33 l 0.01,-2.32 v -2.32 l 0.01,-2.33 v -2.32 l 0.01,-2.32 v -2.33 l 0.01,-2.32 v -2.32 l 0.01,-2.32 v -2.32 l 0.01,-2.33 v -2.32 l 0.01,-2.32 v -2.33 l 0.01,-2.32 v -2.32 l 0.01,-2.33 v -2.32 -2.32 l 0.01,-2.32 v -2.33 -2.32 l 0.01,-2.32 v -2.33 l 0.01,-2.32 v -2.32 -2.33 l 0.01,-2.32 v -2.32 l 0.01,-2.33 v -2.32 -2.32 -2.32 l 0.01,-2.33 v -2.32 l 0.01,-2.32 v -2.33 -2.32 -2.32 l 0.01,-2.33 v -2.32 -2.32 l 0.01,-2.32 v -2.32 -2.33 -2.32 -2.32 l 0.01,-2.33 v -2.32 -2.32 -2.33 -2.32 -2.32 l 0.01,-2.33 v -2.32 -2.32 -2.32 l 0.01,-2.33 v -2.32 -2.32 -2.33 -2.32 -2.32 -2.33 -2.32 l 0.01,-2.32 v -2.32 -2.33 -2.32 -2.32 -2.33 -2.32 -2.32 l 0.01,-2.33 v -2.32 -2.32 -2.32 -2.33 -2.32 -2.32 -2.32 -2.33 -2.32 -2.32 -2.33 -2.32 -2.32 -2.33 -2.32 -2.32 -2.32 -2.33 -2.32 -2.32 -2.33 -2.32 -2.32 -2.33 -2.32 -2.32 -2.32 -2.33 -2.32 -2.32 -2.33 -2.32 -2.32 -2.33 l -0.01,-2.32 v -2.32 -2.33 -2.32 -2.32 -2.32 -2.32 l -0.01,-2.33 v -2.32 -2.32 -2.33 -2.32 -2.32 -2.33 -2.32 l -0.01,-2.32 v -2.32 -2.33 -2.32 -2.32 l -0.01,-2.33 v -2.32 -2.32 -2.33 -2.32 l -0.01,-2.32 v -2.33 -2.32 -2.32 -2.32 l -0.01,-2.32 v -2.33 -2.32 l -0.01,-2.33 v -2.32 -2.32 -2.33 l -0.01,-2.32 v -2.32 -2.32 l -0.01,-2.32 v -2.33 -2.32 l -0.01,-2.32 v -2.33 -2.32 l -0.01,-2.32 v -2.33 -2.32 l -0.01,-2.32 v -2.33 l -0.01,-2.32 v -2.32 -2.32 l -0.01,-2.33 v -2.32 -2.32 l -0.01,-2.33 -0.01,-2.32 v -2.32 -2.33 l -0.01,-2.32 v -2.32 l -0.01,-2.32 v -2.32 l -0.01,-2.33 -0.01,-2.32 v -2.33 -2.32 l -0.01,-2.32 -0.01,-2.33 v -2.32 l -0.01,-2.32 v -2.33 l -0.01,-2.32 v -2.32 l -0.01,-2.32 v -2.32 l -0.01,-2.33 -0.01,-2.32 v -2.32 l -0.01,-2.327 -0.01,-2.324 v -2.321 l -0.01,-2.324 -0.01,-2.324 -0.01,-2.32 v -2.325 l -0.01,-2.324 -0.01,-2.32 v -2.324 l -0.01,-2.325 -0.01,-2.32 -0.01,-2.324 -0.01,-2.324 v -2.321 l -0.01,-2.324 -0.01,-2.324 -0.01,-2.32 -0.01,-2.325 -0.01,-2.324 v -2.32 l -0.02,-2.324 v -2.325 l -0.01,-2.324 -0.01,-2.32 -0.01,-2.324 -0.01,-2.325 -0.01,-2.32 -0.01,-2.324 -0.01,-2.324 -0.01,-2.321 -0.01,-2.324 -0.01,-2.324 -0.01,-2.32 -0.01,-2.325 -0.02,-2.324 v -2.32 l -0.02,-2.324 -0.01,-2.325 -0.01,-2.32 -0.01,-2.324 -0.01,-2.324 -0.01,-2.321 -0.02,-2.324 -0.01,-2.324 -0.01,-2.32 -0.02,-2.325 -0.01,-2.324 -0.01,-2.32 -0.02,-2.324 -0.01,-2.325 -0.02,-2.32 -0.01,-2.324 -0.01,-2.324 -0.02,-2.321 -0.01,-2.324 -0.02,-2.324 -0.01,-2.32 -0.02,-2.325 -0.01,-2.324 -0.02,-2.324 -0.01,-2.32 -0.02,-2.325 -0.02,-2.324 -0.01,-2.32 -0.02,-2.324 -0.02,-2.325 -0.02,-2.32 -0.01,-2.324 -0.02,-2.324 -0.02,-2.321 -0.02,-2.324 -0.02,-2.324 -0.01,-2.32 -0.02,-2.325 -0.02,-2.324 -0.02,-2.32 -0.02,-2.324 -0.02,-2.325 -0.02,-2.32 -0.03,-2.324 -0.01,-2.324 -0.02,-2.321 -0.03,-2.324 -0.02,-2.324 -0.02,-2.32 -0.02,-2.325 -0.03,-2.324 -0.02,-2.32 -0.02,-2.324 -0.03,-2.325 -0.02,-2.32 -0.03,-2.324 -0.02,-2.324 -0.03,-2.321 -0.02,-2.324 -0.03,-2.324 -0.02,-2.32 -0.03,-2.325 -0.03,-2.324 -0.03,-2.324 -0.02,-2.32 -0.03,-2.325 -0.03,-2.324 -0.03,-2.32 -0.03,-2.324 -0.03,-2.325 -0.03,-2.32 -0.03,-2.324 -0.03,-2.324 -0.03,-2.321 -0.03,-2.324 -0.04,-2.324 -0.03,-2.32 -0.03,-2.325 -0.04,-2.324 -0.03,-2.32 -0.03,-2.324 -0.04,-2.325 -0.04,-2.32 -0.03,-2.324 -0.04,-2.324 -0.04,-2.321 -0.03,-2.324 -0.04,-2.324 -0.04,-2.32 -0.04,-2.325 -0.04,-2.324 -0.04,-2.32 -0.04,-2.324 -0.04,-2.325 -0.04,-2.324 -0.05,-2.32 -0.04,-2.324 -0.04,-2.321 -0.05,-2.324 -0.04,-2.324 -0.05,-2.324 -0.04,-2.321 -0.05,-2.324 -0.05,-2.324 -0.05,-2.32 -0.04,-2.325 -0.05,-2.324 -0.05,-2.32 -0.05,-2.324 -0.06,-2.325 -0.05,-2.32 -0.05,-2.324 -0.05,-2.324 -0.06,-2.321 -0.05,-2.324 -0.06,-2.324 -0.05,-2.32 -0.06,-2.325 -0.06,-2.324 -0.06,-2.32 -0.06,-2.324 -0.06,-2.325 -0.06,-2.32 -0.06,-2.324 -0.06,-2.324 -0.07,-2.321 -0.06,-2.324"
             style="fill:none;stroke:#00afaf;stroke-width:4.16667;stroke-linecap:butt;stroke-linejoin:miter;stroke-miterlimit:1;stroke-dasharray:none;stroke-opacity:1"
             id="path242" /><path
             d="m 1970.16,621.242 v 0 l -0.07,-2.324 -0.06,-2.32 -0.07,-2.325 -0.07,-2.324 -0.07,-2.32 -0.07,-2.324 -0.07,-2.325 -0.07,-2.32 -0.07,-2.324 -0.08,-2.324 -0.07,-2.321 -0.08,-2.324 -0.07,-2.324 -0.08,-2.324 -0.08,-2.321 -0.08,-2.324 -0.08,-2.324 -0.08,-2.32 -0.09,-2.325 -0.08,-2.324 -0.08,-2.32 -0.09,-2.324 -0.09,-2.324 -0.09,-2.321 -0.09,-2.324 -0.09,-2.324 -0.09,-2.321 -0.09,-2.324 -0.1,-2.324 -0.09,-2.32 -0.1,-2.325 -0.1,-2.324 -0.1,-2.32 -0.1,-2.324 -0.1,-2.324"
             style="fill:none;stroke:#00afaf;stroke-width:4.16667;stroke-linecap:butt;stroke-linejoin:miter;stroke-miterlimit:1;stroke-dasharray:none;stroke-opacity:1"
             id="path244" /><path
             d="m 1933.42,2990.65 v 0 l 0.49,-2.32 0.49,-2.32 0.48,-2.33 0.48,-2.32 0.48,-2.32 0.46,-2.33 0.47,-2.32 0.46,-2.32 0.45,-2.32 0.45,-2.33 0.45,-2.32 0.44,-2.32 0.44,-2.33 0.43,-2.32 0.43,-2.32 0.42,-2.33 0.42,-2.32 0.41,-2.32 0.41,-2.32 0.41,-2.33 0.4,-2.32 0.39,-2.32 0.4,-2.33 0.38,-2.32 0.39,-2.32 0.38,-2.33 0.38,-2.32 0.37,-2.32 0.37,-2.32 0.36,-2.33 0.36,-2.32 0.36,-2.32 0.35,-2.32 0.35,-2.33 0.34,-2.32 0.34,-2.32 0.34,-2.33 0.33,-2.32 0.33,-2.32 0.33,-2.33 0.32,-2.32 0.32,-2.32 0.31,-2.32 0.32,-2.33 0.3,-2.32 0.31,-2.32 0.3,-2.33 0.3,-2.32 0.29,-2.32 0.29,-2.33 0.29,-2.32 0.28,-2.32 0.28,-2.32 0.28,-2.33 0.28,-2.32 0.27,-2.32 0.26,-2.33 0.27,-2.32 0.26,-2.32 0.26,-2.33 0.26,-2.32 0.25,-2.32 0.25,-2.33 0.25,-2.32 0.24,-2.32 0.24,-2.32 0.24,-2.32 0.23,-2.33 0.24,-2.32 0.23,-2.32 0.23,-2.33 0.22,-2.32 0.22,-2.32 0.22,-2.33 0.21,-2.32 0.22,-2.32 0.21,-2.32 0.21,-2.33 0.2,-2.32 0.21,-2.32 0.2,-2.33 0.2,-2.32 0.2,-2.32 0.19,-2.33 0.19,-2.32 0.19,-2.32 0.18,-2.33 0.19,-2.32 0.18,-2.32 0.18,-2.32 0.18,-2.33 0.18,-2.32 0.17,-2.32 0.17,-2.33 0.17,-2.32 0.17,-2.32 0.16,-2.33 0.16,-2.32 0.16,-2.32 0.16,-2.32 0.16,-2.32 0.15,-2.33 0.16,-2.32 0.15,-2.32 0.15,-2.33 0.14,-2.32 0.15,-2.32 0.14,-2.33 0.14,-2.32 0.14,-2.32 0.14,-2.33 0.14,-2.32 0.13,-2.32 0.14,-2.32 0.13,-2.33 0.13,-2.32 0.12,-2.32 0.13,-2.33 0.13,-2.32 0.12,-2.32 0.12,-2.33 0.12,-2.32 0.12,-2.32 0.12,-2.32 0.11,-2.33 0.12,-2.32 0.11,-2.32 0.11,-2.33 0.11,-2.32 0.11,-2.32 0.1,-2.33 0.11,-2.32 0.1,-2.32 0.11,-2.32 0.1,-2.33 0.1,-2.32 0.1,-2.32 0.09,-2.32 0.1,-2.33 0.1,-2.32 0.09,-2.32 0.09,-2.33 0.09,-2.32 0.09,-2.32 0.09,-2.33 0.09,-2.32 0.08,-2.32 0.09,-2.32 0.09,-2.33 0.08,-2.32 0.08,-2.32 0.08,-2.33 0.08,-2.32 0.08,-2.32 0.08,-2.33 0.07,-2.32 0.08,-2.32 0.08,-2.32 0.07,-2.33 0.08,-2.32 0.07,-2.32 0.07,-2.33 0.07,-2.32 0.07,-2.32 0.06,-2.33 0.07,-2.32 0.07,-2.32 0.06,-2.33 0.07,-2.32 0.06,-2.32 0.06,-2.32 0.07,-2.32 0.06,-2.33 0.06,-2.32 0.06,-2.32 0.06,-2.33 0.06,-2.32 0.05,-2.32 0.06,-2.33 0.05,-2.32 0.06,-2.32 0.05,-2.32 0.06,-2.33 0.05,-2.32 0.05,-2.32 0.06,-2.33 0.05,-2.32 0.05,-2.32 0.05,-2.33 0.04,-2.32 0.06,-2.32 0.04,-2.33 0.05,-2.32 0.05,-2.32 0.04,-2.32 0.05,-2.33 0.04,-2.32 0.04,-2.32 0.05,-2.33 0.04,-2.32 0.04,-2.32 0.04,-2.33 0.04,-2.32 0.05,-2.32 0.03,-2.32 0.04,-2.32 0.04,-2.33 0.04,-2.32 0.04,-2.32 0.04,-2.33 0.03,-2.32 0.04,-2.32 0.04,-2.33 0.03,-2.32 0.04,-2.32 0.03,-2.33 0.03,-2.32 0.04,-2.32 0.03,-2.32 0.03,-2.33 0.03,-2.32 0.04,-2.32 0.03,-2.33 0.03,-2.32 0.03,-2.32 0.03,-2.33 0.03,-2.32 0.03,-2.32 0.03,-2.32 0.02,-2.32 0.03,-2.33 0.03,-2.32 0.03,-2.32 0.02,-2.33 0.03,-2.32 0.03,-2.32 0.02,-2.33 0.03,-2.32 0.02,-2.32 0.03,-2.33 0.02,-2.32 0.03,-2.32 0.02,-2.32 0.02,-2.33 0.03,-2.32 0.02,-2.32 0.02,-2.33 0.02,-2.32 0.03,-2.32 0.02,-2.33 0.02,-2.32 0.02,-2.32 0.02,-2.32 0.02,-2.33 0.02,-2.32 0.02,-2.32 0.02,-2.33 0.02,-2.32 0.02,-2.32 0.02,-2.33 0.02,-2.32 0.01,-2.32 0.02,-2.33 0.02,-2.32 0.02,-2.32 0.02,-2.32 0.01,-2.32 0.02,-2.33 0.02,-2.32 0.02,-2.32 0.01,-2.33 0.02,-2.32 0.01,-2.32 0.02,-2.33 0.01,-2.32 0.02,-2.32 0.01,-2.32 0.02,-2.33 0.01,-2.32 0.02,-2.32 0.01,-2.33 0.02,-2.32 0.01,-2.32 0.01,-2.33 0.01,-2.32 0.02,-2.32 0.01,-2.33 0.01,-2.32 0.02,-2.32 0.01,-2.32 0.01,-2.33 0.01,-2.32 0.02,-2.32 0.01,-2.33 0.01,-2.32 0.01,-2.32 0.01,-2.33 0.01,-2.32 0.02,-2.32 0.01,-2.32 0.01,-2.32 0.01,-2.33 0.01,-2.32 0.01,-2.32 0.01,-2.33 0.01,-2.32 0.01,-2.32 0.01,-2.33 0.01,-2.32 0.01,-2.32 0.01,-2.33 0.01,-2.32 v -2.32 l 0.01,-2.32 0.01,-2.33 0.01,-2.32 0.01,-2.32 0.01,-2.33 0.01,-2.32 0.01,-2.32 v -2.33 l 0.01,-2.32 0.01,-2.32 0.01,-2.32 v -2.33 l 0.01,-2.32 0.01,-2.32 0.01,-2.33 0.01,-2.32 v -2.32 l 0.01,-2.33 0.01,-2.32 v -2.32 l 0.01,-2.32 v -2.33 l 0.01,-2.32 0.01,-2.32 v -2.32 l 0.01,-2.33 0.01,-2.32 v -2.32 l 0.01,-2.33 0.01,-2.32 v -2.32 l 0.01,-2.33 0.01,-2.32 v -2.32 l 0.01,-2.32 v -2.33 -2.32 l 0.01,-2.32 0.01,-2.33 v -2.32 l 0.01,-2.32 V 2166 l 0.01,-2.32 v -2.32 l 0.01,-2.32 v -2.33 l 0.01,-2.32 v -2.32 l 0.01,-2.33 v -2.32 -2.32 l 0.01,-2.33 v -2.32 l 0.01,-2.32 v -2.33 l 0.01,-2.32 v -2.32 l 0.01,-2.32 v -2.32 -2.33 l 0.01,-2.32 v -2.32 l 0.01,-2.33 v -2.32 -2.32 l 0.01,-2.33 v -2.32 -2.32 l 0.01,-2.32 v -2.33 -2.32 l 0.01,-2.32 v -2.33 -2.32 -2.32 l 0.01,-2.33 v -2.32 l 0.01,-2.32 v -2.33 -2.32 -2.32 l 0.01,-2.32 v -2.33 -2.32 l 0.01,-2.32 v -2.33 -2.32 -2.32 l 0.01,-2.33 v -2.32 -2.32 l 0.01,-2.32 v -2.32 -2.33 -2.32 -2.32 l 0.01,-2.33 v -2.32 -2.32 l 0.01,-2.33 v -2.32 -2.32 -2.33 -2.32 -2.32 l 0.01,-2.32 v -2.33 -2.32 -2.32 -2.33 l 0.01,-2.32 v -2.32 -2.33 -2.32 -2.32 l 0.01,-2.32 v -2.33 -2.32 -2.32 -2.33 -2.32 l 0.01,-2.32 v -2.33 -2.32 -2.32 -2.32 l 0.01,-2.33 v -2.32 -2.32 -2.32 -2.33 -2.32 -2.32 -2.33 l 0.01,-2.32 v -2.32 -2.33 -2.32 -2.32 -2.32 l 0.01,-2.33 v -2.32 -2.32 -2.33 -2.32 -2.32 -2.33 -2.32 -2.32 -2.32 l 0.01,-2.33 v -2.32 -2.32 -2.33 -2.32 -2.32 -2.33 -2.32 -2.32 -2.33 -2.32 -2.32 l 0.01,-2.32 v -2.32 -2.33 -2.32 -2.32 -2.33 -2.32 -2.32 -2.33 l 0.01,-2.32 v -2.32 -2.32 -2.33 -2.32 -2.32 -2.33 -2.32 -2.32 -2.33 -2.32 -2.32 -2.33 -2.32 -2.32 -2.32 l 0.01,-2.32 v -2.33 -2.32 -2.32 -2.33 -2.32 -2.33 -2.32 -2.32 -2.32"
             style="fill:none;stroke:#ff00ff;stroke-width:4.16667;stroke-linecap:butt;stroke-linejoin:miter;stroke-miterlimit:1;stroke-dasharray:none;stroke-opacity:1"
             id="path246" /><path
             d="m 1975.49,1805.95 v 0 -11.62 l 0.01,-2.32 v -2.32 -2.33 -2.32 -2.32 -2.33 -2.32 -2.32 -2.32 -2.33 -2.32 -2.32 -2.33 -2.32 -2.32 -2.33 -2.32 -2.32 -2.32 -2.32 -2.33 -2.32 -2.32 -2.33 -2.32 -2.32 -2.33 -2.32 -2.33 -2.32 -2.32 l 0.01,-2.32 v -2.32 -2.33 -2.32 -2.32 -2.33 -2.32 -2.32 -2.33 -2.32 -2.32 -2.32 -2.33 -2.32 -2.32 -2.33 -2.32 -2.32 -2.33 -2.32 -2.32 -2.33 -2.32 -2.32 -2.32 -2.32 -2.33 -2.32 -2.32 -2.33 -2.32 -2.33 -2.32 -2.32 -2.32 -2.32 -2.33 -2.32 -2.32 -2.33 -2.32 -2.32 -2.33 -2.32 -2.32 -2.33 -2.32 -2.32 -2.32 -2.33 -2.32 -2.32 -2.33 -2.32 -2.32 -2.33 -2.32 -2.32 -2.32 -2.32 -2.33 -2.32 -2.32 -2.33 -2.32 -2.32 -2.33 -2.32 -2.32 -2.33 -2.32 -2.32 -2.32 -2.33 -2.32 -2.32 -2.33 -2.32 -2.32 -2.33 -2.32 -2.32 -2.32 -2.33 -2.32 -2.32 -2.33 -2.32 -2.32 -2.33 -2.32 -2.32 -2.32 -2.33 -2.32 l -0.01,-2.32 v -2.32 -2.33 -2.32 -2.32 -2.33 -2.32 -2.32 -2.33 -2.32 -2.32 -2.32 -2.33 -2.32 -2.32 -2.33 -2.32 -2.32 -2.33 -2.32 -2.32 -2.32 -2.33 -2.32 -2.32 -2.33 -2.32 -2.32 -2.33 -2.32 -2.32 -2.33 l -0.01,-2.32 v -2.32 -2.32 -2.32 -2.33 -2.32 -2.32 -2.33 -2.32 -2.32 -2.33 -2.32 -2.32 -2.32 l -0.01,-2.33 v -2.32 -2.32 -2.33 -2.32 -2.32 -2.33 -2.32 -2.32 -2.33 -2.32 -2.32 -2.32 -2.33 -2.32 -2.32 l -0.01,-2.33 v -2.32 -2.32 -2.33 -2.32 -2.32 -2.32 -2.32 -2.33 -2.32 l -0.01,-2.32 v -2.33 -2.32 -2.32 -2.33 -2.32 -2.32 -2.33 -2.32 -2.32 -2.32 l -0.01,-2.33 v -2.32 -2.32 -2.33 -2.32 -2.32 -2.33 -2.32 -2.32 -2.32 l -0.01,-2.33 v -2.32 -2.32 -2.33 -2.32 -2.32 l -0.01,-2.33 v -2.32 -2.32 -2.32 -2.33 -2.32 -2.32 -2.32 l -0.01,-2.33 v -2.32 -2.32 -2.33 -2.32 l -0.01,-2.32 v -2.33 -2.32 -2.32 -2.32 -2.33 -2.32 l -0.01,-2.32 v -2.33 -2.32 -2.32 l -0.01,-2.33 v -2.32 -2.32 -2.32 -2.33 -2.32 l -0.01,-2.32 v -2.33 -2.32 -2.32 -2.33 l -0.01,-2.32 v -2.32 -2.33 -2.32 l -0.01,-2.32 v -2.32 -2.32 -2.33 l -0.01,-2.32 v -2.32 -2.33 l -0.01,-2.32 v -2.32 -2.33 -2.32 -2.32 l -0.01,-2.32 v -2.33 l -0.01,-2.32 v -2.32 -2.33 -2.32 l -0.01,-2.32 v -2.33 -2.32 l -0.01,-2.32 v -2.33 -2.32 l -0.01,-2.32 v -2.32 -2.32 -2.33 l -0.01,-2.32 v -2.33 l -0.01,-2.32 v -2.32 -2.33 l -0.01,-2.32 v -2.32 l -0.01,-2.32 v -2.32 -2.33 l -0.01,-2.32 v -2.32 l -0.01,-2.33 v -2.32 -2.32 l -0.01,-2.33 -0.01,-2.32 v -2.32 -2.33 l -0.01,-2.32 v -2.32 -2.32 l -0.01,-2.33 -0.01,-2.32 v -2.32 l -0.01,-2.33 v -2.32 l -0.01,-2.32 v -2.33 l -0.01,-2.32 v -2.32 l -0.01,-2.32 v -2.32 l -0.01,-2.33 v -2.32 l -0.01,-2.33 -0.01,-2.32 v -2.32 l -0.01,-2.33 v -2.32 l -0.01,-2.32 -0.01,-2.33 v -2.32 l -0.01,-2.32 v -2.32 l -0.01,-2.32 -0.01,-2.33 -0.01,-2.32 v -2.32 l -0.01,-2.327 -0.01,-2.324 v -2.321 l -0.01,-2.324 -0.01,-2.324 v -2.32 l -0.01,-2.325 -0.01,-2.324 -0.01,-2.32 -0.01,-2.324 v -2.325 l -0.01,-2.32 -0.01,-2.324 -0.01,-2.324 -0.01,-2.321 -0.01,-2.324 v -2.324 l -0.02,-2.32 v -2.325 l -0.01,-2.324 -0.01,-2.32 -0.01,-2.324 -0.01,-2.325 -0.01,-2.324 -0.01,-2.32 -0.01,-2.324 -0.01,-2.325 -0.01,-2.32 -0.01,-2.324 -0.01,-2.324 -0.01,-2.321 -0.01,-2.324 -0.01,-2.324 -0.01,-2.32 -0.01,-2.325 -0.02,-2.324 -0.01,-2.32 -0.01,-2.324 -0.01,-2.325 -0.01,-2.32 -0.01,-2.324 -0.02,-2.324 -0.01,-2.321 -0.01,-2.324 -0.01,-2.324 -0.02,-2.32 -0.01,-2.325 -0.01,-2.324 -0.02,-2.32 -0.01,-2.324 -0.02,-2.325 -0.01,-2.32 -0.01,-2.324 -0.02,-2.324 -0.01,-2.321 -0.02,-2.324 -0.01,-2.324 -0.02,-2.32 -0.01,-2.325 -0.02,-2.324 -0.01,-2.324 -0.02,-2.32 -0.02,-2.325 -0.02,-2.324 -0.01,-2.32 -0.02,-2.324 -0.02,-2.325 -0.01,-2.32 -0.02,-2.324 -0.02,-2.324 -0.02,-2.321 -0.02,-2.324 -0.02,-2.324 -0.01,-2.32 -0.02,-2.325 -0.02,-2.324 -0.02,-2.32 -0.02,-2.324 -0.02,-2.325 -0.02,-2.32 -0.02,-2.324 -0.03,-2.324 -0.02,-2.321 -0.02,-2.324 -0.02,-2.324 -0.03,-2.32 -0.01,-2.325 -0.03,-2.324 -0.02,-2.32 -0.03,-2.324 -0.02,-2.325 -0.03,-2.32 -0.02,-2.324 -0.02,-2.324 -0.03,-2.321 -0.03,-2.324 -0.02,-2.324 -0.03,-2.32 -0.03,-2.325 -0.02,-2.324 -0.03,-2.324 -0.03,-2.32 -0.03,-2.325 -0.03,-2.324 -0.02,-2.32 -0.03,-2.324 -0.03,-2.325 -0.03,-2.32 -0.03,-2.324 -0.04,-2.324 -0.03,-2.321 -0.03,-2.324 -0.03,-2.324 -0.03,-2.32 -0.04,-2.325 -0.03,-2.324 -0.04,-2.32 -0.03,-2.324 -0.04,-2.325 -0.03,-2.32 -0.04,-2.324 -0.04,-2.324 -0.03,-2.321 -0.04,-2.324 -0.04,-2.324 -0.03,-2.32 -0.05,-2.325 -0.04,-2.324 -0.04,-2.32 -0.04,-2.324 -0.04,-2.325 -0.04,-2.324 -0.04,-2.32 -0.05,-2.324 -0.04,-2.321 -0.04,-2.324 -0.05,-2.324 -0.05,-2.324 -0.04,-2.321 -0.05,-2.324 -0.05,-2.324 -0.04,-2.32 -0.05,-2.325 -0.05,-2.324 -0.05,-2.32 -0.05,-2.324 -0.05,-2.325 -0.05,-2.32 -0.06,-2.324 -0.05,-2.324 -0.06,-2.321 -0.05,-2.324 -0.06,-2.324 -0.05,-2.32 -0.06,-2.325 -0.06,-2.324 -0.06,-2.32 -0.06,-2.324 -0.06,-2.325 -0.06,-2.32 -0.06,-2.324 -0.06,-2.324 -0.07,-2.321 -0.06,-2.324"
             style="fill:none;stroke:#ff00ff;stroke-width:4.16667;stroke-linecap:butt;stroke-linejoin:miter;stroke-miterlimit:1;stroke-dasharray:none;stroke-opacity:1"
             id="path248" /><path
             d="m 1970.76,621.242 v 0 l -0.07,-2.324 -0.06,-2.32 -0.07,-2.325 -0.07,-2.324 -0.07,-2.32 -0.07,-2.324 -0.07,-2.325 -0.07,-2.32 -0.07,-2.324 -0.08,-2.324 -0.08,-2.321 -0.07,-2.324 -0.08,-2.324 -0.08,-2.324 -0.07,-2.321 -0.08,-2.324 -0.08,-2.324 -0.09,-2.32 -0.08,-2.325 -0.08,-2.324 -0.09,-2.32 -0.09,-2.324 -0.08,-2.324 -0.09,-2.321 -0.09,-2.324 -0.09,-2.324 -0.1,-2.321 -0.09,-2.324 -0.09,-2.324 -0.1,-2.32 -0.1,-2.325 -0.1,-2.324 -0.1,-2.32 -0.1,-2.324 -0.1,-2.324"
             style="fill:none;stroke:#ff00ff;stroke-width:4.16667;stroke-linecap:butt;stroke-linejoin:miter;stroke-miterlimit:1;stroke-dasharray:none;stroke-opacity:1"
             id="path250" /><g
             id="g252"
             transform="scale(4.16667)"><text
               transform="matrix(0,-1,-1,0,138.021,695.713)"
               style="font-variant:normal;font-weight:normal;font-size:14px;font-family:Menlo;-inkscape-font-specification:Menlo-Regular;writing-mode:lr-tb;fill:#0eff00;fill-opacity:1;fill-rule:nonzero;stroke:none"
               id="text256"><tspan
                 x="0 8.4280005 16.856001 25.283415"
                 y="0"
                 id="tspan254">100p</tspan></text></g><g
             id="g258"
             transform="scale(4.16667)"><text
               transform="matrix(0,-1,-1,0,177.911,702.471)"
               style="font-variant:normal;font-weight:normal;font-size:14px;font-family:Menlo;-inkscape-font-specification:Menlo-Regular;writing-mode:lr-tb;fill:#0000ff;fill-opacity:1;fill-rule:nonzero;stroke:none"
               id="text262"><tspan
                 x="0 8.4274139 16.855413 25.283415"
                 y="0"
                 id="tspan260">200p</tspan></text></g><g
             id="g264"
             transform="scale(4.16667)"><text
               transform="matrix(0,-1,-1,0,229.069,702.45)"
               style="font-variant:normal;font-weight:normal;font-size:14px;font-family:Menlo;-inkscape-font-specification:Menlo-Regular;writing-mode:lr-tb;fill:#ff0000;fill-opacity:1;fill-rule:nonzero;stroke:none"
               id="text268"><tspan
                 x="0 8.4280005 16.855413 25.283415"
                 y="0"
                 id="tspan266">470p</tspan></text></g><g
             id="g270"
             transform="scale(4.16667)"><text
               transform="matrix(0,-1,-1,0,357.057,706.084)"
               style="font-variant:normal;font-weight:normal;font-size:14px;font-family:Menlo;-inkscape-font-specification:Menlo-Regular;writing-mode:lr-tb;fill:#00afaf;fill-opacity:1;fill-rule:nonzero;stroke:none"
               id="text274"><tspan
                 x="0 8.4274139 16.855413"
                 y="0"
                 id="tspan272">4n7</tspan></text></g><g
             id="g276"
             transform="scale(4.16667)"><text
               transform="matrix(0,-1,-1,0,448.809,708.481)"
               style="font-variant:normal;font-weight:normal;font-size:14px;font-family:Menlo;-inkscape-font-specification:Menlo-Regular;writing-mode:lr-tb;fill:#ff00ff;fill-opacity:1;fill-rule:nonzero;stroke:none"
               id="text280"><tspan
                 x="0 8.4280005 16.856001"
                 y="0"
                 id="tspan278">47n</tspan></text></g></g></g></g></g></svg>
