<?xml version="1.0" encoding="UTF-8" standalone="no"?>
<svg
   xmlns:dc="http://purl.org/dc/elements/1.1/"
   xmlns:cc="http://creativecommons.org/ns#"
   xmlns:rdf="http://www.w3.org/1999/02/22-rdf-syntax-ns#"
   xmlns:svg="http://www.w3.org/2000/svg"
   xmlns="http://www.w3.org/2000/svg"
   version="1.1"
   id="svg1144"
   xml:space="preserve"
   width="601.09515"
   height="361.33768"
   viewBox="0 0 901.64272 542.00654"><metadata
     id="metadata1150"><rdf:RDF><cc:Work
         rdf:about=""><dc:format>image/svg+xml</dc:format><dc:type
           rdf:resource="http://purl.org/dc/dcmitype/StillImage" /><dc:title></dc:title></cc:Work></rdf:RDF></metadata><defs
     id="defs1148"><clipPath
       clipPathUnits="userSpaceOnUse"
       id="clipPath1162"><path
         d="m 375,299.582 h 1729.17 v 2908.34 H 375 Z"
         id="path1160" /></clipPath><clipPath
       clipPathUnits="userSpaceOnUse"
       id="clipPath1326"><path
         d="m 500,387.082 h 1520.83 v 2604.17 H 500 Z"
         id="path1324" /></clipPath></defs><g
     id="g1152"
     transform="matrix(0,-1.3333333,-1.3333333,0,1025.6049,667.07604)"><g
       id="g1154"
       transform="scale(0.24)"><g
         id="g1156"><g
           id="g1158"
           clip-path="url(#clipPath1162)"><path
             d="M 500,2990.65 H 458.332"
             style="fill:none;stroke:#afafaf;stroke-width:4.16667;stroke-linecap:butt;stroke-linejoin:miter;stroke-miterlimit:10;stroke-dasharray:none;stroke-opacity:1"
             id="path1164" /><g
             id="g1166"
             transform="scale(4.16667)"><text
               transform="matrix(0,-1,-1,0,94.0003,738.828)"
               style="font-variant:normal;font-weight:normal;font-size:14px;font-family:Menlo;-inkscape-font-specification:Menlo-Regular;writing-mode:lr-tb;fill:#afafaf;fill-opacity:1;fill-rule:nonzero;stroke:none"
               id="text1170"><tspan
                 x="0 8.4274139 16.855413 25.282827 33.710827"
                 y="0"
                 id="tspan1168">0.0ms</tspan></text></g><path
             d="M 500,2665.5 H 458.332"
             style="fill:none;stroke:#afafaf;stroke-width:4.16667;stroke-linecap:butt;stroke-linejoin:miter;stroke-miterlimit:10;stroke-dasharray:none;stroke-opacity:1"
             id="path1172" /><g
             id="g1174"
             transform="scale(4.16667)"><text
               transform="matrix(0,-1,-1,0,94.0003,660.792)"
               style="font-variant:normal;font-weight:normal;font-size:14px;font-family:Menlo;-inkscape-font-specification:Menlo-Regular;writing-mode:lr-tb;fill:#afafaf;fill-opacity:1;fill-rule:nonzero;stroke:none"
               id="text1178"><tspan
                 x="0 8.4274139 16.855413 25.282827 33.710827"
                 y="0"
                 id="tspan1176">0.2ms</tspan></text></g><path
             d="M 500,2340.36 H 458.332"
             style="fill:none;stroke:#afafaf;stroke-width:4.16667;stroke-linecap:butt;stroke-linejoin:miter;stroke-miterlimit:10;stroke-dasharray:none;stroke-opacity:1"
             id="path1180" /><g
             id="g1182"
             transform="scale(4.16667)"><text
               transform="matrix(0,-1,-1,0,94.0003,582.757)"
               style="font-variant:normal;font-weight:normal;font-size:14px;font-family:Menlo;-inkscape-font-specification:Menlo-Regular;writing-mode:lr-tb;fill:#afafaf;fill-opacity:1;fill-rule:nonzero;stroke:none"
               id="text1186"><tspan
                 x="0 8.4280005 16.856001 25.283415 33.711414"
                 y="0"
                 id="tspan1184">0.4ms</tspan></text></g><path
             d="M 500,2015.21 H 458.332"
             style="fill:none;stroke:#afafaf;stroke-width:4.16667;stroke-linecap:butt;stroke-linejoin:miter;stroke-miterlimit:10;stroke-dasharray:none;stroke-opacity:1"
             id="path1188" /><g
             id="g1190"
             transform="scale(4.16667)"><text
               transform="matrix(0,-1,-1,0,94.0003,504.722)"
               style="font-variant:normal;font-weight:normal;font-size:14px;font-family:Menlo;-inkscape-font-specification:Menlo-Regular;writing-mode:lr-tb;fill:#afafaf;fill-opacity:1;fill-rule:nonzero;stroke:none"
               id="text1194"><tspan
                 x="0 8.4280005 16.856001 25.283415 33.711414"
                 y="0"
                 id="tspan1192">0.6ms</tspan></text></g><path
             d="M 500,1690.06 H 458.332"
             style="fill:none;stroke:#afafaf;stroke-width:4.16667;stroke-linecap:butt;stroke-linejoin:miter;stroke-miterlimit:10;stroke-dasharray:none;stroke-opacity:1"
             id="path1196" /><g
             id="g1198"
             transform="scale(4.16667)"><text
               transform="matrix(0,-1,-1,0,94.0003,426.686)"
               style="font-variant:normal;font-weight:normal;font-size:14px;font-family:Menlo;-inkscape-font-specification:Menlo-Regular;writing-mode:lr-tb;fill:#afafaf;fill-opacity:1;fill-rule:nonzero;stroke:none"
               id="text1202"><tspan
                 x="0 8.4280005 16.856001 25.283415 33.711414"
                 y="0"
                 id="tspan1200">0.8ms</tspan></text></g><path
             d="M 500,1364.91 H 458.332"
             style="fill:none;stroke:#afafaf;stroke-width:4.16667;stroke-linecap:butt;stroke-linejoin:miter;stroke-miterlimit:10;stroke-dasharray:none;stroke-opacity:1"
             id="path1204" /><g
             id="g1206"
             transform="scale(4.16667)"><text
               transform="matrix(0,-1,-1,0,94.0003,348.651)"
               style="font-variant:normal;font-weight:normal;font-size:14px;font-family:Menlo;-inkscape-font-specification:Menlo-Regular;writing-mode:lr-tb;fill:#afafaf;fill-opacity:1;fill-rule:nonzero;stroke:none"
               id="text1210"><tspan
                 x="0 8.4280005 16.856001 25.283415 33.711414"
                 y="0"
                 id="tspan1208">1.0ms</tspan></text></g><path
             d="M 500,1039.76 H 458.332"
             style="fill:none;stroke:#afafaf;stroke-width:4.16667;stroke-linecap:butt;stroke-linejoin:miter;stroke-miterlimit:10;stroke-dasharray:none;stroke-opacity:1"
             id="path1212" /><g
             id="g1214"
             transform="scale(4.16667)"><text
               transform="matrix(0,-1,-1,0,94.0003,270.615)"
               style="font-variant:normal;font-weight:normal;font-size:14px;font-family:Menlo;-inkscape-font-specification:Menlo-Regular;writing-mode:lr-tb;fill:#afafaf;fill-opacity:1;fill-rule:nonzero;stroke:none"
               id="text1218"><tspan
                 x="0 8.4280005 16.855413 25.283415 33.711414"
                 y="0"
                 id="tspan1216">1.2ms</tspan></text></g><path
             d="M 500,714.613 H 458.332"
             style="fill:none;stroke:#afafaf;stroke-width:4.16667;stroke-linecap:butt;stroke-linejoin:miter;stroke-miterlimit:10;stroke-dasharray:none;stroke-opacity:1"
             id="path1220" /><g
             id="g1222"
             transform="scale(4.16667)"><text
               transform="matrix(0,-1,-1,0,94.0003,192.579)"
               style="font-variant:normal;font-weight:normal;font-size:14px;font-family:Menlo;-inkscape-font-specification:Menlo-Regular;writing-mode:lr-tb;fill:#afafaf;fill-opacity:1;fill-rule:nonzero;stroke:none"
               id="text1228"><tspan
                 x="0 8.4280005 16.855413 25.283415 33.711414"
                 y="0"
                 id="tspan1224">1.4ms</tspan><tspan
                 x="-543.60602 -552.03503 -560.4632 -568.89227 -577.32129"
                 y="-20"
                 id="tspan1226">V5.2-</tspan></text></g><path
             d="m 500,2990.65 v 41.67"
             style="fill:none;stroke:#afafaf;stroke-width:4.16667;stroke-linecap:butt;stroke-linejoin:miter;stroke-miterlimit:10;stroke-dasharray:none;stroke-opacity:1"
             id="path1230" /><g
             id="g1232"
             transform="scale(4.16667)"><text
               transform="matrix(0,-1,-1,0,150.5,736.185)"
               style="font-variant:normal;font-weight:normal;font-size:14px;font-family:Menlo;-inkscape-font-specification:Menlo-Regular;writing-mode:lr-tb;fill:#afafaf;fill-opacity:1;fill-rule:nonzero;stroke:none"
               id="text1236"><tspan
                 x="0 -8.42906 -16.857189 -25.286249 -33.715309"
                 y="0"
                 id="tspan1234">V0.2-</tspan></text></g><path
             d="m 652.082,2990.65 v 41.67"
             style="fill:none;stroke:#afafaf;stroke-width:4.16667;stroke-linecap:butt;stroke-linejoin:miter;stroke-miterlimit:10;stroke-dasharray:none;stroke-opacity:1"
             id="path1238" /><g
             id="g1240"
             transform="scale(4.16667)"><text
               transform="matrix(0,-1,-1,0,187,736.185)"
               style="font-variant:normal;font-weight:normal;font-size:14px;font-family:Menlo;-inkscape-font-specification:Menlo-Regular;writing-mode:lr-tb;fill:#afafaf;fill-opacity:1;fill-rule:nonzero;stroke:none"
               id="text1244"><tspan
                 x="0 -8.42906 -16.857189 -25.286249 -33.715309"
                 y="0"
                 id="tspan1242">V5.1-</tspan></text></g><path
             d="m 804.168,2990.65 v 41.67"
             style="fill:none;stroke:#afafaf;stroke-width:4.16667;stroke-linecap:butt;stroke-linejoin:miter;stroke-miterlimit:10;stroke-dasharray:none;stroke-opacity:1"
             id="path1246" /><g
             id="g1248"
             transform="scale(4.16667)"><text
               transform="matrix(0,-1,-1,0,223.5,736.185)"
               style="font-variant:normal;font-weight:normal;font-size:14px;font-family:Menlo;-inkscape-font-specification:Menlo-Regular;writing-mode:lr-tb;fill:#afafaf;fill-opacity:1;fill-rule:nonzero;stroke:none"
               id="text1252"><tspan
                 x="0 -8.42906 -16.857189 -25.286249 -33.715309"
                 y="0"
                 id="tspan1250">V0.1-</tspan></text></g><path
             d="m 956.25,2990.65 v 41.67"
             style="fill:none;stroke:#afafaf;stroke-width:4.16667;stroke-linecap:butt;stroke-linejoin:miter;stroke-miterlimit:10;stroke-dasharray:none;stroke-opacity:1"
             id="path1254" /><g
             id="g1256"
             transform="scale(4.16667)"><text
               transform="matrix(0,-1,-1,0,260,736.185)"
               style="font-variant:normal;font-weight:normal;font-size:14px;font-family:Menlo;-inkscape-font-specification:Menlo-Regular;writing-mode:lr-tb;fill:#afafaf;fill-opacity:1;fill-rule:nonzero;stroke:none"
               id="text1260"><tspan
                 x="0 -8.42906 -16.857189 -25.286249 -33.715309"
                 y="0"
                 id="tspan1258">V5.0-</tspan></text></g><path
             d="m 1108.33,2990.65 v 41.67"
             style="fill:none;stroke:#afafaf;stroke-width:4.16667;stroke-linecap:butt;stroke-linejoin:miter;stroke-miterlimit:10;stroke-dasharray:none;stroke-opacity:1"
             id="path1262" /><g
             id="g1264"
             transform="scale(4.16667)"><text
               transform="matrix(0,-1,-1,0,296.5,736.185)"
               style="font-variant:normal;font-weight:normal;font-size:14px;font-family:Menlo;-inkscape-font-specification:Menlo-Regular;writing-mode:lr-tb;fill:#afafaf;fill-opacity:1;fill-rule:nonzero;stroke:none"
               id="text1268"><tspan
                 x="0 -8.42906 -16.857189 -25.286249"
                 y="0"
                 id="tspan1266">V0.0</tspan></text></g><path
             d="m 1260.42,2990.65 v 41.67"
             style="fill:none;stroke:#afafaf;stroke-width:4.16667;stroke-linecap:butt;stroke-linejoin:miter;stroke-miterlimit:10;stroke-dasharray:none;stroke-opacity:1"
             id="path1270" /><g
             id="g1272"
             transform="scale(4.16667)"><text
               transform="matrix(0,-1,-1,0,333,736.185)"
               style="font-variant:normal;font-weight:normal;font-size:14px;font-family:Menlo;-inkscape-font-specification:Menlo-Regular;writing-mode:lr-tb;fill:#afafaf;fill-opacity:1;fill-rule:nonzero;stroke:none"
               id="text1276"><tspan
                 x="0 -8.42906 -16.857189 -25.286249"
                 y="0"
                 id="tspan1274">V5.0</tspan></text></g><path
             d="m 1412.5,2990.65 v 41.67"
             style="fill:none;stroke:#afafaf;stroke-width:4.16667;stroke-linecap:butt;stroke-linejoin:miter;stroke-miterlimit:10;stroke-dasharray:none;stroke-opacity:1"
             id="path1278" /><g
             id="g1280"
             transform="scale(4.16667)"><text
               transform="matrix(0,-1,-1,0,369.5,736.185)"
               style="font-variant:normal;font-weight:normal;font-size:14px;font-family:Menlo;-inkscape-font-specification:Menlo-Regular;writing-mode:lr-tb;fill:#afafaf;fill-opacity:1;fill-rule:nonzero;stroke:none"
               id="text1284"><tspan
                 x="0 -8.42906 -16.857189 -25.286249"
                 y="0"
                 id="tspan1282">V0.1</tspan></text></g><path
             d="m 1564.58,2990.65 v 41.67"
             style="fill:none;stroke:#afafaf;stroke-width:4.16667;stroke-linecap:butt;stroke-linejoin:miter;stroke-miterlimit:10;stroke-dasharray:none;stroke-opacity:1"
             id="path1286" /><g
             id="g1288"
             transform="scale(4.16667)"><text
               transform="matrix(0,-1,-1,0,406,736.185)"
               style="font-variant:normal;font-weight:normal;font-size:14px;font-family:Menlo;-inkscape-font-specification:Menlo-Regular;writing-mode:lr-tb;fill:#afafaf;fill-opacity:1;fill-rule:nonzero;stroke:none"
               id="text1292"><tspan
                 x="0 -8.42906 -16.857189 -25.286249"
                 y="0"
                 id="tspan1290">V5.1</tspan></text></g><path
             d="m 1716.67,2990.65 v 41.67"
             style="fill:none;stroke:#afafaf;stroke-width:4.16667;stroke-linecap:butt;stroke-linejoin:miter;stroke-miterlimit:10;stroke-dasharray:none;stroke-opacity:1"
             id="path1294" /><g
             id="g1296"
             transform="scale(4.16667)"><text
               transform="matrix(0,-1,-1,0,442.5,736.185)"
               style="font-variant:normal;font-weight:normal;font-size:14px;font-family:Menlo;-inkscape-font-specification:Menlo-Regular;writing-mode:lr-tb;fill:#afafaf;fill-opacity:1;fill-rule:nonzero;stroke:none"
               id="text1300"><tspan
                 x="0 -8.42906 -16.857189 -25.286249"
                 y="0"
                 id="tspan1298">V0.2</tspan></text></g><path
             d="m 1868.75,2990.65 v 41.67"
             style="fill:none;stroke:#afafaf;stroke-width:4.16667;stroke-linecap:butt;stroke-linejoin:miter;stroke-miterlimit:10;stroke-dasharray:none;stroke-opacity:1"
             id="path1302" /><g
             id="g1304"
             transform="scale(4.16667)"><text
               transform="matrix(0,-1,-1,0,479,736.185)"
               style="font-variant:normal;font-weight:normal;font-size:14px;font-family:Menlo;-inkscape-font-specification:Menlo-Regular;writing-mode:lr-tb;fill:#afafaf;fill-opacity:1;fill-rule:nonzero;stroke:none"
               id="text1308"><tspan
                 x="0 -8.42906 -16.857189 -25.286249"
                 y="0"
                 id="tspan1306">V5.2</tspan></text></g><path
             d="m 2020.83,2990.65 v 41.67"
             style="fill:none;stroke:#afafaf;stroke-width:4.16667;stroke-linecap:butt;stroke-linejoin:miter;stroke-miterlimit:10;stroke-dasharray:none;stroke-opacity:1"
             id="path1310" /><path
             d="m 500,389.465 h 1520.83 v 2601.19 H 500 Z"
             style="fill:none;stroke:#afafaf;stroke-width:4.16667;stroke-linecap:butt;stroke-linejoin:miter;stroke-miterlimit:10;stroke-dasharray:none;stroke-opacity:1"
             id="path1312" /><g
             id="g1314"
             transform="scale(4.16667)"><text
               transform="matrix(0,-1,-1,0,489,435.257)"
               style="font-variant:normal;font-weight:normal;font-size:14px;font-family:Menlo;-inkscape-font-specification:Menlo-Regular;writing-mode:lr-tb;fill:#0eff00;fill-opacity:1;fill-rule:nonzero;stroke:none"
               id="text1318"><tspan
                 x="0 8.4280005 16.855413 25.283415 33.710827 42.138828 50.56683"
                 y="0"
                 id="tspan1316">V(vout)</tspan></text></g></g></g><g
         id="g1320"><g
           id="g1322"
           clip-path="url(#clipPath1326)"><path
             d="m 1864.98,2990.65 v 0 l 25.57,-10.31 17.63,-10.41 8.73,-10.4 -1.23,-9.83 -11.34,-10.41 -20.94,-10.4 -29.69,-10.41 -37.12,-10.4 -43.38,-10.4 -48.08,-10.41 -51,-10.4 -52.28,-10.41 -52.08,-10.41 -50.65,-10.4 -48.27,-10.4 -45.23,-10.41 -41.76,-10.4 -38.11,-10.41 -34.42,-10.4 -30.79,-10.41 -27.24,-10.4 -23.35,-10.41 -18.13,-10.4 -11.73,-10.4 -6.42,-10.41 -3.58,-10.41 -2.32,-10.4 -1.57,-10.41 -1.04,-10.4 -0.65,-10.4 -0.32,-10.41 v -10.4 l 0.31,-10.41 0.64,-10.4 1.02,-10.41 1.5,-10.4 2.17,-10.41 3.19,-10.4 4.9,-10.41 7.94,-10.4 12.75,-10.41 18.59,-10.4 23.94,-10.41 28.23,-10.4 31.95,-10.4 35.62,-10.41 39.28,-10.4 42.85,-10.41 46.15,-10.41 48.96,-10.4 51.01,-10.4 52.06,-10.41 51.82,-10.4 50.1,-10.41 46.76,-10.4 41.61,-10.41 34.95,-10.4 27.28,-10.41 18.46,-10.4 8.77,-10.4 -1.25,-9.85 -11.37,-10.4 -20.99,-10.41 -29.71,-10.4 -37.16,-10.41 -43.4,-10.41 -48.11,-10.4 -51.01,-10.4 -52.28,-10.41 -52.08,-10.4 -50.65,-10.41 -48.27,-10.4 -45.22,-10.41 -41.76,-10.4 -38.1,-10.41 -34.4,-10.4 -30.78,-10.41 -27.23,-10.4 -23.34,-10.41 -18.1,-10.4 -11.72,-10.41 -6.41,-10.4 -3.57,-10.4 -2.32,-10.41 -1.57,-10.4 -1.04,-10.41 -0.65,-10.41 -0.31,-10.4 -0.01,-10.4 0.31,-10.41 0.65,-10.4 1.02,-10.41 1.51,-10.4 2.16,-10.41 3.2,-10.4 4.91,-10.41 7.96,-10.4 12.78,-10.41 18.61,-10.4 23.96,-10.41 28.24,-10.4 31.98,-10.41 35.63,-10.4 39.3,-10.4 42.87,-10.41 46.17,-10.4 48.96,-10.41 51.03,-10.4 52.06,-10.41 51.83,-10.4 50.09,-10.41 46.75,-10.4 41.6,-10.41 34.93,-10.4 27.25,-10.41 18.43,-10.4 8.72,-10.41 -1.31,-9.86 -11.43,-10.41 -21.03,-10.41 -29.78,-10.4 -37.2,-10.4 -43.44,-10.41 -48.13,-10.4 -51.03,-10.41 -52.29,-10.4 -52.08,-10.41 -50.65,-10.4 -48.25,-10.41 -45.2,-10.4 -41.74,-10.41 -38.08,-10.4 -34.39,-10.41 -30.76,-10.4 -27.22,-10.41 -23.3,-10.4 -18.08,-10.41 -11.69,-10.4 -6.38,-10.4 -3.57,-10.41 -2.32,-10.41 -1.56,-10.4 -1.04,-10.4 -0.64,-10.41 -0.31,-10.4 v -10.41 l 0.31,-10.4 0.64,-10.41 1.03,-10.4 1.51,-10.41 2.17,-10.4 3.21,-10.41 4.92,-10.4 7.99,-10.41 12.82,-10.4 18.65,-10.41 23.99,-10.4 28.27,-10.41 32,-10.4 35.66,-10.4 39.33,-10.41 42.89,-10.41 46.19,-10.4 48.99,-10.4 51.04,-10.41 52.07,-10.4 51.82,-10.41 50.09,-10.4 46.73,-10.41 41.56,-10.4 34.89,-10.41 27.21,-10.4 18.37,-10.41 8.65,-10.4 -1.39,-9.91 -11.52,-10.4 -21.13,-10.41 -29.86,-10.4 -37.28,-10.41 -43.49,-10.41 -48.17,-10.4 -51.06,-10.4 -52.3,-10.41 -52.08,-10.4 -50.63,-10.41 -48.23,-10.4 -45.17,-10.41 -41.71,-10.4 -38.05,-10.41 -34.35,-10.4 -30.73,-10.4 -27.18,-10.411 -23.27,-10.406 -18.02,-10.402 -11.63,-10.407 -6.35,-10.402 -3.55,-10.406 -2.31,-10.406 -1.56,-10.403 -1.03,-10.406 -0.65,-10.402 -0.3,-10.407 v -10.406 l 0.32,-10.402 0.64,-10.406 1.04,-10.403 1.51,-10.406 2.18,-10.406 3.22,-10.403 4.95,-10.406 8.03,-10.406 12.88,-10.403 18.71,-10.406 24.05,-10.402 28.31,-10.406 32.03,-10.407 35.7,-10.402 39.37,-10.406 42.93,-10.403 46.22,-10.406 49.02,-10.406 51.07,-10.402 52.08,-10.407 51.81,-10.406 50.07,-10.402 46.69,-10.406 41.51,-10.403 34.82,-10.406 27.12,-10.406 18.29,-10.403 8.53,-10.406 -1.52,-9.973 -11.67,-10.406 -21.29,-10.402 -29.99,-10.406 -37.39,-10.403 -43.58,-10.406 -48.24,-10.406 -51.09,-10.403 -52.32,-10.406 -52.07,-10.402 -50.6,-10.406 -48.19,-10.407 -45.13,-10.402 -41.65,-10.406 -37.99,-10.407 -34.3,-10.402 -30.67,-10.406 -27.13,-10.402 -24.19,-10.407 -5.7,-2.691"
             style="fill:none;stroke:#0eff00;stroke-width:4.16667;stroke-linecap:butt;stroke-linejoin:miter;stroke-miterlimit:1;stroke-dasharray:none;stroke-opacity:1"
             id="path1328" /><path
             d="M 1263.12,2996.48 1258.13,390.039"
             style="fill:none;stroke:#afafaf;stroke-width:4.16667;stroke-linecap:butt;stroke-linejoin:miter;stroke-miterlimit:10;stroke-dasharray:none;stroke-opacity:1"
             id="path1330" /></g></g></g></g></svg>
