<?xml version="1.0" encoding="UTF-8" standalone="no"?>
<svg
   xmlns:dc="http://purl.org/dc/elements/1.1/"
   xmlns:cc="http://creativecommons.org/ns#"
   xmlns:rdf="http://www.w3.org/1999/02/22-rdf-syntax-ns#"
   xmlns:svg="http://www.w3.org/2000/svg"
   xmlns="http://www.w3.org/2000/svg"
   version="1.1"
   id="svg710"
   xml:space="preserve"
   width="569.03107"
   height="361.33768"
   viewBox="0 0 853.54659 542.00654"><metadata
     id="metadata716"><rdf:RDF><cc:Work
         rdf:about=""><dc:format>image/svg+xml</dc:format><dc:type
           rdf:resource="http://purl.org/dc/dcmitype/StillImage" /><dc:title></dc:title></cc:Work></rdf:RDF></metadata><defs
     id="defs714"><clipPath
       clipPathUnits="userSpaceOnUse"
       id="clipPath728"><path
         d="m 375,299.582 h 1729.17 v 2908.34 H 375 Z"
         id="path726" /></clipPath><clipPath
       clipPathUnits="userSpaceOnUse"
       id="clipPath896"><path
         d="m 500,537.082 h 1520.83 v 2420.84 H 500 Z"
         id="path894" /></clipPath></defs><g
     id="g718"
     transform="matrix(0,-1.3333333,-1.3333333,0,1025.605,667.07604)"><g
       id="g720"
       transform="scale(0.24)"><g
         id="g722"><g
           id="g724"
           clip-path="url(#clipPath728)"><g
             id="g730"
             transform="scale(4.16667)"><text
               transform="matrix(0,-1,-1,0,94.0003,726.186)"
               style="font-variant:normal;font-weight:normal;font-size:14px;font-family:Menlo;-inkscape-font-specification:Menlo-Regular;writing-mode:lr-tb;fill:#afafaf;fill-opacity:1;fill-rule:nonzero;stroke:none"
               id="text734"><tspan
                 x="0 8.4280005 16.856001 25.283415"
                 y="0"
                 id="tspan732">10Hz</tspan></text></g><path
             d="M 500,2955.53 H 458.332"
             style="fill:none;stroke:#afafaf;stroke-width:4.16667;stroke-linecap:butt;stroke-linejoin:miter;stroke-miterlimit:10;stroke-dasharray:none;stroke-opacity:1"
             id="path736" /><path
             d="M 500,2726.57 H 479.168"
             style="fill:none;stroke:#afafaf;stroke-width:4.16667;stroke-linecap:butt;stroke-linejoin:miter;stroke-miterlimit:10;stroke-dasharray:none;stroke-opacity:1"
             id="path738" /><path
             d="M 500,2592.63 H 479.168"
             style="fill:none;stroke:#afafaf;stroke-width:4.16667;stroke-linecap:butt;stroke-linejoin:miter;stroke-miterlimit:10;stroke-dasharray:none;stroke-opacity:1"
             id="path740" /><path
             d="M 500,2497.6 H 479.168"
             style="fill:none;stroke:#afafaf;stroke-width:4.16667;stroke-linecap:butt;stroke-linejoin:miter;stroke-miterlimit:10;stroke-dasharray:none;stroke-opacity:1"
             id="path742" /><path
             d="M 500,2423.89 H 479.168"
             style="fill:none;stroke:#afafaf;stroke-width:4.16667;stroke-linecap:butt;stroke-linejoin:miter;stroke-miterlimit:10;stroke-dasharray:none;stroke-opacity:1"
             id="path744" /><path
             d="M 500,2363.66 H 479.168"
             style="fill:none;stroke:#afafaf;stroke-width:4.16667;stroke-linecap:butt;stroke-linejoin:miter;stroke-miterlimit:10;stroke-dasharray:none;stroke-opacity:1"
             id="path746" /><path
             d="M 500,2312.74 H 479.168"
             style="fill:none;stroke:#afafaf;stroke-width:4.16667;stroke-linecap:butt;stroke-linejoin:miter;stroke-miterlimit:10;stroke-dasharray:none;stroke-opacity:1"
             id="path748" /><path
             d="M 500,2268.63 H 479.168"
             style="fill:none;stroke:#afafaf;stroke-width:4.16667;stroke-linecap:butt;stroke-linejoin:miter;stroke-miterlimit:10;stroke-dasharray:none;stroke-opacity:1"
             id="path750" /><path
             d="M 500,2229.73 H 479.168"
             style="fill:none;stroke:#afafaf;stroke-width:4.16667;stroke-linecap:butt;stroke-linejoin:miter;stroke-miterlimit:10;stroke-dasharray:none;stroke-opacity:1"
             id="path752" /><g
             id="g754"
             transform="scale(4.16667)"><text
               transform="matrix(0,-1,-1,0,94.0003,547.853)"
               style="font-variant:normal;font-weight:normal;font-size:14px;font-family:Menlo;-inkscape-font-specification:Menlo-Regular;writing-mode:lr-tb;fill:#afafaf;fill-opacity:1;fill-rule:nonzero;stroke:none"
               id="text758"><tspan
                 x="0 8.4280005 16.856001 25.283415 33.711414"
                 y="0"
                 id="tspan756">100Hz</tspan></text></g><path
             d="M 500,2194.92 H 458.332"
             style="fill:none;stroke:#afafaf;stroke-width:4.16667;stroke-linecap:butt;stroke-linejoin:miter;stroke-miterlimit:10;stroke-dasharray:none;stroke-opacity:1"
             id="path760" /><path
             d="M 500,1965.96 H 479.168"
             style="fill:none;stroke:#afafaf;stroke-width:4.16667;stroke-linecap:butt;stroke-linejoin:miter;stroke-miterlimit:10;stroke-dasharray:none;stroke-opacity:1"
             id="path762" /><path
             d="M 500,1832.02 H 479.168"
             style="fill:none;stroke:#afafaf;stroke-width:4.16667;stroke-linecap:butt;stroke-linejoin:miter;stroke-miterlimit:10;stroke-dasharray:none;stroke-opacity:1"
             id="path764" /><path
             d="M 500,1736.99 H 479.168"
             style="fill:none;stroke:#afafaf;stroke-width:4.16667;stroke-linecap:butt;stroke-linejoin:miter;stroke-miterlimit:10;stroke-dasharray:none;stroke-opacity:1"
             id="path766" /><path
             d="M 500,1663.28 H 479.168"
             style="fill:none;stroke:#afafaf;stroke-width:4.16667;stroke-linecap:butt;stroke-linejoin:miter;stroke-miterlimit:10;stroke-dasharray:none;stroke-opacity:1"
             id="path768" /><path
             d="M 500,1603.05 H 479.168"
             style="fill:none;stroke:#afafaf;stroke-width:4.16667;stroke-linecap:butt;stroke-linejoin:miter;stroke-miterlimit:10;stroke-dasharray:none;stroke-opacity:1"
             id="path770" /><path
             d="M 500,1552.13 H 479.168"
             style="fill:none;stroke:#afafaf;stroke-width:4.16667;stroke-linecap:butt;stroke-linejoin:miter;stroke-miterlimit:10;stroke-dasharray:none;stroke-opacity:1"
             id="path772" /><path
             d="M 500,1508.02 H 479.168"
             style="fill:none;stroke:#afafaf;stroke-width:4.16667;stroke-linecap:butt;stroke-linejoin:miter;stroke-miterlimit:10;stroke-dasharray:none;stroke-opacity:1"
             id="path774" /><path
             d="M 500,1469.12 H 479.168"
             style="fill:none;stroke:#afafaf;stroke-width:4.16667;stroke-linecap:butt;stroke-linejoin:miter;stroke-miterlimit:10;stroke-dasharray:none;stroke-opacity:1"
             id="path776" /><g
             id="g778"
             transform="scale(4.16667)"><text
               transform="matrix(0,-1,-1,0,94.0003,361.092)"
               style="font-variant:normal;font-weight:normal;font-size:14px;font-family:Menlo;-inkscape-font-specification:Menlo-Regular;writing-mode:lr-tb;fill:#afafaf;fill-opacity:1;fill-rule:nonzero;stroke:none"
               id="text782"><tspan
                 x="0 8.4280005 16.855413 25.283415"
                 y="0"
                 id="tspan780">1KHz</tspan></text></g><path
             d="M 500,1434.31 H 458.332"
             style="fill:none;stroke:#afafaf;stroke-width:4.16667;stroke-linecap:butt;stroke-linejoin:miter;stroke-miterlimit:10;stroke-dasharray:none;stroke-opacity:1"
             id="path784" /><path
             d="M 500,1205.34 H 479.168"
             style="fill:none;stroke:#afafaf;stroke-width:4.16667;stroke-linecap:butt;stroke-linejoin:miter;stroke-miterlimit:10;stroke-dasharray:none;stroke-opacity:1"
             id="path786" /><path
             d="M 500,1071.41 H 479.168"
             style="fill:none;stroke:#afafaf;stroke-width:4.16667;stroke-linecap:butt;stroke-linejoin:miter;stroke-miterlimit:10;stroke-dasharray:none;stroke-opacity:1"
             id="path788" /><path
             d="M 500,976.379 H 479.168"
             style="fill:none;stroke:#afafaf;stroke-width:4.16667;stroke-linecap:butt;stroke-linejoin:miter;stroke-miterlimit:10;stroke-dasharray:none;stroke-opacity:1"
             id="path790" /><path
             d="M 500,902.668 H 479.168"
             style="fill:none;stroke:#afafaf;stroke-width:4.16667;stroke-linecap:butt;stroke-linejoin:miter;stroke-miterlimit:10;stroke-dasharray:none;stroke-opacity:1"
             id="path792" /><path
             d="M 500,842.441 H 479.168"
             style="fill:none;stroke:#afafaf;stroke-width:4.16667;stroke-linecap:butt;stroke-linejoin:miter;stroke-miterlimit:10;stroke-dasharray:none;stroke-opacity:1"
             id="path794" /><path
             d="M 500,791.523 H 479.168"
             style="fill:none;stroke:#afafaf;stroke-width:4.16667;stroke-linecap:butt;stroke-linejoin:miter;stroke-miterlimit:10;stroke-dasharray:none;stroke-opacity:1"
             id="path796" /><path
             d="M 500,747.414 H 479.168"
             style="fill:none;stroke:#afafaf;stroke-width:4.16667;stroke-linecap:butt;stroke-linejoin:miter;stroke-miterlimit:10;stroke-dasharray:none;stroke-opacity:1"
             id="path798" /><path
             d="M 500,708.504 H 479.168"
             style="fill:none;stroke:#afafaf;stroke-width:4.16667;stroke-linecap:butt;stroke-linejoin:miter;stroke-miterlimit:10;stroke-dasharray:none;stroke-opacity:1"
             id="path800" /><g
             id="g802"
             transform="scale(4.16667)"><text
               transform="matrix(0,-1,-1,0,94.0003,182.76)"
               style="font-variant:normal;font-weight:normal;font-size:14px;font-family:Menlo;-inkscape-font-specification:Menlo-Regular;writing-mode:lr-tb;fill:#afafaf;fill-opacity:1;fill-rule:nonzero;stroke:none"
               id="text806"><tspan
                 x="0 8.4274139 16.855413 25.283415 33.710827"
                 y="0"
                 id="tspan804">10KHz</tspan></text></g><path
             d="M 500,673.703 H 458.332"
             style="fill:none;stroke:#afafaf;stroke-width:4.16667;stroke-linecap:butt;stroke-linejoin:miter;stroke-miterlimit:10;stroke-dasharray:none;stroke-opacity:1"
             id="path808" /><g
             id="g810"
             transform="scale(4.16667)"><text
               transform="matrix(0,-1,-1,0,114,727.757)"
               style="font-variant:normal;font-weight:normal;font-size:14px;font-family:Menlo;-inkscape-font-specification:Menlo-Regular;writing-mode:lr-tb;fill:#afafaf;fill-opacity:1;fill-rule:nonzero;stroke:none"
               id="text814"><tspan
                 x="0 -8.4281301 -16.857189 -25.28532 -33.714378 -42.14344"
                 y="0"
                 id="tspan812">Bd2.3-</tspan></text></g><path
             d="m 500,2955.53 v 41.67"
             style="fill:none;stroke:#afafaf;stroke-width:4.16667;stroke-linecap:butt;stroke-linejoin:miter;stroke-miterlimit:10;stroke-dasharray:none;stroke-opacity:1"
             id="path816" /><g
             id="g818"
             transform="scale(4.16667)"><text
               transform="matrix(0,-1,-1,0,159.625,727.757)"
               style="font-variant:normal;font-weight:normal;font-size:14px;font-family:Menlo;-inkscape-font-specification:Menlo-Regular;writing-mode:lr-tb;fill:#afafaf;fill-opacity:1;fill-rule:nonzero;stroke:none"
               id="text822"><tspan
                 x="0 -8.4281301 -16.857189 -25.28532 -33.714378 -42.14344"
                 y="0"
                 id="tspan820">Bd0.3-</tspan></text></g><path
             d="m 690.105,2955.53 v 41.67"
             style="fill:none;stroke:#afafaf;stroke-width:4.16667;stroke-linecap:butt;stroke-linejoin:miter;stroke-miterlimit:10;stroke-dasharray:none;stroke-opacity:1"
             id="path824" /><g
             id="g826"
             transform="scale(4.16667)"><text
               transform="matrix(0,-1,-1,0,205.25,727.757)"
               style="font-variant:normal;font-weight:normal;font-size:14px;font-family:Menlo;-inkscape-font-specification:Menlo-Regular;writing-mode:lr-tb;fill:#afafaf;fill-opacity:1;fill-rule:nonzero;stroke:none"
               id="text830"><tspan
                 x="0 -8.4281301 -16.857189 -25.28532 -33.714378 -42.14344"
                 y="0"
                 id="tspan828">Bd8.2-</tspan></text></g><path
             d="m 880.207,2955.53 v 41.67"
             style="fill:none;stroke:#afafaf;stroke-width:4.16667;stroke-linecap:butt;stroke-linejoin:miter;stroke-miterlimit:10;stroke-dasharray:none;stroke-opacity:1"
             id="path832" /><g
             id="g834"
             transform="scale(4.16667)"><text
               transform="matrix(0,-1,-1,0,250.875,727.757)"
               style="font-variant:normal;font-weight:normal;font-size:14px;font-family:Menlo;-inkscape-font-specification:Menlo-Regular;writing-mode:lr-tb;fill:#afafaf;fill-opacity:1;fill-rule:nonzero;stroke:none"
               id="text838"><tspan
                 x="0 -8.4281301 -16.857189 -25.28532 -33.714378 -42.14344"
                 y="0"
                 id="tspan836">Bd6.2-</tspan></text></g><path
             d="m 1070.31,2955.53 v 41.67"
             style="fill:none;stroke:#afafaf;stroke-width:4.16667;stroke-linecap:butt;stroke-linejoin:miter;stroke-miterlimit:10;stroke-dasharray:none;stroke-opacity:1"
             id="path840" /><g
             id="g842"
             transform="scale(4.16667)"><text
               transform="matrix(0,-1,-1,0,296.5,727.757)"
               style="font-variant:normal;font-weight:normal;font-size:14px;font-family:Menlo;-inkscape-font-specification:Menlo-Regular;writing-mode:lr-tb;fill:#afafaf;fill-opacity:1;fill-rule:nonzero;stroke:none"
               id="text846"><tspan
                 x="0 -8.4281301 -16.857189 -25.28532 -33.714378 -42.14344"
                 y="0"
                 id="tspan844">Bd4.2-</tspan></text></g><path
             d="m 1260.42,2955.53 v 41.67"
             style="fill:none;stroke:#afafaf;stroke-width:4.16667;stroke-linecap:butt;stroke-linejoin:miter;stroke-miterlimit:10;stroke-dasharray:none;stroke-opacity:1"
             id="path848" /><g
             id="g850"
             transform="scale(4.16667)"><text
               transform="matrix(0,-1,-1,0,342.125,727.757)"
               style="font-variant:normal;font-weight:normal;font-size:14px;font-family:Menlo;-inkscape-font-specification:Menlo-Regular;writing-mode:lr-tb;fill:#afafaf;fill-opacity:1;fill-rule:nonzero;stroke:none"
               id="text854"><tspan
                 x="0 -8.4281301 -16.857189 -25.28532 -33.714378 -42.14344"
                 y="0"
                 id="tspan852">Bd2.2-</tspan></text></g><path
             d="m 1450.52,2955.53 v 41.67"
             style="fill:none;stroke:#afafaf;stroke-width:4.16667;stroke-linecap:butt;stroke-linejoin:miter;stroke-miterlimit:10;stroke-dasharray:none;stroke-opacity:1"
             id="path856" /><g
             id="g858"
             transform="scale(4.16667)"><text
               transform="matrix(0,-1,-1,0,387.75,727.757)"
               style="font-variant:normal;font-weight:normal;font-size:14px;font-family:Menlo;-inkscape-font-specification:Menlo-Regular;writing-mode:lr-tb;fill:#afafaf;fill-opacity:1;fill-rule:nonzero;stroke:none"
               id="text862"><tspan
                 x="0 -8.4281301 -16.857189 -25.28532 -33.714378 -42.14344"
                 y="0"
                 id="tspan860">Bd0.2-</tspan></text></g><path
             d="m 1640.63,2955.53 v 41.67"
             style="fill:none;stroke:#afafaf;stroke-width:4.16667;stroke-linecap:butt;stroke-linejoin:miter;stroke-miterlimit:10;stroke-dasharray:none;stroke-opacity:1"
             id="path864" /><g
             id="g866"
             transform="scale(4.16667)"><text
               transform="matrix(0,-1,-1,0,433.375,727.757)"
               style="font-variant:normal;font-weight:normal;font-size:14px;font-family:Menlo;-inkscape-font-specification:Menlo-Regular;writing-mode:lr-tb;fill:#afafaf;fill-opacity:1;fill-rule:nonzero;stroke:none"
               id="text870"><tspan
                 x="0 -8.4281301 -16.857189 -25.28532 -33.714378 -42.14344"
                 y="0"
                 id="tspan868">Bd8.1-</tspan></text></g><path
             d="m 1830.73,2955.53 v 41.67"
             style="fill:none;stroke:#afafaf;stroke-width:4.16667;stroke-linecap:butt;stroke-linejoin:miter;stroke-miterlimit:10;stroke-dasharray:none;stroke-opacity:1"
             id="path872" /><g
             id="g874"
             transform="scale(4.16667)"><text
               transform="matrix(0,-1,-1,0,479,727.757)"
               style="font-variant:normal;font-weight:normal;font-size:14px;font-family:Menlo;-inkscape-font-specification:Menlo-Regular;writing-mode:lr-tb;fill:#afafaf;fill-opacity:1;fill-rule:nonzero;stroke:none"
               id="text878"><tspan
                 x="0 -8.4281301 -16.857189 -25.28532 -33.714378 -42.14344"
                 y="0"
                 id="tspan876">Bd6.1-</tspan></text></g><path
             d="m 2020.83,2955.53 v 41.67"
             style="fill:none;stroke:#afafaf;stroke-width:4.16667;stroke-linecap:butt;stroke-linejoin:miter;stroke-miterlimit:10;stroke-dasharray:none;stroke-opacity:1"
             id="path880" /><path
             d="m 500,539.766 h 1520.83 v 2415.77 H 500 Z"
             style="fill:none;stroke:#afafaf;stroke-width:4.16667;stroke-linecap:butt;stroke-linejoin:miter;stroke-miterlimit:10;stroke-dasharray:none;stroke-opacity:1"
             id="path882" /><g
             id="g884"
             transform="scale(4.16667)"><text
               transform="matrix(0,-1,-1,0,489,449.328)"
               style="font-variant:normal;font-weight:normal;font-size:14px;font-family:Menlo;-inkscape-font-specification:Menlo-Regular;writing-mode:lr-tb;fill:#0eff00;fill-opacity:1;fill-rule:nonzero;stroke:none"
               id="text888"><tspan
                 x="0 8.4274139 16.855413 25.282827 33.710827 42.138828 50.566242"
                 y="0"
                 id="tspan886">V(vout)</tspan></text></g></g></g><g
         id="g890"><g
           id="g892"
           clip-path="url(#clipPath896)"><path
             d="m 536.797,2955.53 v 0 l 8.492,-1.14 8.453,-1.15 8.41,-1.14 8.371,-1.15 8.329,-1.14 8.285,-1.15 8.242,-1.14 8.203,-1.14 8.164,-1.15 8.121,-1.14 8.078,-1.15 8.039,-1.15 8,-1.14 7.957,-1.15 7.918,-1.14 7.875,-1.15 7.84,-1.14 7.797,-1.14 7.758,-1.15 7.715,-1.14 7.679,-1.15 7.641,-1.14 7.598,-1.15 7.558,-1.15 7.524,-1.14 7.48,-1.14 7.446,-1.15 7.406,-1.14 7.363,-1.15 7.328,-1.14 7.289,-1.15 7.254,-1.14 7.215,-1.15 7.176,-1.14 7.137,-1.15 7.101,-1.14 7.063,-1.15 7.027,-1.14 6.988,-1.15 6.949,-1.14 6.918,-1.15 6.875,-1.14 6.844,-1.15 6.805,-1.14 6.769,-1.14 6.731,-1.15 6.699,-1.14 6.66,-1.15 6.625,-1.14 6.59,-1.15 6.551,-1.15 6.519,-1.14 6.485,-1.14 6.449,-1.15 6.41,-1.14 6.379,-1.15 6.344,-1.14 6.308,-1.15 6.278,-1.14 6.242,-1.15 6.203,-1.14 6.176,-1.15 6.137,-1.14 6.107,-1.15 6.07,-1.14 6.04,-1.15 6,-1.14 5.97,-1.15 5.94,-1.14 5.91,-1.15 5.87,-1.14 5.84,-1.14 5.81,-1.15 5.77,-1.14 5.75,-1.15 5.71,-1.15 5.68,-1.14 5.65,-1.15 5.61,-1.14 5.59,-1.14 5.55,-1.15 5.52,-1.14 5.5,-1.15 5.46,-1.14 5.42,-1.15 5.4,-1.14 5.37,-1.15 5.34,-1.14 5.31,-1.15 5.27,-1.14 5.25,-1.15 5.22,-1.14 5.19,-1.15 5.15,-1.14 5.13,-1.15 5.1,-1.14 5.07,-1.15 5.04,-1.14 5.01,-1.14 4.98,-1.15 4.96,-1.15 4.93,-1.14 4.89,-1.15 4.87,-1.14 4.84,-1.15 4.81,-1.14 4.79,-1.14 4.76,-1.15 4.73,-1.14 4.7,-1.15 4.68,-1.14 4.64,-1.15 4.62,-1.14 4.6,-1.15 4.56,-1.14 4.55,-1.15 4.51,-1.14 4.49,-1.15 4.46,-1.14 4.43,-1.15 4.41,-1.14 4.38,-1.15 4.36,-1.14 4.33,-1.15 4.31,-1.14 4.27,-1.14 4.26,-1.15 4.23,-1.15 4.2,-1.14 4.18,-1.15 4.16,-1.14 4.13,-1.15 4.1,-1.14 4.08,-1.14 4.06,-1.15 4.03,-1.14 4.01,-1.15 3.98,-1.14 3.97,-1.15 3.93,-1.15 3.91,-1.14 3.89,-1.15 3.87,-1.14 3.85,-1.14 3.81,-1.15 3.8,-1.14 3.78,-1.15 3.75,-1.14 3.73,-1.15 3.7,-1.14 3.68,-1.15 3.67,-1.14 3.63,-1.15 3.62,-1.14 3.6,-1.15 3.57,-1.14 3.55,-1.15 3.53,-1.14 3.51,-1.15 3.49,-1.14 3.47,-1.15 3.44,-1.14 3.42,-1.14 3.41,-1.15 3.38,-1.14 3.36,-1.15 3.34,-1.15 3.32,-1.14 3.3,-1.15 3.28,-1.14 3.26,-1.14 3.24,-1.15 3.22,-1.14 3.2,-1.15 3.18,-1.14 3.16,-1.15 3.14,-1.14 3.12,-1.15 3.1,-1.14 3.08,-1.15 3.07,-1.14 3.04,-1.15 3.03,-1.14 3.01,-1.15 2.99,-1.14 2.96,-1.15 2.96,-1.14 2.93,-1.15 2.92,-1.14 2.89,-1.14 2.88,-1.15 2.86,-1.14 2.84,-1.15 2.83,-1.15 2.8,-1.14 2.79,-1.15 2.78,-1.14 2.75,-1.14 2.74,-1.15 2.72,-1.14 2.7,-1.15 2.69,-1.14 2.67,-1.15 2.65,-1.14 2.64,-1.15 2.62,-1.14 2.6,-1.15 2.59,-1.14 2.57,-1.15 2.55,-1.14 2.54,-1.15 2.52,-1.14 2.51,-1.15 2.49,-1.14 2.47,-1.15 2.46,-1.14 2.45,-1.14 2.42,-1.15 2.42,-1.15 2.39,-1.14 2.38,-1.15 2.37,-1.14 2.35,-1.15 2.34,-1.14 2.32,-1.14 2.31,-1.15 2.29,-1.14 2.28,-1.15 2.26,-1.14 2.25,-1.15 2.24,-1.15 2.22,-1.14 2.2,-1.14 2.19,-1.15 2.18,-1.14 2.16,-1.15 2.16,-1.14 2.13,-1.15 2.12,-1.14 2.11,-1.15 2.1,-1.14 2.08,-1.15 2.07,-1.14 2.06,-1.15 2.04,-1.14 2.03,-1.15 2.01,-1.14 2,-1.15 1.99,-1.14 1.98,-1.15 1.97,-1.14 1.95,-1.14 1.94,-1.15 1.92,-1.14 1.92,-1.15 1.9,-1.14 1.89,-1.15 1.88,-1.15 1.86,-1.14 1.86,-1.14 1.84,-1.15 1.83,-1.14 1.81,-1.15 1.81,-1.14 1.8,-1.15 1.78,-1.14 1.77,-1.15 1.76,-1.14 1.74,-1.15 1.74,-1.14 1.73,-1.15 1.71,-1.14 1.7,-1.15 1.69,-1.14 1.68,-1.15 1.68,-1.14 1.65,-1.15 1.65,-1.14 1.64,-1.14 1.63,-1.15 1.61,-1.14 1.61,-1.15 1.59,-1.15 1.59,-1.14 1.57,-1.15 1.57,-1.14 1.55,-1.15 1.54,-1.14 1.53,-1.14 1.53,-1.15 1.51,-1.14 1.51,-1.15 1.49,-1.14 1.48,-1.15 1.48,-1.14 1.46,-1.15 1.46,-1.14 1.44,-1.15 1.44,-1.14 1.42,-1.15 1.42,-1.14 1.41,-1.15 1.4,-1.14 1.39,-1.15 2.75,-2.29 2.71,-2.28 2.68,-2.3 2.65,-2.29 2.6,-2.29 2.58,-2.28 2.54,-2.29 2.51,-2.29 2.47,-2.3 2.44,-2.28 2.41,-2.29 2.38,-2.29 2.35,-2.29 2.31,-2.29 2.29,-2.29 2.25,-2.29 2.23,-2.29 2.19,-2.29 2.17,-2.29 2.14,-2.29 2.11,-2.29 2.08,-2.29 2.05,-2.29 2.03,-2.29 2,-2.29 1.97,-2.29 1.95,-2.29 1.91,-2.29 1.9,-2.29 1.87,-2.29 1.84,-2.29 1.82,-2.29 1.8,-2.28 1.77,-2.29 1.75,-2.3 1.73,-2.29 1.7,-2.28 1.68,-2.29 1.66,-2.29 1.63,-2.29 1.61,-2.29 1.59,-2.29 1.57,-2.29 1.55,-2.29 1.53,-2.29 1.51,-2.29 1.48,-2.29 1.47,-2.29 1.45,-2.29 1.43,-2.29 1.41,-2.29 1.39,-2.29 1.37,-2.29 1.35,-2.29 1.34,-2.29 1.31,-2.29 1.3,-2.29 1.28,-2.29 1.27,-2.29 1.25,-2.28 1.23,-2.3 1.21,-2.29 1.2,-2.29 1.18,-2.29 1.16,-2.28 1.16,-2.29 1.13,-2.3 1.12,-2.29 1.1,-2.28 1.09,-2.29 1.08,-2.29 1.05,-2.29 1.05,-2.29 1.03,-2.29 1.02,-2.29 1,-2.29 0.99,-2.29 0.98,-2.29 0.97,-2.29 0.94,-2.29 0.94,-2.29 0.93,-2.29 0.91,-2.29 0.9,-2.29 0.89,-2.29 0.87,-2.29 0.87,-2.29 0.85,-2.29 0.84,-2.29 0.83,-2.29 0.82,-2.29 0.8,-2.28 0.8,-2.3 0.79,-2.29 0.77,-2.29 0.77,-2.28 0.75,-2.29 0.74,-2.29 0.73,-2.29 0.73,-2.29 0.71,-2.29 0.7,-2.29 0.7,-2.29 0.68,-2.29 0.68,-2.29 0.67,-2.29 0.65,-2.29 0.65,-2.29 0.64,-2.29 0.63,-2.29 0.62,-2.29 0.62,-2.29 0.6,-2.29 0.6,-2.29 0.59,-2.29 0.58,-2.29 0.57,-2.29 0.57,-2.29 0.55,-2.29 0.55,-2.29 0.55,-2.29 0.53,-2.29 0.53,-2.28 0.52,-2.29 0.51,-2.29 0.51,-2.3 0.5,-2.29 0.49,-2.28 0.49,-2.29 0.48,-2.29 0.47,-2.29 0.47,-2.29 0.45,-2.29 0.46,-2.29 0.45,-2.29 0.44,-2.29 0.43,-2.29 0.43,-2.29 0.43,-2.29 0.42,-2.29 0.41,-2.29 0.4,-2.29 0.4,-2.29 0.4,-2.29 0.39,-2.29 0.38,-2.29 0.38,-2.29 0.38,-2.29 0.37,-2.29 0.36,-2.29 0.36,-2.28 0.35,-2.3 0.35,-2.29 0.35,-2.29 0.34,-2.28 0.33,-2.29 0.33,-2.29 0.33,-2.29 0.32,-2.29 0.32,-2.29 0.31,-2.29 0.31,-2.29 0.3,-2.29 0.3,-2.29 0.3,-2.29 0.29,-2.29 0.29,-2.29 0.28,-2.29 0.28,-2.29 0.28,-2.29 0.27,-2.29 0.27,-2.29 0.27,-2.29 0.26,-2.29 0.26,-2.29 0.25,-2.29 0.25,-2.29 0.25,-2.29 0.24,-2.29 0.24,-2.29 0.24,-2.29 0.23,-2.28 0.23,-2.29 0.23,-2.29 0.23,-2.3 0.22,-2.28 0.22,-2.29 0.21,-2.29 0.21,-2.29 0.21,-2.29 0.21,-2.29 0.2,-2.29 0.2,-2.29 0.2,-2.29 0.2,-2.29 0.19,-2.29 0.19,-2.29 0.19,-2.29 0.19,-2.29 0.18,-2.29 0.17,-2.29 0.18,-2.29 0.18,-2.29 0.17,-2.29 0.17,-2.29 0.17,-2.29"
             style="fill:none;stroke:#0eff00;stroke-width:4.16667;stroke-linecap:butt;stroke-linejoin:miter;stroke-miterlimit:1;stroke-dasharray:none;stroke-opacity:1"
             id="path898" /><path
             d="m 1972.58,2135.83 v 0 l 0.17,-2.29 0.16,-2.29 0.16,-2.29 0.16,-2.28 0.16,-2.3 0.15,-2.29 0.15,-2.29 0.15,-2.28 0.15,-2.29 0.15,-2.29 0.14,-2.3 0.14,-2.28 0.14,-2.29 0.14,-2.29 0.14,-2.29 0.13,-2.29 0.14,-2.29 0.12,-2.29 0.13,-2.29 0.13,-2.29 0.13,-2.29 0.12,-2.29 0.12,-2.29 0.12,-2.29 0.12,-2.29 0.12,-2.29 0.12,-2.29 0.11,-2.29 0.11,-2.29 0.11,-2.29 0.11,-2.29 0.11,-2.29 0.11,-2.29 0.1,-2.29 0.1,-2.28 0.1,-2.29 0.11,-2.3 0.09,-2.29 0.1,-2.28 0.1,-2.29 0.09,-2.29 0.1,-2.29 0.09,-2.29 0.09,-2.29 0.09,-2.29 0.09,-2.29 0.09,-2.29 0.08,-2.29 0.09,-2.29 0.08,-2.29 0.08,-2.29 0.08,-2.29 0.09,-2.29 0.07,-2.29 0.08,-2.29 0.08,-2.29 0.07,-2.29 0.08,-2.29 0.07,-2.29 0.08,-2.29 0.07,-2.29 0.07,-2.28 0.07,-2.3 0.07,-2.29 0.06,-2.29 0.07,-2.29 0.07,-2.28 0.06,-2.29 0.07,-2.3 0.06,-2.29 0.06,-2.28 0.06,-2.29 0.07,-2.29 0.06,-2.29 0.05,-2.29 0.06,-2.29 0.06,-2.29 0.06,-2.29 0.05,-2.29 0.06,-2.29 0.05,-2.29 0.05,-2.29 0.06,-2.29 0.05,-2.29 0.05,-2.29 0.05,-2.29 0.05,-2.29 0.05,-2.29 0.05,-2.29 0.04,-2.29 0.05,-2.29 0.05,-2.29 0.04,-2.29 0.05,-2.28 0.04,-2.3 0.05,-2.29 0.04,-2.29 0.04,-2.28 0.04,-2.29 0.04,-2.29 0.04,-2.29 0.04,-2.29 0.05,-2.29 0.03,-2.29 0.04,-2.29 0.04,-2.29 0.03,-2.29 0.04,-2.29 0.04,-2.29 0.03,-2.29 0.04,-2.29 0.03,-2.29 0.04,-2.29 0.03,-2.29 0.04,-2.29 0.03,-2.29 0.03,-2.29 0.03,-2.29 0.03,-2.29 0.03,-2.29 0.03,-2.29 0.03,-2.29 0.03,-2.29 0.03,-2.29 0.03,-2.28 0.03,-2.29 0.02,-2.3 0.03,-2.29 0.03,-2.29 0.03,-2.28 0.02,-2.29 0.03,-2.29 0.02,-2.29 0.03,-2.29 0.02,-2.29 0.02,-2.29 0.03,-2.29 0.02,-2.29 0.03,-2.29 0.02,-2.29 0.02,-2.29 0.02,-2.29 0.02,-2.29 0.02,-2.29 0.02,-2.29 0.02,-2.29 0.03,-2.29 0.02,-2.29 0.02,-2.29 0.02,-2.29 0.01,-2.29 0.02,-2.29 0.02,-2.29 0.02,-2.29 0.02,-2.29 0.01,-2.29 0.02,-2.28 0.02,-2.29 0.01,-2.29 0.02,-2.3 0.01,-2.28 0.02,-2.29 0.01,-2.29 0.02,-2.29 0.02,-2.29 0.01,-2.29 0.01,-2.29 0.02,-2.29 0.01,-2.29 0.02,-2.29 0.01,-2.29 0.01,-2.29 0.02,-2.29 0.01,-2.29 0.01,-2.29 0.01,-2.29 0.01,-2.29 0.01,-2.29 0.02,-2.29 0.01,-2.29 0.01,-2.29 0.01,-2.29 0.01,-2.29 0.01,-2.28 0.01,-2.29 0.01,-2.3 0.01,-2.29 0.01,-2.28 0.01,-2.29 v -2.29 l 0.01,-2.29 0.01,-2.29 0.01,-2.29 0.01,-2.29 v -2.29 l 0.01,-2.29 0.01,-2.29 0.01,-2.29 0.01,-2.29 v -2.29 l 0.01,-2.29 v -2.29 l 0.01,-2.29 0.01,-2.29 v -2.29 l 0.01,-2.29 v -2.29 l 0.01,-2.29 v -2.29 l 0.01,-2.29 v -2.29 l 0.01,-2.29 v -2.29 -2.29 l 0.01,-2.29 v -2.28 -2.29 l 0.01,-2.29 v -2.3 l 0.01,-2.28 v -2.29 -2.29 -2.29 -2.29 l 0.01,-2.29 v -2.29 -2.29 -2.29 -2.29 l 0.01,-2.29 v -2.29 -2.29 -2.29 -2.29 -2.29 -2.29 -2.29 -2.29 -2.29 -2.29 -2.29 -2.29 l -0.01,-2.28 v -2.29 -2.3 -2.29 -2.28 l -0.01,-2.29 v -2.29 -2.3 -2.28 -2.29 l -0.01,-2.29 v -2.29 l -0.01,-2.29 v -2.29 -2.29 -2.29 l -0.01,-2.29 v -2.29 l -0.01,-2.29 v -2.29 l -0.01,-2.29 v -2.29 l -0.01,-2.29 v -2.29 l -0.01,-2.29 v -2.29 l -0.01,-2.29 -0.01,-2.29 v -2.29 l -0.01,-2.29 v -2.29 l -0.01,-2.29 -0.01,-2.28 v -2.3 l -0.01,-2.29 -0.01,-2.29 -0.01,-2.28 -0.01,-2.29 v -2.29 l -0.01,-2.29 -0.01,-2.29 -0.01,-2.29 -0.01,-2.29 -0.01,-2.29 -0.01,-2.29 -0.01,-2.29 -0.01,-2.29 -0.01,-2.29 -0.01,-2.29 -0.01,-2.29 -0.01,-2.29 -0.01,-2.29 -0.01,-2.29 -0.02,-2.29 -0.01,-2.29 -0.01,-2.29 -0.01,-2.29 -0.01,-2.29 -0.02,-2.29 -0.01,-2.28 -0.01,-2.3 -0.02,-2.29 -0.01,-2.29 -0.01,-2.28 -0.02,-2.29 -0.01,-2.29 -0.02,-2.3 -0.01,-2.28 -0.02,-2.29 -0.01,-2.29 -0.02,-2.29 -0.02,-2.29 -0.02,-2.29 -0.01,-2.29 -0.02,-2.29 -0.02,-2.29 -0.02,-2.29 -0.01,-2.29 -0.02,-2.29 -0.02,-2.29 -0.02,-2.29 -0.02,-2.29 -0.02,-2.29 -0.02,-2.29 -0.02,-2.29 -0.02,-2.29 -0.02,-2.29 -0.02,-2.29 -0.02,-2.29 -0.02,-2.29 -0.03,-2.28 -0.02,-2.29 -0.02,-2.3 -0.03,-2.29 -0.02,-2.29 -0.02,-2.28 -0.03,-2.29 -0.02,-2.29 -0.03,-2.29 -0.03,-2.29 -0.02,-2.29 -0.03,-2.29 -0.02,-2.29 -0.04,-2.29 -0.02,-2.29 -0.03,-2.29 -0.03,-2.29 -0.03,-2.29 -0.03,-2.29 -0.03,-2.29 -0.03,-2.29 -0.03,-2.29 -0.03,-2.29 -0.03,-2.29 -0.03,-2.29 -0.04,-2.29 -0.03,-2.29 -0.03,-2.29 -0.04,-2.29 -0.04,-2.29 -0.03,-2.29 -0.04,-2.29 -0.03,-2.28 -0.04,-2.29 -0.03,-2.3 -0.04,-2.29 -0.04,-2.28 -0.04,-2.29 -0.04,-2.29 -0.04,-2.29 -0.04,-2.29 -0.05,-2.29 -0.04,-2.29 -0.04,-2.29 -0.04,-2.29 -0.05,-2.29 -0.04,-2.29 -0.05,-2.29 -0.04,-2.29 -0.05,-2.29 -0.05,-2.29 -0.05,-2.29 -0.05,-2.29 -0.04,-2.29 -0.05,-2.29 -0.05,-2.29 -0.06,-2.29 -0.05,-2.29 -0.05,-2.29 -0.06,-2.28 -0.05,-2.3 -0.05,-2.29 -0.06,-2.29 -0.06,-2.28 -0.06,-2.29 -0.06,-2.29 -0.05,-2.29 -0.07,-2.3 -0.05,-2.28 -0.07,-2.29 -0.06,-2.29 -0.07,-2.29 -0.06,-2.29 -0.07,-2.29 -0.06,-2.29 -0.07,-2.29 -0.07,-2.29 -0.07,-2.29 -0.07,-2.29 -0.07,-2.29 -0.07,-2.29 -0.07,-2.29 -0.08,-2.29 -0.08,-2.29 -0.07,-2.29 -0.08,-2.29 -0.08,-2.29 -0.08,-2.29 -0.08,-2.29 -0.08,-2.29 -0.08,-2.29 -0.09,-2.28 -0.09,-2.29 -0.08,-2.3 -0.09,-2.29 -0.09,-2.28 -0.09,-2.29 -0.09,-2.29 -0.1,-2.29 -0.09,-2.29 -0.1,-2.29 -0.09,-2.29 -0.1,-2.29 -0.1,-2.29 -0.1,-2.29 -0.11,-2.29 -0.1,-2.29 -0.1,-2.29 -0.11,-2.29 -0.11,-2.29 -0.11,-2.29 -0.12,-2.29 -0.11,-2.29 -0.11,-2.29 -0.12,-2.29 -0.12,-2.29 -0.12,-2.29 -0.12,-2.29 -0.12,-2.28 -0.12,-2.3 -0.13,-2.29 -0.13,-2.29 -0.13,-2.28 -0.13,-2.29 -0.14,-2.29 -0.13,-2.29 -0.14,-2.29 -0.14,-2.29 -0.14,-2.29 -0.15,-2.29 -0.14,-2.29 -0.15,-2.29 -0.15,-2.29 -0.15,-2.29 -0.15,-2.29 -0.16,-2.29 -0.16,-2.29 -0.16,-2.29 -0.16,-2.29 -0.17,-2.29 -0.16,-2.29 -0.17,-2.29 -0.17,-2.29 -0.18,-2.29 -0.18,-2.29 -0.18,-2.29 -0.18,-2.29 -0.18,-2.29 -0.19,-2.29 -0.19,-2.29 -0.19,-2.28 -0.2,-2.29 -0.19,-2.3 -0.2,-2.29 -0.2,-2.28 -0.21,-2.29 -0.21,-2.29 -0.21,-2.29 -0.21,-2.29 -0.22,-2.29 -0.22,-2.29 -0.23,-2.29 -0.22,-2.29 -0.23,-2.29 -0.24,-2.293 -0.23,-2.289 -0.24,-2.289 -0.25,-2.289 -0.24,-2.289 -0.25,-2.289 -0.25,-2.289 -0.26,-2.293 -0.26,-2.289 -0.26,-2.289 -0.27,-2.289 -0.27,-2.289 -0.28,-2.289 -0.28,-2.29"
             style="fill:none;stroke:#0eff00;stroke-width:4.16667;stroke-linecap:butt;stroke-linejoin:miter;stroke-miterlimit:1;stroke-dasharray:none;stroke-opacity:1"
             id="path900" /><path
             d="m 1964.33,968.105 v 0 l -0.28,-2.292 -0.29,-2.29 -0.29,-2.289 -0.29,-2.289 -0.3,-2.289 -0.31,-2.293 -0.3,-2.289 -0.32,-2.289 -0.31,-2.289 -0.32,-2.289 -0.32,-2.289 -0.34,-2.289 -0.33,-2.289 -0.34,-2.293 -0.34,-2.289 -0.35,-2.289 -0.35,-2.289 -0.36,-2.289 -0.36,-2.289 -0.37,-2.293 -0.37,-2.289 -0.38,-2.29 -0.38,-2.289 -0.39,-2.289 -0.39,-2.289 -0.4,-2.293 -0.41,-2.289 -0.41,-2.289 -0.42,-2.289 -0.42,-2.289 -0.43,-2.289 -0.43,-2.289 -0.44,-2.293 -0.45,-2.289 -0.45,-2.289 -0.46,-2.289 -0.46,-2.289 -0.47,-2.289 -0.48,-2.293 -0.48,-2.289 -0.49,-2.289 -0.5,-2.289 -0.51,-2.29 -0.51,-2.289 -0.52,-2.289 -0.52,-2.293 -0.54,-2.289 -0.54,-2.289 -0.55,-2.289 -0.55,-2.289 -0.56,-2.289 -0.57,-2.293 -0.58,-2.289 -0.59,-2.289 -0.6,-2.289 -0.6,-2.289 -0.61,-2.289 -0.62,-2.293 -0.63,-2.289 -0.64,-2.289 -0.64,-2.289 -0.66,-2.289 -0.66,-2.29 -0.67,-2.289 -0.69,-2.293 -0.69,-2.289 -0.7,-2.289 -0.71,-2.289 -0.72,-2.289 -0.74,-2.289 -0.73,-2.289 -0.76,-2.293 -0.76,-2.289 -0.77,-2.289 -0.78,-2.289 -0.8,-2.289 -0.8,-2.289 -0.81,-2.293 -0.83,-2.289 -0.84,-2.289 -0.85,-2.289 -0.86,-2.289 -0.87,-2.289 -0.89,-2.29 -0.9,-2.293 -0.91,-2.289 -0.92,-2.289 -0.94,-2.289 -0.94,-2.289 -0.97,-2.289 -0.97,-2.293 -0.99,-2.289 -1,-2.289 -1.01,-2.289 -1.03,-2.289 -1.04,-2.289 -1.06,-2.289 -1.07,-2.293 -1.09,-2.289 -1.1,-2.289 -1.12,-2.289 -1.12,-2.289 -1.15,-2.289 -1.16,-2.293 -1.18,-2.289 -1.2,-2.29 -1.21,-2.289 -1.23,-2.289 -1.24,-2.289 -1.26,-2.289 -1.28,-2.293 -1.3,-2.289 -1.31,-2.289 -1.33,-2.289 -1.35,-2.289 -1.37,-2.289 -1.39,-2.293 -1.4,-2.289 -1.43,-2.289 -1.44,-2.289 -1.47,-2.289 -1.48,-2.289 -1.5,-2.293 -1.53,-2.289 -1.54,-2.289 -1.57,-2.29 -1.59,-2.289 -1.61,-2.289 -1.63,-2.289 -1.65,-2.293 -1.68,-2.289 -1.7,-2.289 -1.72,-2.289 -1.74,-2.289 -1.77,-2.289 -1.79,-2.293 -1.82,-2.289 -1.84,-2.289 -1.87,-2.289 -1.89,-2.289 -1.92,-2.289 -1.94,-2.289 -1.97,-2.289 -1.99,-2.293 -2.03,-2.289 -2.05,-2.289 -2.07,-2.29 -2.11,-2.289 -2.13,-2.293 -2.17,-2.289 -2.19,-2.289 -2.22,-2.289 -2.25,-2.289 -2.28,-2.289 -2.31,-2.289 -2.34,-2.293 -2.38,-2.289 -2.41,-2.289 -2.43,-2.289 -2.47,-2.289 -2.51,-2.289 -2.53,-2.289 -2.58,-2.293 -2.6,-2.289 -2.64,-2.289 -2.68,-2.289 -2.71,-2.29 -2.74,-2.289 -2.79,-2.293 -1.41,-1.144 -1.41,-1.145 -1.43,-1.144 -1.43,-1.145 -1.44,-1.144 -1.45,-1.145 -1.47,-1.144 -1.47,-1.145 -1.48,-1.144 -1.49,-1.145 -1.51,-1.144 -1.51,-1.149 -1.52,-1.144 -1.53,-1.145 -1.54,-1.144 -1.55,-1.145 -1.57,-1.144 -1.57,-1.145 -1.58,-1.145 -1.6,-1.144 -1.6,-1.145 -1.61,-1.144 -1.63,-1.145 -1.63,-1.144 -1.65,-1.149 -1.66,-1.144 -1.67,-1.145 -1.67,-1.144 -1.69,-1.145 -1.71,-1.144 -1.71,-1.145 -1.72,-1.144 -1.73,-1.145 -1.75,-1.144 -1.76,-1.145 -1.77,-1.144"
             style="fill:none;stroke:#0eff00;stroke-width:4.16667;stroke-linecap:butt;stroke-linejoin:miter;stroke-miterlimit:1;stroke-dasharray:none;stroke-opacity:1"
             id="path902" /></g></g></g></g></svg>
