<?xml version="1.0" encoding="UTF-8" standalone="no"?>
<!-- Created with Inkscape (http://www.inkscape.org/) -->

<svg
   version="1.1"
   id="svg105"
   width="1220.3585"
   height="238.3999"
   viewBox="0 0 1220.3585 238.39991"
   xmlns="http://www.w3.org/2000/svg"
   xmlns:svg="http://www.w3.org/2000/svg">
  <defs
     id="defs109" />
  <g
     id="g111"
     transform="translate(-20.362841,-13.845051)">
    <path
       style="fill:#ffffff;stroke-width:0.666667"
       d="m 1061.1854,252.07092 -27.5475,-0.1741 0.224,-1.15924 0.2239,-1.15923 98.2248,0.27451 98.2249,0.27452 -0.4147,-3.94118 -0.4146,-3.94118 -0.3822,-3.8925 -0.3822,-3.89251 1.3955,-1.30013 1.3956,-1.30014 v -34.30171 -34.30171 l -1.3334,-0.83268 -1.3333,-0.83268 v -1.80029 -1.8003 l 0.6667,-0.41202 0.6666,-0.41202 v -3.25059 -3.25059 l 0.6915,-1.81862 0.6914,-1.81863 -0.5247,-0.49013 -0.5248,-0.49014 -35.775,-0.37333 -35.7749,-0.37333 -0.6632,0.80536 -0.6633,0.80536 -0.2035,8.00107 -0.2035,8.00107 0.5144,0.83226 0.5143,0.83226 h 2.3496 2.3495 l -0.272,0.8162 -0.2721,0.8162 -2.1507,0.43986 -2.1506,0.43985 -0.351,0.35101 -0.351,0.35102 1.0514,5.61155 1.0516,5.61155 v 1.95435 1.95435 l -1.3334,0.83268 -1.3333,0.83268 v 2.99435 2.99435 h -1 -1 v -3.30988 -3.30987 l -1.3939,-0.746 -1.3939,-0.74599 0.3525,-3.1108 0.3526,-3.11079 0.6542,-4.32721 0.6544,-4.3272 -0.7796,-0.49592 -0.7796,-0.49592 -49,-0.10979 -49,-0.10979 -8.133,-0.0671 -8.133,-0.0671 -0.8615,-0.86109 -0.8614,-0.8611 0.9945,-0.64282 0.9944,-0.64282 14.3333,0.30596 14.3333,0.30595 43.6667,0.19796 43.6667,0.19796 v -9.3333 -9.33334 l -29.3334,-0.35089 -29.3333,-0.35089 -0.206,-0.14911 -0.206,-0.14911 0.412,-0.66666 0.412,-0.66667 h 28.494 28.494 l 0.7182,-0.71817 0.7181,-0.71818 -0.5689,-2.44849 -0.5689,-2.44849 -0.016,-2.46066 -0.016,-2.46066 -0.6667,-0.41202 -0.6667,-0.41202 v -2.68974 -2.68973 l 1.2844,-0.33587 1.2844,-0.33587 0.3844,-37.101709 0.3845,-37.10172 0.3774,-15.20682 0.3774,-15.20681 0.7871,0.2643 0.7871,0.26431 -0.2601,51.70237 -0.2602,51.702359 1.4268,0.7636 1.4268,0.7636 -0.035,1.80987 -0.035,1.80988 -1.1958,6.17 -1.1957,6.16999 0.731,0.56947 0.7309,0.56948 36,-0.0728 36,-0.0728 0.5206,-13.66667 0.5207,-13.66667 0.2324,-5.33333 0.2325,-5.33333 0.08,-42.215549 0.08,-42.21555 1.1667,0.22483 1.1666,0.22483 -0.1869,31.65739 -0.1869,31.65738 -0.3788,28.101009 -0.3789,28.10101 0.444,1.39899 0.4441,1.39899 1.7884,0.0102 1.7884,0.0102 0.9944,0.62869 0.9944,0.6287 -0.6611,0.64313 -0.6611,0.64313 -2,0.21796 -2,0.21797 0.2325,5 0.2325,5 0.6008,0.63333 0.6009,0.63334 v 2.03963 2.03964 l -1.3333,0.83268 -1.3334,0.83268 v 13.95501 13.955 l -0.699,0.43203 -0.699,0.43203 0.7133,0.85956 0.7134,0.85956 -0.6145,1.61617 -0.6144,1.61617 0.6362,1.13687 0.6362,1.13686 -0.4772,0.77214 -0.4772,0.77214 -0.2414,15.89972 -0.2414,15.89972 1.6825,0.63969 1.6825,0.63969 v 0.43094 0.43094 l -1.0296,6.93454 -1.0297,6.93453 0.4023,0.65103 0.4024,0.65102 h 1.8893 1.8893 l 0.3838,1 0.3837,1 -2.1457,0.0404 -2.1458,0.0403 -73.3333,0.1263 -73.3333,0.12629 -27.5475,-0.1741 z m -60.6192,-0.60076 -0.8333,-0.33626 v -42.23997 -42.23997 l -1.31487,-0.92095 -1.3148,-0.92096 -0.1852,-9.95018 -0.18513,-9.95018 -24.81594,-0.17477 -24.81593,-0.17476 -0.18407,10.15595 -0.18406,10.15594 -1.66667,0.82992 -1.66667,0.82992 -0.33333,42.18889 -0.33333,42.1889 -2.8826,0.20741 -2.8826,0.20741 -0.95074,-0.78904 -0.95073,-0.78904 v -41.88524 -41.88524 l -1.16667,-0.65461 -1.16666,-0.65461 -0.0287,-3.87851 -0.028,-3.87852 -0.1384,-6.16667 -0.13827,-6.16667 h -3.33333 -3.33333 v 9.86667 9.86667 l -0.8,0.8 -0.8,0.8 h -1.19507 -1.19507 l -0.1716,42.49999 -0.1716,42.5 h -3.66666 -3.66667 l -0.1716,-42.47918 -0.1716,-42.47917 -1.3284,-0.71095 -1.3284,-0.71094 V 154.51837 144.5053 l -3.16667,0.20319 -3.16666,0.2032 -0.33334,9.98184 -0.33333,9.98184 -1.66667,0.82926 -1.66666,0.82926 -0.33334,42.18889 -0.33333,42.1889 h -3.66667 -3.66666 l -0.17154,-42.83333 -0.1716,-42.83333 h -0.9238 -0.92373 l -0.40467,-1.05453 -0.40466,-1.05452 v -9.31534 -9.31533 l -3.16667,0.20319 -3.16667,0.2032 -0.1628,8.66666 -0.1628,8.66667 -0.35586,1.52358 -0.3558,1.52358 -1.64307,0.62469 -1.64307,0.6247 -0.1716,42.18505 -0.17166,42.18506 -2.9758,0.21196 -2.97587,0.21196 -0.85747,-1.17271 -0.85753,-1.17271 v -41.56017 -41.56017 l -1,-0.38373 -1,-0.38374 v -9.88933 -9.88933 l -0.60707,-0.3752 -0.60713,-0.3752 -2.97027,-0.30056 -2.97033,-0.30056 -0.4168,3.46975 -0.4168,3.46975 -0.007,7.09439 -0.007,7.09439 -1.66667,0.41831 -1.66667,0.41831 v 42.65396 42.65397 h -3.30986 -3.30987 l -0.74827,-1.39816 -0.74826,-1.39815 0.41453,-35.76851 0.41453,-35.76851 0.21574,-5.48508 0.21573,-5.48508 -1.23953,-0.3934 -1.23947,-0.39341 -0.7122,-1.33072 -0.7122,-1.33072 0.1044,-7.79079 0.1044,-7.7908 -0.0587,-1.33334 -0.0587,-1.33333 -3.3326,-0.10071 -3.3326,-0.1007 v 10.23099 10.231 l -1.83334,0.87862 -1.83333,0.87863 -0.17173,41.59557 -0.1718,41.59557 -0.7432,0.89551 -0.7432,0.89552 h -1.77 -1.77007 l -1.53113,-1.07244 -1.53107,-1.07244 0.39827,-35.7609 0.39826,-35.76089 0.15114,-5.98887 0.1512,-5.98887 -1.33334,-0.25492 -1.33333,-0.25491 -0.4898,-0.75621 -0.4898,-0.75622 -0.01,-9.4873 -0.01,-9.4873 -1.59887,-0.40128 -1.59886,-0.40129 -1.5678,0.22192 -1.5678,0.22192 -0.33334,10.19024 -0.33333,10.19024 -1.66667,0.82937 -1.66666,0.82938 -0.16727,41.64705 -0.16733,41.64705 -1.1268,0.83333 -1.1268,0.83334 h -1.7692 -1.76927 l -1.15393,-1.2751 -1.154,-1.27509 0.3886,-36.22491 0.3886,-36.2249 0.16206,-5 0.162,-5 -1.5,-0.65809 -1.5,-0.65808 v -9.45406 -9.45406 l -0.40392,-1.05452 -0.40467,-1.05452 h -3.262 -3.262 v 9.98288 9.98288 l -2,1.03424 -2,1.03424 -0.009,41.14954 -0.009,41.14955 -0.402,1.5 -0.402,1.5 h -2.1072 -2.10726 l -1.48167,-1.0378 -1.48167,-1.03781 v -41.60289 -41.60289 l -1.3142,-1.22437 -1.3142,-1.22437 -0.1858,-9.63494 -0.1858,-9.63493 h -3 -3 l -0.18366,10.09335 -0.1836,10.09335 -1.48307,0.39755 -1.483,0.39754 h -4.33333 -4.33334 l -1.5,-0.40198 -1.5,-0.40198 v -10.29211 -10.29211 l -3.16666,0.2032 -3.16667,0.20319 -0.33333,9.40079 -0.33334,9.40079 -0.91493,1.09921 -0.915,1.09921 -5.085,-0.0102 -5.08507,-0.0102 -0.9432,-0.59702 -0.94313,-0.59702 0.155,-8.2635 0.15493,-8.2635 -0.45073,-1.79593 -0.45073,-1.79594 h -3.282 -3.282 l -0.30254,0.83333 -0.30253,0.83333 -0.2434,8.93596 -0.2434,8.93596 -1.2272,0.89738 -1.22727,0.89737 h -4.4118 -4.4118 l -1.11626,-0.83333 -1.11627,-0.83334 -0.1778,-9.66666 -0.17787,-9.66667 -3.04526,-0.19823 -3.04527,-0.19824 -0.64953,1.53157 -0.64954,1.53157 -0.20826,8.66666 -0.2082,8.66667 -0.2532,0.41949 -0.25327,0.4195 -4.7284,0.0445 -4.7284,0.0445 -1.5974,-0.60732 -1.59733,-0.60733 -0.18467,-9.85666 -0.18327,-9.85663 h -3.66733 -3.66667 l -0.33333,9.97395 -0.33334,9.97394 -2.23773,0.45639 -2.23773,0.45639 -3.923,-0.35572 -3.923,-0.35573 -0.59254,-2.14577 -0.59246,-2.14577 0.21933,-4.92884 0.21933,-4.92884 -1.3e-4,-2.61869 -7e-5,-2.61869 -0.33866,-0.54797 -0.33867,-0.54805 h -2.90613 -2.90614 l -1.05454,0.40466 -1.05452,0.40466 v 9.95368 9.9537 l -6.15301,-0.19168 -6.15301,-0.19169 -0.76546,-4.66667 -0.76544,-4.66666 0.5756,-1.51838 0.57562,-1.51836 -0.18818,-3.15917 -0.18819,-3.15917 -0.47661,-0.77117 -0.47662,-0.77117 -1.97737,-0.4343 -1.97737,-0.43431 -1.34832,0.42794 -1.34831,0.42794 v 9.23388 9.23389 l -0.40466,1.05452 -0.40466,1.05452 h -6.18429 -6.18429 l -0.27015,-1.5 -0.27016,-1.5 0.0915,-8.56028 0.0915,-8.56029 -1.5147,-0.69015 -1.5147,-0.69014 -2.36714,0.44408 -2.36712,0.44408 -0.18389,10.13968 -0.18389,10.13969 -6.40957,0.18972 -6.40957,0.18971 -0.85738,-2.06991 -0.85739,-2.06991 0.65205,-7.78647 0.65206,-7.78647 -1.01252,-0.83334 -1.01252,-0.83333 h -1.9164 -1.91641 l -1.28951,0.69012 -1.2895,0.69013 v 9.97654 9.97654 h -5.89668 -5.89667 l -1.10333,-1.21916 -1.10332,-1.21916 v -8.75738 -8.75738 l -1.28951,-0.69013 -1.28951,-0.69012 h -2.0269 -2.02689 l -0.1836,10.5 -0.18359,10.5 -6.39934,0.18959 -6.39935,0.1896 -0.74828,-0.90162 -0.74828,-0.90163 -0.18571,-9.6213 -0.18573,-9.62131 h -3 -3 l -0.33333,10.33334 -0.33334,10.33333 -6.18897,0.19198 -6.18897,0.19198 -1.01689,-1.01689 -1.01689,-1.01689 0.17845,-8.84677 0.17845,-8.84676 -0.51193,-0.82832 -0.51193,-0.82833 -1.794,0.0102 -1.79398,0.0102 -0.90431,0.573 -0.90431,0.573 0.0137,8.25012 0.0137,8.25013 -0.77213,1.83333 -0.77214,1.83333 h -5.49631 -5.4963 l -1.34096,-1.14816 -1.34095,-1.14816 v -9.17247 -9.17247 l -1.66667,-0.41831 -1.66666,-0.41831 -1.68636,0.42326 -1.68637,0.42324 0.008,2.14903 0.008,2.14902 -0.35768,7.33333 -0.35768,7.33334 -0.27606,0.83333 -0.27606,0.83333 h -5.58426 -5.58426 l -1.10333,-1.21916 -1.10333,-1.21916 v -9.04284 -9.04285 l -1.05452,-0.40466 -1.05452,-0.40466 h -1.56453 -1.56452 l -1.04762,1.04762 -1.04823,1.04762 v 9.61905 9.61904 h -6.22068 -6.22068 l -0.81784,-1.52814 -0.81783,-1.52814 0.50022,-5.63852 0.50024,-5.63853 -0.0487,-2.91139 -0.0487,-2.9114 -0.91304,-0.57839 -0.91304,-0.5784 h -1.66667 -1.66667 l -0.77884,0.49546 -0.77886,0.49546 -0.17237,7.661 -0.17237,7.66099 -0.65185,2.5866 -0.65185,2.58659 -5.89425,-0.33607 -5.89425,-0.33608 -1.09824,-0.91145 -1.09822,-0.91145 0.3894,-9.10498 0.3894,-9.10496 -1.46051,-0.39166 -1.46052,-0.39166 -1.46065,-0.009 -1.46066,-0.009 -0.46462,0.75177 -0.46462,0.75176 -0.3178,4.74824 -0.31782,4.74823 -0.15902,4.40527 -0.15902,4.40526 -0.47058,0.7614 -0.47056,0.7614 h -5.524 -5.524 l -1.10332,-1.21916 -1.10333,-1.21916 v -9.04284 -9.04285 l -1.05453,-0.40466 -1.05452,-0.40466 h -2.27881 -2.27881 v 9.53333 9.53334 l -0.8,0.8 -0.8,0.8 -5.7,-0.0102 -5.7,-0.0102 -0.81418,-0.5173 -0.81418,-0.5173 -0.18582,-9.63916 -0.18582,-9.6391 -2.33334,-0.17399 -2.33333,-0.17399 -1,0.64845 -1,0.64846 -0.33333,9.52553 -0.33334,9.52554 -4.66666,0.20519 -4.66667,0.20519 -2.149,-0.39875 -2.149,-0.39875 -0.18433,-9.79588 -0.18434,-9.79588 -2.66666,-0.44071 -2.66667,-0.4407 -0.76119,0.61857 -0.76118,0.61856 -0.0601,9.43292 -0.0601,9.4329 -0.69452,0.69452 -0.69451,0.69452 -5.15082,-0.21158 -5.15082,-0.21158 -0.81544,-0.67104 -0.81544,-0.67105 -0.18456,-9.43322 -0.18458,-9.43323 -2.58236,-0.6377 -2.58236,-0.63769 -1.10416,1.36357 -1.10415,1.36358 -0.15986,8.85888 -0.15986,8.85889 -0.35964,0.5819 -0.35964,0.58164 h -5.23947 -5.23947 l -1.05452,-0.40466 -1.05452,-0.40466 v -9.46201 -9.46201 l -0.8,-0.8 -0.8,-0.8 h -1.9105 -1.91049 l -1.23501,0.66096 -1.235,0.66095 -0.0693,9.42662 -0.0693,9.42662 -0.3579,0.57909 -0.3579,0.5791 h -5.96062 -5.96065 v -9.97655 -9.97654 l -1.28951,-0.69013 -1.2895,-0.69012 h -1.9105 -1.91049 l -0.8,0.8 -0.8,0.8 v 9.46201 9.46201 l -1.05453,0.40466 -1.05452,0.40466 h -4.65597 -4.65597 l -1.2895,-0.69012 -1.28951,-0.69013 v -9.28642 -9.28642 l -1.28951,-0.69013 -1.2895,-0.69012 h -1.9105 -1.91049 l -0.8,0.8 -0.8,0.8 v 9.86667 9.86667 h -6.26201 -6.262 l -0.40466,-1.05453 -0.40466,-1.05452 v -8.81215 -8.81214 l -0.8,-0.8 -0.8,-0.8 h -1.9105 -1.91049 l -1.33833,0.71626 -1.33834,0.71625 0.1762,9.33235 0.17619,9.33236 -0.9607,0.60785 -0.9607,0.60785 -4.44547,0.0102 -4.44548,0.0102 -1.05452,-0.40466 -1.05453,-0.40466 v -9.35518 -9.35518 l -1.16667,-0.88562 -1.16666,-0.88563 -2.41838,-0.0212 -2.41836,-0.0212 -0.72926,0.87869 -0.72925,0.8787 -0.18571,9.6213 -0.18571,9.62132 -5.17547,0.19487 -5.17546,0.19487 -1.09564,-0.61315 -1.09564,-0.61315 0.15102,-9.14083 0.15101,-9.14083 -1.21325,-0.91969 -1.21324,-0.91968 -2.08504,-0.0212 -2.08503,-0.0212 -0.61332,0.83333 -0.61333,0.83334 -0.19892,6.09387 -0.19893,6.09387 -0.43605,3.5728 -0.43604,3.57278 -5.15838,0.19456 -5.15837,0.19456 -1.34163,-0.71801 -1.34162,-0.71802 v -9.57188 -9.57189 l -1.05453,-0.40466 -1.05452,-0.40466 h -1.86385 -1.86384 l -0.6242,0.83334 -0.6242,0.83333 -0.25706,2.66667 -0.25707,2.66666 0.0885,2.16667 0.0885,2.16667 0.0285,1 0.0286,1 -0.0805,1.16666 -0.0805,1.16667 0.47314,1.09399 0.47314,1.094 -2.04344,2.32735 -2.04344,2.32735 v 41.27866 41.27865 l -0.8,0.8 -0.8,0.8 h -2.4 -2.4 l -0.8,-0.8 -0.8,-0.8 v -42.15507 -42.15508 l -1.31573,-0.4176 -1.31574,-0.4176 -0.18425,-9.79399 -0.18418,-9.79399 -2.33333,-0.19634 -2.33334,-0.19634 -1.33277,0.97552 -1.33277,0.97552 -0.19445,9.22082 -0.19444,9.22082 -1.30109,1.10278 -1.30108,1.10279 -0.1717,41.89721 -0.1717,41.89721 h -3.66666 -3.66667 l -0.17159,-42.47918 -0.1716,-42.47917 -1.31018,-0.7012 -1.31019,-0.70118 -0.18489,-9.47112 -0.18488,-9.47111 -1.83334,-0.64388 -1.83333,-0.64387 -1.83333,0.64392 -1.83334,0.64392 -0.18448,9.8181 -0.1845,9.81811 h -1.3155 -1.31552 v 42.59534 42.59534 l -1.05452,0.40466 -1.05452,0.40466 h -2.14548 -2.14548 l -0.8,-0.8 -0.8,-0.8 V 205.80181 163.9586 l -1.33333,-0.71358 -1.33333,-0.71358 v -7.30987 -7.30988 h -24.62579 -24.62582 l -0.45767,3.05198 -0.45767,3.05198 0.40307,2.94078 0.40308,2.94077 -0.63642,1.67391 -0.63642,1.67391 h -1.34983 -1.34984 v 41.30197 41.30195 l -0.77368,1.69804 -0.77367,1.69804 h -2.45633 -2.45633 l -1.19396,-1.31932 -1.19396,-1.3193 0.33312,-41.32636 0.33312,-41.32636 -1.33977,-0.88958 -1.33977,-0.88957 -0.166987,-6.63142 -0.166986,-6.63142 -0.06907,-0.5 -0.06906,-0.5 H 96.203954 93.34168 l -0.686906,2.5735 -0.686907,2.5735 0.447853,1.25983 0.447854,1.25983 -0.398674,3.33334 -0.398673,3.33333 -1.5,0.65809 -1.5,0.65808 v 40.62792 40.62791 l -0.800593,2.214 -0.800594,2.214 h -1.9099 -1.9099 l -1.289506,-0.69012 -1.289507,-0.69013 v -41.89986 -41.89988 l -1.666667,-1.09204 -1.666666,-1.09204 0.01227,-6.1513 0.01227,-6.1513 -1.178933,-3.82098 -1.178941,-3.82098 -27.333333,-0.17902 -27.333333,-0.17902 -0.185027,-9.92722 -0.185026,-9.92722 0.962727,-1.07278 0.962728,-1.07278 0.22135,-15 0.22135,-14.999989 -1.165718,-1.64834 -1.165718,-1.64834 v -6.4367 -6.4367 l 1.00177,-0.83139 1.00177,-0.8314 50.574354,0.37365 50.574356,0.37364 0.75721,-0.75722 0.75721,-0.7572 v -11.11837 -11.11837 l -1.00638,-0.83522 -1.00638,-0.83522 -2.49362,0.38631 -2.49362,0.38631 -4.51561,0.75518 -4.51562,0.75518 -1.15105,-1.35957 -1.15105,-1.35958 -32.666673,-0.17447 -32.666667,-0.17447 -2.029959,1.20913 -2.029959,1.20912 -6.923872,-1.02785 -6.923873,-1.02786 -0.546168,0.33755 -0.546169,0.33755 v 10.04229 10.04228 l -1,-0.82992 -1,-0.82993 v -12.9622 -12.96219 l 0.833334,-1.45618 0.833333,-1.45617 0.333333,3.33333 0.333334,3.33334 1.333333,-0.219 1.333333,-0.21899 4,-0.53168 4,-0.53169 2.351249,-0.46227 2.351249,-0.46228 1.832162,1.44118 1.832162,1.44118 32.579105,0.35335 32.579113,0.35336 0.42952,-1.35333 0.42953,-1.35332 0.89373,-0.34296 0.89374,-0.34296 2.58088,0.5988 2.5809,0.5988 2.87716,0.0159 2.87716,0.0159 1.33212,0.71293 1.33212,0.71293 0.91781,-0.76172 0.91781,-0.76171 0.20624,-1.73314 0.20624,-1.73313 0.83334,-0.27364 0.83333,-0.27364 v 16.74315 16.74314 l 0.83333,0.2576 0.83334,0.25759 188.33333,0.3861 188.33333,0.3861 246,0.36254 246,0.36252 24.66664,0.35546 24.6667,0.35546 21.6666,0.29716 21.6667,0.29716 0.8333,0.29931 0.8334,0.29931 v 6.68759 6.68759 l -1.3334,1.33333 -1.3333,1.33333 v 15.185179 15.18517 l 1.4237,1.21904 1.4238,1.21904 -0.4105,5.09578 -0.4104,5.09579 -0.4353,4.33333 -0.4352,4.33334 -0.6717,0.84781 -0.6717,0.84782 -27.6614,-0.0595 -27.6614,-0.0594 -0.559,0.55905 -0.5591,0.55904 -0.1859,9.65257 -0.1859,9.65257 -1.5,0.21303 -1.5,0.21304 -0.015,19.78696 -0.015,19.78697 -0.3619,22.33333 -0.3619,22.33334 -0.2686,0.83333 -0.2684,0.83333 h -2.2998 -2.2997 l -1.0545,-0.40466 -1.0546,-0.40466 V 208.84596 166.5896 l -1.3333,-0.83268 -1.3333,-0.83268 v -9.37297 -9.37297 l -0.8,-0.8 -0.8,-0.8 h -2.8667 -2.8667 l -0.029,2.5 -0.029,2.5 -0.016,7 -0.016,7 -0.3341,1.16667 -0.3342,1.16666 h -1.2107 -1.2106 l -0.402,1.5 -0.402,1.5 -0.01,40.7 -0.01,40.7 -0.8,0.8 -0.8,0.8 -2.0333,-0.0527 -2.0333,-0.0526 -0.8333,-0.33626 z m 4.0573,-30.72514 0.441,-28.5 v -23.88221 -23.88222 l -1.1666,0.22464 -1.1667,0.22464 -0.1707,52.15758 -0.1707,52.15757 h 0.8955 0.8954 l 0.4411,-28.5 z m 21.3534,6.66666 0.2957,-21.83333 0.4469,-29.33333 0.447,-29.33333 -0.949,-1.26852 -0.949,-1.26852 -0.7678,0.47453 -0.7678,0.47453 v 51.96066 51.96065 h 0.9741 0.9741 z m -192.06067,14.1823 -0.0955,-4.99126 0.60547,-0.37418 0.6054,-0.37418 0.0207,-45.638 0.0207,-45.63801 h -1.66986 -1.6698 v 52.14286 52.14285 l 1.1394,-1.13941 1.13946,-1.13942 -0.0955,-4.99125 z m 21.1812,4.60119 0.39887,-1.95015 0.17046,-49.83333 0.17047,-49.83334 h -1.31413 -1.3142 l -0.32987,0.85957 -0.32987,0.85957 0.2422,23.64043 0.24214,23.64043 0.016,27.55555 0.0167,27.55556 0.8162,-0.27206 0.8162,-0.27207 0.3988,-1.95016 z m 21.5216,-50.45015 0.3796,-51.16667 h -1.29953 -1.29954 v 52.14286 52.14285 l 0.91994,-0.97618 0.92,-0.9762 z m 21.2666,13.66666 0.15273,-39.16666 0.0717,-3.66667 0.0716,-3.66666 0.1588,-0.66667 0.1588,-0.66667 0.034,-7.76114 0.034,-7.76115 -0.45667,-0.73885 -0.4566,-0.73886 h -0.9374 -0.9374 l -0.30556,42.83334 -0.30547,42.83333 -0.283,8.66666 -0.28293,8.66667 0.2712,0.5 0.2712,0.5 h 1.294 1.294 l 0.15273,-39.16667 z m 21.22547,4.4447 0.3782,-34.27803 0.3416,-2.66666 0.3416,-2.66667 -0.63287,-0.83103 -0.63287,-0.83104 0.7464,-2.96418 0.7464,-2.96418 v -11.0824 -11.0824 l -1.83333,0.21095 -1.83333,0.21095 -0.17234,51 -0.17233,50.99999 0.33933,0.88878 0.3394,0.88877 0.83294,-0.27742 0.833,-0.27741 z m 21.3208,8.16421 0.0843,-24.76896 0.49547,-0.30624 0.49546,-0.30623 -0.054,-25.86373 -0.054,-25.86374 h -1.33333 -1.33333 l -0.17234,51 -0.17233,50.99999 0.3838,1 0.38387,1 0.59586,-1.06106 0.59587,-1.06106 0.0843,-24.76897 z m -149.91627,20.72443 0.116,-5.16667 0.14313,-2 0.14307,-2 0.37287,-3.24997 0.37286,-3.24997 0.42694,-1.944 0.427,-1.94401 -0.83074,-1.00094 -0.83066,-1.00095 0.77173,-0.77175 0.77173,-0.77174 -0.01,-37.03333 -0.01,-37.03334 -0.57326,-0.90467 -0.5732,-0.90467 -1.4166,0.4496 -1.41654,0.4496 v 51.17729 51.1773 l 0.44447,0.44444 0.4444,0.44444 h 0.5556 0.55553 l 0.11607,-5.16666 z m 21.46513,4.63831 0.32654,-0.52835 0.33026,-9.78904 0.33027,-9.78904 0.38733,-0.62666 0.38727,-0.62667 -0.6212,-1.63395 -0.62127,-1.63394 0.56314,-2.49667 0.56306,-2.49667 0.078,-35.85306 0.078,-35.85306 -1.07833,-1.07839 -1.0784,-1.0784 -0.61293,0.37881 -0.61294,0.3788 v 51.62733 51.62731 h 0.62734 0.62733 z m -726.23585,-1.97165 0.012,-1.16666 0.362873,-47.66667 0.36288,-47.66666 -0.640946,-0.93048 -0.64094,-0.93048 -1.067287,0.40956 -1.06728,0.40955 v 49.35426 49.35425 h 1.333333 1.333334 l 0.012,-1.16667 z m 21.52607,-0.69039 0.37141,-1.85706 0.0452,-46.64294 0.0453,-46.64294 -0.66664,-1 -0.66664,-1 -0.65646,1 -0.65645,1 -0.1408,12.33334 -0.14079,12.33333 -0.19754,7.66667 -0.19753,7.66666 -0.41913,27.47588 -0.41913,27.47588 0.39299,1.02412 0.393,1.02412 h 1.27092 1.27092 z m 64.46192,-47.47627 v -49.33333 h -0.92868 -0.92867 l -0.3954,1.0304 -0.39541,1.0304 -0.0187,43.13626 -0.0187,43.13627 0.009,5.16666 0.009,5.16667 h 1.33333 1.33334 v -49.33333 z m 21.49184,-2.08496 0.17482,-51.4183 -0.87814,-0.33689 -0.87814,-0.3369 -0.56664,0.58853 -0.56663,0.58852 -0.13575,50.66667 -0.13574,50.66666 0.0805,0.5 0.0805,0.5 h 1.32518 1.32519 z m 21.17482,-0.20903 v -51.62732 l -0.59112,-0.36534 -0.59114,-0.36534 -0.69672,0.83952 -0.69674,0.8395 -6.6e-4,49.98648 -6.7e-4,49.98649 0.33366,1.16666 0.33366,1.16667 h 0.95507 0.95508 v -51.62732 z m 279.62327,-33.02284 1.71007,-0.65017 v -8.61184 -8.61184 l -1.05453,-0.40466 -1.05452,-0.40466 h -2.89095 -2.89096 l -1.05452,0.40466 -1.05452,0.40466 v 8.46201 8.462 l 0.8,0.8 0.8,0.8 h 2.48993 2.48993 z m 22.89751,-8.99069 0.18744,-8.58811 -0.85411,-0.54198 -0.85411,-0.54197 h -3.33333 -3.33333 l -0.85411,0.54197 -0.85411,0.54198 0.18744,8.61448 0.18744,8.61448 2.66667,0.34518 2.66667,0.34518 2,-0.37155 2,-0.37155 z m 19.97922,9.22066 1.5,-0.40198 v -8.85092 -8.85092 l -1.05452,-0.40466 -1.05452,-0.40466 h -3.23947 -3.23947 l -0.50383,0.81523 -0.50384,0.81522 -0.25627,7.46086 -0.25627,7.46085 0.74422,1.39059 0.74422,1.39058 2.80987,-0.009 2.80988,-0.009 1.5,-0.40199 z m 21.12327,-0.22997 1.71007,-0.65017 v -8.32638 -8.32637 l -1.28951,-0.69013 -1.28951,-0.69012 h -2.65596 -2.65598 l -1.05452,0.40466 -1.05452,0.40466 v 8.87312 8.87311 l 0.83333,0.33626 0.83333,0.33626 2.4566,0.0526 2.4566,0.0526 1.71007,-0.65016 z m 21.39588,0.26855 1.35247,-0.36341 0.15012,-8.88239 0.15011,-8.88239 -1.50259,-0.40266 -1.50259,-0.40266 -2.44547,-0.009 -2.44548,-0.009 -1.05452,0.40466 -1.05453,0.40439 v 8.87312 8.87311 l 0.83333,0.33626 0.83334,0.33626 2.66666,0.0435 2.66667,0.0435 1.35248,-0.36341 z m 22.18085,-0.41839 0.8,-0.8 v -8.52063 -8.52063 l -1.55347,-0.3899 -1.55348,-0.3899 -2.94652,0.21054 -2.94653,0.21052 -0.18682,8.9482 -0.18681,8.94821 0.85348,0.54159 0.85349,0.54158 3.03333,0.0102 3.03333,0.0102 0.8,-0.8 z m 20.84383,0.10988 1.28951,-0.69012 v -8.57188 -8.57189 l -1.05453,-0.40466 -1.05452,-0.40466 h -3.61215 -3.61214 v 9.66667 9.66666 h 3.37716 3.37716 z m 21.56831,0.28546 1.05453,-0.40466 v -8.462 -8.46201 l -0.8,-0.8 -0.8,-0.8 h -3.14547 -3.14548 l -1.05452,0.40466 -1.05453,0.40466 v 8.56221 8.56222 l 1.16667,0.67952 1.16666,0.67952 2.77881,0.0203 2.77881,0.0203 1.05452,-0.40466 z m 21.5753,-0.15773 0.85411,-0.54197 -0.18744,-8.57309 -0.18744,-8.57309 -2.29008,-0.59244 -2.29008,-0.59243 -2.20992,0.41458 -2.20992,0.41459 v 8.91423 8.91423 l 0.83333,0.33626 0.83334,0.33626 3,0.0424 3,0.0424 0.8541,-0.54197 z m 21.33336,0 0.85407,-0.54197 -0.1874,-8.61448 -0.18747,-8.61449 -4.5,-0.19713 -4.5,-0.19712 v 8.91934 8.91936 l 0.44447,0.44444 0.4444,0.44444 3.38893,-0.0102 3.38887,-0.0102 0.85413,-0.54197 z m 22.14587,-8.77094 v -9.33333 h -3.94547 -3.94546 l -1.05454,0.40466 -1.05453,0.40466 v 8.48422 8.48424 l 0.44447,0.44444 0.4444,0.44444 h 4.5556 4.55553 z m 21,0 v -9 h -4.33333 -4.33334 l -0.18566,9.19756 -0.18567,9.19756 4.519,-0.19756 4.519,-0.19756 z m 21.5188,0.16667 -0.18547,-9.16667 h -4.33333 -4.33333 l -0.18547,9.16667 -0.18547,9.16666 h 4.70427 4.70427 z m 22,0 -0.18547,-9.16667 -3.93046,-0.20283 -3.93054,-0.20284 -0.67553,0.67556 -0.6756,0.67555 -0.28993,8.69395 -0.28994,8.69394 h 5.08147 5.08147 z m 34.69573,-0.7678 0.1634,-8.06554 h -1.02226 -1.02234 l 0.0213,9.16667 0.0213,9.16667 0.83773,-1.10114 0.83767,-1.10114 0.1634,-8.06552 z m 21.30587,0.98425 0.18707,-8.50782 -0.85374,0.28355 -0.85373,0.28354 -0.18707,8.50782 -0.18706,8.50782 0.85373,-0.28354 0.85373,-0.28355 z m 7.9746,-3.52206 -0.23387,-4.52773 v 8.66667 8.66667 l 0.23594,-4.13894 0.236,-4.13894 -0.23387,-4.52773 z m 20.66167,3.30561 -0.24967,-3.16667 v 6.33333 6.33334 l 0.24967,-3.16667 0.24973,-3.16667 z m 34.0056,-4.30417 -0.23067,-4.8625 v 9.33333 9.33334 l 0.2326,-4.47084 0.23253,-4.47083 -0.23066,-4.8625 z m 31.0108,4.97147 0.36706,-8.49935 -0.31613,-0.51152 -0.31613,-0.51151 -0.6206,0.38355 -0.6206,0.38355 v 8.62732 8.62732 h 0.56966 0.56967 z m -684.43444,6.66603 0.88563,-1.16667 0.0212,-7.80988 0.0212,-7.80987 -1.28951,-0.69013 -1.28951,-0.69012 h -2.65596 -2.65598 l -1.05452,0.40466 -1.05452,0.40466 v 8.46201 8.46201 l 0.8,0.8 0.8,0.8 h 3.29317 3.29317 z m 21.44819,-8.11487 0.18681,-8.9482 -0.85348,-0.54159 -0.85348,-0.54159 -3.03334,-0.0102 -3.03333,-0.0102 -0.8,0.8 -0.8,0.8 v 8.06667 8.06667 l 0.82844,0.82844 0.82845,0.82844 3.67155,-0.19511 3.67156,-0.19513 z m 21.47985,0.0195 v -9.26201 l -1.05453,-0.40466 -1.05452,-0.40466 h -3.20749 -3.20748 l -0.40466,1.05453 -0.40466,1.05452 v 8.1677 8.1677 l 0.44445,0.44444 0.44444,0.44444 h 4.22223 4.22222 z m 21.33333,8.45244 v -0.8096 l 0.25769,-7.88509 0.25768,-7.88509 -0.97197,-0.97198 -0.97197,-0.97197 h -2.89786 -2.89786 l -1.05452,0.40466 -1.05452,0.40466 v 8.81756 8.81757 l 0.44444,0.44444 0.44444,0.44444 h 4.22223 4.22222 z m 21.18497,-8.6904 -0.18497,-9.5 -3.14397,-0.20227 -3.14398,-0.20227 -1.35602,0.72572 -1.35603,0.72573 v 7.92202 7.92202 l 0.40466,1.05452 0.40466,1.05453 h 4.28031 4.28031 z m 21.3355,0.59297 0.18713,-8.5737 -0.76876,-0.9263 -0.76877,-0.92631 h -3.11836 -3.11838 l -0.8,0.8 -0.8,0.8 v 8.42222 8.42223 l 0.47264,0.47264 0.47264,0.47264 4.02736,-0.19487 4.02736,-0.19486 z m 21.93686,-0.0761 0.12401,-8.64976 -0.70563,-0.85024 -0.70564,-0.85024 -2.7517,0.009 -2.7517,0.009 -1.5,0.40199 -1.5,0.40198 v 9.28478 9.28479 l 4.83333,-0.19587 4.83333,-0.19588 0.124,-8.64976 z m 20.7301,0.0372 0.18742,-8.61258 -0.68713,-0.68713 -0.68713,-0.68713 -2.81472,-0.14467 -2.81472,-0.14467 -1.18558,0.6345 -1.18557,0.6345 v 8.5321 8.5321 l 0.47264,0.47264 0.47264,0.47264 4.02736,-0.19487 4.02736,-0.19487 0.18743,-8.61257 z m 21.33334,-0.002 0.18744,-8.61448 -0.8541,-0.54198 -0.85411,-0.54197 -2.77881,-0.0102 -2.77881,-0.0102 -1.05452,0.40466 -1.05453,0.40466 v 8.48423 8.48423 l 0.47264,0.47264 0.47264,0.47264 4.02736,-0.19487 4.02736,-0.1948 0.18744,-8.61448 z m 21.998,-0.13618 0.18544,-8.75068 -1.51877,-0.40689 -1.51877,-0.40689 -2.44548,-0.009 -2.44548,-0.009 -1.05452,0.40466 -1.05452,0.40466 v 8.95788 8.95788 l 4.83333,-0.19587 4.83333,-0.19588 0.18544,-8.75066 z m 21.10957,7.33268 0.43955,-1.75131 -0.1369,-7.08202 -0.13692,-7.08202 -0.73036,-0.48979 -0.73038,-0.48979 -3.11214,-0.0102 -3.11214,-0.0102 -1.05452,0.40466 -1.05453,0.40469 v 8.48423 8.48423 l 0.44445,0.44444 0.44444,0.44445 h 4.14995 4.14995 l 0.43955,-1.75132 z m 20.89047,-7.41527 -0.18548,-9.16667 -3.93816,-0.20306 -3.93816,-0.20306 -0.40456,0.6546 -0.40457,0.6546 -0.18918,7.42282 -0.18918,7.42281 0.41017,1.29231 0.41016,1.29232 h 4.30722 4.30722 z m 377.33992,1.0139 0.22234,-7.71843 -0.7072,-0.43708 -0.7072,-0.43708 -0.0749,0.53934 -0.0749,0.53935 -0.2052,7.87115 -0.2052,7.87114 0.76493,-0.25498 0.76493,-0.25498 z m -642.0304,-5.65284 -0.23385,-4.52773 -0.002,8.66667 -0.002,8.66667 0.23597,-4.13894 0.23598,-4.13894 -0.23386,-4.52773 z m -42.67352,3.63897 -0.2552,-2.83333 v 5.66666 5.66667 l 0.2552,-2.83333 0.25519,-2.83334 z m 8.66568,-1.35345 -0.25422,-2.81322 0.004,6 0.004,6 0.25052,-3.18678 0.25052,-3.18678 -0.25422,-2.81322 z m -63.82049,6.52012 v -0.33334 h -0.33333 -0.33334 v 0.33334 0.33333 h 0.33334 0.33333 z m -0.19516,-6.49223 -0.28993,-1.50777 -0.0135,2.66666 -0.0135,2.66667 0.30339,-1.15889 0.30339,-1.1589 -0.28994,-1.50777 z m -20.49178,0.99223 -0.02027,-1.83334 -0.682473,1.17195 -0.682473,1.17195 0.408753,0.66138 0.40876,0.66139 h 0.293993 0.293987 l -0.02026,-1.83333 z m 696.39001,0.25891 0.3952,-1.57441 -0.2158,-2.20758 -0.2158,-2.20758 -0.83334,-0.27356 -0.83333,-0.27356 v 4.05556 4.05555 h 0.65393 0.654 z m 234.7674,-2.59225 -0.2889,-1.5 v 3 3 l 0.2889,-1.5 0.2889,-1.5 z m -163.35934,-2.27778 -0.44446,-0.44444 v 0.88889 0.88889 l 0.44446,-0.44444 0.4444,-0.44445 z m 229.76254,-4.52448 0.9689,-0.96894 -0.3485,-7.53106 -0.3486,-7.53107 -0.7394,-0.48979 -0.7394,-0.48979 -59.6667,-0.10703 -59.66664,-0.10703 -2.66666,-0.24209 -2.66667,-0.2421 -2.5092,-0.40176 -2.50913,-0.40176 -0.99087,0.8223 -0.9908,0.82231 -0.8634,-0.71657 -0.8634,-0.71658 -8.96993,0.22303 -8.96994,0.22303 -0.66666,0.19079 -0.66667,0.19079 -2.33333,-0.41323 -2.33334,-0.41323 -312.33333,-0.41565 -312.33333,-0.41565 -88.66667,-0.11666 -88.66667,-0.11666 -0.19168,6.16666 -0.19168,6.16667 h -0.88776 -0.88776 l -0.40372,-2.48788 -0.40373,-2.48788 0.3875,-2.42328 0.3875,-2.42329 -0.76336,-1.42635 -0.76337,-1.42635 -50.474297,0.17084 -50.474306,0.17086 -0.187186,8.16666 -0.187186,8.16667 38.187186,0.0605 38.187186,0.0605 13.333333,0.2764 13.33333,0.2764 21,0.30166 21,0.30166 250.66667,0.45455 250.66667,0.45455 19.66666,0.15278 19.66667,0.15278 178,0.10594 177.99997,0.10594 1,0.638 1,0.63799 10.4524,0.0102 10.4523,0.0102 0.969,-0.96893 z m -1.5132,-19.82438 0.027,-0.20669 0.3778,-15.08303 0.3778,-15.083029 -0.6477,-0.4003 -0.6477,-0.40028 -83.2573,-0.35203 -83.2573,-0.35202 -36,-0.32117 -36,-0.32118 -237.33294,-0.51014 -237.33333,-0.51015 H 250.06636 127.3997 l -0.19848,4.16667 -0.19848,4.16666 h -0.96819 -0.96819 v -3.20591 -3.20591 l -0.83333,-1.0911 -0.83333,-1.0911 -48.125343,-0.36459 -48.125338,-0.36459 -1.041328,0.3996 -1.041461,0.39959 v 15.540629 15.54063 l 4.833333,0.22138 4.833334,0.22137 h 44.44324 44.443243 l 0.55676,-0.55369 0.55676,-0.55368 0.2225,-7.94632 0.2225,-7.94631 h 0.94416 0.94417 v 8.28536 8.28537 l 3.5,0.38498 3.5,0.38498 67.33333,-0.12034 67.33334,-0.12035 3.33333,0.16973 3.33333,0.16974 145.66667,-0.009 145.66667,-0.009 15.33333,0.24695 15.33333,0.24695 186.66667,0.43645 186.66667,0.43645 0.18213,0.17702 0.1822,0.17703 57.65107,0.13563 57.6512,0.13564 0.027,-0.20669 z m 1.9728,-39.180189 v -5.33443 l -1.5,-0.32765 -1.5,-0.32766 -39.6666,-0.32108 -39.6667,-0.32108 -265.66664,-0.38278 -265.66666,-0.38278 -51,-0.33112 -51,-0.33112 -7.33334,-0.0153 -7.33333,-0.0153 -115.5,0.032 -115.5,0.0319 v 5.26201 5.26201 l 1.00591,0.386 1.0059,0.386 198.4941,0.0131 198.49409,0.0131 181.33333,0.42618 181.33334,0.42618 1,0.54287 1,0.54287 98.83333,0.0503 98.83327,0.0503 z m -964.12538,2.32118 0.41924,-0.41925 0.26122,-4.6231 0.26123,-4.62311 -0.90812,-0.3083 -0.90813,-0.30831 -18,-0.39167 -17.999997,-0.39166 -31.57206,-0.32963 -31.57206,-0.32963 -0.92794,0.77012 -0.92794,0.77012 0.01021,4.41837 0.01021,4.41837 0.526146,0.8285 0.526148,0.8285 43.963644,0.20875 43.963649,0.20875 6.22765,-0.15379 6.22766,-0.15379 z m 0.2796,81.161079 0.17918,-15.15791 1.16666,-0.22431 1.16667,-0.22431 v 15.38222 15.38222 h -1.34585 -1.34585 z m 1003.12138,-51.69663 -1.0578,-0.81213 -0.7756,-1.45617 -0.7755,-1.45618 v -1.75432 -1.75432 l 0.7183,-1.34224 0.7184,-1.34224 1.0965,-1.2806 1.0965,-1.2806 2.3518,0.0129 2.3518,0.0129 4.6667,3.48713 4.6667,3.48714 1.8098,1.16667 1.8099,1.16666 0.7016,-1.31092 0.7016,-1.31092 -0.4085,-2.55458 -0.4085,-2.55458 1.0637,-0.8828 1.0637,-0.88279 v 6.7483 6.74823 h -0.7105 -0.7105 l -1.3555,-0.72545 -1.3556,-0.72545 -4.7672,-3.61858 -4.7674,-3.61857 -1.3022,-0.98931 -1.3023,-0.9893 -1.3644,0.0102 -1.3644,0.0102 -0.9849,0.62277 -0.9848,0.62278 v 2.6471 2.64709 l 1.2168,1.34458 1.2168,1.34457 -0.438,0.70868 -0.4379,0.70867 -0.4607,-0.0212 -0.4606,-0.0212 z m 77.4799,-7.38829 -2.8554,-2.90949 1.2166,-0.46747 1.2167,-0.46747 9.481,-0.21036 9.4812,-0.21037 1.1855,0.87086 1.1856,0.87085 -1.8767,0.71648 -1.8768,0.71646 h -6.5839 -6.5839 l -0.3688,0.59682 -0.3689,0.5968 0.9961,0.38227 0.9962,0.38227 v 1.02092 1.02092 h -1.1945 -1.1945 z m 4.1197,-7.820489 -2.7914,-0.66525 -2.0419,-2.32558 -2.0419,-2.32558 v -1.35396 -1.35396 l 0.6859,-1.28161 0.6859,-1.2816 2.9442,-1.34123 2.9442,-1.34124 h 5.2136 5.2137 l 2.3229,1.24164 2.323,1.24165 0.6221,1.7397 0.6221,1.7397 -0.6221,2.45953 -0.6221,2.45952 -2.495,1.28856 -2.495,1.288559 -3.8384,0.2382 -3.8383,0.23819 z m 11.9429,-3.37304 1.1514,-0.5942 0.7054,-1.31805 0.7054,-1.31806 -0.7054,-1.31805 -0.7054,-1.31805 -1.4847,-0.82186 -1.4848,-0.82185 -5,0.0235 -5,0.0235 -1.3597,0.73145 -1.3597,0.73145 -0.9209,1.7207 -0.9209,1.72069 1.5347,1.6336 1.5347,1.63359 3.7459,0.23524 3.7459,0.23524 2.3334,-0.29233 2.3333,-0.29233 1.1514,-0.59419 z m -73.7069,2.32524 -0.4445,-0.44444 v -0.88889 -0.88889 h 1 1 v 1.33334 1.33333 h -0.5555 -0.5556 z m -17.1112,-6.65761 -1,-0.40166 -1.8333,-1.95595 -1.8333,-1.95595 v -1.83144 -1.83143 l 0.8333,-1.02405 0.8333,-1.02404 2.103,-1.43671 2.1028,-1.43671 h 5.3538 5.3536 l 1.8768,0.71108 1.8767,0.71107 1.5,1.40514 1.5,1.40513 -0.011,2.71712 -0.011,2.71713 -1.7478,1.65925 -1.748,1.65926 -7.0738,0.1572 -7.074,0.15722 -1,-0.40166 z m 14.7293,-3.28792 1.2707,-1.15 v -1.84785 -1.84785 l -2.1024,-1.04882 -2.1024,-1.04883 h -5.2309 -5.2309 v 0.55965 0.55966 l -1.6667,0.75939 -1.6667,0.75938 v 1.23142 1.23141 l 1.5,1.383 1.5,1.38298 1.3334,0.36478 1.3333,0.36478 4.8959,-0.25155 4.896,-0.25155 z m 78.8909,-6.49078 -0.4516,-1.17674 0.4268,-0.4268 0.4268,-0.42681 0.6278,0.6278 0.6278,0.62779 -0.603,0.97574 -0.603,0.97575 z m -18.5556,-8.46425 -3.0646,-2.8248 v -1.45098 -1.45099 l 2.2519,-2.18261 2.2519,-2.18262 2.5268,-0.56989 2.5268,-0.56988 4.841,0.54289 4.841,0.5429 2.047,1.45756 2.047,1.45756 v 3.17173 3.17172 l -1.704,1.60075 -1.7039,1.60075 -6.8982,0.25535 -6.8982,0.25535 z m 16.5485,-1.39858 1.7929,-1.41027 -0.203,-1.40016 -0.203,-1.40016 -2.2652,-1.52291 -2.2653,-1.52291 h -3.858 -3.858 l -1.7603,0.66926 -1.7602,0.66925 -0.9498,0.94979 -0.9498,0.9498 v 1.23262 1.23261 l 1.0378,1.48167 1.0378,1.48167 h 6.2056 6.2056 z m -95.3843,2.37823 -0.396,-1.03203 1.2503,-0.98299 1.2503,-0.98298 2.3779,-1.2696 2.3779,-1.26958 0.8334,-1.00413 0.8333,-1.00413 -1.8779,-1.15136 -1.878,-1.15136 -2.5206,-1.66484 -2.5205,-1.66483 0.2421,-0.7284 0.2422,-0.72841 11.1638,-0.18302 11.1638,-0.18302 -0.226,1.18302 -0.2261,1.18302 -7.5505,0.33334 -7.5506,0.33333 2.699,1.66667 2.6992,1.66666 0.3333,0.82144 0.3333,0.82144 -1.6724,1.17856 -1.6725,1.17856 -1.4687,1.10928 -1.4688,1.10928 0.3988,0.40054 0.3986,0.40053 7.4347,0.42538 7.4346,0.42538 v 0.89814 0.89814 h -11.0209 -11.021 z m 18.9603,-18.99987 -1.1443,-0.67594 -4.0452,-1.29228 -4.0452,-1.29228 -2.4772,-1.07608 -2.4772,-1.07609 -2.1666,-0.93359 -2.1667,-0.9336 v -0.96289 -0.96288 l 3.8333,-1.39832 3.8334,-1.39831 1.3333,-0.5736 1.3333,-0.5736 3,-0.86274 3,-0.86274 0.6667,-0.46282 0.6667,-0.46283 2.194,-0.30565 2.1942,-0.30565 -0.2022,1.05523 -0.2023,1.05523 -1.9919,0.66666 -1.9918,0.66667 -0.8334,0.53935 -0.8333,0.53934 v 3.98435 3.98434 l 3.0555,1.30975 3.0556,1.30975 -0.2775,0.83323 -0.2774,0.83322 -0.9448,0.15536 -0.9447,0.15535 z m -4.9131,-7.13477 -0.4511,-2.5 -0.2851,-0.5 -0.2851,-0.5 h -1.175 -1.1749 l -2.4212,1.17771 -2.4213,1.17771 0.4689,0.71891 0.4688,0.71891 3,1.01933 3,1.01932 0.8636,0.0841 0.8635,0.0841 z m 63.202,4.88464 -0.736,-1.61536 -1.4854,-0.21797 -1.4854,-0.21797 -0.2892,-0.87738 -0.2891,-0.87738 1.2879,-0.33679 1.2879,-0.33679 1.1533,-1.9525 1.1534,-1.9525 h 0.5456 0.5457 l 0.4,2 0.4,2 h 1.7322 1.7322 l -0.2223,1.16667 -0.2224,1.16667 -1.5291,0.21774 -1.5291,0.21774 -0.6142,1.61559 -0.6143,1.61559 h -0.2428 -0.2429 z m 15.6173,-0.51902 -0.4104,-1.53228 -0.01,-2.03925 -0.01,-2.03925 0.8684,-1.18762 0.8684,-1.18762 0.835,1.00609 0.835,1.00608 -0.2034,3.54787 -0.2034,3.54788 -1.0804,0.20519 -1.0805,0.20519 -0.4105,-1.53228 z m -2.1779,-9.68298 -2.7492,-0.25109 -1.5336,-1.63244 -1.5336,-1.63244 h -4.6129 -4.6129 l -0.3487,1.33333 -0.3487,1.33334 h -0.8323 -0.8323 l -1.7817,-1.40146 -1.7817,-1.40146 0.8033,-0.96786 0.8033,-0.96786 6.5411,0.12152 6.5411,0.12152 1.9482,-2.08553 1.9482,-2.08554 3.5658,0.0665 3.5659,0.0664 1.6049,0.44903 1.605,0.44903 0.8149,2.35392 0.815,2.35391 -0.8827,1.20706 -0.8826,1.20705 -1.7801,0.92355 -1.7801,0.92354 -0.7572,-0.11647 -0.7571,-0.11646 z m 5.7957,-3.23852 0.8763,-1.05588 -0.679,-1.07646 -0.679,-1.07646 -1.9181,-0.51297 -1.918,-0.51296 -1.5485,0.38866 -1.5486,0.38866 -0.6954,1.29926 -0.6953,1.29926 0.7946,0.95739 0.7945,0.95738 h 3.1701 3.1701 z m -1162.161213,-3.63518 -1.114843,-0.65052 -1.385157,-2.24123 -1.385157,-2.24123 v -2.27297 -2.27298 l 1.058495,-1.51121 1.058496,-1.51122 -0.4462,-3.24426 -0.446201,-3.24426 1.131045,-1.7262 1.131045,-1.72619 h 3.130952 3.130953 l 1.474218,1.37344 1.474217,1.37345 -0.0873,4.12655 -0.0873,4.12656 0.479124,3.72623 0.479126,3.72623 -2.14273,2.44044 -2.142732,2.44043 -2.097603,-0.0203 -2.097605,-0.0203 z m 5.172309,-2.48581 0.724133,-0.48979 0.76103,-2.22359 0.761031,-2.22359 -0.951145,-2.27641 -0.951146,-2.27641 h -1.960162 -1.960162 l -1.511747,1.22414 -1.511747,1.22413 0.06221,2.18782 0.06221,2.18781 1.491897,1.58805 1.491891,1.58805 1.383791,-0.0102 1.38379,-0.0102 z m 0.818106,-15.32313 0.208906,-2.16666 -0.542239,-0.009 -0.542239,-0.009 -1.438364,-0.38586 -1.438364,-0.38587 -1.410248,1.41025 -1.410249,1.41025 0.725548,1.35569 0.725548,1.3557 2.456398,-0.20431 2.456398,-0.20431 z m -31.208905,17.21207 v -0.62127 l 2.166666,-1.48599 2.166667,-1.48598 1.821142,-1.67246 1.821142,-1.67246 -0.736105,-0.88695 -0.736105,-0.88696 h -1.553669 -1.553668 l -1.631336,-0.74328 -1.631337,-0.74329 -1.170517,-2.59574 -1.170517,-2.59575 0.773551,-2.58188 0.773552,-2.58189 0.938727,-0.77907 0.938727,-0.77907 4.155556,0.19999 4.155556,0.19998 0.4657,1 0.4657,1 0.770284,1.49096 0.770284,1.49095 -0.0097,2.50905 -0.0097,2.50904 -1.035885,3 -1.035886,3 -2.121079,2.22355 -2.121079,2.22355 -1.800226,0.94312 -1.800227,0.94312 h -1.033112 -1.033106 z m 9.333333,-14.76089 v -2.61784 l -1.333333,-1.33334 -1.333334,-1.33333 h -1.780839 -1.78084 l -1.21916,1.10333 -1.219161,1.10332 v 2.14838 2.14838 l 1.071102,0.88893 1.071101,0.88894 1.428899,0.71875 1.428898,0.71875 1.833334,-0.90822 1.833333,-0.90822 z m 6.458333,14.9516 -0.458333,-0.45833 v -0.55556 -0.55555 h 1.388889 1.388889 l -0.263889,0.79166 -0.263889,0.79167 -0.666667,0.22222 -0.666666,0.22223 z M 1209.7329,34.578361 v -0.66667 h 0.706 0.706 l -0.412,0.66667 -0.412,0.66666 h -0.294 -0.294 z m -82.6622,-1.5 0.01,-0.83334 2.1621,-1.46344 2.1621,-1.46344 1.1151,-0.42144 1.1152,-0.42143 0.3829,-0.99799 0.383,-0.99799 -0.8625,-0.86251 -0.8626,-0.86251 -1.4914,-0.47337 -1.4915,-0.47338 -1.2877,-1.38221 -1.2877,-1.38221 0.3663,-0.59282 0.3664,-0.59283 1.3728,0.43568 1.3726,0.43568 3.0351,1.92477 3.0351,1.92478 h 1.2611 1.2611 l 4.2597,-2.38215 4.2597,-2.38214 0.682,0.42149 0.682,0.42149 -0.01,0.46065 -0.01,0.46066 -3.6598,2.33333 -3.6598,2.33333 -0.01,0.82497 -0.01,0.82497 2.5,1.55707 2.5,1.55707 1.1667,0.43037 1.1666,0.43037 v 1.02093 1.02092 h -1.3333 -1.3333 v -0.58579 -0.58578 l -2.1667,-0.86925 -2.1667,-0.86924 -1.5225,-1.15864 -1.5225,-1.15864 -1.8108,0.54825 -1.8108,0.54825 -2.0966,1.07926 -2.0965,1.07925 -0.8184,0.98616 -0.8185,0.98617 h -1.2516 -1.2518 l 0.01,-0.83333 z M 91.540623,32.163861 91.06623,31.689471 v -1.1891 -1.18909 l 0.88596,-0.53313 0.88596,-0.53313 1.780707,-2.65475 1.780706,-2.65476 v -1.2658 -1.26581 l -2.32112,0.37667 -2.321113,0.37666 -0.402947,-0.65197 -0.40294,-0.65198 0.805687,-0.97079 0.805693,-0.9708 h 2.4517 2.451707 l 0.8,0.8 0.8,0.8 v 2.06867 2.06866 l -2.089733,2.8416 -2.08974,2.8416 0.58974,0.55836 0.589733,0.55836 1.20188,0.23137 1.20188,0.23138 0.131453,0.66667 0.131454,0.66666 -3.35894,0.19662 -3.35894,0.19661 z m 13.988177,-0.0118 -0.42632,-0.42632 0.35455,-0.57368 0.35455,-0.57368 h 1.82733 1.82732 l 0.8,-0.8 0.8,-0.8 v -1.52063 -1.52063 l -1.83333,-0.39218 -1.83334,-0.39217 -1.5,-0.60623 -1.5,-0.60624 v -2.21429 -2.2143 l 0.8,-0.8 0.8,-0.8 h 3.2 3.2 v 1.33334 1.33333 h -2.62732 -2.62732 l -0.39135,0.63322 -0.39135,0.63322 1.30818,0.70011 1.30818,0.70012 h 1.62886 1.62886 l 0.74434,0.89687 0.74434,0.89687 0.3894,1.94698 0.38939,1.94699 -1.43382,1.82281 -1.43383,1.82281 h -2.8405 -2.8405 z m -26.137917,-0.92106 -0.458166,-0.74132 0.455646,-0.45565 0.455647,-0.45565 0.611107,-0.0833 0.611113,-0.0833 0.666667,-0.0833 0.666666,-0.0833 v -0.95364 -0.95363 l -1.5,-0.21304 -1.5,-0.21303 v -1 -1 l 1.45968,-0.20775 1.459687,-0.20775 0.20698,-1.78655 0.206987,-1.78655 1.166666,-0.22125 1.166667,-0.22125 v 1.77796 1.77797 l 1.28722,0.33661 1.287213,0.33662 0.368214,0.95954 0.368206,0.95954 -1.155426,0.42614 -1.155427,0.42613 -0.456013,0.68347 -0.456007,0.68346 0.328687,0.53183 0.328686,0.53183 h 1.349547 1.349547 l -0.27514,0.83333 -0.275134,0.83334 -4.05568,0.19697 -4.05568,0.19697 z m 21.897567,0.23627 0.44445,-0.44444 0.44444,0.44444 0.44444,0.44445 h -0.88888 -0.88889 z m 1096.86905,-0.5595 -1.004,-1.00395 -0.4322,-1.36202 -0.4324,-1.36203 1.0638,-1.62344 1.0637,-1.62344 1.6825,-0.42229 1.6826,-0.42229 3.809,0.31902 3.809,0.31903 1.1667,0.49734 1.1667,0.49734 v -1.738 -1.73799 h 0.6809 0.681 l 0.5981,1.5 0.5982,1.5 0.4352,1.33333 0.4351,1.33334 0.9524,-1.29409 0.9524,-1.29408 v -1.5158 -1.51579 l 1.2895,-0.69012 1.2895,-0.69012 h 2.3288 2.3287 l 1.3818,1.75657 1.3817,1.75657 -0.01,1.4101 -0.01,1.41009 -0.5819,0.91874 -0.582,0.91875 -0.7412,-0.45809 -0.7412,-0.45809 v -1.22013 -1.22013 l -1.2294,-1.51837 -1.2296,-1.51836 -1.1038,0.42359 -1.1038,0.42358 -0.021,1.85425 -0.021,1.85426 -0.8856,1.16667 -0.8857,1.16666 h -2.8302 -2.8303 l -1.9807,1.66667 -1.9808,1.66667 h -4.5678 -4.5679 l -1.004,-1.00395 z m 9.6192,-1.68617 1.2895,-0.69013 v -0.90522 -0.90521 l -1.0545,-0.40466 -1.0546,-0.40466 h -2.8909 -2.8909 l -1.0546,0.40466 -1.0545,0.40466 v 0.89554 0.89555 l 1.1667,0.67952 1.1666,0.67952 2.5438,0.0203 2.5439,0.0203 1.2895,-0.69012 z m 17.2895,2.35679 v -0.33334 h 0.3333 0.3334 v 0.33334 0.33333 h -0.3334 -0.3333 z"
       id="path255" />
  </g>
</svg>
