<?xml version="1.0" encoding="UTF-8" standalone="no"?>
<!-- Created with Inkscape (http://www.inkscape.org/) -->

<svg
   version="1.1"
   id="svg1394"
   width="1063.0503"
   height="583.48383"
   viewBox="0 0 1063.0503 583.48383"
   xmlns="http://www.w3.org/2000/svg"
   xmlns:svg="http://www.w3.org/2000/svg">
  <defs
     id="defs1398">
    <clipPath
       clipPathUnits="userSpaceOnUse"
       id="clipPath1412">
      <path
         d="M 9.000031,66.2756 H 831.96003 v 463 H 9.000031 Z"
         id="path1410" />
    </clipPath>
    <clipPath
       clipPathUnits="userSpaceOnUse"
       id="clipPath1874">
      <path
         d="M -2694782.7,6409485.8 H 9497217 V -448514.71 H -2694782.7 Z"
         id="path1876"
         style="stroke-width:14813.1" />
    </clipPath>
    <clipPath
       clipPathUnits="userSpaceOnUse"
       id="clipPath1878">
      <path
         d="M -2695553,5225138.7 H 9496446.6 V -1632861.8 H -2695553 Z"
         id="path1880"
         style="stroke-width:14813.1" />
    </clipPath>
    <clipPath
       clipPathUnits="userSpaceOnUse"
       id="clipPath1882">
      <path
         d="M 1064254,-749570.61 H -11127746 V 6108429.9 H 1064254 Z"
         id="path1884"
         style="stroke-width:14813.1" />
    </clipPath>
    <clipPath
       clipPathUnits="userSpaceOnUse"
       id="clipPath1886">
      <path
         d="M 722214.97,1049491.9 H -11469785 V -5808508.6 H 722214.97 Z"
         id="path1888"
         style="stroke-width:14813.1" />
    </clipPath>
    <clipPath
       clipPathUnits="userSpaceOnUse"
       id="clipPath1890">
      <path
         d="M 1282997.9,822692 H -10909002 V -6035308.5 H 1282997.9 Z"
         id="path1892"
         style="stroke-width:14813.1" />
    </clipPath>
    <clipPath
       clipPathUnits="userSpaceOnUse"
       id="clipPath1894">
      <path
         d="M 1284039.1,1286251.4 H -10907961 V -5571749.1 H 1284039.1 Z"
         id="path1896"
         style="stroke-width:14813.1" />
    </clipPath>
    <clipPath
       clipPathUnits="userSpaceOnUse"
       id="clipPath1898">
      <path
         d="M 1418412.1,1432668.9 H -10773588 V -5425331.6 H 1418412.1 Z"
         id="path1900"
         style="stroke-width:14813.1" />
    </clipPath>
    <clipPath
       clipPathUnits="userSpaceOnUse"
       id="clipPath1902">
      <path
         d="M 6144935.8,5346274.6 V -6845725.1 H -713064.66 V 5346274.6 Z"
         id="path1904"
         style="stroke-width:14813.1" />
    </clipPath>
    <clipPath
       clipPathUnits="userSpaceOnUse"
       id="clipPath1906">
      <path
         d="M -363494.03,5388268.8 H 11828506 V -1469731.7 H -363494.03 Z"
         id="path1908"
         style="stroke-width:14813.1" />
    </clipPath>
    <clipPath
       clipPathUnits="userSpaceOnUse"
       id="clipPath1910">
      <path
         d="M -347312,6574334 H 11844688 V -283666.45 H -347312 Z"
         id="path1912"
         style="stroke-width:14813.1" />
    </clipPath>
    <clipPath
       clipPathUnits="userSpaceOnUse"
       id="clipPath1914">
      <path
         d="M -11402614,2182156.5 H 789385.28 V -4675843.9 H -11402614 Z"
         id="path1916"
         style="stroke-width:14813.1" />
    </clipPath>
    <clipPath
       clipPathUnits="userSpaceOnUse"
       id="clipPath1918">
      <path
         d="M 2608854.5,11022883 V -1169116.5 H -4249146 V 11022883 Z"
         id="path1920"
         style="stroke-width:14813.1" />
    </clipPath>
    <clipPath
       clipPathUnits="userSpaceOnUse"
       id="clipPath1922">
      <path
         d="M -7658744.4,3413058 H 4533255.2 V -3444942.5 H -7658744.4 Z"
         id="path1924"
         style="stroke-width:14813.1" />
    </clipPath>
    <clipPath
       clipPathUnits="userSpaceOnUse"
       id="clipPath1926">
      <path
         d="M -7063281.5,2345668.7 H 5128718.1 V -4512331.7 H -7063281.5 Z"
         id="path1928"
         style="stroke-width:14813.1" />
    </clipPath>
    <clipPath
       clipPathUnits="userSpaceOnUse"
       id="clipPath1930">
      <path
         d="M -3332753.1,2340357.1 H 8859246.5 V -4517643.4 H -3332753.1 Z"
         id="path1932"
         style="stroke-width:14813.1" />
    </clipPath>
    <clipPath
       clipPathUnits="userSpaceOnUse"
       id="clipPath1934">
      <path
         d="M -2926710.7,3766456.8 H 9265289 V -3091543.6 H -2926710.7 Z"
         id="path1936"
         style="stroke-width:14813.1" />
    </clipPath>
  </defs>
  <g
     id="g1402"
     transform="matrix(1.3333333,0,0,-1.3333333,-34.300306,681.88093)">
    <g
       id="g1404" />
    <path
       d="M 206.5626,320.5581 H 634.4374 V 131.3559 H 206.5626 Z"
       style="fill:#181717;fill-opacity:1;fill-rule:nonzero;stroke:none"
       id="path1426" />
    <g
       id="g1428"
       transform="matrix(6.750328e-5,0,0,-6.751239e-5,206.5626,320.5581)"
       clip-path="url(#clipPath1934)">
      <path
         d="M 0,0 H 6338578 V 2802482 H 0 Z"
         style="fill:none;stroke:#ffffff;stroke-width:38100;stroke-linecap:butt;stroke-linejoin:miter;stroke-miterlimit:8;stroke-dasharray:114300, 38100;stroke-dashoffset:0;stroke-opacity:1"
         id="path1430" />
    </g>
    <g
       id="g1432"
       transform="matrix(0.24,0,0,0.2400324,212.7351,-274.5623)">
      <text
         xml:space="preserve"
         transform="matrix(1,0,0,-1,0,2404)"
         style="font-variant:normal;font-weight:normal;font-size:62.5px;font-family:Geneva;-inkscape-font-specification:Geneva;writing-mode:lr-tb;fill:#ffffff;fill-opacity:1;fill-rule:nonzero;stroke:none"
         id="text1436"><tspan
           x="0 32.59375 65.1875 79.90625 107.125 141.09375 171.875 205.84375 239.8125 271.96875 286.6875"
           y="0"
           id="tspan1434">16 channels</tspan></text>
    </g>
    <path
       d="M 233.9718,224.2787 H 357.3763 V 159.2331 H 233.9718 Z"
       style="fill:#404040;fill-opacity:1;fill-rule:nonzero;stroke:none"
       id="path1438" />
    <g
       id="g1440"
       transform="matrix(6.750328e-5,0,0,-6.751239e-5,233.9718,224.2787)"
       clip-path="url(#clipPath1930)">
      <path
         d="M 0,0 H 1828126 V 963461 H 0 Z"
         style="fill:none;stroke:#ffffff;stroke-width:38100;stroke-linecap:butt;stroke-linejoin:miter;stroke-miterlimit:8;stroke-dasharray:none;stroke-opacity:1"
         id="path1442" />
    </g>
    <g
       id="g1444"
       transform="matrix(0.24,0,0,0.2400324,275.8256,-390.9623)">
      <text
         xml:space="preserve"
         transform="matrix(1,0,0,-1,0,2404)"
         style="font-variant:normal;font-weight:normal;font-size:62.5px;font-family:Geneva;-inkscape-font-specification:Geneva;writing-mode:lr-tb;fill:#ffffff;fill-opacity:1;fill-rule:nonzero;stroke:none"
         id="text1448"><tspan
           x="0 29.46875 45.5625 68.09375 99.375 130.65625"
           y="0"
           id="tspan1446">FILTER</tspan></text>
    </g>
    <path
       d="m 357.3799,190.4698 121.9889,0.3407 -0.007,2.5722 -121.9889,-0.3407 z m 120.71,-2.2351 7.7048,3.8798 -7.7263,3.8368 z"
       style="fill:#ffffff;fill-opacity:1;fill-rule:nonzero;stroke:none"
       id="path1450" />
    <path
       d="M 485.7947,224.6373 H 609.1992 V 159.5918 H 485.7947 Z"
       style="fill:#404040;fill-opacity:1;fill-rule:nonzero;stroke:none"
       id="path1452" />
    <g
       id="g1454"
       transform="matrix(6.750328e-5,0,0,-6.751239e-5,485.7947,224.6373)"
       clip-path="url(#clipPath1926)">
      <path
         d="M 0,0 H 1828126 V 963461 H 0 Z"
         style="fill:none;stroke:#ffffff;stroke-width:38100;stroke-linecap:butt;stroke-linejoin:miter;stroke-miterlimit:8;stroke-dasharray:none;stroke-opacity:1"
         id="path1456" />
    </g>
    <g
       id="g1458"
       transform="matrix(0.24,0,0,0.2400324,534.599,-390.7223)">
      <text
         xml:space="preserve"
         transform="matrix(1,0,0,-1,0,2404)"
         style="font-variant:normal;font-weight:normal;font-size:62.5px;font-family:Geneva;-inkscape-font-specification:Geneva;writing-mode:lr-tb;fill:#ffffff;fill-opacity:1;fill-rule:nonzero;stroke:none"
         id="text1462"><tspan
           x="0 36.043751 70.400002"
           y="0"
           id="tspan1460">VCA</tspan></text>
    </g>
    <path
       d="m 525.9904,275.1898 c 0,11.8793 9.6288,21.5095 21.5066,21.5095 11.8777,0 21.5065,-9.6302 21.5065,-21.5095 0,-11.8793 -9.6288,-21.5094 -21.5065,-21.5094 -11.8778,0 -21.5066,9.6301 -21.5066,21.5094 z"
       style="fill:#404040;fill-opacity:1;fill-rule:evenodd;stroke:none"
       id="path1464" />
    <g
       id="g1466"
       transform="matrix(6.750328e-5,0,0,-6.751239e-5,525.9904,296.6993)"
       clip-path="url(#clipPath1922)">
      <path
         d="M 0,318600 C 0,142642.1 142642.1,0 318600,0 494557.9,0 637200,142642.1 637200,318600 637200,494557.9 494557.9,637200 318600,637200 142642.1,637200 0,494557.9 0,318600 Z"
         style="fill:none;stroke:#ffffff;stroke-width:38100;stroke-linecap:butt;stroke-linejoin:miter;stroke-miterlimit:8;stroke-dasharray:none;stroke-opacity:1"
         id="path1468" />
    </g>
    <g
       id="g1470"
       transform="matrix(0.24,0,0,0.2400324,529.0652,-307.4423)">
      <text
         xml:space="preserve"
         transform="matrix(1,0,0,-1,0,2404)"
         style="font-variant:normal;font-weight:normal;font-size:62.5px;font-family:Geneva;-inkscape-font-specification:Geneva;writing-mode:lr-tb;fill:#ffffff;fill-opacity:1;fill-rule:nonzero;stroke:none"
         id="text1474"><tspan
           x="0 27.237499 58.474998 95.087502 126.325"
           y="0"
           id="tspan1472">LEVEL</tspan></text>
    </g>
    <path
       d="m 548.7829,253.6804 10e-5,-22.6125 h -2.5719 l -10e-5,22.6125 z m 2.5719,-21.3264 -3.8578,-7.7167 -3.8578,7.7167 z"
       style="fill:#ffffff;fill-opacity:1;fill-rule:nonzero;stroke:none"
       id="path1476" />
    <path
       d="m 660.0705,242.4056 93.0103,-50.3169 -93.0103,-50.3169 z"
       style="fill:#404040;fill-opacity:1;fill-rule:evenodd;stroke:none"
       id="path1478" />
    <g
       id="g1480"
       transform="matrix(0,-6.751239e-5,-6.750328e-5,0,753.0808,242.4056)"
       clip-path="url(#clipPath1918)">
      <path
         d="M 0,1377863 745298.5,0 1490597,1377863 Z"
         style="fill:none;stroke:#ffffff;stroke-width:38100;stroke-linecap:butt;stroke-linejoin:miter;stroke-miterlimit:8;stroke-dasharray:none;stroke-opacity:1"
         id="path1482" />
    </g>
    <g
       id="g1484"
       transform="matrix(0.24,0,0,0.2400324,668.2668,-390.7223)">
      <text
         xml:space="preserve"
         transform="matrix(1,0,0,-1,0,2404)"
         style="font-variant:normal;font-weight:normal;font-size:62.5px;font-family:Geneva;-inkscape-font-specification:Geneva;writing-mode:lr-tb;fill:#ffffff;fill-opacity:1;fill-rule:nonzero;stroke:none"
         id="text1488"><tspan
           x="0 29.46875 70.5625"
           y="0"
           id="tspan1486">SUM</tspan></text>
    </g>
    <path
       d="m 778.7139,192.0887 c 0,11.8794 9.6288,21.5095 21.5065,21.5095 11.8778,0 21.5066,-9.6301 21.5066,-21.5095 0,-11.8793 -9.6288,-21.5094 -21.5066,-21.5094 -11.8777,0 -21.5065,9.6301 -21.5065,21.5094 z"
       style="fill:#bfbfbf;fill-opacity:1;fill-rule:evenodd;stroke:none"
       id="path1490" />
    <g
       id="g1492"
       transform="matrix(6.750328e-5,0,0,-6.751239e-5,778.7139,213.5982)"
       clip-path="url(#clipPath1914)">
      <path
         d="M 0,318600 C 0,142642.1 142642.1,0 318600,0 494557.9,0 637200,142642.1 637200,318600 637200,494557.9 494557.9,637200 318600,637200 142642.1,637200 0,494557.9 0,318600 Z"
         style="fill:none;stroke:#ffffff;stroke-width:38100;stroke-linecap:butt;stroke-linejoin:miter;stroke-miterlimit:8;stroke-dasharray:none;stroke-opacity:1"
         id="path1494" />
    </g>
    <g
       id="g1496"
       transform="matrix(0.24,0,0,0.2400324,786.4501,-390.7223)">
      <text
         xml:space="preserve"
         transform="matrix(1,0,0,-1,0,2404)"
         style="font-variant:normal;font-weight:normal;font-size:62.5px;font-family:Geneva;-inkscape-font-specification:Geneva;writing-mode:lr-tb;fill:#000000;fill-opacity:1;fill-rule:nonzero;stroke:none"
         id="text1500"><tspan
           x="0 42.418751 83.525002"
           y="0"
           id="tspan1498">OUT</tspan></text>
    </g>
    <path
       d="m 609.1999,193.4006 44.4416,-0.0226 -10e-4,-2.5722 -44.4416,0.0226 z m 43.157,2.5503 7.7136,-3.8622 -7.7176,-3.8545 z"
       style="fill:#ffffff;fill-opacity:1;fill-rule:nonzero;stroke:none"
       id="path1502" />
    <path
       d="m 753.0808,190.8026 h 19.2034 v 2.5722 h -19.2034 z m 17.9174,-2.5722 7.7156,3.8583 -7.7156,3.8584 z"
       style="fill:#ffffff;fill-opacity:1;fill-rule:nonzero;stroke:none"
       id="path1504" />
    <path
       d="M 32.44473,510.1246 H 155.8492 V 445.079 H 32.44473 Z"
       style="fill:#404040;fill-opacity:1;fill-rule:nonzero;stroke:none"
       id="path1506" />
    <g
       id="g1508"
       transform="matrix(6.750328e-5,0,0,-6.751239e-5,32.44473,510.1246)"
       clip-path="url(#clipPath1910)">
      <path
         d="M 0,0 H 1828126 V 963461 H 0 Z"
         style="fill:none;stroke:#ffffff;stroke-width:38100;stroke-linecap:butt;stroke-linejoin:miter;stroke-miterlimit:8;stroke-dasharray:none;stroke-opacity:1"
         id="path1510" />
    </g>
    <g
       id="g1512"
       transform="matrix(0.24,0,0,0.2400324,80.67461,-105.1223)">
      <text
         xml:space="preserve"
         transform="matrix(1,0,0,-1,0,2404)"
         style="font-variant:normal;font-weight:normal;font-size:62.5px;font-family:Geneva;-inkscape-font-specification:Geneva;writing-mode:lr-tb;fill:#ffffff;fill-opacity:1;fill-rule:nonzero;stroke:none"
         id="text1516"><tspan
           x="0 36.043751 69.837502"
           y="0"
           id="tspan1514">VCO</tspan></text>
    </g>
    <path
       d="M 33.53707,430.0505 H 156.9416 V 365.005 H 33.53707 Z"
       style="fill:#404040;fill-opacity:1;fill-rule:nonzero;stroke:none"
       id="path1518" />
    <g
       id="g1520"
       transform="matrix(6.750328e-5,0,0,-6.751239e-5,33.53707,430.0505)"
       clip-path="url(#clipPath1906)">
      <path
         d="M 0,0 H 1828126 V 963461 H 0 Z"
         style="fill:none;stroke:#ffffff;stroke-width:38100;stroke-linecap:butt;stroke-linejoin:miter;stroke-miterlimit:8;stroke-dasharray:none;stroke-opacity:1"
         id="path1522" />
    </g>
    <g
       id="g1524"
       transform="matrix(0.24,0,0,0.2400324,75.95025,-185.2823)">
      <text
         xml:space="preserve"
         transform="matrix(1,0,0,-1,0,2404)"
         style="font-variant:normal;font-weight:normal;font-size:62.5px;font-family:Geneva;-inkscape-font-specification:Geneva;writing-mode:lr-tb;fill:#ffffff;fill-opacity:1;fill-rule:nonzero;stroke:none"
         id="text1528"><tspan
           x="0 41.525002 83.925003 100.0125 129.47501"
           y="0"
           id="tspan1526">NOISE</tspan></text>
    </g>
    <path
       d="m 548.7829,343.492 10e-5,-40.3622 h -2.5719 l -10e-5,40.3622 z m 2.5719,-39.0761 -3.8578,-7.7167 -3.8578,7.7167 z"
       style="fill:#ffffff;fill-opacity:1;fill-rule:nonzero;stroke:none"
       id="path1530" />
    <g
       id="g1532"
       transform="matrix(0.24,0,0,0.2400324,508.0229,-209.5223)">
      <text
         xml:space="preserve"
         transform="matrix(1,0,0,-1,0,2404)"
         style="font-style:italic;font-variant:normal;font-size:62.5px;font-family:Geneva;-inkscape-font-specification:Geneva-Italic;writing-mode:lr-tb;fill:#ffffff;fill-opacity:1;fill-rule:nonzero;stroke:none"
         id="text1536"><tspan
           x="0 27.237499 58.474998 95.087502 126.325 153.5625 168.3 197.78751 232.02499 274.01251"
           y="0"
           id="tspan1534">LEVEL FROM</tspan></text>
    </g>
    <g
       id="g1538"
       transform="matrix(0.24,0,0,0.2400324,514.294,-227.5223)">
      <text
         xml:space="preserve"
         transform="matrix(1,0,0,-1,0,2404)"
         style="font-style:italic;font-variant:normal;font-size:62.5px;font-family:Geneva;-inkscape-font-specification:Geneva-Italic;writing-mode:lr-tb;fill:#ffffff;fill-opacity:1;fill-rule:nonzero;stroke:none"
         id="text1542"><tspan
           x="0 33.043751 67.275002 109.25625 149.8625 184.71875 221.7625"
           y="0"
           id="tspan1540">PROGRAM</tspan></text>
    </g>
    <g
       id="g1544"
       transform="matrix(0.24,0,0,0.2400324,134.3993,-402.9623)">
      <text
         xml:space="preserve"
         transform="matrix(1,0,0,-1,0,2404)"
         style="font-style:italic;font-variant:normal;font-size:62.5px;font-family:Geneva;-inkscape-font-specification:Geneva-Italic;writing-mode:lr-tb;fill:#ffffff;fill-opacity:1;fill-rule:nonzero;stroke:none"
         id="text1548"><tspan
           x="0 33.487499 70.537498 105.3375 140.1375 156.1875 187.425"
           y="0"
           id="tspan1546">CARRIER</tspan></text>
    </g>
    <path
       d="M 276.8808,481.1349 369.8911,430.818 276.8808,380.5011 Z"
       style="fill:#404040;fill-opacity:1;fill-rule:evenodd;stroke:none"
       id="path1550" />
    <g
       id="g1552"
       transform="matrix(0,-6.751239e-5,-6.750328e-5,0,369.8911,481.1349)"
       clip-path="url(#clipPath1902)">
      <path
         d="M 0,1377863 745298.5,0 1490597,1377863 Z"
         style="fill:none;stroke:#ffffff;stroke-width:38100;stroke-linecap:butt;stroke-linejoin:miter;stroke-miterlimit:8;stroke-dasharray:none;stroke-opacity:1"
         id="path1554" />
    </g>
    <g
       id="g1556"
       transform="matrix(0.24,0,0,0.2400324,287.5954,-151.9223)">
      <text
         xml:space="preserve"
         transform="matrix(1,0,0,-1,0,2404)"
         style="font-variant:normal;font-weight:normal;font-size:62.5px;font-family:Geneva;-inkscape-font-specification:Geneva;writing-mode:lr-tb;fill:#ffffff;fill-opacity:1;fill-rule:nonzero;stroke:none"
         id="text1560"><tspan
           x="0 54.918751 70.962502"
           y="0"
           id="tspan1558">MIX</tspan></text>
    </g>
    <path
       d="m 233.9197,478.772 h 22.7665 v -47.954 l -1.2859,1.2861 h 15.0508 v -2.5723 h -16.3368 v 47.9541 l 1.286,-1.2861 h -21.4806 z m 35.2455,-44.0957 7.7156,-3.8583 -7.7156,-3.8584 z"
       style="fill:#ffffff;fill-opacity:1;fill-rule:nonzero;stroke:none"
       id="path1562" />
    <path
       d="m 324.6718,481.1349 10e-5,-18.7279 H 322.1 v 18.7279 z m 2.572,-17.4418 -3.8578,-7.7166 -3.8579,7.7166 z"
       style="fill:#ffffff;fill-opacity:1;fill-rule:nonzero;stroke:none"
       id="path1564" />
    <g
       id="g1566"
       transform="matrix(0.24,0,0,0.2400324,310.8479,-92.64231)">
      <text
         xml:space="preserve"
         transform="matrix(1,0,0,-1,0,2404)"
         style="font-variant:normal;font-weight:normal;font-size:62.5px;font-family:Geneva;-inkscape-font-specification:Geneva;writing-mode:lr-tb;fill:#ffffff;fill-opacity:1;fill-rule:nonzero;stroke:none"
         id="text1570"><tspan
           x="0 54.918751 70.962502"
           y="0"
           id="tspan1568">MIX</tspan></text>
    </g>
    <path
       d="m 369.8911,429.5318 h 15.4308 l -1.286,1.2862 V 330.7489 l 1.286,1.2861 H 148.1821 V 190.4698 h 79.36 v 2.5722 H 149.468 l 1.2859,-1.2861 v 138.993 l -1.2859,-1.2861 h 237.1398 v 102.6413 h -16.7167 z m -143.6349,-241.6342 7.7156,3.8583 -7.7156,3.8583 z"
       style="fill:#ffffff;fill-opacity:1;fill-rule:nonzero;stroke:none"
       id="path1572" />
    <path
       d="m 104.7475,151.159 c 0,6.5388 -5.30002,11.8395 -11.83791,11.8395 h -47.3502 c -6.5379,0 -11.8379,-5.3007 -11.8379,-11.8395 v -47.3565 c 0,-6.53878 5.3,-11.8395 11.8379,-11.8395 h 47.3502 c 6.53789,0 11.83791,5.30072 11.83791,11.8395 z"
       style="fill:#404040;fill-opacity:1;fill-rule:evenodd;stroke:none"
       id="path1574" />
    <g
       id="g1576"
       transform="matrix(-6.750328e-5,0,0,-6.751239e-5,104.7475,162.9985)"
       clip-path="url(#clipPath1898)">
      <path
         d="M 0,175367.8 C 0,78514.83 78514.83,0 175367.8,0 h 701450.4 c 96853,0 175367.8,78514.83 175367.8,175367.8 v 701449.3 c 0,96852.9 -78514.8,175367.9 -175367.8,175367.9 H 175367.8 C 78514.83,1052185 0,973670 0,876817.1 Z"
         style="fill:none;stroke:#ffffff;stroke-width:38100;stroke-linecap:butt;stroke-linejoin:miter;stroke-miterlimit:8;stroke-dasharray:114300, 38100;stroke-dashoffset:0;stroke-opacity:1"
         id="path1578" />
    </g>
    <path
       d="m 95.67688,145.4576 c 0,4.2283 -3.44294,7.6559 -7.69001,7.6559 -4.24707,0 -7.69001,-3.4276 -7.69001,-7.6559 0,-4.2282 3.44294,-7.6559 7.69001,-7.6559 4.24707,0 7.69001,3.4277 7.69001,7.6559 z"
       style="fill:#000000;fill-opacity:1;fill-rule:evenodd;stroke:none"
       id="path1580" />
    <g
       id="g1582"
       transform="matrix(-6.750328e-5,0,0,-6.751239e-5,95.67688,153.1135)"
       clip-path="url(#clipPath1894)">
      <path
         d="M 0,113400 C 0,50770.91 51003.94,0 113920.5,0 176837,0 227841,50770.91 227841,113400 c 0,62629.1 -51004,113400 -113920.5,113400 C 51003.94,226800 0,176029.1 0,113400 Z"
         style="fill:none;stroke:#ffffff;stroke-width:38100;stroke-linecap:butt;stroke-linejoin:miter;stroke-miterlimit:8;stroke-dasharray:none;stroke-opacity:1"
         id="path1584" />
    </g>
    <path
       d="m 95.6066,114.1615 c 0,4.2283 -3.4272,7.656 -7.65487,7.656 -4.22767,0 -7.65487,-3.4277 -7.65487,-7.656 0,-4.2282 3.4272,-7.6559 7.65487,-7.6559 4.22767,0 7.65487,3.4277 7.65487,7.6559 z"
       style="fill:#000000;fill-opacity:1;fill-rule:evenodd;stroke:none"
       id="path1586" />
    <g
       id="g1588"
       transform="matrix(-6.750328e-5,0,0,-6.751239e-5,95.6066,121.8175)"
       clip-path="url(#clipPath1890)">
      <path
         d="M 0,113400 C 0,50770.91 50770.91,0 113400,0 c 62629.1,0 113400,50770.91 113400,113400 0,62629.1 -50770.9,113400 -113400,113400 C 50770.91,226800 0,176029.1 0,113400 Z"
         style="fill:none;stroke:#ffffff;stroke-width:38100;stroke-linecap:butt;stroke-linejoin:miter;stroke-miterlimit:8;stroke-dasharray:none;stroke-opacity:1"
         id="path1590" />
    </g>
    <path
       d="m 57.75191,129.4734 c 0,4.2282 -3.4272,7.6559 -7.65487,7.6559 -4.22767,0 -7.65487,-3.4277 -7.65487,-7.6559 0,-4.2283 3.4272,-7.656 7.65487,-7.656 4.22767,0 7.65487,3.4277 7.65487,7.656 z"
       style="fill:#000000;fill-opacity:1;fill-rule:evenodd;stroke:none"
       id="path1592" />
    <g
       id="g1594"
       transform="matrix(-6.750328e-5,0,0,-6.751239e-5,57.75191,137.1293)"
       clip-path="url(#clipPath1886)">
      <path
         d="M 0,113400 C 0,50770.91 50770.91,0 113400,0 c 62629.1,0 113400,50770.91 113400,113400 0,62629.1 -50770.9,113400 -113400,113400 C 50770.91,226800 0,176029.1 0,113400 Z"
         style="fill:none;stroke:#ffffff;stroke-width:38100;stroke-linecap:butt;stroke-linejoin:miter;stroke-miterlimit:8;stroke-dasharray:none;stroke-opacity:1"
         id="path1596" />
    </g>
    <g
       id="g1598"
       transform="matrix(-6.750328e-5,0,0,6.751239e-5,80.84067,116.8809)"
       clip-path="url(#clipPath1882)">
      <path
         d="M 0,0 342039,157005"
         style="fill:none;stroke:#ffffff;stroke-width:38100;stroke-linecap:butt;stroke-linejoin:miter;stroke-miterlimit:8;stroke-dasharray:none;stroke-opacity:1"
         id="path1600" />
    </g>
    <path
       d="m 95.6066,112.8754 h 123.3752 v 78.8805 l -1.2859,-1.2861 h 9.8462 v 2.5722 h -11.1322 v -78.8805 l 1.286,1.2861 H 95.6066 Z m 130.6496,75.0222 7.7156,3.8583 -7.7156,3.8583 z"
       style="fill:#ffffff;fill-opacity:1;fill-rule:nonzero;stroke:none"
       id="path1602" />
    <path
       d="m 156.9416,396.2416 h 14.697 l -1.2859,1.2861 v -52.3884 l 1.2859,1.2861 H 25.72523 V 128.1872 h 10.28725 v 2.5723 h -9.00131 l 1.28593,-1.2862 v 215.666 l -1.28593,-1.2861 H 172.9246 v 54.9606 h -15.983 z M 34.72655,125.615 l 7.71562,3.8583 -7.71562,3.8584 z"
       style="fill:#ffffff;fill-opacity:1;fill-rule:nonzero;stroke:none"
       id="path1604" />
    <g
       id="g1606"
       transform="matrix(0.24,0,0,0.2400324,53.90051,-503.0423)">
      <text
         xml:space="preserve"
         transform="matrix(1,0,0,-1,0,2404)"
         style="font-variant:normal;font-weight:normal;font-size:62.5px;font-family:Geneva;-inkscape-font-specification:Geneva;writing-mode:lr-tb;fill:#ffffff;fill-opacity:1;fill-rule:nonzero;stroke:none"
         id="text1610"><tspan
           x="0 40.1875 56.25 85.6875"
           y="0"
           id="tspan1608">HISS</tspan></text>
    </g>
    <g
       id="g1612"
       transform="matrix(0.24,0,0,0.2400324,166.462,-477.1223)">
      <text
         xml:space="preserve"
         transform="matrix(1,0,0,-1,0,2404)"
         style="font-style:italic;font-variant:normal;font-size:62.5px;font-family:Geneva;-inkscape-font-specification:Geneva-Italic;writing-mode:lr-tb;fill:#ffffff;fill-opacity:1;fill-rule:nonzero;stroke:none"
         id="text1616"><tspan
           x="0 33.043751 66.087502 80.818748 109.3625 124.09375 156.7 189.30624 233.03751 265.64374"
           y="0"
           id="tspan1614">only 15&amp;16</tspan></text>
    </g>
    <path
       d="m 190.9587,397.5278 c 0,11.8793 9.6288,21.5094 21.5065,21.5094 11.8778,0 21.5066,-9.6301 21.5066,-21.5094 0,-11.8793 -9.6288,-21.5095 -21.5066,-21.5095 -11.8777,0 -21.5065,9.6302 -21.5065,21.5095 z"
       style="fill:#404040;fill-opacity:1;fill-rule:evenodd;stroke:none"
       id="path1618" />
    <g
       id="g1620"
       transform="matrix(6.750328e-5,0,0,-6.751239e-5,190.9587,419.0372)"
       clip-path="url(#clipPath1878)">
      <path
         d="M 0,318600 C 0,142642.1 142642.1,0 318600,0 494557.9,0 637200,142642.1 637200,318600 637200,494557.9 494557.9,637200 318600,637200 142642.1,637200 0,494557.9 0,318600 Z"
         style="fill:none;stroke:#ffffff;stroke-width:38100;stroke-linecap:butt;stroke-linejoin:miter;stroke-miterlimit:8;stroke-dasharray:none;stroke-opacity:1"
         id="path1622" />
    </g>
    <g
       id="g1624"
       transform="matrix(0.24,0,0,0.2400324,205.5533,-185.2823)">
      <text
         xml:space="preserve"
         transform="matrix(1,0,0,-1,0,2404)"
         style="font-variant:normal;font-weight:normal;font-size:62.5px;font-family:Geneva;-inkscape-font-specification:Geneva;writing-mode:lr-tb;fill:#ffffff;fill-opacity:1;fill-rule:nonzero;stroke:none"
         id="text1628"><tspan
           x="0 16.075001"
           y="0"
           id="tspan1626">IN</tspan></text>
    </g>
    <path
       d="m 156.9416,396.2416 27.5874,10e-5 v 2.5722 l -27.5874,-10e-5 z m 26.3015,-2.5721 7.7156,3.8583 -7.7156,3.8583 z"
       style="fill:#ffffff;fill-opacity:1;fill-rule:nonzero;stroke:none"
       id="path1630" />
    <path
       d="m 233.9718,396.2417 h 22.7404 v 34.5763 l -1.2859,-1.2861 h 15.0248 v 2.5722 h -16.3108 v -34.5763 l 1.286,1.2861 h -21.4545 z m 35.1934,30.7179 7.7156,3.8584 -7.7156,3.8583 z"
       style="fill:#ffffff;fill-opacity:1;fill-rule:nonzero;stroke:none"
       id="path1632" />
    <path
       d="m 190.9067,477.4859 c 0,11.8793 9.6288,21.5094 21.5065,21.5094 11.8777,0 21.5065,-9.6301 21.5065,-21.5094 0,-11.8793 -9.6288,-21.5095 -21.5065,-21.5095 -11.8777,0 -21.5065,9.6302 -21.5065,21.5095 z"
       style="fill:#bfbfbf;fill-opacity:1;fill-rule:evenodd;stroke:none"
       id="path1634" />
    <g
       id="g1636"
       transform="matrix(6.750328e-5,0,0,-6.751239e-5,190.9067,498.9953)"
       clip-path="url(#clipPath1874)">
      <path
         d="M 0,318600 C 0,142642.1 142642.1,0 318600,0 494557.9,0 637200,142642.1 637200,318600 637200,494557.9 494557.9,637200 318600,637200 142642.1,637200 0,494557.9 0,318600 Z"
         style="fill:none;stroke:#ffffff;stroke-width:38100;stroke-linecap:butt;stroke-linejoin:miter;stroke-miterlimit:8;stroke-dasharray:none;stroke-opacity:1"
         id="path1638" />
    </g>
    <g
       id="g1640"
       transform="matrix(0.24,0,0,0.2400324,198.6429,-105.1223)">
      <text
         xml:space="preserve"
         transform="matrix(1,0,0,-1,0,2404)"
         style="font-variant:normal;font-weight:normal;font-size:62.5px;font-family:Geneva;-inkscape-font-specification:Geneva;writing-mode:lr-tb;fill:#000000;fill-opacity:1;fill-rule:nonzero;stroke:none"
         id="text1644"><tspan
           x="0 42.418751 83.525002"
           y="0"
           id="tspan1642">OUT</tspan></text>
    </g>
    <path
       d="m 155.8535,478.8879 28.6278,-0.0946 -0.008,-2.5723 -28.6278,0.0946 z m 27.3503,2.4818 7.7029,-3.8838 -7.7284,-3.8328 z"
       style="fill:#ffffff;fill-opacity:1;fill-rule:nonzero;stroke:none"
       id="path1646" />
  </g>
</svg>
