<?xml version="1.0" encoding="UTF-8" standalone="no"?>
<!-- Created with Inkscape (http://www.inkscape.org/) -->

<svg
   version="1.1"
   id="svg9"
   width="1063.0503"
   height="583.48383"
   viewBox="0 0 1063.0503 583.48383"
   xmlns="http://www.w3.org/2000/svg"
   xmlns:svg="http://www.w3.org/2000/svg">
  <defs
     id="defs13">
    <clipPath
       clipPathUnits="userSpaceOnUse"
       id="clipPath27">
      <path
         d="M 9.000031,66.2756 H 831.96003 v 463 H 9.000031 Z"
         id="path25" />
    </clipPath>
    <clipPath
       clipPathUnits="userSpaceOnUse"
       id="clipPath771">
      <path
         d="M -10183414,1415168.4 H 2008585.3 V -5442832 H -10183414 Z"
         id="path773"
         style="stroke-width:14813.1" />
    </clipPath>
    <clipPath
       clipPathUnits="userSpaceOnUse"
       id="clipPath775">
      <path
         d="M -10183414,3094458.7 H 2008585.3 V -3763541.8 H -10183414 Z"
         id="path777"
         style="stroke-width:14813.1" />
    </clipPath>
    <clipPath
       clipPathUnits="userSpaceOnUse"
       id="clipPath779">
      <path
         d="M 1837098.4,9798591.6 V -2393408.1 H -5020902.1 V 9798591.6 Z"
         id="path781"
         style="stroke-width:14813.1" />
    </clipPath>
    <clipPath
       clipPathUnits="userSpaceOnUse"
       id="clipPath783">
      <path
         d="M -2694782.7,6409485.8 H 9497217 V -448514.71 H -2694782.7 Z"
         id="path785"
         style="stroke-width:14813.1" />
    </clipPath>
    <clipPath
       clipPathUnits="userSpaceOnUse"
       id="clipPath787">
      <path
         d="M -2695553,5225138.7 H 9496446.6 V -1632861.8 H -2695553 Z"
         id="path789"
         style="stroke-width:14813.1" />
    </clipPath>
    <clipPath
       clipPathUnits="userSpaceOnUse"
       id="clipPath791">
      <path
         d="M 1064254,-749570.61 H -11127746 V 6108429.9 H 1064254 Z"
         id="path793"
         style="stroke-width:14813.1" />
    </clipPath>
    <clipPath
       clipPathUnits="userSpaceOnUse"
       id="clipPath795">
      <path
         d="M 722214.97,1049491.9 H -11469785 V -5808508.6 H 722214.97 Z"
         id="path797"
         style="stroke-width:14813.1" />
    </clipPath>
    <clipPath
       clipPathUnits="userSpaceOnUse"
       id="clipPath799">
      <path
         d="M 1282997.9,822692 H -10909002 V -6035308.5 H 1282997.9 Z"
         id="path801"
         style="stroke-width:14813.1" />
    </clipPath>
    <clipPath
       clipPathUnits="userSpaceOnUse"
       id="clipPath803">
      <path
         d="M 1284039.1,1286251.4 H -10907961 V -5571749.1 H 1284039.1 Z"
         id="path805"
         style="stroke-width:14813.1" />
    </clipPath>
    <clipPath
       clipPathUnits="userSpaceOnUse"
       id="clipPath807">
      <path
         d="M 1418412.1,1432668.9 H -10773588 V -5425331.6 H 1418412.1 Z"
         id="path809"
         style="stroke-width:14813.1" />
    </clipPath>
    <clipPath
       clipPathUnits="userSpaceOnUse"
       id="clipPath811">
      <path
         d="M 6144935.8,5346274.6 V -6845725.1 H -713064.66 V 5346274.6 Z"
         id="path813"
         style="stroke-width:14813.1" />
    </clipPath>
    <clipPath
       clipPathUnits="userSpaceOnUse"
       id="clipPath815">
      <path
         d="M -363494.03,5388268.8 H 11828506 V -1469731.7 H -363494.03 Z"
         id="path817"
         style="stroke-width:14813.1" />
    </clipPath>
    <clipPath
       clipPathUnits="userSpaceOnUse"
       id="clipPath819">
      <path
         d="M -347312,6574334 H 11844688 V -283666.45 H -347312 Z"
         id="path821"
         style="stroke-width:14813.1" />
    </clipPath>
    <clipPath
       clipPathUnits="userSpaceOnUse"
       id="clipPath823">
      <path
         d="M -11402614,2182156.5 H 789385.28 V -4675843.9 H -11402614 Z"
         id="path825"
         style="stroke-width:14813.1" />
    </clipPath>
    <clipPath
       clipPathUnits="userSpaceOnUse"
       id="clipPath827">
      <path
         d="M 3521156.7,9798591.6 V -2393408.1 H -3336843.8 V 9798591.6 Z"
         id="path829"
         style="stroke-width:14813.1" />
    </clipPath>
    <clipPath
       clipPathUnits="userSpaceOnUse"
       id="clipPath831">
      <path
         d="M -6472203.6,3413058 H 5719796.1 V -3444942.5 H -6472203.6 Z"
         id="path833"
         style="stroke-width:14813.1" />
    </clipPath>
    <clipPath
       clipPathUnits="userSpaceOnUse"
       id="clipPath835">
      <path
         d="M -5876740.6,2345668.7 H 6315259 V -4512331.7 H -5876740.6 Z"
         id="path837"
         style="stroke-width:14813.1" />
    </clipPath>
    <clipPath
       clipPathUnits="userSpaceOnUse"
       id="clipPath839">
      <path
         d="M -3332753.1,2340357.1 H 8859246.5 V -4517643.4 H -3332753.1 Z"
         id="path841"
         style="stroke-width:14813.1" />
    </clipPath>
    <clipPath
       clipPathUnits="userSpaceOnUse"
       id="clipPath843">
      <path
         d="M -2926710.7,3766456.8 H 9265289 V -3091543.6 H -2926710.7 Z"
         id="path845"
         style="stroke-width:14813.1" />
    </clipPath>
  </defs>
  <g
     id="g17"
     transform="matrix(1.3333333,0,0,-1.3333333,-34.300306,681.88093)">
    <g
       id="g19" />
    <path
       d="M 206.5626,320.5581 H 547.6242 V 131.3559 H 206.5626 Z"
       style="fill:#181717;fill-opacity:1;fill-rule:nonzero;stroke:none"
       id="path41" />
    <g
       id="g43"
       transform="matrix(6.750328e-5,0,0,-6.751239e-5,206.5626,320.5581)"
       clip-path="url(#clipPath843)">
      <path
         d="M 0,0 H 5052518 V 2802482 H 0 Z"
         style="fill:none;stroke:#ffffff;stroke-width:38100;stroke-linecap:butt;stroke-linejoin:miter;stroke-miterlimit:8;stroke-dasharray:114300, 38100;stroke-dashoffset:0;stroke-opacity:1"
         id="path45" />
    </g>
    <g
       id="g47"
       transform="matrix(0.24,0,0,0.2400324,212.7351,-274.5623)">
      <text
         xml:space="preserve"
         transform="matrix(1,0,0,-1,0,2404)"
         style="font-variant:normal;font-weight:normal;font-size:62.5px;font-family:Geneva;-inkscape-font-specification:Geneva;writing-mode:lr-tb;fill:#ffffff;fill-opacity:1;fill-rule:nonzero;stroke:none"
         id="text51"><tspan
           x="0 32.59375 65.1875 79.90625 107.125 141.09375 171.875 205.84375 239.8125 271.96875 286.6875"
           y="0"
           id="tspan49">16 channels</tspan></text>
    </g>
    <path
       d="M 233.9718,224.2787 H 357.3763 V 159.2331 H 233.9718 Z"
       style="fill:#404040;fill-opacity:1;fill-rule:nonzero;stroke:none"
       id="path53" />
    <g
       id="g55"
       transform="matrix(6.750328e-5,0,0,-6.751239e-5,233.9718,224.2787)"
       clip-path="url(#clipPath839)">
      <path
         d="M 0,0 H 1828126 V 963461 H 0 Z"
         style="fill:none;stroke:#ffffff;stroke-width:38100;stroke-linecap:butt;stroke-linejoin:miter;stroke-miterlimit:8;stroke-dasharray:none;stroke-opacity:1"
         id="path57" />
    </g>
    <g
       id="g59"
       transform="matrix(0.24,0,0,0.2400324,275.8256,-390.9623)">
      <text
         xml:space="preserve"
         transform="matrix(1,0,0,-1,0,2404)"
         style="font-variant:normal;font-weight:normal;font-size:62.5px;font-family:Geneva;-inkscape-font-specification:Geneva;writing-mode:lr-tb;fill:#ffffff;fill-opacity:1;fill-rule:nonzero;stroke:none"
         id="text63"><tspan
           x="0 29.46875 45.5625 68.09375 99.375 130.65625"
           y="0"
           id="tspan61">FILTER</tspan></text>
    </g>
    <path
       d="m 357.3858,190.4698 41.8935,0.3109 -0.0191,2.5722 -41.8935,-0.3109 z m 40.6267,-2.2708 7.6868,3.9155 -7.744,3.801 z"
       style="fill:#ffffff;fill-opacity:1;fill-rule:nonzero;stroke:none"
       id="path65" />
    <path
       d="M 405.6993,224.6373 H 529.1038 V 159.5918 H 405.6993 Z"
       style="fill:#404040;fill-opacity:1;fill-rule:nonzero;stroke:none"
       id="path67" />
    <g
       id="g69"
       transform="matrix(6.750328e-5,0,0,-6.751239e-5,405.6993,224.6373)"
       clip-path="url(#clipPath835)">
      <path
         d="M 0,0 H 1828126 V 963461 H 0 Z"
         style="fill:none;stroke:#ffffff;stroke-width:38100;stroke-linecap:butt;stroke-linejoin:miter;stroke-miterlimit:8;stroke-dasharray:none;stroke-opacity:1"
         id="path71" />
    </g>
    <g
       id="g73"
       transform="matrix(0.24,0,0,0.2400324,454.5036,-390.7223)">
      <text
         xml:space="preserve"
         transform="matrix(1,0,0,-1,0,2404)"
         style="font-variant:normal;font-weight:normal;font-size:62.5px;font-family:Geneva;-inkscape-font-specification:Geneva;writing-mode:lr-tb;fill:#ffffff;fill-opacity:1;fill-rule:nonzero;stroke:none"
         id="text77"><tspan
           x="0 36.043751 70.400002"
           y="0"
           id="tspan75">VCA</tspan></text>
    </g>
    <path
       d="m 445.895,275.1898 c 0,11.8793 9.6288,21.5095 21.5066,21.5095 11.8777,0 21.5065,-9.6302 21.5065,-21.5095 0,-11.8793 -9.6288,-21.5094 -21.5065,-21.5094 -11.8778,0 -21.5066,9.6301 -21.5066,21.5094 z"
       style="fill:#404040;fill-opacity:1;fill-rule:evenodd;stroke:none"
       id="path79" />
    <g
       id="g81"
       transform="matrix(6.750328e-5,0,0,-6.751239e-5,445.895,296.6993)"
       clip-path="url(#clipPath831)">
      <path
         d="M 0,318600 C 0,142642.1 142642.1,0 318600,0 494557.9,0 637200,142642.1 637200,318600 637200,494557.9 494557.9,637200 318600,637200 142642.1,637200 0,494557.9 0,318600 Z"
         style="fill:none;stroke:#ffffff;stroke-width:38100;stroke-linecap:butt;stroke-linejoin:miter;stroke-miterlimit:8;stroke-dasharray:none;stroke-opacity:1"
         id="path83" />
    </g>
    <g
       id="g85"
       transform="matrix(0.24,0,0,0.2400324,448.9698,-307.4423)">
      <text
         xml:space="preserve"
         transform="matrix(1,0,0,-1,0,2404)"
         style="font-variant:normal;font-weight:normal;font-size:62.5px;font-family:Geneva;-inkscape-font-specification:Geneva;writing-mode:lr-tb;fill:#ffffff;fill-opacity:1;fill-rule:nonzero;stroke:none"
         id="text89"><tspan
           x="0 27.237499 58.474998 95.087502 126.325"
           y="0"
           id="tspan87">LEVEL</tspan></text>
    </g>
    <path
       d="m 468.6875,253.6804 10e-5,-22.6125 h -2.5719 l -1e-4,22.6125 z m 2.5719,-21.3264 -3.8578,-7.7167 -3.8578,7.7167 z"
       style="fill:#ffffff;fill-opacity:1;fill-rule:nonzero;stroke:none"
       id="path91" />
    <path
       d="m 577.4269,303.9973 93.0102,-50.3169 -93.0102,-50.3169 z"
       style="fill:#404040;fill-opacity:1;fill-rule:evenodd;stroke:none"
       id="path93" />
    <g
       id="g95"
       transform="matrix(0,-6.751239e-5,-6.750328e-5,0,670.4371,303.9973)"
       clip-path="url(#clipPath827)">
      <path
         d="M 0,1377863 745298.5,0 1490597,1377863 Z"
         style="fill:none;stroke:#ffffff;stroke-width:38100;stroke-linecap:butt;stroke-linejoin:miter;stroke-miterlimit:8;stroke-dasharray:none;stroke-opacity:1"
         id="path97" />
    </g>
    <g
       id="g99"
       transform="matrix(0.24,0,0,0.2400324,585.6232,-319.9223)">
      <text
         xml:space="preserve"
         transform="matrix(1,0,0,-1,0,2404)"
         style="font-variant:normal;font-weight:normal;font-size:62.5px;font-family:Geneva;-inkscape-font-specification:Geneva;writing-mode:lr-tb;fill:#ffffff;fill-opacity:1;fill-rule:nonzero;stroke:none"
         id="text103"><tspan
           x="0 29.46875 70.5625"
           y="0"
           id="tspan101">SUM</tspan></text>
    </g>
    <g
       id="g105"
       transform="matrix(0.24,0,0,0.2400324,586.0518,-337.9223)">
      <text
         xml:space="preserve"
         transform="matrix(1,0,0,-1,0,2404)"
         style="font-variant:normal;font-weight:normal;font-size:62.5px;font-family:Geneva;-inkscape-font-specification:Geneva;writing-mode:lr-tb;fill:#ffffff;fill-opacity:1;fill-rule:nonzero;stroke:none"
         id="text109"><tspan
           x="0 42.418751"
           y="0"
           id="tspan107">OD</tspan></text>
    </g>
    <g
       id="g111"
       transform="matrix(0.24,0,0,0.2400324,605.7696,-337.9223)">
      <text
         xml:space="preserve"
         transform="matrix(1,0,0,-1,0,2404)"
         style="font-variant:normal;font-weight:normal;font-size:62.5px;font-family:Geneva;-inkscape-font-specification:Geneva;writing-mode:lr-tb;fill:#ffffff;fill-opacity:1;fill-rule:nonzero;stroke:none"
         id="text115"><tspan
           x="0"
           y="0"
           id="tspan113">D</tspan></text>
    </g>
    <path
       d="m 778.7139,192.0887 c 0,11.8794 9.6288,21.5095 21.5065,21.5095 11.8778,0 21.5066,-9.6301 21.5066,-21.5095 0,-11.8793 -9.6288,-21.5094 -21.5066,-21.5094 -11.8777,0 -21.5065,9.6301 -21.5065,21.5094 z"
       style="fill:#bfbfbf;fill-opacity:1;fill-rule:evenodd;stroke:none"
       id="path117" />
    <g
       id="g119"
       transform="matrix(6.750328e-5,0,0,-6.751239e-5,778.7139,213.5982)"
       clip-path="url(#clipPath823)">
      <path
         d="M 0,318600 C 0,142642.1 142642.1,0 318600,0 494557.9,0 637200,142642.1 637200,318600 637200,494557.9 494557.9,637200 318600,637200 142642.1,637200 0,494557.9 0,318600 Z"
         style="fill:none;stroke:#ffffff;stroke-width:38100;stroke-linecap:butt;stroke-linejoin:miter;stroke-miterlimit:8;stroke-dasharray:none;stroke-opacity:1"
         id="path121" />
    </g>
    <g
       id="g123"
       transform="matrix(0.24,0,0,0.2400324,786.4501,-390.7223)">
      <text
         xml:space="preserve"
         transform="matrix(1,0,0,-1,0,2404)"
         style="font-variant:normal;font-weight:normal;font-size:62.5px;font-family:Geneva;-inkscape-font-specification:Geneva;writing-mode:lr-tb;fill:#000000;fill-opacity:1;fill-rule:nonzero;stroke:none"
         id="text127"><tspan
           x="0 42.418751 83.525002"
           y="0"
           id="tspan125">OUT</tspan></text>
    </g>
    <path
       d="M 32.44473,510.1246 H 155.8492 V 445.079 H 32.44473 Z"
       style="fill:#404040;fill-opacity:1;fill-rule:nonzero;stroke:none"
       id="path129" />
    <g
       id="g131"
       transform="matrix(6.750328e-5,0,0,-6.751239e-5,32.44473,510.1246)"
       clip-path="url(#clipPath819)">
      <path
         d="M 0,0 H 1828126 V 963461 H 0 Z"
         style="fill:none;stroke:#ffffff;stroke-width:38100;stroke-linecap:butt;stroke-linejoin:miter;stroke-miterlimit:8;stroke-dasharray:none;stroke-opacity:1"
         id="path133" />
    </g>
    <g
       id="g135"
       transform="matrix(0.24,0,0,0.2400324,80.67461,-105.1223)">
      <text
         xml:space="preserve"
         transform="matrix(1,0,0,-1,0,2404)"
         style="font-variant:normal;font-weight:normal;font-size:62.5px;font-family:Geneva;-inkscape-font-specification:Geneva;writing-mode:lr-tb;fill:#ffffff;fill-opacity:1;fill-rule:nonzero;stroke:none"
         id="text139"><tspan
           x="0 36.043751 69.837502"
           y="0"
           id="tspan137">VCO</tspan></text>
    </g>
    <path
       d="M 33.53707,430.0505 H 156.9416 V 365.005 H 33.53707 Z"
       style="fill:#404040;fill-opacity:1;fill-rule:nonzero;stroke:none"
       id="path141" />
    <g
       id="g143"
       transform="matrix(6.750328e-5,0,0,-6.751239e-5,33.53707,430.0505)"
       clip-path="url(#clipPath815)">
      <path
         d="M 0,0 H 1828126 V 963461 H 0 Z"
         style="fill:none;stroke:#ffffff;stroke-width:38100;stroke-linecap:butt;stroke-linejoin:miter;stroke-miterlimit:8;stroke-dasharray:none;stroke-opacity:1"
         id="path145" />
    </g>
    <g
       id="g147"
       transform="matrix(0.24,0,0,0.2400324,75.95025,-185.2823)">
      <text
         xml:space="preserve"
         transform="matrix(1,0,0,-1,0,2404)"
         style="font-variant:normal;font-weight:normal;font-size:62.5px;font-family:Geneva;-inkscape-font-specification:Geneva;writing-mode:lr-tb;fill:#ffffff;fill-opacity:1;fill-rule:nonzero;stroke:none"
         id="text151"><tspan
           x="0 41.525002 83.925003 100.0125 129.47501"
           y="0"
           id="tspan149">NOISE</tspan></text>
    </g>
    <path
       d="m 468.6875,343.492 10e-5,-40.3622 h -2.5719 l -1e-4,40.3622 z m 2.5719,-39.0761 -3.8578,-7.7167 -3.8578,7.7167 z"
       style="fill:#ffffff;fill-opacity:1;fill-rule:nonzero;stroke:none"
       id="path153" />
    <g
       id="g155"
       transform="matrix(0.24,0,0,0.2400324,427.9275,-209.5223)">
      <text
         xml:space="preserve"
         transform="matrix(1,0,0,-1,0,2404)"
         style="font-style:italic;font-variant:normal;font-size:62.5px;font-family:Geneva;-inkscape-font-specification:Geneva-Italic;writing-mode:lr-tb;fill:#ffffff;fill-opacity:1;fill-rule:nonzero;stroke:none"
         id="text159"><tspan
           x="0 27.237499 58.474998 95.087502 126.325 153.5625 168.3 197.78751 232.02499 274.01251"
           y="0"
           id="tspan157">LEVEL FROM</tspan></text>
    </g>
    <g
       id="g161"
       transform="matrix(0.24,0,0,0.2400324,434.1986,-227.5223)">
      <text
         xml:space="preserve"
         transform="matrix(1,0,0,-1,0,2404)"
         style="font-style:italic;font-variant:normal;font-size:62.5px;font-family:Geneva;-inkscape-font-specification:Geneva-Italic;writing-mode:lr-tb;fill:#ffffff;fill-opacity:1;fill-rule:nonzero;stroke:none"
         id="text165"><tspan
           x="0 33.043751 67.275002 109.25625 149.8625 184.71875 221.7625"
           y="0"
           id="tspan163">PROGRAM</tspan></text>
    </g>
    <g
       id="g167"
       transform="matrix(0.24,0,0,0.2400324,134.3993,-402.9623)">
      <text
         xml:space="preserve"
         transform="matrix(1,0,0,-1,0,2404)"
         style="font-style:italic;font-variant:normal;font-size:62.5px;font-family:Geneva;-inkscape-font-specification:Geneva-Italic;writing-mode:lr-tb;fill:#ffffff;fill-opacity:1;fill-rule:nonzero;stroke:none"
         id="text171"><tspan
           x="0 33.487499 70.537498 105.3375 140.1375 156.1875 187.425"
           y="0"
           id="tspan169">CARRIER</tspan></text>
    </g>
    <path
       d="M 276.8808,481.1349 369.8911,430.818 276.8808,380.5011 Z"
       style="fill:#404040;fill-opacity:1;fill-rule:evenodd;stroke:none"
       id="path173" />
    <g
       id="g175"
       transform="matrix(0,-6.751239e-5,-6.750328e-5,0,369.8911,481.1349)"
       clip-path="url(#clipPath811)">
      <path
         d="M 0,1377863 745298.5,0 1490597,1377863 Z"
         style="fill:none;stroke:#ffffff;stroke-width:38100;stroke-linecap:butt;stroke-linejoin:miter;stroke-miterlimit:8;stroke-dasharray:none;stroke-opacity:1"
         id="path177" />
    </g>
    <g
       id="g179"
       transform="matrix(0.24,0,0,0.2400324,287.5954,-151.9223)">
      <text
         xml:space="preserve"
         transform="matrix(1,0,0,-1,0,2404)"
         style="font-variant:normal;font-weight:normal;font-size:62.5px;font-family:Geneva;-inkscape-font-specification:Geneva;writing-mode:lr-tb;fill:#ffffff;fill-opacity:1;fill-rule:nonzero;stroke:none"
         id="text183"><tspan
           x="0 54.918751 70.962502"
           y="0"
           id="tspan181">MIX</tspan></text>
    </g>
    <path
       d="m 233.9197,478.772 h 22.7665 v -47.954 l -1.2859,1.2861 h 15.0508 v -2.5723 h -16.3368 v 47.9541 l 1.286,-1.2861 h -21.4806 z m 35.2455,-44.0957 7.7156,-3.8583 -7.7156,-3.8584 z"
       style="fill:#ffffff;fill-opacity:1;fill-rule:nonzero;stroke:none"
       id="path185" />
    <path
       d="m 324.6718,481.1349 10e-5,-18.7279 H 322.1 v 18.7279 z m 2.572,-17.4418 -3.8578,-7.7166 -3.8579,7.7166 z"
       style="fill:#ffffff;fill-opacity:1;fill-rule:nonzero;stroke:none"
       id="path187" />
    <g
       id="g189"
       transform="matrix(0.24,0,0,0.2400324,310.8479,-92.64231)">
      <text
         xml:space="preserve"
         transform="matrix(1,0,0,-1,0,2404)"
         style="font-variant:normal;font-weight:normal;font-size:62.5px;font-family:Geneva;-inkscape-font-specification:Geneva;writing-mode:lr-tb;fill:#ffffff;fill-opacity:1;fill-rule:nonzero;stroke:none"
         id="text193"><tspan
           x="0 54.918751 70.962502"
           y="0"
           id="tspan191">MIX</tspan></text>
    </g>
    <path
       d="m 369.8911,429.5318 h 15.4308 l -1.286,1.2862 V 330.7489 l 1.286,1.2861 H 148.1821 V 190.4698 h 79.36 v 2.5722 H 149.468 l 1.2859,-1.2861 v 138.993 l -1.2859,-1.2861 h 237.1398 v 102.6413 h -16.7167 z m -143.6349,-241.6342 7.7156,3.8583 -7.7156,3.8583 z"
       style="fill:#ffffff;fill-opacity:1;fill-rule:nonzero;stroke:none"
       id="path195" />
    <path
       d="m 104.7475,151.159 c 0,6.5388 -5.30002,11.8395 -11.83791,11.8395 h -47.3502 c -6.5379,0 -11.8379,-5.3007 -11.8379,-11.8395 v -47.3566 c 0,-6.53875 5.3,-11.83948 11.8379,-11.83948 h 47.3502 c 6.53789,0 11.83791,5.30073 11.83791,11.83948 z"
       style="fill:#404040;fill-opacity:1;fill-rule:evenodd;stroke:none"
       id="path197" />
    <g
       id="g199"
       transform="matrix(-6.750328e-5,0,0,-6.751239e-5,104.7475,162.9985)"
       clip-path="url(#clipPath807)">
      <path
         d="M 0,175367.8 C 0,78514.83 78514.83,0 175367.8,0 h 701450.4 c 96853,0 175367.8,78514.83 175367.8,175367.8 v 701450.4 c 0,96853 -78514.8,175367.8 -175367.8,175367.8 H 175367.8 C 78514.83,1052186 0,973671.2 0,876818.2 Z"
         style="fill:none;stroke:#ffffff;stroke-width:38100;stroke-linecap:butt;stroke-linejoin:miter;stroke-miterlimit:8;stroke-dasharray:114300, 38100;stroke-dashoffset:0;stroke-opacity:1"
         id="path201" />
    </g>
    <path
       d="m 95.67688,145.4576 c 0,4.2283 -3.44294,7.6559 -7.69001,7.6559 -4.24707,0 -7.69001,-3.4276 -7.69001,-7.6559 0,-4.2282 3.44294,-7.6559 7.69001,-7.6559 4.24707,0 7.69001,3.4277 7.69001,7.6559 z"
       style="fill:#000000;fill-opacity:1;fill-rule:evenodd;stroke:none"
       id="path203" />
    <g
       id="g205"
       transform="matrix(-6.750328e-5,0,0,-6.751239e-5,95.67688,153.1135)"
       clip-path="url(#clipPath803)">
      <path
         d="M 0,113400 C 0,50770.91 51003.94,0 113920.5,0 176837,0 227841,50770.91 227841,113400 c 0,62629.1 -51004,113400 -113920.5,113400 C 51003.94,226800 0,176029.1 0,113400 Z"
         style="fill:none;stroke:#ffffff;stroke-width:38100;stroke-linecap:butt;stroke-linejoin:miter;stroke-miterlimit:8;stroke-dasharray:none;stroke-opacity:1"
         id="path207" />
    </g>
    <path
       d="m 95.6066,114.1615 c 0,4.2283 -3.4272,7.656 -7.65487,7.656 -4.22767,0 -7.65487,-3.4277 -7.65487,-7.656 0,-4.2282 3.4272,-7.6559 7.65487,-7.6559 4.22767,0 7.65487,3.4277 7.65487,7.6559 z"
       style="fill:#000000;fill-opacity:1;fill-rule:evenodd;stroke:none"
       id="path209" />
    <g
       id="g211"
       transform="matrix(-6.750328e-5,0,0,-6.751239e-5,95.6066,121.8175)"
       clip-path="url(#clipPath799)">
      <path
         d="M 0,113400 C 0,50770.91 50770.91,0 113400,0 c 62629.1,0 113400,50770.91 113400,113400 0,62629.1 -50770.9,113400 -113400,113400 C 50770.91,226800 0,176029.1 0,113400 Z"
         style="fill:none;stroke:#ffffff;stroke-width:38100;stroke-linecap:butt;stroke-linejoin:miter;stroke-miterlimit:8;stroke-dasharray:none;stroke-opacity:1"
         id="path213" />
    </g>
    <path
       d="m 57.75191,129.4734 c 0,4.2282 -3.4272,7.6559 -7.65487,7.6559 -4.22767,0 -7.65487,-3.4277 -7.65487,-7.6559 0,-4.2283 3.4272,-7.656 7.65487,-7.656 4.22767,0 7.65487,3.4277 7.65487,7.656 z"
       style="fill:#000000;fill-opacity:1;fill-rule:evenodd;stroke:none"
       id="path215" />
    <g
       id="g217"
       transform="matrix(-6.750328e-5,0,0,-6.751239e-5,57.75191,137.1293)"
       clip-path="url(#clipPath795)">
      <path
         d="M 0,113400 C 0,50770.91 50770.91,0 113400,0 c 62629.1,0 113400,50770.91 113400,113400 0,62629.1 -50770.9,113400 -113400,113400 C 50770.91,226800 0,176029.1 0,113400 Z"
         style="fill:none;stroke:#ffffff;stroke-width:38100;stroke-linecap:butt;stroke-linejoin:miter;stroke-miterlimit:8;stroke-dasharray:none;stroke-opacity:1"
         id="path219" />
    </g>
    <g
       id="g221"
       transform="matrix(-6.750328e-5,0,0,6.751239e-5,80.84067,116.8809)"
       clip-path="url(#clipPath791)">
      <path
         d="M 0,0 342039,157005"
         style="fill:none;stroke:#ffffff;stroke-width:38100;stroke-linecap:butt;stroke-linejoin:miter;stroke-miterlimit:8;stroke-dasharray:none;stroke-opacity:1"
         id="path223" />
    </g>
    <path
       d="m 95.6066,112.8754 h 123.3752 v 78.8805 l -1.2859,-1.2861 h 9.8462 v 2.5722 h -11.1322 v -78.8805 l 1.286,1.2861 H 95.6066 Z m 130.6496,75.0222 7.7156,3.8583 -7.7156,3.8583 z"
       style="fill:#ffffff;fill-opacity:1;fill-rule:nonzero;stroke:none"
       id="path225" />
    <path
       d="m 156.9416,396.2416 h 14.697 l -1.2859,1.2861 v -52.3884 l 1.2859,1.2861 H 25.72523 V 128.1872 h 10.28725 v 2.5723 h -9.00131 l 1.28593,-1.2862 v 215.666 l -1.28593,-1.2861 H 172.9246 v 54.9606 h -15.983 z M 34.72655,125.615 l 7.71562,3.8583 -7.71562,3.8584 z"
       style="fill:#ffffff;fill-opacity:1;fill-rule:nonzero;stroke:none"
       id="path227" />
    <g
       id="g229"
       transform="matrix(0.24,0,0,0.2400324,53.90051,-503.0423)">
      <text
         xml:space="preserve"
         transform="matrix(1,0,0,-1,0,2404)"
         style="font-variant:normal;font-weight:normal;font-size:62.5px;font-family:Geneva;-inkscape-font-specification:Geneva;writing-mode:lr-tb;fill:#ffffff;fill-opacity:1;fill-rule:nonzero;stroke:none"
         id="text233"><tspan
           x="0 40.1875 56.25 85.6875"
           y="0"
           id="tspan231">HISS</tspan></text>
    </g>
    <g
       id="g235"
       transform="matrix(0.24,0,0,0.2400324,166.462,-477.1223)">
      <text
         xml:space="preserve"
         transform="matrix(1,0,0,-1,0,2404)"
         style="font-style:italic;font-variant:normal;font-size:62.5px;font-family:Geneva;-inkscape-font-specification:Geneva-Italic;writing-mode:lr-tb;fill:#ffffff;fill-opacity:1;fill-rule:nonzero;stroke:none"
         id="text239"><tspan
           x="0 33.043751 66.087502 80.818748 109.3625 124.09375 156.7 189.30624 233.03751 265.64374"
           y="0"
           id="tspan237">only 15&amp;16</tspan></text>
    </g>
    <path
       d="m 190.9587,397.5278 c 0,11.8793 9.6288,21.5094 21.5065,21.5094 11.8778,0 21.5066,-9.6301 21.5066,-21.5094 0,-11.8793 -9.6288,-21.5095 -21.5066,-21.5095 -11.8777,0 -21.5065,9.6302 -21.5065,21.5095 z"
       style="fill:#404040;fill-opacity:1;fill-rule:evenodd;stroke:none"
       id="path241" />
    <g
       id="g243"
       transform="matrix(6.750328e-5,0,0,-6.751239e-5,190.9587,419.0372)"
       clip-path="url(#clipPath787)">
      <path
         d="M 0,318600 C 0,142642.1 142642.1,0 318600,0 494557.9,0 637200,142642.1 637200,318600 637200,494557.9 494557.9,637200 318600,637200 142642.1,637200 0,494557.9 0,318600 Z"
         style="fill:none;stroke:#ffffff;stroke-width:38100;stroke-linecap:butt;stroke-linejoin:miter;stroke-miterlimit:8;stroke-dasharray:none;stroke-opacity:1"
         id="path245" />
    </g>
    <g
       id="g247"
       transform="matrix(0.24,0,0,0.2400324,205.5533,-185.2823)">
      <text
         xml:space="preserve"
         transform="matrix(1,0,0,-1,0,2404)"
         style="font-variant:normal;font-weight:normal;font-size:62.5px;font-family:Geneva;-inkscape-font-specification:Geneva;writing-mode:lr-tb;fill:#ffffff;fill-opacity:1;fill-rule:nonzero;stroke:none"
         id="text251"><tspan
           x="0 16.075001"
           y="0"
           id="tspan249">IN</tspan></text>
    </g>
    <path
       d="m 156.9416,396.2416 27.5874,10e-5 v 2.5722 l -27.5874,-10e-5 z m 26.3015,-2.5721 7.7156,3.8583 -7.7156,3.8583 z"
       style="fill:#ffffff;fill-opacity:1;fill-rule:nonzero;stroke:none"
       id="path253" />
    <path
       d="m 233.9718,396.2417 h 22.7404 v 34.5763 l -1.2859,-1.2861 h 15.0248 v 2.5722 h -16.3108 v -34.5763 l 1.286,1.2861 h -21.4545 z m 35.1934,30.7179 7.7156,3.8584 -7.7156,3.8583 z"
       style="fill:#ffffff;fill-opacity:1;fill-rule:nonzero;stroke:none"
       id="path255" />
    <path
       d="m 190.9067,477.4859 c 0,11.8793 9.6288,21.5094 21.5065,21.5094 11.8777,0 21.5065,-9.6301 21.5065,-21.5094 0,-11.8793 -9.6288,-21.5095 -21.5065,-21.5095 -11.8777,0 -21.5065,9.6302 -21.5065,21.5095 z"
       style="fill:#bfbfbf;fill-opacity:1;fill-rule:evenodd;stroke:none"
       id="path257" />
    <g
       id="g259"
       transform="matrix(6.750328e-5,0,0,-6.751239e-5,190.9067,498.9953)"
       clip-path="url(#clipPath783)">
      <path
         d="M 0,318600 C 0,142642.1 142642.1,0 318600,0 494557.9,0 637200,142642.1 637200,318600 637200,494557.9 494557.9,637200 318600,637200 142642.1,637200 0,494557.9 0,318600 Z"
         style="fill:none;stroke:#ffffff;stroke-width:38100;stroke-linecap:butt;stroke-linejoin:miter;stroke-miterlimit:8;stroke-dasharray:none;stroke-opacity:1"
         id="path261" />
    </g>
    <g
       id="g263"
       transform="matrix(0.24,0,0,0.2400324,198.6429,-105.1223)">
      <text
         xml:space="preserve"
         transform="matrix(1,0,0,-1,0,2404)"
         style="font-variant:normal;font-weight:normal;font-size:62.5px;font-family:Geneva;-inkscape-font-specification:Geneva;writing-mode:lr-tb;fill:#000000;fill-opacity:1;fill-rule:nonzero;stroke:none"
         id="text267"><tspan
           x="0 42.418751 83.525002"
           y="0"
           id="tspan265">OUT</tspan></text>
    </g>
    <path
       d="m 155.8535,478.8879 28.6278,-0.0946 -0.008,-2.5723 -28.6278,0.0946 z m 27.3503,2.4818 7.7029,-3.8838 -7.7284,-3.8328 z"
       style="fill:#ffffff;fill-opacity:1;fill-rule:nonzero;stroke:none"
       id="path269" />
    <path
       d="M 577.4269,190.3025 670.4371,139.9856 577.4269,89.66873 Z"
       style="fill:#404040;fill-opacity:1;fill-rule:evenodd;stroke:none"
       id="path271" />
    <g
       id="g273"
       transform="matrix(0,-6.751239e-5,-6.750328e-5,0,670.4371,190.3025)"
       clip-path="url(#clipPath779)">
      <path
         d="M 0,1377863 745298.5,0 1490597,1377863 Z"
         style="fill:none;stroke:#ffffff;stroke-width:38100;stroke-linecap:butt;stroke-linejoin:miter;stroke-miterlimit:8;stroke-dasharray:none;stroke-opacity:1"
         id="path275" />
    </g>
    <g
       id="g277"
       transform="matrix(0.24,0,0,0.2400324,585.6211,-433.4423)">
      <text
         xml:space="preserve"
         transform="matrix(1,0,0,-1,0,2404)"
         style="font-variant:normal;font-weight:normal;font-size:62.5px;font-family:Geneva;-inkscape-font-specification:Geneva;writing-mode:lr-tb;fill:#ffffff;fill-opacity:1;fill-rule:nonzero;stroke:none"
         id="text281"><tspan
           x="0 29.46875 70.5625"
           y="0"
           id="tspan279">SUM</tspan></text>
    </g>
    <g
       id="g283"
       transform="matrix(0.24,0,0,0.2400324,584.7123,-451.4423)">
      <text
         xml:space="preserve"
         transform="matrix(1,0,0,-1,0,2404)"
         style="font-variant:normal;font-weight:normal;font-size:62.5px;font-family:Geneva;-inkscape-font-specification:Geneva;writing-mode:lr-tb;fill:#ffffff;fill-opacity:1;fill-rule:nonzero;stroke:none"
         id="text287"><tspan
           x="0 31.25625 67.887497 99.143753"
           y="0"
           id="tspan285">EVEN</tspan></text>
    </g>
    <path
       d="m 529.1038,190.8284 h 25.4475 v 62.8519 l -1.2859,-1.2861 h 17.7318 v 2.5723 h -19.0178 v -62.852 l 1.286,1.2861 h -24.1616 z m 40.6074,58.9936 7.7156,3.8583 -7.7156,3.8584 z"
       style="fill:#ffffff;fill-opacity:1;fill-rule:nonzero;stroke:none"
       id="path289" />
    <path
       d="m 529.1038,193.4006 h 25.4475 v -53.415 l -1.286,1.2861 h 17.7319 v -2.5723 h -19.0178 v 53.4151 l 1.2859,-1.2861 h -24.1615 z m 40.6074,-49.5567 7.7156,-3.8583 -7.7156,-3.8584 z"
       style="fill:#ffffff;fill-opacity:1;fill-rule:nonzero;stroke:none"
       id="path291" />
    <path
       d="m 696.4139,253.6804 c 0,11.8794 9.6288,21.5095 21.5066,21.5095 11.8777,0 21.5065,-9.6301 21.5065,-21.5095 0,-11.8793 -9.6288,-21.5094 -21.5065,-21.5094 -11.8778,0 -21.5066,9.6301 -21.5066,21.5094 z"
       style="fill:#bfbfbf;fill-opacity:1;fill-rule:evenodd;stroke:none"
       id="path293" />
    <g
       id="g295"
       transform="matrix(6.750328e-5,0,0,-6.751239e-5,696.4139,275.1899)"
       clip-path="url(#clipPath775)">
      <path
         d="M 0,318600 C 0,142642.1 142642.1,0 318600,0 494557.9,0 637200,142642.1 637200,318600 637200,494557.9 494557.9,637200 318600,637200 142642.1,637200 0,494557.9 0,318600 Z"
         style="fill:none;stroke:#ffffff;stroke-width:38100;stroke-linecap:butt;stroke-linejoin:miter;stroke-miterlimit:8;stroke-dasharray:none;stroke-opacity:1"
         id="path297" />
    </g>
    <g
       id="g299"
       transform="matrix(0.24,0,0,0.2400324,703.2929,-329.0423)">
      <text
         xml:space="preserve"
         transform="matrix(1,0,0,-1,0,2404)"
         style="font-variant:normal;font-weight:normal;font-size:62.5px;font-family:Geneva;-inkscape-font-specification:Geneva;writing-mode:lr-tb;fill:#000000;fill-opacity:1;fill-rule:nonzero;stroke:none"
         id="text303"><tspan
           x="0 42.418751 82.150002"
           y="0"
           id="tspan301">ODD</tspan></text>
    </g>
    <path
       d="m 696.4139,140.3075 c 0,11.8794 9.6288,21.5095 21.5066,21.5095 11.8777,0 21.5065,-9.6301 21.5065,-21.5095 0,-11.8793 -9.6288,-21.5094 -21.5065,-21.5094 -11.8778,0 -21.5066,9.6301 -21.5066,21.5094 z"
       style="fill:#bfbfbf;fill-opacity:1;fill-rule:evenodd;stroke:none"
       id="path305" />
    <g
       id="g307"
       transform="matrix(6.750328e-5,0,0,-6.751239e-5,696.4139,161.817)"
       clip-path="url(#clipPath771)">
      <path
         d="M 0,318600 C 0,142642.1 142642.1,0 318600,0 494557.9,0 637200,142642.1 637200,318600 637200,494557.9 494557.9,637200 318600,637200 142642.1,637200 0,494557.9 0,318600 Z"
         style="fill:none;stroke:#ffffff;stroke-width:38100;stroke-linecap:butt;stroke-linejoin:miter;stroke-miterlimit:8;stroke-dasharray:none;stroke-opacity:1"
         id="path309" />
    </g>
    <g
       id="g311"
       transform="matrix(0.24,0,0,0.2400324,701.0426,-442.5623)">
      <text
         xml:space="preserve"
         transform="matrix(1,0,0,-1,0,2404)"
         style="font-variant:normal;font-weight:normal;font-size:62.5px;font-family:Geneva;-inkscape-font-specification:Geneva;writing-mode:lr-tb;fill:#000000;fill-opacity:1;fill-rule:nonzero;stroke:none"
         id="text315"><tspan
           x="0 31.25625 67.887497 99.143753"
           y="0"
           id="tspan313">EVEN</tspan></text>
    </g>
    <path
       d="m 670.4371,252.3943 h 19.5472 v 2.5722 h -19.5472 z m 18.2612,-2.5722 7.7157,3.8583 -7.7157,3.8584 z"
       style="fill:#ffffff;fill-opacity:1;fill-rule:nonzero;stroke:none"
       id="path317" />
    <path
       d="m 670.4531,138.6995 19.5476,0.2423 -0.0319,2.5721 -19.5476,-0.2423 z m 18.2936,-2.3456 7.6673,3.9536 -7.7629,3.7624 z"
       style="fill:#ffffff;fill-opacity:1;fill-rule:nonzero;stroke:none"
       id="path319" />
    <path
       d="m 739.427,254.9665 h 20.9294 v -62.8778 l -1.2859,1.2861 h 13.2137 v -2.5722 h -14.4997 v 62.8778 l 1.286,-1.2861 H 739.427 Z m 31.5712,-59.0194 7.7156,-3.8584 -7.7156,-3.8583 z"
       style="fill:#ffffff;fill-opacity:1;fill-rule:nonzero;stroke:none"
       id="path321" />
    <path
       d="m 739.427,139.0214 h 20.9294 v 53.0673 l -1.286,-1.2861 h 13.2138 v 2.5722 h -14.4997 v -53.0673 l 1.2859,1.2861 H 739.427 Z m 31.5712,49.209 7.7156,3.8583 -7.7156,3.8584 z"
       style="fill:#ffffff;fill-opacity:1;fill-rule:nonzero;stroke:none"
       id="path323" />
  </g>
</svg>
