<?xml version="1.0" encoding="UTF-8" standalone="no"?>
<!-- Created with Inkscape (http://www.inkscape.org/) -->

<svg
   width="166.94125mm"
   height="91.846962mm"
   viewBox="0 0 166.94125 91.846962"
   version="1.1"
   id="svg5"
   xml:space="preserve"
   sodipodi:docname="drawing.svg"
   inkscape:version="1.2 (dc2aeda, 2022-05-15)"
   xmlns:inkscape="http://www.inkscape.org/namespaces/inkscape"
   xmlns:sodipodi="http://sodipodi.sourceforge.net/DTD/sodipodi-0.dtd"
   xmlns="http://www.w3.org/2000/svg"
   xmlns:svg="http://www.w3.org/2000/svg"><sodipodi:namedview
     id="namedview168"
     pagecolor="#ffffff"
     bordercolor="#000000"
     borderopacity="0.25"
     inkscape:showpageshadow="2"
     inkscape:pageopacity="0.0"
     inkscape:pagecheckerboard="0"
     inkscape:deskcolor="#d1d1d1"
     inkscape:document-units="mm"
     showgrid="false"
     inkscape:zoom="0.2102413"
     inkscape:cx="-827.62045"
     inkscape:cy="347.22007"
     inkscape:window-width="1309"
     inkscape:window-height="456"
     inkscape:window-x="0"
     inkscape:window-y="25"
     inkscape:window-maximized="0"
     inkscape:current-layer="svg5" /><defs
     id="defs2"><clipPath
       clipPathUnits="userSpaceOnUse"
       id="clipPath43"><path
         d="M 9.000031,66.2756 H 831.96003 v 463 H 9.000031 Z"
         id="path41" /></clipPath><clipPath
       clipPathUnits="userSpaceOnUse"
       id="clipPath778"><path
         d="M 9.0000282,66.275606 H 832.00004 V 529.2756 H 9.0000282 Z"
         id="path780"
         style="stroke-width:0.999998" /></clipPath><clipPath
       clipPathUnits="userSpaceOnUse"
       id="clipPath782"><path
         d="M 9.0000282,66.275606 H 832.00004 V 529.2756 H 9.0000282 Z"
         id="path784"
         style="stroke-width:0.999998" /></clipPath><clipPath
       clipPathUnits="userSpaceOnUse"
       id="clipPath786"><path
         d="M 9.0000282,66.275606 H 832.00004 V 529.2756 H 9.0000282 Z"
         id="path788"
         style="stroke-width:0.999998" /></clipPath><clipPath
       clipPathUnits="userSpaceOnUse"
       id="clipPath790"><path
         d="M 9.0000282,66.275606 H 832.00004 V 529.2756 H 9.0000282 Z"
         id="path792"
         style="stroke-width:0.999998" /></clipPath><clipPath
       clipPathUnits="userSpaceOnUse"
       id="clipPath794"><path
         d="M 9.0000282,66.275606 H 832.00004 V 529.2756 H 9.0000282 Z"
         id="path796"
         style="stroke-width:0.999998" /></clipPath><clipPath
       clipPathUnits="userSpaceOnUse"
       id="clipPath798"><path
         d="M 9.0000282,66.275606 H 832.00004 V 529.2756 H 9.0000282 Z"
         id="path800"
         style="stroke-width:0.999998" /></clipPath><clipPath
       clipPathUnits="userSpaceOnUse"
       id="clipPath802"><path
         d="M 9.0000282,66.275606 H 832.00004 V 529.2756 H 9.0000282 Z"
         id="path804"
         style="stroke-width:0.999998" /></clipPath><clipPath
       clipPathUnits="userSpaceOnUse"
       id="clipPath806"><path
         d="M 9.0000282,66.275606 H 832.00004 V 529.2756 H 9.0000282 Z"
         id="path808"
         style="stroke-width:0.999998" /></clipPath><clipPath
       clipPathUnits="userSpaceOnUse"
       id="clipPath810"><path
         d="M 9.0000282,66.275606 H 832.00004 V 529.2756 H 9.0000282 Z"
         id="path812"
         style="stroke-width:0.999998" /></clipPath><clipPath
       clipPathUnits="userSpaceOnUse"
       id="clipPath814"><path
         d="M 9.0000282,66.275606 H 832.00004 V 529.2756 H 9.0000282 Z"
         id="path816"
         style="stroke-width:0.999998" /></clipPath><clipPath
       clipPathUnits="userSpaceOnUse"
       id="clipPath818"><path
         d="M -5806745.5,-2904472.6 H 6385254.8 V 3953527.8 H -5806745.5 Z"
         id="path820"
         style="stroke-width:14813.1" /></clipPath><clipPath
       clipPathUnits="userSpaceOnUse"
       id="clipPath822"><path
         d="M -5806745.5,4125762.6 H 6385254.8 V -2732237.8 H -5806745.5 Z"
         id="path824"
         style="stroke-width:14813.1" /></clipPath><clipPath
       clipPathUnits="userSpaceOnUse"
       id="clipPath826"><path
         d="M -5806745.5,5056491 H 6385254.8 V -1801509.3 H -5806745.5 Z"
         id="path828"
         style="stroke-width:14813.1" /></clipPath><clipPath
       clipPathUnits="userSpaceOnUse"
       id="clipPath830"><path
         d="M -6789293.5,3788229 H 5402706.8 V -3069771.3 H -6789293.5 Z"
         id="path832"
         style="stroke-width:14813.1" /></clipPath><clipPath
       clipPathUnits="userSpaceOnUse"
       id="clipPath834"><path
         d="M 9.0000282,66.275606 H 832.00004 V 529.2756 H 9.0000282 Z"
         id="path836"
         style="stroke-width:0.999998" /></clipPath><clipPath
       clipPathUnits="userSpaceOnUse"
       id="clipPath838"><path
         d="M -5213472.1,3669456.7 H 6978528.3 V -3188543.6 H -5213472.1 Z"
         id="path840"
         style="stroke-width:14813.1" /></clipPath><clipPath
       clipPathUnits="userSpaceOnUse"
       id="clipPath842"><path
         d="M 9.0000282,66.275606 H 832.00004 V 529.2756 H 9.0000282 Z"
         id="path844"
         style="stroke-width:0.999998" /></clipPath><clipPath
       clipPathUnits="userSpaceOnUse"
       id="clipPath846"><path
         d="M -4620201.5,3263701.6 H 7571798.8 V -3594298.8 H -4620201.5 Z"
         id="path848"
         style="stroke-width:14813.1" /></clipPath><clipPath
       clipPathUnits="userSpaceOnUse"
       id="clipPath850"><path
         d="M 9.0000282,66.275606 H 832.00004 V 529.2756 H 9.0000282 Z"
         id="path852"
         style="stroke-width:0.999998" /></clipPath><clipPath
       clipPathUnits="userSpaceOnUse"
       id="clipPath854"><path
         d="M -4620203.2,4484991.5 H 7571797.1 V -2373008.9 H -4620203.2 Z"
         id="path856"
         style="stroke-width:14813.1" /></clipPath><clipPath
       clipPathUnits="userSpaceOnUse"
       id="clipPath858"><path
         d="M 9.0000282,66.275606 H 832.00004 V 529.2756 H 9.0000282 Z"
         id="path860"
         style="stroke-width:0.999998" /></clipPath><clipPath
       clipPathUnits="userSpaceOnUse"
       id="clipPath862"><path
         d="M -4620201.5,2332971.8 H 7571798.8 V -4525028.5 H -4620201.5 Z"
         id="path864"
         style="stroke-width:14813.1" /></clipPath><clipPath
       clipPathUnits="userSpaceOnUse"
       id="clipPath866"><path
         d="M 9.0000282,66.275606 H 832.00004 V 529.2756 H 9.0000282 Z"
         id="path868"
         style="stroke-width:0.999998" /></clipPath><clipPath
       clipPathUnits="userSpaceOnUse"
       id="clipPath870"><path
         d="M -4620203.2,5415719.9 H 7571797.1 V -1442280.4 H -4620203.2 Z"
         id="path872"
         style="stroke-width:14813.1" /></clipPath><clipPath
       clipPathUnits="userSpaceOnUse"
       id="clipPath874"><path
         d="M 9.0000282,66.275606 H 832.00004 V 529.2756 H 9.0000282 Z"
         id="path876"
         style="stroke-width:0.999998" /></clipPath><clipPath
       clipPathUnits="userSpaceOnUse"
       id="clipPath878"><path
         d="M 9.0000282,66.275606 H 832.00004 V 529.2756 H 9.0000282 Z"
         id="path880"
         style="stroke-width:0.999998" /></clipPath></defs><g
     id="layer1"
     transform="translate(-283.76419,-56.773508)" /><path
     d="m 320.8789,431.9038 h 80.0955 v -48.5047 h -80.0955 z"
     style="fill:#404040;fill-opacity:1;fill-rule:nonzero;stroke:none"
     id="path57"
     transform="matrix(0.35277776,0,0,-0.35277778,-63.764189,153.2265)"
     clip-path="url(#clipPath874)" /><g
     id="g59"
     transform="matrix(2.3813656e-5,0,0,2.3816871e-5,49.434751,0.86043832)"
     clip-path="url(#clipPath870)"><path
       d="M 0,0 H 1186543 V 718457 H 0 Z"
       style="fill:none;stroke:#ffffff;stroke-width:38100;stroke-linecap:butt;stroke-linejoin:miter;stroke-miterlimit:8;stroke-dasharray:none;stroke-opacity:1"
       id="path61" /></g><g
     id="g63"
     transform="matrix(0.08466666,0,0,-0.0846781,53.404731,211.73198)"><text
       xml:space="preserve"
       transform="matrix(1,0,0,-1,0,2404)"
       style="font-variant:normal;font-weight:normal;font-size:62.5px;font-family:Calibri;-inkscape-font-specification:Calibri;writing-mode:lr-tb;fill:#ffffff;fill-opacity:1;fill-rule:nonzero;stroke:none"
       id="text67"><tspan
         x="0"
         y="0"
         id="tspan65">L</tspan></text></g><g
     id="g69"
     transform="matrix(0.08466666,0,0,-0.0846781,55.710771,211.73198)"><text
       xml:space="preserve"
       transform="matrix(1,0,0,-1,0,2404)"
       style="font-variant:normal;font-weight:normal;font-size:62.5px;font-family:Calibri;-inkscape-font-specification:Calibri;writing-mode:lr-tb;fill:#ffffff;fill-opacity:1;fill-rule:nonzero;stroke:none"
       id="text73"><tspan
         x="0 33.6875"
         y="0"
         id="tspan71">ow</tspan></text></g><g
     id="g75"
     transform="matrix(0.08466666,0,0,-0.0846781,62.341621,211.73198)"><text
       xml:space="preserve"
       transform="matrix(1,0,0,-1,0,2404)"
       style="font-variant:normal;font-weight:normal;font-size:62.5px;font-family:Calibri;-inkscape-font-specification:Calibri;writing-mode:lr-tb;fill:#ffffff;fill-opacity:1;fill-rule:nonzero;stroke:none"
       id="text79"><tspan
         x="0"
         y="0"
         id="tspan77">-</tspan></text></g><g
     id="g81"
     transform="matrix(0.08466666,0,0,-0.0846781,64.005001,211.73198)"><text
       xml:space="preserve"
       transform="matrix(1,0,0,-1,0,2404)"
       style="font-variant:normal;font-weight:normal;font-size:62.5px;font-family:Calibri;-inkscape-font-specification:Calibri;writing-mode:lr-tb;fill:#ffffff;fill-opacity:1;fill-rule:nonzero;stroke:none"
       id="text85"><tspan
         x="0 33.9375 64.75 89.75"
         y="0"
         id="tspan83">pass</tspan></text></g><g
     id="g87"
     transform="matrix(0.08466666,0,0,-0.0846781,54.811051,218.08198)"><text
       xml:space="preserve"
       transform="matrix(1,0,0,-1,0,2404)"
       style="font-variant:normal;font-weight:normal;font-size:62.5px;font-family:Calibri;-inkscape-font-specification:Calibri;writing-mode:lr-tb;fill:#ffffff;fill-opacity:1;fill-rule:nonzero;stroke:none"
       id="text91"><tspan
         x="0 27.237499 61.162498 91.962502 125.8875 159.8125 191.9875"
         y="0"
         id="tspan89">channel</tspan></text></g><path
     d="m 320.8788,223.7801 h 80.0956 v -48.5047 h -80.0956 z"
     style="fill:#404040;fill-opacity:1;fill-rule:nonzero;stroke:none"
     id="path93"
     transform="matrix(0.35277776,0,0,-0.35277778,-63.764189,153.2265)"
     clip-path="url(#clipPath866)" /><g
     id="g95"
     transform="matrix(2.3813656e-5,0,0,2.3816871e-5,49.434711,74.281852)"
     clip-path="url(#clipPath862)"><path
       d="M 0,0 H 1186543 V 718457 H 0 Z"
       style="fill:none;stroke:#ffffff;stroke-width:38100;stroke-linecap:butt;stroke-linejoin:miter;stroke-miterlimit:8;stroke-dasharray:none;stroke-opacity:1"
       id="path97" /></g><g
     id="g99"
     transform="matrix(0.08466666,0,0,-0.0846781,52.826281,285.13798)"><text
       xml:space="preserve"
       transform="matrix(1,0,0,-1,0,2404)"
       style="font-variant:normal;font-weight:normal;font-size:62.5px;font-family:Calibri;-inkscape-font-specification:Calibri;writing-mode:lr-tb;fill:#ffffff;fill-opacity:1;fill-rule:nonzero;stroke:none"
       id="text103"><tspan
         x="0 40.1875 54.9375 85.3125"
         y="0"
         id="tspan101">High</tspan></text></g><g
     id="g105"
     transform="matrix(0.08466666,0,0,-0.0846781,62.920001,285.13798)"><text
       xml:space="preserve"
       transform="matrix(1,0,0,-1,0,2404)"
       style="font-variant:normal;font-weight:normal;font-size:62.5px;font-family:Calibri;-inkscape-font-specification:Calibri;writing-mode:lr-tb;fill:#ffffff;fill-opacity:1;fill-rule:nonzero;stroke:none"
       id="text109"><tspan
         x="0"
         y="0"
         id="tspan107">-</tspan></text></g><g
     id="g111"
     transform="matrix(0.08466666,0,0,-0.0846781,64.583411,285.13798)"><text
       xml:space="preserve"
       transform="matrix(1,0,0,-1,0,2404)"
       style="font-variant:normal;font-weight:normal;font-size:62.5px;font-family:Calibri;-inkscape-font-specification:Calibri;writing-mode:lr-tb;fill:#ffffff;fill-opacity:1;fill-rule:nonzero;stroke:none"
       id="text115"><tspan
         x="0 33.9375 64.75 89.75"
         y="0"
         id="tspan113">pass</tspan></text></g><g
     id="g117"
     transform="matrix(0.08466666,0,0,-0.0846781,54.810271,291.48798)"><text
       xml:space="preserve"
       transform="matrix(1,0,0,-1,0,2404)"
       style="font-variant:normal;font-weight:normal;font-size:62.5px;font-family:Calibri;-inkscape-font-specification:Calibri;writing-mode:lr-tb;fill:#ffffff;fill-opacity:1;fill-rule:nonzero;stroke:none"
       id="text121"><tspan
         x="0 27.237499 61.162498 91.962502 125.8875 159.8125 191.9875"
         y="0"
         id="tspan119">channel</tspan></text></g><path
     d="m 320.8789,369.0681 h 80.0955 v -48.5048 h -80.0955 z"
     style="fill:#404040;fill-opacity:1;fill-rule:nonzero;stroke:none"
     id="path123"
     transform="matrix(0.35277776,0,0,-0.35277778,-63.764189,153.2265)"
     clip-path="url(#clipPath858)" /><g
     id="g125"
     transform="matrix(2.3813656e-5,0,0,2.3816871e-5,49.434751,23.027477)"
     clip-path="url(#clipPath854)"><path
       d="M 0,0 H 1186543 V 718457 H 0 Z"
       style="fill:none;stroke:#ffffff;stroke-width:38100;stroke-linecap:butt;stroke-linejoin:miter;stroke-miterlimit:8;stroke-dasharray:none;stroke-opacity:1"
       id="path127" /></g><g
     id="g129"
     transform="matrix(0.08466666,0,0,-0.0846781,52.221451,233.91465)"><text
       xml:space="preserve"
       transform="matrix(1,0,0,-1,0,2404)"
       style="font-variant:normal;font-weight:normal;font-size:62.5px;font-family:Calibri;-inkscape-font-specification:Calibri;writing-mode:lr-tb;fill:#ffffff;fill-opacity:1;fill-rule:nonzero;stroke:none"
       id="text133"><tspan
         x="0 34.825001 65.650002 99.599998"
         y="0"
         id="tspan131">Band</tspan></text></g><g
     id="g135"
     transform="matrix(0.08466666,0,0,-0.0846781,63.524901,233.91465)"><text
       xml:space="preserve"
       transform="matrix(1,0,0,-1,0,2404)"
       style="font-variant:normal;font-weight:normal;font-size:62.5px;font-family:Calibri;-inkscape-font-specification:Calibri;writing-mode:lr-tb;fill:#ffffff;fill-opacity:1;fill-rule:nonzero;stroke:none"
       id="text139"><tspan
         x="0"
         y="0"
         id="tspan137">-</tspan></text></g><g
     id="g141"
     transform="matrix(0.08466666,0,0,-0.0846781,65.188291,233.91465)"><text
       xml:space="preserve"
       transform="matrix(1,0,0,-1,0,2404)"
       style="font-variant:normal;font-weight:normal;font-size:62.5px;font-family:Calibri;-inkscape-font-specification:Calibri;writing-mode:lr-tb;fill:#ffffff;fill-opacity:1;fill-rule:nonzero;stroke:none"
       id="text145"><tspan
         x="0 33.9375 64.75 89.75"
         y="0"
         id="tspan143">pass</tspan></text></g><g
     id="g147"
     transform="matrix(0.08466666,0,0,-0.0846781,52.806671,240.26465)"><text
       xml:space="preserve"
       transform="matrix(1,0,0,-1,0,2404)"
       style="font-variant:normal;font-weight:normal;font-size:62.5px;font-family:Calibri;-inkscape-font-specification:Calibri;writing-mode:lr-tb;fill:#ffffff;fill-opacity:1;fill-rule:nonzero;stroke:none"
       id="text151"><tspan
         x="0"
         y="0"
         id="tspan149">c</tspan></text></g><g
     id="g153"
     transform="matrix(0.08466666,0,0,-0.0846781,55.112711,240.26465)"><text
       xml:space="preserve"
       transform="matrix(1,0,0,-1,0,2404)"
       style="font-variant:normal;font-weight:normal;font-size:62.5px;font-family:Calibri;-inkscape-font-specification:Calibri;writing-mode:lr-tb;fill:#ffffff;fill-opacity:1;fill-rule:nonzero;stroke:none"
       id="text157"><tspan
         x="0 33.9375 64.75 98.6875 132.625 164.75 179.5 194.25"
         y="0"
         id="tspan155">hannel 1</tspan></text></g><path
     d="m 320.8788,286.6159 h 80.0956 v -48.5048 h -80.0956 z"
     style="fill:#404040;fill-opacity:1;fill-rule:nonzero;stroke:none"
     id="path159"
     transform="matrix(0.35277776,0,0,-0.35277778,-63.764189,153.2265)"
     clip-path="url(#clipPath850)" /><g
     id="g161"
     transform="matrix(2.3813656e-5,0,0,2.3816871e-5,49.434711,52.114782)"
     clip-path="url(#clipPath846)"><path
       d="M 0,0 H 1186543 V 718457 H 0 Z"
       style="fill:none;stroke:#ffffff;stroke-width:38100;stroke-linecap:butt;stroke-linejoin:miter;stroke-miterlimit:8;stroke-dasharray:none;stroke-opacity:1"
       id="path163" /></g><g
     id="g165"
     transform="matrix(0.08466666,0,0,-0.0846781,52.826281,262.95531)"><text
       xml:space="preserve"
       transform="matrix(1,0,0,-1,0,2404)"
       style="font-variant:normal;font-weight:normal;font-size:62.5px;font-family:Calibri;-inkscape-font-specification:Calibri;writing-mode:lr-tb;fill:#ffffff;fill-opacity:1;fill-rule:nonzero;stroke:none"
       id="text169"><tspan
         x="0 40.1875 54.9375 85.3125"
         y="0"
         id="tspan167">High</tspan></text></g><g
     id="g171"
     transform="matrix(0.08466666,0,0,-0.0846781,62.920001,262.95531)"><text
       xml:space="preserve"
       transform="matrix(1,0,0,-1,0,2404)"
       style="font-variant:normal;font-weight:normal;font-size:62.5px;font-family:Calibri;-inkscape-font-specification:Calibri;writing-mode:lr-tb;fill:#ffffff;fill-opacity:1;fill-rule:nonzero;stroke:none"
       id="text175"><tspan
         x="0"
         y="0"
         id="tspan173">-</tspan></text></g><g
     id="g177"
     transform="matrix(0.08466666,0,0,-0.0846781,64.583411,262.95531)"><text
       xml:space="preserve"
       transform="matrix(1,0,0,-1,0,2404)"
       style="font-variant:normal;font-weight:normal;font-size:62.5px;font-family:Calibri;-inkscape-font-specification:Calibri;writing-mode:lr-tb;fill:#ffffff;fill-opacity:1;fill-rule:nonzero;stroke:none"
       id="text181"><tspan
         x="0 33.9375 64.75 89.75"
         y="0"
         id="tspan179">pass</tspan></text></g><g
     id="g183"
     transform="matrix(0.08466666,0,0,-0.0846781,52.750681,269.30531)"><text
       xml:space="preserve"
       transform="matrix(1,0,0,-1,0,2404)"
       style="font-variant:normal;font-weight:normal;font-size:62.5px;font-family:Calibri;-inkscape-font-specification:Calibri;writing-mode:lr-tb;fill:#ffffff;fill-opacity:1;fill-rule:nonzero;stroke:none"
       id="text187"><tspan
         x="0"
         y="0"
         id="tspan185">c</tspan></text></g><g
     id="g189"
     transform="matrix(0.08466666,0,0,-0.0846781,55.056761,269.30531)"><text
       xml:space="preserve"
       transform="matrix(1,0,0,-1,0,2404)"
       style="font-variant:normal;font-weight:normal;font-size:62.5px;font-family:Calibri;-inkscape-font-specification:Calibri;writing-mode:lr-tb;fill:#ffffff;fill-opacity:1;fill-rule:nonzero;stroke:none"
       id="text193"><tspan
         x="0 33.9375 64.75 98.6875 132.625 164.75 179.5 194.25"
         y="0"
         id="tspan191">hannel n</tspan></text></g><path
     d="M 360.9265,314.0094 V 293.5473"
     style="fill:#404040;fill-opacity:1;fill-rule:evenodd;stroke:none"
     id="path195"
     transform="matrix(0.35277776,0,0,-0.35277778,-63.764189,153.2265)"
     clip-path="url(#clipPath842)" /><g
     id="g197"
     transform="matrix(2.3813656e-5,0,0,2.3816871e-5,63.562651,42.450963)"
     clip-path="url(#clipPath838)"><path
       d="M 0,0 1,303087"
       style="fill:none;stroke:#ffffff;stroke-width:38100;stroke-linecap:butt;stroke-linejoin:miter;stroke-miterlimit:8;stroke-dasharray:38100, 38100;stroke-dashoffset:0;stroke-opacity:1"
       id="path199" /></g><path
     d="m 467.2996,322.028 h 80.0955 v -48.5047 h -80.0955 z"
     style="fill:#404040;fill-opacity:1;fill-rule:nonzero;stroke:none"
     id="path201"
     transform="matrix(0.35277776,0,0,-0.35277778,-63.764189,153.2265)"
     clip-path="url(#clipPath834)" /><g
     id="g203"
     transform="matrix(2.3813656e-5,0,0,2.3816871e-5,101.08872,39.622179)"
     clip-path="url(#clipPath830)"><path
       d="M 0,0 H 1186543 V 718457 H 0 Z"
       style="fill:none;stroke:#ffffff;stroke-width:38100;stroke-linecap:butt;stroke-linejoin:miter;stroke-miterlimit:8;stroke-dasharray:none;stroke-opacity:1"
       id="path205" /></g><g
     id="g207"
     transform="matrix(0.08466666,0,0,-0.0846781,108.86179,253.72665)"><text
       xml:space="preserve"
       transform="matrix(1,0,0,-1,0,2404)"
       style="font-variant:normal;font-weight:normal;font-size:62.5px;font-family:Calibri;-inkscape-font-specification:Calibri;writing-mode:lr-tb;fill:#ffffff;fill-opacity:1;fill-rule:nonzero;stroke:none"
       id="text211"><tspan
         x="0 54.918751 69.650002 95.631248 127.8"
         y="0"
         id="tspan209">Mixer</tspan></text></g><g
     id="g213"
     transform="matrix(2.3813656e-5,0,0,2.3816871e-5,77.690661,9.4161463)"
     clip-path="url(#clipPath826)"><path
       d="M 0,0 H 491273.5 V 1627491 H 982547"
       style="fill:none;stroke:#ffffff;stroke-width:38100;stroke-linecap:butt;stroke-linejoin:miter;stroke-miterlimit:8;stroke-dasharray:none;stroke-opacity:1"
       id="path215" /></g><g
     id="g217"
     transform="matrix(2.3813656e-5,0,0,2.3816871e-5,77.690661,31.583185)"
     clip-path="url(#clipPath822)"><path
       d="M 0,0 H 491273.5 V 696762 H 982547"
       style="fill:none;stroke:#ffffff;stroke-width:38100;stroke-linecap:butt;stroke-linejoin:miter;stroke-miterlimit:8;stroke-dasharray:none;stroke-opacity:1"
       id="path219" /></g><g
     id="g221"
     transform="matrix(2.3813656e-5,0,0,-2.3816871e-5,77.690661,60.670492)"
     clip-path="url(#clipPath818)"><path
       d="M 0,0 H 491274 V 524528 H 982547.9"
       style="fill:none;stroke:#ffffff;stroke-width:38100;stroke-linecap:butt;stroke-linejoin:miter;stroke-miterlimit:8;stroke-dasharray:none;stroke-opacity:1"
       id="path223" /></g><path
     d="m 400.9744,198.2416 h 34.4485 v 99.534 l -1.2859,-1.2861 h 26.7329 v 2.5722 H 432.851 v -99.534 l 1.286,1.2861 h -33.1626 z m 58.6096,95.6757 7.7156,3.8583 -7.7156,3.8584 z"
     style="fill:#ffffff;fill-opacity:1;fill-rule:nonzero;stroke:none"
     id="path225"
     transform="matrix(0.35277776,0,0,-0.35277778,-63.764189,153.2265)"
     clip-path="url(#clipPath814)" /><g
     id="g227"
     transform="matrix(0.08466666,0,0,-0.0846781,150.94436,253.72665)"><text
       xml:space="preserve"
       transform="matrix(1,0,0,-1,0,2404)"
       style="font-variant:normal;font-weight:normal;font-size:62.5px;font-family:Calibri;-inkscape-font-specification:Calibri;writing-mode:lr-tb;fill:#ffffff;fill-opacity:1;fill-rule:nonzero;stroke:none"
       id="text231"><tspan
         x="0 42.418751 76.337502 97.756248 131.675 165.59375"
         y="0"
         id="tspan229">Output</tspan></text></g><path
     d="m 547.3951,299.0617 h 47.7635 v -2.5723 l -47.7635,1e-4 z m 46.4776,2.5722 7.7156,-3.8584 -7.7156,-3.8583 z"
     style="fill:#ffffff;fill-opacity:1;fill-rule:nonzero;stroke:none"
     id="path233"
     transform="matrix(0.35277776,0,0,-0.35277778,-63.764189,153.2265)"
     clip-path="url(#clipPath810)" /><g
     id="g235"
     transform="matrix(0.08466666,0,0,-0.0846781,6.9665505,207.41398)"><text
       xml:space="preserve"
       transform="matrix(1,0,0,-1,0,2404)"
       style="font-variant:normal;font-weight:normal;font-size:62.5px;font-family:Calibri;-inkscape-font-specification:Calibri;writing-mode:lr-tb;fill:#ffffff;fill-opacity:1;fill-rule:nonzero;stroke:none"
       id="text239"><tspan
         x="0 33.043751 54.337502 88.256248 118.6125 139.59375 170.3875"
         y="0"
         id="tspan237">Program</tspan></text></g><g
     id="g241"
     transform="matrix(0.08466666,0,0,-0.0846781,10.514121,213.76398)"><text
       xml:space="preserve"
       transform="matrix(1,0,0,-1,0,2404)"
       style="font-variant:normal;font-weight:normal;font-size:62.5px;font-family:Calibri;-inkscape-font-specification:Calibri;writing-mode:lr-tb;fill:#ffffff;fill-opacity:1;fill-rule:nonzero;stroke:none"
       id="text245"><tspan
         x="0 14.7375 48.662498 82.587502 116.5125"
         y="0"
         id="tspan243">input</tspan></text></g><g
     id="g247"
     transform="matrix(0.08466666,0,0,-0.0846781,-0.29713946,250.33998)"><text
       xml:space="preserve"
       transform="matrix(1,0,0,-1,0,2404)"
       style="font-variant:normal;font-weight:normal;font-size:62.5px;font-family:Calibri;-inkscape-font-specification:Calibri;writing-mode:lr-tb;fill:#ffffff;fill-opacity:1;fill-rule:nonzero;stroke:none"
       id="text251"><tspan
         x="0 34.381248 65.199997 87.518753 109.8375 124.59375 156.72501"
         y="0"
         id="tspan249">Carrier</tspan></text></g><g
     id="g253"
     transform="matrix(0.08466666,0,0,-0.0846781,1.4418405,256.68998)"><text
       xml:space="preserve"
       transform="matrix(1,0,0,-1,0,2404)"
       style="font-variant:normal;font-weight:normal;font-size:62.5px;font-family:Calibri;-inkscape-font-specification:Calibri;writing-mode:lr-tb;fill:#ffffff;fill-opacity:1;fill-rule:nonzero;stroke:none"
       id="text257"><tspan
         x="0 14.7375 48.662498 82.587502 116.5125"
         y="0"
         id="tspan255">input</tspan></text></g><path
     d="m 234.2757,296.8443 h 44.5875 v 98.681 l -1.2859,-1.2862 h 36.8718 v 2.5723 h -38.1577 v -98.6809 l 1.2859,1.2861 h -43.3016 z m 78.8875,94.8226 7.7156,3.8584 -7.7156,3.8583 z"
     style="fill:#ffffff;fill-opacity:1;fill-rule:nonzero;stroke:none"
     id="path259"
     transform="matrix(0.35277776,0,0,-0.35277778,-63.764189,153.2265)"
     clip-path="url(#clipPath806)" /><path
     d="m 234.2757,296.8443 h 44.5875 v 36.0416 l -1.286,-1.2861 h 36.8719 v 2.5722 h -38.1578 v -36.0415 l 1.2859,1.2861 h -43.3015 z m 78.8875,32.1833 7.7156,3.8583 -7.7156,3.8583 z"
     style="fill:#ffffff;fill-opacity:1;fill-rule:nonzero;stroke:none"
     id="path261"
     transform="matrix(0.35277776,0,0,-0.35277778,-63.764189,153.2265)"
     clip-path="url(#clipPath802)" /><path
     d="m 234.2757,299.4166 h 44.5874 v -48.6811 l -1.2859,1.2861 h 36.8719 v -2.5722 h -38.1578 v 48.6811 l 1.2859,-1.2862 h -43.3015 z m 78.8874,-44.8227 7.7156,-3.8584 -7.7156,-3.8583 z"
     style="fill:#ffffff;fill-opacity:1;fill-rule:nonzero;stroke:none"
     id="path263"
     transform="matrix(0.35277776,0,0,-0.35277778,-63.764189,153.2265)"
     clip-path="url(#clipPath798)" /><path
     d="m 234.2757,299.4166 h 44.5874 V 187.0391 l -1.2859,1.2861 h 36.8718 v -2.5722 h -38.1578 v 112.3775 l 1.286,-1.2862 h -43.3015 z m 78.8873,-108.5192 7.7157,-3.8583 -7.7157,-3.8584 z"
     style="fill:#ffffff;fill-opacity:1;fill-rule:nonzero;stroke:none"
     id="path265"
     transform="matrix(0.35277776,0,0,-0.35277778,-63.764189,153.2265)"
     clip-path="url(#clipPath794)" /><path
     d="m 259.9945,418.9202 h 31.2994 v 0.8575 l -0.8572,-0.8574 h 28.7447 v 1.7148 h -29.602 v -0.8574 l 0.8573,0.8574 h -30.4422 z m 54.4751,-2.884 6.4132,3.7415 -6.4132,3.7416 c -0.409,0.2386 -0.9339,0.1004 -1.1725,-0.3086 -0.2386,-0.4091 -0.1004,-0.9341 0.3086,-1.1727 l 5.1437,-3.0009 v 1.4812 l -5.1437,-3.0009 c -0.409,-0.2386 -0.5472,-0.7636 -0.3086,-1.1726 0.2386,-0.4091 0.7635,-0.5472 1.1725,-0.3086 z"
     style="fill:#ffffff;fill-opacity:1;fill-rule:nonzero;stroke:none"
     id="path267"
     transform="matrix(0.35277776,0,0,-0.35277778,-63.764189,153.2265)"
     clip-path="url(#clipPath790)" /><path
     d="m 259.9945,420.6351 h 31.2995 v -63.4967 l -0.8573,0.8574 h 28.7447 v -1.7148 h -29.602 v 63.4967 l 0.8573,-0.8575 h -30.4422 z m 54.4751,-59.7552 6.4132,-3.7415 -6.4132,-3.7416 c -0.409,-0.2386 -0.9339,-0.1004 -1.1725,0.3086 -0.2386,0.409 -0.1004,0.9341 0.3086,1.1727 l 5.1437,3.0009 v -1.4812 l -5.1437,3.0009 c -0.409,0.2386 -0.5472,0.7636 -0.3086,1.1726 0.2386,0.409 0.7635,0.5472 1.1725,0.3086 z"
     style="fill:#ffffff;fill-opacity:1;fill-rule:nonzero;stroke:none"
     id="path269"
     transform="matrix(0.35277776,0,0,-0.35277778,-63.764189,153.2265)"
     clip-path="url(#clipPath786)" /><path
     d="m 259.9945,420.6351 h 31.2994 V 274.988 l -0.8573,0.8574 h 28.7447 v -1.7148 h -29.602 v 145.6471 l 0.8573,-0.8575 h -30.4421 z m 54.475,-141.9056 6.4132,-3.7415 -6.4132,-3.7415 c -0.409,-0.2386 -0.9339,-0.1005 -1.1725,0.3086 -0.2385,0.409 -0.1004,0.934 0.3086,1.1726 l 5.1437,3.0009 v -1.4812 l -5.1437,3.0009 c -0.409,0.2386 -0.5471,0.7636 -0.3086,1.1727 0.2386,0.409 0.7635,0.5471 1.1725,0.3085 z"
     style="fill:#ffffff;fill-opacity:1;fill-rule:nonzero;stroke:none"
     id="path271"
     transform="matrix(0.35277776,0,0,-0.35277778,-63.764189,153.2265)"
     clip-path="url(#clipPath782)" /><path
     d="m 259.9945,420.6351 h 31.2994 V 211.2915 l -0.8573,0.8575 h 28.7446 v -1.7149 h -29.6019 v 209.3436 l 0.8573,-0.8575 h -30.4421 z m 54.475,-205.602 6.4131,-3.7416 -6.4131,-3.7415 c -0.409,-0.2386 -0.934,-0.1004 -1.1725,0.3086 -0.2386,0.409 -0.1005,0.934 0.3085,1.1726 l 5.1438,3.001 v -1.4813 l -5.1438,3.001 c -0.409,0.2386 -0.5471,0.7636 -0.3085,1.1726 0.2385,0.409 0.7635,0.5472 1.1725,0.3086 z"
     style="fill:#ffffff;fill-opacity:1;fill-rule:nonzero;stroke:none"
     id="path273"
     transform="matrix(0.35277776,0,0,-0.35277778,-63.764189,153.2265)"
     clip-path="url(#clipPath778)" /></svg>
