<?xml version="1.0" encoding="UTF-8" standalone="no"?>
<!-- Created with Inkscape (http://www.inkscape.org/) -->

<svg
   width="152.81743mm"
   height="75.575264mm"
   viewBox="0 0 152.81743 75.575264"
   version="1.1"
   id="svg5"
   xml:space="preserve"
   sodipodi:docname="drawing.svg"
   inkscape:version="1.2 (dc2aeda, 2022-05-15)"
   xmlns:inkscape="http://www.inkscape.org/namespaces/inkscape"
   xmlns:sodipodi="http://sodipodi.sourceforge.net/DTD/sodipodi-0.dtd"
   xmlns="http://www.w3.org/2000/svg"
   xmlns:svg="http://www.w3.org/2000/svg"><sodipodi:namedview
     id="namedview101"
     pagecolor="#ffffff"
     bordercolor="#000000"
     borderopacity="0.25"
     inkscape:showpageshadow="2"
     inkscape:pageopacity="0.0"
     inkscape:pagecheckerboard="0"
     inkscape:deskcolor="#d1d1d1"
     inkscape:document-units="mm"
     showgrid="false"
     inkscape:zoom="0.2102413"
     inkscape:cx="-737.2481"
     inkscape:cy="390.02803"
     inkscape:window-width="1309"
     inkscape:window-height="456"
     inkscape:window-x="0"
     inkscape:window-y="25"
     inkscape:window-maximized="0"
     inkscape:current-layer="svg5" /><defs
     id="defs2"><clipPath
       clipPathUnits="userSpaceOnUse"
       id="clipPath119"><path
         d="M 9.000031,66.2756 H 831.96003 v 463 H 9.000031 Z"
         id="path117" /></clipPath><clipPath
       clipPathUnits="userSpaceOnUse"
       id="clipPath594"><path
         d="M 9.0000282,66.275606 H 832.00004 V 529.2756 H 9.0000282 Z"
         id="path596"
         style="stroke-width:0.999998" /></clipPath><clipPath
       clipPathUnits="userSpaceOnUse"
       id="clipPath598"><path
         d="M 9.0000282,66.275606 H 832.00004 V 529.2756 H 9.0000282 Z"
         id="path600"
         style="stroke-width:0.999998" /></clipPath><clipPath
       clipPathUnits="userSpaceOnUse"
       id="clipPath602"><path
         d="M 9.0000282,66.275606 H 832.00004 V 529.2756 H 9.0000282 Z"
         id="path604"
         style="stroke-width:0.999998" /></clipPath><clipPath
       clipPathUnits="userSpaceOnUse"
       id="clipPath606"><path
         d="M 9.0000282,66.275606 H 832.00004 V 529.2756 H 9.0000282 Z"
         id="path608"
         style="stroke-width:0.999998" /></clipPath><clipPath
       clipPathUnits="userSpaceOnUse"
       id="clipPath610"><path
         d="M 9.0000282,66.275606 H 832.00004 V 529.2756 H 9.0000282 Z"
         id="path612"
         style="stroke-width:0.999998" /></clipPath><clipPath
       clipPathUnits="userSpaceOnUse"
       id="clipPath614"><path
         d="M 9.0000282,66.275606 H 832.00004 V 529.2756 H 9.0000282 Z"
         id="path616"
         style="stroke-width:0.999998" /></clipPath><clipPath
       clipPathUnits="userSpaceOnUse"
       id="clipPath618"><path
         d="M -3192235.6,3918858.4 H 8999764.8 V -2939142 H -3192235.6 Z"
         id="path620"
         style="stroke-width:14813.1" /></clipPath><clipPath
       clipPathUnits="userSpaceOnUse"
       id="clipPath622"><path
         d="M 9.0000282,66.275606 H 832.00004 V 529.2756 H 9.0000282 Z"
         id="path624"
         style="stroke-width:0.999998" /></clipPath><clipPath
       clipPathUnits="userSpaceOnUse"
       id="clipPath626"><path
         d="M -5181599.6,3918858.4 H 7010400.8 V -2939142 H -5181599.6 Z"
         id="path628"
         style="stroke-width:14813.1" /></clipPath><clipPath
       clipPathUnits="userSpaceOnUse"
       id="clipPath630"><path
         d="M 9.0000282,66.275606 H 832.00004 V 529.2756 H 9.0000282 Z"
         id="path632"
         style="stroke-width:0.999998" /></clipPath><clipPath
       clipPathUnits="userSpaceOnUse"
       id="clipPath634"><path
         d="M -5181599.6,5290458.5 H 7010400.8 V -1567541.9 H -5181599.6 Z"
         id="path636"
         style="stroke-width:14813.1" /></clipPath><clipPath
       clipPathUnits="userSpaceOnUse"
       id="clipPath638"><path
         d="M 9.0000282,66.275606 H 832.00004 V 529.2756 H 9.0000282 Z"
         id="path640"
         style="stroke-width:0.999998" /></clipPath><clipPath
       clipPathUnits="userSpaceOnUse"
       id="clipPath642"><path
         d="M -3192235.6,5290459.9 H 8999764.8 V -1567540.4 H -3192235.6 Z"
         id="path644"
         style="stroke-width:14813.1" /></clipPath><clipPath
       clipPathUnits="userSpaceOnUse"
       id="clipPath646"><path
         d="M 9.0000282,66.275606 H 832.00004 V 529.2756 H 9.0000282 Z"
         id="path648"
         style="stroke-width:0.999998" /></clipPath><clipPath
       clipPathUnits="userSpaceOnUse"
       id="clipPath650"><path
         d="M -2677885.8,5932710.9 H 9514114.6 V -925289.43 H -2677885.8 Z"
         id="path652"
         style="stroke-width:14813.1" /></clipPath><clipPath
       clipPathUnits="userSpaceOnUse"
       id="clipPath654"><path
         d="M 9.0000282,66.275606 H 832.00004 V 529.2756 H 9.0000282 Z"
         id="path656"
         style="stroke-width:0.999998" /></clipPath><clipPath
       clipPathUnits="userSpaceOnUse"
       id="clipPath658"><path
         d="M 9.0000282,66.275606 H 832.00004 V 529.2756 H 9.0000282 Z"
         id="path660"
         style="stroke-width:0.999998" /></clipPath></defs><g
     id="layer1"
     transform="translate(-259.60295,-44.867127)" /><path
     d="M 189.7661,466.8071 H 468.9982 V 255.1502 H 189.7661 Z"
     style="fill:#181717;fill-opacity:1;fill-rule:nonzero;stroke:none"
     id="path133"
     transform="matrix(0.35277776,0,0,-0.35277778,-39.602954,165.13288)"
     clip-path="url(#clipPath654)" /><g
     id="g135"
     transform="matrix(2.3813656e-5,0,0,2.3816871e-5,27.342306,0.45371139)"
     clip-path="url(#clipPath650)"><path
       d="M 0,0 H 4136571 V 3135082 H 0 Z"
       style="fill:none;stroke:#ffffff;stroke-width:38100;stroke-linecap:butt;stroke-linejoin:miter;stroke-miterlimit:8;stroke-dasharray:114300, 38100;stroke-dashoffset:0;stroke-opacity:1"
       id="path137" /></g><g
     id="g139"
     transform="matrix(0.08466666,0,0,-0.0846781,29.519826,210.34569)"><text
       xml:space="preserve"
       transform="matrix(1,0,0,-1,0,2404)"
       style="font-variant:normal;font-weight:normal;font-size:62.5px;font-family:Calibri;-inkscape-font-specification:Calibri;writing-mode:lr-tb;fill:#ffffff;fill-opacity:1;fill-rule:nonzero;stroke:none"
       id="text143"><tspan
         x="0 33.918751 67.837502 94.568748 128.4875 162.40625 194.575 216.93124 231.66251 258.89374 292.8125 323.60626 357.52499 391.44376 423.61249"
         y="0"
         id="tspan141">Vocoder channel</tspan></text></g><path
     d="M 224.4864,423.4472 H 304.582 V 374.9424 H 224.4864 Z"
     style="fill:#404040;fill-opacity:1;fill-rule:nonzero;stroke:none"
     id="path145"
     transform="matrix(0.35277776,0,0,-0.35277778,-39.602954,165.13288)"
     clip-path="url(#clipPath646)" /><g
     id="g147"
     transform="matrix(2.3813656e-5,0,0,2.3816871e-5,39.590856,15.75012)"
     clip-path="url(#clipPath642)"><path
       d="M 0,0 H 1186543 V 718457 H 0 Z"
       style="fill:none;stroke:#ffffff;stroke-width:38100;stroke-linecap:butt;stroke-linejoin:miter;stroke-miterlimit:8;stroke-dasharray:none;stroke-opacity:1"
       id="path149" /></g><g
     id="g151"
     transform="matrix(0.08466666,0,0,-0.0846781,48.039886,229.90369)"><text
       xml:space="preserve"
       transform="matrix(1,0,0,-1,0,2404)"
       style="font-variant:normal;font-weight:normal;font-size:62.5px;font-family:Calibri;-inkscape-font-specification:Calibri;writing-mode:lr-tb;fill:#ffffff;fill-opacity:1;fill-rule:nonzero;stroke:none"
       id="text155"><tspan
         x="0 29.46875 44.1875 58.90625 79.625 111.78125"
         y="0"
         id="tspan153">Filter</tspan></text></g><path
     d="m 358.775,423.4471 h 80.0956 V 374.9423 H 358.775 Z"
     style="fill:#404040;fill-opacity:1;fill-rule:nonzero;stroke:none"
     id="path157"
     transform="matrix(0.35277776,0,0,-0.35277778,-39.602954,165.13288)"
     clip-path="url(#clipPath638)" /><g
     id="g159"
     transform="matrix(2.3813656e-5,0,0,2.3816871e-5,86.964886,15.750155)"
     clip-path="url(#clipPath634)"><path
       d="M 0,0 H 1186543 V 718457 H 0 Z"
       style="fill:none;stroke:#ffffff;stroke-width:38100;stroke-linecap:butt;stroke-linejoin:miter;stroke-miterlimit:8;stroke-dasharray:none;stroke-opacity:1"
       id="path161" /></g><g
     id="g163"
     transform="matrix(0.08466666,0,0,-0.0846781,90.957556,226.60169)"><text
       xml:space="preserve"
       transform="matrix(1,0,0,-1,0,2404)"
       style="font-variant:normal;font-weight:normal;font-size:62.5px;font-family:Calibri;-inkscape-font-specification:Calibri;writing-mode:lr-tb;fill:#ffffff;fill-opacity:1;fill-rule:nonzero;stroke:none"
       id="text167"><tspan
         x="0 31.25625 64.137497 92.518753 124.65 139.40625 173.35001 207.29375"
         y="0"
         id="tspan165">Envelope</tspan></text></g><g
     id="g169"
     transform="matrix(0.08466666,0,0,-0.0846781,91.979766,232.95169)"><text
       xml:space="preserve"
       transform="matrix(1,0,0,-1,0,2404)"
       style="font-variant:normal;font-weight:normal;font-size:62.5px;font-family:Calibri;-inkscape-font-specification:Calibri;writing-mode:lr-tb;fill:#ffffff;fill-opacity:1;fill-rule:nonzero;stroke:none"
       id="text173"><tspan
         x="0 18.2875 52.200001 66.925003 81.650002 115.3125 160.72501"
         y="0"
         id="tspan171">followe</tspan></text></g><g
     id="g175"
     transform="matrix(0.08466666,0,0,-0.0846781,108.31571,232.95169)"><text
       xml:space="preserve"
       transform="matrix(1,0,0,-1,0,2404)"
       style="font-variant:normal;font-weight:normal;font-size:62.5px;font-family:Calibri;-inkscape-font-specification:Calibri;writing-mode:lr-tb;fill:#ffffff;fill-opacity:1;fill-rule:nonzero;stroke:none"
       id="text179"><tspan
         x="0"
         y="0"
         id="tspan177">r</tspan></text></g><path
     d="m 358.775,330.8471 h 80.0956 V 282.3423 H 358.775 Z"
     style="fill:#002060;fill-opacity:1;fill-rule:nonzero;stroke:none"
     id="path181"
     transform="matrix(0.35277776,0,0,-0.35277778,-39.602954,165.13288)"
     clip-path="url(#clipPath630)" /><g
     id="g183"
     transform="matrix(2.3813656e-5,0,0,2.3816871e-5,86.964886,48.417378)"
     clip-path="url(#clipPath626)"><path
       d="M 0,0 H 1186543 V 718457 H 0 Z"
       style="fill:none;stroke:#ffffff;stroke-width:38100;stroke-linecap:butt;stroke-linejoin:miter;stroke-miterlimit:8;stroke-dasharray:none;stroke-opacity:1"
       id="path185" /></g><g
     id="g187"
     transform="matrix(0.08466666,0,0,-0.0846781,96.542736,262.58503)"><text
       xml:space="preserve"
       transform="matrix(1,0,0,-1,0,2404)"
       style="font-variant:normal;font-weight:normal;font-size:62.5px;font-family:Calibri;-inkscape-font-specification:Calibri;writing-mode:lr-tb;fill:#ffffff;fill-opacity:1;fill-rule:nonzero;stroke:none"
       id="text191"><tspan
         x="0 36.043751 70.400002"
         y="0"
         id="tspan189">VCA</tspan></text></g><path
     d="m 224.4864,330.8471 h 80.0955 v -48.5048 h -80.0955 z"
     style="fill:#002060;fill-opacity:1;fill-rule:nonzero;stroke:none"
     id="path193"
     transform="matrix(0.35277776,0,0,-0.35277778,-39.602954,165.13288)"
     clip-path="url(#clipPath622)" /><g
     id="g195"
     transform="matrix(2.3813656e-5,0,0,2.3816871e-5,39.590856,48.417378)"
     clip-path="url(#clipPath618)"><path
       d="M 0,0 H 1186543 V 718457 H 0 Z"
       style="fill:none;stroke:#ffffff;stroke-width:38100;stroke-linecap:butt;stroke-linejoin:miter;stroke-miterlimit:8;stroke-dasharray:none;stroke-opacity:1"
       id="path197" /></g><g
     id="g199"
     transform="matrix(0.08466666,0,0,-0.0846781,48.039846,262.58503)"><text
       xml:space="preserve"
       transform="matrix(1,0,0,-1,0,2404)"
       style="font-variant:normal;font-weight:normal;font-size:62.5px;font-family:Calibri;-inkscape-font-specification:Calibri;writing-mode:lr-tb;fill:#ffffff;fill-opacity:1;fill-rule:nonzero;stroke:none"
       id="text203"><tspan
         x="0 29.46875 44.1875 58.90625 79.625 111.78125"
         y="0"
         id="tspan201">Filter</tspan></text></g><g
     id="g205"
     transform="matrix(0.08466666,0,0,-0.0846781,-0.51676428,226.60169)"><text
       xml:space="preserve"
       transform="matrix(1,0,0,-1,0,2404)"
       style="font-variant:normal;font-weight:normal;font-size:62.5px;font-family:Calibri;-inkscape-font-specification:Calibri;writing-mode:lr-tb;fill:#ffffff;fill-opacity:1;fill-rule:nonzero;stroke:none"
       id="text209"><tspan
         x="0 33.043751 54.337502 88.256248 118.6125 139.59375 170.3875"
         y="0"
         id="tspan207">Program</tspan></text></g><g
     id="g211"
     transform="matrix(0.08466666,0,0,-0.0846781,3.0307657,232.95169)"><text
       xml:space="preserve"
       transform="matrix(1,0,0,-1,0,2404)"
       style="font-variant:normal;font-weight:normal;font-size:62.5px;font-family:Calibri;-inkscape-font-specification:Calibri;writing-mode:lr-tb;fill:#ffffff;fill-opacity:1;fill-rule:nonzero;stroke:none"
       id="text215"><tspan
         x="0 14.7375 48.662498 82.587502 116.5125"
         y="0"
         id="tspan213">input</tspan></text></g><g
     id="g217"
     transform="matrix(0.08466666,0,0,-0.0846781,1.2925257,259.28303)"><text
       xml:space="preserve"
       transform="matrix(1,0,0,-1,0,2404)"
       style="font-variant:normal;font-weight:normal;font-size:62.5px;font-family:Calibri;-inkscape-font-specification:Calibri;writing-mode:lr-tb;fill:#ffffff;fill-opacity:1;fill-rule:nonzero;stroke:none"
       id="text221"><tspan
         x="0 34.381248 65.199997 87.518753 109.8375 124.59375 156.72501"
         y="0"
         id="tspan219">Carrier</tspan></text></g><g
     id="g223"
     transform="matrix(0.08466666,0,0,-0.0846781,3.0315457,265.63303)"><text
       xml:space="preserve"
       transform="matrix(1,0,0,-1,0,2404)"
       style="font-variant:normal;font-weight:normal;font-size:62.5px;font-family:Calibri;-inkscape-font-specification:Calibri;writing-mode:lr-tb;fill:#ffffff;fill-opacity:1;fill-rule:nonzero;stroke:none"
       id="text227"><tspan
         x="0 14.7375 48.662498 82.587502 116.5125"
         y="0"
         id="tspan225">input</tspan></text></g><path
     d="m 170.2934,397.9086 h 47.7633 v 2.5723 l -47.7633,-1e-4 z m 46.4774,-2.5722 7.7156,3.8583 -7.7156,3.8584 z"
     style="fill:#ffffff;fill-opacity:1;fill-rule:nonzero;stroke:none"
     id="path229"
     transform="matrix(0.35277776,0,0,-0.35277778,-39.602954,165.13288)"
     clip-path="url(#clipPath614)" /><path
     d="m 170.2934,307.8809 47.7633,-10e-5 v -2.5722 h -47.7633 z m 46.4773,2.5721 7.7157,-3.8583 -7.7157,-3.8583 z"
     style="fill:#ffffff;fill-opacity:1;fill-rule:nonzero;stroke:none"
     id="path231"
     transform="matrix(0.35277776,0,0,-0.35277778,-39.602954,165.13288)"
     clip-path="url(#clipPath610)" /><path
     d="m 304.582,400.4809 47.7633,-1e-4 v -2.5722 H 304.582 Z m 46.4774,2.5721 7.7156,-3.8583 -7.7156,-3.8583 z"
     style="fill:#ffffff;fill-opacity:1;fill-rule:nonzero;stroke:none"
     id="path233"
     transform="matrix(0.35277776,0,0,-0.35277778,-39.602954,165.13288)"
     clip-path="url(#clipPath606)" /><path
     d="m 304.5819,307.8808 47.7635,-1e-4 v -2.5722 l -47.7635,1e-4 z m 46.4775,2.5722 7.7156,-3.8584 -7.7156,-3.8583 z"
     style="fill:#ffffff;fill-opacity:1;fill-rule:nonzero;stroke:none"
     id="path235"
     transform="matrix(0.35277776,0,0,-0.35277778,-39.602954,165.13288)"
     clip-path="url(#clipPath602)" /><g
     id="g237"
     transform="matrix(0.08466666,0,0,-0.0846781,136.82054,262.58503)"><text
       xml:space="preserve"
       transform="matrix(1,0,0,-1,0,2404)"
       style="font-variant:normal;font-weight:normal;font-size:62.5px;font-family:Calibri;-inkscape-font-specification:Calibri;writing-mode:lr-tb;fill:#ffffff;fill-opacity:1;fill-rule:nonzero;stroke:none"
       id="text241"><tspan
         x="0 42.418751 76.337502 97.756248 131.675 165.59375"
         y="0"
         id="tspan239">Output</tspan></text></g><path
     d="m 438.8706,305.3086 47.7635,10e-5 v 2.5722 l -47.7635,-10e-5 z m 46.4775,-2.5721 7.7157,3.8583 -7.7157,3.8583 z"
     style="fill:#ffffff;fill-opacity:1;fill-rule:nonzero;stroke:none"
     id="path243"
     transform="matrix(0.35277776,0,0,-0.35277778,-39.602954,165.13288)"
     clip-path="url(#clipPath598)" /><path
     d="m 400.1088,374.9423 v -37.6647 h -2.5718 l -10e-5,37.6647 z m 2.5719,-36.3785 -3.8578,-7.7167 -3.8578,7.7166 z"
     style="fill:#ffffff;fill-opacity:1;fill-rule:nonzero;stroke:none"
     id="path245"
     transform="matrix(0.35277776,0,0,-0.35277778,-39.602954,165.13288)"
     clip-path="url(#clipPath594)" /></svg>
