<?xml version="1.0" encoding="UTF-8" standalone="no"?>
<!-- Created with Inkscape (http://www.inkscape.org/) -->

<svg
   version="1.1"
   id="svg2105"
   width="573.92889"
   height="547.5177"
   viewBox="0 0 573.92892 547.5177"
   xmlns="http://www.w3.org/2000/svg"
   xmlns:svg="http://www.w3.org/2000/svg">
  <defs
     id="defs2109">
    <clipPath
       clipPathUnits="userSpaceOnUse"
       id="clipPath2123">
      <path
         d="M 9.000031,66.2756 H 831.96003 v 463 H 9.000031 Z"
         id="path2121" />
    </clipPath>
    <clipPath
       clipPathUnits="userSpaceOnUse"
       id="clipPath2461">
      <path
         d="M -6000596.8,4014676.5 H 6191402.8 V -2843324 H -6000596.8 Z"
         id="path2463"
         style="stroke-width:14813.1" />
    </clipPath>
    <clipPath
       clipPathUnits="userSpaceOnUse"
       id="clipPath2465">
      <path
         d="M -5274772.9,4039052.7 H 6917226.8 V -2818947.7 H -5274772.9 Z"
         id="path2467"
         style="stroke-width:14813.1" />
    </clipPath>
    <clipPath
       clipPathUnits="userSpaceOnUse"
       id="clipPath2469">
      <path
         d="M -4545433.5,4039052.7 H 7646566.1 V -2818947.7 H -4545433.5 Z"
         id="path2471"
         style="stroke-width:14813.1" />
    </clipPath>
    <clipPath
       clipPathUnits="userSpaceOnUse"
       id="clipPath2473">
      <path
         d="M -8997689.7,2746424.8 H 3194309.9 V -4111575.7 H -8997689.7 Z"
         id="path2475"
         style="stroke-width:14813.1" />
    </clipPath>
    <clipPath
       clipPathUnits="userSpaceOnUse"
       id="clipPath2477">
      <path
         d="M -8402225.3,1673725.4 H 3789774.3 V -5184275.1 H -8402225.3 Z"
         id="path2479"
         style="stroke-width:14813.1" />
    </clipPath>
    <clipPath
       clipPathUnits="userSpaceOnUse"
       id="clipPath2481">
      <path
         d="M -4671697,1673725.4 H 7520302.7 V -5184275.1 H -4671697 Z"
         id="path2483"
         style="stroke-width:14813.1" />
    </clipPath>
    <clipPath
       clipPathUnits="userSpaceOnUse"
       id="clipPath2485">
      <path
         d="M -4265654.5,3099825.1 H 7926345.1 V -3758175.3 H -4265654.5 Z"
         id="path2487"
         style="stroke-width:14813.1" />
    </clipPath>
    <clipPath
       clipPathUnits="userSpaceOnUse"
       id="clipPath2489">
      <path
         d="M -9612335.4,5535265.5 H 2579664.2 V -1322735 H -9612335.4 Z"
         id="path2491"
         style="stroke-width:14813.1" />
    </clipPath>
    <clipPath
       clipPathUnits="userSpaceOnUse"
       id="clipPath2493">
      <path
         d="M -7149018.1,5698395.6 H 5042981.6 V -1159604.9 H -7149018.1 Z"
         id="path2495"
         style="stroke-width:14813.1" />
    </clipPath>
    <clipPath
       clipPathUnits="userSpaceOnUse"
       id="clipPath2497">
      <path
         d="M -4671697,5693083.9 H 7520302.7 V -1164916.5 H -4671697 Z"
         id="path2499"
         style="stroke-width:14813.1" />
    </clipPath>
    <clipPath
       clipPathUnits="userSpaceOnUse"
       id="clipPath2501">
      <path
         d="M -4265654.5,6341656.7 H 7926345.1 V -516343.74 H -4265654.5 Z"
         id="path2503"
         style="stroke-width:14813.1" />
    </clipPath>
  </defs>
  <g
     id="g2113"
     transform="matrix(1.3333333,0,0,-1.3333333,-394.21301,660.93613)">
    <g
       id="g2115" />
    <path
       d="M 296.9457,494.416 H 724.8205 V 357.7065 H 296.9457 Z"
       style="fill:#181717;fill-opacity:1;fill-rule:nonzero;stroke:none"
       id="path2137" />
    <g
       id="g2139"
       transform="matrix(6.750328e-5,0,0,-6.751239e-5,296.9457,494.416)"
       clip-path="url(#clipPath2501)">
      <path
         d="M 0,0 H 6338578 V 2024955 H 0 Z"
         style="fill:none;stroke:#ffffff;stroke-width:38100;stroke-linecap:butt;stroke-linejoin:miter;stroke-miterlimit:8;stroke-dasharray:114300, 38100;stroke-dashoffset:0;stroke-opacity:1"
         id="path2141" />
    </g>
    <g
       id="g2143"
       transform="matrix(0.24,0,0,0.2400324,303.1182,-100.5623)">
      <text
         xml:space="preserve"
         transform="matrix(1,0,0,-1,0,2404)"
         style="font-variant:normal;font-weight:normal;font-size:62.5px;font-family:Geneva;-inkscape-font-specification:Geneva;writing-mode:lr-tb;fill:#ffffff;fill-opacity:1;fill-rule:nonzero;stroke:none"
         id="text2147"><tspan
           x="0 32.59375 65.1875 79.90625 107.125 141.09375 171.875 205.84375 239.8125 271.96875 286.6875 311.71875 326.4375 351.46875 366.1875 400.15625 421.4375 455.40625 485.75 506.78125 537.5625 588.90625 603.625 628.65625 660.8125 688.03125 709.4375 724.15625 758.125"
           y="0"
           id="tspan2145">16 channels / program section</tspan></text>
    </g>
    <path
       d="M 324.3549,450.6293 H 447.7594 V 385.5837 H 324.3549 Z"
       style="fill:#404040;fill-opacity:1;fill-rule:nonzero;stroke:none"
       id="path2149" />
    <g
       id="g2151"
       transform="matrix(6.750328e-5,0,0,-6.751239e-5,324.3549,450.6293)"
       clip-path="url(#clipPath2497)">
      <path
         d="M 0,0 H 1828126 V 963461 H 0 Z"
         style="fill:none;stroke:#ffffff;stroke-width:38100;stroke-linecap:butt;stroke-linejoin:miter;stroke-miterlimit:8;stroke-dasharray:none;stroke-opacity:1"
         id="path2153" />
    </g>
    <g
       id="g2155"
       transform="matrix(0.24,0,0,0.2400324,366.2087,-164.6423)">
      <text
         xml:space="preserve"
         transform="matrix(1,0,0,-1,0,2404)"
         style="font-variant:normal;font-weight:normal;font-size:62.5px;font-family:Geneva;-inkscape-font-specification:Geneva;writing-mode:lr-tb;fill:#ffffff;fill-opacity:1;fill-rule:nonzero;stroke:none"
         id="text2159"><tspan
           x="0 29.46875 45.5625 68.09375 99.375 130.65625"
           y="0"
           id="tspan2157">FILTER</tspan></text>
    </g>
    <path
       d="m 447.7699,416.8204 37.3933,0.306 -0.021,2.5721 -37.3933,-0.306 z m 36.1285,-2.2767 7.6838,3.9214 -7.7469,3.795 z"
       style="fill:#ffffff;fill-opacity:1;fill-rule:nonzero;stroke:none"
       id="path2161" />
    <path
       d="M 491.5822,450.9879 H 614.9867 V 385.9423 H 491.5822 Z"
       style="fill:#404040;fill-opacity:1;fill-rule:nonzero;stroke:none"
       id="path2163" />
    <g
       id="g2165"
       transform="matrix(6.750328e-5,0,0,-6.751239e-5,491.5822,450.9879)"
       clip-path="url(#clipPath2493)">
      <path
         d="M 0,0 H 1828126 V 963461 H 0 Z"
         style="fill:none;stroke:#ffffff;stroke-width:38100;stroke-linecap:butt;stroke-linejoin:miter;stroke-miterlimit:8;stroke-dasharray:none;stroke-opacity:1"
         id="path2167" />
    </g>
    <g
       id="g2169"
       transform="matrix(0.24,0,0,0.2400324,520.5016,-155.0423)">
      <text
         xml:space="preserve"
         transform="matrix(1,0,0,-1,0,2404)"
         style="font-variant:normal;font-weight:normal;font-size:62.5px;font-family:Geneva;-inkscape-font-specification:Geneva;writing-mode:lr-tb;fill:#ffffff;fill-opacity:1;fill-rule:nonzero;stroke:none"
         id="text2173"><tspan
           x="0 31.25625 72.762497 109.39375 140.64999 166.46875 208.91251 241.98125"
           y="0"
           id="tspan2171">ENVELOPE</tspan></text>
    </g>
    <g
       id="g2175"
       transform="matrix(0.24,0,0,0.2400324,518.5641,-173.0423)">
      <text
         xml:space="preserve"
         transform="matrix(1,0,0,-1,0,2404)"
         style="font-variant:normal;font-weight:normal;font-size:62.5px;font-family:Geneva;-inkscape-font-specification:Geneva;writing-mode:lr-tb;fill:#ffffff;fill-opacity:1;fill-rule:nonzero;stroke:none"
         id="text2179"><tspan
           x="0 28.9 71.300003 98.512497 124.35 166.0625 223.21249 254.4875"
           y="0"
           id="tspan2177">FOLLOWER</tspan></text>
    </g>
    <path
       d="m 657.8642,418.4651 c 0,11.8794 9.6288,21.5095 21.5065,21.5095 11.8777,0 21.5065,-9.6301 21.5065,-21.5095 0,-11.8793 -9.6288,-21.5094 -21.5065,-21.5094 -11.8777,0 -21.5065,9.6301 -21.5065,21.5094 z"
       style="fill:#bfbfbf;fill-opacity:1;fill-rule:evenodd;stroke:none"
       id="path2181" />
    <g
       id="g2183"
       transform="matrix(6.750328e-5,0,0,-6.751239e-5,657.8642,439.9746)"
       clip-path="url(#clipPath2489)">
      <path
         d="M 0,318600 C 0,142642.1 142642.1,0 318600,0 494557.9,0 637200,142642.1 637200,318600 637200,494557.9 494557.9,637200 318600,637200 142642.1,637200 0,494557.9 0,318600 Z"
         style="fill:none;stroke:#ffffff;stroke-width:38100;stroke-linecap:butt;stroke-linejoin:miter;stroke-miterlimit:8;stroke-dasharray:none;stroke-opacity:1"
         id="path2185" />
    </g>
    <g
       id="g2187"
       transform="matrix(0.24,0,0,0.2400324,665.6005,-164.1623)">
      <text
         xml:space="preserve"
         transform="matrix(1,0,0,-1,0,2404)"
         style="font-variant:normal;font-weight:normal;font-size:62.5px;font-family:Geneva;-inkscape-font-specification:Geneva;writing-mode:lr-tb;fill:#000000;fill-opacity:1;fill-rule:nonzero;stroke:none"
         id="text2191"><tspan
           x="0 42.418751 83.525002"
           y="0"
           id="tspan2189">OUT</tspan></text>
    </g>
    <path
       d="m 614.9867,417.179 h 36.4478 v 2.5722 h -36.4478 z m 35.1619,-2.5722 7.7156,3.8583 -7.7156,3.8584 z"
       style="fill:#ffffff;fill-opacity:1;fill-rule:nonzero;stroke:none"
       id="path2193" />
    <path
       d="M 296.9457,275.5522 H 724.8205 V 86.34995 H 296.9457 Z"
       style="fill:#181717;fill-opacity:1;fill-rule:nonzero;stroke:none"
       id="path2195" />
    <g
       id="g2197"
       transform="matrix(6.750328e-5,0,0,-6.751239e-5,296.9457,275.5522)"
       clip-path="url(#clipPath2485)">
      <path
         d="M 0,0 H 6338578 V 2802482 H 0 Z"
         style="fill:none;stroke:#ffffff;stroke-width:38100;stroke-linecap:butt;stroke-linejoin:miter;stroke-miterlimit:8;stroke-dasharray:114300, 38100;stroke-dashoffset:0;stroke-opacity:1"
         id="path2199" />
    </g>
    <g
       id="g2201"
       transform="matrix(0.24,0,0,0.2400324,443.2213,-319.4423)">
      <text
         xml:space="preserve"
         transform="matrix(1,0,0,-1,0,2404)"
         style="font-variant:normal;font-weight:normal;font-size:62.5px;font-family:Geneva;-inkscape-font-specification:Geneva;writing-mode:lr-tb;fill:#ffffff;fill-opacity:1;fill-rule:nonzero;stroke:none"
         id="text2205"><tspan
           x="0 32.59375 65.1875 79.90625 107.125 141.09375 171.875 205.84375 239.8125 271.96875 286.6875 311.71875 326.4375 351.46875 366.1875 392.90625 423.6875 446.03125 468.375 483.09375 515.25 537.59375 552.3125 577.34375 609.5 636.71875 658.125 672.84375 706.8125"
           y="0"
           id="tspan2203">16 channels / carrier section</tspan></text>
    </g>
    <path
       d="M 324.3549,179.2728 H 447.7594 V 114.2272 H 324.3549 Z"
       style="fill:#404040;fill-opacity:1;fill-rule:nonzero;stroke:none"
       id="path2207" />
    <g
       id="g2209"
       transform="matrix(6.750328e-5,0,0,-6.751239e-5,324.3549,179.2728)"
       clip-path="url(#clipPath2481)">
      <path
         d="M 0,0 H 1828126 V 963461 H 0 Z"
         style="fill:none;stroke:#ffffff;stroke-width:38100;stroke-linecap:butt;stroke-linejoin:miter;stroke-miterlimit:8;stroke-dasharray:none;stroke-opacity:1"
         id="path2211" />
    </g>
    <g
       id="g2213"
       transform="matrix(0.24,0,0,0.2400324,366.2087,-436.0823)">
      <text
         xml:space="preserve"
         transform="matrix(1,0,0,-1,0,2404)"
         style="font-variant:normal;font-weight:normal;font-size:62.5px;font-family:Geneva;-inkscape-font-specification:Geneva;writing-mode:lr-tb;fill:#ffffff;fill-opacity:1;fill-rule:nonzero;stroke:none"
         id="text2217"><tspan
           x="0 29.46875 45.5625 68.09375 99.375 130.65625"
           y="0"
           id="tspan2215">FILTER</tspan></text>
    </g>
    <path
       d="m 447.7594,148.0361 121.9888,-1e-4 v -2.5722 l -121.9888,1e-4 z m 120.7028,2.5721 7.7156,-3.8583 -7.7156,-3.8583 z"
       style="fill:#ffffff;fill-opacity:1;fill-rule:nonzero;stroke:none"
       id="path2219" />
    <path
       d="M 576.1778,179.2728 H 699.5823 V 114.2272 H 576.1778 Z"
       style="fill:#404040;fill-opacity:1;fill-rule:nonzero;stroke:none"
       id="path2221" />
    <g
       id="g2223"
       transform="matrix(6.750328e-5,0,0,-6.751239e-5,576.1778,179.2728)"
       clip-path="url(#clipPath2477)">
      <path
         d="M 0,0 H 1828126 V 963461 H 0 Z"
         style="fill:none;stroke:#ffffff;stroke-width:38100;stroke-linecap:butt;stroke-linejoin:miter;stroke-miterlimit:8;stroke-dasharray:none;stroke-opacity:1"
         id="path2225" />
    </g>
    <g
       id="g2227"
       transform="matrix(0.24,0,0,0.2400324,624.9821,-436.0823)">
      <text
         xml:space="preserve"
         transform="matrix(1,0,0,-1,0,2404)"
         style="font-variant:normal;font-weight:normal;font-size:62.5px;font-family:Geneva;-inkscape-font-specification:Geneva;writing-mode:lr-tb;fill:#ffffff;fill-opacity:1;fill-rule:nonzero;stroke:none"
         id="text2231"><tspan
           x="0 36.043751 70.400002"
           y="0"
           id="tspan2229">VCA</tspan></text>
    </g>
    <path
       d="m 616.3736,230.1839 c 0,11.8793 9.6288,21.5094 21.5065,21.5094 11.8778,0 21.5066,-9.6301 21.5066,-21.5094 0,-11.8793 -9.6288,-21.5095 -21.5066,-21.5095 -11.8777,0 -21.5065,9.6302 -21.5065,21.5095 z"
       style="fill:#404040;fill-opacity:1;fill-rule:evenodd;stroke:none"
       id="path2233" />
    <g
       id="g2235"
       transform="matrix(6.750328e-5,0,0,-6.751239e-5,616.3736,251.6933)"
       clip-path="url(#clipPath2473)">
      <path
         d="M 0,318600 C 0,142642.1 142642.1,0 318600,0 494557.9,0 637200,142642.1 637200,318600 637200,494557.9 494557.9,637200 318600,637200 142642.1,637200 0,494557.9 0,318600 Z"
         style="fill:none;stroke:#ffffff;stroke-width:38100;stroke-linecap:butt;stroke-linejoin:miter;stroke-miterlimit:8;stroke-dasharray:none;stroke-opacity:1"
         id="path2237" />
    </g>
    <g
       id="g2239"
       transform="matrix(0.24,0,0,0.2400324,619.4483,-352.5623)">
      <text
         xml:space="preserve"
         transform="matrix(1,0,0,-1,0,2404)"
         style="font-variant:normal;font-weight:normal;font-size:62.5px;font-family:Geneva;-inkscape-font-specification:Geneva;writing-mode:lr-tb;fill:#ffffff;fill-opacity:1;fill-rule:nonzero;stroke:none"
         id="text2243"><tspan
           x="0 27.237499 58.474998 95.087502 126.325"
           y="0"
           id="tspan2241">LEVEL</tspan></text>
    </g>
    <path
       d="m 639.1661,208.6744 v -22.9711 h -2.5719 v 22.9711 z m 2.5719,-21.6849 -3.8578,-7.7167 -3.8578,7.7166 z"
       style="fill:#ffffff;fill-opacity:1;fill-rule:nonzero;stroke:none"
       id="path2245" />
    <path
       d="m 315.8317,317.4522 c 0,11.8794 9.6288,21.5095 21.5066,21.5095 11.8777,0 21.5065,-9.6301 21.5065,-21.5095 0,-11.8793 -9.6288,-21.5094 -21.5065,-21.5094 -11.8778,0 -21.5066,9.6301 -21.5066,21.5094 z"
       style="fill:#404040;fill-opacity:1;fill-rule:evenodd;stroke:none"
       id="path2247" />
    <g
       id="g2249"
       transform="matrix(6.750328e-5,0,0,-6.751239e-5,315.8317,338.9617)"
       clip-path="url(#clipPath2469)">
      <path
         d="M 0,318600 C 0,142642.1 142642.1,0 318600,0 494557.9,0 637200,142642.1 637200,318600 637200,494557.9 494557.9,637200 318600,637200 142642.1,637200 0,494557.9 0,318600 Z"
         style="fill:none;stroke:#ffffff;stroke-width:38100;stroke-linecap:butt;stroke-linejoin:miter;stroke-miterlimit:8;stroke-dasharray:none;stroke-opacity:1"
         id="path2251" />
    </g>
    <g
       id="g2253"
       transform="matrix(0.24,0,0,0.2400324,320.7947,-265.2023)">
      <text
         xml:space="preserve"
         transform="matrix(1,0,0,-1,0,2404)"
         style="font-variant:normal;font-weight:normal;font-size:62.5px;font-family:Geneva;-inkscape-font-specification:Geneva;writing-mode:lr-tb;fill:#ffffff;fill-opacity:1;fill-rule:nonzero;stroke:none"
         id="text2257"><tspan
           x="0 29.46875 64.3125 94.59375"
           y="0"
           id="tspan2255">FREQ</tspan></text>
    </g>
    <path
       d="m 365.0645,317.4522 c 0,11.8794 9.6288,21.5095 21.5066,21.5095 11.8777,0 21.5065,-9.6301 21.5065,-21.5095 0,-11.8793 -9.6288,-21.5094 -21.5065,-21.5094 -11.8778,0 -21.5066,9.6301 -21.5066,21.5094 z"
       style="fill:#404040;fill-opacity:1;fill-rule:evenodd;stroke:none"
       id="path2259" />
    <g
       id="g2261"
       transform="matrix(6.750328e-5,0,0,-6.751239e-5,365.0645,338.9617)"
       clip-path="url(#clipPath2465)">
      <path
         d="M 0,318600 C 0,142642.1 142642.1,0 318600,0 494557.9,0 637200,142642.1 637200,318600 637200,494557.9 494557.9,637200 318600,637200 142642.1,637200 0,494557.9 0,318600 Z"
         style="fill:none;stroke:#ffffff;stroke-width:38100;stroke-linecap:butt;stroke-linejoin:miter;stroke-miterlimit:8;stroke-dasharray:none;stroke-opacity:1"
         id="path2263" />
    </g>
    <g
       id="g2265"
       transform="matrix(0.24,0,0,0.2400324,375.1798,-265.2023)">
      <text
         xml:space="preserve"
         transform="matrix(1,0,0,-1,0,2404)"
         style="font-variant:normal;font-weight:normal;font-size:62.5px;font-family:Geneva;-inkscape-font-specification:Geneva;writing-mode:lr-tb;fill:#ffffff;fill-opacity:1;fill-rule:nonzero;stroke:none"
         id="text2269"><tspan
           x="0 34.825001 65.462502"
           y="0"
           id="tspan2267">RES</tspan></text>
    </g>
    <path
       d="m 414.06,315.8065 c 0,11.8794 9.6288,21.5095 21.5065,21.5095 11.8778,0 21.5066,-9.6301 21.5066,-21.5095 0,-11.8793 -9.6288,-21.5094 -21.5066,-21.5094 -11.8777,0 -21.5065,9.6301 -21.5065,21.5094 z"
       style="fill:#404040;fill-opacity:1;fill-rule:evenodd;stroke:none"
       id="path2271" />
    <g
       id="g2273"
       transform="matrix(6.750328e-5,0,0,-6.751239e-5,414.06,337.316)"
       clip-path="url(#clipPath2461)">
      <path
         d="M 0,318600 C 0,142642.1 142642.1,0 318600,0 494557.9,0 637200,142642.1 637200,318600 637200,494557.9 494557.9,637200 318600,637200 142642.1,637200 0,494557.9 0,318600 Z"
         style="fill:none;stroke:#ffffff;stroke-width:38100;stroke-linecap:butt;stroke-linejoin:miter;stroke-miterlimit:8;stroke-dasharray:none;stroke-opacity:1"
         id="path2275" />
    </g>
    <g
       id="g2277"
       transform="matrix(0.24,0,0,0.2400324,430.3692,-266.8823)">
      <text
         xml:space="preserve"
         transform="matrix(1,0,0,-1,0,2404)"
         style="font-variant:normal;font-weight:normal;font-size:62.5px;font-family:Geneva;-inkscape-font-specification:Geneva;writing-mode:lr-tb;fill:#ffffff;fill-opacity:1;fill-rule:nonzero;stroke:none"
         id="text2281"><tspan
           x="0"
           y="0"
           id="tspan2279">Q</tspan></text>
    </g>
    <path
       d="m 338.6242,338.9617 1e-4,40.5501 h -2.5719 l -10e-5,-40.5501 z m 2.5719,39.264 -3.8578,7.7166 -3.8578,-7.7166 z"
       style="fill:#ffffff;fill-opacity:1;fill-rule:nonzero;stroke:none"
       id="path2283" />
    <path
       d="m 385.2852,338.9475 -0.443,40.1919 2.5717,0.0283 0.443,-40.1919 z m -3.0006,38.8775 3.7726,7.7587 3.9426,-7.6737 z"
       style="fill:#ffffff;fill-opacity:1;fill-rule:nonzero;stroke:none"
       id="path2285" />
    <path
       d="m 436.8525,337.316 10e-5,42.1958 h -2.5719 l -1e-4,-42.1958 z m 2.5719,40.9097 -3.8578,7.7166 -3.8578,-7.7166 z"
       style="fill:#ffffff;fill-opacity:1;fill-rule:nonzero;stroke:none"
       id="path2287" />
    <path
       d="m 338.6242,295.9428 1e-4,-108.437 h -2.5719 l -10e-5,108.437 z m 2.572,-107.1508 -3.8579,-7.7166 -3.8578,7.7166 z"
       style="fill:#ffffff;fill-opacity:1;fill-rule:nonzero;stroke:none"
       id="path2289" />
    <path
       d="m 700.8772,417.179 h 15.4311 l -1.2859,1.2861 v -94.141 l 1.2859,1.2861 h -79.7142 v -67.4863 h 2.5719 v 66.2002 l -1.2859,-1.2862 h 79.7142 v 96.7134 h -16.7171 z m -66.8549,-157.769 3.8578,-7.7167 3.8578,7.7167 z"
       style="fill:#ffffff;fill-opacity:1;fill-rule:nonzero;stroke:none"
       id="path2291" />
    <path
       d="m 387.857,295.9428 10e-5,-108.437 h -2.5719 l -10e-5,108.437 z m 2.5719,-107.1508 -3.8578,-7.7166 -3.8578,7.7166 z"
       style="fill:#ffffff;fill-opacity:1;fill-rule:nonzero;stroke:none"
       id="path2293" />
    <path
       d="m 436.8525,294.2971 10e-5,-106.7912 h -2.5719 l -1e-4,106.7912 z m 2.5719,-105.5051 -3.8578,-7.7166 -3.8578,7.7166 z"
       style="fill:#ffffff;fill-opacity:1;fill-rule:nonzero;stroke:none"
       id="path2295" />
  </g>
</svg>
