<?xml version="1.0" encoding="UTF-8" standalone="no"?>
<!-- Created with Inkscape (http://www.inkscape.org/) -->

<svg
   width="275.14444mm"
   height="133.17336mm"
   viewBox="0 0 275.14444 133.17336"
   version="1.1"
   id="svg5"
   xml:space="preserve"
   xmlns="http://www.w3.org/2000/svg"
   xmlns:svg="http://www.w3.org/2000/svg"><defs
     id="defs2"><clipPath
       clipPathUnits="userSpaceOnUse"
       id="clipPath43"><path
         d="M 9.000031,66.2756 H 831.96003 v 463 H 9.000031 Z"
         id="path41" /></clipPath><clipPath
       clipPathUnits="userSpaceOnUse"
       id="clipPath798"><path
         d="M 9.0000282,66.275606 H 832.00004 V 529.2756 H 9.0000282 Z"
         id="path800"
         style="stroke-width:0.999998" /></clipPath><clipPath
       clipPathUnits="userSpaceOnUse"
       id="clipPath802"><path
         d="M 9.0000282,66.275606 H 832.00004 V 529.2756 H 9.0000282 Z"
         id="path804"
         style="stroke-width:0.999998" /></clipPath><clipPath
       clipPathUnits="userSpaceOnUse"
       id="clipPath806"><path
         d="M 9.0000282,66.275606 H 832.00004 V 529.2756 H 9.0000282 Z"
         id="path808"
         style="stroke-width:0.999998" /></clipPath><clipPath
       clipPathUnits="userSpaceOnUse"
       id="clipPath810"><path
         d="M 9.0000282,66.275606 H 832.00004 V 529.2756 H 9.0000282 Z"
         id="path812"
         style="stroke-width:0.999998" /></clipPath><clipPath
       clipPathUnits="userSpaceOnUse"
       id="clipPath814"><path
         d="M 9.0000282,66.275606 H 832.00004 V 529.2756 H 9.0000282 Z"
         id="path816"
         style="stroke-width:0.999998" /></clipPath><clipPath
       clipPathUnits="userSpaceOnUse"
       id="clipPath818"><path
         d="M 2420495.1,10329092 V -1862908.5 H -4437505.3 V 10329092 Z"
         id="path820"
         style="stroke-width:14813.1" /></clipPath><clipPath
       clipPathUnits="userSpaceOnUse"
       id="clipPath822"><path
         d="M 9.0000282,66.275606 H 832.00004 V 529.2756 H 9.0000282 Z"
         id="path824"
         style="stroke-width:0.999998" /></clipPath><clipPath
       clipPathUnits="userSpaceOnUse"
       id="clipPath826"><path
         d="M 9.0000282,66.275606 H 832.00004 V 529.2756 H 9.0000282 Z"
         id="path828"
         style="stroke-width:0.999998" /></clipPath><clipPath
       clipPathUnits="userSpaceOnUse"
       id="clipPath830"><path
         d="M 9.0000282,66.275606 H 832.00004 V 529.2756 H 9.0000282 Z"
         id="path832"
         style="stroke-width:0.999998" /></clipPath><clipPath
       clipPathUnits="userSpaceOnUse"
       id="clipPath834"><path
         d="M 9.0000282,66.275606 H 832.00004 V 529.2756 H 9.0000282 Z"
         id="path836"
         style="stroke-width:0.999998" /></clipPath><clipPath
       clipPathUnits="userSpaceOnUse"
       id="clipPath838"><path
         d="M 4405369.3,-4441552.1 H -7786631 V 2416448.3 H 4405369.3 Z"
         id="path840"
         style="stroke-width:14813.1" /></clipPath><clipPath
       clipPathUnits="userSpaceOnUse"
       id="clipPath842"><path
         d="M 4063329.5,4741471.8 H -8128670.9 V -2116528.5 H 4063329.5 Z"
         id="path844"
         style="stroke-width:14813.1" /></clipPath><clipPath
       clipPathUnits="userSpaceOnUse"
       id="clipPath846"><path
         d="M 9.0000282,66.275606 H 832.00004 V 529.2756 H 9.0000282 Z"
         id="path848"
         style="stroke-width:0.999998" /></clipPath><clipPath
       clipPathUnits="userSpaceOnUse"
       id="clipPath850"><path
         d="M 4624112.7,4514672 H -7567887.6 V -2343328.4 H 4624112.7 Z"
         id="path852"
         style="stroke-width:14813.1" /></clipPath><clipPath
       clipPathUnits="userSpaceOnUse"
       id="clipPath854"><path
         d="M 9.0000282,66.275606 H 832.00004 V 529.2756 H 9.0000282 Z"
         id="path856"
         style="stroke-width:0.999998" /></clipPath><clipPath
       clipPathUnits="userSpaceOnUse"
       id="clipPath858"><path
         d="M 4625154.2,4978232.8 H -7566846.2 V -1879767.5 H 4625154.2 Z"
         id="path860"
         style="stroke-width:14813.1" /></clipPath><clipPath
       clipPathUnits="userSpaceOnUse"
       id="clipPath862"><path
         d="M 9.0000282,66.275606 H 832.00004 V 529.2756 H 9.0000282 Z"
         id="path864"
         style="stroke-width:0.999998" /></clipPath><clipPath
       clipPathUnits="userSpaceOnUse"
       id="clipPath866"><path
         d="M 4759526.6,5124650.4 H -7432473.7 V -1733350 H 4759526.6 Z"
         id="path868"
         style="stroke-width:14813.1" /></clipPath><clipPath
       clipPathUnits="userSpaceOnUse"
       id="clipPath870"><path
         d="M 9.0000282,66.275606 H 832.00004 V 529.2756 H 9.0000282 Z"
         id="path872"
         style="stroke-width:0.999998" /></clipPath><clipPath
       clipPathUnits="userSpaceOnUse"
       id="clipPath874"><path
         d="M 9.0000282,66.275606 H 832.00004 V 529.2756 H 9.0000282 Z"
         id="path876"
         style="stroke-width:0.999998" /></clipPath><clipPath
       clipPathUnits="userSpaceOnUse"
       id="clipPath878"><path
         d="M -8519590.2,5197425.2 H 3672410.2 V -1660575.2 H -8519590.2 Z"
         id="path880"
         style="stroke-width:14813.1" /></clipPath><clipPath
       clipPathUnits="userSpaceOnUse"
       id="clipPath882"><path
         d="M 9.0000282,66.275606 H 832.00004 V 529.2756 H 9.0000282 Z"
         id="path884"
         style="stroke-width:0.999998" /></clipPath><clipPath
       clipPathUnits="userSpaceOnUse"
       id="clipPath886"><path
         d="M 9.0000282,66.275606 H 832.00004 V 529.2756 H 9.0000282 Z"
         id="path888"
         style="stroke-width:0.999998" /></clipPath><clipPath
       clipPathUnits="userSpaceOnUse"
       id="clipPath890"><path
         d="M -6095999.7,5360555.2 H 6096000.6 V -1497445.2 H -6095999.7 Z"
         id="path892"
         style="stroke-width:14813.1" /></clipPath><clipPath
       clipPathUnits="userSpaceOnUse"
       id="clipPath894"><path
         d="M 9.0000282,66.275606 H 832.00004 V 529.2756 H 9.0000282 Z"
         id="path896"
         style="stroke-width:0.999998" /></clipPath><clipPath
       clipPathUnits="userSpaceOnUse"
       id="clipPath898"><path
         d="M -9752251.4,5360555.2 H 2439748.9 V -1497445.2 H -9752251.4 Z"
         id="path900"
         style="stroke-width:14813.1" /></clipPath><clipPath
       clipPathUnits="userSpaceOnUse"
       id="clipPath902"><path
         d="M 9.0000282,66.275606 H 832.00004 V 529.2756 H 9.0000282 Z"
         id="path904"
         style="stroke-width:0.999998" /></clipPath><clipPath
       clipPathUnits="userSpaceOnUse"
       id="clipPath906"><path
         d="M 9.0000282,66.275606 H 832.00004 V 529.2756 H 9.0000282 Z"
         id="path908"
         style="stroke-width:0.999998" /></clipPath><clipPath
       clipPathUnits="userSpaceOnUse"
       id="clipPath910"><path
         d="M -293022.21,4554193.6 H 11898978 V -2303806.7 H -293022.21 Z"
         id="path912"
         style="stroke-width:14813.1" /></clipPath><clipPath
       clipPathUnits="userSpaceOnUse"
       id="clipPath914"><path
         d="M 9.0000282,66.275606 H 832.00004 V 529.2756 H 9.0000282 Z"
         id="path916"
         style="stroke-width:0.999998" /></clipPath><clipPath
       clipPathUnits="userSpaceOnUse"
       id="clipPath918"><path
         d="M 9.0000282,66.275606 H 832.00004 V 529.2756 H 9.0000282 Z"
         id="path920"
         style="stroke-width:0.999998" /></clipPath><clipPath
       clipPathUnits="userSpaceOnUse"
       id="clipPath922"><path
         d="M -293022.21,5272959.4 H 11898978 V -1585040.9 H -293022.21 Z"
         id="path924"
         style="stroke-width:14813.1" /></clipPath><clipPath
       clipPathUnits="userSpaceOnUse"
       id="clipPath926"><path
         d="M 9.0000282,66.275606 H 832.00004 V 529.2756 H 9.0000282 Z"
         id="path928"
         style="stroke-width:0.999998" /></clipPath><clipPath
       clipPathUnits="userSpaceOnUse"
       id="clipPath930"><path
         d="M -1525685.5,5117488.7 H 10666315 V -1740511.6 H -1525685.5 Z"
         id="path932"
         style="stroke-width:14813.1" /></clipPath><clipPath
       clipPathUnits="userSpaceOnUse"
       id="clipPath934"><path
         d="M 9.0000282,66.275606 H 832.00004 V 529.2756 H 9.0000282 Z"
         id="path936"
         style="stroke-width:0.999998" /></clipPath><clipPath
       clipPathUnits="userSpaceOnUse"
       id="clipPath938"><path
         d="M 9.0000282,66.275606 H 832.00004 V 529.2756 H 9.0000282 Z"
         id="path940"
         style="stroke-width:0.999998" /></clipPath><clipPath
       clipPathUnits="userSpaceOnUse"
       id="clipPath942"><path
         d="M -7183192.7,1666064.3 H 5008807.6 V -5191936 H -7183192.7 Z"
         id="path944"
         style="stroke-width:14813.1" /></clipPath><clipPath
       clipPathUnits="userSpaceOnUse"
       id="clipPath946"><path
         d="M 9.0000282,66.275606 H 832.00004 V 529.2756 H 9.0000282 Z"
         id="path948"
         style="stroke-width:0.999998" /></clipPath><clipPath
       clipPathUnits="userSpaceOnUse"
       id="clipPath950"><path
         d="M -4719875.4,1829194.5 H 7472124.9 V -5028805.9 H -4719875.4 Z"
         id="path952"
         style="stroke-width:14813.1" /></clipPath><clipPath
       clipPathUnits="userSpaceOnUse"
       id="clipPath954"><path
         d="M 9.0000282,66.275606 H 832.00004 V 529.2756 H 9.0000282 Z"
         id="path956"
         style="stroke-width:0.999998" /></clipPath><clipPath
       clipPathUnits="userSpaceOnUse"
       id="clipPath958"><path
         d="M -2242555.7,1823883.1 H 9949444.6 V -5034117.2 H -2242555.7 Z"
         id="path960"
         style="stroke-width:14813.1" /></clipPath><clipPath
       clipPathUnits="userSpaceOnUse"
       id="clipPath962"><path
         d="M 9.0000282,66.275606 H 832.00004 V 529.2756 H 9.0000282 Z"
         id="path964"
         style="stroke-width:0.999998" /></clipPath><clipPath
       clipPathUnits="userSpaceOnUse"
       id="clipPath966"><path
         d="M -1836513.5,3249982.7 H 10355487 V -3608017.7 H -1836513.5 Z"
         id="path968"
         style="stroke-width:14813.1" /></clipPath><clipPath
       clipPathUnits="userSpaceOnUse"
       id="clipPath970"><path
         d="M 9.0000282,66.275606 H 832.00004 V 529.2756 H 9.0000282 Z"
         id="path972"
         style="stroke-width:0.999998" /></clipPath><clipPath
       clipPathUnits="userSpaceOnUse"
       id="clipPath974"><path
         d="M 9.0000282,66.275606 H 832.00004 V 529.2756 H 9.0000282 Z"
         id="path976"
         style="stroke-width:0.999998" /></clipPath></defs><g
     id="layer1"
     transform="translate(-229.69929,-43.241735)" /><path
     d="M 132.9707,285.6897 H 560.8455 V 96.48747 H 132.9707 Z"
     style="fill:#181717;fill-opacity:1;fill-rule:nonzero;stroke:none"
     id="path57"
     transform="matrix(0.35277776,0,0,-0.35277778,-9.6992899,166.75827)"
     clip-path="url(#clipPath970)" /><g
     id="g59"
     transform="matrix(2.3813656e-5,0,0,2.3816871e-5,37.20982,65.973295)"
     clip-path="url(#clipPath966)"><path
       d="M 0,0 H 6338578 V 2802482 H 0 Z"
       style="fill:none;stroke:#ffffff;stroke-width:38100;stroke-linecap:butt;stroke-linejoin:miter;stroke-miterlimit:8;stroke-dasharray:114300, 38100;stroke-dashoffset:0;stroke-opacity:1"
       id="path61" /></g><g
     id="g63"
     transform="matrix(0.08466666,0,0,-0.0846781,39.38734,275.89442)"><text
       xml:space="preserve"
       transform="matrix(1,0,0,-1,0,2404)"
       style="font-variant:normal;font-weight:normal;font-size:62.5px;font-family:Geneva;-inkscape-font-specification:Geneva;writing-mode:lr-tb;fill:#ffffff;fill-opacity:1;fill-rule:nonzero;stroke:none"
       id="text67"><tspan
         x="0 32.59375 65.1875 79.90625 107.125 141.09375 171.875 205.84375 239.8125 271.96875 286.6875"
         y="0"
         id="tspan65">16 channels</tspan></text></g><path
     d="M 160.3799,189.4103 H 283.7843 V 124.3648 H 160.3799 Z"
     style="fill:#404040;fill-opacity:1;fill-rule:nonzero;stroke:none"
     id="path69"
     transform="matrix(0.35277776,0,0,-0.35277778,-9.6992899,166.75827)"
     clip-path="url(#clipPath962)" /><g
     id="g71"
     transform="matrix(2.3813656e-5,0,0,2.3816871e-5,46.87917,99.938525)"
     clip-path="url(#clipPath958)"><path
       d="M 0,0 H 1828126 V 963461 H 0 Z"
       style="fill:none;stroke:#ffffff;stroke-width:38100;stroke-linecap:butt;stroke-linejoin:miter;stroke-miterlimit:8;stroke-dasharray:none;stroke-opacity:1"
       id="path73" /></g><g
     id="g75"
     transform="matrix(0.08466666,0,0,-0.0846781,61.64423,316.95775)"><text
       xml:space="preserve"
       transform="matrix(1,0,0,-1,0,2404)"
       style="font-variant:normal;font-weight:normal;font-size:62.5px;font-family:Geneva;-inkscape-font-specification:Geneva;writing-mode:lr-tb;fill:#ffffff;fill-opacity:1;fill-rule:nonzero;stroke:none"
       id="text79"><tspan
         x="0 29.46875 45.5625 68.09375 99.375 130.65625"
         y="0"
         id="tspan77">FILTER</tspan></text></g><path
     d="m 90.41724,111.86555 13.19152,-0.10798 -0.007,-0.90738 -13.19156,0.10795 z m 12.7453,0.80314 2.71067,-1.38335 -2.73294,-1.33883 z"
     style="fill:#ffffff;fill-opacity:1;fill-rule:nonzero;stroke:none;stroke-width:0.352778"
     id="path81" /><path
     d="M 327.6071,189.7689 H 451.0116 V 124.7234 H 327.6071 Z"
     style="fill:#404040;fill-opacity:1;fill-rule:nonzero;stroke:none"
     id="path83"
     transform="matrix(0.35277776,0,0,-0.35277778,-9.6992899,166.75827)"
     clip-path="url(#clipPath954)" /><g
     id="g85"
     transform="matrix(2.3813656e-5,0,0,2.3816871e-5,105.87321,99.812025)"
     clip-path="url(#clipPath950)"><path
       d="M 0,0 H 1828126 V 963461 H 0 Z"
       style="fill:none;stroke:#ffffff;stroke-width:38100;stroke-linecap:butt;stroke-linejoin:miter;stroke-miterlimit:8;stroke-dasharray:none;stroke-opacity:1"
       id="path87" /></g><g
     id="g89"
     transform="matrix(0.08466666,0,0,-0.0846781,116.07537,313.57108)"><text
       xml:space="preserve"
       transform="matrix(1,0,0,-1,0,2404)"
       style="font-variant:normal;font-weight:normal;font-size:62.5px;font-family:Geneva;-inkscape-font-specification:Geneva;writing-mode:lr-tb;fill:#ffffff;fill-opacity:1;fill-rule:nonzero;stroke:none"
       id="text93"><tspan
         x="0 31.25625 72.762497 109.39375 140.64999 166.46875 208.91251 241.98125"
         y="0"
         id="tspan91">ENVELOPE</tspan></text></g><g
     id="g95"
     transform="matrix(0.08466666,0,0,-0.0846781,115.39186,319.92108)"><text
       xml:space="preserve"
       transform="matrix(1,0,0,-1,0,2404)"
       style="font-variant:normal;font-weight:normal;font-size:62.5px;font-family:Geneva;-inkscape-font-specification:Geneva;writing-mode:lr-tb;fill:#ffffff;fill-opacity:1;fill-rule:nonzero;stroke:none"
       id="text99"><tspan
         x="0 28.9 71.300003 98.512497 124.35 166.0625 223.21249 254.4875"
         y="0"
         id="tspan97">FOLLOWER</tspan></text></g><path
     d="m 493.8891,157.2462 c 0,11.8793 9.6288,21.5094 21.5066,21.5094 11.8777,0 21.5065,-9.6301 21.5065,-21.5094 0,-11.8794 -9.6288,-21.5095 -21.5065,-21.5095 -11.8778,0 -21.5066,9.6301 -21.5066,21.5095 z"
     style="fill:#bfbfbf;fill-opacity:1;fill-rule:evenodd;stroke:none"
     id="path101"
     transform="matrix(0.35277776,0,0,-0.35277778,-9.6992899,166.75827)"
     clip-path="url(#clipPath946)" /><g
     id="g103"
     transform="matrix(2.3813656e-5,0,0,2.3816871e-5,164.5338,103.69727)"
     clip-path="url(#clipPath942)"><path
       d="M 0,318600 C 0,142642.1 142642.1,0 318600,0 494557.9,0 637200,142642.1 637200,318600 637200,494557.9 494557.9,637200 318600,637200 142642.1,637200 0,494557.9 0,318600 Z"
       style="fill:none;stroke:#ffffff;stroke-width:38100;stroke-linecap:butt;stroke-linejoin:miter;stroke-miterlimit:8;stroke-dasharray:none;stroke-opacity:1"
       id="path105" /></g><g
     id="g107"
     transform="matrix(0.08466666,0,0,-0.0846781,167.26299,316.87308)"><text
       xml:space="preserve"
       transform="matrix(1,0,0,-1,0,2404)"
       style="font-variant:normal;font-weight:normal;font-size:62.5px;font-family:Geneva;-inkscape-font-specification:Geneva;writing-mode:lr-tb;fill:#000000;fill-opacity:1;fill-rule:nonzero;stroke:none"
       id="text111"><tspan
         x="0 42.418751 83.525002"
         y="0"
         id="tspan109">OUT</tspan></text></g><path
     d="m 149.40757,111.73905 12.85798,-4e-5 v -0.90741 l -12.85798,3e-5 z m 12.40434,0.90738 2.72189,-1.36113 -2.72189,-1.36112 z"
     style="fill:#ffffff;fill-opacity:1;fill-rule:nonzero;stroke:none;stroke-width:0.352778"
     id="path113" /><g
     id="g115"
     transform="matrix(0.08466666,0,0,-0.0846781,253.25102,305.86642)"><text
       xml:space="preserve"
       transform="matrix(1,0,0,-1,0,2404)"
       style="font-style:italic;font-variant:normal;font-size:62.5px;font-family:Geneva;-inkscape-font-specification:Geneva-Italic;writing-mode:lr-tb;fill:#ffffff;fill-opacity:1;fill-rule:nonzero;stroke:none"
       id="text119"><tspan
         x="0 27.237499 58.474998 95.087502 126.325 153.5625 168.3 197.91251"
         y="0"
         id="tspan117">LEVEL TO</tspan></text></g><g
     id="g121"
     transform="matrix(0.08466666,0,0,-0.0846781,253.99503,312.21642)"><text
       xml:space="preserve"
       transform="matrix(1,0,0,-1,0,2404)"
       style="font-style:italic;font-variant:normal;font-size:62.5px;font-family:Geneva;-inkscape-font-specification:Geneva-Italic;writing-mode:lr-tb;fill:#ffffff;fill-opacity:1;fill-rule:nonzero;stroke:none"
       id="text125"><tspan
         x="0 33.487499 70.537498 105.3375 140.1375 156.1875 187.425"
         y="0"
         id="tspan123">CARRIER</tspan></text></g><path
     d="m 706.2597,180.6582 26.1801,-0.2475 -0.0243,-2.5721 -26.1801,0.2474 z m 24.9186,2.3367 7.6788,-3.9311 -7.7518,-3.7852 z"
     style="fill:#ffffff;fill-opacity:1;fill-rule:nonzero;stroke:none"
     id="path127"
     transform="matrix(0.35277776,0,0,-0.35277778,-9.6992899,166.75827)"
     clip-path="url(#clipPath938)" /><path
     d="M 111.9888,411.7695 H 235.3933 V 346.724 H 111.9888 Z"
     style="fill:#404040;fill-opacity:1;fill-rule:nonzero;stroke:none"
     id="path129"
     transform="matrix(0.35277776,0,0,-0.35277778,-9.6992899,166.75827)"
     clip-path="url(#clipPath934)" /><g
     id="g131"
     transform="matrix(2.3813656e-5,0,0,2.3816871e-5,29.80787,21.495145)"
     clip-path="url(#clipPath930)"><path
       d="M 0,0 H 1828126 V 963461 H 0 Z"
       style="fill:none;stroke:#ffffff;stroke-width:38100;stroke-linecap:butt;stroke-linejoin:miter;stroke-miterlimit:8;stroke-dasharray:none;stroke-opacity:1"
       id="path133" /></g><g
     id="g135"
     transform="matrix(0.08466666,0,0,-0.0846781,42.11568,238.55642)"><text
       xml:space="preserve"
       transform="matrix(1,0,0,-1,0,2404)"
       style="font-variant:normal;font-weight:normal;font-size:62.5px;font-family:Geneva;-inkscape-font-specification:Geneva;writing-mode:lr-tb;fill:#ffffff;fill-opacity:1;fill-rule:nonzero;stroke:none"
       id="text139"><tspan
         x="0 33.043751 67.900002 98.443748 135.4875 190.40625"
         y="0"
         id="tspan137">PREAMP</tspan></text></g><path
     d="m 28.77998,400.7562 c 0,11.8794 9.6288,21.5095 21.50654,21.5095 11.87774,0 21.50655,-9.6301 21.50655,-21.5095 0,-11.8793 -9.62881,-21.5094 -21.50655,-21.5094 -11.87774,0 -21.50654,9.6301 -21.50654,21.5094 z"
     style="fill:#404040;fill-opacity:1;fill-rule:evenodd;stroke:none"
     id="path141"
     transform="matrix(0.35277776,0,0,-0.35277778,-9.6992899,166.75827)"
     clip-path="url(#clipPath926)" /><g
     id="g143"
     transform="matrix(2.3813656e-5,0,0,2.3816871e-5,0.45365015,17.792319)"
     clip-path="url(#clipPath922)"><path
       d="M 0,318600 C 0,142642.1 142642.1,0 318600,0 494557.9,0 637200,142642.1 637200,318600 637200,494557.9 494557.9,637200 318600,637200 142642.1,637200 0,494557.9 0,318600 Z"
       style="fill:none;stroke:#ffffff;stroke-width:38100;stroke-linecap:butt;stroke-linejoin:miter;stroke-miterlimit:8;stroke-dasharray:none;stroke-opacity:1"
       id="path145" /></g><g
     id="g147"
     transform="matrix(0.08466666,0,0,-0.0846781,3.5797801,230.93642)"><text
       xml:space="preserve"
       transform="matrix(1,0,0,-1,0,2404)"
       style="font-variant:normal;font-weight:normal;font-size:62.5px;font-family:Geneva;-inkscape-font-specification:Geneva;writing-mode:lr-tb;fill:#ffffff;fill-opacity:1;fill-rule:nonzero;stroke:none"
       id="text151"><tspan
         x="0 54.918751 70.962502"
         y="0"
         id="tspan149">MIC</tspan></text></g><path
     d="m 71.79307,402.0424 33.76603,-10e-5 v -2.5722 H 71.79307 Z m 32.48013,2.5721 7.7156,-3.8583 -7.7157,-3.8583 z"
     style="fill:#ffffff;fill-opacity:1;fill-rule:nonzero;stroke:none"
     id="path153"
     transform="matrix(0.35277776,0,0,-0.35277778,-9.6992899,166.75827)"
     clip-path="url(#clipPath918)" /><path
     d="m 28.77998,352.2307 c 0,11.8793 9.6288,21.5094 21.50654,21.5094 11.87774,0 21.50655,-9.6301 21.50655,-21.5094 0,-11.8793 -9.62881,-21.5095 -21.50655,-21.5095 -11.87774,0 -21.50654,9.6302 -21.50654,21.5095 z"
     style="fill:#404040;fill-opacity:1;fill-rule:evenodd;stroke:none"
     id="path155"
     transform="matrix(0.35277776,0,0,-0.35277778,-9.6992899,166.75827)"
     clip-path="url(#clipPath914)" /><g
     id="g157"
     transform="matrix(2.3813656e-5,0,0,2.3816871e-5,0.45365015,34.911072)"
     clip-path="url(#clipPath910)"><path
       d="M 0,318600 C 0,142642.1 142642.1,0 318600,0 494557.9,0 637200,142642.1 637200,318600 637200,494557.9 494557.9,637200 318600,637200 142642.1,637200 0,494557.9 0,318600 Z"
       style="fill:none;stroke:#ffffff;stroke-width:38100;stroke-linecap:butt;stroke-linejoin:miter;stroke-miterlimit:8;stroke-dasharray:none;stroke-opacity:1"
       id="path159" /></g><g
     id="g161"
     transform="matrix(0.08466666,0,0,-0.0846781,3.1261301,248.03908)"><text
       xml:space="preserve"
       transform="matrix(1,0,0,-1,0,2404)"
       style="font-variant:normal;font-weight:normal;font-size:62.5px;font-family:Geneva;-inkscape-font-specification:Geneva;writing-mode:lr-tb;fill:#ffffff;fill-opacity:1;fill-rule:nonzero;stroke:none"
       id="text165"><tspan
         x="0 27.237499 43.287498 84.837502"
         y="0"
         id="tspan163">LINE</tspan></text></g><path
     d="m 71.79307,353.5168 33.76603,-10e-5 v -2.5722 l -33.76603,10e-5 z m 32.48013,2.5722 7.7156,-3.8584 -7.7157,-3.8583 z"
     style="fill:#ffffff;fill-opacity:1;fill-rule:nonzero;stroke:none"
     id="path167"
     transform="matrix(0.35277776,0,0,-0.35277778,-9.6992899,166.75827)"
     clip-path="url(#clipPath906)" /><path
     d="M 667.309,428.1795 H 790.7135 V 363.1339 H 667.309 Z"
     style="fill:#404040;fill-opacity:1;fill-rule:nonzero;stroke:none"
     id="path169"
     transform="matrix(0.35277776,0,0,-0.35277778,-9.6992899,166.75827)"
     clip-path="url(#clipPath902)" /><g
     id="g171"
     transform="matrix(2.3813656e-5,0,0,2.3816871e-5,225.71248,15.706062)"
     clip-path="url(#clipPath898)"><path
       d="M 0,0 H 1828126 V 963461 H 0 Z"
       style="fill:none;stroke:#ffffff;stroke-width:38100;stroke-linecap:butt;stroke-linejoin:miter;stroke-miterlimit:8;stroke-dasharray:none;stroke-opacity:1"
       id="path173" /></g><g
     id="g175"
     transform="matrix(0.08466666,0,0,-0.0846781,241.50663,232.71442)"><text
       xml:space="preserve"
       transform="matrix(1,0,0,-1,0,2404)"
       style="font-variant:normal;font-weight:normal;font-size:62.5px;font-family:Geneva;-inkscape-font-specification:Geneva;writing-mode:lr-tb;fill:#ffffff;fill-opacity:1;fill-rule:nonzero;stroke:none"
       id="text179"><tspan
         x="0 37.0625 76.8125 106.25"
         y="0"
         id="tspan177">ADSR</tspan></text></g><path
     d="M 420.5,428.1795 H 543.9045 V 363.1339 H 420.5 Z"
     style="fill:#404040;fill-opacity:1;fill-rule:nonzero;stroke:none"
     id="path181"
     transform="matrix(0.35277776,0,0,-0.35277778,-9.6992899,166.75827)"
     clip-path="url(#clipPath894)" /><g
     id="g183"
     transform="matrix(2.3813656e-5,0,0,2.3816871e-5,138.64376,15.706062)"
     clip-path="url(#clipPath890)"><path
       d="M 0,0 H 1828126 V 963461 H 0 Z"
       style="fill:none;stroke:#ffffff;stroke-width:38100;stroke-linecap:butt;stroke-linejoin:miter;stroke-miterlimit:8;stroke-dasharray:none;stroke-opacity:1"
       id="path185" /></g><g
     id="g187"
     transform="matrix(0.08466666,0,0,-0.0846781,150.69525,232.71442)"><text
       xml:space="preserve"
       transform="matrix(1,0,0,-1,0,2404)"
       style="font-variant:normal;font-weight:normal;font-size:62.5px;font-family:Geneva;-inkscape-font-specification:Geneva;writing-mode:lr-tb;fill:#ffffff;fill-opacity:1;fill-rule:nonzero;stroke:none"
       id="text191"><tspan
         x="0 31.25625 66.074997 82.143753 122.775 163.40625 194.66251"
         y="0"
         id="tspan189">TRIGGER</tspan></text></g><path
     d="m 543.9045,394.3706 h 33.766 v 2.5723 l -33.766,-1e-4 z m 32.4801,-2.5722 7.7156,3.8584 -7.7156,3.8583 z"
     style="fill:#ffffff;fill-opacity:1;fill-rule:nonzero;stroke:none"
     id="path193"
     transform="matrix(0.35277776,0,0,-0.35277778,-9.6992899,166.75827)"
     clip-path="url(#clipPath886)" /><path
     d="m 584.1003,395.6568 c 0,11.8793 9.6288,21.5094 21.5065,21.5094 11.8777,0 21.5065,-9.6301 21.5065,-21.5094 0,-11.8794 -9.6288,-21.5095 -21.5065,-21.5095 -11.8777,0 -21.5065,9.6301 -21.5065,21.5095 z"
     style="fill:#404040;fill-opacity:1;fill-rule:evenodd;stroke:none"
     id="path195"
     transform="matrix(0.35277776,0,0,-0.35277778,-9.6992899,166.75827)"
     clip-path="url(#clipPath882)" /><g
     id="g197"
     transform="matrix(2.3813656e-5,0,0,2.3816871e-5,196.35831,19.591309)"
     clip-path="url(#clipPath878)"><path
       d="M 0,318600 C 0,142642.1 142642.1,0 318600,0 494557.9,0 637200,142642.1 637200,318600 637200,494557.9 494557.9,637200 318600,637200 142642.1,637200 0,494557.9 0,318600 Z"
       style="fill:none;stroke:#ffffff;stroke-width:38100;stroke-linecap:butt;stroke-linejoin:miter;stroke-miterlimit:8;stroke-dasharray:none;stroke-opacity:1"
       id="path199" /></g><g
     id="g201"
     transform="matrix(0.08466666,0,0,-0.0846781,198.74725,232.71442)"><text
       xml:space="preserve"
       transform="matrix(1,0,0,-1,0,2404)"
       style="font-variant:normal;font-weight:normal;font-size:62.5px;font-family:Geneva;-inkscape-font-specification:Geneva;writing-mode:lr-tb;fill:#ffffff;fill-opacity:1;fill-rule:nonzero;stroke:none"
       id="text205"><tspan
         x="0 31.25625 66.074997 82.143753"
         y="0"
         id="tspan203">TRIG</tspan></text></g><path
     d="m 627.1133,396.9429 33.7661,-1e-4 -1e-4,-2.5722 h -33.766 z m 32.4801,2.5721 7.7156,-3.8583 -7.7156,-3.8583 z"
     style="fill:#ffffff;fill-opacity:1;fill-rule:nonzero;stroke:none"
     id="path207"
     transform="matrix(0.35277776,0,0,-0.35277778,-9.6992899,166.75827)"
     clip-path="url(#clipPath874)" /><path
     d="m 330.2837,400.4135 c 0,6.5388 -5.3,11.8395 -11.8379,11.8395 h -47.3502 c -6.5379,0 -11.8379,-5.3007 -11.8379,-11.8395 v -47.3566 c 0,-6.5388 5.3,-11.8395 11.8379,-11.8395 h 47.3502 c 6.5379,0 11.8379,5.3007 11.8379,11.8395 z"
     style="fill:#404040;fill-opacity:1;fill-rule:evenodd;stroke:none"
     id="path209"
     transform="matrix(0.35277776,0,0,-0.35277778,-9.6992899,166.75827)"
     clip-path="url(#clipPath870)" /><g
     id="g211"
     transform="matrix(-2.3813656e-5,0,0,2.3816871e-5,106.81745,21.324577)"
     clip-path="url(#clipPath866)"><path
       d="M 0,175367.8 C 0,78514.83 78514.83,0 175367.8,0 h 701450.4 c 96853,0 175367.8,78514.83 175367.8,175367.8 v 701450.4 c 0,96853 -78514.8,175367.8 -175367.8,175367.8 H 175367.8 C 78514.83,1052186 0,973671.2 0,876818.2 Z"
       style="fill:none;stroke:#ffffff;stroke-width:38100;stroke-linecap:butt;stroke-linejoin:miter;stroke-miterlimit:8;stroke-dasharray:114300, 38100;stroke-dashoffset:0;stroke-opacity:1"
       id="path213" /></g><path
     d="m 321.2131,394.7121 c 0,4.2283 -3.4429,7.6559 -7.69,7.6559 -4.2471,0 -7.69,-3.4276 -7.69,-7.6559 0,-4.2282 3.4429,-7.6559 7.69,-7.6559 4.2471,0 7.69,3.4277 7.69,7.6559 z"
     style="fill:#000000;fill-opacity:1;fill-rule:evenodd;stroke:none"
     id="path215"
     transform="matrix(0.35277776,0,0,-0.35277778,-9.6992899,166.75827)"
     clip-path="url(#clipPath862)" /><g
     id="g217"
     transform="matrix(-2.3813656e-5,0,0,2.3816871e-5,103.61755,24.811785)"
     clip-path="url(#clipPath858)"><path
       d="M 0,113400 C 0,50770.91 51003.94,0 113920.5,0 176837,0 227841,50770.91 227841,113400 c 0,62629.1 -51004,113400 -113920.5,113400 C 51003.94,226800 0,176029.1 0,113400 Z"
       style="fill:none;stroke:#ffffff;stroke-width:38100;stroke-linecap:butt;stroke-linejoin:miter;stroke-miterlimit:8;stroke-dasharray:none;stroke-opacity:1"
       id="path219" /></g><path
     d="m 321.1428,363.416 c 0,4.2283 -3.4272,7.6559 -7.6549,7.6559 -4.2276,0 -7.6548,-3.4276 -7.6548,-7.6559 0,-4.2282 3.4272,-7.6559 7.6548,-7.6559 4.2277,0 7.6549,3.4277 7.6549,7.6559 z"
     style="fill:#000000;fill-opacity:1;fill-rule:evenodd;stroke:none"
     id="path221"
     transform="matrix(0.35277776,0,0,-0.35277778,-9.6992899,166.75827)"
     clip-path="url(#clipPath854)" /><g
     id="g223"
     transform="matrix(-2.3813656e-5,0,0,2.3816871e-5,103.59275,35.852354)"
     clip-path="url(#clipPath850)"><path
       d="M 0,113400 C 0,50770.91 50770.91,0 113400,0 c 62629.1,0 113400,50770.91 113400,113400 0,62629.1 -50770.9,113400 -113400,113400 C 50770.91,226800 0,176029.1 0,113400 Z"
       style="fill:none;stroke:#ffffff;stroke-width:38100;stroke-linecap:butt;stroke-linejoin:miter;stroke-miterlimit:8;stroke-dasharray:none;stroke-opacity:1"
       id="path225" /></g><path
     d="m 283.2881,378.7278 c 0,4.2283 -3.4272,7.6559 -7.6549,7.6559 -4.2276,0 -7.6548,-3.4276 -7.6548,-7.6559 0,-4.2282 3.4272,-7.6559 7.6548,-7.6559 4.2277,0 7.6549,3.4277 7.6549,7.6559 z"
     style="fill:#000000;fill-opacity:1;fill-rule:evenodd;stroke:none"
     id="path227"
     transform="matrix(0.35277776,0,0,-0.35277778,-9.6992899,166.75827)"
     clip-path="url(#clipPath846)" /><g
     id="g229"
     transform="matrix(-2.3813656e-5,0,0,2.3816871e-5,90.23845,30.450691)"
     clip-path="url(#clipPath842)"><path
       d="M 0,113400 C 0,50770.91 50770.91,0 113400,0 c 62629.1,0 113400,50770.91 113400,113400 0,62629.1 -50770.9,113400 -113400,113400 C 50770.91,226800 0,176029.1 0,113400 Z"
       style="fill:none;stroke:#ffffff;stroke-width:38100;stroke-linecap:butt;stroke-linejoin:miter;stroke-miterlimit:8;stroke-dasharray:none;stroke-opacity:1"
       id="path231" /></g><g
     id="g233"
     transform="matrix(-2.3813656e-5,0,0,-2.3816871e-5,98.38367,37.593841)"
     clip-path="url(#clipPath838)"><path
       d="M 0,0 342039,157005"
       style="fill:none;stroke:#ffffff;stroke-width:38100;stroke-linecap:butt;stroke-linejoin:miter;stroke-miterlimit:8;stroke-dasharray:none;stroke-opacity:1"
       id="path235" /></g><path
     d="m 235.4137,380.5327 26.1563,-0.4165 -0.041,-2.5719 -26.1562,0.4165 z m 24.9115,2.1758 7.6532,-3.9807 -7.7761,-3.735 z"
     style="fill:#ffffff;fill-opacity:1;fill-rule:nonzero;stroke:none"
     id="path237"
     transform="matrix(0.35277776,0,0,-0.35277778,-9.6992899,166.75827)"
     clip-path="url(#clipPath834)" /><path
     d="m 321.1428,362.1299 h 33.0675 l -1.286,1.2861 v -54.0857 l 1.286,1.2862 H 95.16337 V 155.6014 h 58.78683 v 2.5722 H 96.44931 l 1.28594,-1.2861 v 152.4428 l -1.28594,-1.2861 H 355.4962 v 56.6579 h -34.3534 z m -168.4786,-209.1007 7.7156,3.8583 -7.7156,3.8583 z"
     style="fill:#ffffff;fill-opacity:1;fill-rule:nonzero;stroke:none"
     id="path239"
     transform="matrix(0.35277776,0,0,-0.35277778,-9.6992899,166.75827)"
     clip-path="url(#clipPath830)" /><path
     d="m 321.2253,393.4261 92.8575,0.8834 -0.0245,2.5721 -92.8574,-0.8834 z m 91.5961,-1.701 7.6786,3.9316 -7.7519,3.7848 z"
     style="fill:#ffffff;fill-opacity:1;fill-rule:nonzero;stroke:none"
     id="path241"
     transform="matrix(0.35277776,0,0,-0.35277778,-9.6992899,166.75827)"
     clip-path="url(#clipPath826)" /><path
     d="m 613.2373,229.689 93.0103,-50.3169 -93.0103,-50.3169 z"
     style="fill:#404040;fill-opacity:1;fill-rule:evenodd;stroke:none"
     id="path243"
     transform="matrix(0.35277776,0,0,-0.35277778,-9.6992899,166.75827)"
     clip-path="url(#clipPath822)" /><g
     id="g245"
     transform="matrix(0,2.3816871e-5,-2.3813656e-5,0,239.44916,85.729095)"
     clip-path="url(#clipPath818)"><path
       d="M 0,1377863 745298.5,0 1490597,1377863 Z"
       style="fill:none;stroke:#ffffff;stroke-width:38100;stroke-linecap:butt;stroke-linejoin:miter;stroke-miterlimit:8;stroke-dasharray:none;stroke-opacity:1"
       id="path247" /></g><g
     id="g249"
     transform="matrix(0.08466666,0,0,-0.0846781,209.5287,309.08375)"><text
       xml:space="preserve"
       transform="matrix(1,0,0,-1,0,2404)"
       style="font-variant:normal;font-weight:normal;font-size:62.5px;font-family:Geneva;-inkscape-font-specification:Geneva;writing-mode:lr-tb;fill:#ffffff;fill-opacity:1;fill-rule:nonzero;stroke:none"
       id="text253"><tspan
         x="0 29.46875 70.5625"
         y="0"
         id="tspan251">SUM</tspan></text></g><path
     d="m 536.9022,158.5323 69.9055,-1e-4 V 155.96 l -69.9055,1e-4 z m 68.6195,2.5722 7.7157,-3.8584 -7.7157,-3.8583 z"
     style="fill:#ffffff;fill-opacity:1;fill-rule:nonzero;stroke:none"
     id="path255"
     transform="matrix(0.35277776,0,0,-0.35277778,-9.6992899,166.75827)"
     clip-path="url(#clipPath814)" /><path
     d="m 790.7135,394.3706 h 15.4316 l -1.2859,1.2861 V 294.5091 l 1.2859,1.2861 H 596.5198 V 178.086 h 10.2879 v 2.5722 h -9.002 l 1.286,-1.2861 v 115.137 l -1.286,-1.2861 h 209.6254 v 103.7198 h -16.7176 z m -185.1918,-218.8568 7.7157,3.8583 -7.7157,3.8583 z"
     style="fill:#ffffff;fill-opacity:1;fill-rule:nonzero;stroke:none"
     id="path257"
     transform="matrix(0.35277776,0,0,-0.35277778,-9.6992899,166.75827)"
     clip-path="url(#clipPath810)" /><path
     d="m 174.977,439.6468 v -21.4467 h -2.5719 v 21.4467 z m 2.5719,-20.1606 -3.8578,-7.7167 -3.8578,7.7167 z"
     style="fill:#ffffff;fill-opacity:1;fill-rule:nonzero;stroke:none"
     id="path259"
     transform="matrix(0.35277776,0,0,-0.35277778,-9.6992899,166.75827)"
     clip-path="url(#clipPath806)" /><g
     id="g261"
     transform="matrix(0.08466666,0,0,-0.0846781,45.84768,214.08775)"><text
       xml:space="preserve"
       transform="matrix(1,0,0,-1,0,2404)"
       style="font-variant:normal;font-weight:normal;font-size:62.5px;font-family:Geneva;-inkscape-font-specification:Geneva;writing-mode:lr-tb;fill:#ffffff;fill-opacity:1;fill-rule:nonzero;stroke:none"
       id="text265"><tspan
         x="0 40.631248 77.699997 93.768753"
         y="0"
         id="tspan263">GAIN</tspan></text></g><path
     d="m 695.9654,456.0568 v -21.4467 h -2.5719 v 21.4467 z m 2.5719,-20.1606 -3.8578,-7.7167 -3.8578,7.7167 z"
     style="fill:#ffffff;fill-opacity:1;fill-rule:nonzero;stroke:none"
     id="path267"
     transform="matrix(0.35277776,0,0,-0.35277778,-9.6992899,166.75827)"
     clip-path="url(#clipPath802)" /><path
     d="m 754.0162,456.0568 10e-5,-21.4467 h -2.5719 v 21.4467 z m 2.572,-20.1606 -3.8578,-7.7167 -3.8579,7.7167 z"
     style="fill:#ffffff;fill-opacity:1;fill-rule:nonzero;stroke:none"
     id="path269"
     transform="matrix(0.35277776,0,0,-0.35277778,-9.6992899,166.75827)"
     clip-path="url(#clipPath798)" /><g
     id="g271"
     transform="matrix(0.08466666,0,0,-0.0846781,225.4449,207.73775)"><text
       xml:space="preserve"
       transform="matrix(1,0,0,-1,0,2404)"
       style="font-variant:normal;font-weight:normal;font-size:62.5px;font-family:Geneva;-inkscape-font-specification:Geneva;writing-mode:lr-tb;fill:#ffffff;fill-opacity:1;fill-rule:nonzero;stroke:none"
       id="text275"><tspan
         x="0 32.043751 64.150002 90.381248 126.9875 161.34375"
         y="0"
         id="tspan273">ATTACK</tspan></text></g><g
     id="g277"
     transform="matrix(0.08466666,0,0,-0.0846781,246.04282,207.48375)"><text
       xml:space="preserve"
       transform="matrix(1,0,0,-1,0,2404)"
       style="font-variant:normal;font-weight:normal;font-size:62.5px;font-family:Geneva;-inkscape-font-specification:Geneva;writing-mode:lr-tb;fill:#ffffff;fill-opacity:1;fill-rule:nonzero;stroke:none"
       id="text281"><tspan
         x="0 34.825001 66.087502 93.349998 123.925 161 190.45"
         y="0"
         id="tspan279">RELEASE</tspan></text></g></svg>
