<?xml version="1.0" encoding="UTF-8" standalone="no"?>
<!-- Created with Inkscape (http://www.inkscape.org/) -->

<svg
   version="1.1"
   id="svg1202"
   width="763.10974"
   height="417.8201"
   viewBox="0 0 763.10977 417.8201"
   xmlns="http://www.w3.org/2000/svg"
   xmlns:svg="http://www.w3.org/2000/svg">
  <defs
     id="defs1206">
    <clipPath
       clipPathUnits="userSpaceOnUse"
       id="clipPath1220">
      <path
         d="M 9.000031,66.2756 H 831.96003 v 463 H 9.000031 Z"
         id="path1218" />
    </clipPath>
    <clipPath
       clipPathUnits="userSpaceOnUse"
       id="clipPath1756">
      <path
         d="M -1090646,5634878.3 H 11101354 V -1223122.2 H -1090646 Z"
         id="path1758"
         style="stroke-width:14813.1" />
    </clipPath>
    <clipPath
       clipPathUnits="userSpaceOnUse"
       id="clipPath1760">
      <path
         d="M -8877639.3,1831715.7 H 3314360.4 V -5026284.8 H -8877639.3 Z"
         id="path1762"
         style="stroke-width:14813.1" />
    </clipPath>
    <clipPath
       clipPathUnits="userSpaceOnUse"
       id="clipPath1764">
      <path
         d="M -5293832.7,1831715.7 H 6898167 V -5026284.8 H -5293832.7 Z"
         id="path1766"
         style="stroke-width:14813.1" />
    </clipPath>
    <clipPath
       clipPathUnits="userSpaceOnUse"
       id="clipPath1768">
      <path
         d="M -6490272.3,1994847.2 H 5701727.3 V -4863153.3 H -6490272.3 Z"
         id="path1770"
         style="stroke-width:14813.1" />
    </clipPath>
    <clipPath
       clipPathUnits="userSpaceOnUse"
       id="clipPath1772">
      <path
         d="M -1700417.7,1831715.7 H 10491582 V -5026284.8 H -1700417.7 Z"
         id="path1774"
         style="stroke-width:14813.1" />
    </clipPath>
    <clipPath
       clipPathUnits="userSpaceOnUse"
       id="clipPath1776">
      <path
         d="M -3562121.3,3104631.7 H 8629878.4 V -3753368.8 H -3562121.3 Z"
         id="path1778"
         style="stroke-width:14813.1" />
    </clipPath>
    <clipPath
       clipPathUnits="userSpaceOnUse"
       id="clipPath1780">
      <path
         d="M -2827075.5,3113775.2 H 9364924.1 V -3744225.3 H -2827075.5 Z"
         id="path1782"
         style="stroke-width:14813.1" />
    </clipPath>
    <clipPath
       clipPathUnits="userSpaceOnUse"
       id="clipPath1784">
      <path
         d="M -2906467.2,1994845.7 H 9285532.4 V -4863154.7 H -2906467.2 Z"
         id="path1786"
         style="stroke-width:14813.1" />
    </clipPath>
    <clipPath
       clipPathUnits="userSpaceOnUse"
       id="clipPath1788">
      <path
         d="M -3562121.3,4339322.1 H 8629878.4 V -2518678.4 H -3562121.3 Z"
         id="path1790"
         style="stroke-width:14813.1" />
    </clipPath>
    <clipPath
       clipPathUnits="userSpaceOnUse"
       id="clipPath1792">
      <path
         d="M -1074354,4502450.6 H 11117646 V -2355549.8 H -1074354 Z"
         id="path1794"
         style="stroke-width:14813.1" />
    </clipPath>
  </defs>
  <g
     id="g1210"
     transform="matrix(1.3333333,0,0,-1.3333333,-106.98201,597.3144)">
    <g
       id="g1212" />
    <path
       d="M 81.52245,370.2468 H 204.9269 V 305.2013 H 81.52245 Z"
       style="fill:#404040;fill-opacity:1;fill-rule:nonzero;stroke:none"
       id="path1234" />
    <g
       id="g1236"
       transform="matrix(6.750328e-5,0,0,-6.751239e-5,81.52245,370.2468)"
       clip-path="url(#clipPath1792)">
      <path
         d="M 0,0 H 1828126 V 963461 H 0 Z"
         style="fill:none;stroke:#ffffff;stroke-width:38100;stroke-linecap:butt;stroke-linejoin:miter;stroke-miterlimit:8;stroke-dasharray:none;stroke-opacity:1"
         id="path1238" />
    </g>
    <g
       id="g1240"
       transform="matrix(0.24,0,0,0.2400324,131.3983,-245.0423)">
      <text
         xml:space="preserve"
         transform="matrix(1,0,0,-1,0,2404)"
         style="font-variant:normal;font-weight:normal;font-size:62.5px;font-family:Geneva;-inkscape-font-specification:Geneva;writing-mode:lr-tb;fill:#ffffff;fill-opacity:1;fill-rule:nonzero;stroke:none"
         id="text1244"><tspan
           x="0 27.237499 56.162498"
           y="0"
           id="tspan1242">LFO</tspan></text>
    </g>
    <path
       d="m 249.4549,337.7241 c 0,11.8793 9.6288,21.5095 21.5065,21.5095 11.8778,0 21.5066,-9.6302 21.5066,-21.5095 0,-11.8793 -9.6288,-21.5094 -21.5066,-21.5094 -11.8777,0 -21.5065,9.6301 -21.5065,21.5094 z"
       style="fill:#bfbfbf;fill-opacity:1;fill-rule:evenodd;stroke:none"
       id="path1246" />
    <g
       id="g1248"
       transform="matrix(6.750328e-5,0,0,-6.751239e-5,249.4549,359.2336)"
       clip-path="url(#clipPath1788)">
      <path
         d="M 0,318600 C 0,142642.1 142642.1,0 318600,0 494557.9,0 637200,142642.1 637200,318600 637200,494557.9 494557.9,637200 318600,637200 142642.1,637200 0,494557.9 0,318600 Z"
         style="fill:none;stroke:#ffffff;stroke-width:38100;stroke-linecap:butt;stroke-linejoin:miter;stroke-miterlimit:8;stroke-dasharray:none;stroke-opacity:1"
         id="path1250" />
    </g>
    <g
       id="g1252"
       transform="matrix(0.24,0,0,0.2400324,257.1912,-245.0423)">
      <text
         xml:space="preserve"
         transform="matrix(1,0,0,-1,0,2404)"
         style="font-variant:normal;font-weight:normal;font-size:62.5px;font-family:Geneva;-inkscape-font-specification:Geneva;writing-mode:lr-tb;fill:#000000;fill-opacity:1;fill-rule:nonzero;stroke:none"
         id="text1256"><tspan
           x="0 42.418751 83.525002"
           y="0"
           id="tspan1254">OUT</tspan></text>
    </g>
    <path
       d="m 204.927,336.4379 38.0982,10e-5 v 2.5722 l -38.0983,-10e-5 z m 36.8123,-2.5721 7.7156,3.8583 -7.7156,3.8583 z"
       style="fill:#ffffff;fill-opacity:1;fill-rule:nonzero;stroke:none"
       id="path1258" />
    <path
       d="M 205.1961,200.9524 H 328.6006 V 135.9068 H 205.1961 Z"
       style="fill:#404040;fill-opacity:1;fill-rule:nonzero;stroke:none"
       id="path1260" />
    <g
       id="g1262"
       transform="matrix(6.750328e-5,0,0,-6.751239e-5,205.1961,200.9524)"
       clip-path="url(#clipPath1784)">
      <path
         d="M 0,0 H 1828126 V 963461 H 0 Z"
         style="fill:none;stroke:#ffffff;stroke-width:38100;stroke-linecap:butt;stroke-linejoin:miter;stroke-miterlimit:8;stroke-dasharray:none;stroke-opacity:1"
         id="path1264" />
    </g>
    <g
       id="g1266"
       transform="matrix(0.24,0,0,0.2400324,253.426,-414.2423)">
      <text
         xml:space="preserve"
         transform="matrix(1,0,0,-1,0,2404)"
         style="font-variant:normal;font-weight:normal;font-size:62.5px;font-family:Geneva;-inkscape-font-specification:Geneva;writing-mode:lr-tb;fill:#ffffff;fill-opacity:1;fill-rule:nonzero;stroke:none"
         id="text1270"><tspan
           x="0 36.043751 69.837502"
           y="0"
           id="tspan1268">VCO</tspan></text>
    </g>
    <path
       d="m 328.6006,167.1434 31.3208,10e-5 v 2.5723 l -31.3208,-1e-4 z m 30.0349,-2.5721 7.7156,3.8584 -7.7156,3.8583 z"
       style="fill:#ffffff;fill-opacity:1;fill-rule:nonzero;stroke:none"
       id="path1272" />
    <path
       d="m 199.8369,254.9846 c 0,11.8793 9.6288,21.5094 21.5065,21.5094 11.8777,0 21.5066,-9.6301 21.5066,-21.5094 0,-11.8794 -9.6289,-21.5095 -21.5066,-21.5095 -11.8777,0 -21.5065,9.6301 -21.5065,21.5095 z"
       style="fill:#404040;fill-opacity:1;fill-rule:evenodd;stroke:none"
       id="path1274" />
    <g
       id="g1276"
       transform="matrix(6.750328e-5,0,0,-6.751239e-5,199.8369,276.494)"
       clip-path="url(#clipPath1780)">
      <path
         d="M 0,318600 C 0,142642.1 142642.1,0 318600,0 494557.9,0 637200,142642.1 637200,318600 637200,494557.9 494557.9,637200 318600,637200 142642.1,637200 0,494557.9 0,318600 Z"
         style="fill:none;stroke:#ffffff;stroke-width:38100;stroke-linecap:butt;stroke-linejoin:miter;stroke-miterlimit:8;stroke-dasharray:none;stroke-opacity:1"
         id="path1278" />
    </g>
    <g
       id="g1280"
       transform="matrix(0.24,0,0,0.2400324,205.8179,-327.8423)">
      <text
         xml:space="preserve"
         transform="matrix(1,0,0,-1,0,2404)"
         style="font-variant:normal;font-weight:normal;font-size:62.5px;font-family:Geneva;-inkscape-font-specification:Geneva;writing-mode:lr-tb;fill:#ffffff;fill-opacity:1;fill-rule:nonzero;stroke:none"
         id="text1284"><tspan
           x="0 34.825001 66.837502 98.099998"
           y="0"
           id="tspan1282">RATE</tspan></text>
    </g>
    <path
       d="m 222.6293,233.4751 1e-4,-26.0922 h -2.5719 v 26.0922 z m 2.572,-24.8061 -3.8578,-7.7166 -3.8579,7.7166 z"
       style="fill:#ffffff;fill-opacity:1;fill-rule:nonzero;stroke:none"
       id="path1286" />
    <g
       id="g1288"
       transform="matrix(0.24,0,0,0.2400324,303.5598,-337.6823)">
      <text
         xml:space="preserve"
         transform="matrix(1,0,0,-1,0,2404)"
         style="font-variant:normal;font-weight:normal;font-size:62.5px;font-family:Geneva;-inkscape-font-specification:Geneva;writing-mode:lr-tb;fill:#ffffff;fill-opacity:1;fill-rule:nonzero;stroke:none"
         id="text1292"><tspan
           x="0 54.243752 88.487503 125.10625 156.35001 185.28125 227.71249 262.51874"
           y="0"
           id="tspan1290">WAVEFORM</tspan></text>
    </g>
    <path
       d="m 313.8004,234.0826 10e-5,-26.6997 h -2.5719 l -10e-5,26.6997 z m 2.5719,-25.4136 -3.8578,-7.7166 -3.8578,7.7166 z"
       style="fill:#ffffff;fill-opacity:1;fill-rule:nonzero;stroke:none"
       id="path1294" />
    <path
       d="m 249.4549,254.3673 c 0,11.8793 9.6288,21.5094 21.5065,21.5094 11.8778,0 21.5066,-9.6301 21.5066,-21.5094 0,-11.8794 -9.6288,-21.5095 -21.5066,-21.5095 -11.8777,0 -21.5065,9.6301 -21.5065,21.5095 z"
       style="fill:#404040;fill-opacity:1;fill-rule:evenodd;stroke:none"
       id="path1296" />
    <g
       id="g1298"
       transform="matrix(6.750328e-5,0,0,-6.751239e-5,249.4549,275.8767)"
       clip-path="url(#clipPath1776)">
      <path
         d="M 0,318600 C 0,142642.1 142642.1,0 318600,0 494557.9,0 637200,142642.1 637200,318600 637200,494557.9 494557.9,637200 318600,637200 142642.1,637200 0,494557.9 0,318600 Z"
         style="fill:none;stroke:#ffffff;stroke-width:38100;stroke-linecap:butt;stroke-linejoin:miter;stroke-miterlimit:8;stroke-dasharray:none;stroke-opacity:1"
         id="path1300" />
    </g>
    <g
       id="g1302"
       transform="matrix(0.24,0,0,0.2400324,253.5477,-328.3223)">
      <text
         xml:space="preserve"
         transform="matrix(1,0,0,-1,0,2404)"
         style="font-variant:normal;font-weight:normal;font-size:62.5px;font-family:Geneva;-inkscape-font-specification:Geneva;writing-mode:lr-tb;fill:#ffffff;fill-opacity:1;fill-rule:nonzero;stroke:none"
         id="text1306"><tspan
           x="0 33.043751 90.212502"
           y="0"
           id="tspan1304">PWM</tspan></text>
    </g>
    <path
       d="m 272.2474,232.8579 v -26.0922 h -2.5719 v 26.0921 z m 2.5719,-24.8061 -3.8578,-7.7167 -3.8578,7.7167 z"
       style="fill:#ffffff;fill-opacity:1;fill-rule:nonzero;stroke:none"
       id="path1308" />
    <path
       d="m 123.7838,168.4296 c 0,11.8794 9.6288,21.5095 21.5066,21.5095 11.8777,0 21.5065,-9.6301 21.5065,-21.5095 0,-11.8793 -9.6288,-21.5094 -21.5065,-21.5094 -11.8778,0 -21.5066,9.6301 -21.5066,21.5094 z"
       style="fill:#404040;fill-opacity:1;fill-rule:evenodd;stroke:none"
       id="path1310" />
    <g
       id="g1312"
       transform="matrix(6.750328e-5,0,0,-6.751239e-5,123.7838,189.9391)"
       clip-path="url(#clipPath1772)">
      <path
         d="M 0,318600 C 0,142642.1 142642.1,0 318600,0 494557.9,0 637200,142642.1 637200,318600 637200,494557.9 494557.9,637200 318600,637200 142642.1,637200 0,494557.9 0,318600 Z"
         style="fill:none;stroke:#ffffff;stroke-width:38100;stroke-linecap:butt;stroke-linejoin:miter;stroke-miterlimit:8;stroke-dasharray:none;stroke-opacity:1"
         id="path1314" />
    </g>
    <g
       id="g1316"
       transform="matrix(0.24,0,0,0.2400324,135.1636,-414.2423)">
      <text
         xml:space="preserve"
         transform="matrix(1,0,0,-1,0,2404)"
         style="font-variant:normal;font-weight:normal;font-size:62.5px;font-family:Geneva;-inkscape-font-specification:Geneva;writing-mode:lr-tb;fill:#ffffff;fill-opacity:1;fill-rule:nonzero;stroke:none"
         id="text1320"><tspan
           x="0 29.46875"
           y="0"
           id="tspan1318">FM</tspan></text>
    </g>
    <path
       d="m 166.7969,169.7157 h 31.9695 v -2.5722 h -31.9695 z m 30.6836,2.5722 7.7156,-3.8583 -7.7157,-3.8584 z"
       style="fill:#ffffff;fill-opacity:1;fill-rule:nonzero;stroke:none"
       id="path1322" />
    <path
       d="M 447.1147,200.9525 H 570.5192 V 135.9069 H 447.1147 Z"
       style="fill:#404040;fill-opacity:1;fill-rule:nonzero;stroke:none"
       id="path1324" />
    <g
       id="g1326"
       transform="matrix(6.750328e-5,0,0,-6.751239e-5,447.1147,200.9525)"
       clip-path="url(#clipPath1768)">
      <path
         d="M 0,0 H 1828126 V 963461 H 0 Z"
         style="fill:none;stroke:#ffffff;stroke-width:38100;stroke-linecap:butt;stroke-linejoin:miter;stroke-miterlimit:8;stroke-dasharray:none;stroke-opacity:1"
         id="path1328" />
    </g>
    <g
       id="g1330"
       transform="matrix(0.24,0,0,0.2400324,476.1156,-414.2423)">
      <text
         xml:space="preserve"
         transform="matrix(1,0,0,-1,0,2404)"
         style="font-variant:normal;font-weight:normal;font-size:62.5px;font-family:Geneva;-inkscape-font-specification:Geneva;writing-mode:lr-tb;fill:#ffffff;fill-opacity:1;fill-rule:nonzero;stroke:none"
         id="text1334"><tspan
           x="0 29.46875 63.4375 97.40625 129.5625 151.90625 180.9375 215.46875"
           y="0"
           id="tspan1332">SuperSAW</tspan></text>
    </g>
    <path
       d="m 366.3511,168.4297 c 0,11.8793 9.6288,21.5094 21.5066,21.5094 11.8777,0 21.5065,-9.6301 21.5065,-21.5094 0,-11.8794 -9.6288,-21.5095 -21.5065,-21.5095 -11.8778,0 -21.5066,9.6301 -21.5066,21.5095 z"
       style="fill:#404040;fill-opacity:1;fill-rule:evenodd;stroke:none"
       id="path1336" />
    <g
       id="g1338"
       transform="matrix(6.750328e-5,0,0,-6.751239e-5,366.3511,189.9391)"
       clip-path="url(#clipPath1764)">
      <path
         d="M 0,318600 C 0,142642.1 142642.1,0 318600,0 494557.9,0 637200,142642.1 637200,318600 637200,494557.9 494557.9,637200 318600,637200 142642.1,637200 0,494557.9 0,318600 Z"
         style="fill:none;stroke:#ffffff;stroke-width:38100;stroke-linecap:butt;stroke-linejoin:miter;stroke-miterlimit:8;stroke-dasharray:none;stroke-opacity:1"
         id="path1340" />
    </g>
    <g
       id="g1342"
       transform="matrix(0.24,0,0,0.2400324,380.9457,-414.2423)">
      <text
         xml:space="preserve"
         transform="matrix(1,0,0,-1,0,2404)"
         style="font-variant:normal;font-weight:normal;font-size:62.5px;font-family:Geneva;-inkscape-font-specification:Geneva;writing-mode:lr-tb;fill:#ffffff;fill-opacity:1;fill-rule:nonzero;stroke:none"
         id="text1346"><tspan
           x="0 16.075001"
           y="0"
           id="tspan1344">IN</tspan></text>
    </g>
    <path
       d="m 409.3642,169.7158 31.3208,-1e-4 v -2.5722 l -31.3208,1e-4 z m 30.0349,2.5722 7.7156,-3.8584 -7.7156,-3.8583 z"
       style="fill:#ffffff;fill-opacity:1;fill-rule:nonzero;stroke:none"
       id="path1348" />
    <path
       d="m 608.2698,168.4297 c 0,11.8793 9.6288,21.5094 21.5065,21.5094 11.8777,0 21.5066,-9.6301 21.5066,-21.5094 0,-11.8794 -9.6289,-21.5095 -21.5066,-21.5095 -11.8777,0 -21.5065,9.6301 -21.5065,21.5095 z"
       style="fill:#bfbfbf;fill-opacity:1;fill-rule:evenodd;stroke:none"
       id="path1350" />
    <g
       id="g1352"
       transform="matrix(6.750328e-5,0,0,-6.751239e-5,608.2698,189.9391)"
       clip-path="url(#clipPath1760)">
      <path
         d="M 0,318600 C 0,142642.1 142642.1,0 318600,0 494557.9,0 637200,142642.1 637200,318600 637200,494557.9 494557.9,637200 318600,637200 142642.1,637200 0,494557.9 0,318600 Z"
         style="fill:none;stroke:#ffffff;stroke-width:38100;stroke-linecap:butt;stroke-linejoin:miter;stroke-miterlimit:8;stroke-dasharray:none;stroke-opacity:1"
         id="path1354" />
    </g>
    <g
       id="g1356"
       transform="matrix(0.24,0,0,0.2400324,616.0061,-414.2423)">
      <text
         xml:space="preserve"
         transform="matrix(1,0,0,-1,0,2404)"
         style="font-variant:normal;font-weight:normal;font-size:62.5px;font-family:Geneva;-inkscape-font-specification:Geneva;writing-mode:lr-tb;fill:#000000;fill-opacity:1;fill-rule:nonzero;stroke:none"
         id="text1360"><tspan
           x="0 42.418751 83.525002"
           y="0"
           id="tspan1358">OUT</tspan></text>
    </g>
    <path
       d="m 570.5192,169.7158 31.3209,-1e-4 v -2.5722 l -31.3209,1e-4 z m 30.0349,2.5722 7.7157,-3.8584 -7.7157,-3.8583 z"
       style="fill:#ffffff;fill-opacity:1;fill-rule:nonzero;stroke:none"
       id="path1362" />
    <path
       d="m 507.7933,234.0827 1e-4,-26.6996 h -2.5719 l -10e-5,26.6996 z m 2.5719,-25.4135 -3.8578,-7.7167 -3.8578,7.7167 z"
       style="fill:#ffffff;fill-opacity:1;fill-rule:nonzero;stroke:none"
       id="path1364" />
    <g
       id="g1366"
       transform="matrix(0.24,0,0,0.2400324,476.6163,-336.7223)">
      <text
         xml:space="preserve"
         transform="matrix(1,0,0,-1,0,2404)"
         style="font-variant:normal;font-weight:normal;font-size:62.5px;font-family:Geneva;-inkscape-font-specification:Geneva;writing-mode:lr-tb;fill:#ffffff;fill-opacity:1;fill-rule:nonzero;stroke:none"
         id="text1370"><tspan
           x="0 57.150002 88.425003 116.325 141.35001 181.0625 214.96249"
           y="0"
           id="tspan1368">WET/DRY</tspan></text>
    </g>
    <path
       d="m 82.62221,425.1903 c 0,11.8793 9.62881,21.5094 21.50659,21.5094 11.8777,0 21.5065,-9.6301 21.5065,-21.5094 0,-11.8794 -9.6288,-21.5095 -21.5065,-21.5095 -11.87778,0 -21.50659,9.6301 -21.50659,21.5095 z"
       style="fill:#404040;fill-opacity:1;fill-rule:evenodd;stroke:none"
       id="path1372" />
    <g
       id="g1374"
       transform="matrix(6.750328e-5,0,0,-6.751239e-5,82.62221,446.6997)"
       clip-path="url(#clipPath1756)">
      <path
         d="M 0,318600 C 0,142642.1 142642.1,0 318600,0 494557.9,0 637200,142642.1 637200,318600 637200,494557.9 494557.9,637200 318600,637200 142642.1,637200 0,494557.9 0,318600 Z"
         style="fill:none;stroke:#ffffff;stroke-width:38100;stroke-linecap:butt;stroke-linejoin:miter;stroke-miterlimit:8;stroke-dasharray:none;stroke-opacity:1"
         id="path1376" />
    </g>
    <g
       id="g1378"
       transform="matrix(0.24,0,0,0.2400324,88.60321,-157.4423)">
      <text
         xml:space="preserve"
         transform="matrix(1,0,0,-1,0,2404)"
         style="font-variant:normal;font-weight:normal;font-size:62.5px;font-family:Geneva;-inkscape-font-specification:Geneva;writing-mode:lr-tb;fill:#ffffff;fill-opacity:1;fill-rule:nonzero;stroke:none"
         id="text1382"><tspan
           x="0 34.825001 66.837502 98.099998"
           y="0"
           id="tspan1380">RATE</tspan></text>
    </g>
    <path
       d="m 105.4147,403.6808 v -26.0922 h -2.5718 l -1e-4,26.0922 z m 2.5719,-24.8061 -3.8578,-7.7166 -3.8578,7.7166 z"
       style="fill:#ffffff;fill-opacity:1;fill-rule:nonzero;stroke:none"
       id="path1384" />
    <g
       id="g1386"
       transform="matrix(0.24,0,0,0.2400324,186.3452,-167.5223)">
      <text
         xml:space="preserve"
         transform="matrix(1,0,0,-1,0,2404)"
         style="font-variant:normal;font-weight:normal;font-size:62.5px;font-family:Geneva;-inkscape-font-specification:Geneva;writing-mode:lr-tb;fill:#ffffff;fill-opacity:1;fill-rule:nonzero;stroke:none"
         id="text1390"><tspan
           x="0 54.243752 88.487503 125.10625 156.35001 185.28125 227.71249 262.51874"
           y="0"
           id="tspan1388">WAVEFORM</tspan></text>
    </g>
    <path
       d="m 196.5858,404.2883 v -26.6997 h -2.5718 l -1e-4,26.6997 z m 2.5719,-25.4136 -3.8578,-7.7166 -3.8578,7.7166 z"
       style="fill:#ffffff;fill-opacity:1;fill-rule:nonzero;stroke:none"
       id="path1392" />
    <path
       d="m 155.0327,403.0635 1e-4,-26.0922 h -2.5719 l -1e-4,26.0922 z m 2.5719,-24.806 -3.8578,-7.7167 -3.8578,7.7166 z"
       style="fill:#ffffff;fill-opacity:1;fill-rule:nonzero;stroke:none"
       id="path1394" />
    <path
       d="m 272.2474,316.2147 v -33.9074 h -2.5718 l -10e-5,33.9073 z m 2.5719,-32.6213 -3.8578,-7.7167 -3.8578,7.7167 z"
       style="fill:#ffffff;fill-opacity:1;fill-rule:nonzero;stroke:none"
       id="path1396" />
    <g
       id="g1398"
       transform="matrix(0.24,0,0,0.2400324,134.9667,-167.2823)">
      <text
         xml:space="preserve"
         transform="matrix(1,0,0,-1,0,2404)"
         style="font-variant:normal;font-weight:normal;font-size:62.5px;font-family:Geneva;-inkscape-font-specification:Geneva;writing-mode:lr-tb;fill:#ffffff;fill-opacity:1;fill-rule:nonzero;stroke:none"
         id="text1402"><tspan
           x="0 27.237499 58.474998 95.087502 126.325"
           y="0"
           id="tspan1400">LEVEL</tspan></text>
    </g>
  </g>
</svg>
