<?xml version="1.0" encoding="UTF-8" standalone="no"?>
<!-- Created with Inkscape (http://www.inkscape.org/) -->

<svg
   width="201.90611mm"
   height="110.54824mm"
   viewBox="0 0 201.90611 110.54824"
   version="1.1"
   id="svg5"
   xml:space="preserve"
   sodipodi:docname="drawing.svg"
   inkscape:version="1.2 (dc2aeda, 2022-05-15)"
   xmlns:inkscape="http://www.inkscape.org/namespaces/inkscape"
   xmlns:sodipodi="http://sodipodi.sourceforge.net/DTD/sodipodi-0.dtd"
   xmlns="http://www.w3.org/2000/svg"
   xmlns:svg="http://www.w3.org/2000/svg"><sodipodi:namedview
     id="namedview173"
     pagecolor="#ffffff"
     bordercolor="#000000"
     borderopacity="0.25"
     inkscape:showpageshadow="2"
     inkscape:pageopacity="0.0"
     inkscape:pagecheckerboard="0"
     inkscape:deskcolor="#d1d1d1"
     inkscape:document-units="mm"
     showgrid="false"
     inkscape:zoom="0.2102413"
     inkscape:cx="-675.41439"
     inkscape:cy="380.51515"
     inkscape:window-width="1739"
     inkscape:window-height="974"
     inkscape:window-x="0"
     inkscape:window-y="25"
     inkscape:window-maximized="0"
     inkscape:current-layer="svg5" /><defs
     id="defs2"><clipPath
       clipPathUnits="userSpaceOnUse"
       id="clipPath43"><path
         d="M 9.000031,66.2756 H 831.96003 v 463 H 9.000031 Z"
         id="path41" /></clipPath><clipPath
       clipPathUnits="userSpaceOnUse"
       id="clipPath688"><path
         d="M 9.0000282,66.275606 H 832.00004 V 529.2756 H 9.0000282 Z"
         id="path690"
         style="stroke-width:0.999998" /></clipPath><clipPath
       clipPathUnits="userSpaceOnUse"
       id="clipPath692"><path
         d="M 9.0000282,66.275606 H 832.00004 V 529.2756 H 9.0000282 Z"
         id="path694"
         style="stroke-width:0.999998" /></clipPath><clipPath
       clipPathUnits="userSpaceOnUse"
       id="clipPath696"><path
         d="M -1825691.5,5625734.7 H 10366309 V -1232265.7 H -1825691.5 Z"
         id="path698"
         style="stroke-width:14813.1" /></clipPath><clipPath
       clipPathUnits="userSpaceOnUse"
       id="clipPath700"><path
         d="M 9.0000282,66.275606 H 832.00004 V 529.2756 H 9.0000282 Z"
         id="path702"
         style="stroke-width:0.999998" /></clipPath><clipPath
       clipPathUnits="userSpaceOnUse"
       id="clipPath704"><path
         d="M 9.0000282,66.275606 H 832.00004 V 529.2756 H 9.0000282 Z"
         id="path706"
         style="stroke-width:0.999998" /></clipPath><clipPath
       clipPathUnits="userSpaceOnUse"
       id="clipPath708"><path
         d="M 9.0000282,66.275606 H 832.00004 V 529.2756 H 9.0000282 Z"
         id="path710"
         style="stroke-width:0.999998" /></clipPath><clipPath
       clipPathUnits="userSpaceOnUse"
       id="clipPath712"><path
         d="M -1090646.1,5634878.2 H 11101354 V -1223122.2 H -1090646.1 Z"
         id="path714"
         style="stroke-width:14813.1" /></clipPath><clipPath
       clipPathUnits="userSpaceOnUse"
       id="clipPath716"><path
         d="M 9.0000282,66.275606 H 832.00004 V 529.2756 H 9.0000282 Z"
         id="path718"
         style="stroke-width:0.999998" /></clipPath><clipPath
       clipPathUnits="userSpaceOnUse"
       id="clipPath720"><path
         d="M 9.0000282,66.275606 H 832.00004 V 529.2756 H 9.0000282 Z"
         id="path722"
         style="stroke-width:0.999998" /></clipPath><clipPath
       clipPathUnits="userSpaceOnUse"
       id="clipPath724"><path
         d="M 9.0000282,66.275606 H 832.00004 V 529.2756 H 9.0000282 Z"
         id="path726"
         style="stroke-width:0.999998" /></clipPath><clipPath
       clipPathUnits="userSpaceOnUse"
       id="clipPath728"><path
         d="M -8877639.4,1831715.4 H 3314361 V -5026285 H -8877639.4 Z"
         id="path730"
         style="stroke-width:14813.1" /></clipPath><clipPath
       clipPathUnits="userSpaceOnUse"
       id="clipPath732"><path
         d="M 9.0000282,66.275606 H 832.00004 V 529.2756 H 9.0000282 Z"
         id="path734"
         style="stroke-width:0.999998" /></clipPath><clipPath
       clipPathUnits="userSpaceOnUse"
       id="clipPath736"><path
         d="M -5293832.7,1831715.4 H 6898167.7 V -5026285 H -5293832.7 Z"
         id="path738"
         style="stroke-width:14813.1" /></clipPath><clipPath
       clipPathUnits="userSpaceOnUse"
       id="clipPath740"><path
         d="M 9.0000282,66.275606 H 832.00004 V 529.2756 H 9.0000282 Z"
         id="path742"
         style="stroke-width:0.999998" /></clipPath><clipPath
       clipPathUnits="userSpaceOnUse"
       id="clipPath744"><path
         d="M -6490272.2,1994847.2 H 5701728.1 V -4863153.1 H -6490272.2 Z"
         id="path746"
         style="stroke-width:14813.1" /></clipPath><clipPath
       clipPathUnits="userSpaceOnUse"
       id="clipPath748"><path
         d="M 9.0000282,66.275606 H 832.00004 V 529.2756 H 9.0000282 Z"
         id="path750"
         style="stroke-width:0.999998" /></clipPath><clipPath
       clipPathUnits="userSpaceOnUse"
       id="clipPath752"><path
         d="M 9.0000282,66.275606 H 832.00004 V 529.2756 H 9.0000282 Z"
         id="path754"
         style="stroke-width:0.999998" /></clipPath><clipPath
       clipPathUnits="userSpaceOnUse"
       id="clipPath756"><path
         d="M -1700417.6,1831715.4 H 10491583 V -5026285 H -1700417.6 Z"
         id="path758"
         style="stroke-width:14813.1" /></clipPath><clipPath
       clipPathUnits="userSpaceOnUse"
       id="clipPath760"><path
         d="M 9.0000282,66.275606 H 832.00004 V 529.2756 H 9.0000282 Z"
         id="path762"
         style="stroke-width:0.999998" /></clipPath><clipPath
       clipPathUnits="userSpaceOnUse"
       id="clipPath764"><path
         d="M 9.0000282,66.275606 H 832.00004 V 529.2756 H 9.0000282 Z"
         id="path766"
         style="stroke-width:0.999998" /></clipPath><clipPath
       clipPathUnits="userSpaceOnUse"
       id="clipPath768"><path
         d="M -3562121.3,3104631.5 H 8629879.1 V -3753368.8 H -3562121.3 Z"
         id="path770"
         style="stroke-width:14813.1" /></clipPath><clipPath
       clipPathUnits="userSpaceOnUse"
       id="clipPath772"><path
         d="M 9.0000282,66.275606 H 832.00004 V 529.2756 H 9.0000282 Z"
         id="path774"
         style="stroke-width:0.999998" /></clipPath><clipPath
       clipPathUnits="userSpaceOnUse"
       id="clipPath776"><path
         d="M 9.0000282,66.275606 H 832.00004 V 529.2756 H 9.0000282 Z"
         id="path778"
         style="stroke-width:0.999998" /></clipPath><clipPath
       clipPathUnits="userSpaceOnUse"
       id="clipPath780"><path
         d="M 9.0000282,66.275606 H 832.00004 V 529.2756 H 9.0000282 Z"
         id="path782"
         style="stroke-width:0.999998" /></clipPath><clipPath
       clipPathUnits="userSpaceOnUse"
       id="clipPath784"><path
         d="M -2827075.4,3113775.1 H 9364925 V -3744225.3 H -2827075.4 Z"
         id="path786"
         style="stroke-width:14813.1" /></clipPath><clipPath
       clipPathUnits="userSpaceOnUse"
       id="clipPath788"><path
         d="M 9.0000282,66.275606 H 832.00004 V 529.2756 H 9.0000282 Z"
         id="path790"
         style="stroke-width:0.999998" /></clipPath><clipPath
       clipPathUnits="userSpaceOnUse"
       id="clipPath792"><path
         d="M -2906467.2,1994845.5 H 9285533.1 V -4863154.8 H -2906467.2 Z"
         id="path794"
         style="stroke-width:14813.1" /></clipPath><clipPath
       clipPathUnits="userSpaceOnUse"
       id="clipPath796"><path
         d="M 9.0000282,66.275606 H 832.00004 V 529.2756 H 9.0000282 Z"
         id="path798"
         style="stroke-width:0.999998" /></clipPath><clipPath
       clipPathUnits="userSpaceOnUse"
       id="clipPath800"><path
         d="M 9.0000282,66.275606 H 832.00004 V 529.2756 H 9.0000282 Z"
         id="path802"
         style="stroke-width:0.999998" /></clipPath><clipPath
       clipPathUnits="userSpaceOnUse"
       id="clipPath804"><path
         d="M -3562121.3,4339321.9 H 8629879.1 V -2518678.4 H -3562121.3 Z"
         id="path806"
         style="stroke-width:14813.1" /></clipPath><clipPath
       clipPathUnits="userSpaceOnUse"
       id="clipPath808"><path
         d="M 9.0000282,66.275606 H 832.00004 V 529.2756 H 9.0000282 Z"
         id="path810"
         style="stroke-width:0.999998" /></clipPath><clipPath
       clipPathUnits="userSpaceOnUse"
       id="clipPath812"><path
         d="M -1074354.2,4502450.5 H 11117646 V -2355549.9 H -1074354.2 Z"
         id="path814"
         style="stroke-width:14813.1" /></clipPath><clipPath
       clipPathUnits="userSpaceOnUse"
       id="clipPath816"><path
         d="M 9.0000282,66.275606 H 832.00004 V 529.2756 H 9.0000282 Z"
         id="path818"
         style="stroke-width:0.999998" /></clipPath><clipPath
       clipPathUnits="userSpaceOnUse"
       id="clipPath820"><path
         d="M 9.0000282,66.275606 H 832.00004 V 529.2756 H 9.0000282 Z"
         id="path822"
         style="stroke-width:0.999998" /></clipPath></defs><g
     id="layer1"
     transform="translate(-248.30566,-51.960571)" /><path
     d="M 81.52245,370.2468 H 204.9269 V 305.2013 H 81.52245 Z"
     style="fill:#404040;fill-opacity:1;fill-rule:nonzero;stroke:none"
     id="path57"
     transform="matrix(0.35277776,0,0,-0.35277778,-28.30566,158.03944)"
     clip-path="url(#clipPath816)" /><g
     id="g59"
     transform="matrix(2.3813656e-5,0,0,2.3816871e-5,0.45365015,27.424595)"
     clip-path="url(#clipPath812)"><path
       d="M 0,0 H 1828126 V 963461 H 0 Z"
       style="fill:none;stroke:#ffffff;stroke-width:38100;stroke-linecap:butt;stroke-linejoin:miter;stroke-miterlimit:8;stroke-dasharray:none;stroke-opacity:1"
       id="path61" /></g><g
     id="g63"
     transform="matrix(0.08466666,0,0,-0.0846781,18.04874,244.48492)"><text
       xml:space="preserve"
       transform="matrix(1,0,0,-1,0,2404)"
       style="font-variant:normal;font-weight:normal;font-size:62.5px;font-family:Geneva;-inkscape-font-specification:Geneva;writing-mode:lr-tb;fill:#ffffff;fill-opacity:1;fill-rule:nonzero;stroke:none"
       id="text67"><tspan
         x="0 27.237499 56.162498"
         y="0"
         id="tspan65">LFO</tspan></text></g><path
     d="m 249.4549,337.7241 c 0,11.8793 9.6288,21.5095 21.5065,21.5095 11.8778,0 21.5066,-9.6302 21.5066,-21.5095 0,-11.8793 -9.6288,-21.5094 -21.5066,-21.5094 -11.8777,0 -21.5065,9.6301 -21.5065,21.5094 z"
     style="fill:#bfbfbf;fill-opacity:1;fill-rule:evenodd;stroke:none"
     id="path69"
     transform="matrix(0.35277776,0,0,-0.35277778,-28.30566,158.03944)"
     clip-path="url(#clipPath808)" /><g
     id="g71"
     transform="matrix(2.3813656e-5,0,0,2.3816871e-5,59.69648,31.309807)"
     clip-path="url(#clipPath804)"><path
       d="M 0,318600 C 0,142642.1 142642.1,0 318600,0 494557.9,0 637200,142642.1 637200,318600 637200,494557.9 494557.9,637200 318600,637200 142642.1,637200 0,494557.9 0,318600 Z"
       style="fill:none;stroke:#ffffff;stroke-width:38100;stroke-linecap:butt;stroke-linejoin:miter;stroke-miterlimit:8;stroke-dasharray:none;stroke-opacity:1"
       id="path73" /></g><g
     id="g75"
     transform="matrix(0.08466666,0,0,-0.0846781,62.42568,244.48492)"><text
       xml:space="preserve"
       transform="matrix(1,0,0,-1,0,2404)"
       style="font-variant:normal;font-weight:normal;font-size:62.5px;font-family:Geneva;-inkscape-font-specification:Geneva;writing-mode:lr-tb;fill:#000000;fill-opacity:1;fill-rule:nonzero;stroke:none"
       id="text79"><tspan
         x="0 42.418751 83.525002"
         y="0"
         id="tspan77">OUT</tspan></text></g><path
     d="m 204.927,336.4379 38.0982,10e-5 v 2.5722 l -38.0983,-10e-5 z m 36.8123,-2.5721 7.7156,3.8583 -7.7156,3.8583 z"
     style="fill:#ffffff;fill-opacity:1;fill-rule:nonzero;stroke:none"
     id="path81"
     transform="matrix(0.35277776,0,0,-0.35277778,-28.30566,158.03944)"
     clip-path="url(#clipPath800)" /><path
     d="M 205.1961,200.9524 H 328.6006 V 135.9068 H 205.1961 Z"
     style="fill:#404040;fill-opacity:1;fill-rule:nonzero;stroke:none"
     id="path83"
     transform="matrix(0.35277776,0,0,-0.35277778,-28.30566,158.03944)"
     clip-path="url(#clipPath796)" /><g
     id="g85"
     transform="matrix(2.3813656e-5,0,0,2.3816871e-5,44.08296,87.147899)"
     clip-path="url(#clipPath792)"><path
       d="M 0,0 H 1828126 V 963461 H 0 Z"
       style="fill:none;stroke:#ffffff;stroke-width:38100;stroke-linecap:butt;stroke-linejoin:miter;stroke-miterlimit:8;stroke-dasharray:none;stroke-opacity:1"
       id="path87" /></g><g
     id="g89"
     transform="matrix(0.08466666,0,0,-0.0846781,61.0974,304.17492)"><text
       xml:space="preserve"
       transform="matrix(1,0,0,-1,0,2404)"
       style="font-variant:normal;font-weight:normal;font-size:62.5px;font-family:Geneva;-inkscape-font-specification:Geneva;writing-mode:lr-tb;fill:#ffffff;fill-opacity:1;fill-rule:nonzero;stroke:none"
       id="text93"><tspan
         x="0 36.043751 69.837502"
         y="0"
         id="tspan91">VCO</tspan></text></g><path
     d="m 87.61732,99.074959 11.04929,-3e-5 v -0.90745 l -11.04929,3e-5 z m 10.59565,0.90738 2.72189,-1.36116 -2.72189,-1.36112 z"
     style="fill:#ffffff;fill-opacity:1;fill-rule:nonzero;stroke:none;stroke-width:0.352778"
     id="path95" /><path
     d="m 199.8369,254.9846 c 0,11.8793 9.6288,21.5094 21.5065,21.5094 11.8777,0 21.5066,-9.6301 21.5066,-21.5094 0,-11.8794 -9.6289,-21.5095 -21.5066,-21.5095 -11.8777,0 -21.5065,9.6301 -21.5065,21.5095 z"
     style="fill:#404040;fill-opacity:1;fill-rule:evenodd;stroke:none"
     id="path97"
     transform="matrix(0.35277776,0,0,-0.35277778,-28.30566,158.03944)"
     clip-path="url(#clipPath788)" /><g
     id="g99"
     transform="matrix(2.3813656e-5,0,0,2.3816871e-5,42.19235,60.498499)"
     clip-path="url(#clipPath784)"><path
       d="M 0,318600 C 0,142642.1 142642.1,0 318600,0 494557.9,0 637200,142642.1 637200,318600 637200,494557.9 494557.9,637200 318600,637200 142642.1,637200 0,494557.9 0,318600 Z"
       style="fill:none;stroke:#ffffff;stroke-width:38100;stroke-linecap:butt;stroke-linejoin:miter;stroke-miterlimit:8;stroke-dasharray:none;stroke-opacity:1"
       id="path101" /></g><g
     id="g103"
     transform="matrix(0.08466666,0,0,-0.0846781,44.30232,273.69492)"><text
       xml:space="preserve"
       transform="matrix(1,0,0,-1,0,2404)"
       style="font-variant:normal;font-weight:normal;font-size:62.5px;font-family:Geneva;-inkscape-font-specification:Geneva;writing-mode:lr-tb;fill:#ffffff;fill-opacity:1;fill-rule:nonzero;stroke:none"
       id="text107"><tspan
         x="0 34.825001 66.837502 98.099998"
         y="0"
         id="tspan105">RATE</tspan></text></g><path
     d="m 222.6293,233.4751 1e-4,-26.0922 h -2.5719 v 26.0922 z m 2.572,-24.8061 -3.8578,-7.7166 -3.8579,7.7166 z"
     style="fill:#ffffff;fill-opacity:1;fill-rule:nonzero;stroke:none"
     id="path109"
     transform="matrix(0.35277776,0,0,-0.35277778,-28.30566,158.03944)"
     clip-path="url(#clipPath780)" /><g
     id="g111"
     transform="matrix(0.08466666,0,0,-0.0846781,78.78349,277.16625)"><text
       xml:space="preserve"
       transform="matrix(1,0,0,-1,0,2404)"
       style="font-variant:normal;font-weight:normal;font-size:62.5px;font-family:Geneva;-inkscape-font-specification:Geneva;writing-mode:lr-tb;fill:#ffffff;fill-opacity:1;fill-rule:nonzero;stroke:none"
       id="text115"><tspan
         x="0 54.243752 88.487503 125.10625 156.35001 185.28125 227.71249 262.51874"
         y="0"
         id="tspan113">WAVEFORM</tspan></text></g><path
     d="m 313.8004,234.0826 10e-5,-26.6997 h -2.5719 l -10e-5,26.6997 z m 2.5719,-25.4136 -3.8578,-7.7166 -3.8578,7.7166 z"
     style="fill:#ffffff;fill-opacity:1;fill-rule:nonzero;stroke:none"
     id="path117"
     transform="matrix(0.35277776,0,0,-0.35277778,-28.30566,158.03944)"
     clip-path="url(#clipPath776)" /><path
     d="m 249.4549,254.3673 c 0,11.8793 9.6288,21.5094 21.5065,21.5094 11.8778,0 21.5066,-9.6301 21.5066,-21.5094 0,-11.8794 -9.6288,-21.5095 -21.5066,-21.5095 -11.8777,0 -21.5065,9.6301 -21.5065,21.5095 z"
     style="fill:#404040;fill-opacity:1;fill-rule:evenodd;stroke:none"
     id="path119"
     transform="matrix(0.35277776,0,0,-0.35277778,-28.30566,158.03944)"
     clip-path="url(#clipPath772)" /><g
     id="g121"
     transform="matrix(2.3813656e-5,0,0,2.3816871e-5,59.69648,60.716269)"
     clip-path="url(#clipPath768)"><path
       d="M 0,318600 C 0,142642.1 142642.1,0 318600,0 494557.9,0 637200,142642.1 637200,318600 637200,494557.9 494557.9,637200 318600,637200 142642.1,637200 0,494557.9 0,318600 Z"
       style="fill:none;stroke:#ffffff;stroke-width:38100;stroke-linecap:butt;stroke-linejoin:miter;stroke-miterlimit:8;stroke-dasharray:none;stroke-opacity:1"
       id="path123" /></g><g
     id="g125"
     transform="matrix(0.08466666,0,0,-0.0846781,61.14033,273.86425)"><text
       xml:space="preserve"
       transform="matrix(1,0,0,-1,0,2404)"
       style="font-variant:normal;font-weight:normal;font-size:62.5px;font-family:Geneva;-inkscape-font-specification:Geneva;writing-mode:lr-tb;fill:#ffffff;fill-opacity:1;fill-rule:nonzero;stroke:none"
       id="text129"><tspan
         x="0 33.043751 90.212502"
         y="0"
         id="tspan127">PWM</tspan></text></g><path
     d="m 272.2474,232.8579 v -26.0922 h -2.5719 v 26.0921 z m 2.5719,-24.8061 -3.8578,-7.7167 -3.8578,7.7167 z"
     style="fill:#ffffff;fill-opacity:1;fill-rule:nonzero;stroke:none"
     id="path131"
     transform="matrix(0.35277776,0,0,-0.35277778,-28.30566,158.03944)"
     clip-path="url(#clipPath764)" /><path
     d="m 123.7838,168.4296 c 0,11.8794 9.6288,21.5095 21.5066,21.5095 11.8777,0 21.5065,-9.6301 21.5065,-21.5095 0,-11.8793 -9.6288,-21.5094 -21.5065,-21.5094 -11.8778,0 -21.5066,9.6301 -21.5066,21.5094 z"
     style="fill:#404040;fill-opacity:1;fill-rule:evenodd;stroke:none"
     id="path133"
     transform="matrix(0.35277776,0,0,-0.35277778,-28.30566,158.03944)"
     clip-path="url(#clipPath760)" /><g
     id="g135"
     transform="matrix(2.3813656e-5,0,0,2.3816871e-5,15.36251,91.033149)"
     clip-path="url(#clipPath756)"><path
       d="M 0,318600 C 0,142642.1 142642.1,0 318600,0 494557.9,0 637200,142642.1 637200,318600 637200,494557.9 494557.9,637200 318600,637200 142642.1,637200 0,494557.9 0,318600 Z"
       style="fill:none;stroke:#ffffff;stroke-width:38100;stroke-linecap:butt;stroke-linejoin:miter;stroke-miterlimit:8;stroke-dasharray:none;stroke-opacity:1"
       id="path137" /></g><g
     id="g139"
     transform="matrix(0.08466666,0,0,-0.0846781,19.37705,304.17492)"><text
       xml:space="preserve"
       transform="matrix(1,0,0,-1,0,2404)"
       style="font-variant:normal;font-weight:normal;font-size:62.5px;font-family:Geneva;-inkscape-font-specification:Geneva;writing-mode:lr-tb;fill:#ffffff;fill-opacity:1;fill-rule:nonzero;stroke:none"
       id="text143"><tspan
         x="0 29.46875"
         y="0"
         id="tspan141">FM</tspan></text></g><path
     d="m 166.7969,169.7157 h 31.9695 v -2.5722 h -31.9695 z m 30.6836,2.5722 7.7156,-3.8583 -7.7157,-3.8584 z"
     style="fill:#ffffff;fill-opacity:1;fill-rule:nonzero;stroke:none"
     id="path145"
     transform="matrix(0.35277776,0,0,-0.35277778,-28.30566,158.03944)"
     clip-path="url(#clipPath752)" /><path
     d="M 447.1147,200.9525 H 570.5192 V 135.9069 H 447.1147 Z"
     style="fill:#404040;fill-opacity:1;fill-rule:nonzero;stroke:none"
     id="path147"
     transform="matrix(0.35277776,0,0,-0.35277778,-28.30566,158.03944)"
     clip-path="url(#clipPath748)" /><g
     id="g149"
     transform="matrix(2.3813656e-5,0,0,2.3816871e-5,129.42646,87.147859)"
     clip-path="url(#clipPath744)"><path
       d="M 0,0 H 1828126 V 963461 H 0 Z"
       style="fill:none;stroke:#ffffff;stroke-width:38100;stroke-linecap:butt;stroke-linejoin:miter;stroke-miterlimit:8;stroke-dasharray:none;stroke-opacity:1"
       id="path151" /></g><g
     id="g153"
     transform="matrix(0.08466666,0,0,-0.0846781,139.65733,304.17492)"><text
       xml:space="preserve"
       transform="matrix(1,0,0,-1,0,2404)"
       style="font-variant:normal;font-weight:normal;font-size:62.5px;font-family:Geneva;-inkscape-font-specification:Geneva;writing-mode:lr-tb;fill:#ffffff;fill-opacity:1;fill-rule:nonzero;stroke:none"
       id="text157"><tspan
         x="0 29.46875 63.4375 97.40625 129.5625 151.90625 180.9375 215.46875"
         y="0"
         id="tspan155">SuperSAW</tspan></text></g><path
     d="m 366.3511,168.4297 c 0,11.8793 9.6288,21.5094 21.5066,21.5094 11.8777,0 21.5065,-9.6301 21.5065,-21.5094 0,-11.8794 -9.6288,-21.5095 -21.5065,-21.5095 -11.8778,0 -21.5066,9.6301 -21.5066,21.5095 z"
     style="fill:#404040;fill-opacity:1;fill-rule:evenodd;stroke:none"
     id="path159"
     transform="matrix(0.35277776,0,0,-0.35277778,-28.30566,158.03944)"
     clip-path="url(#clipPath740)" /><g
     id="g161"
     transform="matrix(2.3813656e-5,0,0,2.3816871e-5,100.93486,91.033149)"
     clip-path="url(#clipPath736)"><path
       d="M 0,318600 C 0,142642.1 142642.1,0 318600,0 494557.9,0 637200,142642.1 637200,318600 637200,494557.9 494557.9,637200 318600,637200 142642.1,637200 0,494557.9 0,318600 Z"
       style="fill:none;stroke:#ffffff;stroke-width:38100;stroke-linecap:butt;stroke-linejoin:miter;stroke-miterlimit:8;stroke-dasharray:none;stroke-opacity:1"
       id="path163" /></g><g
     id="g165"
     transform="matrix(0.08466666,0,0,-0.0846781,106.08351,304.17492)"><text
       xml:space="preserve"
       transform="matrix(1,0,0,-1,0,2404)"
       style="font-variant:normal;font-weight:normal;font-size:62.5px;font-family:Geneva;-inkscape-font-specification:Geneva;writing-mode:lr-tb;fill:#ffffff;fill-opacity:1;fill-rule:nonzero;stroke:none"
       id="text169"><tspan
         x="0 16.075001"
         y="0"
         id="tspan167">IN</tspan></text></g><path
     d="m 116.10893,98.167479 11.04928,3e-5 v 0.90742 l -11.04928,-4e-5 z m 10.59564,-0.90742 2.72189,1.36116 -2.72189,1.36112 z"
     style="fill:#ffffff;fill-opacity:1;fill-rule:nonzero;stroke:none;stroke-width:0.352778"
     id="path171" /><path
     d="m 608.2698,168.4297 c 0,11.8793 9.6288,21.5094 21.5065,21.5094 11.8777,0 21.5066,-9.6301 21.5066,-21.5094 0,-11.8794 -9.6289,-21.5095 -21.5066,-21.5095 -11.8777,0 -21.5065,9.6301 -21.5065,21.5095 z"
     style="fill:#bfbfbf;fill-opacity:1;fill-rule:evenodd;stroke:none"
     id="path173"
     transform="matrix(0.35277776,0,0,-0.35277778,-28.30566,158.03944)"
     clip-path="url(#clipPath732)" /><g
     id="g175"
     transform="matrix(2.3813656e-5,0,0,2.3816871e-5,186.2784,91.033149)"
     clip-path="url(#clipPath728)"><path
       d="M 0,318600 C 0,142642.1 142642.1,0 318600,0 494557.9,0 637200,142642.1 637200,318600 637200,494557.9 494557.9,637200 318600,637200 142642.1,637200 0,494557.9 0,318600 Z"
       style="fill:none;stroke:#ffffff;stroke-width:38100;stroke-linecap:butt;stroke-linejoin:miter;stroke-miterlimit:8;stroke-dasharray:none;stroke-opacity:1"
       id="path177" /></g><g
     id="g179"
     transform="matrix(0.08466666,0,0,-0.0846781,189.00759,304.17492)"><text
       xml:space="preserve"
       transform="matrix(1,0,0,-1,0,2404)"
       style="font-variant:normal;font-weight:normal;font-size:62.5px;font-family:Geneva;-inkscape-font-specification:Geneva;writing-mode:lr-tb;fill:#000000;fill-opacity:1;fill-rule:nonzero;stroke:none"
       id="text183"><tspan
         x="0 42.418751 83.525002"
         y="0"
         id="tspan181">OUT</tspan></text></g><path
     d="m 570.5192,169.7158 31.3209,-1e-4 v -2.5722 l -31.3209,1e-4 z m 30.0349,2.5722 7.7157,-3.8584 -7.7157,-3.8583 z"
     style="fill:#ffffff;fill-opacity:1;fill-rule:nonzero;stroke:none"
     id="path185"
     transform="matrix(0.35277776,0,0,-0.35277778,-28.30566,158.03944)"
     clip-path="url(#clipPath724)" /><path
     d="m 507.7933,234.0827 1e-4,-26.6996 h -2.5719 l -10e-5,26.6996 z m 2.5719,-25.4135 -3.8578,-7.7167 -3.8578,7.7167 z"
     style="fill:#ffffff;fill-opacity:1;fill-rule:nonzero;stroke:none"
     id="path187"
     transform="matrix(0.35277776,0,0,-0.35277778,-28.30566,158.03944)"
     clip-path="url(#clipPath720)" /><g
     id="g189"
     transform="matrix(0.08466666,0,0,-0.0846781,139.83397,276.82759)"><text
       xml:space="preserve"
       transform="matrix(1,0,0,-1,0,2404)"
       style="font-variant:normal;font-weight:normal;font-size:62.5px;font-family:Geneva;-inkscape-font-specification:Geneva;writing-mode:lr-tb;fill:#ffffff;fill-opacity:1;fill-rule:nonzero;stroke:none"
       id="text193"><tspan
         x="0 57.150002 88.425003 116.325 141.35001 181.0625 214.96249"
         y="0"
         id="tspan191">WET/DRY</tspan></text></g><path
     d="m 82.62221,425.1903 c 0,11.8793 9.62881,21.5094 21.50659,21.5094 11.8777,0 21.5065,-9.6301 21.5065,-21.5094 0,-11.8794 -9.6288,-21.5095 -21.5065,-21.5095 -11.87778,0 -21.50659,9.6301 -21.50659,21.5095 z"
     style="fill:#404040;fill-opacity:1;fill-rule:evenodd;stroke:none"
     id="path195"
     transform="matrix(0.35277776,0,0,-0.35277778,-28.30566,158.03944)"
     clip-path="url(#clipPath716)" /><g
     id="g197"
     transform="matrix(2.3813656e-5,0,0,2.3816871e-5,0.84162015,0.45371139)"
     clip-path="url(#clipPath712)"><path
       d="M 0,318600 C 0,142642.1 142642.1,0 318600,0 494557.9,0 637200,142642.1 637200,318600 637200,494557.9 494557.9,637200 318600,637200 142642.1,637200 0,494557.9 0,318600 Z"
       style="fill:none;stroke:#ffffff;stroke-width:38100;stroke-linecap:butt;stroke-linejoin:miter;stroke-miterlimit:8;stroke-dasharray:none;stroke-opacity:1"
       id="path199" /></g><g
     id="g201"
     transform="matrix(0.08466666,0,0,-0.0846781,2.9515801,213.58159)"><text
       xml:space="preserve"
       transform="matrix(1,0,0,-1,0,2404)"
       style="font-variant:normal;font-weight:normal;font-size:62.5px;font-family:Geneva;-inkscape-font-specification:Geneva;writing-mode:lr-tb;fill:#ffffff;fill-opacity:1;fill-rule:nonzero;stroke:none"
       id="text205"><tspan
         x="0 34.825001 66.837502 98.099998"
         y="0"
         id="tspan203">RATE</tspan></text></g><path
     d="m 105.4147,403.6808 v -26.0922 h -2.5718 l -1e-4,26.0922 z m 2.5719,-24.8061 -3.8578,-7.7166 -3.8578,7.7166 z"
     style="fill:#ffffff;fill-opacity:1;fill-rule:nonzero;stroke:none"
     id="path207"
     transform="matrix(0.35277776,0,0,-0.35277778,-28.30566,158.03944)"
     clip-path="url(#clipPath708)" /><g
     id="g209"
     transform="matrix(0.08466666,0,0,-0.0846781,37.43278,217.13759)"><text
       xml:space="preserve"
       transform="matrix(1,0,0,-1,0,2404)"
       style="font-variant:normal;font-weight:normal;font-size:62.5px;font-family:Geneva;-inkscape-font-specification:Geneva;writing-mode:lr-tb;fill:#ffffff;fill-opacity:1;fill-rule:nonzero;stroke:none"
       id="text213"><tspan
         x="0 54.243752 88.487503 125.10625 156.35001 185.28125 227.71249 262.51874"
         y="0"
         id="tspan211">WAVEFORM</tspan></text></g><path
     d="m 196.5858,404.2883 v -26.6997 h -2.5718 l -1e-4,26.6997 z m 2.5719,-25.4136 -3.8578,-7.7166 -3.8578,7.7166 z"
     style="fill:#ffffff;fill-opacity:1;fill-rule:nonzero;stroke:none"
     id="path215"
     transform="matrix(0.35277776,0,0,-0.35277778,-28.30566,158.03944)"
     clip-path="url(#clipPath704)" /><path
     d="m 132.2402,424.573 c 0,11.8793 9.6288,21.5094 21.5066,21.5094 11.8777,0 21.5065,-9.6301 21.5065,-21.5094 0,-11.8794 -9.6288,-21.5095 -21.5065,-21.5095 -11.8778,0 -21.5066,9.6301 -21.5066,21.5095 z"
     style="fill:#404040;fill-opacity:1;fill-rule:evenodd;stroke:none"
     id="path217"
     transform="matrix(0.35277776,0,0,-0.35277778,-28.30566,158.03944)"
     clip-path="url(#clipPath700)" /><g
     id="g219"
     transform="matrix(2.3813656e-5,0,0,2.3816871e-5,18.34574,0.67148039)"
     clip-path="url(#clipPath696)"><path
       d="M 0,318600 C 0,142642.1 142642.1,0 318600,0 494557.9,0 637200,142642.1 637200,318600 637200,494557.9 494557.9,637200 318600,637200 142642.1,637200 0,494557.9 0,318600 Z"
       style="fill:none;stroke:#ffffff;stroke-width:38100;stroke-linecap:butt;stroke-linejoin:miter;stroke-miterlimit:8;stroke-dasharray:none;stroke-opacity:1"
       id="path221" /></g><g
     id="g223"
     transform="matrix(0.08466666,0,0,-0.0846781,19.43046,213.83559)"><text
       xml:space="preserve"
       transform="matrix(1,0,0,-1,0,2404)"
       style="font-variant:normal;font-weight:normal;font-size:62.5px;font-family:Geneva;-inkscape-font-specification:Geneva;writing-mode:lr-tb;fill:#ffffff;fill-opacity:1;fill-rule:nonzero;stroke:none"
       id="text227"><tspan
         x="0 27.237499 58.474998 95.087502"
         y="0"
         id="tspan225">LEVE</tspan></text></g><g
     id="g229"
     transform="matrix(0.08466666,0,0,-0.0846781,30.12905,213.83559)"><text
       xml:space="preserve"
       transform="matrix(1,0,0,-1,0,2404)"
       style="font-variant:normal;font-weight:normal;font-size:62.5px;font-family:Geneva;-inkscape-font-specification:Geneva;writing-mode:lr-tb;fill:#ffffff;fill-opacity:1;fill-rule:nonzero;stroke:none"
       id="text233"><tspan
         x="0"
         y="0"
         id="tspan231">L</tspan></text></g><path
     d="m 155.0327,403.0635 1e-4,-26.0922 h -2.5719 l -1e-4,26.0922 z m 2.5719,-24.806 -3.8578,-7.7167 -3.8578,7.7166 z"
     style="fill:#ffffff;fill-opacity:1;fill-rule:nonzero;stroke:none"
     id="path235"
     transform="matrix(0.35277776,0,0,-0.35277778,-28.30566,158.03944)"
     clip-path="url(#clipPath692)" /><path
     d="m 272.2474,316.2147 v -33.9074 h -2.5718 l -10e-5,33.9073 z m 2.5719,-32.6213 -3.8578,-7.7167 -3.8578,7.7167 z"
     style="fill:#ffffff;fill-opacity:1;fill-rule:nonzero;stroke:none"
     id="path237"
     transform="matrix(0.35277776,0,0,-0.35277778,-28.30566,158.03944)"
     clip-path="url(#clipPath688)" /></svg>
