<?xml version="1.0" encoding="UTF-8" standalone="no"?>
<!--
tags: [sand, sun, umbrella, vacation, travel]
category: Map
version: "1.42"
unicode: "ef3d"
-->

<svg
   width="24"
   height="24"
   viewBox="0 0 24 24"
   fill="none"
   stroke="currentColor"
   stroke-width="2"
   stroke-linecap="round"
   stroke-linejoin="round"
   version="1.1"
   id="svg5"
   sodipodi:docname="beach.svg"
   inkscape:version="1.3.2 (091e20e, 2023-11-25)"
   xmlns:inkscape="http://www.inkscape.org/namespaces/inkscape"
   xmlns:sodipodi="http://sodipodi.sourceforge.net/DTD/sodipodi-0.dtd"
   xmlns="http://www.w3.org/2000/svg"
   xmlns:svg="http://www.w3.org/2000/svg">
  <defs
     id="defs5" />
  <sodipodi:namedview
     id="namedview5"
     pagecolor="#ffffff"
     bordercolor="#000000"
     borderopacity="0.25"
     inkscape:showpageshadow="2"
     inkscape:pageopacity="0.0"
     inkscape:pagecheckerboard="0"
     inkscape:deskcolor="#d1d1d1"
     inkscape:zoom="9.8333333"
     inkscape:cx="11.949153"
     inkscape:cy="12"
     inkscape:window-width="1312"
     inkscape:window-height="449"
     inkscape:window-x="0"
     inkscape:window-y="38"
     inkscape:window-maximized="0"
     inkscape:current-layer="svg5" />
  <path
     style="color:#000000;fill:#000000;stroke-width:0;stroke-dasharray:none"
     d="m 12.25,13.560547 c -2.17728,0 -4.3542645,0.827108 -6.0097656,2.482422 a 1,1 0 0 0 0,1.414062 1,1 0 0 0 1.4140625,0 c 2.5467181,-2.546429 6.6446881,-2.546429 9.1914061,0 a 1,1 0 0 0 1.414063,0 1,1 0 0 0 0,-1.414062 C 16.604265,14.387655 14.42728,13.560547 12.25,13.560547 Z"
     id="path1" />
  <path
     style="color:#000000;fill:#000000;stroke-width:0;stroke-dasharray:none"
     d="M 15.869141,2.0566406 C 13.162137,1.7239664 10.382847,2.9967868 8.9375,5.5 A 1.0001,1.0001 0 0 0 9.3046875,6.8652344 L 19.695312,12.865234 A 1.0001,1.0001 0 0 0 21.0625,12.5 C 22.989482,9.1622976 21.837618,4.8646289 18.5,2.9375 17.665574,2.4557545 16.771475,2.167532 15.869141,2.0566406 Z m -0.253907,1.9765625 c 0.644556,0.081058 1.284352,0.2900771 1.884766,0.6367188 2.094219,1.2091945 2.882721,3.6608859 2.15625,5.8652341 l -8.3125,-4.800781 c 1.10264,-1.2343661 2.668159,-1.9028017 4.271484,-1.7011719 z"
     id="path2" />
  <path
     style="color:#000000;fill:#000000;stroke-width:0;stroke-dasharray:none"
     d="M 16.71875,2.8945313 C 16.19524,3.1034522 15.717645,3.4408385 15.232422,3.8710938 14.261975,4.7316042 13.275866,5.9870192 12.402344,7.5 A 1,1 0 0 0 12.767578,8.8652344 1,1 0 0 0 14.134766,8.5 c 0.783476,-1.3570163 1.68373,-2.4748244 2.425781,-3.1328125 0.36531,-0.3239264 0.690927,-0.5250595 0.886719,-0.6054688 0.0282,0.2097535 0.01769,0.5923682 -0.08008,1.0703125 C 17.16842,6.8036615 16.649125,8.1430847 15.865234,9.5 A 1,1 0 0 0 16.232422,10.865234 1,1 0 0 0 17.597656,10.5 C 18.471764,8.9869182 19.06619,7.5032894 19.326172,6.2324219 19.456163,5.5969881 19.5087,5.0149242 19.427734,4.4570312 19.346769,3.8991383 19.090281,3.2779755 18.5,2.9375 17.909875,2.5971146 17.24226,2.6856103 16.71875,2.8945313 Z"
     id="path3" />
  <path
     style="color:#000000;fill:#000000;stroke-width:0;stroke-dasharray:none"
     d="M 15.5,8.1347656 A 1,1 0 0 0 14.134766,8.5 l -3,5.195313 A 1,1 0 0 0 11.5,15.0625 1,1 0 0 0 12.865234,14.695313 l 3,-5.195313 A 1,1 0 0 0 15.5,8.1347656 Z"
     id="path4" />
  <path
     style="color:#000000;fill:#000000;stroke-width:0;stroke-dasharray:none"
     d="m 3.9707031,18 c -0.4922796,0.01406 -0.975036,0.136211 -1.4160156,0.355469 a 1,1 0 0 0 -0.4492187,1.339843 1,1 0 0 0 1.3398437,0.449219 c 0.1797462,-0.08937 0.3775457,-0.135958 0.578125,-0.142578 0.4612992,-0.0088 0.8949484,0.207104 1.1640625,0.582031 0.6483325,0.903253 1.7016783,1.428043 2.8125,1.41211 1.1108217,0.01593 2.164168,-0.508857 2.8125,-1.41211 C 11.082156,20.208301 11.516176,19.990315 11.978516,20 a 1.0001,1.0001 0 0 0 0.04297,0 c 0.46234,-0.0097 0.89636,0.208301 1.166016,0.583984 0.648332,0.903253 1.701678,1.428043 2.8125,1.41211 1.110822,0.01593 2.164168,-0.508857 2.8125,-1.41211 0.269114,-0.374927 0.702763,-0.590786 1.164062,-0.582031 0.20058,0.0066 0.398379,0.05321 0.578125,0.142578 a 1,1 0 0 0 1.339844,-0.449219 1,1 0 0 0 -0.449219,-1.339843 C 21.004333,18.136211 20.521577,18.014057 20.029297,18 a 1.0001,1.0001 0 0 0 -0.0078,0 C 18.902402,17.976558 17.840196,18.506685 17.1875,19.416016 16.917844,19.791699 16.483824,20.009685 16.021484,20 a 1.0001,1.0001 0 0 0 -0.04297,0 c -0.46234,0.0097 -0.89636,-0.208301 -1.166016,-0.583984 C 14.164168,18.512763 13.110822,17.987973 12,18.003906 10.889178,17.987973 9.8358325,18.512763 9.1875,19.416016 8.917844,19.791699 8.4838243,20.009685 8.0214844,20 a 1.0001,1.0001 0 0 0 -0.042969,0 C 7.5161757,20.009685 7.082156,19.791699 6.8125,19.416016 6.1598044,18.506685 5.0975977,17.976558 3.9785156,18 a 1.0001,1.0001 0 0 0 -0.00781,0 z"
     id="path5" />
</svg>
