<?xml version="1.0" encoding="UTF-8" standalone="no"?>
<!--
tags: [party, celebrate, streamers, paper, parade, wedding, celebration]
version: "1.39"
unicode: "ee46"
-->

<svg
   width="24"
   height="24"
   viewBox="0 0 24 24"
   fill="none"
   stroke="currentColor"
   stroke-width="2"
   stroke-linecap="round"
   stroke-linejoin="round"
   version="1.1"
   id="svg10"
   sodipodi:docname="confetti.svg"
   inkscape:version="1.3.2 (091e20e, 2023-11-25)"
   xmlns:inkscape="http://www.inkscape.org/namespaces/inkscape"
   xmlns:sodipodi="http://sodipodi.sourceforge.net/DTD/sodipodi-0.dtd"
   xmlns="http://www.w3.org/2000/svg"
   xmlns:svg="http://www.w3.org/2000/svg">
  <defs
     id="defs10" />
  <sodipodi:namedview
     id="namedview10"
     pagecolor="#ffffff"
     bordercolor="#000000"
     borderopacity="0.25"
     inkscape:showpageshadow="2"
     inkscape:pageopacity="0.0"
     inkscape:pagecheckerboard="0"
     inkscape:deskcolor="#d1d1d1"
     inkscape:zoom="9.8333333"
     inkscape:cx="11.949153"
     inkscape:cy="12"
     inkscape:window-width="1312"
     inkscape:window-height="449"
     inkscape:window-x="0"
     inkscape:window-y="38"
     inkscape:window-maximized="0"
     inkscape:current-layer="svg10" />
  <path
     style="color:#000000;fill:#000000;stroke-width:0;stroke-dasharray:none"
     d="M 4,4 A 1,1 0 0 0 3,5 1,1 0 0 0 4,6 H 6 A 1,1 0 0 0 7,5 1,1 0 0 0 6,4 Z"
     id="path1" />
  <path
     style="color:#000000;fill:#000000;stroke-width:0;stroke-dasharray:none"
     d="M 5,3 A 1,1 0 0 0 4,4 V 6 A 1,1 0 0 0 5,7 1,1 0 0 0 6,6 V 4 A 1,1 0 0 0 5,3 Z"
     id="path2" />
  <path
     style="color:#000000;fill:#000000;stroke-width:0;stroke-dasharray:none"
     d="m 11.742188,3.0292969 a 1,1 0 0 0 -1.212891,0.7285156 l -0.5,2 a 1,1 0 0 0 0.728516,1.2128906 1,1 0 0 0 1.21289,-0.7285156 l 0.5,-2 A 1,1 0 0 0 11.742188,3.0292969 Z"
     id="path3" />
  <path
     style="color:#000000;fill:#000000;stroke-width:0;stroke-dasharray:none"
     d="m 18,4 a 1,1 0 0 0 -1,1 1,1 0 0 0 1,1 h 2 A 1,1 0 0 0 21,5 1,1 0 0 0 20,4 Z"
     id="path4" />
  <path
     style="color:#000000;fill:#000000;stroke-width:0;stroke-dasharray:none"
     d="m 19,3 a 1,1 0 0 0 -1,1 v 2 a 1,1 0 0 0 1,1 1,1 0 0 0 1,-1 V 4 A 1,1 0 0 0 19,3 Z"
     id="path5" />
  <path
     style="color:#000000;fill:#000000;stroke-width:0;stroke-dasharray:none"
     d="m 15,8 a 1,1 0 0 0 -0.707031,0.2929688 l -1,1 a 1,1 0 0 0 0,1.4140622 1,1 0 0 0 1.414062,0 l 1,-0.9999997 a 1,1 0 0 0 0,-1.4140625 A 1,1 0 0 0 15,8 Z"
     id="path6" />
  <path
     style="color:#000000;fill:#000000;stroke-width:0;stroke-dasharray:none"
     d="m 19.757812,11.529297 -2,0.5 a 1,1 0 0 0 -0.728515,1.212891 1,1 0 0 0 1.21289,0.728515 l 2,-0.5 a 1,1 0 0 0 0.728516,-1.21289 1,1 0 0 0 -1.212891,-0.728516 z"
     id="path7" />
  <path
     style="color:#000000;fill:#000000;stroke-width:0;stroke-dasharray:none"
     d="m 18,18 a 1,1 0 0 0 -1,1 1,1 0 0 0 1,1 h 2 a 1,1 0 0 0 1,-1 1,1 0 0 0 -1,-1 z"
     id="path8" />
  <path
     style="color:#000000;fill:#000000;stroke-width:0;stroke-dasharray:none"
     d="m 19,17 a 1,1 0 0 0 -1,1 v 2 a 1,1 0 0 0 1,1 1,1 0 0 0 1,-1 v -2 a 1,1 0 0 0 -1,-1 z"
     id="path9" />
  <path
     style="color:#000000;fill:#000000;stroke-width:0;stroke-dasharray:none"
     d="M 7.3046875,9.015625 A 1.0001,1.0001 0 0 0 6.5722656,9.5839844 L 2.1855469,19.158203 c -2.933e-4,6.29e-4 2.925e-4,0.0013 0,0.002 -0.3721401,0.799956 -0.1420749,1.715347 0.3984375,2.25586 0.5409373,0.540937 1.4593658,0.771819 2.2597656,0.398437 l 9.572266,-4.386719 A 1.0001,1.0001 0 0 0 15,16.519531 v -0.002 A 1.0001,1.0001 0 0 0 14.707031,15.810547 L 8.1894531,9.2929688 A 1.0001,1.0001 0 0 0 7.3046875,9.015625 Z M 7.7910156,11.722656 12.277344,16.208984 4.0039062,20 a 1.0001,1.0001 0 0 0 -0.00586,0.002 1.0001,1.0001 0 0 0 0.00391,-0.0059 z"
     id="path10" />
</svg>
