<?xml version="1.0" encoding="UTF-8" standalone="no"?>
<!--
tags: [prayer, church, catholic, jezus, religion]
category: Symbols
version: "1.47"
unicode: "ef8f"
-->

<svg
   width="24"
   height="24"
   viewBox="0 0 24 24"
   fill="none"
   stroke="currentColor"
   stroke-width="2"
   stroke-linecap="round"
   stroke-linejoin="round"
   version="1.1"
   id="svg1"
   sodipodi:docname="cross.svg"
   inkscape:version="1.3.2 (091e20e, 2023-11-25)"
   xmlns:inkscape="http://www.inkscape.org/namespaces/inkscape"
   xmlns:sodipodi="http://sodipodi.sourceforge.net/DTD/sodipodi-0.dtd"
   xmlns="http://www.w3.org/2000/svg"
   xmlns:svg="http://www.w3.org/2000/svg">
  <defs
     id="defs1" />
  <sodipodi:namedview
     id="namedview1"
     pagecolor="#ffffff"
     bordercolor="#000000"
     borderopacity="0.25"
     inkscape:showpageshadow="2"
     inkscape:pageopacity="0.0"
     inkscape:pagecheckerboard="0"
     inkscape:deskcolor="#d1d1d1"
     inkscape:zoom="9.8333333"
     inkscape:cx="11.949153"
     inkscape:cy="12"
     inkscape:window-width="1312"
     inkscape:window-height="449"
     inkscape:window-x="0"
     inkscape:window-y="38"
     inkscape:window-maximized="0"
     inkscape:current-layer="svg1" />
  <path
     style="color:#000000;fill:#000000;stroke-width:0;stroke-dasharray:none"
     d="M 10,2 A 1.0001,1.0001 0 0 0 9,3 V 7 H 5 A 1.0001,1.0001 0 0 0 4,8 v 4 a 1.0001,1.0001 0 0 0 1,1 h 4 v 8 a 1.0001,1.0001 0 0 0 1,1 h 4 a 1.0001,1.0001 0 0 0 1,-1 v -8 h 4 a 1.0001,1.0001 0 0 0 1,-1 V 8 A 1.0001,1.0001 0 0 0 19,7 H 15 V 3 A 1.0001,1.0001 0 0 0 14,2 Z m 1,2 h 2 v 4 a 1.0001,1.0001 0 0 0 1,1 h 4 v 2 h -4 a 1.0001,1.0001 0 0 0 -1,1 v 8 H 11 V 12 A 1.0001,1.0001 0 0 0 10,11 H 6 V 9 h 4 a 1.0001,1.0001 0 0 0 1,-1 z"
     id="path1" />
</svg>
