<?xml version="1.0" encoding="UTF-8" standalone="no"?>
<!--
tags: [love, valentine, romantic, romance, marriage]
category: Shapes
unicode: "f387"
version: "1.91"
-->

<svg
   width="24"
   height="24"
   viewBox="0 0 24 24"
   fill="none"
   stroke="currentColor"
   stroke-width="2"
   stroke-linecap="round"
   stroke-linejoin="round"
   version="1.1"
   id="svg2"
   sodipodi:docname="hearts.svg"
   inkscape:version="1.3.2 (091e20e, 2023-11-25)"
   xmlns:inkscape="http://www.inkscape.org/namespaces/inkscape"
   xmlns:sodipodi="http://sodipodi.sourceforge.net/DTD/sodipodi-0.dtd"
   xmlns="http://www.w3.org/2000/svg"
   xmlns:svg="http://www.w3.org/2000/svg">
  <defs
     id="defs2" />
  <sodipodi:namedview
     id="namedview2"
     pagecolor="#ffffff"
     bordercolor="#000000"
     borderopacity="0.25"
     inkscape:showpageshadow="2"
     inkscape:pageopacity="0.0"
     inkscape:pagecheckerboard="0"
     inkscape:deskcolor="#d1d1d1"
     inkscape:zoom="9.8333333"
     inkscape:cx="11.949153"
     inkscape:cy="12"
     inkscape:window-width="1312"
     inkscape:window-height="449"
     inkscape:window-x="0"
     inkscape:window-y="38"
     inkscape:window-maximized="0"
     inkscape:current-layer="svg2" />
  <path
     style="color:#000000;fill:#000000;stroke-width:0;stroke-dasharray:none"
     d="M 15.326172,2.96875 C 14.136267,3.0869999 12.994255,3.7364366 11.990234,4.6972656 9.7880557,2.6604527 6.3756166,2.4256144 4.0351562,4.4746094 1.4111574,6.7718329 1.3033101,10.856879 3.8027344,13.289063 l 7.4941406,7.421874 a 1.0001,1.0001 0 0 0 1.408203,0 l 2.015625,-2 a 1,1 0 0 0 0.0059,-1.416015 1,1 0 0 0 -1.414063,-0.0059 L 12,18.591797 5.203125,11.861328 a 1.0001,1.0001 0 0 0 -0.00586,-0.0059 C 3.512939,10.216455 3.5832866,7.5265823 5.3515625,5.9785156 7.1198384,4.430449 9.7953422,4.7153138 11.197266,6.6015625 a 1.0001,1.0001 0 0 0 1.601562,0.00586 c 0.825375,-1.0988476 1.764276,-1.5530018 2.72461,-1.6484375 0.960333,-0.095436 1.967473,0.2042478 2.789062,0.7871093 0.821589,0.5828616 1.438786,1.4331626 1.666016,2.3710938 0.227229,0.9379312 0.108169,1.9750955 -0.65625,3.1171875 a 1,1 0 0 0 0.27539,1.386719 1,1 0 0 0 1.386719,-0.275391 c 1.039908,-1.55369 1.29183,-3.236658 0.9375,-4.6992186 C 21.567545,6.1839237 20.649439,4.9528532 19.46875,4.1152344 18.288061,3.2776156 16.823665,2.8199326 15.326172,2.96875 Z"
     id="path1" />
  <path
     style="color:#000000;fill:#000000;stroke-width:0;stroke-dasharray:none"
     d="m 13.765625,10.007813 c -0.968725,-0.0017 -1.937414,0.364096 -2.667969,1.101562 -1.4592317,1.473107 -1.4637644,3.875243 -0.0098,5.353516 a 1.0001,1.0001 0 0 0 0.002,0.002 l 4.18164,4.238281 A 1.0001,1.0001 0 0 0 15.982422,21 h 0.0078 a 1.0001,1.0001 0 0 0 0.708985,-0.294922 l 4.197265,-4.222656 a 1.0001,1.0001 0 0 0 0.002,-0.0039 c 1.456613,-1.475692 1.456613,-3.875871 0,-5.351563 C 19.56921,9.7767217 17.472079,9.7188147 16,10.830078 15.335576,10.324513 14.566052,10.009245 13.765625,10.007813 Z m -0.0039,1.986328 c 0.448482,8.03e-4 0.89842,0.175844 1.24414,0.527343 a 1.0001,1.0001 0 0 0 0,0.002 l 0.279297,0.283203 a 1.0001,1.0001 0 0 0 1.421875,0.002 l 0.279297,-0.28125 a 1.0001,1.0001 0 0 0 0.002,-0.002 c 0.693954,-0.700519 1.794887,-0.699093 2.486328,0.0039 a 1.0001,1.0001 0 0 0 0,0.002 c 0.70377,0.712988 0.70377,1.829981 0,2.542969 l 0.0039,-0.002 -3.490235,3.509765 -3.474609,-3.521484 c -0.702507,-0.714235 -0.701129,-1.83123 0.0039,-2.542969 0.346977,-0.350259 0.795658,-0.52424 1.244141,-0.523437 z"
     id="path2" />
</svg>
