<?xml version="1.0" encoding="UTF-8" standalone="no"?>
<!--
category: Media
tags: [sound, mp3, album, speakers, melody]
version: "1.0"
unicode: "eafc"
-->

<svg
   width="24"
   height="24"
   viewBox="0 0 24 24"
   fill="none"
   stroke="currentColor"
   stroke-width="2"
   stroke-linecap="round"
   stroke-linejoin="round"
   version="1.1"
   id="svg4"
   sodipodi:docname="music.svg"
   inkscape:version="1.3.2 (091e20e, 2023-11-25)"
   xmlns:inkscape="http://www.inkscape.org/namespaces/inkscape"
   xmlns:sodipodi="http://sodipodi.sourceforge.net/DTD/sodipodi-0.dtd"
   xmlns="http://www.w3.org/2000/svg"
   xmlns:svg="http://www.w3.org/2000/svg">
  <defs
     id="defs4" />
  <sodipodi:namedview
     id="namedview4"
     pagecolor="#ffffff"
     bordercolor="#000000"
     borderopacity="0.25"
     inkscape:showpageshadow="2"
     inkscape:pageopacity="0.0"
     inkscape:pagecheckerboard="0"
     inkscape:deskcolor="#d1d1d1"
     inkscape:zoom="9.8333333"
     inkscape:cx="11.949153"
     inkscape:cy="12"
     inkscape:window-width="1312"
     inkscape:window-height="449"
     inkscape:window-x="0"
     inkscape:window-y="38"
     inkscape:window-maximized="0"
     inkscape:current-layer="svg4" />
  <path
     style="color:#000000;fill:#000000;stroke-width:0;stroke-dasharray:none"
     d="M 6,13 C 5.0277788,13 4.0421186,13.318681 3.2734375,14.001953 2.5047564,14.685225 2,15.750002 2,17 2,18.249998 2.5047564,19.314775 3.2734375,19.998047 4.0421186,20.681319 5.0277788,21 6,21 6.9722212,21 7.9578814,20.681319 8.7265625,19.998047 9.4952436,19.314775 10,18.249998 10,17 10,15.750002 9.4952436,14.685225 8.7265625,14.001953 7.9578814,13.318681 6.9722212,13 6,13 Z m 0,2 c 0.5277773,0 1.0421198,0.18132 1.3984375,0.498047 C 7.7547552,15.814774 8,16.250001 8,17 8,17.749999 7.7547552,18.185226 7.3984375,18.501953 7.0421198,18.81868 6.5277773,19 6,19 5.4722227,19 4.9578802,18.81868 4.6015625,18.501953 4.2452448,18.185226 4,17.749999 4,17 4,16.250001 4.2452448,15.814774 4.6015625,15.498047 4.9578802,15.18132 5.4722227,15 6,15 Z"
     id="path1" />
  <path
     style="color:#000000;fill:#000000;stroke-width:0;stroke-dasharray:none"
     d="m 16,13 c -0.972221,0 -1.957881,0.318681 -2.726562,1.001953 C 12.504756,14.685225 12,15.750002 12,17 c 0,1.249998 0.504756,2.314775 1.273438,2.998047 C 14.042119,20.681319 15.027779,21 16,21 16.972221,21 17.957881,20.681319 18.726562,19.998047 19.495244,19.314775 20,18.249998 20,17 20,15.750002 19.495244,14.685225 18.726562,14.001953 17.957881,13.318681 16.972221,13 16,13 Z m 0,2 c 0.527777,0 1.04212,0.18132 1.398437,0.498047 C 17.754755,15.814774 18,16.250001 18,17 18,17.749999 17.754755,18.185226 17.398437,18.501953 17.04212,18.81868 16.527777,19 16,19 15.472223,19 14.95788,18.81868 14.601563,18.501953 14.245245,18.185226 14,17.749999 14,17 14,16.250001 14.245245,15.814774 14.601563,15.498047 14.95788,15.18132 15.472223,15 16,15 Z"
     id="path2" />
  <path
     style="color:#000000;fill:#000000;stroke-width:0;stroke-dasharray:none"
     d="M 9,3 A 1.0001,1.0001 0 0 0 8,4 v 13 a 1,1 0 0 0 1,1 1,1 0 0 0 1,-1 V 5 h 8 v 12 a 1,1 0 0 0 1,1 1,1 0 0 0 1,-1 V 4 A 1.0001,1.0001 0 0 0 19,3 Z"
     id="path3" />
  <path
     style="color:#000000;fill:#000000;stroke-width:0;stroke-dasharray:none"
     d="M 9,7 A 1,1 0 0 0 8,8 1,1 0 0 0 9,9 H 19 A 1,1 0 0 0 20,8 1,1 0 0 0 19,7 Z"
     id="path4" />
</svg>
