<?xml version="1.0" encoding="UTF-8" standalone="no"?>
<!--
category: E-commerce
tags: [basketball, soccer, football, player, clothes, game]
version: "1.76"
unicode: "f26c"
-->

<svg
   width="24"
   height="24"
   viewBox="0 0 24 24"
   fill="none"
   stroke="currentColor"
   stroke-width="2"
   stroke-linecap="round"
   stroke-linejoin="round"
   version="1.1"
   id="svg2"
   sodipodi:docname="shirt-sport.svg"
   inkscape:version="1.3.2 (091e20e, 2023-11-25)"
   xmlns:inkscape="http://www.inkscape.org/namespaces/inkscape"
   xmlns:sodipodi="http://sodipodi.sourceforge.net/DTD/sodipodi-0.dtd"
   xmlns="http://www.w3.org/2000/svg"
   xmlns:svg="http://www.w3.org/2000/svg">
  <defs
     id="defs2" />
  <sodipodi:namedview
     id="namedview2"
     pagecolor="#ffffff"
     bordercolor="#000000"
     borderopacity="0.25"
     inkscape:showpageshadow="2"
     inkscape:pageopacity="0.0"
     inkscape:pagecheckerboard="0"
     inkscape:deskcolor="#d1d1d1"
     inkscape:zoom="9.8333333"
     inkscape:cx="11.949153"
     inkscape:cy="12"
     inkscape:window-width="1312"
     inkscape:window-height="449"
     inkscape:window-x="0"
     inkscape:window-y="38"
     inkscape:window-maximized="0"
     inkscape:current-layer="svg2" />
  <path
     style="color:#000000;fill:#000000;stroke-width:0;stroke-dasharray:none"
     d="M 15,3 A 1,1 0 0 0 14.152344,3.6328125 1,1 0 0 0 14.050781,3.6835938 1,1 0 0 0 14.0625,3.8496094 1,1 0 0 0 14,4 C 14,4.7499987 13.754755,5.1852264 13.398438,5.5019531 13.04212,5.8186799 12.527777,6 12,6 11.472223,6 10.95788,5.8186799 10.601563,5.5019531 10.245245,5.1852264 10,4.7499987 10,4 A 1.0001,1.0001 0 0 0 8.6835938,3.0507813 l -6,1.9999999 A 1.0001,1.0001 0 0 0 2,6 v 5 a 1.0001,1.0001 0 0 0 1,1 h 2 v 7 c 0,1.092724 0.9072762,2 2,2 h 10 c 1.092724,0 2,-0.907276 2,-2 v -7 h 2 a 1.0001,1.0001 0 0 0 1,-1 V 6 A 1.0001,1.0001 0 0 0 21.316406,5.0507812 l -6,-1.9999999 a 1,1 0 0 0 -0.01758,0.00781 A 1,1 0 0 0 15,3 Z M 8.2636719,5.3007812 C 8.47988,5.9706028 8.7969323,6.5744869 9.2734375,6.9980469 10.042119,7.6813187 11.027779,8 12,8 12.972221,8 13.957881,7.6813187 14.726563,6.9980469 15.203068,6.5744869 15.52012,5.9706028 15.736328,5.3007812 L 20,6.7207031 V 10 h -2 a 1.0001,1.0001 0 0 0 -1,1 v 8 H 7 V 11 A 1.0001,1.0001 0 0 0 6,10 H 4 V 6.7207031 Z"
     id="path1" />
  <path
     style="color:#000000;fill:#000000;stroke-width:0;stroke-dasharray:none"
     d="m 10.5,10 a 1,1 0 0 0 -1,1 1,1 0 0 0 1,1 h 1.15625 l -1.113281,3.712891 a 1,1 0 0 0 0.669922,1.24414 1,1 0 0 0 1.24414,-0.669922 l 1.5,-5 A 1.0001,1.0001 0 0 0 13,10 Z"
     id="path2" />
</svg>
