<?xml version="1.0" encoding="UTF-8" standalone="no"?>
<svg width="800" height="480" xmlns="http://www.w3.org/2000/svg">
  <rect width="800" height="480" x="0" y="0" fill="#A0A0A0" />
  <rect width="113" height="170" x="1" y="139" stroke="black" fill="#A0A0A0"/>
  <rect width="113" height="170" x="115" y="139" stroke="black" fill="#A0A0A0"/>
  <text x="170" y="170" fill="red" font-size="30" font-family="sans-serif" text-anchor="middle">12</text>
  <path transform="translate(120,262) scale(1.5)" d="M1.49,16.88c0,1.12,0.33,2.12,1,3s1.53,1.47,2.58,1.76l-0.66,1.7c-0.05,0.14,0,0.22,0.14,0.22h2.13l-1.43,4.21h0.29
  	l4.36-5.66c0.04-0.04,0.04-0.09,0.02-0.14C9.9,21.92,9.85,21.9,9.78,21.9H7.59l2.49-4.65c0.07-0.14,0.03-0.22-0.14-0.22H6.98
  	c-0.09,0-0.17,0.05-0.23,0.15l-1.07,2.88C4.96,19.88,4.36,19.5,3.9,18.9c-0.47-0.59-0.7-1.26-0.7-2.02c0-0.84,0.28-1.57,0.84-2.18
  	c0.56-0.61,1.27-0.97,2.11-1.07l0.51-0.03c0.12,0,0.19-0.05,0.22-0.14l0.07-0.59c0.11-1.08,0.56-1.99,1.37-2.72s1.76-1.1,2.86-1.1
  	c1.09,0,2.04,0.37,2.86,1.1s1.29,1.64,1.4,2.72l0.08,0.59c0,0.11,0.06,0.17,0.18,0.17h1.61c0.89,0,1.66,0.32,2.31,0.96
  	s0.97,1.4,0.97,2.29c0,0.87-0.3,1.62-0.9,2.26s-1.32,0.98-2.18,1.03c-0.13,0-0.2,0.06-0.2,0.18v1.34c0,0.11,0.07,0.17,0.2,0.17
  	c0.88-0.02,1.69-0.26,2.42-0.72c0.73-0.45,1.31-1.06,1.74-1.81s0.64-1.57,0.64-2.45c0-0.73-0.14-1.4-0.43-2.02
  	c0.76-0.96,1.14-2.06,1.14-3.29c0-0.95-0.24-1.83-0.71-2.64c-0.47-0.81-1.11-1.45-1.92-1.92c-0.81-0.47-1.69-0.71-2.64-0.71
  	c-0.72,0-1.42,0.15-2.1,0.45c-0.68,0.3-1.26,0.72-1.76,1.25c-0.81-0.43-1.71-0.65-2.72-0.65c-1.42,0-2.68,0.44-3.77,1.32
  	s-1.8,2-2.1,3.37c-1.11,0.26-2.02,0.84-2.74,1.74C1.85,14.7,1.49,15.73,1.49,16.88z M9.67,26.8c0,0.15,0.05,0.31,0.16,0.47
  	c0.11,0.16,0.26,0.27,0.46,0.34c0.11,0.03,0.2,0.04,0.25,0.04c0.15,0,0.28-0.03,0.38-0.08c0.21-0.08,0.36-0.27,0.43-0.57l0.27-1.03
  	c0.06-0.25,0.03-0.47-0.08-0.67s-0.3-0.32-0.53-0.37c-0.21-0.07-0.41-0.04-0.62,0.07c-0.21,0.12-0.35,0.29-0.42,0.52l-0.25,1.04
  	C9.69,26.7,9.67,26.78,9.67,26.8z M9.9,4.59c0,0.23,0.08,0.43,0.25,0.6l0.65,0.66c0.16,0.16,0.34,0.24,0.55,0.26
  	c0.21,0.03,0.41-0.04,0.61-0.23c0.2-0.18,0.3-0.39,0.3-0.64c0-0.23-0.08-0.43-0.25-0.6l-0.63-0.66c-0.16-0.16-0.36-0.24-0.6-0.24
  	c-0.25,0-0.46,0.08-0.63,0.24C9.99,4.16,9.9,4.36,9.9,4.59z M11.01,22c-0.01,0.16,0.04,0.32,0.14,0.47c0.1,0.15,0.26,0.26,0.48,0.32
  	c0.21,0.07,0.42,0.05,0.62-0.06c0.2-0.11,0.34-0.3,0.42-0.56l0.3-1.03c0.07-0.22,0.04-0.43-0.08-0.63s-0.3-0.34-0.54-0.41
  	c-0.23-0.07-0.44-0.05-0.64,0.07c-0.2,0.12-0.34,0.29-0.41,0.53l-0.24,1.05C11.03,21.9,11.01,21.98,11.01,22z M13.84,23.68
  	c0,0.14,0.03,0.28,0.1,0.39c0.13,0.21,0.31,0.36,0.54,0.43c0.11,0.04,0.21,0.06,0.28,0.06c0.13,0,0.23-0.02,0.31-0.08
  	c0.2-0.07,0.35-0.27,0.45-0.6l0.25-1.01c0.07-0.24,0.05-0.45-0.07-0.65c-0.11-0.2-0.28-0.33-0.51-0.39
  	c-0.23-0.07-0.45-0.05-0.65,0.07c-0.2,0.11-0.34,0.28-0.41,0.51l-0.28,1.04C13.85,23.53,13.84,23.61,13.84,23.68z M15.21,18.86
  	c0,0.18,0.05,0.34,0.16,0.5c0.11,0.16,0.27,0.27,0.49,0.33c0.17,0.06,0.37,0.04,0.61-0.05c0.2-0.09,0.34-0.28,0.43-0.57l0.27-1
  	c0.06-0.25,0.04-0.47-0.08-0.67s-0.29-0.32-0.53-0.37c-0.23-0.07-0.44-0.05-0.64,0.06c-0.2,0.11-0.33,0.28-0.4,0.5l-0.29,1.06
  	C15.22,18.79,15.21,18.86,15.21,18.86z M15.31,9.02c0.67-0.64,1.48-0.97,2.45-0.97c0.98,0,1.82,0.34,2.51,1.03
  	c0.69,0.68,1.04,1.52,1.04,2.5c0,0.66-0.16,1.26-0.47,1.81c-0.96-0.96-2.13-1.44-3.52-1.44h-0.31C16.72,10.76,16.15,9.78,15.31,9.02
  	z M16.91,3.75c0,0.24,0.08,0.44,0.25,0.61s0.37,0.25,0.6,0.25c0.24,0,0.44-0.08,0.6-0.25c0.16-0.17,0.24-0.37,0.24-0.61V1.69
  	c0-0.24-0.08-0.45-0.24-0.61C18.2,0.91,18,0.82,17.76,0.82c-0.24,0-0.44,0.08-0.6,0.25s-0.25,0.37-0.25,0.61V3.75z M22.49,6.04
  	c0,0.24,0.08,0.44,0.23,0.6c0.14,0.16,0.32,0.24,0.55,0.26c0.23,0.02,0.44-0.07,0.63-0.26l1.44-1.44c0.18-0.16,0.26-0.36,0.26-0.6
  	s-0.09-0.44-0.26-0.6c-0.16-0.18-0.36-0.26-0.6-0.26c-0.23,0-0.42,0.09-0.58,0.26l-1.44,1.44C22.56,5.59,22.49,5.79,22.49,6.04z
  	 M23.26,17.95c0,0.23,0.08,0.43,0.25,0.6l0.65,0.63c0.18,0.17,0.39,0.25,0.62,0.25l0.02,0.02c0.22,0,0.4-0.09,0.54-0.27
  	c0.18-0.16,0.26-0.36,0.26-0.6c0-0.23-0.09-0.43-0.26-0.61l-0.62-0.62c-0.18-0.18-0.38-0.27-0.61-0.27c-0.24,0-0.44,0.09-0.6,0.26
  	C23.35,17.51,23.26,17.72,23.26,17.95z M24.73,11.58c0,0.24,0.09,0.44,0.26,0.59c0.16,0.18,0.36,0.26,0.6,0.26h2.06
  	c0.24,0,0.44-0.08,0.61-0.25c0.17-0.17,0.25-0.37,0.25-0.6s-0.08-0.44-0.25-0.6c-0.17-0.16-0.37-0.24-0.61-0.24h-2.06
  	c-0.24,0-0.45,0.08-0.61,0.24C24.81,11.14,24.73,11.34,24.73,11.58z"/>
  <text x="170" y="280" fill="black" font-size="16" font-family="sans-serif">18° 24°</text>
  <text x="170" y="300" fill="black" font-size="16" font-family="sans-serif">8 mm</text>
  <rect width="113" height="170" x="229" y="139" stroke="black" fill="#A0A0A0"/>
  <text x="284" y="170" fill="black" font-size="30" font-family="sans-serif" text-anchor="middle">13</text>
  <path transform="translate(234,262) scale(1.5)" d="M1.56,16.9c0,0.9,0.22,1.73,0.66,2.49s1.04,1.36,1.8,1.8c0.76,0.44,1.58,0.66,2.47,0.66h10.83c0.89,0,1.72-0.22,2.48-0.66
  	c0.76-0.44,1.37-1.04,1.81-1.8c0.44-0.76,0.67-1.59,0.67-2.49c0-0.66-0.14-1.33-0.42-2C22.62,13.98,23,12.87,23,11.6
  	c0-0.71-0.14-1.39-0.41-2.04c-0.27-0.65-0.65-1.2-1.12-1.67C21,7.42,20.45,7.04,19.8,6.77c-0.65-0.28-1.33-0.41-2.04-0.41
  	c-1.48,0-2.77,0.58-3.88,1.74c-0.77-0.44-1.67-0.66-2.7-0.66c-1.41,0-2.65,0.44-3.73,1.31c-1.08,0.87-1.78,1.99-2.08,3.35
  	c-1.12,0.26-2.03,0.83-2.74,1.73S1.56,15.75,1.56,16.9z M3.27,16.9c0-0.84,0.28-1.56,0.84-2.17c0.56-0.61,1.26-0.96,2.1-1.06
  	l0.5-0.03c0.12,0,0.19-0.06,0.19-0.18l0.07-0.54c0.14-1.08,0.61-1.99,1.41-2.71c0.8-0.73,1.74-1.09,2.81-1.09
  	c1.1,0,2.06,0.37,2.87,1.1c0.82,0.73,1.27,1.63,1.37,2.71l0.07,0.58c0.02,0.11,0.09,0.17,0.21,0.17h1.61c0.88,0,1.64,0.32,2.28,0.96
  	c0.64,0.64,0.96,1.39,0.96,2.27c0,0.91-0.32,1.68-0.95,2.32c-0.63,0.64-1.4,0.96-2.28,0.96H6.49c-0.88,0-1.63-0.32-2.27-0.97
  	C3.59,18.57,3.27,17.8,3.27,16.9z M9.97,4.63c0,0.24,0.08,0.45,0.24,0.63l0.66,0.64c0.25,0.19,0.46,0.27,0.64,0.25
  	c0.21,0,0.39-0.09,0.55-0.26s0.24-0.38,0.24-0.62c0-0.24-0.09-0.44-0.26-0.59l-0.59-0.66c-0.18-0.16-0.38-0.24-0.61-0.24
  	c-0.24,0-0.45,0.08-0.62,0.25C10.05,4.19,9.97,4.39,9.97,4.63z M15.31,9.06c0.69-0.67,1.51-1,2.45-1c0.99,0,1.83,0.34,2.52,1.03
  	c0.69,0.69,1.04,1.52,1.04,2.51c0,0.62-0.17,1.24-0.51,1.84C19.84,12.48,18.68,12,17.32,12H17C16.75,10.91,16.19,9.93,15.31,9.06z
  	 M16.94,3.78c0,0.26,0.08,0.46,0.23,0.62s0.35,0.23,0.59,0.23c0.26,0,0.46-0.08,0.62-0.23c0.16-0.16,0.23-0.36,0.23-0.62V1.73
  	c0-0.24-0.08-0.43-0.24-0.59s-0.36-0.23-0.61-0.23c-0.24,0-0.43,0.08-0.59,0.23s-0.23,0.35-0.23,0.59V3.78z M22.46,6.07
  	c0,0.26,0.07,0.46,0.22,0.62c0.21,0.16,0.42,0.24,0.62,0.24c0.18,0,0.38-0.08,0.59-0.24l1.43-1.43c0.16-0.18,0.24-0.39,0.24-0.64
  	c0-0.24-0.08-0.44-0.24-0.6c-0.16-0.16-0.36-0.24-0.59-0.24c-0.24,0-0.43,0.08-0.58,0.24l-1.47,1.43
  	C22.53,5.64,22.46,5.84,22.46,6.07z M23.25,17.91c0,0.24,0.08,0.45,0.25,0.63l0.65,0.63c0.15,0.16,0.34,0.24,0.58,0.24
  	s0.44-0.08,0.6-0.25c0.16-0.17,0.24-0.37,0.24-0.62c0-0.22-0.08-0.42-0.24-0.58l-0.65-0.65c-0.16-0.16-0.35-0.24-0.57-0.24
  	c-0.24,0-0.44,0.08-0.6,0.24C23.34,17.47,23.25,17.67,23.25,17.91z M24.72,11.6c0,0.23,0.09,0.42,0.26,0.58
  	c0.16,0.16,0.37,0.24,0.61,0.24h2.04c0.23,0,0.42-0.08,0.58-0.23s0.23-0.35,0.23-0.59c0-0.24-0.08-0.44-0.23-0.6
  	s-0.35-0.25-0.58-0.25h-2.04c-0.24,0-0.44,0.08-0.61,0.25C24.8,11.17,24.72,11.37,24.72,11.6z"/>
  <text x="284" y="280" fill="black" font-size="16" font-family="sans-serif">16° 24°</text>
  <text x="284" y="300" fill="black" font-size="16" font-family="sans-serif">2 mm</text>
  <rect width="113" height="170" x="343" y="139" stroke="black" fill="#A0A0A0"/>
  <text x="398" y="170" fill="black" font-size="30" font-family="sans-serif" text-anchor="middle">14</text>
  <text x="350" y="190" fill="black" font-size="20" font-family="sans-serif">oma</text>
  <path transform="translate(348,262) scale(1.5)" d="M1.56,16.9c0,0.9,0.22,1.73,0.66,2.49s1.04,1.36,1.8,1.8c0.76,0.44,1.58,0.66,2.47,0.66h10.83c0.89,0,1.72-0.22,2.48-0.66
  	c0.76-0.44,1.37-1.04,1.81-1.8c0.44-0.76,0.67-1.59,0.67-2.49c0-0.66-0.14-1.33-0.42-2C22.62,13.98,23,12.87,23,11.6
  	c0-0.71-0.14-1.39-0.41-2.04c-0.27-0.65-0.65-1.2-1.12-1.67C21,7.42,20.45,7.04,19.8,6.77c-0.65-0.28-1.33-0.41-2.04-0.41
  	c-1.48,0-2.77,0.58-3.88,1.74c-0.77-0.44-1.67-0.66-2.7-0.66c-1.41,0-2.65,0.44-3.73,1.31c-1.08,0.87-1.78,1.99-2.08,3.35
  	c-1.12,0.26-2.03,0.83-2.74,1.73S1.56,15.75,1.56,16.9z M3.27,16.9c0-0.84,0.28-1.56,0.84-2.17c0.56-0.61,1.26-0.96,2.1-1.06
  	l0.5-0.03c0.12,0,0.19-0.06,0.19-0.18l0.07-0.54c0.14-1.08,0.61-1.99,1.41-2.71c0.8-0.73,1.74-1.09,2.81-1.09
  	c1.1,0,2.06,0.37,2.87,1.1c0.82,0.73,1.27,1.63,1.37,2.71l0.07,0.58c0.02,0.11,0.09,0.17,0.21,0.17h1.61c0.88,0,1.64,0.32,2.28,0.96
  	c0.64,0.64,0.96,1.39,0.96,2.27c0,0.91-0.32,1.68-0.95,2.32c-0.63,0.64-1.4,0.96-2.28,0.96H6.49c-0.88,0-1.63-0.32-2.27-0.97
  	C3.59,18.57,3.27,17.8,3.27,16.9z M9.97,4.63c0,0.24,0.08,0.45,0.24,0.63l0.66,0.64c0.25,0.19,0.46,0.27,0.64,0.25
  	c0.21,0,0.39-0.09,0.55-0.26s0.24-0.38,0.24-0.62c0-0.24-0.09-0.44-0.26-0.59l-0.59-0.66c-0.18-0.16-0.38-0.24-0.61-0.24
  	c-0.24,0-0.45,0.08-0.62,0.25C10.05,4.19,9.97,4.39,9.97,4.63z M15.31,9.06c0.69-0.67,1.51-1,2.45-1c0.99,0,1.83,0.34,2.52,1.03
  	c0.69,0.69,1.04,1.52,1.04,2.51c0,0.62-0.17,1.24-0.51,1.84C19.84,12.48,18.68,12,17.32,12H17C16.75,10.91,16.19,9.93,15.31,9.06z
  	 M16.94,3.78c0,0.26,0.08,0.46,0.23,0.62s0.35,0.23,0.59,0.23c0.26,0,0.46-0.08,0.62-0.23c0.16-0.16,0.23-0.36,0.23-0.62V1.73
  	c0-0.24-0.08-0.43-0.24-0.59s-0.36-0.23-0.61-0.23c-0.24,0-0.43,0.08-0.59,0.23s-0.23,0.35-0.23,0.59V3.78z M22.46,6.07
  	c0,0.26,0.07,0.46,0.22,0.62c0.21,0.16,0.42,0.24,0.62,0.24c0.18,0,0.38-0.08,0.59-0.24l1.43-1.43c0.16-0.18,0.24-0.39,0.24-0.64
  	c0-0.24-0.08-0.44-0.24-0.6c-0.16-0.16-0.36-0.24-0.59-0.24c-0.24,0-0.43,0.08-0.58,0.24l-1.47,1.43
  	C22.53,5.64,22.46,5.84,22.46,6.07z M23.25,17.91c0,0.24,0.08,0.45,0.25,0.63l0.65,0.63c0.15,0.16,0.34,0.24,0.58,0.24
  	s0.44-0.08,0.6-0.25c0.16-0.17,0.24-0.37,0.24-0.62c0-0.22-0.08-0.42-0.24-0.58l-0.65-0.65c-0.16-0.16-0.35-0.24-0.57-0.24
  	c-0.24,0-0.44,0.08-0.6,0.24C23.34,17.47,23.25,17.67,23.25,17.91z M24.72,11.6c0,0.23,0.09,0.42,0.26,0.58
  	c0.16,0.16,0.37,0.24,0.61,0.24h2.04c0.23,0,0.42-0.08,0.58-0.23s0.23-0.35,0.23-0.59c0-0.24-0.08-0.44-0.23-0.6
  	s-0.35-0.25-0.58-0.25h-2.04c-0.24,0-0.44,0.08-0.61,0.25C24.8,11.17,24.72,11.37,24.72,11.6z"/>
  <text x="398" y="280" fill="black" font-size="16" font-family="sans-serif">16° 24°</text>
  <text x="398" y="300" fill="black" font-size="16" font-family="sans-serif">2 mm</text>
  <rect width="113" height="170" x="457" y="139" stroke="black" fill="#A0A0A0"/>
  <text x="512" y="170" fill="black" font-size="30" font-family="sans-serif" text-anchor="middle">15</text>
  <path transform="translate(462,262) scale(1.5)" d="M1.56,16.9c0,0.9,0.22,1.73,0.66,2.49s1.04,1.36,1.8,1.8c0.76,0.44,1.58,0.66,2.47,0.66h10.83c0.89,0,1.72-0.22,2.48-0.66
  	c0.76-0.44,1.37-1.04,1.81-1.8c0.44-0.76,0.67-1.59,0.67-2.49c0-0.66-0.14-1.33-0.42-2C22.62,13.98,23,12.87,23,11.6
  	c0-0.71-0.14-1.39-0.41-2.04c-0.27-0.65-0.65-1.2-1.12-1.67C21,7.42,20.45,7.04,19.8,6.77c-0.65-0.28-1.33-0.41-2.04-0.41
  	c-1.48,0-2.77,0.58-3.88,1.74c-0.77-0.44-1.67-0.66-2.7-0.66c-1.41,0-2.65,0.44-3.73,1.31c-1.08,0.87-1.78,1.99-2.08,3.35
  	c-1.12,0.26-2.03,0.83-2.74,1.73S1.56,15.75,1.56,16.9z M3.27,16.9c0-0.84,0.28-1.56,0.84-2.17c0.56-0.61,1.26-0.96,2.1-1.06
  	l0.5-0.03c0.12,0,0.19-0.06,0.19-0.18l0.07-0.54c0.14-1.08,0.61-1.99,1.41-2.71c0.8-0.73,1.74-1.09,2.81-1.09
  	c1.1,0,2.06,0.37,2.87,1.1c0.82,0.73,1.27,1.63,1.37,2.71l0.07,0.58c0.02,0.11,0.09,0.17,0.21,0.17h1.61c0.88,0,1.64,0.32,2.28,0.96
  	c0.64,0.64,0.96,1.39,0.96,2.27c0,0.91-0.32,1.68-0.95,2.32c-0.63,0.64-1.4,0.96-2.28,0.96H6.49c-0.88,0-1.63-0.32-2.27-0.97
  	C3.59,18.57,3.27,17.8,3.27,16.9z M9.97,4.63c0,0.24,0.08,0.45,0.24,0.63l0.66,0.64c0.25,0.19,0.46,0.27,0.64,0.25
  	c0.21,0,0.39-0.09,0.55-0.26s0.24-0.38,0.24-0.62c0-0.24-0.09-0.44-0.26-0.59l-0.59-0.66c-0.18-0.16-0.38-0.24-0.61-0.24
  	c-0.24,0-0.45,0.08-0.62,0.25C10.05,4.19,9.97,4.39,9.97,4.63z M15.31,9.06c0.69-0.67,1.51-1,2.45-1c0.99,0,1.83,0.34,2.52,1.03
  	c0.69,0.69,1.04,1.52,1.04,2.51c0,0.62-0.17,1.24-0.51,1.84C19.84,12.48,18.68,12,17.32,12H17C16.75,10.91,16.19,9.93,15.31,9.06z
  	 M16.94,3.78c0,0.26,0.08,0.46,0.23,0.62s0.35,0.23,0.59,0.23c0.26,0,0.46-0.08,0.62-0.23c0.16-0.16,0.23-0.36,0.23-0.62V1.73
  	c0-0.24-0.08-0.43-0.24-0.59s-0.36-0.23-0.61-0.23c-0.24,0-0.43,0.08-0.59,0.23s-0.23,0.35-0.23,0.59V3.78z M22.46,6.07
  	c0,0.26,0.07,0.46,0.22,0.62c0.21,0.16,0.42,0.24,0.62,0.24c0.18,0,0.38-0.08,0.59-0.24l1.43-1.43c0.16-0.18,0.24-0.39,0.24-0.64
  	c0-0.24-0.08-0.44-0.24-0.6c-0.16-0.16-0.36-0.24-0.59-0.24c-0.24,0-0.43,0.08-0.58,0.24l-1.47,1.43
  	C22.53,5.64,22.46,5.84,22.46,6.07z M23.25,17.91c0,0.24,0.08,0.45,0.25,0.63l0.65,0.63c0.15,0.16,0.34,0.24,0.58,0.24
  	s0.44-0.08,0.6-0.25c0.16-0.17,0.24-0.37,0.24-0.62c0-0.22-0.08-0.42-0.24-0.58l-0.65-0.65c-0.16-0.16-0.35-0.24-0.57-0.24
  	c-0.24,0-0.44,0.08-0.6,0.24C23.34,17.47,23.25,17.67,23.25,17.91z M24.72,11.6c0,0.23,0.09,0.42,0.26,0.58
  	c0.16,0.16,0.37,0.24,0.61,0.24h2.04c0.23,0,0.42-0.08,0.58-0.23s0.23-0.35,0.23-0.59c0-0.24-0.08-0.44-0.23-0.6
  	s-0.35-0.25-0.58-0.25h-2.04c-0.24,0-0.44,0.08-0.61,0.25C24.8,11.17,24.72,11.37,24.72,11.6z"/>
  <text x="512" y="280" fill="black" font-size="16" font-family="sans-serif">16° 24°</text>
  <text x="512" y="300" fill="black" font-size="16" font-family="sans-serif">2 mm</text>
  <rect width="113" height="170" x="571" y="139" stroke="black" fill="#A0A0A0"/>
  <text x="626" y="170" fill="black" font-size="30" font-family="sans-serif" text-anchor="middle">16</text>
  <path transform="translate(576,262) scale(1.5)" d="M1.56,16.9c0,0.9,0.22,1.73,0.66,2.49s1.04,1.36,1.8,1.8c0.76,0.44,1.58,0.66,2.47,0.66h10.83c0.89,0,1.72-0.22,2.48-0.66
  	c0.76-0.44,1.37-1.04,1.81-1.8c0.44-0.76,0.67-1.59,0.67-2.49c0-0.66-0.14-1.33-0.42-2C22.62,13.98,23,12.87,23,11.6
  	c0-0.71-0.14-1.39-0.41-2.04c-0.27-0.65-0.65-1.2-1.12-1.67C21,7.42,20.45,7.04,19.8,6.77c-0.65-0.28-1.33-0.41-2.04-0.41
  	c-1.48,0-2.77,0.58-3.88,1.74c-0.77-0.44-1.67-0.66-2.7-0.66c-1.41,0-2.65,0.44-3.73,1.31c-1.08,0.87-1.78,1.99-2.08,3.35
  	c-1.12,0.26-2.03,0.83-2.74,1.73S1.56,15.75,1.56,16.9z M3.27,16.9c0-0.84,0.28-1.56,0.84-2.17c0.56-0.61,1.26-0.96,2.1-1.06
  	l0.5-0.03c0.12,0,0.19-0.06,0.19-0.18l0.07-0.54c0.14-1.08,0.61-1.99,1.41-2.71c0.8-0.73,1.74-1.09,2.81-1.09
  	c1.1,0,2.06,0.37,2.87,1.1c0.82,0.73,1.27,1.63,1.37,2.71l0.07,0.58c0.02,0.11,0.09,0.17,0.21,0.17h1.61c0.88,0,1.64,0.32,2.28,0.96
  	c0.64,0.64,0.96,1.39,0.96,2.27c0,0.91-0.32,1.68-0.95,2.32c-0.63,0.64-1.4,0.96-2.28,0.96H6.49c-0.88,0-1.63-0.32-2.27-0.97
  	C3.59,18.57,3.27,17.8,3.27,16.9z M9.97,4.63c0,0.24,0.08,0.45,0.24,0.63l0.66,0.64c0.25,0.19,0.46,0.27,0.64,0.25
  	c0.21,0,0.39-0.09,0.55-0.26s0.24-0.38,0.24-0.62c0-0.24-0.09-0.44-0.26-0.59l-0.59-0.66c-0.18-0.16-0.38-0.24-0.61-0.24
  	c-0.24,0-0.45,0.08-0.62,0.25C10.05,4.19,9.97,4.39,9.97,4.63z M15.31,9.06c0.69-0.67,1.51-1,2.45-1c0.99,0,1.83,0.34,2.52,1.03
  	c0.69,0.69,1.04,1.52,1.04,2.51c0,0.62-0.17,1.24-0.51,1.84C19.84,12.48,18.68,12,17.32,12H17C16.75,10.91,16.19,9.93,15.31,9.06z
  	 M16.94,3.78c0,0.26,0.08,0.46,0.23,0.62s0.35,0.23,0.59,0.23c0.26,0,0.46-0.08,0.62-0.23c0.16-0.16,0.23-0.36,0.23-0.62V1.73
  	c0-0.24-0.08-0.43-0.24-0.59s-0.36-0.23-0.61-0.23c-0.24,0-0.43,0.08-0.59,0.23s-0.23,0.35-0.23,0.59V3.78z M22.46,6.07
  	c0,0.26,0.07,0.46,0.22,0.62c0.21,0.16,0.42,0.24,0.62,0.24c0.18,0,0.38-0.08,0.59-0.24l1.43-1.43c0.16-0.18,0.24-0.39,0.24-0.64
  	c0-0.24-0.08-0.44-0.24-0.6c-0.16-0.16-0.36-0.24-0.59-0.24c-0.24,0-0.43,0.08-0.58,0.24l-1.47,1.43
  	C22.53,5.64,22.46,5.84,22.46,6.07z M23.25,17.91c0,0.24,0.08,0.45,0.25,0.63l0.65,0.63c0.15,0.16,0.34,0.24,0.58,0.24
  	s0.44-0.08,0.6-0.25c0.16-0.17,0.24-0.37,0.24-0.62c0-0.22-0.08-0.42-0.24-0.58l-0.65-0.65c-0.16-0.16-0.35-0.24-0.57-0.24
  	c-0.24,0-0.44,0.08-0.6,0.24C23.34,17.47,23.25,17.67,23.25,17.91z M24.72,11.6c0,0.23,0.09,0.42,0.26,0.58
  	c0.16,0.16,0.37,0.24,0.61,0.24h2.04c0.23,0,0.42-0.08,0.58-0.23s0.23-0.35,0.23-0.59c0-0.24-0.08-0.44-0.23-0.6
  	s-0.35-0.25-0.58-0.25h-2.04c-0.24,0-0.44,0.08-0.61,0.25C24.8,11.17,24.72,11.37,24.72,11.6z"/>
  <text x="626" y="280" fill="black" font-size="16" font-family="sans-serif">16° 24°</text>
  <text x="626" y="300" fill="black" font-size="16" font-family="sans-serif">2 mm</text>
  <rect width="113" height="170" x="685" y="139" stroke="black" fill="#A0A0A0"/>
  <text x="740" y="170" fill="black" font-size="30" font-family="sans-serif" text-anchor="middle">17</text>
  <path transform="translate(690,262) scale(1.5)" d="M1.56,16.9c0,0.9,0.22,1.73,0.66,2.49s1.04,1.36,1.8,1.8c0.76,0.44,1.58,0.66,2.47,0.66h10.83c0.89,0,1.72-0.22,2.48-0.66
  	c0.76-0.44,1.37-1.04,1.81-1.8c0.44-0.76,0.67-1.59,0.67-2.49c0-0.66-0.14-1.33-0.42-2C22.62,13.98,23,12.87,23,11.6
  	c0-0.71-0.14-1.39-0.41-2.04c-0.27-0.65-0.65-1.2-1.12-1.67C21,7.42,20.45,7.04,19.8,6.77c-0.65-0.28-1.33-0.41-2.04-0.41
  	c-1.48,0-2.77,0.58-3.88,1.74c-0.77-0.44-1.67-0.66-2.7-0.66c-1.41,0-2.65,0.44-3.73,1.31c-1.08,0.87-1.78,1.99-2.08,3.35
  	c-1.12,0.26-2.03,0.83-2.74,1.73S1.56,15.75,1.56,16.9z M3.27,16.9c0-0.84,0.28-1.56,0.84-2.17c0.56-0.61,1.26-0.96,2.1-1.06
  	l0.5-0.03c0.12,0,0.19-0.06,0.19-0.18l0.07-0.54c0.14-1.08,0.61-1.99,1.41-2.71c0.8-0.73,1.74-1.09,2.81-1.09
  	c1.1,0,2.06,0.37,2.87,1.1c0.82,0.73,1.27,1.63,1.37,2.71l0.07,0.58c0.02,0.11,0.09,0.17,0.21,0.17h1.61c0.88,0,1.64,0.32,2.28,0.96
  	c0.64,0.64,0.96,1.39,0.96,2.27c0,0.91-0.32,1.68-0.95,2.32c-0.63,0.64-1.4,0.96-2.28,0.96H6.49c-0.88,0-1.63-0.32-2.27-0.97
  	C3.59,18.57,3.27,17.8,3.27,16.9z M9.97,4.63c0,0.24,0.08,0.45,0.24,0.63l0.66,0.64c0.25,0.19,0.46,0.27,0.64,0.25
  	c0.21,0,0.39-0.09,0.55-0.26s0.24-0.38,0.24-0.62c0-0.24-0.09-0.44-0.26-0.59l-0.59-0.66c-0.18-0.16-0.38-0.24-0.61-0.24
  	c-0.24,0-0.45,0.08-0.62,0.25C10.05,4.19,9.97,4.39,9.97,4.63z M15.31,9.06c0.69-0.67,1.51-1,2.45-1c0.99,0,1.83,0.34,2.52,1.03
  	c0.69,0.69,1.04,1.52,1.04,2.51c0,0.62-0.17,1.24-0.51,1.84C19.84,12.48,18.68,12,17.32,12H17C16.75,10.91,16.19,9.93,15.31,9.06z
  	 M16.94,3.78c0,0.26,0.08,0.46,0.23,0.62s0.35,0.23,0.59,0.23c0.26,0,0.46-0.08,0.62-0.23c0.16-0.16,0.23-0.36,0.23-0.62V1.73
  	c0-0.24-0.08-0.43-0.24-0.59s-0.36-0.23-0.61-0.23c-0.24,0-0.43,0.08-0.59,0.23s-0.23,0.35-0.23,0.59V3.78z M22.46,6.07
  	c0,0.26,0.07,0.46,0.22,0.62c0.21,0.16,0.42,0.24,0.62,0.24c0.18,0,0.38-0.08,0.59-0.24l1.43-1.43c0.16-0.18,0.24-0.39,0.24-0.64
  	c0-0.24-0.08-0.44-0.24-0.6c-0.16-0.16-0.36-0.24-0.59-0.24c-0.24,0-0.43,0.08-0.58,0.24l-1.47,1.43
  	C22.53,5.64,22.46,5.84,22.46,6.07z M23.25,17.91c0,0.24,0.08,0.45,0.25,0.63l0.65,0.63c0.15,0.16,0.34,0.24,0.58,0.24
  	s0.44-0.08,0.6-0.25c0.16-0.17,0.24-0.37,0.24-0.62c0-0.22-0.08-0.42-0.24-0.58l-0.65-0.65c-0.16-0.16-0.35-0.24-0.57-0.24
  	c-0.24,0-0.44,0.08-0.6,0.24C23.34,17.47,23.25,17.67,23.25,17.91z M24.72,11.6c0,0.23,0.09,0.42,0.26,0.58
  	c0.16,0.16,0.37,0.24,0.61,0.24h2.04c0.23,0,0.42-0.08,0.58-0.23s0.23-0.35,0.23-0.59c0-0.24-0.08-0.44-0.23-0.6
  	s-0.35-0.25-0.58-0.25h-2.04c-0.24,0-0.44,0.08-0.61,0.25C24.8,11.17,24.72,11.37,24.72,11.6z"/>
  <text x="740" y="280" fill="black" font-size="16" font-family="sans-serif">16° 24°</text>
  <text x="740" y="300" fill="black" font-size="16" font-family="sans-serif">2 mm</text>
  <rect width="113" height="170" x="1" y="310" stroke="black" fill="#A0A0A0"/>
  <text x="56" y="341" fill="black" font-size="30" font-family="sans-serif" text-anchor="middle">18</text>
  <path transform="translate(6,433) scale(1.5)" d="M1.56,16.9c0,0.9,0.22,1.73,0.66,2.49s1.04,1.36,1.8,1.8c0.76,0.44,1.58,0.66,2.47,0.66h10.83c0.89,0,1.72-0.22,2.48-0.66
  	c0.76-0.44,1.37-1.04,1.81-1.8c0.44-0.76,0.67-1.59,0.67-2.49c0-0.66-0.14-1.33-0.42-2C22.62,13.98,23,12.87,23,11.6
  	c0-0.71-0.14-1.39-0.41-2.04c-0.27-0.65-0.65-1.2-1.12-1.67C21,7.42,20.45,7.04,19.8,6.77c-0.65-0.28-1.33-0.41-2.04-0.41
  	c-1.48,0-2.77,0.58-3.88,1.74c-0.77-0.44-1.67-0.66-2.7-0.66c-1.41,0-2.65,0.44-3.73,1.31c-1.08,0.87-1.78,1.99-2.08,3.35
  	c-1.12,0.26-2.03,0.83-2.74,1.73S1.56,15.75,1.56,16.9z M3.27,16.9c0-0.84,0.28-1.56,0.84-2.17c0.56-0.61,1.26-0.96,2.1-1.06
  	l0.5-0.03c0.12,0,0.19-0.06,0.19-0.18l0.07-0.54c0.14-1.08,0.61-1.99,1.41-2.71c0.8-0.73,1.74-1.09,2.81-1.09
  	c1.1,0,2.06,0.37,2.87,1.1c0.82,0.73,1.27,1.63,1.37,2.71l0.07,0.58c0.02,0.11,0.09,0.17,0.21,0.17h1.61c0.88,0,1.64,0.32,2.28,0.96
  	c0.64,0.64,0.96,1.39,0.96,2.27c0,0.91-0.32,1.68-0.95,2.32c-0.63,0.64-1.4,0.96-2.28,0.96H6.49c-0.88,0-1.63-0.32-2.27-0.97
  	C3.59,18.57,3.27,17.8,3.27,16.9z M9.97,4.63c0,0.24,0.08,0.45,0.24,0.63l0.66,0.64c0.25,0.19,0.46,0.27,0.64,0.25
  	c0.21,0,0.39-0.09,0.55-0.26s0.24-0.38,0.24-0.62c0-0.24-0.09-0.44-0.26-0.59l-0.59-0.66c-0.18-0.16-0.38-0.24-0.61-0.24
  	c-0.24,0-0.45,0.08-0.62,0.25C10.05,4.19,9.97,4.39,9.97,4.63z M15.31,9.06c0.69-0.67,1.51-1,2.45-1c0.99,0,1.83,0.34,2.52,1.03
  	c0.69,0.69,1.04,1.52,1.04,2.51c0,0.62-0.17,1.24-0.51,1.84C19.84,12.48,18.68,12,17.32,12H17C16.75,10.91,16.19,9.93,15.31,9.06z
  	 M16.94,3.78c0,0.26,0.08,0.46,0.23,0.62s0.35,0.23,0.59,0.23c0.26,0,0.46-0.08,0.62-0.23c0.16-0.16,0.23-0.36,0.23-0.62V1.73
  	c0-0.24-0.08-0.43-0.24-0.59s-0.36-0.23-0.61-0.23c-0.24,0-0.43,0.08-0.59,0.23s-0.23,0.35-0.23,0.59V3.78z M22.46,6.07
  	c0,0.26,0.07,0.46,0.22,0.62c0.21,0.16,0.42,0.24,0.62,0.24c0.18,0,0.38-0.08,0.59-0.24l1.43-1.43c0.16-0.18,0.24-0.39,0.24-0.64
  	c0-0.24-0.08-0.44-0.24-0.6c-0.16-0.16-0.36-0.24-0.59-0.24c-0.24,0-0.43,0.08-0.58,0.24l-1.47,1.43
  	C22.53,5.64,22.46,5.84,22.46,6.07z M23.25,17.91c0,0.24,0.08,0.45,0.25,0.63l0.65,0.63c0.15,0.16,0.34,0.24,0.58,0.24
  	s0.44-0.08,0.6-0.25c0.16-0.17,0.24-0.37,0.24-0.62c0-0.22-0.08-0.42-0.24-0.58l-0.65-0.65c-0.16-0.16-0.35-0.24-0.57-0.24
  	c-0.24,0-0.44,0.08-0.6,0.24C23.34,17.47,23.25,17.67,23.25,17.91z M24.72,11.6c0,0.23,0.09,0.42,0.26,0.58
  	c0.16,0.16,0.37,0.24,0.61,0.24h2.04c0.23,0,0.42-0.08,0.58-0.23s0.23-0.35,0.23-0.59c0-0.24-0.08-0.44-0.23-0.6
  	s-0.35-0.25-0.58-0.25h-2.04c-0.24,0-0.44,0.08-0.61,0.25C24.8,11.17,24.72,11.37,24.72,11.6z"/>
  <text x="56" y="451" fill="black" font-size="16" font-family="sans-serif">16° 24°</text>
  <text x="56" y="471" fill="black" font-size="16" font-family="sans-serif">2 mm</text>
  <rect width="113" height="170" x="115" y="310" stroke="black" fill="#A0A0A0"/>
  <text x="170" y="341" fill="black" font-size="30" font-family="sans-serif" text-anchor="middle">19</text>
  <rect width="113" height="170" x="229" y="310" stroke="black" fill="#A0A0A0"/>
  <text x="284" y="341" fill="black" font-size="30" font-family="sans-serif" text-anchor="middle">20</text>
  <rect width="113" height="170" x="343" y="310" stroke="black" fill="#A0A0A0"/>
  <text x="398" y="341" fill="black" font-size="30" font-family="sans-serif" text-anchor="middle">21</text>
  <rect width="113" height="170" x="457" y="310" stroke="black" fill="#A0A0A0"/>
  <text x="512" y="341" fill="black" font-size="30" font-family="sans-serif" text-anchor="middle">22</text>
  <rect width="113" height="170" x="571" y="310" stroke="black" fill="#A0A0A0"/>
  <text x="626" y="341" fill="black" font-size="30" font-family="sans-serif" text-anchor="middle">23</text>
  <rect width="113" height="170" x="685" y="310" stroke="black" fill="#A0A0A0"/>
  <text x="740" y="341" fill="black" font-size="30" font-family="sans-serif" text-anchor="middle">24</text>
  <text x="40" y="30" fill="black" font-size="30" font-family="sans-serif" font-weight="bold">3:00</text>
  <text x="200" y="30" fill="black" font-size="30" font-family="sans-serif" font-weight="bold">7:00</text>
  <text x="350" y="30" fill="black" font-size="30" font-family="sans-serif" font-weight="bold">12:00</text>
  <text x="510" y="30" fill="black" font-size="30" font-family="sans-serif" font-weight="bold">18:00</text>
  <text x="675" y="30" fill="black" font-size="30" font-family="sans-serif" font-weight="bold">23:00</text>
  <path transform="translate(20,40) scale(2)" d="M1.56,16.9c0,0.9,0.22,1.73,0.66,2.49s1.04,1.36,1.8,1.8c0.76,0.44,1.58,0.66,2.47,0.66h10.83c0.89,0,1.72-0.22,2.48-0.66
  	c0.76-0.44,1.37-1.04,1.81-1.8c0.44-0.76,0.67-1.59,0.67-2.49c0-0.66-0.14-1.33-0.42-2C22.62,13.98,23,12.87,23,11.6
  	c0-0.71-0.14-1.39-0.41-2.04c-0.27-0.65-0.65-1.2-1.12-1.67C21,7.42,20.45,7.04,19.8,6.77c-0.65-0.28-1.33-0.41-2.04-0.41
  	c-1.48,0-2.77,0.58-3.88,1.74c-0.77-0.44-1.67-0.66-2.7-0.66c-1.41,0-2.65,0.44-3.73,1.31c-1.08,0.87-1.78,1.99-2.08,3.35
  	c-1.12,0.26-2.03,0.83-2.74,1.73S1.56,15.75,1.56,16.9z M3.27,16.9c0-0.84,0.28-1.56,0.84-2.17c0.56-0.61,1.26-0.96,2.1-1.06
  	l0.5-0.03c0.12,0,0.19-0.06,0.19-0.18l0.07-0.54c0.14-1.08,0.61-1.99,1.41-2.71c0.8-0.73,1.74-1.09,2.81-1.09
  	c1.1,0,2.06,0.37,2.87,1.1c0.82,0.73,1.27,1.63,1.37,2.71l0.07,0.58c0.02,0.11,0.09,0.17,0.21,0.17h1.61c0.88,0,1.64,0.32,2.28,0.96
  	c0.64,0.64,0.96,1.39,0.96,2.27c0,0.91-0.32,1.68-0.95,2.32c-0.63,0.64-1.4,0.96-2.28,0.96H6.49c-0.88,0-1.63-0.32-2.27-0.97
  	C3.59,18.57,3.27,17.8,3.27,16.9z M9.97,4.63c0,0.24,0.08,0.45,0.24,0.63l0.66,0.64c0.25,0.19,0.46,0.27,0.64,0.25
  	c0.21,0,0.39-0.09,0.55-0.26s0.24-0.38,0.24-0.62c0-0.24-0.09-0.44-0.26-0.59l-0.59-0.66c-0.18-0.16-0.38-0.24-0.61-0.24
  	c-0.24,0-0.45,0.08-0.62,0.25C10.05,4.19,9.97,4.39,9.97,4.63z M15.31,9.06c0.69-0.67,1.51-1,2.45-1c0.99,0,1.83,0.34,2.52,1.03
  	c0.69,0.69,1.04,1.52,1.04,2.51c0,0.62-0.17,1.24-0.51,1.84C19.84,12.48,18.68,12,17.32,12H17C16.75,10.91,16.19,9.93,15.31,9.06z
  	 M16.94,3.78c0,0.26,0.08,0.46,0.23,0.62s0.35,0.23,0.59,0.23c0.26,0,0.46-0.08,0.62-0.23c0.16-0.16,0.23-0.36,0.23-0.62V1.73
  	c0-0.24-0.08-0.43-0.24-0.59s-0.36-0.23-0.61-0.23c-0.24,0-0.43,0.08-0.59,0.23s-0.23,0.35-0.23,0.59V3.78z M22.46,6.07
  	c0,0.26,0.07,0.46,0.22,0.62c0.21,0.16,0.42,0.24,0.62,0.24c0.18,0,0.38-0.08,0.59-0.24l1.43-1.43c0.16-0.18,0.24-0.39,0.24-0.64
  	c0-0.24-0.08-0.44-0.24-0.6c-0.16-0.16-0.36-0.24-0.59-0.24c-0.24,0-0.43,0.08-0.58,0.24l-1.47,1.43
  	C22.53,5.64,22.46,5.84,22.46,6.07z M23.25,17.91c0,0.24,0.08,0.45,0.25,0.63l0.65,0.63c0.15,0.16,0.34,0.24,0.58,0.24
  	s0.44-0.08,0.6-0.25c0.16-0.17,0.24-0.37,0.24-0.62c0-0.22-0.08-0.42-0.24-0.58l-0.65-0.65c-0.16-0.16-0.35-0.24-0.57-0.24
  	c-0.24,0-0.44,0.08-0.6,0.24C23.34,17.47,23.25,17.67,23.25,17.91z M24.72,11.6c0,0.23,0.09,0.42,0.26,0.58
  	c0.16,0.16,0.37,0.24,0.61,0.24h2.04c0.23,0,0.42-0.08,0.58-0.23s0.23-0.35,0.23-0.59c0-0.24-0.08-0.44-0.23-0.6
  	s-0.35-0.25-0.58-0.25h-2.04c-0.24,0-0.44,0.08-0.61,0.25C24.8,11.17,24.72,11.37,24.72,11.6z"/>
  <text x="90" y="60" fill="black" font-size="24" font-family="sans-serif">24°</text>
  <text x="20" y="110" fill="black" font-size="16" font-family="sans-serif">12 mm</text>
  <text x="20" y="128" fill="black" font-size="16" font-family="sans-serif">70%</text>
  <path transform="translate(90,80)" d="M3.74,14.5c0-2.04,0.51-3.93,1.52-5.66s2.38-3.1,4.11-4.11s3.61-1.51,5.64-1.51c1.52,0,2.98,0.3,4.37,0.89
  	s2.58,1.4,3.59,2.4s1.81,2.2,2.4,3.6s0.89,2.85,0.89,4.39c0,1.52-0.3,2.98-0.89,4.37s-1.4,2.59-2.4,3.59s-2.2,1.8-3.59,2.39
  	s-2.84,0.89-4.37,0.89c-1.53,0-3-0.3-4.39-0.89s-2.59-1.4-3.6-2.4s-1.8-2.2-2.4-3.58S3.74,16.03,3.74,14.5z M6.22,14.5
  	c0,2.37,0.86,4.43,2.59,6.18c1.73,1.73,3.79,2.59,6.2,2.59c1.58,0,3.05-0.39,4.39-1.18s2.42-1.85,3.21-3.2s1.19-2.81,1.19-4.39
  	s-0.4-3.05-1.19-4.4s-1.86-2.42-3.21-3.21s-2.81-1.18-4.39-1.18s-3.05,0.39-4.39,1.18S8.2,8.75,7.4,10.1S6.22,12.92,6.22,14.5z
  	 M11.11,20.35l3.75-13.11c0.01-0.1,0.06-0.15,0.15-0.15s0.14,0.05,0.15,0.15l3.74,13.11c0.04,0.11,0.03,0.19-0.02,0.25
  	s-0.13,0.06-0.24,0l-3.47-1.3c-0.1-0.04-0.2-0.04-0.29,0l-3.5,1.3c-0.1,0.06-0.17,0.06-0.21,0S11.09,20.45,11.11,20.35z"/>
  <text x="90" y="128" fill="black" font-size="16" font-family="sans-serif">2 Bft</text>
  <path transform="translate(180,40) scale(2)" d="M1.49,16.88c0,1.12,0.33,2.12,1,3s1.53,1.47,2.58,1.76l-0.66,1.7c-0.05,0.14,0,0.22,0.14,0.22h2.13l-1.43,4.21h0.29
  	l4.36-5.66c0.04-0.04,0.04-0.09,0.02-0.14C9.9,21.92,9.85,21.9,9.78,21.9H7.59l2.49-4.65c0.07-0.14,0.03-0.22-0.14-0.22H6.98
  	c-0.09,0-0.17,0.05-0.23,0.15l-1.07,2.88C4.96,19.88,4.36,19.5,3.9,18.9c-0.47-0.59-0.7-1.26-0.7-2.02c0-0.84,0.28-1.57,0.84-2.18
  	c0.56-0.61,1.27-0.97,2.11-1.07l0.51-0.03c0.12,0,0.19-0.05,0.22-0.14l0.07-0.59c0.11-1.08,0.56-1.99,1.37-2.72s1.76-1.1,2.86-1.1
  	c1.09,0,2.04,0.37,2.86,1.1s1.29,1.64,1.4,2.72l0.08,0.59c0,0.11,0.06,0.17,0.18,0.17h1.61c0.89,0,1.66,0.32,2.31,0.96
  	s0.97,1.4,0.97,2.29c0,0.87-0.3,1.62-0.9,2.26s-1.32,0.98-2.18,1.03c-0.13,0-0.2,0.06-0.2,0.18v1.34c0,0.11,0.07,0.17,0.2,0.17
  	c0.88-0.02,1.69-0.26,2.42-0.72c0.73-0.45,1.31-1.06,1.74-1.81s0.64-1.57,0.64-2.45c0-0.73-0.14-1.4-0.43-2.02
  	c0.76-0.96,1.14-2.06,1.14-3.29c0-0.95-0.24-1.83-0.71-2.64c-0.47-0.81-1.11-1.45-1.92-1.92c-0.81-0.47-1.69-0.71-2.64-0.71
  	c-0.72,0-1.42,0.15-2.1,0.45c-0.68,0.3-1.26,0.72-1.76,1.25c-0.81-0.43-1.71-0.65-2.72-0.65c-1.42,0-2.68,0.44-3.77,1.32
  	s-1.8,2-2.1,3.37c-1.11,0.26-2.02,0.84-2.74,1.74C1.85,14.7,1.49,15.73,1.49,16.88z M9.67,26.8c0,0.15,0.05,0.31,0.16,0.47
  	c0.11,0.16,0.26,0.27,0.46,0.34c0.11,0.03,0.2,0.04,0.25,0.04c0.15,0,0.28-0.03,0.38-0.08c0.21-0.08,0.36-0.27,0.43-0.57l0.27-1.03
  	c0.06-0.25,0.03-0.47-0.08-0.67s-0.3-0.32-0.53-0.37c-0.21-0.07-0.41-0.04-0.62,0.07c-0.21,0.12-0.35,0.29-0.42,0.52l-0.25,1.04
  	C9.69,26.7,9.67,26.78,9.67,26.8z M9.9,4.59c0,0.23,0.08,0.43,0.25,0.6l0.65,0.66c0.16,0.16,0.34,0.24,0.55,0.26
  	c0.21,0.03,0.41-0.04,0.61-0.23c0.2-0.18,0.3-0.39,0.3-0.64c0-0.23-0.08-0.43-0.25-0.6l-0.63-0.66c-0.16-0.16-0.36-0.24-0.6-0.24
  	c-0.25,0-0.46,0.08-0.63,0.24C9.99,4.16,9.9,4.36,9.9,4.59z M11.01,22c-0.01,0.16,0.04,0.32,0.14,0.47c0.1,0.15,0.26,0.26,0.48,0.32
  	c0.21,0.07,0.42,0.05,0.62-0.06c0.2-0.11,0.34-0.3,0.42-0.56l0.3-1.03c0.07-0.22,0.04-0.43-0.08-0.63s-0.3-0.34-0.54-0.41
  	c-0.23-0.07-0.44-0.05-0.64,0.07c-0.2,0.12-0.34,0.29-0.41,0.53l-0.24,1.05C11.03,21.9,11.01,21.98,11.01,22z M13.84,23.68
  	c0,0.14,0.03,0.28,0.1,0.39c0.13,0.21,0.31,0.36,0.54,0.43c0.11,0.04,0.21,0.06,0.28,0.06c0.13,0,0.23-0.02,0.31-0.08
  	c0.2-0.07,0.35-0.27,0.45-0.6l0.25-1.01c0.07-0.24,0.05-0.45-0.07-0.65c-0.11-0.2-0.28-0.33-0.51-0.39
  	c-0.23-0.07-0.45-0.05-0.65,0.07c-0.2,0.11-0.34,0.28-0.41,0.51l-0.28,1.04C13.85,23.53,13.84,23.61,13.84,23.68z M15.21,18.86
  	c0,0.18,0.05,0.34,0.16,0.5c0.11,0.16,0.27,0.27,0.49,0.33c0.17,0.06,0.37,0.04,0.61-0.05c0.2-0.09,0.34-0.28,0.43-0.57l0.27-1
  	c0.06-0.25,0.04-0.47-0.08-0.67s-0.29-0.32-0.53-0.37c-0.23-0.07-0.44-0.05-0.64,0.06c-0.2,0.11-0.33,0.28-0.4,0.5l-0.29,1.06
  	C15.22,18.79,15.21,18.86,15.21,18.86z M15.31,9.02c0.67-0.64,1.48-0.97,2.45-0.97c0.98,0,1.82,0.34,2.51,1.03
  	c0.69,0.68,1.04,1.52,1.04,2.5c0,0.66-0.16,1.26-0.47,1.81c-0.96-0.96-2.13-1.44-3.52-1.44h-0.31C16.72,10.76,16.15,9.78,15.31,9.02
  	z M16.91,3.75c0,0.24,0.08,0.44,0.25,0.61s0.37,0.25,0.6,0.25c0.24,0,0.44-0.08,0.6-0.25c0.16-0.17,0.24-0.37,0.24-0.61V1.69
  	c0-0.24-0.08-0.45-0.24-0.61C18.2,0.91,18,0.82,17.76,0.82c-0.24,0-0.44,0.08-0.6,0.25s-0.25,0.37-0.25,0.61V3.75z M22.49,6.04
  	c0,0.24,0.08,0.44,0.23,0.6c0.14,0.16,0.32,0.24,0.55,0.26c0.23,0.02,0.44-0.07,0.63-0.26l1.44-1.44c0.18-0.16,0.26-0.36,0.26-0.6
  	s-0.09-0.44-0.26-0.6c-0.16-0.18-0.36-0.26-0.6-0.26c-0.23,0-0.42,0.09-0.58,0.26l-1.44,1.44C22.56,5.59,22.49,5.79,22.49,6.04z
  	 M23.26,17.95c0,0.23,0.08,0.43,0.25,0.6l0.65,0.63c0.18,0.17,0.39,0.25,0.62,0.25l0.02,0.02c0.22,0,0.4-0.09,0.54-0.27
  	c0.18-0.16,0.26-0.36,0.26-0.6c0-0.23-0.09-0.43-0.26-0.61l-0.62-0.62c-0.18-0.18-0.38-0.27-0.61-0.27c-0.24,0-0.44,0.09-0.6,0.26
  	C23.35,17.51,23.26,17.72,23.26,17.95z M24.73,11.58c0,0.24,0.09,0.44,0.26,0.59c0.16,0.18,0.36,0.26,0.6,0.26h2.06
  	c0.24,0,0.44-0.08,0.61-0.25c0.17-0.17,0.25-0.37,0.25-0.6s-0.08-0.44-0.25-0.6c-0.17-0.16-0.37-0.24-0.61-0.24h-2.06
  	c-0.24,0-0.45,0.08-0.61,0.24C24.81,11.14,24.73,11.34,24.73,11.58z"/>
  <text x="250" y="60" fill="black" font-size="24" font-family="sans-serif">24°</text>
  <text x="180" y="110" fill="black" font-size="16" font-family="sans-serif">12 mm</text>
  <text x="180" y="128" fill="black" font-size="16" font-family="sans-serif">70%</text>
  <path transform="translate(250,80)" d="M3.74,14.5c0-2.04,0.51-3.93,1.52-5.66s2.38-3.1,4.11-4.11s3.61-1.51,5.64-1.51c1.52,0,2.98,0.3,4.37,0.89
  	s2.58,1.4,3.59,2.4s1.81,2.2,2.4,3.6s0.89,2.85,0.89,4.39c0,1.52-0.3,2.98-0.89,4.37s-1.4,2.59-2.4,3.59s-2.2,1.8-3.59,2.39
  	s-2.84,0.89-4.37,0.89c-1.53,0-3-0.3-4.39-0.89s-2.59-1.4-3.6-2.4s-1.8-2.2-2.4-3.58S3.74,16.03,3.74,14.5z M6.22,14.5
  	c0,2.37,0.86,4.43,2.59,6.18c1.73,1.73,3.79,2.59,6.2,2.59c1.58,0,3.05-0.39,4.39-1.18s2.42-1.85,3.21-3.2s1.19-2.81,1.19-4.39
  	s-0.4-3.05-1.19-4.4s-1.86-2.42-3.21-3.21s-2.81-1.18-4.39-1.18s-3.05,0.39-4.39,1.18S8.2,8.75,7.4,10.1S6.22,12.92,6.22,14.5z
  	 M11.11,20.35l3.75-13.11c0.01-0.1,0.06-0.15,0.15-0.15s0.14,0.05,0.15,0.15l3.74,13.11c0.04,0.11,0.03,0.19-0.02,0.25
  	s-0.13,0.06-0.24,0l-3.47-1.3c-0.1-0.04-0.2-0.04-0.29,0l-3.5,1.3c-0.1,0.06-0.17,0.06-0.21,0S11.09,20.45,11.11,20.35z"/>
  <text x="250" y="128" fill="black" font-size="16" font-family="sans-serif">2 Bft</text>
  <path transform="translate(340,40) scale(2)" d="M1.56,16.9c0,0.9,0.22,1.73,0.66,2.49s1.04,1.36,1.8,1.8c0.76,0.44,1.58,0.66,2.47,0.66h10.83c0.89,0,1.72-0.22,2.48-0.66
  	c0.76-0.44,1.37-1.04,1.81-1.8c0.44-0.76,0.67-1.59,0.67-2.49c0-0.66-0.14-1.33-0.42-2C22.62,13.98,23,12.87,23,11.6
  	c0-0.71-0.14-1.39-0.41-2.04c-0.27-0.65-0.65-1.2-1.12-1.67C21,7.42,20.45,7.04,19.8,6.77c-0.65-0.28-1.33-0.41-2.04-0.41
  	c-1.48,0-2.77,0.58-3.88,1.74c-0.77-0.44-1.67-0.66-2.7-0.66c-1.41,0-2.65,0.44-3.73,1.31c-1.08,0.87-1.78,1.99-2.08,3.35
  	c-1.12,0.26-2.03,0.83-2.74,1.73S1.56,15.75,1.56,16.9z M3.27,16.9c0-0.84,0.28-1.56,0.84-2.17c0.56-0.61,1.26-0.96,2.1-1.06
  	l0.5-0.03c0.12,0,0.19-0.06,0.19-0.18l0.07-0.54c0.14-1.08,0.61-1.99,1.41-2.71c0.8-0.73,1.74-1.09,2.81-1.09
  	c1.1,0,2.06,0.37,2.87,1.1c0.82,0.73,1.27,1.63,1.37,2.71l0.07,0.58c0.02,0.11,0.09,0.17,0.21,0.17h1.61c0.88,0,1.64,0.32,2.28,0.96
  	c0.64,0.64,0.96,1.39,0.96,2.27c0,0.91-0.32,1.68-0.95,2.32c-0.63,0.64-1.4,0.96-2.28,0.96H6.49c-0.88,0-1.63-0.32-2.27-0.97
  	C3.59,18.57,3.27,17.8,3.27,16.9z M9.97,4.63c0,0.24,0.08,0.45,0.24,0.63l0.66,0.64c0.25,0.19,0.46,0.27,0.64,0.25
  	c0.21,0,0.39-0.09,0.55-0.26s0.24-0.38,0.24-0.62c0-0.24-0.09-0.44-0.26-0.59l-0.59-0.66c-0.18-0.16-0.38-0.24-0.61-0.24
  	c-0.24,0-0.45,0.08-0.62,0.25C10.05,4.19,9.97,4.39,9.97,4.63z M15.31,9.06c0.69-0.67,1.51-1,2.45-1c0.99,0,1.83,0.34,2.52,1.03
  	c0.69,0.69,1.04,1.52,1.04,2.51c0,0.62-0.17,1.24-0.51,1.84C19.84,12.48,18.68,12,17.32,12H17C16.75,10.91,16.19,9.93,15.31,9.06z
  	 M16.94,3.78c0,0.26,0.08,0.46,0.23,0.62s0.35,0.23,0.59,0.23c0.26,0,0.46-0.08,0.62-0.23c0.16-0.16,0.23-0.36,0.23-0.62V1.73
  	c0-0.24-0.08-0.43-0.24-0.59s-0.36-0.23-0.61-0.23c-0.24,0-0.43,0.08-0.59,0.23s-0.23,0.35-0.23,0.59V3.78z M22.46,6.07
  	c0,0.26,0.07,0.46,0.22,0.62c0.21,0.16,0.42,0.24,0.62,0.24c0.18,0,0.38-0.08,0.59-0.24l1.43-1.43c0.16-0.18,0.24-0.39,0.24-0.64
  	c0-0.24-0.08-0.44-0.24-0.6c-0.16-0.16-0.36-0.24-0.59-0.24c-0.24,0-0.43,0.08-0.58,0.24l-1.47,1.43
  	C22.53,5.64,22.46,5.84,22.46,6.07z M23.25,17.91c0,0.24,0.08,0.45,0.25,0.63l0.65,0.63c0.15,0.16,0.34,0.24,0.58,0.24
  	s0.44-0.08,0.6-0.25c0.16-0.17,0.24-0.37,0.24-0.62c0-0.22-0.08-0.42-0.24-0.58l-0.65-0.65c-0.16-0.16-0.35-0.24-0.57-0.24
  	c-0.24,0-0.44,0.08-0.6,0.24C23.34,17.47,23.25,17.67,23.25,17.91z M24.72,11.6c0,0.23,0.09,0.42,0.26,0.58
  	c0.16,0.16,0.37,0.24,0.61,0.24h2.04c0.23,0,0.42-0.08,0.58-0.23s0.23-0.35,0.23-0.59c0-0.24-0.08-0.44-0.23-0.6
  	s-0.35-0.25-0.58-0.25h-2.04c-0.24,0-0.44,0.08-0.61,0.25C24.8,11.17,24.72,11.37,24.72,11.6z"/>
  <text x="410" y="60" fill="black" font-size="24" font-family="sans-serif">24°</text>
  <text x="340" y="110" fill="black" font-size="16" font-family="sans-serif">12 mm</text>
  <text x="340" y="128" fill="black" font-size="16" font-family="sans-serif">70%</text>
  <path transform="translate(410,80)" d="M3.74,14.5c0-2.04,0.51-3.93,1.52-5.66s2.38-3.1,4.11-4.11s3.61-1.51,5.64-1.51c1.52,0,2.98,0.3,4.37,0.89
  	s2.58,1.4,3.59,2.4s1.81,2.2,2.4,3.6s0.89,2.85,0.89,4.39c0,1.52-0.3,2.98-0.89,4.37s-1.4,2.59-2.4,3.59s-2.2,1.8-3.59,2.39
  	s-2.84,0.89-4.37,0.89c-1.53,0-3-0.3-4.39-0.89s-2.59-1.4-3.6-2.4s-1.8-2.2-2.4-3.58S3.74,16.03,3.74,14.5z M6.22,14.5
  	c0,2.37,0.86,4.43,2.59,6.18c1.73,1.73,3.79,2.59,6.2,2.59c1.58,0,3.05-0.39,4.39-1.18s2.42-1.85,3.21-3.2s1.19-2.81,1.19-4.39
  	s-0.4-3.05-1.19-4.4s-1.86-2.42-3.21-3.21s-2.81-1.18-4.39-1.18s-3.05,0.39-4.39,1.18S8.2,8.75,7.4,10.1S6.22,12.92,6.22,14.5z
  	 M11.11,20.35l3.75-13.11c0.01-0.1,0.06-0.15,0.15-0.15s0.14,0.05,0.15,0.15l3.74,13.11c0.04,0.11,0.03,0.19-0.02,0.25
  	s-0.13,0.06-0.24,0l-3.47-1.3c-0.1-0.04-0.2-0.04-0.29,0l-3.5,1.3c-0.1,0.06-0.17,0.06-0.21,0S11.09,20.45,11.11,20.35z"/>
  <text x="410" y="128" fill="black" font-size="16" font-family="sans-serif">2 Bft</text>
  <path transform="translate(500,40) scale(2)" d="M1.56,16.9c0,0.9,0.22,1.73,0.66,2.49s1.04,1.36,1.8,1.8c0.76,0.44,1.58,0.66,2.47,0.66h10.83c0.89,0,1.72-0.22,2.48-0.66
  	c0.76-0.44,1.37-1.04,1.81-1.8c0.44-0.76,0.67-1.59,0.67-2.49c0-0.66-0.14-1.33-0.42-2C22.62,13.98,23,12.87,23,11.6
  	c0-0.71-0.14-1.39-0.41-2.04c-0.27-0.65-0.65-1.2-1.12-1.67C21,7.42,20.45,7.04,19.8,6.77c-0.65-0.28-1.33-0.41-2.04-0.41
  	c-1.48,0-2.77,0.58-3.88,1.74c-0.77-0.44-1.67-0.66-2.7-0.66c-1.41,0-2.65,0.44-3.73,1.31c-1.08,0.87-1.78,1.99-2.08,3.35
  	c-1.12,0.26-2.03,0.83-2.74,1.73S1.56,15.75,1.56,16.9z M3.27,16.9c0-0.84,0.28-1.56,0.84-2.17c0.56-0.61,1.26-0.96,2.1-1.06
  	l0.5-0.03c0.12,0,0.19-0.06,0.19-0.18l0.07-0.54c0.14-1.08,0.61-1.99,1.41-2.71c0.8-0.73,1.74-1.09,2.81-1.09
  	c1.1,0,2.06,0.37,2.87,1.1c0.82,0.73,1.27,1.63,1.37,2.71l0.07,0.58c0.02,0.11,0.09,0.17,0.21,0.17h1.61c0.88,0,1.64,0.32,2.28,0.96
  	c0.64,0.64,0.96,1.39,0.96,2.27c0,0.91-0.32,1.68-0.95,2.32c-0.63,0.64-1.4,0.96-2.28,0.96H6.49c-0.88,0-1.63-0.32-2.27-0.97
  	C3.59,18.57,3.27,17.8,3.27,16.9z M9.97,4.63c0,0.24,0.08,0.45,0.24,0.63l0.66,0.64c0.25,0.19,0.46,0.27,0.64,0.25
  	c0.21,0,0.39-0.09,0.55-0.26s0.24-0.38,0.24-0.62c0-0.24-0.09-0.44-0.26-0.59l-0.59-0.66c-0.18-0.16-0.38-0.24-0.61-0.24
  	c-0.24,0-0.45,0.08-0.62,0.25C10.05,4.19,9.97,4.39,9.97,4.63z M15.31,9.06c0.69-0.67,1.51-1,2.45-1c0.99,0,1.83,0.34,2.52,1.03
  	c0.69,0.69,1.04,1.52,1.04,2.51c0,0.62-0.17,1.24-0.51,1.84C19.84,12.48,18.68,12,17.32,12H17C16.75,10.91,16.19,9.93,15.31,9.06z
  	 M16.94,3.78c0,0.26,0.08,0.46,0.23,0.62s0.35,0.23,0.59,0.23c0.26,0,0.46-0.08,0.62-0.23c0.16-0.16,0.23-0.36,0.23-0.62V1.73
  	c0-0.24-0.08-0.43-0.24-0.59s-0.36-0.23-0.61-0.23c-0.24,0-0.43,0.08-0.59,0.23s-0.23,0.35-0.23,0.59V3.78z M22.46,6.07
  	c0,0.26,0.07,0.46,0.22,0.62c0.21,0.16,0.42,0.24,0.62,0.24c0.18,0,0.38-0.08,0.59-0.24l1.43-1.43c0.16-0.18,0.24-0.39,0.24-0.64
  	c0-0.24-0.08-0.44-0.24-0.6c-0.16-0.16-0.36-0.24-0.59-0.24c-0.24,0-0.43,0.08-0.58,0.24l-1.47,1.43
  	C22.53,5.64,22.46,5.84,22.46,6.07z M23.25,17.91c0,0.24,0.08,0.45,0.25,0.63l0.65,0.63c0.15,0.16,0.34,0.24,0.58,0.24
  	s0.44-0.08,0.6-0.25c0.16-0.17,0.24-0.37,0.24-0.62c0-0.22-0.08-0.42-0.24-0.58l-0.65-0.65c-0.16-0.16-0.35-0.24-0.57-0.24
  	c-0.24,0-0.44,0.08-0.6,0.24C23.34,17.47,23.25,17.67,23.25,17.91z M24.72,11.6c0,0.23,0.09,0.42,0.26,0.58
  	c0.16,0.16,0.37,0.24,0.61,0.24h2.04c0.23,0,0.42-0.08,0.58-0.23s0.23-0.35,0.23-0.59c0-0.24-0.08-0.44-0.23-0.6
  	s-0.35-0.25-0.58-0.25h-2.04c-0.24,0-0.44,0.08-0.61,0.25C24.8,11.17,24.72,11.37,24.72,11.6z"/>
  <text x="570" y="60" fill="black" font-size="24" font-family="sans-serif">24°</text>
  <text x="500" y="110" fill="black" font-size="16" font-family="sans-serif">12 mm</text>
  <text x="500" y="128" fill="black" font-size="16" font-family="sans-serif">70%</text>
  <path transform="translate(570,80)" d="M3.74,14.5c0-2.04,0.51-3.93,1.52-5.66s2.38-3.1,4.11-4.11s3.61-1.51,5.64-1.51c1.52,0,2.98,0.3,4.37,0.89
  	s2.58,1.4,3.59,2.4s1.81,2.2,2.4,3.6s0.89,2.85,0.89,4.39c0,1.52-0.3,2.98-0.89,4.37s-1.4,2.59-2.4,3.59s-2.2,1.8-3.59,2.39
  	s-2.84,0.89-4.37,0.89c-1.53,0-3-0.3-4.39-0.89s-2.59-1.4-3.6-2.4s-1.8-2.2-2.4-3.58S3.74,16.03,3.74,14.5z M6.22,14.5
  	c0,2.37,0.86,4.43,2.59,6.18c1.73,1.73,3.79,2.59,6.2,2.59c1.58,0,3.05-0.39,4.39-1.18s2.42-1.85,3.21-3.2s1.19-2.81,1.19-4.39
  	s-0.4-3.05-1.19-4.4s-1.86-2.42-3.21-3.21s-2.81-1.18-4.39-1.18s-3.05,0.39-4.39,1.18S8.2,8.75,7.4,10.1S6.22,12.92,6.22,14.5z
  	 M11.11,20.35l3.75-13.11c0.01-0.1,0.06-0.15,0.15-0.15s0.14,0.05,0.15,0.15l3.74,13.11c0.04,0.11,0.03,0.19-0.02,0.25
  	s-0.13,0.06-0.24,0l-3.47-1.3c-0.1-0.04-0.2-0.04-0.29,0l-3.5,1.3c-0.1,0.06-0.17,0.06-0.21,0S11.09,20.45,11.11,20.35z"/>
  <text x="570" y="128" fill="black" font-size="16" font-family="sans-serif">2 Bft</text>
  <path transform="translate(660,40) scale(2)" d="M1.56,16.9c0,0.9,0.22,1.73,0.66,2.49s1.04,1.36,1.8,1.8c0.76,0.44,1.58,0.66,2.47,0.66h10.83c0.89,0,1.72-0.22,2.48-0.66
  	c0.76-0.44,1.37-1.04,1.81-1.8c0.44-0.76,0.67-1.59,0.67-2.49c0-0.66-0.14-1.33-0.42-2C22.62,13.98,23,12.87,23,11.6
  	c0-0.71-0.14-1.39-0.41-2.04c-0.27-0.65-0.65-1.2-1.12-1.67C21,7.42,20.45,7.04,19.8,6.77c-0.65-0.28-1.33-0.41-2.04-0.41
  	c-1.48,0-2.77,0.58-3.88,1.74c-0.77-0.44-1.67-0.66-2.7-0.66c-1.41,0-2.65,0.44-3.73,1.31c-1.08,0.87-1.78,1.99-2.08,3.35
  	c-1.12,0.26-2.03,0.83-2.74,1.73S1.56,15.75,1.56,16.9z M3.27,16.9c0-0.84,0.28-1.56,0.84-2.17c0.56-0.61,1.26-0.96,2.1-1.06
  	l0.5-0.03c0.12,0,0.19-0.06,0.19-0.18l0.07-0.54c0.14-1.08,0.61-1.99,1.41-2.71c0.8-0.73,1.74-1.09,2.81-1.09
  	c1.1,0,2.06,0.37,2.87,1.1c0.82,0.73,1.27,1.63,1.37,2.71l0.07,0.58c0.02,0.11,0.09,0.17,0.21,0.17h1.61c0.88,0,1.64,0.32,2.28,0.96
  	c0.64,0.64,0.96,1.39,0.96,2.27c0,0.91-0.32,1.68-0.95,2.32c-0.63,0.64-1.4,0.96-2.28,0.96H6.49c-0.88,0-1.63-0.32-2.27-0.97
  	C3.59,18.57,3.27,17.8,3.27,16.9z M9.97,4.63c0,0.24,0.08,0.45,0.24,0.63l0.66,0.64c0.25,0.19,0.46,0.27,0.64,0.25
  	c0.21,0,0.39-0.09,0.55-0.26s0.24-0.38,0.24-0.62c0-0.24-0.09-0.44-0.26-0.59l-0.59-0.66c-0.18-0.16-0.38-0.24-0.61-0.24
  	c-0.24,0-0.45,0.08-0.62,0.25C10.05,4.19,9.97,4.39,9.97,4.63z M15.31,9.06c0.69-0.67,1.51-1,2.45-1c0.99,0,1.83,0.34,2.52,1.03
  	c0.69,0.69,1.04,1.52,1.04,2.51c0,0.62-0.17,1.24-0.51,1.84C19.84,12.48,18.68,12,17.32,12H17C16.75,10.91,16.19,9.93,15.31,9.06z
  	 M16.94,3.78c0,0.26,0.08,0.46,0.23,0.62s0.35,0.23,0.59,0.23c0.26,0,0.46-0.08,0.62-0.23c0.16-0.16,0.23-0.36,0.23-0.62V1.73
  	c0-0.24-0.08-0.43-0.24-0.59s-0.36-0.23-0.61-0.23c-0.24,0-0.43,0.08-0.59,0.23s-0.23,0.35-0.23,0.59V3.78z M22.46,6.07
  	c0,0.26,0.07,0.46,0.22,0.62c0.21,0.16,0.42,0.24,0.62,0.24c0.18,0,0.38-0.08,0.59-0.24l1.43-1.43c0.16-0.18,0.24-0.39,0.24-0.64
  	c0-0.24-0.08-0.44-0.24-0.6c-0.16-0.16-0.36-0.24-0.59-0.24c-0.24,0-0.43,0.08-0.58,0.24l-1.47,1.43
  	C22.53,5.64,22.46,5.84,22.46,6.07z M23.25,17.91c0,0.24,0.08,0.45,0.25,0.63l0.65,0.63c0.15,0.16,0.34,0.24,0.58,0.24
  	s0.44-0.08,0.6-0.25c0.16-0.17,0.24-0.37,0.24-0.62c0-0.22-0.08-0.42-0.24-0.58l-0.65-0.65c-0.16-0.16-0.35-0.24-0.57-0.24
  	c-0.24,0-0.44,0.08-0.6,0.24C23.34,17.47,23.25,17.67,23.25,17.91z M24.72,11.6c0,0.23,0.09,0.42,0.26,0.58
  	c0.16,0.16,0.37,0.24,0.61,0.24h2.04c0.23,0,0.42-0.08,0.58-0.23s0.23-0.35,0.23-0.59c0-0.24-0.08-0.44-0.23-0.6
  	s-0.35-0.25-0.58-0.25h-2.04c-0.24,0-0.44,0.08-0.61,0.25C24.8,11.17,24.72,11.37,24.72,11.6z"/>
  <text x="730" y="60" fill="black" font-size="24" font-family="sans-serif">24°</text>
  <text x="660" y="110" fill="black" font-size="16" font-family="sans-serif">12 mm</text>
  <text x="660" y="128" fill="black" font-size="16" font-family="sans-serif">70%</text>
  <path transform="translate(730,80)" d="M3.74,14.5c0-2.04,0.51-3.93,1.52-5.66s2.38-3.1,4.11-4.11s3.61-1.51,5.64-1.51c1.52,0,2.98,0.3,4.37,0.89
  	s2.58,1.4,3.59,2.4s1.81,2.2,2.4,3.6s0.89,2.85,0.89,4.39c0,1.52-0.3,2.98-0.89,4.37s-1.4,2.59-2.4,3.59s-2.2,1.8-3.59,2.39
  	s-2.84,0.89-4.37,0.89c-1.53,0-3-0.3-4.39-0.89s-2.59-1.4-3.6-2.4s-1.8-2.2-2.4-3.58S3.74,16.03,3.74,14.5z M6.22,14.5
  	c0,2.37,0.86,4.43,2.59,6.18c1.73,1.73,3.79,2.59,6.2,2.59c1.58,0,3.05-0.39,4.39-1.18s2.42-1.85,3.21-3.2s1.19-2.81,1.19-4.39
  	s-0.4-3.05-1.19-4.4s-1.86-2.42-3.21-3.21s-2.81-1.18-4.39-1.18s-3.05,0.39-4.39,1.18S8.2,8.75,7.4,10.1S6.22,12.92,6.22,14.5z
  	 M11.11,20.35l3.75-13.11c0.01-0.1,0.06-0.15,0.15-0.15s0.14,0.05,0.15,0.15l3.74,13.11c0.04,0.11,0.03,0.19-0.02,0.25
  	s-0.13,0.06-0.24,0l-3.47-1.3c-0.1-0.04-0.2-0.04-0.29,0l-3.5,1.3c-0.1,0.06-0.17,0.06-0.21,0S11.09,20.45,11.11,20.35z"/>
  <text x="730" y="128" fill="black" font-size="16" font-family="sans-serif">2 Bft</text>
</svg>
