<?xml version="1.0" encoding="UTF-8" standalone="no"?>
<svg width="800" height="480" xmlns="http://www.w3.org/2000/svg">
  <rect width="800" height="480" x="0" y="0" fill="#A0A0A0" />
  <text x="20" y="60" fill="black" font-size="60" font-family="sans-serif">12</text>
  <text x="100" y="38" fill="black" font-size="24" font-family="sans-serif">November</text>
  <text x="30" y="100" fill="black" font-size="30" font-family="sans-serif">Dinsdag</text>
  <text x="40" y="180" fill="black" font-size="14" font-family="sans-serif" text-anchor="middle" font-weight="bold">MA</text>
  <text x="70" y="180" fill="black" font-size="14" font-family="sans-serif" text-anchor="middle" font-weight="bold">DI</text>
  <text x="100" y="180" fill="black" font-size="14" font-family="sans-serif" text-anchor="middle" font-weight="bold">WO</text>
  <text x="130" y="180" fill="black" font-size="14" font-family="sans-serif" text-anchor="middle" font-weight="bold">DO</text>
  <text x="160" y="180" fill="black" font-size="14" font-family="sans-serif" text-anchor="middle" font-weight="bold">VR</text>
  <text x="190" y="180" fill="black" font-size="14" font-family="sans-serif" text-anchor="middle" font-weight="bold">ZA</text>
  <text x="220" y="180" fill="black" font-size="14" font-family="sans-serif" text-anchor="middle" font-weight="bold">ZO</text>
  <line x1="28" y1="185" x2="230" y2="185" stroke="black"/>
  <text x="160" y="200" fill="black" font-size="14" font-family="sans-serif" text-anchor="middle">1</text>
  <text x="190" y="200" fill="black" font-size="14" font-family="sans-serif" text-anchor="middle">2</text>
  <text x="220" y="200" fill="black" font-size="14" font-family="sans-serif" text-anchor="middle">3</text>
  <text x="40" y="220" fill="black" font-size="14" font-family="sans-serif" text-anchor="middle">4</text>
  <text x="70" y="220" fill="black" font-size="14" font-family="sans-serif" text-anchor="middle">5</text>
  <text x="100" y="220" fill="black" font-size="14" font-family="sans-serif" text-anchor="middle">6</text>
  <text x="130" y="220" fill="black" font-size="14" font-family="sans-serif" text-anchor="middle">7</text>
  <text x="160" y="220" fill="black" font-size="14" font-family="sans-serif" text-anchor="middle">8</text>
  <text x="190" y="220" fill="black" font-size="14" font-family="sans-serif" text-anchor="middle">9</text>
  <text x="220" y="220" fill="black" font-size="14" font-family="sans-serif" text-anchor="middle">10</text>
  <text x="40" y="240" fill="black" font-size="14" font-family="sans-serif" text-anchor="middle">11</text>
  <circle r="10" cx="70" cy="235" fill="red"/>
  <text x="70" y="240" fill="#A0A0A0" font-size="14" font-family="sans-serif" text-anchor="middle">12</text>
  <text x="100" y="240" fill="black" font-size="14" font-family="sans-serif" text-anchor="middle">13</text>
  <text x="130" y="240" fill="black" font-size="14" font-family="sans-serif" text-anchor="middle">14</text>
  <text x="160" y="240" fill="black" font-size="14" font-family="sans-serif" text-anchor="middle">15</text>
  <text x="190" y="240" fill="black" font-size="14" font-family="sans-serif" text-anchor="middle">16</text>
  <text x="220" y="240" fill="black" font-size="14" font-family="sans-serif" text-anchor="middle">17</text>
  <text x="40" y="260" fill="black" font-size="14" font-family="sans-serif" text-anchor="middle">18</text>
  <text x="70" y="260" fill="black" font-size="14" font-family="sans-serif" text-anchor="middle">19</text>
  <text x="100" y="260" fill="black" font-size="14" font-family="sans-serif" text-anchor="middle">20</text>
  <text x="130" y="260" fill="black" font-size="14" font-family="sans-serif" text-anchor="middle">21</text>
  <text x="160" y="260" fill="black" font-size="14" font-family="sans-serif" text-anchor="middle">22</text>
  <text x="190" y="260" fill="black" font-size="14" font-family="sans-serif" text-anchor="middle">23</text>
  <text x="220" y="260" fill="black" font-size="14" font-family="sans-serif" text-anchor="middle">24</text>
  <text x="40" y="280" fill="black" font-size="14" font-family="sans-serif" text-anchor="middle">25</text>
  <text x="70" y="280" fill="black" font-size="14" font-family="sans-serif" text-anchor="middle">26</text>
  <text x="100" y="280" fill="black" font-size="14" font-family="sans-serif" text-anchor="middle">27</text>
  <text x="130" y="280" fill="black" font-size="14" font-family="sans-serif" text-anchor="middle">28</text>
  <text x="160" y="280" fill="black" font-size="14" font-family="sans-serif" text-anchor="middle">29</text>
  <text x="190" y="280" fill="black" font-size="14" font-family="sans-serif" text-anchor="middle">30</text>
  <path transform="translate(160,350) scale(2.5)" d="M1.49,16.88c0,1.12,0.33,2.12,1,3s1.53,1.47,2.58,1.76l-0.66,1.7c-0.05,0.14,0,0.22,0.14,0.22h2.13l-1.43,4.21h0.29
  	l4.36-5.66c0.04-0.04,0.04-0.09,0.02-0.14C9.9,21.92,9.85,21.9,9.78,21.9H7.59l2.49-4.65c0.07-0.14,0.03-0.22-0.14-0.22H6.98
  	c-0.09,0-0.17,0.05-0.23,0.15l-1.07,2.88C4.96,19.88,4.36,19.5,3.9,18.9c-0.47-0.59-0.7-1.26-0.7-2.02c0-0.84,0.28-1.57,0.84-2.18
  	c0.56-0.61,1.27-0.97,2.11-1.07l0.51-0.03c0.12,0,0.19-0.05,0.22-0.14l0.07-0.59c0.11-1.08,0.56-1.99,1.37-2.72s1.76-1.1,2.86-1.1
  	c1.09,0,2.04,0.37,2.86,1.1s1.29,1.64,1.4,2.72l0.08,0.59c0,0.11,0.06,0.17,0.18,0.17h1.61c0.89,0,1.66,0.32,2.31,0.96
  	s0.97,1.4,0.97,2.29c0,0.87-0.3,1.62-0.9,2.26s-1.32,0.98-2.18,1.03c-0.13,0-0.2,0.06-0.2,0.18v1.34c0,0.11,0.07,0.17,0.2,0.17
  	c0.88-0.02,1.69-0.26,2.42-0.72c0.73-0.45,1.31-1.06,1.74-1.81s0.64-1.57,0.64-2.45c0-0.73-0.14-1.4-0.43-2.02
  	c0.76-0.96,1.14-2.06,1.14-3.29c0-0.95-0.24-1.83-0.71-2.64c-0.47-0.81-1.11-1.45-1.92-1.92c-0.81-0.47-1.69-0.71-2.64-0.71
  	c-0.72,0-1.42,0.15-2.1,0.45c-0.68,0.3-1.26,0.72-1.76,1.25c-0.81-0.43-1.71-0.65-2.72-0.65c-1.42,0-2.68,0.44-3.77,1.32
  	s-1.8,2-2.1,3.37c-1.11,0.26-2.02,0.84-2.74,1.74C1.85,14.7,1.49,15.73,1.49,16.88z M9.67,26.8c0,0.15,0.05,0.31,0.16,0.47
  	c0.11,0.16,0.26,0.27,0.46,0.34c0.11,0.03,0.2,0.04,0.25,0.04c0.15,0,0.28-0.03,0.38-0.08c0.21-0.08,0.36-0.27,0.43-0.57l0.27-1.03
  	c0.06-0.25,0.03-0.47-0.08-0.67s-0.3-0.32-0.53-0.37c-0.21-0.07-0.41-0.04-0.62,0.07c-0.21,0.12-0.35,0.29-0.42,0.52l-0.25,1.04
  	C9.69,26.7,9.67,26.78,9.67,26.8z M9.9,4.59c0,0.23,0.08,0.43,0.25,0.6l0.65,0.66c0.16,0.16,0.34,0.24,0.55,0.26
  	c0.21,0.03,0.41-0.04,0.61-0.23c0.2-0.18,0.3-0.39,0.3-0.64c0-0.23-0.08-0.43-0.25-0.6l-0.63-0.66c-0.16-0.16-0.36-0.24-0.6-0.24
  	c-0.25,0-0.46,0.08-0.63,0.24C9.99,4.16,9.9,4.36,9.9,4.59z M11.01,22c-0.01,0.16,0.04,0.32,0.14,0.47c0.1,0.15,0.26,0.26,0.48,0.32
  	c0.21,0.07,0.42,0.05,0.62-0.06c0.2-0.11,0.34-0.3,0.42-0.56l0.3-1.03c0.07-0.22,0.04-0.43-0.08-0.63s-0.3-0.34-0.54-0.41
  	c-0.23-0.07-0.44-0.05-0.64,0.07c-0.2,0.12-0.34,0.29-0.41,0.53l-0.24,1.05C11.03,21.9,11.01,21.98,11.01,22z M13.84,23.68
  	c0,0.14,0.03,0.28,0.1,0.39c0.13,0.21,0.31,0.36,0.54,0.43c0.11,0.04,0.21,0.06,0.28,0.06c0.13,0,0.23-0.02,0.31-0.08
  	c0.2-0.07,0.35-0.27,0.45-0.6l0.25-1.01c0.07-0.24,0.05-0.45-0.07-0.65c-0.11-0.2-0.28-0.33-0.51-0.39
  	c-0.23-0.07-0.45-0.05-0.65,0.07c-0.2,0.11-0.34,0.28-0.41,0.51l-0.28,1.04C13.85,23.53,13.84,23.61,13.84,23.68z M15.21,18.86
  	c0,0.18,0.05,0.34,0.16,0.5c0.11,0.16,0.27,0.27,0.49,0.33c0.17,0.06,0.37,0.04,0.61-0.05c0.2-0.09,0.34-0.28,0.43-0.57l0.27-1
  	c0.06-0.25,0.04-0.47-0.08-0.67s-0.29-0.32-0.53-0.37c-0.23-0.07-0.44-0.05-0.64,0.06c-0.2,0.11-0.33,0.28-0.4,0.5l-0.29,1.06
  	C15.22,18.79,15.21,18.86,15.21,18.86z M15.31,9.02c0.67-0.64,1.48-0.97,2.45-0.97c0.98,0,1.82,0.34,2.51,1.03
  	c0.69,0.68,1.04,1.52,1.04,2.5c0,0.66-0.16,1.26-0.47,1.81c-0.96-0.96-2.13-1.44-3.52-1.44h-0.31C16.72,10.76,16.15,9.78,15.31,9.02
  	z M16.91,3.75c0,0.24,0.08,0.44,0.25,0.61s0.37,0.25,0.6,0.25c0.24,0,0.44-0.08,0.6-0.25c0.16-0.17,0.24-0.37,0.24-0.61V1.69
  	c0-0.24-0.08-0.45-0.24-0.61C18.2,0.91,18,0.82,17.76,0.82c-0.24,0-0.44,0.08-0.6,0.25s-0.25,0.37-0.25,0.61V3.75z M22.49,6.04
  	c0,0.24,0.08,0.44,0.23,0.6c0.14,0.16,0.32,0.24,0.55,0.26c0.23,0.02,0.44-0.07,0.63-0.26l1.44-1.44c0.18-0.16,0.26-0.36,0.26-0.6
  	s-0.09-0.44-0.26-0.6c-0.16-0.18-0.36-0.26-0.6-0.26c-0.23,0-0.42,0.09-0.58,0.26l-1.44,1.44C22.56,5.59,22.49,5.79,22.49,6.04z
  	 M23.26,17.95c0,0.23,0.08,0.43,0.25,0.6l0.65,0.63c0.18,0.17,0.39,0.25,0.62,0.25l0.02,0.02c0.22,0,0.4-0.09,0.54-0.27
  	c0.18-0.16,0.26-0.36,0.26-0.6c0-0.23-0.09-0.43-0.26-0.61l-0.62-0.62c-0.18-0.18-0.38-0.27-0.61-0.27c-0.24,0-0.44,0.09-0.6,0.26
  	C23.35,17.51,23.26,17.72,23.26,17.95z M24.73,11.58c0,0.24,0.09,0.44,0.26,0.59c0.16,0.18,0.36,0.26,0.6,0.26h2.06
  	c0.24,0,0.44-0.08,0.61-0.25c0.17-0.17,0.25-0.37,0.25-0.6s-0.08-0.44-0.25-0.6c-0.17-0.16-0.37-0.24-0.61-0.24h-2.06
  	c-0.24,0-0.45,0.08-0.61,0.24C24.81,11.14,24.73,11.34,24.73,11.58z"/>
  <text x="30" y="380" fill="black" font-size="30" font-family="sans-serif">18° - 24°</text>
  <text x="170" y="440" fill="black" font-size="16" font-family="sans-serif">8 mm</text>
  <text x="30" y="410" fill="black" font-size="18" font-family="sans-serif">onweer</text>
  <text x="30" y="430" fill="black" font-size="18" font-family="sans-serif">en storm</text>
  <rect width="5" height="455" x="260" y="10" fill="black"/>
  <text x="320" y="40" fill="black" font-size="30" font-family="sans-serif" text-anchor="end">12</text>
  <text x="320" y="60" fill="black" font-size="18" font-family="sans-serif" text-anchor="end">DI</text>
  <rect width="2" height="200" x="328" y="16" fill="black"/>
  <circle r="12" cx="350" cy="32" fill="black"/>
  <text x="350" y="40" fill="#A0A0A0" font-size="20" font-family="sans-serif" text-anchor="middle">J</text>
  <text x="370" y="40" fill="#black" font-size="24" font-family="sans-serif">school</text>
  <text x="780" y="35" fill="#black" font-size="18" font-family="sans-serif" text-anchor="end">8:30</text>
  <text x="780" y="50" fill="#black" font-size="12" font-family="sans-serif" text-anchor="end">14:15</text>
  <circle r="12" cx="350" cy="72" fill="black"/>
  <text x="350" y="80" fill="#A0A0A0" font-size="20" font-family="sans-serif" text-anchor="middle">R</text>
  <text x="370" y="80" fill="#black" font-size="24" font-family="sans-serif">school</text>
  <text x="780" y="75" fill="#black" font-size="18" font-family="sans-serif" text-anchor="end">8:30</text>
  <text x="780" y="90" fill="#black" font-size="12" font-family="sans-serif" text-anchor="end">14:15</text>
  <circle r="12" cx="350" cy="112" fill="black"/>
  <text x="350" y="120" fill="#A0A0A0" font-size="20" font-family="sans-serif" text-anchor="middle">N</text>
  <text x="370" y="120" fill="#black" font-size="24" font-family="sans-serif">kantoor</text>
  <text x="780" y="115" fill="#black" font-size="18" font-family="sans-serif" text-anchor="end">8:00</text>
  <text x="780" y="130" fill="#black" font-size="12" font-family="sans-serif" text-anchor="end">17:00</text>
  <circle r="12" cx="350" cy="152" fill="black"/>
  <text x="350" y="160" fill="#A0A0A0" font-size="20" font-family="sans-serif" text-anchor="middle">J</text>
  <text x="370" y="160" fill="#black" font-size="24" font-family="sans-serif">voetbal</text>
  <text x="780" y="155" fill="#black" font-size="18" font-family="sans-serif" text-anchor="end">17:30</text>
  <text x="780" y="170" fill="#black" font-size="12" font-family="sans-serif" text-anchor="end">19:00</text>
  <circle r="12" cx="350" cy="192" fill="black"/>
  <text x="350" y="200" fill="#A0A0A0" font-size="20" font-family="sans-serif" text-anchor="middle">M</text>
  <text x="370" y="200" fill="#black" font-size="24" font-family="sans-serif">volleybal</text>
  <text x="780" y="195" fill="#black" font-size="18" font-family="sans-serif" text-anchor="end">21:00</text>
  <text x="780" y="210" fill="#black" font-size="12" font-family="sans-serif" text-anchor="end">23:00</text>
  <text x="320" y="255" fill="black" font-size="30" font-family="sans-serif" text-anchor="end">13</text>
  <text x="320" y="275" fill="black" font-size="18" font-family="sans-serif" text-anchor="end">WO</text>
  <rect width="2" height="55" x="328" y="231" fill="black"/>
  <circle r="12" cx="350" cy="247" fill="red"/>
  <text x="350" y="255" fill="#A0A0A0" font-size="20" font-family="sans-serif" text-anchor="middle">R</text>
  <text x="370" y="255" fill="#black" font-size="24" font-family="sans-serif">schoolfotograaf</text>
  <text x="320" y="325" fill="black" font-size="30" font-family="sans-serif" text-anchor="end">14</text>
  <text x="320" y="345" fill="black" font-size="18" font-family="sans-serif" text-anchor="end">DO</text>
  <rect width="2" height="55" x="328" y="301" fill="black"/>
  <circle r="12" cx="350" cy="317" fill="red"/>
  <text x="350" y="325" fill="#A0A0A0" font-size="20" font-family="sans-serif" text-anchor="middle">i</text>
  <text x="370" y="325" fill="#black" font-size="24" font-family="sans-serif">oma (75)</text>
</svg>
