<?xml version="1.0" encoding="UTF-8" standalone="no"?>
<svg
   xmlns:dc="http://purl.org/dc/elements/1.1/"
   xmlns:cc="http://creativecommons.org/ns#"
   xmlns:rdf="http://www.w3.org/1999/02/22-rdf-syntax-ns#"
   xmlns:svg="http://www.w3.org/2000/svg"
   xmlns="http://www.w3.org/2000/svg"
   version="1.1"
   id="svg1670"
   xml:space="preserve"
   width="618.1449"
   height="361.33768"
   viewBox="0 0 927.21733 542.00654"><metadata
     id="metadata1676"><rdf:RDF><cc:Work
         rdf:about=""><dc:format>image/svg+xml</dc:format><dc:type
           rdf:resource="http://purl.org/dc/dcmitype/StillImage" /><dc:title></dc:title></cc:Work></rdf:RDF></metadata><defs
     id="defs1674"><clipPath
       clipPathUnits="userSpaceOnUse"
       id="clipPath1688"><path
         d="m 375,299.582 h 1729.17 v 2908.34 H 375 Z"
         id="path1686" /></clipPath><clipPath
       clipPathUnits="userSpaceOnUse"
       id="clipPath1870"><path
         d="m 500,370.418 h 720.832 v 2620.83 H 500 Z"
         id="path1868" /></clipPath><clipPath
       clipPathUnits="userSpaceOnUse"
       id="clipPath1880"><path
         d="m 375,299.582 h 1729.17 v 2908.34 H 375 Z"
         id="path1878" /></clipPath><clipPath
       clipPathUnits="userSpaceOnUse"
       id="clipPath1894"><path
         d="m 1300,370.418 h 720.832 v 2620.83 H 1300 Z"
         id="path1892" /></clipPath></defs><g
     id="g1678"
     transform="matrix(0,-1.3333333,-1.3333333,0,1025.6049,667.07604)"><g
       id="g1680"
       transform="scale(0.24)"><g
         id="g1682"><g
           id="g1684"
           clip-path="url(#clipPath1688)"><path
             d="M 500,2990.65 H 458.332"
             style="fill:none;stroke:#969696;stroke-width:4.16667;stroke-linecap:butt;stroke-linejoin:miter;stroke-miterlimit:10;stroke-dasharray:none;stroke-opacity:1"
             id="path1690" /><g
             id="g1692"
             transform="scale(4.16667)"><text
               transform="matrix(0,-1,-1,0,94.0003,730.4)"
               style="font-variant:normal;font-weight:normal;font-size:14px;font-family:Menlo;-inkscape-font-specification:Menlo-Regular;writing-mode:lr-tb;fill:#969696;fill-opacity:1;fill-rule:nonzero;stroke:none"
               id="text1696"><tspan
                 x="0 8.4280005 16.855413"
                 y="0"
                 id="tspan1694">0ms</tspan></text></g><path
             d="M 500,2728.78 H 458.332"
             style="fill:none;stroke:#969696;stroke-width:4.16667;stroke-linecap:butt;stroke-linejoin:miter;stroke-miterlimit:10;stroke-dasharray:none;stroke-opacity:1"
             id="path1698" /><g
             id="g1700"
             transform="scale(4.16667)"><text
               transform="matrix(0,-1,-1,0,94.0003,667.55)"
               style="font-variant:normal;font-weight:normal;font-size:14px;font-family:Menlo;-inkscape-font-specification:Menlo-Regular;writing-mode:lr-tb;fill:#969696;fill-opacity:1;fill-rule:nonzero;stroke:none"
               id="text1704"><tspan
                 x="0 8.4280005 16.855413"
                 y="0"
                 id="tspan1702">1ms</tspan></text></g><path
             d="M 500,2466.9 H 458.332"
             style="fill:none;stroke:#969696;stroke-width:4.16667;stroke-linecap:butt;stroke-linejoin:miter;stroke-miterlimit:10;stroke-dasharray:none;stroke-opacity:1"
             id="path1706" /><g
             id="g1708"
             transform="scale(4.16667)"><text
               transform="matrix(0,-1,-1,0,94.0003,604.7)"
               style="font-variant:normal;font-weight:normal;font-size:14px;font-family:Menlo;-inkscape-font-specification:Menlo-Regular;writing-mode:lr-tb;fill:#969696;fill-opacity:1;fill-rule:nonzero;stroke:none"
               id="text1712"><tspan
                 x="0 8.4280005 16.855413"
                 y="0"
                 id="tspan1710">2ms</tspan></text></g><path
             d="M 500,2205.03 H 458.332"
             style="fill:none;stroke:#969696;stroke-width:4.16667;stroke-linecap:butt;stroke-linejoin:miter;stroke-miterlimit:10;stroke-dasharray:none;stroke-opacity:1"
             id="path1714" /><g
             id="g1716"
             transform="scale(4.16667)"><text
               transform="matrix(0,-1,-1,0,94.0003,541.85)"
               style="font-variant:normal;font-weight:normal;font-size:14px;font-family:Menlo;-inkscape-font-specification:Menlo-Regular;writing-mode:lr-tb;fill:#969696;fill-opacity:1;fill-rule:nonzero;stroke:none"
               id="text1720"><tspan
                 x="0 8.4274139 16.855413"
                 y="0"
                 id="tspan1718">3ms</tspan></text></g><path
             d="M 500,1943.15 H 458.332"
             style="fill:none;stroke:#969696;stroke-width:4.16667;stroke-linecap:butt;stroke-linejoin:miter;stroke-miterlimit:10;stroke-dasharray:none;stroke-opacity:1"
             id="path1722" /><g
             id="g1724"
             transform="scale(4.16667)"><text
               transform="matrix(0,-1,-1,0,94.0003,479)"
               style="font-variant:normal;font-weight:normal;font-size:14px;font-family:Menlo;-inkscape-font-specification:Menlo-Regular;writing-mode:lr-tb;fill:#969696;fill-opacity:1;fill-rule:nonzero;stroke:none"
               id="text1728"><tspan
                 x="0 8.4274139 16.855413"
                 y="0"
                 id="tspan1726">4ms</tspan></text></g><path
             d="M 500,1681.28 H 458.332"
             style="fill:none;stroke:#969696;stroke-width:4.16667;stroke-linecap:butt;stroke-linejoin:miter;stroke-miterlimit:10;stroke-dasharray:none;stroke-opacity:1"
             id="path1730" /><g
             id="g1732"
             transform="scale(4.16667)"><text
               transform="matrix(0,-1,-1,0,94.0003,416.15)"
               style="font-variant:normal;font-weight:normal;font-size:14px;font-family:Menlo;-inkscape-font-specification:Menlo-Regular;writing-mode:lr-tb;fill:#969696;fill-opacity:1;fill-rule:nonzero;stroke:none"
               id="text1736"><tspan
                 x="0 8.4274139 16.855413"
                 y="0"
                 id="tspan1734">5ms</tspan></text></g><path
             d="M 500,1419.41 H 458.332"
             style="fill:none;stroke:#969696;stroke-width:4.16667;stroke-linecap:butt;stroke-linejoin:miter;stroke-miterlimit:10;stroke-dasharray:none;stroke-opacity:1"
             id="path1738" /><g
             id="g1740"
             transform="scale(4.16667)"><text
               transform="matrix(0,-1,-1,0,94.0003,353.3)"
               style="font-variant:normal;font-weight:normal;font-size:14px;font-family:Menlo;-inkscape-font-specification:Menlo-Regular;writing-mode:lr-tb;fill:#969696;fill-opacity:1;fill-rule:nonzero;stroke:none"
               id="text1744"><tspan
                 x="0 8.4274139 16.855413"
                 y="0"
                 id="tspan1742">6ms</tspan></text></g><path
             d="M 500,1157.53 H 458.332"
             style="fill:none;stroke:#969696;stroke-width:4.16667;stroke-linecap:butt;stroke-linejoin:miter;stroke-miterlimit:10;stroke-dasharray:none;stroke-opacity:1"
             id="path1746" /><g
             id="g1748"
             transform="scale(4.16667)"><text
               transform="matrix(0,-1,-1,0,94.0003,290.451)"
               style="font-variant:normal;font-weight:normal;font-size:14px;font-family:Menlo;-inkscape-font-specification:Menlo-Regular;writing-mode:lr-tb;fill:#969696;fill-opacity:1;fill-rule:nonzero;stroke:none"
               id="text1752"><tspan
                 x="0 8.4280005 16.856001"
                 y="0"
                 id="tspan1750">7ms</tspan></text></g><path
             d="M 500,895.656 H 458.332"
             style="fill:none;stroke:#969696;stroke-width:4.16667;stroke-linecap:butt;stroke-linejoin:miter;stroke-miterlimit:10;stroke-dasharray:none;stroke-opacity:1"
             id="path1754" /><g
             id="g1756"
             transform="scale(4.16667)"><text
               transform="matrix(0,-1,-1,0,94.0003,227.601)"
               style="font-variant:normal;font-weight:normal;font-size:14px;font-family:Menlo;-inkscape-font-specification:Menlo-Regular;writing-mode:lr-tb;fill:#969696;fill-opacity:1;fill-rule:nonzero;stroke:none"
               id="text1760"><tspan
                 x="0 8.4280005 16.856001"
                 y="0"
                 id="tspan1758">8ms</tspan></text></g><path
             d="M 500,633.781 H 458.332"
             style="fill:none;stroke:#969696;stroke-width:4.16667;stroke-linecap:butt;stroke-linejoin:miter;stroke-miterlimit:10;stroke-dasharray:none;stroke-opacity:1"
             id="path1762" /><g
             id="g1764"
             transform="scale(4.16667)"><text
               transform="matrix(0,-1,-1,0,94.0003,164.751)"
               style="font-variant:normal;font-weight:normal;font-size:14px;font-family:Menlo;-inkscape-font-specification:Menlo-Regular;writing-mode:lr-tb;fill:#969696;fill-opacity:1;fill-rule:nonzero;stroke:none"
               id="text1768"><tspan
                 x="0 8.4280005 16.855413"
                 y="0"
                 id="tspan1766">9ms</tspan></text></g><path
             d="M 500,371.906 H 458.332"
             style="fill:none;stroke:#969696;stroke-width:4.16667;stroke-linecap:butt;stroke-linejoin:miter;stroke-miterlimit:10;stroke-dasharray:none;stroke-opacity:1"
             id="path1770" /><g
             id="g1772"
             transform="scale(4.16667)"><text
               transform="matrix(0,-1,-1,0,94.0003,106.115)"
               style="font-variant:normal;font-weight:normal;font-size:14px;font-family:Menlo;-inkscape-font-specification:Menlo-Regular;writing-mode:lr-tb;fill:#969696;fill-opacity:1;fill-rule:nonzero;stroke:none"
               id="text1778"><tspan
                 x="0 8.4274139 16.855413 25.283415"
                 y="0"
                 id="tspan1774">10ms</tspan><tspan
                 x="-630.07001 -638.49908 -646.92719"
                 y="-20"
                 id="tspan1776">V06</tspan></text></g><path
             d="m 500,2990.65 v 41.67"
             style="fill:none;stroke:#969696;stroke-width:4.16667;stroke-linecap:butt;stroke-linejoin:miter;stroke-miterlimit:10;stroke-dasharray:none;stroke-opacity:1"
             id="path1780" /><g
             id="g1782"
             transform="scale(4.16667)"><text
               transform="matrix(0,-1,-1,0,200.25,736.185)"
               style="font-variant:normal;font-weight:normal;font-size:14px;font-family:Menlo;-inkscape-font-specification:Menlo-Regular;writing-mode:lr-tb;fill:#969696;fill-opacity:1;fill-rule:nonzero;stroke:none"
               id="text1786"><tspan
                 x="0 -8.42906 -16.857189 -25.286249"
                 y="0"
                 id="tspan1784">V071</tspan></text></g><path
             d="m 859.375,2990.65 v 41.67"
             style="fill:none;stroke:#969696;stroke-width:4.16667;stroke-linecap:butt;stroke-linejoin:miter;stroke-miterlimit:10;stroke-dasharray:none;stroke-opacity:1"
             id="path1788" /><g
             id="g1790"
             transform="scale(4.16667)"><text
               transform="matrix(0,-1,-1,0,286.5,736.185)"
               style="font-variant:normal;font-weight:normal;font-size:14px;font-family:Menlo;-inkscape-font-specification:Menlo-Regular;writing-mode:lr-tb;fill:#969696;fill-opacity:1;fill-rule:nonzero;stroke:none"
               id="text1794"><tspan
                 x="0 -8.42906 -16.857189 -25.286249"
                 y="0"
                 id="tspan1792">V082</tspan></text></g><path
             d="m 1218.75,2990.65 v 41.67"
             style="fill:none;stroke:#969696;stroke-width:4.16667;stroke-linecap:butt;stroke-linejoin:miter;stroke-miterlimit:10;stroke-dasharray:none;stroke-opacity:1"
             id="path1796" /><path
             d="m 500,371.906 h 718.75 v 2618.75 H 500 Z"
             style="fill:none;stroke:#969696;stroke-width:4.16667;stroke-linecap:butt;stroke-linejoin:miter;stroke-miterlimit:10;stroke-dasharray:none;stroke-opacity:1"
             id="path1798" /><g
             id="g1800"
             transform="scale(4.16667)"><text
               transform="matrix(0,-1,-1,0,306.5,736.185)"
               style="font-variant:normal;font-weight:normal;font-size:14px;font-family:Menlo;-inkscape-font-specification:Menlo-Regular;writing-mode:lr-tb;fill:#afafaf;fill-opacity:1;fill-rule:nonzero;stroke:none"
               id="text1804"><tspan
                 x="0 -8.42906 -16.857189 -25.286249 -33.715309"
                 y="0"
                 id="tspan1802">V1.2-</tspan></text></g><path
             d="m 1302.08,2990.65 v 41.67"
             style="fill:none;stroke:#afafaf;stroke-width:4.16667;stroke-linecap:butt;stroke-linejoin:miter;stroke-miterlimit:10;stroke-dasharray:none;stroke-opacity:1"
             id="path1806" /><g
             id="g1808"
             transform="scale(4.16667)"><text
               transform="matrix(0,-1,-1,0,335.25,736.185)"
               style="font-variant:normal;font-weight:normal;font-size:14px;font-family:Menlo;-inkscape-font-specification:Menlo-Regular;writing-mode:lr-tb;fill:#afafaf;fill-opacity:1;fill-rule:nonzero;stroke:none"
               id="text1812"><tspan
                 x="0 -8.42906 -16.857189 -25.286249 -33.715309"
                 y="0"
                 id="tspan1810">V5.1-</tspan></text></g><path
             d="m 1421.88,2990.65 v 41.67"
             style="fill:none;stroke:#afafaf;stroke-width:4.16667;stroke-linecap:butt;stroke-linejoin:miter;stroke-miterlimit:10;stroke-dasharray:none;stroke-opacity:1"
             id="path1814" /><g
             id="g1816"
             transform="scale(4.16667)"><text
               transform="matrix(0,-1,-1,0,364,736.185)"
               style="font-variant:normal;font-weight:normal;font-size:14px;font-family:Menlo;-inkscape-font-specification:Menlo-Regular;writing-mode:lr-tb;fill:#afafaf;fill-opacity:1;fill-rule:nonzero;stroke:none"
               id="text1820"><tspan
                 x="0 -8.42906 -16.857189 -25.286249 -33.715309"
                 y="0"
                 id="tspan1818">V9.0-</tspan></text></g><path
             d="m 1541.67,2990.65 v 41.67"
             style="fill:none;stroke:#afafaf;stroke-width:4.16667;stroke-linecap:butt;stroke-linejoin:miter;stroke-miterlimit:10;stroke-dasharray:none;stroke-opacity:1"
             id="path1822" /><g
             id="g1824"
             transform="scale(4.16667)"><text
               transform="matrix(0,-1,-1,0,392.75,736.185)"
               style="font-variant:normal;font-weight:normal;font-size:14px;font-family:Menlo;-inkscape-font-specification:Menlo-Regular;writing-mode:lr-tb;fill:#afafaf;fill-opacity:1;fill-rule:nonzero;stroke:none"
               id="text1828"><tspan
                 x="0 -8.42906 -16.857189 -25.286249 -33.715309"
                 y="0"
                 id="tspan1826">V3.0-</tspan></text></g><path
             d="m 1661.46,2990.65 v 41.67"
             style="fill:none;stroke:#afafaf;stroke-width:4.16667;stroke-linecap:butt;stroke-linejoin:miter;stroke-miterlimit:10;stroke-dasharray:none;stroke-opacity:1"
             id="path1830" /><g
             id="g1832"
             transform="scale(4.16667)"><text
               transform="matrix(0,-1,-1,0,421.5,736.185)"
               style="font-variant:normal;font-weight:normal;font-size:14px;font-family:Menlo;-inkscape-font-specification:Menlo-Regular;writing-mode:lr-tb;fill:#afafaf;fill-opacity:1;fill-rule:nonzero;stroke:none"
               id="text1836"><tspan
                 x="0 -8.42906 -16.857189 -25.286249"
                 y="0"
                 id="tspan1834">V3.0</tspan></text></g><path
             d="m 1781.25,2990.65 v 41.67"
             style="fill:none;stroke:#afafaf;stroke-width:4.16667;stroke-linecap:butt;stroke-linejoin:miter;stroke-miterlimit:10;stroke-dasharray:none;stroke-opacity:1"
             id="path1838" /><g
             id="g1840"
             transform="scale(4.16667)"><text
               transform="matrix(0,-1,-1,0,450.25,736.185)"
               style="font-variant:normal;font-weight:normal;font-size:14px;font-family:Menlo;-inkscape-font-specification:Menlo-Regular;writing-mode:lr-tb;fill:#afafaf;fill-opacity:1;fill-rule:nonzero;stroke:none"
               id="text1844"><tspan
                 x="0 -8.42906 -16.857189 -25.286249"
                 y="0"
                 id="tspan1842">V9.0</tspan></text></g><path
             d="m 1901.04,2990.65 v 41.67"
             style="fill:none;stroke:#afafaf;stroke-width:4.16667;stroke-linecap:butt;stroke-linejoin:miter;stroke-miterlimit:10;stroke-dasharray:none;stroke-opacity:1"
             id="path1846" /><g
             id="g1848"
             transform="scale(4.16667)"><text
               transform="matrix(0,-1,-1,0,479,736.185)"
               style="font-variant:normal;font-weight:normal;font-size:14px;font-family:Menlo;-inkscape-font-specification:Menlo-Regular;writing-mode:lr-tb;fill:#afafaf;fill-opacity:1;fill-rule:nonzero;stroke:none"
               id="text1852"><tspan
                 x="0 -8.42906 -16.857189 -25.286249"
                 y="0"
                 id="tspan1850">V5.1</tspan></text></g><path
             d="m 2020.83,2990.65 v 41.67"
             style="fill:none;stroke:#afafaf;stroke-width:4.16667;stroke-linecap:butt;stroke-linejoin:miter;stroke-miterlimit:10;stroke-dasharray:none;stroke-opacity:1"
             id="path1854" /><path
             d="m 1302.08,371.906 h 718.75 v 2618.75 h -718.75 z"
             style="fill:none;stroke:#afafaf;stroke-width:4.16667;stroke-linecap:butt;stroke-linejoin:miter;stroke-miterlimit:10;stroke-dasharray:none;stroke-opacity:1"
             id="path1856" /><g
             id="g1858"
             transform="scale(4.16667)"><text
               transform="matrix(0,-1,-1,0,296,420.614)"
               style="font-variant:normal;font-weight:normal;font-size:14px;font-family:Menlo;-inkscape-font-specification:Menlo-Regular;writing-mode:lr-tb;fill:#0eff00;fill-opacity:1;fill-rule:nonzero;stroke:none"
               id="text1862"><tspan
                 x="0 8.4280005 16.855413 25.283415"
                 y="0"
                 id="tspan1860">V(a)</tspan></text></g></g></g><g
         id="g1864"><g
           id="g1866"
           clip-path="url(#clipPath1870)"><path
             d="m 846.598,2990.65 v 0 l -28.289,-6.65 -44.793,-10.47 -44.821,-10.48 -44.269,-10.47 -42.985,-10.48 -39.406,-10.47 -30.117,-10.48 -13.164,-8.52 -5.457,-8.79 -3.473,-10.07 -2.449,-10.39 -1.609,-10.47 -1.055,-10.48 -0.621,-10.47 -0.195,-9.17 0.14,-9.51 0.543,-10.48 0.988,-10.47 1.516,-10.47 2.219,-10.48 3.301,-10.48 5.425,-10.47 10.508,-10.48 20.488,-10.47 32.473,-10.48 35.652,-9.18 38.649,-9.21 45.012,-10.48 45.441,-10.47 45.227,-10.48 44.363,-10.47 42.879,-10.48 40.824,-10.47 38.266,-10.48 35.281,-10.47 31.94,-10.48 28.34,-10.47 24.57,-10.48 20.71,-10.47 16.85,-10.48 13.04,-10.47 9.31,-10.48 5.64,-10.47 2.08,-10.48 -1.33,-10.02 -4.85,-10.47 -8.37,-10.48 -11.99,-10.47 -15.65,-10.48 -19.35,-10.48 -23.07,-10.47 -26.72,-10.48 -30.25,-10.47 -33.56,-10.48 -36.59,-10.47 -39.25,-10.47 -41.469,-10.48 -43.176,-10.47 -44.32,-10.48 -44.852,-10.48 -44.75,-10.47 -43.98,-10.48 -42.41,-10.47 -38.113,-10.48 -22.426,-8.74 -12.078,-9.69 -5.024,-9.51 -2.676,-8.63 -2.238,-10.47 -1.519,-10.48 -0.985,-10.47 -0.535,-10.47 -0.125,-10.48 0.274,-10.28 0.695,-10.47 1.172,-10.48 1.746,-10.47 2.547,-10.48 3.882,-10.47 6.797,-10.48 13.61,-10.47 25.043,-10.48 36.093,-10.43 36.977,-9.15 39.141,-9.22 45.25,-10.47 45.437,-10.48 44.992,-10.47 43.899,-10.47 42.199,-10.48 39.961,-10.47 37.231,-10.48 34.12,-10.48 30.66,-10.47 27,-10.48 23.19,-10.47 19.32,-10.48 15.46,-10.47 11.68,-10.47 7.99,-10.48 4.34,-10.47 0.77,-10.48 -2.71,-10.48 -6.24,-10.47 -9.82,-10.48 -13.47,-10.47 -17.14,-10.48 -20.85,-10.47 -24.55,-10.47 -28.17,-10.48 -31.61,-10.47 -34.826,-10.48 -37.715,-10.48 -40.199,-10.47 -42.223,-10.48 -43.707,-10.47 -44.613,-10.48 -44.887,-10.47 -44.519,-10.47 -43.477,-10.48 -41.101,-10.47 -34.645,-10.48 -15.875,-7.72 -7.699,-8.54 -3.559,-7.95 -2.609,-8.68 -2.184,-10.48 -1.496,-10.47 -0.957,-10.48 -0.516,-10.47 -0.101,-10.48 0.301,-10.47 0.726,-10.47 1.207,-10.48 1.797,-10.47 2.613,-10.48 4.024,-10.48 7.113,-10.47 14.277,-10.48 25.848,-10.47 35.113,-10.01 37.68,-9.27 39.688,-9.34 45.277,-10.48 45.43,-10.47 44.949,-10.48 43.82,-10.47 42.094,-10.48 39.824,-10.47 37.077,-10.48 33.93,-10.47 30.48,-10.48 26.79,-10.47 22.98,-10.48 19.11,-10.47 15.26,-10.48 11.47,-10.47 7.79,-10.48 4.15,-10.47 0.59,-10.47 -2.91,-10.48 -6.43,-10.48 -10.02,-10.47 -13.66,-10.48 -17.34,-10.47 -21.06,-10.48 -24.75,-10.47 -28.36,-10.48 -31.79,-10.47 -34.99,-10.47 -37.86,-10.48 -40.324,-10.48 -42.316,-10.47 -43.774,-10.48 -44.641,-10.47 -44.886,-10.48 -44.481,-10.47 -43.398,-10.48 -40.856,-10.47 -33.98,-10.47 -15.262,-7.75 -7.23,-8.49 -3.524,-8.1 -2.543,-8.7 -2.082,-10.48 -1.445,-10.47 -0.93,-10.48 -0.484,-10.47 -0.078,-10.48 0.332,-10.48 0.758,-10.47 1.238,-10.47 1.844,-10.48 2.683,-10.47 4.157,-10.48 7.441,-10.473 14.953,-10.476 26.688,-10.473 35.515,-9.945 42.883,-10.473 40.687,-9.539 45.36,-10.477 45.39,-10.476 44.778,-10.473 43.531,-10.476 41.688,-10.473 39.324,-10.477 36.484,-10.476 33.29,-10.473 29.76,-10.476 26.06,-10.473 22.23,-10.477 18.35,-10.476 14.51,-10.473 10.74,-10.476 7.07,-10.473 3.46,-10.477 -0.09,-10.398 -3.57,-10.477 -7.09,-10.472 -10.7,-10.477 -14.36,-10.476 -18.05,-10.473 -21.75,-10.477 -25.45,-10.472 -29.01,-10.477 -32.42,-10.476 -35.562,-10.473 -38.355,-10.477 -40.739,-10.472 -42.632,-10.477 -43.985,-10.476 -44.738,-10.473 -44.859,-10.477 -44.329,-10.472 -43.109,-10.477 -39.836,-10.476 -31.242,-10.473 -13.598,-8.191 -5.828,-8.59 -3.492,-9.414 -2.461,-9.7 -1.766,-10.476 -1.183,-10.473 -0.715,-10.476 -0.297,-10.477 0.106,-10.328 0.519,-10.477 0.965,-10.476 1.488,-10.473 2.18,-10.476 3.234,-10.473 5.282,-10.477 9.335,-10.476 10.688,-7.852"
             style="fill:none;stroke:#0eff00;stroke-width:4.16667;stroke-linecap:butt;stroke-linejoin:miter;stroke-miterlimit:1;stroke-dasharray:none;stroke-opacity:1"
             id="path1872" /></g></g><g
         id="g1874"><g
           id="g1876"
           clip-path="url(#clipPath1880)"><g
             id="g1882"
             transform="scale(4.16667)"><text
               transform="matrix(0,-1,-1,0,489,420.614)"
               style="font-variant:normal;font-weight:normal;font-size:14px;font-family:Menlo;-inkscape-font-specification:Menlo-Regular;writing-mode:lr-tb;fill:#0000ff;fill-opacity:1;fill-rule:nonzero;stroke:none"
               id="text1886"><tspan
                 x="0 8.4280005 16.855413 25.283415"
                 y="0"
                 id="tspan1884">V(g)</tspan></text></g></g></g><g
         id="g1888"><g
           id="g1890"
           clip-path="url(#clipPath1894)"><path
             d="m 1705.36,2990.65 v 0 l 27.77,-6.65 43.46,-10.47 42.85,-10.48 41.72,-10.47 40.01,-10.48 36.34,-10.47 27.59,-10.48 12.03,-8.52 5.01,-8.79 3.23,-10.07 2.29,-10.39 1.54,-10.47 1.03,-10.48 0.63,-10.47 0.25,-9.17 -0.07,-9.51 -0.42,-10.48 -0.83,-10.47 -1.31,-10.47 -1.94,-10.48 -2.93,-10.48 -4.88,-10.47 -9.51,-10.48 -18.68,-10.47 -29.78,-10.48 -32.93,-9.18 -36.06,-9.21 -42.54,-10.48 -43.61,-10.47 -44.19,-10.48 -44.22,-10.47 -43.7,-10.48 -42.63,-10.47 -41.04,-10.48 -38.92,-10.47 -36.31,-10.48 -33.25,-10.47 -29.75,-10.48 -25.89,-10.47 -21.7,-10.48 -17.23,-10.47 -12.59,-10.48 -7.81,-10.47 -2.99,-10.48 1.78,-10.02 6.61,-10.47 11.26,-10.48 15.83,-10.47 20.17,-10.48 24.27,-10.48 28.08,-10.47 31.54,-10.48 34.63,-10.47 37.32,-10.48 39.56,-10.47 41.33,-10.47 42.62,-10.48 43.39,-10.47 43.65,-10.48 43.38,-10.48 42.6,-10.47 41.29,-10.48 39.36,-10.47 35.07,-10.48 20.53,-8.74 11.04,-9.69 4.63,-9.51 2.48,-8.63 2.11,-10.47 1.45,-10.48 0.96,-10.47 0.56,-10.47 0.19,-10.48 -0.18,-10.28 -0.56,-10.47 -0.99,-10.48 -1.52,-10.47 -2.24,-10.48 -3.46,-10.47 -6.13,-10.48 -12.36,-10.47 -22.88,-10.48 -33.18,-10.43 -34.28,-9.15 -36.68,-9.22 -43,-10.47 -43.88,-10.48 -44.27,-10.47 -44.09,-10.47 -43.38,-10.48 -42.12,-10.47 -40.34,-10.48 -38.03,-10.48 -35.27,-10.47 -32.03,-10.48 -28.4,-10.47 -24.41,-10.48 -20.12,-10.47 -15.59,-10.47 -10.87,-10.48 -6.06,-10.47 -1.17,-10.48 3.7,-10.48 8.47,-10.47 13.12,-10.48 17.61,-10.47 21.86,-10.48 25.85,-10.47 29.51,-10.47 32.84,-10.48 35.76,-10.47 38.28,-10.48 40.33,-10.48 41.91,-10.47 43,-10.48 43.55,-10.47 43.61,-10.48 43.13,-10.47 42.13,-10.47 40.62,-10.48 38,-10.47 31.79,-10.48 14.51,-7.72 7.05,-8.54 3.29,-7.95 2.42,-8.68 2.06,-10.48 1.43,-10.47 0.94,-10.48 0.54,-10.47 0.16,-10.48 -0.2,-10.47 -0.59,-10.47 -1.02,-10.48 -1.56,-10.47 -2.31,-10.48 -3.59,-10.48 -6.41,-10.47 -12.98,-10.48 -23.62,-10.47 -32.29,-10.01 -34.95,-9.27 -37.22,-9.34 -43.06,-10.48 -43.91,-10.47 -44.27,-10.48 -44.07,-10.47 -43.33,-10.48 -42.04,-10.47 -40.22,-10.48 -37.9,-10.47 -35.1,-10.48 -31.84,-10.47 -28.2,-10.48 -24.19,-10.47 -19.88,-10.48 -15.33,-10.47 -10.61,-10.48 -5.8,-10.47 -0.9,-10.47 3.96,-10.48 8.72,-10.48 13.37,-10.47 17.85,-10.48 22.08,-10.47 26.05,-10.48 29.71,-10.47 33,-10.48 35.92,-10.47 38.39,-10.47 40.43,-10.48 41.99,-10.48 43.03,-10.47 43.58,-10.48 43.59,-10.47 43.09,-10.48 42.06,-10.47 40.52,-10.48 37.75,-10.47 31.18,-10.47 13.95,-7.75 6.62,-8.49 3.25,-8.1 2.37,-8.7 1.97,-10.48 1.38,-10.47 0.91,-10.48 0.52,-10.47 0.14,-10.48 -0.23,-10.48 -0.62,-10.47 -1.05,-10.47 -1.61,-10.48 -2.37,-10.47 -3.71,-10.48 -6.71,-10.473 -13.6,-10.476 -24.39,-10.473 -32.7,-9.945 -39.82,-10.473 -38.25,-9.539 -43.27,-10.477 -44.02,-10.476 -44.28,-10.473 -43.97,-10.476 -43.11,-10.473 -41.73,-10.477 -39.8,-10.476 -37.39,-10.473 -34.5,-10.476 -31.16,-10.473 -27.43,-10.477 -23.37,-10.476 -19.01,-10.473 -14.42,-10.476 -9.68,-10.473 -4.85,-10.477 0.03,-10.398 4.88,-10.477 9.62,-10.472 14.22,-10.477 18.66,-10.476 22.86,-10.473 26.76,-10.477 30.35,-10.472 33.59,-10.477 36.41,-10.476 38.82,-10.473 40.76,-10.477 42.22,-10.472 43.18,-10.477 43.62,-10.476 43.54,-10.473 42.93,-10.477 41.81,-10.472 40.16,-10.477 36.76,-10.476 28.63,-10.473 12.43,-8.191 5.35,-8.59 3.23,-9.414 2.3,-9.7 1.67,-10.476 1.15,-10.473 0.73,-10.476 0.34,-10.477 -0.03,-10.328 -0.4,-10.477 -0.8,-10.476 -1.29,-10.473 -1.9,-10.476 -2.88,-10.473 -4.74,-10.477 -8.44,-10.476 -9.71,-7.852"
             style="fill:none;stroke:#0000ff;stroke-width:4.16667;stroke-linecap:butt;stroke-linejoin:miter;stroke-miterlimit:1;stroke-dasharray:none;stroke-opacity:1"
             id="path1896" /></g></g></g></g></svg>
