<?xml version="1.0" encoding="UTF-8" standalone="no"?>
<svg
   xmlns:dc="http://purl.org/dc/elements/1.1/"
   xmlns:cc="http://creativecommons.org/ns#"
   xmlns:rdf="http://www.w3.org/1999/02/22-rdf-syntax-ns#"
   xmlns:svg="http://www.w3.org/2000/svg"
   xmlns="http://www.w3.org/2000/svg"
   version="1.1"
   id="svg532"
   xml:space="preserve"
   width="618.1449"
   height="361.33768"
   viewBox="0 0 927.21733 542.00654"><metadata
     id="metadata538"><rdf:RDF><cc:Work
         rdf:about=""><dc:format>image/svg+xml</dc:format><dc:type
           rdf:resource="http://purl.org/dc/dcmitype/StillImage" /><dc:title></dc:title></cc:Work></rdf:RDF></metadata><defs
     id="defs536"><clipPath
       clipPathUnits="userSpaceOnUse"
       id="clipPath550"><path
         d="m 375,299.582 h 1729.17 v 2908.34 H 375 Z"
         id="path548" /></clipPath><clipPath
       clipPathUnits="userSpaceOnUse"
       id="clipPath724"><path
         d="m 500,370.418 h 720.832 v 2620.83 H 500 Z"
         id="path722" /></clipPath><clipPath
       clipPathUnits="userSpaceOnUse"
       id="clipPath734"><path
         d="m 375,299.582 h 1729.17 v 2908.34 H 375 Z"
         id="path732" /></clipPath><clipPath
       clipPathUnits="userSpaceOnUse"
       id="clipPath748"><path
         d="m 500,370.418 h 720.832 v 2620.83 H 500 Z"
         id="path746" /></clipPath><clipPath
       clipPathUnits="userSpaceOnUse"
       id="clipPath758"><path
         d="m 375,299.582 h 1729.17 v 2908.34 H 375 Z"
         id="path756" /></clipPath><clipPath
       clipPathUnits="userSpaceOnUse"
       id="clipPath772"><path
         d="m 1300,370.418 h 720.832 v 2620.83 H 1300 Z"
         id="path770" /></clipPath></defs><g
     id="g540"
     transform="matrix(0,-1.3333333,-1.3333333,0,1025.6049,667.07604)"><g
       id="g542"
       transform="scale(0.24)"><g
         id="g544"><g
           id="g546"
           clip-path="url(#clipPath550)"><path
             d="M 500,2990.65 H 458.332"
             style="fill:none;stroke:#969696;stroke-width:4.16667;stroke-linecap:butt;stroke-linejoin:miter;stroke-miterlimit:10;stroke-dasharray:none;stroke-opacity:1"
             id="path552" /><g
             id="g554"
             transform="scale(4.16667)"><text
               transform="matrix(0,-1,-1,0,94.0003,730.4)"
               style="font-variant:normal;font-weight:normal;font-size:14px;font-family:Menlo;-inkscape-font-specification:Menlo-Regular;writing-mode:lr-tb;fill:#969696;fill-opacity:1;fill-rule:nonzero;stroke:none"
               id="text558"><tspan
                 x="0 8.4280005 16.855413"
                 y="0"
                 id="tspan556">0ms</tspan></text></g><path
             d="M 500,2728.78 H 458.332"
             style="fill:none;stroke:#969696;stroke-width:4.16667;stroke-linecap:butt;stroke-linejoin:miter;stroke-miterlimit:10;stroke-dasharray:none;stroke-opacity:1"
             id="path560" /><g
             id="g562"
             transform="scale(4.16667)"><text
               transform="matrix(0,-1,-1,0,94.0003,667.55)"
               style="font-variant:normal;font-weight:normal;font-size:14px;font-family:Menlo;-inkscape-font-specification:Menlo-Regular;writing-mode:lr-tb;fill:#969696;fill-opacity:1;fill-rule:nonzero;stroke:none"
               id="text566"><tspan
                 x="0 8.4280005 16.855413"
                 y="0"
                 id="tspan564">1ms</tspan></text></g><path
             d="M 500,2466.9 H 458.332"
             style="fill:none;stroke:#969696;stroke-width:4.16667;stroke-linecap:butt;stroke-linejoin:miter;stroke-miterlimit:10;stroke-dasharray:none;stroke-opacity:1"
             id="path568" /><g
             id="g570"
             transform="scale(4.16667)"><text
               transform="matrix(0,-1,-1,0,94.0003,604.7)"
               style="font-variant:normal;font-weight:normal;font-size:14px;font-family:Menlo;-inkscape-font-specification:Menlo-Regular;writing-mode:lr-tb;fill:#969696;fill-opacity:1;fill-rule:nonzero;stroke:none"
               id="text574"><tspan
                 x="0 8.4280005 16.855413"
                 y="0"
                 id="tspan572">2ms</tspan></text></g><path
             d="M 500,2205.03 H 458.332"
             style="fill:none;stroke:#969696;stroke-width:4.16667;stroke-linecap:butt;stroke-linejoin:miter;stroke-miterlimit:10;stroke-dasharray:none;stroke-opacity:1"
             id="path576" /><g
             id="g578"
             transform="scale(4.16667)"><text
               transform="matrix(0,-1,-1,0,94.0003,541.85)"
               style="font-variant:normal;font-weight:normal;font-size:14px;font-family:Menlo;-inkscape-font-specification:Menlo-Regular;writing-mode:lr-tb;fill:#969696;fill-opacity:1;fill-rule:nonzero;stroke:none"
               id="text582"><tspan
                 x="0 8.4274139 16.855413"
                 y="0"
                 id="tspan580">3ms</tspan></text></g><path
             d="M 500,1943.15 H 458.332"
             style="fill:none;stroke:#969696;stroke-width:4.16667;stroke-linecap:butt;stroke-linejoin:miter;stroke-miterlimit:10;stroke-dasharray:none;stroke-opacity:1"
             id="path584" /><g
             id="g586"
             transform="scale(4.16667)"><text
               transform="matrix(0,-1,-1,0,94.0003,479)"
               style="font-variant:normal;font-weight:normal;font-size:14px;font-family:Menlo;-inkscape-font-specification:Menlo-Regular;writing-mode:lr-tb;fill:#969696;fill-opacity:1;fill-rule:nonzero;stroke:none"
               id="text590"><tspan
                 x="0 8.4274139 16.855413"
                 y="0"
                 id="tspan588">4ms</tspan></text></g><path
             d="M 500,1681.28 H 458.332"
             style="fill:none;stroke:#969696;stroke-width:4.16667;stroke-linecap:butt;stroke-linejoin:miter;stroke-miterlimit:10;stroke-dasharray:none;stroke-opacity:1"
             id="path592" /><g
             id="g594"
             transform="scale(4.16667)"><text
               transform="matrix(0,-1,-1,0,94.0003,416.15)"
               style="font-variant:normal;font-weight:normal;font-size:14px;font-family:Menlo;-inkscape-font-specification:Menlo-Regular;writing-mode:lr-tb;fill:#969696;fill-opacity:1;fill-rule:nonzero;stroke:none"
               id="text598"><tspan
                 x="0 8.4274139 16.855413"
                 y="0"
                 id="tspan596">5ms</tspan></text></g><path
             d="M 500,1419.41 H 458.332"
             style="fill:none;stroke:#969696;stroke-width:4.16667;stroke-linecap:butt;stroke-linejoin:miter;stroke-miterlimit:10;stroke-dasharray:none;stroke-opacity:1"
             id="path600" /><g
             id="g602"
             transform="scale(4.16667)"><text
               transform="matrix(0,-1,-1,0,94.0003,353.3)"
               style="font-variant:normal;font-weight:normal;font-size:14px;font-family:Menlo;-inkscape-font-specification:Menlo-Regular;writing-mode:lr-tb;fill:#969696;fill-opacity:1;fill-rule:nonzero;stroke:none"
               id="text606"><tspan
                 x="0 8.4274139 16.855413"
                 y="0"
                 id="tspan604">6ms</tspan></text></g><path
             d="M 500,1157.53 H 458.332"
             style="fill:none;stroke:#969696;stroke-width:4.16667;stroke-linecap:butt;stroke-linejoin:miter;stroke-miterlimit:10;stroke-dasharray:none;stroke-opacity:1"
             id="path608" /><g
             id="g610"
             transform="scale(4.16667)"><text
               transform="matrix(0,-1,-1,0,94.0003,290.451)"
               style="font-variant:normal;font-weight:normal;font-size:14px;font-family:Menlo;-inkscape-font-specification:Menlo-Regular;writing-mode:lr-tb;fill:#969696;fill-opacity:1;fill-rule:nonzero;stroke:none"
               id="text614"><tspan
                 x="0 8.4280005 16.856001"
                 y="0"
                 id="tspan612">7ms</tspan></text></g><path
             d="M 500,895.656 H 458.332"
             style="fill:none;stroke:#969696;stroke-width:4.16667;stroke-linecap:butt;stroke-linejoin:miter;stroke-miterlimit:10;stroke-dasharray:none;stroke-opacity:1"
             id="path616" /><g
             id="g618"
             transform="scale(4.16667)"><text
               transform="matrix(0,-1,-1,0,94.0003,227.601)"
               style="font-variant:normal;font-weight:normal;font-size:14px;font-family:Menlo;-inkscape-font-specification:Menlo-Regular;writing-mode:lr-tb;fill:#969696;fill-opacity:1;fill-rule:nonzero;stroke:none"
               id="text622"><tspan
                 x="0 8.4280005 16.856001"
                 y="0"
                 id="tspan620">8ms</tspan></text></g><path
             d="M 500,633.781 H 458.332"
             style="fill:none;stroke:#969696;stroke-width:4.16667;stroke-linecap:butt;stroke-linejoin:miter;stroke-miterlimit:10;stroke-dasharray:none;stroke-opacity:1"
             id="path624" /><g
             id="g626"
             transform="scale(4.16667)"><text
               transform="matrix(0,-1,-1,0,94.0003,164.751)"
               style="font-variant:normal;font-weight:normal;font-size:14px;font-family:Menlo;-inkscape-font-specification:Menlo-Regular;writing-mode:lr-tb;fill:#969696;fill-opacity:1;fill-rule:nonzero;stroke:none"
               id="text630"><tspan
                 x="0 8.4280005 16.855413"
                 y="0"
                 id="tspan628">9ms</tspan></text></g><path
             d="M 500,371.906 H 458.332"
             style="fill:none;stroke:#969696;stroke-width:4.16667;stroke-linecap:butt;stroke-linejoin:miter;stroke-miterlimit:10;stroke-dasharray:none;stroke-opacity:1"
             id="path632" /><g
             id="g634"
             transform="scale(4.16667)"><text
               transform="matrix(0,-1,-1,0,94.0003,106.115)"
               style="font-variant:normal;font-weight:normal;font-size:14px;font-family:Menlo;-inkscape-font-specification:Menlo-Regular;writing-mode:lr-tb;fill:#969696;fill-opacity:1;fill-rule:nonzero;stroke:none"
               id="text640"><tspan
                 x="0 8.4274139 16.855413 25.283415"
                 y="0"
                 id="tspan636">10ms</tspan><tspan
                 x="-630.07001 -638.49908 -646.92719 -655.35626 -663.78534"
                 y="-20"
                 id="tspan638">V0.2-</tspan></text></g><path
             d="m 500,2990.65 v 41.67"
             style="fill:none;stroke:#969696;stroke-width:4.16667;stroke-linecap:butt;stroke-linejoin:miter;stroke-miterlimit:10;stroke-dasharray:none;stroke-opacity:1"
             id="path642" /><g
             id="g644"
             transform="scale(4.16667)"><text
               transform="matrix(0,-1,-1,0,200.25,736.185)"
               style="font-variant:normal;font-weight:normal;font-size:14px;font-family:Menlo;-inkscape-font-specification:Menlo-Regular;writing-mode:lr-tb;fill:#969696;fill-opacity:1;fill-rule:nonzero;stroke:none"
               id="text648"><tspan
                 x="0 -8.42906 -16.857189 -25.286249"
                 y="0"
                 id="tspan646">V2.0</tspan></text></g><path
             d="m 859.375,2990.65 v 41.67"
             style="fill:none;stroke:#969696;stroke-width:4.16667;stroke-linecap:butt;stroke-linejoin:miter;stroke-miterlimit:10;stroke-dasharray:none;stroke-opacity:1"
             id="path650" /><g
             id="g652"
             transform="scale(4.16667)"><text
               transform="matrix(0,-1,-1,0,286.5,736.185)"
               style="font-variant:normal;font-weight:normal;font-size:14px;font-family:Menlo;-inkscape-font-specification:Menlo-Regular;writing-mode:lr-tb;fill:#969696;fill-opacity:1;fill-rule:nonzero;stroke:none"
               id="text656"><tspan
                 x="0 -8.42906 -16.857189 -25.286249"
                 y="0"
                 id="tspan654">V4.2</tspan></text></g><path
             d="m 1218.75,2990.65 v 41.67"
             style="fill:none;stroke:#969696;stroke-width:4.16667;stroke-linecap:butt;stroke-linejoin:miter;stroke-miterlimit:10;stroke-dasharray:none;stroke-opacity:1"
             id="path658" /><path
             d="m 500,371.906 h 718.75 v 2618.75 H 500 Z"
             style="fill:none;stroke:#969696;stroke-width:4.16667;stroke-linecap:butt;stroke-linejoin:miter;stroke-miterlimit:10;stroke-dasharray:none;stroke-opacity:1"
             id="path660" /><g
             id="g662"
             transform="scale(4.16667)"><text
               transform="matrix(0,-1,-1,0,306.5,736.185)"
               style="font-variant:normal;font-weight:normal;font-size:14px;font-family:Menlo;-inkscape-font-specification:Menlo-Regular;writing-mode:lr-tb;fill:#afafaf;fill-opacity:1;fill-rule:nonzero;stroke:none"
               id="text666"><tspan
                 x="0 -8.42906 -16.857189 -25.286249"
                 y="0"
                 id="tspan664">V001</tspan></text></g><path
             d="m 1302.08,2990.65 v 41.67"
             style="fill:none;stroke:#afafaf;stroke-width:4.16667;stroke-linecap:butt;stroke-linejoin:miter;stroke-miterlimit:10;stroke-dasharray:none;stroke-opacity:1"
             id="path668" /><g
             id="g670"
             transform="scale(4.16667)"><text
               transform="matrix(0,-1,-1,0,341,736.185)"
               style="font-variant:normal;font-weight:normal;font-size:14px;font-family:Menlo;-inkscape-font-specification:Menlo-Regular;writing-mode:lr-tb;fill:#afafaf;fill-opacity:1;fill-rule:nonzero;stroke:none"
               id="text674"><tspan
                 x="0 -8.42906 -16.857189 -25.286249"
                 y="0"
                 id="tspan672">V041</tspan></text></g><path
             d="m 1445.83,2990.65 v 41.67"
             style="fill:none;stroke:#afafaf;stroke-width:4.16667;stroke-linecap:butt;stroke-linejoin:miter;stroke-miterlimit:10;stroke-dasharray:none;stroke-opacity:1"
             id="path676" /><g
             id="g678"
             transform="scale(4.16667)"><text
               transform="matrix(0,-1,-1,0,375.5,736.185)"
               style="font-variant:normal;font-weight:normal;font-size:14px;font-family:Menlo;-inkscape-font-specification:Menlo-Regular;writing-mode:lr-tb;fill:#afafaf;fill-opacity:1;fill-rule:nonzero;stroke:none"
               id="text682"><tspan
                 x="0 -8.42906 -16.857189 -25.286249"
                 y="0"
                 id="tspan680">V081</tspan></text></g><path
             d="m 1589.58,2990.65 v 41.67"
             style="fill:none;stroke:#afafaf;stroke-width:4.16667;stroke-linecap:butt;stroke-linejoin:miter;stroke-miterlimit:10;stroke-dasharray:none;stroke-opacity:1"
             id="path684" /><g
             id="g686"
             transform="scale(4.16667)"><text
               transform="matrix(0,-1,-1,0,410,736.185)"
               style="font-variant:normal;font-weight:normal;font-size:14px;font-family:Menlo;-inkscape-font-specification:Menlo-Regular;writing-mode:lr-tb;fill:#afafaf;fill-opacity:1;fill-rule:nonzero;stroke:none"
               id="text690"><tspan
                 x="0 -8.42906 -16.857189 -25.286249"
                 y="0"
                 id="tspan688">V022</tspan></text></g><path
             d="m 1733.33,2990.65 v 41.67"
             style="fill:none;stroke:#afafaf;stroke-width:4.16667;stroke-linecap:butt;stroke-linejoin:miter;stroke-miterlimit:10;stroke-dasharray:none;stroke-opacity:1"
             id="path692" /><g
             id="g694"
             transform="scale(4.16667)"><text
               transform="matrix(0,-1,-1,0,444.5,736.185)"
               style="font-variant:normal;font-weight:normal;font-size:14px;font-family:Menlo;-inkscape-font-specification:Menlo-Regular;writing-mode:lr-tb;fill:#afafaf;fill-opacity:1;fill-rule:nonzero;stroke:none"
               id="text698"><tspan
                 x="0 -8.42906 -16.857189 -25.286249"
                 y="0"
                 id="tspan696">V062</tspan></text></g><path
             d="m 1877.08,2990.65 v 41.67"
             style="fill:none;stroke:#afafaf;stroke-width:4.16667;stroke-linecap:butt;stroke-linejoin:miter;stroke-miterlimit:10;stroke-dasharray:none;stroke-opacity:1"
             id="path700" /><g
             id="g702"
             transform="scale(4.16667)"><text
               transform="matrix(0,-1,-1,0,479,736.185)"
               style="font-variant:normal;font-weight:normal;font-size:14px;font-family:Menlo;-inkscape-font-specification:Menlo-Regular;writing-mode:lr-tb;fill:#afafaf;fill-opacity:1;fill-rule:nonzero;stroke:none"
               id="text706"><tspan
                 x="0 -8.42906 -16.857189 -25.286249"
                 y="0"
                 id="tspan704">V003</tspan></text></g><path
             d="m 2020.83,2990.65 v 41.67"
             style="fill:none;stroke:#afafaf;stroke-width:4.16667;stroke-linecap:butt;stroke-linejoin:miter;stroke-miterlimit:10;stroke-dasharray:none;stroke-opacity:1"
             id="path708" /><path
             d="m 1302.08,371.906 h 718.75 v 2618.75 h -718.75 z"
             style="fill:none;stroke:#afafaf;stroke-width:4.16667;stroke-linecap:butt;stroke-linejoin:miter;stroke-miterlimit:10;stroke-dasharray:none;stroke-opacity:1"
             id="path710" /><g
             id="g712"
             transform="scale(4.16667)"><text
               transform="matrix(0,-1,-1,0,296,577.614)"
               style="font-variant:normal;font-weight:normal;font-size:14px;font-family:Menlo;-inkscape-font-specification:Menlo-Regular;writing-mode:lr-tb;fill:#0eff00;fill-opacity:1;fill-rule:nonzero;stroke:none"
               id="text716"><tspan
                 x="0 8.4280005 16.856001 25.283415"
                 y="0"
                 id="tspan714">V(g)</tspan></text></g></g></g><g
         id="g718"><g
           id="g720"
           clip-path="url(#clipPath724)"><path
             d="m 815.094,2990.65 v 0 l 23.129,-6.74 35.5,-10.48 34.914,-10.48 33.972,-10.47 32.61,-10.48 30.851,-10.47 28.71,-10.48 26.22,-10.47 23.4,-10.47 20.3,-10.48 16.93,-10.47 13.35,-10.48 9.61,-10.48 5.75,-10.47 1.8,-10.48 -2.17,-10.47 -6.13,-10.48 -10.01,-10.47 -13.78,-10.47 -17.4,-10.48 -20.78,-10.47 -23.95,-10.48 -26.81,-10.48 -29.36,-10.47 -31.555,-10.48 -33.363,-10.47 -34.762,-10.48 -35.742,-10.47 -36.277,-10.47 -36.371,-10.48 -36.008,-10.47 -35.199,-10.48 -33.95,-10.47 -32.269,-10.48 -30.188,-10.48 -27.73,-10.47 -24.949,-10.48 -22.106,-10.47 -18.621,-10.47 -14.094,-10.48 -9.757,-10.47 -6.004,-10.48 -1.969,-9.13 1.375,-9.57 5.258,-10.48 9.07,-10.47 12.617,-10.48 15.469,-10.47 18.398,-10.47 21.836,-10.48 24.86,-10.48 27.445,-10.47 29.774,-10.48 31.699,-10.47 33.273,-10.48 34.442,-10.47 35.203,-10.48 35.543,-10.47 35.461,-10.47 34.945,-10.48 34.008,-10.48 32.66,-10.47 30.918,-10.48 28.78,-10.47 26.31,-10.48 23.5,-10.47 20.4,-10.48 17.05,-10.47 13.47,-10.47 9.73,-10.48 5.88,-10.47 1.93,-10.48 -2.04,-10.48 -5.99,-10.47 -9.89,-10.48 -13.66,-10.47 -17.28,-10.48 -20.68,-10.47 -23.84,-10.47 -26.73,-10.48 -29.28,-10.47 -31.488,-10.48 -33.309,-10.48 -34.723,-10.47 -35.714,-10.48 -36.27,-10.47 -36.375,-10.48 -36.027,-10.47 -35.231,-10.47 -33.996,-10.48 -32.332,-10.47 -30.262,-10.48 -27.816,-10.48 -25.047,-10.47 -22.195,-10.48 -18.758,-10.47 -14.258,-10.48 -9.883,-10.47 -6.148,-10.47 -2.043,-8.95 1.309,-9.9 5.152,-10.48 8.996,-10.48 12.563,-10.47 15.414,-10.47 18.336,-10.48 21.773,-10.47 24.809,-10.48 27.402,-10.47 29.73,-10.48 31.668,-10.47 33.246,-10.48 34.422,-10.48 35.192,-10.47 35.543,-10.47 35.465,-10.48 34.957,-10.47 34.031,-10.48 32.691,-10.47 30.946,-10.48 28.83,-10.47 26.36,-10.48 23.55,-10.47 20.47,-10.48 17.11,-10.47 13.54,-10.48 9.8,-10.47 5.96,-10.48 2,-10.47 -1.96,-10.48 -5.93,-10.47 -9.8,-10.48 -13.6,-10.47 -17.21,-10.48 -20.62,-10.47 -23.79,-10.48 -26.67,-10.47 -29.24,-10.48 -31.449,-10.47 -33.277,-10.48 -34.699,-10.47 -35.704,-10.48 -36.261,-10.47 -36.375,-10.48 -36.039,-10.47 -35.25,-10.48 -34.024,-10.47 -32.367,-10.48 -30.305,-10.47 -27.867,-10.48 -25.098,-10.47 -22.25,-10.48 -18.835,-10.47 -14.348,-10.48 -9.957,-10.47 -6.207,-10.48 -2.113,-9.06 1.285,-9.96 5.136,-10.47 8.989,-10.48 12.554,-10.47 15.403,-10.48 18.328,-10.47 21.769,-10.47 24.797,-10.48 27.399,-10.48 29.722,-10.47 31.664,-10.48 33.243,-10.47 34.421,-10.48 35.192,-10.47 35.539,-10.48 35.465,-10.47 34.961,-10.47 34.035,-10.48 32.695,-10.47 30.958,-10.48 28.83,-10.48 26.36,-10.47 23.56,-10.48 20.48,-10.47 17.12,-10.48 13.55,-10.47 9.81,-10.47 5.97,-10.48 2.01,-10.48 -1.95,-10.47 -5.91,-10.48 -9.8,-10.47 -13.59,-10.48 -17.2,-10.469 -20.61,-10.476 -23.78,-10.477 -26.67,-10.472 -29.23,-10.477 -31.443,-10.473 -33.273,-10.476 -34.7,-10.477 -35.699,-10.472 -36.262,-10.477 -36.375,-10.473 -36.039,-10.476 -35.254,-10.477 -34.027,-10.472 -32.371,-10.477 -30.312,-10.473 -27.872,-10.476 -25.105,-10.477 -22.258,-10.472 -18.844,-10.477 -14.363,-10.473 -9.965,-10.476 -6.218,-10.473 -2.125,-9.086 1.285,-9.957 5.133,-10.476 8.988,-10.473 12.554,-10.477 15.399,-10.476 18.328,-10.473 21.77,-10.476 24.796,-10.473 27.395,-10.477 29.723,-10.476 31.664,-10.473 33.242,-10.476 34.418,-10.473 35.195,-10.477 35.539,-10.476 35.465,-10.473 34.961,-10.476 34.035,-10.473 32.695,-10.477 30.95,-10.476 28.84,-10.473 26.36,-10.476 23.57,-10.473 20.47,-10.477 17.13,-10.476 13.54,-10.473 9.82,-10.476 5.97,-10.473 2.01,-10.477 -1.95,-10.472 -5.91,-10.477 -9.8,-10.476 -13.58,-10.473 -17.2,-10.477 -20.61,-10.472 -23.78,-10.477 -26.12,-10.476 -3.8,-1.442"
             style="fill:none;stroke:#0eff00;stroke-width:4.16667;stroke-linecap:butt;stroke-linejoin:miter;stroke-miterlimit:1;stroke-dasharray:none;stroke-opacity:1"
             id="path726" /></g></g><g
         id="g728"><g
           id="g730"
           clip-path="url(#clipPath734)"><g
             id="g736"
             transform="scale(4.16667)"><text
               transform="matrix(0,-1,-1,0,296,263.614)"
               style="font-variant:normal;font-weight:normal;font-size:14px;font-family:Menlo;-inkscape-font-specification:Menlo-Regular;writing-mode:lr-tb;fill:#0000ff;fill-opacity:1;fill-rule:nonzero;stroke:none"
               id="text740"><tspan
                 x="0 8.4274139 16.855413 25.283415"
                 y="0"
                 id="tspan738">V(k)</tspan></text></g></g></g><g
         id="g742"><g
           id="g744"
           clip-path="url(#clipPath748)"><path
             d="m 1172.37,2990.65 v 0 -6.74 -10.48 l 0.01,-10.48 0.01,-10.47 0.02,-10.48 0.04,-10.47 0.03,-10.48 0.05,-10.47 0.05,-10.47 0.06,-10.48 0.06,-10.47 0.06,-10.48 0.07,-10.48 0.07,-10.47 0.07,-10.48 0.07,-10.47 0.07,-10.48 0.07,-10.47 0.07,-10.47 0.06,-10.48 0.05,-10.47 0.05,-10.48 0.05,-10.48 0.04,-10.47 0.02,-10.48 0.03,-10.47 0.01,-10.48 v -10.47 -10.47 l -0.01,-10.48 -0.02,-10.47 -0.02,-10.48 -0.03,-10.47 -0.04,-10.48 -0.05,-10.48 -0.04,-10.47 -0.05,-10.48 -0.05,-10.47 -0.06,-10.47 -0.05,-10.48 -0.06,-10.47 -0.05,-10.48 -0.05,-9.13 -0.05,-9.57 -0.05,-10.48 -0.06,-10.47 -0.05,-10.48 -0.06,-10.47 -0.05,-10.47 -0.05,-10.48 -0.06,-10.48 -0.04,-10.47 -0.04,-10.48 -0.04,-10.47 -0.02,-10.48 -0.03,-10.47 -0.01,-10.48 -0.01,-10.47 v -10.47 -10.48 l 0.02,-10.48 0.02,-10.47 0.03,-10.48 0.04,-10.47 0.05,-10.48 0.05,-10.47 0.05,-10.48 0.06,-10.47 0.07,-10.47 0.07,-10.48 0.07,-10.47 0.07,-10.48 0.07,-10.48 0.07,-10.47 0.07,-10.48 0.06,-10.47 0.07,-10.48 0.05,-10.47 0.05,-10.47 0.05,-10.48 0.03,-10.47 0.03,-10.48 0.03,-10.48 0.01,-10.47 v -10.48 -10.47 l -0.01,-10.48 -0.02,-10.47 -0.02,-10.47 -0.04,-10.48 -0.03,-10.47 -0.04,-10.48 -0.05,-10.48 -0.05,-10.47 -0.06,-10.48 -0.05,-10.47 -0.05,-10.48 -0.06,-10.47 -0.05,-10.47 -0.05,-8.95 -0.05,-9.9 -0.06,-10.48 -0.05,-10.48 -0.06,-10.47 -0.05,-10.47 -0.06,-10.48 -0.05,-10.47 -0.04,-10.48 -0.05,-10.47 -0.04,-10.48 -0.04,-10.47 -0.03,-10.48 -0.02,-10.48 -0.01,-10.47 -0.01,-10.47 -0.01,-10.48 0.01,-10.47 0.02,-10.48 0.02,-10.47 0.03,-10.48 0.04,-10.47 0.04,-10.48 0.05,-10.47 0.06,-10.48 0.06,-10.47 0.06,-10.48 0.07,-10.47 0.08,-10.48 0.07,-10.47 0.07,-10.48 0.07,-10.47 0.07,-10.48 0.06,-10.47 0.06,-10.48 0.06,-10.47 0.05,-10.48 0.04,-10.47 0.04,-10.48 0.03,-10.47 0.02,-10.48 0.02,-10.47 v -10.48 -10.47 l -0.01,-10.48 -0.02,-10.47 -0.03,-10.48 -0.03,-10.47 -0.03,-10.48 -0.04,-10.47 -0.05,-10.48 -0.05,-10.47 -0.05,-10.48 -0.06,-10.47 -0.05,-10.48 -0.06,-10.47 -0.05,-10.48 -0.05,-9.06 -0.05,-9.96 -0.06,-10.47 -0.05,-10.48 -0.06,-10.47 -0.05,-10.48 -0.06,-10.47 -0.05,-10.47 -0.04,-10.48 -0.05,-10.48 -0.04,-10.47 -0.04,-10.48 -0.03,-10.47 -0.02,-10.48 -0.02,-10.47 v -10.48 l -0.01,-10.47 0.01,-10.47 0.02,-10.48 0.02,-10.47 0.03,-10.48 0.04,-10.48 0.04,-10.47 0.05,-10.48 0.06,-10.47 0.06,-10.48 0.07,-10.47 0.06,-10.47 0.07,-10.48 0.07,-10.48 0.08,-10.47 0.07,-10.48 0.06,-10.47 0.07,-10.48 0.06,-10.469 0.06,-10.476 0.05,-10.477 0.04,-10.472 0.04,-10.477 0.03,-10.473 0.02,-10.476 0.01,-10.477 0.01,-10.472 v -10.477 l -0.01,-10.473 -0.02,-10.476 -0.02,-10.477 -0.04,-10.472 -0.03,-10.477 -0.05,-10.473 -0.04,-10.476 -0.05,-10.477 -0.06,-10.472 -0.05,-10.477 -0.05,-10.473 -0.06,-10.476 -0.05,-10.473 -0.05,-9.086 -0.06,-9.957 -0.05,-10.476 -0.05,-10.473 -0.06,-10.477 -0.05,-10.476 -0.05,-10.473 -0.06,-10.476 -0.05,-10.473 -0.04,-10.477 -0.04,-10.476 -0.04,-10.473 -0.03,-10.476 -0.02,-10.473 -0.02,-10.477 -0.01,-10.476 v -10.473 l 0.01,-10.476 0.01,-10.473 0.03,-10.477 0.03,-10.476 0.03,-10.473 0.05,-10.476 0.05,-10.473 0.06,-10.477 0.06,-10.476 0.06,-10.473 0.07,-10.476 0.07,-10.473 0.08,-10.477 0.07,-10.472 0.07,-10.477 0.06,-10.476 0.07,-10.473 0.06,-10.477 0.06,-10.472 0.05,-10.477 0.04,-10.476 0.01,-1.442"
             style="fill:none;stroke:#0000ff;stroke-width:4.16667;stroke-linecap:butt;stroke-linejoin:miter;stroke-miterlimit:1;stroke-dasharray:none;stroke-opacity:1"
             id="path750" /></g></g><g
         id="g752"><g
           id="g754"
           clip-path="url(#clipPath758)"><g
             id="g760"
             transform="scale(4.16667)"><text
               transform="matrix(0,-1,-1,0,489,420.614)"
               style="font-variant:normal;font-weight:normal;font-size:14px;font-family:Menlo;-inkscape-font-specification:Menlo-Regular;writing-mode:lr-tb;fill:#ff0000;fill-opacity:1;fill-rule:nonzero;stroke:none"
               id="text764"><tspan
                 x="0 8.4280005 16.855413 25.283415"
                 y="0"
                 id="tspan762">V(a)</tspan></text></g></g></g><g
         id="g766"><g
           id="g768"
           clip-path="url(#clipPath772)"><path
             d="m 1772.99,2990.65 v 0 l -27.66,-6.74 -43.43,-10.48 -43.91,-10.48 -43.85,-10.47 -43.05,-10.48 -41.52,-10.47 -39.27,-10.48 -36.36,-10.47 -32.82,-10.47 -28.71,-10.48 -24.11,-10.47 -19.11,-10.48 -13.81,-10.48 -8.25,-10.47 -2.53,-10.48 3.24,-10.47 8.96,-10.48 14.55,-10.47 19.89,-10.47 24.9,-10.48 29.51,-10.47 33.65,-10.48 37.22,-10.48 40.14,-10.47 42.38,-10.48 43.89,-10.47 44.66,-10.48 44.66,-10.47 43.89,-10.47 42.39,-10.48 40.2,-10.47 37.38,-10.48 33.98,-10.47 30.1,-10.48 25.85,-10.48 21.27,-10.47 16.45,-10.48 10.91,-10.47 4.99,-10.47 1.07,-10.48 v -10.47 -10.48 -9.13 -9.57 -10.48 -10.47 l -0.47,-10.48 -2.93,-10.47 -7.83,-10.47 -13.16,-10.48 -17.81,-10.48 -22.22,-10.47 -26.47,-10.48 -30.41,-10.47 -34.03,-10.48 -37.18,-10.47 -39.81,-10.48 -41.85,-10.47 -43.23,-10.47 -43.91,-10.48 -43.87,-10.48 -43.08,-10.47 -41.58,-10.48 -39.36,-10.47 -36.46,-10.48 -32.95,-10.47 -28.86,-10.48 -24.26,-10.47 -19.28,-10.47 -13.99,-10.48 -8.44,-10.47 -2.71,-10.48 3.05,-10.48 8.77,-10.47 14.37,-10.48 19.72,-10.47 24.74,-10.48 29.37,-10.47 33.52,-10.47 37.11,-10.48 40.05,-10.47 42.32,-10.48 43.86,-10.48 44.65,-10.47 44.66,-10.48 43.93,-10.47 42.46,-10.48 40.28,-10.47 37.48,-10.47 34.1,-10.48 30.24,-10.47 25.99,-10.48 21.43,-10.48 16.62,-10.47 11.1,-10.48 5.18,-10.47 1.15,-10.48 v -10.47 -10.47 -8.95 -9.9 -10.48 -10.48 l -0.44,-10.47 -2.86,-10.47 -7.73,-10.48 -13.08,-10.47 -17.72,-10.48 -22.14,-10.47 -26.39,-10.48 -30.35,-10.47 -33.96,-10.48 -37.13,-10.48 -39.77,-10.47 -41.82,-10.47 -43.2,-10.48 -43.91,-10.47 -43.87,-10.48 -43.11,-10.47 -41.61,-10.48 -39.41,-10.47 -36.53,-10.48 -33.02,-10.47 -28.93,-10.48 -24.35,-10.47 -19.38,-10.48 -14.09,-10.47 -8.55,-10.48 -2.82,-10.47 2.94,-10.48 8.67,-10.47 14.26,-10.48 19.62,-10.47 24.65,-10.48 29.29,-10.47 33.45,-10.48 37.04,-10.47 40.01,-10.48 42.28,-10.47 43.84,-10.48 44.64,-10.47 44.67,-10.48 43.95,-10.47 42.49,-10.48 40.34,-10.47 37.53,-10.48 34.17,-10.47 30.31,-10.48 26.08,-10.47 21.52,-10.48 16.71,-10.47 11.23,-10.48 5.29,-10.47 1.19,-10.48 v -10.47 -10.48 -9.06 -9.96 -10.47 -10.48 l -0.44,-10.47 -2.85,-10.48 -7.72,-10.47 -13.07,-10.47 -17.7,-10.48 -22.14,-10.48 -26.38,-10.47 -30.34,-10.48 -33.95,-10.47 -37.12,-10.48 -39.77,-10.47 -41.81,-10.48 -43.21,-10.47 -43.9,-10.47 -43.87,-10.48 -43.11,-10.47 -41.62,-10.48 -39.42,-10.48 -36.53,-10.47 -33.03,-10.48 -28.95,-10.47 -24.36,-10.48 -19.39,-10.47 -14.11,-10.47 -8.56,-10.48 -2.84,-10.48 2.93,-10.47 8.65,-10.48 14.25,-10.47 19.61,-10.48 24.64,-10.469 29.27,-10.476 33.44,-10.477 37.04,-10.472 40,-10.477 42.28,-10.473 43.83,-10.476 44.64,-10.477 44.67,-10.472 43.96,-10.477 42.49,-10.473 40.34,-10.476 37.55,-10.477 34.17,-10.472 30.33,-10.477 26.09,-10.473 21.53,-10.476 16.73,-10.477 11.24,-10.472 5.31,-10.477 1.2,-10.473 v -10.476 -10.473 -9.086 -9.957 -10.476 -10.473 l -0.44,-10.477 -2.85,-10.476 -7.73,-10.473 -13.06,-10.476 -17.71,-10.473 -22.13,-10.477 -26.38,-10.476 -30.34,-10.473 -33.95,-10.476 -37.12,-10.473 -39.77,-10.477 -41.8,-10.476 -43.21,-10.473 -43.9,-10.476 -43.88,-10.473 -43.11,-10.477 -41.62,-10.476 -39.42,-10.473 -36.53,-10.476 -33.04,-10.473 -28.94,-10.477 -24.37,-10.476 -19.39,-10.473 -14.11,-10.476 -8.56,-10.473 -2.84,-10.477 2.92,-10.472 8.65,-10.477 14.25,-10.476 19.61,-10.473 24.63,-10.477 29.27,-10.472 33.44,-10.477 36.41,-10.476 5.26,-1.442"
             style="fill:none;stroke:#ff0000;stroke-width:4.16667;stroke-linecap:butt;stroke-linejoin:miter;stroke-miterlimit:1;stroke-dasharray:none;stroke-opacity:1"
             id="path774" /></g></g></g></g></svg>
