<?xml version="1.0" encoding="UTF-8" standalone="no"?>
<svg
   xmlns:dc="http://purl.org/dc/elements/1.1/"
   xmlns:cc="http://creativecommons.org/ns#"
   xmlns:rdf="http://www.w3.org/1999/02/22-rdf-syntax-ns#"
   xmlns:svg="http://www.w3.org/2000/svg"
   xmlns="http://www.w3.org/2000/svg"
   version="1.1"
   id="svg174"
   xml:space="preserve"
   width="656.32422"
   height="231.03732"
   viewBox="0 0 590.69179 207.93359"><metadata
     id="metadata180"><rdf:RDF><cc:Work
         rdf:about=""><dc:format>image/svg+xml</dc:format><dc:type
           rdf:resource="http://purl.org/dc/dcmitype/StillImage" /><dc:title></dc:title></cc:Work></rdf:RDF></metadata><defs
     id="defs178"><clipPath
       clipPathUnits="userSpaceOnUse"
       id="clipPath192"><path
         d="M 300,375 H 2179.17 V 3133.33 H 300 Z"
         id="path190" /></clipPath></defs><g
     id="g182"
     transform="matrix(1.3333333,0,0,-1.3333333,-103.7919,667.0932)"><g
       id="g184"
       transform="scale(0.24)"><g
         id="g186"><g
           id="g188"
           clip-path="url(#clipPath192)"><path
             d="m 570.215,1641.86 h 12.953"
             style="fill:none;stroke:#ffffff;stroke-width:4.16667;stroke-linecap:butt;stroke-linejoin:miter;stroke-miterlimit:10;stroke-dasharray:none;stroke-opacity:1"
             id="path194" /><path
             d="m 570.215,1564.13 h 12.953"
             style="fill:none;stroke:#ffffff;stroke-width:4.16667;stroke-linecap:butt;stroke-linejoin:miter;stroke-miterlimit:10;stroke-dasharray:none;stroke-opacity:1"
             id="path196" /><path
             d="m 576.691,1648.34 v -12.96"
             style="fill:none;stroke:#ffffff;stroke-width:4.16667;stroke-linecap:butt;stroke-linejoin:miter;stroke-miterlimit:10;stroke-dasharray:none;stroke-opacity:1"
             id="path198" /><path
             d="m 576.691,1538.22 v 12.95"
             style="fill:none;stroke:#ffffff;stroke-width:4.16667;stroke-linecap:butt;stroke-linejoin:miter;stroke-miterlimit:10;stroke-dasharray:none;stroke-opacity:1"
             id="path200" /><path
             d="m 576.691,1667.77 v -12.96"
             style="fill:none;stroke:#ffffff;stroke-width:4.16667;stroke-linecap:butt;stroke-linejoin:miter;stroke-miterlimit:10;stroke-dasharray:none;stroke-opacity:1"
             id="path202" /><path
             d="m 613.336,1639.64 c 20.234,-20.24 20.234,-53.05 0,-73.29 -20.238,-20.24 -53.051,-20.24 -73.285,0 -20.238,20.24 -20.238,53.05 0,73.29 20.234,20.23 53.047,20.23 73.285,0"
             style="fill:none;stroke:#ffffff;stroke-width:4.16667;stroke-linecap:butt;stroke-linejoin:miter;stroke-miterlimit:10;stroke-dasharray:none;stroke-opacity:1"
             id="path204" /><path
             d="m 615.559,1602.99 -0.094,-1.9 -0.281,-1.89 -0.465,-1.85 -0.641,-1.79 -0.816,-1.73 -0.981,-1.63 -1.136,-1.54 -1.282,-1.41 -1.41,-1.28 -1.531,-1.13 -1.637,-0.98 -1.722,-0.82 -1.797,-0.64 -1.852,-0.47 -1.887,-0.28 -1.902,-0.09 -1.906,0.09 -1.887,0.28 -1.848,0.47 -1.796,0.64 -1.723,0.82 -1.637,0.98 -1.531,1.13 -1.414,1.28 -1.281,1.41 -1.133,1.54 -0.981,1.63 -0.816,1.73 -0.645,1.79 -0.461,1.85 -0.281,1.89 -0.094,1.9"
             style="fill:none;stroke:#ffffff;stroke-width:4.16667;stroke-linecap:butt;stroke-linejoin:miter;stroke-miterlimit:10;stroke-dasharray:none;stroke-opacity:1"
             id="path206" /><path
             d="m 537.828,1602.99 0.094,1.91 0.277,1.89 0.465,1.84 0.645,1.8 0.812,1.72 0.981,1.64 1.136,1.53 1.282,1.41 1.414,1.29 1.531,1.13 1.633,0.98 1.726,0.82 1.793,0.64 1.852,0.46 1.886,0.28 1.907,0.1 1.902,-0.1 1.887,-0.28 1.851,-0.46 1.793,-0.64 1.727,-0.82 1.633,-0.98 1.531,-1.13 1.414,-1.29 1.281,-1.41 1.137,-1.53 0.98,-1.64 0.817,-1.72 0.64,-1.8 0.465,-1.84 0.278,-1.89 0.093,-1.91"
             style="fill:none;stroke:#ffffff;stroke-width:4.16667;stroke-linecap:butt;stroke-linejoin:miter;stroke-miterlimit:10;stroke-dasharray:none;stroke-opacity:1"
             id="path208" /><g
             id="g210"
             transform="scale(4.16667)"><text
               transform="matrix(1,0,0,-1,77.3888,363.841)"
               style="font-variant:normal;font-weight:normal;font-size:8.55022px;font-family:Geneva;-inkscape-font-specification:Geneva;writing-mode:lr-tb;fill:#999999;fill-opacity:1;fill-rule:nonzero;stroke:none"
               id="text216"><tspan
                 x="0 5.1814332 7.2523003 13.310126 18.232496 22.052731 27.751457 30.602951 36.30167 39.153172 44.851891 50.550625 56.249344"
                 y="0"
                 id="tspan212">SINE(0 2 440)</tspan><tspan
                 x="70.345299 76.562172"
                 y="-33.422798"
                 id="tspan214">V1</tspan></text></g><path
             d="m 1405.8,2017.55 v 12.95"
             style="fill:none;stroke:#ffffff;stroke-width:4.16667;stroke-linecap:butt;stroke-linejoin:miter;stroke-miterlimit:10;stroke-dasharray:none;stroke-opacity:1"
             id="path218" /><path
             d="m 1433.33,2007.83 -27.53,9.72"
             style="fill:none;stroke:#ffffff;stroke-width:4.16667;stroke-linecap:butt;stroke-linejoin:miter;stroke-miterlimit:10;stroke-dasharray:none;stroke-opacity:1"
             id="path220" /><path
             d="m 1378.27,1991.64 55.06,16.19"
             style="fill:none;stroke:#ffffff;stroke-width:4.16667;stroke-linecap:butt;stroke-linejoin:miter;stroke-miterlimit:10;stroke-dasharray:none;stroke-opacity:1"
             id="path222" /><path
             d="m 1433.33,1970.59 -55.06,21.05"
             style="fill:none;stroke:#ffffff;stroke-width:4.16667;stroke-linecap:butt;stroke-linejoin:miter;stroke-miterlimit:10;stroke-dasharray:none;stroke-opacity:1"
             id="path224" /><path
             d="m 1379.89,1952.77 53.44,17.82"
             style="fill:none;stroke:#ffffff;stroke-width:4.16667;stroke-linecap:butt;stroke-linejoin:miter;stroke-miterlimit:10;stroke-dasharray:none;stroke-opacity:1"
             id="path226" /><path
             d="m 1405.8,1926.86 v 12.96"
             style="fill:none;stroke:#ffffff;stroke-width:4.16667;stroke-linecap:butt;stroke-linejoin:miter;stroke-miterlimit:10;stroke-dasharray:none;stroke-opacity:1"
             id="path228" /><path
             d="m 1405.8,1939.82 -25.91,12.95"
             style="fill:none;stroke:#ffffff;stroke-width:4.16667;stroke-linecap:butt;stroke-linejoin:miter;stroke-miterlimit:10;stroke-dasharray:none;stroke-opacity:1"
             id="path230" /><g
             id="g232"
             transform="scale(4.16667)"><text
               transform="matrix(1,0,0,-1,319.709,468.775)"
               style="font-variant:normal;font-weight:normal;font-size:8.55022px;font-family:Geneva;-inkscape-font-specification:Geneva;writing-mode:lr-tb;fill:#999999;fill-opacity:1;fill-rule:nonzero;stroke:none"
               id="text238"><tspan
                 x="0 5.1814332"
                 y="0"
                 id="tspan234">Ra</tspan><tspan
                 x="-11.7862 -6.0874805 -0.3887319 5.3099875"
                 y="-7.77281"
                 id="tspan236">100k</tspan></text></g><path
             d="m 874.652,1998.12 h 25.911"
             style="fill:none;stroke:#ffffff;stroke-width:4.16667;stroke-linecap:butt;stroke-linejoin:miter;stroke-miterlimit:10;stroke-dasharray:none;stroke-opacity:1"
             id="path240" /><path
             d="m 874.652,1933.34 h 25.911"
             style="fill:none;stroke:#ffffff;stroke-width:4.16667;stroke-linecap:butt;stroke-linejoin:miter;stroke-miterlimit:10;stroke-dasharray:none;stroke-opacity:1"
             id="path242" /><path
             d="m 887.609,2011.07 v -25.91"
             style="fill:none;stroke:#ffffff;stroke-width:4.16667;stroke-linecap:butt;stroke-linejoin:miter;stroke-miterlimit:10;stroke-dasharray:none;stroke-opacity:1"
             id="path244" /><path
             d="m 887.609,1900.96 v 12.95"
             style="fill:none;stroke:#ffffff;stroke-width:4.16667;stroke-linecap:butt;stroke-linejoin:miter;stroke-miterlimit:10;stroke-dasharray:none;stroke-opacity:1"
             id="path246" /><path
             d="m 887.609,2030.5 v -12.95"
             style="fill:none;stroke:#ffffff;stroke-width:4.16667;stroke-linecap:butt;stroke-linejoin:miter;stroke-miterlimit:10;stroke-dasharray:none;stroke-opacity:1"
             id="path248" /><path
             d="m 924.25,2002.37 c 20.238,-20.24 20.238,-53.05 0,-73.28 -20.234,-20.24 -53.047,-20.24 -73.281,0 -20.239,20.23 -20.239,53.04 0,73.28 20.234,20.24 53.047,20.24 73.281,0"
             style="fill:none;stroke:#ffffff;stroke-width:4.16667;stroke-linecap:butt;stroke-linejoin:miter;stroke-miterlimit:10;stroke-dasharray:none;stroke-opacity:1"
             id="path250" /><g
             id="g252"
             transform="scale(4.16667)"><text
               transform="matrix(1,0,0,-1,222.353,484.321)"
               style="font-variant:normal;font-weight:normal;font-size:8.55022px;font-family:Geneva;-inkscape-font-specification:Geneva;writing-mode:lr-tb;fill:#999999;fill-opacity:1;fill-rule:nonzero;stroke:none"
               id="text258"><tspan
                 x="0 6.2168741"
                 y="0"
                 id="tspan254">V2</tspan><tspan
                 x="0 5.6987338 11.397453"
                 y="31.0912"
                 id="tspan256">300</tspan></text></g><path
             d="m 1353.98,1628.9 v 12.96"
             style="fill:none;stroke:#ffffff;stroke-width:4.16667;stroke-linecap:butt;stroke-linejoin:miter;stroke-miterlimit:10;stroke-dasharray:none;stroke-opacity:1"
             id="path260" /><path
             d="m 1381.52,1619.19 -27.54,9.71"
             style="fill:none;stroke:#ffffff;stroke-width:4.16667;stroke-linecap:butt;stroke-linejoin:miter;stroke-miterlimit:10;stroke-dasharray:none;stroke-opacity:1"
             id="path262" /><path
             d="m 1326.46,1602.99 55.06,16.2"
             style="fill:none;stroke:#ffffff;stroke-width:4.16667;stroke-linecap:butt;stroke-linejoin:miter;stroke-miterlimit:10;stroke-dasharray:none;stroke-opacity:1"
             id="path264" /><path
             d="m 1381.52,1581.94 -55.06,21.05"
             style="fill:none;stroke:#ffffff;stroke-width:4.16667;stroke-linecap:butt;stroke-linejoin:miter;stroke-miterlimit:10;stroke-dasharray:none;stroke-opacity:1"
             id="path266" /><path
             d="m 1328.07,1564.13 53.45,17.81"
             style="fill:none;stroke:#ffffff;stroke-width:4.16667;stroke-linecap:butt;stroke-linejoin:miter;stroke-miterlimit:10;stroke-dasharray:none;stroke-opacity:1"
             id="path268" /><path
             d="m 1353.98,1538.22 v 12.95"
             style="fill:none;stroke:#ffffff;stroke-width:4.16667;stroke-linecap:butt;stroke-linejoin:miter;stroke-miterlimit:10;stroke-dasharray:none;stroke-opacity:1"
             id="path270" /><path
             d="m 1353.98,1551.17 -25.91,12.96"
             style="fill:none;stroke:#ffffff;stroke-width:4.16667;stroke-linecap:butt;stroke-linejoin:miter;stroke-miterlimit:10;stroke-dasharray:none;stroke-opacity:1"
             id="path272" /><g
             id="g274"
             transform="scale(4.16667)"><text
               transform="matrix(1,0,0,-1,307.402,375.5)"
               style="font-variant:normal;font-weight:normal;font-size:8.55022px;font-family:Geneva;-inkscape-font-specification:Geneva;writing-mode:lr-tb;fill:#999999;fill-opacity:1;fill-rule:nonzero;stroke:none"
               id="text280"><tspan
                 x="0 5.1814332"
                 y="0"
                 id="tspan276">Rk</tspan><tspan
                 x="-13.0134 -7.3146806 -1.6159319 4.0827875"
                 y="-7.77281"
                 id="tspan278">2524</tspan></text></g><path
             d="m 1509.44,1583.56 v -45.34"
             style="fill:none;stroke:#ffffff;stroke-width:4.16667;stroke-linecap:butt;stroke-linejoin:miter;stroke-miterlimit:10;stroke-dasharray:none;stroke-opacity:1"
             id="path282" /><path
             d="m 1509.44,1641.86 v -45.34"
             style="fill:none;stroke:#ffffff;stroke-width:4.16667;stroke-linecap:butt;stroke-linejoin:miter;stroke-miterlimit:10;stroke-dasharray:none;stroke-opacity:1"
             id="path284" /><path
             d="m 1496.49,1622.43 v -12.96"
             style="fill:none;stroke:#ffffff;stroke-width:4.16667;stroke-linecap:butt;stroke-linejoin:miter;stroke-miterlimit:10;stroke-dasharray:none;stroke-opacity:1"
             id="path286" /><path
             d="m 1490.01,1615.95 h 12.95"
             style="fill:none;stroke:#ffffff;stroke-width:4.16667;stroke-linecap:butt;stroke-linejoin:miter;stroke-miterlimit:10;stroke-dasharray:none;stroke-opacity:1"
             id="path288" /><path
             d="m 1483.54,1596.52 h 51.81"
             style="fill:none;stroke:#ffffff;stroke-width:4.16667;stroke-linecap:butt;stroke-linejoin:miter;stroke-miterlimit:10;stroke-dasharray:none;stroke-opacity:1"
             id="path290" /><path
             d="m 1483.73,1576.73 1.48,0.81 1.5,0.76 1.52,0.72 1.54,0.66 1.57,0.62 1.58,0.56 1.6,0.51 1.62,0.45 1.63,0.41 1.65,0.35 1.65,0.3 1.67,0.25 1.67,0.19 1.67,0.13 1.68,0.09 1.68,0.02 1.69,-0.02 1.67,-0.09 1.68,-0.13 1.67,-0.19 1.66,-0.25 1.66,-0.3 1.64,-0.35 1.63,-0.41 1.62,-0.45 1.6,-0.51 1.59,-0.56 1.56,-0.62 1.55,-0.66 1.52,-0.72 1.5,-0.76 1.47,-0.81"
             style="fill:none;stroke:#ffffff;stroke-width:4.16667;stroke-linecap:butt;stroke-linejoin:miter;stroke-miterlimit:10;stroke-dasharray:none;stroke-opacity:1"
             id="path292" /><g
             id="g294"
             transform="scale(4.16667)"><text
               transform="matrix(1,0,0,-1,365.376,387.937)"
               style="font-variant:normal;font-weight:normal;font-size:8.55022px;font-family:Geneva;-inkscape-font-specification:Geneva;writing-mode:lr-tb;fill:#999999;fill-opacity:1;fill-rule:nonzero;stroke:none"
               id="text300"><tspan
                 x="0 5.5695915"
                 y="0"
                 id="tspan296">Ck</tspan><tspan
                 x="0 5.6987195 11.397468 17.091997"
                 y="19.0434"
                 id="tspan298">100µ</tspan></text></g><path
             d="M 978.293,1771.41 H 965.34"
             style="fill:none;stroke:#ffffff;stroke-width:4.16667;stroke-linecap:butt;stroke-linejoin:miter;stroke-miterlimit:10;stroke-dasharray:none;stroke-opacity:1"
             id="path302" /><path
             d="m 988.008,1798.93 -9.715,-27.52"
             style="fill:none;stroke:#ffffff;stroke-width:4.16667;stroke-linecap:butt;stroke-linejoin:miter;stroke-miterlimit:10;stroke-dasharray:none;stroke-opacity:1"
             id="path304" /><path
             d="m 1004.2,1743.88 -16.192,55.05"
             style="fill:none;stroke:#ffffff;stroke-width:4.16667;stroke-linecap:butt;stroke-linejoin:miter;stroke-miterlimit:10;stroke-dasharray:none;stroke-opacity:1"
             id="path306" /><path
             d="m 1025.25,1798.93 -21.05,-55.05"
             style="fill:none;stroke:#ffffff;stroke-width:4.16667;stroke-linecap:butt;stroke-linejoin:miter;stroke-miterlimit:10;stroke-dasharray:none;stroke-opacity:1"
             id="path308" /><path
             d="m 1043.07,1745.5 -17.82,53.43"
             style="fill:none;stroke:#ffffff;stroke-width:4.16667;stroke-linecap:butt;stroke-linejoin:miter;stroke-miterlimit:10;stroke-dasharray:none;stroke-opacity:1"
             id="path310" /><path
             d="m 1068.98,1771.41 h -12.96"
             style="fill:none;stroke:#ffffff;stroke-width:4.16667;stroke-linecap:butt;stroke-linejoin:miter;stroke-miterlimit:10;stroke-dasharray:none;stroke-opacity:1"
             id="path312" /><path
             d="m 1056.02,1771.41 -12.95,-25.91"
             style="fill:none;stroke:#ffffff;stroke-width:4.16667;stroke-linecap:butt;stroke-linejoin:miter;stroke-miterlimit:10;stroke-dasharray:none;stroke-opacity:1"
             id="path314" /><g
             id="g316"
             transform="scale(4.16667)"><text
               transform="matrix(0,1,1,0,251.502,413.01)"
               style="font-variant:normal;font-weight:normal;font-size:8.55022px;font-family:Geneva;-inkscape-font-specification:Geneva;writing-mode:lr-tb;fill:#999999;fill-opacity:1;fill-rule:nonzero;stroke:none"
               id="text322"><tspan
                 x="0 -5.2167459 -10.396213"
                 y="0"
                 id="tspan318">sgR</tspan><tspan
                 x="-0.246562 -5.9454546 -11.640244 -17.335032"
                 y="-7.77281"
                 id="tspan320">k001</tspan></text></g><path
             d="m 835.789,1654.81 v 12.96"
             style="fill:none;stroke:#ffffff;stroke-width:4.16667;stroke-linecap:butt;stroke-linejoin:miter;stroke-miterlimit:10;stroke-dasharray:none;stroke-opacity:1"
             id="path324" /><path
             d="m 863.32,1645.1 -27.531,9.71"
             style="fill:none;stroke:#ffffff;stroke-width:4.16667;stroke-linecap:butt;stroke-linejoin:miter;stroke-miterlimit:10;stroke-dasharray:none;stroke-opacity:1"
             id="path326" /><path
             d="m 808.262,1628.9 55.058,16.2"
             style="fill:none;stroke:#ffffff;stroke-width:4.16667;stroke-linecap:butt;stroke-linejoin:miter;stroke-miterlimit:10;stroke-dasharray:none;stroke-opacity:1"
             id="path328" /><path
             d="m 863.32,1607.85 -55.058,21.05"
             style="fill:none;stroke:#ffffff;stroke-width:4.16667;stroke-linecap:butt;stroke-linejoin:miter;stroke-miterlimit:10;stroke-dasharray:none;stroke-opacity:1"
             id="path330" /><path
             d="m 809.879,1590.04 53.441,17.81"
             style="fill:none;stroke:#ffffff;stroke-width:4.16667;stroke-linecap:butt;stroke-linejoin:miter;stroke-miterlimit:10;stroke-dasharray:none;stroke-opacity:1"
             id="path332" /><path
             d="m 835.789,1564.13 v 12.95"
             style="fill:none;stroke:#ffffff;stroke-width:4.16667;stroke-linecap:butt;stroke-linejoin:miter;stroke-miterlimit:10;stroke-dasharray:none;stroke-opacity:1"
             id="path334" /><path
             d="m 835.789,1577.08 -25.91,12.96"
             style="fill:none;stroke:#ffffff;stroke-width:4.16667;stroke-linecap:butt;stroke-linejoin:miter;stroke-miterlimit:10;stroke-dasharray:none;stroke-opacity:1"
             id="path336" /><g
             id="g338"
             transform="scale(4.16667)"><text
               transform="matrix(1,0,0,-1,180.412,381.718)"
               style="font-variant:normal;font-weight:normal;font-size:8.55022px;font-family:Geneva;-inkscape-font-specification:Geneva;writing-mode:lr-tb;fill:#999999;fill-opacity:1;fill-rule:nonzero;stroke:none"
               id="text344"><tspan
                 x="0 5.1814332 10.396218"
                 y="0"
                 id="tspan340">Rgl</tspan><tspan
                 x="-10.17 -4.4712658 2.27057 7.1912193"
                 y="-7.77281"
                 id="tspan342">1Meg</tspan></text></g><path
             d="m 1328.07,1771.41 h 32.39"
             style="fill:none;stroke:#ffffff;stroke-width:4.16667;stroke-linecap:butt;stroke-linejoin:miter;stroke-miterlimit:10;stroke-dasharray:none;stroke-opacity:1"
             id="path346" /><path
             d="m 1373.42,1771.41 h 12.95"
             style="fill:none;stroke:#ffffff;stroke-width:4.16667;stroke-linecap:butt;stroke-linejoin:miter;stroke-miterlimit:10;stroke-dasharray:none;stroke-opacity:1"
             id="path348" /><path
             d="m 1399.33,1771.41 h 12.95"
             style="fill:none;stroke:#ffffff;stroke-width:4.16667;stroke-linecap:butt;stroke-linejoin:miter;stroke-miterlimit:10;stroke-dasharray:none;stroke-opacity:1"
             id="path350" /><path
             d="m 1425.24,1771.41 h 12.95"
             style="fill:none;stroke:#ffffff;stroke-width:4.16667;stroke-linecap:butt;stroke-linejoin:miter;stroke-miterlimit:10;stroke-dasharray:none;stroke-opacity:1"
             id="path352" /><path
             d="m 1451.14,1771.41 h 12.96"
             style="fill:none;stroke:#ffffff;stroke-width:4.16667;stroke-linecap:butt;stroke-linejoin:miter;stroke-miterlimit:10;stroke-dasharray:none;stroke-opacity:1"
             id="path354" /><path
             d="m 1405.8,1849.14 v -51.82"
             style="fill:none;stroke:#ffffff;stroke-width:4.16667;stroke-linecap:butt;stroke-linejoin:miter;stroke-miterlimit:10;stroke-dasharray:none;stroke-opacity:1"
             id="path356" /><path
             d="m 1373.42,1797.32 h 64.77"
             style="fill:none;stroke:#ffffff;stroke-width:4.16667;stroke-linecap:butt;stroke-linejoin:miter;stroke-miterlimit:10;stroke-dasharray:none;stroke-opacity:1"
             id="path358" /><path
             d="m 1373.42,1790.84 h 64.77"
             style="fill:none;stroke:#ffffff;stroke-width:4.16667;stroke-linecap:butt;stroke-linejoin:miter;stroke-miterlimit:10;stroke-dasharray:none;stroke-opacity:1"
             id="path360" /><path
             d="m 1373.42,1797.32 v -6.48"
             style="fill:none;stroke:#ffffff;stroke-width:4.16667;stroke-linecap:butt;stroke-linejoin:miter;stroke-miterlimit:10;stroke-dasharray:none;stroke-opacity:1"
             id="path362" /><path
             d="m 1438.19,1797.32 v -6.48"
             style="fill:none;stroke:#ffffff;stroke-width:4.16667;stroke-linecap:butt;stroke-linejoin:miter;stroke-miterlimit:10;stroke-dasharray:none;stroke-opacity:1"
             id="path364" /><path
             d="m 1366.94,1751.97 h 77.73"
             style="fill:none;stroke:#ffffff;stroke-width:4.16667;stroke-linecap:butt;stroke-linejoin:miter;stroke-miterlimit:10;stroke-dasharray:none;stroke-opacity:1"
             id="path366" /><path
             d="m 1353.98,1693.68 v 45.34"
             style="fill:none;stroke:#ffffff;stroke-width:4.16667;stroke-linecap:butt;stroke-linejoin:miter;stroke-miterlimit:10;stroke-dasharray:none;stroke-opacity:1"
             id="path368" /><path
             d="m 1366.94,1751.97 -12.96,-12.95"
             style="fill:none;stroke:#ffffff;stroke-width:4.16667;stroke-linecap:butt;stroke-linejoin:miter;stroke-miterlimit:10;stroke-dasharray:none;stroke-opacity:1"
             id="path370" /><path
             d="m 1444.67,1751.97 12.96,-12.95"
             style="fill:none;stroke:#ffffff;stroke-width:4.16667;stroke-linecap:butt;stroke-linejoin:miter;stroke-miterlimit:10;stroke-dasharray:none;stroke-opacity:1"
             id="path372" /><path
             d="m 1360.46,1745.5 h 90.68"
             style="fill:none;stroke:#ffffff;stroke-width:4.16667;stroke-linecap:butt;stroke-linejoin:miter;stroke-miterlimit:10;stroke-dasharray:none;stroke-opacity:1"
             id="path374" /><path
             d="m 1460.77,1826.37 c 30.35,-30.35 30.35,-79.57 0,-109.92 -30.36,-30.36 -79.57,-30.36 -109.93,0 -30.36,30.35 -30.36,79.57 0,109.92 30.36,30.35 79.57,30.35 109.93,0"
             style="fill:none;stroke:#ffffff;stroke-width:4.16667;stroke-linecap:butt;stroke-linejoin:miter;stroke-miterlimit:10;stroke-dasharray:none;stroke-opacity:1"
             id="path376" /><g
             id="g378"
             transform="scale(4.16667)"><text
               transform="matrix(1,0,0,-1,360.712,415.919)"
               style="font-variant:normal;font-weight:normal;font-size:8.55022px;font-family:Geneva;-inkscape-font-specification:Geneva;writing-mode:lr-tb;fill:#999999;fill-opacity:1;fill-rule:nonzero;stroke:none"
               id="text384"><tspan
                 x="0 5.6987195 11.397468 17.614328 22.829113 28.527832 34.74469 37.984375 45.628273"
                 y="0"
                 id="tspan380">12AX7A-mz</tspan><tspan
                 x="-20.2097 -14.510981"
                 y="-31.092199"
                 id="tspan382">U1</tspan></text></g><path
             d="m 554.02,1460.49 h 45.343 l -22.672,-22.67 z"
             style="fill:none;stroke:#ffffff;stroke-width:4.16667;stroke-linecap:butt;stroke-linejoin:miter;stroke-miterlimit:10;stroke-dasharray:none;stroke-opacity:1"
             id="path386" /><path
             d="m 864.938,1849.14 h 45.343 l -22.672,-22.68 z"
             style="fill:none;stroke:#ffffff;stroke-width:4.16667;stroke-linecap:butt;stroke-linejoin:miter;stroke-miterlimit:10;stroke-dasharray:none;stroke-opacity:1"
             id="path388" /><path
             d="m 1331.31,1460.49 h 45.35 l -22.68,-22.67 z"
             style="fill:none;stroke:#ffffff;stroke-width:4.16667;stroke-linecap:butt;stroke-linejoin:miter;stroke-miterlimit:10;stroke-dasharray:none;stroke-opacity:1"
             id="path390" /><path
             d="m 1613.08,1692.77 h 31.05 l 17.82,-25 -17.82,-25 h -31.05 z"
             style="fill:none;stroke:#ffffff;stroke-width:4.16667;stroke-linecap:butt;stroke-linejoin:miter;stroke-miterlimit:10;stroke-dasharray:none;stroke-opacity:1"
             id="path392" /><g
             id="g394"
             transform="scale(4.16667)"><text
               transform="matrix(1,0,0,-1,388.306,397.264)"
               style="font-variant:normal;font-weight:normal;font-size:8.55022px;font-family:Geneva;-inkscape-font-specification:Geneva;writing-mode:lr-tb;fill:#999999;fill-opacity:1;fill-rule:nonzero;stroke:none"
               id="text398"><tspan
                 x="0"
                 y="0"
                 id="tspan396">k</tspan></text></g><path
             d="m 1198.53,1848.23 h 33.6 l 17.82,-25 -17.82,-25 h -33.6 z"
             style="fill:none;stroke:#ffffff;stroke-width:4.16667;stroke-linecap:butt;stroke-linejoin:miter;stroke-miterlimit:10;stroke-dasharray:none;stroke-opacity:1"
             id="path400" /><g
             id="g402"
             transform="scale(4.16667)"><text
               transform="matrix(1,0,0,-1,288.812,434.574)"
               style="font-variant:normal;font-weight:normal;font-size:8.55022px;font-family:Geneva;-inkscape-font-specification:Geneva;writing-mode:lr-tb;fill:#999999;fill-opacity:1;fill-rule:nonzero;stroke:none"
               id="text406"><tspan
                 x="0"
                 y="0"
                 id="tspan404">g</tspan></text></g><path
             d="m 1535.35,1951.86 h 31.6 l 17.81,-25 -17.81,-25 h -31.6 z"
             style="fill:none;stroke:#ffffff;stroke-width:4.16667;stroke-linecap:butt;stroke-linejoin:miter;stroke-miterlimit:10;stroke-dasharray:none;stroke-opacity:1"
             id="path408" /><g
             id="g410"
             transform="scale(4.16667)"><text
               transform="matrix(1,0,0,-1,369.651,459.447)"
               style="font-variant:normal;font-weight:normal;font-size:8.55022px;font-family:Geneva;-inkscape-font-specification:Geneva;writing-mode:lr-tb;fill:#999999;fill-opacity:1;fill-rule:nonzero;stroke:none"
               id="text414"><tspan
                 x="0"
                 y="0"
                 id="tspan412">a</tspan></text></g><path
             d="m 813.117,1460.49 h 45.344 l -22.672,-22.67 z"
             style="fill:none;stroke:#ffffff;stroke-width:4.16667;stroke-linecap:butt;stroke-linejoin:miter;stroke-miterlimit:10;stroke-dasharray:none;stroke-opacity:1"
             id="path416" /><g
             id="g418"
             transform="scale(4.16667)"><text
               transform="matrix(1,0,0,-1,399.577,493.648)"
               style="font-variant:normal;font-weight:normal;font-size:8.55022px;font-family:Geneva;-inkscape-font-specification:Geneva;writing-mode:lr-tb;fill:#999999;fill-opacity:1;fill-rule:nonzero;stroke:none"
               id="text432"><tspan
                 x="0 2.5924158 6.3835912 9.6857042 14.415675 19.404732 22.256231 27.95495 30.806452 36.505199 42.203918 47.902637 53.60136 61.245255 64.096756 69.795502 75.494225 81.19294 86.891663"
                 y="0"
                 id="tspan420">.tran 0 1010m 1000m</tspan><tspan
                 x="0 2.5924158 10.236313 15.158661 19.888632 24.243273 27.094772 31.921373 36.651344 44.295242 49.025211 53.559406 56.410908 64.054802 68.784775 73.31897 76.170471 80.99707 84.817291 89.547264"
                 y="8.5500002"
                 id="tspan422">.meas vamax max v(a)</tspan><tspan
                 x="0 2.5924158 10.236313 15.158661 19.888632 24.243273 27.094772 31.921373 36.651344 44.295242 46.303696 51.292751 54.144249 61.788147 63.79657 68.785622 71.637154 76.46373 80.283974 85.013947"
                 y="17.1"
                 id="tspan424">.meas vamin min v(a)</tspan><tspan
                 x="0 2.5924158 10.236313 15.158661 19.888632 24.243273 27.094772 31.921373 36.522243 39.373741 44.103714 48.930317 54.1451 56.996601 61.8232 65.643448 70.244316"
                 y="25.65"
                 id="tspan426">.meas vk avg v(k)</tspan><tspan
                 x="0 2.5924158 10.236313 15.158661 19.888632 24.243273 27.094772 29.103226 33.833195 41.477093 46.207062 50.741257 53.592758 61.236656 65.966629 70.500824 73.352318 75.423203 79.957367 83.777618 89.476334 95.175056 97.767471 102.75647 104.76495 109.49492 113.28606 118.20847"
                 y="34.200939"
                 id="tspan428">.meas iamax max Ix(U1:Plate)</tspan><tspan
                 x="0 2.5924158 4.6008677 6.6093202 11.824104 14.675605 20.374325 26.073072 32.289932 37.504719 43.203438 49.420296 52.659981 60.303879 65.033844 67.626266 71.980904 76.969963"
                 y="62.183441"
                 id="tspan430">.lib 12AX7A-mz.sub</tspan></text></g><path
             d="M 1405.8,2056.41 H 887.609"
             style="fill:none;stroke:#ffffff;stroke-width:4.16667;stroke-linecap:butt;stroke-linejoin:miter;stroke-miterlimit:10;stroke-dasharray:none;stroke-opacity:1"
             id="path434" /><path
             d="m 887.609,2030.5 v 25.91"
             style="fill:none;stroke:#ffffff;stroke-width:4.16667;stroke-linecap:butt;stroke-linejoin:miter;stroke-miterlimit:10;stroke-dasharray:none;stroke-opacity:1"
             id="path436" /><path
             d="m 1405.8,2030.5 v 25.91"
             style="fill:none;stroke:#ffffff;stroke-width:4.16667;stroke-linecap:butt;stroke-linejoin:miter;stroke-miterlimit:10;stroke-dasharray:none;stroke-opacity:1"
             id="path438" /><path
             d="M 1535.35,1926.86 H 1405.8"
             style="fill:none;stroke:#ffffff;stroke-width:4.16667;stroke-linecap:butt;stroke-linejoin:miter;stroke-miterlimit:10;stroke-dasharray:none;stroke-opacity:1"
             id="path440" /><path
             d="m 887.609,1849.14 v 51.82"
             style="fill:none;stroke:#ffffff;stroke-width:4.16667;stroke-linecap:butt;stroke-linejoin:miter;stroke-miterlimit:10;stroke-dasharray:none;stroke-opacity:1"
             id="path442" /><path
             d="m 1405.8,1849.14 v 77.72"
             style="fill:none;stroke:#ffffff;stroke-width:4.16667;stroke-linecap:butt;stroke-linejoin:miter;stroke-miterlimit:10;stroke-dasharray:none;stroke-opacity:1"
             id="path444" /><path
             d="m 1198.53,1823.23 h -51.82"
             style="fill:none;stroke:#ffffff;stroke-width:4.16667;stroke-linecap:butt;stroke-linejoin:miter;stroke-miterlimit:10;stroke-dasharray:none;stroke-opacity:1"
             id="path446" /><path
             d="M 835.789,1771.41 H 576.691"
             style="fill:none;stroke:#ffffff;stroke-width:4.16667;stroke-linecap:butt;stroke-linejoin:miter;stroke-miterlimit:10;stroke-dasharray:none;stroke-opacity:1"
             id="path448" /><path
             d="M 965.34,1771.41 H 835.789"
             style="fill:none;stroke:#ffffff;stroke-width:4.16667;stroke-linecap:butt;stroke-linejoin:miter;stroke-miterlimit:10;stroke-dasharray:none;stroke-opacity:1"
             id="path450" /><path
             d="m 1146.71,1771.41 v 51.82"
             style="fill:none;stroke:#ffffff;stroke-width:4.16667;stroke-linecap:butt;stroke-linejoin:miter;stroke-miterlimit:10;stroke-dasharray:none;stroke-opacity:1"
             id="path452" /><path
             d="m 1146.71,1771.41 h -77.73"
             style="fill:none;stroke:#ffffff;stroke-width:4.16667;stroke-linecap:butt;stroke-linejoin:miter;stroke-miterlimit:10;stroke-dasharray:none;stroke-opacity:1"
             id="path454" /><path
             d="M 1328.07,1771.41 H 1146.71"
             style="fill:none;stroke:#ffffff;stroke-width:4.16667;stroke-linecap:butt;stroke-linejoin:miter;stroke-miterlimit:10;stroke-dasharray:none;stroke-opacity:1"
             id="path456" /><path
             d="m 576.691,1667.77 v 103.64"
             style="fill:none;stroke:#ffffff;stroke-width:4.16667;stroke-linecap:butt;stroke-linejoin:miter;stroke-miterlimit:10;stroke-dasharray:none;stroke-opacity:1"
             id="path458" /><path
             d="m 835.789,1667.77 v 103.64"
             style="fill:none;stroke:#ffffff;stroke-width:4.16667;stroke-linecap:butt;stroke-linejoin:miter;stroke-miterlimit:10;stroke-dasharray:none;stroke-opacity:1"
             id="path460" /><path
             d="m 1353.98,1667.77 v 25.91"
             style="fill:none;stroke:#ffffff;stroke-width:4.16667;stroke-linecap:butt;stroke-linejoin:miter;stroke-miterlimit:10;stroke-dasharray:none;stroke-opacity:1"
             id="path462" /><path
             d="M 1509.44,1667.77 H 1353.98"
             style="fill:none;stroke:#ffffff;stroke-width:4.16667;stroke-linecap:butt;stroke-linejoin:miter;stroke-miterlimit:10;stroke-dasharray:none;stroke-opacity:1"
             id="path464" /><path
             d="M 1613.08,1667.77 H 1509.44"
             style="fill:none;stroke:#ffffff;stroke-width:4.16667;stroke-linecap:butt;stroke-linejoin:miter;stroke-miterlimit:10;stroke-dasharray:none;stroke-opacity:1"
             id="path466" /><path
             d="m 1353.98,1641.86 v 25.91"
             style="fill:none;stroke:#ffffff;stroke-width:4.16667;stroke-linecap:butt;stroke-linejoin:miter;stroke-miterlimit:10;stroke-dasharray:none;stroke-opacity:1"
             id="path468" /><path
             d="m 1509.44,1641.86 v 25.91"
             style="fill:none;stroke:#ffffff;stroke-width:4.16667;stroke-linecap:butt;stroke-linejoin:miter;stroke-miterlimit:10;stroke-dasharray:none;stroke-opacity:1"
             id="path470" /><path
             d="m 1353.98,1512.31 v 25.91"
             style="fill:none;stroke:#ffffff;stroke-width:4.16667;stroke-linecap:butt;stroke-linejoin:miter;stroke-miterlimit:10;stroke-dasharray:none;stroke-opacity:1"
             id="path472" /><path
             d="m 1509.44,1512.31 v 25.91"
             style="fill:none;stroke:#ffffff;stroke-width:4.16667;stroke-linecap:butt;stroke-linejoin:miter;stroke-miterlimit:10;stroke-dasharray:none;stroke-opacity:1"
             id="path474" /><path
             d="M 1509.44,1512.31 H 1353.98"
             style="fill:none;stroke:#ffffff;stroke-width:4.16667;stroke-linecap:butt;stroke-linejoin:miter;stroke-miterlimit:10;stroke-dasharray:none;stroke-opacity:1"
             id="path476" /><path
             d="m 576.691,1460.49 v 77.73"
             style="fill:none;stroke:#ffffff;stroke-width:4.16667;stroke-linecap:butt;stroke-linejoin:miter;stroke-miterlimit:10;stroke-dasharray:none;stroke-opacity:1"
             id="path478" /><path
             d="m 835.789,1460.49 v 103.64"
             style="fill:none;stroke:#ffffff;stroke-width:4.16667;stroke-linecap:butt;stroke-linejoin:miter;stroke-miterlimit:10;stroke-dasharray:none;stroke-opacity:1"
             id="path480" /><path
             d="m 1353.98,1460.49 v 51.82"
             style="fill:none;stroke:#ffffff;stroke-width:4.16667;stroke-linecap:butt;stroke-linejoin:miter;stroke-miterlimit:10;stroke-dasharray:none;stroke-opacity:1"
             id="path482" /><path
             d="m 827.691,1763.31 h 16.1953 v 16.1953 H 827.691 Z"
             style="fill:#ffffff;fill-opacity:1;fill-rule:nonzero;stroke:none"
             id="path484" /><path
             d="m 1138.61,1763.31 h 16.1953 v 16.1953 H 1138.61 Z"
             style="fill:#ffffff;fill-opacity:1;fill-rule:nonzero;stroke:none"
             id="path486" /><path
             d="m 1345.89,1659.67 h 16.1953 v 16.1914 H 1345.89 Z"
             style="fill:#ffffff;fill-opacity:1;fill-rule:nonzero;stroke:none"
             id="path488" /><path
             d="m 1345.89,1504.21 h 16.1953 v 16.1953 H 1345.89 Z"
             style="fill:#ffffff;fill-opacity:1;fill-rule:nonzero;stroke:none"
             id="path490" /><path
             d="m 1397.71,1918.77 h 16.1953 v 16.1914 H 1397.71 Z"
             style="fill:#ffffff;fill-opacity:1;fill-rule:nonzero;stroke:none"
             id="path492" /><path
             d="m 1501.35,1659.67 h 16.1914 v 16.1914 H 1501.35 Z"
             style="fill:#ffffff;fill-opacity:1;fill-rule:nonzero;stroke:none"
             id="path494" /></g></g></g></g></svg>
