<?xml version="1.0" encoding="UTF-8" standalone="no"?>
<svg
   xmlns:dc="http://purl.org/dc/elements/1.1/"
   xmlns:cc="http://creativecommons.org/ns#"
   xmlns:rdf="http://www.w3.org/1999/02/22-rdf-syntax-ns#"
   xmlns:svg="http://www.w3.org/2000/svg"
   xmlns="http://www.w3.org/2000/svg"
   version="1.1"
   id="svg1074"
   xml:space="preserve"
   width="618.1449"
   height="361.33768"
   viewBox="0 0 927.21733 542.00654"><metadata
     id="metadata1080"><rdf:RDF><cc:Work
         rdf:about=""><dc:format>image/svg+xml</dc:format><dc:type
           rdf:resource="http://purl.org/dc/dcmitype/StillImage" /><dc:title></dc:title></cc:Work></rdf:RDF></metadata><defs
     id="defs1078"><clipPath
       clipPathUnits="userSpaceOnUse"
       id="clipPath1092"><path
         d="m 375,299.582 h 1729.17 v 2908.34 H 375 Z"
         id="path1090" /></clipPath><clipPath
       clipPathUnits="userSpaceOnUse"
       id="clipPath1290"><path
         d="m 500,370.418 h 720.832 v 2620.83 H 500 Z"
         id="path1288" /></clipPath><clipPath
       clipPathUnits="userSpaceOnUse"
       id="clipPath1306"><path
         d="m 375,299.582 h 1729.17 v 2908.34 H 375 Z"
         id="path1304" /></clipPath><clipPath
       clipPathUnits="userSpaceOnUse"
       id="clipPath1320"><path
         d="m 1300,370.418 h 720.832 v 2620.83 H 1300 Z"
         id="path1318" /></clipPath></defs><g
     id="g1082"
     transform="matrix(0,-1.3333333,-1.3333333,0,1025.6049,667.07604)"><g
       id="g1084"
       transform="scale(0.24)"><g
         id="g1086"><g
           id="g1088"
           clip-path="url(#clipPath1092)"><path
             d="M 500,2990.65 H 458.332"
             style="fill:none;stroke:#969696;stroke-width:4.16667;stroke-linecap:butt;stroke-linejoin:miter;stroke-miterlimit:10;stroke-dasharray:none;stroke-opacity:1"
             id="path1094" /><g
             id="g1096"
             transform="scale(4.16667)"><text
               transform="matrix(0,-1,-1,0,94.0003,730.4)"
               style="font-variant:normal;font-weight:normal;font-size:14px;font-family:Menlo;-inkscape-font-specification:Menlo-Regular;writing-mode:lr-tb;fill:#969696;fill-opacity:1;fill-rule:nonzero;stroke:none"
               id="text1100"><tspan
                 x="0 8.4280005 16.855413"
                 y="0"
                 id="tspan1098">0ms</tspan></text></g><path
             d="M 500,2728.78 H 458.332"
             style="fill:none;stroke:#969696;stroke-width:4.16667;stroke-linecap:butt;stroke-linejoin:miter;stroke-miterlimit:10;stroke-dasharray:none;stroke-opacity:1"
             id="path1102" /><g
             id="g1104"
             transform="scale(4.16667)"><text
               transform="matrix(0,-1,-1,0,94.0003,667.55)"
               style="font-variant:normal;font-weight:normal;font-size:14px;font-family:Menlo;-inkscape-font-specification:Menlo-Regular;writing-mode:lr-tb;fill:#969696;fill-opacity:1;fill-rule:nonzero;stroke:none"
               id="text1108"><tspan
                 x="0 8.4280005 16.855413"
                 y="0"
                 id="tspan1106">1ms</tspan></text></g><path
             d="M 500,2466.9 H 458.332"
             style="fill:none;stroke:#969696;stroke-width:4.16667;stroke-linecap:butt;stroke-linejoin:miter;stroke-miterlimit:10;stroke-dasharray:none;stroke-opacity:1"
             id="path1110" /><g
             id="g1112"
             transform="scale(4.16667)"><text
               transform="matrix(0,-1,-1,0,94.0003,604.7)"
               style="font-variant:normal;font-weight:normal;font-size:14px;font-family:Menlo;-inkscape-font-specification:Menlo-Regular;writing-mode:lr-tb;fill:#969696;fill-opacity:1;fill-rule:nonzero;stroke:none"
               id="text1116"><tspan
                 x="0 8.4280005 16.855413"
                 y="0"
                 id="tspan1114">2ms</tspan></text></g><path
             d="M 500,2205.03 H 458.332"
             style="fill:none;stroke:#969696;stroke-width:4.16667;stroke-linecap:butt;stroke-linejoin:miter;stroke-miterlimit:10;stroke-dasharray:none;stroke-opacity:1"
             id="path1118" /><g
             id="g1120"
             transform="scale(4.16667)"><text
               transform="matrix(0,-1,-1,0,94.0003,541.85)"
               style="font-variant:normal;font-weight:normal;font-size:14px;font-family:Menlo;-inkscape-font-specification:Menlo-Regular;writing-mode:lr-tb;fill:#969696;fill-opacity:1;fill-rule:nonzero;stroke:none"
               id="text1124"><tspan
                 x="0 8.4274139 16.855413"
                 y="0"
                 id="tspan1122">3ms</tspan></text></g><path
             d="M 500,1943.15 H 458.332"
             style="fill:none;stroke:#969696;stroke-width:4.16667;stroke-linecap:butt;stroke-linejoin:miter;stroke-miterlimit:10;stroke-dasharray:none;stroke-opacity:1"
             id="path1126" /><g
             id="g1128"
             transform="scale(4.16667)"><text
               transform="matrix(0,-1,-1,0,94.0003,479)"
               style="font-variant:normal;font-weight:normal;font-size:14px;font-family:Menlo;-inkscape-font-specification:Menlo-Regular;writing-mode:lr-tb;fill:#969696;fill-opacity:1;fill-rule:nonzero;stroke:none"
               id="text1132"><tspan
                 x="0 8.4274139 16.855413"
                 y="0"
                 id="tspan1130">4ms</tspan></text></g><path
             d="M 500,1681.28 H 458.332"
             style="fill:none;stroke:#969696;stroke-width:4.16667;stroke-linecap:butt;stroke-linejoin:miter;stroke-miterlimit:10;stroke-dasharray:none;stroke-opacity:1"
             id="path1134" /><g
             id="g1136"
             transform="scale(4.16667)"><text
               transform="matrix(0,-1,-1,0,94.0003,416.15)"
               style="font-variant:normal;font-weight:normal;font-size:14px;font-family:Menlo;-inkscape-font-specification:Menlo-Regular;writing-mode:lr-tb;fill:#969696;fill-opacity:1;fill-rule:nonzero;stroke:none"
               id="text1140"><tspan
                 x="0 8.4274139 16.855413"
                 y="0"
                 id="tspan1138">5ms</tspan></text></g><path
             d="M 500,1419.41 H 458.332"
             style="fill:none;stroke:#969696;stroke-width:4.16667;stroke-linecap:butt;stroke-linejoin:miter;stroke-miterlimit:10;stroke-dasharray:none;stroke-opacity:1"
             id="path1142" /><g
             id="g1144"
             transform="scale(4.16667)"><text
               transform="matrix(0,-1,-1,0,94.0003,353.3)"
               style="font-variant:normal;font-weight:normal;font-size:14px;font-family:Menlo;-inkscape-font-specification:Menlo-Regular;writing-mode:lr-tb;fill:#969696;fill-opacity:1;fill-rule:nonzero;stroke:none"
               id="text1148"><tspan
                 x="0 8.4274139 16.855413"
                 y="0"
                 id="tspan1146">6ms</tspan></text></g><path
             d="M 500,1157.53 H 458.332"
             style="fill:none;stroke:#969696;stroke-width:4.16667;stroke-linecap:butt;stroke-linejoin:miter;stroke-miterlimit:10;stroke-dasharray:none;stroke-opacity:1"
             id="path1150" /><g
             id="g1152"
             transform="scale(4.16667)"><text
               transform="matrix(0,-1,-1,0,94.0003,290.451)"
               style="font-variant:normal;font-weight:normal;font-size:14px;font-family:Menlo;-inkscape-font-specification:Menlo-Regular;writing-mode:lr-tb;fill:#969696;fill-opacity:1;fill-rule:nonzero;stroke:none"
               id="text1156"><tspan
                 x="0 8.4280005 16.856001"
                 y="0"
                 id="tspan1154">7ms</tspan></text></g><path
             d="M 500,895.656 H 458.332"
             style="fill:none;stroke:#969696;stroke-width:4.16667;stroke-linecap:butt;stroke-linejoin:miter;stroke-miterlimit:10;stroke-dasharray:none;stroke-opacity:1"
             id="path1158" /><g
             id="g1160"
             transform="scale(4.16667)"><text
               transform="matrix(0,-1,-1,0,94.0003,227.601)"
               style="font-variant:normal;font-weight:normal;font-size:14px;font-family:Menlo;-inkscape-font-specification:Menlo-Regular;writing-mode:lr-tb;fill:#969696;fill-opacity:1;fill-rule:nonzero;stroke:none"
               id="text1164"><tspan
                 x="0 8.4280005 16.856001"
                 y="0"
                 id="tspan1162">8ms</tspan></text></g><path
             d="M 500,633.781 H 458.332"
             style="fill:none;stroke:#969696;stroke-width:4.16667;stroke-linecap:butt;stroke-linejoin:miter;stroke-miterlimit:10;stroke-dasharray:none;stroke-opacity:1"
             id="path1166" /><g
             id="g1168"
             transform="scale(4.16667)"><text
               transform="matrix(0,-1,-1,0,94.0003,164.751)"
               style="font-variant:normal;font-weight:normal;font-size:14px;font-family:Menlo;-inkscape-font-specification:Menlo-Regular;writing-mode:lr-tb;fill:#969696;fill-opacity:1;fill-rule:nonzero;stroke:none"
               id="text1172"><tspan
                 x="0 8.4280005 16.855413"
                 y="0"
                 id="tspan1170">9ms</tspan></text></g><path
             d="M 500,371.906 H 458.332"
             style="fill:none;stroke:#969696;stroke-width:4.16667;stroke-linecap:butt;stroke-linejoin:miter;stroke-miterlimit:10;stroke-dasharray:none;stroke-opacity:1"
             id="path1174" /><g
             id="g1176"
             transform="scale(4.16667)"><text
               transform="matrix(0,-1,-1,0,94.0003,106.115)"
               style="font-variant:normal;font-weight:normal;font-size:14px;font-family:Menlo;-inkscape-font-specification:Menlo-Regular;writing-mode:lr-tb;fill:#969696;fill-opacity:1;fill-rule:nonzero;stroke:none"
               id="text1182"><tspan
                 x="0 8.4274139 16.855413 25.283415"
                 y="0"
                 id="tspan1178">10ms</tspan><tspan
                 x="-630.07001 -638.49908 -646.92719 -655.35626 -663.78534"
                 y="-20"
                 id="tspan1180">V0.2-</tspan></text></g><path
             d="m 500,2990.65 v 41.67"
             style="fill:none;stroke:#969696;stroke-width:4.16667;stroke-linecap:butt;stroke-linejoin:miter;stroke-miterlimit:10;stroke-dasharray:none;stroke-opacity:1"
             id="path1184" /><g
             id="g1186"
             transform="scale(4.16667)"><text
               transform="matrix(0,-1,-1,0,135.563,736.185)"
               style="font-variant:normal;font-weight:normal;font-size:14px;font-family:Menlo;-inkscape-font-specification:Menlo-Regular;writing-mode:lr-tb;fill:#969696;fill-opacity:1;fill-rule:nonzero;stroke:none"
               id="text1190"><tspan
                 x="0 -8.42906 -16.857189 -25.286249 -33.715309"
                 y="0"
                 id="tspan1188">V5.1-</tspan></text></g><path
             d="m 589.844,2990.65 v 41.67"
             style="fill:none;stroke:#969696;stroke-width:4.16667;stroke-linecap:butt;stroke-linejoin:miter;stroke-miterlimit:10;stroke-dasharray:none;stroke-opacity:1"
             id="path1192" /><g
             id="g1194"
             transform="scale(4.16667)"><text
               transform="matrix(0,-1,-1,0,157.125,736.185)"
               style="font-variant:normal;font-weight:normal;font-size:14px;font-family:Menlo;-inkscape-font-specification:Menlo-Regular;writing-mode:lr-tb;fill:#969696;fill-opacity:1;fill-rule:nonzero;stroke:none"
               id="text1198"><tspan
                 x="0 -8.42906 -16.857189 -25.286249 -33.715309"
                 y="0"
                 id="tspan1196">V0.1-</tspan></text></g><path
             d="m 679.688,2990.65 v 41.67"
             style="fill:none;stroke:#969696;stroke-width:4.16667;stroke-linecap:butt;stroke-linejoin:miter;stroke-miterlimit:10;stroke-dasharray:none;stroke-opacity:1"
             id="path1200" /><g
             id="g1202"
             transform="scale(4.16667)"><text
               transform="matrix(0,-1,-1,0,178.688,736.185)"
               style="font-variant:normal;font-weight:normal;font-size:14px;font-family:Menlo;-inkscape-font-specification:Menlo-Regular;writing-mode:lr-tb;fill:#969696;fill-opacity:1;fill-rule:nonzero;stroke:none"
               id="text1206"><tspan
                 x="0 -8.42906 -16.857189 -25.286249 -33.715309"
                 y="0"
                 id="tspan1204">V5.0-</tspan></text></g><path
             d="m 769.531,2990.65 v 41.67"
             style="fill:none;stroke:#969696;stroke-width:4.16667;stroke-linecap:butt;stroke-linejoin:miter;stroke-miterlimit:10;stroke-dasharray:none;stroke-opacity:1"
             id="path1208" /><g
             id="g1210"
             transform="scale(4.16667)"><text
               transform="matrix(0,-1,-1,0,200.25,736.185)"
               style="font-variant:normal;font-weight:normal;font-size:14px;font-family:Menlo;-inkscape-font-specification:Menlo-Regular;writing-mode:lr-tb;fill:#969696;fill-opacity:1;fill-rule:nonzero;stroke:none"
               id="text1214"><tspan
                 x="0 -8.42906 -16.857189 -25.286249"
                 y="0"
                 id="tspan1212">V0.0</tspan></text></g><path
             d="m 859.375,2990.65 v 41.67"
             style="fill:none;stroke:#969696;stroke-width:4.16667;stroke-linecap:butt;stroke-linejoin:miter;stroke-miterlimit:10;stroke-dasharray:none;stroke-opacity:1"
             id="path1216" /><g
             id="g1218"
             transform="scale(4.16667)"><text
               transform="matrix(0,-1,-1,0,221.813,736.185)"
               style="font-variant:normal;font-weight:normal;font-size:14px;font-family:Menlo;-inkscape-font-specification:Menlo-Regular;writing-mode:lr-tb;fill:#969696;fill-opacity:1;fill-rule:nonzero;stroke:none"
               id="text1222"><tspan
                 x="0 -8.42906 -16.857189 -25.286249"
                 y="0"
                 id="tspan1220">V5.0</tspan></text></g><path
             d="m 949.219,2990.65 v 41.67"
             style="fill:none;stroke:#969696;stroke-width:4.16667;stroke-linecap:butt;stroke-linejoin:miter;stroke-miterlimit:10;stroke-dasharray:none;stroke-opacity:1"
             id="path1224" /><g
             id="g1226"
             transform="scale(4.16667)"><text
               transform="matrix(0,-1,-1,0,243.375,736.185)"
               style="font-variant:normal;font-weight:normal;font-size:14px;font-family:Menlo;-inkscape-font-specification:Menlo-Regular;writing-mode:lr-tb;fill:#969696;fill-opacity:1;fill-rule:nonzero;stroke:none"
               id="text1230"><tspan
                 x="0 -8.42906 -16.857189 -25.286249"
                 y="0"
                 id="tspan1228">V0.1</tspan></text></g><path
             d="m 1039.06,2990.65 v 41.67"
             style="fill:none;stroke:#969696;stroke-width:4.16667;stroke-linecap:butt;stroke-linejoin:miter;stroke-miterlimit:10;stroke-dasharray:none;stroke-opacity:1"
             id="path1232" /><g
             id="g1234"
             transform="scale(4.16667)"><text
               transform="matrix(0,-1,-1,0,264.938,736.185)"
               style="font-variant:normal;font-weight:normal;font-size:14px;font-family:Menlo;-inkscape-font-specification:Menlo-Regular;writing-mode:lr-tb;fill:#969696;fill-opacity:1;fill-rule:nonzero;stroke:none"
               id="text1238"><tspan
                 x="0 -8.42906 -16.857189 -25.286249"
                 y="0"
                 id="tspan1236">V5.1</tspan></text></g><path
             d="m 1128.91,2990.65 v 41.67"
             style="fill:none;stroke:#969696;stroke-width:4.16667;stroke-linecap:butt;stroke-linejoin:miter;stroke-miterlimit:10;stroke-dasharray:none;stroke-opacity:1"
             id="path1240" /><g
             id="g1242"
             transform="scale(4.16667)"><text
               transform="matrix(0,-1,-1,0,286.5,736.185)"
               style="font-variant:normal;font-weight:normal;font-size:14px;font-family:Menlo;-inkscape-font-specification:Menlo-Regular;writing-mode:lr-tb;fill:#969696;fill-opacity:1;fill-rule:nonzero;stroke:none"
               id="text1246"><tspan
                 x="0 -8.42906 -16.857189 -25.286249"
                 y="0"
                 id="tspan1244">V0.2</tspan></text></g><path
             d="m 1218.75,2990.65 v 41.67"
             style="fill:none;stroke:#969696;stroke-width:4.16667;stroke-linecap:butt;stroke-linejoin:miter;stroke-miterlimit:10;stroke-dasharray:none;stroke-opacity:1"
             id="path1248" /><path
             d="m 500,371.906 h 718.75 v 2618.75 H 500 Z"
             style="fill:none;stroke:#969696;stroke-width:4.16667;stroke-linecap:butt;stroke-linejoin:miter;stroke-miterlimit:10;stroke-dasharray:none;stroke-opacity:1"
             id="path1250" /><g
             id="g1252"
             transform="scale(4.16667)"><text
               transform="matrix(0,-1,-1,0,306.5,736.185)"
               style="font-variant:normal;font-weight:normal;font-size:14px;font-family:Menlo;-inkscape-font-specification:Menlo-Regular;writing-mode:lr-tb;fill:#afafaf;fill-opacity:1;fill-rule:nonzero;stroke:none"
               id="text1256"><tspan
                 x="0 -8.42906 -16.857189 -25.286249 -33.715309"
                 y="0"
                 id="tspan1254">V57.1</tspan></text></g><path
             d="m 1302.08,2990.65 v 41.67"
             style="fill:none;stroke:#afafaf;stroke-width:4.16667;stroke-linecap:butt;stroke-linejoin:miter;stroke-miterlimit:10;stroke-dasharray:none;stroke-opacity:1"
             id="path1258" /><g
             id="g1260"
             transform="scale(4.16667)"><text
               transform="matrix(0,-1,-1,0,393.87,736.185)"
               style="font-variant:normal;font-weight:normal;font-size:14px;font-family:Menlo;-inkscape-font-specification:Menlo-Regular;writing-mode:lr-tb;fill:#afafaf;fill-opacity:1;fill-rule:nonzero;stroke:none"
               id="text1264"><tspan
                 x="0 -8.42906 -16.857189 -25.286249 -33.715309"
                 y="0"
                 id="tspan1262">V41.2</tspan></text></g><path
             d="m 1666.13,2990.65 v 41.67"
             style="fill:none;stroke:#afafaf;stroke-width:4.16667;stroke-linecap:butt;stroke-linejoin:miter;stroke-miterlimit:10;stroke-dasharray:none;stroke-opacity:1"
             id="path1266" /><g
             id="g1268"
             transform="scale(4.16667)"><text
               transform="matrix(0,-1,-1,0,479,736.185)"
               style="font-variant:normal;font-weight:normal;font-size:14px;font-family:Menlo;-inkscape-font-specification:Menlo-Regular;writing-mode:lr-tb;fill:#afafaf;fill-opacity:1;fill-rule:nonzero;stroke:none"
               id="text1272"><tspan
                 x="0 -8.42906 -16.857189 -25.286249 -33.715309"
                 y="0"
                 id="tspan1270">V25.2</tspan></text></g><path
             d="m 2020.83,2990.65 v 41.67"
             style="fill:none;stroke:#afafaf;stroke-width:4.16667;stroke-linecap:butt;stroke-linejoin:miter;stroke-miterlimit:10;stroke-dasharray:none;stroke-opacity:1"
             id="path1274" /><path
             d="m 1302.08,371.906 h 718.75 v 2618.75 h -718.75 z"
             style="fill:none;stroke:#afafaf;stroke-width:4.16667;stroke-linecap:butt;stroke-linejoin:miter;stroke-miterlimit:10;stroke-dasharray:none;stroke-opacity:1"
             id="path1276" /><g
             id="g1278"
             transform="scale(4.16667)"><text
               transform="matrix(0,-1,-1,0,296,420.614)"
               style="font-variant:normal;font-weight:normal;font-size:14px;font-family:Menlo;-inkscape-font-specification:Menlo-Regular;writing-mode:lr-tb;fill:#0eff00;fill-opacity:1;fill-rule:nonzero;stroke:none"
               id="text1282"><tspan
                 x="0 8.4280005 16.855413 25.283415"
                 y="0"
                 id="tspan1280">V(g)</tspan></text></g></g></g><g
         id="g1284"><g
           id="g1286"
           clip-path="url(#clipPath1290)"><path
             d="m 846.652,2990.65 v 0 l 25.633,-6.8 39.27,-10.47 38.758,-10.48 37.742,-10.47 36.225,-10.48 34.26,-10.47 31.87,-10.48 29.11,-10.47 25.95,-10.48 22.47,-10.47 18.73,-10.47 14.75,-10.48 10.58,-10.48 6.26,-10.47 1.87,-10.48 -2.55,-10.47 -6.95,-10.48 -11.28,-10.47 -15.47,-10.48 -19.45,-10.47 -23.23,-10.47 -26.72,-10.48 -29.89,-10.48 -32.7,-10.47 -35.09,-10.48 -37.073,-10.47 -38.586,-10.48 -39.629,-10.47 -40.176,-10.48 -40.227,-10.47 -39.769,-10.47 -38.82,-10.48 -37.383,-10.48 -35.473,-10.47 -33.121,-10.48 -30.355,-10.47 -27.266,-10.48 -23.992,-10.47 -19.696,-10.48 -14.918,-10.47 -10.711,-10.47 -6.574,-10.48 -2.156,-9.16 1.523,-9.52 5.442,-10.48 8.949,-10.47 12.781,-10.48 16.871,-10.47 20.715,-10.48 24.196,-10.47 27.453,-10.47 30.363,-10.48 32.93,-10.48 35.109,-10.47 36.871,-10.48 38.195,-10.47 39.063,-10.48 39.457,-10.47 39.379,-10.48 38.82,-10.47 37.781,-10.47 36.287,-10.48 34.33,-10.48 31.97,-10.47 29.21,-10.48 26.07,-10.47 22.6,-10.48 18.86,-10.47 14.89,-10.48 10.72,-10.47 6.42,-10.47 2.02,-10.48 -2.4,-10.48 -6.79,-10.47 -11.13,-10.48 -15.33,-10.47 -19.32,-10.48 -23.1,-10.47 -26.61,-10.48 -29.78,-10.47 -32.6,-10.47 -35.02,-10.48 -37.015,-10.47 -38.539,-10.48 -39.602,-10.48 -40.164,-10.47 -40.234,-10.48 -39.797,-10.47 -38.86,-10.48 -37.441,-10.47 -35.547,-10.47 -33.207,-10.48 -30.457,-10.47 -27.371,-10.48 -24.117,-10.48 -19.867,-10.47 -15.086,-10.48 -10.86,-10.47 -6.746,-10.48 -2.238,-8.93 1.441,-9.89 5.317,-10.48 8.867,-10.47 12.699,-10.48 16.793,-10.47 20.641,-10.47 24.121,-10.48 27.39,-10.47 30.305,-10.48 32.883,-10.48 35.066,-10.47 36.84,-10.48 38.172,-10.47 39.051,-10.48 39.457,-10.47 39.383,-10.47 38.836,-10.48 37.808,-10.47 36.318,-10.48 34.39,-10.48 32.02,-10.47 29.27,-10.48 26.14,-10.47 22.67,-10.48 18.95,-10.47 14.97,-10.47 10.82,-10.48 6.5,-10.47 2.12,-10.48 -2.31,-10.47 -6.7,-10.48 -11.04,-10.48 -15.24,-10.47 -19.24,-10.48 -23.02,-10.47 -26.54,-10.47 -29.72,-10.48 -32.55,-10.47 -34.97,-10.48 -36.975,-10.47 -38.515,-10.48 -39.582,-10.48 -40.16,-10.47 -40.235,-10.48 -39.812,-10.47 -38.887,-10.47 -37.473,-10.48 -35.593,-10.47 -33.258,-10.48 -30.524,-10.47 -27.433,-10.48 -24.192,-10.48 -19.968,-10.47 -15.184,-10.48 -10.945,-10.47 -6.828,-10.47 -2.321,-9.07 1.414,-9.95 5.297,-10.47 8.852,-10.48 12.687,-10.47 16.785,-10.48 20.625,-10.47 24.114,-10.48 27.383,-10.47 30.296,-10.48 32.872,-10.47 35.062,-10.48 36.832,-10.47 38.168,-10.48 39.051,-10.47 39.453,-10.48 39.387,-10.47 38.84,-10.48 37.812,-10.47 36.325,-10.48 34.39,-10.47 32.03,-10.48 29.28,-10.47 26.15,-10.48 22.68,-10.47 18.96,-10.48 14.99,-10.47 10.83,-10.47 6.52,-10.48 2.13,-10.48 -2.29,-10.47 -6.69,-10.48 -11.03,-10.47 -15.22,-10.48 -19.23,-10.472 -23.01,-10.473 -26.53,-10.477 -29.71,-10.472 -32.54,-10.477 -34.97,-10.476 -36.963,-10.473 -38.512,-10.477 -39.578,-10.472 -40.16,-10.477 -40.235,-10.476 -39.812,-10.473 -38.891,-10.477 -37.48,-10.472 -35.598,-10.477 -33.27,-10.476 -30.531,-10.473 -27.445,-10.477 -24.203,-10.472 -19.981,-10.477 -15.199,-10.476 -10.961,-10.473 -6.84,-10.477 -2.332,-9.082 1.41,-9.957 5.293,-10.476 8.852,-10.473 12.687,-10.477 16.782,-10.476 20.625,-10.473 24.109,-10.476 27.379,-10.473 30.297,-10.477 32.875,-10.476 35.058,-10.473 36.832,-10.476 38.168,-10.473 39.047,-10.477 39.457,-10.476 39.387,-10.473 38.836,-10.476 37.816,-10.473 36.321,-10.477 34.4,-10.476 32.03,-10.473 29.28,-10.476 26.15,-10.473 22.69,-10.477 18.95,-10.476 15,-10.473 10.82,-10.476 6.53,-10.473 2.13,-10.477 -2.29,-10.476 -6.69,-10.473 -11.02,-10.476 -15.23,-10.473 -19.22,-10.477 -23.01,-10.472 -26.53,-10.477 -29.1,-10.476 -4.23,-1.442"
             style="fill:none;stroke:#0eff00;stroke-width:4.16667;stroke-linecap:butt;stroke-linejoin:miter;stroke-miterlimit:1;stroke-dasharray:none;stroke-opacity:1"
             id="path1292" /><path
             d="m 846.422,2990.65 v 0 l 25.621,-6.77 39.113,-10.48 38.442,-10.48 37.402,-10.47 35.9,-10.48 33.96,-10.47 31.61,-10.48 28.86,-10.47 25.77,-10.48 22.35,-10.47 18.62,-10.47 14.69,-10.48 10.58,-10.47 6.32,-10.48 1.97,-10.48 -2.4,-10.47 -6.76,-10.48 -11.04,-10.47 -15.19,-10.48 -19.17,-10.47 -22.9,-10.47 -26.38,-10.48 -29.54,-10.47 -32.34,-10.48 -34.75,-10.48 -36.738,-10.47 -38.281,-10.48 -39.356,-10.47 -39.941,-10.48 -40.035,-10.47 -39.633,-10.47 -38.738,-10.48 -37.356,-10.47 -35.504,-10.48 -33.207,-10.48 -30.496,-10.47 -27.445,-10.48 -24.364,-10.47 -20.367,-10.48 -15.32,-10.47 -10.719,-10.47 -6.586,-10.48 -2.16,-9.15 1.516,-9.54 5.797,-10.48 9.984,-10.47 13.781,-10.47 16.918,-10.48 20.266,-10.47 24.023,-10.48 27.352,-10.47 30.203,-10.48 32.758,-10.48 34.883,-10.47 36.617,-10.48 37.91,-10.47 38.746,-10.47 39.129,-10.48 39.035,-10.47 38.473,-10.48 37.441,-10.47 35.964,-10.48 34.03,-10.48 31.7,-10.47 28.96,-10.48 25.88,-10.47 22.47,-10.47 18.75,-10.48 14.82,-10.47 10.73,-10.48 6.46,-10.47 2.12,-10.48 -2.25,-10.47 -6.61,-10.48 -10.89,-10.48 -15.06,-10.47 -19.03,-10.47 -22.78,-10.48 -26.26,-10.47 -29.44,-10.48 -32.25,-10.47 -34.68,-10.48 -36.677,-10.47 -38.238,-10.48 -39.324,-10.48 -39.93,-10.47 -40.043,-10.47 -39.656,-10.48 -38.774,-10.47 -37.41,-10.48 -35.574,-10.47 -33.289,-10.48 -30.598,-10.47 -27.551,-10.48 -24.468,-10.47 -20.524,-10.48 -15.508,-10.47 -10.863,-10.48 -6.754,-10.47 -2.242,-8.93 1.441,-9.91 5.668,-10.47 9.899,-10.48 13.715,-10.47 16.847,-10.47 20.188,-10.48 23.961,-10.48 27.289,-10.47 30.144,-10.48 32.711,-10.47 34.844,-10.48 36.59,-10.47 37.883,-10.48 38.738,-10.47 39.125,-10.47 39.039,-10.48 38.488,-10.48 37.473,-10.47 35.99,-10.48 34.08,-10.47 31.75,-10.48 29.02,-10.47 25.95,-10.48 22.53,-10.47 18.83,-10.47 14.91,-10.48 10.81,-10.47 6.56,-10.48 2.2,-10.48 -2.16,-10.47 -6.52,-10.48 -10.81,-10.47 -14.97,-10.48 -18.96,-10.47 -22.7,-10.47 -26.2,-10.48 -29.37,-10.47 -32.2,-10.48 -34.63,-10.48 -36.645,-10.47 -38.207,-10.48 -39.309,-10.47 -39.922,-10.48 -40.043,-10.47 -39.671,-10.47 -38.797,-10.48 -37.442,-10.47 -35.617,-10.48 -33.34,-10.48 -30.652,-10.47 -27.613,-10.48 -24.528,-10.47 -20.621,-10.48 -15.621,-10.47 -10.949,-10.47 -6.828,-10.48 -2.325,-9.06 1.415,-9.96 5.652,-10.47 9.883,-10.48 13.703,-10.47 16.832,-10.48 20.183,-10.47 23.954,-10.47 27.277,-10.48 30.141,-10.48 32.703,-10.47 34.84,-10.48 36.582,-10.47 37.882,-10.48 38.739,-10.47 39.121,-10.48 39.043,-10.47 38.492,-10.47 37.473,-10.48 35.995,-10.48 34.09,-10.47 31.75,-10.48 29.03,-10.47 25.96,-10.48 22.55,-10.47 18.84,-10.48 14.92,-10.47 10.82,-10.47 6.56,-10.48 2.22,-10.48 -2.15,-10.47 -6.51,-10.48 -10.79,-10.47 -14.96,-10.48 -18.95,-10.472 -22.69,-10.473 -26.19,-10.477 -29.37,-10.472 -32.19,-10.477 -34.62,-10.476 -36.64,-10.473 -38.203,-10.477 -39.304,-10.472 -39.922,-10.477 -40.043,-10.476 -39.672,-10.473 -38.801,-10.477 -37.445,-10.472 -35.621,-10.477 -33.348,-10.473 -30.664,-10.476 -27.621,-10.477 -24.531,-10.472 -20.637,-10.477 -15.641,-10.473 -10.961,-10.476 -6.84,-10.477 -2.332,-9.082 1.411,-9.957 5.648,-10.476 9.883,-10.473 13.695,-10.477 16.832,-10.476 20.184,-10.473 23.953,-10.476 27.277,-10.473 30.137,-10.477 32.703,-10.476 34.84,-10.473 36.582,-10.476 37.883,-10.473 38.734,-10.477 39.125,-10.476 39.043,-10.473 38.492,-10.476 37.473,-10.473 36.001,-10.477 34.08,-10.476 31.76,-10.473 29.03,-10.476 25.96,-10.473 22.55,-10.477 18.84,-10.476 14.92,-10.473 10.82,-10.476 6.57,-10.473 2.22,-10.477 -2.15,-10.472 -6.5,-10.477 -10.8,-10.476 -14.95,-10.473 -18.95,-10.477 -22.69,-10.472 -26.19,-10.477 -28.76,-10.476 -4.18,-1.442"
             style="fill:none;stroke:#0000ff;stroke-width:4.16667;stroke-linecap:butt;stroke-linejoin:miter;stroke-miterlimit:1;stroke-dasharray:none;stroke-opacity:1"
             id="path1294" /><path
             d="m 846.602,2990.65 v 0 l 25.441,-6.74 39.051,-10.48 38.406,-10.48 37.371,-10.47 35.869,-10.48 33.94,-10.47 31.57,-10.48 28.84,-10.47 25.75,-10.47 22.32,-10.48 18.63,-10.47 14.69,-10.48 10.57,-10.48 6.32,-10.47 1.98,-10.48 -2.39,-10.47 -6.73,-10.48 -11.01,-10.47 -15.17,-10.47 -19.13,-10.48 -22.87,-10.47 -26.34,-10.48 -29.49,-10.48 -32.3,-10.47 -34.71,-10.48 -36.694,-10.47 -38.239,-10.48 -39.316,-10.47 -39.906,-10.47 -40.008,-10.48 -39.609,-10.47 -38.719,-10.48 -37.344,-10.47 -35.496,-10.48 -33.207,-10.48 -30.5,-10.47 -27.445,-10.48 -24.317,-10.47 -20.484,-10.47 -15.504,-10.48 -10.734,-10.47 -6.602,-10.48 -2.168,-9.13 1.516,-9.57 5.781,-10.48 9.976,-10.47 13.883,-10.48 17.012,-10.47 20.242,-10.47 24.016,-10.48 27.347,-10.48 30.192,-10.47 32.746,-10.48 34.871,-10.47 36.602,-10.48 37.882,-10.47 38.727,-10.48 39.098,-10.47 39.004,-10.47 38.441,-10.48 37.41,-10.48 35.926,-10.47 34,-10.48 31.67,-10.47 28.94,-10.48 25.84,-10.47 22.45,-10.48 18.75,-10.47 14.82,-10.47 10.71,-10.48 6.46,-10.47 2.13,-10.48 -2.25,-10.48 -6.59,-10.47 -10.88,-10.48 -15.02,-10.47 -19.01,-10.48 -22.75,-10.47 -26.23,-10.47 -29.4,-10.48 -32.21,-10.47 -34.63,-10.48 -36.64,-10.48 -38.195,-10.47 -39.289,-10.48 -39.895,-10.47 -40.012,-10.48 -39.629,-10.47 -38.757,-10.47 -37.395,-10.48 -35.566,-10.47 -33.289,-10.48 -30.598,-10.48 -27.547,-10.47 -24.418,-10.48 -20.633,-10.47 -15.683,-10.48 -10.871,-10.47 -6.762,-10.47 -2.25,-8.95 1.441,-9.9 5.664,-10.48 9.899,-10.48 13.82,-10.47 16.953,-10.47 20.168,-10.48 23.953,-10.47 27.289,-10.48 30.141,-10.47 32.707,-10.48 34.832,-10.47 36.57,-10.48 37.868,-10.48 38.711,-10.47 39.097,-10.47 39.008,-10.48 38.457,-10.47 37.434,-10.48 35.957,-10.47 34.05,-10.48 31.71,-10.47 28.99,-10.48 25.91,-10.47 22.51,-10.48 18.83,-10.47 14.89,-10.48 10.78,-10.47 6.55,-10.48 2.21,-10.47 -2.16,-10.48 -6.52,-10.47 -10.79,-10.48 -14.95,-10.47 -18.94,-10.48 -22.68,-10.47 -26.16,-10.48 -29.34,-10.47 -32.17,-10.48 -34.59,-10.47 -36.607,-10.48 -38.172,-10.47 -39.269,-10.48 -39.891,-10.47 -40.012,-10.48 -39.64,-10.47 -38.778,-10.48 -37.425,-10.47 -35.606,-10.48 -33.332,-10.47 -30.652,-10.48 -27.61,-10.47 -24.472,-10.48 -20.723,-10.47 -15.781,-10.48 -10.953,-10.47 -6.828,-10.48 -2.329,-9.06 1.418,-9.96 5.649,-10.47 9.887,-10.48 13.812,-10.47 16.942,-10.48 20.16,-10.47 23.945,-10.47 27.281,-10.48 30.133,-10.48 32.699,-10.47 34.828,-10.48 36.567,-10.47 37.863,-10.48 38.711,-10.47 39.098,-10.48 39.011,-10.47 38.457,-10.47 37.438,-10.48 35.961,-10.47 34.05,-10.48 31.72,-10.48 29,-10.47 25.91,-10.48 22.53,-10.47 18.83,-10.48 14.91,-10.47 10.79,-10.47 6.56,-10.48 2.22,-10.48 -2.15,-10.47 -6.51,-10.48 -10.78,-10.47 -14.94,-10.48 -18.93,-10.469 -22.66,-10.476 -26.16,-10.477 -29.34,-10.472 -32.15,-10.477 -34.59,-10.473 -36.599,-10.476 -38.168,-10.477 -39.27,-10.472 -39.886,-10.477 -40.012,-10.473 -39.645,-10.476 -38.781,-10.477 -37.43,-10.472 -35.609,-10.477 -33.34,-10.473 -30.66,-10.476 -27.617,-10.477 -24.481,-10.472 -20.73,-10.477 -15.797,-10.473 -10.965,-10.476 -6.84,-10.473 -2.336,-9.086 1.414,-9.957 5.649,-10.476 9.883,-10.473 13.808,-10.477 16.942,-10.476 20.16,-10.473 23.945,-10.476 27.278,-10.473 30.132,-10.477 32.7,-10.476 34.828,-10.473 36.566,-10.476 37.863,-10.473 38.711,-10.477 39.094,-10.476 39.012,-10.473 38.457,-10.476 37.437,-10.473 35.967,-10.477 34.05,-10.476 31.72,-10.473 29,-10.476 25.92,-10.473 22.52,-10.477 18.84,-10.476 14.9,-10.473 10.8,-10.476 6.56,-10.473 2.22,-10.477 -2.15,-10.472 -6.5,-10.477 -10.78,-10.476 -14.94,-10.473 -18.93,-10.477 -22.67,-10.472 -26.15,-10.477 -28.73,-10.476 -4.18,-1.442"
             style="fill:none;stroke:#ff0000;stroke-width:4.16667;stroke-linecap:butt;stroke-linejoin:miter;stroke-miterlimit:1;stroke-dasharray:none;stroke-opacity:1"
             id="path1296" /><path
             d="m 846.598,2990.65 v 0 l 25.422,-6.76 39.027,-10.47 38.406,-10.47 37.375,-10.48 35.872,-10.47 33.94,-10.48 31.58,-10.48 28.84,-10.47 25.76,-10.48 22.32,-10.47 18.61,-10.48 14.69,-10.47 10.58,-10.47 6.32,-10.48 1.98,-10.47 -2.39,-10.48 -6.73,-10.47 -11.01,-10.48 -15.15,-10.48 -19.14,-10.47 -22.86,-10.48 -26.33,-10.47 -29.49,-10.47 -32.29,-10.48 -34.69,-10.47 -36.689,-10.48 -38.227,-10.47 -39.301,-10.48 -39.894,-10.48 -39.992,-10.47 -39.594,-10.48 -38.699,-10.47 -37.324,-10.47 -35.473,-10.48 -33.176,-10.47 -30.461,-10.48 -27.367,-10.47 -23.98,-10.48 -20.528,-10.48 -16,-10.47 -10.855,-10.48 -6.602,-10.47 -2.164,-9.13 1.524,-9.57 5.781,-10.47 9.969,-10.48 13.539,-10.47 16.699,-10.48 20.531,-10.47 24.195,-10.48 27.328,-10.47 30.262,-10.48 32.75,-10.47 34.895,-10.48 36.613,-10.47 37.895,-10.48 38.734,-10.47 39.105,-10.48 39.012,-10.47 38.449,-10.47 37.414,-10.48 35.931,-10.48 34.01,-10.47 31.66,-10.48 28.94,-10.47 25.85,-10.48 22.45,-10.47 18.76,-10.48 14.81,-10.47 10.71,-10.47 6.47,-10.48 2.12,-10.48 -2.24,-10.47 -6.59,-10.48 -10.86,-10.47 -15.03,-10.48 -19,-10.47 -22.74,-10.48 -26.22,-10.47 -29.39,-10.47 -32.2,-10.48 -34.62,-10.47 -36.633,-10.48 -38.184,-10.48 -39.273,-10.47 -39.883,-10.48 -39.996,-10.47 -39.613,-10.48 -38.739,-10.47 -37.375,-10.47 -35.543,-10.48 -33.261,-10.47 -30.559,-10.48 -27.473,-10.48 -24.093,-10.47 -20.66,-10.48 -16.157,-10.47 -11.019,-10.48 -6.766,-10.47 -2.246,-8.94 1.449,-9.91 5.664,-10.47 9.891,-10.48 13.477,-10.47 16.632,-10.47 20.457,-10.48 24.129,-10.47 27.266,-10.48 30.215,-10.47 32.703,-10.48 34.859,-10.48 36.578,-10.47 37.879,-10.48 38.723,-10.47 39.101,-10.47 39.02,-10.48 38.461,-10.47 37.441,-10.48 35.958,-10.47 34.05,-10.48 31.72,-10.47 29,-10.48 25.91,-10.48 22.51,-10.47 18.83,-10.47 14.9,-10.48 10.79,-10.47 6.54,-10.48 2.22,-10.47 -2.16,-10.48 -6.51,-10.47 -10.78,-10.48 -14.95,-10.48 -18.93,-10.47 -22.67,-10.47 -26.15,-10.48 -29.34,-10.47 -32.14,-10.48 -34.59,-10.47 -36.59,-10.48 -38.157,-10.47 -39.258,-10.48 -39.875,-10.48 -40,-10.47 -39.625,-10.47 -38.761,-10.48 -37.406,-10.47 -35.583,-10.48 -33.308,-10.47 -30.613,-10.48 -27.539,-10.47 -24.161,-10.48 -20.734,-10.48 -16.246,-10.47 -11.117,-10.47 -6.832,-10.48 -2.325,-9.06 1.422,-9.96 5.645,-10.47 9.883,-10.48 13.465,-10.47 16.628,-10.48 20.446,-10.47 24.121,-10.47 27.258,-10.48 30.203,-10.48 32.699,-10.47 34.852,-10.48 36.578,-10.47 37.875,-10.48 38.718,-10.47 39.106,-10.48 39.016,-10.47 38.464,-10.47 37.446,-10.48 35.965,-10.47 34.05,-10.48 31.73,-10.48 29,-10.47 25.92,-10.48 22.53,-10.47 18.84,-10.48 14.9,-10.47 10.8,-10.47 6.56,-10.48 2.22,-10.48 -2.14,-10.47 -6.5,-10.48 -10.77,-10.47 -14.94,-10.48 -18.91,-10.472 -22.66,-10.473 -26.15,-10.477 -29.32,-10.472 -32.14,-10.477 -34.58,-10.473 -36.589,-10.476 -38.156,-10.477 -39.254,-10.472 -39.875,-10.477 -40,-10.473 -39.625,-10.476 -38.766,-10.477 -37.41,-10.472 -35.586,-10.477 -33.316,-10.473 -30.621,-10.476 -27.547,-10.477 -24.172,-10.472 -20.742,-10.477 -16.262,-10.473 -11.129,-10.476 -6.844,-10.477 -2.332,-9.082 1.418,-9.957 5.645,-10.476 9.879,-10.473 13.465,-10.477 16.625,-10.476 20.445,-10.473 24.117,-10.476 27.258,-10.473 30.203,-10.477 32.699,-10.476 34.852,-10.473 36.578,-10.476 37.871,-10.473 38.723,-10.477 39.101,-10.476 39.02,-10.473 38.465,-10.476 37.441,-10.473 35.971,-10.477 34.05,-10.476 31.73,-10.473 29,-10.476 25.92,-10.473 22.53,-10.477 18.84,-10.476 14.91,-10.473 10.8,-10.476 6.56,-10.473 2.22,-10.477 -2.14,-10.472 -6.49,-10.477 -10.78,-10.476 -14.93,-10.473 -18.91,-10.477 -22.66,-10.472 -26.15,-10.477 -28.72,-10.476 -4.18,-1.442"
             style="fill:none;stroke:#00afaf;stroke-width:4.16667;stroke-linecap:butt;stroke-linejoin:miter;stroke-miterlimit:1;stroke-dasharray:none;stroke-opacity:1"
             id="path1298" /></g></g><g
         id="g1300"><g
           id="g1302"
           clip-path="url(#clipPath1306)"><g
             id="g1308"
             transform="scale(4.16667)"><text
               transform="matrix(0,-1,-1,0,489,420.614)"
               style="font-variant:normal;font-weight:normal;font-size:14px;font-family:Menlo;-inkscape-font-specification:Menlo-Regular;writing-mode:lr-tb;fill:#0eff00;fill-opacity:1;fill-rule:nonzero;stroke:none"
               id="text1312"><tspan
                 x="0 8.4280005 16.855413 25.283415"
                 y="0"
                 id="tspan1310">V(k)</tspan></text></g></g></g><g
         id="g1314"><g
           id="g1316"
           clip-path="url(#clipPath1320)"><path
             d="m 1316.93,2990.65 v 0 l 6.71,-6.8 12.47,-10.47 16.03,-10.48 20.08,-10.47 23.89,-10.48 27.39,-10.47 30.54,-10.48 33.23,-10.47 35.48,-10.48 37.21,-10.47 38.4,-10.47 39.04,-10.48 39.11,-10.48 38.61,-10.47 37.55,-10.48 35.95,-10.47 33.82,-10.48 31.22,-10.47 28.18,-10.48 24.76,-10.47 21,-10.47 16.96,-10.48 12.73,-10.48 8.36,-10.47 3.92,-10.48 -0.49,-10.47 -4.83,-10.48 -9.04,-10.47 -13,-10.48 -16.72,-10.47 -20.09,-10.47 -23.11,-10.48 -25.7,-10.48 -27.89,-10.47 -29.61,-10.48 -30.88,-10.47 -31.69,-10.48 -32.03,-10.47 -31.9,-10.48 -31.49,-10.47 -31.01,-10.47 -30.53,-10.48 -26.3,-9.16 -26.93,-9.52 -29.16,-10.48 -28.51,-10.47 -27.52,-10.48 -26.1,-10.47 -24.22,-10.48 -21.94,-10.47 -19.27,-10.47 -16.2,-10.48 -12.79,-10.48 -9.08,-10.47 -5.13,-10.48 -0.97,-10.47 3.31,-10.48 7.64,-10.47 11.95,-10.48 16.17,-10.47 20.22,-10.47 24.03,-10.48 27.54,-10.48 30.68,-10.47 33.4,-10.48 35.64,-10.47 37.39,-10.48 38.59,-10.47 39.23,-10.48 39.32,-10.47 38.83,-10.47 37.78,-10.48 36.19,-10.48 34.08,-10.47 31.48,-10.48 28.45,-10.47 25.02,-10.48 21.28,-10.47 17.24,-10.48 13,-10.47 8.64,-10.47 4.19,-10.48 -0.23,-10.47 -4.59,-10.48 -8.79,-10.48 -12.78,-10.47 -16.5,-10.48 -19.91,-10.47 -22.93,-10.48 -25.55,-10.47 -27.76,-10.47 -29.49,-10.48 -30.79,-10.47 -31.63,-10.48 -31.98,-10.48 -31.87,-10.47 -31.49,-10.48 -30.99,-10.47 -30.52,-10.48 -25.64,-8.93 -27.97,-9.89 -29.15,-10.48 -28.5,-10.47 -27.51,-10.48 -26.09,-10.47 -24.23,-10.47 -21.95,-10.48 -19.28,-10.47 -16.22,-10.48 -12.82,-10.48 -9.12,-10.47 -5.17,-10.48 -1.01,-10.47 3.26,-10.48 7.58,-10.47 11.91,-10.47 16.12,-10.48 20.18,-10.47 23.99,-10.48 27.51,-10.48 30.65,-10.47 33.38,-10.48 35.63,-10.47 37.39,-10.48 38.6,-10.47 39.26,-10.47 39.35,-10.48 38.87,-10.47 37.84,-10.48 36.25,-10.47 34.15,-10.48 31.56,-10.48 28.54,-10.47 25.12,-10.48 21.38,-10.47 17.34,-10.47 13.12,-10.48 8.74,-10.47 4.31,-10.48 -0.13,-10.47 -4.48,-10.48 -8.69,-10.48 -12.69,-10.47 -16.42,-10.48 -19.82,-10.47 -22.86,-10.47 -25.5,-10.48 -27.69,-10.47 -29.46,-10.48 -30.76,-10.47 -31.6,-10.48 -31.98,-10.48 -31.88,-10.47 -31.48,-10.48 -31,-10.47 -30.53,-10.47 -26.01,-9.07 -28.14,-9.95 -29.14,-10.47 -28.5,-10.48 -27.51,-10.47 -26.09,-10.48 -24.23,-10.47 -21.95,-10.48 -19.28,-10.47 -16.23,-10.48 -12.83,-10.47 -9.12,-10.48 -5.17,-10.47 -1.03,-10.48 3.25,-10.47 7.58,-10.48 11.9,-10.47 16.11,-10.48 20.17,-10.47 23.99,-10.48 27.5,-10.47 30.65,-10.48 33.38,-10.47 35.63,-10.48 37.38,-10.47 38.6,-10.48 39.26,-10.47 39.36,-10.47 38.88,-10.48 37.85,-10.48 36.26,-10.47 34.15,-10.48 31.58,-10.47 28.55,-10.48 25.14,-10.472 21.39,-10.473 17.36,-10.477 13.13,-10.472 8.76,-10.477 4.32,-10.476 -0.1,-10.473 -4.47,-10.477 -8.68,-10.472 -12.67,-10.477 -16.4,-10.476 -19.81,-10.473 -22.85,-10.477 -25.49,-10.472 -27.69,-10.477 -29.45,-10.476 -30.76,-10.473 -31.6,-10.477 -31.97,-10.472 -31.88,-10.477 -31.49,-10.476 -31,-10.473 -30.53,-10.477 -26.07,-9.082 -28.16,-9.957 -29.14,-10.476 -28.5,-10.473 -27.51,-10.477 -26.09,-10.476 -24.22,-10.473 -21.96,-10.476 -19.28,-10.473 -16.23,-10.477 -12.83,-10.476 -9.13,-10.473 -5.17,-10.476 -1.02,-10.473 3.25,-10.477 7.58,-10.476 11.89,-10.473 16.11,-10.476 20.17,-10.473 23.99,-10.477 27.5,-10.476 30.65,-10.473 33.37,-10.476 35.64,-10.473 37.38,-10.477 38.6,-10.476 39.27,-10.473 39.35,-10.476 38.88,-10.473 37.85,-10.477 36.26,-10.476 34.16,-10.473 31.58,-10.476 28.55,-10.473 25.14,-10.477 21.39,-10.472 17.37,-10.477 14.08,-10.476 1.62,-1.442"
             style="fill:none;stroke:#0eff00;stroke-width:4.16667;stroke-linecap:butt;stroke-linejoin:miter;stroke-miterlimit:1;stroke-dasharray:none;stroke-opacity:1"
             id="path1322" /><path
             d="m 1614.14,2990.65 v 0 l -0.05,-6.77 0.14,-10.48 0.53,-10.48 0.98,-10.47 1.44,-10.48 1.86,-10.47 2.28,-10.48 2.67,-10.47 3.01,-10.48 3.32,-10.47 3.59,-10.47 3.79,-10.48 3.95,-10.47 4.05,-10.48 4.08,-10.48 4.07,-10.47 3.98,-10.48 3.85,-10.47 3.65,-10.48 3.41,-10.47 3.11,-10.47 2.77,-10.48 2.39,-10.47 1.98,-10.48 1.55,-10.48 1.1,-10.47 0.63,-10.48 0.17,-10.47 -0.29,-10.48 -0.73,-10.47 -1.16,-10.47 -1.55,-10.48 -1.91,-10.47 -2.24,-10.48 -2.51,-10.48 -2.75,-10.47 -2.93,-10.48 -3.06,-10.47 -3.13,-10.48 -3.14,-10.47 -3.15,-10.47 -3.14,-10.48 -2.75,-9.15 -2.85,-9.54 -3.13,-10.48 -3.12,-10.47 -3.12,-10.47 -3.08,-10.48 -3.03,-10.47 -2.9,-10.48 -2.73,-10.47 -2.5,-10.48 -2.25,-10.48 -1.94,-10.47 -1.6,-10.48 -1.21,-10.47 -0.82,-10.47 -0.38,-10.48 0.07,-10.47 0.51,-10.48 0.97,-10.47 1.43,-10.48 1.85,-10.48 2.27,-10.47 2.66,-10.48 3.01,-10.47 3.31,-10.47 3.58,-10.48 3.79,-10.47 3.94,-10.48 4.05,-10.47 4.09,-10.48 4.07,-10.47 3.99,-10.48 3.86,-10.48 3.66,-10.47 3.42,-10.47 3.13,-10.48 2.78,-10.47 2.41,-10.48 2,-10.47 1.56,-10.48 1.12,-10.47 0.65,-10.48 0.19,-10.48 -0.27,-10.47 -0.72,-10.47 -1.13,-10.48 -1.54,-10.47 -1.9,-10.48 -2.22,-10.47 -2.5,-10.48 -2.74,-10.47 -2.92,-10.48 -3.06,-10.47 -3.12,-10.48 -3.15,-10.47 -3.15,-10.48 -3.14,-10.47 -2.67,-8.93 -2.96,-9.91 -3.13,-10.47 -3.13,-10.48 -3.11,-10.47 -3.09,-10.47 -3.02,-10.48 -2.9,-10.48 -2.73,-10.47 -2.52,-10.48 -2.25,-10.47 -1.94,-10.48 -1.6,-10.47 -1.22,-10.48 -0.82,-10.47 -0.39,-10.47 0.06,-10.48 0.51,-10.48 0.96,-10.47 1.42,-10.48 1.85,-10.47 2.26,-10.48 2.66,-10.47 3,-10.48 3.31,-10.47 3.58,-10.47 3.78,-10.48 3.95,-10.47 4.05,-10.48 4.09,-10.48 4.08,-10.47 3.99,-10.48 3.87,-10.47 3.67,-10.48 3.42,-10.47 3.14,-10.47 2.79,-10.48 2.42,-10.47 2.01,-10.48 1.58,-10.48 1.13,-10.47 0.66,-10.48 0.2,-10.47 -0.26,-10.48 -0.71,-10.47 -1.12,-10.47 -1.53,-10.48 -1.89,-10.47 -2.21,-10.48 -2.5,-10.48 -2.73,-10.47 -2.92,-10.48 -3.05,-10.47 -3.12,-10.48 -3.15,-10.47 -3.14,-10.47 -3.15,-10.48 -2.71,-9.06 -2.97,-9.96 -3.13,-10.47 -3.12,-10.48 -3.12,-10.47 -3.08,-10.48 -3.03,-10.47 -2.9,-10.47 -2.73,-10.48 -2.5,-10.48 -2.25,-10.47 -1.95,-10.48 -1.6,-10.47 -1.22,-10.48 -0.82,-10.47 -0.38,-10.48 0.05,-10.47 0.51,-10.47 0.97,-10.48 1.42,-10.48 1.85,-10.47 2.26,-10.48 2.66,-10.47 3,-10.48 3.32,-10.47 3.57,-10.48 3.79,-10.47 3.95,-10.47 4.05,-10.48 4.1,-10.48 4.07,-10.47 4,-10.48 3.87,-10.47 3.67,-10.48 3.43,-10.472 3.14,-10.473 2.79,-10.477 2.43,-10.472 2.01,-10.477 1.58,-10.476 1.13,-10.473 0.67,-10.477 0.2,-10.472 -0.25,-10.477 -0.71,-10.476 -1.12,-10.473 -1.52,-10.477 -1.89,-10.472 -2.21,-10.477 -2.5,-10.473 -2.73,-10.476 -2.91,-10.477 -3.05,-10.472 -3.12,-10.477 -3.15,-10.473 -3.15,-10.476 -3.14,-10.477 -2.71,-9.082 -2.98,-9.957 -3.13,-10.476 -3.12,-10.473 -3.11,-10.477 -3.09,-10.476 -3.02,-10.473 -2.89,-10.476 -2.73,-10.473 -2.51,-10.477 -2.25,-10.476 -1.94,-10.473 -1.6,-10.476 -1.22,-10.473 -0.82,-10.477 -0.38,-10.476 0.05,-10.473 0.52,-10.476 0.97,-10.473 1.42,-10.477 1.85,-10.476 2.27,-10.473 2.65,-10.476 3,-10.473 3.32,-10.477 3.58,-10.476 3.79,-10.473 3.95,-10.476 4.06,-10.473 4.09,-10.477 4.08,-10.472 4,-10.477 3.87,-10.476 3.67,-10.473 3.43,-10.477 3.14,-10.472 2.8,-10.477 2.52,-10.476 0.31,-1.442"
             style="fill:none;stroke:#0000ff;stroke-width:4.16667;stroke-linecap:butt;stroke-linejoin:miter;stroke-miterlimit:1;stroke-dasharray:none;stroke-opacity:1"
             id="path1324" /><path
             d="m 1643.79,2990.65 v 0 l -0.01,-6.74 v -10.48 l 0.04,-10.48 0.09,-10.47 0.13,-10.48 0.17,-10.47 0.22,-10.48 0.26,-10.47 0.29,-10.47 0.33,-10.48 0.35,-10.47 0.38,-10.48 0.39,-10.48 0.4,-10.47 0.41,-10.48 0.41,-10.47 0.4,-10.48 0.39,-10.47 0.37,-10.47 0.35,-10.48 0.32,-10.47 0.28,-10.48 0.25,-10.48 0.21,-10.47 0.17,-10.48 0.12,-10.47 0.08,-10.48 0.03,-10.47 -0.02,-10.47 -0.06,-10.48 -0.11,-10.47 -0.14,-10.48 -0.18,-10.47 -0.22,-10.48 -0.24,-10.48 -0.27,-10.47 -0.29,-10.48 -0.3,-10.47 -0.31,-10.47 -0.31,-10.48 -0.31,-10.47 -0.32,-10.48 -0.27,-9.13 -0.29,-9.57 -0.31,-10.48 -0.31,-10.47 -0.32,-10.48 -0.31,-10.47 -0.3,-10.47 -0.3,-10.48 -0.28,-10.48 -0.26,-10.47 -0.23,-10.48 -0.2,-10.47 -0.17,-10.48 -0.13,-10.47 -0.09,-10.48 -0.05,-10.47 -0.01,-10.47 0.04,-10.48 0.09,-10.48 0.13,-10.47 0.17,-10.48 0.22,-10.47 0.26,-10.48 0.29,-10.47 0.32,-10.48 0.35,-10.47 0.38,-10.47 0.39,-10.48 0.4,-10.47 0.41,-10.48 0.41,-10.48 0.4,-10.47 0.39,-10.48 0.37,-10.47 0.35,-10.48 0.32,-10.47 0.29,-10.47 0.25,-10.48 0.21,-10.47 0.17,-10.48 0.12,-10.48 0.08,-10.47 0.03,-10.48 -0.01,-10.47 -0.06,-10.48 -0.11,-10.47 -0.14,-10.47 -0.18,-10.48 -0.21,-10.47 -0.25,-10.48 -0.27,-10.48 -0.28,-10.47 -0.3,-10.48 -0.31,-10.47 -0.32,-10.48 -0.31,-10.47 -0.32,-10.47 -0.26,-8.95 -0.3,-9.9 -0.31,-10.48 -0.31,-10.48 -0.32,-10.47 -0.31,-10.47 -0.3,-10.48 -0.3,-10.47 -0.28,-10.48 -0.25,-10.47 -0.24,-10.48 -0.2,-10.47 -0.17,-10.48 -0.13,-10.48 -0.1,-10.47 -0.05,-10.47 v -10.48 l 0.04,-10.47 0.08,-10.48 0.13,-10.47 0.17,-10.48 0.22,-10.47 0.26,-10.48 0.29,-10.47 0.32,-10.48 0.35,-10.47 0.37,-10.48 0.4,-10.47 0.4,-10.48 0.41,-10.47 0.41,-10.48 0.4,-10.47 0.39,-10.48 0.37,-10.47 0.35,-10.48 0.32,-10.47 0.29,-10.48 0.25,-10.47 0.21,-10.48 0.17,-10.47 0.13,-10.48 0.07,-10.47 0.03,-10.48 -0.01,-10.47 -0.06,-10.48 -0.1,-10.47 -0.14,-10.48 -0.18,-10.47 -0.21,-10.48 -0.25,-10.47 -0.26,-10.48 -0.29,-10.47 -0.3,-10.48 -0.31,-10.47 -0.32,-10.48 -0.31,-10.47 -0.31,-10.48 -0.27,-9.06 -0.3,-9.96 -0.31,-10.47 -0.32,-10.48 -0.31,-10.47 -0.31,-10.48 -0.31,-10.47 -0.29,-10.47 -0.28,-10.48 -0.26,-10.48 -0.23,-10.47 -0.2,-10.48 -0.18,-10.47 -0.13,-10.48 -0.09,-10.47 -0.05,-10.48 -0.01,-10.47 0.04,-10.47 0.09,-10.48 0.13,-10.47 0.17,-10.48 0.22,-10.48 0.25,-10.47 0.29,-10.48 0.32,-10.47 0.36,-10.48 0.37,-10.47 0.39,-10.47 0.4,-10.48 0.41,-10.48 0.41,-10.47 0.4,-10.48 0.39,-10.47 0.37,-10.48 0.36,-10.469 0.32,-10.476 0.28,-10.477 0.26,-10.472 0.21,-10.477 0.17,-10.473 0.12,-10.476 0.08,-10.477 0.03,-10.472 -0.01,-10.477 -0.06,-10.473 -0.1,-10.476 -0.14,-10.477 -0.18,-10.472 -0.22,-10.477 -0.24,-10.473 -0.27,-10.476 -0.28,-10.477 -0.3,-10.472 -0.32,-10.477 -0.31,-10.473 -0.31,-10.476 -0.31,-10.473 -0.28,-9.086 -0.29,-9.957 -0.32,-10.476 -0.31,-10.473 -0.31,-10.477 -0.31,-10.476 -0.31,-10.473 -0.29,-10.476 -0.28,-10.473 -0.26,-10.477 -0.23,-10.476 -0.21,-10.473 -0.17,-10.476 -0.13,-10.473 -0.09,-10.477 -0.05,-10.476 -0.01,-10.473 0.04,-10.476 0.08,-10.473 0.13,-10.477 0.18,-10.476 0.21,-10.473 0.26,-10.476 0.29,-10.473 0.32,-10.477 0.35,-10.476 0.38,-10.473 0.39,-10.476 0.4,-10.473 0.41,-10.477 0.41,-10.472 0.4,-10.477 0.39,-10.476 0.37,-10.473 0.35,-10.477 0.32,-10.472 0.29,-10.477 0.26,-10.476 0.04,-1.442"
             style="fill:none;stroke:#ff0000;stroke-width:4.16667;stroke-linecap:butt;stroke-linejoin:miter;stroke-miterlimit:1;stroke-dasharray:none;stroke-opacity:1"
             id="path1326" /><path
             d="m 1599.24,2990.65 v 0 -17.23 l 0.01,-10.47 0.01,-10.48 0.01,-10.47 0.02,-10.48 0.03,-10.48 0.02,-10.47 0.04,-10.48 0.03,-10.47 0.04,-10.48 0.03,-10.47 0.05,-10.47 0.04,-10.48 0.04,-10.47 0.04,-10.48 0.05,-10.47 0.04,-10.48 0.04,-10.48 0.03,-10.47 0.04,-10.48 0.03,-10.47 0.03,-10.47 0.02,-10.48 0.02,-10.47 0.01,-10.48 0.01,-10.47 0.01,-10.48 v -10.48 l -0.01,-10.47 -0.01,-10.48 -0.01,-10.47 -0.02,-10.47 -0.02,-10.48 -0.02,-10.47 -0.02,-10.48 -0.03,-10.47 -0.03,-10.48 -0.03,-10.48 -0.03,-10.47 -0.03,-10.48 -0.03,-10.47 -0.03,-9.13 -0.03,-9.57 -0.03,-10.47 -0.03,-10.48 -0.03,-10.47 -0.03,-10.48 -0.03,-10.47 -0.03,-10.48 -0.02,-10.47 -0.03,-10.48 -0.02,-10.47 -0.02,-10.48 -0.01,-10.47 -0.01,-10.48 -0.01,-10.47 -0.01,-10.48 v -10.47 l 0.01,-10.47 0.01,-10.48 0.02,-10.48 0.02,-10.47 0.02,-10.48 0.03,-10.47 0.03,-10.48 0.03,-10.47 0.04,-10.48 0.04,-10.47 0.04,-10.47 0.04,-10.48 0.05,-10.48 0.04,-10.47 0.04,-10.48 0.04,-10.47 0.04,-10.48 0.04,-10.47 0.03,-10.48 0.03,-10.47 0.03,-10.47 0.02,-10.48 0.02,-10.47 0.02,-10.48 v -10.48 l 0.01,-10.47 v -10.48 l -0.01,-10.47 v -10.48 l -0.01,-10.47 -0.02,-10.47 -0.02,-10.48 -0.02,-10.47 -0.03,-10.48 -0.02,-10.48 -0.04,-10.47 -0.02,-10.48 -0.03,-10.47 -0.04,-10.48 -0.03,-10.47 -0.02,-8.94 -0.03,-9.91 -0.03,-10.47 -0.03,-10.48 -0.03,-10.47 -0.03,-10.47 -0.03,-10.48 -0.03,-10.47 -0.03,-10.48 -0.02,-10.47 -0.03,-10.48 -0.01,-10.48 -0.02,-10.47 -0.01,-10.48 -0.01,-10.47 v -10.47 -10.48 -10.47 l 0.02,-10.48 0.01,-10.47 0.02,-10.48 0.02,-10.47 0.03,-10.48 0.03,-10.48 0.04,-10.47 0.03,-10.47 0.04,-10.48 0.04,-10.47 0.04,-10.48 0.05,-10.47 0.04,-10.48 0.04,-10.47 0.05,-10.48 0.04,-10.48 0.03,-10.47 0.04,-10.47 0.03,-10.48 0.02,-10.47 0.03,-10.48 0.02,-10.47 0.01,-10.48 0.01,-10.47 v -10.48 -10.48 -10.47 l -0.01,-10.47 -0.01,-10.48 -0.01,-10.47 -0.02,-10.48 -0.03,-10.47 -0.02,-10.48 -0.03,-10.47 -0.03,-10.48 -0.03,-10.48 -0.03,-10.47 -0.03,-10.47 -0.03,-10.48 -0.03,-9.06 -0.03,-9.96 -0.03,-10.47 -0.03,-10.48 -0.03,-10.47 -0.03,-10.48 -0.03,-10.47 -0.02,-10.47 -0.03,-10.48 -0.03,-10.48 -0.02,-10.47 -0.02,-10.48 -0.01,-10.47 -0.02,-10.48 v -10.47 -10.48 -10.47 -10.47 l 0.01,-10.48 0.02,-10.47 0.01,-10.48 0.03,-10.48 0.02,-10.47 0.04,-10.48 0.03,-10.47 0.04,-10.48 0.04,-10.47 0.04,-10.47 0.04,-10.48 0.04,-10.48 0.05,-10.47 0.04,-10.48 0.04,-10.47 0.04,-10.48 0.04,-10.472 0.03,-10.473 0.03,-10.477 0.03,-10.472 0.02,-10.477 0.02,-10.473 0.01,-10.476 0.01,-10.477 0.01,-10.472 v -10.477 -10.473 l -0.01,-10.476 -0.01,-10.477 -0.02,-10.472 -0.02,-10.477 -0.02,-10.473 -0.03,-10.476 -0.03,-10.477 -0.02,-10.472 -0.03,-10.477 -0.04,-10.473 -0.03,-10.476 -0.02,-10.477 -0.03,-9.082 -0.03,-9.957 -0.03,-10.476 -0.03,-10.473 -0.03,-10.477 -0.03,-10.476 -0.03,-10.473 -0.03,-10.476 -0.03,-10.473 -0.02,-10.477 -0.02,-10.476 -0.02,-10.473 -0.02,-10.476 -0.01,-10.473 -0.01,-10.477 v -10.476 -10.473 l 0.01,-10.476 0.01,-10.473 0.01,-10.477 0.02,-10.476 0.02,-10.473 0.03,-10.476 0.03,-10.473 0.04,-10.477 0.03,-10.476 0.04,-10.473 0.04,-10.476 0.05,-10.473 0.04,-10.477 0.04,-10.472 0.04,-10.477 0.04,-10.476 0.04,-10.473 0.04,-10.477 0.03,-10.472 0.03,-10.477 0.03,-10.476 0.01,-1.442"
             style="fill:none;stroke:#00afaf;stroke-width:4.16667;stroke-linecap:butt;stroke-linejoin:miter;stroke-miterlimit:1;stroke-dasharray:none;stroke-opacity:1"
             id="path1328" /></g></g></g></g></svg>
