<?xml version="1.0" encoding="UTF-8" standalone="no"?>
<svg
   xmlns:dc="http://purl.org/dc/elements/1.1/"
   xmlns:cc="http://creativecommons.org/ns#"
   xmlns:rdf="http://www.w3.org/1999/02/22-rdf-syntax-ns#"
   xmlns:svg="http://www.w3.org/2000/svg"
   xmlns="http://www.w3.org/2000/svg"
   version="1.1"
   id="svg1366"
   xml:space="preserve"
   width="618.1449"
   height="361.33768"
   viewBox="0 0 927.21733 542.00654"><metadata
     id="metadata1372"><rdf:RDF><cc:Work
         rdf:about=""><dc:format>image/svg+xml</dc:format><dc:type
           rdf:resource="http://purl.org/dc/dcmitype/StillImage" /><dc:title></dc:title></cc:Work></rdf:RDF></metadata><defs
     id="defs1370"><clipPath
       clipPathUnits="userSpaceOnUse"
       id="clipPath1384"><path
         d="m 375,299.582 h 1729.17 v 2908.34 H 375 Z"
         id="path1382" /></clipPath><clipPath
       clipPathUnits="userSpaceOnUse"
       id="clipPath1606"><path
         d="m 500,370.418 h 720.832 v 2620.83 H 500 Z"
         id="path1604" /></clipPath><clipPath
       clipPathUnits="userSpaceOnUse"
       id="clipPath1616"><path
         d="m 375,299.582 h 1729.17 v 2908.34 H 375 Z"
         id="path1614" /></clipPath><clipPath
       clipPathUnits="userSpaceOnUse"
       id="clipPath1630"><path
         d="m 1300,370.418 h 720.832 v 2620.83 H 1300 Z"
         id="path1628" /></clipPath></defs><g
     id="g1374"
     transform="matrix(0,-1.3333333,-1.3333333,0,1025.6049,667.07604)"><g
       id="g1376"
       transform="scale(0.24)"><g
         id="g1378"><g
           id="g1380"
           clip-path="url(#clipPath1384)"><path
             d="M 500,2990.65 H 458.332"
             style="fill:none;stroke:#969696;stroke-width:4.16667;stroke-linecap:butt;stroke-linejoin:miter;stroke-miterlimit:10;stroke-dasharray:none;stroke-opacity:1"
             id="path1386" /><g
             id="g1388"
             transform="scale(4.16667)"><text
               transform="matrix(0,-1,-1,0,94.0003,730.4)"
               style="font-variant:normal;font-weight:normal;font-size:14px;font-family:Menlo;-inkscape-font-specification:Menlo-Regular;writing-mode:lr-tb;fill:#969696;fill-opacity:1;fill-rule:nonzero;stroke:none"
               id="text1392"><tspan
                 x="0 8.4280005 16.855413"
                 y="0"
                 id="tspan1390">0ms</tspan></text></g><path
             d="M 500,2728.78 H 458.332"
             style="fill:none;stroke:#969696;stroke-width:4.16667;stroke-linecap:butt;stroke-linejoin:miter;stroke-miterlimit:10;stroke-dasharray:none;stroke-opacity:1"
             id="path1394" /><g
             id="g1396"
             transform="scale(4.16667)"><text
               transform="matrix(0,-1,-1,0,94.0003,667.55)"
               style="font-variant:normal;font-weight:normal;font-size:14px;font-family:Menlo;-inkscape-font-specification:Menlo-Regular;writing-mode:lr-tb;fill:#969696;fill-opacity:1;fill-rule:nonzero;stroke:none"
               id="text1400"><tspan
                 x="0 8.4280005 16.855413"
                 y="0"
                 id="tspan1398">1ms</tspan></text></g><path
             d="M 500,2466.9 H 458.332"
             style="fill:none;stroke:#969696;stroke-width:4.16667;stroke-linecap:butt;stroke-linejoin:miter;stroke-miterlimit:10;stroke-dasharray:none;stroke-opacity:1"
             id="path1402" /><g
             id="g1404"
             transform="scale(4.16667)"><text
               transform="matrix(0,-1,-1,0,94.0003,604.7)"
               style="font-variant:normal;font-weight:normal;font-size:14px;font-family:Menlo;-inkscape-font-specification:Menlo-Regular;writing-mode:lr-tb;fill:#969696;fill-opacity:1;fill-rule:nonzero;stroke:none"
               id="text1408"><tspan
                 x="0 8.4280005 16.855413"
                 y="0"
                 id="tspan1406">2ms</tspan></text></g><path
             d="M 500,2205.03 H 458.332"
             style="fill:none;stroke:#969696;stroke-width:4.16667;stroke-linecap:butt;stroke-linejoin:miter;stroke-miterlimit:10;stroke-dasharray:none;stroke-opacity:1"
             id="path1410" /><g
             id="g1412"
             transform="scale(4.16667)"><text
               transform="matrix(0,-1,-1,0,94.0003,541.85)"
               style="font-variant:normal;font-weight:normal;font-size:14px;font-family:Menlo;-inkscape-font-specification:Menlo-Regular;writing-mode:lr-tb;fill:#969696;fill-opacity:1;fill-rule:nonzero;stroke:none"
               id="text1416"><tspan
                 x="0 8.4274139 16.855413"
                 y="0"
                 id="tspan1414">3ms</tspan></text></g><path
             d="M 500,1943.15 H 458.332"
             style="fill:none;stroke:#969696;stroke-width:4.16667;stroke-linecap:butt;stroke-linejoin:miter;stroke-miterlimit:10;stroke-dasharray:none;stroke-opacity:1"
             id="path1418" /><g
             id="g1420"
             transform="scale(4.16667)"><text
               transform="matrix(0,-1,-1,0,94.0003,479)"
               style="font-variant:normal;font-weight:normal;font-size:14px;font-family:Menlo;-inkscape-font-specification:Menlo-Regular;writing-mode:lr-tb;fill:#969696;fill-opacity:1;fill-rule:nonzero;stroke:none"
               id="text1424"><tspan
                 x="0 8.4274139 16.855413"
                 y="0"
                 id="tspan1422">4ms</tspan></text></g><path
             d="M 500,1681.28 H 458.332"
             style="fill:none;stroke:#969696;stroke-width:4.16667;stroke-linecap:butt;stroke-linejoin:miter;stroke-miterlimit:10;stroke-dasharray:none;stroke-opacity:1"
             id="path1426" /><g
             id="g1428"
             transform="scale(4.16667)"><text
               transform="matrix(0,-1,-1,0,94.0003,416.15)"
               style="font-variant:normal;font-weight:normal;font-size:14px;font-family:Menlo;-inkscape-font-specification:Menlo-Regular;writing-mode:lr-tb;fill:#969696;fill-opacity:1;fill-rule:nonzero;stroke:none"
               id="text1432"><tspan
                 x="0 8.4274139 16.855413"
                 y="0"
                 id="tspan1430">5ms</tspan></text></g><path
             d="M 500,1419.41 H 458.332"
             style="fill:none;stroke:#969696;stroke-width:4.16667;stroke-linecap:butt;stroke-linejoin:miter;stroke-miterlimit:10;stroke-dasharray:none;stroke-opacity:1"
             id="path1434" /><g
             id="g1436"
             transform="scale(4.16667)"><text
               transform="matrix(0,-1,-1,0,94.0003,353.3)"
               style="font-variant:normal;font-weight:normal;font-size:14px;font-family:Menlo;-inkscape-font-specification:Menlo-Regular;writing-mode:lr-tb;fill:#969696;fill-opacity:1;fill-rule:nonzero;stroke:none"
               id="text1440"><tspan
                 x="0 8.4274139 16.855413"
                 y="0"
                 id="tspan1438">6ms</tspan></text></g><path
             d="M 500,1157.53 H 458.332"
             style="fill:none;stroke:#969696;stroke-width:4.16667;stroke-linecap:butt;stroke-linejoin:miter;stroke-miterlimit:10;stroke-dasharray:none;stroke-opacity:1"
             id="path1442" /><g
             id="g1444"
             transform="scale(4.16667)"><text
               transform="matrix(0,-1,-1,0,94.0003,290.451)"
               style="font-variant:normal;font-weight:normal;font-size:14px;font-family:Menlo;-inkscape-font-specification:Menlo-Regular;writing-mode:lr-tb;fill:#969696;fill-opacity:1;fill-rule:nonzero;stroke:none"
               id="text1448"><tspan
                 x="0 8.4280005 16.856001"
                 y="0"
                 id="tspan1446">7ms</tspan></text></g><path
             d="M 500,895.656 H 458.332"
             style="fill:none;stroke:#969696;stroke-width:4.16667;stroke-linecap:butt;stroke-linejoin:miter;stroke-miterlimit:10;stroke-dasharray:none;stroke-opacity:1"
             id="path1450" /><g
             id="g1452"
             transform="scale(4.16667)"><text
               transform="matrix(0,-1,-1,0,94.0003,227.601)"
               style="font-variant:normal;font-weight:normal;font-size:14px;font-family:Menlo;-inkscape-font-specification:Menlo-Regular;writing-mode:lr-tb;fill:#969696;fill-opacity:1;fill-rule:nonzero;stroke:none"
               id="text1456"><tspan
                 x="0 8.4280005 16.856001"
                 y="0"
                 id="tspan1454">8ms</tspan></text></g><path
             d="M 500,633.781 H 458.332"
             style="fill:none;stroke:#969696;stroke-width:4.16667;stroke-linecap:butt;stroke-linejoin:miter;stroke-miterlimit:10;stroke-dasharray:none;stroke-opacity:1"
             id="path1458" /><g
             id="g1460"
             transform="scale(4.16667)"><text
               transform="matrix(0,-1,-1,0,94.0003,164.751)"
               style="font-variant:normal;font-weight:normal;font-size:14px;font-family:Menlo;-inkscape-font-specification:Menlo-Regular;writing-mode:lr-tb;fill:#969696;fill-opacity:1;fill-rule:nonzero;stroke:none"
               id="text1464"><tspan
                 x="0 8.4280005 16.855413"
                 y="0"
                 id="tspan1462">9ms</tspan></text></g><path
             d="M 500,371.906 H 458.332"
             style="fill:none;stroke:#969696;stroke-width:4.16667;stroke-linecap:butt;stroke-linejoin:miter;stroke-miterlimit:10;stroke-dasharray:none;stroke-opacity:1"
             id="path1466" /><g
             id="g1468"
             transform="scale(4.16667)"><text
               transform="matrix(0,-1,-1,0,94.0003,106.115)"
               style="font-variant:normal;font-weight:normal;font-size:14px;font-family:Menlo;-inkscape-font-specification:Menlo-Regular;writing-mode:lr-tb;fill:#969696;fill-opacity:1;fill-rule:nonzero;stroke:none"
               id="text1474"><tspan
                 x="0 8.4274139 16.855413 25.283415"
                 y="0"
                 id="tspan1470">10ms</tspan><tspan
                 x="-630.07001 -638.49908 -646.92719 -655.35626"
                 y="-20"
                 id="tspan1472">V041</tspan></text></g><path
             d="m 500,2990.65 v 41.67"
             style="fill:none;stroke:#969696;stroke-width:4.16667;stroke-linecap:butt;stroke-linejoin:miter;stroke-miterlimit:10;stroke-dasharray:none;stroke-opacity:1"
             id="path1476" /><g
             id="g1478"
             transform="scale(4.16667)"><text
               transform="matrix(0,-1,-1,0,135.563,736.185)"
               style="font-variant:normal;font-weight:normal;font-size:14px;font-family:Menlo;-inkscape-font-specification:Menlo-Regular;writing-mode:lr-tb;fill:#969696;fill-opacity:1;fill-rule:nonzero;stroke:none"
               id="text1482"><tspan
                 x="0 -8.42906 -16.857189 -25.286249"
                 y="0"
                 id="tspan1480">V061</tspan></text></g><path
             d="m 589.844,2990.65 v 41.67"
             style="fill:none;stroke:#969696;stroke-width:4.16667;stroke-linecap:butt;stroke-linejoin:miter;stroke-miterlimit:10;stroke-dasharray:none;stroke-opacity:1"
             id="path1484" /><g
             id="g1486"
             transform="scale(4.16667)"><text
               transform="matrix(0,-1,-1,0,157.125,736.185)"
               style="font-variant:normal;font-weight:normal;font-size:14px;font-family:Menlo;-inkscape-font-specification:Menlo-Regular;writing-mode:lr-tb;fill:#969696;fill-opacity:1;fill-rule:nonzero;stroke:none"
               id="text1490"><tspan
                 x="0 -8.42906 -16.857189 -25.286249"
                 y="0"
                 id="tspan1488">V081</tspan></text></g><path
             d="m 679.688,2990.65 v 41.67"
             style="fill:none;stroke:#969696;stroke-width:4.16667;stroke-linecap:butt;stroke-linejoin:miter;stroke-miterlimit:10;stroke-dasharray:none;stroke-opacity:1"
             id="path1492" /><g
             id="g1494"
             transform="scale(4.16667)"><text
               transform="matrix(0,-1,-1,0,178.688,736.185)"
               style="font-variant:normal;font-weight:normal;font-size:14px;font-family:Menlo;-inkscape-font-specification:Menlo-Regular;writing-mode:lr-tb;fill:#969696;fill-opacity:1;fill-rule:nonzero;stroke:none"
               id="text1498"><tspan
                 x="0 -8.42906 -16.857189 -25.286249"
                 y="0"
                 id="tspan1496">V002</tspan></text></g><path
             d="m 769.531,2990.65 v 41.67"
             style="fill:none;stroke:#969696;stroke-width:4.16667;stroke-linecap:butt;stroke-linejoin:miter;stroke-miterlimit:10;stroke-dasharray:none;stroke-opacity:1"
             id="path1500" /><g
             id="g1502"
             transform="scale(4.16667)"><text
               transform="matrix(0,-1,-1,0,200.25,736.185)"
               style="font-variant:normal;font-weight:normal;font-size:14px;font-family:Menlo;-inkscape-font-specification:Menlo-Regular;writing-mode:lr-tb;fill:#969696;fill-opacity:1;fill-rule:nonzero;stroke:none"
               id="text1506"><tspan
                 x="0 -8.42906 -16.857189 -25.286249"
                 y="0"
                 id="tspan1504">V022</tspan></text></g><path
             d="m 859.375,2990.65 v 41.67"
             style="fill:none;stroke:#969696;stroke-width:4.16667;stroke-linecap:butt;stroke-linejoin:miter;stroke-miterlimit:10;stroke-dasharray:none;stroke-opacity:1"
             id="path1508" /><g
             id="g1510"
             transform="scale(4.16667)"><text
               transform="matrix(0,-1,-1,0,221.813,736.185)"
               style="font-variant:normal;font-weight:normal;font-size:14px;font-family:Menlo;-inkscape-font-specification:Menlo-Regular;writing-mode:lr-tb;fill:#969696;fill-opacity:1;fill-rule:nonzero;stroke:none"
               id="text1514"><tspan
                 x="0 -8.42906 -16.857189 -25.286249"
                 y="0"
                 id="tspan1512">V042</tspan></text></g><path
             d="m 949.219,2990.65 v 41.67"
             style="fill:none;stroke:#969696;stroke-width:4.16667;stroke-linecap:butt;stroke-linejoin:miter;stroke-miterlimit:10;stroke-dasharray:none;stroke-opacity:1"
             id="path1516" /><g
             id="g1518"
             transform="scale(4.16667)"><text
               transform="matrix(0,-1,-1,0,243.375,736.185)"
               style="font-variant:normal;font-weight:normal;font-size:14px;font-family:Menlo;-inkscape-font-specification:Menlo-Regular;writing-mode:lr-tb;fill:#969696;fill-opacity:1;fill-rule:nonzero;stroke:none"
               id="text1522"><tspan
                 x="0 -8.42906 -16.857189 -25.286249"
                 y="0"
                 id="tspan1520">V062</tspan></text></g><path
             d="m 1039.06,2990.65 v 41.67"
             style="fill:none;stroke:#969696;stroke-width:4.16667;stroke-linecap:butt;stroke-linejoin:miter;stroke-miterlimit:10;stroke-dasharray:none;stroke-opacity:1"
             id="path1524" /><g
             id="g1526"
             transform="scale(4.16667)"><text
               transform="matrix(0,-1,-1,0,264.938,736.185)"
               style="font-variant:normal;font-weight:normal;font-size:14px;font-family:Menlo;-inkscape-font-specification:Menlo-Regular;writing-mode:lr-tb;fill:#969696;fill-opacity:1;fill-rule:nonzero;stroke:none"
               id="text1530"><tspan
                 x="0 -8.42906 -16.857189 -25.286249"
                 y="0"
                 id="tspan1528">V082</tspan></text></g><path
             d="m 1128.91,2990.65 v 41.67"
             style="fill:none;stroke:#969696;stroke-width:4.16667;stroke-linecap:butt;stroke-linejoin:miter;stroke-miterlimit:10;stroke-dasharray:none;stroke-opacity:1"
             id="path1532" /><g
             id="g1534"
             transform="scale(4.16667)"><text
               transform="matrix(0,-1,-1,0,286.5,736.185)"
               style="font-variant:normal;font-weight:normal;font-size:14px;font-family:Menlo;-inkscape-font-specification:Menlo-Regular;writing-mode:lr-tb;fill:#969696;fill-opacity:1;fill-rule:nonzero;stroke:none"
               id="text1538"><tspan
                 x="0 -8.42906 -16.857189 -25.286249"
                 y="0"
                 id="tspan1536">V003</tspan></text></g><path
             d="m 1218.75,2990.65 v 41.67"
             style="fill:none;stroke:#969696;stroke-width:4.16667;stroke-linecap:butt;stroke-linejoin:miter;stroke-miterlimit:10;stroke-dasharray:none;stroke-opacity:1"
             id="path1540" /><path
             d="m 500,371.906 h 718.75 v 2618.75 H 500 Z"
             style="fill:none;stroke:#969696;stroke-width:4.16667;stroke-linecap:butt;stroke-linejoin:miter;stroke-miterlimit:10;stroke-dasharray:none;stroke-opacity:1"
             id="path1542" /><g
             id="g1544"
             transform="scale(4.16667)"><text
               transform="matrix(0,-1,-1,0,306.5,736.185)"
               style="font-variant:normal;font-weight:normal;font-size:14px;font-family:Menlo;-inkscape-font-specification:Menlo-Regular;writing-mode:lr-tb;fill:#afafaf;fill-opacity:1;fill-rule:nonzero;stroke:none"
               id="text1548"><tspan
                 x="0 -8.42906 -16.857189 -25.286249 -33.715309"
                 y="0"
                 id="tspan1546">V0.2-</tspan></text></g><path
             d="m 1302.08,2990.65 v 41.67"
             style="fill:none;stroke:#afafaf;stroke-width:4.16667;stroke-linecap:butt;stroke-linejoin:miter;stroke-miterlimit:10;stroke-dasharray:none;stroke-opacity:1"
             id="path1550" /><g
             id="g1552"
             transform="scale(4.16667)"><text
               transform="matrix(0,-1,-1,0,341,736.185)"
               style="font-variant:normal;font-weight:normal;font-size:14px;font-family:Menlo;-inkscape-font-specification:Menlo-Regular;writing-mode:lr-tb;fill:#afafaf;fill-opacity:1;fill-rule:nonzero;stroke:none"
               id="text1556"><tspan
                 x="0 -8.42906 -16.857189 -25.286249 -33.715309"
                 y="0"
                 id="tspan1554">V2.1-</tspan></text></g><path
             d="m 1445.83,2990.65 v 41.67"
             style="fill:none;stroke:#afafaf;stroke-width:4.16667;stroke-linecap:butt;stroke-linejoin:miter;stroke-miterlimit:10;stroke-dasharray:none;stroke-opacity:1"
             id="path1558" /><g
             id="g1560"
             transform="scale(4.16667)"><text
               transform="matrix(0,-1,-1,0,375.5,736.185)"
               style="font-variant:normal;font-weight:normal;font-size:14px;font-family:Menlo;-inkscape-font-specification:Menlo-Regular;writing-mode:lr-tb;fill:#afafaf;fill-opacity:1;fill-rule:nonzero;stroke:none"
               id="text1564"><tspan
                 x="0 -8.42906 -16.857189 -25.286249 -33.715309"
                 y="0"
                 id="tspan1562">V4.0-</tspan></text></g><path
             d="m 1589.58,2990.65 v 41.67"
             style="fill:none;stroke:#afafaf;stroke-width:4.16667;stroke-linecap:butt;stroke-linejoin:miter;stroke-miterlimit:10;stroke-dasharray:none;stroke-opacity:1"
             id="path1566" /><g
             id="g1568"
             transform="scale(4.16667)"><text
               transform="matrix(0,-1,-1,0,410,736.185)"
               style="font-variant:normal;font-weight:normal;font-size:14px;font-family:Menlo;-inkscape-font-specification:Menlo-Regular;writing-mode:lr-tb;fill:#afafaf;fill-opacity:1;fill-rule:nonzero;stroke:none"
               id="text1572"><tspan
                 x="0 -8.42906 -16.857189 -25.286249"
                 y="0"
                 id="tspan1570">V4.0</tspan></text></g><path
             d="m 1733.33,2990.65 v 41.67"
             style="fill:none;stroke:#afafaf;stroke-width:4.16667;stroke-linecap:butt;stroke-linejoin:miter;stroke-miterlimit:10;stroke-dasharray:none;stroke-opacity:1"
             id="path1574" /><g
             id="g1576"
             transform="scale(4.16667)"><text
               transform="matrix(0,-1,-1,0,444.5,736.185)"
               style="font-variant:normal;font-weight:normal;font-size:14px;font-family:Menlo;-inkscape-font-specification:Menlo-Regular;writing-mode:lr-tb;fill:#afafaf;fill-opacity:1;fill-rule:nonzero;stroke:none"
               id="text1580"><tspan
                 x="0 -8.42906 -16.857189 -25.286249"
                 y="0"
                 id="tspan1578">V2.1</tspan></text></g><path
             d="m 1877.08,2990.65 v 41.67"
             style="fill:none;stroke:#afafaf;stroke-width:4.16667;stroke-linecap:butt;stroke-linejoin:miter;stroke-miterlimit:10;stroke-dasharray:none;stroke-opacity:1"
             id="path1582" /><g
             id="g1584"
             transform="scale(4.16667)"><text
               transform="matrix(0,-1,-1,0,479,736.185)"
               style="font-variant:normal;font-weight:normal;font-size:14px;font-family:Menlo;-inkscape-font-specification:Menlo-Regular;writing-mode:lr-tb;fill:#afafaf;fill-opacity:1;fill-rule:nonzero;stroke:none"
               id="text1588"><tspan
                 x="0 -8.42906 -16.857189 -25.286249"
                 y="0"
                 id="tspan1586">V0.2</tspan></text></g><path
             d="m 2020.83,2990.65 v 41.67"
             style="fill:none;stroke:#afafaf;stroke-width:4.16667;stroke-linecap:butt;stroke-linejoin:miter;stroke-miterlimit:10;stroke-dasharray:none;stroke-opacity:1"
             id="path1590" /><path
             d="m 1302.08,371.906 h 718.75 v 2618.75 h -718.75 z"
             style="fill:none;stroke:#afafaf;stroke-width:4.16667;stroke-linecap:butt;stroke-linejoin:miter;stroke-miterlimit:10;stroke-dasharray:none;stroke-opacity:1"
             id="path1592" /><g
             id="g1594"
             transform="scale(4.16667)"><text
               transform="matrix(0,-1,-1,0,296,420.614)"
               style="font-variant:normal;font-weight:normal;font-size:14px;font-family:Menlo;-inkscape-font-specification:Menlo-Regular;writing-mode:lr-tb;fill:#0eff00;fill-opacity:1;fill-rule:nonzero;stroke:none"
               id="text1598"><tspan
                 x="0 8.4280005 16.855413 25.283415"
                 y="0"
                 id="tspan1596">V(a)</tspan></text></g></g></g><g
         id="g1600"><g
           id="g1602"
           clip-path="url(#clipPath1606)"><path
             d="m 1051.65,2990.65 v 0 l -26.11,-5.78 -48.153,-10.48 -49.242,-10.47 -49.879,-10.47 -49.559,-10.48 -48.273,-10.48 -46.059,-10.47 -42.969,-10.48 -39.054,-10.47 -34.383,-10.48 -29.055,-10.47 -23.238,-10.48 -17,-10.47 -10.399,-10.47 -3.566,-10.48 3.332,-10.47 10.191,-10.48 16.879,-10.48 23.25,-10.47 29.184,-10.48 34.613,-10.47 39.438,-10.48 43.523,-10.47 46.774,-10.47 49.136,-10.48 50.551,-10.47 50.961,-10.48 50.355,-10.48 48.712,-10.47 46.01,-10.48 42.26,-10.47 37.37,-10.48 31.02,-10.47 20.77,-10.47 8.32,-10.48 1.25,-10.47 v -10.48 -10.48 -10.47 -10.48 -10.47 l 0.01,-10.48 v -9.33 -10.05 -10.47 -10.48 -10.47 -10.48 -10.47 -10.48 l -0.05,-10.47 -3.28,-10.48 -12.87,-10.47 -23.89,-10.48 -31.4,-10.47 -36.99,-10.48 -41.6,-10.47 -45.09,-10.48 -47.673,-10.47 -49.265,-10.48 -49.887,-10.47 -49.535,-10.48 -48.215,-10.47 -45.977,-10.48 -42.851,-10.47 -38.918,-10.48 -34.223,-10.47 -28.879,-10.48 -23.039,-10.47 -16.793,-10.48 -10.179,-10.47 -3.344,-10.48 3.555,-10.47 10.41,-10.48 17.09,-10.47 23.449,-10.48 29.367,-10.47 34.777,-10.48 39.582,-10.47 43.641,-10.48 46.867,-10.47 49.199,-10.48 50.579,-10.47 50.96,-10.48 50.321,-10.47 48.641,-10.48 45.91,-10.47 42.12,-10.48 37.2,-10.47 30.77,-10.48 20.41,-10.47 7.98,-10.48 1.11,-10.47 v -10.48 -10.47 -10.48 -10.47 l 0.01,-10.48 v -10.47 -9.12 -9.97 -10.48 -10.48 -10.47 -10.48 -10.47 -10.47 l -0.07,-10.48 -3.3,-10.47 -12.91,-10.48 -23.96,-10.47 -31.43,-10.48 -37.01,-10.48 -41.62,-10.47 -45.1,-10.48 -47.689,-10.47 -49.273,-10.47 -49.891,-10.48 -49.527,-10.47 -48.211,-10.48 -45.965,-10.47 -42.836,-10.48 -38.898,-10.47 -34.203,-10.48 -28.852,-10.48 -23.016,-10.47 -16.761,-10.47 -10.149,-10.48 -3.316,-10.47 3.586,-10.48 10.441,-10.47 17.117,-10.48 23.477,-10.47 29.394,-10.48 34.801,-10.48 39.606,-10.47 43.656,-10.47 46.879,-10.48 49.207,-10.47 50.586,-10.48 50.961,-10.47 50.316,-10.48 48.63,-10.47 45.9,-10.48 42.1,-10.48 37.18,-10.47 30.74,-10.47 20.37,-10.48 7.94,-10.47 1.09,-10.48 v -10.47 -10.48 -10.47 -10.48 l 0.01,-10.48 v -10.47 -9.09 -9.96 -10.48 -10.47 -10.47 -10.48 -10.47 -10.48 l -0.06,-10.48 -3.32,-10.47 -12.94,-10.48 -23.95,-10.47 -31.45,-10.48 -37.01,-10.47 -41.62,-10.47 -45.11,-10.48 -47.687,-10.47 -49.278,-10.48 -49.89,-10.48 -49.532,-10.47 -48.207,-10.48 -45.964,-10.47 -42.836,-10.48 -38.895,-10.47 -34.199,-10.47 -28.852,-10.48 -23.007,-10.47 -16.762,-10.48 -10.145,-10.47 -3.312,-10.48 3.59,-10.48 10.445,-10.47 17.121,-10.48 23.484,-10.47 29.399,-10.475 34.805,-10.476 39.605,-10.473 43.66,-10.476 46.883,-10.473 49.211,-10.477 50.582,-10.476 50.965,-10.473 50.316,-10.476 48.63,-10.473 45.9,-10.477 42.1,-10.476 37.18,-10.473 30.74,-10.476 20.37,-10.473 7.93,-10.477 1.1,-10.476 v -10.473 -10.476 -10.473 -10.477 -10.476 l 0.01,-10.473 V 760.41 750.449 739.973 729.5 719.023 708.551 698.074 687.598 l -0.07,-10.473 -3.31,-10.477 -12.94,-10.472 -23.97,-10.477 -31.45,-10.476 -37.02,-10.473 -41.62,-10.477 -45.11,-10.472 L 975.438,593.324 926.16,582.848 876.27,572.375 826.738,561.898 778.527,551.426 732.563,540.949 689.727,530.473 650.832,520 l -34.203,-10.477 -28.848,-10.472 -23.008,-10.477 -16.761,-10.476 -10.145,-10.473 -3.312,-10.477 3.593,-10.472 10.446,-10.477 17.121,-10.472 23.484,-10.477 29.399,-10.477 34.804,-10.472 39.61,-10.477 42.972,-10.472 6.204,-1.446"
             style="fill:none;stroke:#0eff00;stroke-width:4.16667;stroke-linecap:butt;stroke-linejoin:miter;stroke-miterlimit:1;stroke-dasharray:none;stroke-opacity:1"
             id="path1608" /></g></g><g
         id="g1610"><g
           id="g1612"
           clip-path="url(#clipPath1616)"><g
             id="g1618"
             transform="scale(4.16667)"><text
               transform="matrix(0,-1,-1,0,489,420.614)"
               style="font-variant:normal;font-weight:normal;font-size:14px;font-family:Menlo;-inkscape-font-specification:Menlo-Regular;writing-mode:lr-tb;fill:#0000ff;fill-opacity:1;fill-rule:nonzero;stroke:none"
               id="text1622"><tspan
                 x="0 8.4280005 16.855413 25.283415"
                 y="0"
                 id="tspan1620">V(g)</tspan></text></g></g></g><g
         id="g1624"><g
           id="g1626"
           clip-path="url(#clipPath1630)"><path
             d="m 1649.73,2990.65 v 0 l 22.09,-5.78 39.15,-10.48 38.34,-10.47 37.34,-10.47 35.9,-10.48 34,-10.48 31.71,-10.47 29,-10.48 25.94,-10.47 22.57,-10.48 18.89,-10.47 14.97,-10.48 10.87,-10.47 6.65,-10.47 2.31,-10.48 -2.06,-10.47 -6.41,-10.48 -10.7,-10.48 -14.87,-10.47 -18.86,-10.48 -22.63,-10.47 -26.13,-10.48 -29.32,-10.47 -32.17,-10.47 -34.63,-10.48 -36.66,-10.47 -38.27,-10.48 -39.41,-10.48 -40.06,-10.47 -40.24,-10.48 -39.95,-10.47 -39.19,-10.48 -38.11,-10.47 -37.54,-10.47 -34.88,-10.48 -30.02,-10.47 -26.32,-10.48 -22.89,-10.48 -19.19,-10.47 -15.25,-10.48 -11.12,-10.47 -6.97,-10.48 -2.49,-9.33 1.35,-10.05 5.62,-10.47 9.86,-10.48 14.04,-10.47 18.03,-10.48 21.82,-10.47 25.33,-10.48 28.51,-10.47 29.96,-10.48 30.92,-10.47 33.78,-10.48 36.2,-10.47 37.47,-10.48 38.49,-10.47 38.88,-10.48 38.85,-10.47 38.3,-10.48 37.3,-10.47 35.85,-10.48 33.94,-10.47 31.62,-10.48 28.9,-10.47 25.84,-10.48 22.46,-10.47 18.77,-10.48 14.83,-10.47 10.75,-10.48 6.5,-10.47 2.17,-10.48 -2.2,-10.47 -6.55,-10.48 -10.83,-10.47 -15,-10.48 -19,-10.47 -22.74,-10.48 -26.23,-10.47 -29.43,-10.48 -32.25,-10.47 -34.7,-10.48 -36.73,-10.47 -38.31,-10.48 -39.43,-10.47 -40.08,-10.48 -40.24,-10.47 -39.92,-10.48 -39.16,-10.47 -38.08,-10.48 -37.51,-10.47 -34.76,-10.48 -29.86,-10.47 -26.21,-10.48 -22.78,-10.47 -19.06,-10.48 -15.12,-10.47 -10.98,-10.48 -6.86,-10.47 -2.36,-9.12 1.4,-9.97 5.65,-10.48 9.87,-10.48 14.06,-10.47 18.05,-10.48 21.84,-10.47 25.34,-10.47 28.52,-10.48 29.98,-10.47 30.91,-10.48 33.79,-10.47 36.22,-10.48 37.47,-10.48 38.5,-10.47 38.87,-10.48 38.85,-10.47 38.3,-10.47 37.3,-10.48 35.83,-10.47 33.93,-10.48 31.61,-10.47 28.9,-10.48 25.82,-10.47 22.44,-10.48 18.75,-10.48 14.82,-10.47 10.72,-10.47 6.49,-10.48 2.15,-10.47 -2.22,-10.48 -6.57,-10.47 -10.85,-10.48 -15.02,-10.47 -19.01,-10.48 -22.75,-10.48 -26.25,-10.47 -29.44,-10.47 -32.27,-10.48 -34.71,-10.47 -36.73,-10.48 -38.32,-10.47 -39.44,-10.48 -40.08,-10.47 -40.23,-10.48 -39.93,-10.48 -39.16,-10.47 -38.07,-10.47 -37.5,-10.48 -34.75,-10.47 -29.84,-10.48 -26.19,-10.47 -22.77,-10.48 -19.04,-10.47 -15.1,-10.48 -10.96,-10.48 -6.85,-10.47 -2.33,-9.09 1.4,-9.96 5.65,-10.48 9.88,-10.47 14.06,-10.47 18.06,-10.48 21.83,-10.47 25.34,-10.48 28.53,-10.48 29.97,-10.47 30.92,-10.48 33.79,-10.47 36.22,-10.48 37.47,-10.47 38.5,-10.47 38.88,-10.48 38.84,-10.47 38.3,-10.48 37.3,-10.48 35.83,-10.47 33.93,-10.48 31.61,-10.47 28.9,-10.48 25.82,-10.47 22.43,-10.47 18.75,-10.48 14.82,-10.47 10.72,-10.48 6.48,-10.47 2.15,-10.48 -2.22,-10.48 -6.57,-10.47 -10.86,-10.48 -15.02,-10.47 -19.01,-10.475 -22.76,-10.476 -26.25,-10.473 -29.44,-10.476 -32.27,-10.473 -34.71,-10.477 -36.74,-10.476 -38.31,-10.473 -39.44,-10.476 -40.08,-10.473 -40.24,-10.477 -39.92,-10.476 -39.16,-10.473 -38.07,-10.476 -37.5,-10.473 -34.74,-10.477 -29.84,-10.476 -26.19,-10.473 -22.77,-10.476 -19.04,-10.473 -15.1,-10.477 -10.96,-10.476 -6.84,-10.473 -2.34,-9.086 1.41,-9.961 5.65,-10.476 9.88,-10.473 14.06,-10.477 18.06,-10.472 21.83,-10.477 25.35,-10.476 28.52,-10.473 29.97,-10.477 30.91,-10.472 33.8,-10.477 36.22,-10.476 37.47,-10.473 38.5,-10.477 38.88,-10.472 38.85,-10.477 38.29,-10.476 37.3,-10.473 35.84,-10.477 33.93,-10.472 31.6,-10.477 28.9,-10.476 25.82,-10.473 22.43,-10.477 18.75,-10.472 14.82,-10.477 10.72,-10.476 6.48,-10.473 2.15,-10.477 -2.22,-10.472 -6.57,-10.477 -10.86,-10.472 -15.02,-10.477 -19.01,-10.477 -22.76,-10.472 -26.25,-10.477 -28.84,-10.472 -4.19,-1.446"
             style="fill:none;stroke:#0000ff;stroke-width:4.16667;stroke-linecap:butt;stroke-linejoin:miter;stroke-miterlimit:1;stroke-dasharray:none;stroke-opacity:1"
             id="path1632" /></g></g></g></g></svg>
