<?xml version="1.0" encoding="UTF-8" standalone="no"?>
<svg
   xmlns:dc="http://purl.org/dc/elements/1.1/"
   xmlns:cc="http://creativecommons.org/ns#"
   xmlns:rdf="http://www.w3.org/1999/02/22-rdf-syntax-ns#"
   xmlns:svg="http://www.w3.org/2000/svg"
   xmlns="http://www.w3.org/2000/svg"
   version="1.1"
   id="svg10"
   xml:space="preserve"
   width="739.3949"
   height="328.67722"
   viewBox="0 0 591.51592 262.94177"><metadata
     id="metadata16"><rdf:RDF><cc:Work
         rdf:about=""><dc:format>image/svg+xml</dc:format><dc:type
           rdf:resource="http://purl.org/dc/dcmitype/StillImage" /><dc:title></dc:title></cc:Work></rdf:RDF></metadata><defs
     id="defs14"><clipPath
       clipPathUnits="userSpaceOnUse"
       id="clipPath28"><path
         d="M 300,375 H 2179.17 V 3133.33 H 300 Z"
         id="path26" /></clipPath></defs><g
     id="g18"
     transform="matrix(1.3333333,0,0,-1.3333333,-103.84865,664.33271)"><g
       id="g20"
       transform="scale(0.24)"><g
         id="g22"><g
           id="g24"
           clip-path="url(#clipPath28)"><path
             d="m 1514.98,1549.02 h 27.22"
             style="fill:none;stroke:#ffffff;stroke-width:4.16667;stroke-linecap:butt;stroke-linejoin:miter;stroke-miterlimit:10;stroke-dasharray:none;stroke-opacity:1"
             id="path30" /><path
             d="m 1514.98,1480.97 h 27.22"
             style="fill:none;stroke:#ffffff;stroke-width:4.16667;stroke-linecap:butt;stroke-linejoin:miter;stroke-miterlimit:10;stroke-dasharray:none;stroke-opacity:1"
             id="path32" /><path
             d="m 1528.59,1562.63 v -27.22"
             style="fill:none;stroke:#ffffff;stroke-width:4.16667;stroke-linecap:butt;stroke-linejoin:miter;stroke-miterlimit:10;stroke-dasharray:none;stroke-opacity:1"
             id="path34" /><path
             d="m 1528.59,1446.95 v 13.61"
             style="fill:none;stroke:#ffffff;stroke-width:4.16667;stroke-linecap:butt;stroke-linejoin:miter;stroke-miterlimit:10;stroke-dasharray:none;stroke-opacity:1"
             id="path36" /><path
             d="m 1528.59,1583.04 v -13.61"
             style="fill:none;stroke:#ffffff;stroke-width:4.16667;stroke-linecap:butt;stroke-linejoin:miter;stroke-miterlimit:10;stroke-dasharray:none;stroke-opacity:1"
             id="path38" /><path
             d="m 1567.09,1553.48 c 21.25,-21.25 21.25,-55.72 0,-76.98 -21.26,-21.25 -55.73,-21.25 -76.99,0 -21.26,21.26 -21.26,55.73 0,76.98 21.26,21.26 55.73,21.26 76.99,0"
             style="fill:none;stroke:#ffffff;stroke-width:4.16667;stroke-linecap:butt;stroke-linejoin:miter;stroke-miterlimit:10;stroke-dasharray:none;stroke-opacity:1"
             id="path40" /><g
             id="g42"
             transform="scale(4.16667)"><text
               transform="matrix(1,0,0,-1,341.551,376.928)"
               style="font-variant:normal;font-weight:normal;font-size:8.98165px;font-family:Geneva;-inkscape-font-specification:Geneva;writing-mode:lr-tb;fill:#999999;fill-opacity:1;fill-rule:nonzero;stroke:none"
               id="text48"><tspan
                 x="0 6.5305676"
                 y="0"
                 id="tspan44">V2</tspan><tspan
                 x="-7.3490601 -1.3628112 4.623467"
                 y="9.7978096"
                 id="tspan46">270</tspan></text></g><path
             d="m 1147.55,1827.99 h 34.02"
             style="fill:none;stroke:#ffffff;stroke-width:4.16667;stroke-linecap:butt;stroke-linejoin:miter;stroke-miterlimit:10;stroke-dasharray:none;stroke-opacity:1"
             id="path50" /><path
             d="m 1195.18,1827.99 h 13.61"
             style="fill:none;stroke:#ffffff;stroke-width:4.16667;stroke-linecap:butt;stroke-linejoin:miter;stroke-miterlimit:10;stroke-dasharray:none;stroke-opacity:1"
             id="path52" /><path
             d="m 1222.4,1827.99 h 13.61"
             style="fill:none;stroke:#ffffff;stroke-width:4.16667;stroke-linecap:butt;stroke-linejoin:miter;stroke-miterlimit:10;stroke-dasharray:none;stroke-opacity:1"
             id="path54" /><path
             d="m 1249.62,1827.99 h 13.61"
             style="fill:none;stroke:#ffffff;stroke-width:4.16667;stroke-linecap:butt;stroke-linejoin:miter;stroke-miterlimit:10;stroke-dasharray:none;stroke-opacity:1"
             id="path56" /><path
             d="m 1276.84,1827.99 h 13.61"
             style="fill:none;stroke:#ffffff;stroke-width:4.16667;stroke-linecap:butt;stroke-linejoin:miter;stroke-miterlimit:10;stroke-dasharray:none;stroke-opacity:1"
             id="path58" /><path
             d="m 1229.2,1909.64 v -54.43"
             style="fill:none;stroke:#ffffff;stroke-width:4.16667;stroke-linecap:butt;stroke-linejoin:miter;stroke-miterlimit:10;stroke-dasharray:none;stroke-opacity:1"
             id="path60" /><path
             d="m 1195.18,1855.21 h 68.05"
             style="fill:none;stroke:#ffffff;stroke-width:4.16667;stroke-linecap:butt;stroke-linejoin:miter;stroke-miterlimit:10;stroke-dasharray:none;stroke-opacity:1"
             id="path62" /><path
             d="m 1195.18,1848.4 h 68.05"
             style="fill:none;stroke:#ffffff;stroke-width:4.16667;stroke-linecap:butt;stroke-linejoin:miter;stroke-miterlimit:10;stroke-dasharray:none;stroke-opacity:1"
             id="path64" /><path
             d="m 1195.18,1855.21 v -6.81"
             style="fill:none;stroke:#ffffff;stroke-width:4.16667;stroke-linecap:butt;stroke-linejoin:miter;stroke-miterlimit:10;stroke-dasharray:none;stroke-opacity:1"
             id="path66" /><path
             d="m 1263.23,1855.21 v -6.81"
             style="fill:none;stroke:#ffffff;stroke-width:4.16667;stroke-linecap:butt;stroke-linejoin:miter;stroke-miterlimit:10;stroke-dasharray:none;stroke-opacity:1"
             id="path68" /><path
             d="m 1188.38,1807.58 h 81.65"
             style="fill:none;stroke:#ffffff;stroke-width:4.16667;stroke-linecap:butt;stroke-linejoin:miter;stroke-miterlimit:10;stroke-dasharray:none;stroke-opacity:1"
             id="path70" /><path
             d="m 1174.77,1746.34 v 47.63"
             style="fill:none;stroke:#ffffff;stroke-width:4.16667;stroke-linecap:butt;stroke-linejoin:miter;stroke-miterlimit:10;stroke-dasharray:none;stroke-opacity:1"
             id="path72" /><path
             d="m 1188.38,1807.58 -13.61,-13.61"
             style="fill:none;stroke:#ffffff;stroke-width:4.16667;stroke-linecap:butt;stroke-linejoin:miter;stroke-miterlimit:10;stroke-dasharray:none;stroke-opacity:1"
             id="path74" /><path
             d="m 1270.03,1807.58 13.61,-13.61"
             style="fill:none;stroke:#ffffff;stroke-width:4.16667;stroke-linecap:butt;stroke-linejoin:miter;stroke-miterlimit:10;stroke-dasharray:none;stroke-opacity:1"
             id="path76" /><path
             d="m 1181.57,1800.77 h 95.27"
             style="fill:none;stroke:#ffffff;stroke-width:4.16667;stroke-linecap:butt;stroke-linejoin:miter;stroke-miterlimit:10;stroke-dasharray:none;stroke-opacity:1"
             id="path78" /><path
             d="m 1286.94,1885.73 c 31.89,-31.89 31.89,-83.59 0,-115.48 -31.89,-31.88 -83.58,-31.88 -115.47,0 -31.89,31.89 -31.89,83.59 0,115.48 31.89,31.88 83.58,31.88 115.47,0"
             style="fill:none;stroke:#ffffff;stroke-width:4.16667;stroke-linecap:butt;stroke-linejoin:miter;stroke-miterlimit:10;stroke-dasharray:none;stroke-opacity:1"
             id="path80" /><g
             id="g82"
             transform="scale(4.16667)"><text
               transform="matrix(1,0,0,-1,298.275,461.846)"
               style="font-variant:normal;font-weight:normal;font-size:8.98165px;font-family:Geneva;-inkscape-font-specification:Geneva;writing-mode:lr-tb;fill:#999999;fill-opacity:1;fill-rule:nonzero;stroke:none"
               id="text88"><tspan
                 x="0 5.986249"
                 y="0"
                 id="tspan84">U1</tspan><tspan
                 x="-13.0641 -7.8933649 -2.0399826 3.8133702 9.8014059"
                 y="52.257198"
                 id="tspan86">ECC99</tspan></text></g><path
             d="m 596.406,1637.47 h 13.61"
             style="fill:none;stroke:#ffffff;stroke-width:4.16667;stroke-linecap:butt;stroke-linejoin:miter;stroke-miterlimit:10;stroke-dasharray:none;stroke-opacity:1"
             id="path90" /><path
             d="m 596.406,1555.82 h 13.61"
             style="fill:none;stroke:#ffffff;stroke-width:4.16667;stroke-linecap:butt;stroke-linejoin:miter;stroke-miterlimit:10;stroke-dasharray:none;stroke-opacity:1"
             id="path92" /><path
             d="m 603.211,1644.28 v -13.61"
             style="fill:none;stroke:#ffffff;stroke-width:4.16667;stroke-linecap:butt;stroke-linejoin:miter;stroke-miterlimit:10;stroke-dasharray:none;stroke-opacity:1"
             id="path94" /><path
             d="m 603.211,1528.6 v 13.61"
             style="fill:none;stroke:#ffffff;stroke-width:4.16667;stroke-linecap:butt;stroke-linejoin:miter;stroke-miterlimit:10;stroke-dasharray:none;stroke-opacity:1"
             id="path96" /><path
             d="m 603.211,1664.69 v -13.61"
             style="fill:none;stroke:#ffffff;stroke-width:4.16667;stroke-linecap:butt;stroke-linejoin:miter;stroke-miterlimit:10;stroke-dasharray:none;stroke-opacity:1"
             id="path98" /><path
             d="m 641.703,1635.14 c 21.258,-21.26 21.258,-55.73 0,-76.98 -21.258,-21.26 -55.726,-21.26 -76.984,0 -21.258,21.25 -21.258,55.72 0,76.98 21.258,21.25 55.726,21.25 76.984,0"
             style="fill:none;stroke:#ffffff;stroke-width:4.16667;stroke-linecap:butt;stroke-linejoin:miter;stroke-miterlimit:10;stroke-dasharray:none;stroke-opacity:1"
             id="path100" /><path
             d="m 644.035,1596.64 -0.097,-2 -0.293,-1.98 -0.489,-1.94 -0.672,-1.88 -0.859,-1.82 -1.027,-1.72 -1.196,-1.6 -1.343,-1.49 -1.485,-1.34 -1.609,-1.2 -1.719,-1.03 -1.812,-0.85 -1.883,-0.68 -1.946,-0.48 -1.98,-0.3 -2,-0.1 -2,0.1 -1.984,0.3 -1.942,0.48 -1.886,0.68 -1.813,0.85 -1.719,1.03 -1.605,1.2 -1.485,1.34 -1.347,1.49 -1.192,1.6 -1.031,1.72 -0.855,1.82 -0.676,1.88 -0.488,1.94 -0.293,1.98 -0.098,2"
             style="fill:none;stroke:#ffffff;stroke-width:4.16667;stroke-linecap:butt;stroke-linejoin:miter;stroke-miterlimit:10;stroke-dasharray:none;stroke-opacity:1"
             id="path102" /><path
             d="m 562.387,1596.64 0.097,2 0.293,1.99 0.489,1.94 0.672,1.89 0.859,1.81 1.027,1.71 1.196,1.61 1.343,1.49 1.485,1.35 1.609,1.19 1.719,1.03 1.812,0.85 1.883,0.68 1.945,0.49 1.981,0.29 2,0.1 2.004,-0.1 1.98,-0.29 1.942,-0.49 1.886,-0.68 1.813,-0.85 1.719,-1.03 1.605,-1.19 1.484,-1.35 1.348,-1.49 1.192,-1.61 1.031,-1.71 0.855,-1.81 0.676,-1.89 0.488,-1.94 0.293,-1.99 0.098,-2"
             style="fill:none;stroke:#ffffff;stroke-width:4.16667;stroke-linecap:butt;stroke-linejoin:miter;stroke-miterlimit:10;stroke-dasharray:none;stroke-opacity:1"
             id="path104" /><g
             id="g106"
             transform="scale(4.16667)"><text
               transform="matrix(1,0,0,-1,125.174,394.892)"
               style="font-variant:normal;font-weight:normal;font-size:8.98165px;font-family:Geneva;-inkscape-font-specification:Geneva;writing-mode:lr-tb;fill:#999999;fill-opacity:1;fill-rule:nonzero;stroke:none"
               id="text112"><tspan
                 x="0 6.5305529"
                 y="0"
                 id="tspan108">V1</tspan><tspan
                 x="-47.765598 -42.32272 -40.147366 -33.783867 -28.613132 -24.600138 -18.613867 -15.618487 -9.6322241 -6.6368375 -0.65057403 5.3357038 11.321967"
                 y="31.435301"
                 id="tspan110">SINE(0 8 440)</tspan></text></g><path
             d="m 1147.55,1419.73 h 34.02"
             style="fill:none;stroke:#ffffff;stroke-width:4.16667;stroke-linecap:butt;stroke-linejoin:miter;stroke-miterlimit:10;stroke-dasharray:none;stroke-opacity:1"
             id="path114" /><path
             d="m 1195.18,1419.73 h 13.61"
             style="fill:none;stroke:#ffffff;stroke-width:4.16667;stroke-linecap:butt;stroke-linejoin:miter;stroke-miterlimit:10;stroke-dasharray:none;stroke-opacity:1"
             id="path116" /><path
             d="m 1222.4,1419.73 h 13.61"
             style="fill:none;stroke:#ffffff;stroke-width:4.16667;stroke-linecap:butt;stroke-linejoin:miter;stroke-miterlimit:10;stroke-dasharray:none;stroke-opacity:1"
             id="path118" /><path
             d="m 1249.62,1419.73 h 13.61"
             style="fill:none;stroke:#ffffff;stroke-width:4.16667;stroke-linecap:butt;stroke-linejoin:miter;stroke-miterlimit:10;stroke-dasharray:none;stroke-opacity:1"
             id="path120" /><path
             d="m 1276.84,1419.73 h 13.61"
             style="fill:none;stroke:#ffffff;stroke-width:4.16667;stroke-linecap:butt;stroke-linejoin:miter;stroke-miterlimit:10;stroke-dasharray:none;stroke-opacity:1"
             id="path122" /><path
             d="m 1229.2,1338.08 v 54.44"
             style="fill:none;stroke:#ffffff;stroke-width:4.16667;stroke-linecap:butt;stroke-linejoin:miter;stroke-miterlimit:10;stroke-dasharray:none;stroke-opacity:1"
             id="path124" /><path
             d="m 1195.18,1392.52 h 68.05"
             style="fill:none;stroke:#ffffff;stroke-width:4.16667;stroke-linecap:butt;stroke-linejoin:miter;stroke-miterlimit:10;stroke-dasharray:none;stroke-opacity:1"
             id="path126" /><path
             d="m 1195.18,1399.32 h 68.05"
             style="fill:none;stroke:#ffffff;stroke-width:4.16667;stroke-linecap:butt;stroke-linejoin:miter;stroke-miterlimit:10;stroke-dasharray:none;stroke-opacity:1"
             id="path128" /><path
             d="m 1195.18,1392.52 v 6.8"
             style="fill:none;stroke:#ffffff;stroke-width:4.16667;stroke-linecap:butt;stroke-linejoin:miter;stroke-miterlimit:10;stroke-dasharray:none;stroke-opacity:1"
             id="path130" /><path
             d="m 1263.23,1392.52 v 6.8"
             style="fill:none;stroke:#ffffff;stroke-width:4.16667;stroke-linecap:butt;stroke-linejoin:miter;stroke-miterlimit:10;stroke-dasharray:none;stroke-opacity:1"
             id="path132" /><path
             d="m 1188.38,1440.15 h 81.65"
             style="fill:none;stroke:#ffffff;stroke-width:4.16667;stroke-linecap:butt;stroke-linejoin:miter;stroke-miterlimit:10;stroke-dasharray:none;stroke-opacity:1"
             id="path134" /><path
             d="m 1174.77,1501.39 v -47.64"
             style="fill:none;stroke:#ffffff;stroke-width:4.16667;stroke-linecap:butt;stroke-linejoin:miter;stroke-miterlimit:10;stroke-dasharray:none;stroke-opacity:1"
             id="path136" /><path
             d="m 1188.38,1440.15 -13.61,13.6"
             style="fill:none;stroke:#ffffff;stroke-width:4.16667;stroke-linecap:butt;stroke-linejoin:miter;stroke-miterlimit:10;stroke-dasharray:none;stroke-opacity:1"
             id="path138" /><path
             d="m 1270.03,1440.15 13.61,13.6"
             style="fill:none;stroke:#ffffff;stroke-width:4.16667;stroke-linecap:butt;stroke-linejoin:miter;stroke-miterlimit:10;stroke-dasharray:none;stroke-opacity:1"
             id="path140" /><path
             d="m 1181.57,1446.95 h 95.27"
             style="fill:none;stroke:#ffffff;stroke-width:4.16667;stroke-linecap:butt;stroke-linejoin:miter;stroke-miterlimit:10;stroke-dasharray:none;stroke-opacity:1"
             id="path142" /><path
             d="m 1286.94,1477.47 c 31.89,-31.89 31.89,-83.58 0,-115.47 -31.89,-31.89 -83.58,-31.89 -115.47,0 -31.89,31.89 -31.89,83.58 0,115.47 31.89,31.89 83.58,31.89 115.47,0"
             style="fill:none;stroke:#ffffff;stroke-width:4.16667;stroke-linecap:butt;stroke-linejoin:miter;stroke-miterlimit:10;stroke-dasharray:none;stroke-opacity:1"
             id="path144" /><g
             id="g146"
             transform="scale(4.16667)"><text
               transform="matrix(1,0,0,-1,298.275,311.608)"
               style="font-variant:normal;font-weight:normal;font-size:8.98165px;font-family:Geneva;-inkscape-font-specification:Geneva;writing-mode:lr-tb;fill:#999999;fill-opacity:1;fill-rule:nonzero;stroke:none"
               id="text152"><tspan
                 x="0 5.986249"
                 y="0"
                 id="tspan148">U2</tspan><tspan
                 x="-13.0641 -7.8933649 -2.0399826 3.8133702 9.8014059"
                 y="-52.256302"
                 id="tspan150">ECC99</tspan></text></g><path
             d="m 1655.88,1662.7 c 2.66,-2.66 2.66,-6.97 0,-9.63 -2.66,-2.66 -6.96,-2.66 -9.62,0 -2.66,2.66 -2.66,6.97 0,9.63 2.66,2.65 6.96,2.65 9.62,0"
             style="fill:none;stroke:#ffffff;stroke-width:4.16667;stroke-linecap:butt;stroke-linejoin:miter;stroke-miterlimit:10;stroke-dasharray:none;stroke-opacity:1"
             id="path154" /><path
             d="m 1645.43,1724.76 3.03,2.62 3.39,2.14 3.66,1.62 3.86,1.07 3.97,0.49 4.01,-0.1 3.94,-0.69 3.8,-1.25 3.58,-1.8 3.28,-2.31 2.89,-2.76 2.47,-3.15 1.97,-3.49 1.44,-3.74 0.88,-3.9 0.29,-3.99 -0.29,-4 -0.88,-3.91 -1.44,-3.73 -1.97,-3.49 -2.47,-3.16 -2.89,-2.75 -3.28,-2.31 -3.58,-1.8 -3.8,-1.26 -3.94,-0.68 -4.01,-0.1 -3.97,0.49 -3.86,1.07 -3.66,1.62 -3.39,2.14 -3.03,2.62"
             style="fill:none;stroke:#ffffff;stroke-width:4.16667;stroke-linecap:butt;stroke-linejoin:miter;stroke-miterlimit:10;stroke-dasharray:none;stroke-opacity:1"
             id="path156" /><path
             d="m 1645.43,1683.93 2.5,2.21 2.76,1.9 2.96,1.53 3.13,1.16 3.25,0.77 3.31,0.37 3.34,-0.04 3.31,-0.45 3.22,-0.85 3.11,-1.24 2.92,-1.61 2.71,-1.95 2.44,-2.27 2.15,-2.56 1.82,-2.79 1.46,-3 1.09,-3.16 0.69,-3.27 0.29,-3.32 -0.12,-3.34 -0.54,-3.29 -0.93,-3.21 -1.31,-3.07 -1.68,-2.88 -2.02,-2.66 -2.33,-2.39 -2.61,-2.08 -2.84,-1.76 -3.04,-1.38 -3.18,-1.01 -3.28,-0.61 -3.33,-0.21"
             style="fill:none;stroke:#ffffff;stroke-width:4.16667;stroke-linecap:butt;stroke-linejoin:miter;stroke-miterlimit:10;stroke-dasharray:none;stroke-opacity:1"
             id="path158" /><path
             d="m 1664.68,1773.56 3.33,-0.21 3.28,-0.61 3.18,-1.01 3.04,-1.39 2.84,-1.75 2.61,-2.08 2.33,-2.39 2.02,-2.66 1.68,-2.88 1.31,-3.07 0.93,-3.21 0.54,-3.29 0.12,-3.34 -0.29,-3.32 -0.69,-3.27 -1.09,-3.15 -1.46,-3 -1.82,-2.8 -2.15,-2.56 -2.44,-2.27 -2.71,-1.96 -2.92,-1.61 -3.11,-1.23 -3.22,-0.86 -3.31,-0.44 -3.34,-0.04 -3.31,0.36 -3.25,0.77 -3.13,1.17 -2.96,1.54 -2.76,1.88 -2.5,2.21"
             style="fill:none;stroke:#ffffff;stroke-width:4.16667;stroke-linecap:butt;stroke-linejoin:miter;stroke-miterlimit:10;stroke-dasharray:none;stroke-opacity:1"
             id="path160" /><g
             id="g162"
             transform="scale(4.16667)"><text
               transform="matrix(1,0,0,-1,406.871,424.695)"
               style="font-variant:normal;font-weight:normal;font-size:8.98165px;font-family:Geneva;-inkscape-font-specification:Geneva;writing-mode:lr-tb;fill:#999999;fill-opacity:1;fill-rule:nonzero;stroke:none"
               id="text168"><tspan
                 x="0 5.2408137 10.648675 14.117409 16.227188 24.256783"
                 y="0"
                 id="tspan164">Lprim1</tspan><tspan
                 x="0 5.986249"
                 y="10.6144"
                 id="tspan166">10</tspan></text></g><path
             d="m 1655.88,1526.61 c 2.66,-2.66 2.66,-6.97 0,-9.62 -2.66,-2.66 -6.96,-2.66 -9.62,0 -2.66,2.65 -2.66,6.96 0,9.62 2.66,2.66 6.96,2.66 9.62,0"
             style="fill:none;stroke:#ffffff;stroke-width:4.16667;stroke-linecap:butt;stroke-linejoin:miter;stroke-miterlimit:10;stroke-dasharray:none;stroke-opacity:1"
             id="path170" /><path
             d="m 1645.43,1588.67 3.03,2.62 3.39,2.14 3.66,1.62 3.86,1.07 3.97,0.49 4.01,-0.09 3.94,-0.69 3.8,-1.26 3.58,-1.8 3.28,-2.3 2.89,-2.76 2.47,-3.16 1.97,-3.48 1.44,-3.74 0.88,-3.91 0.29,-3.99 -0.29,-4 -0.88,-3.9 -1.44,-3.74 -1.97,-3.48 -2.47,-3.16 -2.89,-2.76 -3.28,-2.31 -3.58,-1.79 -3.8,-1.26 -3.94,-0.69 -4.01,-0.09 -3.97,0.48 -3.86,1.07 -3.66,1.63 -3.39,2.14 -3.03,2.61"
             style="fill:none;stroke:#ffffff;stroke-width:4.16667;stroke-linecap:butt;stroke-linejoin:miter;stroke-miterlimit:10;stroke-dasharray:none;stroke-opacity:1"
             id="path172" /><path
             d="m 1645.43,1547.85 2.5,2.21 2.76,1.89 2.96,1.53 3.13,1.17 3.25,0.77 3.31,0.37 3.34,-0.04 3.31,-0.45 3.22,-0.85 3.11,-1.24 2.92,-1.61 2.71,-1.96 2.44,-2.27 2.15,-2.55 1.82,-2.8 1.46,-3 1.09,-3.16 0.69,-3.26 0.29,-3.33 -0.12,-3.34 -0.54,-3.29 -0.93,-3.21 -1.31,-3.06 -1.68,-2.89 -2.02,-2.66 -2.33,-2.38 -2.61,-2.09 -2.84,-1.75 -3.04,-1.39 -3.18,-1.01 -3.28,-0.61 -3.33,-0.2"
             style="fill:none;stroke:#ffffff;stroke-width:4.16667;stroke-linecap:butt;stroke-linejoin:miter;stroke-miterlimit:10;stroke-dasharray:none;stroke-opacity:1"
             id="path174" /><path
             d="m 1664.68,1637.47 3.33,-0.2 3.28,-0.61 3.18,-1.01 3.04,-1.39 2.84,-1.75 2.61,-2.09 2.33,-2.39 2.02,-2.65 1.68,-2.89 1.31,-3.07 0.93,-3.2 0.54,-3.3 0.12,-3.33 -0.29,-3.33 -0.69,-3.26 -1.09,-3.16 -1.46,-3 -1.82,-2.8 -2.15,-2.55 -2.44,-2.28 -2.71,-1.95 -2.92,-1.61 -3.11,-1.24 -3.22,-0.85 -3.31,-0.45 -3.34,-0.04 -3.31,0.37 -3.25,0.77 -3.13,1.16 -2.96,1.54 -2.76,1.89 -2.5,2.21"
             style="fill:none;stroke:#ffffff;stroke-width:4.16667;stroke-linecap:butt;stroke-linejoin:miter;stroke-miterlimit:10;stroke-dasharray:none;stroke-opacity:1"
             id="path176" /><g
             id="g178"
             transform="scale(4.16667)"><text
               transform="matrix(1,0,0,-1,407.688,354.883)"
               style="font-variant:normal;font-weight:normal;font-size:8.98165px;font-family:Geneva;-inkscape-font-specification:Geneva;writing-mode:lr-tb;fill:#999999;fill-opacity:1;fill-rule:nonzero;stroke:none"
               id="text184"><tspan
                 x="0 5.2408137 10.648675 14.117409 16.227188 24.256783"
                 y="0"
                 id="tspan180">Lprim2</tspan><tspan
                 x="0 5.986249"
                 y="-8.9812498"
                 id="tspan182">10</tspan></text></g><path
             d="m 1819.18,1581.04 c 2.66,-2.65 2.66,-6.96 0,-9.62 -2.65,-2.65 -6.96,-2.65 -9.62,0 -2.65,2.66 -2.65,6.97 0,9.62 2.66,2.66 6.97,2.66 9.62,0"
             style="fill:none;stroke:#ffffff;stroke-width:4.16667;stroke-linecap:butt;stroke-linejoin:miter;stroke-miterlimit:10;stroke-dasharray:none;stroke-opacity:1"
             id="path186" /><path
             d="m 1820.01,1604.62 -3.03,-2.62 -3.39,-2.14 -3.66,-1.62 -3.86,-1.07 -3.97,-0.49 -4,0.1 -3.95,0.68 -3.8,1.26 -3.58,1.8 -3.27,2.3 -2.9,2.77 -2.47,3.15 -1.97,3.49 -1.44,3.73 -0.88,3.91 -0.29,3.99 0.29,4 0.88,3.9 1.44,3.74 1.97,3.48 2.47,3.16 2.9,2.76 3.27,2.31 3.58,1.8 3.8,1.26 3.95,0.68 4,0.1 3.97,-0.49 3.86,-1.07 3.66,-1.62 3.39,-2.15 3.03,-2.61"
             style="fill:none;stroke:#ffffff;stroke-width:4.16667;stroke-linecap:butt;stroke-linejoin:miter;stroke-miterlimit:10;stroke-dasharray:none;stroke-opacity:1"
             id="path188" /><path
             d="m 1800.77,1555.82 -3.34,0.2 -3.28,0.62 -3.18,1 -3.04,1.4 -2.84,1.75 -2.6,2.08 -2.33,2.39 -2.03,2.66 -1.68,2.88 -1.31,3.07 -0.93,3.2 -0.53,3.3 -0.13,3.33 0.29,3.33 0.7,3.27 1.08,3.15 1.46,3 1.82,2.8 2.15,2.55 2.45,2.28 2.7,1.95 2.93,1.61 3.1,1.24 3.22,0.85 3.31,0.45 3.34,0.04 3.32,-0.37 3.24,-0.77 3.13,-1.16 2.97,-1.54 2.75,-1.89 2.5,-2.21"
             style="fill:none;stroke:#ffffff;stroke-width:4.16667;stroke-linecap:butt;stroke-linejoin:miter;stroke-miterlimit:10;stroke-dasharray:none;stroke-opacity:1"
             id="path190" /><path
             d="m 1820.01,1645.44 -2.5,-2.21 -2.75,-1.89 -2.97,-1.54 -3.13,-1.16 -3.24,-0.77 -3.32,-0.37 -3.34,0.05 -3.31,0.45 -3.22,0.84 -3.1,1.25 -2.93,1.61 -2.7,1.95 -2.45,2.27 -2.15,2.56 -1.82,2.79 -1.46,3 -1.08,3.16 -0.7,3.27 -0.29,3.32 0.13,3.34 0.53,3.29 0.93,3.21 1.31,3.07 1.68,2.88 2.03,2.65 2.33,2.4 2.6,2.08 2.84,1.75 3.04,1.39 3.18,1.01 3.28,0.61 3.34,0.21"
             style="fill:none;stroke:#ffffff;stroke-width:4.16667;stroke-linecap:butt;stroke-linejoin:miter;stroke-miterlimit:10;stroke-dasharray:none;stroke-opacity:1"
             id="path192" /><g
             id="g194"
             transform="scale(4.16667)"><text
               transform="matrix(1,0,0,-1,437.611,392.443)"
               style="font-variant:normal;font-weight:normal;font-size:8.98165px;font-family:Geneva;-inkscape-font-specification:Geneva;writing-mode:lr-tb;fill:#999999;fill-opacity:1;fill-rule:nonzero;stroke:none"
               id="text200"><tspan
                 x="0 5.2408137 9.8169556 14.985904"
                 y="0"
                 id="tspan196">Lsec</tspan><tspan
                 x="0.42656299 6.4128118 9.1387339 15.125012"
                 y="8.9821901"
                 id="tspan198">0.04</tspan></text></g><path
             d="m 1964.07,1678.3 v 13.61"
             style="fill:none;stroke:#ffffff;stroke-width:4.16667;stroke-linecap:butt;stroke-linejoin:miter;stroke-miterlimit:10;stroke-dasharray:none;stroke-opacity:1"
             id="path202" /><path
             d="m 1992.98,1668.09 -28.91,10.21"
             style="fill:none;stroke:#ffffff;stroke-width:4.16667;stroke-linecap:butt;stroke-linejoin:miter;stroke-miterlimit:10;stroke-dasharray:none;stroke-opacity:1"
             id="path204" /><path
             d="m 1935.15,1651.08 57.83,17.01"
             style="fill:none;stroke:#ffffff;stroke-width:4.16667;stroke-linecap:butt;stroke-linejoin:miter;stroke-miterlimit:10;stroke-dasharray:none;stroke-opacity:1"
             id="path206" /><path
             d="m 1992.98,1628.96 -57.83,22.12"
             style="fill:none;stroke:#ffffff;stroke-width:4.16667;stroke-linecap:butt;stroke-linejoin:miter;stroke-miterlimit:10;stroke-dasharray:none;stroke-opacity:1"
             id="path208" /><path
             d="m 1936.85,1610.25 56.13,18.71"
             style="fill:none;stroke:#ffffff;stroke-width:4.16667;stroke-linecap:butt;stroke-linejoin:miter;stroke-miterlimit:10;stroke-dasharray:none;stroke-opacity:1"
             id="path210" /><path
             d="m 1964.07,1583.04 v 13.6"
             style="fill:none;stroke:#ffffff;stroke-width:4.16667;stroke-linecap:butt;stroke-linejoin:miter;stroke-miterlimit:10;stroke-dasharray:none;stroke-opacity:1"
             id="path212" /><path
             d="m 1964.07,1596.64 -27.22,13.61"
             style="fill:none;stroke:#ffffff;stroke-width:4.16667;stroke-linecap:butt;stroke-linejoin:miter;stroke-miterlimit:10;stroke-dasharray:none;stroke-opacity:1"
             id="path214" /><g
             id="g216"
             transform="scale(4.16667)"><text
               transform="matrix(1,0,0,-1,482.556,384.686)"
               style="font-variant:normal;font-weight:normal;font-size:8.98165px;font-family:Geneva;-inkscape-font-specification:Geneva;writing-mode:lr-tb;fill:#999999;fill-opacity:1;fill-rule:nonzero;stroke:none"
               id="text222"><tspan
                 x="0 5.4428797 10.017235 15.425067 20.595802 25.564413 30.397478 35.568214"
                 y="0"
                 id="tspan218">Rspeaker</tspan><tspan
                 x="-2.4684401"
                 y="-10.2056"
                 id="tspan220">8</tspan></text></g><path
             d="m 712.078,1637.47 h 27.219"
             style="fill:none;stroke:#ffffff;stroke-width:4.16667;stroke-linecap:butt;stroke-linejoin:miter;stroke-miterlimit:10;stroke-dasharray:none;stroke-opacity:1"
             id="path224" /><path
             d="m 739.297,1637.47 13.609,-6.8"
             style="fill:none;stroke:#ffffff;stroke-width:4.16667;stroke-linecap:butt;stroke-linejoin:miter;stroke-miterlimit:10;stroke-dasharray:none;stroke-opacity:1"
             id="path226" /><path
             d="m 712.078,1555.82 h 27.219"
             style="fill:none;stroke:#ffffff;stroke-width:4.16667;stroke-linecap:butt;stroke-linejoin:miter;stroke-miterlimit:10;stroke-dasharray:none;stroke-opacity:1"
             id="path228" /><path
             d="m 739.297,1555.82 13.609,6.81"
             style="fill:none;stroke:#ffffff;stroke-width:4.16667;stroke-linecap:butt;stroke-linejoin:miter;stroke-miterlimit:10;stroke-dasharray:none;stroke-opacity:1"
             id="path230" /><path
             d="m 793.73,1664.69 v -13.61"
             style="fill:none;stroke:#ffffff;stroke-width:4.16667;stroke-linecap:butt;stroke-linejoin:miter;stroke-miterlimit:10;stroke-dasharray:none;stroke-opacity:1"
             id="path232" /><path
             d="m 793.73,1528.6 v 13.61"
             style="fill:none;stroke:#ffffff;stroke-width:4.16667;stroke-linecap:butt;stroke-linejoin:miter;stroke-miterlimit:10;stroke-dasharray:none;stroke-opacity:1"
             id="path234" /><path
             d="m 712.078,1569.43 h 13.61"
             style="fill:none;stroke:#ffffff;stroke-width:4.16667;stroke-linecap:butt;stroke-linejoin:miter;stroke-miterlimit:10;stroke-dasharray:none;stroke-opacity:1"
             id="path236" /><path
             d="m 712.078,1623.86 h 13.61"
             style="fill:none;stroke:#ffffff;stroke-width:4.16667;stroke-linecap:butt;stroke-linejoin:miter;stroke-miterlimit:10;stroke-dasharray:none;stroke-opacity:1"
             id="path238" /><path
             d="m 718.883,1630.67 v -13.61"
             style="fill:none;stroke:#ffffff;stroke-width:4.16667;stroke-linecap:butt;stroke-linejoin:miter;stroke-miterlimit:10;stroke-dasharray:none;stroke-opacity:1"
             id="path240" /><path
             d="m 786.926,1569.43 h 13.609"
             style="fill:none;stroke:#ffffff;stroke-width:4.16667;stroke-linecap:butt;stroke-linejoin:miter;stroke-miterlimit:10;stroke-dasharray:none;stroke-opacity:1"
             id="path242" /><path
             d="m 786.926,1623.86 h 13.609"
             style="fill:none;stroke:#ffffff;stroke-width:4.16667;stroke-linecap:butt;stroke-linejoin:miter;stroke-miterlimit:10;stroke-dasharray:none;stroke-opacity:1"
             id="path244" /><path
             d="m 793.73,1630.67 v -13.61"
             style="fill:none;stroke:#ffffff;stroke-width:4.16667;stroke-linecap:butt;stroke-linejoin:miter;stroke-miterlimit:10;stroke-dasharray:none;stroke-opacity:1"
             id="path246" /><path
             d="m 832.223,1635.14 c 21.257,-21.26 21.257,-55.73 0,-76.98 -21.258,-21.26 -55.727,-21.26 -76.985,0 -21.258,21.25 -21.258,55.72 0,76.98 21.258,21.25 55.727,21.25 76.985,0"
             style="fill:none;stroke:#ffffff;stroke-width:4.16667;stroke-linecap:butt;stroke-linejoin:miter;stroke-miterlimit:10;stroke-dasharray:none;stroke-opacity:1"
             id="path248" /><g
             id="g250"
             transform="scale(4.16667)"><text
               transform="matrix(1,0,0,-1,175.798,398.975)"
               style="font-variant:normal;font-weight:normal;font-size:8.98165px;font-family:Geneva;-inkscape-font-specification:Geneva;writing-mode:lr-tb;fill:#999999;fill-opacity:1;fill-rule:nonzero;stroke:none"
               id="text256"><tspan
                 x="0 5.1707349"
                 y="0"
                 id="tspan252">E1</tspan><tspan
                 x="12.2475 15.650652"
                 y="19.187799"
                 id="tspan254">-1</tspan></text></g><path
             d="m 1052.29,1719.12 h -13.61"
             style="fill:none;stroke:#ffffff;stroke-width:4.16667;stroke-linecap:butt;stroke-linejoin:miter;stroke-miterlimit:10;stroke-dasharray:none;stroke-opacity:1"
             id="path258" /><path
             d="m 1062.5,1748.04 -10.21,-28.92"
             style="fill:none;stroke:#ffffff;stroke-width:4.16667;stroke-linecap:butt;stroke-linejoin:miter;stroke-miterlimit:10;stroke-dasharray:none;stroke-opacity:1"
             id="path260" /><path
             d="m 1079.51,1690.2 -17.01,57.84"
             style="fill:none;stroke:#ffffff;stroke-width:4.16667;stroke-linecap:butt;stroke-linejoin:miter;stroke-miterlimit:10;stroke-dasharray:none;stroke-opacity:1"
             id="path262" /><path
             d="m 1101.63,1748.04 -22.12,-57.84"
             style="fill:none;stroke:#ffffff;stroke-width:4.16667;stroke-linecap:butt;stroke-linejoin:miter;stroke-miterlimit:10;stroke-dasharray:none;stroke-opacity:1"
             id="path264" /><path
             d="m 1120.34,1691.91 -18.71,56.13"
             style="fill:none;stroke:#ffffff;stroke-width:4.16667;stroke-linecap:butt;stroke-linejoin:miter;stroke-miterlimit:10;stroke-dasharray:none;stroke-opacity:1"
             id="path266" /><path
             d="m 1147.55,1719.12 h -13.6"
             style="fill:none;stroke:#ffffff;stroke-width:4.16667;stroke-linecap:butt;stroke-linejoin:miter;stroke-miterlimit:10;stroke-dasharray:none;stroke-opacity:1"
             id="path268" /><path
             d="m 1133.95,1719.12 -13.61,-27.21"
             style="fill:none;stroke:#ffffff;stroke-width:4.16667;stroke-linecap:butt;stroke-linejoin:miter;stroke-miterlimit:10;stroke-dasharray:none;stroke-opacity:1"
             id="path270" /><g
             id="g272"
             transform="scale(4.16667)"><text
               transform="matrix(1,0,0,-1,255.747,422.654)"
               style="font-variant:normal;font-weight:normal;font-size:8.98165px;font-family:Geneva;-inkscape-font-specification:Geneva;writing-mode:lr-tb;fill:#999999;fill-opacity:1;fill-rule:nonzero;stroke:none"
               id="text278"><tspan
                 x="0 5.4428797"
                 y="0"
                 id="tspan274">Rk</tspan><tspan
                 x="-4.8253102 1.1609389 7.1472168"
                 y="24.0872"
                 id="tspan276">330</tspan></text></g><path
             d="m 1086.32,1528.6 h -47.64"
             style="fill:none;stroke:#ffffff;stroke-width:4.16667;stroke-linecap:butt;stroke-linejoin:miter;stroke-miterlimit:10;stroke-dasharray:none;stroke-opacity:1"
             id="path280" /><path
             d="m 1099.93,1528.6 h 47.62"
             style="fill:none;stroke:#ffffff;stroke-width:4.16667;stroke-linecap:butt;stroke-linejoin:miter;stroke-miterlimit:10;stroke-dasharray:none;stroke-opacity:1"
             id="path282" /><path
             d="m 1099.93,1555.82 v -54.43"
             style="fill:none;stroke:#ffffff;stroke-width:4.16667;stroke-linecap:butt;stroke-linejoin:miter;stroke-miterlimit:10;stroke-dasharray:none;stroke-opacity:1"
             id="path284" /><path
             d="m 1086.32,1555.82 v -54.43"
             style="fill:none;stroke:#ffffff;stroke-width:4.16667;stroke-linecap:butt;stroke-linejoin:miter;stroke-miterlimit:10;stroke-dasharray:none;stroke-opacity:1"
             id="path286" /><g
             id="g288"
             transform="scale(4.16667)"><text
               transform="matrix(1,0,0,-1,257.007,376.397)"
               style="font-variant:normal;font-weight:normal;font-size:8.98165px;font-family:Geneva;-inkscape-font-specification:Geneva;writing-mode:lr-tb;fill:#999999;fill-opacity:1;fill-rule:nonzero;stroke:none"
               id="text294"><tspan
                 x="0 5.8506575"
                 y="0"
                 id="tspan290">Ck</tspan><tspan
                 x="-3.29813 2.6881189 8.670002"
                 y="25.0641"
                 id="tspan292">47µ</tspan></text></g><path
             d="m 1504.78,1419.73 h 47.63 l -23.82,-23.81 z"
             style="fill:none;stroke:#ffffff;stroke-width:4.16667;stroke-linecap:butt;stroke-linejoin:miter;stroke-miterlimit:10;stroke-dasharray:none;stroke-opacity:1"
             id="path296" /><path
             d="m 579.395,1474.17 h 47.632 l -23.816,-23.81 z"
             style="fill:none;stroke:#ffffff;stroke-width:4.16667;stroke-linecap:butt;stroke-linejoin:miter;stroke-miterlimit:10;stroke-dasharray:none;stroke-opacity:1"
             id="path298" /><path
             d="m 769.914,1474.17 h 47.633 l -23.817,-23.81 z"
             style="fill:none;stroke:#ffffff;stroke-width:4.16667;stroke-linecap:butt;stroke-linejoin:miter;stroke-miterlimit:10;stroke-dasharray:none;stroke-opacity:1"
             id="path300" /><path
             d="m 987.652,1691.91 h 47.628 l -23.81,-23.82 z"
             style="fill:none;stroke:#ffffff;stroke-width:4.16667;stroke-linecap:butt;stroke-linejoin:miter;stroke-miterlimit:10;stroke-dasharray:none;stroke-opacity:1"
             id="path302" /><path
             d="m 987.652,1501.39 h 47.628 l -23.81,-23.82 z"
             style="fill:none;stroke:#ffffff;stroke-width:4.16667;stroke-linecap:butt;stroke-linejoin:miter;stroke-miterlimit:10;stroke-dasharray:none;stroke-opacity:1"
             id="path304" /><g
             id="g306"
             transform="scale(4.16667)"><text
               transform="matrix(1,0,0,-1,174.165,478.177)"
               style="font-variant:normal;font-weight:normal;font-size:8.98165px;font-family:Geneva;-inkscape-font-specification:Geneva;writing-mode:lr-tb;fill:#999999;fill-opacity:1;fill-rule:nonzero;stroke:none"
               id="text312"><tspan
                 x="0 2.723227 4.8357167 6.9481916 12.428785 15.421476 20.587715 26.436569 32.285412 38.268993 44.252579 46.975803 51.549267 56.787354"
                 y="0"
                 id="tspan308">.lib ECC99.sub</tspan><tspan
                 x="235.15601 241.11174 244.10712 249.34793 254.75578 258.22452 260.33429 268.36389 274.35016 277.34555 282.58633 287.9942 291.46292 293.57269 301.60229 307.58856 310.58395 315.82477 320.39911 325.56985 330.46848 333.46384"
                 y="140.44"
                 id="tspan310">K Lprim1 Lprim2 Lsec 1</tspan></text></g><g
             id="g330"
             transform="scale(4.16667)"><text
               transform="matrix(1,0,0,-1,174.165,491.241)"
               style="font-variant:normal;font-weight:normal;font-size:8.98165px;font-family:Geneva;-inkscape-font-specification:Geneva;writing-mode:lr-tb;fill:#999999;fill-opacity:1;fill-rule:nonzero;stroke:none"
               id="text334"><tspan
                 x="0 2.723227 6.7057014 10.174405 15.14306 20.38386 23.379246 29.365509 32.360897 38.347172 44.333435 52.363033 55.358418 61.344681 67.330963"
                 y="0"
                 id="tspan332">.tran 0 60m 50m</tspan></text></g><path
             d="M 1664.68,1991.29 H 1229.2"
             style="fill:none;stroke:#ffffff;stroke-width:4.16667;stroke-linecap:butt;stroke-linejoin:miter;stroke-miterlimit:10;stroke-dasharray:none;stroke-opacity:1"
             id="path336" /><path
             d="m 1229.2,1909.64 v 81.65"
             style="fill:none;stroke:#ffffff;stroke-width:4.16667;stroke-linecap:butt;stroke-linejoin:miter;stroke-miterlimit:10;stroke-dasharray:none;stroke-opacity:1"
             id="path338" /><path
             d="M 1147.55,1827.99 H 603.211"
             style="fill:none;stroke:#ffffff;stroke-width:4.16667;stroke-linecap:butt;stroke-linejoin:miter;stroke-miterlimit:10;stroke-dasharray:none;stroke-opacity:1"
             id="path340" /><path
             d="m 1664.68,1773.56 v 217.73"
             style="fill:none;stroke:#ffffff;stroke-width:4.16667;stroke-linecap:butt;stroke-linejoin:miter;stroke-miterlimit:10;stroke-dasharray:none;stroke-opacity:1"
             id="path342" /><path
             d="m 1964.07,1746.34 h -163.3"
             style="fill:none;stroke:#ffffff;stroke-width:4.16667;stroke-linecap:butt;stroke-linejoin:miter;stroke-miterlimit:10;stroke-dasharray:none;stroke-opacity:1"
             id="path344" /><path
             d="m 1038.68,1719.12 h -27.21"
             style="fill:none;stroke:#ffffff;stroke-width:4.16667;stroke-linecap:butt;stroke-linejoin:miter;stroke-miterlimit:10;stroke-dasharray:none;stroke-opacity:1"
             id="path346" /><path
             d="m 1174.77,1719.12 v 27.22"
             style="fill:none;stroke:#ffffff;stroke-width:4.16667;stroke-linecap:butt;stroke-linejoin:miter;stroke-miterlimit:10;stroke-dasharray:none;stroke-opacity:1"
             id="path348" /><path
             d="m 1174.77,1719.12 h -27.22"
             style="fill:none;stroke:#ffffff;stroke-width:4.16667;stroke-linecap:butt;stroke-linejoin:miter;stroke-miterlimit:10;stroke-dasharray:none;stroke-opacity:1"
             id="path350" /><path
             d="m 1011.47,1691.91 v 27.21"
             style="fill:none;stroke:#ffffff;stroke-width:4.16667;stroke-linecap:butt;stroke-linejoin:miter;stroke-miterlimit:10;stroke-dasharray:none;stroke-opacity:1"
             id="path352" /><path
             d="m 1800.77,1691.91 v 54.43"
             style="fill:none;stroke:#ffffff;stroke-width:4.16667;stroke-linecap:butt;stroke-linejoin:miter;stroke-miterlimit:10;stroke-dasharray:none;stroke-opacity:1"
             id="path354" /><path
             d="m 1964.07,1691.91 v 54.43"
             style="fill:none;stroke:#ffffff;stroke-width:4.16667;stroke-linecap:butt;stroke-linejoin:miter;stroke-miterlimit:10;stroke-dasharray:none;stroke-opacity:1"
             id="path356" /><path
             d="m 603.211,1664.69 v 163.3"
             style="fill:none;stroke:#ffffff;stroke-width:4.16667;stroke-linecap:butt;stroke-linejoin:miter;stroke-miterlimit:10;stroke-dasharray:none;stroke-opacity:1"
             id="path358" /><path
             d="M 712.078,1664.69 H 603.211"
             style="fill:none;stroke:#ffffff;stroke-width:4.16667;stroke-linecap:butt;stroke-linejoin:miter;stroke-miterlimit:10;stroke-dasharray:none;stroke-opacity:1"
             id="path360" /><path
             d="M 902.598,1664.69 H 793.73"
             style="fill:none;stroke:#ffffff;stroke-width:4.16667;stroke-linecap:butt;stroke-linejoin:miter;stroke-miterlimit:10;stroke-dasharray:none;stroke-opacity:1"
             id="path362" /><path
             d="m 712.078,1637.47 v 27.22"
             style="fill:none;stroke:#ffffff;stroke-width:4.16667;stroke-linecap:butt;stroke-linejoin:miter;stroke-miterlimit:10;stroke-dasharray:none;stroke-opacity:1"
             id="path364" /><path
             d="M 1664.68,1637.47 H 1528.59"
             style="fill:none;stroke:#ffffff;stroke-width:4.16667;stroke-linecap:butt;stroke-linejoin:miter;stroke-miterlimit:10;stroke-dasharray:none;stroke-opacity:1"
             id="path366" /><path
             d="m 1528.59,1583.04 v 54.43"
             style="fill:none;stroke:#ffffff;stroke-width:4.16667;stroke-linecap:butt;stroke-linejoin:miter;stroke-miterlimit:10;stroke-dasharray:none;stroke-opacity:1"
             id="path368" /><path
             d="m 712.078,1528.6 v 27.22"
             style="fill:none;stroke:#ffffff;stroke-width:4.16667;stroke-linecap:butt;stroke-linejoin:miter;stroke-miterlimit:10;stroke-dasharray:none;stroke-opacity:1"
             id="path370" /><path
             d="M 793.73,1528.6 H 712.078"
             style="fill:none;stroke:#ffffff;stroke-width:4.16667;stroke-linecap:butt;stroke-linejoin:miter;stroke-miterlimit:10;stroke-dasharray:none;stroke-opacity:1"
             id="path372" /><path
             d="m 1038.68,1528.6 h -27.21"
             style="fill:none;stroke:#ffffff;stroke-width:4.16667;stroke-linecap:butt;stroke-linejoin:miter;stroke-miterlimit:10;stroke-dasharray:none;stroke-opacity:1"
             id="path374" /><path
             d="m 1174.77,1528.6 v 190.52"
             style="fill:none;stroke:#ffffff;stroke-width:4.16667;stroke-linecap:butt;stroke-linejoin:miter;stroke-miterlimit:10;stroke-dasharray:none;stroke-opacity:1"
             id="path376" /><path
             d="m 1174.77,1528.6 h -27.22"
             style="fill:none;stroke:#ffffff;stroke-width:4.16667;stroke-linecap:butt;stroke-linejoin:miter;stroke-miterlimit:10;stroke-dasharray:none;stroke-opacity:1"
             id="path378" /><path
             d="m 1800.77,1528.6 v 27.22"
             style="fill:none;stroke:#ffffff;stroke-width:4.16667;stroke-linecap:butt;stroke-linejoin:miter;stroke-miterlimit:10;stroke-dasharray:none;stroke-opacity:1"
             id="path380" /><path
             d="m 1964.07,1528.6 v 54.44"
             style="fill:none;stroke:#ffffff;stroke-width:4.16667;stroke-linecap:butt;stroke-linejoin:miter;stroke-miterlimit:10;stroke-dasharray:none;stroke-opacity:1"
             id="path382" /><path
             d="m 1964.07,1528.6 h -163.3"
             style="fill:none;stroke:#ffffff;stroke-width:4.16667;stroke-linecap:butt;stroke-linejoin:miter;stroke-miterlimit:10;stroke-dasharray:none;stroke-opacity:1"
             id="path384" /><path
             d="m 1011.47,1501.39 v 27.21"
             style="fill:none;stroke:#ffffff;stroke-width:4.16667;stroke-linecap:butt;stroke-linejoin:miter;stroke-miterlimit:10;stroke-dasharray:none;stroke-opacity:1"
             id="path386" /><path
             d="m 1174.77,1501.39 v 27.21"
             style="fill:none;stroke:#ffffff;stroke-width:4.16667;stroke-linecap:butt;stroke-linejoin:miter;stroke-miterlimit:10;stroke-dasharray:none;stroke-opacity:1"
             id="path388" /><path
             d="m 603.211,1474.17 v 54.43"
             style="fill:none;stroke:#ffffff;stroke-width:4.16667;stroke-linecap:butt;stroke-linejoin:miter;stroke-miterlimit:10;stroke-dasharray:none;stroke-opacity:1"
             id="path390" /><path
             d="m 793.73,1474.17 v 54.43"
             style="fill:none;stroke:#ffffff;stroke-width:4.16667;stroke-linecap:butt;stroke-linejoin:miter;stroke-miterlimit:10;stroke-dasharray:none;stroke-opacity:1"
             id="path392" /><path
             d="m 902.598,1419.73 v 244.96"
             style="fill:none;stroke:#ffffff;stroke-width:4.16667;stroke-linecap:butt;stroke-linejoin:miter;stroke-miterlimit:10;stroke-dasharray:none;stroke-opacity:1"
             id="path394" /><path
             d="M 1147.55,1419.73 H 902.598"
             style="fill:none;stroke:#ffffff;stroke-width:4.16667;stroke-linecap:butt;stroke-linejoin:miter;stroke-miterlimit:10;stroke-dasharray:none;stroke-opacity:1"
             id="path396" /><path
             d="m 1528.59,1419.73 v 27.22"
             style="fill:none;stroke:#ffffff;stroke-width:4.16667;stroke-linecap:butt;stroke-linejoin:miter;stroke-miterlimit:10;stroke-dasharray:none;stroke-opacity:1"
             id="path398" /><path
             d="m 1229.2,1256.43 v 81.65"
             style="fill:none;stroke:#ffffff;stroke-width:4.16667;stroke-linecap:butt;stroke-linejoin:miter;stroke-miterlimit:10;stroke-dasharray:none;stroke-opacity:1"
             id="path400" /><path
             d="m 1664.68,1256.43 v 244.96"
             style="fill:none;stroke:#ffffff;stroke-width:4.16667;stroke-linecap:butt;stroke-linejoin:miter;stroke-miterlimit:10;stroke-dasharray:none;stroke-opacity:1"
             id="path402" /><path
             d="M 1664.68,1256.43 H 1229.2"
             style="fill:none;stroke:#ffffff;stroke-width:4.16667;stroke-linecap:butt;stroke-linejoin:miter;stroke-miterlimit:10;stroke-dasharray:none;stroke-opacity:1"
             id="path404" /><path
             d="m 594.707,1656.18 h 17.0078 v 17.0117 H 594.707 Z"
             style="fill:#ffffff;fill-opacity:1;fill-rule:nonzero;stroke:none"
             id="path406" /><path
             d="m 785.227,1520.1 h 17.0078 v 17.0117 H 785.227 Z"
             style="fill:#ffffff;fill-opacity:1;fill-rule:nonzero;stroke:none"
             id="path408" /><path
             d="m 1166.27,1710.62 h 17.0117 v 17.0117 H 1166.27 Z"
             style="fill:#ffffff;fill-opacity:1;fill-rule:nonzero;stroke:none"
             id="path410" /><path
             d="m 1166.27,1520.1 h 17.0117 v 17.0117 H 1166.27 Z"
             style="fill:#ffffff;fill-opacity:1;fill-rule:nonzero;stroke:none"
             id="path412" /><path
             d="m 1656.17,1628.96 h 17.0117 v 17.0117 H 1656.17 Z"
             style="fill:#ffffff;fill-opacity:1;fill-rule:nonzero;stroke:none"
             id="path414" /></g></g></g></g></svg>
