<?xml version="1.0" encoding="UTF-8" standalone="no"?>
<svg
   xmlns:dc="http://purl.org/dc/elements/1.1/"
   xmlns:cc="http://creativecommons.org/ns#"
   xmlns:rdf="http://www.w3.org/1999/02/22-rdf-syntax-ns#"
   xmlns:svg="http://www.w3.org/2000/svg"
   xmlns="http://www.w3.org/2000/svg"
   version="1.1"
   id="svg1335"
   xml:space="preserve"
   width="614.59399"
   height="361.33768"
   viewBox="0 0 921.89098 542.00654"><metadata
     id="metadata1341"><rdf:RDF><cc:Work
         rdf:about=""><dc:format>image/svg+xml</dc:format><dc:type
           rdf:resource="http://purl.org/dc/dcmitype/StillImage" /><dc:title></dc:title></cc:Work></rdf:RDF></metadata><defs
     id="defs1339"><clipPath
       clipPathUnits="userSpaceOnUse"
       id="clipPath1353"><path
         d="m 375,299.582 h 1729.17 v 2908.34 H 375 Z"
         id="path1351" /></clipPath><clipPath
       clipPathUnits="userSpaceOnUse"
       id="clipPath1625"><path
         d="M 500,503.75 H 2020.83 V 2957.92 H 500 Z"
         id="path1623" /></clipPath></defs><g
     id="g1343"
     transform="matrix(0,-1.3333333,-1.3333333,0,1025.1493,667.07604)"><g
       id="g1345"
       transform="scale(0.24)"><g
         id="g1347"><g
           id="g1349"
           clip-path="url(#clipPath1353)"><g
             id="g1355"
             transform="scale(4.16667)"><text
               transform="matrix(0,-1,-1,0,94.0003,726.186)"
               style="font-variant:normal;font-weight:normal;font-size:14px;font-family:Menlo;-inkscape-font-specification:Menlo-Regular;writing-mode:lr-tb;fill:#afafaf;fill-opacity:1;fill-rule:nonzero;stroke:none"
               id="text1359"><tspan
                 x="0 8.4280005 16.856001 25.283415"
                 y="0"
                 id="tspan1357">10Hz</tspan></text></g><path
             d="M 500,2955.53 H 458.332"
             style="fill:none;stroke:#afafaf;stroke-width:4.16667;stroke-linecap:butt;stroke-linejoin:miter;stroke-miterlimit:10;stroke-dasharray:none;stroke-opacity:1"
             id="path1361" /><path
             d="M 500,2723.24 H 479.168"
             style="fill:none;stroke:#afafaf;stroke-width:4.16667;stroke-linecap:butt;stroke-linejoin:miter;stroke-miterlimit:10;stroke-dasharray:none;stroke-opacity:1"
             id="path1363" /><path
             d="M 500,2587.35 H 479.168"
             style="fill:none;stroke:#afafaf;stroke-width:4.16667;stroke-linecap:butt;stroke-linejoin:miter;stroke-miterlimit:10;stroke-dasharray:none;stroke-opacity:1"
             id="path1365" /><path
             d="M 500,2490.94 H 479.168"
             style="fill:none;stroke:#afafaf;stroke-width:4.16667;stroke-linecap:butt;stroke-linejoin:miter;stroke-miterlimit:10;stroke-dasharray:none;stroke-opacity:1"
             id="path1367" /><path
             d="M 500,2416.16 H 479.168"
             style="fill:none;stroke:#afafaf;stroke-width:4.16667;stroke-linecap:butt;stroke-linejoin:miter;stroke-miterlimit:10;stroke-dasharray:none;stroke-opacity:1"
             id="path1369" /><path
             d="M 500,2355.06 H 479.168"
             style="fill:none;stroke:#afafaf;stroke-width:4.16667;stroke-linecap:butt;stroke-linejoin:miter;stroke-miterlimit:10;stroke-dasharray:none;stroke-opacity:1"
             id="path1371" /><path
             d="M 500,2303.4 H 479.168"
             style="fill:none;stroke:#afafaf;stroke-width:4.16667;stroke-linecap:butt;stroke-linejoin:miter;stroke-miterlimit:10;stroke-dasharray:none;stroke-opacity:1"
             id="path1373" /><path
             d="M 500,2258.65 H 479.168"
             style="fill:none;stroke:#afafaf;stroke-width:4.16667;stroke-linecap:butt;stroke-linejoin:miter;stroke-miterlimit:10;stroke-dasharray:none;stroke-opacity:1"
             id="path1375" /><path
             d="M 500,2219.18 H 479.168"
             style="fill:none;stroke:#afafaf;stroke-width:4.16667;stroke-linecap:butt;stroke-linejoin:miter;stroke-miterlimit:10;stroke-dasharray:none;stroke-opacity:1"
             id="path1377" /><g
             id="g1379"
             transform="scale(4.16667)"><text
               transform="matrix(0,-1,-1,0,94.0003,545.199)"
               style="font-variant:normal;font-weight:normal;font-size:14px;font-family:Menlo;-inkscape-font-specification:Menlo-Regular;writing-mode:lr-tb;fill:#afafaf;fill-opacity:1;fill-rule:nonzero;stroke:none"
               id="text1383"><tspan
                 x="0 8.4280005 16.855413 25.283415 33.711414"
                 y="0"
                 id="tspan1381">100Hz</tspan></text></g><path
             d="M 500,2183.86 H 458.332"
             style="fill:none;stroke:#afafaf;stroke-width:4.16667;stroke-linecap:butt;stroke-linejoin:miter;stroke-miterlimit:10;stroke-dasharray:none;stroke-opacity:1"
             id="path1385" /><path
             d="M 500,1951.57 H 479.168"
             style="fill:none;stroke:#afafaf;stroke-width:4.16667;stroke-linecap:butt;stroke-linejoin:miter;stroke-miterlimit:10;stroke-dasharray:none;stroke-opacity:1"
             id="path1387" /><path
             d="M 500,1815.69 H 479.168"
             style="fill:none;stroke:#afafaf;stroke-width:4.16667;stroke-linecap:butt;stroke-linejoin:miter;stroke-miterlimit:10;stroke-dasharray:none;stroke-opacity:1"
             id="path1389" /><path
             d="M 500,1719.27 H 479.168"
             style="fill:none;stroke:#afafaf;stroke-width:4.16667;stroke-linecap:butt;stroke-linejoin:miter;stroke-miterlimit:10;stroke-dasharray:none;stroke-opacity:1"
             id="path1391" /><path
             d="M 500,1644.49 H 479.168"
             style="fill:none;stroke:#afafaf;stroke-width:4.16667;stroke-linecap:butt;stroke-linejoin:miter;stroke-miterlimit:10;stroke-dasharray:none;stroke-opacity:1"
             id="path1393" /><path
             d="M 500,1583.39 H 479.168"
             style="fill:none;stroke:#afafaf;stroke-width:4.16667;stroke-linecap:butt;stroke-linejoin:miter;stroke-miterlimit:10;stroke-dasharray:none;stroke-opacity:1"
             id="path1395" /><path
             d="M 500,1531.73 H 479.168"
             style="fill:none;stroke:#afafaf;stroke-width:4.16667;stroke-linecap:butt;stroke-linejoin:miter;stroke-miterlimit:10;stroke-dasharray:none;stroke-opacity:1"
             id="path1397" /><path
             d="M 500,1486.98 H 479.168"
             style="fill:none;stroke:#afafaf;stroke-width:4.16667;stroke-linecap:butt;stroke-linejoin:miter;stroke-miterlimit:10;stroke-dasharray:none;stroke-opacity:1"
             id="path1399" /><path
             d="M 500,1447.51 H 479.168"
             style="fill:none;stroke:#afafaf;stroke-width:4.16667;stroke-linecap:butt;stroke-linejoin:miter;stroke-miterlimit:10;stroke-dasharray:none;stroke-opacity:1"
             id="path1401" /><g
             id="g1403"
             transform="scale(4.16667)"><text
               transform="matrix(0,-1,-1,0,94.0003,355.785)"
               style="font-variant:normal;font-weight:normal;font-size:14px;font-family:Menlo;-inkscape-font-specification:Menlo-Regular;writing-mode:lr-tb;fill:#afafaf;fill-opacity:1;fill-rule:nonzero;stroke:none"
               id="text1407"><tspan
                 x="0 8.4280005 16.856001 25.283415"
                 y="0"
                 id="tspan1405">1KHz</tspan></text></g><path
             d="M 500,1412.2 H 458.332"
             style="fill:none;stroke:#afafaf;stroke-width:4.16667;stroke-linecap:butt;stroke-linejoin:miter;stroke-miterlimit:10;stroke-dasharray:none;stroke-opacity:1"
             id="path1409" /><path
             d="M 500,1179.9 H 479.168"
             style="fill:none;stroke:#afafaf;stroke-width:4.16667;stroke-linecap:butt;stroke-linejoin:miter;stroke-miterlimit:10;stroke-dasharray:none;stroke-opacity:1"
             id="path1411" /><path
             d="M 500,1044.02 H 479.168"
             style="fill:none;stroke:#afafaf;stroke-width:4.16667;stroke-linecap:butt;stroke-linejoin:miter;stroke-miterlimit:10;stroke-dasharray:none;stroke-opacity:1"
             id="path1413" /><path
             d="M 500,947.605 H 479.168"
             style="fill:none;stroke:#afafaf;stroke-width:4.16667;stroke-linecap:butt;stroke-linejoin:miter;stroke-miterlimit:10;stroke-dasharray:none;stroke-opacity:1"
             id="path1415" /><path
             d="M 500,872.824 H 479.168"
             style="fill:none;stroke:#afafaf;stroke-width:4.16667;stroke-linecap:butt;stroke-linejoin:miter;stroke-miterlimit:10;stroke-dasharray:none;stroke-opacity:1"
             id="path1417" /><path
             d="M 500,811.723 H 479.168"
             style="fill:none;stroke:#afafaf;stroke-width:4.16667;stroke-linecap:butt;stroke-linejoin:miter;stroke-miterlimit:10;stroke-dasharray:none;stroke-opacity:1"
             id="path1419" /><path
             d="M 500,760.063 H 479.168"
             style="fill:none;stroke:#afafaf;stroke-width:4.16667;stroke-linecap:butt;stroke-linejoin:miter;stroke-miterlimit:10;stroke-dasharray:none;stroke-opacity:1"
             id="path1421" /><path
             d="M 500,715.313 H 479.168"
             style="fill:none;stroke:#afafaf;stroke-width:4.16667;stroke-linecap:butt;stroke-linejoin:miter;stroke-miterlimit:10;stroke-dasharray:none;stroke-opacity:1"
             id="path1423" /><path
             d="M 500,675.84 H 479.168"
             style="fill:none;stroke:#afafaf;stroke-width:4.16667;stroke-linecap:butt;stroke-linejoin:miter;stroke-miterlimit:10;stroke-dasharray:none;stroke-opacity:1"
             id="path1425" /><g
             id="g1427"
             transform="scale(4.16667)"><text
               transform="matrix(0,-1,-1,0,94.0003,174.799)"
               style="font-variant:normal;font-weight:normal;font-size:14px;font-family:Menlo;-inkscape-font-specification:Menlo-Regular;writing-mode:lr-tb;fill:#afafaf;fill-opacity:1;fill-rule:nonzero;stroke:none"
               id="text1431"><tspan
                 x="0 8.4274139 16.855413 25.283415 33.710827"
                 y="0"
                 id="tspan1429">10KHz</tspan></text></g><path
             d="M 500,640.531 H 458.332"
             style="fill:none;stroke:#afafaf;stroke-width:4.16667;stroke-linecap:butt;stroke-linejoin:miter;stroke-miterlimit:10;stroke-dasharray:none;stroke-opacity:1"
             id="path1433" /><g
             id="g1435"
             transform="scale(4.16667)"><text
               transform="matrix(0,-1,-1,0,114,727.757)"
               style="font-variant:normal;font-weight:normal;font-size:14px;font-family:Menlo;-inkscape-font-specification:Menlo-Regular;writing-mode:lr-tb;fill:#afafaf;fill-opacity:1;fill-rule:nonzero;stroke:none"
               id="text1439"><tspan
                 x="0 -8.4281301 -16.857189 -25.28532 -33.714378 -42.14344"
                 y="0"
                 id="tspan1437">Bd0.81</tspan></text></g><path
             d="m 500,2955.53 v 41.67"
             style="fill:none;stroke:#afafaf;stroke-width:4.16667;stroke-linecap:butt;stroke-linejoin:miter;stroke-miterlimit:10;stroke-dasharray:none;stroke-opacity:1"
             id="path1441" /><g
             id="g1443"
             transform="scale(4.16667)"><text
               transform="matrix(0,-1,-1,0,147.182,727.757)"
               style="font-variant:normal;font-weight:normal;font-size:14px;font-family:Menlo;-inkscape-font-specification:Menlo-Regular;writing-mode:lr-tb;fill:#afafaf;fill-opacity:1;fill-rule:nonzero;stroke:none"
               id="text1447"><tspan
                 x="0 -8.4281301 -16.857189 -25.28532 -33.714378 -42.14344"
                 y="0"
                 id="tspan1445">Bd5.81</tspan></text></g><path
             d="m 638.258,2955.53 v 41.67"
             style="fill:none;stroke:#afafaf;stroke-width:4.16667;stroke-linecap:butt;stroke-linejoin:miter;stroke-miterlimit:10;stroke-dasharray:none;stroke-opacity:1"
             id="path1449" /><g
             id="g1451"
             transform="scale(4.16667)"><text
               transform="matrix(0,-1,-1,0,180.364,727.757)"
               style="font-variant:normal;font-weight:normal;font-size:14px;font-family:Menlo;-inkscape-font-specification:Menlo-Regular;writing-mode:lr-tb;fill:#afafaf;fill-opacity:1;fill-rule:nonzero;stroke:none"
               id="text1455"><tspan
                 x="0 -8.4281301 -16.857189 -25.28532 -33.714378 -42.14344"
                 y="0"
                 id="tspan1453">Bd0.91</tspan></text></g><path
             d="m 776.516,2955.53 v 41.67"
             style="fill:none;stroke:#afafaf;stroke-width:4.16667;stroke-linecap:butt;stroke-linejoin:miter;stroke-miterlimit:10;stroke-dasharray:none;stroke-opacity:1"
             id="path1457" /><g
             id="g1459"
             transform="scale(4.16667)"><text
               transform="matrix(0,-1,-1,0,213.546,727.757)"
               style="font-variant:normal;font-weight:normal;font-size:14px;font-family:Menlo;-inkscape-font-specification:Menlo-Regular;writing-mode:lr-tb;fill:#afafaf;fill-opacity:1;fill-rule:nonzero;stroke:none"
               id="text1463"><tspan
                 x="0 -8.4281301 -16.857189 -25.28532 -33.714378 -42.14344"
                 y="0"
                 id="tspan1461">Bd5.91</tspan></text></g><path
             d="m 914.773,2955.53 v 41.67"
             style="fill:none;stroke:#afafaf;stroke-width:4.16667;stroke-linecap:butt;stroke-linejoin:miter;stroke-miterlimit:10;stroke-dasharray:none;stroke-opacity:1"
             id="path1465" /><g
             id="g1467"
             transform="scale(4.16667)"><text
               transform="matrix(0,-1,-1,0,246.727,727.757)"
               style="font-variant:normal;font-weight:normal;font-size:14px;font-family:Menlo;-inkscape-font-specification:Menlo-Regular;writing-mode:lr-tb;fill:#afafaf;fill-opacity:1;fill-rule:nonzero;stroke:none"
               id="text1471"><tspan
                 x="0 -8.4281301 -16.857189 -25.28532 -33.714378 -42.14344"
                 y="0"
                 id="tspan1469">Bd0.02</tspan></text></g><path
             d="m 1053.03,2955.53 v 41.67"
             style="fill:none;stroke:#afafaf;stroke-width:4.16667;stroke-linecap:butt;stroke-linejoin:miter;stroke-miterlimit:10;stroke-dasharray:none;stroke-opacity:1"
             id="path1473" /><g
             id="g1475"
             transform="scale(4.16667)"><text
               transform="matrix(0,-1,-1,0,279.909,727.757)"
               style="font-variant:normal;font-weight:normal;font-size:14px;font-family:Menlo;-inkscape-font-specification:Menlo-Regular;writing-mode:lr-tb;fill:#afafaf;fill-opacity:1;fill-rule:nonzero;stroke:none"
               id="text1479"><tspan
                 x="0 -8.4281301 -16.857189 -25.28532 -33.714378 -42.14344"
                 y="0"
                 id="tspan1477">Bd5.02</tspan></text></g><path
             d="m 1191.29,2955.53 v 41.67"
             style="fill:none;stroke:#afafaf;stroke-width:4.16667;stroke-linecap:butt;stroke-linejoin:miter;stroke-miterlimit:10;stroke-dasharray:none;stroke-opacity:1"
             id="path1481" /><g
             id="g1483"
             transform="scale(4.16667)"><text
               transform="matrix(0,-1,-1,0,313.091,727.757)"
               style="font-variant:normal;font-weight:normal;font-size:14px;font-family:Menlo;-inkscape-font-specification:Menlo-Regular;writing-mode:lr-tb;fill:#afafaf;fill-opacity:1;fill-rule:nonzero;stroke:none"
               id="text1487"><tspan
                 x="0 -8.4281301 -16.857189 -25.28532 -33.714378 -42.14344"
                 y="0"
                 id="tspan1485">Bd0.12</tspan></text></g><path
             d="m 1329.55,2955.53 v 41.67"
             style="fill:none;stroke:#afafaf;stroke-width:4.16667;stroke-linecap:butt;stroke-linejoin:miter;stroke-miterlimit:10;stroke-dasharray:none;stroke-opacity:1"
             id="path1489" /><g
             id="g1491"
             transform="scale(4.16667)"><text
               transform="matrix(0,-1,-1,0,346.273,727.757)"
               style="font-variant:normal;font-weight:normal;font-size:14px;font-family:Menlo;-inkscape-font-specification:Menlo-Regular;writing-mode:lr-tb;fill:#afafaf;fill-opacity:1;fill-rule:nonzero;stroke:none"
               id="text1495"><tspan
                 x="0 -8.4281301 -16.857189 -25.28532 -33.714378 -42.14344"
                 y="0"
                 id="tspan1493">Bd5.12</tspan></text></g><path
             d="m 1467.8,2955.53 v 41.67"
             style="fill:none;stroke:#afafaf;stroke-width:4.16667;stroke-linecap:butt;stroke-linejoin:miter;stroke-miterlimit:10;stroke-dasharray:none;stroke-opacity:1"
             id="path1497" /><g
             id="g1499"
             transform="scale(4.16667)"><text
               transform="matrix(0,-1,-1,0,379.454,727.757)"
               style="font-variant:normal;font-weight:normal;font-size:14px;font-family:Menlo;-inkscape-font-specification:Menlo-Regular;writing-mode:lr-tb;fill:#afafaf;fill-opacity:1;fill-rule:nonzero;stroke:none"
               id="text1503"><tspan
                 x="0 -8.4281301 -16.857189 -25.28532 -33.714378 -42.14344"
                 y="0"
                 id="tspan1501">Bd0.22</tspan></text></g><path
             d="m 1606.06,2955.53 v 41.67"
             style="fill:none;stroke:#afafaf;stroke-width:4.16667;stroke-linecap:butt;stroke-linejoin:miter;stroke-miterlimit:10;stroke-dasharray:none;stroke-opacity:1"
             id="path1505" /><g
             id="g1507"
             transform="scale(4.16667)"><text
               transform="matrix(0,-1,-1,0,412.637,727.757)"
               style="font-variant:normal;font-weight:normal;font-size:14px;font-family:Menlo;-inkscape-font-specification:Menlo-Regular;writing-mode:lr-tb;fill:#afafaf;fill-opacity:1;fill-rule:nonzero;stroke:none"
               id="text1511"><tspan
                 x="0 -8.4281301 -16.857189 -25.28532 -33.714378 -42.14344"
                 y="0"
                 id="tspan1509">Bd5.22</tspan></text></g><path
             d="m 1744.32,2955.53 v 41.67"
             style="fill:none;stroke:#afafaf;stroke-width:4.16667;stroke-linecap:butt;stroke-linejoin:miter;stroke-miterlimit:10;stroke-dasharray:none;stroke-opacity:1"
             id="path1513" /><g
             id="g1515"
             transform="scale(4.16667)"><text
               transform="matrix(0,-1,-1,0,445.818,727.757)"
               style="font-variant:normal;font-weight:normal;font-size:14px;font-family:Menlo;-inkscape-font-specification:Menlo-Regular;writing-mode:lr-tb;fill:#afafaf;fill-opacity:1;fill-rule:nonzero;stroke:none"
               id="text1519"><tspan
                 x="0 -8.4281301 -16.857189 -25.28532 -33.714378 -42.14344"
                 y="0"
                 id="tspan1517">Bd0.32</tspan></text></g><path
             d="m 1882.57,2955.53 v 41.67"
             style="fill:none;stroke:#afafaf;stroke-width:4.16667;stroke-linecap:butt;stroke-linejoin:miter;stroke-miterlimit:10;stroke-dasharray:none;stroke-opacity:1"
             id="path1521" /><g
             id="g1523"
             transform="scale(4.16667)"><text
               transform="matrix(0,-1,-1,0,479,727.757)"
               style="font-variant:normal;font-weight:normal;font-size:14px;font-family:Menlo;-inkscape-font-specification:Menlo-Regular;writing-mode:lr-tb;fill:#afafaf;fill-opacity:1;fill-rule:nonzero;stroke:none"
               id="text1527"><tspan
                 x="0 -8.4281301 -16.857189 -25.28532 -33.714378 -42.14344"
                 y="0"
                 id="tspan1525">Bd5.32</tspan></text></g><path
             d="m 2020.83,2955.53 v 41.67"
             style="fill:none;stroke:#afafaf;stroke-width:4.16667;stroke-linecap:butt;stroke-linejoin:miter;stroke-miterlimit:10;stroke-dasharray:none;stroke-opacity:1"
             id="path1529" /><g
             id="g1531"
             transform="scale(4.16667)"><text
               transform="matrix(0,-1,-1,0,114,83.8284)"
               style="font-variant:normal;font-weight:normal;font-size:14px;font-family:Menlo;-inkscape-font-specification:Menlo-Regular;writing-mode:lr-tb;fill:#afafaf;fill-opacity:1;fill-rule:nonzero;stroke:none"
               id="text1535"><tspan
                 x="0 -8.42906 -16.85812 -25.286249"
                 y="0"
                 id="tspan1533">°81-</tspan></text></g><path
             d="M 500,504.645 V 462.98"
             style="fill:none;stroke:#afafaf;stroke-width:4.16667;stroke-linecap:butt;stroke-linejoin:miter;stroke-miterlimit:10;stroke-dasharray:none;stroke-opacity:1"
             id="path1537" /><g
             id="g1539"
             transform="scale(4.16667)"><text
               transform="matrix(0,-1,-1,0,154.555,83.8284)"
               style="font-variant:normal;font-weight:normal;font-size:14px;font-family:Menlo;-inkscape-font-specification:Menlo-Regular;writing-mode:lr-tb;fill:#afafaf;fill-opacity:1;fill-rule:nonzero;stroke:none"
               id="text1543"><tspan
                 x="0 -8.42906 -16.85812 -25.286249"
                 y="0"
                 id="tspan1541">°61-</tspan></text></g><path
             d="M 668.98,504.645 V 462.98"
             style="fill:none;stroke:#afafaf;stroke-width:4.16667;stroke-linecap:butt;stroke-linejoin:miter;stroke-miterlimit:10;stroke-dasharray:none;stroke-opacity:1"
             id="path1545" /><g
             id="g1547"
             transform="scale(4.16667)"><text
               transform="matrix(0,-1,-1,0,195.112,83.8284)"
               style="font-variant:normal;font-weight:normal;font-size:14px;font-family:Menlo;-inkscape-font-specification:Menlo-Regular;writing-mode:lr-tb;fill:#afafaf;fill-opacity:1;fill-rule:nonzero;stroke:none"
               id="text1551"><tspan
                 x="0 -8.42906 -16.85812 -25.286249"
                 y="0"
                 id="tspan1549">°41-</tspan></text></g><path
             d="M 837.965,504.645 V 462.98"
             style="fill:none;stroke:#afafaf;stroke-width:4.16667;stroke-linecap:butt;stroke-linejoin:miter;stroke-miterlimit:10;stroke-dasharray:none;stroke-opacity:1"
             id="path1553" /><g
             id="g1555"
             transform="scale(4.16667)"><text
               transform="matrix(0,-1,-1,0,235.667,83.8284)"
               style="font-variant:normal;font-weight:normal;font-size:14px;font-family:Menlo;-inkscape-font-specification:Menlo-Regular;writing-mode:lr-tb;fill:#afafaf;fill-opacity:1;fill-rule:nonzero;stroke:none"
               id="text1559"><tspan
                 x="0 -8.42906 -16.85812 -25.286249"
                 y="0"
                 id="tspan1557">°21-</tspan></text></g><path
             d="M 1006.95,504.645 V 462.98"
             style="fill:none;stroke:#afafaf;stroke-width:4.16667;stroke-linecap:butt;stroke-linejoin:miter;stroke-miterlimit:10;stroke-dasharray:none;stroke-opacity:1"
             id="path1561" /><g
             id="g1563"
             transform="scale(4.16667)"><text
               transform="matrix(0,-1,-1,0,276.222,83.8284)"
               style="font-variant:normal;font-weight:normal;font-size:14px;font-family:Menlo;-inkscape-font-specification:Menlo-Regular;writing-mode:lr-tb;fill:#afafaf;fill-opacity:1;fill-rule:nonzero;stroke:none"
               id="text1567"><tspan
                 x="0 -8.42906 -16.85812 -25.286249"
                 y="0"
                 id="tspan1565">°01-</tspan></text></g><path
             d="M 1175.93,504.645 V 462.98"
             style="fill:none;stroke:#afafaf;stroke-width:4.16667;stroke-linecap:butt;stroke-linejoin:miter;stroke-miterlimit:10;stroke-dasharray:none;stroke-opacity:1"
             id="path1569" /><g
             id="g1571"
             transform="scale(4.16667)"><text
               transform="matrix(0,-1,-1,0,316.777,83.8284)"
               style="font-variant:normal;font-weight:normal;font-size:14px;font-family:Menlo;-inkscape-font-specification:Menlo-Regular;writing-mode:lr-tb;fill:#afafaf;fill-opacity:1;fill-rule:nonzero;stroke:none"
               id="text1575"><tspan
                 x="0 -8.42906 -16.85812"
                 y="0"
                 id="tspan1573">°8-</tspan></text></g><path
             d="M 1344.91,504.645 V 462.98"
             style="fill:none;stroke:#afafaf;stroke-width:4.16667;stroke-linecap:butt;stroke-linejoin:miter;stroke-miterlimit:10;stroke-dasharray:none;stroke-opacity:1"
             id="path1577" /><g
             id="g1579"
             transform="scale(4.16667)"><text
               transform="matrix(0,-1,-1,0,357.334,83.8284)"
               style="font-variant:normal;font-weight:normal;font-size:14px;font-family:Menlo;-inkscape-font-specification:Menlo-Regular;writing-mode:lr-tb;fill:#afafaf;fill-opacity:1;fill-rule:nonzero;stroke:none"
               id="text1583"><tspan
                 x="0 -8.42906 -16.85812"
                 y="0"
                 id="tspan1581">°6-</tspan></text></g><path
             d="M 1513.89,504.645 V 462.98"
             style="fill:none;stroke:#afafaf;stroke-width:4.16667;stroke-linecap:butt;stroke-linejoin:miter;stroke-miterlimit:10;stroke-dasharray:none;stroke-opacity:1"
             id="path1585" /><g
             id="g1587"
             transform="scale(4.16667)"><text
               transform="matrix(0,-1,-1,0,397.889,83.8284)"
               style="font-variant:normal;font-weight:normal;font-size:14px;font-family:Menlo;-inkscape-font-specification:Menlo-Regular;writing-mode:lr-tb;fill:#afafaf;fill-opacity:1;fill-rule:nonzero;stroke:none"
               id="text1591"><tspan
                 x="0 -8.42906 -16.85812"
                 y="0"
                 id="tspan1589">°4-</tspan></text></g><path
             d="M 1682.87,504.645 V 462.98"
             style="fill:none;stroke:#afafaf;stroke-width:4.16667;stroke-linecap:butt;stroke-linejoin:miter;stroke-miterlimit:10;stroke-dasharray:none;stroke-opacity:1"
             id="path1593" /><g
             id="g1595"
             transform="scale(4.16667)"><text
               transform="matrix(0,-1,-1,0,438.444,83.8284)"
               style="font-variant:normal;font-weight:normal;font-size:14px;font-family:Menlo;-inkscape-font-specification:Menlo-Regular;writing-mode:lr-tb;fill:#afafaf;fill-opacity:1;fill-rule:nonzero;stroke:none"
               id="text1599"><tspan
                 x="0 -8.42906 -16.85812"
                 y="0"
                 id="tspan1597">°2-</tspan></text></g><path
             d="M 1851.85,504.645 V 462.98"
             style="fill:none;stroke:#afafaf;stroke-width:4.16667;stroke-linecap:butt;stroke-linejoin:miter;stroke-miterlimit:10;stroke-dasharray:none;stroke-opacity:1"
             id="path1601" /><g
             id="g1603"
             transform="scale(4.16667)"><text
               transform="matrix(0,-1,-1,0,479,83.8284)"
               style="font-variant:normal;font-weight:normal;font-size:14px;font-family:Menlo;-inkscape-font-specification:Menlo-Regular;writing-mode:lr-tb;fill:#afafaf;fill-opacity:1;fill-rule:nonzero;stroke:none"
               id="text1607"><tspan
                 x="0 -8.42906"
                 y="0"
                 id="tspan1605">°0</tspan></text></g><path
             d="M 2020.83,504.645 V 462.98"
             style="fill:none;stroke:#afafaf;stroke-width:4.16667;stroke-linecap:butt;stroke-linejoin:miter;stroke-miterlimit:10;stroke-dasharray:none;stroke-opacity:1"
             id="path1609" /><path
             d="m 500,504.645 h 1520.83 v 2450.89 H 500 Z"
             style="fill:none;stroke:#afafaf;stroke-width:4.16667;stroke-linecap:butt;stroke-linejoin:miter;stroke-miterlimit:10;stroke-dasharray:none;stroke-opacity:1"
             id="path1611" /><g
             id="g1613"
             transform="scale(4.16667)"><text
               transform="matrix(0,-1,-1,0,489,449.043)"
               style="font-variant:normal;font-weight:normal;font-size:14px;font-family:Menlo;-inkscape-font-specification:Menlo-Regular;writing-mode:lr-tb;fill:#0eff00;fill-opacity:1;fill-rule:nonzero;stroke:none"
               id="text1617"><tspan
                 x="0 8.4280005 16.855413 25.283415 33.711414 42.138828 50.56683 58.994827"
                 y="0"
                 id="tspan1615">V(vout1)</tspan></text></g></g></g><g
         id="g1619"><g
           id="g1621"
           clip-path="url(#clipPath1625)"><path
             d="m 1955.73,2955.53 v 0 l -0.94,-2.32 -0.95,-2.32 -0.96,-2.33 -0.98,-2.32 -0.99,-2.32 -1,-2.33 -1.01,-2.32 -1.03,-2.32 -1.04,-2.32 -1.05,-2.33 -1.06,-2.32 -1.08,-2.32 -1.09,-2.33 -1.1,-2.32 -1.12,-2.32 -1.13,-2.33 -1.14,-2.32 -1.16,-2.32 -1.17,-2.33 -1.19,-2.32 -1.2,-2.32 -1.21,-2.32 -1.23,-2.32 -1.24,-2.33 -1.26,-2.32 -1.28,-2.32 -1.29,-2.33 -1.3,-2.32 -1.32,-2.32 -1.33,-2.33 -1.36,-2.32 -1.36,-2.32 -1.39,-2.32 -1.4,-2.33 -1.41,-2.32 -1.44,-2.32 -1.45,-2.33 -1.46,-2.32 -1.48,-2.32 -1.5,-2.33 -1.52,-2.32 -1.54,-2.32 -1.55,-2.33 -1.57,-2.32 -1.59,-2.32 -1.61,-2.32 -1.62,-2.32 -1.64,-2.33 -1.66,-2.32 -1.69,-2.32 -1.69,-2.33 -1.72,-2.32 -1.74,-2.33 -1.76,-2.32 -1.77,-2.32 -1.8,-2.32 -1.81,-2.32 -1.83,-2.33 -1.86,-2.32 -1.87,-2.32 -1.9,-2.33 -1.92,-2.32 -1.93,-2.32 -1.96,-2.33 -1.98,-2.32 -2,-2.32 -2.03,-2.33 -2.03,-2.32 -2.07,-2.32 -2.09,-2.32 -2.11,-2.33 -2.13,-2.32 -2.15,-2.32 -2.17,-2.33 -2.2,-2.32 -2.22,-2.32 -2.24,-2.33 -2.26,-2.32 -2.29,-2.32 -2.31,-2.32 -2.34,-2.32 -2.35,-2.33 -2.38,-2.32 -2.41,-2.33 -2.43,-2.32 -2.45,-2.32 -2.48,-2.33 -2.5,-2.32 -2.52,-2.32 -2.55,-2.33 -2.57,-2.32 -2.6,-2.32 -2.62,-2.32 -2.65,-2.32 -2.67,-2.33 -2.69,-2.32 -2.73,-2.32 -2.74,-2.33 -2.77,-2.32 -1.4,-1.16 -1.4,-1.16 -1.41,-1.17 -1.41,-1.16 -1.43,-1.16 -1.42,-1.16 -1.43,-1.16 -1.45,-1.16 -1.44,-1.16 -1.45,-1.16 -1.47,-1.16 -1.46,-1.17 -1.47,-1.16 -1.48,-1.16 -1.48,-1.16 -1.5,-1.16 -1.5,-1.16 -1.5,-1.17 -1.51,-1.16 -1.52,-1.16 -1.52,-1.16 -1.53,-1.16 -1.54,-1.16 -1.54,-1.17 -1.55,-1.16 -1.56,-1.16 -1.56,-1.16 -1.57,-1.16 -1.58,-1.16 -1.58,-1.17 -1.59,-1.16 -1.6,-1.16 -1.6,-1.16 -1.61,-1.16 -1.61,-1.16 -1.62,-1.16 -1.63,-1.16 -1.64,-1.16 -1.64,-1.17 -1.65,-1.16 -1.65,-1.16 -1.66,-1.16 -1.67,-1.16 -1.68,-1.16 -1.68,-1.17 -1.68,-1.16 -1.7,-1.16 -1.7,-1.16 -1.7,-1.16 -1.72,-1.16 -1.72,-1.17 -1.73,-1.16 -1.73,-1.16 -1.74,-1.16 -1.75,-1.16 -1.75,-1.16 -1.76,-1.16 -1.77,-1.16 -1.77,-1.17 -1.78,-1.16 -1.78,-1.16 -1.8,-1.16 -1.79,-1.16 -1.81,-1.16 -1.82,-1.17 -1.81,-1.16 -1.83,-1.16 -1.83,-1.16 -1.84,-1.16 -1.84,-1.16 -1.85,-1.17 -1.86,-1.16 -1.86,-1.16 -1.87,-1.16 -1.88,-1.16 -1.89,-1.16 -1.89,-1.16 -1.89,-1.17 -1.9,-1.16 -1.91,-1.16 -1.92,-1.16 -1.92,-1.16 -1.92,-1.16 -1.94,-1.16 -1.94,-1.16 -1.94,-1.17 -1.96,-1.16 -1.96,-1.16 -1.96,-1.16 -1.98,-1.16 -1.97,-1.16 -1.99,-1.17 -1.99,-1.16 -2,-1.16 -2,-1.16 -2.01,-1.16 -2.01,-1.16 -2.02,-1.17 -2.03,-1.16 -2.04,-1.16 -2.03,-1.16 -2.05,-1.16 -2.05,-1.16 -2.06,-1.16 -2.06,-1.16 -2.07,-1.16 -2.08,-1.17 -2.08,-1.16 -2.09,-1.16 -2.09,-1.16 -2.1,-1.16 -2.1,-1.16 -2.12,-1.17 -2.11,-1.16 -2.12,-1.16 -2.13,-1.16 -2.14,-1.16 -2.13,-1.16 -2.15,-1.17 -2.15,-1.16 -2.16,-1.16 -2.16,-1.16 -2.16,-1.16 -2.18,-1.16 -2.18,-1.16 -2.18,-1.17 -2.19,-1.16 -2.19,-1.16 -2.2,-1.16 -2.21,-1.16 -2.21,-1.16 -2.22,-1.16 -2.22,-1.17 -2.22,-1.16 -2.24,-1.16 -2.23,-1.16 -2.24,-1.16 -2.25,-1.16 -2.25,-1.17 -2.26,-1.16 -2.26,-1.16 -2.27,-1.16 -2.27,-1.16 -2.28,-1.16 -2.28,-1.17 -2.29,-1.16 -2.29,-1.16 -2.3,-1.16 -2.3,-1.16 -2.31,-1.16 -2.3,-1.16 -2.32,-1.16 -2.32,-1.16 -2.32,-1.17 -2.33,-1.16 -2.33,-1.16 -2.34,-1.16 -2.34,-1.16 -2.35,-1.16 -2.35,-1.17 -2.36,-1.16 -2.36,-1.16 -2.36,-1.16 -2.37,-1.16 -2.37,-1.16 -2.38,-1.17 -2.37,-1.16 -2.39,-1.16 -2.39,-1.16 -2.39,-1.16 -2.39,-1.16 -2.4,-1.16 -2.4,-1.16 -2.41,-1.17 -2.41,-1.16 -2.42,-1.16 -2.41,-1.16 -2.42,-1.16 -2.43,-1.16 -2.43,-1.16 -2.43,-1.17 -2.43,-1.16 -2.44,-1.16 -2.44,-1.16 -2.45,-1.16 -2.45,-1.16 -2.45,-1.17 -2.45,-1.16 -2.46,-1.16 -2.46,-1.16 -2.46,-1.16 -2.47,-1.16 -2.46,-1.17 -2.47,-1.16 -2.48,-1.16 -2.48,-1.16 -2.47,-1.16 -2.49,-1.16 -2.48,-1.16 -2.49,-1.16 -2.49,-1.17 -2.49,-1.16 -2.49,-1.16 -2.5,-1.16 -2.5,-1.16 -2.5,-1.16 -2.5,-1.17 -2.51,-1.16 -2.5,-1.16 -2.51,-1.16 -2.51,-1.16 -2.52,-1.16 -2.51,-1.17 -2.51,-1.16 -2.52,-1.16 -2.52,-1.16 -2.52,-1.16 -2.53,-1.16 -2.52,-1.16 -2.53,-1.16 -2.52,-1.16 -2.53,-1.17 -2.53,-1.16 -2.53,-1.16 -2.53,-1.16 -2.54,-1.16 -2.53,-1.16 -2.53,-1.17 -2.54,-1.16 -2.54,-1.16 -2.54,-1.16 -2.53,-1.16 -2.54,-1.16 -2.54,-1.17 -2.54,-1.16 -2.54,-1.16 -2.54,-1.16 -2.55,-1.16 -2.54,-1.16 -2.54,-1.17 -2.54,-1.16 -2.54,-1.16 -2.55,-1.16 -2.54,-1.16 -2.55,-1.16 -2.54,-1.16 -2.54,-1.16 -2.55,-1.16 -2.54,-1.17 -2.54,-1.16 -2.55,-1.16 -2.54,-1.16 -2.54,-1.16 -2.54,-1.16 -2.54,-1.17 -2.54,-1.16 -2.54,-1.16 -2.54,-1.16 -2.54,-1.16 -2.54,-1.16 -2.53,-1.17 -2.54,-1.16 -2.53,-1.16 -2.54,-1.16 -2.53,-1.16 -2.53,-1.16 -2.53,-1.16 -2.53,-1.16 -2.53,-1.17 -2.53,-1.16 -2.52,-1.16 -2.53,-1.16 -2.52,-1.16 -2.52,-1.16 -2.52,-1.17 -2.52,-1.16 -2.51,-1.16 -2.52,-1.16 -2.51,-1.16 -2.51,-1.16 -2.51,-1.17 -2.51,-1.16 -2.5,-1.16 -2.51,-1.16 -2.5,-1.16 -2.5,-1.16 -2.49,-1.17 -2.49,-1.16 -2.5,-1.16 -2.49,-1.16 -2.48,-1.16 -2.49,-1.16 -2.48,-1.16 -2.48,-1.16 -2.47,-1.16 -2.48,-1.17 -2.47,-1.16 -2.47,-1.16 -2.47,-1.16 -2.46,-1.16 -2.46,-1.16 -2.46,-1.17 -2.45,-1.16 -2.45,-1.16 -2.45,-1.16 -2.44,-1.16 -2.44,-1.16 -2.44,-1.17 -2.44,-1.16 -2.43,-1.16 -2.43,-1.16 -2.42,-1.16 -2.42,-1.16 -2.42,-1.16 -2.41,-1.16 -2.42,-1.16 -2.4,-1.17 -2.4,-1.16 -2.4,-1.16 -2.4,-1.16 -2.39,-1.16 -2.39,-1.16 -2.38,-1.17 -2.38,-1.16 -2.38,-1.16 -2.37,-1.16 -2.37,-1.16 -2.36,-1.16 -2.36,-1.17 -2.35,-1.16 -2.36,-1.16 -2.34,-1.16 -2.34,-1.16 -2.34,-1.16 -2.34,-1.17 -2.32,-1.16 -2.33,-1.16 -2.32,-1.16 -2.31,-1.16 -2.31,-1.16 -2.31,-1.16 -2.3,-1.16 -2.3,-1.16 -2.29,-1.17 -2.29,-1.16 -2.28,-1.16 -2.28,-1.16 -2.27,-1.16 -2.27,-1.16 -2.26,-1.17 -2.26,-1.16 -2.25,-1.16 -2.25,-1.16 -2.24,-1.16 -2.24,-1.16 -2.226,-1.17 -2.227,-1.16 -2.222,-1.16 -2.215,-1.16 -2.211,-1.16 -2.207,-1.16 -2.199,-1.16 -2.196,-1.16 -2.191,-1.17 -2.184,-1.16 -2.175,-1.16 -2.176,-1.16 -2.168,-1.16 -2.16,-1.16 -2.157,-1.17 -2.152,-1.16 -2.144,-1.16 -2.141,-1.16 -2.133,-1.16 -2.125,-1.16 -2.125,-1.17 -2.117,-1.16 -2.109,-1.16 -2.106,-1.16 -2.098,-1.16 -2.093,-1.16 -2.09,-1.16 -2.078,-1.17 -2.078,-1.16 -2.071,-1.16 -2.062,-1.16 -2.059,-1.16 -2.051,-1.16 -2.046,-1.16 -2.04,-1.16 -2.031,-1.17 -2.027,-1.16 -2.024,-1.16 -2.015,-1.16 -2.008,-1.16 -2.004,-1.16 -1.996,-1.17 -1.992,-1.16 -1.985,-1.16 -1.976,-1.16 -1.973,-1.16 -1.965,-1.16 -1.961,-1.17 -1.953,-1.16 -1.945,-1.16 -1.941,-1.16 -1.934,-1.16 -1.93,-1.16 -1.922,-1.16 -1.914,-1.16 -1.91,-1.16"
             style="fill:none;stroke:#0eff00;stroke-width:4.16667;stroke-linecap:butt;stroke-linejoin:miter;stroke-miterlimit:1;stroke-dasharray:none;stroke-opacity:1"
             id="path1627" /><path
             d="m 884.492,2248.2 v 0 l -1.902,-1.17 -1.895,-1.16 -1.89,-1.16 -1.883,-1.16 -1.879,-1.16 -1.871,-1.16 -1.863,-1.17 -1.856,-1.16 -1.851,-1.16 -1.844,-1.16 -1.84,-1.16 -1.832,-1.16 -1.824,-1.17 -1.821,-1.16 -1.812,-1.16 -1.805,-1.16 -1.797,-1.16 -1.793,-1.16 -1.789,-1.16 -1.777,-1.17 -1.773,-1.16 -1.766,-1.16 -1.762,-1.16 -1.754,-1.16 -1.746,-1.16 -1.738,-1.16 -1.734,-1.17 -1.727,-1.16 -1.723,-1.16 -1.715,-1.16 -1.707,-1.16 -1.699,-1.16 -1.695,-1.17 -1.688,-1.16 -1.683,-1.16 -1.672,-1.16 -1.668,-1.16 -1.664,-1.16 -1.652,-1.17 -1.649,-1.16 -1.644,-1.16 -1.633,-1.16 -1.629,-1.16 -1.621,-1.16 -1.617,-1.16 -1.61,-1.16 -1.601,-1.16 -1.598,-1.17 -1.586,-1.16 -1.586,-1.16 -1.574,-1.16 -1.57,-1.16 -1.563,-1.16 -1.558,-1.17 -1.547,-1.16 -1.547,-1.16 -1.535,-1.16 -1.532,-1.16 -1.523,-1.16 -1.52,-1.17 -1.507,-1.16 -1.508,-1.16 -1.496,-1.16 -1.493,-1.16 -1.484,-1.16 -1.48,-1.16 -1.473,-1.16 -1.465,-1.17 -1.457,-1.16 -1.453,-1.16 -1.449,-1.16 -1.438,-1.16 -1.437,-1.16 -1.426,-1.16 -1.422,-1.17 -1.414,-1.16 -1.406,-1.16 -1.403,-1.16 -1.398,-1.16 -1.387,-1.16 -2.761,-2.33 -2.735,-2.32 -2.707,-2.32 -2.687,-2.33 -2.657,-2.32 -2.636,-2.32 -2.61,-2.32 -2.586,-2.33 -2.562,-2.32 -2.535,-2.32 -2.512,-2.33 -2.488,-2.32 -2.465,-2.32 -2.442,-2.33 -2.414,-2.32 -2.394,-2.32 -2.371,-2.32 -2.344,-2.33 -2.324,-2.32 -2.297,-2.32 -2.277,-2.33 -2.254,-2.32 -2.231,-2.32 -2.207,-2.33 -2.187,-2.32 -2.164,-2.32 -2.141,-2.33 -2.117,-2.32 -2.098,-2.32 -2.078,-2.32 -2.051,-2.32 -2.035,-2.33 -2.008,-2.32 -1.992,-2.32 -1.969,-2.33 -1.945,-2.32 -1.93,-2.32 -1.906,-2.33 -1.883,-2.32 -1.867,-2.32 -1.844,-2.32 -1.828,-2.33 -1.804,-2.32 -1.786,-2.32 -1.765,-2.33 -1.75,-2.32 -1.727,-2.32 -1.707,-2.33 -1.691,-2.32 -1.672,-2.32 -1.652,-2.33 -1.633,-2.32 -1.617,-2.32 -1.598,-2.32 -1.578,-2.33 -1.563,-2.32 -1.543,-2.32 -1.527,-2.33 -1.508,-2.32 -1.492,-2.32 -1.473,-2.33 -1.461,-2.32 -1.441,-2.32 -1.422,-2.32 -1.41,-2.32 -1.391,-2.33 -1.375,-2.32 -1.359,-2.32 -1.344,-2.33 -1.328,-2.32 -1.312,-2.32 -1.297,-2.33 -1.282,-2.32 -1.265,-2.32 -1.254,-2.33 -1.238,-2.32 -1.219,-2.32 -1.211,-2.32 -1.191,-2.33 -1.18,-2.32 -1.164,-2.32 -1.153,-2.33 -1.136,-2.32 -1.125,-2.32 -1.11,-2.33 -1.093,-2.32 -1.086,-2.32 -1.071,-2.32 -1.054,-2.33 -1.047,-2.32 -1.031,-2.32 -1.02,-2.33 -1.004,-2.32 -0.996,-2.32 -0.98,-2.33 -0.973,-2.32 -0.957,-2.32 -0.945,-2.32 -0.934,-2.33 -0.926,-2.32 -0.91,-2.32 -0.902,-2.32 -0.887,-2.33 -0.879,-2.32 -0.867,-2.32 -0.856,-2.33 -0.847,-2.32 -0.836,-2.32 -0.824,-2.33 -0.813,-2.32 -0.805,-2.32 -0.793,-2.32 -0.785,-2.33 -0.773,-2.32 -0.766,-2.32 -0.754,-2.33 -0.746,-2.32 -0.738,-2.32 -0.727,-2.33 -0.715,-2.32 -0.71,-2.32 -0.7,-2.32 -0.687,-2.33 -0.684,-2.32 -0.672,-2.32 -0.664,-2.33 -0.656,-2.32 -0.648,-2.32 -0.637,-2.33 -0.633,-2.32 -0.621,-2.32 -0.617,-2.33 -0.606,-2.32 -0.601,-2.32 -0.59,-2.32 -0.586,-2.32 -0.574,-2.33 -0.571,-2.32 -0.562,-2.32 -0.551,-2.33 -0.547,-2.32 -0.543,-2.32 -0.531,-2.33 -0.527,-2.32 -0.52,-2.32 -0.512,-2.32 -0.507,-2.33 -0.496,-2.32 -0.493,-2.32 -0.488,-2.33 -0.48,-2.32 -0.473,-2.32 -0.469,-2.33 -0.461,-2.32 -0.457,-2.32 -0.449,-2.33 -0.441,-2.32 -0.438,-2.32 -0.433,-2.32 -0.426,-2.33 -0.422,-2.32 -0.414,-2.32 -0.41,-2.32 -0.403,-2.33 -0.402,-2.32 -0.391,-2.33 -0.39,-2.32 -0.383,-2.32 -0.379,-2.32 -0.371,-2.32 -0.371,-2.33 -0.363,-2.32 -0.36,-2.32 -0.351,-2.33 -0.352,-2.32 -0.344,-2.32 -0.34,-2.33 -0.335,-2.32 -0.333,-2.32 -0.324,-2.33 -0.324,-2.32 -0.316,-2.32 -0.317,-2.32 -0.308,-2.33 -0.305,-2.32 -0.305,-2.32 -0.297,-2.33 -0.293,-2.32 -0.289,-2.32 -0.285,-2.33 -0.281,-2.32 -0.281,-2.32 -0.274,-2.32 -0.269,-2.32 -0.27,-2.33 -0.262,-2.32 -0.261,-2.32 -0.254,-2.33 -0.254,-2.32 -0.25,-2.32 -0.246,-2.33 -0.246,-2.32 -0.239,-2.33 -0.238,-2.32 -0.23,-2.32 -0.231,-2.32 -0.226,-2.32 -0.227,-2.33 -0.219,-2.32 -0.218,-2.32 -0.215,-2.33 -0.215,-2.32 -0.211,-2.32 -0.203,-2.33 -0.207,-2.32 -0.199,-2.32 -0.2,-2.32 -0.195,-2.33 -0.195,-2.32 -0.188,-2.32 -0.187,-2.33 -0.188,-2.32 -0.183,-2.32 -0.18,-2.33 -0.18,-2.32 -0.172,-2.32 -0.175,-2.33 -0.172,-2.32 -0.168,-2.32 -0.164,-2.32 -0.164,-2.32 -0.164,-2.33 -0.161,-2.32 -0.156,-2.32 -0.156,-2.33 -0.152,-2.32 -0.153,-2.32 -0.148,-2.33 -0.149,-2.32 -0.144,-2.32 -0.141,-2.32 -0.144,-2.33 -0.137,-2.32 -0.137,-2.32 -0.136,-2.33 -0.133,-2.32 -0.133,-2.32 -0.129,-2.33 -0.129,-2.32 -0.129,-2.32 -0.125,-2.33 -0.121,-2.32 -0.121,-2.32 -0.121,-2.32 -0.117,-2.33 -0.117,-2.32 -0.118,-2.32 -0.113,-2.33 -0.109,-2.32 -0.114,-2.32 -0.105,-2.33 -0.109,-2.32 -0.106,-2.32 -0.105,-2.32 -0.102,-2.32 -0.101,-2.33 -0.102,-2.32 -0.098,-2.32 -0.097,-2.33 -0.098,-2.32 -0.094,-2.32 -0.093,-2.33 -0.094,-2.32 -0.09,-2.32 -0.09,-2.33 -0.09,-2.32 -0.086,-2.32 -0.086,-2.32 -0.086,-2.33 -0.086,-2.32 -0.082,-2.32 -0.082,-2.33 -0.078,-2.32 -0.082,-2.32 -0.078,-2.33 -0.078,-2.32 -0.074,-2.32 -0.074,-2.32 -0.075,-2.33 -0.074,-2.32 -0.07,-2.32 -0.074,-2.33 -0.071,-2.32 -0.066,-2.32 -0.07,-2.33 -0.067,-2.32 -0.066,-2.32 -0.067,-2.32 -0.062,-2.33 -0.067,-2.32 -0.062,-2.32 -0.063,-2.32 -0.058,-2.33 -0.063,-2.32 -0.058,-2.32 -0.059,-2.33 -0.058,-2.32 -0.059,-2.32 -0.055,-2.33 -0.054,-2.32 -0.055,-2.32 -0.055,-2.32 -0.054,-2.33 -0.051,-2.32 -0.051,-2.32 -0.051,-2.33 -0.051,-2.32 -0.05,-2.32 -0.051,-2.33 -0.047,-2.32 -0.047,-2.32 -0.047,-2.32 -0.047,-2.33 -0.047,-2.32 -0.042,-2.32 -0.047,-2.33 -0.043,-2.32 -0.043,-2.32 -0.043,-2.33 -0.043,-2.32 -0.043,-2.32 -0.039,-2.33 -0.039,-2.32 -0.043,-2.32 -0.039,-2.32 -0.039,-2.32 -0.036,-2.33 -0.039,-2.32 -0.039,-2.32 -0.035,-2.33 -0.035,-2.32 -0.035,-2.32 -0.035,-2.33 -0.035,-2.32 -0.036,-2.32 -0.035,-2.32 -0.031,-2.33 -0.035,-2.32 -0.031,-2.32 -0.032,-2.33 -0.031,-2.32 -0.031,-2.32 -0.031,-2.33 -0.032,-2.32 -0.031,-2.32 -0.027,-2.33 -0.032,-2.32 -0.027,-2.32 -0.027,-2.32 -0.028,-2.33 -0.027,-2.32 -0.027,-2.32 -0.028,-2.33 -0.027,-2.32 -0.023,-2.32 -0.028,-2.33 -0.023,-2.32 -0.028,-2.32 -0.023,-2.32 -0.023,-2.32 -0.024,-2.33 -0.023,-2.32 -0.024,-2.32 -0.023,-2.33 -0.024,-2.32 -0.023,-2.32 -0.02,-2.33 -0.023,-2.32 -0.023,-2.32 -0.02,-2.33 -0.019,-2.32 -0.024,-2.32 -0.019,-2.32 -0.02,-2.33 -0.02,-2.32 -0.019,-2.32 -0.02,-2.33 -0.019,-2.32 -0.016,-2.32 -0.019,-2.33 -0.02,-2.32 -0.015,-2.32 -0.02,-2.32 -0.016,-2.33 -0.019,-2.32 -0.016,-2.32 -0.015,-2.33 -0.02,-2.32 -0.016,-2.32 -0.015,-2.33 -0.016,-2.32 -0.015,-2.32 -0.016,-2.32 -0.016,-2.33 -0.011,-2.32 -0.016,-2.32 -0.016,-2.32 -0.015,-2.33 -0.012,-2.32 -0.016,-2.32 -0.011,-2.33 -0.016,-2.32 -0.012,-2.32 -0.015,-2.33 -0.012,-2.32 -0.012,-2.32 -0.011,-2.32 -0.016,-2.33 -0.012,-2.32 -0.011,-2.32 -0.012,-2.33 -0.012,-2.32 -0.012,-2.32 -0.011,-2.33 -0.012,-2.32 -0.012,-2.32 -0.012,-2.32 -0.007,-2.33 -0.012,-2.32 -0.012,-2.32"
             style="fill:none;stroke:#0eff00;stroke-width:4.16667;stroke-linecap:butt;stroke-linejoin:miter;stroke-miterlimit:1;stroke-dasharray:none;stroke-opacity:1"
             id="path1629" /><path
             d="m 511.449,1156.41 v 0 l -0.008,-2.33 -0.011,-2.32 -0.012,-2.32 -0.008,-2.33 -0.012,-2.32 -0.007,-2.32 -0.012,-2.33 -0.008,-2.32 -0.008,-2.32 -0.011,-2.32 -0.008,-2.32 -0.008,-2.33 -0.012,-2.32 -0.008,-2.32 -0.007,-2.33 -0.008,-2.32 -0.008,-2.32 -0.012,-2.33 -0.008,-2.32 -0.007,-2.32 -0.008,-2.32 -0.008,-2.33 -0.008,-2.32 -0.008,-2.32 -0.007,-2.33 -0.004,-2.32 -0.008,-2.32 -0.008,-2.33 -0.008,-2.32 -0.008,-2.32 -0.003,-2.33 -0.008,-2.32 -0.008,-2.32 -0.008,-2.32 -0.004,-2.32 -0.008,-2.33 -0.007,-2.32 -0.004,-2.33 -0.008,-2.32 -0.004,-2.32 -0.008,-2.33 -0.004,-2.32 -0.008,-2.32 -0.004,-2.32 -0.007,-2.32 -0.004,-2.33 -0.008,-2.32 -0.004,-2.32 -0.004,-2.33 -0.008,-2.32 -0.004,-2.32 -0.003,-2.33 -0.008,-2.32 -0.004,-2.32 -0.004,-2.33 -0.004,-2.32 -0.008,-2.32 -0.004,-2.32 -0.004,-2.33 -0.004,-2.32 -0.003,-2.32 -0.008,-2.33 -0.004,-2.32 -0.004,-2.32 -0.004,-2.33 -0.004,-2.32 -0.004,-2.32 -0.004,-2.325 -0.004,-2.32 -0.004,-2.324 -0.003,-2.324 -0.004,-2.321 -0.004,-2.324 -0.004,-2.324 -0.004,-2.324 -0.004,-2.321 -0.004,-2.324 -0.004,-2.324 -0.004,-2.32 -0.004,-2.325 -0.003,-2.324 v -2.32 l -0.004,-2.324 -0.004,-2.325 -0.004,-2.32 -0.004,-2.324 -0.004,-2.324 v -2.321 l -0.004,-2.324 -0.004,-2.324 -0.004,-2.32 -0.004,-2.325 v -2.324 l -0.004,-2.32 -0.003,-2.324 v -2.325 l -0.004,-2.32 -0.004,-2.324 -0.004,-2.324 v -2.321 l -0.004,-2.324 -0.004,-2.324 v -2.32 l -0.004,-2.325 v -2.324 l -0.004,-2.32 -0.004,-2.324 v -2.325 l -0.004,-2.32 -0.004,-2.324 v -2.324 l -0.003,-2.325 v -2.32 l -0.004,-2.324 v -2.324 l -0.004,-2.321 v -2.324 l -0.004,-2.324 v -2.32 l -0.004,-2.325 v -2.324 l -0.004,-2.32 v -2.324 l -0.004,-2.325 v -2.32 l -0.004,-2.324 v -2.324 l -0.004,-2.321 v -2.324 l -0.004,-2.324 v -2.32 l -0.003,-2.325 v -2.324 -2.32 l -0.004,-2.324 v -2.325 l -0.004,-2.32 v -2.324 -2.324 l -0.004,-2.321 v -2.324 l -0.004,-2.324 v -2.32 -2.325 l -0.004,-2.324 v -2.324 -2.32 l -0.004,-2.325 v -2.324 -2.32 l -0.004,-2.324 v -2.325 -2.32 l -0.004,-2.324 v -2.324 -2.321 l -0.004,-2.324 v -2.324 -2.32 l -0.004,-2.325 v -2.324 -2.32 -2.324 l -0.003,-2.325 v -2.32 -2.324 l -0.004,-2.324 v -2.321 -2.324 -2.324 l -0.004,-2.32 v -2.325 -2.324 -2.32 l -0.004,-2.324 v -2.325 -2.32 -2.324 l -0.004,-2.324 v -2.321 -2.324 -2.324 -2.32 l -0.004,-2.325 v -2.324 -2.324 -2.32 -2.325 l -0.004,-2.324 v -2.32 -2.324 -2.325 -2.32 l -0.004,-2.324 v -2.324 -2.321 -2.324 -2.324 -2.32 l -0.004,-2.325 v -2.324 -2.32 -2.324 -2.325 -2.32 l -0.004,-2.324 v -2.324 -2.321 -2.324 -2.324 -2.32 -2.325 l -0.004,-2.324 v -2.32 -2.324 -2.325 -2.32 -2.324 -2.324 l -0.003,-2.321 v -2.324 -2.324 -2.324 -2.321 -2.324 -2.324 -2.32 l -0.004,-2.325 v -2.324 -2.32 -2.324 -2.325 -2.32 -2.324 -2.324 -2.321 -2.324 l -0.004,-2.324 v -2.32 -2.325 -2.324 -2.32 -2.324 -2.325 -2.32 -2.324 -2.324 l -0.004,-2.321 v -2.324 -2.324 -2.32 -2.325 -2.324 -2.324 -2.32 -2.325 -2.32 -2.324 -2.324 -2.321 l -0.004,-2.324 v -2.324 -2.324 -2.321 -2.324 -2.324 -2.32 -2.325 -2.324 -2.32 -2.324 -2.324 -2.321 -2.324 -2.324 l -0.004,-2.321 v -2.324 -2.324 -2.32 -2.325"
             style="fill:none;stroke:#0eff00;stroke-width:4.16667;stroke-linecap:butt;stroke-linejoin:miter;stroke-miterlimit:1;stroke-dasharray:none;stroke-opacity:1"
             id="path1631" /><path
             d="m 1385.01,2955.53 v 0 l -1.98,-1.16 -2,-1.16 -1.99,-1.16 -2,-1.16 -2.01,-1.16 -2.01,-1.17 -2.02,-1.16 -2.02,-1.16 -2.03,-1.16 -2.03,-1.16 -2.03,-1.16 -2.04,-1.17 -2.05,-1.16 -2.05,-1.16 -2.05,-1.16 -2.06,-1.16 -2.06,-1.16 -2.07,-1.16 -2.07,-1.17 -2.08,-1.16 -2.08,-1.16 -2.09,-1.16 -2.09,-1.16 -2.1,-1.16 -2.1,-1.16 -2.11,-1.17 -2.11,-1.16 -2.11,-1.16 -2.12,-1.16 -2.13,-1.16 -2.12,-1.16 -2.14,-1.17 -2.13,-1.16 -2.15,-1.16 -2.14,-1.16 -2.16,-1.16 -2.15,-1.16 -2.16,-1.17 -2.17,-1.16 -2.17,-1.16 -2.17,-1.16 -2.18,-1.16 -2.18,-1.16 -2.19,-1.16 -2.2,-1.16 -2.19,-1.16 -2.2,-1.17 -2.21,-1.16 -2.21,-1.16 -2.21,-1.16 -2.22,-1.16 -2.22,-1.16 -2.24,-1.17 -2.23,-1.16 -2.23,-1.16 -2.24,-1.16 -2.25,-1.16 -2.25,-1.16 -2.25,-1.17 -2.26,-1.16 -2.26,-1.16 -2.27,-1.16 -2.27,-1.16 -2.27,-1.16 -2.28,-1.16 -2.28,-1.16 -2.29,-1.17 -2.29,-1.16 -2.3,-1.16 -2.3,-1.16 -2.3,-1.16 -2.31,-1.16 -2.31,-1.16 -2.32,-1.17 -2.32,-1.16 -2.32,-1.16 -2.33,-1.16 -2.33,-1.16 -2.34,-1.16 -2.34,-1.17 -2.34,-1.16 -2.35,-1.16 -2.35,-1.16 -2.36,-1.16 -2.36,-1.16 -2.35,-1.17 -2.37,-1.16 -2.37,-1.16 -2.37,-1.16 -2.38,-1.16 -2.39,-1.16 -2.38,-1.16 -2.39,-1.16 -2.39,-1.16 -2.39,-1.17 -2.4,-1.16 -2.4,-1.16 -2.41,-1.16 -2.41,-1.16 -2.42,-1.16 -2.41,-1.17 -2.42,-1.16 -2.42,-1.16 -2.43,-1.16 -2.43,-1.16 -2.43,-1.17 -2.44,-1.16 -2.44,-1.16 -2.44,-1.16 -2.44,-1.16 -2.45,-1.16 -2.45,-1.16 -2.46,-1.16 -2.45,-1.16 -2.46,-1.17 -2.47,-1.16 -2.46,-1.16 -2.47,-1.16 -2.47,-1.16 -2.48,-1.16 -2.48,-1.17 -2.48,-1.16 -2.48,-1.16 -2.49,-1.16 -2.49,-1.16 -2.48,-1.16 -2.5,-1.17 -2.49,-1.16 -2.5,-1.16 -2.5,-1.16 -2.51,-1.16 -2.5,-1.16 -2.51,-1.17 -2.51,-1.16 -2.51,-1.16 -2.51,-1.16 -2.52,-1.16 -2.52,-1.16 -2.52,-1.16 -2.52,-1.16 -2.52,-1.16 -2.53,-1.17 -2.53,-1.16 -2.53,-1.16 -2.53,-1.16 -2.53,-1.16 -2.54,-1.16 -2.54,-1.17 -2.54,-1.16 -2.53,-1.16 -2.55,-1.16 -2.54,-1.16 -2.54,-1.16 -2.55,-1.17 -2.55,-1.16 -2.54,-1.16 -2.56,-1.16 -2.55,-1.16 -2.55,-1.16 -2.55,-1.16 -2.56,-1.16 -2.55,-1.16 -2.56,-1.17 -2.55,-1.16 -2.56,-1.16 -2.557,-1.16 -2.559,-1.16 -2.563,-1.17 -2.558,-1.16 -2.563,-1.16 -2.558,-1.16 -2.563,-1.16 -2.562,-1.16 -2.563,-1.17 -2.562,-1.16 -2.563,-1.16 -2.566,-1.16 -2.563,-1.16 -2.562,-1.16 -2.563,-1.17 -2.562,-1.16 -2.563,-1.16 -2.562,-1.16 -2.563,-1.16 -2.562,-1.16 -2.563,-1.16 -2.562,-1.16 -2.559,-1.16 -2.562,-1.17 -2.559,-1.16 -2.558,-1.16 -2.559,-1.16 -2.559,-1.16 -2.554,-1.16 -2.555,-1.17 -2.555,-1.16 -2.554,-1.16 -2.551,-1.16 -2.555,-1.16 -2.547,-1.16 -2.551,-1.17 -2.546,-1.16 -2.543,-1.16 -2.547,-1.16 -2.539,-1.16 -2.543,-1.16 -2.539,-1.16 -2.535,-1.16 -2.536,-1.16 -2.535,-1.17 -2.531,-1.16 -2.527,-1.16 -2.528,-1.16 -2.527,-1.16 -2.52,-1.16 -2.519,-1.17 -2.52,-1.16 -2.515,-1.16 -2.512,-1.16 -2.508,-1.16 -2.508,-1.16 -2.504,-1.17 -2.5,-1.16 -2.5,-1.16 -2.496,-1.16 -2.492,-1.16 -2.488,-1.16 -2.484,-1.17 -2.481,-1.16 -2.48,-1.16 -2.477,-1.16 -2.469,-1.16 -2.468,-1.16 -2.465,-1.16 -2.461,-1.16 -2.453,-1.16 -2.454,-1.17 -2.449,-1.16 -2.445,-1.16 -2.438,-1.16 -2.437,-1.16 -2.43,-1.16 -2.429,-1.17 -2.422,-1.16 -2.418,-1.16 -2.41,-1.16 -2.411,-1.16 -2.402,-1.16 -2.398,-1.17 -2.395,-1.16 -2.387,-1.16 -2.382,-1.16 -2.379,-1.16 -2.371,-1.16 -2.368,-1.16 -2.363,-1.16 -2.355,-1.17 -2.348,-1.16 -2.348,-1.16 -2.336,-1.16 -2.332,-1.16 -2.328,-1.16 -2.32,-1.17 -2.313,-1.16 -2.308,-1.16 -2.301,-1.16 -2.297,-1.16 -2.289,-1.16 -2.281,-1.17 -2.274,-1.16 -2.269,-1.16 -2.262,-1.16 -2.254,-1.16 -2.25,-1.16 -2.238,-1.16 -2.234,-1.17 -2.227,-1.16 -2.215,-1.16 -2.215,-1.16 -2.203,-1.16 -2.195,-1.16 -2.188,-1.16 -2.179,-1.16 -2.172,-1.17 -2.164,-1.16 -2.156,-1.16 -2.149,-1.16 -2.141,-1.16 -2.128,-1.16 -2.125,-1.17 -2.114,-1.16 -2.105,-1.16 -2.098,-1.16 -2.09,-1.16 -2.078,-1.16 -2.07,-1.17 -2.063,-1.16 -2.054,-1.16 -2.043,-1.16 -2.035,-1.16 -2.024,-1.16 -2.015,-1.16 -2.004,-1.16 -1.996,-1.16 -1.989,-1.17 -1.976,-1.16 -1.965,-1.16 -1.957,-1.16 -1.949,-1.16 -1.934,-1.16 -1.926,-1.17 -1.918,-1.16 -1.906,-1.16 -1.895,-1.16 -1.882,-1.16 -1.875,-1.16 -1.864,-1.17 -1.855,-1.16 -1.84,-1.16 -1.832,-1.16 -1.82,-1.16 -1.805,-1.16 -1.801,-1.16 -1.785,-1.17 -1.773,-1.16 -1.766,-1.16 -1.75,-1.16 -1.738,-1.16 -1.731,-1.16 -1.715,-1.16 -1.707,-1.17 -1.691,-1.16 -1.684,-1.16 -1.668,-1.16 -1.656,-1.16 -1.644,-1.16 -1.633,-1.17 -1.617,-1.16 -1.61,-1.16 -1.593,-1.16 -1.583,-1.16 -1.57,-1.16 -1.555,-1.17 -1.546,-1.16 -1.532,-1.16 -1.515,-1.16 -1.504,-1.16 -1.492,-1.16 -1.481,-1.16 -1.465,-1.16 -1.453,-1.16 -1.437,-1.17 -1.426,-1.16 -1.41,-1.16 -1.399,-1.16 -2.754,-2.32 -2.699,-2.33 -2.644,-2.32 -2.586,-2.32 -2.532,-2.33 -2.472,-2.32 -2.418,-2.32 -2.356,-2.32 -2.296,-2.33 -2.243,-2.32 -2.175,-2.32 -2.122,-2.33 -2.058,-2.32 -1.996,-2.32 -1.938,-2.33 -1.875,-2.32 -1.812,-2.32 -1.75,-2.33 -1.684,-2.32 -1.625,-2.32 -1.558,-2.32 -1.497,-2.33 -1.433,-2.32 -1.367,-2.32 -1.301,-2.33 -1.238,-2.32 -1.172,-2.32 -1.106,-2.33 -1.039,-2.32 -0.976,-2.32 -0.907,-2.32 -0.843,-2.32 -0.774,-2.33 -0.707,-2.32 -0.644,-2.32 -0.575,-2.33 -0.503,-2.32 -0.442,-2.32 -0.371,-2.33 -0.305,-2.32 -0.238,-2.32 -0.168,-2.33 -0.101,-2.32 -0.036,-2.32 0.032,-2.32 0.101,-2.33 0.168,-2.32 0.238,-2.32 0.305,-2.33 0.371,-2.32 0.438,-2.32 0.508,-2.33 0.57,-2.32 0.64,-2.32 0.708,-2.32 0.777,-2.33 0.84,-2.32 0.906,-2.32 0.973,-2.33 1.039,-2.32 1.105,-2.32 1.172,-2.33 1.238,-2.32 1.301,-2.32 1.367,-2.33 1.43,-2.32 1.496,-2.32 1.559,-2.32 1.621,-2.32 1.687,-2.33 1.746,-2.32 1.813,-2.32 1.875,-2.33 1.933,-2.32 1.997,-2.32 2.058,-2.33 2.117,-2.32 2.18,-2.32 2.238,-2.32 2.297,-2.33 2.356,-2.32 2.414,-2.32 2.472,-2.33 2.532,-2.32 2.586,-2.32 2.644,-2.33 2.699,-2.32 2.754,-2.32 1.395,-1.16 1.414,-1.17 1.422,-1.16 1.441,-1.16 1.449,-1.16 1.465,-1.16 1.481,-1.16 1.492,-1.16 1.504,-1.16 1.515,-1.16 1.532,-1.17 1.543,-1.16 1.558,-1.16 1.567,-1.16 1.582,-1.16 1.593,-1.16 1.61,-1.17 1.617,-1.16 1.633,-1.16 1.644,-1.16 1.656,-1.16 1.668,-1.16 1.68,-1.17 1.695,-1.16 1.704,-1.16 1.714,-1.16 1.731,-1.16 1.738,-1.16 1.754,-1.16 1.762,-1.16 1.773,-1.17 1.785,-1.16 1.797,-1.16 1.809,-1.16 1.82,-1.16 1.832,-1.16 1.84,-1.17 1.852,-1.16 1.863,-1.16 1.875,-1.16 1.883,-1.16 1.894,-1.16 1.906,-1.17 1.918,-1.16 1.926,-1.16 1.934,-1.16 1.949,-1.16 1.957,-1.16 1.965,-1.16 1.976,-1.17 1.985,-1.16 1.996,-1.16 2.008,-1.16 2.015,-1.16 2.024,-1.16 2.035,-1.16 2.043,-1.16 2.051,-1.17 2.062,-1.16 2.071,-1.16 2.078,-1.16 2.089,-1.16 2.094,-1.16 2.11,-1.17 2.113,-1.16 2.121,-1.16 2.133,-1.16"
             style="fill:none;stroke:#0eff00;stroke-width:4.16667;stroke-linecap:butt;stroke-linejoin:miter;stroke-miterlimit:1;stroke-dasharray:12.5, 12.5;stroke-dashoffset:0;stroke-opacity:1"
             id="path1633" /><path
             d="m 701.051,2260.97 v 0 l 2.14,-1.16 2.145,-1.16 2.156,-1.17 2.164,-1.16 2.172,-1.16 2.18,-1.16 2.191,-1.16 2.196,-1.16 2.203,-1.16 2.211,-1.16 2.214,-1.16 2.227,-1.17 2.234,-1.16 2.239,-1.16 2.25,-1.16 2.254,-1.16 2.261,-1.16 2.266,-1.17 2.277,-1.16 2.282,-1.16 2.289,-1.16 2.293,-1.16 2.3,-1.16 2.309,-1.17 2.316,-1.16 2.317,-1.16 2.328,-1.16 2.332,-1.16 2.34,-1.16 2.343,-1.16 2.348,-1.17 2.356,-1.16 2.363,-1.16 2.367,-1.16 2.371,-1.16 2.379,-1.16 2.383,-1.16 2.387,-1.17 2.394,-1.16 2.399,-1.16 2.402,-1.16 2.406,-1.16 2.414,-1.16 2.418,-1.17 2.422,-1.16 2.426,-1.16 2.433,-1.16 2.434,-1.16 2.441,-1.16 2.442,-1.17 2.449,-1.16 2.453,-1.16 2.457,-1.16 2.461,-1.16 2.461,-1.16 2.469,-1.16 2.473,-1.16 2.472,-1.16 2.481,-1.17 2.48,-1.16 2.488,-1.16 2.489,-1.16 2.492,-1.16 2.492,-1.16 2.5,-1.17 2.5,-1.16 2.504,-1.16 2.508,-1.16 2.508,-1.16 2.511,-1.16 2.516,-1.17 2.519,-1.16 2.52,-1.16 2.523,-1.16 2.524,-1.16 2.527,-1.16 2.528,-1.16 2.531,-1.16 2.535,-1.17 2.535,-1.16 2.535,-1.16 2.539,-1.16 2.539,-1.16 2.543,-1.16 2.543,-1.16 2.547,-1.17 2.547,-1.16 2.551,-1.16 2.547,-1.16 2.551,-1.16 2.554,-1.16 2.551,-1.17 2.555,-1.16 2.558,-1.16 2.555,-1.16 2.559,-1.16 2.558,-1.16 2.559,-1.17 2.558,-1.16 2.559,-1.16 2.562,-1.16 2.563,-1.16 2.559,-1.16 2.562,-1.16 2.563,-1.16 2.562,-1.16 2.566,-1.17 2.563,-1.16 2.562,-1.16 2.563,-1.16 2.562,-1.16 2.563,-1.17 2.562,-1.16 2.567,-1.16 2.562,-1.16 2.559,-1.16 2.562,-1.16 2.563,-1.16 2.562,-1.17 2.559,-1.16 2.559,-1.16 2.562,-1.16 2.554,-1.16 2.56,-1.16 2.56,-1.16 2.55,-1.16 2.56,-1.17 2.55,-1.16 2.56,-1.16 2.55,-1.16 2.55,-1.16 2.55,-1.16 2.55,-1.17 2.54,-1.16 2.55,-1.16 2.54,-1.16 2.55,-1.16 2.54,-1.16 2.54,-1.17 2.54,-1.16 2.53,-1.16 2.54,-1.16 2.53,-1.16 2.53,-1.16 2.53,-1.17 2.53,-1.16 2.53,-1.16 2.52,-1.16 2.53,-1.16 2.52,-1.16 2.52,-1.16 2.51,-1.16 2.52,-1.16 2.51,-1.17 2.51,-1.16 2.5,-1.16 2.51,-1.16 2.5,-1.16 2.5,-1.16 2.5,-1.17 2.5,-1.16 2.49,-1.16 2.49,-1.16 2.49,-1.16 2.48,-1.16 2.49,-1.17 2.48,-1.16 2.48,-1.16 2.47,-1.16 2.47,-1.16 2.47,-1.16 2.47,-1.16 2.46,-1.16 2.46,-1.16 2.46,-1.17 2.45,-1.16 2.45,-1.16 2.45,-1.16 2.45,-1.16 2.44,-1.16 2.44,-1.17 2.44,-1.16 2.43,-1.16 2.43,-1.16 2.42,-1.16 2.43,-1.16 2.42,-1.17 2.41,-1.16 2.42,-1.16 2.41,-1.16 2.4,-1.16 2.4,-1.16 2.4,-1.17 2.4,-1.16 2.39,-1.16 2.39,-1.16 2.38,-1.16 2.38,-1.16 2.38,-1.16 2.37,-1.16 2.38,-1.17 2.36,-1.16 2.37,-1.16 2.36,-1.16 2.35,-1.16 2.35,-1.16 2.35,-1.17 2.34,-1.16 2.34,-1.16 2.34,-1.16 2.33,-1.16 2.33,-1.16 2.32,-1.17 2.32,-1.16 2.32,-1.16 2.31,-1.16 2.31,-1.16 2.3,-1.16 2.3,-1.16 2.3,-1.16 2.29,-1.16 2.28,-1.17 2.29,-1.16 2.28,-1.16 2.27,-1.16 2.27,-1.16 2.27,-1.16 2.26,-1.17 2.26,-1.16 2.25,-1.16 2.25,-1.16 2.25,-1.16 2.24,-1.16 2.24,-1.17 2.23,-1.16 2.23,-1.16 2.22,-1.16 2.22,-1.16 2.21,-1.16 2.21,-1.17 2.21,-1.16 2.2,-1.16 2.2,-1.16 2.19,-1.16 2.19,-1.16 2.18,-1.16 2.18,-1.16 2.17,-1.16 2.18,-1.17 2.16,-1.16 2.16,-1.16 2.16,-1.16 2.15,-1.16 2.15,-1.16 2.14,-1.17 2.14,-1.16 2.13,-1.16 2.13,-1.16 2.12,-1.16 2.13,-1.16 2.11,-1.17 2.11,-1.16 2.1,-1.16 2.11,-1.16 2.09,-1.16 2.09,-1.16 2.09,-1.16 2.08,-1.16 2.08,-1.17 2.07,-1.16 2.07,-1.16 2.07,-1.16 2.05,-1.16 2.06,-1.16 2.05,-1.17 2.04,-1.16 2.04,-1.16 2.04,-1.16 2.03,-1.16 2.03,-1.16 2.02,-1.17 2.01,-1.16 2.01,-1.16 2.01,-1.16 2,-1.16 2,-1.16 1.99,-1.16 1.99,-1.17 1.99,-1.16 1.97,-1.16 1.97,-1.16 1.97,-1.16 1.97,-1.16 1.96,-1.16 1.95,-1.16 1.95,-1.17 1.95,-1.16 1.93,-1.16 1.94,-1.16 1.93,-1.16 1.93,-1.16 1.92,-1.17 1.91,-1.16 1.91,-1.16 1.91,-1.16 1.9,-1.16 1.9,-1.16 1.89,-1.17 1.89,-1.16 1.88,-1.16 1.88,-1.16 1.87,-1.16 1.87,-1.16 1.86,-1.16 1.86,-1.16 1.85,-1.16 1.85,-1.17 1.84,-1.16 1.84,-1.16 1.84,-1.16 1.83,-1.16 1.82,-1.16 1.82,-1.17 1.82,-1.16 1.81,-1.16 1.81,-1.16 1.8,-1.16 1.79,-1.16 1.79,-1.17 1.79,-1.16 1.78,-1.16 1.78,-1.16 1.77,-1.16 1.77,-1.16 1.76,-1.16 1.76,-1.17 1.75,-1.16 1.75,-1.16 1.74,-1.16 1.74,-1.16 1.74,-1.16 1.73,-1.16 1.72,-1.17 1.72,-1.16 1.72,-1.16 1.71,-1.16 1.71,-1.16 1.7,-1.16 1.69,-1.17 1.7,-1.16 1.69,-1.16 1.68,-1.16 1.68,-1.16 1.67,-1.16 1.67,-1.17 1.66,-1.16 1.66,-1.16 1.66,-1.16 1.65,-1.16 1.64,-1.16 1.64,-1.16 1.64,-1.16 1.63,-1.16 1.63,-1.17 1.62,-1.16 1.62,-1.16 1.61,-1.16 1.61,-1.16 1.61,-1.16 1.6,-1.17 1.59,-1.16 1.59,-1.16 1.59,-1.16 1.58,-1.16 1.58,-1.16 1.57,-1.17 1.57,-1.16 1.56,-1.16 1.56,-1.16 1.55,-1.16 1.55,-1.16 1.55,-1.16 1.54,-1.16 1.53,-1.17 1.54,-1.16 1.52,-1.16 1.53,-1.16 1.52,-1.16 1.51,-1.16 1.51,-1.16 1.5,-1.17 1.51,-1.16 1.49,-1.16 1.5,-1.16 1.48,-1.16 1.48,-1.16 1.48,-1.17 1.48,-1.16 1.47,-1.16 1.47,-1.16 1.46,-1.16 1.45,-1.16 1.46,-1.17 1.45,-1.16 1.44,-1.16 1.44,-1.16 1.44,-1.16 1.43,-1.16 1.42,-1.16 1.43,-1.16 1.41,-1.17 1.42,-1.16 1.41,-1.16 1.41,-1.16 1.39,-1.16 1.4,-1.16 1.4,-1.16 2.77,-2.33 2.75,-2.32 2.75,-2.33 2.72,-2.32 2.71,-2.32 2.69,-2.32 2.67,-2.32 2.66,-2.33 2.64,-2.32 2.63,-2.32 2.6,-2.33 2.59,-2.32 2.58,-2.32 2.56,-2.33 2.55,-2.32 2.53,-2.32 2.51,-2.33 2.5,-2.32 2.49,-2.32 2.46,-2.32 2.45,-2.33 2.44,-2.32 2.42,-2.32 2.4,-2.33 2.4,-2.32 2.37,-2.32 2.36,-2.33 2.35,-2.32 2.33,-2.32 2.32,-2.32 2.3,-2.32 2.29,-2.33 2.27,-2.32 2.26,-2.32 2.24,-2.33 2.23,-2.32 2.22,-2.32 2.2,-2.33 2.19,-2.32 2.17,-2.33 2.16,-2.32 2.15,-2.32 2.13,-2.32 2.12,-2.32 2.1,-2.33 2.09,-2.32 2.08,-2.32 2.06,-2.33 2.05,-2.32 2.04,-2.32 2.02,-2.33 2.02,-2.32 2,-2.32 1.98,-2.32 1.97,-2.33 1.96,-2.32 1.95,-2.32 1.93,-2.33 1.93,-2.32 1.91,-2.32 1.89,-2.33 1.89,-2.32 1.87,-2.32 1.86,-2.33 1.84,-2.32 1.84,-2.32 1.83,-2.32 1.81,-2.32 1.79,-2.33 1.79,-2.32 1.78,-2.32 1.76,-2.33 1.76,-2.32 1.74,-2.32 1.73,-2.33 1.72,-2.32 1.7,-2.32 1.7,-2.32 1.68,-2.33 1.68,-2.32 1.66,-2.32 1.65,-2.33 1.64,-2.32 1.63,-2.32 1.62,-2.33 1.61,-2.32 1.6,-2.32 1.58,-2.33 1.58,-2.32 1.56,-2.32 1.56,-2.32 1.54,-2.33 1.54,-2.32"
             style="fill:none;stroke:#0eff00;stroke-width:4.16667;stroke-linecap:butt;stroke-linejoin:miter;stroke-miterlimit:1;stroke-dasharray:12.5, 12.5;stroke-dashoffset:0;stroke-opacity:1"
             id="path1635" /><path
             d="m 1797.54,1560.6 v 0 l 1.52,-2.32 1.52,-2.33 1.5,-2.32 1.49,-2.32 1.49,-2.33 1.48,-2.32 1.46,-2.32 1.45,-2.32 1.45,-2.32 1.43,-2.33 1.43,-2.32 1.41,-2.32 1.41,-2.33 1.4,-2.32 1.38,-2.32 1.38,-2.33 1.37,-2.32 1.36,-2.32 1.35,-2.33 1.34,-2.32 1.34,-2.32 1.32,-2.32 1.32,-2.33 1.3,-2.32 1.3,-2.32 1.29,-2.33 1.28,-2.32 1.27,-2.32 1.26,-2.33 1.26,-2.32 1.24,-2.32 1.24,-2.32 1.23,-2.33 1.22,-2.32 1.21,-2.32 1.21,-2.33 1.19,-2.32 1.19,-2.32 1.18,-2.33 1.17,-2.32 1.16,-2.32 1.16,-2.32 1.15,-2.33 1.14,-2.32 1.13,-2.32 1.13,-2.32 1.11,-2.33 1.11,-2.32 1.11,-2.32 1.09,-2.33 1.09,-2.32 1.08,-2.32 1.07,-2.33 1.07,-2.32 1.06,-2.32 1.05,-2.32 1.04,-2.33 1.04,-2.32 1.03,-2.32 1.02,-2.33 1.02,-2.32 1.01,-2.32 1,-2.33 0.99,-2.32 0.99,-2.32 0.98,-2.32 0.98,-2.33 0.97,-2.32 0.96,-2.32 0.96,-2.33 0.94,-2.32 0.95,-2.32 0.93,-2.33 0.93,-2.32 0.92,-2.32 0.92,-2.33 0.91,-2.32 0.91,-2.32 0.89,-2.32 0.89,-2.32 0.89,-2.33 0.88,-2.32 0.87,-2.32 0.87,-2.33 0.87,-2.32 0.85,-2.32 0.85,-2.33 0.85,-2.32 0.83,-2.32 0.84,-2.32 0.82,-2.33 0.83,-2.32 0.81,-2.32 0.81,-2.33 0.81,-2.32 0.8,-2.32 0.79,-2.33 0.79,-2.32 0.78,-2.32 0.78,-2.33 0.77,-2.32 0.77,-2.32 0.76,-2.32 0.76,-2.33 0.75,-2.32 0.75,-2.32 0.73,-2.33 0.74,-2.32 0.73,-2.32 0.73,-2.33 0.72,-2.32 0.72,-2.32 0.71,-2.32 0.71,-2.32 0.69,-2.33 0.7,-2.32 0.7,-2.32 0.68,-2.33 0.68,-2.32 0.68,-2.32 0.67,-2.33 0.67,-2.32 0.67,-2.32 0.66,-2.33 0.65,-2.32 0.65,-2.32 0.65,-2.32 0.64,-2.33 0.64,-2.32 0.63,-2.32 0.63,-2.33 0.62,-2.32 0.62,-2.32 0.61,-2.33 0.62,-2.32 0.6,-2.32 0.61,-2.32 0.6,-2.33 0.59,-2.32 0.59,-2.32 0.59,-2.33 0.58,-2.32 0.58,-2.32 0.57,-2.33 0.57,-2.32 0.57,-2.32 0.56,-2.32 0.56,-2.33 0.56,-2.32 0.55,-2.32 0.54,-2.32 0.55,-2.33 0.54,-2.32 0.53,-2.32 0.54,-2.33 0.52,-2.32 0.53,-2.32 0.52,-2.33 0.52,-2.32 0.52,-2.32 0.5,-2.32 0.51,-2.33 0.5,-2.32 0.5,-2.32 0.5,-2.33 0.5,-2.32 0.49,-2.32 0.48,-2.33 0.49,-2.32 0.48,-2.32 0.47,-2.32 0.48,-2.33 0.47,-2.32 0.47,-2.32 0.46,-2.33 0.46,-2.32 0.45,-2.32 0.46,-2.33 0.45,-2.32 0.45,-2.32 0.44,-2.33 0.45,-2.32 0.43,-2.32 0.44,-2.32 0.43,-2.32 0.43,-2.33 0.43,-2.32 0.43,-2.32 0.41,-2.33 0.42,-2.32 0.42,-2.32 0.41,-2.33 0.41,-2.32 0.41,-2.32 0.4,-2.32 0.4,-2.33 0.4,-2.32 0.39,-2.32 0.4,-2.33 0.39,-2.32 0.39,-2.32 0.38,-2.33 0.38,-2.32 0.38,-2.32 0.38,-2.33 0.37,-2.32 0.38,-2.32 0.37,-2.32 0.36,-2.32 0.37,-2.33 0.36,-2.32 0.36,-2.33 0.35,-2.32 0.36,-2.32 0.35,-2.33 0.35,-2.32 0.34,-2.32 0.35,-2.32 0.34,-2.32 0.34,-2.33 0.34,-2.32 0.33,-2.32 0.33,-2.33 0.34,-2.32 0.33,-2.32 0.32,-2.33 0.32,-2.32 0.33,-2.32 0.31,-2.33 0.32,-2.32 0.32,-2.32 0.31,-2.32 0.31,-2.33 0.31,-2.32 0.31,-2.32 0.3,-2.33 0.3,-2.32 0.3,-2.32 0.3,-2.33 0.3,-2.32 0.29,-2.32 0.29,-2.325 0.29,-2.32 0.29,-2.324 0.28,-2.324 0.29,-2.321 0.28,-2.324 0.28,-2.324 0.28,-2.324 0.27,-2.321 0.28,-2.324 0.27,-2.324 0.27,-2.32 0.27,-2.325 0.26,-2.324 0.27,-2.32 0.26,-2.324 0.26,-2.325 0.26,-2.32 0.26,-2.324 0.26,-2.324 0.25,-2.321 0.25,-2.324 0.25,-2.324 0.25,-2.32 0.25,-2.325 0.24,-2.324 0.25,-2.32 0.24,-2.324 0.24,-2.325 0.24,-2.32 0.24,-2.324 0.23,-2.324 0.23,-2.321 0.24,-2.324 0.23,-2.324 0.23,-2.32 0.22,-2.325 0.23,-2.324 0.23,-2.32 0.22,-2.324 0.22,-2.325 0.22,-2.32 0.21,-2.324 0.22,-2.324 0.22,-2.325 0.21,-2.32 0.21,-2.324 0.22,-2.324 0.2,-2.321 0.21,-2.324 0.21,-2.324 0.2,-2.32 0.21,-2.325 0.2,-2.324 0.2,-2.32 0.2,-2.324 0.2,-2.325 0.19,-2.32 0.2,-2.324 0.19,-2.324 0.19,-2.321 0.2,-2.324 0.19,-2.324 0.18,-2.32 0.19,-2.325 0.19,-2.324 0.18,-2.32 0.19,-2.324 0.18,-2.325 0.18,-2.32 0.18,-2.324 0.18,-2.324 0.18,-2.321 0.17,-2.324 0.17,-2.324 0.18,-2.32 0.17,-2.325 0.17,-2.324 0.17,-2.324 0.17,-2.32 0.17,-2.325 0.16,-2.324 0.17,-2.32 0.16,-2.324 0.17,-2.325 0.16,-2.32 0.16,-2.324 0.16,-2.324 0.16,-2.321 0.16,-2.324 0.15,-2.324 0.16,-2.32 0.15,-2.325 0.15,-2.324 0.16,-2.32 0.15,-2.324 0.15,-2.325 0.15,-2.32 0.14,-2.324 0.15,-2.324 0.15,-2.321 0.14,-2.324 0.15,-2.324 0.14,-2.32 0.14,-2.325 0.14,-2.324 0.14,-2.32 0.14,-2.324 0.14,-2.325 0.14,-2.32 0.13,-2.324 0.14,-2.324 0.13,-2.321 0.14,-2.324 0.13,-2.324 0.13,-2.32 0.13,-2.325 0.13,-2.324 0.13,-2.324 0.13,-2.32 0.13,-2.325 0.12,-2.324 0.13,-2.32 0.12,-2.324 0.12,-2.325 0.13,-2.32 0.12,-2.324 0.12,-2.324 0.12,-2.321 0.12,-2.324 0.12,-2.324 0.12,-2.32 0.11,-2.325 0.12,-2.324 0.11,-2.32 0.12,-2.324 0.11,-2.325 0.11,-2.32 0.12,-2.324 0.11,-2.324 0.11,-2.321 0.11,-2.324 0.11,-2.324 0.11,-2.32 0.1,-2.325 0.11,-2.324 0.11,-2.32 0.1,-2.324 0.11,-2.325 0.1,-2.32 0.11,-2.324 0.1,-2.324 0.1,-2.321 0.1,-2.324 0.1,-2.324 0.1,-2.324 0.1,-2.321 0.1,-2.324 0.1,-2.324 0.09,-2.32 0.1,-2.325 0.09,-2.324 0.1,-2.32 0.09,-2.324 0.1,-2.325 0.09,-2.32 0.09,-2.324 0.09,-2.324 0.09,-2.321 0.09,-2.324 0.09,-2.324 0.09,-2.32 0.09,-2.325 0.09,-2.324 0.09,-2.32 0.09,-2.324 0.08,-2.325 0.09,-2.32 0.08,-2.324 0.09,-2.324 0.08,-2.321 0.08,-2.324 0.09,-2.324 0.08,-2.32 0.08,-2.325 0.08,-2.324 0.08,-2.324 0.08,-2.32 0.08,-2.325 0.08,-2.32 0.08,-2.324 0.07,-2.324 0.08,-2.321 0.08,-2.324 0.07,-2.324 0.08,-2.324 0.08,-2.321 0.07,-2.324 0.08,-2.324 0.07,-2.32 0.07,-2.325 0.07,-2.324 0.07,-2.32 0.07,-2.324 0.08,-2.324 0.07,-2.321 0.07,-2.324 0.07,-2.324 0.07,-2.321 0.07,-2.324 0.06,-2.324 0.07,-2.32 0.07,-2.325"
             style="fill:none;stroke:#0eff00;stroke-width:4.16667;stroke-linecap:butt;stroke-linejoin:miter;stroke-miterlimit:1;stroke-dasharray:12.5, 12.5;stroke-dashoffset:0;stroke-opacity:1"
             id="path1637" /></g></g></g></g></svg>
