<?xml version="1.0" encoding="UTF-8" standalone="no"?>
<svg
   xmlns:dc="http://purl.org/dc/elements/1.1/"
   xmlns:cc="http://creativecommons.org/ns#"
   xmlns:rdf="http://www.w3.org/1999/02/22-rdf-syntax-ns#"
   xmlns:svg="http://www.w3.org/2000/svg"
   xmlns="http://www.w3.org/2000/svg"
   version="1.1"
   id="svg1015"
   xml:space="preserve"
   width="604.841"
   height="361.33768"
   viewBox="0 0 907.26149 542.00654"><metadata
     id="metadata1021"><rdf:RDF><cc:Work
         rdf:about=""><dc:format>image/svg+xml</dc:format><dc:type
           rdf:resource="http://purl.org/dc/dcmitype/StillImage" /><dc:title></dc:title></cc:Work></rdf:RDF></metadata><defs
     id="defs1019"><clipPath
       clipPathUnits="userSpaceOnUse"
       id="clipPath1033"><path
         d="m 375,299.582 h 1729.17 v 2908.34 H 375 Z"
         id="path1031" /></clipPath><clipPath
       clipPathUnits="userSpaceOnUse"
       id="clipPath1223"><path
         d="m 500,370.418 h 720.832 v 2658.33 H 500 Z"
         id="path1221" /></clipPath><clipPath
       clipPathUnits="userSpaceOnUse"
       id="clipPath1233"><path
         d="m 375,299.582 h 1729.17 v 2908.34 H 375 Z"
         id="path1231" /></clipPath><clipPath
       clipPathUnits="userSpaceOnUse"
       id="clipPath1247"><path
         d="m 500,370.418 h 720.832 v 2658.33 H 500 Z"
         id="path1245" /></clipPath><clipPath
       clipPathUnits="userSpaceOnUse"
       id="clipPath1257"><path
         d="m 375,299.582 h 1729.17 v 2908.34 H 375 Z"
         id="path1255" /></clipPath><clipPath
       clipPathUnits="userSpaceOnUse"
       id="clipPath1271"><path
         d="m 1300,370.418 h 720.832 v 2658.33 H 1300 Z"
         id="path1269" /></clipPath><clipPath
       clipPathUnits="userSpaceOnUse"
       id="clipPath1281"><path
         d="m 375,299.582 h 1729.17 v 2908.34 H 375 Z"
         id="path1279" /></clipPath><clipPath
       clipPathUnits="userSpaceOnUse"
       id="clipPath1295"><path
         d="m 1300,370.418 h 720.832 v 2658.33 H 1300 Z"
         id="path1293" /></clipPath></defs><g
     id="g1023"
     transform="matrix(0,-1.3333333,-1.3333333,0,1025.6048,667.07604)"><g
       id="g1025"
       transform="scale(0.24)"><g
         id="g1027"><g
           id="g1029"
           clip-path="url(#clipPath1033)"><path
             d="M 500,3025.77 H 458.332"
             style="fill:none;stroke:#969696;stroke-width:4.16667;stroke-linecap:butt;stroke-linejoin:miter;stroke-miterlimit:10;stroke-dasharray:none;stroke-opacity:1"
             id="path1035" /><g
             id="g1037"
             transform="scale(4.16667)"><text
               transform="matrix(0,-1,-1,0,94.0003,738.828)"
               style="font-variant:normal;font-weight:normal;font-size:14px;font-family:Menlo;-inkscape-font-specification:Menlo-Regular;writing-mode:lr-tb;fill:#969696;fill-opacity:1;fill-rule:nonzero;stroke:none"
               id="text1041"><tspan
                 x="0 8.4274139 16.855413"
                 y="0"
                 id="tspan1039">0ms</tspan></text></g><path
             d="M 500,2760.39 H 458.332"
             style="fill:none;stroke:#969696;stroke-width:4.16667;stroke-linecap:butt;stroke-linejoin:miter;stroke-miterlimit:10;stroke-dasharray:none;stroke-opacity:1"
             id="path1043" /><g
             id="g1045"
             transform="scale(4.16667)"><text
               transform="matrix(0,-1,-1,0,94.0003,675.136)"
               style="font-variant:normal;font-weight:normal;font-size:14px;font-family:Menlo;-inkscape-font-specification:Menlo-Regular;writing-mode:lr-tb;fill:#969696;fill-opacity:1;fill-rule:nonzero;stroke:none"
               id="text1049"><tspan
                 x="0 8.4280005 16.856001"
                 y="0"
                 id="tspan1047">1ms</tspan></text></g><path
             d="M 500,2495 H 458.332"
             style="fill:none;stroke:#969696;stroke-width:4.16667;stroke-linecap:butt;stroke-linejoin:miter;stroke-miterlimit:10;stroke-dasharray:none;stroke-opacity:1"
             id="path1051" /><g
             id="g1053"
             transform="scale(4.16667)"><text
               transform="matrix(0,-1,-1,0,94.0003,611.443)"
               style="font-variant:normal;font-weight:normal;font-size:14px;font-family:Menlo;-inkscape-font-specification:Menlo-Regular;writing-mode:lr-tb;fill:#969696;fill-opacity:1;fill-rule:nonzero;stroke:none"
               id="text1057"><tspan
                 x="0 8.4280005 16.856001"
                 y="0"
                 id="tspan1055">2ms</tspan></text></g><path
             d="M 500,2229.61 H 458.332"
             style="fill:none;stroke:#969696;stroke-width:4.16667;stroke-linecap:butt;stroke-linejoin:miter;stroke-miterlimit:10;stroke-dasharray:none;stroke-opacity:1"
             id="path1059" /><g
             id="g1061"
             transform="scale(4.16667)"><text
               transform="matrix(0,-1,-1,0,94.0003,547.75)"
               style="font-variant:normal;font-weight:normal;font-size:14px;font-family:Menlo;-inkscape-font-specification:Menlo-Regular;writing-mode:lr-tb;fill:#969696;fill-opacity:1;fill-rule:nonzero;stroke:none"
               id="text1065"><tspan
                 x="0 8.4280005 16.856001"
                 y="0"
                 id="tspan1063">3ms</tspan></text></g><path
             d="M 500,1964.23 H 458.332"
             style="fill:none;stroke:#969696;stroke-width:4.16667;stroke-linecap:butt;stroke-linejoin:miter;stroke-miterlimit:10;stroke-dasharray:none;stroke-opacity:1"
             id="path1067" /><g
             id="g1069"
             transform="scale(4.16667)"><text
               transform="matrix(0,-1,-1,0,94.0003,484.058)"
               style="font-variant:normal;font-weight:normal;font-size:14px;font-family:Menlo;-inkscape-font-specification:Menlo-Regular;writing-mode:lr-tb;fill:#969696;fill-opacity:1;fill-rule:nonzero;stroke:none"
               id="text1073"><tspan
                 x="0 8.4280005 16.856001"
                 y="0"
                 id="tspan1071">4ms</tspan></text></g><path
             d="M 500,1698.84 H 458.332"
             style="fill:none;stroke:#969696;stroke-width:4.16667;stroke-linecap:butt;stroke-linejoin:miter;stroke-miterlimit:10;stroke-dasharray:none;stroke-opacity:1"
             id="path1075" /><g
             id="g1077"
             transform="scale(4.16667)"><text
               transform="matrix(0,-1,-1,0,94.0003,420.365)"
               style="font-variant:normal;font-weight:normal;font-size:14px;font-family:Menlo;-inkscape-font-specification:Menlo-Regular;writing-mode:lr-tb;fill:#969696;fill-opacity:1;fill-rule:nonzero;stroke:none"
               id="text1081"><tspan
                 x="0 8.4280005 16.856001"
                 y="0"
                 id="tspan1079">5ms</tspan></text></g><path
             d="M 500,1433.45 H 458.332"
             style="fill:none;stroke:#969696;stroke-width:4.16667;stroke-linecap:butt;stroke-linejoin:miter;stroke-miterlimit:10;stroke-dasharray:none;stroke-opacity:1"
             id="path1083" /><g
             id="g1085"
             transform="scale(4.16667)"><text
               transform="matrix(0,-1,-1,0,94.0003,356.672)"
               style="font-variant:normal;font-weight:normal;font-size:14px;font-family:Menlo;-inkscape-font-specification:Menlo-Regular;writing-mode:lr-tb;fill:#969696;fill-opacity:1;fill-rule:nonzero;stroke:none"
               id="text1089"><tspan
                 x="0 8.4280005 16.855413"
                 y="0"
                 id="tspan1087">6ms</tspan></text></g><path
             d="M 500,1168.07 H 458.332"
             style="fill:none;stroke:#969696;stroke-width:4.16667;stroke-linecap:butt;stroke-linejoin:miter;stroke-miterlimit:10;stroke-dasharray:none;stroke-opacity:1"
             id="path1091" /><g
             id="g1093"
             transform="scale(4.16667)"><text
               transform="matrix(0,-1,-1,0,94.0003,292.979)"
               style="font-variant:normal;font-weight:normal;font-size:14px;font-family:Menlo;-inkscape-font-specification:Menlo-Regular;writing-mode:lr-tb;fill:#969696;fill-opacity:1;fill-rule:nonzero;stroke:none"
               id="text1097"><tspan
                 x="0 8.4280005 16.855413"
                 y="0"
                 id="tspan1095">7ms</tspan></text></g><path
             d="M 500,902.68 H 458.332"
             style="fill:none;stroke:#969696;stroke-width:4.16667;stroke-linecap:butt;stroke-linejoin:miter;stroke-miterlimit:10;stroke-dasharray:none;stroke-opacity:1"
             id="path1099" /><g
             id="g1101"
             transform="scale(4.16667)"><text
               transform="matrix(0,-1,-1,0,94.0003,229.286)"
               style="font-variant:normal;font-weight:normal;font-size:14px;font-family:Menlo;-inkscape-font-specification:Menlo-Regular;writing-mode:lr-tb;fill:#969696;fill-opacity:1;fill-rule:nonzero;stroke:none"
               id="text1105"><tspan
                 x="0 8.4280005 16.855413"
                 y="0"
                 id="tspan1103">8ms</tspan></text></g><path
             d="M 500,637.293 H 458.332"
             style="fill:none;stroke:#969696;stroke-width:4.16667;stroke-linecap:butt;stroke-linejoin:miter;stroke-miterlimit:10;stroke-dasharray:none;stroke-opacity:1"
             id="path1107" /><g
             id="g1109"
             transform="scale(4.16667)"><text
               transform="matrix(0,-1,-1,0,94.0003,165.593)"
               style="font-variant:normal;font-weight:normal;font-size:14px;font-family:Menlo;-inkscape-font-specification:Menlo-Regular;writing-mode:lr-tb;fill:#969696;fill-opacity:1;fill-rule:nonzero;stroke:none"
               id="text1115"><tspan
                 x="0 8.4280005 16.855413"
                 y="0"
                 id="tspan1111">9ms</tspan><tspan
                 x="-579.021 -587.44916 -595.87817 -604.30725"
                 y="-20"
                 id="tspan1113">V01-</tspan></text></g><path
             d="m 500,3025.77 v 41.67"
             style="fill:none;stroke:#969696;stroke-width:4.16667;stroke-linecap:butt;stroke-linejoin:miter;stroke-miterlimit:10;stroke-dasharray:none;stroke-opacity:1"
             id="path1117" /><g
             id="g1119"
             transform="scale(4.16667)"><text
               transform="matrix(0,-1,-1,0,148.5,744.614)"
               style="font-variant:normal;font-weight:normal;font-size:14px;font-family:Menlo;-inkscape-font-specification:Menlo-Regular;writing-mode:lr-tb;fill:#969696;fill-opacity:1;fill-rule:nonzero;stroke:none"
               id="text1123"><tspan
                 x="0 -8.4281301 -16.857189"
                 y="0"
                 id="tspan1121">V6-</tspan></text></g><path
             d="m 643.75,3025.77 v 41.67"
             style="fill:none;stroke:#969696;stroke-width:4.16667;stroke-linecap:butt;stroke-linejoin:miter;stroke-miterlimit:10;stroke-dasharray:none;stroke-opacity:1"
             id="path1125" /><g
             id="g1127"
             transform="scale(4.16667)"><text
               transform="matrix(0,-1,-1,0,183,744.614)"
               style="font-variant:normal;font-weight:normal;font-size:14px;font-family:Menlo;-inkscape-font-specification:Menlo-Regular;writing-mode:lr-tb;fill:#969696;fill-opacity:1;fill-rule:nonzero;stroke:none"
               id="text1131"><tspan
                 x="0 -8.4281301 -16.857189"
                 y="0"
                 id="tspan1129">V2-</tspan></text></g><path
             d="m 787.5,3025.77 v 41.67"
             style="fill:none;stroke:#969696;stroke-width:4.16667;stroke-linecap:butt;stroke-linejoin:miter;stroke-miterlimit:10;stroke-dasharray:none;stroke-opacity:1"
             id="path1133" /><g
             id="g1135"
             transform="scale(4.16667)"><text
               transform="matrix(0,-1,-1,0,217.5,744.614)"
               style="font-variant:normal;font-weight:normal;font-size:14px;font-family:Menlo;-inkscape-font-specification:Menlo-Regular;writing-mode:lr-tb;fill:#969696;fill-opacity:1;fill-rule:nonzero;stroke:none"
               id="text1139"><tspan
                 x="0 -8.4281301"
                 y="0"
                 id="tspan1137">V2</tspan></text></g><path
             d="m 931.25,3025.77 v 41.67"
             style="fill:none;stroke:#969696;stroke-width:4.16667;stroke-linecap:butt;stroke-linejoin:miter;stroke-miterlimit:10;stroke-dasharray:none;stroke-opacity:1"
             id="path1141" /><g
             id="g1143"
             transform="scale(4.16667)"><text
               transform="matrix(0,-1,-1,0,252,744.614)"
               style="font-variant:normal;font-weight:normal;font-size:14px;font-family:Menlo;-inkscape-font-specification:Menlo-Regular;writing-mode:lr-tb;fill:#969696;fill-opacity:1;fill-rule:nonzero;stroke:none"
               id="text1147"><tspan
                 x="0 -8.4281301"
                 y="0"
                 id="tspan1145">V6</tspan></text></g><path
             d="m 1075,3025.77 v 41.67"
             style="fill:none;stroke:#969696;stroke-width:4.16667;stroke-linecap:butt;stroke-linejoin:miter;stroke-miterlimit:10;stroke-dasharray:none;stroke-opacity:1"
             id="path1149" /><g
             id="g1151"
             transform="scale(4.16667)"><text
               transform="matrix(0,-1,-1,0,286.5,744.614)"
               style="font-variant:normal;font-weight:normal;font-size:14px;font-family:Menlo;-inkscape-font-specification:Menlo-Regular;writing-mode:lr-tb;fill:#969696;fill-opacity:1;fill-rule:nonzero;stroke:none"
               id="text1155"><tspan
                 x="0 -8.4281301 -16.857189"
                 y="0"
                 id="tspan1153">V01</tspan></text></g><path
             d="m 1218.75,3025.77 v 41.67"
             style="fill:none;stroke:#969696;stroke-width:4.16667;stroke-linecap:butt;stroke-linejoin:miter;stroke-miterlimit:10;stroke-dasharray:none;stroke-opacity:1"
             id="path1157" /><path
             d="m 500,371.906 h 718.75 v 2653.87 H 500 Z"
             style="fill:none;stroke:#969696;stroke-width:4.16667;stroke-linecap:butt;stroke-linejoin:miter;stroke-miterlimit:10;stroke-dasharray:none;stroke-opacity:1"
             id="path1159" /><g
             id="g1161"
             transform="scale(4.16667)"><text
               transform="matrix(0,-1,-1,0,306.5,744.614)"
               style="font-variant:normal;font-weight:normal;font-size:14px;font-family:Menlo;-inkscape-font-specification:Menlo-Regular;writing-mode:lr-tb;fill:#afafaf;fill-opacity:1;fill-rule:nonzero;stroke:none"
               id="text1165"><tspan
                 x="0 -8.4281301 -16.857189 -25.286249"
                 y="0"
                 id="tspan1163">V03-</tspan></text></g><path
             d="m 1302.08,3025.77 v 41.67"
             style="fill:none;stroke:#afafaf;stroke-width:4.16667;stroke-linecap:butt;stroke-linejoin:miter;stroke-miterlimit:10;stroke-dasharray:none;stroke-opacity:1"
             id="path1167" /><g
             id="g1169"
             transform="scale(4.16667)"><text
               transform="matrix(0,-1,-1,0,341,744.614)"
               style="font-variant:normal;font-weight:normal;font-size:14px;font-family:Menlo;-inkscape-font-specification:Menlo-Regular;writing-mode:lr-tb;fill:#afafaf;fill-opacity:1;fill-rule:nonzero;stroke:none"
               id="text1173"><tspan
                 x="0 -8.4281301 -16.857189 -25.286249"
                 y="0"
                 id="tspan1171">V81-</tspan></text></g><path
             d="m 1445.83,3025.77 v 41.67"
             style="fill:none;stroke:#afafaf;stroke-width:4.16667;stroke-linecap:butt;stroke-linejoin:miter;stroke-miterlimit:10;stroke-dasharray:none;stroke-opacity:1"
             id="path1175" /><g
             id="g1177"
             transform="scale(4.16667)"><text
               transform="matrix(0,-1,-1,0,375.5,744.614)"
               style="font-variant:normal;font-weight:normal;font-size:14px;font-family:Menlo;-inkscape-font-specification:Menlo-Regular;writing-mode:lr-tb;fill:#afafaf;fill-opacity:1;fill-rule:nonzero;stroke:none"
               id="text1181"><tspan
                 x="0 -8.4281301 -16.857189"
                 y="0"
                 id="tspan1179">V6-</tspan></text></g><path
             d="m 1589.58,3025.77 v 41.67"
             style="fill:none;stroke:#afafaf;stroke-width:4.16667;stroke-linecap:butt;stroke-linejoin:miter;stroke-miterlimit:10;stroke-dasharray:none;stroke-opacity:1"
             id="path1183" /><g
             id="g1185"
             transform="scale(4.16667)"><text
               transform="matrix(0,-1,-1,0,410,744.614)"
               style="font-variant:normal;font-weight:normal;font-size:14px;font-family:Menlo;-inkscape-font-specification:Menlo-Regular;writing-mode:lr-tb;fill:#afafaf;fill-opacity:1;fill-rule:nonzero;stroke:none"
               id="text1189"><tspan
                 x="0 -8.4281301"
                 y="0"
                 id="tspan1187">V6</tspan></text></g><path
             d="m 1733.33,3025.77 v 41.67"
             style="fill:none;stroke:#afafaf;stroke-width:4.16667;stroke-linecap:butt;stroke-linejoin:miter;stroke-miterlimit:10;stroke-dasharray:none;stroke-opacity:1"
             id="path1191" /><g
             id="g1193"
             transform="scale(4.16667)"><text
               transform="matrix(0,-1,-1,0,444.5,744.614)"
               style="font-variant:normal;font-weight:normal;font-size:14px;font-family:Menlo;-inkscape-font-specification:Menlo-Regular;writing-mode:lr-tb;fill:#afafaf;fill-opacity:1;fill-rule:nonzero;stroke:none"
               id="text1197"><tspan
                 x="0 -8.4281301 -16.857189"
                 y="0"
                 id="tspan1195">V81</tspan></text></g><path
             d="m 1877.08,3025.77 v 41.67"
             style="fill:none;stroke:#afafaf;stroke-width:4.16667;stroke-linecap:butt;stroke-linejoin:miter;stroke-miterlimit:10;stroke-dasharray:none;stroke-opacity:1"
             id="path1199" /><g
             id="g1201"
             transform="scale(4.16667)"><text
               transform="matrix(0,-1,-1,0,479,744.614)"
               style="font-variant:normal;font-weight:normal;font-size:14px;font-family:Menlo;-inkscape-font-specification:Menlo-Regular;writing-mode:lr-tb;fill:#afafaf;fill-opacity:1;fill-rule:nonzero;stroke:none"
               id="text1205"><tspan
                 x="0 -8.4281301 -16.857189"
                 y="0"
                 id="tspan1203">V03</tspan></text></g><path
             d="m 2020.83,3025.77 v 41.67"
             style="fill:none;stroke:#afafaf;stroke-width:4.16667;stroke-linecap:butt;stroke-linejoin:miter;stroke-miterlimit:10;stroke-dasharray:none;stroke-opacity:1"
             id="path1207" /><path
             d="m 1302.08,371.906 h 718.75 v 2653.87 h -718.75 z"
             style="fill:none;stroke:#afafaf;stroke-width:4.16667;stroke-linecap:butt;stroke-linejoin:miter;stroke-miterlimit:10;stroke-dasharray:none;stroke-opacity:1"
             id="path1209" /><g
             id="g1211"
             transform="scale(4.16667)"><text
               transform="matrix(0,-1,-1,0,296,600.9)"
               style="font-variant:normal;font-weight:normal;font-size:14px;font-family:Menlo;-inkscape-font-specification:Menlo-Regular;writing-mode:lr-tb;fill:#0eff00;fill-opacity:1;fill-rule:nonzero;stroke:none"
               id="text1215"><tspan
                 x="0 8.4280005 16.855413 25.283415 33.710827 42.138828 50.56683 58.994244"
                 y="0"
                 id="tspan1213">V(vout1)</tspan></text></g></g></g><g
         id="g1217"><g
           id="g1219"
           clip-path="url(#clipPath1223)"><path
             d="m 840.109,3025.77 v 0 l 14.028,-4.66 18.679,-6.22 31.657,-10.62 31.113,-10.61 30.184,-10.62 28.882,-10.61 27.238,-10.62 25.24,-10.61 22.96,-10.62 20.37,-10.62 17.56,-10.61 14.52,-10.62 11.3,-10.61 7.96,-10.62 4.53,-10.61 1.02,-10.25 -2.43,-10.61 -5.88,-10.62 -9.31,-10.61 -12.6,-10.62 -15.75,-10.61 -18.71,-10.62 -21.44,-10.61 -23.89,-10.62 -26.08,-10.61 -27.932,-10.62 -29.445,-10.61 -30.598,-10.62 -31.379,-10.62 -31.777,-10.61 -31.785,-10.62 -31.406,-10.61 -30.645,-10.62 -29.508,-10.61 -28.008,-10.62 -26.168,-10.61 -24.007,-10.62 -21.555,-10.62 -18.84,-10.61 -15.894,-10.62 -12.75,-10.61 -9.458,-10.62 -6.042,-10.61 -2.559,-10.62 0.957,-10.61 4.465,-10.62 7.914,-10.62 11.269,-10.61 14.485,-10.62 17.523,-10.61 20.352,-10.62 22.926,-10.61 25.222,-10.62 27.211,-10.61 28.867,-10.62 30.172,-10.62 31.106,-10.61 31.66,-10.62 31.828,-10.61 31.609,-10.62 31,-10.61 30.016,-10.62 28.664,-10.61 26.96,-10.62 24.93,-10.62 22.59,-10.61 19.98,-10.62 17.13,-10.61 14.05,-10.62 10.82,-10.61 7.57,-10.62 3.71,-9.26 0.86,-10.12 -2.47,-10.61 -5.9,-10.62 -9.33,-10.61 -12.63,-10.62 -15.77,-10.61 -18.73,-10.62 -21.45,-10.61 -23.92,-10.62 -26.09,-10.61 -27.947,-10.62 -29.453,-10.62 -30.605,-10.61 -31.383,-10.62 -31.781,-10.61 -31.782,-10.62 -31.402,-10.61 -30.637,-10.62 -29.496,-10.61 -27.996,-10.62 -26.156,-10.61 -23.992,-10.62 -21.535,-10.61 -18.821,-10.62 -15.871,-10.62 -12.726,-10.61 -9.434,-10.62 -6.02,-10.61 -2.531,-10.62 0.985,-10.61 4.488,-10.62 7.937,-10.61 11.293,-10.62 14.508,-10.61 17.547,-10.62 20.367,-10.61 22.946,-10.62 25.238,-10.62 27.222,-10.61 28.879,-10.62 30.18,-10.61 31.109,-10.62 31.664,-10.61 31.829,-10.62 31.605,-10.61 30.996,-10.62 30.008,-10.61 28.652,-10.62 26.945,-10.61 24.91,-10.62 22.58,-10.62 19.96,-10.61 17.1,-10.62 14.04,-10.61 10.79,-10.62 7.55,-10.61 3.68,-9.22 0.84,-10.1 -2.46,-10.61 -5.92,-10.62 -9.33,-10.61 -12.63,-10.62 -15.77,-10.61 -18.73,-10.62 -21.46,-10.61 -23.92,-10.62 -26.09,-10.62 -27.948,-10.61 -29.457,-10.62 -30.605,-10.61 -31.383,-10.62 -31.782,-10.61 -31.781,-10.62 -31.402,-10.61 -30.637,-10.62 -29.496,-10.61 -27.992,-10.62 -26.152,-10.61 -23.989,-10.62 -21.535,-10.62 -18.816,-10.61 -15.867,-10.62 -12.727,-10.61 -9.43,-10.62 -6.015,-10.61 -2.528,-10.62 0.985,-10.61 4.492,-10.62 7.945,-10.61 11.293,-10.62 14.512,-10.61 17.547,-10.62 20.375,-10.62 22.945,-10.61 25.242,-10.62 27.227,-10.61 28.879,-10.62 30.179,-10.61 31.114,-10.62 31.664,-10.61 31.828,-10.62 31.605,-10.61 30.993,-10.62 30.007,-10.62 28.649,-10.61 26.941,-10.62 24.91,-10.61 22.58,-10.62 19.96,-10.61 17.1,-10.62 14.03,-10.61 10.79,-10.62 7.54,-10.62 3.68,-9.2 0.84,-10.1 -2.47,-10.62 -5.91,-10.61 -9.33,-10.62 -12.63,-10.61 -15.78,-10.62 -18.73,-10.61 -21.46,-10.617 -23.92,-10.613 -26.09,-10.617 -27.946,-10.618 -29.453,-10.613 -30.609,-10.617 -31.383,-10.613 -31.781,-10.618 -31.782,-10.613 -31.402,-10.617 -30.637,-10.613 -29.492,-10.618 -27.996,-10.617 -26.152,-10.613 -23.989,-10.617 -21.535,-10.613 -18.812,-10.618 -15.867,-10.613 -12.727,-10.617 -9.43,-10.617 -6.015,-10.614 -2.528,-10.617 0.989,-10.613 4.492,-10.617 7.941,-10.614 11.297,-10.617 14.512,-10.613 17.551,-10.617 20.371,-10.617 22.945,-10.614 25.242,-10.617 27.227,-10.613 28.879,-10.617 30.179,-10.614 31.114,-10.617 31.664,-10.613 31.828,-10.617 31.605,-10.617 30.996,-10.614 30.004,-10.617 28.653,-10.613 26.947,-10.617 24.91,-10.614 22.57,-10.617 19.96,-10.617 17.1,-10.613 14.03,-10.618 10.79,-10.613 7.54,-10.617 3.68,-9.207 0.84,-10.094 -2.47,-10.613 -5.91,-10.617 -9.33,-10.614 -12.63,-10.617 -15.78,-10.617 -18.73,-10.613 -21.29,-10.617 -16.81,-7.735"
             style="fill:none;stroke:#0eff00;stroke-width:4.16667;stroke-linecap:butt;stroke-linejoin:miter;stroke-miterlimit:1;stroke-dasharray:none;stroke-opacity:1"
             id="path1225" /></g></g><g
         id="g1227"><g
           id="g1229"
           clip-path="url(#clipPath1233)"><g
             id="g1235"
             transform="scale(4.16667)"><text
               transform="matrix(0,-1,-1,0,296,282.9)"
               style="font-variant:normal;font-weight:normal;font-size:14px;font-family:Menlo;-inkscape-font-specification:Menlo-Regular;writing-mode:lr-tb;fill:#0000ff;fill-opacity:1;fill-rule:nonzero;stroke:none"
               id="text1239"><tspan
                 x="0 8.4280005 16.855413 25.283415 33.710827 42.138828 50.56683 58.994244"
                 y="0"
                 id="tspan1237">V(vout2)</tspan></text></g></g></g><g
         id="g1241"><g
           id="g1243"
           clip-path="url(#clipPath1247)"><path
             d="m 878.641,3025.77 v 0 l -14.028,-4.66 -18.679,-6.22 -31.657,-10.62 -31.113,-10.61 -30.184,-10.62 -28.882,-10.61 -27.235,-10.62 -25.246,-10.61 -22.953,-10.62 -20.379,-10.62 -17.555,-10.61 -14.519,-10.62 -11.305,-10.61 -7.953,-10.62 -4.531,-10.61 -1.024,-10.25 2.43,-10.61 5.883,-10.62 9.301,-10.61 12.605,-10.62 15.754,-10.61 18.707,-10.62 21.434,-10.61 23.902,-10.62 26.078,-10.61 27.93,-10.62 29.445,-10.61 30.598,-10.62 31.379,-10.62 31.777,-10.61 31.785,-10.62 31.407,-10.61 30.644,-10.62 29.508,-10.61 28.005,-10.62 26.17,-10.61 24.01,-10.62 21.55,-10.62 18.84,-10.61 15.9,-10.62 12.75,-10.61 9.45,-10.62 6.05,-10.61 2.56,-10.62 -0.96,-10.61 -4.47,-10.62 -7.91,-10.62 -11.27,-10.61 -14.48,-10.62 -17.53,-10.61 -20.35,-10.62 -22.92,-10.61 -25.23,-10.62 -27.208,-10.61 -28.867,-10.62 -30.172,-10.62 -31.106,-10.61 -31.66,-10.62 -31.828,-10.61 -31.609,-10.62 -31,-10.61 -30.016,-10.62 -28.664,-10.61 -26.961,-10.62 -24.93,-10.62 -22.589,-10.61 -19.981,-10.62 -17.125,-10.61 -14.059,-10.62 -10.82,-10.61 -7.562,-10.62 -3.711,-9.26 -0.86,-10.12 2.465,-10.61 5.906,-10.62 9.329,-10.61 12.625,-10.62 15.773,-10.61 18.73,-10.62 21.454,-10.61 23.918,-10.62 26.089,-10.61 27.946,-10.62 29.453,-10.62 30.605,-10.61 31.383,-10.62 31.781,-10.61 31.782,-10.62 31.402,-10.61 30.637,-10.62 29.496,-10.61 27.994,-10.62 26.16,-10.61 23.99,-10.62 21.54,-10.61 18.82,-10.62 15.87,-10.62 12.72,-10.61 9.44,-10.62 6.02,-10.61 2.53,-10.62 -0.99,-10.61 -4.48,-10.62 -7.94,-10.61 -11.3,-10.62 -14.5,-10.61 -17.55,-10.62 -20.37,-10.61 -22.94,-10.62 -25.24,-10.62 -27.223,-10.61 -28.879,-10.62 -30.18,-10.61 -31.109,-10.62 -31.664,-10.61 -31.829,-10.62 -31.605,-10.61 -30.996,-10.62 -30.008,-10.61 -28.652,-10.62 -26.946,-10.61 -24.914,-10.62 -22.574,-10.62 -19.961,-10.61 -17.101,-10.62 -14.036,-10.61 -10.796,-10.62 -7.543,-10.61 -3.68,-9.22 -0.848,-10.1 2.469,-10.61 5.91,-10.62 9.332,-10.61 12.629,-10.62 15.777,-10.61 18.731,-10.62 21.457,-10.61 23.922,-10.62 26.09,-10.62 27.945,-10.61 29.457,-10.62 30.605,-10.61 31.383,-10.62 31.782,-10.61 31.781,-10.62 31.402,-10.61 30.637,-10.62 29.496,-10.61 27.989,-10.62 26.16,-10.61 23.98,-10.62 21.54,-10.62 18.82,-10.61 15.86,-10.62 12.73,-10.61 9.43,-10.62 6.01,-10.61 2.53,-10.62 -0.98,-10.61 -4.49,-10.62 -7.95,-10.61 -11.29,-10.62 -14.51,-10.61 -17.56,-10.62 -20.37,-10.62 -22.94,-10.61 -25.24,-10.62 -27.231,-10.61 -28.879,-10.62 -30.179,-10.61 -31.114,-10.62 -31.664,-10.61 -31.828,-10.62 -31.601,-10.61 -30.996,-10.62 -30.008,-10.62 -28.649,-10.61 -26.945,-10.62 -24.91,-10.61 -22.574,-10.62 -19.957,-10.61 -17.102,-10.62 -14.031,-10.61 -10.793,-10.62 -7.539,-10.62 -3.676,-9.2 -0.844,-10.1 2.469,-10.62 5.91,-10.61 9.332,-10.62 12.629,-10.61 15.777,-10.62 18.731,-10.61 21.461,-10.617 23.918,-10.613 26.093,-10.617 27.946,-10.618 29.453,-10.613 30.609,-10.617 31.383,-10.613 31.781,-10.618 31.782,-10.613 31.402,-10.617 30.637,-10.613 29.492,-10.618 27.995,-10.617 26.15,-10.613 23.99,-10.617 21.54,-10.613 18.81,-10.618 15.87,-10.613 12.72,-10.617 9.43,-10.617 6.02,-10.614 2.53,-10.617 -0.99,-10.613 -4.49,-10.617 -7.95,-10.614 -11.29,-10.617 -14.51,-10.613 -17.56,-10.617 -20.37,-10.617 -22.94,-10.614 -25.24,-10.617 -27.231,-10.613 -28.879,-10.617 -30.179,-10.614 -31.114,-10.617 -31.664,-10.613 -31.828,-10.617 -31.605,-10.617 -30.996,-10.614 -30.004,-10.617 -28.653,-10.613 -26.945,-10.617 -24.91,-10.614 -22.57,-10.617 -19.957,-10.617 -17.102,-10.613 -14.031,-10.618 -10.793,-10.613 -7.539,-10.617 -3.676,-9.207 -0.844,-10.094 2.469,-10.613 5.914,-10.617 9.328,-10.614 12.633,-10.617 15.777,-10.617 18.731,-10.613 21.293,-10.617 16.804,-7.735"
             style="fill:none;stroke:#0000ff;stroke-width:4.16667;stroke-linecap:butt;stroke-linejoin:miter;stroke-miterlimit:1;stroke-dasharray:none;stroke-opacity:1"
             id="path1249" /></g></g><g
         id="g1251"><g
           id="g1253"
           clip-path="url(#clipPath1257)"><g
             id="g1259"
             transform="scale(4.16667)"><text
               transform="matrix(0,-1,-1,0,489,596.686)"
               style="font-variant:normal;font-weight:normal;font-size:14px;font-family:Menlo;-inkscape-font-specification:Menlo-Regular;writing-mode:lr-tb;fill:#ff0000;fill-opacity:1;fill-rule:nonzero;stroke:none"
               id="text1263"><tspan
                 x="0 8.4280005 16.856001 25.283415 33.711414 42.138828 50.56683"
                 y="0"
                 id="tspan1261">V(vin1)</tspan></text></g></g></g><g
         id="g1265"><g
           id="g1267"
           clip-path="url(#clipPath1271)"><path
             d="m 1661.46,3025.77 v 0 l 17.45,-4.66 23.21,-6.22 39.16,-10.62 38.18,-10.61 36.74,-10.62 34.85,-10.61 32.54,-10.62 29.82,-10.61 26.74,-10.62 23.33,-10.62 19.65,-10.61 15.72,-10.62 11.6,-10.61 7.33,-10.62 2.98,-10.61 -1.28,-10.25 -5.63,-10.61 -9.93,-10.62 -14.12,-10.61 -18.13,-10.62 -21.92,-10.61 -25.44,-10.62 -28.65,-10.61 -31.51,-10.62 -33.99,-10.61 -36.05,-10.62 -37.66,-10.61 -38.84,-10.62 -39.51,-10.62 -39.72,-10.61 -39.44,-10.62 -38.67,-10.61 -37.44,-10.62 -35.74,-10.61 -33.62,-10.62 -31.07,-10.61 -28.15,-10.62 -24.89,-10.62 -21.32,-10.61 -17.49,-10.62 -13.45,-10.61 -9.24,-10.62 -4.92,-10.61 -0.55,-10.62 3.85,-10.61 8.18,-10.62 12.43,-10.62 16.51,-10.61 20.39,-10.62 24.04,-10.61 27.38,-10.62 30.38,-10.61 33.02,-10.62 35.26,-10.61 37.06,-10.62 38.42,-10.62 39.29,-10.61 39.7,-10.62 39.61,-10.61 39.04,-10.62 38,-10.61 36.49,-10.62 34.54,-10.61 32.16,-10.62 29.39,-10.62 26.26,-10.61 22.82,-10.62 19.08,-10.61 15.13,-10.62 10.97,-10.61 6.7,-10.62 2.29,-9.26 -1.33,-10.12 -5.66,-10.61 -9.96,-10.62 -14.15,-10.61 -18.15,-10.62 -21.95,-10.61 -25.46,-10.62 -28.67,-10.61 -31.54,-10.62 -34,-10.61 -36.06,-10.62 -37.68,-10.62 -38.84,-10.61 -39.52,-10.62 -39.72,-10.61 -39.43,-10.62 -38.66,-10.61 -37.43,-10.62 -35.73,-10.61 -33.6,-10.62 -31.05,-10.61 -28.14,-10.62 -24.86,-10.61 -21.29,-10.62 -17.46,-10.62 -13.42,-10.61 -9.21,-10.62 -4.89,-10.61 -0.51,-10.62 3.87,-10.61 8.22,-10.62 12.45,-10.61 16.54,-10.62 20.42,-10.61 24.06,-10.62 27.41,-10.61 30.4,-10.62 33.04,-10.62 35.27,-10.61 37.08,-10.62 38.42,-10.61 39.3,-10.62 39.69,-10.61 39.61,-10.62 39.04,-10.61 37.99,-10.62 36.48,-10.61 34.52,-10.62 32.14,-10.61 29.37,-10.62 26.24,-10.62 22.78,-10.61 19.06,-10.62 15.1,-10.61 10.95,-10.62 6.67,-10.61 2.25,-9.22 -1.33,-10.1 -5.66,-10.61 -9.97,-10.62 -14.15,-10.61 -18.16,-10.62 -21.95,-10.61 -25.47,-10.62 -28.67,-10.61 -31.54,-10.62 -34,-10.62 -36.07,-10.61 -37.68,-10.62 -38.84,-10.61 -39.52,-10.62 -39.72,-10.61 -39.43,-10.62 -38.66,-10.61 -37.43,-10.62 -35.73,-10.61 -33.59,-10.62 -31.05,-10.61 -28.13,-10.62 -24.86,-10.62 -21.29,-10.61 -17.46,-10.62 -13.41,-10.61 -9.21,-10.62 -4.89,-10.61 -0.5,-10.62 3.88,-10.61 8.22,-10.62 12.45,-10.61 16.55,-10.62 20.43,-10.61 24.06,-10.62 27.4,-10.62 30.41,-10.61 33.05,-10.62 35.27,-10.61 37.07,-10.62 38.43,-10.61 39.3,-10.62 39.69,-10.61 39.61,-10.62 39.04,-10.61 37.98,-10.62 36.48,-10.62 34.52,-10.61 32.14,-10.62 29.37,-10.61 26.23,-10.62 22.79,-10.61 19.05,-10.62 15.09,-10.61 10.95,-10.62 6.66,-10.62 2.25,-9.2 -1.33,-10.1 -5.66,-10.62 -9.97,-10.61 -14.16,-10.62 -18.16,-10.61 -21.95,-10.62 -25.46,-10.61 -28.68,-10.617 -31.53,-10.613 -34.01,-10.617 -36.06,-10.618 -37.68,-10.613 -38.84,-10.617 -39.52,-10.613 -39.72,-10.618 -39.43,-10.613 -38.67,-10.617 -37.42,-10.613 -35.73,-10.618 -33.6,-10.617 -31.05,-10.613 -28.12,-10.617 -24.86,-10.613 -21.29,-10.618 -17.46,-10.613 -13.41,-10.617 -9.21,-10.617 -4.89,-10.614 -0.5,-10.617 3.88,-10.613 8.22,-10.617 12.46,-10.614 16.54,-10.617 20.43,-10.613 24.06,-10.617 27.41,-10.617 30.41,-10.614 33.04,-10.617 35.28,-10.613 37.07,-10.617 38.42,-10.614 39.3,-10.617 39.7,-10.613 39.6,-10.617 39.04,-10.617 37.99,-10.614 36.48,-10.617 34.51,-10.613 32.14,-10.617 29.37,-10.614 26.24,-10.617 22.78,-10.617 19.05,-10.613 15.09,-10.618 10.95,-10.613 6.66,-10.617 2.25,-9.207 -1.33,-10.094 -5.66,-10.613 -9.97,-10.617 -14.16,-10.614 -18.16,-10.617 -21.95,-10.617 -25.46,-10.613 -28.68,-10.617 -22.71,-7.735"
             style="fill:none;stroke:#ff0000;stroke-width:4.16667;stroke-linecap:butt;stroke-linejoin:miter;stroke-miterlimit:1;stroke-dasharray:none;stroke-opacity:1"
             id="path1273" /></g></g><g
         id="g1275"><g
           id="g1277"
           clip-path="url(#clipPath1281)"><g
             id="g1283"
             transform="scale(4.16667)"><text
               transform="matrix(0,-1,-1,0,489,278.686)"
               style="font-variant:normal;font-weight:normal;font-size:14px;font-family:Menlo;-inkscape-font-specification:Menlo-Regular;writing-mode:lr-tb;fill:#00afaf;fill-opacity:1;fill-rule:nonzero;stroke:none"
               id="text1287"><tspan
                 x="0 8.4280005 16.856001 25.283415 33.711414 42.138828 50.56683"
                 y="0"
                 id="tspan1285">V(vin2)</tspan></text></g></g></g><g
         id="g1289"><g
           id="g1291"
           clip-path="url(#clipPath1295)"><path
             d="m 1661.46,3025.77 v 0 l -17.46,-4.66 -23.2,-6.22 -39.16,-10.62 -38.18,-10.61 -36.75,-10.62 -34.84,-10.61 -32.54,-10.62 -29.82,-10.61 -26.74,-10.62 -23.34,-10.62 -19.65,-10.61 -15.71,-10.62 -11.6,-10.61 -7.34,-10.62 -2.98,-10.61 1.29,-10.25 5.63,-10.61 9.93,-10.62 14.12,-10.61 18.13,-10.62 21.91,-10.61 25.44,-10.62 28.65,-10.61 31.52,-10.62 33.98,-10.61 36.05,-10.62 37.67,-10.61 38.83,-10.62 39.52,-10.62 39.72,-10.61 39.44,-10.62 38.67,-10.61 37.44,-10.62 35.74,-10.61 33.62,-10.62 31.07,-10.61 28.15,-10.62 24.89,-10.62 21.32,-10.61 17.49,-10.62 13.45,-10.61 9.24,-10.62 4.92,-10.61 0.54,-10.62 -3.84,-10.61 -8.19,-10.62 -12.42,-10.62 -16.51,-10.61 -20.4,-10.62 -24.03,-10.61 -27.38,-10.62 -30.39,-10.61 -33.02,-10.62 -35.26,-10.61 -37.06,-10.62 -38.41,-10.62 -39.29,-10.61 -39.7,-10.62 -39.61,-10.61 -39.05,-10.62 -37.99,-10.61 -36.49,-10.62 -34.54,-10.61 -32.16,-10.62 -29.39,-10.62 -26.26,-10.61 -22.82,-10.62 -19.08,-10.61 -15.13,-10.62 -10.98,-10.61 -6.7,-10.62 -2.28,-9.26 1.32,-10.12 5.67,-10.61 9.96,-10.62 14.14,-10.61 18.16,-10.62 21.94,-10.61 25.47,-10.62 28.67,-10.61 31.53,-10.62 34.01,-10.61 36.06,-10.62 37.68,-10.62 38.84,-10.61 39.51,-10.62 39.72,-10.61 39.44,-10.62 38.66,-10.61 37.43,-10.62 35.73,-10.61 33.6,-10.62 31.05,-10.61 28.13,-10.62 24.86,-10.61 21.3,-10.62 17.46,-10.62 13.42,-10.61 9.21,-10.62 4.89,-10.61 0.51,-10.62 -3.88,-10.61 -8.21,-10.62 -12.46,-10.61 -16.53,-10.62 -20.43,-10.61 -24.06,-10.62 -27.4,-10.61 -30.4,-10.62 -33.05,-10.62 -35.27,-10.61 -37.07,-10.62 -38.42,-10.61 -39.3,-10.62 -39.69,-10.61 -39.61,-10.62 -39.04,-10.61 -37.99,-10.62 -36.48,-10.61 -34.52,-10.62 -32.14,-10.61 -29.37,-10.62 -26.24,-10.62 -22.79,-10.61 -19.05,-10.62 -15.1,-10.61 -10.95,-10.62 -6.67,-10.61 -2.25,-9.22 1.33,-10.1 5.66,-10.61 9.97,-10.62 14.15,-10.61 18.16,-10.62 21.95,-10.61 25.46,-10.62 28.68,-10.61 31.54,-10.62 34,-10.62 36.07,-10.61 37.68,-10.62 38.84,-10.61 39.51,-10.62 39.72,-10.61 39.44,-10.62 38.66,-10.61 37.43,-10.62 35.72,-10.61 33.6,-10.62 31.05,-10.61 28.13,-10.62 24.86,-10.62 21.29,-10.61 17.46,-10.62 13.41,-10.61 9.21,-10.62 4.88,-10.61 0.51,-10.62 -3.88,-10.61 -8.22,-10.62 -12.46,-10.61 -16.54,-10.62 -20.43,-10.61 -24.06,-10.62 -27.41,-10.62 -30.4,-10.61 -33.05,-10.62 -35.27,-10.61 -37.08,-10.62 -38.42,-10.61 -39.3,-10.62 -39.69,-10.61 -39.61,-10.62 -39.04,-10.61 -37.99,-10.62 -36.48,-10.62 -34.51,-10.61 -32.14,-10.62 -29.37,-10.61 -26.23,-10.62 -22.79,-10.61 -19.05,-10.62 -15.09,-10.61 -10.95,-10.62 -6.66,-10.62 -2.25,-9.2 1.33,-10.1 5.66,-10.62 9.97,-10.61 14.15,-10.62 18.16,-10.61 21.95,-10.62 25.47,-10.61 28.67,-10.617 31.54,-10.613 34.01,-10.617 36.06,-10.618 37.68,-10.613 38.84,-10.617 39.52,-10.613 39.72,-10.618 39.43,-10.613 38.66,-10.617 37.43,-10.613 35.73,-10.618 33.59,-10.617 31.05,-10.613 28.13,-10.617 24.86,-10.613 21.29,-10.618 17.46,-10.613 13.41,-10.617 9.21,-10.617 4.88,-10.614 0.51,-10.617 -3.88,-10.613 -8.22,-10.617 -12.46,-10.614 -16.54,-10.617 -20.43,-10.613 -24.07,-10.617 -27.4,-10.617 -30.41,-10.614 -33.05,-10.617 -35.27,-10.613 -37.07,-10.617 -38.42,-10.614 -39.3,-10.617 -39.7,-10.613 -39.61,-10.617 -39.04,-10.617 -37.98,-10.614 -36.48,-10.617 -34.52,-10.613 -32.14,-10.617 -29.36,-10.614 -26.24,-10.617 -22.78,-10.617 -19.05,-10.613 -15.1,-10.618 -10.94,-10.613 -6.66,-10.617 -2.25,-9.207 1.33,-10.094 5.66,-10.613 9.97,-10.617 14.15,-10.614 18.16,-10.617 21.95,-10.617 25.47,-10.613 28.67,-10.617 22.72,-7.735"
             style="fill:none;stroke:#00afaf;stroke-width:4.16667;stroke-linecap:butt;stroke-linejoin:miter;stroke-miterlimit:1;stroke-dasharray:none;stroke-opacity:1"
             id="path1297" /></g></g></g></g></svg>
