<?xml version="1.0" encoding="UTF-8" standalone="no"?>
<svg
   xmlns:dc="http://purl.org/dc/elements/1.1/"
   xmlns:cc="http://creativecommons.org/ns#"
   xmlns:rdf="http://www.w3.org/1999/02/22-rdf-syntax-ns#"
   xmlns:svg="http://www.w3.org/2000/svg"
   xmlns="http://www.w3.org/2000/svg"
   version="1.1"
   id="svg2887"
   xml:space="preserve"
   width="604.841"
   height="361.33768"
   viewBox="0 0 907.26149 542.00654"><metadata
     id="metadata2893"><rdf:RDF><cc:Work
         rdf:about=""><dc:format>image/svg+xml</dc:format><dc:type
           rdf:resource="http://purl.org/dc/dcmitype/StillImage" /><dc:title></dc:title></cc:Work></rdf:RDF></metadata><defs
     id="defs2891"><clipPath
       clipPathUnits="userSpaceOnUse"
       id="clipPath2905"><path
         d="m 375,299.582 h 1729.17 v 2908.34 H 375 Z"
         id="path2903" /></clipPath><clipPath
       clipPathUnits="userSpaceOnUse"
       id="clipPath3085"><path
         d="m 500,370.418 h 1520.83 v 2658.33 H 500 Z"
         id="path3083" /></clipPath></defs><g
     id="g2895"
     transform="matrix(0,-1.3333333,-1.3333333,0,1025.6048,667.07604)"><g
       id="g2897"
       transform="scale(0.24)"><g
         id="g2899"><g
           id="g2901"
           clip-path="url(#clipPath2905)"><path
             d="M 500,3025.77 H 458.332"
             style="fill:none;stroke:#afafaf;stroke-width:4.16667;stroke-linecap:butt;stroke-linejoin:miter;stroke-miterlimit:10;stroke-dasharray:none;stroke-opacity:1"
             id="path2907" /><g
             id="g2909"
             transform="scale(4.16667)"><text
               transform="matrix(0,-1,-1,0,94.0003,738.828)"
               style="font-variant:normal;font-weight:normal;font-size:14px;font-family:Menlo;-inkscape-font-specification:Menlo-Regular;writing-mode:lr-tb;fill:#afafaf;fill-opacity:1;fill-rule:nonzero;stroke:none"
               id="text2913"><tspan
                 x="0 8.4274139 16.855413"
                 y="0"
                 id="tspan2911">0ms</tspan></text></g><path
             d="M 500,2760.39 H 458.332"
             style="fill:none;stroke:#afafaf;stroke-width:4.16667;stroke-linecap:butt;stroke-linejoin:miter;stroke-miterlimit:10;stroke-dasharray:none;stroke-opacity:1"
             id="path2915" /><g
             id="g2917"
             transform="scale(4.16667)"><text
               transform="matrix(0,-1,-1,0,94.0003,675.136)"
               style="font-variant:normal;font-weight:normal;font-size:14px;font-family:Menlo;-inkscape-font-specification:Menlo-Regular;writing-mode:lr-tb;fill:#afafaf;fill-opacity:1;fill-rule:nonzero;stroke:none"
               id="text2921"><tspan
                 x="0 8.4280005 16.856001"
                 y="0"
                 id="tspan2919">1ms</tspan></text></g><path
             d="M 500,2495 H 458.332"
             style="fill:none;stroke:#afafaf;stroke-width:4.16667;stroke-linecap:butt;stroke-linejoin:miter;stroke-miterlimit:10;stroke-dasharray:none;stroke-opacity:1"
             id="path2923" /><g
             id="g2925"
             transform="scale(4.16667)"><text
               transform="matrix(0,-1,-1,0,94.0003,611.443)"
               style="font-variant:normal;font-weight:normal;font-size:14px;font-family:Menlo;-inkscape-font-specification:Menlo-Regular;writing-mode:lr-tb;fill:#afafaf;fill-opacity:1;fill-rule:nonzero;stroke:none"
               id="text2929"><tspan
                 x="0 8.4280005 16.856001"
                 y="0"
                 id="tspan2927">2ms</tspan></text></g><path
             d="M 500,2229.61 H 458.332"
             style="fill:none;stroke:#afafaf;stroke-width:4.16667;stroke-linecap:butt;stroke-linejoin:miter;stroke-miterlimit:10;stroke-dasharray:none;stroke-opacity:1"
             id="path2931" /><g
             id="g2933"
             transform="scale(4.16667)"><text
               transform="matrix(0,-1,-1,0,94.0003,547.75)"
               style="font-variant:normal;font-weight:normal;font-size:14px;font-family:Menlo;-inkscape-font-specification:Menlo-Regular;writing-mode:lr-tb;fill:#afafaf;fill-opacity:1;fill-rule:nonzero;stroke:none"
               id="text2937"><tspan
                 x="0 8.4280005 16.856001"
                 y="0"
                 id="tspan2935">3ms</tspan></text></g><path
             d="M 500,1964.23 H 458.332"
             style="fill:none;stroke:#afafaf;stroke-width:4.16667;stroke-linecap:butt;stroke-linejoin:miter;stroke-miterlimit:10;stroke-dasharray:none;stroke-opacity:1"
             id="path2939" /><g
             id="g2941"
             transform="scale(4.16667)"><text
               transform="matrix(0,-1,-1,0,94.0003,484.058)"
               style="font-variant:normal;font-weight:normal;font-size:14px;font-family:Menlo;-inkscape-font-specification:Menlo-Regular;writing-mode:lr-tb;fill:#afafaf;fill-opacity:1;fill-rule:nonzero;stroke:none"
               id="text2945"><tspan
                 x="0 8.4280005 16.856001"
                 y="0"
                 id="tspan2943">4ms</tspan></text></g><path
             d="M 500,1698.84 H 458.332"
             style="fill:none;stroke:#afafaf;stroke-width:4.16667;stroke-linecap:butt;stroke-linejoin:miter;stroke-miterlimit:10;stroke-dasharray:none;stroke-opacity:1"
             id="path2947" /><g
             id="g2949"
             transform="scale(4.16667)"><text
               transform="matrix(0,-1,-1,0,94.0003,420.365)"
               style="font-variant:normal;font-weight:normal;font-size:14px;font-family:Menlo;-inkscape-font-specification:Menlo-Regular;writing-mode:lr-tb;fill:#afafaf;fill-opacity:1;fill-rule:nonzero;stroke:none"
               id="text2953"><tspan
                 x="0 8.4280005 16.856001"
                 y="0"
                 id="tspan2951">5ms</tspan></text></g><path
             d="M 500,1433.45 H 458.332"
             style="fill:none;stroke:#afafaf;stroke-width:4.16667;stroke-linecap:butt;stroke-linejoin:miter;stroke-miterlimit:10;stroke-dasharray:none;stroke-opacity:1"
             id="path2955" /><g
             id="g2957"
             transform="scale(4.16667)"><text
               transform="matrix(0,-1,-1,0,94.0003,356.672)"
               style="font-variant:normal;font-weight:normal;font-size:14px;font-family:Menlo;-inkscape-font-specification:Menlo-Regular;writing-mode:lr-tb;fill:#afafaf;fill-opacity:1;fill-rule:nonzero;stroke:none"
               id="text2961"><tspan
                 x="0 8.4280005 16.855413"
                 y="0"
                 id="tspan2959">6ms</tspan></text></g><path
             d="M 500,1168.07 H 458.332"
             style="fill:none;stroke:#afafaf;stroke-width:4.16667;stroke-linecap:butt;stroke-linejoin:miter;stroke-miterlimit:10;stroke-dasharray:none;stroke-opacity:1"
             id="path2963" /><g
             id="g2965"
             transform="scale(4.16667)"><text
               transform="matrix(0,-1,-1,0,94.0003,292.979)"
               style="font-variant:normal;font-weight:normal;font-size:14px;font-family:Menlo;-inkscape-font-specification:Menlo-Regular;writing-mode:lr-tb;fill:#afafaf;fill-opacity:1;fill-rule:nonzero;stroke:none"
               id="text2969"><tspan
                 x="0 8.4280005 16.855413"
                 y="0"
                 id="tspan2967">7ms</tspan></text></g><path
             d="M 500,902.68 H 458.332"
             style="fill:none;stroke:#afafaf;stroke-width:4.16667;stroke-linecap:butt;stroke-linejoin:miter;stroke-miterlimit:10;stroke-dasharray:none;stroke-opacity:1"
             id="path2971" /><g
             id="g2973"
             transform="scale(4.16667)"><text
               transform="matrix(0,-1,-1,0,94.0003,229.286)"
               style="font-variant:normal;font-weight:normal;font-size:14px;font-family:Menlo;-inkscape-font-specification:Menlo-Regular;writing-mode:lr-tb;fill:#afafaf;fill-opacity:1;fill-rule:nonzero;stroke:none"
               id="text2977"><tspan
                 x="0 8.4280005 16.855413"
                 y="0"
                 id="tspan2975">8ms</tspan></text></g><path
             d="M 500,637.293 H 458.332"
             style="fill:none;stroke:#afafaf;stroke-width:4.16667;stroke-linecap:butt;stroke-linejoin:miter;stroke-miterlimit:10;stroke-dasharray:none;stroke-opacity:1"
             id="path2979" /><g
             id="g2981"
             transform="scale(4.16667)"><text
               transform="matrix(0,-1,-1,0,94.0003,165.593)"
               style="font-variant:normal;font-weight:normal;font-size:14px;font-family:Menlo;-inkscape-font-specification:Menlo-Regular;writing-mode:lr-tb;fill:#afafaf;fill-opacity:1;fill-rule:nonzero;stroke:none"
               id="text2987"><tspan
                 x="0 8.4280005 16.855413"
                 y="0"
                 id="tspan2983">9ms</tspan><tspan
                 x="-579.021 -587.44916 -595.87817 -604.30725"
                 y="-20"
                 id="tspan2985">V01-</tspan></text></g><path
             d="m 500,3025.77 v 41.67"
             style="fill:none;stroke:#afafaf;stroke-width:4.16667;stroke-linecap:butt;stroke-linejoin:miter;stroke-miterlimit:10;stroke-dasharray:none;stroke-opacity:1"
             id="path2989" /><g
             id="g2991"
             transform="scale(4.16667)"><text
               transform="matrix(0,-1,-1,0,150.5,744.614)"
               style="font-variant:normal;font-weight:normal;font-size:14px;font-family:Menlo;-inkscape-font-specification:Menlo-Regular;writing-mode:lr-tb;fill:#afafaf;fill-opacity:1;fill-rule:nonzero;stroke:none"
               id="text2995"><tspan
                 x="0 -8.4281301 -16.857189"
                 y="0"
                 id="tspan2993">V8-</tspan></text></g><path
             d="m 652.082,3025.77 v 41.67"
             style="fill:none;stroke:#afafaf;stroke-width:4.16667;stroke-linecap:butt;stroke-linejoin:miter;stroke-miterlimit:10;stroke-dasharray:none;stroke-opacity:1"
             id="path2997" /><g
             id="g2999"
             transform="scale(4.16667)"><text
               transform="matrix(0,-1,-1,0,187,744.614)"
               style="font-variant:normal;font-weight:normal;font-size:14px;font-family:Menlo;-inkscape-font-specification:Menlo-Regular;writing-mode:lr-tb;fill:#afafaf;fill-opacity:1;fill-rule:nonzero;stroke:none"
               id="text3003"><tspan
                 x="0 -8.4281301 -16.857189"
                 y="0"
                 id="tspan3001">V6-</tspan></text></g><path
             d="m 804.168,3025.77 v 41.67"
             style="fill:none;stroke:#afafaf;stroke-width:4.16667;stroke-linecap:butt;stroke-linejoin:miter;stroke-miterlimit:10;stroke-dasharray:none;stroke-opacity:1"
             id="path3005" /><g
             id="g3007"
             transform="scale(4.16667)"><text
               transform="matrix(0,-1,-1,0,223.5,744.614)"
               style="font-variant:normal;font-weight:normal;font-size:14px;font-family:Menlo;-inkscape-font-specification:Menlo-Regular;writing-mode:lr-tb;fill:#afafaf;fill-opacity:1;fill-rule:nonzero;stroke:none"
               id="text3011"><tspan
                 x="0 -8.4281301 -16.857189"
                 y="0"
                 id="tspan3009">V4-</tspan></text></g><path
             d="m 956.25,3025.77 v 41.67"
             style="fill:none;stroke:#afafaf;stroke-width:4.16667;stroke-linecap:butt;stroke-linejoin:miter;stroke-miterlimit:10;stroke-dasharray:none;stroke-opacity:1"
             id="path3013" /><g
             id="g3015"
             transform="scale(4.16667)"><text
               transform="matrix(0,-1,-1,0,260,744.614)"
               style="font-variant:normal;font-weight:normal;font-size:14px;font-family:Menlo;-inkscape-font-specification:Menlo-Regular;writing-mode:lr-tb;fill:#afafaf;fill-opacity:1;fill-rule:nonzero;stroke:none"
               id="text3019"><tspan
                 x="0 -8.4281301 -16.857189"
                 y="0"
                 id="tspan3017">V2-</tspan></text></g><path
             d="m 1108.33,3025.77 v 41.67"
             style="fill:none;stroke:#afafaf;stroke-width:4.16667;stroke-linecap:butt;stroke-linejoin:miter;stroke-miterlimit:10;stroke-dasharray:none;stroke-opacity:1"
             id="path3021" /><g
             id="g3023"
             transform="scale(4.16667)"><text
               transform="matrix(0,-1,-1,0,296.5,744.614)"
               style="font-variant:normal;font-weight:normal;font-size:14px;font-family:Menlo;-inkscape-font-specification:Menlo-Regular;writing-mode:lr-tb;fill:#afafaf;fill-opacity:1;fill-rule:nonzero;stroke:none"
               id="text3027"><tspan
                 x="0 -8.4281301"
                 y="0"
                 id="tspan3025">V0</tspan></text></g><path
             d="m 1260.42,3025.77 v 41.67"
             style="fill:none;stroke:#afafaf;stroke-width:4.16667;stroke-linecap:butt;stroke-linejoin:miter;stroke-miterlimit:10;stroke-dasharray:none;stroke-opacity:1"
             id="path3029" /><g
             id="g3031"
             transform="scale(4.16667)"><text
               transform="matrix(0,-1,-1,0,333,744.614)"
               style="font-variant:normal;font-weight:normal;font-size:14px;font-family:Menlo;-inkscape-font-specification:Menlo-Regular;writing-mode:lr-tb;fill:#afafaf;fill-opacity:1;fill-rule:nonzero;stroke:none"
               id="text3035"><tspan
                 x="0 -8.4281301"
                 y="0"
                 id="tspan3033">V2</tspan></text></g><path
             d="m 1412.5,3025.77 v 41.67"
             style="fill:none;stroke:#afafaf;stroke-width:4.16667;stroke-linecap:butt;stroke-linejoin:miter;stroke-miterlimit:10;stroke-dasharray:none;stroke-opacity:1"
             id="path3037" /><g
             id="g3039"
             transform="scale(4.16667)"><text
               transform="matrix(0,-1,-1,0,369.5,744.614)"
               style="font-variant:normal;font-weight:normal;font-size:14px;font-family:Menlo;-inkscape-font-specification:Menlo-Regular;writing-mode:lr-tb;fill:#afafaf;fill-opacity:1;fill-rule:nonzero;stroke:none"
               id="text3043"><tspan
                 x="0 -8.4281301"
                 y="0"
                 id="tspan3041">V4</tspan></text></g><path
             d="m 1564.58,3025.77 v 41.67"
             style="fill:none;stroke:#afafaf;stroke-width:4.16667;stroke-linecap:butt;stroke-linejoin:miter;stroke-miterlimit:10;stroke-dasharray:none;stroke-opacity:1"
             id="path3045" /><g
             id="g3047"
             transform="scale(4.16667)"><text
               transform="matrix(0,-1,-1,0,406,744.614)"
               style="font-variant:normal;font-weight:normal;font-size:14px;font-family:Menlo;-inkscape-font-specification:Menlo-Regular;writing-mode:lr-tb;fill:#afafaf;fill-opacity:1;fill-rule:nonzero;stroke:none"
               id="text3051"><tspan
                 x="0 -8.4281301"
                 y="0"
                 id="tspan3049">V6</tspan></text></g><path
             d="m 1716.67,3025.77 v 41.67"
             style="fill:none;stroke:#afafaf;stroke-width:4.16667;stroke-linecap:butt;stroke-linejoin:miter;stroke-miterlimit:10;stroke-dasharray:none;stroke-opacity:1"
             id="path3053" /><g
             id="g3055"
             transform="scale(4.16667)"><text
               transform="matrix(0,-1,-1,0,442.5,744.614)"
               style="font-variant:normal;font-weight:normal;font-size:14px;font-family:Menlo;-inkscape-font-specification:Menlo-Regular;writing-mode:lr-tb;fill:#afafaf;fill-opacity:1;fill-rule:nonzero;stroke:none"
               id="text3059"><tspan
                 x="0 -8.4281301"
                 y="0"
                 id="tspan3057">V8</tspan></text></g><path
             d="m 1868.75,3025.77 v 41.67"
             style="fill:none;stroke:#afafaf;stroke-width:4.16667;stroke-linecap:butt;stroke-linejoin:miter;stroke-miterlimit:10;stroke-dasharray:none;stroke-opacity:1"
             id="path3061" /><g
             id="g3063"
             transform="scale(4.16667)"><text
               transform="matrix(0,-1,-1,0,479,744.614)"
               style="font-variant:normal;font-weight:normal;font-size:14px;font-family:Menlo;-inkscape-font-specification:Menlo-Regular;writing-mode:lr-tb;fill:#afafaf;fill-opacity:1;fill-rule:nonzero;stroke:none"
               id="text3067"><tspan
                 x="0 -8.4281301 -16.857189"
                 y="0"
                 id="tspan3065">V01</tspan></text></g><path
             d="m 2020.83,3025.77 v 41.67"
             style="fill:none;stroke:#afafaf;stroke-width:4.16667;stroke-linecap:butt;stroke-linejoin:miter;stroke-miterlimit:10;stroke-dasharray:none;stroke-opacity:1"
             id="path3069" /><path
             d="m 500,371.906 h 1520.83 v 2653.87 H 500 Z"
             style="fill:none;stroke:#afafaf;stroke-width:4.16667;stroke-linecap:butt;stroke-linejoin:miter;stroke-miterlimit:10;stroke-dasharray:none;stroke-opacity:1"
             id="path3071" /><g
             id="g3073"
             transform="scale(4.16667)"><text
               transform="matrix(0,-1,-1,0,489,441.9)"
               style="font-variant:normal;font-weight:normal;font-size:14px;font-family:Menlo;-inkscape-font-specification:Menlo-Regular;writing-mode:lr-tb;fill:#0eff00;fill-opacity:1;fill-rule:nonzero;stroke:none"
               id="text3077"><tspan
                 x="0 8.4280005 16.855413 25.283415 33.710827 42.138828 50.56683 58.994244"
                 y="0"
                 id="tspan3075">V(vout1)</tspan></text></g></g></g><g
         id="g3079"><g
           id="g3081"
           clip-path="url(#clipPath3085)"><path
             d="m 1078.19,3025.77 v 0 l 1.79,-4.66 3.12,-6.22 6.86,-10.62 8.71,-10.61 10.7,-10.62 12.54,-10.61 14.23,-10.62 15.76,-10.61 17.08,-10.62 18.21,-10.62 19.1,-10.61 19.76,-10.62 20.19,-10.61 20.36,-10.62 20.29,-10.61 19.28,-10.25 19.42,-10.61 18.63,-10.62 17.61,-10.61 16.37,-10.62 14.94,-10.61 13.31,-10.62 11.54,-10.61 9.61,-10.62 7.57,-10.61 5.44,-10.62 3.23,-10.61 1,-10.62 -1.25,-10.62 -3.49,-10.61 -5.69,-10.62 -7.8,-10.61 -9.84,-10.62 -11.74,-10.61 -13.51,-10.62 -15.11,-10.61 -16.53,-10.62 -17.74,-10.62 -18.73,-10.61 -19.51,-10.62 -20.03,-10.61 -20.32,-10.62 -20.35,-10.61 -20.15,-10.62 -19.69,-10.61 -18.98,-10.62 -18.06,-10.62 -16.91,-10.61 -15.55,-10.62 -14.01,-10.61 -12.28,-10.62 -10.42,-10.61 -8.42,-10.62 -6.32,-10.61 -4.15,-10.62 -1.92,-10.62 0.33,-10.61 2.57,-10.62 4.79,-10.61 6.95,-10.62 9.01,-10.61 10.98,-10.62 12.8,-10.61 14.47,-10.62 15.97,-10.62 17.26,-10.61 18.35,-10.62 19.22,-10.61 19.84,-10.62 20.23,-10.61 20.38,-10.62 17.7,-9.26 19.02,-10.12 19.42,-10.61 18.63,-10.62 17.6,-10.61 16.36,-10.62 14.93,-10.61 13.31,-10.62 11.52,-10.61 9.59,-10.62 7.56,-10.61 5.42,-10.62 3.23,-10.62 0.98,-10.61 -1.27,-10.62 -3.5,-10.61 -5.7,-10.62 -7.82,-10.61 -9.85,-10.62 -11.75,-10.61 -13.53,-10.62 -15.11,-10.61 -16.54,-10.62 -17.74,-10.61 -18.74,-10.62 -19.51,-10.62 -20.04,-10.61 -20.32,-10.62 -20.35,-10.61 -20.14,-10.62 -19.69,-10.61 -18.98,-10.62 -18.05,-10.61 -16.9,-10.62 -15.53,-10.61 -13.99,-10.62 -12.28,-10.61 -10.4,-10.62 -8.4,-10.62 -6.31,-10.61 -4.13,-10.62 -1.9,-10.61 0.34,-10.62 2.59,-10.61 4.81,-10.62 6.96,-10.61 9.03,-10.62 10.99,-10.61 12.82,-10.62 14.48,-10.61 15.98,-10.62 17.27,-10.62 18.36,-10.61 19.22,-10.62 19.85,-10.61 20.23,-10.62 20.38,-10.61 17.61,-9.22 18.99,-10.1 19.42,-10.61 18.62,-10.62 17.6,-10.61 16.37,-10.62 14.92,-10.61 13.31,-10.62 11.52,-10.61 9.59,-10.62 7.56,-10.62 5.42,-10.61 3.22,-10.62 0.98,-10.61 -1.27,-10.62 -3.5,-10.61 -5.7,-10.62 -7.83,-10.61 -9.84,-10.62 -11.76,-10.61 -13.53,-10.62 -15.11,-10.61 -16.54,-10.62 -17.74,-10.62 -18.75,-10.61 -19.5,-10.62 -20.04,-10.61 -20.32,-10.62 -20.35,-10.61 -20.14,-10.62 -19.68,-10.61 -18.99,-10.62 -18.04,-10.61 -16.9,-10.62 -15.54,-10.61 -13.98,-10.62 -12.27,-10.62 -10.41,-10.61 -8.4,-10.62 -6.3,-10.61 -4.13,-10.62 -1.9,-10.61 0.35,-10.62 2.59,-10.61 4.81,-10.62 6.96,-10.61 9.04,-10.62 10.99,-10.62 12.81,-10.61 14.49,-10.62 15.98,-10.61 17.28,-10.62 18.36,-10.61 19.22,-10.62 19.85,-10.61 20.23,-10.62 20.38,-10.62 17.6,-9.2 18.98,-10.1 19.42,-10.62 18.62,-10.61 17.61,-10.62 16.36,-10.61 14.93,-10.62 13.3,-10.61 11.52,-10.617 9.59,-10.613 7.56,-10.617 5.42,-10.618 3.22,-10.613 0.98,-10.617 -1.27,-10.613 -3.5,-10.618 -5.7,-10.613 -7.82,-10.617 -9.86,-10.613 -11.75,-10.618 -13.52,-10.617 -15.12,-10.613 -16.54,-10.617 -17.75,-10.613 -18.74,-10.618 -19.51,-10.613 -20.03,-10.617 -20.32,-10.617 -20.35,-10.614 -20.14,-10.617 -19.68,-10.613 -18.98,-10.617 -18.05,-10.614 -16.9,-10.617 -15.54,-10.613 -13.99,-10.617 -12.26,-10.617 -10.4,-10.614 -8.41,-10.617 -6.3,-10.613 -4.13,-10.617 -1.9,-10.614 0.35,-10.617 2.6,-10.613 4.81,-10.617 6.96,-10.617 9.03,-10.614 10.99,-10.617 12.82,-10.613 14.49,-10.617 15.98,-10.614 17.27,-10.617 18.37,-10.617 19.22,-10.613 19.85,-10.618 20.23,-10.613 20.38,-10.617 17.59,-9.207 18.98,-10.094 19.42,-10.613 18.63,-10.617 17.6,-10.614 16.37,-10.617 14.92,-10.617 13.3,-10.613 11.66,-10.617 7.56,-7.735"
             style="fill:none;stroke:#0eff00;stroke-width:4.16667;stroke-linecap:butt;stroke-linejoin:miter;stroke-miterlimit:1;stroke-dasharray:none;stroke-opacity:1"
             id="path3087" /><path
             d="m 1078.2,3025.77 v 0 l 1.79,-4.66 3.12,-6.22 6.86,-10.62 8.72,-10.61 10.69,-10.62 12.55,-10.61 14.23,-10.62 15.77,-10.61 17.08,-10.62 18.2,-10.62 19.11,-10.61 19.76,-10.62 20.19,-10.61 20.36,-10.62 20.29,-10.61 19.27,-10.25 19.42,-10.61 18.63,-10.62 17.61,-10.61 16.37,-10.62 14.93,-10.61 13.31,-10.62 11.54,-10.61 9.61,-10.62 7.56,-10.61 5.44,-10.62 3.23,-10.61 1,-10.62 -1.26,-10.62 -3.49,-10.61 -5.69,-10.62 -7.81,-10.61 -9.84,-10.62 -11.74,-10.61 -13.51,-10.62 -15.11,-10.61 -16.53,-10.62 -17.74,-10.62 -18.74,-10.61 -19.5,-10.62 -20.04,-10.61 -20.32,-10.62 -20.35,-10.61 -20.15,-10.62 -19.68,-10.61 -18.99,-10.62 -18.05,-10.62 -16.91,-10.61 -15.55,-10.62 -14,-10.61 -12.28,-10.62 -10.42,-10.61 -8.42,-10.62 -6.31,-10.61 -4.15,-10.62 -1.92,-10.62 0.34,-10.61 2.57,-10.62 4.79,-10.61 6.95,-10.62 9.02,-10.61 10.97,-10.62 12.81,-10.61 14.48,-10.62 15.96,-10.62 17.27,-10.61 18.35,-10.62 19.22,-10.61 19.84,-10.62 20.23,-10.61 20.38,-10.62 17.7,-9.26 19.02,-10.12 19.41,-10.61 18.63,-10.62 17.6,-10.61 16.36,-10.62 14.92,-10.61 13.31,-10.62 11.52,-10.61 9.59,-10.62 7.56,-10.61 5.41,-10.62 3.22,-10.62 0.98,-10.61 -1.27,-10.62 -3.5,-10.61 -5.7,-10.62 -7.83,-10.61 -9.84,-10.62 -11.76,-10.61 -13.53,-10.62 -15.12,-10.61 -16.53,-10.62 -17.75,-10.61 -18.74,-10.62 -19.51,-10.62 -20.03,-10.61 -20.32,-10.62 -20.36,-10.61 -20.14,-10.62 -19.68,-10.61 -18.98,-10.62 -18.05,-10.61 -16.89,-10.62 -15.54,-10.61 -13.99,-10.62 -12.27,-10.61 -10.4,-10.62 -8.4,-10.62 -6.3,-10.61 -4.13,-10.62 -1.9,-10.61 0.35,-10.62 2.59,-10.61 4.81,-10.62 6.96,-10.61 9.04,-10.62 10.99,-10.61 12.82,-10.62 14.49,-10.61 15.97,-10.62 17.28,-10.62 18.36,-10.61 19.22,-10.62 19.85,-10.61 20.23,-10.62 20.38,-10.61 17.6,-9.22 18.99,-10.1 19.42,-10.61 18.62,-10.62 17.6,-10.61 16.37,-10.62 14.92,-10.61 13.3,-10.62 11.52,-10.61 9.59,-10.62 7.55,-10.62 5.42,-10.61 3.22,-10.62 0.98,-10.61 -1.28,-10.62 -3.5,-10.61 -5.7,-10.62 -7.83,-10.61 -9.85,-10.62 -11.76,-10.61 -13.52,-10.62 -15.13,-10.61 -16.53,-10.62 -17.75,-10.62 -18.74,-10.61 -19.51,-10.62 -20.04,-10.61 -20.32,-10.62 -20.35,-10.61 -20.14,-10.62 -19.68,-10.61 -18.98,-10.62 -18.04,-10.61 -16.9,-10.62 -15.53,-10.61 -13.99,-10.62 -12.27,-10.62 -10.39,-10.61 -8.4,-10.62 -6.3,-10.61 -4.13,-10.62 -1.9,-10.61 0.36,-10.62 2.59,-10.61 4.81,-10.62 6.97,-10.61 9.03,-10.62 11,-10.62 12.82,-10.61 14.49,-10.62 15.98,-10.61 17.27,-10.62 18.36,-10.61 19.23,-10.62 19.84,-10.61 20.24,-10.62 20.37,-10.62 17.6,-9.2 18.98,-10.1 19.42,-10.62 18.62,-10.61 17.61,-10.62 16.35,-10.61 14.93,-10.62 13.3,-10.61 11.52,-10.617 9.59,-10.613 7.55,-10.617 5.42,-10.618 3.22,-10.613 0.98,-10.617 -1.27,-10.613 -3.51,-10.618 -5.71,-10.613 -7.82,-10.617 -9.85,-10.613 -11.76,-10.618 -13.53,-10.617 -15.12,-10.613 -16.53,-10.617 -17.75,-10.613 -18.74,-10.618 -19.51,-10.613 -20.04,-10.617 -20.31,-10.617 -20.36,-10.614 -20.14,-10.617 -19.68,-10.613 -18.98,-10.617 -18.04,-10.614 -16.9,-10.617 -15.53,-10.613 -13.99,-10.617 -12.26,-10.617 -10.4,-10.614 -8.4,-10.617 -6.3,-10.613 -4.13,-10.617 -1.89,-10.614 0.35,-10.617 2.59,-10.613 4.82,-10.617 6.96,-10.617 9.04,-10.614 10.99,-10.617 12.82,-10.613 14.49,-10.617 15.98,-10.614 17.28,-10.617 18.36,-10.617 19.22,-10.613 19.85,-10.618 20.23,-10.613 20.38,-10.617 17.6,-9.207 18.98,-10.094 19.42,-10.613 18.62,-10.617 17.6,-10.614 16.36,-10.617 14.92,-10.617 13.31,-10.613 11.65,-10.617 7.56,-7.735"
             style="fill:none;stroke:#0000ff;stroke-width:4.16667;stroke-linecap:butt;stroke-linejoin:miter;stroke-miterlimit:1;stroke-dasharray:none;stroke-opacity:1"
             id="path3089" /><path
             d="m 1078.22,3025.77 v 0 l 1.8,-4.66 3.12,-6.22 6.87,-10.62 8.72,-10.61 10.71,-10.62 12.55,-10.61 14.24,-10.62 15.76,-10.61 17.09,-10.62 18.21,-10.62 19.1,-10.61 19.77,-10.62 20.18,-10.61 20.36,-10.62 20.29,-10.61 19.27,-10.25 19.42,-10.61 18.62,-10.62 17.61,-10.61 16.36,-10.62 14.93,-10.61 13.3,-10.62 11.53,-10.61 9.6,-10.62 7.55,-10.61 5.43,-10.62 3.23,-10.61 0.98,-10.62 -1.26,-10.62 -3.5,-10.61 -5.7,-10.62 -7.81,-10.61 -9.85,-10.62 -11.75,-10.61 -13.52,-10.62 -15.11,-10.61 -16.53,-10.62 -17.74,-10.62 -18.74,-10.61 -19.51,-10.62 -20.03,-10.61 -20.32,-10.62 -20.36,-10.61 -20.14,-10.62 -19.68,-10.61 -18.98,-10.62 -18.06,-10.62 -16.89,-10.61 -15.55,-10.62 -13.99,-10.61 -12.27,-10.62 -10.41,-10.61 -8.41,-10.62 -6.31,-10.61 -4.14,-10.62 -1.91,-10.62 0.34,-10.61 2.59,-10.62 4.8,-10.61 6.95,-10.62 9.02,-10.61 10.99,-10.62 12.81,-10.61 14.48,-10.62 15.97,-10.62 17.27,-10.61 18.36,-10.62 19.21,-10.61 19.85,-10.62 20.22,-10.61 20.38,-10.62 17.7,-9.26 19.02,-10.12 19.41,-10.61 18.62,-10.62 17.6,-10.61 16.35,-10.62 14.92,-10.61 13.29,-10.62 11.52,-10.61 9.58,-10.62 7.55,-10.61 5.41,-10.62 3.21,-10.62 0.97,-10.61 -1.28,-10.62 -3.51,-10.61 -5.71,-10.62 -7.83,-10.61 -9.86,-10.62 -11.76,-10.61 -13.53,-10.62 -15.12,-10.61 -16.54,-10.62 -17.75,-10.61 -18.74,-10.62 -19.52,-10.62 -20.03,-10.61 -20.32,-10.62 -20.35,-10.61 -20.14,-10.62 -19.68,-10.61 -18.97,-10.62 -18.05,-10.61 -16.89,-10.62 -15.53,-10.61 -13.98,-10.62 -12.26,-10.61 -10.39,-10.62 -8.39,-10.62 -6.3,-10.61 -4.12,-10.62 -1.89,-10.61 0.36,-10.62 2.6,-10.61 4.81,-10.62 6.98,-10.61 9.04,-10.62 10.99,-10.61 12.83,-10.62 14.49,-10.61 15.98,-10.62 17.28,-10.62 18.36,-10.61 19.23,-10.62 19.84,-10.61 20.23,-10.62 20.38,-10.61 17.61,-9.22 18.98,-10.1 19.41,-10.61 18.62,-10.62 17.6,-10.61 16.36,-10.62 14.91,-10.61 13.29,-10.62 11.52,-10.61 9.58,-10.62 7.55,-10.62 5.41,-10.61 3.2,-10.62 0.97,-10.61 -1.28,-10.62 -3.51,-10.61 -5.71,-10.62 -7.83,-10.61 -9.86,-10.62 -11.77,-10.61 -13.53,-10.62 -15.12,-10.61 -16.55,-10.62 -17.74,-10.62 -18.75,-10.61 -19.51,-10.62 -20.03,-10.61 -20.32,-10.62 -20.35,-10.61 -20.14,-10.62 -19.67,-10.61 -18.98,-10.62 -18.04,-10.61 -16.89,-10.62 -15.53,-10.61 -13.98,-10.62 -12.26,-10.62 -10.39,-10.61 -8.39,-10.62 -6.29,-10.61 -4.12,-10.62 -1.89,-10.61 0.36,-10.62 2.61,-10.61 4.81,-10.62 6.98,-10.61 9.04,-10.62 11,-10.62 12.83,-10.61 14.49,-10.62 15.98,-10.61 17.28,-10.62 18.37,-10.61 19.22,-10.62 19.85,-10.61 20.23,-10.62 20.38,-10.62 17.59,-9.2 18.99,-10.1 19.41,-10.62 18.62,-10.61 17.59,-10.62 16.36,-10.61 14.91,-10.62 13.3,-10.61 11.5,-10.617 9.59,-10.613 7.54,-10.617 5.41,-10.618 3.21,-10.613 0.97,-10.617 -1.28,-10.613 -3.51,-10.618 -5.71,-10.613 -7.83,-10.617 -9.86,-10.613 -11.77,-10.618 -13.53,-10.617 -15.12,-10.613 -16.54,-10.617 -17.75,-10.613 -18.75,-10.618 -19.51,-10.613 -20.03,-10.617 -20.32,-10.617 -20.35,-10.614 -20.14,-10.617 -19.68,-10.613 -18.97,-10.617 -18.04,-10.614 -16.89,-10.617 -15.53,-10.613 -13.98,-10.617 -12.25,-10.617 -10.4,-10.614 -8.39,-10.617 -6.29,-10.613 -4.12,-10.617 -1.88,-10.614 0.36,-10.617 2.6,-10.613 4.82,-10.617 6.97,-10.617 9.04,-10.614 11.01,-10.617 12.82,-10.613 14.5,-10.617 15.98,-10.614 17.28,-10.617 18.37,-10.617 19.22,-10.613 19.85,-10.618 20.23,-10.613 20.38,-10.617 17.59,-9.207 18.98,-10.094 19.41,-10.613 18.62,-10.617 17.6,-10.614 16.35,-10.617 14.92,-10.617 13.29,-10.613 11.65,-10.617 7.55,-7.735"
             style="fill:none;stroke:#ff0000;stroke-width:4.16667;stroke-linecap:butt;stroke-linejoin:miter;stroke-miterlimit:1;stroke-dasharray:none;stroke-opacity:1"
             id="path3091" /><path
             d="m 1078.27,3025.77 v 0 l 1.81,-4.66 3.13,-6.22 6.88,-10.62 8.74,-10.61 10.71,-10.62 12.57,-10.61 14.25,-10.62 15.77,-10.61 17.1,-10.62 18.21,-10.62 19.11,-10.61 19.76,-10.62 20.19,-10.61 20.36,-10.62 20.28,-10.61 19.26,-10.25 19.41,-10.61 18.62,-10.62 17.59,-10.61 16.35,-10.62 14.92,-10.61 13.29,-10.62 11.5,-10.61 9.59,-10.62 7.54,-10.61 5.41,-10.62 3.21,-10.61 0.97,-10.62 -1.28,-10.62 -3.52,-10.61 -5.71,-10.62 -7.83,-10.61 -9.86,-10.62 -11.76,-10.61 -13.53,-10.62 -15.13,-10.61 -16.53,-10.62 -17.75,-10.62 -18.74,-10.61 -19.51,-10.62 -20.04,-10.61 -20.31,-10.62 -20.35,-10.61 -20.14,-10.62 -19.67,-10.61 -18.98,-10.62 -18.04,-10.62 -16.89,-10.61 -15.53,-10.62 -13.98,-10.61 -12.26,-10.62 -10.39,-10.61 -8.39,-10.62 -6.3,-10.61 -4.12,-10.62 -1.89,-10.62 0.36,-10.61 2.6,-10.62 4.81,-10.61 6.97,-10.62 9.04,-10.61 11,-10.62 12.82,-10.61 14.49,-10.62 15.98,-10.62 17.27,-10.61 18.36,-10.62 19.23,-10.61 19.84,-10.62 20.23,-10.61 20.37,-10.62 17.7,-9.26 19.01,-10.12 19.4,-10.61 18.61,-10.62 17.59,-10.61 16.34,-10.62 14.91,-10.61 13.28,-10.62 11.49,-10.61 9.57,-10.62 7.53,-10.61 5.4,-10.62 3.19,-10.62 0.95,-10.61 -1.29,-10.62 -3.53,-10.61 -5.72,-10.62 -7.85,-10.61 -9.87,-10.62 -11.77,-10.61 -13.54,-10.62 -15.14,-10.61 -16.54,-10.62 -17.76,-10.61 -18.75,-10.62 -19.51,-10.62 -20.03,-10.61 -20.32,-10.62 -20.35,-10.61 -20.13,-10.62 -19.67,-10.61 -18.97,-10.62 -18.03,-10.61 -16.88,-10.62 -15.52,-10.61 -13.97,-10.62 -12.24,-10.61 -10.38,-10.62 -8.38,-10.62 -6.27,-10.61 -4.11,-10.62 -1.87,-10.61 0.37,-10.62 2.62,-10.61 4.83,-10.62 6.99,-10.61 9.05,-10.62 11.01,-10.61 12.84,-10.62 14.5,-10.61 15.99,-10.62 17.28,-10.62 18.37,-10.61 19.23,-10.62 19.85,-10.61 20.23,-10.62 20.37,-10.61 17.61,-9.22 18.97,-10.1 19.41,-10.61 18.61,-10.62 17.58,-10.61 16.35,-10.62 14.9,-10.61 13.28,-10.62 11.49,-10.61 9.57,-10.62 7.53,-10.62 5.39,-10.61 3.19,-10.62 0.96,-10.61 -1.3,-10.62 -3.53,-10.61 -5.73,-10.62 -7.84,-10.61 -9.88,-10.62 -11.77,-10.61 -13.54,-10.62 -15.14,-10.61 -16.55,-10.62 -17.75,-10.62 -18.75,-10.61 -19.51,-10.62 -20.04,-10.61 -20.31,-10.62 -20.35,-10.61 -20.13,-10.62 -19.67,-10.61 -18.97,-10.62 -18.03,-10.61 -16.88,-10.62 -15.51,-10.61 -13.97,-10.62 -12.24,-10.62 -10.37,-10.61 -8.38,-10.62 -6.28,-10.61 -4.1,-10.62 -1.87,-10.61 0.38,-10.62 2.62,-10.61 4.83,-10.62 6.99,-10.61 9.06,-10.62 11.01,-10.62 12.84,-10.61 14.5,-10.62 15.99,-10.61 17.29,-10.62 18.37,-10.61 19.22,-10.62 19.85,-10.61 20.23,-10.62 20.38,-10.62 17.59,-9.2 18.98,-10.1 19.4,-10.62 18.61,-10.61 17.58,-10.62 16.35,-10.61 14.9,-10.62 13.28,-10.61 11.49,-10.617 9.57,-10.613 7.53,-10.617 5.39,-10.618 3.2,-10.613 0.95,-10.617 -1.3,-10.613 -3.53,-10.618 -5.72,-10.613 -7.85,-10.617 -9.87,-10.613 -11.78,-10.618 -13.54,-10.617 -15.14,-10.613 -16.54,-10.617 -17.76,-10.613 -18.75,-10.618 -19.51,-10.613 -20.04,-10.617 -20.31,-10.617 -20.35,-10.614 -20.13,-10.617 -19.67,-10.613 -18.97,-10.617 -18.03,-10.614 -16.87,-10.617 -15.52,-10.613 -13.96,-10.617 -12.25,-10.617 -10.37,-10.614 -8.38,-10.617 -6.27,-10.613 -4.1,-10.617 -1.88,-10.614 0.38,-10.617 2.62,-10.613 4.84,-10.617 6.98,-10.617 9.06,-10.614 11.02,-10.617 12.83,-10.613 14.51,-10.617 15.99,-10.614 17.28,-10.617 18.38,-10.617 19.22,-10.613 19.85,-10.618 20.23,-10.613 20.38,-10.617 17.59,-9.207 18.97,-10.094 19.4,-10.613 18.61,-10.617 17.59,-10.614 16.34,-10.617 14.91,-10.617 13.28,-10.613 11.63,-10.617 7.54,-7.735"
             style="fill:none;stroke:#00afaf;stroke-width:4.16667;stroke-linecap:butt;stroke-linejoin:miter;stroke-miterlimit:1;stroke-dasharray:none;stroke-opacity:1"
             id="path3093" /><path
             d="m 1078.37,3025.77 v 0 l 1.82,-4.66 3.15,-6.22 6.91,-10.62 8.77,-10.61 10.74,-10.62 12.58,-10.61 14.28,-10.62 15.78,-10.61 17.11,-10.62 18.22,-10.62 19.12,-10.61 19.77,-10.62 20.18,-10.61 20.36,-10.62 20.27,-10.61 19.25,-10.25 19.4,-10.61 18.6,-10.62 17.57,-10.61 16.32,-10.62 14.89,-10.61 13.26,-10.62 11.48,-10.61 9.55,-10.62 7.51,-10.61 5.37,-10.62 3.18,-10.61 0.94,-10.62 -1.32,-10.62 -3.55,-10.61 -5.74,-10.62 -7.85,-10.61 -9.89,-10.62 -11.79,-10.61 -13.55,-10.62 -15.14,-10.61 -16.55,-10.62 -17.76,-10.62 -18.75,-10.61 -19.52,-10.62 -20.03,-10.61 -20.32,-10.62 -20.34,-10.61 -20.13,-10.62 -19.66,-10.61 -18.95,-10.62 -18.03,-10.62 -16.86,-10.61 -15.5,-10.62 -13.96,-10.61 -12.23,-10.62 -10.36,-10.61 -8.36,-10.62 -6.26,-10.61 -4.08,-10.62 -1.86,-10.62 0.39,-10.61 2.63,-10.62 4.85,-10.61 7,-10.62 9.06,-10.61 11.03,-10.62 12.84,-10.61 14.51,-10.62 15.99,-10.62 17.29,-10.61 18.38,-10.62 19.22,-10.61 19.85,-10.62 20.23,-10.61 20.36,-10.62 17.69,-9.26 19,-10.12 19.39,-10.61 18.59,-10.62 17.56,-10.61 16.32,-10.62 14.88,-10.61 13.25,-10.62 11.47,-10.61 9.54,-10.62 7.49,-10.61 5.36,-10.62 3.16,-10.62 0.92,-10.61 -1.32,-10.62 -3.57,-10.61 -5.75,-10.62 -7.88,-10.61 -9.89,-10.62 -11.8,-10.61 -13.56,-10.62 -15.16,-10.61 -16.55,-10.62 -17.77,-10.61 -18.76,-10.62 -19.51,-10.62 -20.04,-10.61 -20.31,-10.62 -20.35,-10.61 -20.12,-10.62 -19.66,-10.61 -18.95,-10.62 -18.01,-10.61 -16.85,-10.62 -15.49,-10.61 -13.94,-10.62 -12.22,-10.61 -10.34,-10.62 -8.35,-10.62 -6.24,-10.61 -4.07,-10.62 -1.84,-10.61 0.4,-10.62 2.65,-10.61 4.87,-10.62 7.01,-10.61 9.09,-10.62 11.03,-10.61 12.86,-10.62 14.52,-10.61 16.01,-10.62 17.29,-10.62 18.38,-10.61 19.23,-10.62 19.85,-10.61 20.24,-10.62 20.36,-10.61 17.6,-9.22 18.96,-10.1 19.4,-10.61 18.59,-10.62 17.56,-10.61 16.32,-10.62 14.87,-10.61 13.25,-10.62 11.47,-10.61 9.54,-10.62 7.49,-10.62 5.36,-10.61 3.15,-10.62 0.93,-10.61 -1.34,-10.62 -3.56,-10.61 -5.75,-10.62 -7.88,-10.61 -9.9,-10.62 -11.8,-10.61 -13.56,-10.62 -15.15,-10.61 -16.57,-10.62 -17.76,-10.62 -18.76,-10.61 -19.52,-10.62 -20.04,-10.61 -20.31,-10.62 -20.34,-10.61 -20.12,-10.62 -19.65,-10.61 -18.95,-10.62 -18.02,-10.61 -16.85,-10.62 -15.49,-10.61 -13.94,-10.62 -12.21,-10.62 -10.34,-10.61 -8.35,-10.62 -6.24,-10.61 -4.06,-10.62 -1.84,-10.61 0.41,-10.62 2.65,-10.61 4.87,-10.62 7.02,-10.61 9.08,-10.62 11.04,-10.62 12.86,-10.61 14.52,-10.62 16.01,-10.61 17.3,-10.62 18.38,-10.61 19.23,-10.62 19.85,-10.61 20.23,-10.62 20.37,-10.62 17.58,-9.2 18.97,-10.1 19.38,-10.62 18.6,-10.61 17.56,-10.62 16.32,-10.61 14.88,-10.62 13.25,-10.61 11.46,-10.617 9.54,-10.613 7.49,-10.617 5.36,-10.618 3.16,-10.613 0.92,-10.617 -1.33,-10.613 -3.57,-10.618 -5.75,-10.613 -7.88,-10.617 -9.9,-10.613 -11.8,-10.618 -13.56,-10.617 -15.16,-10.613 -16.56,-10.617 -17.76,-10.613 -18.76,-10.618 -19.52,-10.613 -20.03,-10.617 -20.32,-10.617 -20.34,-10.614 -20.12,-10.617 -19.65,-10.613 -18.95,-10.617 -18.01,-10.614 -16.86,-10.617 -15.49,-10.613 -13.93,-10.617 -12.22,-10.617 -10.34,-10.614 -8.34,-10.617 -6.25,-10.613 -4.06,-10.617 -1.84,-10.614 0.41,-10.617 2.66,-10.613 4.86,-10.617 7.02,-10.617 9.08,-10.614 11.04,-10.617 12.86,-10.613 14.53,-10.617 16.01,-10.614 17.29,-10.617 18.38,-10.617 19.24,-10.613 19.85,-10.618 20.23,-10.613 20.37,-10.617 17.58,-9.207 18.96,-10.094 19.39,-10.613 18.59,-10.617 17.57,-10.614 16.31,-10.617 14.88,-10.617 13.25,-10.613 11.6,-10.617 7.52,-7.735"
             style="fill:none;stroke:#ff00ff;stroke-width:4.16667;stroke-linecap:butt;stroke-linejoin:miter;stroke-miterlimit:1;stroke-dasharray:none;stroke-opacity:1"
             id="path3095" /><path
             d="m 1078.57,3025.77 v 0 l 1.84,-4.66 3.19,-6.22 6.97,-10.62 8.82,-10.61 10.79,-10.62 12.64,-10.61 14.31,-10.62 15.82,-10.61 17.14,-10.62 18.24,-10.62 19.13,-10.61 19.77,-10.62 20.18,-10.61 20.35,-10.62 20.26,-10.61 19.23,-10.25 19.36,-10.61 18.56,-10.62 17.53,-10.61 16.28,-10.62 14.83,-10.61 13.2,-10.62 11.42,-10.61 9.49,-10.62 7.44,-10.61 5.31,-10.62 3.1,-10.61 0.87,-10.62 -1.38,-10.62 -3.61,-10.61 -5.8,-10.62 -7.92,-10.61 -9.94,-10.62 -11.83,-10.61 -13.59,-10.62 -15.18,-10.61 -16.59,-10.62 -17.78,-10.62 -18.77,-10.61 -19.52,-10.62 -20.03,-10.61 -20.31,-10.62 -20.34,-10.61 -20.1,-10.62 -19.63,-10.61 -18.93,-10.62 -17.98,-10.62 -16.82,-10.61 -15.45,-10.62 -13.89,-10.61 -12.17,-10.62 -10.3,-10.61 -8.29,-10.62 -6.2,-10.61 -4.02,-10.62 -1.79,-10.62 0.46,-10.61 2.7,-10.62 4.91,-10.61 7.06,-10.62 9.12,-10.61 11.07,-10.62 12.89,-10.61 14.55,-10.62 16.03,-10.62 17.31,-10.61 18.39,-10.62 19.24,-10.61 19.85,-10.62 20.23,-10.61 20.35,-10.62 17.68,-9.26 18.97,-10.12 19.36,-10.61 18.56,-10.62 17.52,-10.61 16.27,-10.62 14.82,-10.61 13.2,-10.62 11.4,-10.61 9.47,-10.62 7.43,-10.61 5.29,-10.62 3.1,-10.62 0.85,-10.61 -1.39,-10.62 -3.63,-10.61 -5.81,-10.62 -7.94,-10.61 -9.95,-10.62 -11.84,-10.61 -13.61,-10.62 -15.19,-10.61 -16.59,-10.62 -17.79,-10.61 -18.77,-10.62 -19.53,-10.62 -20.04,-10.61 -20.3,-10.62 -20.33,-10.61 -20.1,-10.62 -19.63,-10.61 -18.92,-10.62 -17.97,-10.61 -16.8,-10.62 -15.45,-10.61 -13.88,-10.62 -12.15,-10.61 -10.29,-10.62 -8.28,-10.62 -6.17,-10.61 -4,-10.62 -1.78,-10.61 0.48,-10.62 2.71,-10.61 4.93,-10.62 7.07,-10.61 9.14,-10.62 11.08,-10.61 12.91,-10.62 14.56,-10.61 16.04,-10.62 17.32,-10.62 18.4,-10.61 19.24,-10.62 19.86,-10.61 20.22,-10.62 20.36,-10.61 17.58,-9.22 18.95,-10.1 19.36,-10.61 18.55,-10.62 17.52,-10.61 16.27,-10.62 14.82,-10.61 13.2,-10.62 11.4,-10.61 9.47,-10.62 7.43,-10.62 5.29,-10.61 3.09,-10.62 0.85,-10.61 -1.39,-10.62 -3.63,-10.61 -5.82,-10.62 -7.93,-10.61 -9.95,-10.62 -11.85,-10.61 -13.61,-10.62 -15.19,-10.61 -16.59,-10.62 -17.79,-10.62 -18.77,-10.61 -19.53,-10.62 -20.03,-10.61 -20.31,-10.62 -20.33,-10.61 -20.1,-10.62 -19.63,-10.61 -18.91,-10.62 -17.97,-10.61 -16.81,-10.62 -15.44,-10.61 -13.88,-10.62 -12.16,-10.62 -10.27,-10.61 -8.28,-10.62 -6.18,-10.61 -3.99,-10.62 -1.78,-10.61 0.48,-10.62 2.72,-10.61 4.93,-10.62 7.07,-10.61 9.14,-10.62 11.09,-10.62 12.91,-10.61 14.56,-10.62 16.04,-10.61 17.33,-10.62 18.39,-10.61 19.25,-10.62 19.86,-10.61 20.22,-10.62 20.36,-10.62 17.57,-9.2 18.94,-10.1 19.36,-10.62 18.55,-10.61 17.52,-10.62 16.27,-10.61 14.82,-10.62 13.19,-10.61 11.41,-10.617 9.47,-10.613 7.43,-10.617 5.29,-10.618 3.09,-10.613 0.85,-10.617 -1.39,-10.613 -3.63,-10.618 -5.82,-10.613 -7.93,-10.617 -9.95,-10.613 -11.85,-10.618 -13.61,-10.617 -15.19,-10.613 -16.59,-10.617 -17.79,-10.613 -18.77,-10.618 -19.53,-10.613 -20.04,-10.617 -20.3,-10.617 -20.33,-10.614 -20.1,-10.617 -19.63,-10.613 -18.91,-10.617 -17.97,-10.614 -16.81,-10.617 -15.44,-10.613 -13.88,-10.617 -12.15,-10.617 -10.28,-10.614 -8.28,-10.617 -6.17,-10.613 -4,-10.617 -1.77,-10.614 0.48,-10.617 2.72,-10.613 4.92,-10.617 7.08,-10.617 9.14,-10.614 11.09,-10.617 12.9,-10.613 14.56,-10.617 16.05,-10.614 17.32,-10.617 18.4,-10.617 19.25,-10.613 19.85,-10.618 20.23,-10.613 20.36,-10.617 17.56,-9.207 18.94,-10.094 19.36,-10.613 18.56,-10.617 17.52,-10.614 16.26,-10.617 14.83,-10.617 13.19,-10.613 11.54,-10.617 7.48,-7.735"
             style="fill:none;stroke:#808080;stroke-width:4.16667;stroke-linecap:butt;stroke-linejoin:miter;stroke-miterlimit:1;stroke-dasharray:none;stroke-opacity:1"
             id="path3097" /><path
             d="m 1078.96,3025.77 v 0 l 1.9,-4.66 3.26,-6.22 7.09,-10.62 8.93,-10.61 10.9,-10.62 12.72,-10.61 14.39,-10.62 15.89,-10.61 17.19,-10.62 18.29,-10.62 19.15,-10.61 19.79,-10.62 20.17,-10.61 20.33,-10.62 20.22,-10.61 19.19,-10.25 19.3,-10.61 18.49,-10.62 17.44,-10.61 16.18,-10.62 14.72,-10.61 13.09,-10.62 11.3,-10.61 9.36,-10.62 7.31,-10.61 5.17,-10.62 2.97,-10.61 0.74,-10.62 -1.51,-10.62 -3.75,-10.61 -5.92,-10.62 -8.03,-10.61 -10.05,-10.62 -11.93,-10.61 -13.68,-10.62 -15.25,-10.61 -16.64,-10.62 -17.83,-10.62 -18.8,-10.61 -19.54,-10.62 -20.04,-10.61 -20.29,-10.62 -20.31,-10.61 -20.06,-10.62 -19.58,-10.61 -18.85,-10.62 -17.9,-10.62 -16.73,-10.61 -15.35,-10.62 -13.78,-10.61 -12.05,-10.62 -10.17,-10.61 -8.17,-10.62 -6.06,-10.61 -3.88,-10.62 -1.66,-10.62 0.59,-10.61 2.83,-10.62 5.04,-10.61 7.17,-10.62 9.24,-10.61 11.17,-10.62 12.98,-10.61 14.62,-10.62 16.1,-10.62 17.37,-10.61 18.42,-10.62 19.27,-10.61 19.86,-10.62 20.21,-10.61 20.34,-10.62 17.64,-9.26 18.93,-10.12 19.3,-10.61 18.48,-10.62 17.44,-10.61 16.17,-10.62 14.72,-10.61 13.07,-10.62 11.29,-10.61 9.34,-10.62 7.3,-10.61 5.16,-10.62 2.96,-10.62 0.72,-10.61 -1.53,-10.62 -3.76,-10.61 -5.93,-10.62 -8.05,-10.61 -10.05,-10.62 -11.95,-10.61 -13.69,-10.62 -15.26,-10.61 -16.66,-10.62 -17.83,-10.61 -18.81,-10.62 -19.54,-10.62 -20.04,-10.61 -20.3,-10.62 -20.3,-10.61 -20.05,-10.62 -19.58,-10.61 -18.84,-10.62 -17.89,-10.61 -16.72,-10.62 -15.34,-10.61 -13.77,-10.62 -12.04,-10.61 -10.15,-10.62 -8.15,-10.62 -6.04,-10.61 -3.87,-10.62 -1.64,-10.61 0.61,-10.62 2.85,-10.61 5.05,-10.62 7.19,-10.61 9.24,-10.62 11.19,-10.61 12.99,-10.62 14.64,-10.61 16.11,-10.62 17.38,-10.62 18.43,-10.61 19.27,-10.62 19.86,-10.61 20.22,-10.62 20.34,-10.61 17.55,-9.22 18.9,-10.1 19.3,-10.61 18.48,-10.62 17.43,-10.61 16.18,-10.62 14.71,-10.61 13.08,-10.62 11.28,-10.61 9.34,-10.62 7.3,-10.62 5.15,-10.61 2.96,-10.62 0.72,-10.61 -1.53,-10.62 -3.76,-10.61 -5.93,-10.62 -8.06,-10.61 -10.05,-10.62 -11.95,-10.61 -13.69,-10.62 -15.26,-10.61 -16.65,-10.62 -17.84,-10.62 -18.81,-10.61 -19.54,-10.62 -20.04,-10.61 -20.29,-10.62 -20.3,-10.61 -20.06,-10.62 -19.58,-10.61 -18.84,-10.62 -17.89,-10.61 -16.72,-10.62 -15.33,-10.61 -13.77,-10.62 -12.03,-10.62 -10.16,-10.61 -8.14,-10.62 -6.04,-10.61 -3.87,-10.62 -1.63,-10.61 0.61,-10.62 2.84,-10.61 5.05,-10.62 7.2,-10.61 9.25,-10.62 11.19,-10.62 12.99,-10.61 14.64,-10.62 16.11,-10.61 17.38,-10.62 18.44,-10.61 19.27,-10.62 19.86,-10.61 20.22,-10.62 20.34,-10.62 17.54,-9.2 18.89,-10.1 19.3,-10.62 18.48,-10.61 17.43,-10.62 16.17,-10.61 14.72,-10.62 13.08,-10.61 11.28,-10.617 9.34,-10.613 7.3,-10.617 5.15,-10.618 2.96,-10.613 0.72,-10.617 -1.53,-10.613 -3.76,-10.618 -5.94,-10.613 -8.04,-10.617 -10.06,-10.613 -11.95,-10.618 -13.69,-10.617 -15.26,-10.613 -16.66,-10.617 -17.83,-10.613 -18.81,-10.618 -19.54,-10.613 -20.04,-10.617 -20.3,-10.617 -20.3,-10.614 -20.06,-10.617 -19.57,-10.613 -18.84,-10.617 -17.89,-10.614 -16.71,-10.617 -15.34,-10.613 -13.77,-10.617 -12.03,-10.617 -10.15,-10.614 -8.15,-10.617 -6.04,-10.613 -3.86,-10.617 -1.64,-10.614 0.61,-10.617 2.85,-10.613 5.05,-10.617 7.2,-10.617 9.25,-10.614 11.19,-10.617 12.99,-10.613 14.64,-10.617 16.11,-10.614 17.38,-10.617 18.43,-10.617 19.27,-10.613 19.87,-10.618 20.22,-10.613 20.33,-10.617 17.54,-9.207 18.9,-10.094 19.29,-10.613 18.48,-10.617 17.44,-10.614 16.17,-10.617 14.71,-10.617 13.08,-10.613 11.42,-10.617 7.38,-7.735"
             style="fill:none;stroke:#038000;stroke-width:4.16667;stroke-linecap:butt;stroke-linejoin:miter;stroke-miterlimit:1;stroke-dasharray:none;stroke-opacity:1"
             id="path3099" /><path
             d="m 1079.74,3025.77 v 0 l 2.01,-4.66 3.41,-6.22 7.32,-10.62 9.16,-10.61 11.09,-10.62 12.91,-10.61 14.56,-10.62 16.02,-10.61 17.3,-10.62 18.36,-10.62 19.21,-10.61 19.8,-10.62 20.18,-10.61 20.29,-10.62 20.16,-10.61 19.09,-10.25 19.18,-10.61 18.34,-10.62 17.26,-10.61 15.99,-10.62 14.52,-10.61 12.86,-10.62 11.04,-10.61 9.11,-10.62 7.05,-10.61 4.9,-10.62 2.7,-10.61 0.47,-10.62 -1.78,-10.62 -3.99,-10.61 -6.17,-10.62 -8.26,-10.61 -10.26,-10.62 -12.12,-10.61 -13.85,-10.62 -15.4,-10.61 -16.76,-10.62 -17.93,-10.62 -18.86,-10.61 -19.58,-10.62 -20.04,-10.61 -20.27,-10.62 -20.25,-10.61 -19.98,-10.62 -19.47,-10.61 -18.72,-10.62 -17.73,-10.62 -16.55,-10.61 -15.14,-10.62 -13.56,-10.61 -11.81,-10.62 -9.92,-10.61 -7.9,-10.62 -5.8,-10.61 -3.61,-10.62 -1.39,-10.62 0.86,-10.61 3.09,-10.62 5.28,-10.61 7.41,-10.62 9.45,-10.61 11.37,-10.62 13.16,-10.61 14.79,-10.62 16.23,-10.62 17.47,-10.61 18.5,-10.62 19.31,-10.61 19.88,-10.62 20.2,-10.61 20.3,-10.62 17.58,-9.26 18.84,-10.12 19.18,-10.61 18.33,-10.62 17.26,-10.61 15.98,-10.62 14.51,-10.61 12.84,-10.62 11.04,-10.61 9.09,-10.62 7.04,-10.61 4.89,-10.62 2.69,-10.62 0.45,-10.61 -1.79,-10.62 -4.02,-10.61 -6.18,-10.62 -8.27,-10.61 -10.27,-10.62 -12.13,-10.61 -13.86,-10.62 -15.41,-10.61 -16.77,-10.62 -17.94,-10.61 -18.86,-10.62 -19.58,-10.62 -20.05,-10.61 -20.27,-10.62 -20.25,-10.61 -19.97,-10.62 -19.47,-10.61 -18.7,-10.62 -17.73,-10.61 -16.54,-10.62 -15.13,-10.61 -13.55,-10.62 -11.79,-10.61 -9.9,-10.62 -7.89,-10.62 -5.78,-10.61 -3.6,-10.62 -1.37,-10.61 0.88,-10.62 3.1,-10.61 5.3,-10.62 7.43,-10.61 9.46,-10.62 11.39,-10.61 13.17,-10.62 14.8,-10.61 16.23,-10.62 17.49,-10.62 18.51,-10.61 19.31,-10.62 19.89,-10.61 20.2,-10.62 20.3,-10.61 17.49,-9.22 18.81,-10.1 19.17,-10.61 18.33,-10.62 17.27,-10.61 15.98,-10.62 14.5,-10.61 12.84,-10.62 11.04,-10.61 9.09,-10.62 7.03,-10.62 4.89,-10.61 2.69,-10.62 0.45,-10.61 -1.79,-10.62 -4.02,-10.61 -6.18,-10.62 -8.27,-10.61 -10.27,-10.62 -12.14,-10.61 -13.86,-10.62 -15.41,-10.61 -16.78,-10.62 -17.93,-10.62 -18.87,-10.61 -19.58,-10.62 -20.04,-10.61 -20.27,-10.62 -20.25,-10.61 -19.97,-10.62 -19.47,-10.61 -18.7,-10.62 -17.73,-10.61 -16.53,-10.62 -15.13,-10.61 -13.55,-10.62 -11.79,-10.62 -9.9,-10.61 -7.89,-10.62 -5.77,-10.61 -3.6,-10.62 -1.36,-10.61 0.87,-10.62 3.11,-10.61 5.3,-10.62 7.43,-10.61 9.47,-10.62 11.39,-10.62 13.17,-10.61 14.8,-10.62 16.24,-10.61 17.48,-10.62 18.51,-10.61 19.32,-10.62 19.88,-10.61 20.21,-10.62 20.29,-10.62 17.48,-9.2 18.81,-10.1 19.17,-10.62 18.34,-10.61 17.26,-10.62 15.98,-10.61 14.5,-10.62 12.85,-10.61 11.03,-10.617 9.09,-10.613 7.03,-10.617 4.89,-10.618 2.69,-10.613 0.45,-10.617 -1.79,-10.613 -4.01,-10.618 -6.19,-10.613 -8.28,-10.617 -10.26,-10.613 -12.15,-10.618 -13.85,-10.617 -15.42,-10.613 -16.77,-10.617 -17.93,-10.613 -18.87,-10.618 -19.57,-10.613 -20.05,-10.617 -20.27,-10.617 -20.25,-10.614 -19.97,-10.617 -19.46,-10.613 -18.71,-10.617 -17.73,-10.614 -16.53,-10.617 -15.13,-10.613 -13.54,-10.617 -11.8,-10.617 -9.9,-10.614 -7.89,-10.617 -5.77,-10.613 -3.59,-10.617 -1.37,-10.614 0.87,-10.617 3.11,-10.613 5.3,-10.617 7.43,-10.617 9.47,-10.614 11.39,-10.617 13.18,-10.613 14.8,-10.617 16.23,-10.614 17.49,-10.617 18.51,-10.617 19.32,-10.613 19.88,-10.618 20.21,-10.613 20.29,-10.617 17.48,-9.207 18.8,-10.094 19.18,-10.613 18.33,-10.617 17.26,-10.614 15.98,-10.617 14.51,-10.617 12.84,-10.613 11.17,-10.617 7.2,-7.735"
             style="fill:none;stroke:#0000b1;stroke-width:4.16667;stroke-linecap:butt;stroke-linejoin:miter;stroke-miterlimit:1;stroke-dasharray:none;stroke-opacity:1"
             id="path3101" /><path
             d="m 1081.29,3025.77 v 0 l 2.23,-4.66 3.69,-6.22 7.79,-10.62 9.6,-10.61 11.51,-10.62 13.27,-10.61 14.87,-10.62 16.29,-10.61 17.52,-10.62 18.53,-10.62 19.3,-10.61 19.86,-10.62 20.15,-10.61 20.21,-10.62 20.03,-10.61 18.91,-10.25 18.95,-10.61 18.04,-10.62 16.93,-10.61 15.6,-10.62 14.09,-10.61 12.41,-10.62 10.56,-10.61 8.6,-10.62 6.52,-10.61 4.38,-10.62 2.16,-10.61 -0.07,-10.62 -2.29,-10.62 -4.51,-10.61 -6.65,-10.62 -8.72,-10.61 -10.67,-10.62 -12.51,-10.61 -14.19,-10.62 -15.69,-10.61 -17.01,-10.62 -18.1,-10.62 -19,-10.61 -19.65,-10.62 -20.05,-10.61 -20.22,-10.62 -20.15,-10.61 -19.81,-10.62 -19.25,-10.61 -18.45,-10.62 -17.42,-10.62 -16.17,-10.61 -14.74,-10.62 -13.11,-10.61 -11.34,-10.62 -9.42,-10.61 -7.39,-10.62 -5.26,-10.61 -3.08,-10.62 -0.85,-10.62 1.38,-10.61 3.6,-10.62 5.78,-10.61 7.88,-10.62 9.89,-10.61 11.77,-10.62 13.52,-10.61 15.1,-10.62 16.49,-10.62 17.68,-10.61 18.65,-10.62 19.4,-10.61 19.92,-10.62 20.18,-10.61 20.22,-10.62 17.46,-9.26 18.66,-10.12 18.93,-10.61 18.04,-10.62 16.93,-10.61 15.59,-10.62 14.08,-10.61 12.4,-10.62 10.55,-10.61 8.58,-10.62 6.51,-10.61 4.36,-10.62 2.15,-10.62 -0.08,-10.61 -2.32,-10.62 -4.51,-10.61 -6.67,-10.62 -8.73,-10.61 -10.69,-10.62 -12.52,-10.61 -14.2,-10.62 -15.7,-10.61 -17.01,-10.62 -18.11,-10.61 -19,-10.62 -19.65,-10.62 -20.06,-10.61 -20.22,-10.62 -20.14,-10.61 -19.81,-10.62 -19.25,-10.61 -18.44,-10.62 -17.4,-10.61 -16.17,-10.62 -14.72,-10.61 -13.11,-10.62 -11.32,-10.61 -9.4,-10.62 -7.37,-10.62 -5.25,-10.61 -3.06,-10.62 -0.84,-10.61 1.41,-10.62 3.61,-10.61 5.8,-10.62 7.89,-10.61 9.91,-10.62 11.78,-10.61 13.53,-10.62 15.11,-10.61 16.5,-10.62 17.69,-10.62 18.66,-10.61 19.41,-10.62 19.92,-10.61 20.18,-10.62 20.22,-10.61 17.37,-9.22 18.63,-10.1 18.93,-10.61 18.04,-10.62 16.92,-10.61 15.59,-10.62 14.09,-10.61 12.39,-10.62 10.55,-10.61 8.58,-10.62 6.51,-10.62 4.35,-10.61 2.15,-10.62 -0.08,-10.61 -2.32,-10.62 -4.51,-10.61 -6.67,-10.62 -8.73,-10.61 -10.7,-10.62 -12.52,-10.61 -14.2,-10.62 -15.7,-10.61 -17.01,-10.62 -18.12,-10.62 -18.99,-10.61 -19.65,-10.62 -20.06,-10.61 -20.22,-10.62 -20.14,-10.61 -19.81,-10.62 -19.24,-10.61 -18.44,-10.62 -17.41,-10.61 -16.16,-10.62 -14.72,-10.61 -13.11,-10.62 -11.32,-10.62 -9.4,-10.61 -7.37,-10.62 -5.24,-10.61 -3.06,-10.62 -0.83,-10.61 1.4,-10.62 3.62,-10.61 5.8,-10.62 7.9,-10.61 9.9,-10.62 11.79,-10.62 13.53,-10.61 15.11,-10.62 16.5,-10.61 17.69,-10.62 18.66,-10.61 19.41,-10.62 19.92,-10.61 20.19,-10.62 20.21,-10.62 17.36,-9.2 18.62,-10.1 18.94,-10.62 18.04,-10.61 16.92,-10.62 15.6,-10.61 14.07,-10.62 12.4,-10.61 10.55,-10.617 8.58,-10.613 6.51,-10.617 4.35,-10.618 2.15,-10.613 -0.08,-10.617 -2.31,-10.613 -4.52,-10.618 -6.67,-10.613 -8.73,-10.617 -10.7,-10.613 -12.52,-10.618 -14.2,-10.617 -15.7,-10.613 -17.01,-10.617 -18.12,-10.613 -18.99,-10.618 -19.65,-10.613 -20.06,-10.617 -20.22,-10.617 -20.14,-10.614 -19.81,-10.617 -19.25,-10.613 -18.43,-10.617 -17.41,-10.614 -16.16,-10.617 -14.72,-10.613 -13.1,-10.617 -11.32,-10.617 -9.41,-10.614 -7.36,-10.617 -5.25,-10.613 -3.05,-10.617 -0.84,-10.614 1.41,-10.617 3.62,-10.613 5.79,-10.617 7.9,-10.617 9.9,-10.614 11.8,-10.617 13.53,-10.613 15.11,-10.617 16.5,-10.614 17.69,-10.617 18.66,-10.617 19.41,-10.613 19.92,-10.618 20.19,-10.613 20.21,-10.617 17.36,-9.207 18.62,-10.094 18.93,-10.613 18.04,-10.617 16.92,-10.614 15.6,-10.617 14.08,-10.617 12.39,-10.613 10.69,-10.617 6.83,-7.735"
             style="fill:none;stroke:#af8000;stroke-width:4.16667;stroke-linecap:butt;stroke-linejoin:miter;stroke-miterlimit:1;stroke-dasharray:none;stroke-opacity:1"
             id="path3103" /><path
             d="m 1084.32,3025.77 v 0 l 2.67,-4.66 4.26,-6.22 8.72,-10.62 10.47,-10.61 12.31,-10.62 13.99,-10.61 15.5,-10.62 16.83,-10.61 17.95,-10.62 18.84,-10.62 19.52,-10.61 19.94,-10.62 20.13,-10.61 20.07,-10.62 19.77,-10.61 18.56,-10.25 18.46,-10.61 17.47,-10.62 16.26,-10.61 14.85,-10.62 13.26,-10.61 11.5,-10.62 9.61,-10.61 7.6,-10.62 5.49,-10.61 3.32,-10.62 1.1,-10.61 -1.12,-10.62 -3.33,-10.62 -5.5,-10.61 -7.61,-10.62 -9.62,-10.61 -11.52,-10.62 -13.26,-10.61 -14.86,-10.62 -16.27,-10.61 -17.48,-10.62 -18.48,-10.62 -19.25,-10.61 -19.79,-10.62 -20.08,-10.61 -20.13,-10.62 -19.93,-10.61 -19.5,-10.62 -18.82,-10.61 -17.91,-10.62 -16.79,-10.62 -15.45,-10.61 -13.93,-10.62 -12.25,-10.61 -10.4,-10.62 -8.44,-10.61 -6.36,-10.62 -4.22,-10.61 -2.02,-10.62 0.21,-10.62 2.43,-10.61 4.61,-10.62 6.76,-10.61 8.8,-10.62 10.76,-10.61 12.56,-10.62 14.22,-10.61 15.72,-10.62 17,-10.62 18.1,-10.61 18.96,-10.62 19.59,-10.61 19.99,-10.62 20.14,-10.61 20.06,-10.62 17.23,-9.26 18.3,-10.12 18.46,-10.61 17.46,-10.62 16.26,-10.61 14.84,-10.62 13.24,-10.61 11.49,-10.62 9.6,-10.61 7.58,-10.62 5.48,-10.61 3.3,-10.62 1.1,-10.62 -1.14,-10.61 -3.35,-10.62 -5.51,-10.61 -7.63,-10.62 -9.63,-10.61 -11.52,-10.62 -13.28,-10.61 -14.87,-10.62 -16.28,-10.61 -17.49,-10.62 -18.48,-10.61 -19.25,-10.62 -19.79,-10.62 -20.08,-10.61 -20.13,-10.62 -19.93,-10.61 -19.5,-10.62 -18.81,-10.61 -17.9,-10.62 -16.78,-10.61 -15.44,-10.62 -13.92,-10.61 -12.23,-10.62 -10.38,-10.61 -8.43,-10.62 -6.35,-10.62 -4.2,-10.61 -2,-10.62 0.22,-10.61 2.45,-10.62 4.63,-10.61 6.77,-10.62 8.82,-10.61 10.76,-10.62 12.58,-10.61 14.24,-10.62 15.72,-10.61 17.02,-10.62 18.1,-10.62 18.97,-10.61 19.6,-10.62 19.99,-10.61 20.14,-10.62 20.05,-10.61 17.15,-9.22 18.27,-10.1 18.45,-10.61 17.47,-10.62 16.25,-10.61 14.84,-10.62 13.24,-10.61 11.49,-10.62 9.59,-10.61 7.59,-10.62 5.47,-10.62 3.31,-10.61 1.09,-10.62 -1.14,-10.61 -3.35,-10.62 -5.52,-10.61 -7.62,-10.62 -9.63,-10.61 -11.53,-10.62 -13.28,-10.61 -14.87,-10.62 -16.28,-10.61 -17.49,-10.62 -18.48,-10.62 -19.25,-10.61 -19.79,-10.62 -20.08,-10.61 -20.13,-10.62 -19.94,-10.61 -19.49,-10.62 -18.81,-10.61 -17.9,-10.62 -16.77,-10.61 -15.44,-10.62 -13.92,-10.61 -12.23,-10.62 -10.39,-10.62 -8.41,-10.61 -6.35,-10.62 -4.2,-10.61 -2,-10.62 0.23,-10.61 2.44,-10.62 4.64,-10.61 6.77,-10.62 8.83,-10.61 10.76,-10.62 12.58,-10.62 14.24,-10.61 15.73,-10.62 17.01,-10.61 18.1,-10.62 18.97,-10.61 19.6,-10.62 19.99,-10.61 20.14,-10.62 20.06,-10.62 17.13,-9.2 18.27,-10.1 18.45,-10.62 17.47,-10.61 16.25,-10.62 14.84,-10.61 13.24,-10.62 11.49,-10.61 9.6,-10.617 7.58,-10.613 5.48,-10.617 3.3,-10.618 1.09,-10.613 -1.14,-10.617 -3.35,-10.613 -5.52,-10.618 -7.62,-10.613 -9.64,-10.617 -11.52,-10.613 -13.28,-10.618 -14.87,-10.617 -16.28,-10.613 -17.49,-10.617 -18.48,-10.613 -19.26,-10.618 -19.78,-10.613 -20.09,-10.617 -20.13,-10.617 -19.93,-10.614 -19.49,-10.617 -18.81,-10.613 -17.9,-10.617 -16.77,-10.614 -15.44,-10.617 -13.92,-10.613 -12.23,-10.617 -10.38,-10.617 -8.42,-10.614 -6.35,-10.617 -4.19,-10.613 -2,-10.617 0.22,-10.614 2.45,-10.617 4.63,-10.613 6.78,-10.617 8.82,-10.617 10.77,-10.614 12.58,-10.617 14.24,-10.613 15.72,-10.617 17.02,-10.614 18.1,-10.617 18.97,-10.617 19.6,-10.613 19.99,-10.618 20.14,-10.613 20.06,-10.617 17.13,-9.207 18.26,-10.094 18.46,-10.613 17.47,-10.617 16.25,-10.614 14.84,-10.617 13.24,-10.617 11.49,-10.613 9.73,-10.617 6.12,-7.735"
             style="fill:none;stroke:#7f0081;stroke-width:4.16667;stroke-linecap:butt;stroke-linejoin:miter;stroke-miterlimit:1;stroke-dasharray:none;stroke-opacity:1"
             id="path3105" /><path
             d="m 1090.16,3025.77 v 0 l 3.52,-4.66 5.37,-6.22 10.54,-10.62 12.18,-10.61 13.87,-10.62 15.41,-10.61 16.74,-10.62 17.87,-10.61 18.79,-10.62 19.48,-10.62 19.93,-10.61 20.12,-10.62 20.09,-10.61 19.8,-10.62 19.28,-10.61 17.87,-10.25 17.55,-10.61 16.35,-10.62 14.96,-10.61 13.39,-10.62 11.63,-10.61 9.75,-10.62 7.75,-10.61 5.65,-10.62 3.48,-10.61 1.27,-10.62 -0.96,-10.61 -3.17,-10.62 -5.35,-10.62 -7.46,-10.61 -9.48,-10.62 -11.38,-10.61 -13.15,-10.62 -14.75,-10.61 -16.18,-10.62 -17.4,-10.61 -18.41,-10.62 -19.21,-10.62 -19.76,-10.61 -20.07,-10.62 -20.14,-10.61 -19.97,-10.62 -19.53,-10.61 -18.88,-10.62 -17.99,-10.61 -16.88,-10.62 -15.55,-10.62 -14.06,-10.61 -12.37,-10.62 -10.54,-10.61 -8.59,-10.62 -6.52,-10.61 -4.37,-10.62 -2.19,-10.61 0.05,-10.62 2.26,-10.62 4.47,-10.61 6.6,-10.62 8.66,-10.61 10.61,-10.62 12.45,-10.61 14.11,-10.62 15.61,-10.61 16.92,-10.62 18.03,-10.62 18.9,-10.61 19.56,-10.62 19.98,-10.61 20.14,-10.62 20.05,-10.61 19.77,-10.62 16.78,-9.26 17.62,-10.12 17.54,-10.61 16.35,-10.62 14.95,-10.61 13.37,-10.62 11.62,-10.61 9.75,-10.62 7.73,-10.61 5.63,-10.62 3.47,-10.61 1.25,-10.62 -0.97,-10.62 -3.19,-10.61 -5.36,-10.62 -7.47,-10.61 -9.5,-10.62 -11.39,-10.61 -13.16,-10.62 -14.76,-10.61 -16.19,-10.62 -17.4,-10.61 -18.42,-10.62 -19.21,-10.61 -19.76,-10.62 -20.08,-10.62 -20.13,-10.61 -19.96,-10.62 -19.54,-10.61 -18.87,-10.62 -17.98,-10.61 -16.87,-10.62 -15.55,-10.61 -14.03,-10.62 -12.36,-10.61 -10.53,-10.62 -8.57,-10.61 -6.51,-10.62 -4.36,-10.62 -2.16,-10.61 0.06,-10.62 2.28,-10.61 4.48,-10.62 6.62,-10.61 8.67,-10.62 10.64,-10.61 12.45,-10.62 14.13,-10.61 15.62,-10.62 16.93,-10.61 18.03,-10.62 18.92,-10.62 19.56,-10.61 19.97,-10.62 20.14,-10.61 20.06,-10.62 19.76,-10.61 16.7,-9.22 17.59,-10.1 17.53,-10.61 16.35,-10.62 14.95,-10.61 13.37,-10.62 11.63,-10.61 9.73,-10.62 7.74,-10.61 5.63,-10.62 3.46,-10.62 1.26,-10.61 -0.98,-10.62 -3.19,-10.61 -5.36,-10.62 -7.48,-10.61 -9.49,-10.62 -11.4,-10.61 -13.16,-10.62 -14.76,-10.61 -16.18,-10.62 -17.41,-10.61 -18.43,-10.62 -19.2,-10.62 -19.77,-10.61 -20.07,-10.62 -20.14,-10.61 -19.95,-10.62 -19.54,-10.61 -18.87,-10.62 -17.98,-10.61 -16.86,-10.62 -15.55,-10.61 -14.04,-10.62 -12.35,-10.61 -10.53,-10.62 -8.57,-10.62 -6.5,-10.61 -4.36,-10.62 -2.16,-10.61 0.06,-10.62 2.29,-10.61 4.48,-10.62 6.62,-10.61 8.68,-10.62 10.63,-10.61 12.46,-10.62 14.13,-10.62 15.62,-10.61 16.93,-10.62 18.04,-10.61 18.91,-10.62 19.57,-10.61 19.97,-10.62 20.14,-10.61 20.06,-10.62 19.76,-10.62 16.68,-9.2 17.59,-10.1 17.53,-10.62 16.35,-10.61 14.95,-10.62 13.37,-10.61 11.63,-10.62 9.74,-10.61 7.73,-10.617 5.63,-10.613 3.46,-10.617 1.25,-10.618 -0.97,-10.613 -3.19,-10.617 -5.36,-10.613 -7.48,-10.618 -9.49,-10.613 -11.4,-10.617 -13.16,-10.613 -14.76,-10.618 -16.19,-10.617 -17.41,-10.613 -18.42,-10.617 -19.21,-10.613 -19.76,-10.618 -20.07,-10.613 -20.14,-10.617 -19.96,-10.617 -19.53,-10.614 -18.87,-10.617 -17.98,-10.613 -16.87,-10.617 -15.54,-10.614 -14.04,-10.617 -12.35,-10.613 -10.53,-10.617 -8.57,-10.617 -6.5,-10.614 -4.36,-10.617 -2.16,-10.613 0.07,-10.617 2.29,-10.614 4.48,-10.617 6.61,-10.613 8.68,-10.617 10.64,-10.617 12.45,-10.614 14.13,-10.617 15.63,-10.613 16.93,-10.617 18.04,-10.614 18.91,-10.617 19.56,-10.617 19.98,-10.613 20.14,-10.618 20.06,-10.613 19.76,-10.617 16.68,-9.207 17.58,-10.094 17.54,-10.613 16.35,-10.617 14.95,-10.614 13.37,-10.617 11.62,-10.617 9.74,-10.613 7.88,-10.617 4.71,-7.735"
             style="fill:none;stroke:#800000;stroke-width:4.16667;stroke-linecap:butt;stroke-linejoin:miter;stroke-miterlimit:1;stroke-dasharray:none;stroke-opacity:1"
             id="path3107" /><path
             d="m 1101.01,3025.77 v 0 l 5.15,-4.66 7.48,-6.22 14.01,-10.62 15.45,-10.61 16.88,-10.62 18.12,-10.61 19.11,-10.62 19.9,-10.61 20.43,-10.62 20.7,-10.62 20.74,-10.61 20.51,-10.62 20.03,-10.61 19.32,-10.62 18.37,-10.61 16.59,-10.25 15.83,-10.61 14.27,-10.62 12.51,-10.61 10.61,-10.62 8.57,-10.61 6.44,-10.62 4.22,-10.61 1.95,-10.62 -0.34,-10.61 -2.63,-10.62 -4.89,-10.61 -7.08,-10.62 -9.19,-10.62 -11.19,-10.61 -13.06,-10.62 -14.75,-10.61 -16.27,-10.62 -17.6,-10.61 -18.7,-10.62 -19.59,-10.61 -20.22,-10.62 -20.62,-10.62 -20.76,-10.61 -20.64,-10.62 -20.28,-10.61 -19.68,-10.62 -18.81,-10.61 -17.73,-10.62 -16.44,-10.61 -14.93,-10.62 -13.25,-10.62 -11.41,-10.61 -9.43,-10.62 -7.32,-10.61 -5.14,-10.62 -2.89,-10.61 -0.6,-10.62 1.69,-10.61 3.97,-10.62 6.19,-10.62 8.34,-10.61 10.38,-10.62 12.31,-10.61 14.07,-10.62 15.67,-10.61 17.08,-10.62 18.28,-10.61 19.25,-10.62 19.99,-10.62 20.48,-10.61 20.73,-10.62 20.72,-10.61 20.46,-10.62 19.94,-10.61 19.23,-10.62 15.96,-9.26 16.34,-10.12 15.82,-10.61 14.25,-10.62 12.5,-10.61 10.6,-10.62 8.56,-10.61 6.42,-10.62 4.21,-10.61 1.93,-10.62 -0.36,-10.61 -2.64,-10.62 -4.9,-10.62 -7.1,-10.61 -9.2,-10.62 -11.21,-10.61 -13.06,-10.62 -14.77,-10.61 -16.28,-10.62 -17.6,-10.61 -18.71,-10.62 -19.59,-10.61 -20.23,-10.62 -20.62,-10.61 -20.75,-10.62 -20.65,-10.62 -20.27,-10.61 -19.67,-10.62 -18.81,-10.61 -17.72,-10.62 -16.42,-10.61 -14.93,-10.62 -13.23,-10.61 -11.4,-10.62 -9.4,-10.61 -7.32,-10.62 -5.12,-10.61 -2.87,-10.62 -0.58,-10.62 1.71,-10.61 3.98,-10.62 6.21,-10.61 8.35,-10.62 10.4,-10.61 12.32,-10.62 14.09,-10.61 15.68,-10.62 17.09,-10.61 18.29,-10.62 19.25,-10.61 20,-10.62 20.48,-10.62 20.73,-10.61 20.72,-10.62 20.46,-10.61 19.94,-10.62 19.22,-10.61 15.88,-9.22 16.31,-10.1 15.81,-10.61 14.25,-10.62 12.5,-10.61 10.6,-10.62 8.56,-10.61 6.42,-10.62 4.2,-10.61 1.94,-10.62 -0.36,-10.62 -2.65,-10.61 -4.9,-10.62 -7.1,-10.61 -9.21,-10.62 -11.21,-10.61 -13.06,-10.62 -14.76,-10.61 -16.29,-10.62 -17.61,-10.61 -18.71,-10.62 -19.59,-10.61 -20.22,-10.62 -20.62,-10.62 -20.76,-10.61 -20.64,-10.62 -20.28,-10.61 -19.66,-10.62 -18.8,-10.61 -17.73,-10.62 -16.42,-10.61 -14.92,-10.62 -13.23,-10.61 -11.4,-10.62 -9.4,-10.61 -7.31,-10.62 -5.12,-10.62 -2.86,-10.61 -0.59,-10.62 1.72,-10.61 3.98,-10.62 6.21,-10.61 8.35,-10.62 10.41,-10.61 12.32,-10.62 14.09,-10.61 15.68,-10.62 17.09,-10.62 18.29,-10.61 19.26,-10.62 19.99,-10.61 20.49,-10.62 20.73,-10.61 20.72,-10.62 20.45,-10.61 19.95,-10.62 19.22,-10.62 15.86,-9.2 16.31,-10.1 15.81,-10.62 14.25,-10.61 12.5,-10.62 10.6,-10.61 8.56,-10.62 6.42,-10.61 4.2,-10.617 1.93,-10.613 -0.36,-10.617 -2.64,-10.618 -4.91,-10.613 -7.09,-10.617 -9.21,-10.613 -11.21,-10.618 -13.06,-10.613 -14.77,-10.617 -16.28,-10.613 -17.61,-10.618 -18.71,-10.617 -19.59,-10.613 -20.22,-10.617 -20.62,-10.613 -20.76,-10.618 -20.64,-10.613 -20.28,-10.617 -19.66,-10.617 -18.8,-10.614 -17.72,-10.617 -16.43,-10.613 -14.92,-10.617 -13.23,-10.614 -11.39,-10.617 -9.41,-10.613 -7.31,-10.617 -5.12,-10.617 -2.86,-10.614 -0.58,-10.617 1.71,-10.613 3.98,-10.617 6.22,-10.614 8.35,-10.617 10.4,-10.613 12.32,-10.617 14.09,-10.617 15.69,-10.614 17.09,-10.617 18.29,-10.613 19.25,-10.617 20,-10.614 20.49,-10.617 20.73,-10.617 20.72,-10.613 20.45,-10.618 19.95,-10.613 19.21,-10.617 15.87,-9.207 16.3,-10.094 15.82,-10.613 14.25,-10.617 12.5,-10.614 10.59,-10.617 8.56,-10.617 6.42,-10.613 4.36,-10.617 2.06,-7.735"
             style="fill:none;stroke:#afaf00;stroke-width:4.16667;stroke-linecap:butt;stroke-linejoin:miter;stroke-miterlimit:1;stroke-dasharray:none;stroke-opacity:1"
             id="path3109" /><path
             d="m 1119.83,3025.77 v 0 l 8.13,-4.66 11.35,-6.22 20.37,-10.62 21.44,-10.61 22.41,-10.62 23.11,-10.61 23.53,-10.62 23.65,-10.61 23.49,-10.62 23.04,-10.62 22.31,-10.61 21.31,-10.62 20.04,-10.61 18.54,-10.62 16.82,-10.61 14.37,-10.25 12.8,-10.61 10.55,-10.62 8.14,-10.61 5.65,-10.62 3.07,-10.61 0.47,-10.62 -2.15,-10.61 -4.73,-10.62 -7.26,-10.61 -9.7,-10.62 -12.03,-10.61 -14.19,-10.62 -16.2,-10.62 -18.01,-10.61 -19.58,-10.62 -20.93,-10.61 -22.02,-10.62 -22.84,-10.61 -23.38,-10.62 -23.64,-10.61 -23.6,-10.62 -23.28,-10.62 -22.67,-10.61 -21.79,-10.62 -20.64,-10.61 -19.24,-10.62 -17.6,-10.61 -15.75,-10.62 -13.71,-10.61 -11.5,-10.62 -9.14,-10.62 -6.68,-10.61 -4.13,-10.62 -1.54,-10.61 1.07,-10.62 3.68,-10.61 6.23,-10.62 8.71,-10.61 11.09,-10.62 13.32,-10.62 15.41,-10.61 17.29,-10.62 18.96,-10.61 20.41,-10.62 21.6,-10.61 22.53,-10.62 23.19,-10.61 23.57,-10.62 23.65,-10.62 23.44,-10.61 22.95,-10.62 22.18,-10.61 21.14,-10.62 19.84,-10.61 18.36,-10.62 14.55,-9.26 14.12,-10.12 12.77,-10.61 10.54,-10.62 8.12,-10.61 5.63,-10.62 3.05,-10.61 0.45,-10.62 -2.16,-10.61 -4.75,-10.62 -7.28,-10.61 -9.71,-10.62 -12.04,-10.62 -14.22,-10.61 -16.21,-10.62 -18.01,-10.61 -19.6,-10.62 -20.93,-10.61 -22.03,-10.62 -22.85,-10.61 -23.38,-10.62 -23.63,-10.61 -23.6,-10.62 -23.28,-10.61 -22.66,-10.62 -21.79,-10.62 -20.62,-10.61 -19.23,-10.62 -17.59,-10.61 -15.73,-10.62 -13.7,-10.61 -11.48,-10.62 -9.12,-10.61 -6.66,-10.62 -4.12,-10.61 -1.52,-10.62 1.1,-10.61 3.69,-10.62 6.25,-10.62 8.73,-10.61 11.11,-10.62 13.34,-10.61 15.41,-10.62 17.31,-10.61 18.97,-10.62 20.42,-10.61 21.61,-10.62 22.54,-10.61 23.2,-10.62 23.56,-10.61 23.65,-10.62 23.44,-10.62 22.95,-10.61 22.17,-10.62 21.14,-10.61 19.83,-10.62 18.34,-10.61 14.48,-9.22 14.08,-10.1 12.78,-10.61 10.53,-10.62 8.12,-10.61 5.63,-10.62 3.05,-10.61 0.45,-10.62 -2.17,-10.61 -4.75,-10.62 -7.28,-10.62 -9.72,-10.61 -12.04,-10.62 -14.22,-10.61 -16.21,-10.62 -18.01,-10.61 -19.6,-10.62 -20.94,-10.61 -22.02,-10.62 -22.85,-10.61 -23.38,-10.62 -23.64,-10.61 -23.6,-10.62 -23.27,-10.62 -22.67,-10.61 -21.77,-10.62 -20.63,-10.61 -19.23,-10.62 -17.59,-10.61 -15.73,-10.62 -13.69,-10.61 -11.47,-10.62 -9.13,-10.61 -6.66,-10.62 -4.11,-10.61 -1.51,-10.62 1.09,-10.62 3.7,-10.61 6.26,-10.62 8.73,-10.61 11.11,-10.62 13.34,-10.61 15.42,-10.62 17.3,-10.61 18.98,-10.62 20.42,-10.61 21.61,-10.62 22.54,-10.62 23.2,-10.61 23.56,-10.62 23.65,-10.61 23.44,-10.62 22.95,-10.61 22.18,-10.62 21.13,-10.61 19.82,-10.62 18.35,-10.62 14.46,-9.2 14.08,-10.1 12.78,-10.62 10.52,-10.61 8.13,-10.62 5.62,-10.61 3.06,-10.62 0.44,-10.61 -2.16,-10.617 -4.75,-10.613 -7.28,-10.617 -9.72,-10.618 -12.04,-10.613 -14.22,-10.617 -16.21,-10.613 -18.01,-10.618 -19.6,-10.613 -20.94,-10.617 -22.03,-10.613 -22.84,-10.618 -23.38,-10.617 -23.64,-10.613 -23.6,-10.617 -23.27,-10.613 -22.66,-10.618 -21.79,-10.613 -20.62,-10.617 -19.23,-10.617 -17.59,-10.614 -15.73,-10.617 -13.69,-10.613 -11.47,-10.617 -9.13,-10.614 -6.65,-10.617 -4.12,-10.613 -1.51,-10.617 1.1,-10.617 3.69,-10.614 6.26,-10.617 8.73,-10.613 11.11,-10.617 13.35,-10.614 15.41,-10.617 17.31,-10.613 18.98,-10.617 20.41,-10.617 21.62,-10.614 22.54,-10.617 23.2,-10.613 23.56,-10.617 23.65,-10.614 23.44,-10.617 22.95,-10.617 22.17,-10.613 21.14,-10.618 19.82,-10.613 18.35,-10.617 14.46,-9.207 14.08,-10.094 12.77,-10.613 10.53,-10.617 8.13,-10.614 5.62,-10.617 3.06,-10.617 0.44,-10.613 -1.99,-10.617 -2.74,-7.735"
             style="fill:none;stroke:#0eff00;stroke-width:4.16667;stroke-linecap:butt;stroke-linejoin:miter;stroke-miterlimit:1;stroke-dasharray:none;stroke-opacity:1"
             id="path3111" /><path
             d="m 1148.74,3025.77 v 0 l 13.15,-4.66 17.89,-6.22 31.15,-10.62 31.63,-10.61 31.86,-10.62 31.69,-10.61 31.13,-10.62 30.19,-10.61 28.89,-10.62 27.23,-10.62 25.24,-10.61 22.94,-10.62 20.36,-10.61 17.52,-10.62 14.52,-10.61 10.93,-10.25 8,-10.61 4.57,-10.62 1.07,-10.61 -2.45,-10.62 -5.94,-10.61 -9.36,-10.62 -12.66,-10.61 -15.81,-10.62 -18.77,-10.61 -21.5,-10.62 -23.95,-10.61 -26.13,-10.62 -27.99,-10.62 -29.49,-10.61 -30.64,-10.62 -31.42,-10.61 -31.81,-10.62 -31.82,-10.61 -31.42,-10.62 -30.66,-10.61 -29.52,-10.62 -28.01,-10.62 -26.17,-10.61 -23.99,-10.62 -21.55,-10.61 -18.81,-10.62 -15.87,-10.61 -12.714,-10.62 -9.418,-10.61 -6.004,-10.62 -2.511,-10.62 1.011,-10.61 4.516,-10.62 7.969,-10.61 11.328,-10.62 14.543,-10.61 17.58,-10.62 20.41,-10.61 22.98,-10.62 25.28,-10.62 27.26,-10.61 28.92,-10.62 30.21,-10.61 31.14,-10.62 31.7,-10.61 31.86,-10.62 31.63,-10.61 31.02,-10.62 30.02,-10.62 28.67,-10.61 26.96,-10.62 24.92,-10.61 22.58,-10.62 19.96,-10.61 17.19,-10.62 12.46,-9.26 10.65,-10.12 7.97,-10.61 4.55,-10.62 1.04,-10.61 -2.47,-10.62 -5.96,-10.61 -9.39,-10.62 -12.68,-10.61 -15.84,-10.62 -18.78,-10.61 -21.52,-10.62 -23.97,-10.62 -26.14,-10.61 -28,-10.62 -29.5,-10.61 -30.65,-10.62 -31.42,-10.61 -31.81,-10.62 -31.81,-10.61 -31.43,-10.62 -30.65,-10.61 -29.51,-10.62 -28,-10.61 -26.15,-10.62 -23.98,-10.62 -21.52,-10.61 -18.8,-10.62 -15.84,-10.61 -12.691,-10.62 -9.395,-10.61 -5.976,-10.62 -2.485,-10.61 1.036,-10.62 4.543,-10.61 7.992,-10.62 11.351,-10.61 14.565,-10.62 17.6,-10.62 20.43,-10.61 23,-10.62 25.3,-10.61 27.27,-10.62 28.93,-10.61 30.22,-10.62 31.15,-10.61 31.7,-10.62 31.86,-10.61 31.62,-10.62 31.02,-10.61 30.02,-10.62 28.66,-10.62 26.94,-10.61 24.9,-10.62 22.57,-10.61 19.93,-10.62 17.18,-10.61 12.38,-9.22 10.63,-10.1 7.96,-10.61 4.55,-10.62 1.04,-10.61 -2.48,-10.62 -5.96,-10.61 -9.39,-10.62 -12.69,-10.61 -15.83,-10.62 -18.79,-10.62 -21.52,-10.61 -23.98,-10.62 -26.14,-10.61 -28,-10.62 -29.5,-10.61 -30.65,-10.62 -31.42,-10.61 -31.81,-10.62 -31.82,-10.61 -31.42,-10.62 -30.65,-10.61 -29.5,-10.62 -28,-10.62 -26.15,-10.61 -23.98,-10.62 -21.52,-10.61 -18.79,-10.62 -15.84,-10.61 -12.692,-10.62 -9.387,-10.61 -5.973,-10.62 -2.484,-10.61 1.039,-10.62 4.547,-10.61 8,-10.62 11.351,-10.62 14.569,-10.61 17.61,-10.62 20.43,-10.61 23,-10.62 25.3,-10.61 27.28,-10.62 28.92,-10.61 30.23,-10.62 31.15,-10.61 31.7,-10.62 31.85,-10.62 31.63,-10.61 31.02,-10.62 30.01,-10.61 28.66,-10.62 26.94,-10.61 24.9,-10.62 22.56,-10.61 19.94,-10.62 17.18,-10.62 12.36,-9.2 10.63,-10.1 7.96,-10.62 4.55,-10.61 1.04,-10.62 -2.48,-10.61 -5.97,-10.62 -9.38,-10.61 -12.69,-10.617 -15.84,-10.613 -18.79,-10.617 -21.51,-10.618 -23.98,-10.613 -26.15,-10.617 -27.99,-10.613 -29.5,-10.618 -30.65,-10.613 -31.43,-10.617 -31.81,-10.613 -31.81,-10.618 -31.42,-10.617 -30.65,-10.613 -29.51,-10.617 -27.99,-10.613 -26.15,-10.618 -23.98,-10.613 -21.52,-10.617 -18.79,-10.617 -15.84,-10.614 -12.69,-10.617 -9.387,-10.613 -5.973,-10.617 -2.48,-10.614 1.039,-10.617 4.547,-10.613 7.996,-10.617 11.356,-10.617 14.572,-10.614 17.6,-10.617 20.43,-10.613 23.01,-10.617 25.29,-10.614 27.28,-10.617 28.93,-10.613 30.22,-10.617 31.16,-10.617 31.7,-10.614 31.85,-10.617 31.63,-10.613 31.02,-10.617 30.01,-10.614 28.66,-10.617 26.94,-10.617 24.9,-10.613 22.56,-10.618 19.94,-10.613 17.18,-10.617 12.36,-9.207 10.62,-10.094 7.97,-10.613 4.54,-10.617 1.05,-10.614 -2.48,-10.617 -5.97,-10.617 -9.39,-10.613 -12.47,-10.617 -10.7,-7.735"
             style="fill:none;stroke:#0000ff;stroke-width:4.16667;stroke-linecap:butt;stroke-linejoin:miter;stroke-miterlimit:1;stroke-dasharray:none;stroke-opacity:1"
             id="path3113" /><path
             d="m 1185.14,3025.77 v 0 l 20.59,-4.66 27.59,-6.22 47.2,-10.62 46.89,-10.61 46.08,-10.62 44.7,-10.61 42.77,-10.62 40.33,-10.61 37.39,-10.62 33.98,-10.62 30.17,-10.61 25.99,-10.62 21.49,-10.61 16.73,-10.62 11.8,-10.61 6.51,-10.25 1.6,-10.61 -3.57,-10.62 -8.73,-10.61 -13.79,-10.62 -18.69,-10.61 -23.35,-10.62 -27.72,-10.61 -31.76,-10.62 -35.41,-10.61 -38.64,-10.62 -41.38,-10.61 -43.61,-10.62 -45.33,-10.62 -46.48,-10.61 -47.07,-10.62 -47.08,-10.61 -46.52,-10.62 -45.38,-10.61 -43.69,-10.62 -41.48,-10.61 -38.754,-10.62 -35.551,-10.62 -31.914,-10.61 -27.891,-10.62 -23.527,-10.61 -18.875,-10.62 -13.988,-10.61 -8.938,-10.62 -3.773,-10.61 1.437,-10.62 6.625,-10.62 11.738,-10.61 16.707,-10.62 21.469,-10.61 25.969,-10.62 30.152,-10.61 33.969,-10.62 37.375,-10.61 40.31,-10.62 42.76,-10.62 44.7,-10.61 46.07,-10.62 46.89,-10.61 47.15,-10.62 46.81,-10.61 45.92,-10.62 44.45,-10.61 42.44,-10.62 39.93,-10.62 36.91,-10.61 33.45,-10.62 29.59,-10.61 25.34,-10.62 20.81,-10.61 16.17,-10.62 9.96,-9.26 6.2,-10.12 1.55,-10.61 -3.61,-10.62 -8.76,-10.61 -13.83,-10.62 -18.72,-10.61 -23.38,-10.62 -27.75,-10.61 -31.79,-10.62 -35.44,-10.61 -38.66,-10.62 -41.39,-10.62 -43.63,-10.61 -45.34,-10.62 -46.49,-10.61 -47.07,-10.62 -47.08,-10.61 -46.51,-10.62 -45.37,-10.61 -43.68,-10.62 -41.46,-10.61 -38.727,-10.62 -35.528,-10.61 -31.886,-10.62 -27.86,-10.62 -23.496,-10.61 -18.836,-10.62 -13.957,-10.61 -8.898,-10.62 -3.735,-10.61 1.473,-10.62 6.664,-10.61 11.774,-10.62 16.742,-10.61 21.504,-10.62 26,-10.61 30.183,-10.62 33.992,-10.62 37.391,-10.61 40.34,-10.62 42.77,-10.61 44.71,-10.62 46.08,-10.61 46.9,-10.62 47.15,-10.61 46.81,-10.62 45.9,-10.61 44.44,-10.62 42.43,-10.61 39.91,-10.62 36.89,-10.62 33.42,-10.61 29.55,-10.62 25.32,-10.61 20.77,-10.62 16.15,-10.61 9.88,-9.22 6.18,-10.1 1.54,-10.61 -3.61,-10.62 -8.78,-10.61 -13.83,-10.62 -18.72,-10.61 -23.38,-10.62 -27.76,-10.61 -31.79,-10.62 -35.45,-10.62 -38.65,-10.61 -41.4,-10.62 -43.63,-10.61 -45.34,-10.62 -46.49,-10.61 -47.07,-10.62 -47.08,-10.61 -46.5,-10.62 -45.37,-10.61 -43.69,-10.62 -41.46,-10.61 -38.718,-10.62 -35.524,-10.62 -31.882,-10.61 -27.856,-10.62 -23.488,-10.61 -18.836,-10.62 -13.949,-10.61 -8.895,-10.62 -3.73,-10.61 1.48,-10.62 6.668,-10.61 11.781,-10.62 16.747,-10.61 21.507,-10.62 26.004,-10.62 30.188,-10.61 33.996,-10.62 37.397,-10.61 40.33,-10.62 42.79,-10.61 44.71,-10.62 46.08,-10.61 46.9,-10.62 47.14,-10.61 46.81,-10.62 45.91,-10.62 44.43,-10.61 42.43,-10.62 39.9,-10.61 36.89,-10.62 33.42,-10.61 29.55,-10.62 25.31,-10.61 20.77,-10.62 16.14,-10.62 9.87,-9.2 6.18,-10.1 1.54,-10.62 -3.61,-10.61 -8.77,-10.62 -13.84,-10.61 -18.72,-10.62 -23.39,-10.61 -27.75,-10.617 -31.8,-10.613 -35.44,-10.617 -38.65,-10.618 -41.4,-10.613 -43.64,-10.617 -45.33,-10.613 -46.49,-10.618 -47.07,-10.613 -47.08,-10.617 -46.51,-10.613 -45.37,-10.618 -43.68,-10.617 -41.46,-10.613 -38.72,-10.617 -35.523,-10.613 -31.883,-10.618 -27.856,-10.613 -23.488,-10.617 -18.832,-10.617 -13.949,-10.614 -8.895,-10.617 -3.73,-10.613 1.48,-10.617 6.672,-10.614 11.782,-10.617 16.746,-10.613 21.507,-10.617 26.004,-10.617 30.188,-10.614 34,-10.617 37.397,-10.613 40.33,-10.617 42.79,-10.614 44.71,-10.617 46.08,-10.613 46.9,-10.617 47.14,-10.617 46.81,-10.614 45.91,-10.617 44.43,-10.613 42.43,-10.617 39.9,-10.614 36.89,-10.617 33.42,-10.617 29.55,-10.613 25.31,-10.618 20.77,-10.613 16.14,-10.617 9.87,-9.207 6.18,-10.094 1.54,-10.613 -3.61,-10.617 -8.78,-10.614 -13.83,-10.617 -18.73,-10.617 -23.38,-10.613 -27.49,-10.617 -22.11,-7.735"
             style="fill:none;stroke:#ff0000;stroke-width:4.16667;stroke-linecap:butt;stroke-linejoin:miter;stroke-miterlimit:1;stroke-dasharray:none;stroke-opacity:1"
             id="path3115" /><path
             d="m 1219.66,3025.77 v 0 l 29.68,-4.66 39.52,-6.22 66.98,-10.62 65.84,-10.61 63.86,-10.62 61.12,-10.61 57.62,-10.62 53.42,-10.61 48.57,-10.62 43.12,-10.62 37.15,-10.61 30.72,-10.62 23.92,-10.61 16.82,-10.62 9.59,-10.61 2.16,-10.25 -5.13,-10.61 -12.45,-10.62 -19.69,-10.61 -26.66,-10.62 -33.33,-10.61 -39.59,-10.62 -45.36,-10.61 -50.57,-10.62 -55.18,-10.61 -59.09,-10.62 -62.31,-10.61 -64.75,-10.62 -66.39,-10.62 -67.24,-10.61 -67.26,-10.62 -66.45,-10.61 -64.84,-10.62 -62.43,-10.61 -59.268,-10.62 -55.367,-10.61 -50.801,-10.62 -45.614,-10.62 -39.863,-10.61 -33.629,-10.62 -26.98,-10.61 -20.008,-10.62 -12.789,-10.61 -5.414,-10.62 2.027,-10.61 9.446,-10.62 16.746,-10.62 23.843,-10.61 30.649,-10.62 37.082,-10.61 43.058,-10.62 48.512,-10.61 53.367,-10.62 57.578,-10.61 61.085,-10.62 63.84,-10.62 65.82,-10.61 66.99,-10.62 67.35,-10.61 66.88,-10.62 65.59,-10.61 63.52,-10.62 60.64,-10.61 57.05,-10.62 52.75,-10.62 47.81,-10.61 42.27,-10.62 36.23,-10.61 29.75,-10.62 22.89,-10.61 16.01,-10.62 7.85,-9.26 1.82,-10.12 -5.21,-10.61 -12.5,-10.62 -19.74,-10.61 -26.71,-10.62 -33.38,-10.61 -39.63,-10.62 -45.4,-10.61 -50.61,-10.62 -55.2,-10.61 -59.13,-10.62 -62.32,-10.62 -64.76,-10.61 -66.41,-10.62 -67.24,-10.61 -67.25,-10.62 -66.45,-10.61 -64.82,-10.62 -62.42,-10.61 -59.234,-10.62 -55.34,-10.61 -50.766,-10.62 -45.57,-10.61 -39.82,-10.62 -33.582,-10.62 -26.934,-10.61 -19.957,-10.62 -12.734,-10.61 -5.363,-10.62 2.082,-10.61 9.5,-10.62 16.796,-10.61 23.895,-10.62 30.699,-10.61 37.125,-10.62 43.098,-10.61 48.551,-10.62 53.402,-10.62 57.605,-10.61 61.107,-10.62 63.85,-10.61 65.84,-10.62 66.99,-10.61 67.35,-10.62 66.88,-10.61 65.58,-10.62 63.49,-10.61 60.63,-10.62 57.02,-10.61 52.71,-10.62 47.77,-10.62 42.23,-10.61 36.19,-10.62 29.7,-10.61 22.84,-10.62 15.96,-10.61 7.79,-9.22 1.79,-10.1 -5.22,-10.61 -12.51,-10.62 -19.74,-10.61 -26.72,-10.62 -33.39,-10.61 -39.63,-10.62 -45.4,-10.61 -50.62,-10.62 -55.21,-10.62 -59.13,-10.61 -62.32,-10.62 -64.76,-10.61 -66.41,-10.62 -67.24,-10.61 -67.26,-10.62 -66.44,-10.61 -64.83,-10.62 -62.41,-10.61 -59.23,-10.62 -55.332,-10.61 -50.762,-10.62 -45.567,-10.62 -39.812,-10.61 -33.578,-10.62 -26.926,-10.61 -19.949,-10.62 -12.731,-10.61 -5.351,-10.62 2.09,-10.61 9.503,-10.62 16.809,-10.61 23.899,-10.62 30.703,-10.61 37.132,-10.62 43.106,-10.62 48.555,-10.61 53.406,-10.62 57.609,-10.61 61.106,-10.62 63.86,-10.61 65.84,-10.62 66.99,-10.61 67.35,-10.62 66.87,-10.61 65.59,-10.62 63.49,-10.62 60.62,-10.61 57.01,-10.62 52.72,-10.61 47.76,-10.62 42.23,-10.61 36.18,-10.62 29.69,-10.61 22.84,-10.62 15.95,-10.62 7.78,-9.2 1.79,-10.1 -5.23,-10.62 -12.51,-10.61 -19.74,-10.62 -26.72,-10.61 -33.39,-10.62 -39.63,-10.61 -45.41,-10.617 -50.61,-10.613 -55.21,-10.617 -59.13,-10.618 -62.33,-10.613 -64.76,-10.617 -66.41,-10.613 -67.24,-10.618 -67.25,-10.613 -66.45,-10.617 -64.82,-10.613 -62.41,-10.618 -59.232,-10.617 -55.336,-10.613 -50.758,-10.617 -45.566,-10.613 -39.813,-10.618 -33.574,-10.613 -26.926,-10.617 -19.949,-10.617 -12.727,-10.614 -5.351,-10.617 2.09,-10.613 9.507,-10.617 16.805,-10.614 23.903,-10.617 30.703,-10.613 37.132,-10.617 43.106,-10.617 48.555,-10.614 53.41,-10.617 57.609,-10.613 61.112,-10.617 63.86,-10.614 65.83,-10.617 67,-10.613 67.35,-10.617 66.87,-10.617 65.58,-10.614 63.49,-10.617 60.62,-10.613 57.02,-10.617 52.71,-10.614 47.76,-10.617 42.23,-10.617 36.18,-10.613 29.69,-10.618 22.83,-10.613 15.96,-10.617 7.78,-9.207 1.78,-10.094 -5.22,-10.613 -12.51,-10.617 -19.74,-10.614 -26.73,-10.617 -33.38,-10.617 -39.64,-10.613 -45.06,-10.617 -35.55,-7.735"
             style="fill:none;stroke:#00afaf;stroke-width:4.16667;stroke-linecap:butt;stroke-linejoin:miter;stroke-miterlimit:1;stroke-dasharray:none;stroke-opacity:1"
             id="path3117" /></g></g></g></g></svg>
