<?xml version="1.0" encoding="UTF-8" standalone="no"?>
<svg
   xmlns:dc="http://purl.org/dc/elements/1.1/"
   xmlns:cc="http://creativecommons.org/ns#"
   xmlns:rdf="http://www.w3.org/1999/02/22-rdf-syntax-ns#"
   xmlns:svg="http://www.w3.org/2000/svg"
   xmlns="http://www.w3.org/2000/svg"
   xmlns:sodipodi="http://sodipodi.sourceforge.net/DTD/sodipodi-0.dtd"
   xmlns:inkscape="http://www.inkscape.org/namespaces/inkscape"
   version="1.1"
   id="svg695"
   xml:space="preserve"
   width="604.841"
   height="361.33768"
   viewBox="0 0 907.26149 542.00654"
   sodipodi:docname="master-cut.svg"
   inkscape:version="1.0.1 (c497b03c, 2020-09-10)"><metadata
     id="metadata701"><rdf:RDF><cc:Work
         rdf:about=""><dc:format>image/svg+xml</dc:format><dc:type
           rdf:resource="http://purl.org/dc/dcmitype/StillImage" /><dc:title></dc:title></cc:Work></rdf:RDF></metadata><defs
     id="defs699"><clipPath
       clipPathUnits="userSpaceOnUse"
       id="clipPath713"><path
         d="m 375,299.582 h 1729.17 v 2908.34 H 375 Z"
         id="path711" /></clipPath><clipPath
       clipPathUnits="userSpaceOnUse"
       id="clipPath903"><path
         d="m 500,370.418 h 720.832 v 2658.33 H 500 Z"
         id="path901" /></clipPath><clipPath
       clipPathUnits="userSpaceOnUse"
       id="clipPath913"><path
         d="m 375,299.582 h 1729.17 v 2908.34 H 375 Z"
         id="path911" /></clipPath><clipPath
       clipPathUnits="userSpaceOnUse"
       id="clipPath927"><path
         d="m 500,370.418 h 720.832 v 2658.33 H 500 Z"
         id="path925" /></clipPath><clipPath
       clipPathUnits="userSpaceOnUse"
       id="clipPath937"><path
         d="m 375,299.582 h 1729.17 v 2908.34 H 375 Z"
         id="path935" /></clipPath><clipPath
       clipPathUnits="userSpaceOnUse"
       id="clipPath951"><path
         d="m 1300,370.418 h 720.832 v 2658.33 H 1300 Z"
         id="path949" /></clipPath><clipPath
       clipPathUnits="userSpaceOnUse"
       id="clipPath961"><path
         d="m 375,299.582 h 1729.17 v 2908.34 H 375 Z"
         id="path959" /></clipPath><clipPath
       clipPathUnits="userSpaceOnUse"
       id="clipPath975"><path
         d="m 1300,370.418 h 720.832 v 2658.33 H 1300 Z"
         id="path973" /></clipPath></defs><sodipodi:namedview
     pagecolor="#ffffff"
     bordercolor="#666666"
     borderopacity="1"
     objecttolerance="10"
     gridtolerance="10"
     guidetolerance="10"
     inkscape:pageopacity="0"
     inkscape:pageshadow="2"
     inkscape:window-width="772"
     inkscape:window-height="480"
     id="namedview697"
     showgrid="false"
     scale-x="1.5"
     fit-margin-top="0"
     fit-margin-left="0"
     fit-margin-right="0"
     fit-margin-bottom="0"
     inkscape:zoom="0.7823918"
     inkscape:cx="496.64986"
     inkscape:cy="312.43068"
     inkscape:window-x="0"
     inkscape:window-y="23"
     inkscape:window-maximized="0"
     inkscape:current-layer="g703" /><g
     id="g703"
     inkscape:groupmode="layer"
     inkscape:label="ink_ext_XXXXXX"
     transform="matrix(0,-1.3333333,-1.3333333,0,1025.6048,667.07604)"><g
       id="g705"
       transform="scale(0.24)"><g
         id="g707"><g
           id="g709"
           clip-path="url(#clipPath713)"><path
             d="M 500,3025.77 H 458.332"
             style="fill:none;stroke:#969696;stroke-width:4.16667;stroke-linecap:butt;stroke-linejoin:miter;stroke-miterlimit:10;stroke-dasharray:none;stroke-opacity:1"
             id="path715" /><g
             id="g717"
             transform="scale(4.16667)"><text
               transform="matrix(0,-1,-1,0,94.0003,738.828)"
               style="font-variant:normal;font-weight:normal;font-size:14px;font-family:Menlo;-inkscape-font-specification:Menlo-Regular;writing-mode:lr-tb;fill:#969696;fill-opacity:1;fill-rule:nonzero;stroke:none"
               id="text721"><tspan
                 x="0 8.4274139 16.855413"
                 y="0"
                 sodipodi:role="line"
                 id="tspan719">0ms</tspan></text></g><path
             d="M 500,2760.39 H 458.332"
             style="fill:none;stroke:#969696;stroke-width:4.16667;stroke-linecap:butt;stroke-linejoin:miter;stroke-miterlimit:10;stroke-dasharray:none;stroke-opacity:1"
             id="path723" /><g
             id="g725"
             transform="scale(4.16667)"><text
               transform="matrix(0,-1,-1,0,94.0003,675.136)"
               style="font-variant:normal;font-weight:normal;font-size:14px;font-family:Menlo;-inkscape-font-specification:Menlo-Regular;writing-mode:lr-tb;fill:#969696;fill-opacity:1;fill-rule:nonzero;stroke:none"
               id="text729"><tspan
                 x="0 8.4280005 16.856001"
                 y="0"
                 sodipodi:role="line"
                 id="tspan727">1ms</tspan></text></g><path
             d="M 500,2495 H 458.332"
             style="fill:none;stroke:#969696;stroke-width:4.16667;stroke-linecap:butt;stroke-linejoin:miter;stroke-miterlimit:10;stroke-dasharray:none;stroke-opacity:1"
             id="path731" /><g
             id="g733"
             transform="scale(4.16667)"><text
               transform="matrix(0,-1,-1,0,94.0003,611.443)"
               style="font-variant:normal;font-weight:normal;font-size:14px;font-family:Menlo;-inkscape-font-specification:Menlo-Regular;writing-mode:lr-tb;fill:#969696;fill-opacity:1;fill-rule:nonzero;stroke:none"
               id="text737"><tspan
                 x="0 8.4280005 16.856001"
                 y="0"
                 sodipodi:role="line"
                 id="tspan735">2ms</tspan></text></g><path
             d="M 500,2229.61 H 458.332"
             style="fill:none;stroke:#969696;stroke-width:4.16667;stroke-linecap:butt;stroke-linejoin:miter;stroke-miterlimit:10;stroke-dasharray:none;stroke-opacity:1"
             id="path739" /><g
             id="g741"
             transform="scale(4.16667)"><text
               transform="matrix(0,-1,-1,0,94.0003,547.75)"
               style="font-variant:normal;font-weight:normal;font-size:14px;font-family:Menlo;-inkscape-font-specification:Menlo-Regular;writing-mode:lr-tb;fill:#969696;fill-opacity:1;fill-rule:nonzero;stroke:none"
               id="text745"><tspan
                 x="0 8.4280005 16.856001"
                 y="0"
                 sodipodi:role="line"
                 id="tspan743">3ms</tspan></text></g><path
             d="M 500,1964.23 H 458.332"
             style="fill:none;stroke:#969696;stroke-width:4.16667;stroke-linecap:butt;stroke-linejoin:miter;stroke-miterlimit:10;stroke-dasharray:none;stroke-opacity:1"
             id="path747" /><g
             id="g749"
             transform="scale(4.16667)"><text
               transform="matrix(0,-1,-1,0,94.0003,484.058)"
               style="font-variant:normal;font-weight:normal;font-size:14px;font-family:Menlo;-inkscape-font-specification:Menlo-Regular;writing-mode:lr-tb;fill:#969696;fill-opacity:1;fill-rule:nonzero;stroke:none"
               id="text753"><tspan
                 x="0 8.4280005 16.856001"
                 y="0"
                 sodipodi:role="line"
                 id="tspan751">4ms</tspan></text></g><path
             d="M 500,1698.84 H 458.332"
             style="fill:none;stroke:#969696;stroke-width:4.16667;stroke-linecap:butt;stroke-linejoin:miter;stroke-miterlimit:10;stroke-dasharray:none;stroke-opacity:1"
             id="path755" /><g
             id="g757"
             transform="scale(4.16667)"><text
               transform="matrix(0,-1,-1,0,94.0003,420.365)"
               style="font-variant:normal;font-weight:normal;font-size:14px;font-family:Menlo;-inkscape-font-specification:Menlo-Regular;writing-mode:lr-tb;fill:#969696;fill-opacity:1;fill-rule:nonzero;stroke:none"
               id="text761"><tspan
                 x="0 8.4280005 16.856001"
                 y="0"
                 sodipodi:role="line"
                 id="tspan759">5ms</tspan></text></g><path
             d="M 500,1433.45 H 458.332"
             style="fill:none;stroke:#969696;stroke-width:4.16667;stroke-linecap:butt;stroke-linejoin:miter;stroke-miterlimit:10;stroke-dasharray:none;stroke-opacity:1"
             id="path763" /><g
             id="g765"
             transform="scale(4.16667)"><text
               transform="matrix(0,-1,-1,0,94.0003,356.672)"
               style="font-variant:normal;font-weight:normal;font-size:14px;font-family:Menlo;-inkscape-font-specification:Menlo-Regular;writing-mode:lr-tb;fill:#969696;fill-opacity:1;fill-rule:nonzero;stroke:none"
               id="text769"><tspan
                 x="0 8.4280005 16.855413"
                 y="0"
                 sodipodi:role="line"
                 id="tspan767">6ms</tspan></text></g><path
             d="M 500,1168.07 H 458.332"
             style="fill:none;stroke:#969696;stroke-width:4.16667;stroke-linecap:butt;stroke-linejoin:miter;stroke-miterlimit:10;stroke-dasharray:none;stroke-opacity:1"
             id="path771" /><g
             id="g773"
             transform="scale(4.16667)"><text
               transform="matrix(0,-1,-1,0,94.0003,292.979)"
               style="font-variant:normal;font-weight:normal;font-size:14px;font-family:Menlo;-inkscape-font-specification:Menlo-Regular;writing-mode:lr-tb;fill:#969696;fill-opacity:1;fill-rule:nonzero;stroke:none"
               id="text777"><tspan
                 x="0 8.4280005 16.855413"
                 y="0"
                 sodipodi:role="line"
                 id="tspan775">7ms</tspan></text></g><path
             d="M 500,902.68 H 458.332"
             style="fill:none;stroke:#969696;stroke-width:4.16667;stroke-linecap:butt;stroke-linejoin:miter;stroke-miterlimit:10;stroke-dasharray:none;stroke-opacity:1"
             id="path779" /><g
             id="g781"
             transform="scale(4.16667)"><text
               transform="matrix(0,-1,-1,0,94.0003,229.286)"
               style="font-variant:normal;font-weight:normal;font-size:14px;font-family:Menlo;-inkscape-font-specification:Menlo-Regular;writing-mode:lr-tb;fill:#969696;fill-opacity:1;fill-rule:nonzero;stroke:none"
               id="text785"><tspan
                 x="0 8.4280005 16.855413"
                 y="0"
                 sodipodi:role="line"
                 id="tspan783">8ms</tspan></text></g><path
             d="M 500,637.293 H 458.332"
             style="fill:none;stroke:#969696;stroke-width:4.16667;stroke-linecap:butt;stroke-linejoin:miter;stroke-miterlimit:10;stroke-dasharray:none;stroke-opacity:1"
             id="path787" /><g
             id="g789"
             transform="scale(4.16667)"><text
               transform="matrix(0,-1,-1,0,94.0003,165.593)"
               style="font-variant:normal;font-weight:normal;font-size:14px;font-family:Menlo;-inkscape-font-specification:Menlo-Regular;writing-mode:lr-tb;fill:#969696;fill-opacity:1;fill-rule:nonzero;stroke:none"
               id="text795"><tspan
                 x="0 8.4280005 16.855413"
                 y="0"
                 sodipodi:role="line"
                 id="tspan791">9ms</tspan><tspan
                 x="-579.021 -587.44916 -595.87817 -604.30725"
                 y="-20"
                 sodipodi:role="line"
                 id="tspan793">V51-</tspan></text></g><path
             d="m 500,3025.77 v 41.67"
             style="fill:none;stroke:#969696;stroke-width:4.16667;stroke-linecap:butt;stroke-linejoin:miter;stroke-miterlimit:10;stroke-dasharray:none;stroke-opacity:1"
             id="path797" /><g
             id="g799"
             transform="scale(4.16667)"><text
               transform="matrix(0,-1,-1,0,148.5,744.614)"
               style="font-variant:normal;font-weight:normal;font-size:14px;font-family:Menlo;-inkscape-font-specification:Menlo-Regular;writing-mode:lr-tb;fill:#969696;fill-opacity:1;fill-rule:nonzero;stroke:none"
               id="text803"><tspan
                 x="0 -8.4281301 -16.857189"
                 y="0"
                 sodipodi:role="line"
                 id="tspan801">V9-</tspan></text></g><path
             d="m 643.75,3025.77 v 41.67"
             style="fill:none;stroke:#969696;stroke-width:4.16667;stroke-linecap:butt;stroke-linejoin:miter;stroke-miterlimit:10;stroke-dasharray:none;stroke-opacity:1"
             id="path805" /><g
             id="g807"
             transform="scale(4.16667)"><text
               transform="matrix(0,-1,-1,0,183,744.614)"
               style="font-variant:normal;font-weight:normal;font-size:14px;font-family:Menlo;-inkscape-font-specification:Menlo-Regular;writing-mode:lr-tb;fill:#969696;fill-opacity:1;fill-rule:nonzero;stroke:none"
               id="text811"><tspan
                 x="0 -8.4281301 -16.857189"
                 y="0"
                 sodipodi:role="line"
                 id="tspan809">V3-</tspan></text></g><path
             d="m 787.5,3025.77 v 41.67"
             style="fill:none;stroke:#969696;stroke-width:4.16667;stroke-linecap:butt;stroke-linejoin:miter;stroke-miterlimit:10;stroke-dasharray:none;stroke-opacity:1"
             id="path813" /><g
             id="g815"
             transform="scale(4.16667)"><text
               transform="matrix(0,-1,-1,0,217.5,744.614)"
               style="font-variant:normal;font-weight:normal;font-size:14px;font-family:Menlo;-inkscape-font-specification:Menlo-Regular;writing-mode:lr-tb;fill:#969696;fill-opacity:1;fill-rule:nonzero;stroke:none"
               id="text819"><tspan
                 x="0 -8.4281301"
                 y="0"
                 sodipodi:role="line"
                 id="tspan817">V3</tspan></text></g><path
             d="m 931.25,3025.77 v 41.67"
             style="fill:none;stroke:#969696;stroke-width:4.16667;stroke-linecap:butt;stroke-linejoin:miter;stroke-miterlimit:10;stroke-dasharray:none;stroke-opacity:1"
             id="path821" /><g
             id="g823"
             transform="scale(4.16667)"><text
               transform="matrix(0,-1,-1,0,252,744.614)"
               style="font-variant:normal;font-weight:normal;font-size:14px;font-family:Menlo;-inkscape-font-specification:Menlo-Regular;writing-mode:lr-tb;fill:#969696;fill-opacity:1;fill-rule:nonzero;stroke:none"
               id="text827"><tspan
                 x="0 -8.4281301"
                 y="0"
                 sodipodi:role="line"
                 id="tspan825">V9</tspan></text></g><path
             d="m 1075,3025.77 v 41.67"
             style="fill:none;stroke:#969696;stroke-width:4.16667;stroke-linecap:butt;stroke-linejoin:miter;stroke-miterlimit:10;stroke-dasharray:none;stroke-opacity:1"
             id="path829" /><g
             id="g831"
             transform="scale(4.16667)"><text
               transform="matrix(0,-1,-1,0,286.5,744.614)"
               style="font-variant:normal;font-weight:normal;font-size:14px;font-family:Menlo;-inkscape-font-specification:Menlo-Regular;writing-mode:lr-tb;fill:#969696;fill-opacity:1;fill-rule:nonzero;stroke:none"
               id="text835"><tspan
                 x="0 -8.4281301 -16.857189"
                 y="0"
                 sodipodi:role="line"
                 id="tspan833">V51</tspan></text></g><path
             d="m 1218.75,3025.77 v 41.67"
             style="fill:none;stroke:#969696;stroke-width:4.16667;stroke-linecap:butt;stroke-linejoin:miter;stroke-miterlimit:10;stroke-dasharray:none;stroke-opacity:1"
             id="path837" /><path
             d="m 500,371.906 h 718.75 v 2653.87 H 500 Z"
             style="fill:none;stroke:#969696;stroke-width:4.16667;stroke-linecap:butt;stroke-linejoin:miter;stroke-miterlimit:10;stroke-dasharray:none;stroke-opacity:1"
             id="path839" /><g
             id="g841"
             transform="scale(4.16667)"><text
               transform="matrix(0,-1,-1,0,306.5,744.614)"
               style="font-variant:normal;font-weight:normal;font-size:14px;font-family:Menlo;-inkscape-font-specification:Menlo-Regular;writing-mode:lr-tb;fill:#afafaf;fill-opacity:1;fill-rule:nonzero;stroke:none"
               id="text845"><tspan
                 x="0 -8.4281301 -16.857189 -25.286249"
                 y="0"
                 sodipodi:role="line"
                 id="tspan843">V03-</tspan></text></g><path
             d="m 1302.08,3025.77 v 41.67"
             style="fill:none;stroke:#afafaf;stroke-width:4.16667;stroke-linecap:butt;stroke-linejoin:miter;stroke-miterlimit:10;stroke-dasharray:none;stroke-opacity:1"
             id="path847" /><g
             id="g849"
             transform="scale(4.16667)"><text
               transform="matrix(0,-1,-1,0,341,744.614)"
               style="font-variant:normal;font-weight:normal;font-size:14px;font-family:Menlo;-inkscape-font-specification:Menlo-Regular;writing-mode:lr-tb;fill:#afafaf;fill-opacity:1;fill-rule:nonzero;stroke:none"
               id="text853"><tspan
                 x="0 -8.4281301 -16.857189 -25.286249"
                 y="0"
                 sodipodi:role="line"
                 id="tspan851">V81-</tspan></text></g><path
             d="m 1445.83,3025.77 v 41.67"
             style="fill:none;stroke:#afafaf;stroke-width:4.16667;stroke-linecap:butt;stroke-linejoin:miter;stroke-miterlimit:10;stroke-dasharray:none;stroke-opacity:1"
             id="path855" /><g
             id="g857"
             transform="scale(4.16667)"><text
               transform="matrix(0,-1,-1,0,375.5,744.614)"
               style="font-variant:normal;font-weight:normal;font-size:14px;font-family:Menlo;-inkscape-font-specification:Menlo-Regular;writing-mode:lr-tb;fill:#afafaf;fill-opacity:1;fill-rule:nonzero;stroke:none"
               id="text861"><tspan
                 x="0 -8.4281301 -16.857189"
                 y="0"
                 sodipodi:role="line"
                 id="tspan859">V6-</tspan></text></g><path
             d="m 1589.58,3025.77 v 41.67"
             style="fill:none;stroke:#afafaf;stroke-width:4.16667;stroke-linecap:butt;stroke-linejoin:miter;stroke-miterlimit:10;stroke-dasharray:none;stroke-opacity:1"
             id="path863" /><g
             id="g865"
             transform="scale(4.16667)"><text
               transform="matrix(0,-1,-1,0,410,744.614)"
               style="font-variant:normal;font-weight:normal;font-size:14px;font-family:Menlo;-inkscape-font-specification:Menlo-Regular;writing-mode:lr-tb;fill:#afafaf;fill-opacity:1;fill-rule:nonzero;stroke:none"
               id="text869"><tspan
                 x="0 -8.4281301"
                 y="0"
                 sodipodi:role="line"
                 id="tspan867">V6</tspan></text></g><path
             d="m 1733.33,3025.77 v 41.67"
             style="fill:none;stroke:#afafaf;stroke-width:4.16667;stroke-linecap:butt;stroke-linejoin:miter;stroke-miterlimit:10;stroke-dasharray:none;stroke-opacity:1"
             id="path871" /><g
             id="g873"
             transform="scale(4.16667)"><text
               transform="matrix(0,-1,-1,0,444.5,744.614)"
               style="font-variant:normal;font-weight:normal;font-size:14px;font-family:Menlo;-inkscape-font-specification:Menlo-Regular;writing-mode:lr-tb;fill:#afafaf;fill-opacity:1;fill-rule:nonzero;stroke:none"
               id="text877"><tspan
                 x="0 -8.4281301 -16.857189"
                 y="0"
                 sodipodi:role="line"
                 id="tspan875">V81</tspan></text></g><path
             d="m 1877.08,3025.77 v 41.67"
             style="fill:none;stroke:#afafaf;stroke-width:4.16667;stroke-linecap:butt;stroke-linejoin:miter;stroke-miterlimit:10;stroke-dasharray:none;stroke-opacity:1"
             id="path879" /><g
             id="g881"
             transform="scale(4.16667)"><text
               transform="matrix(0,-1,-1,0,479,744.614)"
               style="font-variant:normal;font-weight:normal;font-size:14px;font-family:Menlo;-inkscape-font-specification:Menlo-Regular;writing-mode:lr-tb;fill:#afafaf;fill-opacity:1;fill-rule:nonzero;stroke:none"
               id="text885"><tspan
                 x="0 -8.4281301 -16.857189"
                 y="0"
                 sodipodi:role="line"
                 id="tspan883">V03</tspan></text></g><path
             d="m 2020.83,3025.77 v 41.67"
             style="fill:none;stroke:#afafaf;stroke-width:4.16667;stroke-linecap:butt;stroke-linejoin:miter;stroke-miterlimit:10;stroke-dasharray:none;stroke-opacity:1"
             id="path887" /><path
             d="m 1302.08,371.906 h 718.75 v 2653.87 h -718.75 z"
             style="fill:none;stroke:#afafaf;stroke-width:4.16667;stroke-linecap:butt;stroke-linejoin:miter;stroke-miterlimit:10;stroke-dasharray:none;stroke-opacity:1"
             id="path889" /><g
             id="g891"
             transform="scale(4.16667)"><text
               transform="matrix(0,-1,-1,0,296,600.9)"
               style="font-variant:normal;font-weight:normal;font-size:14px;font-family:Menlo;-inkscape-font-specification:Menlo-Regular;writing-mode:lr-tb;fill:#0eff00;fill-opacity:1;fill-rule:nonzero;stroke:none"
               id="text895"><tspan
                 x="0 8.4280005 16.855413 25.283415 33.710827 42.138828 50.56683 58.994244"
                 y="0"
                 sodipodi:role="line"
                 id="tspan893">V(vout1)</tspan></text></g></g></g><g
         id="g897"><g
           id="g899"
           clip-path="url(#clipPath903)"><path
             d="m 859.375,3025.77 v 0 l 17.445,-4.66 23.137,-6.22 38.996,-10.62 38.063,-10.61 36.624,-10.62 34.75,-10.61 32.43,-10.62 29.73,-10.61 26.66,-10.62 23.27,-10.62 19.59,-10.61 15.67,-10.62 11.56,-10.61 7.31,-10.62 3.01,-10.61 -1.28,-10.25 -5.65,-10.61 -9.9,-10.62 -14.08,-10.61 -18.07,-10.62 -21.85,-10.61 -25.36,-10.62 -28.57,-10.61 -31.41,-10.62 -33.88,-10.61 -35.945,-10.62 -37.555,-10.61 -38.711,-10.62 -39.394,-10.62 -39.598,-10.61 -39.316,-10.62 -38.559,-10.61 -37.32,-10.62 -35.637,-10.61 -33.512,-10.62 -30.976,-10.61 -28.067,-10.62 -24.812,-10.62 -21.254,-10.61 -17.437,-10.62 -13.407,-10.61 -9.215,-10.62 -4.906,-10.61 -0.539,-10.62 3.832,-10.61 8.156,-10.62 12.387,-10.62 16.461,-10.61 20.336,-10.62 23.961,-10.61 27.293,-10.62 30.293,-10.61 32.922,-10.62 35.152,-10.61 36.945,-10.62 38.297,-10.62 39.172,-10.61 39.574,-10.62 39.489,-10.61 38.925,-10.62 37.883,-10.61 36.382,-10.62 34.43,-10.61 32.06,-10.62 29.3,-10.62 26.18,-10.61 22.75,-10.62 19.03,-10.61 15.08,-10.62 10.94,-10.61 6.82,-10.62 2.32,-9.26 -1.45,-10.12 -5.7,-10.61 -9.93,-10.62 -14.1,-10.61 -18.1,-10.62 -21.88,-10.61 -25.39,-10.62 -28.58,-10.61 -31.44,-10.62 -33.9,-10.61 -35.951,-10.62 -37.562,-10.62 -38.719,-10.61 -39.398,-10.62 -39.598,-10.61 -39.312,-10.62 -38.547,-10.61 -37.317,-10.62 -35.617,-10.61 -33.496,-10.62 -30.957,-10.61 -28.047,-10.62 -24.785,-10.61 -21.231,-10.62 -17.406,-10.62 -13.379,-10.61 -9.183,-10.62 -4.875,-10.61 -0.508,-10.62 3.863,-10.61 8.188,-10.62 12.418,-10.61 16.488,-10.62 20.363,-10.61 23.985,-10.62 27.316,-10.61 30.312,-10.62 32.942,-10.62 35.164,-10.61 36.961,-10.62 38.301,-10.61 39.179,-10.62 39.575,-10.61 39.488,-10.62 38.918,-10.61 37.875,-10.62 36.372,-10.61 34.41,-10.62 32.04,-10.61 29.28,-10.62 26.16,-10.62 22.72,-10.61 19,-10.62 15.05,-10.61 10.91,-10.62 6.8,-10.61 2.29,-9.22 -1.46,-10.1 -5.7,-10.61 -9.94,-10.62 -14.11,-10.61 -18.1,-10.62 -21.88,-10.61 -25.39,-10.62 -28.59,-10.61 -31.44,-10.62 -33.9,-10.62 -35.956,-10.61 -37.566,-10.62 -38.719,-10.61 -39.398,-10.62 -39.598,-10.61 -39.313,-10.62 -38.546,-10.61 -37.313,-10.62 -35.617,-10.61 -33.492,-10.62 -30.957,-10.61 -28.039,-10.62 -24.786,-10.62 -21.226,-10.61 -17.402,-10.62 -13.375,-10.61 -9.18,-10.62 -4.871,-10.61 -0.504,-10.62 3.867,-10.61 8.195,-10.62 12.418,-10.61 16.496,-10.62 20.364,-10.61 23.988,-10.62 27.32,-10.62 30.317,-10.61 32.945,-10.62 35.164,-10.61 36.961,-10.62 38.305,-10.61 39.179,-10.62 39.575,-10.61 39.488,-10.62 38.918,-10.61 37.871,-10.62 36.367,-10.62 34.41,-10.61 32.04,-10.62 29.28,-10.61 26.16,-10.62 22.71,-10.61 19,-10.62 15.04,-10.61 10.91,-10.62 6.79,-10.62 2.29,-9.2 -1.46,-10.1 -5.7,-10.62 -9.94,-10.61 -14.11,-10.62 -18.11,-10.61 -21.88,-10.62 -25.39,-10.61 -28.59,-10.617 -31.43,-10.613 -33.91,-10.617 -35.95,-10.618 -37.566,-10.613 -38.719,-10.617 -39.398,-10.613 -39.598,-10.618 -39.312,-10.613 -38.551,-10.617 -37.309,-10.613 -35.621,-10.618 -33.488,-10.617 -30.957,-10.613 -28.039,-10.617 -24.785,-10.613 -21.223,-10.618 -17.406,-10.613 -13.371,-10.617 -9.18,-10.617 -4.871,-10.614 -0.504,-10.617 3.871,-10.613 8.191,-10.617 12.422,-10.614 16.492,-10.617 20.368,-10.613 23.988,-10.617 27.32,-10.617 30.317,-10.614 32.945,-10.617 35.164,-10.613 36.965,-10.617 38.301,-10.614 39.179,-10.617 39.575,-10.613 39.488,-10.617 38.918,-10.617 37.871,-10.614 36.363,-10.617 34.42,-10.613 32.04,-10.617 29.27,-10.614 26.16,-10.617 22.71,-10.617 19,-10.613 15.04,-10.618 10.91,-10.613 6.79,-10.617 2.29,-9.207 -1.46,-10.094 -5.7,-10.613 -9.94,-10.617 -14.11,-10.614 -18.11,-10.617 -21.88,-10.617 -25.39,-10.613 -28.4,-10.617 -22.19,-7.735"
             style="fill:none;stroke:#0eff00;stroke-width:4.16667;stroke-linecap:butt;stroke-linejoin:miter;stroke-miterlimit:1;stroke-dasharray:none;stroke-opacity:1"
             id="path905" /></g></g><g
         id="g907"><g
           id="g909"
           clip-path="url(#clipPath913)"><g
             id="g915"
             transform="scale(4.16667)"><text
               transform="matrix(0,-1,-1,0,296,282.9)"
               style="font-variant:normal;font-weight:normal;font-size:14px;font-family:Menlo;-inkscape-font-specification:Menlo-Regular;writing-mode:lr-tb;fill:#0000ff;fill-opacity:1;fill-rule:nonzero;stroke:none"
               id="text919"><tspan
                 x="0 8.4280005 16.855413 25.283415 33.710827 42.138828 50.56683 58.994244"
                 y="0"
                 sodipodi:role="line"
                 id="tspan917">V(vout2)</tspan></text></g></g></g><g
         id="g921"><g
           id="g923"
           clip-path="url(#clipPath927)"><path
             d="m 859.375,3025.77 v 0 l -17.445,-4.66 -23.137,-6.22 -38.996,-10.62 -38.063,-10.61 -36.629,-10.62 -34.742,-10.61 -32.437,-10.62 -29.727,-10.61 -26.664,-10.62 -23.265,-10.62 -19.586,-10.61 -15.672,-10.62 -11.563,-10.61 -7.308,-10.62 -3.012,-10.61 1.281,-10.25 5.649,-10.61 9.906,-10.62 14.07,-10.61 18.074,-10.62 21.852,-10.61 25.359,-10.62 28.567,-10.61 31.414,-10.62 33.883,-10.61 35.941,-10.62 37.555,-10.61 38.711,-10.62 39.394,-10.62 39.598,-10.61 39.316,-10.62 38.555,-10.61 37.324,-10.62 35.632,-10.61 33.52,-10.62 30.97,-10.61 28.07,-10.62 24.81,-10.62 21.26,-10.61 17.43,-10.62 13.41,-10.61 9.21,-10.62 4.91,-10.61 0.54,-10.62 -3.83,-10.61 -8.16,-10.62 -12.39,-10.62 -16.46,-10.61 -20.33,-10.62 -23.96,-10.61 -27.3,-10.62 -30.29,-10.61 -32.92,-10.62 -35.15,-10.61 -36.948,-10.62 -38.297,-10.62 -39.172,-10.61 -39.574,-10.62 -39.489,-10.61 -38.925,-10.62 -37.883,-10.61 -36.379,-10.62 -34.434,-10.61 -32.058,-10.62 -29.305,-10.62 -26.18,-10.61 -22.746,-10.62 -19.027,-10.61 -15.078,-10.62 -10.946,-10.61 -6.816,-10.62 -2.324,-9.26 1.453,-10.12 5.695,-10.61 9.934,-10.62 14.101,-10.61 18.102,-10.62 21.875,-10.61 25.387,-10.62 28.586,-10.61 31.433,-10.62 33.903,-10.61 35.953,-10.62 37.562,-10.62 38.719,-10.61 39.398,-10.62 39.598,-10.61 39.312,-10.62 38.547,-10.61 37.317,-10.62 35.616,-10.61 33.5,-10.62 30.95,-10.61 28.05,-10.62 24.79,-10.61 21.23,-10.62 17.41,-10.62 13.37,-10.61 9.19,-10.62 4.87,-10.61 0.51,-10.62 -3.87,-10.61 -8.18,-10.62 -12.42,-10.61 -16.49,-10.62 -20.36,-10.61 -23.99,-10.62 -27.31,-10.61 -30.32,-10.62 -32.94,-10.62 -35.16,-10.61 -36.962,-10.62 -38.301,-10.61 -39.179,-10.62 -39.575,-10.61 -39.488,-10.62 -38.918,-10.61 -37.875,-10.62 -36.367,-10.61 -34.414,-10.62 -32.043,-10.61 -29.281,-10.62 -26.157,-10.62 -22.718,-10.61 -19,-10.62 -15.051,-10.61 -10.914,-10.62 -6.793,-10.61 -2.293,-9.22 1.461,-10.1 5.703,-10.61 9.938,-10.62 14.105,-10.61 18.105,-10.62 21.879,-10.61 25.391,-10.62 28.59,-10.61 31.437,-10.62 33.903,-10.62 35.953,-10.61 37.566,-10.62 38.719,-10.61 39.398,-10.62 39.598,-10.61 39.313,-10.62 38.546,-10.61 37.313,-10.62 35.621,-10.61 33.49,-10.62 30.96,-10.61 28.03,-10.62 24.79,-10.62 21.23,-10.61 17.4,-10.62 13.37,-10.61 9.18,-10.62 4.87,-10.61 0.51,-10.62 -3.87,-10.61 -8.19,-10.62 -12.42,-10.61 -16.5,-10.62 -20.36,-10.61 -23.99,-10.62 -27.32,-10.62 -30.32,-10.61 -32.94,-10.62 -35.17,-10.61 -36.957,-10.62 -38.305,-10.61 -39.179,-10.62 -39.575,-10.61 -39.488,-10.62 -38.918,-10.61 -37.871,-10.62 -36.367,-10.62 -34.41,-10.61 -32.043,-10.62 -29.278,-10.61 -26.156,-10.62 -22.715,-10.61 -18.996,-10.62 -15.043,-10.61 -10.91,-10.62 -6.789,-10.62 -2.289,-9.2 1.461,-10.1 5.703,-10.62 9.938,-10.61 14.109,-10.62 18.105,-10.61 21.879,-10.62 25.391,-10.61 28.59,-10.617 31.437,-10.613 33.903,-10.617 35.953,-10.618 37.566,-10.613 38.719,-10.617 39.398,-10.613 39.598,-10.618 39.312,-10.613 38.551,-10.617 37.309,-10.613 35.617,-10.618 33.49,-10.617 30.96,-10.613 28.04,-10.617 24.78,-10.613 21.23,-10.618 17.4,-10.613 13.38,-10.617 9.17,-10.617 4.87,-10.614 0.51,-10.617 -3.87,-10.613 -8.19,-10.617 -12.43,-10.614 -16.49,-10.617 -20.37,-10.613 -23.98,-10.617 -27.32,-10.617 -30.32,-10.614 -32.95,-10.617 -35.16,-10.613 -36.961,-10.617 -38.305,-10.614 -39.179,-10.617 -39.575,-10.613 -39.488,-10.617 -38.918,-10.617 -37.871,-10.614 -36.367,-10.617 -34.414,-10.613 -32.039,-10.617 -29.278,-10.614 -26.152,-10.617 -22.715,-10.617 -18.996,-10.613 -15.047,-10.618 -10.91,-10.613 -6.789,-10.617 -2.285,-9.207 1.465,-10.094 5.699,-10.613 9.938,-10.617 14.109,-10.614 18.105,-10.617 21.879,-10.617 25.391,-10.613 28.402,-10.617 22.192,-7.735"
             style="fill:none;stroke:#0000ff;stroke-width:4.16667;stroke-linecap:butt;stroke-linejoin:miter;stroke-miterlimit:1;stroke-dasharray:none;stroke-opacity:1"
             id="path929" /></g></g><g
         id="g931"><g
           id="g933"
           clip-path="url(#clipPath937)"><g
             id="g939"
             transform="scale(4.16667)"><text
               transform="matrix(0,-1,-1,0,489,596.686)"
               style="font-variant:normal;font-weight:normal;font-size:14px;font-family:Menlo;-inkscape-font-specification:Menlo-Regular;writing-mode:lr-tb;fill:#ff0000;fill-opacity:1;fill-rule:nonzero;stroke:none"
               id="text943"><tspan
                 x="0 8.4280005 16.856001 25.283415 33.711414 42.138828 50.56683"
                 y="0"
                 sodipodi:role="line"
                 id="tspan941">V(vin1)</tspan></text></g></g></g><g
         id="g945"><g
           id="g947"
           clip-path="url(#clipPath951)"><path
             d="m 1661.46,3025.77 v 0 l 17.45,-4.66 23.21,-6.22 39.16,-10.62 38.18,-10.61 36.74,-10.62 34.85,-10.61 32.54,-10.62 29.82,-10.61 26.74,-10.62 23.33,-10.62 19.65,-10.61 15.72,-10.62 11.6,-10.61 7.33,-10.62 2.98,-10.61 -1.28,-10.25 -5.63,-10.61 -9.93,-10.62 -14.12,-10.61 -18.13,-10.62 -21.92,-10.61 -25.44,-10.62 -28.65,-10.61 -31.51,-10.62 -33.99,-10.61 -36.05,-10.62 -37.66,-10.61 -38.84,-10.62 -39.51,-10.62 -39.72,-10.61 -39.44,-10.62 -38.67,-10.61 -37.44,-10.62 -35.74,-10.61 -33.62,-10.62 -31.07,-10.61 -28.15,-10.62 -24.89,-10.62 -21.32,-10.61 -17.49,-10.62 -13.45,-10.61 -9.24,-10.62 -4.92,-10.61 -0.55,-10.62 3.85,-10.61 8.18,-10.62 12.43,-10.62 16.51,-10.61 20.39,-10.62 24.04,-10.61 27.38,-10.62 30.38,-10.61 33.02,-10.62 35.26,-10.61 37.06,-10.62 38.42,-10.62 39.29,-10.61 39.7,-10.62 39.61,-10.61 39.04,-10.62 38,-10.61 36.49,-10.62 34.54,-10.61 32.16,-10.62 29.39,-10.62 26.26,-10.61 22.82,-10.62 19.08,-10.61 15.13,-10.62 10.97,-10.61 6.7,-10.62 2.29,-9.26 -1.33,-10.12 -5.66,-10.61 -9.96,-10.62 -14.15,-10.61 -18.15,-10.62 -21.95,-10.61 -25.46,-10.62 -28.67,-10.61 -31.54,-10.62 -34,-10.61 -36.06,-10.62 -37.68,-10.62 -38.84,-10.61 -39.52,-10.62 -39.72,-10.61 -39.43,-10.62 -38.66,-10.61 -37.43,-10.62 -35.73,-10.61 -33.6,-10.62 -31.05,-10.61 -28.14,-10.62 -24.86,-10.61 -21.29,-10.62 -17.46,-10.62 -13.42,-10.61 -9.21,-10.62 -4.89,-10.61 -0.51,-10.62 3.87,-10.61 8.22,-10.62 12.45,-10.61 16.54,-10.62 20.42,-10.61 24.06,-10.62 27.41,-10.61 30.4,-10.62 33.04,-10.62 35.27,-10.61 37.08,-10.62 38.42,-10.61 39.3,-10.62 39.69,-10.61 39.61,-10.62 39.04,-10.61 37.99,-10.62 36.48,-10.61 34.52,-10.62 32.14,-10.61 29.37,-10.62 26.24,-10.62 22.78,-10.61 19.06,-10.62 15.1,-10.61 10.95,-10.62 6.67,-10.61 2.25,-9.22 -1.33,-10.1 -5.66,-10.61 -9.97,-10.62 -14.15,-10.61 -18.16,-10.62 -21.95,-10.61 -25.47,-10.62 -28.67,-10.61 -31.54,-10.62 -34,-10.62 -36.07,-10.61 -37.68,-10.62 -38.84,-10.61 -39.52,-10.62 -39.72,-10.61 -39.43,-10.62 -38.66,-10.61 -37.43,-10.62 -35.73,-10.61 -33.59,-10.62 -31.05,-10.61 -28.13,-10.62 -24.86,-10.62 -21.29,-10.61 -17.46,-10.62 -13.41,-10.61 -9.21,-10.62 -4.89,-10.61 -0.5,-10.62 3.88,-10.61 8.22,-10.62 12.45,-10.61 16.55,-10.62 20.43,-10.61 24.06,-10.62 27.4,-10.62 30.41,-10.61 33.05,-10.62 35.27,-10.61 37.07,-10.62 38.43,-10.61 39.3,-10.62 39.69,-10.61 39.61,-10.62 39.04,-10.61 37.98,-10.62 36.48,-10.62 34.52,-10.61 32.14,-10.62 29.37,-10.61 26.23,-10.62 22.79,-10.61 19.05,-10.62 15.09,-10.61 10.95,-10.62 6.66,-10.62 2.25,-9.2 -1.33,-10.1 -5.66,-10.62 -9.97,-10.61 -14.16,-10.62 -18.16,-10.61 -21.95,-10.62 -25.46,-10.61 -28.68,-10.617 -31.53,-10.613 -34.01,-10.617 -36.06,-10.618 -37.68,-10.613 -38.84,-10.617 -39.52,-10.613 -39.72,-10.618 -39.43,-10.613 -38.67,-10.617 -37.42,-10.613 -35.73,-10.618 -33.6,-10.617 -31.05,-10.613 -28.12,-10.617 -24.86,-10.613 -21.29,-10.618 -17.46,-10.613 -13.41,-10.617 -9.21,-10.617 -4.89,-10.614 -0.5,-10.617 3.88,-10.613 8.22,-10.617 12.46,-10.614 16.54,-10.617 20.43,-10.613 24.06,-10.617 27.41,-10.617 30.41,-10.614 33.04,-10.617 35.28,-10.613 37.07,-10.617 38.42,-10.614 39.3,-10.617 39.7,-10.613 39.6,-10.617 39.04,-10.617 37.99,-10.614 36.48,-10.617 34.51,-10.613 32.14,-10.617 29.37,-10.614 26.24,-10.617 22.78,-10.617 19.05,-10.613 15.09,-10.618 10.95,-10.613 6.66,-10.617 2.25,-9.207 -1.33,-10.094 -5.66,-10.613 -9.97,-10.617 -14.16,-10.614 -18.16,-10.617 -21.95,-10.617 -25.46,-10.613 -28.68,-10.617 -22.71,-7.735"
             style="fill:none;stroke:#ff0000;stroke-width:4.16667;stroke-linecap:butt;stroke-linejoin:miter;stroke-miterlimit:1;stroke-dasharray:none;stroke-opacity:1"
             id="path953" /></g></g><g
         id="g955"><g
           id="g957"
           clip-path="url(#clipPath961)"><g
             id="g963"
             transform="scale(4.16667)"><text
               transform="matrix(0,-1,-1,0,489,278.686)"
               style="font-variant:normal;font-weight:normal;font-size:14px;font-family:Menlo;-inkscape-font-specification:Menlo-Regular;writing-mode:lr-tb;fill:#00afaf;fill-opacity:1;fill-rule:nonzero;stroke:none"
               id="text967"><tspan
                 x="0 8.4280005 16.856001 25.283415 33.711414 42.138828 50.56683"
                 y="0"
                 sodipodi:role="line"
                 id="tspan965">V(vin2)</tspan></text></g></g></g><g
         id="g969"><g
           id="g971"
           clip-path="url(#clipPath975)"><path
             d="m 1661.46,3025.77 v 0 l -17.46,-4.66 -23.2,-6.22 -39.16,-10.62 -38.18,-10.61 -36.75,-10.62 -34.84,-10.61 -32.54,-10.62 -29.82,-10.61 -26.74,-10.62 -23.34,-10.62 -19.65,-10.61 -15.71,-10.62 -11.6,-10.61 -7.34,-10.62 -2.98,-10.61 1.29,-10.25 5.63,-10.61 9.93,-10.62 14.12,-10.61 18.13,-10.62 21.91,-10.61 25.44,-10.62 28.65,-10.61 31.52,-10.62 33.98,-10.61 36.05,-10.62 37.67,-10.61 38.83,-10.62 39.52,-10.62 39.72,-10.61 39.44,-10.62 38.67,-10.61 37.44,-10.62 35.74,-10.61 33.62,-10.62 31.07,-10.61 28.15,-10.62 24.89,-10.62 21.32,-10.61 17.49,-10.62 13.45,-10.61 9.24,-10.62 4.92,-10.61 0.54,-10.62 -3.84,-10.61 -8.19,-10.62 -12.42,-10.62 -16.51,-10.61 -20.4,-10.62 -24.03,-10.61 -27.38,-10.62 -30.39,-10.61 -33.02,-10.62 -35.26,-10.61 -37.06,-10.62 -38.41,-10.62 -39.29,-10.61 -39.7,-10.62 -39.61,-10.61 -39.05,-10.62 -37.99,-10.61 -36.49,-10.62 -34.54,-10.61 -32.16,-10.62 -29.39,-10.62 -26.26,-10.61 -22.82,-10.62 -19.08,-10.61 -15.13,-10.62 -10.98,-10.61 -6.7,-10.62 -2.28,-9.26 1.32,-10.12 5.67,-10.61 9.96,-10.62 14.14,-10.61 18.16,-10.62 21.94,-10.61 25.47,-10.62 28.67,-10.61 31.53,-10.62 34.01,-10.61 36.06,-10.62 37.68,-10.62 38.84,-10.61 39.51,-10.62 39.72,-10.61 39.44,-10.62 38.66,-10.61 37.43,-10.62 35.73,-10.61 33.6,-10.62 31.05,-10.61 28.13,-10.62 24.86,-10.61 21.3,-10.62 17.46,-10.62 13.42,-10.61 9.21,-10.62 4.89,-10.61 0.51,-10.62 -3.88,-10.61 -8.21,-10.62 -12.46,-10.61 -16.53,-10.62 -20.43,-10.61 -24.06,-10.62 -27.4,-10.61 -30.4,-10.62 -33.05,-10.62 -35.27,-10.61 -37.07,-10.62 -38.42,-10.61 -39.3,-10.62 -39.69,-10.61 -39.61,-10.62 -39.04,-10.61 -37.99,-10.62 -36.48,-10.61 -34.52,-10.62 -32.14,-10.61 -29.37,-10.62 -26.24,-10.62 -22.79,-10.61 -19.05,-10.62 -15.1,-10.61 -10.95,-10.62 -6.67,-10.61 -2.25,-9.22 1.33,-10.1 5.66,-10.61 9.97,-10.62 14.15,-10.61 18.16,-10.62 21.95,-10.61 25.46,-10.62 28.68,-10.61 31.54,-10.62 34,-10.62 36.07,-10.61 37.68,-10.62 38.84,-10.61 39.51,-10.62 39.72,-10.61 39.44,-10.62 38.66,-10.61 37.43,-10.62 35.72,-10.61 33.6,-10.62 31.05,-10.61 28.13,-10.62 24.86,-10.62 21.29,-10.61 17.46,-10.62 13.41,-10.61 9.21,-10.62 4.88,-10.61 0.51,-10.62 -3.88,-10.61 -8.22,-10.62 -12.46,-10.61 -16.54,-10.62 -20.43,-10.61 -24.06,-10.62 -27.41,-10.62 -30.4,-10.61 -33.05,-10.62 -35.27,-10.61 -37.08,-10.62 -38.42,-10.61 -39.3,-10.62 -39.69,-10.61 -39.61,-10.62 -39.04,-10.61 -37.99,-10.62 -36.48,-10.62 -34.51,-10.61 -32.14,-10.62 -29.37,-10.61 -26.23,-10.62 -22.79,-10.61 -19.05,-10.62 -15.09,-10.61 -10.95,-10.62 -6.66,-10.62 -2.25,-9.2 1.33,-10.1 5.66,-10.62 9.97,-10.61 14.15,-10.62 18.16,-10.61 21.95,-10.62 25.47,-10.61 28.67,-10.617 31.54,-10.613 34.01,-10.617 36.06,-10.618 37.68,-10.613 38.84,-10.617 39.52,-10.613 39.72,-10.618 39.43,-10.613 38.66,-10.617 37.43,-10.613 35.73,-10.618 33.59,-10.617 31.05,-10.613 28.13,-10.617 24.86,-10.613 21.29,-10.618 17.46,-10.613 13.41,-10.617 9.21,-10.617 4.88,-10.614 0.51,-10.617 -3.88,-10.613 -8.22,-10.617 -12.46,-10.614 -16.54,-10.617 -20.43,-10.613 -24.07,-10.617 -27.4,-10.617 -30.41,-10.614 -33.05,-10.617 -35.27,-10.613 -37.07,-10.617 -38.42,-10.614 -39.3,-10.617 -39.7,-10.613 -39.61,-10.617 -39.04,-10.617 -37.98,-10.614 -36.48,-10.617 -34.52,-10.613 -32.14,-10.617 -29.36,-10.614 -26.24,-10.617 -22.78,-10.617 -19.05,-10.613 -15.1,-10.618 -10.94,-10.613 -6.66,-10.617 -2.25,-9.207 1.33,-10.094 5.66,-10.613 9.97,-10.617 14.15,-10.614 18.16,-10.617 21.95,-10.617 25.47,-10.613 28.67,-10.617 22.72,-7.735"
             style="fill:none;stroke:#00afaf;stroke-width:4.16667;stroke-linecap:butt;stroke-linejoin:miter;stroke-miterlimit:1;stroke-dasharray:none;stroke-opacity:1"
             id="path977" /></g></g></g></g></svg>
