<?xml version="1.0" encoding="UTF-8" standalone="no"?>
<svg
   xmlns:dc="http://purl.org/dc/elements/1.1/"
   xmlns:cc="http://creativecommons.org/ns#"
   xmlns:rdf="http://www.w3.org/1999/02/22-rdf-syntax-ns#"
   xmlns:svg="http://www.w3.org/2000/svg"
   xmlns="http://www.w3.org/2000/svg"
   version="1.1"
   id="svg2025"
   xml:space="preserve"
   width="614.59399"
   height="361.33768"
   viewBox="0 0 921.89098 542.00654"><metadata
     id="metadata2031"><rdf:RDF><cc:Work
         rdf:about=""><dc:format>image/svg+xml</dc:format><dc:type
           rdf:resource="http://purl.org/dc/dcmitype/StillImage" /><dc:title></dc:title></cc:Work></rdf:RDF></metadata><defs
     id="defs2029"><clipPath
       clipPathUnits="userSpaceOnUse"
       id="clipPath2043"><path
         d="m 375,299.582 h 1729.17 v 2908.34 H 375 Z"
         id="path2041" /></clipPath><clipPath
       clipPathUnits="userSpaceOnUse"
       id="clipPath2315"><path
         d="M 500,503.75 H 2020.83 V 2957.92 H 500 Z"
         id="path2313" /></clipPath></defs><g
     id="g2033"
     transform="matrix(0,-1.3333333,-1.3333333,0,1025.1493,667.07604)"><g
       id="g2035"
       transform="scale(0.24)"><g
         id="g2037"><g
           id="g2039"
           clip-path="url(#clipPath2043)"><g
             id="g2045"
             transform="scale(4.16667)"><text
               transform="matrix(0,-1,-1,0,94.0003,726.186)"
               style="font-variant:normal;font-weight:normal;font-size:14px;font-family:Menlo;-inkscape-font-specification:Menlo-Regular;writing-mode:lr-tb;fill:#afafaf;fill-opacity:1;fill-rule:nonzero;stroke:none"
               id="text2049"><tspan
                 x="0 8.4280005 16.856001 25.283415"
                 y="0"
                 id="tspan2047">10Hz</tspan></text></g><path
             d="M 500,2955.53 H 458.332"
             style="fill:none;stroke:#afafaf;stroke-width:4.16667;stroke-linecap:butt;stroke-linejoin:miter;stroke-miterlimit:10;stroke-dasharray:none;stroke-opacity:1"
             id="path2051" /><path
             d="M 500,2723.24 H 479.168"
             style="fill:none;stroke:#afafaf;stroke-width:4.16667;stroke-linecap:butt;stroke-linejoin:miter;stroke-miterlimit:10;stroke-dasharray:none;stroke-opacity:1"
             id="path2053" /><path
             d="M 500,2587.35 H 479.168"
             style="fill:none;stroke:#afafaf;stroke-width:4.16667;stroke-linecap:butt;stroke-linejoin:miter;stroke-miterlimit:10;stroke-dasharray:none;stroke-opacity:1"
             id="path2055" /><path
             d="M 500,2490.94 H 479.168"
             style="fill:none;stroke:#afafaf;stroke-width:4.16667;stroke-linecap:butt;stroke-linejoin:miter;stroke-miterlimit:10;stroke-dasharray:none;stroke-opacity:1"
             id="path2057" /><path
             d="M 500,2416.16 H 479.168"
             style="fill:none;stroke:#afafaf;stroke-width:4.16667;stroke-linecap:butt;stroke-linejoin:miter;stroke-miterlimit:10;stroke-dasharray:none;stroke-opacity:1"
             id="path2059" /><path
             d="M 500,2355.06 H 479.168"
             style="fill:none;stroke:#afafaf;stroke-width:4.16667;stroke-linecap:butt;stroke-linejoin:miter;stroke-miterlimit:10;stroke-dasharray:none;stroke-opacity:1"
             id="path2061" /><path
             d="M 500,2303.4 H 479.168"
             style="fill:none;stroke:#afafaf;stroke-width:4.16667;stroke-linecap:butt;stroke-linejoin:miter;stroke-miterlimit:10;stroke-dasharray:none;stroke-opacity:1"
             id="path2063" /><path
             d="M 500,2258.65 H 479.168"
             style="fill:none;stroke:#afafaf;stroke-width:4.16667;stroke-linecap:butt;stroke-linejoin:miter;stroke-miterlimit:10;stroke-dasharray:none;stroke-opacity:1"
             id="path2065" /><path
             d="M 500,2219.18 H 479.168"
             style="fill:none;stroke:#afafaf;stroke-width:4.16667;stroke-linecap:butt;stroke-linejoin:miter;stroke-miterlimit:10;stroke-dasharray:none;stroke-opacity:1"
             id="path2067" /><g
             id="g2069"
             transform="scale(4.16667)"><text
               transform="matrix(0,-1,-1,0,94.0003,545.199)"
               style="font-variant:normal;font-weight:normal;font-size:14px;font-family:Menlo;-inkscape-font-specification:Menlo-Regular;writing-mode:lr-tb;fill:#afafaf;fill-opacity:1;fill-rule:nonzero;stroke:none"
               id="text2073"><tspan
                 x="0 8.4280005 16.855413 25.283415 33.711414"
                 y="0"
                 id="tspan2071">100Hz</tspan></text></g><path
             d="M 500,2183.86 H 458.332"
             style="fill:none;stroke:#afafaf;stroke-width:4.16667;stroke-linecap:butt;stroke-linejoin:miter;stroke-miterlimit:10;stroke-dasharray:none;stroke-opacity:1"
             id="path2075" /><path
             d="M 500,1951.57 H 479.168"
             style="fill:none;stroke:#afafaf;stroke-width:4.16667;stroke-linecap:butt;stroke-linejoin:miter;stroke-miterlimit:10;stroke-dasharray:none;stroke-opacity:1"
             id="path2077" /><path
             d="M 500,1815.69 H 479.168"
             style="fill:none;stroke:#afafaf;stroke-width:4.16667;stroke-linecap:butt;stroke-linejoin:miter;stroke-miterlimit:10;stroke-dasharray:none;stroke-opacity:1"
             id="path2079" /><path
             d="M 500,1719.27 H 479.168"
             style="fill:none;stroke:#afafaf;stroke-width:4.16667;stroke-linecap:butt;stroke-linejoin:miter;stroke-miterlimit:10;stroke-dasharray:none;stroke-opacity:1"
             id="path2081" /><path
             d="M 500,1644.49 H 479.168"
             style="fill:none;stroke:#afafaf;stroke-width:4.16667;stroke-linecap:butt;stroke-linejoin:miter;stroke-miterlimit:10;stroke-dasharray:none;stroke-opacity:1"
             id="path2083" /><path
             d="M 500,1583.39 H 479.168"
             style="fill:none;stroke:#afafaf;stroke-width:4.16667;stroke-linecap:butt;stroke-linejoin:miter;stroke-miterlimit:10;stroke-dasharray:none;stroke-opacity:1"
             id="path2085" /><path
             d="M 500,1531.73 H 479.168"
             style="fill:none;stroke:#afafaf;stroke-width:4.16667;stroke-linecap:butt;stroke-linejoin:miter;stroke-miterlimit:10;stroke-dasharray:none;stroke-opacity:1"
             id="path2087" /><path
             d="M 500,1486.98 H 479.168"
             style="fill:none;stroke:#afafaf;stroke-width:4.16667;stroke-linecap:butt;stroke-linejoin:miter;stroke-miterlimit:10;stroke-dasharray:none;stroke-opacity:1"
             id="path2089" /><path
             d="M 500,1447.51 H 479.168"
             style="fill:none;stroke:#afafaf;stroke-width:4.16667;stroke-linecap:butt;stroke-linejoin:miter;stroke-miterlimit:10;stroke-dasharray:none;stroke-opacity:1"
             id="path2091" /><g
             id="g2093"
             transform="scale(4.16667)"><text
               transform="matrix(0,-1,-1,0,94.0003,355.785)"
               style="font-variant:normal;font-weight:normal;font-size:14px;font-family:Menlo;-inkscape-font-specification:Menlo-Regular;writing-mode:lr-tb;fill:#afafaf;fill-opacity:1;fill-rule:nonzero;stroke:none"
               id="text2097"><tspan
                 x="0 8.4280005 16.856001 25.283415"
                 y="0"
                 id="tspan2095">1KHz</tspan></text></g><path
             d="M 500,1412.2 H 458.332"
             style="fill:none;stroke:#afafaf;stroke-width:4.16667;stroke-linecap:butt;stroke-linejoin:miter;stroke-miterlimit:10;stroke-dasharray:none;stroke-opacity:1"
             id="path2099" /><path
             d="M 500,1179.9 H 479.168"
             style="fill:none;stroke:#afafaf;stroke-width:4.16667;stroke-linecap:butt;stroke-linejoin:miter;stroke-miterlimit:10;stroke-dasharray:none;stroke-opacity:1"
             id="path2101" /><path
             d="M 500,1044.02 H 479.168"
             style="fill:none;stroke:#afafaf;stroke-width:4.16667;stroke-linecap:butt;stroke-linejoin:miter;stroke-miterlimit:10;stroke-dasharray:none;stroke-opacity:1"
             id="path2103" /><path
             d="M 500,947.605 H 479.168"
             style="fill:none;stroke:#afafaf;stroke-width:4.16667;stroke-linecap:butt;stroke-linejoin:miter;stroke-miterlimit:10;stroke-dasharray:none;stroke-opacity:1"
             id="path2105" /><path
             d="M 500,872.824 H 479.168"
             style="fill:none;stroke:#afafaf;stroke-width:4.16667;stroke-linecap:butt;stroke-linejoin:miter;stroke-miterlimit:10;stroke-dasharray:none;stroke-opacity:1"
             id="path2107" /><path
             d="M 500,811.723 H 479.168"
             style="fill:none;stroke:#afafaf;stroke-width:4.16667;stroke-linecap:butt;stroke-linejoin:miter;stroke-miterlimit:10;stroke-dasharray:none;stroke-opacity:1"
             id="path2109" /><path
             d="M 500,760.063 H 479.168"
             style="fill:none;stroke:#afafaf;stroke-width:4.16667;stroke-linecap:butt;stroke-linejoin:miter;stroke-miterlimit:10;stroke-dasharray:none;stroke-opacity:1"
             id="path2111" /><path
             d="M 500,715.313 H 479.168"
             style="fill:none;stroke:#afafaf;stroke-width:4.16667;stroke-linecap:butt;stroke-linejoin:miter;stroke-miterlimit:10;stroke-dasharray:none;stroke-opacity:1"
             id="path2113" /><path
             d="M 500,675.84 H 479.168"
             style="fill:none;stroke:#afafaf;stroke-width:4.16667;stroke-linecap:butt;stroke-linejoin:miter;stroke-miterlimit:10;stroke-dasharray:none;stroke-opacity:1"
             id="path2115" /><g
             id="g2117"
             transform="scale(4.16667)"><text
               transform="matrix(0,-1,-1,0,94.0003,174.799)"
               style="font-variant:normal;font-weight:normal;font-size:14px;font-family:Menlo;-inkscape-font-specification:Menlo-Regular;writing-mode:lr-tb;fill:#afafaf;fill-opacity:1;fill-rule:nonzero;stroke:none"
               id="text2121"><tspan
                 x="0 8.4274139 16.855413 25.283415 33.710827"
                 y="0"
                 id="tspan2119">10KHz</tspan></text></g><path
             d="M 500,640.531 H 458.332"
             style="fill:none;stroke:#afafaf;stroke-width:4.16667;stroke-linecap:butt;stroke-linejoin:miter;stroke-miterlimit:10;stroke-dasharray:none;stroke-opacity:1"
             id="path2123" /><g
             id="g2125"
             transform="scale(4.16667)"><text
               transform="matrix(0,-1,-1,0,114,727.757)"
               style="font-variant:normal;font-weight:normal;font-size:14px;font-family:Menlo;-inkscape-font-specification:Menlo-Regular;writing-mode:lr-tb;fill:#afafaf;fill-opacity:1;fill-rule:nonzero;stroke:none"
               id="text2129"><tspan
                 x="0 -8.4281301 -16.857189 -25.28532 -33.714378 -42.14344"
                 y="0"
                 id="tspan2127">Bd0.81</tspan></text></g><path
             d="m 500,2955.53 v 41.67"
             style="fill:none;stroke:#afafaf;stroke-width:4.16667;stroke-linecap:butt;stroke-linejoin:miter;stroke-miterlimit:10;stroke-dasharray:none;stroke-opacity:1"
             id="path2131" /><g
             id="g2133"
             transform="scale(4.16667)"><text
               transform="matrix(0,-1,-1,0,147.182,727.757)"
               style="font-variant:normal;font-weight:normal;font-size:14px;font-family:Menlo;-inkscape-font-specification:Menlo-Regular;writing-mode:lr-tb;fill:#afafaf;fill-opacity:1;fill-rule:nonzero;stroke:none"
               id="text2137"><tspan
                 x="0 -8.4281301 -16.857189 -25.28532 -33.714378 -42.14344"
                 y="0"
                 id="tspan2135">Bd5.81</tspan></text></g><path
             d="m 638.258,2955.53 v 41.67"
             style="fill:none;stroke:#afafaf;stroke-width:4.16667;stroke-linecap:butt;stroke-linejoin:miter;stroke-miterlimit:10;stroke-dasharray:none;stroke-opacity:1"
             id="path2139" /><g
             id="g2141"
             transform="scale(4.16667)"><text
               transform="matrix(0,-1,-1,0,180.364,727.757)"
               style="font-variant:normal;font-weight:normal;font-size:14px;font-family:Menlo;-inkscape-font-specification:Menlo-Regular;writing-mode:lr-tb;fill:#afafaf;fill-opacity:1;fill-rule:nonzero;stroke:none"
               id="text2145"><tspan
                 x="0 -8.4281301 -16.857189 -25.28532 -33.714378 -42.14344"
                 y="0"
                 id="tspan2143">Bd0.91</tspan></text></g><path
             d="m 776.516,2955.53 v 41.67"
             style="fill:none;stroke:#afafaf;stroke-width:4.16667;stroke-linecap:butt;stroke-linejoin:miter;stroke-miterlimit:10;stroke-dasharray:none;stroke-opacity:1"
             id="path2147" /><g
             id="g2149"
             transform="scale(4.16667)"><text
               transform="matrix(0,-1,-1,0,213.546,727.757)"
               style="font-variant:normal;font-weight:normal;font-size:14px;font-family:Menlo;-inkscape-font-specification:Menlo-Regular;writing-mode:lr-tb;fill:#afafaf;fill-opacity:1;fill-rule:nonzero;stroke:none"
               id="text2153"><tspan
                 x="0 -8.4281301 -16.857189 -25.28532 -33.714378 -42.14344"
                 y="0"
                 id="tspan2151">Bd5.91</tspan></text></g><path
             d="m 914.773,2955.53 v 41.67"
             style="fill:none;stroke:#afafaf;stroke-width:4.16667;stroke-linecap:butt;stroke-linejoin:miter;stroke-miterlimit:10;stroke-dasharray:none;stroke-opacity:1"
             id="path2155" /><g
             id="g2157"
             transform="scale(4.16667)"><text
               transform="matrix(0,-1,-1,0,246.727,727.757)"
               style="font-variant:normal;font-weight:normal;font-size:14px;font-family:Menlo;-inkscape-font-specification:Menlo-Regular;writing-mode:lr-tb;fill:#afafaf;fill-opacity:1;fill-rule:nonzero;stroke:none"
               id="text2161"><tspan
                 x="0 -8.4281301 -16.857189 -25.28532 -33.714378 -42.14344"
                 y="0"
                 id="tspan2159">Bd0.02</tspan></text></g><path
             d="m 1053.03,2955.53 v 41.67"
             style="fill:none;stroke:#afafaf;stroke-width:4.16667;stroke-linecap:butt;stroke-linejoin:miter;stroke-miterlimit:10;stroke-dasharray:none;stroke-opacity:1"
             id="path2163" /><g
             id="g2165"
             transform="scale(4.16667)"><text
               transform="matrix(0,-1,-1,0,279.909,727.757)"
               style="font-variant:normal;font-weight:normal;font-size:14px;font-family:Menlo;-inkscape-font-specification:Menlo-Regular;writing-mode:lr-tb;fill:#afafaf;fill-opacity:1;fill-rule:nonzero;stroke:none"
               id="text2169"><tspan
                 x="0 -8.4281301 -16.857189 -25.28532 -33.714378 -42.14344"
                 y="0"
                 id="tspan2167">Bd5.02</tspan></text></g><path
             d="m 1191.29,2955.53 v 41.67"
             style="fill:none;stroke:#afafaf;stroke-width:4.16667;stroke-linecap:butt;stroke-linejoin:miter;stroke-miterlimit:10;stroke-dasharray:none;stroke-opacity:1"
             id="path2171" /><g
             id="g2173"
             transform="scale(4.16667)"><text
               transform="matrix(0,-1,-1,0,313.091,727.757)"
               style="font-variant:normal;font-weight:normal;font-size:14px;font-family:Menlo;-inkscape-font-specification:Menlo-Regular;writing-mode:lr-tb;fill:#afafaf;fill-opacity:1;fill-rule:nonzero;stroke:none"
               id="text2177"><tspan
                 x="0 -8.4281301 -16.857189 -25.28532 -33.714378 -42.14344"
                 y="0"
                 id="tspan2175">Bd0.12</tspan></text></g><path
             d="m 1329.55,2955.53 v 41.67"
             style="fill:none;stroke:#afafaf;stroke-width:4.16667;stroke-linecap:butt;stroke-linejoin:miter;stroke-miterlimit:10;stroke-dasharray:none;stroke-opacity:1"
             id="path2179" /><g
             id="g2181"
             transform="scale(4.16667)"><text
               transform="matrix(0,-1,-1,0,346.273,727.757)"
               style="font-variant:normal;font-weight:normal;font-size:14px;font-family:Menlo;-inkscape-font-specification:Menlo-Regular;writing-mode:lr-tb;fill:#afafaf;fill-opacity:1;fill-rule:nonzero;stroke:none"
               id="text2185"><tspan
                 x="0 -8.4281301 -16.857189 -25.28532 -33.714378 -42.14344"
                 y="0"
                 id="tspan2183">Bd5.12</tspan></text></g><path
             d="m 1467.8,2955.53 v 41.67"
             style="fill:none;stroke:#afafaf;stroke-width:4.16667;stroke-linecap:butt;stroke-linejoin:miter;stroke-miterlimit:10;stroke-dasharray:none;stroke-opacity:1"
             id="path2187" /><g
             id="g2189"
             transform="scale(4.16667)"><text
               transform="matrix(0,-1,-1,0,379.454,727.757)"
               style="font-variant:normal;font-weight:normal;font-size:14px;font-family:Menlo;-inkscape-font-specification:Menlo-Regular;writing-mode:lr-tb;fill:#afafaf;fill-opacity:1;fill-rule:nonzero;stroke:none"
               id="text2193"><tspan
                 x="0 -8.4281301 -16.857189 -25.28532 -33.714378 -42.14344"
                 y="0"
                 id="tspan2191">Bd0.22</tspan></text></g><path
             d="m 1606.06,2955.53 v 41.67"
             style="fill:none;stroke:#afafaf;stroke-width:4.16667;stroke-linecap:butt;stroke-linejoin:miter;stroke-miterlimit:10;stroke-dasharray:none;stroke-opacity:1"
             id="path2195" /><g
             id="g2197"
             transform="scale(4.16667)"><text
               transform="matrix(0,-1,-1,0,412.637,727.757)"
               style="font-variant:normal;font-weight:normal;font-size:14px;font-family:Menlo;-inkscape-font-specification:Menlo-Regular;writing-mode:lr-tb;fill:#afafaf;fill-opacity:1;fill-rule:nonzero;stroke:none"
               id="text2201"><tspan
                 x="0 -8.4281301 -16.857189 -25.28532 -33.714378 -42.14344"
                 y="0"
                 id="tspan2199">Bd5.22</tspan></text></g><path
             d="m 1744.32,2955.53 v 41.67"
             style="fill:none;stroke:#afafaf;stroke-width:4.16667;stroke-linecap:butt;stroke-linejoin:miter;stroke-miterlimit:10;stroke-dasharray:none;stroke-opacity:1"
             id="path2203" /><g
             id="g2205"
             transform="scale(4.16667)"><text
               transform="matrix(0,-1,-1,0,445.818,727.757)"
               style="font-variant:normal;font-weight:normal;font-size:14px;font-family:Menlo;-inkscape-font-specification:Menlo-Regular;writing-mode:lr-tb;fill:#afafaf;fill-opacity:1;fill-rule:nonzero;stroke:none"
               id="text2209"><tspan
                 x="0 -8.4281301 -16.857189 -25.28532 -33.714378 -42.14344"
                 y="0"
                 id="tspan2207">Bd0.32</tspan></text></g><path
             d="m 1882.57,2955.53 v 41.67"
             style="fill:none;stroke:#afafaf;stroke-width:4.16667;stroke-linecap:butt;stroke-linejoin:miter;stroke-miterlimit:10;stroke-dasharray:none;stroke-opacity:1"
             id="path2211" /><g
             id="g2213"
             transform="scale(4.16667)"><text
               transform="matrix(0,-1,-1,0,479,727.757)"
               style="font-variant:normal;font-weight:normal;font-size:14px;font-family:Menlo;-inkscape-font-specification:Menlo-Regular;writing-mode:lr-tb;fill:#afafaf;fill-opacity:1;fill-rule:nonzero;stroke:none"
               id="text2217"><tspan
                 x="0 -8.4281301 -16.857189 -25.28532 -33.714378 -42.14344"
                 y="0"
                 id="tspan2215">Bd5.32</tspan></text></g><path
             d="m 2020.83,2955.53 v 41.67"
             style="fill:none;stroke:#afafaf;stroke-width:4.16667;stroke-linecap:butt;stroke-linejoin:miter;stroke-miterlimit:10;stroke-dasharray:none;stroke-opacity:1"
             id="path2219" /><g
             id="g2221"
             transform="scale(4.16667)"><text
               transform="matrix(0,-1,-1,0,114,83.8284)"
               style="font-variant:normal;font-weight:normal;font-size:14px;font-family:Menlo;-inkscape-font-specification:Menlo-Regular;writing-mode:lr-tb;fill:#afafaf;fill-opacity:1;fill-rule:nonzero;stroke:none"
               id="text2225"><tspan
                 x="0 -8.42906 -16.85812 -25.286249"
                 y="0"
                 id="tspan2223">°81-</tspan></text></g><path
             d="M 500,504.645 V 462.98"
             style="fill:none;stroke:#afafaf;stroke-width:4.16667;stroke-linecap:butt;stroke-linejoin:miter;stroke-miterlimit:10;stroke-dasharray:none;stroke-opacity:1"
             id="path2227" /><g
             id="g2229"
             transform="scale(4.16667)"><text
               transform="matrix(0,-1,-1,0,154.555,83.8284)"
               style="font-variant:normal;font-weight:normal;font-size:14px;font-family:Menlo;-inkscape-font-specification:Menlo-Regular;writing-mode:lr-tb;fill:#afafaf;fill-opacity:1;fill-rule:nonzero;stroke:none"
               id="text2233"><tspan
                 x="0 -8.42906 -16.85812 -25.286249"
                 y="0"
                 id="tspan2231">°61-</tspan></text></g><path
             d="M 668.98,504.645 V 462.98"
             style="fill:none;stroke:#afafaf;stroke-width:4.16667;stroke-linecap:butt;stroke-linejoin:miter;stroke-miterlimit:10;stroke-dasharray:none;stroke-opacity:1"
             id="path2235" /><g
             id="g2237"
             transform="scale(4.16667)"><text
               transform="matrix(0,-1,-1,0,195.112,83.8284)"
               style="font-variant:normal;font-weight:normal;font-size:14px;font-family:Menlo;-inkscape-font-specification:Menlo-Regular;writing-mode:lr-tb;fill:#afafaf;fill-opacity:1;fill-rule:nonzero;stroke:none"
               id="text2241"><tspan
                 x="0 -8.42906 -16.85812 -25.286249"
                 y="0"
                 id="tspan2239">°41-</tspan></text></g><path
             d="M 837.965,504.645 V 462.98"
             style="fill:none;stroke:#afafaf;stroke-width:4.16667;stroke-linecap:butt;stroke-linejoin:miter;stroke-miterlimit:10;stroke-dasharray:none;stroke-opacity:1"
             id="path2243" /><g
             id="g2245"
             transform="scale(4.16667)"><text
               transform="matrix(0,-1,-1,0,235.667,83.8284)"
               style="font-variant:normal;font-weight:normal;font-size:14px;font-family:Menlo;-inkscape-font-specification:Menlo-Regular;writing-mode:lr-tb;fill:#afafaf;fill-opacity:1;fill-rule:nonzero;stroke:none"
               id="text2249"><tspan
                 x="0 -8.42906 -16.85812 -25.286249"
                 y="0"
                 id="tspan2247">°21-</tspan></text></g><path
             d="M 1006.95,504.645 V 462.98"
             style="fill:none;stroke:#afafaf;stroke-width:4.16667;stroke-linecap:butt;stroke-linejoin:miter;stroke-miterlimit:10;stroke-dasharray:none;stroke-opacity:1"
             id="path2251" /><g
             id="g2253"
             transform="scale(4.16667)"><text
               transform="matrix(0,-1,-1,0,276.222,83.8284)"
               style="font-variant:normal;font-weight:normal;font-size:14px;font-family:Menlo;-inkscape-font-specification:Menlo-Regular;writing-mode:lr-tb;fill:#afafaf;fill-opacity:1;fill-rule:nonzero;stroke:none"
               id="text2257"><tspan
                 x="0 -8.42906 -16.85812 -25.286249"
                 y="0"
                 id="tspan2255">°01-</tspan></text></g><path
             d="M 1175.93,504.645 V 462.98"
             style="fill:none;stroke:#afafaf;stroke-width:4.16667;stroke-linecap:butt;stroke-linejoin:miter;stroke-miterlimit:10;stroke-dasharray:none;stroke-opacity:1"
             id="path2259" /><g
             id="g2261"
             transform="scale(4.16667)"><text
               transform="matrix(0,-1,-1,0,316.777,83.8284)"
               style="font-variant:normal;font-weight:normal;font-size:14px;font-family:Menlo;-inkscape-font-specification:Menlo-Regular;writing-mode:lr-tb;fill:#afafaf;fill-opacity:1;fill-rule:nonzero;stroke:none"
               id="text2265"><tspan
                 x="0 -8.42906 -16.85812"
                 y="0"
                 id="tspan2263">°8-</tspan></text></g><path
             d="M 1344.91,504.645 V 462.98"
             style="fill:none;stroke:#afafaf;stroke-width:4.16667;stroke-linecap:butt;stroke-linejoin:miter;stroke-miterlimit:10;stroke-dasharray:none;stroke-opacity:1"
             id="path2267" /><g
             id="g2269"
             transform="scale(4.16667)"><text
               transform="matrix(0,-1,-1,0,357.334,83.8284)"
               style="font-variant:normal;font-weight:normal;font-size:14px;font-family:Menlo;-inkscape-font-specification:Menlo-Regular;writing-mode:lr-tb;fill:#afafaf;fill-opacity:1;fill-rule:nonzero;stroke:none"
               id="text2273"><tspan
                 x="0 -8.42906 -16.85812"
                 y="0"
                 id="tspan2271">°6-</tspan></text></g><path
             d="M 1513.89,504.645 V 462.98"
             style="fill:none;stroke:#afafaf;stroke-width:4.16667;stroke-linecap:butt;stroke-linejoin:miter;stroke-miterlimit:10;stroke-dasharray:none;stroke-opacity:1"
             id="path2275" /><g
             id="g2277"
             transform="scale(4.16667)"><text
               transform="matrix(0,-1,-1,0,397.889,83.8284)"
               style="font-variant:normal;font-weight:normal;font-size:14px;font-family:Menlo;-inkscape-font-specification:Menlo-Regular;writing-mode:lr-tb;fill:#afafaf;fill-opacity:1;fill-rule:nonzero;stroke:none"
               id="text2281"><tspan
                 x="0 -8.42906 -16.85812"
                 y="0"
                 id="tspan2279">°4-</tspan></text></g><path
             d="M 1682.87,504.645 V 462.98"
             style="fill:none;stroke:#afafaf;stroke-width:4.16667;stroke-linecap:butt;stroke-linejoin:miter;stroke-miterlimit:10;stroke-dasharray:none;stroke-opacity:1"
             id="path2283" /><g
             id="g2285"
             transform="scale(4.16667)"><text
               transform="matrix(0,-1,-1,0,438.444,83.8284)"
               style="font-variant:normal;font-weight:normal;font-size:14px;font-family:Menlo;-inkscape-font-specification:Menlo-Regular;writing-mode:lr-tb;fill:#afafaf;fill-opacity:1;fill-rule:nonzero;stroke:none"
               id="text2289"><tspan
                 x="0 -8.42906 -16.85812"
                 y="0"
                 id="tspan2287">°2-</tspan></text></g><path
             d="M 1851.85,504.645 V 462.98"
             style="fill:none;stroke:#afafaf;stroke-width:4.16667;stroke-linecap:butt;stroke-linejoin:miter;stroke-miterlimit:10;stroke-dasharray:none;stroke-opacity:1"
             id="path2291" /><g
             id="g2293"
             transform="scale(4.16667)"><text
               transform="matrix(0,-1,-1,0,479,83.8284)"
               style="font-variant:normal;font-weight:normal;font-size:14px;font-family:Menlo;-inkscape-font-specification:Menlo-Regular;writing-mode:lr-tb;fill:#afafaf;fill-opacity:1;fill-rule:nonzero;stroke:none"
               id="text2297"><tspan
                 x="0 -8.42906"
                 y="0"
                 id="tspan2295">°0</tspan></text></g><path
             d="M 2020.83,504.645 V 462.98"
             style="fill:none;stroke:#afafaf;stroke-width:4.16667;stroke-linecap:butt;stroke-linejoin:miter;stroke-miterlimit:10;stroke-dasharray:none;stroke-opacity:1"
             id="path2299" /><path
             d="m 500,504.645 h 1520.83 v 2450.89 H 500 Z"
             style="fill:none;stroke:#afafaf;stroke-width:4.16667;stroke-linecap:butt;stroke-linejoin:miter;stroke-miterlimit:10;stroke-dasharray:none;stroke-opacity:1"
             id="path2301" /><g
             id="g2303"
             transform="scale(4.16667)"><text
               transform="matrix(0,-1,-1,0,489,449.043)"
               style="font-variant:normal;font-weight:normal;font-size:14px;font-family:Menlo;-inkscape-font-specification:Menlo-Regular;writing-mode:lr-tb;fill:#0eff00;fill-opacity:1;fill-rule:nonzero;stroke:none"
               id="text2307"><tspan
                 x="0 8.4280005 16.855413 25.283415 33.711414 42.138828 50.56683 58.994827"
                 y="0"
                 id="tspan2305">V(vout1)</tspan></text></g></g></g><g
         id="g2309"><g
           id="g2311"
           clip-path="url(#clipPath2315)"><path
             d="m 2010.48,2955.53 v 0 l -0.23,-2.32 -0.22,-2.32 -0.24,-2.33 -0.23,-2.32 -0.24,-2.32 -0.24,-2.33 -0.24,-2.32 -0.25,-2.32 -0.25,-2.32 -0.26,-2.33 -0.26,-2.32 -0.26,-2.32 -0.27,-2.33 -0.27,-2.32 -0.27,-2.32 -0.28,-2.33 -0.27,-2.32 -0.29,-2.32 -0.29,-2.33 -0.29,-2.32 -0.29,-2.32 -0.31,-2.32 -0.3,-2.32 -0.31,-2.33 -0.31,-2.32 -0.32,-2.32 -0.32,-2.33 -0.32,-2.32 -0.33,-2.32 -0.33,-2.33 -0.34,-2.32 -0.35,-2.32 -0.34,-2.32 -0.36,-2.33 -0.35,-2.32 -0.36,-2.32 -0.37,-2.33 -0.37,-2.32 -0.38,-2.32 -0.38,-2.33 -0.38,-2.32 -0.39,-2.32 -0.4,-2.33 -0.4,-2.32 -0.41,-2.32 -0.41,-2.32 -0.42,-2.32 -0.42,-2.33 -0.43,-2.32 -0.44,-2.32 -0.44,-2.33 -0.45,-2.32 -0.45,-2.33 -0.46,-2.32 -0.46,-2.32 -0.48,-2.32 -0.47,-2.32 -0.49,-2.33 -0.49,-2.32 -0.5,-2.32 -0.5,-2.33 -0.51,-2.32 -0.51,-2.32 -0.53,-2.33 -0.53,-2.32 -0.53,-2.32 -0.55,-2.33 -0.55,-2.32 -0.55,-2.32 -0.57,-2.32 -0.58,-2.33 -0.57,-2.32 -0.59,-2.32 -0.6,-2.33 -0.6,-2.32 -0.62,-2.32 -0.61,-2.33 -0.63,-2.32 -0.63,-2.32 -0.65,-2.32 -0.65,-2.32 -0.66,-2.33 -0.67,-2.32 -0.68,-2.33 -0.69,-2.32 -0.69,-2.32 -0.71,-2.33 -0.71,-2.32 -0.72,-2.32 -0.73,-2.33 -0.75,-2.32 -0.75,-2.32 -0.76,-2.32 -0.77,-2.32 -0.77,-2.33 -0.8,-2.32 -0.79,-2.32 -0.82,-2.33 -0.82,-2.32 -0.82,-2.32 -0.85,-2.33 -0.85,-2.32 -0.86,-2.32 -0.87,-2.32 -0.89,-2.33 -0.9,-2.32 -0.9,-2.32 -0.92,-2.33 -0.93,-2.32 -0.94,-2.32 -0.95,-2.33 -0.97,-2.32 -0.98,-2.32 -0.98,-2.33 -1,-2.32 -1.02,-2.32 -1.02,-2.32 -1.04,-2.32 -1.05,-2.33 -1.07,-2.32 -1.08,-2.32 -1.09,-2.33 -1.1,-2.32 -1.12,-2.32 -1.13,-2.33 -1.14,-2.32 -1.16,-2.32 -1.18,-2.32 -1.18,-2.33 -1.21,-2.32 -1.21,-2.32 -1.23,-2.33 -1.25,-2.32 -1.26,-2.32 -1.27,-2.33 -1.29,-2.32 -1.31,-2.32 -1.32,-2.33 -1.33,-2.32 -1.36,-2.32 -1.37,-2.32 -1.38,-2.33 -1.4,-2.32 -1.42,-2.32 -1.43,-2.33 -1.45,-2.32 -1.47,-2.32 -1.48,-2.33 -1.5,-2.32 -1.52,-2.32 -1.54,-2.32 -1.55,-2.32 -1.58,-2.33 -1.58,-2.32 -1.61,-2.32 -1.63,-2.33 -1.64,-2.32 -1.67,-2.32 -1.68,-2.33 -1.7,-2.32 -1.72,-2.32 -1.74,-2.33 -1.75,-2.32 -1.78,-2.32 -1.8,-2.32 -1.82,-2.33 -1.83,-2.32 -1.86,-2.32 -1.88,-2.33 -1.89,-2.32 -1.92,-2.32 -1.94,-2.33 -1.96,-2.32 -1.98,-2.32 -2,-2.32 -2.02,-2.33 -2.05,-2.32 -2.06,-2.32 -2.09,-2.33 -2.11,-2.32 -2.13,-2.32 -2.15,-2.33 -2.18,-2.32 -2.2,-2.32 -2.22,-2.32 -2.24,-2.33 -2.27,-2.32 -2.29,-2.32 -2.31,-2.32 -2.34,-2.33 -2.36,-2.32 -2.38,-2.32 -2.41,-2.33 -2.43,-2.32 -2.45,-2.32 -2.47,-2.33 -2.51,-2.32 -2.52,-2.32 -2.55,-2.32 -2.58,-2.33 -2.6,-2.32 -2.62,-2.32 -2.65,-2.33 -2.67,-2.32 -2.7,-2.32 -2.73,-2.33 -2.75,-2.32 -2.77,-2.32 -1.39,-1.16 -1.41,-1.16 -1.41,-1.16 -1.41,-1.17 -1.42,-1.16 -1.43,-1.16 -1.44,-1.16 -1.44,-1.16 -1.45,-1.16 -1.45,-1.17 -1.46,-1.16 -1.47,-1.16 -1.47,-1.16 -1.48,-1.16 -1.48,-1.16 -1.49,-1.17 -1.5,-1.16 -1.51,-1.16 -1.51,-1.16 -1.52,-1.16 -1.53,-1.16 -1.53,-1.17 -1.53,-1.16 -1.55,-1.16 -1.55,-1.16 -1.56,-1.16 -1.56,-1.16 -1.57,-1.16 -1.58,-1.16 -1.58,-1.16 -1.59,-1.17 -1.6,-1.16 -1.6,-1.16 -1.61,-1.16 -1.62,-1.16 -1.62,-1.16 -1.63,-1.17 -1.64,-1.16 -1.64,-1.16 -1.65,-1.16 -1.65,-1.16 -1.67,-1.16 -1.67,-1.17 -1.67,-1.16 -1.68,-1.16 -1.69,-1.16 -1.69,-1.16 -1.71,-1.16 -1.7,-1.16 -1.72,-1.16 -1.72,-1.17 -1.73,-1.16 -1.74,-1.16 -1.74,-1.16 -1.75,-1.16 -1.75,-1.16 -1.76,-1.17 -1.77,-1.16 -1.77,-1.16 -1.78,-1.16 -1.79,-1.16 -1.79,-1.16 -1.8,-1.17 -1.81,-1.16 -1.81,-1.16 -1.82,-1.16 -1.83,-1.16 -1.83,-1.16 -1.84,-1.17 -1.84,-1.16 -1.85,-1.16 -1.86,-1.16 -1.87,-1.16 -1.87,-1.16 -1.88,-1.16 -1.88,-1.16 -1.89,-1.16 -1.9,-1.17 -1.9,-1.16 -1.91,-1.16 -1.92,-1.16 -1.92,-1.16 -1.93,-1.16 -1.93,-1.17 -1.94,-1.16 -1.95,-1.16 -1.96,-1.16 -1.96,-1.16 -1.96,-1.16 -1.98,-1.17 -1.98,-1.16 -1.98,-1.16 -1.99,-1.16 -2,-1.16 -2,-1.16 -2.01,-1.16 -2.02,-1.16 -2.02,-1.16 -2.03,-1.17 -2.03,-1.16 -2.04,-1.16 -2.05,-1.16 -2.05,-1.16 -2.06,-1.16 -2.07,-1.17 -2.06,-1.16 -2.08,-1.16 -2.08,-1.16 -2.09,-1.16 -2.1,-1.16 -2.1,-1.17 -2.1,-1.16 -2.11,-1.16 -2.12,-1.16 -2.12,-1.16 -2.13,-1.16 -2.14,-1.17 -2.14,-1.16 -2.14,-1.16 -2.16,-1.16 -2.15,-1.16 -2.17,-1.16 -2.16,-1.16 -2.18,-1.16 -2.18,-1.16 -2.18,-1.17 -2.19,-1.16 -2.2,-1.16 -2.19,-1.16 -2.21,-1.16 -2.21,-1.16 -2.22,-1.17 -2.22,-1.16 -2.23,-1.16 -2.23,-1.16 -2.24,-1.16 -2.24,-1.16 -2.25,-1.17 -2.26,-1.16 -2.25,-1.16 -2.27,-1.16 -2.26,-1.16 -2.28,-1.16 -2.28,-1.16 -2.28,-1.16 -2.29,-1.17 -2.29,-1.16 -2.3,-1.16 -2.3,-1.16 -2.3,-1.16 -2.31,-1.16 -2.32,-1.17 -2.32,-1.16 -2.32,-1.16 -2.33,-1.16 -2.34,-1.16 -2.34,-1.16 -2.34,-1.17 -2.35,-1.16 -2.35,-1.16 -2.35,-1.16 -2.36,-1.16 -2.37,-1.16 -2.37,-1.16 -2.37,-1.17 -2.37,-1.16 -2.39,-1.16 -2.38,-1.16 -2.39,-1.16 -2.39,-1.16 -2.39,-1.16 -2.4,-1.16 -2.41,-1.17 -2.41,-1.16 -2.41,-1.16 -2.41,-1.16 -2.42,-1.16 -2.42,-1.16 -2.43,-1.17 -2.42,-1.16 -2.43,-1.16 -2.44,-1.16 -2.44,-1.16 -2.44,-1.16 -2.45,-1.17 -2.45,-1.16 -2.44,-1.16 -2.46,-1.16 -2.45,-1.16 -2.47,-1.16 -2.46,-1.16 -2.47,-1.16 -2.46,-1.16 -2.48,-1.17 -2.47,-1.16 -2.48,-1.16 -2.48,-1.16 -2.48,-1.16 -2.49,-1.16 -2.48,-1.17 -2.49,-1.16 -2.49,-1.16 -2.5,-1.16 -2.49,-1.16 -2.5,-1.16 -2.5,-1.17 -2.51,-1.16 -2.5,-1.16 -2.51,-1.16 -2.51,-1.16 -2.51,-1.16 -2.51,-1.16 -2.52,-1.17 -2.51,-1.16 -2.52,-1.16 -2.52,-1.16 -2.52,-1.16 -2.53,-1.16 -2.52,-1.16 -2.52,-1.17 -2.53,-1.16 -2.53,-1.16 -2.53,-1.16 -2.53,-1.16 -2.53,-1.16 -2.54,-1.17 -2.53,-1.16 -2.53,-1.16 -2.54,-1.16 -2.54,-1.16 -2.54,-1.16 -2.54,-1.17 -2.53,-1.16 -2.54,-1.16 -2.54,-1.16 -2.55,-1.16 -2.53,-1.16 -2.55,-1.16 -2.54,-1.16 -2.54,-1.16 -2.55,-1.17 -2.54,-1.16 -2.54,-1.16 -2.55,-1.16 -2.54,-1.16 -2.54,-1.16 -2.54,-1.17 -2.55,-1.16 -2.54,-1.16 -2.54,-1.16 -2.55,-1.16 -2.54,-1.16 -2.54,-1.17 -2.54,-1.16 -2.54,-1.16 -2.54,-1.16 -2.54,-1.16 -2.54,-1.16 -2.54,-1.16 -2.54,-1.16 -2.53,-1.17 -2.54,-1.16 -2.54,-1.16 -2.53,-1.16 -2.53,-1.16 -2.53,-1.16 -2.53,-1.16 -2.54,-1.17 -2.52,-1.16 -2.53,-1.16 -2.52,-1.16 -2.53,-1.16 -2.52,-1.16 -2.52,-1.17 -2.52,-1.16 -2.52,-1.16 -2.51,-1.16 -2.52,-1.16 -2.51,-1.16 -2.51,-1.17 -2.51,-1.16 -2.51,-1.16 -2.5,-1.16 -2.5,-1.16 -2.5,-1.16 -2.5,-1.16 -2.5,-1.16 -2.49,-1.16 -2.49,-1.17 -2.49,-1.16 -2.49,-1.16 -2.48,-1.16 -2.48,-1.16 -2.48,-1.17 -2.48,-1.16 -2.47,-1.16 -2.47,-1.16 -2.47,-1.16 -2.47,-1.16 -2.46,-1.16 -2.46,-1.17 -2.46,-1.16"
             style="fill:none;stroke:#0eff00;stroke-width:4.16667;stroke-linecap:butt;stroke-linejoin:miter;stroke-miterlimit:1;stroke-dasharray:none;stroke-opacity:1"
             id="path2317" /><path
             d="m 1125.16,2121.59 v 0 l -2.45,-1.16 -2.45,-1.16 -2.45,-1.16 -2.44,-1.16 -2.44,-1.16 -2.44,-1.16 -2.43,-1.17 -2.43,-1.16 -2.43,-1.16 -2.43,-1.16 -2.42,-1.16 -2.41,-1.16 -2.42,-1.17 -2.41,-1.16 -2.4,-1.16 -2.41,-1.16 -2.39,-1.16 -2.4,-1.16 -2.39,-1.17 -2.39,-1.16 -2.38,-1.16 -2.38,-1.16 -2.38,-1.16 -2.37,-1.16 -2.36,-1.17 -2.37,-1.16 -2.35,-1.16 -2.36,-1.16 -2.35,-1.16 -2.34,-1.16 -2.35,-1.16 -2.33,-1.16 -2.34,-1.16 -2.32,-1.17 -2.33,-1.16 -2.32,-1.16 -2.31,-1.16 -2.31,-1.16 -2.31,-1.16 -2.3,-1.17 -2.3,-1.16 -2.28,-1.16 -2.29,-1.16 -2.28,-1.16 -2.28,-1.16 -2.27,-1.17 -2.27,-1.16 -2.26,-1.16 -2.26,-1.16 -2.25,-1.16 -2.24,-1.16 -2.25,-1.16 -2.23,-1.16 -2.234,-1.16 -2.227,-1.17 -2.219,-1.16 -2.214,-1.16 -2.211,-1.16 -2.207,-1.16 -2.2,-1.16 -2.191,-1.17 -2.191,-1.16 -2.18,-1.16 -2.18,-1.16 -2.172,-1.16 -2.168,-1.16 -2.16,-1.17 -2.156,-1.16 -2.148,-1.16 -2.145,-1.16 -2.141,-1.16 -2.132,-1.16 -2.125,-1.17 -2.121,-1.16 -2.118,-1.16 -2.109,-1.16 -2.106,-1.16 -2.097,-1.16 -2.094,-1.16 -2.086,-1.16 -2.078,-1.17 -2.078,-1.16 -2.067,-1.16 -2.062,-1.16 -2.059,-1.16 -2.05,-1.16 -2.043,-1.17 -2.039,-1.16 -2.036,-1.16 -2.023,-1.16 -2.023,-1.16 -2.012,-1.16 -2.008,-1.17 -2.004,-1.16 -1.996,-1.16 -1.988,-1.16 -1.985,-1.16 -1.976,-1.16 -1.973,-1.16 -1.965,-1.16 -1.957,-1.16 -1.953,-1.17 -1.945,-1.16 -1.942,-1.16 -1.933,-1.16 -1.926,-1.16 -1.922,-1.16 -1.914,-1.17 -1.906,-1.16 -1.902,-1.16 -1.895,-1.16 -1.891,-1.16 -1.882,-1.16 -1.875,-1.17 -1.868,-1.16 -1.867,-1.16 -1.855,-1.16 -1.848,-1.16 -1.844,-1.16 -1.84,-1.17 -1.828,-1.16 -1.824,-1.16 -1.82,-1.16 -1.809,-1.16 -1.804,-1.16 -1.801,-1.16 -1.789,-1.16 -1.789,-1.16 -1.778,-1.17 -1.769,-1.16 -1.766,-1.16 -1.762,-1.16 -1.75,-1.16 -1.746,-1.16 -1.742,-1.17 -1.73,-1.16 -1.727,-1.16 -1.719,-1.16 -1.715,-1.16 -1.707,-1.16 -1.699,-1.17 -1.695,-1.16 -1.684,-1.16 -1.679,-1.16 -1.676,-1.16 -1.668,-1.16 -1.66,-1.16 -1.653,-1.16 -1.648,-1.17 -1.641,-1.16 -1.632,-1.16 -1.629,-1.16 -1.621,-1.16 -1.614,-1.16 -1.609,-1.17 -1.602,-1.16 -1.593,-1.16 -1.59,-1.16 -1.582,-1.16 -1.575,-1.16 -1.57,-1.17 -1.562,-1.16 -1.555,-1.16 -1.547,-1.16 -1.543,-1.16 -1.539,-1.16 -1.527,-1.16 -1.524,-1.17 -1.515,-1.16 -1.512,-1.16 -1.504,-1.16 -1.496,-1.16 -1.492,-1.16 -1.485,-1.16 -1.476,-1.16 -1.473,-1.17 -1.465,-1.16 -1.457,-1.16 -1.453,-1.16 -1.445,-1.16 -1.438,-1.16 -1.433,-1.17 -1.426,-1.16 -1.422,-1.16 -1.414,-1.16 -1.406,-1.16 -1.403,-1.16 -1.394,-1.17 -2.77,-2.32 -2.746,-2.32 -2.718,-2.32 -2.696,-2.32 -2.672,-2.33 -2.644,-2.32 -2.621,-2.32 -2.594,-2.33 -2.574,-2.32 -2.547,-2.32 -2.524,-2.33 -2.496,-2.32 -2.476,-2.32 -2.449,-2.33 -2.426,-2.32 -2.403,-2.32 -2.378,-2.32 -2.36,-2.33 -2.332,-2.32 -2.308,-2.32 -2.286,-2.33 -2.265,-2.32 -2.239,-2.32 -2.218,-2.33 -2.196,-2.32 -2.171,-2.32 -2.153,-2.32 -2.129,-2.33 -2.105,-2.32 -2.086,-2.32 -2.063,-2.33 -2.039,-2.32 -2.019,-2.32 -2,-2.33 -1.977,-2.32 -1.957,-2.32 -1.937,-2.32 -1.914,-2.33 -1.895,-2.32 -1.875,-2.32 -1.851,-2.32 -1.836,-2.33 -1.813,-2.32 -1.797,-2.32 -1.773,-2.33 -1.754,-2.32 -1.738,-2.32 -1.715,-2.33 -1.699,-2.32 -1.68,-2.32 -1.66,-2.32 -1.641,-2.33 -1.625,-2.32 -1.605,-2.32 -1.586,-2.33 -1.571,-2.32 -1.55,-2.32 -1.532,-2.33 -1.519,-2.32 -1.496,-2.32 -1.485,-2.32 -1.465,-2.33 -1.449,-2.32 -1.429,-2.32 -1.415,-2.33 -1.398,-2.32 -1.383,-2.32 -1.367,-2.33 -1.352,-2.32 -1.335,-2.32 -1.317,-2.33 -1.305,-2.32 -1.289,-2.32 -1.273,-2.32 -1.258,-2.32 -1.242,-2.33 -1.227,-2.32 -1.214,-2.32 -1.2,-2.33 -1.187,-2.32 -1.168,-2.32 -1.156,-2.33 -1.145,-2.32 -1.129,-2.32 -1.117,-2.32 -1.102,-2.33 -1.089,-2.32 -1.075,-2.32 -1.062,-2.33 -1.051,-2.32 -1.035,-2.32 -1.027,-2.33 -1.012,-2.32 -1,-2.32 -0.985,-2.33 -0.976,-2.32 -0.965,-2.32 -0.949,-2.32 -0.942,-2.33 -0.925,-2.32 -0.918,-2.32 -0.907,-2.33 -0.89,-2.32 -0.883,-2.32 -0.875,-2.33 -0.859,-2.32 -0.852,-2.32 -0.84,-2.32 -0.828,-2.32 -0.82,-2.33 -0.809,-2.32 -0.797,-2.32 -0.789,-2.33 -0.777,-2.32 -0.77,-2.32 -0.757,-2.33 -0.75,-2.32 -0.743,-2.32 -0.73,-2.33 -0.719,-2.32 -0.715,-2.32 -0.703,-2.32 -0.691,-2.33 -0.688,-2.32 -0.675,-2.32 -0.668,-2.33 -0.661,-2.32 -0.648,-2.32 -0.645,-2.33 -0.632,-2.32 -0.629,-2.32 -0.617,-2.32 -0.61,-2.33 -0.601,-2.32 -0.598,-2.32 -0.586,-2.33 -0.578,-2.32 -0.574,-2.32 -0.563,-2.33 -0.558,-2.32 -0.551,-2.32 -0.543,-2.32 -0.535,-2.33 -0.532,-2.32 -0.519,-2.32 -0.516,-2.32 -0.508,-2.33 -0.503,-2.32 -0.497,-2.32 -0.488,-2.33 -0.484,-2.32 -0.477,-2.32 -0.469,-2.33 -0.464,-2.32 -0.457,-2.32 -0.454,-2.32 -0.445,-2.33 -0.441,-2.32 -0.434,-2.32 -0.43,-2.33 -0.421,-2.32 -0.418,-2.32 -0.411,-2.33 -0.406,-2.32 -0.402,-2.32 -0.399,-2.32 -0.39,-2.33 -0.383,-2.32 -0.383,-2.32 -0.375,-2.33 -0.371,-2.32 -0.363,-2.32 -0.363,-2.33 -0.356,-2.32 -0.352,-2.32 -0.347,-2.33 -0.34,-2.32 -0.34,-2.32 -0.332,-2.32 -0.328,-2.32 -0.324,-2.33 -0.321,-2.32 -0.316,-2.32 -0.309,-2.33 -0.308,-2.32 -0.305,-2.32 -0.297,-2.33 -0.297,-2.32 -0.293,-2.32 -0.285,-2.32 -0.285,-2.33 -0.277,-2.32 -0.278,-2.32 -0.273,-2.33 -0.27,-2.32 -0.261,-2.32 -0.262,-2.33 -0.262,-2.32 -0.254,-2.32 -0.25,-2.33 -0.246,-2.32 -0.246,-2.32 -0.242,-2.32 -0.238,-2.32 -0.235,-2.33 -0.23,-2.32 -0.231,-2.33 -0.222,-2.32 -0.223,-2.32 -0.223,-2.33 -0.214,-2.32 -0.215,-2.32 -0.211,-2.32 -0.207,-2.32 -0.203,-2.33 -0.203,-2.32 -0.2,-2.32 -0.199,-2.33 -0.195,-2.32 -0.192,-2.32 -0.187,-2.33 -0.188,-2.32 -0.183,-2.32 -0.18,-2.33 -0.18,-2.32 -0.175,-2.32 -0.176,-2.32 -0.172,-2.33 -0.168,-2.32 -0.168,-2.32 -0.168,-2.33 -0.16,-2.32 -0.16,-2.32 -0.16,-2.33 -0.157,-2.32 -0.152,-2.32 -0.152,-2.32 -0.153,-2.32 -0.148,-2.33 -0.145,-2.32 -0.144,-2.32 -0.141,-2.33 -0.14,-2.32 -0.137,-2.33 -0.137,-2.32 -0.137,-2.32 -0.132,-2.33 -0.129,-2.32 -0.129,-2.32 -0.129,-2.32 -0.125,-2.32 -0.125,-2.33 -0.121,-2.32 -0.121,-2.32 -0.117,-2.33 -0.118,-2.32 -0.117,-2.32 -0.113,-2.33 -0.113,-2.32 -0.114,-2.32 -0.109,-2.32 -0.106,-2.33 -0.109,-2.32 -0.101,-2.32 -0.106,-2.33 -0.101,-2.32 -0.102,-2.32 -0.102,-2.33 -0.097,-2.32 -0.094,-2.32 -0.098,-2.33 -0.093,-2.32 -0.094,-2.32 -0.09,-2.32 -0.09,-2.32 -0.09,-2.33 -0.09,-2.32 -0.085,-2.32 -0.086,-2.33 -0.086,-2.32 -0.082,-2.33 -0.082,-2.32 -0.082,-2.32 -0.079,-2.32 -0.078,-2.32 -0.078,-2.33 -0.078,-2.32 -0.074,-2.32 -0.074,-2.33 -0.075,-2.32 -0.074,-2.32 -0.07,-2.33 -0.07,-2.32 -0.071,-2.32 -0.066,-2.33 -0.07,-2.32 -0.067,-2.32 -0.066,-2.32 -0.063,-2.33 -0.066,-2.32 -0.063,-2.32 -0.062,-2.33 -0.063,-2.32 -0.058,-2.32 -0.063,-2.33 -0.058,-2.32 -0.059,-2.32 -0.055,-2.32 -0.058,-2.32 -0.055,-2.33 -0.055,-2.32 -0.054,-2.32 -0.055,-2.33 -0.051,-2.32 -0.054,-2.32 -0.051,-2.33 -0.051,-2.32 -0.051,-2.32 -0.047,-2.33 -0.05,-2.32 -0.047,-2.32 -0.047,-2.32"
             style="fill:none;stroke:#0eff00;stroke-width:4.16667;stroke-linecap:butt;stroke-linejoin:miter;stroke-miterlimit:1;stroke-dasharray:none;stroke-opacity:1"
             id="path2319" /><path
             d="m 514.094,1155.25 v 0 l -0.047,-2.33 -0.047,-2.32 -0.047,-2.32 -0.043,-2.33 -0.043,-2.32 -0.047,-2.32 -0.043,-2.33 -0.039,-2.32 -0.043,-2.32 -0.043,-2.32 -0.039,-2.33 -0.039,-2.32 -0.039,-2.32 -0.039,-2.33 -0.039,-2.32 -0.039,-2.32 -0.039,-2.33 -0.035,-2.32 -0.035,-2.32 -0.039,-2.32 -0.036,-2.33 -0.035,-2.32 -0.031,-2.32 -0.035,-2.32 -0.035,-2.33 -0.032,-2.32 -0.035,-2.32 -0.031,-2.33 -0.031,-2.32 -0.031,-2.32 -0.032,-2.33 -0.031,-2.32 -0.027,-2.32 -0.032,-2.32 -0.027,-2.33 -0.031,-2.32 -0.028,-2.32 -0.027,-2.33 -0.027,-2.32 -0.028,-2.32 -0.027,-2.33 -0.027,-2.32 -0.028,-2.32 -0.023,-2.32 -0.027,-2.33 -0.024,-2.32 -0.023,-2.32 -0.028,-2.33 -0.023,-2.32 -0.023,-2.32 -0.024,-2.33 -0.023,-2.32 -0.024,-2.32 -0.019,-2.33 -0.024,-2.32 -0.023,-2.32 -0.02,-2.32 -0.023,-2.32 -0.02,-2.33 -0.019,-2.32 -0.024,-2.32 -0.019,-2.33 -0.02,-2.32 -0.019,-2.32 -0.02,-2.33 -0.019,-2.32 -0.016,-2.325 -0.019,-2.32 -0.02,-2.324 -0.016,-2.324 -0.019,-2.321 -0.016,-2.324 -0.019,-2.324 -0.016,-2.32 -0.016,-2.325 -0.019,-2.32 -0.016,-2.324 -0.015,-2.324 -0.016,-2.325 -0.016,-2.32 -0.015,-2.324 -0.016,-2.324 -0.015,-2.321 -0.016,-2.324 -0.012,-2.324 -0.015,-2.32 -0.016,-2.325 -0.012,-2.324 -0.015,-2.32 -0.012,-2.324 -0.016,-2.325 -0.011,-2.32 -0.012,-2.324 -0.016,-2.324 -0.012,-2.321 -0.011,-2.324 -0.012,-2.324 -0.016,-2.32 -0.011,-2.325 -0.012,-2.324 -0.012,-2.32 -0.011,-2.324 -0.012,-2.325 -0.008,-2.32 -0.012,-2.324 -0.011,-2.324 -0.012,-2.324 -0.012,-2.321 -0.008,-2.324 -0.011,-2.324 -0.012,-2.321 -0.008,-2.324 -0.012,-2.32 -0.007,-2.324 -0.012,-2.325 -0.008,-2.324 -0.008,-2.32 -0.012,-2.324 -0.007,-2.324 -0.008,-2.321 -0.012,-2.324 -0.008,-2.324 -0.007,-2.321 -0.008,-2.324 -0.012,-2.324 -0.008,-2.32 -0.008,-2.325 -0.007,-2.324 -0.008,-2.32 -0.008,-2.324 -0.008,-2.324 -0.008,-2.321 -0.008,-2.324 -0.007,-2.324 -0.004,-2.321 -0.008,-2.324 -0.008,-2.324 -0.008,-2.32 -0.007,-2.325 -0.004,-2.324 -0.008,-2.32 -0.008,-2.324 -0.008,-2.324 -0.004,-2.325 -0.008,-2.32 -0.003,-2.324 -0.008,-2.321 -0.008,-2.324 -0.004,-2.324 -0.008,-2.32 -0.004,-2.325 -0.008,-2.324 -0.003,-2.324 -0.008,-2.32 -0.004,-2.324 -0.004,-2.325 -0.008,-2.32 -0.004,-2.324 -0.004,-2.324 -0.007,-2.321 -0.004,-2.324 -0.004,-2.324 -0.008,-2.321 -0.004,-2.324 -0.004,-2.324 -0.004,-2.32 -0.008,-2.324 -0.004,-2.325 -0.003,-2.32 -0.004,-2.324 -0.004,-2.324 -0.004,-2.321 -0.004,-2.324 -0.008,-2.324 -0.004,-2.321 -0.004,-2.324 -0.004,-2.324 -0.004,-2.32 -0.003,-2.324 -0.004,-2.325 -0.004,-2.32 -0.004,-2.324 -0.004,-2.324 -0.004,-2.321 -0.004,-2.324 -0.004,-2.324 v -2.324 l -0.004,-2.321 -0.004,-2.324 -0.003,-2.324 -0.004,-2.32 -0.004,-2.325 -0.004,-2.324 v -2.32 l -0.004,-2.324 -0.004,-2.325 -0.004,-2.32 -0.004,-2.324 v -2.324 l -0.004,-2.321 -0.004,-2.324 -0.004,-2.324 v -2.32 l -0.003,-2.325 -0.004,-2.324 -0.004,-2.32 v -2.324 l -0.004,-2.325 -0.004,-2.32 v -2.324 l -0.004,-2.324 -0.004,-2.321 v -2.324 l -0.004,-2.324 v -2.32 l -0.004,-2.325 -0.004,-2.324 v -2.32 l -0.004,-2.324 v -2.325 l -0.003,-2.32 -0.004,-2.324 v -2.324 l -0.004,-2.325 v -2.32 l -0.004,-2.324 v -2.324 l -0.004,-2.321 v -2.324 l -0.004,-2.324 v -2.32 l -0.004,-2.325 v -2.324 l -0.004,-2.32 v -2.324 l -0.004,-2.325 v -2.32 l -0.004,-2.324 v -2.324 -2.321 l -0.003,-2.324 v -2.324 l -0.004,-2.32 v -2.325 l -0.004,-2.324 v -2.32 -2.324 l -0.004,-2.325 v -2.32 -2.324 l -0.004,-2.324 v -2.321 l -0.004,-2.324 v -2.324 -2.32 l -0.004,-2.325 v -2.324 -2.32 l -0.004,-2.324 v -2.325 -2.324 l -0.004,-2.32 v -2.324 -2.325 l -0.004,-2.32 v -2.324 -2.324 l -0.004,-2.321 v -2.324 -2.324 -2.32 l -0.003,-2.325 v -2.324 -2.32 -2.324 l -0.004,-2.325 v -2.32 -2.324 l -0.004,-2.324 v -2.321"
             style="fill:none;stroke:#0eff00;stroke-width:4.16667;stroke-linecap:butt;stroke-linejoin:miter;stroke-miterlimit:1;stroke-dasharray:none;stroke-opacity:1"
             id="path2321" /><path
             d="m 1709.95,2955.53 v 0 l -2.12,-2.32 -2.13,-2.32 -2.13,-2.33 -2.16,-2.32 -2.16,-2.32 -2.19,-2.33 -2.19,-2.32 -2.21,-2.32 -2.23,-2.32 -2.23,-2.33 -2.25,-2.32 -2.27,-2.32 -2.28,-2.33 -2.3,-2.32 -2.31,-2.32 -2.32,-2.33 -2.34,-2.32 -2.36,-2.32 -2.37,-2.33 -2.38,-2.32 -2.4,-2.32 -2.41,-2.32 -2.43,-2.32 -2.45,-2.33 -2.46,-2.32 -2.48,-2.32 -2.49,-2.33 -2.5,-2.32 -2.52,-2.32 -2.54,-2.33 -2.56,-2.32 -2.57,-2.32 -2.58,-2.32 -2.61,-2.33 -2.61,-2.32 -2.64,-2.32 -2.65,-2.33 -2.67,-2.32 -2.68,-2.32 -2.7,-2.33 -2.71,-2.32 -2.74,-2.32 -2.75,-2.33 -2.76,-2.32 -1.39,-1.16 -1.4,-1.16 -1.39,-1.16 -1.41,-1.16 -1.4,-1.16 -1.41,-1.16 -1.42,-1.17 -1.41,-1.16 -1.43,-1.16 -1.43,-1.16 -1.43,-1.16 -1.43,-1.16 -1.45,-1.17 -1.44,-1.16 -1.45,-1.16 -1.45,-1.16 -1.46,-1.16 -1.46,-1.17 -1.47,-1.16 -1.47,-1.16 -1.47,-1.16 -1.48,-1.16 -1.49,-1.16 -1.48,-1.16 -1.5,-1.16 -1.49,-1.16 -1.51,-1.17 -1.5,-1.16 -1.51,-1.16 -1.52,-1.16 -1.52,-1.16 -1.52,-1.16 -1.53,-1.17 -1.53,-1.16 -1.54,-1.16 -1.54,-1.16 -1.54,-1.16 -1.55,-1.16 -1.56,-1.17 -1.56,-1.16 -1.56,-1.16 -1.57,-1.16 -1.58,-1.16 -1.57,-1.16 -1.58,-1.17 -1.59,-1.16 -1.59,-1.16 -1.59,-1.16 -1.61,-1.16 -1.6,-1.16 -1.61,-1.16 -1.61,-1.16 -1.62,-1.16 -1.63,-1.17 -1.63,-1.16 -1.62,-1.16 -1.64,-1.16 -1.65,-1.16 -1.64,-1.16 -1.65,-1.17 -1.66,-1.16 -1.66,-1.16 -1.66,-1.16 -1.67,-1.16 -1.68,-1.16 -1.67,-1.17 -1.69,-1.16 -1.69,-1.16 -1.69,-1.16 -1.69,-1.16 -1.71,-1.16 -1.7,-1.16 -1.72,-1.16 -1.71,-1.16 -1.72,-1.17 -1.73,-1.16 -1.73,-1.16 -1.73,-1.16 -1.74,-1.16 -1.75,-1.17 -1.75,-1.16 -1.75,-1.16 -1.76,-1.16 -1.76,-1.16 -1.77,-1.16 -1.78,-1.17 -1.77,-1.16 -1.78,-1.16 -1.79,-1.16 -1.8,-1.16 -1.79,-1.16 -1.8,-1.17 -1.81,-1.16 -1.81,-1.16 -1.82,-1.16 -1.82,-1.16 -1.82,-1.16 -1.83,-1.16 -1.84,-1.16 -1.84,-1.16 -1.84,-1.17 -1.85,-1.16 -1.86,-1.16 -1.86,-1.16 -1.86,-1.16 -1.87,-1.16 -1.87,-1.17 -1.88,-1.16 -1.88,-1.16 -1.89,-1.16 -1.89,-1.16 -1.9,-1.16 -1.9,-1.17 -1.91,-1.16 -1.91,-1.16 -1.92,-1.16 -1.92,-1.16 -1.92,-1.16 -1.93,-1.16 -1.94,-1.16 -1.94,-1.16 -1.94,-1.17 -1.95,-1.16 -1.96,-1.16 -1.96,-1.16 -1.96,-1.16 -1.97,-1.16 -1.98,-1.17 -1.97,-1.16 -1.99,-1.16 -1.99,-1.16 -1.99,-1.16 -2,-1.16 -2,-1.17 -2.01,-1.16 -2.01,-1.16 -2.02,-1.16 -2.02,-1.16 -2.02,-1.16 -2.03,-1.17 -2.04,-1.16 -2.04,-1.16 -2.05,-1.16 -2.05,-1.16 -2.05,-1.16 -2.06,-1.16 -2.07,-1.16 -2.06,-1.16 -2.08,-1.17 -2.08,-1.16 -2.08,-1.16 -2.09,-1.16 -2.09,-1.16 -2.09,-1.16 -2.11,-1.17 -2.11,-1.16 -2.1,-1.16 -2.12,-1.16 -2.12,-1.16 -2.12,-1.16 -2.14,-1.17 -2.13,-1.16 -2.14,-1.16 -2.14,-1.16 -2.15,-1.16 -2.15,-1.16 -2.16,-1.16 -2.16,-1.16 -2.17,-1.17 -2.16,-1.16 -2.18,-1.16 -2.18,-1.16 -2.18,-1.16 -2.19,-1.16 -2.2,-1.17 -2.2,-1.16 -2.19,-1.16 -2.21,-1.16 -2.21,-1.16 -2.22,-1.16 -2.22,-1.17 -2.22,-1.16 -2.23,-1.16 -2.23,-1.16 -2.24,-1.16 -2.24,-1.16 -2.25,-1.16 -2.25,-1.17 -2.25,-1.16 -2.26,-1.16 -2.26,-1.16 -2.27,-1.16 -2.27,-1.16 -2.28,-1.16 -2.28,-1.16 -2.28,-1.17 -2.29,-1.16 -2.29,-1.16 -2.3,-1.16 -2.29,-1.16 -2.31,-1.16 -2.31,-1.17 -2.31,-1.16 -2.32,-1.16 -2.32,-1.16 -2.32,-1.16 -2.33,-1.16 -2.34,-1.17 -2.33,-1.16 -2.34,-1.16 -2.34,-1.16 -2.35,-1.16 -2.35,-1.16 -2.36,-1.16 -2.36,-1.16 -2.36,-1.16 -2.37,-1.17 -2.37,-1.16 -2.38,-1.16 -2.37,-1.16 -2.38,-1.16 -2.39,-1.16 -2.39,-1.17 -2.39,-1.16 -2.4,-1.16 -2.39,-1.16 -2.41,-1.16 -2.41,-1.16 -2.4,-1.17 -2.42,-1.16 -2.41,-1.16 -2.42,-1.16 -2.43,-1.16 -2.42,-1.16 -2.43,-1.16 -2.44,-1.17 -2.44,-1.16 -2.43,-1.16 -2.44,-1.16 -2.45,-1.16 -2.45,-1.16 -2.45,-1.16 -2.46,-1.17 -2.46,-1.16 -2.46,-1.16 -2.46,-1.16 -2.47,-1.16 -2.47,-1.16 -2.47,-1.17 -2.47,-1.16 -2.48,-1.16 -2.48,-1.16 -2.49,-1.16 -2.48,-1.16 -2.49,-1.17 -2.49,-1.16 -2.49,-1.16 -2.5,-1.16 -2.5,-1.16 -2.5,-1.16 -2.5,-1.16 -2.51,-1.16 -2.5,-1.16 -2.52,-1.17 -2.51,-1.16 -2.51,-1.16 -2.52,-1.16 -2.51,-1.16 -2.53,-1.16 -2.52,-1.17 -2.53,-1.16 -2.52,-1.16 -2.53,-1.16 -2.53,-1.16 -2.53,-1.16 -2.54,-1.17 -2.53,-1.16 -2.54,-1.16 -2.54,-1.16 -2.54,-1.16 -2.54,-1.16 -2.54,-1.16 -2.55,-1.16 -2.54,-1.17 -2.55,-1.16 -2.55,-1.16 -2.55,-1.16 -2.55,-1.16 -2.55,-1.16 -2.56,-1.16 -2.55,-1.17 -2.56,-1.16 -2.55,-1.16 -2.56,-1.16 -2.55,-1.16 -2.562,-1.16 -2.559,-1.17 -2.563,-1.16 -2.558,-1.16 -2.563,-1.16 -2.562,-1.16 -2.559,-1.16 -2.562,-1.17 -2.563,-1.16 -2.562,-1.16 -2.567,-1.16 -2.562,-1.16 -2.563,-1.16 -2.562,-1.16 -2.563,-1.16 -2.562,-1.17 -2.563,-1.16 -2.566,-1.16 -2.563,-1.16 -2.558,-1.16 -2.563,-1.16 -2.562,-1.17 -2.559,-1.16 -2.562,-1.16 -2.559,-1.16 -2.558,-1.16 -2.559,-1.16 -2.559,-1.17 -2.554,-1.16 -2.555,-1.16 -2.555,-1.16 -2.554,-1.16 -2.551,-1.16 -2.551,-1.16 -2.551,-1.16 -2.547,-1.16 -2.546,-1.17 -2.547,-1.16 -2.543,-1.16 -2.543,-1.16 -2.539,-1.16 -2.539,-1.16 -2.536,-1.17 -2.535,-1.16 -2.535,-1.16 -2.531,-1.16 -2.527,-1.16 -2.528,-1.16 -2.523,-1.17 -2.524,-1.16 -2.519,-1.16 -2.516,-1.16 -2.515,-1.16 -2.512,-1.16 -2.508,-1.17 -2.508,-1.16 -2.504,-1.16 -2.5,-1.16 -2.5,-1.16 -2.492,-1.16 -2.492,-1.16 -2.488,-1.16 -2.485,-1.16 -2.48,-1.17 -2.481,-1.16 -2.472,-1.16 -2.473,-1.16 -2.469,-1.16 -2.461,-1.16 -2.461,-1.17 -2.457,-1.16 -2.449,-1.16 -2.449,-1.16 -2.442,-1.16 -2.441,-1.16 -2.434,-1.17 -2.433,-1.16 -2.426,-1.16 -2.422,-1.16 -2.414,-1.16 -2.414,-1.16 -2.406,-1.16 -2.402,-1.16 -2.399,-1.17 -2.391,-1.16 -2.39,-1.16 -2.383,-1.16 -2.375,-1.16 -2.371,-1.16 -2.367,-1.17 -2.36,-1.16 -2.355,-1.16 -2.348,-1.16 -2.344,-1.16 -2.339,-1.16 -2.332,-1.17 -2.325,-1.16 -2.32,-1.16 -2.312,-1.16 -2.309,-1.16 -2.301,-1.16 -2.293,-1.17 -2.285,-1.16 -2.281,-1.16 -2.278,-1.16 -2.265,-1.16 -2.262,-1.16 -2.254,-1.16 -2.246,-1.16 -2.238,-1.16 -2.231,-1.17 -2.226,-1.16 -2.219,-1.16 -2.207,-1.16 -2.203,-1.16 -2.195,-1.16 -2.188,-1.17 -2.18,-1.16 -2.168,-1.16 -2.164,-1.16 -2.156,-1.16 -2.144,-1.16 -2.141,-1.17 -2.129,-1.16 -2.121,-1.16 -2.113,-1.16 -2.106,-1.16 -2.097,-1.16 -2.086,-1.16 -2.078,-1.16 -2.071,-1.16 -2.058,-1.17 -2.051,-1.16 -2.043,-1.16 -2.035,-1.16 -2.024,-1.16 -2.011,-1.16 -2.004,-1.17 -1.996,-1.16 -1.985,-1.16 -1.976,-1.16 -1.965,-1.16 -1.953,-1.16 -1.946,-1.17 -1.937,-1.16 -1.922,-1.16 -1.918,-1.16 -1.902,-1.16 -1.895,-1.16 -1.883,-1.17 -1.871,-1.16 -1.863,-1.16 -1.852,-1.16 -1.839,-1.16 -1.829,-1.16 -1.82,-1.16 -1.805,-1.16 -1.796,-1.16 -1.786,-1.17 -1.769,-1.16 -1.762,-1.16 -1.75,-1.16 -1.742,-1.16 -1.727,-1.16 -1.714,-1.17 -1.704,-1.16 -1.691,-1.16 -1.676,-1.16 -1.668,-1.16 -1.656,-1.16 -1.641,-1.17"
             style="fill:none;stroke:#0eff00;stroke-width:4.16667;stroke-linecap:butt;stroke-linejoin:miter;stroke-miterlimit:1;stroke-dasharray:12.5, 12.5;stroke-dashoffset:0;stroke-opacity:1"
             id="path2323" /><path
             d="m 609.527,2312.07 v 0 l -1.632,-1.16 -1.618,-1.16 -1.605,-1.16 -1.594,-1.16 -1.578,-1.16 -1.566,-1.16 -1.559,-1.16 -1.539,-1.17 -1.531,-1.16 -1.516,-1.16 -1.504,-1.16 -1.488,-1.16 -1.477,-1.16 -1.465,-1.17 -1.449,-1.16 -1.437,-1.16 -1.422,-1.16 -1.41,-1.16 -1.395,-1.16 -2.75,-2.33 -2.695,-2.32 -2.641,-2.32 -2.582,-2.33 -2.527,-2.32 -2.469,-2.32 -2.41,-2.32 -2.355,-2.33 -2.293,-2.32 -2.235,-2.32 -2.176,-2.33 -2.113,-2.32 -2.055,-2.32 -1.992,-2.33 -1.933,-2.32 -1.868,-2.32 -1.808,-2.32 -1.746,-2.32 -1.68,-2.33 -1.621,-2.32 -1.555,-2.32 -1.492,-2.33 -1.426,-2.32 -1.363,-2.32 -1.297,-2.33 -1.23,-2.32 -1.168,-2.32 -1.102,-2.33 -1.035,-2.32 -0.969,-2.32 -0.906,-2.32 -0.836,-2.33 -0.769,-2.32 -0.704,-2.32 -0.636,-2.33 -0.571,-2.32 -0.5,-2.32 -0.433,-2.33 -0.367,-2.32 -0.301,-2.32 -0.235,-2.32 -0.164,-2.33 -0.097,-2.32 -0.028,-2.32 0.039,-2.33 0.106,-2.32 0.172,-2.32 0.242,-2.33 0.309,-2.32 0.375,-2.32 0.445,-2.32 0.512,-2.33 0.578,-2.32 0.644,-2.32 0.711,-2.32 0.781,-2.33 0.844,-2.32 0.914,-2.32 0.977,-2.33 1.047,-2.32 1.109,-2.32 1.176,-2.33 1.238,-2.32 1.309,-2.32 1.371,-2.32 1.433,-2.33 1.5,-2.32 1.567,-2.32 1.625,-2.33 1.691,-2.32 1.754,-2.32 1.817,-2.33 1.875,-2.32 1.941,-2.32 2,-2.32 2.062,-2.33 2.125,-2.32 2.18,-2.32 2.246,-2.33 2.301,-2.32 2.359,-2.32 2.418,-2.33 2.477,-2.32 2.535,-2.32 2.59,-2.33 2.648,-2.32 2.703,-2.32 2.758,-2.32 1.399,-1.16 1.414,-1.16 1.426,-1.17 1.441,-1.16 1.453,-1.16 1.469,-1.16 1.476,-1.16 1.497,-1.16 1.503,-1.17 1.52,-1.16 1.535,-1.16 1.543,-1.16 1.559,-1.16 1.57,-1.16 1.586,-1.17 1.598,-1.16 1.605,-1.16 1.621,-1.16 1.637,-1.16 1.644,-1.16 1.657,-1.16 1.672,-1.16 1.683,-1.16 1.692,-1.17 1.707,-1.16 1.718,-1.16 1.731,-1.16 1.742,-1.16 1.754,-1.16 1.762,-1.17 1.777,-1.16 1.789,-1.16 1.797,-1.16 1.808,-1.16 1.825,-1.16 1.832,-1.17 1.84,-1.16 1.855,-1.16 1.863,-1.16 1.875,-1.16 1.887,-1.16 1.898,-1.17 1.907,-1.16 1.918,-1.16 1.925,-1.16 1.938,-1.16 1.949,-1.16 1.957,-1.16 1.969,-1.16 1.977,-1.17 1.988,-1.16 1.996,-1.16 2.008,-1.16 2.015,-1.16 2.028,-1.16 2.035,-1.17 2.043,-1.16 2.054,-1.16 2.063,-1.16 2.074,-1.16 2.078,-1.16 2.09,-1.17 2.098,-1.16 2.109,-1.16 2.113,-1.16 2.125,-1.16 2.133,-1.16 2.141,-1.16 2.148,-1.16 2.157,-1.16 2.168,-1.17 2.171,-1.16 2.18,-1.16 2.192,-1.16 2.195,-1.16 2.203,-1.16 2.215,-1.17 2.219,-1.16 2.226,-1.16 2.235,-1.16 2.242,-1.16 2.246,-1.16 2.258,-1.17 2.261,-1.16 2.27,-1.16 2.273,-1.16 2.285,-1.16 2.29,-1.16 2.292,-1.17 2.305,-1.16 2.309,-1.16 2.312,-1.16 2.324,-1.16 2.325,-1.16 2.336,-1.16 2.339,-1.16 2.344,-1.16 2.352,-1.17 2.355,-1.16 2.364,-1.16 2.367,-1.16 2.371,-1.16 2.379,-1.16 2.383,-1.17 2.39,-1.16 2.395,-1.16 2.398,-1.16 2.402,-1.16 2.411,-1.16 2.414,-1.17 2.418,-1.16 2.422,-1.16 2.425,-1.16 2.434,-1.16 2.437,-1.16 2.438,-1.16 2.445,-1.16 2.449,-1.17 2.454,-1.16 2.457,-1.16 2.461,-1.16 2.464,-1.16 2.469,-1.16 2.473,-1.17 2.472,-1.16 2.481,-1.16 2.48,-1.16 2.489,-1.16 2.488,-1.16 2.492,-1.17 2.496,-1.16 2.5,-1.16 2.5,-1.16 2.504,-1.16 2.508,-1.16 2.512,-1.16 2.511,-1.17 2.516,-1.16 2.516,-1.16 2.519,-1.16 2.524,-1.16 2.527,-1.16 2.523,-1.16 2.532,-1.16 2.531,-1.17 2.535,-1.16 2.535,-1.16 2.535,-1.16 2.539,-1.16 2.543,-1.16 2.543,-1.17 2.543,-1.16 2.547,-1.16 2.547,-1.16 2.547,-1.16 2.551,-1.16 2.551,-1.17 2.554,-1.16 2.551,-1.16 2.555,-1.16 2.554,-1.16 2.559,-1.16 2.559,-1.16 2.558,-1.16 2.559,-1.16 2.558,-1.17 2.559,-1.16 2.562,-1.16 2.563,-1.16 2.562,-1.16 2.563,-1.16 2.562,-1.17 2.563,-1.16 2.562,-1.16 2.563,-1.16 2.562,-1.16 2.563,-1.16 2.562,-1.17 2.567,-1.16 2.562,-1.16 2.563,-1.16 2.562,-1.16 2.563,-1.16 2.558,-1.16 2.563,-1.17 2.562,-1.16 2.559,-1.16 2.559,-1.16 2.558,-1.16 2.563,-1.16 2.55,-1.16 2.56,-1.17 2.56,-1.16 2.55,-1.16 2.56,-1.16 2.55,-1.16 2.55,-1.16 2.55,-1.17 2.55,-1.16 2.55,-1.16 2.55,-1.16 2.54,-1.16 2.55,-1.16 2.54,-1.17 2.54,-1.16 2.54,-1.16 2.54,-1.16 2.54,-1.16 2.53,-1.16 2.53,-1.16 2.53,-1.16 2.54,-1.16 2.52,-1.17 2.53,-1.16 2.52,-1.16 2.53,-1.16 2.52,-1.16 2.51,-1.16 2.52,-1.17 2.51,-1.16 2.52,-1.16 2.5,-1.16 2.51,-1.16 2.51,-1.16 2.5,-1.17 2.5,-1.16 2.5,-1.16 2.49,-1.16 2.5,-1.16 2.49,-1.16 2.48,-1.16 2.49,-1.16 2.48,-1.17 2.48,-1.16 2.48,-1.16 2.47,-1.16 2.47,-1.16 2.47,-1.16 2.47,-1.16 2.46,-1.17 2.46,-1.16 2.46,-1.16 2.45,-1.16 2.45,-1.16 2.45,-1.16 2.45,-1.17 2.44,-1.16 2.44,-1.16 2.43,-1.16 2.43,-1.16 2.43,-1.16 2.43,-1.17 2.42,-1.16 2.42,-1.16 2.42,-1.16 2.41,-1.16 2.41,-1.16 2.4,-1.16 2.41,-1.16 2.39,-1.17 2.4,-1.16 2.39,-1.16 2.39,-1.16 2.38,-1.16 2.38,-1.16 2.38,-1.16 2.37,-1.17 2.37,-1.16 2.37,-1.16 2.36,-1.16 2.36,-1.16 2.35,-1.17 2.36,-1.16 2.34,-1.16 2.34,-1.16 2.34,-1.16 2.34,-1.16 2.33,-1.16 2.33,-1.16 2.32,-1.16 2.32,-1.17 2.32,-1.16 2.31,-1.16 2.3,-1.16 2.31,-1.16 2.3,-1.16 2.29,-1.17 2.29,-1.16 2.29,-1.16 2.28,-1.16 2.28,-1.16 2.28,-1.16 2.27,-1.17 2.26,-1.16 2.26,-1.16 2.26,-1.16 2.26,-1.16 2.24,-1.16 2.25,-1.17 2.24,-1.16 2.23,-1.16 2.23,-1.16 2.23,-1.16 2.22,-1.16 2.22,-1.16 2.22,-1.16 2.21,-1.16 2.2,-1.17 2.2,-1.16 2.2,-1.16 2.19,-1.16 2.19,-1.16 2.18,-1.16 2.18,-1.17 2.17,-1.16 2.17,-1.16 2.17,-1.16 2.16,-1.16 2.15,-1.16 2.15,-1.17 2.15,-1.16 2.14,-1.16 2.14,-1.16 2.13,-1.16 2.13,-1.16 2.12,-1.16 2.12,-1.16 2.12,-1.16 2.11,-1.17 2.1,-1.16 2.1,-1.16 2.1,-1.16 2.09,-1.16 2.09,-1.16 2.08,-1.17 2.08,-1.16 2.07,-1.16 2.06,-1.16 2.07,-1.16 2.06,-1.16 2.05,-1.17 2.05,-1.16 2.04,-1.16 2.04,-1.16 2.04,-1.16 2.03,-1.17 2.02,-1.16 2.02,-1.16 2.02,-1.16 2.01,-1.16 2,-1.16 2.01,-1.16 1.99,-1.16 2,-1.16 1.98,-1.17 1.98,-1.16 1.98,-1.16 1.97,-1.16 1.97,-1.16 1.96,-1.16 1.96,-1.17 1.96,-1.16 1.95,-1.16 1.94,-1.16 1.94,-1.16 1.93,-1.16 1.93,-1.17 1.93,-1.16 1.92,-1.16 1.91,-1.16 1.91,-1.16 1.91,-1.16 1.9,-1.16 1.89,-1.16 1.89,-1.16 1.89,-1.17 1.88,-1.16 1.88,-1.16 1.87,-1.16 1.87,-1.16 1.86,-1.16 1.86,-1.17 1.86,-1.16 1.84,-1.16 1.84,-1.16 1.84,-1.16 1.83,-1.16 1.84,-1.17 1.82,-1.16 1.82,-1.16 1.81,-1.16 1.81,-1.16 1.81,-1.16 1.8,-1.17 1.79,-1.16 1.79,-1.16 1.79,-1.16 1.78,-1.16 1.78,-1.16 1.77,-1.16 1.77,-1.16 1.76,-1.16 1.76,-1.17"
             style="fill:none;stroke:#0eff00;stroke-width:4.16667;stroke-linecap:butt;stroke-linejoin:miter;stroke-miterlimit:1;stroke-dasharray:12.5, 12.5;stroke-dashoffset:0;stroke-opacity:1"
             id="path2325" /><path
             d="m 1475,1617.51 v 0 l 1.75,-1.16 1.75,-1.16 1.74,-1.16 1.74,-1.16 1.73,-1.16 1.73,-1.17 1.73,-1.16 1.72,-1.16 1.71,-1.16 1.71,-1.16 1.71,-1.16 1.7,-1.17 1.69,-1.16 1.7,-1.16 1.68,-1.16 1.68,-1.16 1.68,-1.16 1.67,-1.16 1.67,-1.16 1.67,-1.17 1.66,-1.16 1.65,-1.16 1.65,-1.16 1.65,-1.16 1.63,-1.16 1.64,-1.17 1.63,-1.16 1.63,-1.16 1.62,-1.16 1.62,-1.16 1.61,-1.16 1.61,-1.17 1.6,-1.16 1.6,-1.16 1.59,-1.16 1.59,-1.16 1.59,-1.16 1.58,-1.16 1.58,-1.17 1.57,-1.16 1.57,-1.16 1.56,-1.16 1.55,-1.16 1.56,-1.16 1.55,-1.16 1.54,-1.16 1.55,-1.17 1.53,-1.16 1.53,-1.16 1.53,-1.16 1.52,-1.16 1.52,-1.16 1.51,-1.17 1.51,-1.16 1.51,-1.16 1.5,-1.16 1.49,-1.16 1.49,-1.16 1.49,-1.17 1.48,-1.16 1.48,-1.16 1.48,-1.16 1.47,-1.16 1.46,-1.16 1.46,-1.16 1.46,-1.16 1.45,-1.16 1.45,-1.17 1.44,-1.16 1.44,-1.16 1.43,-1.16 1.44,-1.16 1.42,-1.16 1.42,-1.17 1.42,-1.16 1.42,-1.16 1.4,-1.16 1.41,-1.16 1.4,-1.16 1.4,-1.17 1.39,-1.16 2.77,-2.32 2.76,-2.32 2.74,-2.33 2.72,-2.32 2.7,-2.32 2.69,-2.32 2.67,-2.33 2.66,-2.32 2.64,-2.32 2.63,-2.33 2.6,-2.32 2.6,-2.32 2.57,-2.33 2.56,-2.32 2.55,-2.32 2.52,-2.32 2.51,-2.33 2.5,-2.32 2.48,-2.32 2.47,-2.33 2.45,-2.32 2.44,-2.32 2.42,-2.33 2.4,-2.32 2.39,-2.32 2.38,-2.32 2.36,-2.33 2.34,-2.32 2.33,-2.32 2.32,-2.32 2.3,-2.33 2.28,-2.32 2.28,-2.32 2.26,-2.33 2.24,-2.32 2.22,-2.32 2.22,-2.33 2.2,-2.32 2.19,-2.32 2.17,-2.32 2.16,-2.33 2.14,-2.32 2.13,-2.32 2.12,-2.33 2.1,-2.32 2.09,-2.32 2.08,-2.33 2.06,-2.32 2.05,-2.32 2.04,-2.32 2.02,-2.33 2.02,-2.32 1.99,-2.32 1.99,-2.33 1.97,-2.32 1.96,-2.32 1.94,-2.33 1.93,-2.32 1.93,-2.32 1.91,-2.33 1.89,-2.32 1.88,-2.32 1.87,-2.32 1.86,-2.32 1.85,-2.33 1.83,-2.32 1.83,-2.32 1.81,-2.33 1.8,-2.32 1.79,-2.32 1.77,-2.33 1.77,-2.32 1.75,-2.32 1.73,-2.32 1.73,-2.33 1.72,-2.32 1.71,-2.32 1.69,-2.33 1.68,-2.32 1.68,-2.32 1.66,-2.33 1.65,-2.32 1.64,-2.32 1.63,-2.33 1.62,-2.32 1.61,-2.32 1.59,-2.32 1.59,-2.33 1.57,-2.32 1.57,-2.32 1.55,-2.33 1.55,-2.32 1.53,-2.32 1.52,-2.33 1.52,-2.32 1.5,-2.32 1.49,-2.32 1.49,-2.32 1.47,-2.33 1.47,-2.32 1.45,-2.32 1.44,-2.33 1.44,-2.32 1.42,-2.32 1.42,-2.33 1.4,-2.32 1.4,-2.32 1.38,-2.33 1.38,-2.32 1.37,-2.32 1.36,-2.32 1.35,-2.33 1.34,-2.32 1.33,-2.32 1.33,-2.33 1.31,-2.32 1.31,-2.32 1.3,-2.33 1.28,-2.32 1.28,-2.32 1.27,-2.32 1.26,-2.33 1.26,-2.32 1.24,-2.32 1.24,-2.33 1.23,-2.32 1.22,-2.32 1.21,-2.33 1.2,-2.32 1.2,-2.32 1.18,-2.32 1.18,-2.33 1.18,-2.32 1.16,-2.32 1.16,-2.32 1.14,-2.33 1.14,-2.32 1.13,-2.32 1.13,-2.33 1.12,-2.32 1.11,-2.32 1.1,-2.33 1.09,-2.32 1.09,-2.32 1.08,-2.32 1.07,-2.33 1.07,-2.32 1.05,-2.32 1.05,-2.33 1.05,-2.32 1.03,-2.32 1.03,-2.33 1.02,-2.32 1.02,-2.32 1.01,-2.32 1,-2.33 1,-2.32 0.98,-2.32 0.99,-2.33 0.97,-2.32 0.97,-2.32 0.96,-2.33 0.95,-2.32 0.95,-2.32 0.94,-2.33 0.94,-2.32 0.93,-2.32 0.92,-2.32 0.92,-2.32 0.91,-2.33 0.9,-2.32 0.9,-2.32 0.89,-2.33 0.88,-2.32 0.89,-2.32 0.87,-2.33 0.86,-2.32 0.87,-2.32 0.85,-2.32 0.85,-2.33 0.84,-2.32 0.84,-2.32 0.84,-2.33 0.82,-2.32 0.83,-2.32 0.81,-2.33 0.81,-2.32 0.8,-2.32 0.81,-2.33 0.79,-2.32 0.79,-2.32 0.78,-2.32 0.78,-2.32 0.77,-2.33 0.77,-2.32 0.76,-2.33 0.75,-2.32 0.75,-2.32 0.75,-2.33 0.74,-2.32 0.74,-2.32 0.73,-2.32 0.72,-2.32 0.72,-2.33 0.72,-2.32 0.71,-2.32 0.71,-2.33 0.7,-2.32 0.69,-2.32 0.7,-2.33 0.68,-2.32 0.68,-2.32 0.68,-2.33 0.67,-2.32 0.67,-2.32 0.67,-2.32 0.65,-2.33 0.66,-2.32 0.65,-2.32 0.65,-2.33 0.64,-2.32 0.63,-2.32 0.64,-2.33 0.62,-2.32 0.63,-2.32 0.61,-2.325 0.62,-2.32 0.61,-2.324 0.61,-2.324 0.6,-2.321 0.6,-2.324 0.59,-2.324 0.59,-2.324 0.59,-2.321 0.58,-2.324 0.58,-2.324 0.57,-2.32 0.57,-2.325 0.57,-2.324 0.56,-2.32 0.56,-2.324 0.55,-2.325 0.56,-2.32 0.54,-2.324 0.55,-2.324 0.54,-2.321 0.53,-2.324 0.53,-2.324 0.53,-2.32 0.53,-2.325 0.52,-2.324 0.52,-2.32 0.51,-2.324 0.51,-2.325 0.51,-2.32 0.5,-2.324 0.5,-2.324 0.5,-2.321 0.49,-2.324 0.49,-2.324 0.49,-2.32 0.48,-2.325 0.48,-2.324 0.48,-2.32 0.47,-2.324 0.47,-2.325 0.47,-2.32 0.46,-2.324 0.46,-2.324 0.46,-2.325 0.45,-2.32 0.46,-2.324 0.44,-2.324 0.45,-2.321 0.44,-2.324 0.44,-2.324 0.43,-2.32 0.44,-2.325 0.43,-2.324 0.42,-2.32 0.42,-2.324 0.43,-2.325 0.41,-2.32 0.42,-2.324 0.41,-2.324 0.41,-2.321 0.41,-2.324 0.4,-2.324 0.4,-2.32 0.4,-2.325 0.4,-2.324 0.39,-2.32 0.39,-2.324 0.38,-2.325 0.39,-2.32 0.38,-2.324 0.38,-2.324 0.38,-2.321 0.37,-2.324 0.37,-2.324 0.37,-2.32 0.37,-2.325 0.36,-2.324 0.36,-2.324 0.36,-2.32 0.36,-2.325 0.35,-2.324 0.36,-2.32 0.34,-2.324 0.35,-2.325 0.34,-2.32 0.34,-2.324 0.34,-2.324 0.34,-2.321 0.34,-2.324 0.33,-2.324 0.33,-2.32 0.33,-2.325 0.33,-2.324 0.32,-2.32 0.32,-2.324 0.32,-2.325 0.31,-2.32 0.32,-2.324 0.31,-2.324 0.31,-2.321 0.31,-2.324 0.31,-2.324 0.3,-2.32 0.3,-2.325 0.3,-2.324 0.3,-2.32 0.29,-2.324 0.3,-2.325 0.29,-2.32 0.29,-2.324 0.29,-2.324 0.28,-2.321 0.29,-2.324 0.28,-2.324 0.28,-2.32 0.28,-2.325 0.27,-2.324 0.28,-2.324 0.27,-2.32 0.27,-2.325 0.27,-2.324 0.26,-2.32 0.27,-2.324 0.26,-2.325 0.26,-2.32 0.26,-2.324 0.26,-2.324 0.26,-2.321 0.25,-2.324 0.25,-2.324 0.25,-2.32 0.25,-2.325 0.25,-2.324 0.24,-2.32 0.24,-2.324 0.25,-2.325 0.24,-2.32 0.24,-2.324 0.23,-2.324 0.24,-2.321 0.23,-2.324 0.23,-2.324 0.24,-2.32 0.22,-2.325 0.23,-2.324 0.23,-2.32 0.22,-2.324 0.22,-2.325 0.22,-2.32 0.23,-2.324 0.21,-2.324 0.22,-2.321 0.21,-2.324 0.22,-2.324 0.21,-2.324 0.21,-2.321 0.21,-2.324 0.2,-2.324 0.21,-2.32 0.21,-2.325 0.2,-2.324 0.2,-2.32 0.2,-2.324 0.2,-2.325 0.2,-2.32 0.2,-2.324 0.19,-2.324 0.19,-2.321 0.2,-2.324 0.19,-2.324 0.19,-2.32 0.19,-2.325 0.18,-2.324 0.19,-2.32 0.19,-2.324 0.18,-2.325 0.18,-2.32 0.18,-2.324 0.18,-2.324 0.18,-2.321 0.18,-2.324 0.17,-2.324 0.18,-2.32 0.17,-2.325 0.17,-2.324 0.17,-2.324 0.18,-2.32 0.16,-2.325 0.17,-2.32 0.17,-2.324 0.16,-2.324 0.16,-2.321 0.17,-2.324 0.16,-2.324 0.16,-2.324 0.16,-2.321 0.16,-2.324 0.16,-2.324 0.16,-2.32 0.15,-2.325 0.15,-2.324 0.16,-2.32 0.15,-2.324"
             style="fill:none;stroke:#0eff00;stroke-width:4.16667;stroke-linecap:butt;stroke-linejoin:miter;stroke-miterlimit:1;stroke-dasharray:12.5, 12.5;stroke-dashoffset:0;stroke-opacity:1"
             id="path2327" /><path
             d="m 1998.97,526.887 v 0 l 0.15,-2.324 0.15,-2.321 0.15,-2.324 0.15,-2.324 0.14,-2.321 0.15,-2.324 0.14,-2.324 0.15,-2.32 0.14,-2.325"
             style="fill:none;stroke:#0eff00;stroke-width:4.16667;stroke-linecap:butt;stroke-linejoin:miter;stroke-miterlimit:1;stroke-dasharray:12.5, 12.5;stroke-dashoffset:0;stroke-opacity:1"
             id="path2329" /></g></g></g></g></svg>
