<?xml version="1.0" encoding="UTF-8" standalone="no"?>
<svg
   xmlns:dc="http://purl.org/dc/elements/1.1/"
   xmlns:cc="http://creativecommons.org/ns#"
   xmlns:rdf="http://www.w3.org/1999/02/22-rdf-syntax-ns#"
   xmlns:svg="http://www.w3.org/2000/svg"
   xmlns="http://www.w3.org/2000/svg"
   version="1.1"
   id="svg10"
   xml:space="preserve"
   width="604.84106"
   height="361.33768"
   viewBox="0 0 907.26158 542.00654"><metadata
     id="metadata16"><rdf:RDF><cc:Work
         rdf:about=""><dc:format>image/svg+xml</dc:format><dc:type
           rdf:resource="http://purl.org/dc/dcmitype/StillImage" /><dc:title></dc:title></cc:Work></rdf:RDF></metadata><defs
     id="defs14"><clipPath
       clipPathUnits="userSpaceOnUse"
       id="clipPath28"><path
         d="m 375,299.582 h 1729.17 v 2908.34 H 375 Z"
         id="path26" /></clipPath><clipPath
       clipPathUnits="userSpaceOnUse"
       id="clipPath226"><path
         d="m 500,370.418 h 720.832 v 2620.83 H 500 Z"
         id="path224" /></clipPath><clipPath
       clipPathUnits="userSpaceOnUse"
       id="clipPath238"><path
         d="m 375,299.582 h 1729.17 v 2908.34 H 375 Z"
         id="path236" /></clipPath><clipPath
       clipPathUnits="userSpaceOnUse"
       id="clipPath252"><path
         d="m 500,370.418 h 720.832 v 2620.83 H 500 Z"
         id="path250" /></clipPath><clipPath
       clipPathUnits="userSpaceOnUse"
       id="clipPath264"><path
         d="m 375,299.582 h 1729.17 v 2908.34 H 375 Z"
         id="path262" /></clipPath><clipPath
       clipPathUnits="userSpaceOnUse"
       id="clipPath278"><path
         d="m 1300,370.418 h 720.832 v 2620.83 H 1300 Z"
         id="path276" /></clipPath></defs><g
     id="g18"
     transform="matrix(0,-1.3333333,-1.3333333,0,1025.6049,667.07604)"><g
       id="g20"
       transform="scale(0.24)"><g
         id="g22"><g
           id="g24"
           clip-path="url(#clipPath28)"><path
             d="M 500,2990.65 H 458.332"
             style="fill:none;stroke:#969696;stroke-width:4.16667;stroke-linecap:butt;stroke-linejoin:miter;stroke-miterlimit:10;stroke-dasharray:none;stroke-opacity:1"
             id="path30" /><g
             id="g32"
             transform="scale(4.16667)"><text
               transform="matrix(0,-1,-1,0,94.0003,730.4)"
               style="font-variant:normal;font-weight:normal;font-size:14px;font-family:Menlo;-inkscape-font-specification:Menlo-Regular;writing-mode:lr-tb;fill:#969696;fill-opacity:1;fill-rule:nonzero;stroke:none"
               id="text36"><tspan
                 x="0 8.4280005 16.855413"
                 y="0"
                 id="tspan34">0ms</tspan></text></g><path
             d="M 500,2728.78 H 458.332"
             style="fill:none;stroke:#969696;stroke-width:4.16667;stroke-linecap:butt;stroke-linejoin:miter;stroke-miterlimit:10;stroke-dasharray:none;stroke-opacity:1"
             id="path38" /><g
             id="g40"
             transform="scale(4.16667)"><text
               transform="matrix(0,-1,-1,0,94.0003,667.55)"
               style="font-variant:normal;font-weight:normal;font-size:14px;font-family:Menlo;-inkscape-font-specification:Menlo-Regular;writing-mode:lr-tb;fill:#969696;fill-opacity:1;fill-rule:nonzero;stroke:none"
               id="text44"><tspan
                 x="0 8.4280005 16.855413"
                 y="0"
                 id="tspan42">1ms</tspan></text></g><path
             d="M 500,2466.9 H 458.332"
             style="fill:none;stroke:#969696;stroke-width:4.16667;stroke-linecap:butt;stroke-linejoin:miter;stroke-miterlimit:10;stroke-dasharray:none;stroke-opacity:1"
             id="path46" /><g
             id="g48"
             transform="scale(4.16667)"><text
               transform="matrix(0,-1,-1,0,94.0003,604.7)"
               style="font-variant:normal;font-weight:normal;font-size:14px;font-family:Menlo;-inkscape-font-specification:Menlo-Regular;writing-mode:lr-tb;fill:#969696;fill-opacity:1;fill-rule:nonzero;stroke:none"
               id="text52"><tspan
                 x="0 8.4280005 16.855413"
                 y="0"
                 id="tspan50">2ms</tspan></text></g><path
             d="M 500,2205.03 H 458.332"
             style="fill:none;stroke:#969696;stroke-width:4.16667;stroke-linecap:butt;stroke-linejoin:miter;stroke-miterlimit:10;stroke-dasharray:none;stroke-opacity:1"
             id="path54" /><g
             id="g56"
             transform="scale(4.16667)"><text
               transform="matrix(0,-1,-1,0,94.0003,541.85)"
               style="font-variant:normal;font-weight:normal;font-size:14px;font-family:Menlo;-inkscape-font-specification:Menlo-Regular;writing-mode:lr-tb;fill:#969696;fill-opacity:1;fill-rule:nonzero;stroke:none"
               id="text60"><tspan
                 x="0 8.4274139 16.855413"
                 y="0"
                 id="tspan58">3ms</tspan></text></g><path
             d="M 500,1943.15 H 458.332"
             style="fill:none;stroke:#969696;stroke-width:4.16667;stroke-linecap:butt;stroke-linejoin:miter;stroke-miterlimit:10;stroke-dasharray:none;stroke-opacity:1"
             id="path62" /><g
             id="g64"
             transform="scale(4.16667)"><text
               transform="matrix(0,-1,-1,0,94.0003,479)"
               style="font-variant:normal;font-weight:normal;font-size:14px;font-family:Menlo;-inkscape-font-specification:Menlo-Regular;writing-mode:lr-tb;fill:#969696;fill-opacity:1;fill-rule:nonzero;stroke:none"
               id="text68"><tspan
                 x="0 8.4274139 16.855413"
                 y="0"
                 id="tspan66">4ms</tspan></text></g><path
             d="M 500,1681.28 H 458.332"
             style="fill:none;stroke:#969696;stroke-width:4.16667;stroke-linecap:butt;stroke-linejoin:miter;stroke-miterlimit:10;stroke-dasharray:none;stroke-opacity:1"
             id="path70" /><g
             id="g72"
             transform="scale(4.16667)"><text
               transform="matrix(0,-1,-1,0,94.0003,416.15)"
               style="font-variant:normal;font-weight:normal;font-size:14px;font-family:Menlo;-inkscape-font-specification:Menlo-Regular;writing-mode:lr-tb;fill:#969696;fill-opacity:1;fill-rule:nonzero;stroke:none"
               id="text76"><tspan
                 x="0 8.4274139 16.855413"
                 y="0"
                 id="tspan74">5ms</tspan></text></g><path
             d="M 500,1419.41 H 458.332"
             style="fill:none;stroke:#969696;stroke-width:4.16667;stroke-linecap:butt;stroke-linejoin:miter;stroke-miterlimit:10;stroke-dasharray:none;stroke-opacity:1"
             id="path78" /><g
             id="g80"
             transform="scale(4.16667)"><text
               transform="matrix(0,-1,-1,0,94.0003,353.3)"
               style="font-variant:normal;font-weight:normal;font-size:14px;font-family:Menlo;-inkscape-font-specification:Menlo-Regular;writing-mode:lr-tb;fill:#969696;fill-opacity:1;fill-rule:nonzero;stroke:none"
               id="text84"><tspan
                 x="0 8.4274139 16.855413"
                 y="0"
                 id="tspan82">6ms</tspan></text></g><path
             d="M 500,1157.53 H 458.332"
             style="fill:none;stroke:#969696;stroke-width:4.16667;stroke-linecap:butt;stroke-linejoin:miter;stroke-miterlimit:10;stroke-dasharray:none;stroke-opacity:1"
             id="path86" /><g
             id="g88"
             transform="scale(4.16667)"><text
               transform="matrix(0,-1,-1,0,94.0003,290.451)"
               style="font-variant:normal;font-weight:normal;font-size:14px;font-family:Menlo;-inkscape-font-specification:Menlo-Regular;writing-mode:lr-tb;fill:#969696;fill-opacity:1;fill-rule:nonzero;stroke:none"
               id="text92"><tspan
                 x="0 8.4280005 16.856001"
                 y="0"
                 id="tspan90">7ms</tspan></text></g><path
             d="M 500,895.656 H 458.332"
             style="fill:none;stroke:#969696;stroke-width:4.16667;stroke-linecap:butt;stroke-linejoin:miter;stroke-miterlimit:10;stroke-dasharray:none;stroke-opacity:1"
             id="path94" /><g
             id="g96"
             transform="scale(4.16667)"><text
               transform="matrix(0,-1,-1,0,94.0003,227.601)"
               style="font-variant:normal;font-weight:normal;font-size:14px;font-family:Menlo;-inkscape-font-specification:Menlo-Regular;writing-mode:lr-tb;fill:#969696;fill-opacity:1;fill-rule:nonzero;stroke:none"
               id="text100"><tspan
                 x="0 8.4280005 16.856001"
                 y="0"
                 id="tspan98">8ms</tspan></text></g><path
             d="M 500,633.781 H 458.332"
             style="fill:none;stroke:#969696;stroke-width:4.16667;stroke-linecap:butt;stroke-linejoin:miter;stroke-miterlimit:10;stroke-dasharray:none;stroke-opacity:1"
             id="path102" /><g
             id="g104"
             transform="scale(4.16667)"><text
               transform="matrix(0,-1,-1,0,94.0003,164.751)"
               style="font-variant:normal;font-weight:normal;font-size:14px;font-family:Menlo;-inkscape-font-specification:Menlo-Regular;writing-mode:lr-tb;fill:#969696;fill-opacity:1;fill-rule:nonzero;stroke:none"
               id="text110"><tspan
                 x="0 8.4280005 16.855413"
                 y="0"
                 id="tspan106">9ms</tspan><tspan
                 x="-571.43402 -579.86304 -588.2912 -596.72028"
                 y="-20"
                 id="tspan108">V03-</tspan></text></g><path
             d="m 500,2990.65 v 41.67"
             style="fill:none;stroke:#969696;stroke-width:4.16667;stroke-linecap:butt;stroke-linejoin:miter;stroke-miterlimit:10;stroke-dasharray:none;stroke-opacity:1"
             id="path112" /><g
             id="g114"
             transform="scale(4.16667)"><text
               transform="matrix(0,-1,-1,0,142.75,736.185)"
               style="font-variant:normal;font-weight:normal;font-size:14px;font-family:Menlo;-inkscape-font-specification:Menlo-Regular;writing-mode:lr-tb;fill:#969696;fill-opacity:1;fill-rule:nonzero;stroke:none"
               id="text118"><tspan
                 x="0 -8.42906 -16.857189 -25.286249"
                 y="0"
                 id="tspan116">V02-</tspan></text></g><path
             d="m 619.793,2990.65 v 41.67"
             style="fill:none;stroke:#969696;stroke-width:4.16667;stroke-linecap:butt;stroke-linejoin:miter;stroke-miterlimit:10;stroke-dasharray:none;stroke-opacity:1"
             id="path120" /><g
             id="g122"
             transform="scale(4.16667)"><text
               transform="matrix(0,-1,-1,0,171.5,736.185)"
               style="font-variant:normal;font-weight:normal;font-size:14px;font-family:Menlo;-inkscape-font-specification:Menlo-Regular;writing-mode:lr-tb;fill:#969696;fill-opacity:1;fill-rule:nonzero;stroke:none"
               id="text126"><tspan
                 x="0 -8.42906 -16.857189 -25.286249"
                 y="0"
                 id="tspan124">V01-</tspan></text></g><path
             d="m 739.582,2990.65 v 41.67"
             style="fill:none;stroke:#969696;stroke-width:4.16667;stroke-linecap:butt;stroke-linejoin:miter;stroke-miterlimit:10;stroke-dasharray:none;stroke-opacity:1"
             id="path128" /><g
             id="g130"
             transform="scale(4.16667)"><text
               transform="matrix(0,-1,-1,0,200.25,736.185)"
               style="font-variant:normal;font-weight:normal;font-size:14px;font-family:Menlo;-inkscape-font-specification:Menlo-Regular;writing-mode:lr-tb;fill:#969696;fill-opacity:1;fill-rule:nonzero;stroke:none"
               id="text134"><tspan
                 x="0 -8.42906"
                 y="0"
                 id="tspan132">V0</tspan></text></g><path
             d="m 859.375,2990.65 v 41.67"
             style="fill:none;stroke:#969696;stroke-width:4.16667;stroke-linecap:butt;stroke-linejoin:miter;stroke-miterlimit:10;stroke-dasharray:none;stroke-opacity:1"
             id="path136" /><g
             id="g138"
             transform="scale(4.16667)"><text
               transform="matrix(0,-1,-1,0,229,736.185)"
               style="font-variant:normal;font-weight:normal;font-size:14px;font-family:Menlo;-inkscape-font-specification:Menlo-Regular;writing-mode:lr-tb;fill:#969696;fill-opacity:1;fill-rule:nonzero;stroke:none"
               id="text142"><tspan
                 x="0 -8.42906 -16.857189"
                 y="0"
                 id="tspan140">V01</tspan></text></g><path
             d="m 979.168,2990.65 v 41.67"
             style="fill:none;stroke:#969696;stroke-width:4.16667;stroke-linecap:butt;stroke-linejoin:miter;stroke-miterlimit:10;stroke-dasharray:none;stroke-opacity:1"
             id="path144" /><g
             id="g146"
             transform="scale(4.16667)"><text
               transform="matrix(0,-1,-1,0,257.75,736.185)"
               style="font-variant:normal;font-weight:normal;font-size:14px;font-family:Menlo;-inkscape-font-specification:Menlo-Regular;writing-mode:lr-tb;fill:#969696;fill-opacity:1;fill-rule:nonzero;stroke:none"
               id="text150"><tspan
                 x="0 -8.42906 -16.857189"
                 y="0"
                 id="tspan148">V02</tspan></text></g><path
             d="m 1098.96,2990.65 v 41.67"
             style="fill:none;stroke:#969696;stroke-width:4.16667;stroke-linecap:butt;stroke-linejoin:miter;stroke-miterlimit:10;stroke-dasharray:none;stroke-opacity:1"
             id="path152" /><g
             id="g154"
             transform="scale(4.16667)"><text
               transform="matrix(0,-1,-1,0,286.5,736.185)"
               style="font-variant:normal;font-weight:normal;font-size:14px;font-family:Menlo;-inkscape-font-specification:Menlo-Regular;writing-mode:lr-tb;fill:#969696;fill-opacity:1;fill-rule:nonzero;stroke:none"
               id="text158"><tspan
                 x="0 -8.42906 -16.857189"
                 y="0"
                 id="tspan156">V03</tspan></text></g><path
             d="m 1218.75,2990.65 v 41.67"
             style="fill:none;stroke:#969696;stroke-width:4.16667;stroke-linecap:butt;stroke-linejoin:miter;stroke-miterlimit:10;stroke-dasharray:none;stroke-opacity:1"
             id="path160" /><path
             d="m 500,371.906 h 718.75 v 2618.75 H 500 Z"
             style="fill:none;stroke:#969696;stroke-width:4.16667;stroke-linecap:butt;stroke-linejoin:miter;stroke-miterlimit:10;stroke-dasharray:none;stroke-opacity:1"
             id="path162" /><g
             id="g164"
             transform="scale(4.16667)"><text
               transform="matrix(0,-1,-1,0,306.5,736.185)"
               style="font-variant:normal;font-weight:normal;font-size:14px;font-family:Menlo;-inkscape-font-specification:Menlo-Regular;writing-mode:lr-tb;fill:#afafaf;fill-opacity:1;fill-rule:nonzero;stroke:none"
               id="text168"><tspan
                 x="0 -8.42906 -16.857189 -25.286249 -33.715309"
                 y="0"
                 id="tspan166">V0.1-</tspan></text></g><path
             d="m 1302.08,2990.65 v 41.67"
             style="fill:none;stroke:#afafaf;stroke-width:4.16667;stroke-linecap:butt;stroke-linejoin:miter;stroke-miterlimit:10;stroke-dasharray:none;stroke-opacity:1"
             id="path170" /><g
             id="g172"
             transform="scale(4.16667)"><text
               transform="matrix(0,-1,-1,0,341,736.185)"
               style="font-variant:normal;font-weight:normal;font-size:14px;font-family:Menlo;-inkscape-font-specification:Menlo-Regular;writing-mode:lr-tb;fill:#afafaf;fill-opacity:1;fill-rule:nonzero;stroke:none"
               id="text176"><tspan
                 x="0 -8.42906 -16.857189 -25.286249 -33.715309"
                 y="0"
                 id="tspan174">V6.0-</tspan></text></g><path
             d="m 1445.83,2990.65 v 41.67"
             style="fill:none;stroke:#afafaf;stroke-width:4.16667;stroke-linecap:butt;stroke-linejoin:miter;stroke-miterlimit:10;stroke-dasharray:none;stroke-opacity:1"
             id="path178" /><g
             id="g180"
             transform="scale(4.16667)"><text
               transform="matrix(0,-1,-1,0,375.5,736.185)"
               style="font-variant:normal;font-weight:normal;font-size:14px;font-family:Menlo;-inkscape-font-specification:Menlo-Regular;writing-mode:lr-tb;fill:#afafaf;fill-opacity:1;fill-rule:nonzero;stroke:none"
               id="text184"><tspan
                 x="0 -8.42906 -16.857189 -25.286249 -33.715309"
                 y="0"
                 id="tspan182">V2.0-</tspan></text></g><path
             d="m 1589.58,2990.65 v 41.67"
             style="fill:none;stroke:#afafaf;stroke-width:4.16667;stroke-linecap:butt;stroke-linejoin:miter;stroke-miterlimit:10;stroke-dasharray:none;stroke-opacity:1"
             id="path186" /><g
             id="g188"
             transform="scale(4.16667)"><text
               transform="matrix(0,-1,-1,0,410,736.185)"
               style="font-variant:normal;font-weight:normal;font-size:14px;font-family:Menlo;-inkscape-font-specification:Menlo-Regular;writing-mode:lr-tb;fill:#afafaf;fill-opacity:1;fill-rule:nonzero;stroke:none"
               id="text192"><tspan
                 x="0 -8.42906 -16.857189 -25.286249"
                 y="0"
                 id="tspan190">V2.0</tspan></text></g><path
             d="m 1733.33,2990.65 v 41.67"
             style="fill:none;stroke:#afafaf;stroke-width:4.16667;stroke-linecap:butt;stroke-linejoin:miter;stroke-miterlimit:10;stroke-dasharray:none;stroke-opacity:1"
             id="path194" /><g
             id="g196"
             transform="scale(4.16667)"><text
               transform="matrix(0,-1,-1,0,444.5,736.185)"
               style="font-variant:normal;font-weight:normal;font-size:14px;font-family:Menlo;-inkscape-font-specification:Menlo-Regular;writing-mode:lr-tb;fill:#afafaf;fill-opacity:1;fill-rule:nonzero;stroke:none"
               id="text200"><tspan
                 x="0 -8.42906 -16.857189 -25.286249"
                 y="0"
                 id="tspan198">V6.0</tspan></text></g><path
             d="m 1877.08,2990.65 v 41.67"
             style="fill:none;stroke:#afafaf;stroke-width:4.16667;stroke-linecap:butt;stroke-linejoin:miter;stroke-miterlimit:10;stroke-dasharray:none;stroke-opacity:1"
             id="path202" /><g
             id="g204"
             transform="scale(4.16667)"><text
               transform="matrix(0,-1,-1,0,479,736.185)"
               style="font-variant:normal;font-weight:normal;font-size:14px;font-family:Menlo;-inkscape-font-specification:Menlo-Regular;writing-mode:lr-tb;fill:#afafaf;fill-opacity:1;fill-rule:nonzero;stroke:none"
               id="text208"><tspan
                 x="0 -8.42906 -16.857189 -25.286249"
                 y="0"
                 id="tspan206">V0.1</tspan></text></g><path
             d="m 2020.83,2990.65 v 41.67"
             style="fill:none;stroke:#afafaf;stroke-width:4.16667;stroke-linecap:butt;stroke-linejoin:miter;stroke-miterlimit:10;stroke-dasharray:none;stroke-opacity:1"
             id="path210" /><path
             d="m 1302.08,371.906 h 718.75 v 2618.75 h -718.75 z"
             style="fill:none;stroke:#afafaf;stroke-width:4.16667;stroke-linecap:butt;stroke-linejoin:miter;stroke-miterlimit:10;stroke-dasharray:none;stroke-opacity:1"
             id="path212" /><g
             id="g214"
             transform="scale(4.16667)"><text
               transform="matrix(0,-1,-1,0,296,594.472)"
               style="font-variant:normal;font-weight:normal;font-size:14px;font-family:Menlo;-inkscape-font-specification:Menlo-Regular;writing-mode:lr-tb;fill:#0eff00;fill-opacity:1;fill-rule:nonzero;stroke:none"
               id="text218"><tspan
                 x="0 8.4280005 16.855413 25.283415 33.711414 42.138828 50.56683 58.994827"
                 y="0"
                 id="tspan216">V(vout1)</tspan></text></g></g></g><g
         id="g220"><g
           id="g222"
           clip-path="url(#clipPath226)"><path
             d="m 850.723,2990.65 v 0 l -16.973,-5.04 -16.852,-5.04 -16.734,-5.03 -16.613,-5.04 -14.406,-4.38 -14.094,-4.38 -13.774,-4.37 -13.461,-4.38 -13.144,-4.38 -12.828,-4.38 -12.516,-4.37 -12.195,-4.38 -11.879,-4.38 -11.566,-4.38 -10.309,-4.01 -9.805,-4.01 -9.304,-4.01 -8.805,-4.01 -8.301,-4.02 -7.797,-4.01 -7.297,-4.01 -6.793,-4.01 -6.293,-4.01 -5.793,-4.01 -5.289,-4.02 -4.785,-4.01 -4.285,-4.01 -3.781,-4.01 -3.281,-4.01 -2.782,-4.01 -2.277,-4.01 -1.773,-4.01 -1.813,-10.48 1.926,-10.3 5.707,-10.47 9.957,-11.79 5.242,-4.17 5.707,-4.17 6.18,-4.18 6.64,-4.17 7.114,-4.18 7.578,-4.17 8.047,-4.17 8.511,-4.18 8.981,-4.17 9.449,-4.17 9.918,-4.18 10.383,-4.17 10.851,-4.17 11.317,-4.18 11.785,-4.17 12.254,-4.17 13.898,-4.67 14.149,-4.66 14.402,-4.67 14.656,-4.66 14.911,-4.67 15.16,-4.66 15.414,-4.67 15.672,-4.66 11.523,-3.44 11.543,-3.43 11.566,-3.44 11.59,-3.44 12.684,-3.76 12.629,-3.77 12.57,-3.76 12.52,-3.77 13.304,-3.99 13.078,-4 12.852,-3.99 12.629,-3.99 12.402,-4 12.18,-3.99 11.956,-3.99 11.73,-4 11.5,-3.99 11.28,-4 10.83,-3.92 10.41,-3.93 9.97,-3.93 9.53,-3.93 9.1,-3.93 8.67,-3.92 8.23,-3.93 7.8,-3.93 7.37,-3.93 6.93,-3.93 6.49,-3.92 6.07,-3.93 5.63,-3.93 5.2,-3.93 10.75,-10.47 7.54,-10.48 3.83,-10.47 0.08,-10.48 -3.67,-10.47 -7.37,-10.48 -11.78,-11.78 -5.41,-3.93 -5.82,-3.93 -6.24,-3.93 -6.66,-3.93 -7.08,-3.92 -7.5,-3.93 -7.92,-3.93 -8.34,-3.93 -8.75,-3.93 -9.18,-3.92 -9.59,-3.93 -10.01,-3.93 -10.43,-3.93 -10.85,-3.93 -11.33,-3.99 -11.54,-3.99 -11.77,-4 -11.996,-3.99 -12.211,-4 -12.433,-3.99 -12.657,-3.99 -12.875,-4 -13.097,-3.99 -13.317,-3.99 -12.531,-3.77 -12.582,-3.76 -12.633,-3.76 -12.68,-3.77 -20.945,-6.22 -20.871,-6.22 -14.016,-4.17 -13.828,-4.17 -13.64,-4.18 -13.457,-4.17 -13.27,-4.18 -13.082,-4.17 -12.894,-4.17 -12.711,-4.18 -12.375,-4.11 -11.957,-4.12 -11.532,-4.11 -11.113,-4.12 -10.687,-4.11 -10.27,-4.12 -9.848,-4.12 -9.422,-4.11 -9.003,-4.12 -8.582,-4.11 -8.157,-4.11 -7.738,-4.12 -7.316,-4.11 -6.891,-4.12 -12.938,-9.16 -5.832,-5.24 -9.148,-10.48 -5.883,-10.47 -2.117,-10.48 1.672,-10.47 5.433,-10.48 9.676,-11.78 5.141,-4.17 5.609,-4.18 6.078,-4.17 6.555,-4.18 7.02,-4.17 7.492,-4.18 7.961,-4.17 8.433,-4.17 8.899,-4.18 9.375,-4.17 9.844,-4.17 10.312,-4.17 10.781,-4.18 11.254,-4.17 11.723,-4.18 12.195,-4.17 13.836,-4.66 14.098,-4.67 14.355,-4.66 14.613,-4.67 14.872,-4.66 15.132,-4.67 15.391,-4.66 15.648,-4.67 10.965,-3.27 10.989,-3.27 11.011,-3.28 11.035,-3.27 16.536,-4.91 16.48,-4.91 14.024,-4.18 13.839,-4.17 13.661,-4.17 13.472,-4.18 13.289,-4.17 13.106,-4.17 12.918,-4.18 12.742,-4.17 12.4,-4.11 11.98,-4.12 11.57,-4.11 11.15,-4.12 10.73,-4.12 10.31,-4.11 9.9,-4.12 9.47,-4.11 9.06,-4.12 8.64,-4.11 8.22,-4.12 7.8,-4.11 7.38,-4.12 6.97,-4.11 13.12,-9.17 5.95,-5.24 9.41,-10.47 6.17,-10.48 2.45,-10.47 -1.31,-10.48 -5.04,-10.47 -9.2,-11.79 -5.01,-4.21 -5.49,-4.21 -5.97,-4.22 -6.46,-4.21 -6.93,-4.22 -7.41,-4.21 -7.9,-4.22 -8.38,-4.21 -8.86,-4.22 -9.34,-4.21 -9.82,-4.22 -10.3,-4.21 -10.78,-4.21 -11.27,-4.22 -11.74,-4.21 -12.22,-4.22 -11.18,-3.79 -11.355,-3.8 -11.528,-3.8 -11.703,-3.8 -11.879,-3.79 -12.054,-3.8 -12.227,-3.8 -12.402,-3.8 -12.574,-3.79 -12.754,-3.8 -19.731,-5.89 -19.828,-5.89 -18.738,-5.57 -18.68,-5.56 -14.586,-4.34 -14.387,-4.34 -14.183,-4.33 -13.985,-4.34 -13.785,-4.34 -13.582,-4.34 -13.383,-4.34 -13.183,-4.33 -12.754,-4.26 -12.301,-4.25 -11.844,-4.26 -11.382,-4.25 -10.93,-4.26 -10.473,-4.25 -10.011,-4.26 -9.559,-4.26 -9.098,-4.25 -8.644,-4.26 -8.184,-4.25 -7.726,-4.26 -7.27,-4.25 -6.816,-4.26 -9.059,-6.54 -8.508,-7.86 -8.242,-10.48 -5.078,-10.47 -1.285,-9.25 2.086,-10.02 5.789,-10.47 10.023,-11.79 5.262,-4.18 5.73,-4.17 6.2,-4.17 6.664,-4.17 7.132,-4.18 7.598,-4.17 8.067,-4.17 8.531,-4.18 9,-4.17 9.465,-4.18 9.933,-4.17 10.399,-4.17 10.867,-4.18 11.336,-4.17 11.797,-4.17 12.269,-4.18 13.91,-4.66 14.161,-4.67 14.414,-4.66 14.664,-4.67 14.918,-4.66 15.168,-4.67 15.421,-4.66 15.672,-4.66 11.528,-3.44 11.547,-3.44 11.566,-3.44 11.59,-3.43 14.89,-4.42 14.801,-4.42 14.719,-4.42 14.629,-4.42 13.871,-4.19 13.598,-4.19 13.332,-4.19 13.058,-4.19 12.789,-4.19 12.517,-4.19 12.25,-4.19 11.98,-4.19 11.71,-4.19 11.43,-4.19 10.59,-3.97 10.11,-3.96 9.64,-3.96 9.16,-3.97 8.68,-3.96 8.21,-3.97 7.74,-3.96 7.25,-3.97 6.78,-3.96 6.31,-3.97 5.83,-3.96 5.36,-3.97 4.88,-3.96 4.4,-3.96 3.93,-3.97 3.46,-3.96 2.97,-3.97 2.51,-3.96 3.76,-10.48 0.02,-10.47 -3.72,-10.48 -7.43,-10.47 -11.85,-11.78 -5.42,-3.93 -5.85,-3.93 -6.26,-3.93 -6.68,-3.93 -7.1,-3.92 -7.51,-3.93 -7.94,-3.93 -8.35,-3.93 -8.78,-3.93 -9.19,-3.93 -9.6,-3.93 -10.03,-3.92 -10.45,-3.93 -10.86,-3.93 -11.34,-3.99 -11.56,-3.99 -11.78,-4 -12.003,-3.99 -12.223,-4 -12.441,-3.99 -12.664,-3.99 -12.879,-4 -13.106,-3.99 -13.32,-3.99 -12.535,-3.77 -12.586,-3.77 -12.633,-3.76 -12.684,-3.76 -30.839,-9.17 -13.52,-4.01 -13.367,-4.01 -13.219,-4.01 -13.066,-4.01 -12.922,-4.01 -12.77,-4.01 -12.617,-4.01 -12.469,-4.01 -12.832,-4.16 -12.418,-4.16 -12.011,-4.16 -11.598,-4.17 -11.188,-4.16 -10.773,-4.16 -10.367,-4.16 -9.953,-4.16 -9.543,-4.17 -9.133,-4.16 -8.723,-4.16 -8.308,-4.16 -7.899,-4.16 -7.488,-4.16 -6.785,-4.26 -6.184,-4.26 -5.586,-4.25 -4.988,-4.26 -4.391,-4.25 -3.789,-4.26 -3.187,-4.25 -2.594,-4.26 -1.992,-4.26 -1.395,-4.25 -0.797,-4.26 -0.195,-4.25 0.403,-4.25 1,-4.26 1.601,-4.26 2.199,-4.25 2.797,-4.26 3.395,-4.25 3.996,-4.26 4.594,-4.25 12.226,-9.17 14.867,-9.17 17.391,-9.16 19.766,-9.168 9.445,-3.98 9.754,-3.985 10.066,-3.98 10.375,-3.984 10.688,-3.985 10.996,-3.98 11.308,-3.985 11.614,-3.98 11.929,-3.985 12.239,-3.98 12.546,-3.984 12.856,-3.985 14.133,-4.363 14.254,-4.363 14.375,-4.364 14.496,-4.367 14.617,-4.363 14.734,-4.367 17.649,-5.235 17.621,-5.238 12.969,-3.848 12.836,-3.843 12.703,-3.848 12.574,-3.848 12.445,-3.843 12.309,-3.848 12.183,-3.848 12.047,-3.843 12.067,-3.883 11.727,-3.883 11.37,-3.879 11.04,-3.883 10.69,-3.879 10.34,-3.883 10,-3.882 9.66,-3.879 9.31,-3.883 8.97,-3.883 8.62,-3.879 8.28,-3.883 7.93,-3.878 7.59,-3.883 15.67,-9.164 13.07,-9.168 5.92,-5.239 9.35,-10.472 6.12,-10.477 2.39,-10.472 -1.37,-10.477 -5.1,-10.477 -9.26,-11.781 -5.04,-4.215 -5.51,-4.215 -5.99,-4.214 -6.48,-4.215 -6.95,-4.215 -7.44,-4.215 -7.92,-4.215 -8.39,-4.215 -8.88,-4.214 -9.36,-4.215 -9.83,-4.215 -10.32,-4.215 -10.8,-4.211 -11.28,-4.215 -11.76,-4.215 -12.24,-4.214 -13.51,-4.582 -13.781,-4.586 -14.032,-4.582 -14.293,-4.582 -14.546,-4.583 -14.809,-4.582 -15.063,-4.585 -15.324,-4.583 -10.937,-3.273 -10.969,-3.273 -10.996,-3.274 -11.031,-3.273 -17.637,-5.239 -15.457,-4.582 -15.305,-4.582 -15.156,-4.582 -15.008,-4.582 -14.859,-4.586 -14.707,-4.582 -13.75,-4.308 -13.364,-4.309 -12.98,-4.312 -12.594,-4.309 -12.211,-4.312"
             style="fill:none;stroke:#0eff00;stroke-width:4.16667;stroke-linecap:butt;stroke-linejoin:miter;stroke-miterlimit:1;stroke-dasharray:none;stroke-opacity:1"
             id="path228" /><path
             d="m 687.031,558.477 v 0 l -11.828,-4.309 -11.441,-4.309 -11.059,-4.312 -10.672,-4.309 -10.289,-4.308 -9.906,-4.313 -9.52,-4.308 -8.89,-4.297 -8.274,-4.293 -7.664,-4.297 -7.054,-4.297 -6.438,-4.293 -5.828,-4.297 -5.215,-4.293 -4.605,-4.297 -3.993,-4.293 -3.378,-4.297 -2.766,-4.296 -2.156,-4.293 -1.543,-4.297 -0.93,-4.293 -0.316,-4.297 0.293,-4.297 0.906,-4.293 1.515,-4.297 2.133,-4.293 2.742,-4.297 10.032,-11.785 4.828,-3.926 5.265,-3.929 5.7,-3.93 6.136,-3.926 6.579,-3.929 7.007,-3.926 7.45,-3.93 7.882,-3.93 8.321,-3.925 8.758,-3.93 9.191,-3.926 9.629,-3.93 10.066,-3.929 10.504,-3.926 7.082,-2.621 3.004,-1.098"
             style="fill:none;stroke:#0eff00;stroke-width:4.16667;stroke-linecap:butt;stroke-linejoin:miter;stroke-miterlimit:1;stroke-dasharray:none;stroke-opacity:1"
             id="path230" /></g></g><g
         id="g232"><g
           id="g234"
           clip-path="url(#clipPath238)"><g
             id="g240"
             transform="scale(4.16667)"><text
               transform="matrix(0,-1,-1,0,296,280.471)"
               style="font-variant:normal;font-weight:normal;font-size:14px;font-family:Menlo;-inkscape-font-specification:Menlo-Regular;writing-mode:lr-tb;fill:#0000ff;fill-opacity:1;fill-rule:nonzero;stroke:none"
               id="text244"><tspan
                 x="0 8.4274139 16.855413 25.282827 33.710827 42.138828 50.566242 58.994244"
                 y="0"
                 id="tspan242">V(vout2)</tspan></text></g></g></g><g
         id="g246"><g
           id="g248"
           clip-path="url(#clipPath252)"><path
             d="m 867.934,2990.65 v 0 l 16.39,-5.04 16.27,-5.04 16.152,-5.03 16.035,-5.04 13.903,-4.38 13.597,-4.38 13.289,-4.37 12.985,-4.38 12.675,-4.38 12.37,-4.38 12.06,-4.37 11.76,-4.38 11.44,-4.38 11.15,-4.38 9.92,-4.01 9.45,-4.01 8.96,-4.01 8.47,-4.01 7.99,-4.02 7.51,-4.01 7.02,-4.01 6.54,-4.01 6.06,-4.01 5.57,-4.01 5.09,-4.02 4.6,-4.01 4.12,-4.01 3.64,-4.01 3.15,-4.01 2.67,-4.01 2.18,-4.01 1.7,-4.01 1.74,-10.48 -1.86,-10.3 -5.5,-10.47 -9.58,-11.79 -5.04,-4.17 -5.5,-4.17 -5.94,-4.18 -6.4,-4.17 -6.84,-4.18 -7.3,-4.17 -7.75,-4.17 -8.2,-4.18 -8.65,-4.17 -9.11,-4.17 -9.55,-4.18 -10.01,-4.17 -10.45,-4.17 -10.91,-4.18 -11.36,-4.17 -11.81,-4.17 -13.403,-4.67 -13.645,-4.66 -13.894,-4.67 -14.141,-4.66 -14.383,-4.67 -14.633,-4.66 -14.879,-4.67 -15.125,-4.66 -11.125,-3.44 -11.148,-3.43 -11.172,-3.44 -11.191,-3.44 -12.25,-3.76 -12.2,-3.77 -12.144,-3.76 -12.094,-3.77 -12.855,-3.99 -12.641,-4 -12.422,-3.99 -12.203,-3.99 -11.992,-4 -11.77,-3.99 -11.558,-3.99 -11.34,-4 -11.125,-3.99 -10.906,-4 -10.481,-3.92 -10.058,-3.93 -9.641,-3.93 -9.223,-3.93 -8.804,-3.93 -8.383,-3.92 -7.961,-3.93 -7.547,-3.93 -7.125,-3.93 -6.707,-3.93 -6.289,-3.92 -5.867,-3.93 -5.45,-3.93 -5.027,-3.93 -10.402,-10.47 -7.293,-10.48 -3.699,-10.47 -0.075,-10.48 3.555,-10.47 7.141,-10.48 11.41,-11.78 5.234,-3.93 5.637,-3.93 6.043,-3.93 6.449,-3.93 6.852,-3.92 7.258,-3.93 7.66,-3.93 8.066,-3.93 8.473,-3.93 8.879,-3.92 9.281,-3.93 9.683,-3.93 10.09,-3.93 10.496,-3.93 10.957,-3.99 11.168,-3.99 11.383,-4 11.594,-3.99 11.809,-4 12.019,-3.99 12.231,-3.99 12.445,-4 12.66,-3.99 12.871,-3.99 12.106,-3.77 12.156,-3.76 12.203,-3.76 12.25,-3.77 20.227,-6.22 20.152,-6.22 13.531,-4.17 13.348,-4.17 13.164,-4.18 12.984,-4.17 12.801,-4.18 12.621,-4.17 12.438,-4.17 12.257,-4.18 11.929,-4.11 11.52,-4.12 11.12,-4.11 10.71,-4.12 10.3,-4.11 9.89,-4.12 9.49,-4.12 9.08,-4.11 8.66,-4.12 8.27,-4.11 7.85,-4.11 7.44,-4.12 7.04,-4.11 6.63,-4.12 12.44,-9.16 5.61,-5.24 8.79,-10.48 5.65,-10.47 2.03,-10.48 -1.61,-10.47 -5.24,-10.48 -9.31,-11.78 -4.94,-4.17 -5.4,-4.18 -5.85,-4.17 -6.31,-4.18 -6.76,-4.17 -7.22,-4.18 -7.66,-4.17 -8.13,-4.17 -8.57,-4.18 -9.03,-4.17 -9.48,-4.17 -9.94,-4.17 -10.39,-4.18 -10.85,-4.17 -11.3,-4.18 -11.75,-4.17 -13.35,-4.66 -13.589,-4.67 -13.848,-4.66 -14.097,-4.67 -14.352,-4.66 -14.601,-4.67 -14.856,-4.66 -15.105,-4.67 -10.582,-3.27 -10.61,-3.27 -10.633,-3.28 -10.66,-3.27 -15.969,-4.91 -15.918,-4.91 -13.55,-4.18 -13.375,-4.17 -13.196,-4.17 -13.023,-4.18 -12.844,-4.17 -12.664,-4.17 -12.492,-4.18 -12.313,-4.17 -11.992,-4.11 -11.59,-4.12 -11.183,-4.11 -10.781,-4.12 -10.379,-4.12 -9.973,-4.11 -9.57,-4.12 -9.164,-4.11 -8.762,-4.12 -8.356,-4.11 -7.953,-4.12 -7.547,-4.11 -7.144,-4.12 -6.742,-4.11 -12.692,-9.17 -5.757,-5.24 -9.102,-10.47 -5.973,-10.48 -2.363,-10.47 1.27,-10.48 4.882,-10.47 8.911,-11.79 4.855,-4.21 5.316,-4.21 5.782,-4.22 6.25,-4.21 6.711,-4.22 7.175,-4.21 7.645,-4.22 8.105,-4.21 8.575,-4.22 9.035,-4.21 9.5,-4.22 9.965,-4.21 10.433,-4.21 10.895,-4.22 11.359,-4.21 11.828,-4.22 10.809,-3.79 10.98,-3.8 11.149,-3.8 11.316,-3.8 11.481,-3.79 11.652,-3.8 11.816,-3.8 11.985,-3.8 12.156,-3.79 12.32,-3.8 19.063,-5.89 19.152,-5.89 18.098,-5.57 18.035,-5.56 14.082,-4.34 13.887,-4.34 13.691,-4.33 13.492,-4.34 13.301,-4.34 13.102,-4.34 12.906,-4.34 12.715,-4.33 12.3,-4.26 11.85,-4.25 11.42,-4.26 10.96,-4.25 10.54,-4.26 10.08,-4.25 9.65,-4.26 9.2,-4.26 8.77,-4.25 8.32,-4.26 7.87,-4.25 7.44,-4.26 6.99,-4.25 6.55,-4.26 8.72,-6.54 8.17,-7.86 7.93,-10.48 4.87,-10.47 1.23,-9.25 -2.01,-10.02 -5.58,-10.47 -9.64,-11.79 -5.07,-4.18 -5.51,-4.17 -5.97,-4.17 -6.41,-4.17 -6.87,-4.18 -7.32,-4.17 -7.77,-4.17 -8.21,-4.18 -8.67,-4.17 -9.12,-4.18 -9.57,-4.17 -10.03,-4.17 -10.47,-4.18 -10.92,-4.17 -11.37,-4.17 -11.83,-4.18 -13.411,-4.66 -13.66,-4.67 -13.902,-4.66 -14.149,-4.67 -14.394,-4.66 -14.637,-4.67 -14.883,-4.66 -15.133,-4.66 -11.125,-3.44 -11.152,-3.44 -11.168,-3.44 -11.195,-3.43 -14.379,-4.42 -14.301,-4.42 -14.219,-4.42 -14.137,-4.42 -13.402,-4.19 -13.144,-4.19 -12.883,-4.19 -12.625,-4.19 -12.363,-4.19 -12.102,-4.19 -11.84,-4.19 -11.582,-4.19 -11.324,-4.19 -11.063,-4.19 -10.238,-3.97 -9.781,-3.96 -9.32,-3.96 -8.86,-3.97 -8.398,-3.96 -7.942,-3.97 -7.48,-3.96 -7.024,-3.97 -6.558,-3.96 -6.102,-3.97 -5.64,-3.96 -5.184,-3.97 -4.719,-3.96 -4.261,-3.96 -3.801,-3.97 -3.344,-3.96 -2.883,-3.97 -2.422,-3.96 -3.64,-10.48 -0.016,-10.47 3.609,-10.48 7.196,-10.47 11.472,-11.78 5.254,-3.93 5.66,-3.93 6.063,-3.93 6.465,-3.93 6.871,-3.92 7.277,-3.93 7.68,-3.93 8.082,-3.93 8.488,-3.93 8.891,-3.93 9.297,-3.93 9.703,-3.92 10.101,-3.93 10.512,-3.93 10.969,-3.99 11.18,-3.99 11.394,-4 11.602,-3.99 11.816,-4 12.031,-3.99 12.239,-3.99 12.453,-4 12.66,-3.99 12.879,-3.99 12.109,-3.77 12.16,-3.77 12.203,-3.76 12.25,-3.76 29.786,-9.17 13.05,-4.01 12.903,-4.01 12.761,-4.01 12.61,-4.01 12.469,-4.01 12.32,-4.01 12.172,-4.01 12.027,-4.01 12.371,-4.16 11.971,-4.16 11.58,-4.16 11.18,-4.17 10.78,-4.16 10.38,-4.16 9.99,-4.16 9.59,-4.16 9.19,-4.17 8.79,-4.16 8.4,-4.16 8,-4.16 7.6,-4.16 7.2,-4.16 6.53,-4.26 5.94,-4.26 5.37,-4.25 4.8,-4.26 4.22,-4.25 3.64,-4.26 3.07,-4.25 2.49,-4.26 1.91,-4.26 1.34,-4.25 0.76,-4.26 0.19,-4.25 -0.39,-4.25 -0.97,-4.26 -1.54,-4.26 -2.12,-4.25 -2.69,-4.26 -3.27,-4.25 -3.84,-4.26 -4.43,-4.25 -11.77,-9.17 -14.31,-9.17 -16.74,-9.16 -19.04,-9.168 -9.1,-3.98 -9.4,-3.985 -9.7,-3.98 -10,-3.984 -10.3,-3.985 -10.59,-3.98 -10.91,-3.985 -11.2,-3.98 -11.499,-3.985 -11.805,-3.98 -12.105,-3.984 -12.403,-3.985 -13.636,-4.363 -13.758,-4.363 -13.875,-4.364 -13.992,-4.367 -14.11,-4.363 -14.23,-4.367 -17.043,-5.235 -17.02,-5.238 -12.527,-3.848 -12.402,-3.843 -12.278,-3.848 -12.148,-3.848 -12.024,-3.843 -11.898,-3.848 -11.774,-3.848 -11.648,-3.843 -11.668,-3.883 -11.332,-3.883 -11.004,-3.879 -10.668,-3.883 -10.336,-3.879 -10.004,-3.883 -9.672,-3.882 -9.339,-3.879 -9.004,-3.883 -8.676,-3.883 -8.34,-3.879 -8.008,-3.883 -7.676,-3.878 -7.343,-3.883 -15.153,-9.164 -12.648,-9.168 -5.727,-5.239 -9.05,-10.472 -5.918,-10.477 -2.305,-10.472 1.324,-10.477 4.942,-10.477 8.972,-11.781 4.875,-4.215 5.34,-4.215 5.805,-4.214 6.269,-4.215 6.735,-4.215 7.195,-4.215 7.66,-4.215 8.129,-4.215 8.586,-4.214 9.055,-4.215 9.519,-4.215 9.981,-4.215 10.449,-4.211 10.91,-4.215 11.375,-4.215 11.836,-4.214 13.074,-4.582 13.32,-4.586 13.567,-4.582 13.816,-4.582 14.063,-4.583 14.312,-4.582 14.559,-4.585 14.808,-4.583 10.567,-3.273 10.598,-3.273 10.625,-3.274 10.652,-3.273 17.031,-5.239 14.926,-4.582 14.777,-4.582 14.629,-4.582 14.485,-4.582 14.335,-4.586 14.192,-4.582 13.262,-4.308 12.89,-4.309 12.511,-4.312 12.15,-4.309 11.77,-4.312"
             style="fill:none;stroke:#0000ff;stroke-width:4.16667;stroke-linecap:butt;stroke-linejoin:miter;stroke-miterlimit:1;stroke-dasharray:none;stroke-opacity:1"
             id="path254" /><path
             d="m 1025.88,558.477 v 0 l 11.4,-4.309 11.02,-4.309 10.66,-4.312 10.28,-4.309 9.91,-4.308 9.54,-4.313 9.17,-4.308 8.55,-4.297 7.96,-4.293 7.37,-4.297 6.79,-4.297 6.19,-4.293 5.61,-4.297 5.01,-4.293 4.43,-4.297 3.84,-4.293 3.25,-4.297 2.66,-4.296 2.07,-4.293 1.48,-4.297 0.89,-4.293 0.31,-4.297 -0.29,-4.297 -0.87,-4.293 -1.47,-4.297 -2.05,-4.293 -2.65,-4.297 -9.65,-11.785 -4.65,-3.926 -5.06,-3.929 -5.49,-3.93 -5.91,-3.926 -6.33,-3.929 -6.75,-3.926 -7.17,-3.93 -7.59,-3.93 -8.02,-3.925 -8.44,-3.93 -8.85,-3.926 -9.28,-3.93 -9.7,-3.929 -10.12,-3.926 -6.82,-2.621 -2.9,-1.098"
             style="fill:none;stroke:#0000ff;stroke-width:4.16667;stroke-linecap:butt;stroke-linejoin:miter;stroke-miterlimit:1;stroke-dasharray:none;stroke-opacity:1"
             id="path256" /></g></g><g
         id="g258"><g
           id="g260"
           clip-path="url(#clipPath264)"><g
             id="g266"
             transform="scale(4.16667)"><text
               transform="matrix(0,-1,-1,0,489,429.042)"
               style="font-variant:normal;font-weight:normal;font-size:14px;font-family:Menlo;-inkscape-font-specification:Menlo-Regular;writing-mode:lr-tb;fill:#ff0000;fill-opacity:1;fill-rule:nonzero;stroke:none"
               id="text270"><tspan
                 x="0 8.4274139 16.855413 25.282827 33.710827 42.138828"
                 y="0"
                 id="tspan268">V(vin)</tspan></text></g></g></g><g
         id="g272"><g
           id="g274"
           clip-path="url(#clipPath278)"><path
             d="m 1661.46,2990.65 v 0 l 19.13,-5.04 19.02,-5.04 18.92,-5.03 18.81,-5.04 16.34,-4.38 16.02,-4.38 15.68,-4.37 15.36,-4.38 15.03,-4.38 14.71,-4.38 14.37,-4.37 14.05,-4.38 13.72,-4.38 13.39,-4.38 11.99,-4.01 11.43,-4.01 10.89,-4.01 10.34,-4.01 9.79,-4.02 9.23,-4.01 8.69,-4.01 8.14,-4.01 7.59,-4.01 7.04,-4.01 6.48,-4.02 5.94,-4.01 5.39,-4.01 4.84,-4.01 4.28,-4.01 3.74,-4.01 3.19,-4.01 2.63,-4.01 3.11,-10.48 -1.22,-10.3 -5.59,-10.47 -11.42,-11.79 -5.65,-4.17 -6.2,-4.17 -6.73,-4.18 -7.26,-4.17 -7.8,-4.18 -8.33,-4.17 -8.87,-4.17 -9.4,-4.18 -9.94,-4.17 -10.47,-4.17 -11,-4.18 -11.54,-4.17 -12.08,-4.17 -12.61,-4.18 -13.14,-4.17 -13.68,-4.17 -15.49,-4.67 -15.79,-4.66 -16.08,-4.67 -16.38,-4.66 -16.68,-4.67 -16.97,-4.66 -17.27,-4.67 -17.57,-4.66 -12.93,-3.44 -12.97,-3.43 -13.01,-3.44 -13.04,-3.44 -14.29,-3.76 -14.25,-3.77 -14.21,-3.76 -14.17,-3.77 -15.07,-3.99 -14.85,-4 -14.62,-3.99 -14.39,-3.99 -14.17,-4 -13.94,-3.99 -13.72,-3.99 -13.49,-4 -13.26,-3.99 -13.04,-4 -12.55,-3.92 -12.1,-3.93 -11.62,-3.93 -11.16,-3.93 -10.7,-3.93 -10.23,-3.92 -9.77,-3.93 -9.3,-3.93 -8.84,-3.93 -8.37,-3.93 -7.9,-3.92 -7.44,-3.93 -6.98,-3.93 -6.51,-3.93 -14.01,-10.47 -9.82,-10.48 -5.51,-10.47 -1.14,-10.48 3.25,-10.47 7.6,-10.48 13.63,-11.78 5.92,-3.93 6.4,-3.93 6.88,-3.93 7.35,-3.93 7.84,-3.92 8.32,-3.93 8.8,-3.93 9.28,-3.93 9.75,-3.93 10.24,-3.92 10.72,-3.93 11.2,-3.93 11.68,-3.93 12.16,-3.93 12.67,-3.99 12.93,-3.99 13.18,-4 13.43,-3.99 13.69,-4 13.93,-3.99 14.19,-3.99 14.44,-4 14.69,-3.99 14.94,-3.99 14.07,-3.77 14.14,-3.76 14.2,-3.76 14.27,-3.77 23.59,-6.22 23.55,-6.22 15.83,-4.17 15.65,-4.17 15.45,-4.18 15.28,-4.17 15.09,-4.18 14.9,-4.17 14.72,-4.17 14.53,-4.18 14.2,-4.11 13.73,-4.12 13.29,-4.11 12.83,-4.12 12.38,-4.11 11.93,-4.12 11.47,-4.12 11.01,-4.11 10.57,-4.12 10.11,-4.11 9.65,-4.11 9.2,-4.12 8.75,-4.11 8.29,-4.12 15.68,-9.16 7.59,-5.24 12.07,-10.48 7.82,-10.47 3.48,-10.48 -0.91,-10.47 -5.28,-10.48 -11.09,-11.78 -5.55,-4.17 -6.08,-4.18 -6.62,-4.17 -7.15,-4.18 -7.69,-4.17 -8.24,-4.18 -8.77,-4.17 -9.31,-4.17 -9.84,-4.18 -10.39,-4.17 -10.92,-4.17 -11.46,-4.17 -12,-4.18 -12.54,-4.17 -13.07,-4.18 -13.61,-4.17 -15.42,-4.66 -15.73,-4.67 -16.03,-4.66 -16.33,-4.67 -16.63,-4.66 -16.94,-4.67 -17.24,-4.66 -17.54,-4.67 -12.3,-3.27 -12.34,-3.27 -12.38,-3.28 -12.42,-3.27 -18.62,-4.91 -18.6,-4.91 -15.85,-4.18 -15.67,-4.17 -15.49,-4.17 -15.32,-4.18 -15.13,-4.17 -14.96,-4.17 -14.78,-4.18 -14.6,-4.17 -14.27,-4.11 -13.82,-4.12 -13.37,-4.11 -12.92,-4.12 -12.47,-4.12 -12.03,-4.11 -11.58,-4.12 -11.13,-4.11 -10.68,-4.12 -10.24,-4.11 -9.79,-4.12 -9.34,-4.11 -8.89,-4.12 -8.44,-4.11 -16.01,-9.17 -7.78,-5.24 -12.48,-10.47 -8.24,-10.48 -3.9,-10.47 0.48,-10.48 4.87,-10.47 10.63,-11.79 5.44,-4.21 5.99,-4.21 6.55,-4.22 7.09,-4.21 7.65,-4.22 8.2,-4.21 8.75,-4.22 9.31,-4.21 9.85,-4.22 10.4,-4.21 10.96,-4.22 11.51,-4.21 12.06,-4.21 12.61,-4.22 13.16,-4.21 13.71,-4.22 12.52,-3.79 12.71,-3.8 12.91,-3.8 13.11,-3.8 13.31,-3.79 13.51,-3.8 13.72,-3.8 13.91,-3.8 14.12,-3.79 14.31,-3.8 22.18,-5.89 22.31,-5.89 21.11,-5.57 21.07,-5.56 16.47,-4.34 16.28,-4.34 16.07,-4.33 15.87,-4.34 15.67,-4.34 15.48,-4.34 15.27,-4.34 15.08,-4.33 14.64,-4.26 14.14,-4.25 13.65,-4.26 13.16,-4.25 12.67,-4.26 12.17,-4.25 11.68,-4.26 11.18,-4.26 10.7,-4.25 10.2,-4.26 9.7,-4.25 9.21,-4.26 8.72,-4.25 8.23,-4.26 10.91,-6.54 11.01,-7.86 11.05,-10.48 6.77,-10.47 2.35,-9.25 -1.31,-10.02 -5.65,-10.47 -11.49,-11.79 -5.69,-4.18 -6.22,-4.17 -6.75,-4.17 -7.29,-4.17 -7.82,-4.18 -8.36,-4.17 -8.89,-4.17 -9.42,-4.18 -9.96,-4.17 -10.49,-4.18 -11.02,-4.17 -11.56,-4.17 -12.09,-4.18 -12.63,-4.17 -13.16,-4.17 -13.7,-4.18 -15.5,-4.66 -15.81,-4.67 -16.09,-4.66 -16.39,-4.67 -16.69,-4.66 -16.98,-4.67 -17.27,-4.66 -17.58,-4.66 -12.93,-3.44 -12.97,-3.44 -13.01,-3.44 -13.04,-3.43 -16.78,-4.42 -16.71,-4.42 -16.64,-4.42 -16.58,-4.42 -15.73,-4.19 -15.46,-4.19 -15.19,-4.19 -14.92,-4.19 -14.64,-4.19 -14.36,-4.19 -14.09,-4.19 -13.81,-4.19 -13.54,-4.19 -13.27,-4.19 -12.33,-3.97 -11.82,-3.96 -11.29,-3.96 -10.78,-3.97 -10.25,-3.96 -9.74,-3.97 -9.22,-3.96 -8.7,-3.97 -8.18,-3.96 -7.66,-3.97 -7.14,-3.96 -6.62,-3.97 -6.1,-3.96 -5.58,-3.96 -5.07,-3.97 -4.54,-3.96 -4.02,-3.97 -3.51,-3.96 -5.44,-10.48 -1.07,-10.47 3.32,-10.48 7.66,-10.47 13.71,-11.78 5.94,-3.93 6.42,-3.93 6.9,-3.93 7.39,-3.93 7.86,-3.92 8.34,-3.93 8.81,-3.93 9.3,-3.93 9.78,-3.93 10.25,-3.93 10.74,-3.93 11.22,-3.92 11.69,-3.93 12.17,-3.93 12.7,-3.99 12.94,-3.99 13.19,-4 13.44,-3.99 13.7,-4 13.94,-3.99 14.2,-3.99 14.45,-4 14.69,-3.99 14.95,-3.99 14.08,-3.77 14.14,-3.77 14.2,-3.76 14.27,-3.76 34.76,-9.17 15.25,-4.01 15.11,-4.01 14.96,-4.01 14.82,-4.01 14.66,-4.01 14.52,-4.01 14.38,-4.01 14.23,-4.01 14.68,-4.16 14.24,-4.16 13.8,-4.16 13.35,-4.17 12.92,-4.16 12.48,-4.16 12.03,-4.16 11.6,-4.16 11.15,-4.17 10.71,-4.16 10.27,-4.16 9.83,-4.16 9.39,-4.16 8.95,-4.16 8.37,-4.26 7.66,-4.26 6.96,-4.25 6.25,-4.26 5.55,-4.25 4.84,-4.26 4.13,-4.25 3.42,-4.26 2.73,-4.26 2.01,-4.25 1.31,-4.26 0.61,-4.25 -0.11,-4.25 -0.81,-4.26 -1.51,-4.26 -2.22,-4.25 -2.93,-4.26 -3.63,-4.25 -4.34,-4.26 -5.04,-4.25 -13.25,-9.17 -16.28,-9.17 -19.18,-9.16 -21.89,-9.168 -10.5,-3.98 -10.86,-3.985 -11.2,-3.98 -11.56,-3.984 -11.9,-3.985 -12.26,-3.98 -12.61,-3.985 -12.95,-3.98 -13.31,-3.985 -13.66,-3.98 -14.01,-3.984 -14.36,-3.985 -15.8,-4.363 -15.96,-4.363 -16.11,-4.364 -16.26,-4.367 -16.4,-4.363 -16.56,-4.367 -19.86,-5.235 -19.86,-5.238 -14.64,-3.848 -14.51,-3.843 -14.39,-3.848 -14.26,-3.848 -14.14,-3.843 -14.02,-3.848 -13.88,-3.848 -13.77,-3.843 -13.82,-3.883 -13.46,-3.883 -13.1,-3.879 -12.73,-3.883 -12.37,-3.879 -12,-3.883 -11.64,-3.882 -11.28,-3.879 -10.91,-3.883 -10.54,-3.883 -10.18,-3.879 -9.82,-3.883 -9.45,-3.878 -9.08,-3.883 -18.86,-9.164 -15.96,-9.168 -7.75,-5.239 -12.41,-10.472 -8.18,-10.477 -3.83,-10.472 0.56,-10.477 4.93,-10.477 10.7,-11.781 5.47,-4.215 6.02,-4.215 6.57,-4.214 7.13,-4.215 7.67,-4.215 8.22,-4.215 8.77,-4.215 9.33,-4.215 9.87,-4.214 10.43,-4.215 10.98,-4.215 11.52,-4.215 12.08,-4.211 12.63,-4.215 13.18,-4.215 13.73,-4.214 15.12,-4.582 15.43,-4.586 15.72,-4.582 16.01,-4.582 16.31,-4.583 16.61,-4.582 16.91,-4.585 17.19,-4.583 12.29,-3.273 12.33,-3.273 12.37,-3.274 12.41,-3.273 19.87,-5.239 17.43,-4.582 17.28,-4.582 17.15,-4.582 17,-4.582 16.86,-4.586 16.72,-4.582 15.66,-4.308 15.26,-4.309 14.85,-4.312 14.44,-4.309 14.04,-4.312"
             style="fill:none;stroke:#ff0000;stroke-width:4.16667;stroke-linecap:butt;stroke-linejoin:miter;stroke-miterlimit:1;stroke-dasharray:none;stroke-opacity:1"
             id="path280" /><path
             d="m 1847.44,558.477 v 0 l 13.63,-4.309 13.22,-4.309 12.82,-4.312 12.41,-4.309 12,-4.308 11.6,-4.313 11.19,-4.308 10.58,-4.297 9.89,-4.293 9.19,-4.297 8.49,-4.297 7.81,-4.293 7.1,-4.297 6.41,-4.293 5.71,-4.297 5.02,-4.293 4.32,-4.297 3.63,-4.296 2.93,-4.293 2.24,-4.297 1.53,-4.293 0.85,-4.297 0.15,-4.297 -0.55,-4.293 -1.24,-4.297 -1.94,-4.293 -2.64,-4.297 -11.5,-11.785 -5.2,-3.926 -5.7,-3.929 -6.2,-3.93 -6.7,-3.926 -7.2,-3.929 -7.7,-3.926 -8.21,-3.93 -8.7,-3.93 -9.21,-3.925 -9.7,-3.93 -10.21,-3.926 -10.7,-3.93 -11.21,-3.929 -11.71,-3.926 -7.89,-2.621 -3.35,-1.098"
             style="fill:none;stroke:#ff0000;stroke-width:4.16667;stroke-linecap:butt;stroke-linejoin:miter;stroke-miterlimit:1;stroke-dasharray:none;stroke-opacity:1"
             id="path282" /></g></g></g></g></svg>
