<?xml version="1.0" encoding="UTF-8" standalone="no"?>
<svg
   xmlns:dc="http://purl.org/dc/elements/1.1/"
   xmlns:cc="http://creativecommons.org/ns#"
   xmlns:rdf="http://www.w3.org/1999/02/22-rdf-syntax-ns#"
   xmlns:svg="http://www.w3.org/2000/svg"
   xmlns="http://www.w3.org/2000/svg"
   version="1.1"
   id="svg302"
   xml:space="preserve"
   width="569.03076"
   height="361.33768"
   viewBox="0 0 853.54613 542.00654"><metadata
     id="metadata308"><rdf:RDF><cc:Work
         rdf:about=""><dc:format>image/svg+xml</dc:format><dc:type
           rdf:resource="http://purl.org/dc/dcmitype/StillImage" /><dc:title></dc:title></cc:Work></rdf:RDF></metadata><defs
     id="defs306"><clipPath
       clipPathUnits="userSpaceOnUse"
       id="clipPath320"><path
         d="m 375,299.582 h 1729.17 v 2908.34 H 375 Z"
         id="path318" /></clipPath><clipPath
       clipPathUnits="userSpaceOnUse"
       id="clipPath532"><path
         d="m 500,537.082 h 1520.83 v 2525 H 500 Z"
         id="path530" /></clipPath></defs><g
     id="g310"
     transform="matrix(0,-1.3333333,-1.3333333,0,1025.6046,667.07604)"><g
       id="g312"
       transform="scale(0.24)"><g
         id="g314"><g
           id="g316"
           clip-path="url(#clipPath320)"><g
             id="g322"
             transform="scale(4.16667)"><text
               transform="matrix(0,-1,-1,0,94.0003,747.257)"
               style="font-variant:normal;font-weight:normal;font-size:14px;font-family:Menlo;-inkscape-font-specification:Menlo-Regular;writing-mode:lr-tb;fill:#afafaf;fill-opacity:1;fill-rule:nonzero;stroke:none"
               id="text326"><tspan
                 x="0 8.4280005 16.855413"
                 y="0"
                 id="tspan324">1Hz</tspan></text></g><path
             d="M 500,3060.89 H 458.332"
             style="fill:none;stroke:#afafaf;stroke-width:4.16667;stroke-linecap:butt;stroke-linejoin:miter;stroke-miterlimit:10;stroke-dasharray:none;stroke-opacity:1"
             id="path328" /><path
             d="M 500,2892.82 H 479.168"
             style="fill:none;stroke:#afafaf;stroke-width:4.16667;stroke-linecap:butt;stroke-linejoin:miter;stroke-miterlimit:10;stroke-dasharray:none;stroke-opacity:1"
             id="path330" /><path
             d="M 500,2794.5 H 479.168"
             style="fill:none;stroke:#afafaf;stroke-width:4.16667;stroke-linecap:butt;stroke-linejoin:miter;stroke-miterlimit:10;stroke-dasharray:none;stroke-opacity:1"
             id="path332" /><path
             d="M 500,2724.74 H 479.168"
             style="fill:none;stroke:#afafaf;stroke-width:4.16667;stroke-linecap:butt;stroke-linejoin:miter;stroke-miterlimit:10;stroke-dasharray:none;stroke-opacity:1"
             id="path334" /><path
             d="M 500,2670.63 H 479.168"
             style="fill:none;stroke:#afafaf;stroke-width:4.16667;stroke-linecap:butt;stroke-linejoin:miter;stroke-miterlimit:10;stroke-dasharray:none;stroke-opacity:1"
             id="path336" /><path
             d="M 500,2626.42 H 479.168"
             style="fill:none;stroke:#afafaf;stroke-width:4.16667;stroke-linecap:butt;stroke-linejoin:miter;stroke-miterlimit:10;stroke-dasharray:none;stroke-opacity:1"
             id="path338" /><path
             d="M 500,2589.04 H 479.168"
             style="fill:none;stroke:#afafaf;stroke-width:4.16667;stroke-linecap:butt;stroke-linejoin:miter;stroke-miterlimit:10;stroke-dasharray:none;stroke-opacity:1"
             id="path340" /><path
             d="M 500,2556.66 H 479.168"
             style="fill:none;stroke:#afafaf;stroke-width:4.16667;stroke-linecap:butt;stroke-linejoin:miter;stroke-miterlimit:10;stroke-dasharray:none;stroke-opacity:1"
             id="path342" /><path
             d="M 500,2528.11 H 479.168"
             style="fill:none;stroke:#afafaf;stroke-width:4.16667;stroke-linecap:butt;stroke-linejoin:miter;stroke-miterlimit:10;stroke-dasharray:none;stroke-opacity:1"
             id="path344" /><g
             id="g346"
             transform="scale(4.16667)"><text
               transform="matrix(0,-1,-1,0,94.0003,617.471)"
               style="font-variant:normal;font-weight:normal;font-size:14px;font-family:Menlo;-inkscape-font-specification:Menlo-Regular;writing-mode:lr-tb;fill:#afafaf;fill-opacity:1;fill-rule:nonzero;stroke:none"
               id="text350"><tspan
                 x="0 8.4280005 16.856001 25.283415"
                 y="0"
                 id="tspan348">10Hz</tspan></text></g><path
             d="M 500,2502.55 H 458.332"
             style="fill:none;stroke:#afafaf;stroke-width:4.16667;stroke-linecap:butt;stroke-linejoin:miter;stroke-miterlimit:10;stroke-dasharray:none;stroke-opacity:1"
             id="path352" /><path
             d="M 500,2334.48 H 479.168"
             style="fill:none;stroke:#afafaf;stroke-width:4.16667;stroke-linecap:butt;stroke-linejoin:miter;stroke-miterlimit:10;stroke-dasharray:none;stroke-opacity:1"
             id="path354" /><path
             d="M 500,2236.16 H 479.168"
             style="fill:none;stroke:#afafaf;stroke-width:4.16667;stroke-linecap:butt;stroke-linejoin:miter;stroke-miterlimit:10;stroke-dasharray:none;stroke-opacity:1"
             id="path356" /><path
             d="M 500,2166.41 H 479.168"
             style="fill:none;stroke:#afafaf;stroke-width:4.16667;stroke-linecap:butt;stroke-linejoin:miter;stroke-miterlimit:10;stroke-dasharray:none;stroke-opacity:1"
             id="path358" /><path
             d="M 500,2112.3 H 479.168"
             style="fill:none;stroke:#afafaf;stroke-width:4.16667;stroke-linecap:butt;stroke-linejoin:miter;stroke-miterlimit:10;stroke-dasharray:none;stroke-opacity:1"
             id="path360" /><path
             d="M 500,2068.09 H 479.168"
             style="fill:none;stroke:#afafaf;stroke-width:4.16667;stroke-linecap:butt;stroke-linejoin:miter;stroke-miterlimit:10;stroke-dasharray:none;stroke-opacity:1"
             id="path362" /><path
             d="M 500,2030.71 H 479.168"
             style="fill:none;stroke:#afafaf;stroke-width:4.16667;stroke-linecap:butt;stroke-linejoin:miter;stroke-miterlimit:10;stroke-dasharray:none;stroke-opacity:1"
             id="path364" /><path
             d="M 500,1998.33 H 479.168"
             style="fill:none;stroke:#afafaf;stroke-width:4.16667;stroke-linecap:butt;stroke-linejoin:miter;stroke-miterlimit:10;stroke-dasharray:none;stroke-opacity:1"
             id="path366" /><path
             d="M 500,1969.77 H 479.168"
             style="fill:none;stroke:#afafaf;stroke-width:4.16667;stroke-linecap:butt;stroke-linejoin:miter;stroke-miterlimit:10;stroke-dasharray:none;stroke-opacity:1"
             id="path368" /><g
             id="g370"
             transform="scale(4.16667)"><text
               transform="matrix(0,-1,-1,0,94.0003,487.685)"
               style="font-variant:normal;font-weight:normal;font-size:14px;font-family:Menlo;-inkscape-font-specification:Menlo-Regular;writing-mode:lr-tb;fill:#afafaf;fill-opacity:1;fill-rule:nonzero;stroke:none"
               id="text374"><tspan
                 x="0 8.4274139 16.855413 25.283415 33.710827"
                 y="0"
                 id="tspan372">100Hz</tspan></text></g><path
             d="M 500,1944.22 H 458.332"
             style="fill:none;stroke:#afafaf;stroke-width:4.16667;stroke-linecap:butt;stroke-linejoin:miter;stroke-miterlimit:10;stroke-dasharray:none;stroke-opacity:1"
             id="path376" /><path
             d="M 500,1776.14 H 479.168"
             style="fill:none;stroke:#afafaf;stroke-width:4.16667;stroke-linecap:butt;stroke-linejoin:miter;stroke-miterlimit:10;stroke-dasharray:none;stroke-opacity:1"
             id="path378" /><path
             d="M 500,1677.83 H 479.168"
             style="fill:none;stroke:#afafaf;stroke-width:4.16667;stroke-linecap:butt;stroke-linejoin:miter;stroke-miterlimit:10;stroke-dasharray:none;stroke-opacity:1"
             id="path380" /><path
             d="M 500,1608.07 H 479.168"
             style="fill:none;stroke:#afafaf;stroke-width:4.16667;stroke-linecap:butt;stroke-linejoin:miter;stroke-miterlimit:10;stroke-dasharray:none;stroke-opacity:1"
             id="path382" /><path
             d="M 500,1553.96 H 479.168"
             style="fill:none;stroke:#afafaf;stroke-width:4.16667;stroke-linecap:butt;stroke-linejoin:miter;stroke-miterlimit:10;stroke-dasharray:none;stroke-opacity:1"
             id="path384" /><path
             d="M 500,1509.75 H 479.168"
             style="fill:none;stroke:#afafaf;stroke-width:4.16667;stroke-linecap:butt;stroke-linejoin:miter;stroke-miterlimit:10;stroke-dasharray:none;stroke-opacity:1"
             id="path386" /><path
             d="M 500,1472.38 H 479.168"
             style="fill:none;stroke:#afafaf;stroke-width:4.16667;stroke-linecap:butt;stroke-linejoin:miter;stroke-miterlimit:10;stroke-dasharray:none;stroke-opacity:1"
             id="path388" /><path
             d="M 500,1440 H 479.168"
             style="fill:none;stroke:#afafaf;stroke-width:4.16667;stroke-linecap:butt;stroke-linejoin:miter;stroke-miterlimit:10;stroke-dasharray:none;stroke-opacity:1"
             id="path390" /><path
             d="M 500,1411.43 H 479.168"
             style="fill:none;stroke:#afafaf;stroke-width:4.16667;stroke-linecap:butt;stroke-linejoin:miter;stroke-miterlimit:10;stroke-dasharray:none;stroke-opacity:1"
             id="path392" /><g
             id="g394"
             transform="scale(4.16667)"><text
               transform="matrix(0,-1,-1,0,94.0003,349.47)"
               style="font-variant:normal;font-weight:normal;font-size:14px;font-family:Menlo;-inkscape-font-specification:Menlo-Regular;writing-mode:lr-tb;fill:#afafaf;fill-opacity:1;fill-rule:nonzero;stroke:none"
               id="text398"><tspan
                 x="0 8.4274139 16.855413 25.283415"
                 y="0"
                 id="tspan396">1KHz</tspan></text></g><path
             d="M 500,1385.89 H 458.332"
             style="fill:none;stroke:#afafaf;stroke-width:4.16667;stroke-linecap:butt;stroke-linejoin:miter;stroke-miterlimit:10;stroke-dasharray:none;stroke-opacity:1"
             id="path400" /><path
             d="M 500,1217.81 H 479.168"
             style="fill:none;stroke:#afafaf;stroke-width:4.16667;stroke-linecap:butt;stroke-linejoin:miter;stroke-miterlimit:10;stroke-dasharray:none;stroke-opacity:1"
             id="path402" /><path
             d="M 500,1119.49 H 479.168"
             style="fill:none;stroke:#afafaf;stroke-width:4.16667;stroke-linecap:butt;stroke-linejoin:miter;stroke-miterlimit:10;stroke-dasharray:none;stroke-opacity:1"
             id="path404" /><path
             d="M 500,1049.73 H 479.168"
             style="fill:none;stroke:#afafaf;stroke-width:4.16667;stroke-linecap:butt;stroke-linejoin:miter;stroke-miterlimit:10;stroke-dasharray:none;stroke-opacity:1"
             id="path406" /><path
             d="M 500,995.629 H 479.168"
             style="fill:none;stroke:#afafaf;stroke-width:4.16667;stroke-linecap:butt;stroke-linejoin:miter;stroke-miterlimit:10;stroke-dasharray:none;stroke-opacity:1"
             id="path408" /><path
             d="M 500,951.418 H 479.168"
             style="fill:none;stroke:#afafaf;stroke-width:4.16667;stroke-linecap:butt;stroke-linejoin:miter;stroke-miterlimit:10;stroke-dasharray:none;stroke-opacity:1"
             id="path410" /><path
             d="M 500,914.039 H 479.168"
             style="fill:none;stroke:#afafaf;stroke-width:4.16667;stroke-linecap:butt;stroke-linejoin:miter;stroke-miterlimit:10;stroke-dasharray:none;stroke-opacity:1"
             id="path412" /><path
             d="M 500,881.66 H 479.168"
             style="fill:none;stroke:#afafaf;stroke-width:4.16667;stroke-linecap:butt;stroke-linejoin:miter;stroke-miterlimit:10;stroke-dasharray:none;stroke-opacity:1"
             id="path414" /><path
             d="M 500,853.098 H 479.168"
             style="fill:none;stroke:#afafaf;stroke-width:4.16667;stroke-linecap:butt;stroke-linejoin:miter;stroke-miterlimit:10;stroke-dasharray:none;stroke-opacity:1"
             id="path416" /><g
             id="g418"
             transform="scale(4.16667)"><text
               transform="matrix(0,-1,-1,0,94.0003,219.684)"
               style="font-variant:normal;font-weight:normal;font-size:14px;font-family:Menlo;-inkscape-font-specification:Menlo-Regular;writing-mode:lr-tb;fill:#afafaf;fill-opacity:1;fill-rule:nonzero;stroke:none"
               id="text422"><tspan
                 x="0 8.4280005 16.856001 25.283415 33.711414"
                 y="0"
                 id="tspan420">10KHz</tspan></text></g><path
             d="M 500,827.551 H 458.332"
             style="fill:none;stroke:#afafaf;stroke-width:4.16667;stroke-linecap:butt;stroke-linejoin:miter;stroke-miterlimit:10;stroke-dasharray:none;stroke-opacity:1"
             id="path424" /><path
             d="M 500,659.477 H 479.168"
             style="fill:none;stroke:#afafaf;stroke-width:4.16667;stroke-linecap:butt;stroke-linejoin:miter;stroke-miterlimit:10;stroke-dasharray:none;stroke-opacity:1"
             id="path426" /><path
             d="M 500,561.156 H 479.168"
             style="fill:none;stroke:#afafaf;stroke-width:4.16667;stroke-linecap:butt;stroke-linejoin:miter;stroke-miterlimit:10;stroke-dasharray:none;stroke-opacity:1"
             id="path428" /><g
             id="g430"
             transform="scale(4.16667)"><text
               transform="matrix(0,-1,-1,0,114,753.042)"
               style="font-variant:normal;font-weight:normal;font-size:14px;font-family:Menlo;-inkscape-font-specification:Menlo-Regular;writing-mode:lr-tb;fill:#afafaf;fill-opacity:1;fill-rule:nonzero;stroke:none"
               id="text434"><tspan
                 x="0 -8.42906"
                 y="0"
                 id="tspan432">V0</tspan></text></g><path
             d="m 500,3060.89 v 41.67"
             style="fill:none;stroke:#afafaf;stroke-width:4.16667;stroke-linecap:butt;stroke-linejoin:miter;stroke-miterlimit:10;stroke-dasharray:none;stroke-opacity:1"
             id="path436" /><g
             id="g438"
             transform="scale(4.16667)"><text
               transform="matrix(0,-1,-1,0,150.5,753.042)"
               style="font-variant:normal;font-weight:normal;font-size:14px;font-family:Menlo;-inkscape-font-specification:Menlo-Regular;writing-mode:lr-tb;fill:#afafaf;fill-opacity:1;fill-rule:nonzero;stroke:none"
               id="text442"><tspan
                 x="0 -8.42906"
                 y="0"
                 id="tspan440">V6</tspan></text></g><path
             d="m 652.082,3060.89 v 41.67"
             style="fill:none;stroke:#afafaf;stroke-width:4.16667;stroke-linecap:butt;stroke-linejoin:miter;stroke-miterlimit:10;stroke-dasharray:none;stroke-opacity:1"
             id="path444" /><g
             id="g446"
             transform="scale(4.16667)"><text
               transform="matrix(0,-1,-1,0,187,753.042)"
               style="font-variant:normal;font-weight:normal;font-size:14px;font-family:Menlo;-inkscape-font-specification:Menlo-Regular;writing-mode:lr-tb;fill:#afafaf;fill-opacity:1;fill-rule:nonzero;stroke:none"
               id="text450"><tspan
                 x="0 -8.42906 -16.85812"
                 y="0"
                 id="tspan448">V21</tspan></text></g><path
             d="m 804.168,3060.89 v 41.67"
             style="fill:none;stroke:#afafaf;stroke-width:4.16667;stroke-linecap:butt;stroke-linejoin:miter;stroke-miterlimit:10;stroke-dasharray:none;stroke-opacity:1"
             id="path452" /><g
             id="g454"
             transform="scale(4.16667)"><text
               transform="matrix(0,-1,-1,0,223.5,753.042)"
               style="font-variant:normal;font-weight:normal;font-size:14px;font-family:Menlo;-inkscape-font-specification:Menlo-Regular;writing-mode:lr-tb;fill:#afafaf;fill-opacity:1;fill-rule:nonzero;stroke:none"
               id="text458"><tspan
                 x="0 -8.42906 -16.85812"
                 y="0"
                 id="tspan456">V81</tspan></text></g><path
             d="m 956.25,3060.89 v 41.67"
             style="fill:none;stroke:#afafaf;stroke-width:4.16667;stroke-linecap:butt;stroke-linejoin:miter;stroke-miterlimit:10;stroke-dasharray:none;stroke-opacity:1"
             id="path460" /><g
             id="g462"
             transform="scale(4.16667)"><text
               transform="matrix(0,-1,-1,0,260,753.042)"
               style="font-variant:normal;font-weight:normal;font-size:14px;font-family:Menlo;-inkscape-font-specification:Menlo-Regular;writing-mode:lr-tb;fill:#afafaf;fill-opacity:1;fill-rule:nonzero;stroke:none"
               id="text466"><tspan
                 x="0 -8.42906 -16.85812"
                 y="0"
                 id="tspan464">V42</tspan></text></g><path
             d="m 1108.33,3060.89 v 41.67"
             style="fill:none;stroke:#afafaf;stroke-width:4.16667;stroke-linecap:butt;stroke-linejoin:miter;stroke-miterlimit:10;stroke-dasharray:none;stroke-opacity:1"
             id="path468" /><g
             id="g470"
             transform="scale(4.16667)"><text
               transform="matrix(0,-1,-1,0,296.5,753.042)"
               style="font-variant:normal;font-weight:normal;font-size:14px;font-family:Menlo;-inkscape-font-specification:Menlo-Regular;writing-mode:lr-tb;fill:#afafaf;fill-opacity:1;fill-rule:nonzero;stroke:none"
               id="text474"><tspan
                 x="0 -8.42906 -16.85812"
                 y="0"
                 id="tspan472">V03</tspan></text></g><path
             d="m 1260.42,3060.89 v 41.67"
             style="fill:none;stroke:#afafaf;stroke-width:4.16667;stroke-linecap:butt;stroke-linejoin:miter;stroke-miterlimit:10;stroke-dasharray:none;stroke-opacity:1"
             id="path476" /><g
             id="g478"
             transform="scale(4.16667)"><text
               transform="matrix(0,-1,-1,0,333,753.042)"
               style="font-variant:normal;font-weight:normal;font-size:14px;font-family:Menlo;-inkscape-font-specification:Menlo-Regular;writing-mode:lr-tb;fill:#afafaf;fill-opacity:1;fill-rule:nonzero;stroke:none"
               id="text482"><tspan
                 x="0 -8.42906 -16.85812"
                 y="0"
                 id="tspan480">V63</tspan></text></g><path
             d="m 1412.5,3060.89 v 41.67"
             style="fill:none;stroke:#afafaf;stroke-width:4.16667;stroke-linecap:butt;stroke-linejoin:miter;stroke-miterlimit:10;stroke-dasharray:none;stroke-opacity:1"
             id="path484" /><g
             id="g486"
             transform="scale(4.16667)"><text
               transform="matrix(0,-1,-1,0,369.5,753.042)"
               style="font-variant:normal;font-weight:normal;font-size:14px;font-family:Menlo;-inkscape-font-specification:Menlo-Regular;writing-mode:lr-tb;fill:#afafaf;fill-opacity:1;fill-rule:nonzero;stroke:none"
               id="text490"><tspan
                 x="0 -8.42906 -16.85812"
                 y="0"
                 id="tspan488">V24</tspan></text></g><path
             d="m 1564.58,3060.89 v 41.67"
             style="fill:none;stroke:#afafaf;stroke-width:4.16667;stroke-linecap:butt;stroke-linejoin:miter;stroke-miterlimit:10;stroke-dasharray:none;stroke-opacity:1"
             id="path492" /><g
             id="g494"
             transform="scale(4.16667)"><text
               transform="matrix(0,-1,-1,0,406,753.042)"
               style="font-variant:normal;font-weight:normal;font-size:14px;font-family:Menlo;-inkscape-font-specification:Menlo-Regular;writing-mode:lr-tb;fill:#afafaf;fill-opacity:1;fill-rule:nonzero;stroke:none"
               id="text498"><tspan
                 x="0 -8.42906 -16.85812"
                 y="0"
                 id="tspan496">V84</tspan></text></g><path
             d="m 1716.67,3060.89 v 41.67"
             style="fill:none;stroke:#afafaf;stroke-width:4.16667;stroke-linecap:butt;stroke-linejoin:miter;stroke-miterlimit:10;stroke-dasharray:none;stroke-opacity:1"
             id="path500" /><g
             id="g502"
             transform="scale(4.16667)"><text
               transform="matrix(0,-1,-1,0,442.5,753.042)"
               style="font-variant:normal;font-weight:normal;font-size:14px;font-family:Menlo;-inkscape-font-specification:Menlo-Regular;writing-mode:lr-tb;fill:#afafaf;fill-opacity:1;fill-rule:nonzero;stroke:none"
               id="text506"><tspan
                 x="0 -8.42906 -16.85812"
                 y="0"
                 id="tspan504">V45</tspan></text></g><path
             d="m 1868.75,3060.89 v 41.67"
             style="fill:none;stroke:#afafaf;stroke-width:4.16667;stroke-linecap:butt;stroke-linejoin:miter;stroke-miterlimit:10;stroke-dasharray:none;stroke-opacity:1"
             id="path508" /><g
             id="g510"
             transform="scale(4.16667)"><text
               transform="matrix(0,-1,-1,0,479,753.042)"
               style="font-variant:normal;font-weight:normal;font-size:14px;font-family:Menlo;-inkscape-font-specification:Menlo-Regular;writing-mode:lr-tb;fill:#afafaf;fill-opacity:1;fill-rule:nonzero;stroke:none"
               id="text514"><tspan
                 x="0 -8.42906 -16.85812"
                 y="0"
                 id="tspan512">V06</tspan></text></g><path
             d="m 2020.83,3060.89 v 41.67"
             style="fill:none;stroke:#afafaf;stroke-width:4.16667;stroke-linecap:butt;stroke-linejoin:miter;stroke-miterlimit:10;stroke-dasharray:none;stroke-opacity:1"
             id="path516" /><path
             d="m 500,539.766 h 1520.83 v 2521.13 H 500 Z"
             style="fill:none;stroke:#afafaf;stroke-width:4.16667;stroke-linecap:butt;stroke-linejoin:miter;stroke-miterlimit:10;stroke-dasharray:none;stroke-opacity:1"
             id="path518" /><g
             id="g520"
             transform="scale(4.16667)"><text
               transform="matrix(0,-1,-1,0,489,465.829)"
               style="font-variant:normal;font-weight:normal;font-size:14px;font-family:Menlo;-inkscape-font-specification:Menlo-Regular;writing-mode:lr-tb;fill:#0eff00;fill-opacity:1;fill-rule:nonzero;stroke:none"
               id="text524"><tspan
                 x="0 8.4280005 16.855413 25.283415 33.710827 42.138828 50.56683 58.994244"
                 y="0"
                 id="tspan522">V(vout1)</tspan></text></g></g></g><g
         id="g526"><g
           id="g528"
           clip-path="url(#clipPath532)"><path
             d="m 505.59,3060.89 v 0 l -0.082,-23.11 -0.078,-21.1 -0.078,-19.41 -0.079,-17.97 -0.082,-16.73 -0.078,-15.64 -0.078,-14.71 -0.082,-13.86 -0.078,-13.11 -0.078,-12.43 -0.125,-23.12 -0.121,-21.09 -0.125,-19.41 -0.121,-17.97 -0.125,-16.73 -0.137,-19.41 -0.141,-17.97 -0.14,-16.73 -0.141,-15.65 -0.156,-19.41 -0.16,-17.97 -0.16,-16.73 -0.2,-23.11 -0.195,-21.1 -0.164,-19.41 -0.16,-17.97 -0.266,-32.38 -0.219,-28.55 -0.179,-25.56 -0.153,-23.1 -0.125,-21.1 -0.109,-19.41 -0.094,-17.97 -0.082,-16.73 -0.07,-15.65 -0.059,-14.7 -0.058,-13.86 -0.063,-13.11 -0.043,-12.44 -0.043,-11.83 -0.011,-11.28 -0.039,-10.78 -0.036,-10.32 -0.035,-9.9 -0.023,-9.51 -0.008,-9.15 -0.02,-8.82 -0.019,-8.51 -0.035,-8.22 -0.02,-7.95 -0.008,-7.7 -0.015,-7.46 -0.016,-7.24 -0.015,-7.02 -0.012,-6.84 -0.008,-6.64 -0.016,-6.47 -0.007,-6.3 -0.008,-6.13 -0.016,-5.99 -0.004,-5.85 -0.012,-5.7 -0.003,-5.58 -0.012,-5.45 -0.008,-5.32 -0.004,-5.22 -0.008,-5.1 -0.004,-5 -0.007,-4.9 -0.004,-4.8 -0.008,-4.71 v -4.62 l -0.008,-4.53 -0.004,-4.45 -0.008,-4.37 -0.004,-4.3 v -4.21 l -0.007,-4.15 -0.004,-4.07 v -4.01 l -0.004,-3.94 -0.004,-3.88 -0.004,-3.82 v -3.76 l -0.004,-3.7 -0.004,-3.65 -0.004,-3.59 v -3.54 l -0.004,-3.49 v -3.44 l -0.004,-3.39 -0.003,-3.35 v -3.3 l -0.004,-3.25 v -3.21 l -0.004,-3.17 v -3.13 -3.09 l -0.004,-3.05 v -3.01 l -0.004,-2.98 v -2.94 -2.9 l -0.004,-2.87 v -2.84 -2.8 l -0.004,-2.77 v -2.74 -2.71 l -0.004,-2.68 v -2.65 -2.62 -2.59 l -0.004,-2.57 v -2.54 -2.51 -2.49 -2.46 l -0.004,-2.44 v -2.41 -2.39 -2.37 -2.34 l -0.003,-2.32 v -2.3 -2.27 -2.26 -2.24 -2.21 l -0.004,-2.19 0.004,-2.18 -0.004,-2.15 v -2.14 -2.12 -2.1 -2.08 -2.06 -2.05 -2.03 -2.01 -2 -1.98 l -0.004,-1.96 0.004,-1.95 -0.004,-1.93 v -1.91 -1.91 -1.88 -1.88 -1.85 -1.85 -1.83 -1.82 -1.8 -1.79 -1.77 -1.77 -1.75 -1.74 -1.72 -1.71 -1.71 -1.69 -1.67 -1.67 -1.66 -1.64 -1.64 -1.62 -1.61 -1.6 -1.59 -1.58 -1.57 -1.56 -1.55 l 0.004,-1.54 v -1.53 -1.52 -1.51 -1.5 -1.49 -1.48 -1.48 -1.46 -1.46 -1.45 -1.44 -1.43 -1.42 -1.41 l 0.004,-1.41 v -1.4 -1.39 -2.75 -2.73 -2.69 l 0.003,-2.66 v -2.64 -2.61 -2.58 l 0.004,-2.55 v -2.52 -2.5 -2.48 l 0.004,-2.45 v -2.42 -2.4 l 0.004,-2.38 v -2.36 -2.33 l 0.004,-2.31 v -2.28 -2.27 l 0.004,-2.25 v -2.22 l 0.004,-2.21 v -2.18 -2.16 l 0.004,-2.15 v -2.13 l 0.004,-2.11 v -2.09 l 0.004,-2.07 v -2.06 l 0.003,-2.03 v -2.02 l 0.004,-2 v -1.99 l 0.004,-1.98 0.004,-1.95 v -1.94 l 0.004,-1.93 v -1.91 l 0.004,-1.89 0.004,-1.88 v -1.86 l 0.004,-1.85 0.004,-1.84 0.004,-1.82 v -1.81 l 0.004,-1.8 0.003,-1.78 0.004,-1.77 0.004,-1.76 0.004,-1.74 v -1.74 l 0.004,-1.72 0.004,-1.7 0.004,-1.7 0.004,-1.68 0.004,-1.68 0.004,-1.66 0.007,-1.65 0.004,-1.63 0.004,-1.63 0.004,-1.62 0.004,-1.61 0.008,-1.59 0.004,-1.59 0.004,-1.57 0.007,-1.56 0.004,-1.56 0.008,-1.54 0.004,-1.54 0.008,-1.52 0.008,-1.52 0.004,-1.51 0.007,-1.49 0.008,-1.49 0.008,-1.48 0.008,-1.47 0.008,-1.46 0.008,-1.45 0.011,-1.44 0.008,-1.44 0.008,-1.42 0.012,-1.42 0.007,-1.41 0.012,-1.4 0.012,-1.4 0.019,-2.07 0.02,-2.06 0.019,-2.04 0.02,-2.02 0.027,-2.01 0.024,-1.99 0.031,-1.98 0.027,-1.95 0.035,-1.95 0.036,-1.92 0.047,-1.92 0.046,-1.89 0.043,-1.88 0.063,-1.87 0.062,-1.86 0.078,-1.84 0.083,-1.82 0.097,-1.81 0.117,-1.8 0.141,-1.78 0.145,-1.78 0.226,-1.76 0.277,-1.74 0.336,-1.74 0.481,-1.72 0.703,-1.71 1.129,-1.69 2.101,-1.69 2.832,-1.12 2.489,-0.56 4.16,-0.55 8.285,-0.56 24.246,-0.55 1401.442,-0.55 -1401.559,-0.55 -24.273,-0.55 -8.297,-0.55 -4.168,-0.54 -2.493,-0.55 -1.66,-0.54 -2.058,-1.09 -1.672,-1.62 -0.953,-1.61 -0.614,-1.59 -0.449,-1.59 -0.297,-1.57 -0.246,-1.57 -0.199,-1.56 -0.156,-1.54 -0.125,-1.54 -0.11,-1.52 -0.093,-1.52 -0.082,-1.51 -0.071,-1.5 -0.062,-1.49 -0.055,-1.48 -0.051,-1.47 -0.043,-1.46 -0.039,-1.46 -0.039,-1.44 -0.031,-1.44 -0.031,-1.43 -0.028,-1.41 -0.027,-1.41 -0.019,-1.41 -0.024,-1.39 -0.027,-1.85 -0.024,-1.83 -0.023,-1.83 -0.02,-1.8 -0.019,-1.79 -0.02,-1.78 -0.015,-1.77 -0.016,-1.75 -0.012,-1.75 -0.015,-1.72 -0.012,-1.72 -0.012,-1.7 -0.008,-1.7 -0.011,-1.68 -0.012,-1.67 -0.008,-1.66 -0.008,-1.64 -0.007,-1.64 -0.008,-1.62 -0.008,-1.62 -0.008,-1.6 -0.008,-1.59 -0.004,-1.58 -0.007,-1.58 -0.004,-1.56 -0.008,-1.55 -0.004,-1.54 -0.004,-1.54 -0.008,-1.52 -0.004,-1.51 -0.004,-1.51 -0.003,-1.49 -0.004,-1.49 -0.004,-1.47 -0.004,-1.47 -0.004,-1.46 v -1.45 l -0.004,-1.44 -0.004,-1.43 -0.004,-1.42 v -1.42 l -0.004,-1.41 -0.004,-1.4 v -1.39 l -0.004,-1.73 v -1.71 l -0.003,-1.71 v -1.69 -1.68 l -0.004,-1.67 v -1.65 -1.65 -1.64 -1.62 l 0.004,-1.61 v -1.61 l 0.003,-1.59 v -1.58 l 0.004,-1.57 0.004,-1.56 0.008,-1.56 0.004,-1.54 0.008,-1.53 0.008,-1.52 0.007,-1.51 0.012,-1.51 0.012,-1.49 0.016,-1.49 0.015,-1.47 0.024,-1.47 0.027,-1.46 0.035,-1.45 0.043,-1.44 0.055,-1.43 0.086,-1.42 0.125,-1.42 0.215,-1.41 0.472,-1.4 1.547,-1.39 2.012,-0.55 2.136,-0.28 4.329,-0.28 12.937,-0.27 107.141,-0.28 -107.078,-0.27 -12.961,-0.28 -4.336,-0.27 -2.137,-0.27 -2.016,-0.56 -1.543,-1.36 -0.519,-1.63 -0.227,-1.61 -0.109,-1.61 -0.094,-1.59 -0.051,-1.59 -0.039,-1.57 -0.031,-1.57 -0.023,-1.55 -0.02,-1.55 -0.015,-1.53 -0.016,-1.53 -0.012,-1.51 -0.012,-1.51 -0.007,-1.49 -0.008,-1.49 -0.008,-1.48 -0.004,-1.47 -0.008,-1.46 -0.004,-1.45 -0.004,-1.45 -0.003,-1.43 -0.004,-1.43 -0.004,-1.42 v -1.41 l -0.004,-1.4 v -1.39 l -0.004,-1.62 v -1.6 l -0.004,-1.6 v -1.58 -1.57 -1.57 -1.55 -1.55 -1.53 -1.53 l 0.004,-1.51 v -1.5 l 0.004,-1.5 v -1.49 l 0.004,-1.48 0.004,-1.46 0.004,-1.47 0.003,-1.44 0.008,-1.45 0.004,-1.43 0.008,-1.43 0.008,-1.41 0.008,-1.41 0.007,-1.41 0.012,-1.39 0.016,-1.58 0.015,-1.57 0.024,-1.57 0.031,-1.55 0.035,-1.54 0.043,-1.53 0.071,-1.52 0.089,-1.52 0.145,-1.5 0.316,-1.5 0.801,-1.48 2.137,-0.93 3.172,-0.36 4.004,-0.19 11.379,-0.18 325.25,-0.18 -325.172,-0.19 -11.426,-0.18 -4.016,-0.18 -2.004,-0.19 -1.925,-0.37 -1.555,-0.91"
             style="fill:none;stroke:#0eff00;stroke-width:4.16667;stroke-linecap:butt;stroke-linejoin:miter;stroke-miterlimit:1;stroke-dasharray:none;stroke-opacity:1"
             id="path534" /><path
             d="m 501.59,1316.55 v 0 l -0.684,-1.45 -0.261,-1.44 -0.161,-1.44 -0.093,-1.43 -0.059,-1.41 -0.047,-1.42 -0.031,-1.4 -0.031,-1.4 -0.024,-1.55 -0.019,-1.55 -0.016,-1.54 -0.012,-1.53 -0.011,-1.52 -0.012,-1.51 -0.008,-1.51 -0.008,-1.49 -0.008,-1.48 -0.007,-1.48 -0.004,-1.46 -0.004,-1.46 -0.008,-1.44 -0.004,-1.44 -0.004,-1.43 v -1.43 l -0.004,-1.41 -0.004,-1.41 v -1.39 l -0.003,-1.39 v -1.54 -1.52 -1.52 -1.5 l 0.003,-1.5 0.004,-1.49 0.004,-1.47 0.004,-1.48 0.012,-1.46 0.012,-1.45 0.011,-1.44 0.02,-1.44 0.027,-1.42 0.043,-1.42 0.067,-1.41 0.125,-1.4 0.3,-1.4 1.461,-1.24 1.434,-0.28 1.515,-0.14 3.11,-0.14 9.68,-0.13 117.214,-0.14 -117.105,-0.14 -9.734,-0.14 -3.122,-0.14 -1.515,-0.13 -1.438,-0.28 -1.394,-1.09 -0.363,-1.5 -0.137,-1.49 -0.067,-1.48 -0.039,-1.47 -0.031,-1.47 -0.019,-1.45 -0.016,-1.45 -0.012,-1.43 -0.012,-1.43 -0.007,-1.42 -0.008,-1.41 -0.004,-1.41 -0.004,-1.39 -0.008,-1.52 -0.004,-1.5 -0.004,-1.49 v -1.49 l -0.003,-1.47 v -1.47 l -0.004,-1.46 v -1.45 -1.44 l 0.004,-1.43 v -1.43 l 0.003,-1.41 0.004,-1.41 0.004,-1.4 0.008,-1.39 0.012,-1.5 0.019,-1.49 0.024,-1.48 0.039,-1.47 0.066,-1.46 0.133,-1.46 0.496,-1.44 1.793,-0.78 2.438,-0.22 3.086,-0.11 8.679,-0.11 108.836,-0.11 -108.726,-0.11 -8.747,-0.11 -3.097,-0.11 -1.547,-0.11 -1.465,-0.22 -1.414,-0.99 -0.336,-1.42 -0.121,-1.41 -0.055,-1.4 -0.035,-1.39 -0.027,-1.5 -0.016,-1.48 -0.015,-1.48 -0.008,-1.46 -0.012,-1.46 -0.008,-1.45 -0.004,-1.44 -0.004,-1.43 -0.007,-1.42 -0.004,-1.42 v -1.4 l -0.004,-1.4 -0.004,-1.39 v -1.48 l -0.004,-1.47 v -1.46 l 0.004,-1.46 0.004,-1.44 0.004,-1.44 0.011,-1.43 0.016,-1.42 0.027,-1.41 0.043,-1.4 0.125,-1.4 0.496,-1.48 1.391,-0.55 2.543,-0.18 5.91,-0.1 77.59,-0.09 -77.457,-0.09 -5.984,-0.1 -1.739,-0.09 -1.605,-0.27 -1.063,-1.46 -0.144,-1.46 -0.055,-1.44 -0.031,-1.44 -0.02,-1.42 -0.015,-1.42 -0.008,-1.41 -0.008,-1.41 -0.008,-1.39 -0.004,-1.47 -0.007,-1.47 -0.004,-1.45 v -1.45 l -0.004,-1.44 -0.004,-1.43 v -1.42 -1.41 -1.41 -1.39 l 0.004,-1.47 0.008,-1.46 0.015,-1.46 0.028,-1.44 0.066,-1.44 0.359,-1.42 1.789,-0.63 3.102,-0.16 5.844,-0.08 24.562,-0.08 -24.453,-0.08 -5.906,-0.08 -2.082,-0.07 -1.633,-0.16 -1.402,-1.02 -0.172,-1.41 -0.051,-1.39 -0.027,-1.47 -0.016,-1.46 -0.012,-1.44 -0.007,-1.44 -0.004,-1.43 -0.008,-1.43 -0.004,-1.41 -0.004,-1.41 v -1.39 l -0.004,-1.39 -0.004,-1.46 v -1.45 -1.43 -1.43 -1.42 l 0.012,-1.42 0.019,-1.4 0.039,-1.39 0.196,-1.46 1.832,-0.9 2.992,-0.07 36.59,-0.07 -36.461,-0.07 -3.07,-0.07 -1.469,-0.34 -0.504,-1.44 -0.09,-1.43 -0.027,-1.42 -0.016,-1.42 -0.012,-1.4 -0.003,-1.4 -0.008,-1.39 -0.004,-1.45 -0.004,-1.44 -0.004,-1.43 v -1.42 l -0.004,-1.41 -0.004,-1.41 v -1.4 -1.39 -1.44 l 0.004,-1.43 0.016,-1.43 0.082,-1.42 1.402,-0.92 3.699,-0.13 -1.742,-0.06 1.832,-0.06 -2.781,-0.06 -1.445,-0.12 -0.993,-1.41 -0.039,-1.39 -0.011,-1.45 -0.012,-1.43 -0.004,-1.43 -0.004,-1.43 -0.004,-1.41 v -1.41 l -0.004,-1.39 v -1.39 l -0.004,-1.44 v -1.43 l -0.004,-1.42 v -1.41 l 0.004,-1.41 0.02,-1.39 0.066,-1.4 2.457,-1.21 6.895,-0.05 -6.817,-0.06 -1.578,-0.05 -0.922,-1.43 -0.07,-1.42 -0.015,-1.42 -0.008,-1.4 -0.008,-1.39 -0.004,-1.44 v -1.43 l -0.004,-1.43 v -1.41 l -0.004,-1.41 v -1.4 l -0.004,-1.39 v -1.43 -1.43 -1.42 l 0.02,-1.41 1.59,-0.35 -1.446,-0.15 -0.16,-1.4 -0.008,-1.39 v -1.425 -1.422 l -0.004,-1.414 v -1.407 -1.398 l -0.003,-1.391 v -1.429 -1.422 l -0.004,-1.414 v -1.407 l 0.007,-1.394 0.032,-1.434 2.39,-1.152 3.227,-0.047 -3.18,-0.047 -1.457,-0.043 -0.949,-1.422 -0.031,-1.41 -0.012,-1.402 -0.004,-1.395 -0.004,-1.429 v -1.422 -1.414 l -0.004,-1.41 v -1.395 -1.391 l 0.004,-1.425 0.008,-1.418 0.031,-1.407 2.434,-0.937 -1.695,-0.125 -0.786,-1.395 -0.007,-1.429 v -1.418 l -0.004,-1.414 v -1.403 -1.394 -1.43 l -0.004,-1.418 v -1.414 l -0.004,-1.402 0.004,-1.395 0.035,-1.43 3.008,-0.906 5.004,-0.039 -4.946,-0.039 -1.808,-0.039 -1.242,-1.414 -0.02,-1.402 -0.008,-1.399 -0.004,-1.426 -0.004,-1.418 v -1.41 -1.402 -1.395 l 0.004,-1.421 0.004,-1.415 0.024,-1.406 2.578,-1.105 2.621,-0.039 -2.613,-0.035 -1.805,-0.036 -0.805,-1.394 -0.015,-1.418 -0.004,-1.414 v -1.403 -1.394 l -0.004,-1.422 v -1.418 l -0.004,-1.406 -0.004,-1.399 0.008,-1.39 0.73,-1.414 2.297,-0.071 1.609,-0.035 -1.535,-0.035 -1.808,-0.031 -1.258,-1.41 -0.016,-1.399 -0.004,-1.39 -0.004,-1.418 v -1.41 -1.399 -1.394 -1.418 l 0.008,-1.411 0.051,-1.402 1.652,-0.551 3.188,-0.031 -3.156,-0.031 -1.473,-0.067 -0.266,-1.39 -0.007,-1.414 -0.004,-1.403 v -1.398 -1.391 l -0.004,-1.41 v -1.406 l -0.004,-1.395 v -1.418 l 2.14,-1.105 -1.609,-0.125 -0.508,-1.402 -0.008,-1.395 v -1.418 l -0.003,-1.41 v -1.402 -1.395 -1.414 l 0.003,-1.406 0.051,-1.399 2.395,-0.375 -1.617,-0.031 -0.832,-1.418 -0.004,-1.406 v -1.403 -1.39 -1.414 -1.403 l -0.004,-1.398 -0.004,-1.418 0.062,-1.406 -0.05,-1.399 v -1.394 l -0.004,-1.41 v -1.403 -1.394 -1.414 l 0.004,-1.403 0.023,-1.398 -0.023,-1.391 -0.004,-1.406 v -1.398 -1.391 -1.41 -1.399 -1.394 -1.406 l -0.004,-1.403 v -1.394 -1.41 -1.403 -1.394 l 0.004,-1.407 v -1.402 l 0.55,-1.394 -0.55,-1.411 -0.004,-1.402 0.004,-1.394 v -1.407 -1.402 -1.391 l 0.015,-1.41 -0.027,-1.398 0.004,-1.391 0.004,-1.41 v -1.395 -1.39 -1.406 l -0.004,-1.395 0.004,-1.41 v -1.402 -1.395 -1.41 -1.399 l 0.004,-1.39 0.019,-1.406 -0.031,-1.399 0.004,-1.41 v -1.398 -1.395 -1.406 l 0.004,-1.399 0.004,-1.39 -0.008,-1.403 0.004,-1.394 v -1.406 -1.399 -1.391 l 0.031,-1.402 -0.039,-1.394 0.004,-1.407 v -1.394 -1.391 -1.402 l 0.008,-1.391 -0.008,-1.406 v -1.395 -1.406 -1.398 l 0.004,-1.391 0.023,-1.398 -0.027,-1.395 v -1.402 -1.395 -1.402 -1.398 l 0.004,-1.407 -0.004,-1.398 v -1.391 -1.398 -1.391 l 0.008,-1.402 -0.008,-1.391 v -1.402 -1.395 -1.402 -1.398 -1.403 -1.394 -1.403 -1.398 -1.402 l 0.004,-1.399 -0.004,-1.402 v -1.395 -1.406 -1.395 -1.402 -1.398 -1.403 -1.394 -1.403 -1.394 -1.402 -1.391 -1.402 -1.391 -1.402 -1.391 -1.398 -1.391 l 0.008,-1.395 -0.008,-1.402 v -1.398 -1.399 -1.394 -1.399 -1.39 -1.399 -1.39 l 0.004,-1.395 -0.004,-1.402 v -1.391"
             style="fill:none;stroke:#0eff00;stroke-width:4.16667;stroke-linecap:butt;stroke-linejoin:miter;stroke-miterlimit:1;stroke-dasharray:none;stroke-opacity:1"
             id="path536" /><path
             d="m 500.008,687.625 v 0 -1.398 l -0.004,-1.391 0.004,-1.395 v -1.402 -1.394 -1.399 -1.391 -1.394 -1.398 -1.395 -1.398 -1.387 -1.395 -1.398 -1.391 -1.394 -1.399 -1.39 -1.399 -1.398 -1.391 l -0.004,-1.398 0.004,-1.399 v -1.39 -1.395 l 0.015,-1.402 -0.015,-1.391 v -1.394 -1.399 -1.39 -1.395 -1.395 -1.39 -1.391 -1.398 -1.399 -1.39 -1.395 -1.394 -1.399 -1.394 -1.395 -1.394 l -0.004,-1.399 v -1.394 l 0.004,-1.391 -0.004,-1.398 v -1.399 -1.39 l 0.004,-1.395 -0.004,-1.395 v -1.394 -1.391 -1.39 -1.395 -1.394 -1.399 -1.387 -1.39 -1.395 -1.394 -1.395 -1.398 -1.387 -1.391 -1.394 -1.391 -1.394 -1.399 -1.394 -1.391 -1.39 -1.391 l 0.004,-1.391 -0.004,-1.394 v -1.395 -1.394 -1.395 -1.394 -1.399 -1.394 -1.391 -1.391 -1.386 -1.391 -1.391 -1.394 -1.391 -1.39 -1.391 -1.394 -1.391 -1.395 -1.39 -1.391 -1.394 -1.391 -1.391 -1.39 -1.391 -1.391 -1.39 -1.391 -1.39 -1.391 -1.395"
             style="fill:none;stroke:#0eff00;stroke-width:4.16667;stroke-linecap:butt;stroke-linejoin:miter;stroke-miterlimit:1;stroke-dasharray:none;stroke-opacity:1"
             id="path538" /></g></g></g></g></svg>
