<?xml version="1.0" encoding="UTF-8" standalone="no"?>
<svg
   xmlns:dc="http://purl.org/dc/elements/1.1/"
   xmlns:cc="http://creativecommons.org/ns#"
   xmlns:rdf="http://www.w3.org/1999/02/22-rdf-syntax-ns#"
   xmlns:svg="http://www.w3.org/2000/svg"
   xmlns="http://www.w3.org/2000/svg"
   version="1.1"
   id="svg1156"
   xml:space="preserve"
   width="569.03088"
   height="361.33768"
   viewBox="0 0 853.54631 542.00654"><metadata
     id="metadata1162"><rdf:RDF><cc:Work
         rdf:about=""><dc:format>image/svg+xml</dc:format><dc:type
           rdf:resource="http://purl.org/dc/dcmitype/StillImage" /><dc:title></dc:title></cc:Work></rdf:RDF></metadata><defs
     id="defs1160"><clipPath
       clipPathUnits="userSpaceOnUse"
       id="clipPath1174"><path
         d="m 375,299.582 h 1729.17 v 2908.34 H 375 Z"
         id="path1172" /></clipPath><clipPath
       clipPathUnits="userSpaceOnUse"
       id="clipPath1386"><path
         d="m 500,537.082 h 1520.83 v 2491.67 H 500 Z"
         id="path1384" /></clipPath></defs><g
     id="g1164"
     transform="matrix(0,-1.3333333,-1.3333333,0,1025.6048,667.07604)"><g
       id="g1166"
       transform="scale(0.24)"><g
         id="g1168"><g
           id="g1170"
           clip-path="url(#clipPath1174)"><g
             id="g1176"
             transform="scale(4.16667)"><text
               transform="matrix(0,-1,-1,0,94.0003,738.828)"
               style="font-variant:normal;font-weight:normal;font-size:14px;font-family:Menlo;-inkscape-font-specification:Menlo-Regular;writing-mode:lr-tb;fill:#afafaf;fill-opacity:1;fill-rule:nonzero;stroke:none"
               id="text1180"><tspan
                 x="0 8.4274139 16.855413"
                 y="0"
                 id="tspan1178">1Hz</tspan></text></g><path
             d="M 500,3025.77 H 458.332"
             style="fill:none;stroke:#afafaf;stroke-width:4.16667;stroke-linecap:butt;stroke-linejoin:miter;stroke-miterlimit:10;stroke-dasharray:none;stroke-opacity:1"
             id="path1182" /><path
             d="M 500,2860.04 H 479.168"
             style="fill:none;stroke:#afafaf;stroke-width:4.16667;stroke-linecap:butt;stroke-linejoin:miter;stroke-miterlimit:10;stroke-dasharray:none;stroke-opacity:1"
             id="path1184" /><path
             d="M 500,2763.09 H 479.168"
             style="fill:none;stroke:#afafaf;stroke-width:4.16667;stroke-linecap:butt;stroke-linejoin:miter;stroke-miterlimit:10;stroke-dasharray:none;stroke-opacity:1"
             id="path1186" /><path
             d="M 500,2694.3 H 479.168"
             style="fill:none;stroke:#afafaf;stroke-width:4.16667;stroke-linecap:butt;stroke-linejoin:miter;stroke-miterlimit:10;stroke-dasharray:none;stroke-opacity:1"
             id="path1188" /><path
             d="M 500,2640.95 H 479.168"
             style="fill:none;stroke:#afafaf;stroke-width:4.16667;stroke-linecap:butt;stroke-linejoin:miter;stroke-miterlimit:10;stroke-dasharray:none;stroke-opacity:1"
             id="path1190" /><path
             d="M 500,2597.36 H 479.168"
             style="fill:none;stroke:#afafaf;stroke-width:4.16667;stroke-linecap:butt;stroke-linejoin:miter;stroke-miterlimit:10;stroke-dasharray:none;stroke-opacity:1"
             id="path1192" /><path
             d="M 500,2560.5 H 479.168"
             style="fill:none;stroke:#afafaf;stroke-width:4.16667;stroke-linecap:butt;stroke-linejoin:miter;stroke-miterlimit:10;stroke-dasharray:none;stroke-opacity:1"
             id="path1194" /><path
             d="M 500,2528.57 H 479.168"
             style="fill:none;stroke:#afafaf;stroke-width:4.16667;stroke-linecap:butt;stroke-linejoin:miter;stroke-miterlimit:10;stroke-dasharray:none;stroke-opacity:1"
             id="path1196" /><path
             d="M 500,2500.41 H 479.168"
             style="fill:none;stroke:#afafaf;stroke-width:4.16667;stroke-linecap:butt;stroke-linejoin:miter;stroke-miterlimit:10;stroke-dasharray:none;stroke-opacity:1"
             id="path1198" /><g
             id="g1200"
             transform="scale(4.16667)"><text
               transform="matrix(0,-1,-1,0,94.0003,610.909)"
               style="font-variant:normal;font-weight:normal;font-size:14px;font-family:Menlo;-inkscape-font-specification:Menlo-Regular;writing-mode:lr-tb;fill:#afafaf;fill-opacity:1;fill-rule:nonzero;stroke:none"
               id="text1204"><tspan
                 x="0 8.4280005 16.855413 25.283415"
                 y="0"
                 id="tspan1202">10Hz</tspan></text></g><path
             d="M 500,2475.21 H 458.332"
             style="fill:none;stroke:#afafaf;stroke-width:4.16667;stroke-linecap:butt;stroke-linejoin:miter;stroke-miterlimit:10;stroke-dasharray:none;stroke-opacity:1"
             id="path1206" /><path
             d="M 500,2309.48 H 479.168"
             style="fill:none;stroke:#afafaf;stroke-width:4.16667;stroke-linecap:butt;stroke-linejoin:miter;stroke-miterlimit:10;stroke-dasharray:none;stroke-opacity:1"
             id="path1208" /><path
             d="M 500,2212.53 H 479.168"
             style="fill:none;stroke:#afafaf;stroke-width:4.16667;stroke-linecap:butt;stroke-linejoin:miter;stroke-miterlimit:10;stroke-dasharray:none;stroke-opacity:1"
             id="path1210" /><path
             d="M 500,2143.75 H 479.168"
             style="fill:none;stroke:#afafaf;stroke-width:4.16667;stroke-linecap:butt;stroke-linejoin:miter;stroke-miterlimit:10;stroke-dasharray:none;stroke-opacity:1"
             id="path1212" /><path
             d="M 500,2090.39 H 479.168"
             style="fill:none;stroke:#afafaf;stroke-width:4.16667;stroke-linecap:butt;stroke-linejoin:miter;stroke-miterlimit:10;stroke-dasharray:none;stroke-opacity:1"
             id="path1214" /><path
             d="M 500,2046.8 H 479.168"
             style="fill:none;stroke:#afafaf;stroke-width:4.16667;stroke-linecap:butt;stroke-linejoin:miter;stroke-miterlimit:10;stroke-dasharray:none;stroke-opacity:1"
             id="path1216" /><path
             d="M 500,2009.94 H 479.168"
             style="fill:none;stroke:#afafaf;stroke-width:4.16667;stroke-linecap:butt;stroke-linejoin:miter;stroke-miterlimit:10;stroke-dasharray:none;stroke-opacity:1"
             id="path1218" /><path
             d="M 500,1978.01 H 479.168"
             style="fill:none;stroke:#afafaf;stroke-width:4.16667;stroke-linecap:butt;stroke-linejoin:miter;stroke-miterlimit:10;stroke-dasharray:none;stroke-opacity:1"
             id="path1220" /><path
             d="M 500,1949.85 H 479.168"
             style="fill:none;stroke:#afafaf;stroke-width:4.16667;stroke-linecap:butt;stroke-linejoin:miter;stroke-miterlimit:10;stroke-dasharray:none;stroke-opacity:1"
             id="path1222" /><g
             id="g1224"
             transform="scale(4.16667)"><text
               transform="matrix(0,-1,-1,0,94.0003,482.99)"
               style="font-variant:normal;font-weight:normal;font-size:14px;font-family:Menlo;-inkscape-font-specification:Menlo-Regular;writing-mode:lr-tb;fill:#afafaf;fill-opacity:1;fill-rule:nonzero;stroke:none"
               id="text1228"><tspan
                 x="0 8.4280005 16.855413 25.283415 33.711414"
                 y="0"
                 id="tspan1226">100Hz</tspan></text></g><path
             d="M 500,1924.66 H 458.332"
             style="fill:none;stroke:#afafaf;stroke-width:4.16667;stroke-linecap:butt;stroke-linejoin:miter;stroke-miterlimit:10;stroke-dasharray:none;stroke-opacity:1"
             id="path1230" /><path
             d="M 500,1758.92 H 479.168"
             style="fill:none;stroke:#afafaf;stroke-width:4.16667;stroke-linecap:butt;stroke-linejoin:miter;stroke-miterlimit:10;stroke-dasharray:none;stroke-opacity:1"
             id="path1232" /><path
             d="M 500,1661.97 H 479.168"
             style="fill:none;stroke:#afafaf;stroke-width:4.16667;stroke-linecap:butt;stroke-linejoin:miter;stroke-miterlimit:10;stroke-dasharray:none;stroke-opacity:1"
             id="path1234" /><path
             d="M 500,1593.19 H 479.168"
             style="fill:none;stroke:#afafaf;stroke-width:4.16667;stroke-linecap:butt;stroke-linejoin:miter;stroke-miterlimit:10;stroke-dasharray:none;stroke-opacity:1"
             id="path1236" /><path
             d="M 500,1539.83 H 479.168"
             style="fill:none;stroke:#afafaf;stroke-width:4.16667;stroke-linecap:butt;stroke-linejoin:miter;stroke-miterlimit:10;stroke-dasharray:none;stroke-opacity:1"
             id="path1238" /><path
             d="M 500,1496.24 H 479.168"
             style="fill:none;stroke:#afafaf;stroke-width:4.16667;stroke-linecap:butt;stroke-linejoin:miter;stroke-miterlimit:10;stroke-dasharray:none;stroke-opacity:1"
             id="path1240" /><path
             d="M 500,1459.38 H 479.168"
             style="fill:none;stroke:#afafaf;stroke-width:4.16667;stroke-linecap:butt;stroke-linejoin:miter;stroke-miterlimit:10;stroke-dasharray:none;stroke-opacity:1"
             id="path1242" /><path
             d="M 500,1427.45 H 479.168"
             style="fill:none;stroke:#afafaf;stroke-width:4.16667;stroke-linecap:butt;stroke-linejoin:miter;stroke-miterlimit:10;stroke-dasharray:none;stroke-opacity:1"
             id="path1244" /><path
             d="M 500,1399.29 H 479.168"
             style="fill:none;stroke:#afafaf;stroke-width:4.16667;stroke-linecap:butt;stroke-linejoin:miter;stroke-miterlimit:10;stroke-dasharray:none;stroke-opacity:1"
             id="path1246" /><g
             id="g1248"
             transform="scale(4.16667)"><text
               transform="matrix(0,-1,-1,0,94.0003,346.642)"
               style="font-variant:normal;font-weight:normal;font-size:14px;font-family:Menlo;-inkscape-font-specification:Menlo-Regular;writing-mode:lr-tb;fill:#afafaf;fill-opacity:1;fill-rule:nonzero;stroke:none"
               id="text1252"><tspan
                 x="0 8.4280005 16.855413 25.283415"
                 y="0"
                 id="tspan1250">1KHz</tspan></text></g><path
             d="M 500,1374.1 H 458.332"
             style="fill:none;stroke:#afafaf;stroke-width:4.16667;stroke-linecap:butt;stroke-linejoin:miter;stroke-miterlimit:10;stroke-dasharray:none;stroke-opacity:1"
             id="path1254" /><path
             d="M 500,1208.37 H 479.168"
             style="fill:none;stroke:#afafaf;stroke-width:4.16667;stroke-linecap:butt;stroke-linejoin:miter;stroke-miterlimit:10;stroke-dasharray:none;stroke-opacity:1"
             id="path1256" /><path
             d="M 500,1111.42 H 479.168"
             style="fill:none;stroke:#afafaf;stroke-width:4.16667;stroke-linecap:butt;stroke-linejoin:miter;stroke-miterlimit:10;stroke-dasharray:none;stroke-opacity:1"
             id="path1258" /><path
             d="M 500,1042.63 H 479.168"
             style="fill:none;stroke:#afafaf;stroke-width:4.16667;stroke-linecap:butt;stroke-linejoin:miter;stroke-miterlimit:10;stroke-dasharray:none;stroke-opacity:1"
             id="path1260" /><path
             d="M 500,989.277 H 479.168"
             style="fill:none;stroke:#afafaf;stroke-width:4.16667;stroke-linecap:butt;stroke-linejoin:miter;stroke-miterlimit:10;stroke-dasharray:none;stroke-opacity:1"
             id="path1262" /><path
             d="M 500,945.684 H 479.168"
             style="fill:none;stroke:#afafaf;stroke-width:4.16667;stroke-linecap:butt;stroke-linejoin:miter;stroke-miterlimit:10;stroke-dasharray:none;stroke-opacity:1"
             id="path1264" /><path
             d="M 500,908.824 H 479.168"
             style="fill:none;stroke:#afafaf;stroke-width:4.16667;stroke-linecap:butt;stroke-linejoin:miter;stroke-miterlimit:10;stroke-dasharray:none;stroke-opacity:1"
             id="path1266" /><path
             d="M 500,876.898 H 479.168"
             style="fill:none;stroke:#afafaf;stroke-width:4.16667;stroke-linecap:butt;stroke-linejoin:miter;stroke-miterlimit:10;stroke-dasharray:none;stroke-opacity:1"
             id="path1268" /><path
             d="M 500,848.734 H 479.168"
             style="fill:none;stroke:#afafaf;stroke-width:4.16667;stroke-linecap:butt;stroke-linejoin:miter;stroke-miterlimit:10;stroke-dasharray:none;stroke-opacity:1"
             id="path1270" /><g
             id="g1272"
             transform="scale(4.16667)"><text
               transform="matrix(0,-1,-1,0,94.0003,218.722)"
               style="font-variant:normal;font-weight:normal;font-size:14px;font-family:Menlo;-inkscape-font-specification:Menlo-Regular;writing-mode:lr-tb;fill:#afafaf;fill-opacity:1;fill-rule:nonzero;stroke:none"
               id="text1276"><tspan
                 x="0 8.4274139 16.855413 25.282827 33.710827"
                 y="0"
                 id="tspan1274">10KHz</tspan></text></g><path
             d="M 500,823.543 H 458.332"
             style="fill:none;stroke:#afafaf;stroke-width:4.16667;stroke-linecap:butt;stroke-linejoin:miter;stroke-miterlimit:10;stroke-dasharray:none;stroke-opacity:1"
             id="path1278" /><path
             d="M 500,657.809 H 479.168"
             style="fill:none;stroke:#afafaf;stroke-width:4.16667;stroke-linecap:butt;stroke-linejoin:miter;stroke-miterlimit:10;stroke-dasharray:none;stroke-opacity:1"
             id="path1280" /><path
             d="M 500,560.859 H 479.168"
             style="fill:none;stroke:#afafaf;stroke-width:4.16667;stroke-linecap:butt;stroke-linejoin:miter;stroke-miterlimit:10;stroke-dasharray:none;stroke-opacity:1"
             id="path1282" /><g
             id="g1284"
             transform="scale(4.16667)"><text
               transform="matrix(0,-1,-1,0,114,744.614)"
               style="font-variant:normal;font-weight:normal;font-size:14px;font-family:Menlo;-inkscape-font-specification:Menlo-Regular;writing-mode:lr-tb;fill:#afafaf;fill-opacity:1;fill-rule:nonzero;stroke:none"
               id="text1288"><tspan
                 x="0 -8.4281301 -16.857189 -25.286249"
                 y="0"
                 id="tspan1286">V0.0</tspan></text></g><path
             d="m 500,3025.77 v 41.67"
             style="fill:none;stroke:#afafaf;stroke-width:4.16667;stroke-linecap:butt;stroke-linejoin:miter;stroke-miterlimit:10;stroke-dasharray:none;stroke-opacity:1"
             id="path1290" /><g
             id="g1292"
             transform="scale(4.16667)"><text
               transform="matrix(0,-1,-1,0,150.5,744.614)"
               style="font-variant:normal;font-weight:normal;font-size:14px;font-family:Menlo;-inkscape-font-specification:Menlo-Regular;writing-mode:lr-tb;fill:#afafaf;fill-opacity:1;fill-rule:nonzero;stroke:none"
               id="text1296"><tspan
                 x="0 -8.4281301 -16.857189 -25.286249"
                 y="0"
                 id="tspan1294">V6.0</tspan></text></g><path
             d="m 652.082,3025.77 v 41.67"
             style="fill:none;stroke:#afafaf;stroke-width:4.16667;stroke-linecap:butt;stroke-linejoin:miter;stroke-miterlimit:10;stroke-dasharray:none;stroke-opacity:1"
             id="path1298" /><g
             id="g1300"
             transform="scale(4.16667)"><text
               transform="matrix(0,-1,-1,0,187,744.614)"
               style="font-variant:normal;font-weight:normal;font-size:14px;font-family:Menlo;-inkscape-font-specification:Menlo-Regular;writing-mode:lr-tb;fill:#afafaf;fill-opacity:1;fill-rule:nonzero;stroke:none"
               id="text1304"><tspan
                 x="0 -8.4281301 -16.857189 -25.286249"
                 y="0"
                 id="tspan1302">V2.1</tspan></text></g><path
             d="m 804.168,3025.77 v 41.67"
             style="fill:none;stroke:#afafaf;stroke-width:4.16667;stroke-linecap:butt;stroke-linejoin:miter;stroke-miterlimit:10;stroke-dasharray:none;stroke-opacity:1"
             id="path1306" /><g
             id="g1308"
             transform="scale(4.16667)"><text
               transform="matrix(0,-1,-1,0,223.5,744.614)"
               style="font-variant:normal;font-weight:normal;font-size:14px;font-family:Menlo;-inkscape-font-specification:Menlo-Regular;writing-mode:lr-tb;fill:#afafaf;fill-opacity:1;fill-rule:nonzero;stroke:none"
               id="text1312"><tspan
                 x="0 -8.4281301 -16.857189 -25.286249"
                 y="0"
                 id="tspan1310">V8.1</tspan></text></g><path
             d="m 956.25,3025.77 v 41.67"
             style="fill:none;stroke:#afafaf;stroke-width:4.16667;stroke-linecap:butt;stroke-linejoin:miter;stroke-miterlimit:10;stroke-dasharray:none;stroke-opacity:1"
             id="path1314" /><g
             id="g1316"
             transform="scale(4.16667)"><text
               transform="matrix(0,-1,-1,0,260,744.614)"
               style="font-variant:normal;font-weight:normal;font-size:14px;font-family:Menlo;-inkscape-font-specification:Menlo-Regular;writing-mode:lr-tb;fill:#afafaf;fill-opacity:1;fill-rule:nonzero;stroke:none"
               id="text1320"><tspan
                 x="0 -8.4281301 -16.857189 -25.286249"
                 y="0"
                 id="tspan1318">V4.2</tspan></text></g><path
             d="m 1108.33,3025.77 v 41.67"
             style="fill:none;stroke:#afafaf;stroke-width:4.16667;stroke-linecap:butt;stroke-linejoin:miter;stroke-miterlimit:10;stroke-dasharray:none;stroke-opacity:1"
             id="path1322" /><g
             id="g1324"
             transform="scale(4.16667)"><text
               transform="matrix(0,-1,-1,0,296.5,744.614)"
               style="font-variant:normal;font-weight:normal;font-size:14px;font-family:Menlo;-inkscape-font-specification:Menlo-Regular;writing-mode:lr-tb;fill:#afafaf;fill-opacity:1;fill-rule:nonzero;stroke:none"
               id="text1328"><tspan
                 x="0 -8.4281301 -16.857189 -25.286249"
                 y="0"
                 id="tspan1326">V0.3</tspan></text></g><path
             d="m 1260.42,3025.77 v 41.67"
             style="fill:none;stroke:#afafaf;stroke-width:4.16667;stroke-linecap:butt;stroke-linejoin:miter;stroke-miterlimit:10;stroke-dasharray:none;stroke-opacity:1"
             id="path1330" /><g
             id="g1332"
             transform="scale(4.16667)"><text
               transform="matrix(0,-1,-1,0,333,744.614)"
               style="font-variant:normal;font-weight:normal;font-size:14px;font-family:Menlo;-inkscape-font-specification:Menlo-Regular;writing-mode:lr-tb;fill:#afafaf;fill-opacity:1;fill-rule:nonzero;stroke:none"
               id="text1336"><tspan
                 x="0 -8.4281301 -16.857189 -25.286249"
                 y="0"
                 id="tspan1334">V6.3</tspan></text></g><path
             d="m 1412.5,3025.77 v 41.67"
             style="fill:none;stroke:#afafaf;stroke-width:4.16667;stroke-linecap:butt;stroke-linejoin:miter;stroke-miterlimit:10;stroke-dasharray:none;stroke-opacity:1"
             id="path1338" /><g
             id="g1340"
             transform="scale(4.16667)"><text
               transform="matrix(0,-1,-1,0,369.5,744.614)"
               style="font-variant:normal;font-weight:normal;font-size:14px;font-family:Menlo;-inkscape-font-specification:Menlo-Regular;writing-mode:lr-tb;fill:#afafaf;fill-opacity:1;fill-rule:nonzero;stroke:none"
               id="text1344"><tspan
                 x="0 -8.4281301 -16.857189 -25.286249"
                 y="0"
                 id="tspan1342">V2.4</tspan></text></g><path
             d="m 1564.58,3025.77 v 41.67"
             style="fill:none;stroke:#afafaf;stroke-width:4.16667;stroke-linecap:butt;stroke-linejoin:miter;stroke-miterlimit:10;stroke-dasharray:none;stroke-opacity:1"
             id="path1346" /><g
             id="g1348"
             transform="scale(4.16667)"><text
               transform="matrix(0,-1,-1,0,406,744.614)"
               style="font-variant:normal;font-weight:normal;font-size:14px;font-family:Menlo;-inkscape-font-specification:Menlo-Regular;writing-mode:lr-tb;fill:#afafaf;fill-opacity:1;fill-rule:nonzero;stroke:none"
               id="text1352"><tspan
                 x="0 -8.4281301 -16.857189 -25.286249"
                 y="0"
                 id="tspan1350">V8.4</tspan></text></g><path
             d="m 1716.67,3025.77 v 41.67"
             style="fill:none;stroke:#afafaf;stroke-width:4.16667;stroke-linecap:butt;stroke-linejoin:miter;stroke-miterlimit:10;stroke-dasharray:none;stroke-opacity:1"
             id="path1354" /><g
             id="g1356"
             transform="scale(4.16667)"><text
               transform="matrix(0,-1,-1,0,442.5,744.614)"
               style="font-variant:normal;font-weight:normal;font-size:14px;font-family:Menlo;-inkscape-font-specification:Menlo-Regular;writing-mode:lr-tb;fill:#afafaf;fill-opacity:1;fill-rule:nonzero;stroke:none"
               id="text1360"><tspan
                 x="0 -8.4281301 -16.857189 -25.286249"
                 y="0"
                 id="tspan1358">V4.5</tspan></text></g><path
             d="m 1868.75,3025.77 v 41.67"
             style="fill:none;stroke:#afafaf;stroke-width:4.16667;stroke-linecap:butt;stroke-linejoin:miter;stroke-miterlimit:10;stroke-dasharray:none;stroke-opacity:1"
             id="path1362" /><g
             id="g1364"
             transform="scale(4.16667)"><text
               transform="matrix(0,-1,-1,0,479,744.614)"
               style="font-variant:normal;font-weight:normal;font-size:14px;font-family:Menlo;-inkscape-font-specification:Menlo-Regular;writing-mode:lr-tb;fill:#afafaf;fill-opacity:1;fill-rule:nonzero;stroke:none"
               id="text1368"><tspan
                 x="0 -8.4281301 -16.857189 -25.286249"
                 y="0"
                 id="tspan1366">V0.6</tspan></text></g><path
             d="m 2020.83,3025.77 v 41.67"
             style="fill:none;stroke:#afafaf;stroke-width:4.16667;stroke-linecap:butt;stroke-linejoin:miter;stroke-miterlimit:10;stroke-dasharray:none;stroke-opacity:1"
             id="path1370" /><path
             d="m 500,539.766 h 1520.83 v 2486.01 H 500 Z"
             style="fill:none;stroke:#afafaf;stroke-width:4.16667;stroke-linecap:butt;stroke-linejoin:miter;stroke-miterlimit:10;stroke-dasharray:none;stroke-opacity:1"
             id="path1372" /><g
             id="g1374"
             transform="scale(4.16667)"><text
               transform="matrix(0,-1,-1,0,489,457.686)"
               style="font-variant:normal;font-weight:normal;font-size:14px;font-family:Menlo;-inkscape-font-specification:Menlo-Regular;writing-mode:lr-tb;fill:#0eff00;fill-opacity:1;fill-rule:nonzero;stroke:none"
               id="text1378"><tspan
                 x="0 8.4280005 16.855413 25.283415 33.710827 42.138828 50.56683"
                 y="0"
                 id="tspan1376">V(vout)</tspan></text></g></g></g><g
         id="g1380"><g
           id="g1382"
           clip-path="url(#clipPath1386)"><path
             d="m 500.012,3025.77 v 0 -68.79 l 0.004,-19.13 v -17.72 -16.5 -15.43 l 0.004,-14.5 v -13.66 -22.79 -20.8 -19.15 -17.71 l -0.004,-16.5 v -19.14 -17.72 -16.5 -15.43 l 0.004,-19.14 v -17.71 -16.5 l 0.003,-22.79 0.004,-20.8 v -19.15 -17.71 l -0.023,-31.93 v -28.16 l 0.023,-25.2 -0.019,-22.78 0.004,-20.81 -0.008,-19.14 0.004,-17.72 0.004,-16.49 0.015,-15.43 -0.015,-14.5 v -13.67 -12.92 -12.27 l 0.015,-11.67 -0.023,-11.12 0.012,-10.63 0.011,-10.17 -0.011,-9.76 -0.012,-9.38 0.012,-9.03 0.011,-8.69 -0.023,-8.39 v -8.11 l 0.008,-7.84 0.004,-7.59 0.004,-7.36 -0.004,-7.13 0.015,-6.94 -0.019,-6.73 -0.004,-6.55 0.004,-6.38 -0.008,-6.21 0.008,-6.05 v -5.91 l -0.004,-5.76 0.004,-5.63 -0.004,-5.49 0.012,-5.38 -0.008,-5.25 0.008,-5.14 -0.016,-5.04 0.004,-4.93 0.004,-4.83 0.004,-4.73 0.011,-4.65 -0.011,-4.55 0.004,-4.47 0.019,-4.39 -0.023,-4.31 -0.008,-4.23 -0.004,-4.16 0.008,-4.08 0.004,-4.02 0.007,-3.96 -0.011,-3.88 v -3.83 -3.76 l -0.008,-3.71 0.008,-3.65 0.011,-3.6 -0.019,-3.54 0.008,-3.49 -0.004,-3.44 -0.004,-3.39 0.012,-3.35 -0.008,-3.29 0.004,-3.26 0.008,-3.21 -0.004,-3.16 0.007,-3.13 v -3.08 l -0.011,-3.05 0.004,-3.01 0.007,-2.97 v -2.93 l 0.004,-2.9 -0.011,-2.87 0.004,-2.82 -0.016,-2.8 0.016,-2.76 -0.008,-2.74 v -2.7 l 0.008,-2.67 -0.012,-2.64 v -2.62 l 0.019,-2.58 -0.015,-2.56 -0.008,-2.53 0.008,-2.5 -0.008,-2.48 0.012,-2.45 0.004,-2.43 -0.004,-2.4 0.004,-2.38 -0.008,-2.36 v -2.33 l -0.008,-2.31 0.016,-2.29 -0.008,-2.26 0.008,-2.25 -0.004,-2.23 v -2.2 l 0.011,-2.18 -0.027,-2.17 0.023,-2.14 -0.003,-2.13 v -2.1 l -0.004,-2.09 -0.004,-2.07 -0.004,-2.05 0.004,-2.04 0.008,-2.02 -0.012,-2 -0.004,-1.98 0.008,-1.97 v -1.95 l 0.015,-1.94 -0.015,-1.92 -0.008,-1.9 0.016,-1.89 -0.008,-1.88 -0.004,-1.86 0.008,-1.84 0.004,-1.84 -0.004,-1.82 -0.008,-1.8 0.012,-1.79 -0.008,-1.78 0.015,-1.76 -0.015,-1.76 v -1.74 l 0.023,-1.72 -0.031,-1.71 0.019,-1.71 -0.007,-1.69 0.004,-1.67 v -1.67 l -0.004,-1.65 -0.012,-1.65 0.008,-1.63 0.004,-1.62 v -1.61 l 0.004,-1.6 -0.012,-1.59 0.012,-1.58 0.007,-1.57 -0.023,-1.55 0.008,-1.55 -0.008,-1.54 0.023,-1.53 v -1.51 l -0.023,-1.51 0.012,-1.5 0.007,-1.49 -0.011,-1.48 0.008,-1.47 -0.012,-1.46 v -1.46 l 0.012,-1.44 v -1.44 l -0.012,-1.43 -0.004,-1.42 0.039,-1.41 -0.027,-1.4 -0.008,-1.4 v -2.76 l 0.004,-2.73 0.004,-2.7 -0.004,-2.68 0.008,-2.64 0.003,-2.61 0.008,-2.59 -0.027,-2.55 0.004,-2.53 0.008,-2.51 0.015,-2.47 v -2.46 l -0.011,-2.43 0.015,-2.4 0.008,-2.38 -0.023,-2.35 -0.008,-2.33 -0.004,-2.32 0.004,-2.28 0.019,-2.27 -0.023,-2.24 0.015,-2.23 -0.015,-2.2 -0.008,-2.19 0.027,-2.16 0.012,-2.15 -0.035,-2.12 0.016,-2.11 -0.012,-2.09 -0.004,-2.07 v -2.05 l 0.016,-2.03 -0.008,-2.02 0.011,-2 -0.003,-1.99 -0.004,-1.96 v -1.95 l -0.008,-1.94 0.015,-1.92 -0.015,-1.91 0.008,-1.89 -0.008,-1.87 -0.008,-1.86 0.012,-1.85 0.011,-1.83 -0.007,-1.82 -0.012,-1.81 0.008,-1.78 v -1.78 l 0.004,-1.77 -0.004,-1.75 0.008,-1.74 -0.012,-1.73 0.012,-1.71 -0.004,-1.7 0.007,-1.69 -0.003,-1.68 -0.008,-1.67 v -1.65 l 0.004,-1.64 v -1.64 l -0.008,-1.62 0.019,-1.61 -0.023,-1.6 0.031,-1.58 -0.027,-1.58 v -1.57 l 0.031,-1.56 -0.027,-1.55 0.004,-1.53 0.011,-1.53 -0.011,-1.52 -0.008,-1.51 v -1.5 l 0.015,-1.49 0.012,-1.48 -0.008,-1.47 -0.019,-1.46 0.004,-1.45 0.015,-1.45 -0.015,-1.44 -0.008,-1.42 0.023,-1.42 0.008,-1.41 -0.019,-1.41 0.015,-1.39 -0.008,-2.07 -0.015,-2.06 0.012,-2.05 v -2.02 l -0.008,-2 0.011,-2 -0.023,-1.97 0.023,-1.95 -0.003,-1.95 0.003,-1.92 -0.007,-1.91 -0.012,-1.9 0.004,-1.88 0.012,-1.86 0.015,-1.85 -0.019,-1.84 0.023,-1.82 -0.027,-1.81 0.011,-1.8 -0.003,-1.78 -0.004,-1.77 0.007,-1.75 v -1.75 l 0.028,-1.73 -0.016,-1.72 0.012,-1.7 0.004,-1.7 0.008,-1.68 -0.028,-1.67 0.012,-1.66 0.027,-1.64 1462.75,-1.64 -1462.757,-0.54 0.003,-1.63 -0.011,-1.6 -0.008,-1.6 -0.012,-1.59 0.031,-1.58 -0.019,-1.57 -0.02,-1.56 -0.007,-1.54 -0.008,-1.54 0.031,-1.53 -0.016,-1.52 -0.019,-1.51 0.015,-1.5 0.008,-1.48 -0.004,-1.48 -0.007,-1.48 -0.012,-1.46 0.027,-1.45 -0.019,-1.45 0.007,-1.43 -0.015,-1.43 0.004,-1.42 0.004,-1.41 -0.012,-1.4 0.031,-1.4 -0.027,-1.84 0.008,-1.83 -0.008,-1.83 0.004,-1.8 0.019,-1.79 0.008,-1.78 -0.023,-1.76 0.007,-1.75 v -1.74 l -0.003,-1.73 -0.008,-1.71 v -1.7 l 0.004,-1.7 0.015,-1.67 -0.023,-1.67 v -1.65 -1.65 -1.63 -1.62 l 0.004,-1.61 0.008,-1.6 -0.008,-1.59 v -1.58 -1.57 l -0.004,-1.55 0.015,-1.55 -0.011,-1.54 v -1.52 l 0.008,-1.52 -0.004,-1.51 0.004,-1.5 v -1.49 l -0.008,-1.48 0.011,-1.47 0.012,-1.46 -0.019,-1.46 0.011,-1.44 -0.004,-1.44 -0.019,-1.43 0.008,-1.42 0.019,-1.41 -0.015,-1.4 v -1.39 l -0.004,-1.73 -0.008,-1.72 0.004,-1.71 0.004,-1.7 0.015,-1.68 -0.023,-1.67 0.012,-1.66 -0.004,-1.65 v -1.63 l -0.008,-1.63 0.016,-1.61 0.003,-1.61 v -1.59 l -0.003,-1.58 0.011,-1.57 -0.008,-1.57 v -1.55 l -0.003,-1.54 v -1.53 l -0.012,-1.52 0.012,-1.52 -0.004,-1.5 v -1.49 l 0.004,-1.49 -0.008,-1.47 0.015,-1.47 -0.015,-1.45 0.015,-1.45 -0.015,-1.44 -0.008,-1.43 -0.004,-1.42 0.02,-1.42 v -1.4 l -0.016,-1.4 0.008,-1.39 -0.008,-1.66 v -1.64 l 0.008,-1.64 0.011,-1.62 v -1.61 -1.6 -1.59 l -0.011,-1.58 -0.004,-1.57 v -1.56 l 0.012,-1.55 0.007,-1.54 v -1.53 l -0.007,-1.52 -0.016,-1.51 0.004,-1.5 v -1.49 -1.48 l 0.008,-1.48 v -1.46 -1.45 l -0.004,-1.45 v -1.44 l 0.019,-1.43 -0.019,-1.42 0.011,-1.41 -0.003,-1.4 -0.02,-1.4 0.02,-1.62 -0.008,-1.61 0.008,-1.59 0.007,-1.59 v -1.57 l -0.015,-1.57 0.015,-1.55 -0.023,-1.55 0.019,-1.53 -0.011,-1.53 0.015,-1.51 0.004,-1.51 -0.011,-1.5 0.003,-1.48 -0.019,-1.48 0.039,-1.47 -0.039,-1.46 0.012,-1.45 0.004,-1.44 0.011,-1.43 -0.004,-1.43 -0.019,-1.42 0.004,-1.4 -0.008,-1.4 0.027,-1.4 -0.015,-1.58 0.011,-1.57 -0.007,-1.56 -0.012,-1.55 0.008,-1.54 0.015,-1.53 -0.011,-1.52 0.015,-1.51 -0.012,-1.5 v -1.49 l 0.008,-1.49 0.024,-1.47 -0.004,-1.46 0.023,-1.46 110.535,-0.36 -110.535,-0.18 -0.023,-1.45 0.019,-1.43 -0.035,-1.43 -0.023,-1.42 0.023,-1.41 -0.012,-1.4 0.004,-1.39 -0.011,-1.56 -0.004,-1.55 0.011,-1.54 -0.011,-1.52 0.011,-1.52 -0.003,-1.51 v -1.5 -1.49 l 0.011,-1.48 v -1.47 l -0.015,-1.46 -0.008,-1.46 v -1.44 l 0.015,-1.44 v -1.42 l -0.007,-1.42 -0.004,-1.41 v -1.4 l 0.011,-1.4 0.02,-1.54 -0.031,-1.53 -0.004,-1.52"
             style="fill:none;stroke:#0eff00;stroke-width:4.16667;stroke-linecap:butt;stroke-linejoin:miter;stroke-miterlimit:1;stroke-dasharray:none;stroke-opacity:1"
             id="path1388" /><path
             d="m 500.008,1265.03 v 0 -1.51 l -0.008,-1.5 0.016,-1.49 -0.012,-1.48 0.027,-1.48 -0.011,-1.46 0.007,-1.46 -0.011,-1.44 -0.008,-1.44 0.004,-1.43 0.011,-1.42 -0.003,-1.41 0.003,-1.41 -0.019,-1.39 0.004,-1.53 v -1.52 l 0.023,-1.5 -0.011,-1.5 -0.008,-1.49 v -1.48 l 0.015,-1.47 -0.019,-1.46 0.004,-1.45 0.004,-1.44 -0.004,-1.44 0.008,-1.42 -0.004,-1.42 0.004,-1.41 -0.012,-1.4 0.015,-1.39 -0.011,-1.51 0.015,-1.5 0.004,-1.5 -0.027,-1.48 0.019,-1.47 -0.003,-1.47 v -1.45 l -0.016,-1.45 0.012,-1.43 0.004,-1.43 -0.016,-1.42 0.008,-1.42 -0.008,-1.4 0.027,-1.39 -0.019,-1.51 0.008,-1.49 -0.004,-1.48 0.007,-1.48 -0.015,-1.47 0.012,-1.45 -0.016,-1.45 0.016,-1.44 -0.008,-1.43 -0.004,-1.42 53.5,-0.87 -53.485,-0.11 v -1.41 l -0.015,-1.4 v -1.39 l -0.004,-1.49 0.012,-1.48 -0.008,-1.47 0.015,-1.47 -0.007,-1.45 -0.004,-1.45 0.019,-1.43 -0.023,-1.43 0.012,-1.42 v -1.41 l 0.003,-1.4 -0.011,-1.39 0.004,-1.49 0.023,-1.47 -0.035,-1.47 0.008,-1.46 0.011,-1.45 -0.015,-1.44 0.012,-1.43 0.007,-1.42 -0.011,-1.42 -0.004,-1.4 0.008,-1.4 0.007,-1.39 -0.015,-1.47 v -1.47 l 0.004,-1.46 -0.004,-1.44 -0.004,-1.44 -0.008,-1.43 0.004,-1.42 0.004,-1.41 v -1.41 l 0.004,-1.4 0.004,-1.47 v -1.46 l 0.011,-1.46 -0.007,-1.45 -0.008,-1.44 -0.004,-1.43 0.008,-1.42 v -1.41 l 0.007,-1.41 -0.007,-1.4 0.004,-1.38 -0.016,-1.47 0.019,-1.45 -0.015,-1.44 v -1.44 l 0.008,-1.43 0.007,-1.41 0.016,-1.41 -0.023,-1.41 5.863,-0.07 -5.848,-0.08 -0.008,-1.4 -0.019,-1.46 0.023,-1.45 0.008,-1.44 -0.023,-1.44 v -1.43 l -0.004,-1.41 0.008,-1.41 v -1.4 l 0.004,-1.4 -0.012,-1.45 v -1.45 l -0.004,-1.45 0.031,-1.43 -0.027,-1.42 0.019,-1.41 -0.004,-1.41 -0.003,-1.4 -0.02,-1.39 0.016,-1.45 -0.004,-1.44 0.008,-1.44 -0.012,-1.42 0.012,-1.42 -0.012,-1.41 0.004,-1.4 0.004,-1.39 -0.004,-1.45 -0.008,-1.44 0.016,-1.43 v -1.42 l -0.016,-1.42 v -1.41 l 0.008,-1.4 0.004,-1.39 -0.004,-1.44 -0.008,-1.44 0.016,-1.43 -0.004,-1.41 0.007,-1.42 -0.003,-1.4 -0.02,-1.39 15.566,-0.3 -15.543,-0.07 -0.011,-1.44 v -1.44 l -0.008,-1.42 0.016,-1.42 -0.012,-1.41 0.012,-1.4 0.003,-1.4 -0.011,-1.44 -0.008,-1.44 0.016,-1.42 -0.008,-1.42 v -1.41 l -0.008,-1.4 v -1.39 l 0.004,-1.44 v -1.43 l 0.008,-1.43 0.004,-1.41 0.003,-1.41 -0.011,-1.39 0.004,-1.4 0.007,-1.43 -0.023,-1.43 0.012,-1.42 v -1.4 -1.4 l -0.004,-1.4 0.004,-1.43 -0.004,-1.43 v -1.42 l 0.004,-1.41 0.008,-1.403 -0.004,-1.395 1.39,-1.187 -1.402,-0.051 0.019,-1.43 -0.015,-1.418 v -1.41 l 0.004,-1.402 0.008,-1.395 -0.008,-1.437 -0.008,-1.426 0.016,-1.418 -0.016,-1.406 0.012,-1.403 -0.004,-1.39 v -1.434 l 0.011,-1.422 -0.007,-1.41 v -1.406 l -0.004,-1.399 0.008,-1.386 -0.008,-1.426 0.011,-1.418 -0.023,-1.41 0.02,-1.399 -0.008,-1.394 -0.012,-1.426 0.027,-1.418 -0.011,-1.41 -0.004,-1.402 v -1.395 l 0.004,-1.426 3.304,-0.379 -3.304,-0.043 v -1.414 -1.41 l -0.012,-1.398 0.012,-1.395 -0.008,-1.422 -0.004,-1.418 0.008,-1.406 -0.008,-1.402 0.008,-1.391 -0.008,-1.422 v -1.414 -1.406 l 0.008,-1.398 0.008,-1.391 -0.012,-1.418 v -1.41 -1.406 l 0.004,-1.395 -0.004,-1.426 -0.004,-1.414 0.004,-1.406 -0.004,-1.399 0.008,-1.394 v -1.418 l 2.965,-0.398 -2.965,-0.036 -0.004,-1.41 0.004,-1.398 -0.008,-1.395 0.008,-1.418 v -1.414 l 0.008,-1.402 -0.02,-1.395 v -1.418 l 0.004,-1.414 0.004,-1.406 v -1.394 -1.422 l -0.004,-1.414 0.004,-1.407 0.008,-1.394 -0.012,-1.422 v -1.414 -1.406 l 0.004,-1.395 -0.004,-1.422 v -1.414 l 1.578,-0.316 -1.578,-0.035 0.008,-1.403 -0.004,-1.39 -0.004,-1.418 0.004,-1.41 -0.004,-1.403 0.004,-1.39 -0.008,-1.415 0.004,-1.41 0.008,-1.398 -0.008,-1.391 v -1.41 l 0.004,-1.406 v -1.395 l 0.004,-1.418 v -1.406 -1.402 l -0.008,-1.391 0.004,-1.414 1.523,-1.293 -1.527,-0.027 v -1.399 -1.386 -1.411 -1.402 l -0.004,-1.391 0.004,-1.414 0.004,-1.402 -0.004,-1.394 v -1.418 -1.407 -1.398 l 0.004,-1.387 -0.008,-1.41 0.004,-1.402 0.004,-1.391 -0.004,-1.41 v -1.402 -1.395 -1.41 -1.402 l 0.004,-1.395 -0.004,-1.414 0.004,-1.402 -0.008,-1.395 0.004,-1.414 v -1.402 l 0.004,-1.395 -0.004,-1.414 v -1.402 l -0.004,-1.395 0.004,-1.41 -0.004,-1.402 0.004,-1.395 v -1.41 -1.402 -1.395 -1.406 -1.402 -1.391 l -0.004,-1.406 0.004,-1.399 v -1.39 l 0.004,-1.403 -0.004,-1.398 -0.004,-1.41 0.004,-1.403 v -1.39 l -0.004,-1.41 0.004,-1.399 v -1.391 l -0.004,-1.402 0.004,-1.394 v -1.411 -1.398 -1.395 -1.402 L 500,786.473 v -1.41 -1.399 -1.394 -1.403 l 0.004,-1.394 v -1.41 -1.399 -1.391 l -0.004,-1.402 0.004,-1.394 v -1.407 -1.398 -1.391 -1.398 l -0.004,-1.391 0.004,-1.402 v -1.395 -1.406 L 500,759.891 v -1.407 l 0.004,-1.398 -0.004,-1.391 0.004,-1.398 -0.004,-1.391 0.004,-1.402 0.004,-1.395 -0.004,-1.402 v -1.394 L 500,745.91 v -1.398 -1.403 l 0.004,-1.398 -0.004,-1.406 v -1.395 -1.39 l 0.004,-1.399 -0.004,-1.387 0.004,-1.398 -0.004,-1.391 v -1.398 l 0.004,-1.387 v -1.398 L 500,726.371 v -1.398 -1.387 -1.398 -1.403 -1.398 -1.403 -1.394 -1.402 -1.395 -1.402 -1.391 -1.402 -1.391 l 0.004,-1.398 -0.004,-1.391 v -1.395 -1.402 -1.394 -1.403 -1.39 -1.403 -1.386 -1.399 -1.402 -1.395 -1.398 -1.391 -1.398 -1.403 -1.394 -1.399 -1.39 -1.395 -1.402 -1.395 -1.398 -1.387 -1.394 -1.399 -1.394 -1.395 -1.398 -1.391 -1.398 -1.399 -1.39 -1.399 -1.398 -1.391 -1.398 -1.399 -1.39 -1.395 -1.398 -1.391 -1.394 -1.395 -1.402 -1.391 -1.395 -1.398 -1.391 -1.394 -1.395 -1.398 -1.391 -1.394 -1.395 -1.398 -1.391 -1.394 -1.395 -1.398 -1.387 -1.395 -1.394 -1.395 -1.398 -1.391 -1.39 -1.395 -1.394 -1.399 -1.387 -1.39 -1.395 -1.39 -1.399 -1.394 -1.399 -1.39 -1.391 -1.395 -1.39 -1.395 -1.398 -1.395 -1.398 -1.387 -1.39 -1.391 -1.395 -1.39 -1.395 -1.39 -1.395 -1.394 -1.395 -1.398 -1.395 -1.394 -1.395 -1.398 -1.395 -1.398 -1.395 -1.398 -1.395 -1.394"
             style="fill:none;stroke:#0eff00;stroke-width:4.16667;stroke-linecap:butt;stroke-linejoin:miter;stroke-miterlimit:1;stroke-dasharray:none;stroke-opacity:1"
             id="path1390" /><path
             d="m 500,560.352 v 0 -19.504"
             style="fill:none;stroke:#0eff00;stroke-width:4.16667;stroke-linecap:butt;stroke-linejoin:miter;stroke-miterlimit:1;stroke-dasharray:none;stroke-opacity:1"
             id="path1392" /></g></g></g></g></svg>
