<?xml version="1.0" encoding="UTF-8" standalone="no"?>
<svg
   xmlns:dc="http://purl.org/dc/elements/1.1/"
   xmlns:cc="http://creativecommons.org/ns#"
   xmlns:rdf="http://www.w3.org/1999/02/22-rdf-syntax-ns#"
   xmlns:svg="http://www.w3.org/2000/svg"
   xmlns="http://www.w3.org/2000/svg"
   version="1.1"
   id="svg902"
   xml:space="preserve"
   width="604.841"
   height="361.33768"
   viewBox="0 0 907.26149 542.00654"><metadata
     id="metadata908"><rdf:RDF><cc:Work
         rdf:about=""><dc:format>image/svg+xml</dc:format><dc:type
           rdf:resource="http://purl.org/dc/dcmitype/StillImage" /><dc:title></dc:title></cc:Work></rdf:RDF></metadata><defs
     id="defs906"><clipPath
       clipPathUnits="userSpaceOnUse"
       id="clipPath920"><path
         d="m 375,299.582 h 1729.17 v 2908.34 H 375 Z"
         id="path918" /></clipPath><clipPath
       clipPathUnits="userSpaceOnUse"
       id="clipPath1110"><path
         d="m 500,370.418 h 720.832 v 2658.33 H 500 Z"
         id="path1108" /></clipPath><clipPath
       clipPathUnits="userSpaceOnUse"
       id="clipPath1120"><path
         d="m 375,299.582 h 1729.17 v 2908.34 H 375 Z"
         id="path1118" /></clipPath><clipPath
       clipPathUnits="userSpaceOnUse"
       id="clipPath1134"><path
         d="m 1300,370.418 h 720.832 v 2658.33 H 1300 Z"
         id="path1132" /></clipPath></defs><g
     id="g910"
     transform="matrix(0,-1.3333333,-1.3333333,0,1025.6048,667.07604)"><g
       id="g912"
       transform="scale(0.24)"><g
         id="g914"><g
           id="g916"
           clip-path="url(#clipPath920)"><path
             d="M 500,3025.77 H 458.332"
             style="fill:none;stroke:#969696;stroke-width:4.16667;stroke-linecap:butt;stroke-linejoin:miter;stroke-miterlimit:10;stroke-dasharray:none;stroke-opacity:1"
             id="path922" /><g
             id="g924"
             transform="scale(4.16667)"><text
               transform="matrix(0,-1,-1,0,94.0003,738.828)"
               style="font-variant:normal;font-weight:normal;font-size:14px;font-family:Menlo;-inkscape-font-specification:Menlo-Regular;writing-mode:lr-tb;fill:#969696;fill-opacity:1;fill-rule:nonzero;stroke:none"
               id="text928"><tspan
                 x="0 8.4274139 16.855413"
                 y="0"
                 id="tspan926">0ms</tspan></text></g><path
             d="M 500,2760.39 H 458.332"
             style="fill:none;stroke:#969696;stroke-width:4.16667;stroke-linecap:butt;stroke-linejoin:miter;stroke-miterlimit:10;stroke-dasharray:none;stroke-opacity:1"
             id="path930" /><g
             id="g932"
             transform="scale(4.16667)"><text
               transform="matrix(0,-1,-1,0,94.0003,675.136)"
               style="font-variant:normal;font-weight:normal;font-size:14px;font-family:Menlo;-inkscape-font-specification:Menlo-Regular;writing-mode:lr-tb;fill:#969696;fill-opacity:1;fill-rule:nonzero;stroke:none"
               id="text936"><tspan
                 x="0 8.4280005 16.856001"
                 y="0"
                 id="tspan934">1ms</tspan></text></g><path
             d="M 500,2495 H 458.332"
             style="fill:none;stroke:#969696;stroke-width:4.16667;stroke-linecap:butt;stroke-linejoin:miter;stroke-miterlimit:10;stroke-dasharray:none;stroke-opacity:1"
             id="path938" /><g
             id="g940"
             transform="scale(4.16667)"><text
               transform="matrix(0,-1,-1,0,94.0003,611.443)"
               style="font-variant:normal;font-weight:normal;font-size:14px;font-family:Menlo;-inkscape-font-specification:Menlo-Regular;writing-mode:lr-tb;fill:#969696;fill-opacity:1;fill-rule:nonzero;stroke:none"
               id="text944"><tspan
                 x="0 8.4280005 16.856001"
                 y="0"
                 id="tspan942">2ms</tspan></text></g><path
             d="M 500,2229.61 H 458.332"
             style="fill:none;stroke:#969696;stroke-width:4.16667;stroke-linecap:butt;stroke-linejoin:miter;stroke-miterlimit:10;stroke-dasharray:none;stroke-opacity:1"
             id="path946" /><g
             id="g948"
             transform="scale(4.16667)"><text
               transform="matrix(0,-1,-1,0,94.0003,547.75)"
               style="font-variant:normal;font-weight:normal;font-size:14px;font-family:Menlo;-inkscape-font-specification:Menlo-Regular;writing-mode:lr-tb;fill:#969696;fill-opacity:1;fill-rule:nonzero;stroke:none"
               id="text952"><tspan
                 x="0 8.4280005 16.856001"
                 y="0"
                 id="tspan950">3ms</tspan></text></g><path
             d="M 500,1964.23 H 458.332"
             style="fill:none;stroke:#969696;stroke-width:4.16667;stroke-linecap:butt;stroke-linejoin:miter;stroke-miterlimit:10;stroke-dasharray:none;stroke-opacity:1"
             id="path954" /><g
             id="g956"
             transform="scale(4.16667)"><text
               transform="matrix(0,-1,-1,0,94.0003,484.058)"
               style="font-variant:normal;font-weight:normal;font-size:14px;font-family:Menlo;-inkscape-font-specification:Menlo-Regular;writing-mode:lr-tb;fill:#969696;fill-opacity:1;fill-rule:nonzero;stroke:none"
               id="text960"><tspan
                 x="0 8.4280005 16.856001"
                 y="0"
                 id="tspan958">4ms</tspan></text></g><path
             d="M 500,1698.84 H 458.332"
             style="fill:none;stroke:#969696;stroke-width:4.16667;stroke-linecap:butt;stroke-linejoin:miter;stroke-miterlimit:10;stroke-dasharray:none;stroke-opacity:1"
             id="path962" /><g
             id="g964"
             transform="scale(4.16667)"><text
               transform="matrix(0,-1,-1,0,94.0003,420.365)"
               style="font-variant:normal;font-weight:normal;font-size:14px;font-family:Menlo;-inkscape-font-specification:Menlo-Regular;writing-mode:lr-tb;fill:#969696;fill-opacity:1;fill-rule:nonzero;stroke:none"
               id="text968"><tspan
                 x="0 8.4280005 16.856001"
                 y="0"
                 id="tspan966">5ms</tspan></text></g><path
             d="M 500,1433.45 H 458.332"
             style="fill:none;stroke:#969696;stroke-width:4.16667;stroke-linecap:butt;stroke-linejoin:miter;stroke-miterlimit:10;stroke-dasharray:none;stroke-opacity:1"
             id="path970" /><g
             id="g972"
             transform="scale(4.16667)"><text
               transform="matrix(0,-1,-1,0,94.0003,356.672)"
               style="font-variant:normal;font-weight:normal;font-size:14px;font-family:Menlo;-inkscape-font-specification:Menlo-Regular;writing-mode:lr-tb;fill:#969696;fill-opacity:1;fill-rule:nonzero;stroke:none"
               id="text976"><tspan
                 x="0 8.4280005 16.855413"
                 y="0"
                 id="tspan974">6ms</tspan></text></g><path
             d="M 500,1168.07 H 458.332"
             style="fill:none;stroke:#969696;stroke-width:4.16667;stroke-linecap:butt;stroke-linejoin:miter;stroke-miterlimit:10;stroke-dasharray:none;stroke-opacity:1"
             id="path978" /><g
             id="g980"
             transform="scale(4.16667)"><text
               transform="matrix(0,-1,-1,0,94.0003,292.979)"
               style="font-variant:normal;font-weight:normal;font-size:14px;font-family:Menlo;-inkscape-font-specification:Menlo-Regular;writing-mode:lr-tb;fill:#969696;fill-opacity:1;fill-rule:nonzero;stroke:none"
               id="text984"><tspan
                 x="0 8.4280005 16.855413"
                 y="0"
                 id="tspan982">7ms</tspan></text></g><path
             d="M 500,902.68 H 458.332"
             style="fill:none;stroke:#969696;stroke-width:4.16667;stroke-linecap:butt;stroke-linejoin:miter;stroke-miterlimit:10;stroke-dasharray:none;stroke-opacity:1"
             id="path986" /><g
             id="g988"
             transform="scale(4.16667)"><text
               transform="matrix(0,-1,-1,0,94.0003,229.286)"
               style="font-variant:normal;font-weight:normal;font-size:14px;font-family:Menlo;-inkscape-font-specification:Menlo-Regular;writing-mode:lr-tb;fill:#969696;fill-opacity:1;fill-rule:nonzero;stroke:none"
               id="text992"><tspan
                 x="0 8.4280005 16.855413"
                 y="0"
                 id="tspan990">8ms</tspan></text></g><path
             d="M 500,637.293 H 458.332"
             style="fill:none;stroke:#969696;stroke-width:4.16667;stroke-linecap:butt;stroke-linejoin:miter;stroke-miterlimit:10;stroke-dasharray:none;stroke-opacity:1"
             id="path994" /><g
             id="g996"
             transform="scale(4.16667)"><text
               transform="matrix(0,-1,-1,0,94.0003,165.593)"
               style="font-variant:normal;font-weight:normal;font-size:14px;font-family:Menlo;-inkscape-font-specification:Menlo-Regular;writing-mode:lr-tb;fill:#969696;fill-opacity:1;fill-rule:nonzero;stroke:none"
               id="text1002"><tspan
                 x="0 8.4280005 16.855413"
                 y="0"
                 id="tspan998">9ms</tspan><tspan
                 x="-579.021 -587.44916 -595.87817 -604.30725"
                 y="-20"
                 id="tspan1000">V01-</tspan></text></g><path
             d="m 500,3025.77 v 41.67"
             style="fill:none;stroke:#969696;stroke-width:4.16667;stroke-linecap:butt;stroke-linejoin:miter;stroke-miterlimit:10;stroke-dasharray:none;stroke-opacity:1"
             id="path1004" /><g
             id="g1006"
             transform="scale(4.16667)"><text
               transform="matrix(0,-1,-1,0,148.5,744.614)"
               style="font-variant:normal;font-weight:normal;font-size:14px;font-family:Menlo;-inkscape-font-specification:Menlo-Regular;writing-mode:lr-tb;fill:#969696;fill-opacity:1;fill-rule:nonzero;stroke:none"
               id="text1010"><tspan
                 x="0 -8.4281301 -16.857189"
                 y="0"
                 id="tspan1008">V6-</tspan></text></g><path
             d="m 643.75,3025.77 v 41.67"
             style="fill:none;stroke:#969696;stroke-width:4.16667;stroke-linecap:butt;stroke-linejoin:miter;stroke-miterlimit:10;stroke-dasharray:none;stroke-opacity:1"
             id="path1012" /><g
             id="g1014"
             transform="scale(4.16667)"><text
               transform="matrix(0,-1,-1,0,183,744.614)"
               style="font-variant:normal;font-weight:normal;font-size:14px;font-family:Menlo;-inkscape-font-specification:Menlo-Regular;writing-mode:lr-tb;fill:#969696;fill-opacity:1;fill-rule:nonzero;stroke:none"
               id="text1018"><tspan
                 x="0 -8.4281301 -16.857189"
                 y="0"
                 id="tspan1016">V2-</tspan></text></g><path
             d="m 787.5,3025.77 v 41.67"
             style="fill:none;stroke:#969696;stroke-width:4.16667;stroke-linecap:butt;stroke-linejoin:miter;stroke-miterlimit:10;stroke-dasharray:none;stroke-opacity:1"
             id="path1020" /><g
             id="g1022"
             transform="scale(4.16667)"><text
               transform="matrix(0,-1,-1,0,217.5,744.614)"
               style="font-variant:normal;font-weight:normal;font-size:14px;font-family:Menlo;-inkscape-font-specification:Menlo-Regular;writing-mode:lr-tb;fill:#969696;fill-opacity:1;fill-rule:nonzero;stroke:none"
               id="text1026"><tspan
                 x="0 -8.4281301"
                 y="0"
                 id="tspan1024">V2</tspan></text></g><path
             d="m 931.25,3025.77 v 41.67"
             style="fill:none;stroke:#969696;stroke-width:4.16667;stroke-linecap:butt;stroke-linejoin:miter;stroke-miterlimit:10;stroke-dasharray:none;stroke-opacity:1"
             id="path1028" /><g
             id="g1030"
             transform="scale(4.16667)"><text
               transform="matrix(0,-1,-1,0,252,744.614)"
               style="font-variant:normal;font-weight:normal;font-size:14px;font-family:Menlo;-inkscape-font-specification:Menlo-Regular;writing-mode:lr-tb;fill:#969696;fill-opacity:1;fill-rule:nonzero;stroke:none"
               id="text1034"><tspan
                 x="0 -8.4281301"
                 y="0"
                 id="tspan1032">V6</tspan></text></g><path
             d="m 1075,3025.77 v 41.67"
             style="fill:none;stroke:#969696;stroke-width:4.16667;stroke-linecap:butt;stroke-linejoin:miter;stroke-miterlimit:10;stroke-dasharray:none;stroke-opacity:1"
             id="path1036" /><g
             id="g1038"
             transform="scale(4.16667)"><text
               transform="matrix(0,-1,-1,0,286.5,744.614)"
               style="font-variant:normal;font-weight:normal;font-size:14px;font-family:Menlo;-inkscape-font-specification:Menlo-Regular;writing-mode:lr-tb;fill:#969696;fill-opacity:1;fill-rule:nonzero;stroke:none"
               id="text1042"><tspan
                 x="0 -8.4281301 -16.857189"
                 y="0"
                 id="tspan1040">V01</tspan></text></g><path
             d="m 1218.75,3025.77 v 41.67"
             style="fill:none;stroke:#969696;stroke-width:4.16667;stroke-linecap:butt;stroke-linejoin:miter;stroke-miterlimit:10;stroke-dasharray:none;stroke-opacity:1"
             id="path1044" /><path
             d="m 500,371.906 h 718.75 v 2653.87 H 500 Z"
             style="fill:none;stroke:#969696;stroke-width:4.16667;stroke-linecap:butt;stroke-linejoin:miter;stroke-miterlimit:10;stroke-dasharray:none;stroke-opacity:1"
             id="path1046" /><g
             id="g1048"
             transform="scale(4.16667)"><text
               transform="matrix(0,-1,-1,0,306.5,744.614)"
               style="font-variant:normal;font-weight:normal;font-size:14px;font-family:Menlo;-inkscape-font-specification:Menlo-Regular;writing-mode:lr-tb;fill:#afafaf;fill-opacity:1;fill-rule:nonzero;stroke:none"
               id="text1052"><tspan
                 x="0 -8.4281301 -16.857189 -25.286249"
                 y="0"
                 id="tspan1050">V51-</tspan></text></g><path
             d="m 1302.08,3025.77 v 41.67"
             style="fill:none;stroke:#afafaf;stroke-width:4.16667;stroke-linecap:butt;stroke-linejoin:miter;stroke-miterlimit:10;stroke-dasharray:none;stroke-opacity:1"
             id="path1054" /><g
             id="g1056"
             transform="scale(4.16667)"><text
               transform="matrix(0,-1,-1,0,341,744.614)"
               style="font-variant:normal;font-weight:normal;font-size:14px;font-family:Menlo;-inkscape-font-specification:Menlo-Regular;writing-mode:lr-tb;fill:#afafaf;fill-opacity:1;fill-rule:nonzero;stroke:none"
               id="text1060"><tspan
                 x="0 -8.4281301 -16.857189"
                 y="0"
                 id="tspan1058">V9-</tspan></text></g><path
             d="m 1445.83,3025.77 v 41.67"
             style="fill:none;stroke:#afafaf;stroke-width:4.16667;stroke-linecap:butt;stroke-linejoin:miter;stroke-miterlimit:10;stroke-dasharray:none;stroke-opacity:1"
             id="path1062" /><g
             id="g1064"
             transform="scale(4.16667)"><text
               transform="matrix(0,-1,-1,0,375.5,744.614)"
               style="font-variant:normal;font-weight:normal;font-size:14px;font-family:Menlo;-inkscape-font-specification:Menlo-Regular;writing-mode:lr-tb;fill:#afafaf;fill-opacity:1;fill-rule:nonzero;stroke:none"
               id="text1068"><tspan
                 x="0 -8.4281301 -16.857189"
                 y="0"
                 id="tspan1066">V3-</tspan></text></g><path
             d="m 1589.58,3025.77 v 41.67"
             style="fill:none;stroke:#afafaf;stroke-width:4.16667;stroke-linecap:butt;stroke-linejoin:miter;stroke-miterlimit:10;stroke-dasharray:none;stroke-opacity:1"
             id="path1070" /><g
             id="g1072"
             transform="scale(4.16667)"><text
               transform="matrix(0,-1,-1,0,410,744.614)"
               style="font-variant:normal;font-weight:normal;font-size:14px;font-family:Menlo;-inkscape-font-specification:Menlo-Regular;writing-mode:lr-tb;fill:#afafaf;fill-opacity:1;fill-rule:nonzero;stroke:none"
               id="text1076"><tspan
                 x="0 -8.4281301"
                 y="0"
                 id="tspan1074">V3</tspan></text></g><path
             d="m 1733.33,3025.77 v 41.67"
             style="fill:none;stroke:#afafaf;stroke-width:4.16667;stroke-linecap:butt;stroke-linejoin:miter;stroke-miterlimit:10;stroke-dasharray:none;stroke-opacity:1"
             id="path1078" /><g
             id="g1080"
             transform="scale(4.16667)"><text
               transform="matrix(0,-1,-1,0,444.5,744.614)"
               style="font-variant:normal;font-weight:normal;font-size:14px;font-family:Menlo;-inkscape-font-specification:Menlo-Regular;writing-mode:lr-tb;fill:#afafaf;fill-opacity:1;fill-rule:nonzero;stroke:none"
               id="text1084"><tspan
                 x="0 -8.4281301"
                 y="0"
                 id="tspan1082">V9</tspan></text></g><path
             d="m 1877.08,3025.77 v 41.67"
             style="fill:none;stroke:#afafaf;stroke-width:4.16667;stroke-linecap:butt;stroke-linejoin:miter;stroke-miterlimit:10;stroke-dasharray:none;stroke-opacity:1"
             id="path1086" /><g
             id="g1088"
             transform="scale(4.16667)"><text
               transform="matrix(0,-1,-1,0,479,744.614)"
               style="font-variant:normal;font-weight:normal;font-size:14px;font-family:Menlo;-inkscape-font-specification:Menlo-Regular;writing-mode:lr-tb;fill:#afafaf;fill-opacity:1;fill-rule:nonzero;stroke:none"
               id="text1092"><tspan
                 x="0 -8.4281301 -16.857189"
                 y="0"
                 id="tspan1090">V51</tspan></text></g><path
             d="m 2020.83,3025.77 v 41.67"
             style="fill:none;stroke:#afafaf;stroke-width:4.16667;stroke-linecap:butt;stroke-linejoin:miter;stroke-miterlimit:10;stroke-dasharray:none;stroke-opacity:1"
             id="path1094" /><path
             d="m 1302.08,371.906 h 718.75 v 2653.87 h -718.75 z"
             style="fill:none;stroke:#afafaf;stroke-width:4.16667;stroke-linecap:butt;stroke-linejoin:miter;stroke-miterlimit:10;stroke-dasharray:none;stroke-opacity:1"
             id="path1096" /><g
             id="g1098"
             transform="scale(4.16667)"><text
               transform="matrix(0,-1,-1,0,296,437.686)"
               style="font-variant:normal;font-weight:normal;font-size:14px;font-family:Menlo;-inkscape-font-specification:Menlo-Regular;writing-mode:lr-tb;fill:#0eff00;fill-opacity:1;fill-rule:nonzero;stroke:none"
               id="text1102"><tspan
                 x="0 8.4280005 16.856001 25.283415 33.711414 42.138828 50.56683"
                 y="0"
                 id="tspan1100">V(vout)</tspan></text></g></g></g><g
         id="g1104"><g
           id="g1106"
           clip-path="url(#clipPath1110)"><path
             d="m 754.406,3025.77 v 0 l -4.984,-1.56 -9.707,-3.1 -18.047,-6.22 -27.301,-10.62 -24.879,-10.61 -24.582,-10.62 -24.039,-10.61 -22.074,-10.62 -19.539,-10.61 -17.281,-10.62 -0.43,-1.48 0.828,-1.65 1.238,-1.97 2.098,-3.08 3.367,-4.7 5.781,-7.86 7.922,-10.62 8,-10.61 8.078,-10.62 8.165,-10.61 8.203,-10.55 8.359,-10.62 8.477,-10.62 8.617,-10.61 8.875,-10.62 10.297,-10.61 8.101,-5.16 8.211,-3.17 6.836,-2.12 6.742,-2.04 11.004,-3.3 15.488,-4.52 31.844,-9.04 38.352,-10.62 39.012,-10.62 39.078,-10.61 38.453,-10.62 37.051,-10.61 34.668,-10.62 30.842,-10.61 26.57,-10.62 24.58,-10.61 24.5,-10.62 23.53,-10.61 21.35,-10.62 19.44,-10.62 2.21,-1.32 4.1,-2.66 4.31,-2.89 1.06,-1.57 -1.09,-2.49 -1.4,-2.17 -2.18,-3.16 -4.01,-5.56 -6.23,-8.45 -7.94,-10.62 -8.02,-10.61 -8.09,-10.62 -7.08,-9.2 -7.85,-10.09 -8.37,-10.62 -8.47,-10.61 -8.63,-10.62 -8.89,-10.61 -10.49,-10.62 -8.32,-5.13 -7.91,-3.01 -6.14,-1.9 -6.89,-2.09 -11.38,-3.41 -17.14,-4.99 -35.285,-9.99 -38.449,-10.62 -39.055,-10.62 -39.031,-10.61 -38.305,-10.62 -36.785,-10.61 -34.23,-10.62 -30.196,-10.61 -26.054,-10.62 -24.489,-10.61 -24.429,-10.62 -23.25,-10.62 -21.024,-10.61 -19.039,-10.62 -2.164,-1.32 -3.969,-2.66 -2.496,-2.1 -0.586,-1.4 0.961,-2.19 1.918,-2.94 1.637,-2.35 2.308,-3.21 4.204,-5.74 7,-9.42 7.972,-10.61 8.047,-10.62 8.129,-10.61 8.219,-10.62 8.316,-10.61 8.43,-10.62 8.558,-10.62 8.747,-10.61 9.207,-10.62 7.648,-6.57 7.508,-3.61 10.172,-3.41 10.343,-3.16 10.696,-3.19 22.011,-6.39 37.672,-10.61 38.606,-10.62 39.097,-10.62 38.934,-10.61 38.051,-10.62 36.34,-10.61 33.504,-10.62 29.201,-10.61 25.38,-10.62 24.42,-10.61 24.31,-10.62 22.81,-10.61 20.5,-10.62 18.41,-10.62 2.04,-1.32 3.7,-2.66 0.02,-1.79 -1.41,-2.44 -1.96,-2.91 -2.78,-3.94 -5.32,-7.27 -7.9,-10.61 -7.98,-10.62 -8.05,-10.61 -8.15,-10.62 -8.23,-10.62 -8.34,-10.61 -8.45,-10.62 -8.58,-10.61 -8.81,-10.62 -9.64,-10.61 -8.33,-6.14 -8.25,-3.46 -8.33,-2.62 -8.45,-2.56 -9.75,-2.92 -15.23,-4.46 -27.519,-7.84 -38.246,-10.61 -38.942,-10.62 -39.094,-10.61 -38.562,-10.62 -37.266,-10.62 -35.031,-10.61 -31.387,-10.62 -26.961,-10.61 -24.476,-10.62 -24.379,-10.61 -23.703,-10.62 -21.66,-10.61 -19.817,-10.62 -2.262,-1.33 -4.078,-2.65 -7.621,-5.31 0.25,-2.02 1.699,-2.79 2.125,-3.1 3.684,-5.14 5.711,-7.77 7.922,-10.61 8.004,-10.62 8.078,-10.61 8.16,-10.62 7.93,-10.19 8.359,-10.61 8.477,-10.62 8.617,-10.62 8.891,-10.61 10.523,-10.62 8.613,-5.11 10.602,-3.92 7.769,-2.4 7.602,-2.28 15.426,-4.56 19.668,-5.67 37.898,-10.61 38.723,-10.62 39.109,-10.61 38.832,-10.62 37.82,-10.62 35.954,-10.61 32.878,-10.62 28.43,-10.61 24.9,-10.62 24.34,-10.61 24.14,-10.62 22.45,-10.61 20.08,-10.62 17.96,-10.61 3.03,-2.48 0.12,-1.79 -1.07,-1.89 -2.26,-3.39 -2.21,-3.12 -4.54,-6.23 -7.88,-10.62 -7.97,-10.61 -8.04,-10.62 -8.13,-10.61 -8.22,-10.62 -8.31,-10.62 -8.43,-10.61 -8.57,-10.62 -8.75,-10.61 -9.22,-10.62 -7.51,-6.41 -7.4,-3.53 -10.15,-3.39 -10.09,-3.09 -10.45,-3.12 -21.503,-6.25 -37.614,-10.62 -38.566,-10.61 -39.078,-10.62 -38.942,-10.61 -38.078,-10.62 -36.402,-10.61 -33.609,-10.62 -29.309,-10.61 -25.352,-10.62 -24.281,-10.61 -24.25,-10.62 -22.863,-10.61 -20.586,-10.62 -18.524,-10.62 -2.089,-1.32 -3.883,-2.66 -0.738,-1.69 0.835,-1.73 0.973,-1.57 1.953,-2.89 2.957,-4.16 5.676,-7.75 7.902,-10.62 7.989,-10.61 8.066,-10.62 8.149,-10.61 8.242,-10.62 8.347,-10.61 8.461,-10.62 8.598,-10.61 8.84,-10.62 9.863,-10.61 7.508,-5.29 7.414,-3.035 6.816,-2.145 6.832,-2.082 8.579,-2.593 13.222,-3.903 27.164,-7.801 38.012,-10.613 38.824,-10.617 39.106,-10.613 38.711,-10.618 37.578,-10.613 35.543,-10.617 32.215,-10.617 27.692,-10.613 24.54,-10.618 24.27,-10.613 23.93,-10.617 22.1,-10.613 19.64,-10.618 17.47,-10.617 1.08,-1.539 -1.07,-2.465 -1.3,-2.035 -2.21,-3.203 -3.9,-5.422 -6.14,-8.336 -7.94,-10.617 -8.01,-10.613 -8.08,-10.617 -7.16,-9.301 -7.88,-10.129 -8.36,-10.617 -8.48,-10.614 -8.61,-10.617 -8.9,-10.613 -10.61,-10.617 -8.58,-5.11 -9.21,-3.429 -6.99,-2.16 -7.03,-2.125 -14.29,-4.247 -19.363,-5.605 -37.746,-10.613 -38.625,-10.617 -39.09,-10.614 -38.891,-10.617 -37.965,-10.617 -36.207,-10.613 -33.293,-10.618 -28.886,-10.613 -25.059,-10.617 -24.215,-10.613 -24.16,-10.618 -22.683,-10.613 -20.375,-10.617 -18.286,-10.617 -1.824,-1.188 -3.312,-2.379 -0.067,-1.855 1.395,-2.43 1.691,-2.531 2.871,-4.066 5.164,-7.075 7.887,-10.617 7.977,-10.613 8.054,-10.617 8.137,-10.614 8.231,-10.617 8.332,-10.613 8.441,-10.617 8.582,-10.617 8.789,-10.614 9.578,-10.617 8.219,-6.144 8.375,-3.543 8.613,-2.723 8.785,-2.668 9.907,-2.973 15.839,-4.629 27.614,-7.925 3.465,-0.985"
             style="fill:none;stroke:#0eff00;stroke-width:4.16667;stroke-linecap:butt;stroke-linejoin:miter;stroke-miterlimit:1;stroke-dasharray:none;stroke-opacity:1"
             id="path1112" /></g></g><g
         id="g1114"><g
           id="g1116"
           clip-path="url(#clipPath1120)"><g
             id="g1122"
             transform="scale(4.16667)"><text
               transform="matrix(0,-1,-1,0,489,437.686)"
               style="font-variant:normal;font-weight:normal;font-size:14px;font-family:Menlo;-inkscape-font-specification:Menlo-Regular;writing-mode:lr-tb;fill:#0000ff;fill-opacity:1;fill-rule:nonzero;stroke:none"
               id="text1126"><tspan
                 x="0 8.4280005 16.856001 25.283415 33.711414 42.138828 50.56683"
                 y="0"
                 id="tspan1124">V(vin2)</tspan></text></g></g></g><g
         id="g1128"><g
           id="g1130"
           clip-path="url(#clipPath1134)"><path
             d="m 1661.46,3025.77 v 0 l -5.82,-1.56 -11.64,-3.1 -23.2,-6.22 -39.16,-10.62 -38.18,-10.61 -36.75,-10.62 -34.84,-10.61 -32.54,-10.62 -29.82,-10.61 -26.74,-10.62 -2.11,-0.9 -2.82,-1.22 -2.32,-1.01 -4.4,-1.97 -6.64,-3.08 -9.55,-4.7 -14.32,-7.86 -15.91,-10.62 -11.79,-10.61 -7.53,-10.62 -3.18,-10.61 1.18,-10.55 5.55,-10.62 9.86,-10.62 14.05,-10.61 18.06,-10.62 21.85,-10.61 11.91,-5.16 7.72,-3.17 5.34,-2.12 5.24,-2.04 8.73,-3.3 12.44,-4.52 26.44,-9.04 33.4,-10.62 35.57,-10.62 37.3,-10.61 38.59,-10.62 39.39,-10.61 39.71,-10.62 39.55,-10.61 38.92,-10.62 37.79,-10.61 36.21,-10.62 34.19,-10.61 31.75,-10.62 28.92,-10.62 3.4,-1.32 6.65,-2.66 7.01,-2.89 1.74,-0.73 1.96,-0.84 1.52,-0.65 1.62,-0.71 2.57,-1.13 4.82,-2.17 6.76,-3.16 11.09,-5.56 14.84,-8.45 15.09,-10.62 10.95,-10.61 6.66,-10.62 2.24,-9.2 -1.33,-10.09 -5.66,-10.62 -9.98,-10.61 -14.15,-10.62 -18.16,-10.61 -21.95,-10.62 -11.88,-5.13 -7.34,-3.01 -4.79,-1.9 -5.36,-2.09 -9.01,-3.41 -13.79,-4.99 -29.45,-9.99 -33.72,-10.62 -35.83,-10.62 -37.5,-10.61 -38.72,-10.62 -39.46,-10.61 -39.73,-10.62 -39.49,-10.61 -38.79,-10.62 -37.6,-10.61 -35.96,-10.62 -33.89,-10.62 -31.38,-10.61 -28.51,-10.62 -3.35,-1.32 -6.53,-2.66 -5.02,-2.1 -3.27,-1.4 -2.55,-1.1 -2.46,-1.09 -2.97,-1.33 -3.5,-1.61 -4.98,-2.35 -6.52,-3.21 -10.78,-5.74 -15.24,-9.42 -13.35,-10.61 -9.14,-10.62 -4.82,-10.61 -0.44,-10.62 3.95,-10.61 8.29,-10.62 12.52,-10.62 16.61,-10.61 20.49,-10.62 14.51,-6.57 8.57,-3.61 8.42,-3.41 8.1,-3.16 8.48,-3.19 17.77,-6.39 31.76,-10.61 34.21,-10.62 36.22,-10.62 37.8,-10.61 38.92,-10.62 39.55,-10.61 39.72,-10.62 39.38,-10.61 38.58,-10.62 37.29,-10.61 35.56,-10.62 33.39,-10.61 30.81,-10.62 27.86,-10.62 3.25,-1.32 6.36,-2.66 2.72,-1.16 1.46,-0.63 2.24,-0.98 3.28,-1.46 6.34,-2.91 8.14,-3.94 13.69,-7.27 16.71,-10.61 12.62,-10.62 8.39,-10.61 4.05,-10.62 -0.33,-10.62 -4.72,-10.61 -9.04,-10.62 -13.25,-10.61 -17.3,-10.62 -21.14,-10.61 -13.88,-6.14 -8.32,-3.46 -6.55,-2.62 -6.58,-2.56 -7.75,-2.92 -12.23,-4.46 -22.78,-7.84 -33.08,-10.61 -35.31,-10.62 -37.1,-10.61 -38.44,-10.62 -39.31,-10.62 -39.7,-10.61 -39.6,-10.62 -39.03,-10.61 -37.96,-10.62 -36.45,-10.61 -34.48,-10.62 -32.1,-10.61 -29.31,-10.62 -3.46,-1.33 -6.75,-2.65 -12.88,-5.31 -1.81,-0.77 -2.87,-1.25 -2.12,-0.93 -4.15,-1.86 -6.68,-3.1 -10.35,-5.14 -13.98,-7.77 -15.69,-10.61 -11.57,-10.62 -7.3,-10.61 -2.94,-10.62 1.3,-10.19 5.64,-10.61 9.95,-10.62 14.12,-10.62 18.14,-10.61 21.93,-10.62 11.84,-5.11 9.62,-3.92 6.08,-2.4 5.96,-2.28 12.33,-4.56 16.07,-5.67 32.18,-10.61 34.57,-10.62 36.51,-10.61 38.01,-10.62 39.05,-10.62 39.62,-10.61 39.69,-10.62 39.29,-10.61 38.4,-10.62 37.04,-10.61 35.23,-10.62 33,-10.61 30.35,-10.62 27.34,-10.61 2,-0.83 3.92,-1.65 2.31,-0.99 1.85,-0.8 1.91,-0.84 2.37,-1.05 2.75,-1.24 4.64,-2.15 6.48,-3.12 11.98,-6.23 17.34,-10.62 13.29,-10.61 9.08,-10.62 4.75,-10.61 0.37,-10.62 -4.01,-10.62 -8.35,-10.61 -12.58,-10.62 -16.67,-10.61 -20.54,-10.62 -14.17,-6.41 -8.36,-3.53 -8.37,-3.39 -7.91,-3.09 -8.27,-3.12 -17.34,-6.25 -31.67,-10.62 -34.12,-10.61 -36.15,-10.62 -37.76,-10.61 -38.88,-10.62 -39.54,-10.61 -39.72,-10.62 -39.4,-10.61 -38.62,-10.62 -37.34,-10.61 -35.64,-10.62 -33.47,-10.61 -30.91,-10.62 -27.97,-10.62 -3.27,-1.32 -6.39,-2.66 -2.55,-1.08 -1.43,-0.61 -1.53,-0.67 -2.41,-1.06 -3.52,-1.57 -6.27,-2.89 -8.54,-4.16 -14.37,-7.75 -16.31,-10.62 -12.21,-10.61 -7.96,-10.62 -3.61,-10.61 0.77,-10.62 5.14,-10.61 9.47,-10.62 13.66,-10.61 17.69,-10.62 21.51,-10.61 12.05,-5.29 7.31,-3.035 5.33,-2.145 5.3,-2.082 6.77,-2.593 10.54,-3.903 22.25,-7.801 32.59,-10.613 34.9,-10.617 36.78,-10.613 38.21,-10.618 39.18,-10.613 39.66,-10.617 39.66,-10.617 39.18,-10.613 38.21,-10.618 36.79,-10.613 34.9,-10.617 32.6,-10.613 29.89,-10.618 26.83,-10.617 1.56,-0.66 2.06,-0.879 1.51,-0.652 1.6,-0.699 2.53,-1.114 4.51,-2.035 6.84,-3.203 10.81,-5.422 14.68,-8.336 15.15,-10.617 11,-10.613 6.72,-10.617 2.32,-9.301 -1.32,-10.129 -5.66,-10.617 -9.96,-10.614 -14.14,-10.617 -18.16,-10.613 -21.94,-10.617 -11.83,-5.11 -8.38,-3.429 -5.46,-2.16 -5.5,-2.125 -11.36,-4.247 -15.73,-5.605 -31.89,-10.613 -34.31,-10.617 -36.3,-10.614 -37.87,-10.617 -38.95,-10.617 -39.58,-10.613 -39.71,-10.618 -39.35,-10.613 -38.53,-10.617 -37.22,-10.613 -35.47,-10.618 -33.28,-10.613 -30.68,-10.617 -27.7,-10.617 -2.91,-1.188 -5.68,-2.379 -1.41,-0.601 -1.53,-0.66 -3.79,-1.657 -3.07,-1.367 -5.52,-2.531 -8.43,-4.066 -13.37,-7.075 -16.82,-10.617 -12.74,-10.613 -8.52,-10.617 -4.17,-10.614 0.2,-10.617 4.59,-10.613 8.91,-10.617 13.13,-10.617 17.19,-10.614 21.04,-10.617 13.83,-6.144 8.5,-3.543 6.79,-2.723 6.85,-2.668 7.88,-2.973 12.74,-4.629 23.06,-7.925 2.97,-0.985"
             style="fill:none;stroke:#0000ff;stroke-width:4.16667;stroke-linecap:butt;stroke-linejoin:miter;stroke-miterlimit:1;stroke-dasharray:none;stroke-opacity:1"
             id="path1136" /></g></g></g></g></svg>
