<?xml version="1.0" encoding="UTF-8" standalone="no"?>
<svg
   xmlns:dc="http://purl.org/dc/elements/1.1/"
   xmlns:cc="http://creativecommons.org/ns#"
   xmlns:rdf="http://www.w3.org/1999/02/22-rdf-syntax-ns#"
   xmlns:svg="http://www.w3.org/2000/svg"
   xmlns="http://www.w3.org/2000/svg"
   version="1.1"
   id="svg614"
   xml:space="preserve"
   width="604.841"
   height="361.33768"
   viewBox="0 0 907.26149 542.00654"><metadata
     id="metadata620"><rdf:RDF><cc:Work
         rdf:about=""><dc:format>image/svg+xml</dc:format><dc:type
           rdf:resource="http://purl.org/dc/dcmitype/StillImage" /><dc:title></dc:title></cc:Work></rdf:RDF></metadata><defs
     id="defs618"><clipPath
       clipPathUnits="userSpaceOnUse"
       id="clipPath632"><path
         d="m 375,299.582 h 1729.17 v 2908.34 H 375 Z"
         id="path630" /></clipPath><clipPath
       clipPathUnits="userSpaceOnUse"
       id="clipPath814"><path
         d="m 500,370.418 h 720.832 v 2658.33 H 500 Z"
         id="path812" /></clipPath><clipPath
       clipPathUnits="userSpaceOnUse"
       id="clipPath824"><path
         d="m 375,299.582 h 1729.17 v 2908.34 H 375 Z"
         id="path822" /></clipPath><clipPath
       clipPathUnits="userSpaceOnUse"
       id="clipPath838"><path
         d="m 500,370.418 h 720.832 v 2658.33 H 500 Z"
         id="path836" /></clipPath><clipPath
       clipPathUnits="userSpaceOnUse"
       id="clipPath848"><path
         d="m 375,299.582 h 1729.17 v 2908.34 H 375 Z"
         id="path846" /></clipPath><clipPath
       clipPathUnits="userSpaceOnUse"
       id="clipPath862"><path
         d="m 1300,370.418 h 720.832 v 2658.33 H 1300 Z"
         id="path860" /></clipPath></defs><g
     id="g622"
     transform="matrix(0,-1.3333333,-1.3333333,0,1025.6048,667.07604)"><g
       id="g624"
       transform="scale(0.24)"><g
         id="g626"><g
           id="g628"
           clip-path="url(#clipPath632)"><path
             d="M 500,3025.77 H 458.332"
             style="fill:none;stroke:#969696;stroke-width:4.16667;stroke-linecap:butt;stroke-linejoin:miter;stroke-miterlimit:10;stroke-dasharray:none;stroke-opacity:1"
             id="path634" /><g
             id="g636"
             transform="scale(4.16667)"><text
               transform="matrix(0,-1,-1,0,94.0003,738.828)"
               style="font-variant:normal;font-weight:normal;font-size:14px;font-family:Menlo;-inkscape-font-specification:Menlo-Regular;writing-mode:lr-tb;fill:#969696;fill-opacity:1;fill-rule:nonzero;stroke:none"
               id="text640"><tspan
                 x="0 8.4274139 16.855413"
                 y="0"
                 id="tspan638">0ms</tspan></text></g><path
             d="M 500,2760.39 H 458.332"
             style="fill:none;stroke:#969696;stroke-width:4.16667;stroke-linecap:butt;stroke-linejoin:miter;stroke-miterlimit:10;stroke-dasharray:none;stroke-opacity:1"
             id="path642" /><g
             id="g644"
             transform="scale(4.16667)"><text
               transform="matrix(0,-1,-1,0,94.0003,675.136)"
               style="font-variant:normal;font-weight:normal;font-size:14px;font-family:Menlo;-inkscape-font-specification:Menlo-Regular;writing-mode:lr-tb;fill:#969696;fill-opacity:1;fill-rule:nonzero;stroke:none"
               id="text648"><tspan
                 x="0 8.4280005 16.856001"
                 y="0"
                 id="tspan646">1ms</tspan></text></g><path
             d="M 500,2495 H 458.332"
             style="fill:none;stroke:#969696;stroke-width:4.16667;stroke-linecap:butt;stroke-linejoin:miter;stroke-miterlimit:10;stroke-dasharray:none;stroke-opacity:1"
             id="path650" /><g
             id="g652"
             transform="scale(4.16667)"><text
               transform="matrix(0,-1,-1,0,94.0003,611.443)"
               style="font-variant:normal;font-weight:normal;font-size:14px;font-family:Menlo;-inkscape-font-specification:Menlo-Regular;writing-mode:lr-tb;fill:#969696;fill-opacity:1;fill-rule:nonzero;stroke:none"
               id="text656"><tspan
                 x="0 8.4280005 16.856001"
                 y="0"
                 id="tspan654">2ms</tspan></text></g><path
             d="M 500,2229.61 H 458.332"
             style="fill:none;stroke:#969696;stroke-width:4.16667;stroke-linecap:butt;stroke-linejoin:miter;stroke-miterlimit:10;stroke-dasharray:none;stroke-opacity:1"
             id="path658" /><g
             id="g660"
             transform="scale(4.16667)"><text
               transform="matrix(0,-1,-1,0,94.0003,547.75)"
               style="font-variant:normal;font-weight:normal;font-size:14px;font-family:Menlo;-inkscape-font-specification:Menlo-Regular;writing-mode:lr-tb;fill:#969696;fill-opacity:1;fill-rule:nonzero;stroke:none"
               id="text664"><tspan
                 x="0 8.4280005 16.856001"
                 y="0"
                 id="tspan662">3ms</tspan></text></g><path
             d="M 500,1964.23 H 458.332"
             style="fill:none;stroke:#969696;stroke-width:4.16667;stroke-linecap:butt;stroke-linejoin:miter;stroke-miterlimit:10;stroke-dasharray:none;stroke-opacity:1"
             id="path666" /><g
             id="g668"
             transform="scale(4.16667)"><text
               transform="matrix(0,-1,-1,0,94.0003,484.058)"
               style="font-variant:normal;font-weight:normal;font-size:14px;font-family:Menlo;-inkscape-font-specification:Menlo-Regular;writing-mode:lr-tb;fill:#969696;fill-opacity:1;fill-rule:nonzero;stroke:none"
               id="text672"><tspan
                 x="0 8.4280005 16.856001"
                 y="0"
                 id="tspan670">4ms</tspan></text></g><path
             d="M 500,1698.84 H 458.332"
             style="fill:none;stroke:#969696;stroke-width:4.16667;stroke-linecap:butt;stroke-linejoin:miter;stroke-miterlimit:10;stroke-dasharray:none;stroke-opacity:1"
             id="path674" /><g
             id="g676"
             transform="scale(4.16667)"><text
               transform="matrix(0,-1,-1,0,94.0003,420.365)"
               style="font-variant:normal;font-weight:normal;font-size:14px;font-family:Menlo;-inkscape-font-specification:Menlo-Regular;writing-mode:lr-tb;fill:#969696;fill-opacity:1;fill-rule:nonzero;stroke:none"
               id="text680"><tspan
                 x="0 8.4280005 16.856001"
                 y="0"
                 id="tspan678">5ms</tspan></text></g><path
             d="M 500,1433.45 H 458.332"
             style="fill:none;stroke:#969696;stroke-width:4.16667;stroke-linecap:butt;stroke-linejoin:miter;stroke-miterlimit:10;stroke-dasharray:none;stroke-opacity:1"
             id="path682" /><g
             id="g684"
             transform="scale(4.16667)"><text
               transform="matrix(0,-1,-1,0,94.0003,356.672)"
               style="font-variant:normal;font-weight:normal;font-size:14px;font-family:Menlo;-inkscape-font-specification:Menlo-Regular;writing-mode:lr-tb;fill:#969696;fill-opacity:1;fill-rule:nonzero;stroke:none"
               id="text688"><tspan
                 x="0 8.4280005 16.855413"
                 y="0"
                 id="tspan686">6ms</tspan></text></g><path
             d="M 500,1168.07 H 458.332"
             style="fill:none;stroke:#969696;stroke-width:4.16667;stroke-linecap:butt;stroke-linejoin:miter;stroke-miterlimit:10;stroke-dasharray:none;stroke-opacity:1"
             id="path690" /><g
             id="g692"
             transform="scale(4.16667)"><text
               transform="matrix(0,-1,-1,0,94.0003,292.979)"
               style="font-variant:normal;font-weight:normal;font-size:14px;font-family:Menlo;-inkscape-font-specification:Menlo-Regular;writing-mode:lr-tb;fill:#969696;fill-opacity:1;fill-rule:nonzero;stroke:none"
               id="text696"><tspan
                 x="0 8.4280005 16.855413"
                 y="0"
                 id="tspan694">7ms</tspan></text></g><path
             d="M 500,902.68 H 458.332"
             style="fill:none;stroke:#969696;stroke-width:4.16667;stroke-linecap:butt;stroke-linejoin:miter;stroke-miterlimit:10;stroke-dasharray:none;stroke-opacity:1"
             id="path698" /><g
             id="g700"
             transform="scale(4.16667)"><text
               transform="matrix(0,-1,-1,0,94.0003,229.286)"
               style="font-variant:normal;font-weight:normal;font-size:14px;font-family:Menlo;-inkscape-font-specification:Menlo-Regular;writing-mode:lr-tb;fill:#969696;fill-opacity:1;fill-rule:nonzero;stroke:none"
               id="text704"><tspan
                 x="0 8.4280005 16.855413"
                 y="0"
                 id="tspan702">8ms</tspan></text></g><path
             d="M 500,637.293 H 458.332"
             style="fill:none;stroke:#969696;stroke-width:4.16667;stroke-linecap:butt;stroke-linejoin:miter;stroke-miterlimit:10;stroke-dasharray:none;stroke-opacity:1"
             id="path706" /><g
             id="g708"
             transform="scale(4.16667)"><text
               transform="matrix(0,-1,-1,0,94.0003,165.593)"
               style="font-variant:normal;font-weight:normal;font-size:14px;font-family:Menlo;-inkscape-font-specification:Menlo-Regular;writing-mode:lr-tb;fill:#969696;fill-opacity:1;fill-rule:nonzero;stroke:none"
               id="text714"><tspan
                 x="0 8.4280005 16.855413"
                 y="0"
                 id="tspan710">9ms</tspan><tspan
                 x="-579.021 -587.44916 -595.87817 -604.30725"
                 y="-20"
                 id="tspan712">V01-</tspan></text></g><path
             d="m 500,3025.77 v 41.67"
             style="fill:none;stroke:#969696;stroke-width:4.16667;stroke-linecap:butt;stroke-linejoin:miter;stroke-miterlimit:10;stroke-dasharray:none;stroke-opacity:1"
             id="path716" /><g
             id="g718"
             transform="scale(4.16667)"><text
               transform="matrix(0,-1,-1,0,200.25,744.614)"
               style="font-variant:normal;font-weight:normal;font-size:14px;font-family:Menlo;-inkscape-font-specification:Menlo-Regular;writing-mode:lr-tb;fill:#969696;fill-opacity:1;fill-rule:nonzero;stroke:none"
               id="text722"><tspan
                 x="0 -8.4281301"
                 y="0"
                 id="tspan720">V1</tspan></text></g><path
             d="m 859.375,3025.77 v 41.67"
             style="fill:none;stroke:#969696;stroke-width:4.16667;stroke-linecap:butt;stroke-linejoin:miter;stroke-miterlimit:10;stroke-dasharray:none;stroke-opacity:1"
             id="path724" /><g
             id="g726"
             transform="scale(4.16667)"><text
               transform="matrix(0,-1,-1,0,286.5,744.614)"
               style="font-variant:normal;font-weight:normal;font-size:14px;font-family:Menlo;-inkscape-font-specification:Menlo-Regular;writing-mode:lr-tb;fill:#969696;fill-opacity:1;fill-rule:nonzero;stroke:none"
               id="text730"><tspan
                 x="0 -8.4281301 -16.857189"
                 y="0"
                 id="tspan728">V21</tspan></text></g><path
             d="m 1218.75,3025.77 v 41.67"
             style="fill:none;stroke:#969696;stroke-width:4.16667;stroke-linecap:butt;stroke-linejoin:miter;stroke-miterlimit:10;stroke-dasharray:none;stroke-opacity:1"
             id="path732" /><path
             d="m 500,371.906 h 718.75 v 2653.87 H 500 Z"
             style="fill:none;stroke:#969696;stroke-width:4.16667;stroke-linecap:butt;stroke-linejoin:miter;stroke-miterlimit:10;stroke-dasharray:none;stroke-opacity:1"
             id="path734" /><g
             id="g736"
             transform="scale(4.16667)"><text
               transform="matrix(0,-1,-1,0,306.5,744.614)"
               style="font-variant:normal;font-weight:normal;font-size:14px;font-family:Menlo;-inkscape-font-specification:Menlo-Regular;writing-mode:lr-tb;fill:#afafaf;fill-opacity:1;fill-rule:nonzero;stroke:none"
               id="text740"><tspan
                 x="0 -8.4281301 -16.857189"
                 y="0"
                 id="tspan738">V7-</tspan></text></g><path
             d="m 1302.08,3025.77 v 41.67"
             style="fill:none;stroke:#afafaf;stroke-width:4.16667;stroke-linecap:butt;stroke-linejoin:miter;stroke-miterlimit:10;stroke-dasharray:none;stroke-opacity:1"
             id="path742" /><g
             id="g744"
             transform="scale(4.16667)"><text
               transform="matrix(0,-1,-1,0,331.143,744.614)"
               style="font-variant:normal;font-weight:normal;font-size:14px;font-family:Menlo;-inkscape-font-specification:Menlo-Regular;writing-mode:lr-tb;fill:#afafaf;fill-opacity:1;fill-rule:nonzero;stroke:none"
               id="text748"><tspan
                 x="0 -8.4281301 -16.857189"
                 y="0"
                 id="tspan746">V5-</tspan></text></g><path
             d="m 1404.76,3025.77 v 41.67"
             style="fill:none;stroke:#afafaf;stroke-width:4.16667;stroke-linecap:butt;stroke-linejoin:miter;stroke-miterlimit:10;stroke-dasharray:none;stroke-opacity:1"
             id="path750" /><g
             id="g752"
             transform="scale(4.16667)"><text
               transform="matrix(0,-1,-1,0,355.786,744.614)"
               style="font-variant:normal;font-weight:normal;font-size:14px;font-family:Menlo;-inkscape-font-specification:Menlo-Regular;writing-mode:lr-tb;fill:#afafaf;fill-opacity:1;fill-rule:nonzero;stroke:none"
               id="text756"><tspan
                 x="0 -8.4281301 -16.857189"
                 y="0"
                 id="tspan754">V3-</tspan></text></g><path
             d="m 1507.44,3025.77 v 41.67"
             style="fill:none;stroke:#afafaf;stroke-width:4.16667;stroke-linecap:butt;stroke-linejoin:miter;stroke-miterlimit:10;stroke-dasharray:none;stroke-opacity:1"
             id="path758" /><g
             id="g760"
             transform="scale(4.16667)"><text
               transform="matrix(0,-1,-1,0,380.428,744.614)"
               style="font-variant:normal;font-weight:normal;font-size:14px;font-family:Menlo;-inkscape-font-specification:Menlo-Regular;writing-mode:lr-tb;fill:#afafaf;fill-opacity:1;fill-rule:nonzero;stroke:none"
               id="text764"><tspan
                 x="0 -8.4281301 -16.857189"
                 y="0"
                 id="tspan762">V1-</tspan></text></g><path
             d="m 1610.12,3025.77 v 41.67"
             style="fill:none;stroke:#afafaf;stroke-width:4.16667;stroke-linecap:butt;stroke-linejoin:miter;stroke-miterlimit:10;stroke-dasharray:none;stroke-opacity:1"
             id="path766" /><g
             id="g768"
             transform="scale(4.16667)"><text
               transform="matrix(0,-1,-1,0,405.071,744.614)"
               style="font-variant:normal;font-weight:normal;font-size:14px;font-family:Menlo;-inkscape-font-specification:Menlo-Regular;writing-mode:lr-tb;fill:#afafaf;fill-opacity:1;fill-rule:nonzero;stroke:none"
               id="text772"><tspan
                 x="0 -8.4281301"
                 y="0"
                 id="tspan770">V1</tspan></text></g><path
             d="m 1712.8,3025.77 v 41.67"
             style="fill:none;stroke:#afafaf;stroke-width:4.16667;stroke-linecap:butt;stroke-linejoin:miter;stroke-miterlimit:10;stroke-dasharray:none;stroke-opacity:1"
             id="path774" /><g
             id="g776"
             transform="scale(4.16667)"><text
               transform="matrix(0,-1,-1,0,429.714,744.614)"
               style="font-variant:normal;font-weight:normal;font-size:14px;font-family:Menlo;-inkscape-font-specification:Menlo-Regular;writing-mode:lr-tb;fill:#afafaf;fill-opacity:1;fill-rule:nonzero;stroke:none"
               id="text780"><tspan
                 x="0 -8.4281301"
                 y="0"
                 id="tspan778">V3</tspan></text></g><path
             d="m 1815.48,3025.77 v 41.67"
             style="fill:none;stroke:#afafaf;stroke-width:4.16667;stroke-linecap:butt;stroke-linejoin:miter;stroke-miterlimit:10;stroke-dasharray:none;stroke-opacity:1"
             id="path782" /><g
             id="g784"
             transform="scale(4.16667)"><text
               transform="matrix(0,-1,-1,0,454.357,744.614)"
               style="font-variant:normal;font-weight:normal;font-size:14px;font-family:Menlo;-inkscape-font-specification:Menlo-Regular;writing-mode:lr-tb;fill:#afafaf;fill-opacity:1;fill-rule:nonzero;stroke:none"
               id="text788"><tspan
                 x="0 -8.4281301"
                 y="0"
                 id="tspan786">V5</tspan></text></g><path
             d="m 1918.16,3025.77 v 41.67"
             style="fill:none;stroke:#afafaf;stroke-width:4.16667;stroke-linecap:butt;stroke-linejoin:miter;stroke-miterlimit:10;stroke-dasharray:none;stroke-opacity:1"
             id="path790" /><g
             id="g792"
             transform="scale(4.16667)"><text
               transform="matrix(0,-1,-1,0,479,744.614)"
               style="font-variant:normal;font-weight:normal;font-size:14px;font-family:Menlo;-inkscape-font-specification:Menlo-Regular;writing-mode:lr-tb;fill:#afafaf;fill-opacity:1;fill-rule:nonzero;stroke:none"
               id="text796"><tspan
                 x="0 -8.4281301"
                 y="0"
                 id="tspan794">V7</tspan></text></g><path
             d="m 2020.83,3025.77 v 41.67"
             style="fill:none;stroke:#afafaf;stroke-width:4.16667;stroke-linecap:butt;stroke-linejoin:miter;stroke-miterlimit:10;stroke-dasharray:none;stroke-opacity:1"
             id="path798" /><path
             d="m 1302.08,371.906 h 718.75 v 2653.87 h -718.75 z"
             style="fill:none;stroke:#afafaf;stroke-width:4.16667;stroke-linecap:butt;stroke-linejoin:miter;stroke-miterlimit:10;stroke-dasharray:none;stroke-opacity:1"
             id="path800" /><g
             id="g802"
             transform="scale(4.16667)"><text
               transform="matrix(0,-1,-1,0,296,596.686)"
               style="font-variant:normal;font-weight:normal;font-size:14px;font-family:Menlo;-inkscape-font-specification:Menlo-Regular;writing-mode:lr-tb;fill:#0eff00;fill-opacity:1;fill-rule:nonzero;stroke:none"
               id="text806"><tspan
                 x="0 8.4280005 16.856001 25.283415 33.711414 42.138828 50.56683"
                 y="0"
                 id="tspan804">V(vin2)</tspan></text></g></g></g><g
         id="g808"><g
           id="g810"
           clip-path="url(#clipPath814)"><path
             d="m 826.703,3025.77 v 0 l -5.289,-1.56 -10.578,-3.1 -21.098,-6.22 -35.597,-10.62 -34.711,-10.61 -33.399,-10.62 -31.683,-10.61 -29.578,-10.62 -27.11,-10.61 -24.308,-10.62 -21.219,-10.62 -17.86,-10.61 -14.289,-10.62 -10.543,-10.61 -6.668,-10.62 -2.71,-10.61 1.167,-10.25 5.118,-10.61 9.031,-10.62 12.832,-10.61 16.48,-10.62 19.926,-10.61 23.129,-10.62 26.043,-10.61 28.649,-10.62 30.898,-10.61 32.773,-10.62 34.243,-10.61 35.3,-10.62 35.926,-10.62 36.106,-10.61 35.855,-10.62 35.156,-10.61 34.035,-10.62 32.493,-10.61 30.557,-10.62 28.25,-10.61 25.6,-10.62 22.62,-10.62 19.38,-10.61 15.9,-10.62 12.23,-10.61 8.4,-10.62 4.47,-10.61 0.5,-10.62 -3.5,-10.61 -7.44,-10.62 -11.29,-10.62 -15.01,-10.61 -18.55,-10.62 -21.84,-10.61 -24.89,-10.62 -27.63,-10.61 -30.019,-10.62 -32.051,-10.61 -33.695,-10.62 -34.918,-10.62 -35.723,-10.61 -36.086,-10.62 -36.008,-10.61 -35.496,-10.62 -34.543,-10.61 -33.175,-10.62 -31.395,-10.61 -29.238,-10.62 -26.719,-10.62 -23.875,-10.61 -20.738,-10.62 -17.352,-10.61 -13.75,-10.62 -9.98,-10.61 -6.09,-10.62 -2.078,-9.26 1.203,-10.12 5.144,-10.61 9.059,-10.62 12.863,-10.61 16.504,-10.62 19.949,-10.61 23.149,-10.62 26.066,-10.61 28.664,-10.62 30.914,-10.61 32.786,-10.62 34.253,-10.62 35.305,-10.61 35.926,-10.62 36.109,-10.61 35.848,-10.62 35.152,-10.61 34.024,-10.62 32.484,-10.61 30.537,-10.62 28.23,-10.61 25.58,-10.62 22.6,-10.61 19.36,-10.62 15.87,-10.62 12.2,-10.61 8.37,-10.62 4.45,-10.61 0.46,-10.62 -3.52,-10.61 -7.46,-10.62 -11.33,-10.61 -15.03,-10.62 -18.57,-10.61 -21.87,-10.62 -24.91,-10.61 -27.65,-10.62 -30.032,-10.62 -32.066,-10.61 -33.703,-10.62 -34.926,-10.61 -35.727,-10.62 -36.086,-10.61 -36.007,-10.62 -35.493,-10.61 -34.535,-10.62 -33.16,-10.61 -31.383,-10.62 -29.222,-10.61 -26.7,-10.62 -23.851,-10.62 -20.715,-10.61 -17.328,-10.62 -13.723,-10.61 -9.953,-10.62 -6.062,-10.61 -2.047,-9.22 1.207,-10.1 5.148,-10.61 9.063,-10.62 12.863,-10.61 16.512,-10.62 19.949,-10.61 23.152,-10.62 26.071,-10.61 28.668,-10.62 30.914,-10.62 32.785,-10.61 34.254,-10.62 35.308,-10.61 35.926,-10.62 36.109,-10.61 35.848,-10.62 35.152,-10.61 34.024,-10.62 32.48,-10.61 30.536,-10.62 28.23,-10.61 25.57,-10.62 22.6,-10.62 19.35,-10.61 15.88,-10.62 12.19,-10.61 8.37,-10.62 4.44,-10.61 0.46,-10.62 -3.52,-10.61 -7.48,-10.62 -11.32,-10.61 -15.04,-10.62 -18.57,-10.61 -21.88,-10.62 -24.91,-10.62 -27.64,-10.61 -30.043,-10.62 -32.066,-10.61 -33.707,-10.62 -34.926,-10.61 -35.727,-10.62 -36.086,-10.61 -36.007,-10.62 -35.489,-10.61 -34.539,-10.62 -33.16,-10.62 -31.379,-10.61 -29.219,-10.62 -26.695,-10.61 -23.852,-10.62 -20.71,-10.61 -17.325,-10.62 -13.718,-10.61 -9.95,-10.62 -6.058,-10.62 -2.043,-9.2 1.207,-10.1 5.148,-10.62 9.063,-10.61 12.867,-10.62 16.508,-10.61 19.953,-10.62 23.152,-10.61 26.071,-10.617 28.668,-10.613 30.914,-10.617 32.785,-10.618 34.258,-10.613 35.304,-10.617 35.93,-10.613 36.105,-10.618 35.848,-10.613 35.152,-10.617 34.024,-10.613 32.48,-10.618 30.542,-10.617 28.22,-10.613 25.57,-10.617 22.6,-10.613 19.36,-10.618 15.87,-10.613 12.19,-10.617 8.37,-10.617 4.44,-10.614 0.46,-10.617 -3.52,-10.613 -7.48,-10.617 -11.32,-10.614 -15.04,-10.617 -18.57,-10.613 -21.88,-10.617 -24.91,-10.617 -27.65,-10.614 -30.037,-10.617 -32.07,-10.613 -33.703,-10.617 -34.926,-10.614 -35.727,-10.617 -36.089,-10.613 -36.008,-10.617 -35.489,-10.617 -34.535,-10.614 -33.16,-10.617 -31.379,-10.613 -29.219,-10.617 -26.695,-10.614 -23.851,-10.617 -20.711,-10.617 -17.321,-10.613 -13.718,-10.618 -9.95,-10.613 -6.058,-10.617 -2.043,-9.207 1.207,-10.094 5.152,-10.613 9.063,-10.617 12.863,-10.614 16.508,-10.617 19.953,-10.617 23.152,-10.613 26.071,-10.617 20.652,-7.735"
             style="fill:none;stroke:#0eff00;stroke-width:4.16667;stroke-linecap:butt;stroke-linejoin:miter;stroke-miterlimit:1;stroke-dasharray:none;stroke-opacity:1"
             id="path816" /></g></g><g
         id="g818"><g
           id="g820"
           clip-path="url(#clipPath824)"><g
             id="g826"
             transform="scale(4.16667)"><text
               transform="matrix(0,-1,-1,0,296,282.9)"
               style="font-variant:normal;font-weight:normal;font-size:14px;font-family:Menlo;-inkscape-font-specification:Menlo-Regular;writing-mode:lr-tb;fill:#0000ff;fill-opacity:1;fill-rule:nonzero;stroke:none"
               id="text830"><tspan
                 x="0 8.4280005 16.855413 25.283415 33.710827 42.138828 50.56683 58.994244"
                 y="0"
                 id="tspan828">V(vcath)</tspan></text></g></g></g><g
         id="g832"><g
           id="g834"
           clip-path="url(#clipPath838)"><path
             d="m 1165.47,3025.77 v 0 l -0.02,-1.56 -0.06,-3.1 -0.13,-6.22 -0.23,-10.62 -0.24,-10.61 -0.25,-10.62 -0.24,-10.61 -0.21,-10.62 -0.19,-10.61 -0.14,-10.62 -0.1,-10.62 -0.04,-10.61 0.01,-10.62 0.05,-10.61 0.11,-10.62 0.14,-10.61 0.17,-10.25 0.19,-10.61 0.21,-10.62 0.22,-10.61 0.22,-10.62 0.21,-10.61 0.19,-10.62 0.16,-10.61 0.13,-10.62 0.08,-10.61 0.04,-10.62 -0.01,-10.61 -0.07,-10.62 -0.13,-10.62 -0.17,-10.61 -0.22,-10.62 -0.24,-10.61 -0.25,-10.62 -0.24,-10.61 -0.23,-10.62 -0.2,-10.61 -0.16,-10.62 -0.12,-10.62 -0.07,-10.61 -0.01,-10.62 0.04,-10.61 0.08,-10.62 0.13,-10.61 0.16,-10.62 0.18,-10.61 0.21,-10.62 0.21,-10.62 0.22,-10.61 0.22,-10.62 0.19,-10.61 0.18,-10.62 0.14,-10.61 0.11,-10.62 0.05,-10.61 0.01,-10.62 -0.05,-10.62 -0.1,-10.61 -0.16,-10.62 -0.2,-10.61 -0.23,-10.62 -0.25,-10.61 -0.24,-10.62 -0.24,-10.61 -0.21,-10.62 -0.18,-10.62 -0.14,-10.61 -0.08,-10.62 -0.04,-10.61 0.02,-10.62 0.06,-10.61 0.11,-10.62 0.12,-9.26 0.17,-10.12 0.2,-10.61 0.21,-10.62 0.22,-10.61 0.21,-10.62 0.21,-10.61 0.19,-10.62 0.16,-10.61 0.13,-10.62 0.08,-10.61 0.04,-10.62 -0.01,-10.62 -0.07,-10.61 -0.13,-10.62 -0.18,-10.61 -0.21,-10.62 -0.24,-10.61 -0.25,-10.62 -0.24,-10.61 -0.23,-10.62 -0.2,-10.61 -0.16,-10.62 -0.12,-10.61 -0.07,-10.62 -0.01,-10.62 0.03,-10.61 0.09,-10.62 0.12,-10.61 0.16,-10.62 0.19,-10.61 0.21,-10.62 0.21,-10.61 0.22,-10.62 0.22,-10.61 0.19,-10.62 0.18,-10.61 0.14,-10.62 0.1,-10.62 0.06,-10.61 0.01,-10.62 -0.05,-10.61 -0.1,-10.62 -0.16,-10.61 -0.2,-10.62 -0.23,-10.61 -0.25,-10.62 -0.25,-10.61 -0.24,-10.62 -0.21,-10.61 -0.18,-10.62 -0.13,-10.62 -0.09,-10.61 -0.03,-10.62 0.01,-10.61 0.07,-10.62 0.1,-10.61 0.13,-9.22 0.17,-10.1 0.19,-10.61 0.21,-10.62 0.22,-10.61 0.22,-10.62 0.21,-10.61 0.19,-10.62 0.16,-10.61 0.12,-10.62 0.09,-10.62 0.04,-10.61 -0.02,-10.62 -0.07,-10.61 -0.13,-10.62 -0.17,-10.61 -0.22,-10.62 -0.24,-10.61 -0.25,-10.62 -0.24,-10.61 -0.23,-10.62 -0.2,-10.61 -0.16,-10.62 -0.12,-10.62 -0.06,-10.61 -0.02,-10.62 0.04,-10.61 0.08,-10.62 0.13,-10.61 0.16,-10.62 0.18,-10.61 0.21,-10.62 0.22,-10.61 0.22,-10.62 0.21,-10.61 0.2,-10.62 0.17,-10.62 0.15,-10.61 0.1,-10.62 0.06,-10.61 v -10.62 l -0.04,-10.61 -0.11,-10.62 -0.16,-10.61 -0.2,-10.62 -0.23,-10.61 -0.25,-10.62 -0.25,-10.62 -0.23,-10.61 -0.21,-10.62 -0.18,-10.61 -0.14,-10.62 -0.09,-10.61 -0.03,-10.62 0.01,-10.61 0.07,-10.62 0.11,-10.62 0.12,-9.2 0.17,-10.1 0.19,-10.62 0.21,-10.61 0.22,-10.62 0.22,-10.61 0.21,-10.62 0.19,-10.61 0.16,-10.617 0.13,-10.613 0.08,-10.617 0.04,-10.618 -0.01,-10.613 -0.08,-10.617 -0.12,-10.613 -0.18,-10.618 -0.22,-10.613 -0.24,-10.617 -0.25,-10.613 -0.24,-10.618 -0.23,-10.617 -0.19,-10.613 -0.17,-10.617 -0.12,-10.613 -0.06,-10.618 -0.02,-10.613 0.04,-10.617 0.08,-10.617 0.13,-10.614 0.16,-10.617 0.19,-10.613 0.2,-10.617 0.22,-10.614 0.22,-10.617 0.21,-10.613 0.2,-10.617 0.17,-10.617 0.14,-10.614 0.11,-10.617 0.06,-10.613 v -10.617 l -0.05,-10.614 -0.1,-10.617 -0.16,-10.613 -0.2,-10.617 -0.23,-10.617 -0.25,-10.614 -0.25,-10.617 -0.23,-10.613 -0.21,-10.617 -0.18,-10.614 -0.14,-10.617 -0.09,-10.617 -0.03,-10.613 0.02,-10.618 0.06,-10.613 0.11,-10.617 0.12,-9.207 0.17,-10.094 0.19,-10.613 0.22,-10.617 0.22,-10.614 0.21,-10.617 0.21,-10.617 0.18,-10.613 0.17,-10.617 0.1,-7.735"
             style="fill:none;stroke:#0000ff;stroke-width:4.16667;stroke-linecap:butt;stroke-linejoin:miter;stroke-miterlimit:1;stroke-dasharray:none;stroke-opacity:1"
             id="path840" /></g></g><g
         id="g842"><g
           id="g844"
           clip-path="url(#clipPath848)"><g
             id="g850"
             transform="scale(4.16667)"><text
               transform="matrix(0,-1,-1,0,489,437.686)"
               style="font-variant:normal;font-weight:normal;font-size:14px;font-family:Menlo;-inkscape-font-specification:Menlo-Regular;writing-mode:lr-tb;fill:#ff0000;fill-opacity:1;fill-rule:nonzero;stroke:none"
               id="text854"><tspan
                 x="0 8.4280005 16.856001 25.283415 33.711414 42.138828 50.56683"
                 y="0"
                 id="tspan852">V(vout)</tspan></text></g></g></g><g
         id="g856"><g
           id="g858"
           clip-path="url(#clipPath862)"><path
             d="m 1571.73,3025.77 v 0 l -5.28,-1.56 -10.62,-3.1 -21.34,-6.22 -36.34,-10.62 -35.46,-10.61 -33.37,-10.62 -30.17,-10.61 -26.17,-10.62 -21.69,-10.61 -17.02,-10.62 -12.45,-10.62 -8.05,-10.61 -3.83,-10.62 0.31,-10.61 4.39,-10.62 8.4,-10.61 11.92,-10.25 16.18,-10.61 19.86,-10.62 23.35,-10.61 26.56,-10.62 29.43,-10.61 31.92,-10.62 33.97,-10.61 35.56,-10.62 36.62,-10.61 37.18,-10.62 37.22,-10.61 36.89,-10.62 36.44,-10.62 36.3,-10.61 36.36,-10.62 35.97,-10.61 34.44,-10.62 31.71,-10.61 28.03,-10.62 23.71,-10.61 19.1,-10.62 14.45,-10.62 9.98,-10.61 5.69,-10.62 1.51,-10.61 -2.58,-10.62 -6.65,-10.61 -10.66,-10.62 -14.59,-10.61 -18.36,-10.62 -21.96,-10.62 -25.28,-10.61 -28.31,-10.62 -30.95,-10.61 -33.19,-10.62 -34.97,-10.61 -36.24,-10.62 -37.02,-10.61 -37.26,-10.62 -37.06,-10.62 -36.61,-10.61 -36.31,-10.62 -36.35,-10.61 -36.24,-10.62 -35.22,-10.61 -32.96,-10.62 -29.63,-10.61 -25.53,-10.62 -21,-10.62 -16.34,-10.61 -11.78,-10.62 -7.43,-10.61 -3.21,-10.62 0.91,-10.61 4.86,-10.62 7.62,-9.26 11.93,-10.12 16.23,-10.61 19.88,-10.62 23.37,-10.61 26.59,-10.62 29.45,-10.61 31.94,-10.62 33.98,-10.61 35.56,-10.62 36.63,-10.61 37.18,-10.62 37.23,-10.62 36.88,-10.61 36.44,-10.62 36.29,-10.61 36.37,-10.62 35.95,-10.61 34.43,-10.62 31.68,-10.61 28,-10.62 23.68,-10.61 19.06,-10.62 14.41,-10.61 9.95,-10.62 5.66,-10.62 1.49,-10.61 -2.62,-10.62 -6.68,-10.61 -10.68,-10.62 -14.61,-10.61 -18.4,-10.62 -21.97,-10.61 -25.31,-10.62 -28.32,-10.61 -30.97,-10.62 -33.21,-10.61 -34.97,-10.62 -36.26,-10.62 -37.01,-10.61 -37.27,-10.62 -37.05,-10.61 -36.61,-10.62 -36.3,-10.61 -36.35,-10.62 -36.23,-10.61 -35.21,-10.62 -32.93,-10.61 -29.6,-10.62 -25.5,-10.61 -20.96,-10.62 -16.3,-10.62 -11.76,-10.61 -7.39,-10.62 -3.18,-10.61 0.94,-10.62 4.89,-10.61 7.59,-9.22 11.92,-10.1 16.23,-10.61 19.89,-10.62 23.38,-10.61 26.59,-10.62 29.45,-10.61 31.94,-10.62 33.98,-10.61 35.57,-10.62 36.63,-10.62 37.18,-10.61 37.22,-10.62 36.88,-10.61 36.44,-10.62 36.29,-10.61 36.36,-10.62 35.95,-10.61 34.42,-10.62 31.68,-10.61 27.99,-10.62 23.67,-10.61 19.05,-10.62 14.42,-10.62 9.94,-10.61 5.65,-10.62 1.48,-10.61 -2.61,-10.62 -6.68,-10.61 -10.69,-10.62 -14.62,-10.61 -18.4,-10.62 -21.98,-10.61 -25.3,-10.62 -28.33,-10.61 -30.97,-10.62 -33.21,-10.62 -34.97,-10.61 -36.26,-10.62 -37.01,-10.61 -37.27,-10.62 -37.05,-10.61 -36.6,-10.62 -36.31,-10.61 -36.34,-10.62 -36.22,-10.61 -35.21,-10.62 -32.93,-10.62 -29.59,-10.61 -25.49,-10.62 -20.96,-10.61 -16.29,-10.62 -11.75,-10.61 -7.39,-10.62 -3.18,-10.61 0.95,-10.62 4.89,-10.62 7.58,-9.2 11.93,-10.1 16.23,-10.62 19.89,-10.61 23.37,-10.62 26.59,-10.61 29.45,-10.62 31.94,-10.61 33.99,-10.617 35.56,-10.613 36.63,-10.617 37.18,-10.618 37.22,-10.613 36.88,-10.617 36.44,-10.613 36.28,-10.618 36.36,-10.613 35.95,-10.617 34.42,-10.613 31.68,-10.618 27.99,-10.617 23.66,-10.613 19.05,-10.617 14.41,-10.613 9.95,-10.618 5.65,-10.613 1.48,-10.617 -2.61,-10.617 -6.69,-10.614 -10.69,-10.617 -14.61,-10.613 -18.4,-10.617 -21.98,-10.614 -25.31,-10.617 -28.32,-10.613 -30.98,-10.617 -33.2,-10.617 -34.98,-10.614 -36.25,-10.617 -37.02,-10.613 -37.26,-10.617 -37.05,-10.614 -36.6,-10.617 -36.31,-10.613 -36.34,-10.617 -36.22,-10.617 -35.2,-10.614 -32.93,-10.617 -29.59,-10.613 -25.48,-10.617 -20.96,-10.614 -16.29,-10.617 -11.75,-10.617 -7.39,-10.613 -3.18,-10.618 0.95,-10.613 4.89,-10.617 7.58,-9.207 11.93,-10.094 16.23,-10.613 19.89,-10.617 23.38,-10.614 26.58,-10.617 29.46,-10.617 31.93,-10.613 33.89,-10.617 25.59,-7.735"
             style="fill:none;stroke:#ff0000;stroke-width:4.16667;stroke-linecap:butt;stroke-linejoin:miter;stroke-miterlimit:1;stroke-dasharray:none;stroke-opacity:1"
             id="path864" /></g></g></g></g></svg>
