<?xml version="1.0" encoding="UTF-8" standalone="no"?>
<svg
   xmlns:dc="http://purl.org/dc/elements/1.1/"
   xmlns:cc="http://creativecommons.org/ns#"
   xmlns:rdf="http://www.w3.org/1999/02/22-rdf-syntax-ns#"
   xmlns:svg="http://www.w3.org/2000/svg"
   xmlns="http://www.w3.org/2000/svg"
   version="1.1"
   id="svg280"
   xml:space="preserve"
   width="1122.52"
   height="793.71997"
   viewBox="0 0 1683.78 1190.58"><metadata
     id="metadata286"><rdf:RDF><cc:Work
         rdf:about=""><dc:format>image/svg+xml</dc:format><dc:type
           rdf:resource="http://purl.org/dc/dcmitype/StillImage" /><dc:title></dc:title></cc:Work></rdf:RDF></metadata><defs
     id="defs284"><clipPath
       clipPathUnits="userSpaceOnUse"
       id="clipPath298"><path
         d="m 375,299.582 h 1729.17 v 2908.34 H 375 Z"
         id="path296" /></clipPath><clipPath
       clipPathUnits="userSpaceOnUse"
       id="clipPath494"><path
         d="m 500,370.418 h 1437.5 v 2620.83 H 500 Z"
         id="path492" /></clipPath><clipPath
       clipPathUnits="userSpaceOnUse"
       id="clipPath504"><path
         d="m 375,299.582 h 1729.17 v 2908.34 H 375 Z"
         id="path502" /></clipPath><clipPath
       clipPathUnits="userSpaceOnUse"
       id="clipPath518"><path
         d="m 500,370.418 h 1437.5 v 2620.83 H 500 Z"
         id="path516" /></clipPath><clipPath
       clipPathUnits="userSpaceOnUse"
       id="clipPath528"><path
         d="m 375,299.582 h 1729.17 v 2908.34 H 375 Z"
         id="path526" /></clipPath><clipPath
       clipPathUnits="userSpaceOnUse"
       id="clipPath542"><path
         d="m 500,370.418 h 1437.5 v 2620.83 H 500 Z"
         id="path540" /></clipPath></defs><g
     id="g288"
     transform="matrix(0,-1.3333333,-1.3333333,0,1122.52,793.72)"><g
       id="g290"
       transform="scale(0.24)"><g
         id="g292"><g
           id="g294"
           clip-path="url(#clipPath298)"><path
             d="M 500,2990.65 H 458.332"
             style="fill:none;stroke:#afafaf;stroke-width:4.16667;stroke-linecap:butt;stroke-linejoin:miter;stroke-miterlimit:10;stroke-dasharray:none;stroke-opacity:1"
             id="path300" /><g
             id="g302"
             transform="scale(4.16667)"><text
               transform="matrix(0,-1,-1,0,94.0003,730.4)"
               style="font-variant:normal;font-weight:normal;font-size:14px;font-family:Menlo;-inkscape-font-specification:Menlo-Regular;writing-mode:lr-tb;fill:#afafaf;fill-opacity:1;fill-rule:nonzero;stroke:none"
               id="text306"><tspan
                 x="0 8.4280005 16.855413"
                 y="0"
                 id="tspan304">0ms</tspan></text></g><path
             d="M 500,2728.78 H 458.332"
             style="fill:none;stroke:#afafaf;stroke-width:4.16667;stroke-linecap:butt;stroke-linejoin:miter;stroke-miterlimit:10;stroke-dasharray:none;stroke-opacity:1"
             id="path308" /><g
             id="g310"
             transform="scale(4.16667)"><text
               transform="matrix(0,-1,-1,0,94.0003,667.55)"
               style="font-variant:normal;font-weight:normal;font-size:14px;font-family:Menlo;-inkscape-font-specification:Menlo-Regular;writing-mode:lr-tb;fill:#afafaf;fill-opacity:1;fill-rule:nonzero;stroke:none"
               id="text314"><tspan
                 x="0 8.4280005 16.855413"
                 y="0"
                 id="tspan312">1ms</tspan></text></g><path
             d="M 500,2466.9 H 458.332"
             style="fill:none;stroke:#afafaf;stroke-width:4.16667;stroke-linecap:butt;stroke-linejoin:miter;stroke-miterlimit:10;stroke-dasharray:none;stroke-opacity:1"
             id="path316" /><g
             id="g318"
             transform="scale(4.16667)"><text
               transform="matrix(0,-1,-1,0,94.0003,604.7)"
               style="font-variant:normal;font-weight:normal;font-size:14px;font-family:Menlo;-inkscape-font-specification:Menlo-Regular;writing-mode:lr-tb;fill:#afafaf;fill-opacity:1;fill-rule:nonzero;stroke:none"
               id="text322"><tspan
                 x="0 8.4280005 16.855413"
                 y="0"
                 id="tspan320">2ms</tspan></text></g><path
             d="M 500,2205.03 H 458.332"
             style="fill:none;stroke:#afafaf;stroke-width:4.16667;stroke-linecap:butt;stroke-linejoin:miter;stroke-miterlimit:10;stroke-dasharray:none;stroke-opacity:1"
             id="path324" /><g
             id="g326"
             transform="scale(4.16667)"><text
               transform="matrix(0,-1,-1,0,94.0003,541.85)"
               style="font-variant:normal;font-weight:normal;font-size:14px;font-family:Menlo;-inkscape-font-specification:Menlo-Regular;writing-mode:lr-tb;fill:#afafaf;fill-opacity:1;fill-rule:nonzero;stroke:none"
               id="text330"><tspan
                 x="0 8.4274139 16.855413"
                 y="0"
                 id="tspan328">3ms</tspan></text></g><path
             d="M 500,1943.15 H 458.332"
             style="fill:none;stroke:#afafaf;stroke-width:4.16667;stroke-linecap:butt;stroke-linejoin:miter;stroke-miterlimit:10;stroke-dasharray:none;stroke-opacity:1"
             id="path332" /><g
             id="g334"
             transform="scale(4.16667)"><text
               transform="matrix(0,-1,-1,0,94.0003,479)"
               style="font-variant:normal;font-weight:normal;font-size:14px;font-family:Menlo;-inkscape-font-specification:Menlo-Regular;writing-mode:lr-tb;fill:#afafaf;fill-opacity:1;fill-rule:nonzero;stroke:none"
               id="text338"><tspan
                 x="0 8.4274139 16.855413"
                 y="0"
                 id="tspan336">4ms</tspan></text></g><path
             d="M 500,1681.28 H 458.332"
             style="fill:none;stroke:#afafaf;stroke-width:4.16667;stroke-linecap:butt;stroke-linejoin:miter;stroke-miterlimit:10;stroke-dasharray:none;stroke-opacity:1"
             id="path340" /><g
             id="g342"
             transform="scale(4.16667)"><text
               transform="matrix(0,-1,-1,0,94.0003,416.15)"
               style="font-variant:normal;font-weight:normal;font-size:14px;font-family:Menlo;-inkscape-font-specification:Menlo-Regular;writing-mode:lr-tb;fill:#afafaf;fill-opacity:1;fill-rule:nonzero;stroke:none"
               id="text346"><tspan
                 x="0 8.4274139 16.855413"
                 y="0"
                 id="tspan344">5ms</tspan></text></g><path
             d="M 500,1419.41 H 458.332"
             style="fill:none;stroke:#afafaf;stroke-width:4.16667;stroke-linecap:butt;stroke-linejoin:miter;stroke-miterlimit:10;stroke-dasharray:none;stroke-opacity:1"
             id="path348" /><g
             id="g350"
             transform="scale(4.16667)"><text
               transform="matrix(0,-1,-1,0,94.0003,353.3)"
               style="font-variant:normal;font-weight:normal;font-size:14px;font-family:Menlo;-inkscape-font-specification:Menlo-Regular;writing-mode:lr-tb;fill:#afafaf;fill-opacity:1;fill-rule:nonzero;stroke:none"
               id="text354"><tspan
                 x="0 8.4274139 16.855413"
                 y="0"
                 id="tspan352">6ms</tspan></text></g><path
             d="M 500,1157.53 H 458.332"
             style="fill:none;stroke:#afafaf;stroke-width:4.16667;stroke-linecap:butt;stroke-linejoin:miter;stroke-miterlimit:10;stroke-dasharray:none;stroke-opacity:1"
             id="path356" /><g
             id="g358"
             transform="scale(4.16667)"><text
               transform="matrix(0,-1,-1,0,94.0003,290.451)"
               style="font-variant:normal;font-weight:normal;font-size:14px;font-family:Menlo;-inkscape-font-specification:Menlo-Regular;writing-mode:lr-tb;fill:#afafaf;fill-opacity:1;fill-rule:nonzero;stroke:none"
               id="text362"><tspan
                 x="0 8.4280005 16.856001"
                 y="0"
                 id="tspan360">7ms</tspan></text></g><path
             d="M 500,895.656 H 458.332"
             style="fill:none;stroke:#afafaf;stroke-width:4.16667;stroke-linecap:butt;stroke-linejoin:miter;stroke-miterlimit:10;stroke-dasharray:none;stroke-opacity:1"
             id="path364" /><g
             id="g366"
             transform="scale(4.16667)"><text
               transform="matrix(0,-1,-1,0,94.0003,227.601)"
               style="font-variant:normal;font-weight:normal;font-size:14px;font-family:Menlo;-inkscape-font-specification:Menlo-Regular;writing-mode:lr-tb;fill:#afafaf;fill-opacity:1;fill-rule:nonzero;stroke:none"
               id="text370"><tspan
                 x="0 8.4280005 16.856001"
                 y="0"
                 id="tspan368">8ms</tspan></text></g><path
             d="M 500,633.781 H 458.332"
             style="fill:none;stroke:#afafaf;stroke-width:4.16667;stroke-linecap:butt;stroke-linejoin:miter;stroke-miterlimit:10;stroke-dasharray:none;stroke-opacity:1"
             id="path372" /><g
             id="g374"
             transform="scale(4.16667)"><text
               transform="matrix(0,-1,-1,0,94.0003,164.751)"
               style="font-variant:normal;font-weight:normal;font-size:14px;font-family:Menlo;-inkscape-font-specification:Menlo-Regular;writing-mode:lr-tb;fill:#afafaf;fill-opacity:1;fill-rule:nonzero;stroke:none"
               id="text380"><tspan
                 x="0 8.4280005 16.855413"
                 y="0"
                 id="tspan376">9ms</tspan><tspan
                 x="-571.43402 -579.86304 -588.2912 -596.72028 -605.14929"
                 y="-20"
                 id="tspan378">Am06-</tspan></text></g><path
             d="m 500,2990.65 v 41.67"
             style="fill:none;stroke:#afafaf;stroke-width:4.16667;stroke-linecap:butt;stroke-linejoin:miter;stroke-miterlimit:10;stroke-dasharray:none;stroke-opacity:1"
             id="path382" /><g
             id="g384"
             transform="scale(4.16667)"><text
               transform="matrix(0,-1,-1,0,142.75,736.185)"
               style="font-variant:normal;font-weight:normal;font-size:14px;font-family:Menlo;-inkscape-font-specification:Menlo-Regular;writing-mode:lr-tb;fill:#afafaf;fill-opacity:1;fill-rule:nonzero;stroke:none"
               id="text388"><tspan
                 x="0 -8.42906 -16.857189 -25.286249 -33.715309"
                 y="0"
                 id="tspan386">Am05-</tspan></text></g><path
             d="m 619.793,2990.65 v 41.67"
             style="fill:none;stroke:#afafaf;stroke-width:4.16667;stroke-linecap:butt;stroke-linejoin:miter;stroke-miterlimit:10;stroke-dasharray:none;stroke-opacity:1"
             id="path390" /><g
             id="g392"
             transform="scale(4.16667)"><text
               transform="matrix(0,-1,-1,0,171.5,736.185)"
               style="font-variant:normal;font-weight:normal;font-size:14px;font-family:Menlo;-inkscape-font-specification:Menlo-Regular;writing-mode:lr-tb;fill:#afafaf;fill-opacity:1;fill-rule:nonzero;stroke:none"
               id="text396"><tspan
                 x="0 -8.42906 -16.857189 -25.286249 -33.715309"
                 y="0"
                 id="tspan394">Am04-</tspan></text></g><path
             d="m 739.582,2990.65 v 41.67"
             style="fill:none;stroke:#afafaf;stroke-width:4.16667;stroke-linecap:butt;stroke-linejoin:miter;stroke-miterlimit:10;stroke-dasharray:none;stroke-opacity:1"
             id="path398" /><g
             id="g400"
             transform="scale(4.16667)"><text
               transform="matrix(0,-1,-1,0,200.25,736.185)"
               style="font-variant:normal;font-weight:normal;font-size:14px;font-family:Menlo;-inkscape-font-specification:Menlo-Regular;writing-mode:lr-tb;fill:#afafaf;fill-opacity:1;fill-rule:nonzero;stroke:none"
               id="text404"><tspan
                 x="0 -8.42906 -16.857189 -25.286249 -33.715309"
                 y="0"
                 id="tspan402">Am03-</tspan></text></g><path
             d="m 859.375,2990.65 v 41.67"
             style="fill:none;stroke:#afafaf;stroke-width:4.16667;stroke-linecap:butt;stroke-linejoin:miter;stroke-miterlimit:10;stroke-dasharray:none;stroke-opacity:1"
             id="path406" /><g
             id="g408"
             transform="scale(4.16667)"><text
               transform="matrix(0,-1,-1,0,229,736.185)"
               style="font-variant:normal;font-weight:normal;font-size:14px;font-family:Menlo;-inkscape-font-specification:Menlo-Regular;writing-mode:lr-tb;fill:#afafaf;fill-opacity:1;fill-rule:nonzero;stroke:none"
               id="text412"><tspan
                 x="0 -8.42906 -16.857189 -25.286249 -33.715309"
                 y="0"
                 id="tspan410">Am02-</tspan></text></g><path
             d="m 979.168,2990.65 v 41.67"
             style="fill:none;stroke:#afafaf;stroke-width:4.16667;stroke-linecap:butt;stroke-linejoin:miter;stroke-miterlimit:10;stroke-dasharray:none;stroke-opacity:1"
             id="path414" /><g
             id="g416"
             transform="scale(4.16667)"><text
               transform="matrix(0,-1,-1,0,257.75,736.185)"
               style="font-variant:normal;font-weight:normal;font-size:14px;font-family:Menlo;-inkscape-font-specification:Menlo-Regular;writing-mode:lr-tb;fill:#afafaf;fill-opacity:1;fill-rule:nonzero;stroke:none"
               id="text420"><tspan
                 x="0 -8.42906 -16.857189 -25.286249 -33.715309"
                 y="0"
                 id="tspan418">Am01-</tspan></text></g><path
             d="m 1098.96,2990.65 v 41.67"
             style="fill:none;stroke:#afafaf;stroke-width:4.16667;stroke-linecap:butt;stroke-linejoin:miter;stroke-miterlimit:10;stroke-dasharray:none;stroke-opacity:1"
             id="path422" /><g
             id="g424"
             transform="scale(4.16667)"><text
               transform="matrix(0,-1,-1,0,286.5,736.185)"
               style="font-variant:normal;font-weight:normal;font-size:14px;font-family:Menlo;-inkscape-font-specification:Menlo-Regular;writing-mode:lr-tb;fill:#afafaf;fill-opacity:1;fill-rule:nonzero;stroke:none"
               id="text428"><tspan
                 x="0 -8.42906 -16.857189"
                 y="0"
                 id="tspan426">Am0</tspan></text></g><path
             d="m 1218.75,2990.65 v 41.67"
             style="fill:none;stroke:#afafaf;stroke-width:4.16667;stroke-linecap:butt;stroke-linejoin:miter;stroke-miterlimit:10;stroke-dasharray:none;stroke-opacity:1"
             id="path430" /><g
             id="g432"
             transform="scale(4.16667)"><text
               transform="matrix(0,-1,-1,0,315.25,736.185)"
               style="font-variant:normal;font-weight:normal;font-size:14px;font-family:Menlo;-inkscape-font-specification:Menlo-Regular;writing-mode:lr-tb;fill:#afafaf;fill-opacity:1;fill-rule:nonzero;stroke:none"
               id="text436"><tspan
                 x="0 -8.42906 -16.857189 -25.286249"
                 y="0"
                 id="tspan434">Am01</tspan></text></g><path
             d="m 1338.54,2990.65 v 41.67"
             style="fill:none;stroke:#afafaf;stroke-width:4.16667;stroke-linecap:butt;stroke-linejoin:miter;stroke-miterlimit:10;stroke-dasharray:none;stroke-opacity:1"
             id="path438" /><g
             id="g440"
             transform="scale(4.16667)"><text
               transform="matrix(0,-1,-1,0,344,736.185)"
               style="font-variant:normal;font-weight:normal;font-size:14px;font-family:Menlo;-inkscape-font-specification:Menlo-Regular;writing-mode:lr-tb;fill:#afafaf;fill-opacity:1;fill-rule:nonzero;stroke:none"
               id="text444"><tspan
                 x="0 -8.42906 -16.857189 -25.286249"
                 y="0"
                 id="tspan442">Am02</tspan></text></g><path
             d="m 1458.33,2990.65 v 41.67"
             style="fill:none;stroke:#afafaf;stroke-width:4.16667;stroke-linecap:butt;stroke-linejoin:miter;stroke-miterlimit:10;stroke-dasharray:none;stroke-opacity:1"
             id="path446" /><g
             id="g448"
             transform="scale(4.16667)"><text
               transform="matrix(0,-1,-1,0,372.75,736.185)"
               style="font-variant:normal;font-weight:normal;font-size:14px;font-family:Menlo;-inkscape-font-specification:Menlo-Regular;writing-mode:lr-tb;fill:#afafaf;fill-opacity:1;fill-rule:nonzero;stroke:none"
               id="text452"><tspan
                 x="0 -8.42906 -16.857189 -25.286249"
                 y="0"
                 id="tspan450">Am03</tspan></text></g><path
             d="m 1578.13,2990.65 v 41.67"
             style="fill:none;stroke:#afafaf;stroke-width:4.16667;stroke-linecap:butt;stroke-linejoin:miter;stroke-miterlimit:10;stroke-dasharray:none;stroke-opacity:1"
             id="path454" /><g
             id="g456"
             transform="scale(4.16667)"><text
               transform="matrix(0,-1,-1,0,401.5,736.185)"
               style="font-variant:normal;font-weight:normal;font-size:14px;font-family:Menlo;-inkscape-font-specification:Menlo-Regular;writing-mode:lr-tb;fill:#afafaf;fill-opacity:1;fill-rule:nonzero;stroke:none"
               id="text460"><tspan
                 x="0 -8.42906 -16.857189 -25.286249"
                 y="0"
                 id="tspan458">Am04</tspan></text></g><path
             d="m 1697.92,2990.65 v 41.67"
             style="fill:none;stroke:#afafaf;stroke-width:4.16667;stroke-linecap:butt;stroke-linejoin:miter;stroke-miterlimit:10;stroke-dasharray:none;stroke-opacity:1"
             id="path462" /><g
             id="g464"
             transform="scale(4.16667)"><text
               transform="matrix(0,-1,-1,0,430.25,736.185)"
               style="font-variant:normal;font-weight:normal;font-size:14px;font-family:Menlo;-inkscape-font-specification:Menlo-Regular;writing-mode:lr-tb;fill:#afafaf;fill-opacity:1;fill-rule:nonzero;stroke:none"
               id="text468"><tspan
                 x="0 -8.42906 -16.857189 -25.286249"
                 y="0"
                 id="tspan466">Am05</tspan></text></g><path
             d="m 1817.71,2990.65 v 41.67"
             style="fill:none;stroke:#afafaf;stroke-width:4.16667;stroke-linecap:butt;stroke-linejoin:miter;stroke-miterlimit:10;stroke-dasharray:none;stroke-opacity:1"
             id="path470" /><g
             id="g472"
             transform="scale(4.16667)"><text
               transform="matrix(0,-1,-1,0,459,736.185)"
               style="font-variant:normal;font-weight:normal;font-size:14px;font-family:Menlo;-inkscape-font-specification:Menlo-Regular;writing-mode:lr-tb;fill:#afafaf;fill-opacity:1;fill-rule:nonzero;stroke:none"
               id="text476"><tspan
                 x="0 -8.42906 -16.857189 -25.286249"
                 y="0"
                 id="tspan474">Am06</tspan></text></g><path
             d="m 1937.5,2990.65 v 41.67"
             style="fill:none;stroke:#afafaf;stroke-width:4.16667;stroke-linecap:butt;stroke-linejoin:miter;stroke-miterlimit:10;stroke-dasharray:none;stroke-opacity:1"
             id="path478" /><path
             d="m 500,371.906 h 1437.5 v 2618.75 H 500 Z"
             style="fill:none;stroke:#afafaf;stroke-width:4.16667;stroke-linecap:butt;stroke-linejoin:miter;stroke-miterlimit:10;stroke-dasharray:none;stroke-opacity:1"
             id="path480" /><g
             id="g482"
             transform="scale(4.16667)"><text
               transform="matrix(0,-1,-1,0,489,615.543)"
               style="font-variant:normal;font-weight:normal;font-size:14px;font-family:Menlo;-inkscape-font-specification:Menlo-Regular;writing-mode:lr-tb;fill:#0eff00;fill-opacity:1;fill-rule:nonzero;stroke:none"
               id="text486"><tspan
                 x="0 8.4274139 16.855413 25.283415 33.710827 42.138828 50.566242 58.994244 67.422241 75.849655 84.277657 92.705658 101.13307"
                 y="0"
                 id="tspan484">Ix(U3a:Plate)</tspan></text></g></g></g><g
         id="g488"><g
           id="g490"
           clip-path="url(#clipPath494)"><path
             d="m 1223.94,2990.65 v 0 l 2.44,-3.01 7.82,-6.03 22.15,-10.47 32.13,-10.48 41.05,-10.47 47.6,-10.48 52.68,-10.47 56.5,-10.48 58.65,-10.47 58.74,-10.48 56.78,-10.47 53.13,-10.48 48.16,-10.47 42.2,-10.48 35.48,-10.47 28.15,-10.48 20.36,-10.47 12.23,-10.48 3.9,-10.47 -4.52,-10.48 -12.84,-10.47 -20.97,-10.48 -28.82,-10.47 -36.15,-10.48 -42.88,-10.47 -48.88,-10.48 -54,-10.47 -57.95,-10.48 -60.1,-10.47 -59.32,-10.48 -54.98,-10.47 -48.38,-10.48 -41.49,-10.47 -34.8,-10.48 -27.77,-10.47 -20.4,-10.48 -13.52,-10.47 -8.08,-10.48 -4.44,-10.47 -2.32,-10.48 -1.21,-10.47 -0.64,-10.48 -0.34,-10.47 -0.2,-10.48 -0.11,-10.47 -0.07,-10.48 -0.05,-10.47 -0.02,-10.48 -0.02,-10.47 -0.01,-10.48 v -10.47 l 0.01,-10.48 0.04,-10.47 0.07,-10.48 0.17,-10.47 0.49,-10.48 1.54,-10.47 4.81,-10.48 12.14,-10.47 22.97,-10.48 33.89,-10.47 42.35,-10.48 48.6,-10.47 53.47,-10.48 57.03,-10.47 58.82,-10.48 58.54,-10.47 56.23,-10.48 52.31,-10.47 47.15,-10.48 41.04,-10.47 34.28,-10.48 25.68,-9.98 19.2,-10.47 11.12,-10.48 2.77,-10.47 -5.64,-10.48 -13.96,-10.47 -22.06,-10.47 -29.81,-10.48 -37.07,-10.47 -43.72,-10.48 -49.63,-10.47 -54.59,-10.48 -58.35,-10.48 -60.2,-10.47 -58.93,-10.48 -54.15,-10.47 -47.42,-10.47 -40.57,-10.48 -33.84,-10.47 -26.73,-10.48 -19.36,-10.48 -12.64,-10.47 -7.45,-10.48 -4.05,-10.47 -2.11,-10.48 -1.1,-10.47 -0.58,-10.47 -0.32,-10.48 -0.18,-10.47 -0.11,-10.48 -0.06,-10.47 -0.04,-10.48 -0.03,-10.48 -0.01,-10.47 -0.01,-10.48 v -10.47 l 0.02,-10.47 0.03,-10.48 0.08,-10.47 0.19,-10.48 0.56,-10.47 1.8,-10.48 5.5,-10.48 13.4,-10.47 24.49,-10.48 35.15,-10.47 43.29,-10.47 49.34,-10.48 54.04,-10.47 57.39,-10.48 58.92,-10.47 58.34,-10.48 55.79,-10.48 51.69,-10.47 46.37,-10.48 40.39,-10.47 29.34,-9.09 25.4,-9.97 19.18,-10.47 11.11,-10.48 2.76,-10.47 -5.65,-10.48 -13.97,-10.47 -22.07,-10.47 -29.81,-10.48 -37.09,-10.47 -43.73,-10.48 -49.63,-10.47 -54.6,-10.48 -58.36,-10.48 -60.19,-10.47 -58.94,-10.48 -54.16,-10.47 -47.41,-10.47 -40.55,-10.48 -33.81,-10.47 -26.7,-10.48 -19.32,-10.47 -12.6,-10.48 -7.41,-10.48 -4.04,-10.47 -2.11,-10.48 -1.09,-10.47 -0.58,-10.47 -0.31,-10.48 -0.18,-10.47 -0.11,-10.48 -0.06,-10.47 -0.04,-10.48 -0.03,-10.48 -0.01,-10.47 -0.01,-10.48 v -10.47 l 0.02,-10.47 0.03,-10.48 0.08,-10.47 0.19,-10.48 0.56,-10.47 1.79,-10.48 5.48,-10.48 13.39,-10.47 24.46,-10.48 35.15,-10.47 43.31,-10.47 49.34,-10.48 54.05,-10.47 57.41,-10.48 58.93,-10.47 58.34,-10.48 55.79,-10.48 51.68,-10.47 46.36,-10.48 40.38,-10.47 29.32,-9.09 25.38,-9.95 19.18,-10.48 11.11,-10.47 2.75,-10.48 -5.65,-10.48 -13.98,-10.47 -22.07,-10.476 -29.82,-10.473 -37.09,-10.477 -43.73,-10.476 -49.63,-10.473 -54.61,-10.476 -58.35,-10.477 -60.21,-10.473 -58.94,-10.476 -54.17,-10.473 -47.42,-10.476 -40.54,-10.473 -33.79,-10.477 -26.67,-10.476 -19.3,-10.473 -12.58,-10.476 -7.39,-10.473 -4.03,-10.477 -2.09,-10.476 -1.09,-10.473 -0.58,-10.476 -0.31,-10.473 -0.18,-10.477 -0.11,-10.476 -0.06,-10.473 -0.04,-10.476 -0.03,-10.473 -0.01,-10.477 -0.01,-10.476 V 681.41 l 0.01,-10.476 0.04,-10.473 0.08,-10.477 0.19,-10.476 0.55,-10.473 1.79,-10.476 5.47,-10.473 13.36,-10.477 24.45,-10.472 35.14,-10.477 43.31,-10.476 49.34,-10.473 54.07,-10.477 57.42,-10.472 58.93,-10.477 58.34,-10.476 55.8,-10.473 51.67,-10.477 46.36,-10.472 40.38,-10.477 29.31,-9.086 25.38,-9.961 19.18,-10.472 11.1,-10.477 2.75,-10.473 -5.66,-10.476 -13.98,-10.477 -22.07,-10.472 -29.34,-10.477 -25.11,-7.633"
             style="fill:none;stroke:#0eff00;stroke-width:4.16667;stroke-linecap:butt;stroke-linejoin:miter;stroke-miterlimit:1;stroke-dasharray:none;stroke-opacity:1"
             id="path496" /></g></g><g
         id="g498"><g
           id="g500"
           clip-path="url(#clipPath504)"><g
             id="g506"
             transform="scale(4.16667)"><text
               transform="matrix(0,-1,-1,0,489,305.757)"
               style="font-variant:normal;font-weight:normal;font-size:14px;font-family:Menlo;-inkscape-font-specification:Menlo-Regular;writing-mode:lr-tb;fill:#0000ff;fill-opacity:1;fill-rule:nonzero;stroke:none"
               id="text510"><tspan
                 x="0 8.4274139 16.855413 25.283415 33.710827 42.138828 50.566242 58.994244 67.422241 75.849655 84.277657 92.705658 101.13307 109.56107"
                 y="0"
                 id="tspan508">-Ix(U3b:Plate)</tspan></text></g></g></g><g
         id="g512"><g
           id="g514"
           clip-path="url(#clipPath518)"><path
             d="m 934.473,2990.65 v 0 l 17.125,-3.01 32.57,-6.03 51.692,-10.47 45.43,-10.48 38.7,-10.47 31.93,-10.48 24.71,-10.47 17.42,-10.48 11.04,-10.47 6.36,-10.48 3.4,-10.47 1.77,-10.48 0.92,-10.47 0.5,-10.48 0.27,-10.47 0.15,-10.48 0.09,-10.47 0.06,-10.48 0.04,-10.47 0.02,-10.48 0.01,-10.47 0.01,-10.48 -0.01,-10.47 -0.01,-10.48 -0.04,-10.47 -0.11,-10.48 -0.25,-10.47 -0.77,-10.48 -2.49,-10.47 -7.24,-10.48 -16.29,-10.47 -27.61,-10.48 -37.66,-10.47 -45.09,-10.48 -50.72,-10.47 -55.08,-10.48 -57.984,-10.47 -58.949,-10.48 -57.813,-10.47 -54.804,-10.48 -50.336,-10.47 -44.754,-10.48 -38.325,-10.47 -31.226,-10.48 -23.613,-10.47 -15.602,-10.48 -7.332,-10.47 1.059,-10.48 9.429,-10.47 17.668,-10.48 25.657,-10.47 33.195,-10.48 40.183,-10.47 46.512,-10.48 52.008,-10.47 56.48,-10.48 59.485,-10.47 60.043,-10.48 57.109,-10.47 51.16,-10.48 44.24,-10.47 37.51,-10.48 30.66,-10.47 23.37,-10.48 16.16,-10.47 10.05,-10.48 5.69,-10.47 3.02,-10.48 1.57,-10.47 0.82,-10.48 0.44,-10.47 0.24,-10.48 0.14,-9.98 0.09,-10.47 0.05,-10.48 0.03,-10.47 0.02,-10.48 0.01,-10.47 0.01,-10.47 -0.01,-10.48 -0.02,-10.47 -0.04,-10.48 -0.12,-10.47 -0.29,-10.48 -0.9,-10.48 -2.89,-10.47 -8.21,-10.48 -17.74,-10.47 -29.1,-10.47 -38.8,-10.48 -45.96,-10.47 -51.39,-10.48 -55.591,-10.48 -58.258,-10.47 -58.933,-10.48 -57.512,-10.47 -54.278,-10.48 -49.64,-10.47 -43.926,-10.47 -37.394,-10.48 -30.223,-10.47 -22.543,-10.48 -14.496,-10.47 -6.199,-10.48 2.203,-10.48 10.554,-10.47 18.766,-10.48 26.703,-10.47 34.184,-10.47 41.086,-10.48 47.304,-10.47 52.688,-10.48 56.992,-10.47 59.738,-10.48 59.891,-10.48 56.474,-10.47 50.26,-10.48 43.32,-10.47 36.61,-10.47 29.68,-10.48 22.34,-10.47 15.23,-10.48 9.33,-10.47 5.22,-10.48 2.76,-10.48 1.43,-10.47 0.75,-10.48 0.41,-10.47 0.2,-9.09 0.13,-9.97 0.09,-10.47 0.05,-10.48 0.03,-10.47 0.03,-10.48 0.01,-10.47 v -10.47 l -0.01,-10.48 -0.02,-10.47 -0.04,-10.48 -0.12,-10.47 -0.29,-10.48 -0.89,-10.48 -2.89,-10.47 -8.18,-10.48 -17.73,-10.47 -29.09,-10.47 -38.8,-10.48 -45.97,-10.47 -51.41,-10.48 -55.609,-10.47 -58.274,-10.48 -58.941,-10.48 -57.512,-10.47 -54.277,-10.48 -49.629,-10.47 -43.914,-10.47 -37.387,-10.48 -30.207,-10.47 -22.531,-10.48 -14.481,-10.47 -6.187,-10.48 2.211,-10.48 10.57,-10.47 18.777,-10.48 26.715,-10.47 34.196,-10.47 41.093,-10.48 47.317,-10.47 52.691,-10.48 57,-10.47 59.75,-10.48 59.895,-10.48 56.484,-10.47 50.27,-10.48 43.31,-10.47 36.58,-10.47 29.66,-10.48 22.31,-10.47 15.19,-10.48 9.3,-10.47 5.2,-10.48 2.75,-10.48 1.43,-10.47 0.74,-10.48 0.41,-10.47 0.2,-9.09 0.13,-9.95 0.09,-10.48 0.05,-10.47 0.03,-10.48 0.03,-10.48 0.01,-10.47 v -10.476 l -0.01,-10.473 -0.02,-10.477 -0.04,-10.476 -0.11,-10.473 -0.3,-10.476 -0.89,-10.477 -2.87,-10.473 -8.17,-10.476 -17.71,-10.473 -29.07,-10.476 -38.8,-10.473 -45.97,-10.477 -51.41,-10.476 -55.625,-10.473 -58.281,-10.476 -58.945,-10.473 -57.516,-10.477 -54.277,-10.476 -49.625,-10.473 -43.914,-10.476 -37.379,-10.473 -30.203,-10.477 -22.528,-10.476 -14.476,-10.473 -6.184,-10.476 2.219,-10.473 10.574,-10.477 18.781,-10.476 26.719,-10.473 34.195,-10.476 41.098,-10.473 47.32,-10.477 52.692,-10.476 57.004,-10.473 59.754,-10.476 59.906,-10.473 56.491,-10.477 50.27,-10.472 43.31,-10.477 36.57,-10.476 29.64,-10.473 22.28,-10.477 15.17,-10.472 9.29,-10.477 5.19,-10.476 2.74,-10.473 1.42,-10.477 0.75,-10.472 0.4,-10.477 0.2,-9.086 0.13,-9.961 0.09,-10.472 0.05,-10.477 0.04,-10.473 0.02,-10.476 0.01,-10.477 v -10.472 l -0.01,-10.477 v -7.633"
             style="fill:none;stroke:#0000ff;stroke-width:4.16667;stroke-linecap:butt;stroke-linejoin:miter;stroke-miterlimit:1;stroke-dasharray:none;stroke-opacity:1"
             id="path520" /></g></g><g
         id="g522"><g
           id="g524"
           clip-path="url(#clipPath528)"><g
             id="g530"
             transform="scale(4.16667)"><text
               transform="matrix(0,-1,-1,0,469,691.402)"
               style="font-variant:normal;font-weight:normal;font-size:14px;font-family:Menlo;-inkscape-font-specification:Menlo-Regular;writing-mode:lr-tb;fill:#ff0000;fill-opacity:1;fill-rule:nonzero;stroke:none"
               id="text534"><tspan
                 x="0 8.4280005 16.855413 25.283415 33.711414 42.138828 50.56683 58.994244 67.422241 75.850243 84.277657 92.705658 101.13366 109.56107 117.98907 126.41648 134.84448 143.27249 151.69991 160.1279 168.55589 176.98331 185.41132 193.83873 202.26672 210.69473 219.12215 227.55014 235.97813 244.40555 252.83356"
                 y="0"
                 id="tspan532">(Ix(U3a:Plate)-Ix(U3b:Plate))/2</tspan></text></g></g></g><g
         id="g536"><g
           id="g538"
           clip-path="url(#clipPath542)"><path
             d="m 1079.2,2990.65 v 0 l 9.79,-3.01 20.19,-6.03 36.93,-10.47 38.78,-10.48 39.87,-10.47 39.77,-10.48 38.69,-10.47 36.96,-10.48 34.84,-10.47 32.55,-10.48 30.09,-10.47 27.45,-10.48 24.54,-10.47 21.35,-10.48 17.88,-10.47 14.15,-10.48 10.23,-10.47 6.14,-10.48 1.97,-10.47 -2.25,-10.48 -6.41,-10.47 -10.49,-10.48 -14.41,-10.47 -18.08,-10.48 -21.46,-10.47 -24.49,-10.48 -27.13,-10.47 -29.36,-10.48 -31.29,-10.47 -33.29,-10.48 -35.63,-10.47 -37.99,-10.48 -39.58,-10.47 -39.95,-10.48 -39.24,-10.47 -37.74,-10.48 -35.75,-10.47 -33.51,-10.48 -31.13,-10.47 -28.565,-10.48 -25.773,-10.47 -22.696,-10.48 -19.336,-10.47 -15.711,-10.48 -11.863,-10.47 -7.836,-10.48 -3.687,-10.47 0.515,-10.48 4.707,-10.47 8.832,-10.48 12.825,-10.47 16.605,-10.48 20.109,-10.47 23.289,-10.48 26.09,-10.47 28.485,-10.48 30.51,-10.47 32.43,-10.48 34.62,-10.47 37.07,-10.48 39.06,-10.47 39.93,-10.48 39.64,-10.47 38.42,-10.48 36.59,-10.47 34.44,-10.48 32.11,-10.47 29.63,-10.48 26.94,-10.47 23.98,-10.48 20.74,-10.47 17.26,-10.48 12.91,-9.98 9.64,-10.47 5.59,-10.48 1.4,-10.47 -2.81,-10.48 -6.97,-10.47 -11.03,-10.47 -14.91,-10.48 -18.55,-10.47 -21.88,-10.48 -24.87,-10.47 -27.44,-10.48 -29.63,-10.48 -31.54,-10.47 -33.57,-10.48 -35.95,-10.47 -38.26,-10.47 -39.68,-10.48 -39.9,-10.47 -39.06,-10.48 -37.48,-10.48 -35.45,-10.47 -33.18,-10.48 -30.79,-10.47 -28.195,-10.48 -25.367,-10.47 -22.254,-10.47 -18.855,-10.48 -15.199,-10.47 -11.329,-10.48 -7.277,-10.47 -3.121,-10.48 1.086,-10.48 5.273,-10.47 9.379,-10.48 13.352,-10.47 17.097,-10.47 20.559,-10.48 23.695,-10.47 26.438,-10.48 28.778,-10.47 30.77,-10.48 32.69,-10.48 34.94,-10.47 37.37,-10.48 39.24,-10.47 39.95,-10.47 39.51,-10.48 38.19,-10.47 36.31,-10.48 34.12,-10.47 31.78,-10.48 29.28,-10.48 26.56,-10.47 23.56,-10.48 20.4,-10.47 14.77,-9.09 12.77,-9.97 9.63,-10.47 5.58,-10.48 1.4,-10.47 -2.82,-10.48 -6.98,-10.47 -11.03,-10.47 -14.91,-10.48 -18.55,-10.47 -21.89,-10.48 -24.87,-10.47 -27.45,-10.48 -29.63,-10.48 -31.53,-10.47 -33.57,-10.48 -35.94,-10.47 -38.25,-10.47 -39.68,-10.48 -39.89,-10.47 -39.05,-10.48 -37.46,-10.47 -35.44,-10.48 -33.18,-10.48 -30.77,-10.47 -28.192,-10.48 -25.364,-10.47 -22.246,-10.47 -18.851,-10.48 -15.192,-10.47 -11.32,-10.48 -7.274,-10.47 -3.113,-10.48 1.094,-10.48 5.277,-10.47 9.387,-10.48 13.359,-10.47 17.102,-10.47 20.562,-10.48 23.7,-10.47 26.441,-10.48 28.78,-10.47 30.77,-10.48 32.69,-10.48 34.94,-10.47 37.36,-10.48 39.23,-10.47 39.94,-10.47 39.5,-10.48 38.18,-10.47 36.31,-10.48 34.11,-10.47 31.77,-10.48 29.28,-10.48 26.54,-10.47 23.56,-10.48 20.39,-10.47 14.76,-9.09 12.76,-9.95 9.63,-10.48 5.58,-10.47 1.39,-10.48 -2.81,-10.48 -6.98,-10.47 -11.04,-10.476 -14.91,-10.473 -18.55,-10.477 -21.89,-10.476 -24.88,-10.473 -27.45,-10.476 -29.62,-10.477 -31.54,-10.473 -33.56,-10.476 -35.94,-10.473 -38.24,-10.476 -39.67,-10.473 -39.88,-10.477 -39.04,-10.476 -37.46,-10.473 -35.43,-10.476 -33.17,-10.473 -30.77,-10.477 -28.187,-10.476 -25.359,-10.473 -22.246,-10.476 -18.848,-10.473 -15.191,-10.477 -11.313,-10.476 -7.273,-10.473 -3.11,-10.476 1.094,-10.473 5.281,-10.477 9.387,-10.476 13.359,-10.473 17.106,-10.476 20.566,-10.473 23.699,-10.477 26.442,-10.476 28.783,-10.473 30.76,-10.476 32.7,-10.473 34.92,-10.477 37.36,-10.472 39.23,-10.477 39.93,-10.476 39.5,-10.473 38.17,-10.477 36.3,-10.472 34.1,-10.477 31.77,-10.476 29.27,-10.473 26.55,-10.477 23.55,-10.472 20.39,-10.477 14.76,-9.086 12.75,-9.961 9.63,-10.472 5.58,-10.477 1.39,-10.473 -2.82,-10.476 -6.98,-10.477 -11.03,-10.472 -14.68,-10.477 -12.56,-7.633"
             style="fill:none;stroke:#ff0000;stroke-width:4.16667;stroke-linecap:butt;stroke-linejoin:miter;stroke-miterlimit:1;stroke-dasharray:none;stroke-opacity:1"
             id="path544" /></g></g></g></g></svg>
