<?xml version="1.0" encoding="UTF-8" standalone="no"?>
<svg
   xmlns:dc="http://purl.org/dc/elements/1.1/"
   xmlns:cc="http://creativecommons.org/ns#"
   xmlns:rdf="http://www.w3.org/1999/02/22-rdf-syntax-ns#"
   xmlns:svg="http://www.w3.org/2000/svg"
   xmlns="http://www.w3.org/2000/svg"
   xmlns:sodipodi="http://sodipodi.sourceforge.net/DTD/sodipodi-0.dtd"
   xmlns:inkscape="http://www.inkscape.org/namespaces/inkscape"
   version="1.1"
   id="svg10"
   xml:space="preserve"
   width="604.841"
   height="361.33768"
   viewBox="0 0 907.26149 542.00654"
   sodipodi:docname="power-plate-current-7_2.svg"
   inkscape:version="1.0.1 (c497b03c, 2020-09-10)"><sodipodi:namedview
     pagecolor="#ffffff"
     bordercolor="#666666"
     borderopacity="1"
     objecttolerance="10"
     gridtolerance="10"
     guidetolerance="10"
     inkscape:pageopacity="0"
     inkscape:pageshadow="2"
     inkscape:window-width="772"
     inkscape:window-height="480"
     id="namedview126"
     showgrid="false"
     fit-margin-top="0"
     fit-margin-left="0"
     fit-margin-right="0"
     fit-margin-bottom="0"
     inkscape:zoom="0.71980899"
     inkscape:cx="496.64986"
     inkscape:cy="312.43068"
     inkscape:window-x="0"
     inkscape:window-y="23"
     inkscape:window-maximized="0"
     inkscape:current-layer="svg10" /><metadata
     id="metadata16"><rdf:RDF><cc:Work
         rdf:about=""><dc:format>image/svg+xml</dc:format><dc:type
           rdf:resource="http://purl.org/dc/dcmitype/StillImage" /><dc:title></dc:title></cc:Work></rdf:RDF></metadata><defs
     id="defs14"><clipPath
       clipPathUnits="userSpaceOnUse"
       id="clipPath28"><path
         d="m 375,299.582 h 1729.17 v 2908.34 H 375 Z"
         id="path26" /></clipPath><clipPath
       clipPathUnits="userSpaceOnUse"
       id="clipPath216"><path
         d="m 500,370.418 h 1520.83 v 2658.33 H 500 Z"
         id="path214" /></clipPath><clipPath
       clipPathUnits="userSpaceOnUse"
       id="clipPath226"><path
         d="m 375,299.582 h 1729.17 v 2908.34 H 375 Z"
         id="path224" /></clipPath><clipPath
       clipPathUnits="userSpaceOnUse"
       id="clipPath240"><path
         d="m 500,370.418 h 1520.83 v 2658.33 H 500 Z"
         id="path238" /></clipPath></defs><g
     id="g18"
     transform="matrix(0,-1.3333333,-1.3333333,0,1025.6048,667.07604)"><g
       id="g20"
       transform="scale(0.24)"><g
         id="g22"><g
           id="g24"
           clip-path="url(#clipPath28)"><path
             d="M 500,3025.77 H 458.332"
             style="fill:none;stroke:#afafaf;stroke-width:4.16667;stroke-linecap:butt;stroke-linejoin:miter;stroke-miterlimit:10;stroke-dasharray:none;stroke-opacity:1"
             id="path30" /><g
             id="g32"
             transform="scale(4.16667)"><text
               transform="matrix(0,-1,-1,0,94.0003,738.828)"
               style="font-variant:normal;font-weight:normal;font-size:14px;font-family:Menlo;-inkscape-font-specification:Menlo-Regular;writing-mode:lr-tb;fill:#afafaf;fill-opacity:1;fill-rule:nonzero;stroke:none"
               id="text36"><tspan
                 x="0 8.4274139 16.855413"
                 y="0"
                 id="tspan34">0ms</tspan></text></g><path
             d="M 500,2760.39 H 458.332"
             style="fill:none;stroke:#afafaf;stroke-width:4.16667;stroke-linecap:butt;stroke-linejoin:miter;stroke-miterlimit:10;stroke-dasharray:none;stroke-opacity:1"
             id="path38" /><g
             id="g40"
             transform="scale(4.16667)"><text
               transform="matrix(0,-1,-1,0,94.0003,675.136)"
               style="font-variant:normal;font-weight:normal;font-size:14px;font-family:Menlo;-inkscape-font-specification:Menlo-Regular;writing-mode:lr-tb;fill:#afafaf;fill-opacity:1;fill-rule:nonzero;stroke:none"
               id="text44"><tspan
                 x="0 8.4280005 16.856001"
                 y="0"
                 id="tspan42">1ms</tspan></text></g><path
             d="M 500,2495 H 458.332"
             style="fill:none;stroke:#afafaf;stroke-width:4.16667;stroke-linecap:butt;stroke-linejoin:miter;stroke-miterlimit:10;stroke-dasharray:none;stroke-opacity:1"
             id="path46" /><g
             id="g48"
             transform="scale(4.16667)"><text
               transform="matrix(0,-1,-1,0,94.0003,611.443)"
               style="font-variant:normal;font-weight:normal;font-size:14px;font-family:Menlo;-inkscape-font-specification:Menlo-Regular;writing-mode:lr-tb;fill:#afafaf;fill-opacity:1;fill-rule:nonzero;stroke:none"
               id="text52"><tspan
                 x="0 8.4280005 16.856001"
                 y="0"
                 id="tspan50">2ms</tspan></text></g><path
             d="M 500,2229.61 H 458.332"
             style="fill:none;stroke:#afafaf;stroke-width:4.16667;stroke-linecap:butt;stroke-linejoin:miter;stroke-miterlimit:10;stroke-dasharray:none;stroke-opacity:1"
             id="path54" /><g
             id="g56"
             transform="scale(4.16667)"><text
               transform="matrix(0,-1,-1,0,94.0003,547.75)"
               style="font-variant:normal;font-weight:normal;font-size:14px;font-family:Menlo;-inkscape-font-specification:Menlo-Regular;writing-mode:lr-tb;fill:#afafaf;fill-opacity:1;fill-rule:nonzero;stroke:none"
               id="text60"><tspan
                 x="0 8.4280005 16.856001"
                 y="0"
                 id="tspan58">3ms</tspan></text></g><path
             d="M 500,1964.23 H 458.332"
             style="fill:none;stroke:#afafaf;stroke-width:4.16667;stroke-linecap:butt;stroke-linejoin:miter;stroke-miterlimit:10;stroke-dasharray:none;stroke-opacity:1"
             id="path62" /><g
             id="g64"
             transform="scale(4.16667)"><text
               transform="matrix(0,-1,-1,0,94.0003,484.058)"
               style="font-variant:normal;font-weight:normal;font-size:14px;font-family:Menlo;-inkscape-font-specification:Menlo-Regular;writing-mode:lr-tb;fill:#afafaf;fill-opacity:1;fill-rule:nonzero;stroke:none"
               id="text68"><tspan
                 x="0 8.4280005 16.856001"
                 y="0"
                 id="tspan66">4ms</tspan></text></g><path
             d="M 500,1698.84 H 458.332"
             style="fill:none;stroke:#afafaf;stroke-width:4.16667;stroke-linecap:butt;stroke-linejoin:miter;stroke-miterlimit:10;stroke-dasharray:none;stroke-opacity:1"
             id="path70" /><g
             id="g72"
             transform="scale(4.16667)"><text
               transform="matrix(0,-1,-1,0,94.0003,420.365)"
               style="font-variant:normal;font-weight:normal;font-size:14px;font-family:Menlo;-inkscape-font-specification:Menlo-Regular;writing-mode:lr-tb;fill:#afafaf;fill-opacity:1;fill-rule:nonzero;stroke:none"
               id="text76"><tspan
                 x="0 8.4280005 16.856001"
                 y="0"
                 id="tspan74">5ms</tspan></text></g><path
             d="M 500,1433.45 H 458.332"
             style="fill:none;stroke:#afafaf;stroke-width:4.16667;stroke-linecap:butt;stroke-linejoin:miter;stroke-miterlimit:10;stroke-dasharray:none;stroke-opacity:1"
             id="path78" /><g
             id="g80"
             transform="scale(4.16667)"><text
               transform="matrix(0,-1,-1,0,94.0003,356.672)"
               style="font-variant:normal;font-weight:normal;font-size:14px;font-family:Menlo;-inkscape-font-specification:Menlo-Regular;writing-mode:lr-tb;fill:#afafaf;fill-opacity:1;fill-rule:nonzero;stroke:none"
               id="text84"><tspan
                 x="0 8.4280005 16.855413"
                 y="0"
                 id="tspan82">6ms</tspan></text></g><path
             d="M 500,1168.07 H 458.332"
             style="fill:none;stroke:#afafaf;stroke-width:4.16667;stroke-linecap:butt;stroke-linejoin:miter;stroke-miterlimit:10;stroke-dasharray:none;stroke-opacity:1"
             id="path86" /><g
             id="g88"
             transform="scale(4.16667)"><text
               transform="matrix(0,-1,-1,0,94.0003,292.979)"
               style="font-variant:normal;font-weight:normal;font-size:14px;font-family:Menlo;-inkscape-font-specification:Menlo-Regular;writing-mode:lr-tb;fill:#afafaf;fill-opacity:1;fill-rule:nonzero;stroke:none"
               id="text92"><tspan
                 x="0 8.4280005 16.855413"
                 y="0"
                 id="tspan90">7ms</tspan></text></g><path
             d="M 500,902.68 H 458.332"
             style="fill:none;stroke:#afafaf;stroke-width:4.16667;stroke-linecap:butt;stroke-linejoin:miter;stroke-miterlimit:10;stroke-dasharray:none;stroke-opacity:1"
             id="path94" /><g
             id="g96"
             transform="scale(4.16667)"><text
               transform="matrix(0,-1,-1,0,94.0003,229.286)"
               style="font-variant:normal;font-weight:normal;font-size:14px;font-family:Menlo;-inkscape-font-specification:Menlo-Regular;writing-mode:lr-tb;fill:#afafaf;fill-opacity:1;fill-rule:nonzero;stroke:none"
               id="text100"><tspan
                 x="0 8.4280005 16.855413"
                 y="0"
                 id="tspan98">8ms</tspan></text></g><path
             d="M 500,637.293 H 458.332"
             style="fill:none;stroke:#afafaf;stroke-width:4.16667;stroke-linecap:butt;stroke-linejoin:miter;stroke-miterlimit:10;stroke-dasharray:none;stroke-opacity:1"
             id="path102" /><g
             id="g104"
             transform="scale(4.16667)"><text
               transform="matrix(0,-1,-1,0,94.0003,165.593)"
               style="font-variant:normal;font-weight:normal;font-size:14px;font-family:Menlo;-inkscape-font-specification:Menlo-Regular;writing-mode:lr-tb;fill:#afafaf;fill-opacity:1;fill-rule:nonzero;stroke:none"
               id="text110"><tspan
                 x="0 8.4280005 16.855413"
                 y="0"
                 id="tspan106">9ms</tspan><tspan
                 x="-579.021 -587.44916 -595.87817"
                 y="-20"
                 id="tspan108">Am0</tspan></text></g><path
             d="m 500,3025.77 v 41.67"
             style="fill:none;stroke:#afafaf;stroke-width:4.16667;stroke-linecap:butt;stroke-linejoin:miter;stroke-miterlimit:10;stroke-dasharray:none;stroke-opacity:1"
             id="path112" /><g
             id="g114"
             transform="scale(4.16667)"><text
               transform="matrix(0,-1,-1,0,147.182,744.614)"
               style="font-variant:normal;font-weight:normal;font-size:14px;font-family:Menlo;-inkscape-font-specification:Menlo-Regular;writing-mode:lr-tb;fill:#afafaf;fill-opacity:1;fill-rule:nonzero;stroke:none"
               id="text118"><tspan
                 x="0 -8.4281301 -16.857189"
                 y="0"
                 id="tspan116">Am4</tspan></text></g><path
             d="m 638.258,3025.77 v 41.67"
             style="fill:none;stroke:#afafaf;stroke-width:4.16667;stroke-linecap:butt;stroke-linejoin:miter;stroke-miterlimit:10;stroke-dasharray:none;stroke-opacity:1"
             id="path120" /><g
             id="g122"
             transform="scale(4.16667)"><text
               transform="matrix(0,-1,-1,0,180.364,744.614)"
               style="font-variant:normal;font-weight:normal;font-size:14px;font-family:Menlo;-inkscape-font-specification:Menlo-Regular;writing-mode:lr-tb;fill:#afafaf;fill-opacity:1;fill-rule:nonzero;stroke:none"
               id="text126"><tspan
                 x="0 -8.4281301 -16.857189"
                 y="0"
                 id="tspan124">Am8</tspan></text></g><path
             d="m 776.516,3025.77 v 41.67"
             style="fill:none;stroke:#afafaf;stroke-width:4.16667;stroke-linecap:butt;stroke-linejoin:miter;stroke-miterlimit:10;stroke-dasharray:none;stroke-opacity:1"
             id="path128" /><g
             id="g130"
             transform="scale(4.16667)"><text
               transform="matrix(0,-1,-1,0,213.546,744.614)"
               style="font-variant:normal;font-weight:normal;font-size:14px;font-family:Menlo;-inkscape-font-specification:Menlo-Regular;writing-mode:lr-tb;fill:#afafaf;fill-opacity:1;fill-rule:nonzero;stroke:none"
               id="text134"><tspan
                 x="0 -8.4281301 -16.857189 -25.286249"
                 y="0"
                 id="tspan132">Am21</tspan></text></g><path
             d="m 914.773,3025.77 v 41.67"
             style="fill:none;stroke:#afafaf;stroke-width:4.16667;stroke-linecap:butt;stroke-linejoin:miter;stroke-miterlimit:10;stroke-dasharray:none;stroke-opacity:1"
             id="path136" /><g
             id="g138"
             transform="scale(4.16667)"><text
               transform="matrix(0,-1,-1,0,246.727,744.614)"
               style="font-variant:normal;font-weight:normal;font-size:14px;font-family:Menlo;-inkscape-font-specification:Menlo-Regular;writing-mode:lr-tb;fill:#afafaf;fill-opacity:1;fill-rule:nonzero;stroke:none"
               id="text142"><tspan
                 x="0 -8.4281301 -16.857189 -25.286249"
                 y="0"
                 id="tspan140">Am61</tspan></text></g><path
             d="m 1053.03,3025.77 v 41.67"
             style="fill:none;stroke:#afafaf;stroke-width:4.16667;stroke-linecap:butt;stroke-linejoin:miter;stroke-miterlimit:10;stroke-dasharray:none;stroke-opacity:1"
             id="path144" /><g
             id="g146"
             transform="scale(4.16667)"><text
               transform="matrix(0,-1,-1,0,279.909,744.614)"
               style="font-variant:normal;font-weight:normal;font-size:14px;font-family:Menlo;-inkscape-font-specification:Menlo-Regular;writing-mode:lr-tb;fill:#afafaf;fill-opacity:1;fill-rule:nonzero;stroke:none"
               id="text150"><tspan
                 x="0 -8.4281301 -16.857189 -25.286249"
                 y="0"
                 id="tspan148">Am02</tspan></text></g><path
             d="m 1191.29,3025.77 v 41.67"
             style="fill:none;stroke:#afafaf;stroke-width:4.16667;stroke-linecap:butt;stroke-linejoin:miter;stroke-miterlimit:10;stroke-dasharray:none;stroke-opacity:1"
             id="path152" /><g
             id="g154"
             transform="scale(4.16667)"><text
               transform="matrix(0,-1,-1,0,313.091,744.614)"
               style="font-variant:normal;font-weight:normal;font-size:14px;font-family:Menlo;-inkscape-font-specification:Menlo-Regular;writing-mode:lr-tb;fill:#afafaf;fill-opacity:1;fill-rule:nonzero;stroke:none"
               id="text158"><tspan
                 x="0 -8.4281301 -16.857189 -25.286249"
                 y="0"
                 id="tspan156">Am42</tspan></text></g><path
             d="m 1329.55,3025.77 v 41.67"
             style="fill:none;stroke:#afafaf;stroke-width:4.16667;stroke-linecap:butt;stroke-linejoin:miter;stroke-miterlimit:10;stroke-dasharray:none;stroke-opacity:1"
             id="path160" /><g
             id="g162"
             transform="scale(4.16667)"><text
               transform="matrix(0,-1,-1,0,346.273,744.614)"
               style="font-variant:normal;font-weight:normal;font-size:14px;font-family:Menlo;-inkscape-font-specification:Menlo-Regular;writing-mode:lr-tb;fill:#afafaf;fill-opacity:1;fill-rule:nonzero;stroke:none"
               id="text166"><tspan
                 x="0 -8.4281301 -16.857189 -25.286249"
                 y="0"
                 id="tspan164">Am82</tspan></text></g><path
             d="m 1467.8,3025.77 v 41.67"
             style="fill:none;stroke:#afafaf;stroke-width:4.16667;stroke-linecap:butt;stroke-linejoin:miter;stroke-miterlimit:10;stroke-dasharray:none;stroke-opacity:1"
             id="path168" /><g
             id="g170"
             transform="scale(4.16667)"><text
               transform="matrix(0,-1,-1,0,379.454,744.614)"
               style="font-variant:normal;font-weight:normal;font-size:14px;font-family:Menlo;-inkscape-font-specification:Menlo-Regular;writing-mode:lr-tb;fill:#afafaf;fill-opacity:1;fill-rule:nonzero;stroke:none"
               id="text174"><tspan
                 x="0 -8.4281301 -16.857189 -25.286249"
                 y="0"
                 id="tspan172">Am23</tspan></text></g><path
             d="m 1606.06,3025.77 v 41.67"
             style="fill:none;stroke:#afafaf;stroke-width:4.16667;stroke-linecap:butt;stroke-linejoin:miter;stroke-miterlimit:10;stroke-dasharray:none;stroke-opacity:1"
             id="path176" /><g
             id="g178"
             transform="scale(4.16667)"><text
               transform="matrix(0,-1,-1,0,412.637,744.614)"
               style="font-variant:normal;font-weight:normal;font-size:14px;font-family:Menlo;-inkscape-font-specification:Menlo-Regular;writing-mode:lr-tb;fill:#afafaf;fill-opacity:1;fill-rule:nonzero;stroke:none"
               id="text182"><tspan
                 x="0 -8.4281301 -16.857189 -25.286249"
                 y="0"
                 id="tspan180">Am63</tspan></text></g><path
             d="m 1744.32,3025.77 v 41.67"
             style="fill:none;stroke:#afafaf;stroke-width:4.16667;stroke-linecap:butt;stroke-linejoin:miter;stroke-miterlimit:10;stroke-dasharray:none;stroke-opacity:1"
             id="path184" /><g
             id="g186"
             transform="scale(4.16667)"><text
               transform="matrix(0,-1,-1,0,445.818,744.614)"
               style="font-variant:normal;font-weight:normal;font-size:14px;font-family:Menlo;-inkscape-font-specification:Menlo-Regular;writing-mode:lr-tb;fill:#afafaf;fill-opacity:1;fill-rule:nonzero;stroke:none"
               id="text190"><tspan
                 x="0 -8.4281301 -16.857189 -25.286249"
                 y="0"
                 id="tspan188">Am04</tspan></text></g><path
             d="m 1882.57,3025.77 v 41.67"
             style="fill:none;stroke:#afafaf;stroke-width:4.16667;stroke-linecap:butt;stroke-linejoin:miter;stroke-miterlimit:10;stroke-dasharray:none;stroke-opacity:1"
             id="path192" /><g
             id="g194"
             transform="scale(4.16667)"><text
               transform="matrix(0,-1,-1,0,479,744.614)"
               style="font-variant:normal;font-weight:normal;font-size:14px;font-family:Menlo;-inkscape-font-specification:Menlo-Regular;writing-mode:lr-tb;fill:#afafaf;fill-opacity:1;fill-rule:nonzero;stroke:none"
               id="text198"><tspan
                 x="0 -8.4281301 -16.857189 -25.286249"
                 y="0"
                 id="tspan196">Am44</tspan></text></g><path
             d="m 2020.83,3025.77 v 41.67"
             style="fill:none;stroke:#afafaf;stroke-width:4.16667;stroke-linecap:butt;stroke-linejoin:miter;stroke-miterlimit:10;stroke-dasharray:none;stroke-opacity:1"
             id="path200" /><path
             d="m 500,371.906 h 1520.83 v 2653.87 H 500 Z"
             style="fill:none;stroke:#afafaf;stroke-width:4.16667;stroke-linecap:butt;stroke-linejoin:miter;stroke-miterlimit:10;stroke-dasharray:none;stroke-opacity:1"
             id="path202" /><g
             id="g204"
             transform="scale(4.16667)"><text
               transform="matrix(0,-1,-1,0,489,621.972)"
               style="font-variant:normal;font-weight:normal;font-size:14px;font-family:Menlo;-inkscape-font-specification:Menlo-Regular;writing-mode:lr-tb;fill:#0eff00;fill-opacity:1;fill-rule:nonzero;stroke:none"
               id="text208"><tspan
                 x="0 8.4280005 16.856001 25.283415 33.711414 42.139416 50.56683 58.994827 67.422241 75.850243 84.278244 92.705658 101.13366"
                 y="0"
                 id="tspan206">Ix(U3a:Plate)</tspan></text></g></g></g><g
         id="g210"><g
           id="g212"
           clip-path="url(#clipPath216)"><path
             d="m 697.453,3025.77 v 0 l 38.699,-6.51 68.469,-10.61 75.438,-10.62 82.039,-10.61 87.292,-10.62 91.31,-10.61 94.19,-10.62 95.86,-10.62 96.18,-10.61 94.92,-10.62 91.81,-10.61 86.61,-10.62 79.24,-10.61 69.73,-10.62 58.33,-10.61 45.34,-10.62 31.17,-10.62 16.19,-10.61 0.78,-10.62 -14.64,-10.61 -29.75,-10.62 -44.11,-10.61 -57.29,-10.62 -68.81,-10.61 -78.24,-10.62 -85.21,-10.61 -89.7,-10.62 -92.01,-10.62 -92.67,-10.61 -92.16,-10.62 -90.7,-10.61 -88.25,-10.62 -84.67,-10.61 -79.801,-10.62 -73.574,-10.61 -66.082,-10.62 -57.586,-10.61 -48.516,-10.62 -39.429,-10.61 -30.891,-10.62 -23.391,-10.62 -17.34,-10.61 -10.761,-9.05 -8.485,-10.03 -6.242,-10.62 -4.066,-10.62 -2.324,-10.61 -0.832,-10.62 0.625,-10.61 2.281,-10.62 4.441,-10.61 7.473,-10.62 11.855,-10.61 18.043,-10.62 26.223,-10.61 36.113,-10.62 46.883,-10.61 57.492,-10.62 67.09,-10.62 75.238,-10.61 81.891,-10.62 87.172,-10.61 91.21,-10.62 94.12,-10.61 95.81,-10.62 96.16,-10.62 94.94,-10.61 91.87,-10.62 86.73,-10.61 79.4,-10.62 69.95,-10.61 58.58,-10.62 45.65,-10.61 31.49,-10.62 16.53,-10.62 1.15,-10.61 -14.3,-10.62 -29.4,-10.61 -43.78,-10.62 -56.98,-10.61 -68.54,-10.62 -78,-10.61 -85.02,-10.62 -89.57,-10.62 -91.92,-10.61 -92.62,-10.62 -92.13,-10.61 -90.69,-10.62 -88.27,-10.61 -84.714,-10.62 -79.871,-10.61 -73.672,-10.62 -66.203,-10.61 -57.719,-10.62 -48.656,-10.62 -39.559,-10.61 -31.015,-10.62 -23.492,-10.61 -17.407,-10.62 -10.953,-9.18 -8.535,-10.09 -6.238,-10.61 -4.063,-10.62 -2.324,-10.61 -0.832,-10.62 0.617,-10.61 2.274,-10.62 4.425,-10.61 7.45,-10.62 11.824,-10.61 18,-10.62 26.172,-10.62 36.058,-10.61 46.828,-10.62 57.45,-10.61 67.05,-10.62 75.211,-10.61 81.868,-10.62 87.146,-10.61 91.21,-10.62 94.1,-10.61 95.8,-10.62 96.17,-10.62 94.94,-10.61 91.87,-10.62 86.74,-10.61 79.43,-10.62 69.98,-10.61 58.62,-10.62 45.69,-10.61 31.54,-10.62 16.58,-10.62 1.19,-10.61 -14.24,-10.62 -29.36,-10.61 -43.73,-10.62 -56.93,-10.61 -68.5,-10.62 -77.97,-10.61 -85,-10.62 -89.54,-10.62 -91.9,-10.61 -92.61,-10.62 -92.13,-10.61 -90.69,-10.62 -88.27,-10.61 -84.715,-10.62 -79.878,-10.62 -73.68,-10.61 -66.215,-10.62 -57.734,-10.61 -48.672,-10.62 -39.574,-10.61 -31.028,-10.62 -23.5,-10.61 -17.414,-10.62 -10.976,-9.2 -8.543,-10.09 -6.235,-10.62 -4.058,-10.61 -2.325,-10.62 -0.835,-10.62 0.621,-10.61 2.273,-10.62 4.418,-10.61 7.445,-10.62 11.821,-10.61 17.988,-10.62 26.164,-10.61 36.047,-10.62 46.82,-10.61 57.438,-10.62 67.043,-10.61 75.207,-10.62 81.863,-10.62 87.144,-10.61 91.2,-10.62 94.11,-10.61 95.8,-10.62 96.16,-10.61 94.94,-10.62 91.88,-10.61 86.74,-10.62 79.43,-10.61 69.98,-10.62 58.64,-10.62 45.69,-10.61 31.54,-10.62 16.59,-10.61 1.2,-10.62 -14.24,-10.61 -29.34,-10.62 -43.73,-10.613 -56.93,-10.617 -68.49,-10.618 -77.96,-10.613 -84.99,-10.617 -89.54,-10.613 -91.91,-10.618 -92.61,-10.613 -92.12,-10.617 -90.69,-10.617 -88.27,-10.614 -84.716,-10.617 -79.879,-10.613 -73.68,-10.617 -66.215,-10.613 -57.734,-10.618 -48.668,-10.613 -39.578,-10.617 -31.024,-10.617 -23.5,-10.614 -17.414,-10.617 -10.976,-9.207 -8.543,-10.09 -6.235,-10.617 -4.058,-10.617 -2.324,-10.613 -0.832,-10.617 0.617,-10.614 2.273,-10.617 4.418,-10.613 7.446,-10.617 11.812,-10.614 17.988,-10.617 26.16,-10.617 36.043,-10.613 46.817,-10.618 57.437,-10.613 67.039,-10.617 75.207,-10.613 81.86,-10.617 87.149,-10.614 91.2,-10.617 94.1,-10.617 95.8,-10.613 96.16,-10.618 94.95,-10.613 91.88,-10.617 86.74,-10.613 79.43,-10.618 69.99,-10.617 58.63,-10.613 45.69,-10.617 31.55,-10.613 16.59,-10.618 1.2,-10.613 -14.24,-10.617 -29.35,-10.613 -43.72,-10.618 -54.43,-10.617 -8.44,-1.461"
             style="fill:none;stroke:#0eff00;stroke-width:4.16667;stroke-linecap:butt;stroke-linejoin:miter;stroke-miterlimit:1;stroke-dasharray:none;stroke-opacity:1"
             id="path218" /></g></g><g
         id="g220"><g
           id="g222"
           clip-path="url(#clipPath226)"><g
             id="g228"
             transform="scale(4.16667)"><text
               transform="matrix(0,-1,-1,0,489,303.972)"
               style="font-variant:normal;font-weight:normal;font-size:14px;font-family:Menlo;-inkscape-font-specification:Menlo-Regular;writing-mode:lr-tb;fill:#0000ff;fill-opacity:1;fill-rule:nonzero;stroke:none"
               id="text232"><tspan
                 x="0 8.4280005 16.856001 25.283415 33.711414 42.139416 50.56683 58.994827 67.422241 75.850243 84.278244 92.705658 101.13366"
                 y="0"
                 id="tspan230">Ix(U3b:Plate)</tspan></text></g></g></g><g
         id="g234"><g
           id="g236"
           clip-path="url(#clipPath240)"><path
             d="m 1365.61,3025.77 v 0 l -57.22,-6.51 -91.69,-10.61 -89.65,-10.62 -86.77,-10.61 -82.678,-10.62 -77.254,-10.61 -70.481,-10.62 -62.527,-10.62 -53.735,-10.61 -44.585,-10.62 -35.665,-10.61 -27.519,-10.62 -20.547,-10.61 -14.906,-10.62 -10.543,-10.61 -7.27,-10.62 -4.816,-10.62 -2.934,-10.61 -1.386,-10.62 0.05,-10.61 1.59,-10.62 3.5,-10.61 6.121,-10.62 9.903,-10.61 15.328,-10.62 22.722,-10.61 32.02,-10.62 42.574,-10.62 53.387,-10.61 63.465,-10.62 72.215,-10.61 79.453,-10.62 85.248,-10.61 89.76,-10.62 93.11,-10.61 95.28,-10.62 96.18,-10.61 95.59,-10.62 93.28,-10.61 88.97,-10.62 82.5,-10.62 74.27,-10.61 54.82,-9.05 49.82,-10.03 39.82,-10.62 25.47,-10.62 10.3,-10.61 -5.16,-10.62 -20.51,-10.61 -35.36,-10.62 -49.3,-10.61 -61.89,-10.62 -72.64,-10.61 -81.13,-10.62 -87.12,-10.61 -90.71,-10.62 -92.33,-10.61 -92.51,-10.62 -91.61,-10.62 -89.8,-10.61 -86.93,-10.62 -82.871,-10.61 -77.465,-10.62 -70.727,-10.61 -62.801,-10.62 -54.019,-10.62 -44.875,-10.61 -35.938,-10.62 -27.761,-10.61 -20.75,-10.62 -15.071,-10.61 -10.672,-10.62 -7.359,-10.61 -4.887,-10.62 -2.984,-10.62 -1.422,-10.61 0.02,-10.62 1.562,-10.61 3.465,-10.62 6.078,-10.61 9.844,-10.62 15.238,-10.61 22.602,-10.62 31.863,-10.62 42.402,-10.61 53.203,-10.62 63.301,-10.61 72.074,-10.62 79.333,-10.61 85.157,-10.62 89.69,-10.61 93.06,-10.62 95.26,-10.61 96.19,-10.62 95.64,-10.62 93.36,-10.61 89.08,-10.62 82.66,-10.61 74.44,-10.62 55.76,-9.18 50.16,-10.09 39.87,-10.61 25.5,-10.62 10.32,-10.61 -5.14,-10.62 -20.48,-10.61 -35.34,-10.62 -49.29,-10.61 -61.88,-10.62 -72.65,-10.61 -81.13,-10.62 -87.14,-10.62 -90.74,-10.61 -92.35,-10.62 -92.53,-10.61 -91.65,-10.62 -89.81,-10.61 -86.96,-10.62 -82.901,-10.61 -77.5,-10.62 -70.766,-10.61 -62.844,-10.62 -54.062,-10.62 -44.914,-10.61 -35.977,-10.62 -27.801,-10.61 -20.781,-10.62 -15.094,-10.61 -10.691,-10.62 -7.375,-10.61 -4.894,-10.62 -2.993,-10.62 -1.425,-10.61 0.011,-10.62 1.559,-10.61 3.465,-10.62 6.074,-10.61 9.836,-10.62 15.226,-10.61 22.582,-10.62 31.844,-10.62 42.375,-10.61 53.18,-10.62 63.281,-10.61 72.055,-10.62 79.316,-10.61 85.144,-10.62 89.68,-10.62 93.06,-10.61 95.26,-10.62 96.18,-10.61 95.65,-10.62 93.37,-10.61 89.11,-10.62 82.68,-10.61 74.46,-10.62 55.88,-9.2 50.22,-10.09 39.87,-10.62 25.5,-10.61 10.32,-10.62 -5.13,-10.62 -20.48,-10.61 -35.34,-10.62 -49.29,-10.61 -61.88,-10.62 -72.65,-10.61 -81.14,-10.62 -87.14,-10.61 -90.74,-10.62 -92.37,-10.61 -92.53,-10.62 -91.65,-10.61 -89.82,-10.62 -86.97,-10.62 -82.898,-10.61 -77.504,-10.62 -70.77,-10.61 -62.847,-10.62 -54.067,-10.61 -44.922,-10.62 -35.98,-10.61 -27.805,-10.62 -20.785,-10.61 -15.098,-10.62 -10.691,-10.62 -7.375,-10.61 -4.895,-10.62 -2.992,-10.61 -1.429,-10.62 0.011,-10.61 1.559,-10.62 3.461,-10.613 6.074,-10.617 9.832,-10.618 15.223,-10.613 22.582,-10.617 31.84,-10.613 42.371,-10.618 53.175,-10.613 63.274,-10.617 72.051,-10.617 79.316,-10.614 85.139,-10.617 89.69,-10.613 93.05,-10.617 95.26,-10.613 96.19,-10.618 95.65,-10.613 93.37,-10.617 89.1,-10.617 82.69,-10.614 74.47,-10.617 55.9,-9.207 50.22,-10.09 39.87,-10.617 25.5,-10.617 10.33,-10.613 -5.13,-10.617 -20.49,-10.614 -35.34,-10.617 -49.29,-10.613 -61.88,-10.617 -72.65,-10.614 -81.14,-10.617 -87.15,-10.617 -90.74,-10.613 -92.36,-10.618 -92.54,-10.613 -91.65,-10.617 -89.82,-10.613 -86.97,-10.617 -82.9,-10.614 -77.508,-10.617 -70.769,-10.617 -62.844,-10.613 -54.066,-10.618 -44.922,-10.613 -35.981,-10.617 -27.801,-10.613 -20.785,-10.618 -15.094,-10.617 -10.691,-10.613 -7.375,-10.617 -4.898,-10.613 -2.989,-10.618 -1.429,-10.613 0.011,-10.617 1.559,-10.613 3.461,-10.618 5.269,-10.617 0.93,-1.461"
             style="fill:none;stroke:#0000ff;stroke-width:4.16667;stroke-linecap:butt;stroke-linejoin:miter;stroke-miterlimit:1;stroke-dasharray:none;stroke-opacity:1"
             id="path242" /></g></g></g></g></svg>
