<?xml version="1.0" encoding="UTF-8" standalone="no"?>
<svg
   xmlns:dc="http://purl.org/dc/elements/1.1/"
   xmlns:cc="http://creativecommons.org/ns#"
   xmlns:rdf="http://www.w3.org/1999/02/22-rdf-syntax-ns#"
   xmlns:svg="http://www.w3.org/2000/svg"
   xmlns="http://www.w3.org/2000/svg"
   xmlns:sodipodi="http://sodipodi.sourceforge.net/DTD/sodipodi-0.dtd"
   xmlns:inkscape="http://www.inkscape.org/namespaces/inkscape"
   version="1.1"
   id="svg272"
   xml:space="preserve"
   width="568.38666"
   height="361.33768"
   viewBox="0 0 852.57997 542.00652"
   sodipodi:docname="preamp-fft-150mV.svg"
   inkscape:version="1.0.1 (c497b03c, 2020-09-10)"><metadata
     id="metadata278"><rdf:RDF><cc:Work
         rdf:about=""><dc:format>image/svg+xml</dc:format><dc:type
           rdf:resource="http://purl.org/dc/dcmitype/StillImage" /><dc:title></dc:title></cc:Work></rdf:RDF></metadata><defs
     id="defs276"><clipPath
       clipPathUnits="userSpaceOnUse"
       id="clipPath290"><path
         d="m 375,299.582 h 1729.17 v 2908.34 H 375 Z"
         id="path288" /></clipPath><clipPath
       clipPathUnits="userSpaceOnUse"
       id="clipPath494"><path
         d="m 500,537.082 h 1520.83 v 2525 H 500 Z"
         id="path492" /></clipPath></defs><sodipodi:namedview
     pagecolor="#ffffff"
     bordercolor="#666666"
     borderopacity="1"
     objecttolerance="10"
     gridtolerance="10"
     guidetolerance="10"
     inkscape:pageopacity="0"
     inkscape:pageshadow="2"
     inkscape:window-width="1308"
     inkscape:window-height="776"
     id="namedview274"
     showgrid="false"
     fit-margin-top="0"
     fit-margin-left="0"
     fit-margin-right="0"
     fit-margin-bottom="0"
     inkscape:zoom="0.7823918"
     inkscape:cx="463.37843"
     inkscape:cy="270.21602"
     inkscape:window-x="0"
     inkscape:window-y="23"
     inkscape:window-maximized="0"
     inkscape:current-layer="g280"
     inkscape:document-rotation="0"
     scale-x="1.5" /><g
     id="g280"
     inkscape:groupmode="layer"
     inkscape:label="ink_ext_XXXXXX"
     transform="matrix(0,-1.3333333,-1.3333333,0,1024.6385,667.07604)"><g
       id="g282"
       transform="scale(0.24)"><g
         id="g284"><g
           id="g286"
           clip-path="url(#clipPath290)"><g
             id="g292"
             transform="scale(4.16667)"><text
               transform="matrix(0,-1,-1,0,94.0003,747.257)"
               style="font-variant:normal;font-weight:normal;font-size:14px;font-family:Menlo;-inkscape-font-specification:Menlo-Regular;writing-mode:lr-tb;fill:#afafaf;fill-opacity:1;fill-rule:nonzero;stroke:none"
               id="text296"><tspan
                 x="0 8.4280005 16.855413"
                 y="0"
                 sodipodi:role="line"
                 id="tspan294">1Hz</tspan></text></g><path
             d="M 500,3060.89 H 458.332"
             style="fill:none;stroke:#afafaf;stroke-width:4.16667;stroke-linecap:butt;stroke-linejoin:miter;stroke-miterlimit:10;stroke-dasharray:none;stroke-opacity:1"
             id="path298" /><path
             d="M 500,2892.82 H 479.168"
             style="fill:none;stroke:#afafaf;stroke-width:4.16667;stroke-linecap:butt;stroke-linejoin:miter;stroke-miterlimit:10;stroke-dasharray:none;stroke-opacity:1"
             id="path300" /><path
             d="M 500,2794.5 H 479.168"
             style="fill:none;stroke:#afafaf;stroke-width:4.16667;stroke-linecap:butt;stroke-linejoin:miter;stroke-miterlimit:10;stroke-dasharray:none;stroke-opacity:1"
             id="path302" /><path
             d="M 500,2724.74 H 479.168"
             style="fill:none;stroke:#afafaf;stroke-width:4.16667;stroke-linecap:butt;stroke-linejoin:miter;stroke-miterlimit:10;stroke-dasharray:none;stroke-opacity:1"
             id="path304" /><path
             d="M 500,2670.63 H 479.168"
             style="fill:none;stroke:#afafaf;stroke-width:4.16667;stroke-linecap:butt;stroke-linejoin:miter;stroke-miterlimit:10;stroke-dasharray:none;stroke-opacity:1"
             id="path306" /><path
             d="M 500,2626.42 H 479.168"
             style="fill:none;stroke:#afafaf;stroke-width:4.16667;stroke-linecap:butt;stroke-linejoin:miter;stroke-miterlimit:10;stroke-dasharray:none;stroke-opacity:1"
             id="path308" /><path
             d="M 500,2589.04 H 479.168"
             style="fill:none;stroke:#afafaf;stroke-width:4.16667;stroke-linecap:butt;stroke-linejoin:miter;stroke-miterlimit:10;stroke-dasharray:none;stroke-opacity:1"
             id="path310" /><path
             d="M 500,2556.66 H 479.168"
             style="fill:none;stroke:#afafaf;stroke-width:4.16667;stroke-linecap:butt;stroke-linejoin:miter;stroke-miterlimit:10;stroke-dasharray:none;stroke-opacity:1"
             id="path312" /><path
             d="M 500,2528.11 H 479.168"
             style="fill:none;stroke:#afafaf;stroke-width:4.16667;stroke-linecap:butt;stroke-linejoin:miter;stroke-miterlimit:10;stroke-dasharray:none;stroke-opacity:1"
             id="path314" /><g
             id="g316"
             transform="scale(4.16667)"><text
               transform="matrix(0,-1,-1,0,94.0003,617.471)"
               style="font-variant:normal;font-weight:normal;font-size:14px;font-family:Menlo;-inkscape-font-specification:Menlo-Regular;writing-mode:lr-tb;fill:#afafaf;fill-opacity:1;fill-rule:nonzero;stroke:none"
               id="text320"><tspan
                 x="0 8.4280005 16.856001 25.283415"
                 y="0"
                 sodipodi:role="line"
                 id="tspan318">10Hz</tspan></text></g><path
             d="M 500,2502.55 H 458.332"
             style="fill:none;stroke:#afafaf;stroke-width:4.16667;stroke-linecap:butt;stroke-linejoin:miter;stroke-miterlimit:10;stroke-dasharray:none;stroke-opacity:1"
             id="path322" /><path
             d="M 500,2334.48 H 479.168"
             style="fill:none;stroke:#afafaf;stroke-width:4.16667;stroke-linecap:butt;stroke-linejoin:miter;stroke-miterlimit:10;stroke-dasharray:none;stroke-opacity:1"
             id="path324" /><path
             d="M 500,2236.16 H 479.168"
             style="fill:none;stroke:#afafaf;stroke-width:4.16667;stroke-linecap:butt;stroke-linejoin:miter;stroke-miterlimit:10;stroke-dasharray:none;stroke-opacity:1"
             id="path326" /><path
             d="M 500,2166.41 H 479.168"
             style="fill:none;stroke:#afafaf;stroke-width:4.16667;stroke-linecap:butt;stroke-linejoin:miter;stroke-miterlimit:10;stroke-dasharray:none;stroke-opacity:1"
             id="path328" /><path
             d="M 500,2112.3 H 479.168"
             style="fill:none;stroke:#afafaf;stroke-width:4.16667;stroke-linecap:butt;stroke-linejoin:miter;stroke-miterlimit:10;stroke-dasharray:none;stroke-opacity:1"
             id="path330" /><path
             d="M 500,2068.09 H 479.168"
             style="fill:none;stroke:#afafaf;stroke-width:4.16667;stroke-linecap:butt;stroke-linejoin:miter;stroke-miterlimit:10;stroke-dasharray:none;stroke-opacity:1"
             id="path332" /><path
             d="M 500,2030.71 H 479.168"
             style="fill:none;stroke:#afafaf;stroke-width:4.16667;stroke-linecap:butt;stroke-linejoin:miter;stroke-miterlimit:10;stroke-dasharray:none;stroke-opacity:1"
             id="path334" /><path
             d="M 500,1998.33 H 479.168"
             style="fill:none;stroke:#afafaf;stroke-width:4.16667;stroke-linecap:butt;stroke-linejoin:miter;stroke-miterlimit:10;stroke-dasharray:none;stroke-opacity:1"
             id="path336" /><path
             d="M 500,1969.77 H 479.168"
             style="fill:none;stroke:#afafaf;stroke-width:4.16667;stroke-linecap:butt;stroke-linejoin:miter;stroke-miterlimit:10;stroke-dasharray:none;stroke-opacity:1"
             id="path338" /><g
             id="g340"
             transform="scale(4.16667)"><text
               transform="matrix(0,-1,-1,0,94.0003,487.685)"
               style="font-variant:normal;font-weight:normal;font-size:14px;font-family:Menlo;-inkscape-font-specification:Menlo-Regular;writing-mode:lr-tb;fill:#afafaf;fill-opacity:1;fill-rule:nonzero;stroke:none"
               id="text344"><tspan
                 x="0 8.4274139 16.855413 25.283415 33.710827"
                 y="0"
                 sodipodi:role="line"
                 id="tspan342">100Hz</tspan></text></g><path
             d="M 500,1944.22 H 458.332"
             style="fill:none;stroke:#afafaf;stroke-width:4.16667;stroke-linecap:butt;stroke-linejoin:miter;stroke-miterlimit:10;stroke-dasharray:none;stroke-opacity:1"
             id="path346" /><path
             d="M 500,1776.14 H 479.168"
             style="fill:none;stroke:#afafaf;stroke-width:4.16667;stroke-linecap:butt;stroke-linejoin:miter;stroke-miterlimit:10;stroke-dasharray:none;stroke-opacity:1"
             id="path348" /><path
             d="M 500,1677.83 H 479.168"
             style="fill:none;stroke:#afafaf;stroke-width:4.16667;stroke-linecap:butt;stroke-linejoin:miter;stroke-miterlimit:10;stroke-dasharray:none;stroke-opacity:1"
             id="path350" /><path
             d="M 500,1608.07 H 479.168"
             style="fill:none;stroke:#afafaf;stroke-width:4.16667;stroke-linecap:butt;stroke-linejoin:miter;stroke-miterlimit:10;stroke-dasharray:none;stroke-opacity:1"
             id="path352" /><path
             d="M 500,1553.96 H 479.168"
             style="fill:none;stroke:#afafaf;stroke-width:4.16667;stroke-linecap:butt;stroke-linejoin:miter;stroke-miterlimit:10;stroke-dasharray:none;stroke-opacity:1"
             id="path354" /><path
             d="M 500,1509.75 H 479.168"
             style="fill:none;stroke:#afafaf;stroke-width:4.16667;stroke-linecap:butt;stroke-linejoin:miter;stroke-miterlimit:10;stroke-dasharray:none;stroke-opacity:1"
             id="path356" /><path
             d="M 500,1472.38 H 479.168"
             style="fill:none;stroke:#afafaf;stroke-width:4.16667;stroke-linecap:butt;stroke-linejoin:miter;stroke-miterlimit:10;stroke-dasharray:none;stroke-opacity:1"
             id="path358" /><path
             d="M 500,1440 H 479.168"
             style="fill:none;stroke:#afafaf;stroke-width:4.16667;stroke-linecap:butt;stroke-linejoin:miter;stroke-miterlimit:10;stroke-dasharray:none;stroke-opacity:1"
             id="path360" /><path
             d="M 500,1411.43 H 479.168"
             style="fill:none;stroke:#afafaf;stroke-width:4.16667;stroke-linecap:butt;stroke-linejoin:miter;stroke-miterlimit:10;stroke-dasharray:none;stroke-opacity:1"
             id="path362" /><g
             id="g364"
             transform="scale(4.16667)"><text
               transform="matrix(0,-1,-1,0,94.0003,349.47)"
               style="font-variant:normal;font-weight:normal;font-size:14px;font-family:Menlo;-inkscape-font-specification:Menlo-Regular;writing-mode:lr-tb;fill:#afafaf;fill-opacity:1;fill-rule:nonzero;stroke:none"
               id="text368"><tspan
                 x="0 8.4274139 16.855413 25.283415"
                 y="0"
                 sodipodi:role="line"
                 id="tspan366">1KHz</tspan></text></g><path
             d="M 500,1385.89 H 458.332"
             style="fill:none;stroke:#afafaf;stroke-width:4.16667;stroke-linecap:butt;stroke-linejoin:miter;stroke-miterlimit:10;stroke-dasharray:none;stroke-opacity:1"
             id="path370" /><path
             d="M 500,1217.81 H 479.168"
             style="fill:none;stroke:#afafaf;stroke-width:4.16667;stroke-linecap:butt;stroke-linejoin:miter;stroke-miterlimit:10;stroke-dasharray:none;stroke-opacity:1"
             id="path372" /><path
             d="M 500,1119.49 H 479.168"
             style="fill:none;stroke:#afafaf;stroke-width:4.16667;stroke-linecap:butt;stroke-linejoin:miter;stroke-miterlimit:10;stroke-dasharray:none;stroke-opacity:1"
             id="path374" /><path
             d="M 500,1049.73 H 479.168"
             style="fill:none;stroke:#afafaf;stroke-width:4.16667;stroke-linecap:butt;stroke-linejoin:miter;stroke-miterlimit:10;stroke-dasharray:none;stroke-opacity:1"
             id="path376" /><path
             d="M 500,995.629 H 479.168"
             style="fill:none;stroke:#afafaf;stroke-width:4.16667;stroke-linecap:butt;stroke-linejoin:miter;stroke-miterlimit:10;stroke-dasharray:none;stroke-opacity:1"
             id="path378" /><path
             d="M 500,951.418 H 479.168"
             style="fill:none;stroke:#afafaf;stroke-width:4.16667;stroke-linecap:butt;stroke-linejoin:miter;stroke-miterlimit:10;stroke-dasharray:none;stroke-opacity:1"
             id="path380" /><path
             d="M 500,914.039 H 479.168"
             style="fill:none;stroke:#afafaf;stroke-width:4.16667;stroke-linecap:butt;stroke-linejoin:miter;stroke-miterlimit:10;stroke-dasharray:none;stroke-opacity:1"
             id="path382" /><path
             d="M 500,881.66 H 479.168"
             style="fill:none;stroke:#afafaf;stroke-width:4.16667;stroke-linecap:butt;stroke-linejoin:miter;stroke-miterlimit:10;stroke-dasharray:none;stroke-opacity:1"
             id="path384" /><path
             d="M 500,853.098 H 479.168"
             style="fill:none;stroke:#afafaf;stroke-width:4.16667;stroke-linecap:butt;stroke-linejoin:miter;stroke-miterlimit:10;stroke-dasharray:none;stroke-opacity:1"
             id="path386" /><g
             id="g388"
             transform="scale(4.16667)"><text
               transform="matrix(0,-1,-1,0,94.0003,219.684)"
               style="font-variant:normal;font-weight:normal;font-size:14px;font-family:Menlo;-inkscape-font-specification:Menlo-Regular;writing-mode:lr-tb;fill:#afafaf;fill-opacity:1;fill-rule:nonzero;stroke:none"
               id="text392"><tspan
                 x="0 8.4280005 16.856001 25.283415 33.711414"
                 y="0"
                 sodipodi:role="line"
                 id="tspan390">10KHz</tspan></text></g><path
             d="M 500,827.551 H 458.332"
             style="fill:none;stroke:#afafaf;stroke-width:4.16667;stroke-linecap:butt;stroke-linejoin:miter;stroke-miterlimit:10;stroke-dasharray:none;stroke-opacity:1"
             id="path394" /><path
             d="M 500,659.477 H 479.168"
             style="fill:none;stroke:#afafaf;stroke-width:4.16667;stroke-linecap:butt;stroke-linejoin:miter;stroke-miterlimit:10;stroke-dasharray:none;stroke-opacity:1"
             id="path396" /><path
             d="M 500,561.156 H 479.168"
             style="fill:none;stroke:#afafaf;stroke-width:4.16667;stroke-linecap:butt;stroke-linejoin:miter;stroke-miterlimit:10;stroke-dasharray:none;stroke-opacity:1"
             id="path398" /><g
             id="g400"
             transform="scale(4.16667)"><text
               transform="matrix(0,-1,-1,0,114,753.042)"
               style="font-variant:normal;font-weight:normal;font-size:14px;font-family:Menlo;-inkscape-font-specification:Menlo-Regular;writing-mode:lr-tb;fill:#afafaf;fill-opacity:1;fill-rule:nonzero;stroke:none"
               id="text404"><tspan
                 x="0 -8.42906"
                 y="0"
                 sodipodi:role="line"
                 id="tspan402">V0</tspan></text></g><path
             d="m 500,3060.89 v 41.67"
             style="fill:none;stroke:#afafaf;stroke-width:4.16667;stroke-linecap:butt;stroke-linejoin:miter;stroke-miterlimit:10;stroke-dasharray:none;stroke-opacity:1"
             id="path406" /><g
             id="g408"
             transform="scale(4.16667)"><text
               transform="matrix(0,-1,-1,0,154.555,753.042)"
               style="font-variant:normal;font-weight:normal;font-size:14px;font-family:Menlo;-inkscape-font-specification:Menlo-Regular;writing-mode:lr-tb;fill:#afafaf;fill-opacity:1;fill-rule:nonzero;stroke:none"
               id="text412"><tspan
                 x="0 -8.42906"
                 y="0"
                 sodipodi:role="line"
                 id="tspan410">V2</tspan></text></g><path
             d="m 668.98,3060.89 v 41.67"
             style="fill:none;stroke:#afafaf;stroke-width:4.16667;stroke-linecap:butt;stroke-linejoin:miter;stroke-miterlimit:10;stroke-dasharray:none;stroke-opacity:1"
             id="path414" /><g
             id="g416"
             transform="scale(4.16667)"><text
               transform="matrix(0,-1,-1,0,195.112,753.042)"
               style="font-variant:normal;font-weight:normal;font-size:14px;font-family:Menlo;-inkscape-font-specification:Menlo-Regular;writing-mode:lr-tb;fill:#afafaf;fill-opacity:1;fill-rule:nonzero;stroke:none"
               id="text420"><tspan
                 x="0 -8.42906"
                 y="0"
                 sodipodi:role="line"
                 id="tspan418">V4</tspan></text></g><path
             d="m 837.965,3060.89 v 41.67"
             style="fill:none;stroke:#afafaf;stroke-width:4.16667;stroke-linecap:butt;stroke-linejoin:miter;stroke-miterlimit:10;stroke-dasharray:none;stroke-opacity:1"
             id="path422" /><g
             id="g424"
             transform="scale(4.16667)"><text
               transform="matrix(0,-1,-1,0,235.667,753.042)"
               style="font-variant:normal;font-weight:normal;font-size:14px;font-family:Menlo;-inkscape-font-specification:Menlo-Regular;writing-mode:lr-tb;fill:#afafaf;fill-opacity:1;fill-rule:nonzero;stroke:none"
               id="text428"><tspan
                 x="0 -8.42906"
                 y="0"
                 sodipodi:role="line"
                 id="tspan426">V6</tspan></text></g><path
             d="m 1006.95,3060.89 v 41.67"
             style="fill:none;stroke:#afafaf;stroke-width:4.16667;stroke-linecap:butt;stroke-linejoin:miter;stroke-miterlimit:10;stroke-dasharray:none;stroke-opacity:1"
             id="path430" /><g
             id="g432"
             transform="scale(4.16667)"><text
               transform="matrix(0,-1,-1,0,276.222,753.042)"
               style="font-variant:normal;font-weight:normal;font-size:14px;font-family:Menlo;-inkscape-font-specification:Menlo-Regular;writing-mode:lr-tb;fill:#afafaf;fill-opacity:1;fill-rule:nonzero;stroke:none"
               id="text436"><tspan
                 x="0 -8.42906"
                 y="0"
                 sodipodi:role="line"
                 id="tspan434">V8</tspan></text></g><path
             d="m 1175.93,3060.89 v 41.67"
             style="fill:none;stroke:#afafaf;stroke-width:4.16667;stroke-linecap:butt;stroke-linejoin:miter;stroke-miterlimit:10;stroke-dasharray:none;stroke-opacity:1"
             id="path438" /><g
             id="g440"
             transform="scale(4.16667)"><text
               transform="matrix(0,-1,-1,0,316.777,753.042)"
               style="font-variant:normal;font-weight:normal;font-size:14px;font-family:Menlo;-inkscape-font-specification:Menlo-Regular;writing-mode:lr-tb;fill:#afafaf;fill-opacity:1;fill-rule:nonzero;stroke:none"
               id="text444"><tspan
                 x="0 -8.42906 -16.85812"
                 y="0"
                 sodipodi:role="line"
                 id="tspan442">V01</tspan></text></g><path
             d="m 1344.91,3060.89 v 41.67"
             style="fill:none;stroke:#afafaf;stroke-width:4.16667;stroke-linecap:butt;stroke-linejoin:miter;stroke-miterlimit:10;stroke-dasharray:none;stroke-opacity:1"
             id="path446" /><g
             id="g448"
             transform="scale(4.16667)"><text
               transform="matrix(0,-1,-1,0,357.334,753.042)"
               style="font-variant:normal;font-weight:normal;font-size:14px;font-family:Menlo;-inkscape-font-specification:Menlo-Regular;writing-mode:lr-tb;fill:#afafaf;fill-opacity:1;fill-rule:nonzero;stroke:none"
               id="text452"><tspan
                 x="0 -8.42906 -16.85812"
                 y="0"
                 sodipodi:role="line"
                 id="tspan450">V21</tspan></text></g><path
             d="m 1513.89,3060.89 v 41.67"
             style="fill:none;stroke:#afafaf;stroke-width:4.16667;stroke-linecap:butt;stroke-linejoin:miter;stroke-miterlimit:10;stroke-dasharray:none;stroke-opacity:1"
             id="path454" /><g
             id="g456"
             transform="scale(4.16667)"><text
               transform="matrix(0,-1,-1,0,397.889,753.042)"
               style="font-variant:normal;font-weight:normal;font-size:14px;font-family:Menlo;-inkscape-font-specification:Menlo-Regular;writing-mode:lr-tb;fill:#afafaf;fill-opacity:1;fill-rule:nonzero;stroke:none"
               id="text460"><tspan
                 x="0 -8.42906 -16.85812"
                 y="0"
                 sodipodi:role="line"
                 id="tspan458">V41</tspan></text></g><path
             d="m 1682.87,3060.89 v 41.67"
             style="fill:none;stroke:#afafaf;stroke-width:4.16667;stroke-linecap:butt;stroke-linejoin:miter;stroke-miterlimit:10;stroke-dasharray:none;stroke-opacity:1"
             id="path462" /><g
             id="g464"
             transform="scale(4.16667)"><text
               transform="matrix(0,-1,-1,0,438.444,753.042)"
               style="font-variant:normal;font-weight:normal;font-size:14px;font-family:Menlo;-inkscape-font-specification:Menlo-Regular;writing-mode:lr-tb;fill:#afafaf;fill-opacity:1;fill-rule:nonzero;stroke:none"
               id="text468"><tspan
                 x="0 -8.42906 -16.85812"
                 y="0"
                 sodipodi:role="line"
                 id="tspan466">V61</tspan></text></g><path
             d="m 1851.85,3060.89 v 41.67"
             style="fill:none;stroke:#afafaf;stroke-width:4.16667;stroke-linecap:butt;stroke-linejoin:miter;stroke-miterlimit:10;stroke-dasharray:none;stroke-opacity:1"
             id="path470" /><g
             id="g472"
             transform="scale(4.16667)"><text
               transform="matrix(0,-1,-1,0,479,753.042)"
               style="font-variant:normal;font-weight:normal;font-size:14px;font-family:Menlo;-inkscape-font-specification:Menlo-Regular;writing-mode:lr-tb;fill:#afafaf;fill-opacity:1;fill-rule:nonzero;stroke:none"
               id="text476"><tspan
                 x="0 -8.42906 -16.85812"
                 y="0"
                 sodipodi:role="line"
                 id="tspan474">V81</tspan></text></g><path
             d="m 2020.83,3060.89 v 41.67"
             style="fill:none;stroke:#afafaf;stroke-width:4.16667;stroke-linecap:butt;stroke-linejoin:miter;stroke-miterlimit:10;stroke-dasharray:none;stroke-opacity:1"
             id="path478" /><path
             d="m 500,539.766 h 1520.83 v 2521.13 H 500 Z"
             style="fill:none;stroke:#afafaf;stroke-width:4.16667;stroke-linecap:butt;stroke-linejoin:miter;stroke-miterlimit:10;stroke-dasharray:none;stroke-opacity:1"
             id="path480" /><g
             id="g482"
             transform="scale(4.16667)"><text
               transform="matrix(0,-1,-1,0,489,461.615)"
               style="font-variant:normal;font-weight:normal;font-size:14px;font-family:Menlo;-inkscape-font-specification:Menlo-Regular;writing-mode:lr-tb;fill:#0eff00;fill-opacity:1;fill-rule:nonzero;stroke:none"
               id="text486"><tspan
                 x="0 8.4280005 16.856001 25.283415 33.711414 42.138828 50.56683"
                 y="0"
                 sodipodi:role="line"
                 id="tspan484">V(vout)</tspan></text></g></g></g><g
         id="g488"><g
           id="g490"
           clip-path="url(#clipPath494)"><path
             d="m 500.004,3060.89 v 0 -212.28 l 0.004,-19.41 v -17.97 -16.73 -19.41 -17.97 -16.73 -15.65 -19.41 -17.97 -16.73 -23.11 -21.1 -19.41 -17.97 l 0.004,-32.38 -0.004,-28.55 v -25.56 -23.1 -21.1 -19.41 -17.97 l 0.004,-16.73 v -15.65 -14.7 -13.86 -13.11 -12.44 -11.83 -11.28 -10.78 l 0.218,-10.32 -0.218,-9.9 v -9.51 -9.15 -8.82 -8.51 -8.22 -7.95 -7.7 -7.46 -7.24 -7.02 -6.84 -6.64 -6.47 -6.3 -6.13 -5.99 -5.85 -5.7 -5.58 -5.45 -5.32 -5.22 l 0.004,-5.1 -0.004,-5 v -4.9 -4.8 -4.71 -4.62 -4.53 -4.45 l 0.008,-4.37 -0.008,-4.3 v -4.21 -4.15 -4.07 -4.01 -3.94 -3.88 l 0.004,-3.82 -0.004,-3.76 v -3.7 -3.65 -3.59 -3.54 -3.49 -3.44 -3.39 -3.35 -3.3 -3.25 -3.21 -3.17 -3.13 -3.09 -3.05 -3.01 -2.98 -2.94 -2.9 -2.87 -2.84 -2.8 -2.77 -2.74 -2.71 -2.68 -2.65 -2.62 -2.59 -2.57 -2.54 -2.51 -2.49 -2.46 -2.44 -2.41 -2.39 -2.37 l 0.015,-2.34 -0.015,-2.32 v -2.3 -2.27 -2.26 -2.24 -2.21 -2.19 -2.18 -2.15 -2.14 -2.12 -2.1 -2.08 -2.06 -2.05 l 0.023,-2.03 -0.023,-2.01 v -2 -1.98 -1.96 -1.95 -1.93 -1.91 -1.91 -1.88 -1.88 -1.85 -1.85 -1.83 -1.82 -1.8 -1.79 -1.77 -1.77 -1.75 -1.74 -1.72 -1.71 -1.71 -1.69 -1.67 -1.67 -1.66 -1.64 -1.64 -1.62 -1.61 l 0.011,-1.6 -0.011,-1.59 v -1.58 -1.57 -1.56 -1.55 -1.54 -1.53 -1.52 -1.51 -1.5 -1.49 -1.48 -1.48 -1.46 -1.46 l 0.035,-1.45 -0.035,-1.44 v -1.43 -1.42 -1.41 -1.41 -1.4 -1.39 -2.75 -2.73 -2.69 -2.66 -2.64 -2.61 -2.58 -2.55 -2.52 -2.5 -2.48 -2.45 -2.42 -2.4 -2.38 -2.36 -2.33 -2.31 -2.28 -2.27 -2.25 -2.22 -2.21 -2.18 -2.16 -2.15 -2.13 -2.11 -2.09 -2.07 -2.06 -2.03 -2.02 -2 -1.99 -1.98 -1.95 -1.94 -1.93 -1.91 -1.89 -1.88 -1.86 -1.85 -1.84 -1.82 -1.81 -1.8 -1.78 -1.77 -1.76 -1.74 -1.74 -1.72 -1.7 -1.7 -1.68 -1.68 -1.66 -1.65 -1.63 -1.63 -1.62 -1.61 -1.59 -1.59 -1.57 -1.56 -1.56 -1.54 -1.54 -1.52 -1.52 -1.51 -1.49 -1.49 -1.48 -1.47 -1.46 -1.45 -1.44 -1.44 -1.42 -1.42 -1.41 -1.4 -1.4 -2.07 -2.06 -2.04 -2.02 -2.01 -1.99 -1.98 -1.95 l 0.008,-1.95 -0.008,-1.92 v -1.92 -1.89 -1.88 -1.87 -1.86 -1.84 -1.82 -1.81 -1.8 -1.78 -1.78 -1.76 -1.74 -1.74 l 0.004,-1.72 -0.004,-1.71 v -1.69 -1.69 -1.68 -1.66 l 1395.098,-0.55 -1395.098,-0.55 v -1.64 -1.64 -1.62 -1.61 l 0.008,-1.6 -0.008,-1.59 v -1.58 -1.57 -1.56 -1.55 -1.54 -1.53 -1.52 -1.51 -1.5 -1.49 -1.48 -1.48 -1.47 -1.45 l 0.008,-1.45 -0.008,-1.44 v -1.43 -1.42 -1.42 -1.4 -1.4 -1.39 -1.84 -1.83 -1.81 -1.8 -1.78 -1.78 -1.76 -1.74 -1.74 -1.72 l 0.004,-1.71 v -1.7 -1.69 -1.68 -1.66 -1.65 -1.64 -1.63 -1.62 -1.61 -1.6 l -0.004,-1.59 v -1.57 -1.57 -1.56 -1.54 -1.54 -1.53 -1.52 -1.51 -1.49 -1.49 -1.48 -1.48 -1.46 -1.45 -1.45 -1.43 -1.43 -1.42 -1.42 -1.4 -1.4 -1.73 -1.72 l 0.011,-1.71 -0.011,-1.7 v -1.68 -1.67 -1.66 -1.66 -1.63 -1.63 l -0.004,-1.62 v -1.61 l 0.004,-1.59 v -1.59 -1.58 -1.56 -1.56 -1.54 l -0.012,-1.54 0.012,-1.52 v -1.52 -1.51 -1.5 -1.49 -1.47 -1.47 -1.47 -1.45 -1.44 -1.44 -1.43 -1.42 -1.41 -1.4 l 0.004,-1.39 -0.004,-1.67 32.929,-0.55 -32.929,-0.27 v -1.65 -1.63 -1.63 -1.61 -1.6 -1.59 -1.58 -1.57 -1.57 -1.55 -1.54 -1.53 -1.52 -1.52 -1.5 -1.49 -1.49 -1.47 -1.47 -1.46 -1.44 -1.45 -1.43 -1.42 l -0.004,-1.42 v -1.4 -1.4 -1.39 l 0.004,-1.61 -0.004,-1.61 v -1.59 -1.58 -1.57 -1.56 -1.56 l 0.004,-1.53 -0.004,-1.54 0.004,-1.52 v -1.51 -1.5 -1.5 -1.48 -1.47 -1.47 -1.46 -1.45 -1.44 -1.43 -1.42 -1.42 -1.41 -1.39 l -0.008,-1.39 0.008,-1.58 v -1.57 -1.56 l 0.011,-1.55 -0.011,-1.54 0.066,-1.53 -0.066,-1.52 0.004,-1.51 0.015,-1.5 -0.019,-1.5 v -1.48 l 18.265,-1.47 -18.265,-0.19 v -1.46 -1.46 -1.44 -1.44 -1.43 -1.42 -1.41 -1.41 -1.4 -1.56 -1.55 -1.54 -1.53 -1.53 -1.51 -1.5 -1.5 -1.48 -1.48 -1.46 -1.46 -1.45"
             style="fill:none;stroke:#0eff00;stroke-width:4.16667;stroke-linecap:butt;stroke-linejoin:miter;stroke-miterlimit:1;stroke-dasharray:none;stroke-opacity:1"
             id="path496" /><path
             d="m 500.012,1285.96 v 0 -1.44 l 0.008,-1.44 -0.008,-1.42 v -1.42 -1.4 l -0.004,-1.4 v -1.39 -1.54 -1.53 -1.52 -1.5 -1.5 -1.49 -1.48 -1.47 -1.47 -1.45 -1.44 -1.44 -1.43 -1.42 -1.41 -1.4 l 0.004,-1.4 v -1.52 l 2.73,-0.83 -2.73,-0.14 v -1.51 -1.5 -1.49 -1.48 l 0.008,-1.48 -0.008,-1.46 -0.004,-1.46 v -1.44 -1.44 -1.43 -1.43 -1.41 -1.4 -1.4 -1.51 -1.51 -1.5 -1.48 -1.48 -1.47 -1.46 -1.45 -1.44 -1.43 -1.43 -1.42 -1.41 -1.4 -1.39 -1.5 -1.49 -1.48 -1.48 -1.46 -1.45 -1.45 -1.44 l 1.976,-0.11 -1.976,-0.11 v -1.43 -1.42 l 0.004,-1.41 -0.004,-1.4 v -1.4 l 0.004,-1.49 -0.004,-1.49 v -1.47 -1.47 -1.45 -1.45 -1.44 -1.43 l 0.012,-1.43 -0.012,-1.41 v -1.41 -1.4 -1.39 -1.48 l -0.004,-1.48 v -1.46 -1.45 -1.45 -1.44 -1.42 l 0.082,-1.42 -0.082,-1.42 v -1.4 -1.4 -1.48 -1.47 l 0.004,-1.46 v -1.45 -1.45 -1.44 -1.43 -1.41 l -0.004,-1.41 v -1.41 -1.39 -1.48 -1.46 l 0.016,-1.46 -0.02,-1.44 v -1.44 -1.43 l 0.004,-1.42 v -1.42 -1.4 -1.4 -1.39 -1.46 l 0.004,-1.46 v -1.44 l 0.004,-1.44 -0.004,-1.43 v -1.41 -1.41 -1.41 -1.39 -1.46 l 0.031,-1.46 -0.035,-1.45 v -1.43 -1.43 -1.43 -1.41 -1.4 -1.4 -1.46 -1.45 L 500,1091.36 v -1.43 -1.43 -1.42 -1.41 l 0.004,-1.4 v -1.39 -1.46 -1.44 -1.44 -1.43 -1.42 -1.42 -1.4 -1.4 -1.45 -1.45 -1.43 l 0.004,-1.43 v -1.42 -1.41 -1.41 -1.4 -1.44 -1.45 -1.43 -1.43 -1.41 l 2.336,-0.74 -2.336,-0.06 0.008,-1.4 -0.008,-1.4 v -1.45 -1.43 -1.44 l -0.004,-1.42 v -1.41 -1.41 -1.4 L 500,1037.96 v -1.44 -1.43 l 0.004,-1.42 v -1.42 -1.4 -1.4 l 0.004,-1.39 0.109,-1.43 -0.109,-1.43 v -1.42 -1.42 l 0.015,-1.4 -0.015,-1.4 v -1.44 l -0.004,-1.43 0.008,-1.42 v -1.42 -1.41 -1.4 l 0.004,-1.39 v -1.43 -1.43 -1.41 -1.42 l 3.125,-0.45 -3.125,-0.05 -0.004,-1.39 v -1.39 -1.438 l -0.004,-1.422 0.019,-1.418 -0.023,-1.406 v -1.398 L 500,992.207 v -1.43 l 0.004,-1.422 v -1.414 -1.406 -1.394 l 0.004,-1.391 v -1.426 -1.422 -1.41 -1.402 -1.395 -1.429 -1.422 -1.414 -1.41 -1.395 -1.391 l 0.004,-1.425 v -1.418 -1.407 l 2.152,-0.98 -2.156,-0.039 v -1.395 -1.429 -1.422 -1.41 l -0.004,-1.407 v -1.394 L 500,953.078 v -1.418 -1.41 l 0.004,-1.406 v -1.395 -1.426 -1.421 -1.411 -1.402 L 500,940.395 v -1.422 -1.418 -1.407 -1.402 -1.391 -1.421 -1.414 -1.403 l 0.008,-1.398 -0.008,-1.426 v -1.414 -1.41 -1.403 -1.39 -1.422 -1.41 -1.403 -1.394 -1.422 -1.414 -1.406 -1.399 l 0.008,-1.39 -0.004,-1.414 v -1.407 -1.398 -1.391 -1.418 -1.406 -1.398 -1.391 -1.414 L 500,893.969 v -1.399 -1.39 -1.414 -1.407 -1.398 l 0.004,-1.391 -0.004,-1.414 v -1.402 -1.399 -1.417 -1.411 -1.402 -1.395 -1.414 -1.406 -1.402 -1.391 -1.41 l 0.008,-1.406 -0.008,-1.395 v -1.418 -1.406 -1.398 -1.395 -1.41 l 0.004,-1.402 v -1.395 L 500,854.668 v -1.406 -1.399 -1.39 -1.407 -1.402 -1.391 -1.41 -1.402 -1.395 -1.414 -1.402 l 0.004,-1.395 0.004,-1.414 -0.008,-1.402 0.012,-1.398 -0.012,-1.414 v -1.403 -1.398 -1.414 l 0.004,-1.403 v -1.398 -1.391 -1.402 -1.398 L 500,819.609 v -1.406 -1.394 -1.411 -1.402 -1.394 -1.411 l 0.004,-1.402 -0.004,-1.391 v -1.41 -1.398 -1.391 -1.406 -1.398 -1.387 -1.406 -1.395 -1.406 -1.399 -1.394 -1.403 -1.398 -1.41 -1.402 -1.391 -1.406 -1.399 -1.386 -1.403 l 0.004,-1.394 -0.004,-1.407 v -1.394 -1.391 -1.402 -1.391 -1.402 -1.399 -1.406 -1.398 -1.391 l 0.004,-1.402 -0.004,-1.391 v -1.406 -1.395 l 0.004,-1.406 -0.004,-1.398 v -1.387 -1.402 -1.391 -1.402 -1.391 -1.402 -1.395 -1.406 -1.395 -1.406 -1.398 -1.387 -1.398 -1.391 -1.398 -1.391 -1.399 -1.39 -1.399 l 0.012,-1.39 -0.012,-1.403 v -1.39 -1.399 -1.39 -1.399 l 0.004,-1.39 -0.004,-1.399 v -1.39 -1.399 -1.39 -1.399 -1.387 -1.398 -1.402 -1.395 -1.402 -1.395 -1.398 -1.395 -1.394 -1.395 -1.394 l 0.09,-1.403 -0.09,-1.394 v -1.403 -1.394 -1.399 -1.39 -1.395 -1.402 -1.395 -1.398 -1.391 -1.398 -1.402 -1.395 -1.398 -1.391 -1.395 -1.402 -1.391 l 0.004,-1.398 -0.004,-1.387 v -1.394 -1.399 -1.39 -1.395 -1.398 -1.395 -1.394 -1.399 -1.39 -1.395 -1.398 -1.391 -1.394 -1.399 -1.391 -1.394 -1.399 -1.39 -1.391 -1.398 -1.399 -1.39 -1.395 -1.394 -1.391 -1.391 l 0.004,-1.394 -0.004,-1.399 v -1.39 -1.391 -1.398 -1.395 -1.39 -1.391 -1.395 -1.398 -1.398 -1.391 -1.395 -1.394 -1.395 -1.398 -1.391 -1.394 -1.395 -1.394 -1.399 -1.39 -1.391 -1.391 -1.394 -1.399 -1.394 -1.399 -1.39 -1.391 -1.394 -1.391 -1.394 -1.395 -1.398 -1.399 -1.387 -1.39 -1.391 -1.39 -1.391 -1.395"
             style="fill:none;stroke:#0eff00;stroke-width:4.16667;stroke-linecap:butt;stroke-linejoin:miter;stroke-miterlimit:1;stroke-dasharray:none;stroke-opacity:1"
             id="path498" /><path
             d="m 500,573.902 v 0 -33.461"
             style="fill:none;stroke:#0eff00;stroke-width:4.16667;stroke-linecap:butt;stroke-linejoin:miter;stroke-miterlimit:1;stroke-dasharray:none;stroke-opacity:1"
             id="path500" /></g></g></g></g></svg>
