<?xml version="1.0" encoding="UTF-8" standalone="no"?>
<svg
   xmlns:dc="http://purl.org/dc/elements/1.1/"
   xmlns:cc="http://creativecommons.org/ns#"
   xmlns:rdf="http://www.w3.org/1999/02/22-rdf-syntax-ns#"
   xmlns:svg="http://www.w3.org/2000/svg"
   xmlns="http://www.w3.org/2000/svg"
   version="1.1"
   id="svg10"
   xml:space="preserve"
   width="569.03076"
   height="361.33768"
   viewBox="0 0 853.54613 542.00654"><metadata
     id="metadata16"><rdf:RDF><cc:Work
         rdf:about=""><dc:format>image/svg+xml</dc:format><dc:type
           rdf:resource="http://purl.org/dc/dcmitype/StillImage" /><dc:title></dc:title></cc:Work></rdf:RDF></metadata><defs
     id="defs14"><clipPath
       clipPathUnits="userSpaceOnUse"
       id="clipPath28"><path
         d="m 375,299.582 h 1729.17 v 2908.34 H 375 Z"
         id="path26" /></clipPath><clipPath
       clipPathUnits="userSpaceOnUse"
       id="clipPath248"><path
         d="m 500,537.082 h 1520.83 v 2525 H 500 Z"
         id="path246" /></clipPath></defs><g
     id="g18"
     transform="matrix(0,-1.3333333,-1.3333333,0,1025.6046,667.07604)"><g
       id="g20"
       transform="scale(0.24)"><g
         id="g22"><g
           id="g24"
           clip-path="url(#clipPath28)"><g
             id="g30"
             transform="scale(4.16667)"><text
               transform="matrix(0,-1,-1,0,94.0003,747.257)"
               style="font-variant:normal;font-weight:normal;font-size:14px;font-family:Menlo;-inkscape-font-specification:Menlo-Regular;writing-mode:lr-tb;fill:#afafaf;fill-opacity:1;fill-rule:nonzero;stroke:none"
               id="text34"><tspan
                 x="0 8.4280005 16.855413"
                 y="0"
                 id="tspan32">1Hz</tspan></text></g><path
             d="M 500,3060.89 H 458.332"
             style="fill:none;stroke:#afafaf;stroke-width:4.16667;stroke-linecap:butt;stroke-linejoin:miter;stroke-miterlimit:10;stroke-dasharray:none;stroke-opacity:1"
             id="path36" /><path
             d="M 500,2892.82 H 479.168"
             style="fill:none;stroke:#afafaf;stroke-width:4.16667;stroke-linecap:butt;stroke-linejoin:miter;stroke-miterlimit:10;stroke-dasharray:none;stroke-opacity:1"
             id="path38" /><path
             d="M 500,2794.5 H 479.168"
             style="fill:none;stroke:#afafaf;stroke-width:4.16667;stroke-linecap:butt;stroke-linejoin:miter;stroke-miterlimit:10;stroke-dasharray:none;stroke-opacity:1"
             id="path40" /><path
             d="M 500,2724.74 H 479.168"
             style="fill:none;stroke:#afafaf;stroke-width:4.16667;stroke-linecap:butt;stroke-linejoin:miter;stroke-miterlimit:10;stroke-dasharray:none;stroke-opacity:1"
             id="path42" /><path
             d="M 500,2670.63 H 479.168"
             style="fill:none;stroke:#afafaf;stroke-width:4.16667;stroke-linecap:butt;stroke-linejoin:miter;stroke-miterlimit:10;stroke-dasharray:none;stroke-opacity:1"
             id="path44" /><path
             d="M 500,2626.42 H 479.168"
             style="fill:none;stroke:#afafaf;stroke-width:4.16667;stroke-linecap:butt;stroke-linejoin:miter;stroke-miterlimit:10;stroke-dasharray:none;stroke-opacity:1"
             id="path46" /><path
             d="M 500,2589.04 H 479.168"
             style="fill:none;stroke:#afafaf;stroke-width:4.16667;stroke-linecap:butt;stroke-linejoin:miter;stroke-miterlimit:10;stroke-dasharray:none;stroke-opacity:1"
             id="path48" /><path
             d="M 500,2556.66 H 479.168"
             style="fill:none;stroke:#afafaf;stroke-width:4.16667;stroke-linecap:butt;stroke-linejoin:miter;stroke-miterlimit:10;stroke-dasharray:none;stroke-opacity:1"
             id="path50" /><path
             d="M 500,2528.11 H 479.168"
             style="fill:none;stroke:#afafaf;stroke-width:4.16667;stroke-linecap:butt;stroke-linejoin:miter;stroke-miterlimit:10;stroke-dasharray:none;stroke-opacity:1"
             id="path52" /><g
             id="g54"
             transform="scale(4.16667)"><text
               transform="matrix(0,-1,-1,0,94.0003,617.471)"
               style="font-variant:normal;font-weight:normal;font-size:14px;font-family:Menlo;-inkscape-font-specification:Menlo-Regular;writing-mode:lr-tb;fill:#afafaf;fill-opacity:1;fill-rule:nonzero;stroke:none"
               id="text58"><tspan
                 x="0 8.4280005 16.856001 25.283415"
                 y="0"
                 id="tspan56">10Hz</tspan></text></g><path
             d="M 500,2502.55 H 458.332"
             style="fill:none;stroke:#afafaf;stroke-width:4.16667;stroke-linecap:butt;stroke-linejoin:miter;stroke-miterlimit:10;stroke-dasharray:none;stroke-opacity:1"
             id="path60" /><path
             d="M 500,2334.48 H 479.168"
             style="fill:none;stroke:#afafaf;stroke-width:4.16667;stroke-linecap:butt;stroke-linejoin:miter;stroke-miterlimit:10;stroke-dasharray:none;stroke-opacity:1"
             id="path62" /><path
             d="M 500,2236.16 H 479.168"
             style="fill:none;stroke:#afafaf;stroke-width:4.16667;stroke-linecap:butt;stroke-linejoin:miter;stroke-miterlimit:10;stroke-dasharray:none;stroke-opacity:1"
             id="path64" /><path
             d="M 500,2166.41 H 479.168"
             style="fill:none;stroke:#afafaf;stroke-width:4.16667;stroke-linecap:butt;stroke-linejoin:miter;stroke-miterlimit:10;stroke-dasharray:none;stroke-opacity:1"
             id="path66" /><path
             d="M 500,2112.3 H 479.168"
             style="fill:none;stroke:#afafaf;stroke-width:4.16667;stroke-linecap:butt;stroke-linejoin:miter;stroke-miterlimit:10;stroke-dasharray:none;stroke-opacity:1"
             id="path68" /><path
             d="M 500,2068.09 H 479.168"
             style="fill:none;stroke:#afafaf;stroke-width:4.16667;stroke-linecap:butt;stroke-linejoin:miter;stroke-miterlimit:10;stroke-dasharray:none;stroke-opacity:1"
             id="path70" /><path
             d="M 500,2030.71 H 479.168"
             style="fill:none;stroke:#afafaf;stroke-width:4.16667;stroke-linecap:butt;stroke-linejoin:miter;stroke-miterlimit:10;stroke-dasharray:none;stroke-opacity:1"
             id="path72" /><path
             d="M 500,1998.33 H 479.168"
             style="fill:none;stroke:#afafaf;stroke-width:4.16667;stroke-linecap:butt;stroke-linejoin:miter;stroke-miterlimit:10;stroke-dasharray:none;stroke-opacity:1"
             id="path74" /><path
             d="M 500,1969.77 H 479.168"
             style="fill:none;stroke:#afafaf;stroke-width:4.16667;stroke-linecap:butt;stroke-linejoin:miter;stroke-miterlimit:10;stroke-dasharray:none;stroke-opacity:1"
             id="path76" /><g
             id="g78"
             transform="scale(4.16667)"><text
               transform="matrix(0,-1,-1,0,94.0003,487.685)"
               style="font-variant:normal;font-weight:normal;font-size:14px;font-family:Menlo;-inkscape-font-specification:Menlo-Regular;writing-mode:lr-tb;fill:#afafaf;fill-opacity:1;fill-rule:nonzero;stroke:none"
               id="text82"><tspan
                 x="0 8.4274139 16.855413 25.283415 33.710827"
                 y="0"
                 id="tspan80">100Hz</tspan></text></g><path
             d="M 500,1944.22 H 458.332"
             style="fill:none;stroke:#afafaf;stroke-width:4.16667;stroke-linecap:butt;stroke-linejoin:miter;stroke-miterlimit:10;stroke-dasharray:none;stroke-opacity:1"
             id="path84" /><path
             d="M 500,1776.14 H 479.168"
             style="fill:none;stroke:#afafaf;stroke-width:4.16667;stroke-linecap:butt;stroke-linejoin:miter;stroke-miterlimit:10;stroke-dasharray:none;stroke-opacity:1"
             id="path86" /><path
             d="M 500,1677.83 H 479.168"
             style="fill:none;stroke:#afafaf;stroke-width:4.16667;stroke-linecap:butt;stroke-linejoin:miter;stroke-miterlimit:10;stroke-dasharray:none;stroke-opacity:1"
             id="path88" /><path
             d="M 500,1608.07 H 479.168"
             style="fill:none;stroke:#afafaf;stroke-width:4.16667;stroke-linecap:butt;stroke-linejoin:miter;stroke-miterlimit:10;stroke-dasharray:none;stroke-opacity:1"
             id="path90" /><path
             d="M 500,1553.96 H 479.168"
             style="fill:none;stroke:#afafaf;stroke-width:4.16667;stroke-linecap:butt;stroke-linejoin:miter;stroke-miterlimit:10;stroke-dasharray:none;stroke-opacity:1"
             id="path92" /><path
             d="M 500,1509.75 H 479.168"
             style="fill:none;stroke:#afafaf;stroke-width:4.16667;stroke-linecap:butt;stroke-linejoin:miter;stroke-miterlimit:10;stroke-dasharray:none;stroke-opacity:1"
             id="path94" /><path
             d="M 500,1472.38 H 479.168"
             style="fill:none;stroke:#afafaf;stroke-width:4.16667;stroke-linecap:butt;stroke-linejoin:miter;stroke-miterlimit:10;stroke-dasharray:none;stroke-opacity:1"
             id="path96" /><path
             d="M 500,1440 H 479.168"
             style="fill:none;stroke:#afafaf;stroke-width:4.16667;stroke-linecap:butt;stroke-linejoin:miter;stroke-miterlimit:10;stroke-dasharray:none;stroke-opacity:1"
             id="path98" /><path
             d="M 500,1411.43 H 479.168"
             style="fill:none;stroke:#afafaf;stroke-width:4.16667;stroke-linecap:butt;stroke-linejoin:miter;stroke-miterlimit:10;stroke-dasharray:none;stroke-opacity:1"
             id="path100" /><g
             id="g102"
             transform="scale(4.16667)"><text
               transform="matrix(0,-1,-1,0,94.0003,349.47)"
               style="font-variant:normal;font-weight:normal;font-size:14px;font-family:Menlo;-inkscape-font-specification:Menlo-Regular;writing-mode:lr-tb;fill:#afafaf;fill-opacity:1;fill-rule:nonzero;stroke:none"
               id="text106"><tspan
                 x="0 8.4274139 16.855413 25.283415"
                 y="0"
                 id="tspan104">1KHz</tspan></text></g><path
             d="M 500,1385.89 H 458.332"
             style="fill:none;stroke:#afafaf;stroke-width:4.16667;stroke-linecap:butt;stroke-linejoin:miter;stroke-miterlimit:10;stroke-dasharray:none;stroke-opacity:1"
             id="path108" /><path
             d="M 500,1217.81 H 479.168"
             style="fill:none;stroke:#afafaf;stroke-width:4.16667;stroke-linecap:butt;stroke-linejoin:miter;stroke-miterlimit:10;stroke-dasharray:none;stroke-opacity:1"
             id="path110" /><path
             d="M 500,1119.49 H 479.168"
             style="fill:none;stroke:#afafaf;stroke-width:4.16667;stroke-linecap:butt;stroke-linejoin:miter;stroke-miterlimit:10;stroke-dasharray:none;stroke-opacity:1"
             id="path112" /><path
             d="M 500,1049.73 H 479.168"
             style="fill:none;stroke:#afafaf;stroke-width:4.16667;stroke-linecap:butt;stroke-linejoin:miter;stroke-miterlimit:10;stroke-dasharray:none;stroke-opacity:1"
             id="path114" /><path
             d="M 500,995.629 H 479.168"
             style="fill:none;stroke:#afafaf;stroke-width:4.16667;stroke-linecap:butt;stroke-linejoin:miter;stroke-miterlimit:10;stroke-dasharray:none;stroke-opacity:1"
             id="path116" /><path
             d="M 500,951.418 H 479.168"
             style="fill:none;stroke:#afafaf;stroke-width:4.16667;stroke-linecap:butt;stroke-linejoin:miter;stroke-miterlimit:10;stroke-dasharray:none;stroke-opacity:1"
             id="path118" /><path
             d="M 500,914.039 H 479.168"
             style="fill:none;stroke:#afafaf;stroke-width:4.16667;stroke-linecap:butt;stroke-linejoin:miter;stroke-miterlimit:10;stroke-dasharray:none;stroke-opacity:1"
             id="path120" /><path
             d="M 500,881.66 H 479.168"
             style="fill:none;stroke:#afafaf;stroke-width:4.16667;stroke-linecap:butt;stroke-linejoin:miter;stroke-miterlimit:10;stroke-dasharray:none;stroke-opacity:1"
             id="path122" /><path
             d="M 500,853.098 H 479.168"
             style="fill:none;stroke:#afafaf;stroke-width:4.16667;stroke-linecap:butt;stroke-linejoin:miter;stroke-miterlimit:10;stroke-dasharray:none;stroke-opacity:1"
             id="path124" /><g
             id="g126"
             transform="scale(4.16667)"><text
               transform="matrix(0,-1,-1,0,94.0003,219.684)"
               style="font-variant:normal;font-weight:normal;font-size:14px;font-family:Menlo;-inkscape-font-specification:Menlo-Regular;writing-mode:lr-tb;fill:#afafaf;fill-opacity:1;fill-rule:nonzero;stroke:none"
               id="text130"><tspan
                 x="0 8.4280005 16.856001 25.283415 33.711414"
                 y="0"
                 id="tspan128">10KHz</tspan></text></g><path
             d="M 500,827.551 H 458.332"
             style="fill:none;stroke:#afafaf;stroke-width:4.16667;stroke-linecap:butt;stroke-linejoin:miter;stroke-miterlimit:10;stroke-dasharray:none;stroke-opacity:1"
             id="path132" /><path
             d="M 500,659.477 H 479.168"
             style="fill:none;stroke:#afafaf;stroke-width:4.16667;stroke-linecap:butt;stroke-linejoin:miter;stroke-miterlimit:10;stroke-dasharray:none;stroke-opacity:1"
             id="path134" /><path
             d="M 500,561.156 H 479.168"
             style="fill:none;stroke:#afafaf;stroke-width:4.16667;stroke-linecap:butt;stroke-linejoin:miter;stroke-miterlimit:10;stroke-dasharray:none;stroke-opacity:1"
             id="path136" /><g
             id="g138"
             transform="scale(4.16667)"><text
               transform="matrix(0,-1,-1,0,114,753.042)"
               style="font-variant:normal;font-weight:normal;font-size:14px;font-family:Menlo;-inkscape-font-specification:Menlo-Regular;writing-mode:lr-tb;fill:#afafaf;fill-opacity:1;fill-rule:nonzero;stroke:none"
               id="text142"><tspan
                 x="0 -8.42906"
                 y="0"
                 id="tspan140">V0</tspan></text></g><path
             d="m 500,3060.89 v 41.67"
             style="fill:none;stroke:#afafaf;stroke-width:4.16667;stroke-linecap:butt;stroke-linejoin:miter;stroke-miterlimit:10;stroke-dasharray:none;stroke-opacity:1"
             id="path144" /><g
             id="g146"
             transform="scale(4.16667)"><text
               transform="matrix(0,-1,-1,0,147.182,753.042)"
               style="font-variant:normal;font-weight:normal;font-size:14px;font-family:Menlo;-inkscape-font-specification:Menlo-Regular;writing-mode:lr-tb;fill:#afafaf;fill-opacity:1;fill-rule:nonzero;stroke:none"
               id="text150"><tspan
                 x="0 -8.42906"
                 y="0"
                 id="tspan148">V8</tspan></text></g><path
             d="m 638.258,3060.89 v 41.67"
             style="fill:none;stroke:#afafaf;stroke-width:4.16667;stroke-linecap:butt;stroke-linejoin:miter;stroke-miterlimit:10;stroke-dasharray:none;stroke-opacity:1"
             id="path152" /><g
             id="g154"
             transform="scale(4.16667)"><text
               transform="matrix(0,-1,-1,0,180.364,753.042)"
               style="font-variant:normal;font-weight:normal;font-size:14px;font-family:Menlo;-inkscape-font-specification:Menlo-Regular;writing-mode:lr-tb;fill:#afafaf;fill-opacity:1;fill-rule:nonzero;stroke:none"
               id="text158"><tspan
                 x="0 -8.42906 -16.85812"
                 y="0"
                 id="tspan156">V61</tspan></text></g><path
             d="m 776.516,3060.89 v 41.67"
             style="fill:none;stroke:#afafaf;stroke-width:4.16667;stroke-linecap:butt;stroke-linejoin:miter;stroke-miterlimit:10;stroke-dasharray:none;stroke-opacity:1"
             id="path160" /><g
             id="g162"
             transform="scale(4.16667)"><text
               transform="matrix(0,-1,-1,0,213.546,753.042)"
               style="font-variant:normal;font-weight:normal;font-size:14px;font-family:Menlo;-inkscape-font-specification:Menlo-Regular;writing-mode:lr-tb;fill:#afafaf;fill-opacity:1;fill-rule:nonzero;stroke:none"
               id="text166"><tspan
                 x="0 -8.42906 -16.85812"
                 y="0"
                 id="tspan164">V42</tspan></text></g><path
             d="m 914.773,3060.89 v 41.67"
             style="fill:none;stroke:#afafaf;stroke-width:4.16667;stroke-linecap:butt;stroke-linejoin:miter;stroke-miterlimit:10;stroke-dasharray:none;stroke-opacity:1"
             id="path168" /><g
             id="g170"
             transform="scale(4.16667)"><text
               transform="matrix(0,-1,-1,0,246.727,753.042)"
               style="font-variant:normal;font-weight:normal;font-size:14px;font-family:Menlo;-inkscape-font-specification:Menlo-Regular;writing-mode:lr-tb;fill:#afafaf;fill-opacity:1;fill-rule:nonzero;stroke:none"
               id="text174"><tspan
                 x="0 -8.42906 -16.85812"
                 y="0"
                 id="tspan172">V23</tspan></text></g><path
             d="m 1053.03,3060.89 v 41.67"
             style="fill:none;stroke:#afafaf;stroke-width:4.16667;stroke-linecap:butt;stroke-linejoin:miter;stroke-miterlimit:10;stroke-dasharray:none;stroke-opacity:1"
             id="path176" /><g
             id="g178"
             transform="scale(4.16667)"><text
               transform="matrix(0,-1,-1,0,279.909,753.042)"
               style="font-variant:normal;font-weight:normal;font-size:14px;font-family:Menlo;-inkscape-font-specification:Menlo-Regular;writing-mode:lr-tb;fill:#afafaf;fill-opacity:1;fill-rule:nonzero;stroke:none"
               id="text182"><tspan
                 x="0 -8.42906 -16.85812"
                 y="0"
                 id="tspan180">V04</tspan></text></g><path
             d="m 1191.29,3060.89 v 41.67"
             style="fill:none;stroke:#afafaf;stroke-width:4.16667;stroke-linecap:butt;stroke-linejoin:miter;stroke-miterlimit:10;stroke-dasharray:none;stroke-opacity:1"
             id="path184" /><g
             id="g186"
             transform="scale(4.16667)"><text
               transform="matrix(0,-1,-1,0,313.091,753.042)"
               style="font-variant:normal;font-weight:normal;font-size:14px;font-family:Menlo;-inkscape-font-specification:Menlo-Regular;writing-mode:lr-tb;fill:#afafaf;fill-opacity:1;fill-rule:nonzero;stroke:none"
               id="text190"><tspan
                 x="0 -8.42906 -16.85812"
                 y="0"
                 id="tspan188">V84</tspan></text></g><path
             d="m 1329.55,3060.89 v 41.67"
             style="fill:none;stroke:#afafaf;stroke-width:4.16667;stroke-linecap:butt;stroke-linejoin:miter;stroke-miterlimit:10;stroke-dasharray:none;stroke-opacity:1"
             id="path192" /><g
             id="g194"
             transform="scale(4.16667)"><text
               transform="matrix(0,-1,-1,0,346.273,753.042)"
               style="font-variant:normal;font-weight:normal;font-size:14px;font-family:Menlo;-inkscape-font-specification:Menlo-Regular;writing-mode:lr-tb;fill:#afafaf;fill-opacity:1;fill-rule:nonzero;stroke:none"
               id="text198"><tspan
                 x="0 -8.42906 -16.85812"
                 y="0"
                 id="tspan196">V65</tspan></text></g><path
             d="m 1467.8,3060.89 v 41.67"
             style="fill:none;stroke:#afafaf;stroke-width:4.16667;stroke-linecap:butt;stroke-linejoin:miter;stroke-miterlimit:10;stroke-dasharray:none;stroke-opacity:1"
             id="path200" /><g
             id="g202"
             transform="scale(4.16667)"><text
               transform="matrix(0,-1,-1,0,379.454,753.042)"
               style="font-variant:normal;font-weight:normal;font-size:14px;font-family:Menlo;-inkscape-font-specification:Menlo-Regular;writing-mode:lr-tb;fill:#afafaf;fill-opacity:1;fill-rule:nonzero;stroke:none"
               id="text206"><tspan
                 x="0 -8.42906 -16.85812"
                 y="0"
                 id="tspan204">V46</tspan></text></g><path
             d="m 1606.06,3060.89 v 41.67"
             style="fill:none;stroke:#afafaf;stroke-width:4.16667;stroke-linecap:butt;stroke-linejoin:miter;stroke-miterlimit:10;stroke-dasharray:none;stroke-opacity:1"
             id="path208" /><g
             id="g210"
             transform="scale(4.16667)"><text
               transform="matrix(0,-1,-1,0,412.637,753.042)"
               style="font-variant:normal;font-weight:normal;font-size:14px;font-family:Menlo;-inkscape-font-specification:Menlo-Regular;writing-mode:lr-tb;fill:#afafaf;fill-opacity:1;fill-rule:nonzero;stroke:none"
               id="text214"><tspan
                 x="0 -8.42906 -16.85812"
                 y="0"
                 id="tspan212">V27</tspan></text></g><path
             d="m 1744.32,3060.89 v 41.67"
             style="fill:none;stroke:#afafaf;stroke-width:4.16667;stroke-linecap:butt;stroke-linejoin:miter;stroke-miterlimit:10;stroke-dasharray:none;stroke-opacity:1"
             id="path216" /><g
             id="g218"
             transform="scale(4.16667)"><text
               transform="matrix(0,-1,-1,0,445.818,753.042)"
               style="font-variant:normal;font-weight:normal;font-size:14px;font-family:Menlo;-inkscape-font-specification:Menlo-Regular;writing-mode:lr-tb;fill:#afafaf;fill-opacity:1;fill-rule:nonzero;stroke:none"
               id="text222"><tspan
                 x="0 -8.42906 -16.85812"
                 y="0"
                 id="tspan220">V08</tspan></text></g><path
             d="m 1882.57,3060.89 v 41.67"
             style="fill:none;stroke:#afafaf;stroke-width:4.16667;stroke-linecap:butt;stroke-linejoin:miter;stroke-miterlimit:10;stroke-dasharray:none;stroke-opacity:1"
             id="path224" /><g
             id="g226"
             transform="scale(4.16667)"><text
               transform="matrix(0,-1,-1,0,479,753.042)"
               style="font-variant:normal;font-weight:normal;font-size:14px;font-family:Menlo;-inkscape-font-specification:Menlo-Regular;writing-mode:lr-tb;fill:#afafaf;fill-opacity:1;fill-rule:nonzero;stroke:none"
               id="text230"><tspan
                 x="0 -8.42906 -16.85812"
                 y="0"
                 id="tspan228">V88</tspan></text></g><path
             d="m 2020.83,3060.89 v 41.67"
             style="fill:none;stroke:#afafaf;stroke-width:4.16667;stroke-linecap:butt;stroke-linejoin:miter;stroke-miterlimit:10;stroke-dasharray:none;stroke-opacity:1"
             id="path232" /><path
             d="m 500,539.766 h 1520.83 v 2521.13 H 500 Z"
             style="fill:none;stroke:#afafaf;stroke-width:4.16667;stroke-linecap:butt;stroke-linejoin:miter;stroke-miterlimit:10;stroke-dasharray:none;stroke-opacity:1"
             id="path234" /><g
             id="g236"
             transform="scale(4.16667)"><text
               transform="matrix(0,-1,-1,0,489,461.615)"
               style="font-variant:normal;font-weight:normal;font-size:14px;font-family:Menlo;-inkscape-font-specification:Menlo-Regular;writing-mode:lr-tb;fill:#0eff00;fill-opacity:1;fill-rule:nonzero;stroke:none"
               id="text240"><tspan
                 x="0 8.4280005 16.856001 25.283415 33.711414 42.138828 50.56683"
                 y="0"
                 id="tspan238">V(vout)</tspan></text></g></g></g><g
         id="g242"><g
           id="g244"
           clip-path="url(#clipPath248)"><path
             d="m 500.023,3060.89 v 0 l 0.004,-23.11 v -40.51 l 0.004,-17.97 v -16.73 -15.64 -14.71 l 0.004,-13.86 v -13.11 -12.43 -23.12 -21.09 -19.41 l -0.004,-17.97 v -16.73 l 0.008,-19.41 0.012,-17.97 0.008,-16.73 0.007,-15.65 -0.011,-19.41 -0.008,-17.97 -0.012,-16.73 0.012,-23.11 0.012,-21.1 -0.016,-19.41 -0.016,-17.97 0.032,-32.38 -0.012,-28.55 -0.004,-25.56 -0.035,-23.1 v -21.1 l 0.015,-19.41 0.024,-17.97 0.004,-16.73 -0.012,-15.65 0.016,-14.7 -0.016,-13.86 -0.012,-13.11 0.168,-12.44 -0.183,-11.83 0.004,-11.28 0.054,-10.78 0.032,-10.32 0.003,-9.9 -0.007,-9.51 0.011,-9.15 -0.007,-8.82 -0.075,-8.51 0.153,-8.22 -0.121,-7.95 0.031,-7.7 -0.008,-7.46 -0.004,-7.24 -0.019,-7.02 0.035,-6.84 -0.028,-6.64 0.028,-6.47 -0.047,-6.3 0.098,-6.13 -0.075,-5.99 v -5.85 l 0.055,-5.7 -0.094,-5.58 0.055,-5.45 -0.012,-5.32 0.063,-5.22 -0.055,-5.1 -0.016,-5 -0.062,-4.9 0.019,-4.8 -0.011,-4.71 0.004,-4.62 0.027,-4.53 -0.008,-4.45 -0.012,-4.37 0.008,-4.3 -0.015,-4.21 0.023,-4.15 -0.008,-4.07 0.035,-4.01 -0.035,-3.94 0.121,-3.88 -0.086,-3.82 0.008,-3.76 0.004,-3.7 v -3.65 l -0.004,-3.59 -0.031,-3.54 0.004,-3.49 -0.031,-3.44 0.058,-3.39 -0.027,-3.35 0.012,-3.3 v -3.25 l -0.004,-3.21 0.015,-3.17 -0.015,-3.13 -0.028,-3.09 0.004,-3.05 -0.008,-3.01 v -2.98 l 0.071,-2.94 -0.039,-2.9 0.008,-2.87 0.007,-2.84 0.004,-2.8 0.137,-2.77 -0.109,-2.74 0.019,-2.71 -0.035,-2.68 0.012,-2.65 -0.004,-2.62 0.008,-2.59 -0.016,-2.57 -0.047,-2.54 0.074,-2.51 -0.039,-2.49 -0.058,-2.46 -0.004,-2.44 0.074,-2.41 -0.059,-2.39 0.137,-2.37 -0.094,-2.34 -0.05,-2.32 0.011,-2.3 0.039,-2.27 0.059,-2.26 -0.016,-2.24 -0.039,-2.21 0.074,-2.19 -0.039,-2.18 0.004,-2.15 -0.031,-2.14 -0.004,-2.12 -0.031,-2.1 0.016,-2.08 -0.004,-2.06 -0.004,-2.05 -0.047,-2.03 0.008,-2.01 0.011,-2 0.086,-1.98 -0.086,-1.96 0.016,-1.95 -0.035,-1.93 0.039,-1.91 0.023,-1.91 -0.039,-1.88 0.082,-1.88 -0.004,-1.85 -0.046,-1.85 v -1.83 l -0.043,-1.82 0.043,-1.8 -0.012,-1.79 -0.008,-1.77 -0.008,-1.77 0.098,-1.75 -0.082,-1.74 0.031,-1.72 -0.062,-1.71 0.019,-1.71 0.008,-1.69 0.008,-1.67 -0.024,-1.67 v -1.66 l -0.004,-1.64 0.043,-1.64 0.055,-1.62 0.023,-1.61 -0.093,-1.6 0.008,-1.59 0.011,-1.58 0.055,-1.57 0.016,-1.56 -0.04,-1.55 -0.027,-1.54 0.078,-1.53 -0.125,-1.52 0.071,-1.51 -0.063,-1.5 0.008,-1.49 -0.016,-1.48 0.016,-1.48 -0.02,-1.46 0.043,-1.46 0.004,-1.45 -0.062,-1.44 0.105,-1.43 0.051,-1.42 -0.113,-1.41 0.027,-1.41 v -1.4 l -0.016,-1.39 0.122,-2.75 -0.133,-2.73 0.008,-2.69 -0.051,-2.66 -0.004,-2.64 0.015,-2.61 0.004,-2.58 0.039,-2.55 -0.019,-2.52 -0.027,-2.5 0.062,-2.48 -0.019,-2.45 0.031,-2.42 -0.035,-2.4 -0.032,-2.38 0.036,-2.36 -0.012,-2.33 -0.02,-2.31 0.028,-2.28 -0.016,-2.27 0.055,-2.25 -0.039,-2.22 -0.024,-2.21 0.106,-2.18 -0.071,-2.16 -0.019,-2.15 0.047,-2.13 -0.043,-2.11 0.015,-2.09 -0.015,-2.07 -0.012,-2.06 0.035,-2.03 -0.07,-2.02 0.152,-2 -0.082,-1.99 0.02,-1.98 -0.004,-1.95 -0.031,-1.94 -0.059,-1.93 0.031,-1.91 0.02,-1.89 -0.012,-1.88 0.02,-1.86 0.05,-1.85 -0.058,-1.84 0.008,-1.82 0.027,-1.81 -0.051,-1.8 0.016,-1.78 -0.028,-1.77 0.016,-1.76 0.008,-1.74 0.031,-1.74 0.031,-1.72 -0.043,-1.7 0.063,-1.7 0.043,-1.68 -0.133,-1.68 -0.004,-1.66 0.02,-1.65 -0.047,-1.63 0.047,-1.63 0.078,-1.62 0.015,-1.61 v -1.59 l 0.024,-1.59 0.086,-1.57 -0.141,-1.56 -0.094,-1.56 0.02,-1.54 0.019,-1.54 -0.031,-1.52 0.016,-1.52 0.027,-1.51 -0.058,-1.49 0.039,-1.49 0.074,-1.48 -0.031,-1.47 -0.012,-1.46 -0.067,-1.45 0.11,-1.44 -0.082,-1.44 -0.012,-1.42 v -1.42 l -0.012,-1.41 0.071,-1.4 -0.051,-1.4 0.082,-2.07 -0.07,-2.06 -0.02,-2.04 0.043,-2.02 -0.039,-2.01 0.016,-1.99 0.027,-1.98 0.133,-1.95 -0.035,-1.95 -0.133,-1.92 0.051,-1.92 -0.055,-1.89 0.016,-1.88 0.019,-1.87 -0.012,-1.86 0.051,-1.84 -0.012,-1.82 -0.027,-1.81 0.047,-1.8 -0.113,-1.78 0.047,-1.78 0.011,-1.76 -0.031,-1.74 0.035,-1.74 -0.004,-1.72 -0.023,-1.71 -0.016,-1.69 0.012,-1.69 0.058,-1.68 -0.062,-1.66 1385.427,-0.55 -1385.431,-0.55 0.004,-1.64 -0.035,-1.64 0.023,-1.62 0.016,-1.61 0.051,-1.6 -0.032,-1.59 -0.011,-1.58 0.031,-1.57 0.027,-1.56 -0.054,-1.55 -0.012,-1.54 0.027,-1.53 0.028,-1.52 0.011,-1.51 0.028,-1.5 -0.121,-1.49 0.046,-1.48 -0.031,-1.48 0.067,-1.47 -0.086,-1.45 0.113,-1.45 0.094,-1.44 -0.192,-1.43 -0.004,-1.42 0.008,-1.42 -0.019,-1.4 -0.004,-1.4 0.039,-1.39 0.012,-1.84 -0.012,-1.83 0.035,-1.81 -0.027,-1.8 -0.032,-1.78 0.086,-1.78 0.028,-1.76 -0.028,-1.74 -0.078,-1.74 0.043,-1.72 0.051,-1.71 0.008,-1.7 -0.043,-1.69 -0.067,-1.68 -0.011,-1.66 0.011,-1.65 0.028,-1.64 -0.008,-1.63 0.016,-1.62 0.015,-1.61 -0.035,-1.6 v -1.59 l 0.098,-1.57 -0.078,-1.57 v -1.56 l -0.02,-1.54 0.055,-1.54 0.031,-1.53 -0.106,-1.52 0.008,-1.51 0.004,-1.49 0.024,-1.49 0.019,-1.48 -0.039,-1.48 -0.008,-1.46 0.055,-1.45 v -1.45 l -0.082,-1.43 0.047,-1.43 0.023,-1.42 -0.004,-1.42 0.004,-1.4 0.004,-1.4 0.145,-1.73 -0.184,-1.72 -0.004,-1.71 0.031,-1.7 -0.035,-1.68 0.024,-1.67 -0.032,-1.66 0.008,-1.66 -0.015,-1.63 0.148,-1.63 -0.137,-1.62 0.032,-1.61 -0.004,-1.59 0.113,-1.59 -0.051,-1.58 -0.012,-1.56 -0.089,-1.56 0.039,-1.54 0.039,-1.54 -0.02,-1.52 -0.039,-1.52 0.012,-1.51 0.199,-1.5 -0.129,-1.49 0.028,-1.47 -0.071,-1.47 -0.031,-1.47 0.086,-1.45 0.039,-1.44 -0.121,-1.44 0.051,-1.43 -0.059,-1.42 -0.008,-1.41 0.016,-1.4 0.004,-1.39 -0.016,-1.67 132.578,-0.55 -132.547,-0.27 v -1.65 l 0.004,-1.63 0.008,-1.63 -0.031,-1.61 -0.016,-1.6 0.043,-1.59 -0.011,-1.58 0.023,-1.57 -0.008,-1.57 0.004,-1.55 0.133,-1.54 -0.172,-1.53 0.008,-1.52 -0.012,-1.52 0.027,-1.5 0.047,-1.49 0.035,-1.49 -0.097,-1.47 0.027,-1.47 -0.043,-1.46 0.047,-1.44 0.117,-1.45 -0.066,-1.43 -0.035,-1.42 -0.043,-1.42 0.039,-1.4 -0.082,-1.4 0.047,-1.39 -0.032,-1.61 0.047,-1.61 0.016,-1.59 0.015,-1.58 0.012,-1.57 -0.047,-1.56 0.004,-1.56 -0.027,-1.53 0.023,-1.54 -0.043,-1.52 0.004,-1.51 0.004,-1.5 0.031,-1.5 -0.031,-1.48 -0.015,-1.47 0.109,-1.47 -0.113,-1.46 -0.016,-1.45 0.031,-1.44 0.024,-1.43 0.019,-1.42 -0.031,-1.42 0.027,-1.41 0.024,-1.39 -0.016,-1.39 0.031,-1.58 -0.078,-1.57 0.039,-1.56 0.012,-1.55 v -1.54 l -0.047,-1.53 0.098,-1.52 -0.07,-1.51 -0.028,-1.5 v -1.5 l 0.016,-1.48 143.414,-1.47 -143.422,-0.19 0.008,-1.46 0.008,-1.46 0.019,-1.44 0.016,-1.44 -0.043,-1.43 -0.024,-1.42 0.008,-1.41 0.004,-1.41 -0.008,-1.4 0.004,-1.56 -0.015,-1.55 0.003,-1.54 -0.019,-1.53 0.027,-1.53 0.035,-1.51 -0.003,-1.5 -0.032,-1.5 -0.004,-1.48 0.008,-1.48 0.004,-1.46 -0.027,-1.46 0.039,-1.45"
             style="fill:none;stroke:#0eff00;stroke-width:4.16667;stroke-linecap:butt;stroke-linejoin:miter;stroke-miterlimit:1;stroke-dasharray:none;stroke-opacity:1"
             id="path250" /><path
             d="m 500.051,1285.96 v 0 l -0.02,-1.44 0.047,-1.44 -0.066,-1.42 -0.008,-1.42 0.019,-1.4 0.008,-1.4 0.028,-1.39 0.062,-1.54 -0.09,-1.53 -0.004,-1.52 0.016,-1.5 0.059,-1.5 -0.036,-1.49 v -1.48 l -0.035,-1.47 v -1.47 l -0.004,-1.45 0.024,-1.44 0.09,-1.44 -0.071,-1.43 -0.004,-1.42 -0.035,-1.41 v -1.4 l 0.008,-1.4 0.008,-1.52 20.812,-0.83 -20.82,-0.14 0.012,-1.51 -0.035,-1.5 0.035,-1.49 0.023,-1.48 -0.043,-1.48 0.102,-1.46 -0.09,-1.46 -0.027,-1.44 -0.004,-1.44 0.051,-1.43 -0.043,-1.43 0.074,-1.41 -0.051,-1.4 -0.016,-1.4 -0.019,-1.51 0.051,-1.51 -0.039,-1.5 v -1.48 -1.48 l 0.015,-1.47 -0.023,-1.46 0.004,-1.45 0.035,-1.44 v -1.43 l 0.015,-1.43 -0.054,-1.42 0.039,-1.41 -0.028,-1.4 -0.015,-1.39 0.023,-1.5 0.02,-1.49 -0.02,-1.48 -0.008,-1.48 0.012,-1.46 v -1.45 l -0.015,-1.45 -0.012,-1.44 4.058,-0.11 -4.058,-0.11 0.008,-1.43 -0.004,-1.42 0.027,-1.41 -0.023,-1.4 -0.008,-1.4 0.027,-1.49 0.031,-1.49 -0.05,-1.47 -0.004,-1.47 0.039,-1.45 -0.035,-1.45 -0.016,-1.44 0.082,-1.43 -0.059,-1.43 V 1173 l -0.015,-1.41 0.027,-1.4 -0.019,-1.39 0.047,-1.48 -0.043,-1.48 v -1.46 l -0.008,-1.45 0.039,-1.45 -0.043,-1.44 0.019,-1.42 -0.004,-1.42 0.028,-1.42 0.043,-1.4 -0.082,-1.4 0.011,-1.48 4.77,-1.01 -4.766,-0.09 0.02,-1.47 0.004,-1.45 -0.028,-1.45 -0.015,-1.44 0.008,-1.43 0.019,-1.42 v -1.41 l 0.012,-1.41 -0.024,-1.4 0.012,-1.38 0.016,-1.47 -0.008,-1.46 -0.016,-1.45 0.004,-1.44 -0.004,-1.43 0.059,-1.43 -0.066,-1.41 -0.012,-1.41 0.051,-1.4 -0.012,-1.39 -0.016,-1.47 -0.008,-1.45 0.016,-1.45 -0.016,-1.44 -0.007,-1.43 v -1.42 l 1.781,-0.08 -1.781,-0.08 0.011,-1.41 -0.019,-1.41 0.031,-1.39 -0.031,-1.46 -0.004,-1.46 0.004,-1.45 0.035,-1.44 -0.031,-1.43 0.008,-1.42 -0.008,-1.41 0.023,-1.41 -0.015,-1.4 -0.012,-1.39 v -1.45 -1.45 l 0.004,-1.44 0.004,-1.42 -0.012,-1.42 v -1.42 l 0.008,-1.4 v -1.39 -1.46 l 2.234,-0.97 -2.238,-0.07 v -1.44 l 0.008,-1.43 0.004,-1.43 -0.016,-1.41 0.004,-1.41 -0.004,-1.4 0.004,-1.39 -0.004,-1.45 v -1.44 l 0.004,-1.44 0.004,-1.42 -0.004,-1.42 v -1.41 -1.4 l 0.008,-1.39 -0.008,-1.45 -0.004,-1.43 0.019,-1.43 0.016,-1.42 -0.039,-1.42 0.02,-1.4 -0.008,-1.4 0.008,-1.45 0.003,-1.44 -0.011,-1.43 -0.004,-1.42 -0.004,-1.42 0.008,-1.4 -0.012,-1.4 0.008,-1.39 0.015,-1.44 -0.019,-1.43 0.004,-1.43 0.004,-1.41 -0.004,-1.41 -0.004,-1.4 v -1.39 l 0.004,-1.44 0.015,-1.43 -0.011,-1.42 -0.008,-1.41 0.004,-1.4 0.004,-1.4 0.004,-1.44 -0.004,-1.43 v -1.43 -1.41 l -0.004,-1.41 v -1.4 l 0.008,-1.4 -0.004,-1.43 0.035,-1.43 -0.027,-1.41 -0.012,-1.41 -0.004,-1.41 0.008,-1.39 v -1.434 l -0.004,-1.43 0.008,-1.418 -0.008,-1.41 v -1.402 l -0.004,-1.395 0.016,-1.433 -0.016,-1.426 0.051,-1.414 -0.039,-1.41 v -1.399 l -0.008,-1.394 0.004,-1.43 0.011,-1.422 -0.007,-1.414 0.004,-1.406 -0.004,-1.399 v -1.39 l -0.008,-1.426 0.004,-1.418 v -1.406 l 0.004,-1.403 0.007,-1.394 -0.019,-1.43 0.027,-1.418 -0.004,-1.414 -0.015,-1.402 0.039,-1.395 -0.02,-1.429 -0.004,-1.422 -0.019,-1.414 v -1.403 -1.398 -1.43 l 0.019,-1.422 -0.004,-1.41 -0.007,-1.406 -0.008,-1.395 0.027,-1.429 -0.027,-1.418 0.047,-1.414 -0.039,-1.403 -0.004,-1.394 0.004,-1.426 -0.008,-1.418 0.008,-1.406 0.043,-1.403 -0.059,-1.394 0.008,-1.422 0.074,-1.414 -0.062,-1.402 -0.004,-1.399 0.011,-1.39 -0.011,-1.418 v -1.411 -1.402 l 0.011,-1.391 -0.004,-1.421 0.004,-1.414 -0.007,-1.403 v -1.398 l 0.003,-1.422 0.004,-1.414 -0.023,-1.406 0.035,-1.399 -0.016,-1.39 -0.015,-1.418 -0.004,-1.407 0.008,-1.398 0.011,-1.395 -0.019,-1.414 0.027,-1.41 -0.011,-1.402 v -1.391 l -0.016,-1.414 0.004,-1.41 -0.008,-1.399 0.027,-1.394 -0.015,-1.414 -0.008,-1.406 -0.004,-1.399 0.008,-1.39 -0.004,-1.414 0.008,-1.407 -0.004,-1.398 0.027,-1.391 -0.015,-1.41 -0.012,-1.402 0.004,-1.395 0.004,-1.418 -0.008,-1.41 0.004,-1.398 0.008,-1.391 -0.012,-1.414 v -1.406 -1.395 -1.418 l 0.004,-1.41 v -1.398 l 0.023,-1.395 -0.031,-1.41 0.012,-1.406 v -1.395 l -0.004,-1.418 -0.004,-1.406 0.008,-1.399 -0.012,-1.39 0.004,-1.41 0.031,-1.399 -0.035,-1.394 0.012,-1.41 -0.012,-1.407 0.004,-1.394 -0.008,-1.41 0.004,-1.407 -0.004,-1.394 0.016,-1.414 -0.016,-1.406 v -1.399 l 0.004,-1.387 v -1.406 l 0.008,-1.398 -0.008,-1.391 v -1.406 l 0.004,-1.399 -0.004,-1.39 v -1.407 -1.394 l 0.004,-1.391 0.004,-1.406 -0.008,-1.398 v -1.387 -1.406 -1.395 -1.41 -1.402 -1.395 l 0.004,-1.41 0.004,-1.398 -0.008,-1.395 v -1.406 l 0.004,-1.399 0.004,-1.39 -0.004,-1.403 v -1.398 l -0.004,-1.41 0.004,-1.399 -0.004,-1.394 -0.004,-1.406 0.004,-1.399 v -1.391 l 0.004,-1.402 -0.004,-1.394 -0.004,-1.407 0.004,-1.398 v -1.391 -1.402 L 500,779.234 500.008,777.828 500,776.43 v -1.391 l 0.004,-1.402 v -1.395 L 500,770.84 l 0.008,-1.399 -0.004,-1.39 v -1.399 -1.39 l -0.004,-1.403 0.004,-1.394 0.004,-1.406 -0.004,-1.399 v -1.406 -1.399 l 0.004,-1.39 -0.004,-1.402 v -1.391 -1.402 -1.395 -1.406 -1.395 l 0.008,-1.406 -0.008,-1.395 -0.004,-1.39 0.004,-1.399 v -1.39 -1.399 L 500,737.305 v -1.403 -1.39 l 0.004,-1.399 -0.004,-1.394 v -1.399 l 0.004,-1.394 v -1.399 -1.394 L 500,724.734 v -1.394 -1.399 -1.394 -1.399 l 0.004,-1.39 v -1.399 -1.39 -1.399 l -0.004,-1.39 0.004,-1.399 v -1.39 L 500,707.996 v -1.402 -1.395 l 0.004,-1.402 -0.004,-1.395 v -1.398 l 0.004,-1.391 v -1.398 L 500,696.824 v -1.394 -1.403 -1.394 l 0.004,-1.403 -0.004,-1.39 v -1.399 -1.386 -1.399 l 0.004,-1.398 -0.004,-1.395 0.004,-1.398 -0.004,-1.387 v -1.394 -1.403 -1.39 -1.399 -1.39 -1.391 -1.398 -1.391 -1.399 -1.398 -1.391 -1.394 -1.402 -1.391 -1.399 -1.398 -1.395 -1.394 -1.402 -1.391 -1.398 -1.399 -1.391 -1.394 -1.398 -1.391 -1.395 -1.398 -1.387 -1.394 -1.395 -1.398 -1.391 -1.394 -1.395 -1.398 -1.391 -1.395 -1.394 -1.399 -1.39 -1.395 -1.394 -1.399 -1.39 -1.391 -1.394 -1.395 -1.398 -1.391 -1.391 -1.394 -1.395 -1.398 -1.391 -1.39 -1.391 -1.395 -1.394 -1.399 -1.398 -1.391 -1.39 -1.391 -1.394 -1.395 -1.394 -1.399 -1.398 -1.387 -1.391 -1.39 -1.395 -1.39 -1.395 -1.395"
             style="fill:none;stroke:#0eff00;stroke-width:4.16667;stroke-linecap:butt;stroke-linejoin:miter;stroke-miterlimit:1;stroke-dasharray:none;stroke-opacity:1"
             id="path252" /><path
             d="m 500,574.105 v 0 -33.488"
             style="fill:none;stroke:#0eff00;stroke-width:4.16667;stroke-linecap:butt;stroke-linejoin:miter;stroke-miterlimit:1;stroke-dasharray:none;stroke-opacity:1"
             id="path254" /></g></g></g></g></svg>
