<?xml version="1.0" encoding="UTF-8" standalone="no"?>
<svg
   xmlns:dc="http://purl.org/dc/elements/1.1/"
   xmlns:cc="http://creativecommons.org/ns#"
   xmlns:rdf="http://www.w3.org/1999/02/22-rdf-syntax-ns#"
   xmlns:svg="http://www.w3.org/2000/svg"
   xmlns="http://www.w3.org/2000/svg"
   version="1.1"
   id="svg10"
   xml:space="preserve"
   width="618.1449"
   height="361.33768"
   viewBox="0 0 927.21733 542.00654"><metadata
     id="metadata16"><rdf:RDF><cc:Work
         rdf:about=""><dc:format>image/svg+xml</dc:format><dc:type
           rdf:resource="http://purl.org/dc/dcmitype/StillImage" /><dc:title></dc:title></cc:Work></rdf:RDF></metadata><defs
     id="defs14"><clipPath
       clipPathUnits="userSpaceOnUse"
       id="clipPath28"><path
         d="m 375,299.582 h 1729.17 v 2908.34 H 375 Z"
         id="path26" /></clipPath><clipPath
       clipPathUnits="userSpaceOnUse"
       id="clipPath202"><path
         d="m 500,370.418 h 720.832 v 2620.83 H 500 Z"
         id="path200" /></clipPath><clipPath
       clipPathUnits="userSpaceOnUse"
       id="clipPath212"><path
         d="m 375,299.582 h 1729.17 v 2908.34 H 375 Z"
         id="path210" /></clipPath><clipPath
       clipPathUnits="userSpaceOnUse"
       id="clipPath226"><path
         d="m 1300,370.418 h 720.832 v 2620.83 H 1300 Z"
         id="path224" /></clipPath></defs><g
     id="g18"
     transform="matrix(0,-1.3333333,-1.3333333,0,1025.6049,667.07604)"><g
       id="g20"
       transform="scale(0.24)"><g
         id="g22"><g
           id="g24"
           clip-path="url(#clipPath28)"><path
             d="M 500,2990.65 H 458.332"
             style="fill:none;stroke:#969696;stroke-width:4.16667;stroke-linecap:butt;stroke-linejoin:miter;stroke-miterlimit:10;stroke-dasharray:none;stroke-opacity:1"
             id="path30" /><g
             id="g32"
             transform="scale(4.16667)"><text
               transform="matrix(0,-1,-1,0,94.0003,730.4)"
               style="font-variant:normal;font-weight:normal;font-size:14px;font-family:Menlo;-inkscape-font-specification:Menlo-Regular;writing-mode:lr-tb;fill:#969696;fill-opacity:1;fill-rule:nonzero;stroke:none"
               id="text36"><tspan
                 x="0 8.4280005 16.855413"
                 y="0"
                 id="tspan34">0ms</tspan></text></g><path
             d="M 500,2728.78 H 458.332"
             style="fill:none;stroke:#969696;stroke-width:4.16667;stroke-linecap:butt;stroke-linejoin:miter;stroke-miterlimit:10;stroke-dasharray:none;stroke-opacity:1"
             id="path38" /><g
             id="g40"
             transform="scale(4.16667)"><text
               transform="matrix(0,-1,-1,0,94.0003,667.55)"
               style="font-variant:normal;font-weight:normal;font-size:14px;font-family:Menlo;-inkscape-font-specification:Menlo-Regular;writing-mode:lr-tb;fill:#969696;fill-opacity:1;fill-rule:nonzero;stroke:none"
               id="text44"><tspan
                 x="0 8.4280005 16.855413"
                 y="0"
                 id="tspan42">1ms</tspan></text></g><path
             d="M 500,2466.9 H 458.332"
             style="fill:none;stroke:#969696;stroke-width:4.16667;stroke-linecap:butt;stroke-linejoin:miter;stroke-miterlimit:10;stroke-dasharray:none;stroke-opacity:1"
             id="path46" /><g
             id="g48"
             transform="scale(4.16667)"><text
               transform="matrix(0,-1,-1,0,94.0003,604.7)"
               style="font-variant:normal;font-weight:normal;font-size:14px;font-family:Menlo;-inkscape-font-specification:Menlo-Regular;writing-mode:lr-tb;fill:#969696;fill-opacity:1;fill-rule:nonzero;stroke:none"
               id="text52"><tspan
                 x="0 8.4280005 16.855413"
                 y="0"
                 id="tspan50">2ms</tspan></text></g><path
             d="M 500,2205.03 H 458.332"
             style="fill:none;stroke:#969696;stroke-width:4.16667;stroke-linecap:butt;stroke-linejoin:miter;stroke-miterlimit:10;stroke-dasharray:none;stroke-opacity:1"
             id="path54" /><g
             id="g56"
             transform="scale(4.16667)"><text
               transform="matrix(0,-1,-1,0,94.0003,541.85)"
               style="font-variant:normal;font-weight:normal;font-size:14px;font-family:Menlo;-inkscape-font-specification:Menlo-Regular;writing-mode:lr-tb;fill:#969696;fill-opacity:1;fill-rule:nonzero;stroke:none"
               id="text60"><tspan
                 x="0 8.4274139 16.855413"
                 y="0"
                 id="tspan58">3ms</tspan></text></g><path
             d="M 500,1943.15 H 458.332"
             style="fill:none;stroke:#969696;stroke-width:4.16667;stroke-linecap:butt;stroke-linejoin:miter;stroke-miterlimit:10;stroke-dasharray:none;stroke-opacity:1"
             id="path62" /><g
             id="g64"
             transform="scale(4.16667)"><text
               transform="matrix(0,-1,-1,0,94.0003,479)"
               style="font-variant:normal;font-weight:normal;font-size:14px;font-family:Menlo;-inkscape-font-specification:Menlo-Regular;writing-mode:lr-tb;fill:#969696;fill-opacity:1;fill-rule:nonzero;stroke:none"
               id="text68"><tspan
                 x="0 8.4274139 16.855413"
                 y="0"
                 id="tspan66">4ms</tspan></text></g><path
             d="M 500,1681.28 H 458.332"
             style="fill:none;stroke:#969696;stroke-width:4.16667;stroke-linecap:butt;stroke-linejoin:miter;stroke-miterlimit:10;stroke-dasharray:none;stroke-opacity:1"
             id="path70" /><g
             id="g72"
             transform="scale(4.16667)"><text
               transform="matrix(0,-1,-1,0,94.0003,416.15)"
               style="font-variant:normal;font-weight:normal;font-size:14px;font-family:Menlo;-inkscape-font-specification:Menlo-Regular;writing-mode:lr-tb;fill:#969696;fill-opacity:1;fill-rule:nonzero;stroke:none"
               id="text76"><tspan
                 x="0 8.4274139 16.855413"
                 y="0"
                 id="tspan74">5ms</tspan></text></g><path
             d="M 500,1419.41 H 458.332"
             style="fill:none;stroke:#969696;stroke-width:4.16667;stroke-linecap:butt;stroke-linejoin:miter;stroke-miterlimit:10;stroke-dasharray:none;stroke-opacity:1"
             id="path78" /><g
             id="g80"
             transform="scale(4.16667)"><text
               transform="matrix(0,-1,-1,0,94.0003,353.3)"
               style="font-variant:normal;font-weight:normal;font-size:14px;font-family:Menlo;-inkscape-font-specification:Menlo-Regular;writing-mode:lr-tb;fill:#969696;fill-opacity:1;fill-rule:nonzero;stroke:none"
               id="text84"><tspan
                 x="0 8.4274139 16.855413"
                 y="0"
                 id="tspan82">6ms</tspan></text></g><path
             d="M 500,1157.53 H 458.332"
             style="fill:none;stroke:#969696;stroke-width:4.16667;stroke-linecap:butt;stroke-linejoin:miter;stroke-miterlimit:10;stroke-dasharray:none;stroke-opacity:1"
             id="path86" /><g
             id="g88"
             transform="scale(4.16667)"><text
               transform="matrix(0,-1,-1,0,94.0003,290.451)"
               style="font-variant:normal;font-weight:normal;font-size:14px;font-family:Menlo;-inkscape-font-specification:Menlo-Regular;writing-mode:lr-tb;fill:#969696;fill-opacity:1;fill-rule:nonzero;stroke:none"
               id="text92"><tspan
                 x="0 8.4280005 16.856001"
                 y="0"
                 id="tspan90">7ms</tspan></text></g><path
             d="M 500,895.656 H 458.332"
             style="fill:none;stroke:#969696;stroke-width:4.16667;stroke-linecap:butt;stroke-linejoin:miter;stroke-miterlimit:10;stroke-dasharray:none;stroke-opacity:1"
             id="path94" /><g
             id="g96"
             transform="scale(4.16667)"><text
               transform="matrix(0,-1,-1,0,94.0003,227.601)"
               style="font-variant:normal;font-weight:normal;font-size:14px;font-family:Menlo;-inkscape-font-specification:Menlo-Regular;writing-mode:lr-tb;fill:#969696;fill-opacity:1;fill-rule:nonzero;stroke:none"
               id="text100"><tspan
                 x="0 8.4280005 16.856001"
                 y="0"
                 id="tspan98">8ms</tspan></text></g><path
             d="M 500,633.781 H 458.332"
             style="fill:none;stroke:#969696;stroke-width:4.16667;stroke-linecap:butt;stroke-linejoin:miter;stroke-miterlimit:10;stroke-dasharray:none;stroke-opacity:1"
             id="path102" /><g
             id="g104"
             transform="scale(4.16667)"><text
               transform="matrix(0,-1,-1,0,94.0003,164.751)"
               style="font-variant:normal;font-weight:normal;font-size:14px;font-family:Menlo;-inkscape-font-specification:Menlo-Regular;writing-mode:lr-tb;fill:#969696;fill-opacity:1;fill-rule:nonzero;stroke:none"
               id="text108"><tspan
                 x="0 8.4280005 16.855413"
                 y="0"
                 id="tspan106">9ms</tspan></text></g><path
             d="M 500,371.906 H 458.332"
             style="fill:none;stroke:#969696;stroke-width:4.16667;stroke-linecap:butt;stroke-linejoin:miter;stroke-miterlimit:10;stroke-dasharray:none;stroke-opacity:1"
             id="path110" /><g
             id="g112"
             transform="scale(4.16667)"><text
               transform="matrix(0,-1,-1,0,94.0003,106.115)"
               style="font-variant:normal;font-weight:normal;font-size:14px;font-family:Menlo;-inkscape-font-specification:Menlo-Regular;writing-mode:lr-tb;fill:#969696;fill-opacity:1;fill-rule:nonzero;stroke:none"
               id="text118"><tspan
                 x="0 8.4274139 16.855413 25.283415"
                 y="0"
                 id="tspan114">10ms</tspan><tspan
                 x="-630.07001 -638.49908 -646.92719 -655.35626 -663.78534"
                 y="-20"
                 id="tspan116">V021-</tspan></text></g><path
             d="m 500,2990.65 v 41.67"
             style="fill:none;stroke:#969696;stroke-width:4.16667;stroke-linecap:butt;stroke-linejoin:miter;stroke-miterlimit:10;stroke-dasharray:none;stroke-opacity:1"
             id="path120" /><g
             id="g122"
             transform="scale(4.16667)"><text
               transform="matrix(0,-1,-1,0,200.25,736.185)"
               style="font-variant:normal;font-weight:normal;font-size:14px;font-family:Menlo;-inkscape-font-specification:Menlo-Regular;writing-mode:lr-tb;fill:#969696;fill-opacity:1;fill-rule:nonzero;stroke:none"
               id="text126"><tspan
                 x="0 -8.42906 -16.857189 -25.286249"
                 y="0"
                 id="tspan124">V01-</tspan></text></g><path
             d="m 859.375,2990.65 v 41.67"
             style="fill:none;stroke:#969696;stroke-width:4.16667;stroke-linecap:butt;stroke-linejoin:miter;stroke-miterlimit:10;stroke-dasharray:none;stroke-opacity:1"
             id="path128" /><g
             id="g130"
             transform="scale(4.16667)"><text
               transform="matrix(0,-1,-1,0,286.5,736.185)"
               style="font-variant:normal;font-weight:normal;font-size:14px;font-family:Menlo;-inkscape-font-specification:Menlo-Regular;writing-mode:lr-tb;fill:#969696;fill-opacity:1;fill-rule:nonzero;stroke:none"
               id="text134"><tspan
                 x="0 -8.42906 -16.857189 -25.286249"
                 y="0"
                 id="tspan132">V001</tspan></text></g><path
             d="m 1218.75,2990.65 v 41.67"
             style="fill:none;stroke:#969696;stroke-width:4.16667;stroke-linecap:butt;stroke-linejoin:miter;stroke-miterlimit:10;stroke-dasharray:none;stroke-opacity:1"
             id="path136" /><path
             d="m 500,371.906 h 718.75 v 2618.75 H 500 Z"
             style="fill:none;stroke:#969696;stroke-width:4.16667;stroke-linecap:butt;stroke-linejoin:miter;stroke-miterlimit:10;stroke-dasharray:none;stroke-opacity:1"
             id="path138" /><g
             id="g140"
             transform="scale(4.16667)"><text
               transform="matrix(0,-1,-1,0,306.5,736.185)"
               style="font-variant:normal;font-weight:normal;font-size:14px;font-family:Menlo;-inkscape-font-specification:Menlo-Regular;writing-mode:lr-tb;fill:#afafaf;fill-opacity:1;fill-rule:nonzero;stroke:none"
               id="text144"><tspan
                 x="0 -8.42906 -16.857189 -25.286249 -33.715309"
                 y="0"
                 id="tspan142">V0.1-</tspan></text></g><path
             d="m 1302.08,2990.65 v 41.67"
             style="fill:none;stroke:#afafaf;stroke-width:4.16667;stroke-linecap:butt;stroke-linejoin:miter;stroke-miterlimit:10;stroke-dasharray:none;stroke-opacity:1"
             id="path146" /><g
             id="g148"
             transform="scale(4.16667)"><text
               transform="matrix(0,-1,-1,0,341,736.185)"
               style="font-variant:normal;font-weight:normal;font-size:14px;font-family:Menlo;-inkscape-font-specification:Menlo-Regular;writing-mode:lr-tb;fill:#afafaf;fill-opacity:1;fill-rule:nonzero;stroke:none"
               id="text152"><tspan
                 x="0 -8.42906 -16.857189 -25.286249 -33.715309"
                 y="0"
                 id="tspan150">V6.0-</tspan></text></g><path
             d="m 1445.83,2990.65 v 41.67"
             style="fill:none;stroke:#afafaf;stroke-width:4.16667;stroke-linecap:butt;stroke-linejoin:miter;stroke-miterlimit:10;stroke-dasharray:none;stroke-opacity:1"
             id="path154" /><g
             id="g156"
             transform="scale(4.16667)"><text
               transform="matrix(0,-1,-1,0,375.5,736.185)"
               style="font-variant:normal;font-weight:normal;font-size:14px;font-family:Menlo;-inkscape-font-specification:Menlo-Regular;writing-mode:lr-tb;fill:#afafaf;fill-opacity:1;fill-rule:nonzero;stroke:none"
               id="text160"><tspan
                 x="0 -8.42906 -16.857189 -25.286249 -33.715309"
                 y="0"
                 id="tspan158">V2.0-</tspan></text></g><path
             d="m 1589.58,2990.65 v 41.67"
             style="fill:none;stroke:#afafaf;stroke-width:4.16667;stroke-linecap:butt;stroke-linejoin:miter;stroke-miterlimit:10;stroke-dasharray:none;stroke-opacity:1"
             id="path162" /><g
             id="g164"
             transform="scale(4.16667)"><text
               transform="matrix(0,-1,-1,0,410,736.185)"
               style="font-variant:normal;font-weight:normal;font-size:14px;font-family:Menlo;-inkscape-font-specification:Menlo-Regular;writing-mode:lr-tb;fill:#afafaf;fill-opacity:1;fill-rule:nonzero;stroke:none"
               id="text168"><tspan
                 x="0 -8.42906 -16.857189 -25.286249"
                 y="0"
                 id="tspan166">V2.0</tspan></text></g><path
             d="m 1733.33,2990.65 v 41.67"
             style="fill:none;stroke:#afafaf;stroke-width:4.16667;stroke-linecap:butt;stroke-linejoin:miter;stroke-miterlimit:10;stroke-dasharray:none;stroke-opacity:1"
             id="path170" /><g
             id="g172"
             transform="scale(4.16667)"><text
               transform="matrix(0,-1,-1,0,444.5,736.185)"
               style="font-variant:normal;font-weight:normal;font-size:14px;font-family:Menlo;-inkscape-font-specification:Menlo-Regular;writing-mode:lr-tb;fill:#afafaf;fill-opacity:1;fill-rule:nonzero;stroke:none"
               id="text176"><tspan
                 x="0 -8.42906 -16.857189 -25.286249"
                 y="0"
                 id="tspan174">V6.0</tspan></text></g><path
             d="m 1877.08,2990.65 v 41.67"
             style="fill:none;stroke:#afafaf;stroke-width:4.16667;stroke-linecap:butt;stroke-linejoin:miter;stroke-miterlimit:10;stroke-dasharray:none;stroke-opacity:1"
             id="path178" /><g
             id="g180"
             transform="scale(4.16667)"><text
               transform="matrix(0,-1,-1,0,479,736.185)"
               style="font-variant:normal;font-weight:normal;font-size:14px;font-family:Menlo;-inkscape-font-specification:Menlo-Regular;writing-mode:lr-tb;fill:#afafaf;fill-opacity:1;fill-rule:nonzero;stroke:none"
               id="text184"><tspan
                 x="0 -8.42906 -16.857189 -25.286249"
                 y="0"
                 id="tspan182">V0.1</tspan></text></g><path
             d="m 2020.83,2990.65 v 41.67"
             style="fill:none;stroke:#afafaf;stroke-width:4.16667;stroke-linecap:butt;stroke-linejoin:miter;stroke-miterlimit:10;stroke-dasharray:none;stroke-opacity:1"
             id="path186" /><path
             d="m 1302.08,371.906 h 718.75 v 2618.75 h -718.75 z"
             style="fill:none;stroke:#afafaf;stroke-width:4.16667;stroke-linecap:butt;stroke-linejoin:miter;stroke-miterlimit:10;stroke-dasharray:none;stroke-opacity:1"
             id="path188" /><g
             id="g190"
             transform="scale(4.16667)"><text
               transform="matrix(0,-1,-1,0,296,433.257)"
               style="font-variant:normal;font-weight:normal;font-size:14px;font-family:Menlo;-inkscape-font-specification:Menlo-Regular;writing-mode:lr-tb;fill:#0eff00;fill-opacity:1;fill-rule:nonzero;stroke:none"
               id="text194"><tspan
                 x="0 8.4280005 16.855413 25.283415 33.711414 42.138828 50.56683"
                 y="0"
                 id="tspan192">V(vout)</tspan></text></g></g></g><g
         id="g196"><g
           id="g198"
           clip-path="url(#clipPath202)"><path
             d="m 909.957,2990.65 v 0 l -33.898,-5.71 -62.2,-10.48 -60.507,-10.47 -55.856,-10.47 -48.195,-10.48 -38.582,-10.48 -28.789,-10.47 -20.399,-10.48 -14.011,-10.47 -9.434,-10.48 -6.156,-10.47 -3.739,-10.48 -1.82,-10.47 -0.141,-10.47 1.391,-10.48 2.965,-10.48 4.793,-10.47 7.004,-10.48 9.871,-10.47 13.785,-10.48 19.117,-10.47 26.129,-10.48 34.551,-10.47 43.371,-10.47 51.113,-10.48 56.598,-10.48 59.344,-10.47 59.472,-10.48 57.36,-10.47 53.416,-10.48 47.99,-10.47 41.4,-10.48 33.85,-10.47 25.36,-10.47 15.19,-10.48 5.33,-10.48 0.34,-10.47 -0.45,-10.48 -0.45,-10.47 -0.45,-10.48 -0.45,-10.47 -0.45,-10.48 -0.4,-9.37 -0.44,-10.07 -0.44,-10.47 -0.45,-10.48 -0.45,-10.47 -0.44,-10.48 -0.45,-10.48 -2.38,-10.47 -9.45,-10.47 -20.09,-10.48 -30.1,-10.47 -38.58,-10.48 -46.1,-10.47 -52.563,-10.48 -57.629,-10.47 -60.942,-10.48 -62.031,-10.48 -60.371,-10.47 -55.57,-10.47 -47.789,-10.48 -38.117,-10.47 -28.36,-10.48 -20.051,-10.47 -13.761,-10.48 -9.254,-10.47 -6.028,-10.48 -3.64,-10.47 -1.742,-10.48 -0.079,-10.47 1.446,-10.48 3.023,-10.47 4.863,-10.48 7.086,-10.47 9.977,-10.48 13.93,-10.47 19.312,-10.48 26.379,-10.47 34.836,-10.48 43.645,-10.47 51.343,-10.48 56.739,-10.47 59.398,-10.48 59.449,-10.47 57.266,-10.48 53.265,-10.47 47.8,-10.48 41.18,-10.47 33.59,-10.48 25.07,-10.47 14.88,-10.48 5.11,-10.47 0.26,-10.48 -0.46,-10.47 -0.45,-10.48 -0.45,-10.47 -0.45,-10.48 -0.45,-10.47 -0.39,-9.13 -0.43,-9.97 -0.44,-10.48 -0.45,-10.47 -0.45,-10.48 -0.44,-10.47 -0.45,-10.48 -2.43,-10.47 -9.59,-10.48 -20.23,-10.47 -30.2,-10.48 -38.66,-10.47 -46.18,-10.48 -52.625,-10.47 -57.676,-10.48 -60.969,-10.47 -62.031,-10.48 -60.344,-10.47 -55.512,-10.48 -47.695,-10.47 -38.008,-10.48 -28.258,-10.47 -19.968,-10.48 -13.7,-10.47 -9.211,-10.48 -6,-10.47 -3.621,-10.48 -1.726,-10.47 -0.067,-10.48 1.454,-10.47 3.031,-10.48 4.867,-10.47 7.09,-10.48 9.984,-10.47 13.93,-10.48 19.32,-10.47 26.387,-10.48 34.848,-10.47 43.664,-10.48 51.355,-10.47 56.754,-10.48 59.41,-10.47 59.453,-10.48 57.266,-10.47 53.258,-10.48 47.8,-10.47 41.16,-10.48 33.59,-10.47 25.06,-10.48 14.89,-10.47 5.1,-10.48 0.27,-10.47 -0.46,-10.48 -0.45,-10.47 -0.45,-10.48 -0.45,-10.47 -0.45,-10.48 -0.39,-9.09 -0.42,-9.96 -0.45,-10.48 -0.45,-10.47 -0.45,-10.47 -0.44,-10.48 -0.45,-10.47 -2.46,-10.48 -9.64,-10.48 -20.3,-10.47 -30.24,-10.48 -38.69,-10.47 -46.22,-10.48 -52.643,-10.47 -57.695,-10.47 -60.981,-10.48 -62.035,-10.47 -60.332,-10.48 -55.488,-10.48 -47.661,-10.47 -37.964,-10.48 -28.215,-10.47 -19.934,-10.48 -13.676,-10.47 -9.195,-10.47 -5.984,-10.48 -3.614,-10.47 -1.718,-10.48 -0.067,-10.47 1.457,-10.48 3.032,-10.48 4.863,-10.47 7.086,-10.48 9.976,-10.47 13.922,-10.475 19.305,-10.476 26.371,-10.473 34.832,-10.476 43.652,-10.473 51.348,-10.477 56.754,-10.476 59.41,-10.473 59.461,-10.476 57.273,-10.473 53.27,-10.477 47.81,-10.476 41.18,-10.473 33.6,-10.476 25.09,-10.473 14.91,-10.477 5.12,-10.472 0.28,-10.477 -0.45,-10.476 -0.45,-10.473 -0.45,-10.477 -0.45,-10.472 -0.45,-10.477 -0.39,-9.086 -0.43,-9.961 -0.45,-10.476 -0.44,-10.473 -0.45,-10.477 -0.45,-10.472 -0.44,-10.477 -2.48,-10.476 -9.67,-10.473 -20.34,-10.477 -30.27,-10.472 -38.71,-10.477 -46.23,-10.476 -52.662,-10.473 -57.707,-10.477 -60.988,-10.472 -62.035,-10.477 -60.328,-10.476 -55.473,-10.473 -47.641,-10.477 -37.941,-10.472 -28.192,-10.477 -19.91,-10.476 -13.66,-10.473 -9.187,-10.477 -5.981,-10.472 -3.605,-10.477 -1.719,-10.476 -0.063,-10.473 1.457,-10.477 3.028,-10.472 4.863,-10.477 7.086,-10.472 9.969,-10.477 13.91,-10.477 19.297,-10.472 26.359,-10.477 32.817,-10.472 5.171,-1.446"
             style="fill:none;stroke:#0eff00;stroke-width:4.16667;stroke-linecap:butt;stroke-linejoin:miter;stroke-miterlimit:1;stroke-dasharray:none;stroke-opacity:1"
             id="path204" /></g></g><g
         id="g206"><g
           id="g208"
           clip-path="url(#clipPath212)"><g
             id="g214"
             transform="scale(4.16667)"><text
               transform="matrix(0,-1,-1,0,489,429.042)"
               style="font-variant:normal;font-weight:normal;font-size:14px;font-family:Menlo;-inkscape-font-specification:Menlo-Regular;writing-mode:lr-tb;fill:#0000ff;fill-opacity:1;fill-rule:nonzero;stroke:none"
               id="text218"><tspan
                 x="0 8.4274139 16.855413 25.282827 33.710827 42.138828"
                 y="0"
                 id="tspan216">V(vin)</tspan></text></g></g></g><g
         id="g220"><g
           id="g222"
           clip-path="url(#clipPath226)"><path
             d="m 1661.46,2990.65 v 0 l 21.66,-5.71 39.46,-10.48 38.71,-10.47 37.48,-10.47 35.82,-10.48 33.7,-10.48 31.16,-10.47 28.27,-10.48 25.01,-10.47 21.45,-10.48 17.63,-10.47 13.6,-10.48 9.39,-10.47 5.08,-10.47 0.7,-10.48 -3.69,-10.48 -8.03,-10.47 -12.27,-10.48 -16.37,-10.47 -20.27,-10.48 -23.9,-10.47 -27.27,-10.48 -30.28,-10.47 -32.94,-10.47 -35.18,-10.48 -37.01,-10.48 -38.37,-10.47 -39.27,-10.48 -39.69,-10.47 -39.62,-10.48 -39.07,-10.47 -38.05,-10.48 -36.55,-10.47 -34.61,-10.47 -32.26,-10.48 -29.49,-10.48 -26.38,-10.47 -22.94,-10.48 -19.23,-10.47 -15.27,-10.48 -11.13,-10.47 -6.85,-10.48 -2.44,-9.37 1.3,-10.07 5.64,-10.47 9.94,-10.48 14.12,-10.47 18.14,-10.48 21.92,-10.48 25.45,-10.47 28.66,-10.47 31.52,-10.48 33.99,-10.47 36.06,-10.48 37.67,-10.47 38.83,-10.48 39.52,-10.47 39.72,-10.48 39.43,-10.48 38.67,-10.47 37.44,-10.47 35.74,-10.48 33.61,-10.47 31.06,-10.48 28.15,-10.47 24.88,-10.48 21.31,-10.47 17.48,-10.48 13.44,-10.47 9.23,-10.48 4.91,-10.47 0.54,-10.48 -3.86,-10.47 -8.19,-10.48 -12.43,-10.47 -16.52,-10.48 -20.41,-10.47 -24.04,-10.48 -27.39,-10.47 -30.39,-10.48 -33.02,-10.47 -35.27,-10.48 -37.06,-10.47 -38.42,-10.48 -39.29,-10.47 -39.7,-10.48 -39.61,-10.47 -39.04,-10.48 -38,-10.47 -36.49,-10.48 -34.53,-10.47 -32.15,-10.48 -29.39,-10.47 -26.25,-10.48 -22.8,-10.47 -19.08,-10.48 -15.12,-10.47 -10.97,-10.48 -6.69,-10.47 -2.27,-9.13 1.32,-9.97 5.67,-10.48 9.96,-10.47 14.15,-10.48 18.15,-10.47 21.95,-10.48 25.46,-10.47 28.68,-10.48 31.53,-10.47 34.01,-10.48 36.06,-10.47 37.68,-10.48 38.84,-10.47 39.52,-10.48 39.72,-10.47 39.43,-10.48 38.66,-10.47 37.43,-10.48 35.73,-10.47 33.6,-10.48 31.05,-10.47 28.13,-10.48 24.86,-10.47 21.29,-10.48 17.46,-10.47 13.42,-10.48 9.21,-10.47 4.89,-10.48 0.51,-10.47 -3.88,-10.48 -8.22,-10.47 -12.45,-10.48 -16.54,-10.47 -20.42,-10.48 -24.07,-10.47 -27.39,-10.48 -30.41,-10.47 -33.04,-10.48 -35.28,-10.47 -37.07,-10.48 -38.42,-10.47 -39.3,-10.48 -39.7,-10.47 -39.61,-10.48 -39.03,-10.47 -37.99,-10.48 -36.48,-10.47 -34.52,-10.48 -32.14,-10.47 -29.37,-10.48 -26.24,-10.47 -22.78,-10.48 -19.06,-10.47 -15.1,-10.48 -10.95,-10.47 -6.66,-10.48 -2.25,-9.09 1.33,-9.96 5.66,-10.48 9.97,-10.47 14.15,-10.47 18.16,-10.48 21.95,-10.47 25.46,-10.48 28.68,-10.48 31.54,-10.47 34,-10.48 36.07,-10.47 37.68,-10.48 38.84,-10.47 39.51,-10.47 39.72,-10.48 39.44,-10.47 38.66,-10.48 37.43,-10.48 35.73,-10.47 33.59,-10.48 31.05,-10.47 28.13,-10.48 24.86,-10.47 21.29,-10.47 17.46,-10.48 13.41,-10.47 9.21,-10.48 4.88,-10.47 0.51,-10.48 -3.88,-10.48 -8.22,-10.47 -12.46,-10.48 -16.54,-10.47 -20.43,-10.475 -24.07,-10.476 -27.4,-10.473 -30.41,-10.476 -33.04,-10.473 -35.27,-10.477 -37.08,-10.476 -38.42,-10.473 -39.3,-10.476 -39.7,-10.473 -39.6,-10.477 -39.04,-10.476 -37.99,-10.473 -36.48,-10.476 -34.52,-10.473 -32.13,-10.477 -29.37,-10.472 -26.24,-10.477 -22.78,-10.476 -19.05,-10.473 -15.1,-10.477 -10.94,-10.472 -6.66,-10.477 -2.25,-9.086 1.33,-9.961 5.66,-10.476 9.97,-10.473 14.15,-10.477 18.16,-10.472 21.95,-10.477 25.47,-10.476 28.67,-10.473 31.54,-10.477 34.01,-10.472 36.06,-10.477 37.68,-10.476 38.84,-10.473 39.52,-10.477 39.72,-10.472 39.43,-10.477 38.66,-10.476 37.43,-10.473 35.73,-10.477 33.59,-10.472 31.05,-10.477 28.13,-10.476 24.86,-10.473 21.29,-10.477 17.46,-10.472 13.41,-10.477 9.21,-10.476 4.88,-10.473 0.51,-10.477 -3.88,-10.472 -8.22,-10.477 -12.46,-10.472 -16.54,-10.477 -20.43,-10.477 -24.07,-10.472 -27.4,-10.477 -30.41,-10.472 -4.4,-1.446"
             style="fill:none;stroke:#0000ff;stroke-width:4.16667;stroke-linecap:butt;stroke-linejoin:miter;stroke-miterlimit:1;stroke-dasharray:none;stroke-opacity:1"
             id="path228" /></g></g></g></g></svg>
