<?xml version="1.0" encoding="UTF-8" standalone="no"?>
<svg
   xmlns:dc="http://purl.org/dc/elements/1.1/"
   xmlns:cc="http://creativecommons.org/ns#"
   xmlns:rdf="http://www.w3.org/1999/02/22-rdf-syntax-ns#"
   xmlns:svg="http://www.w3.org/2000/svg"
   xmlns="http://www.w3.org/2000/svg"
   xmlns:sodipodi="http://sodipodi.sourceforge.net/DTD/sodipodi-0.dtd"
   xmlns:inkscape="http://www.inkscape.org/namespaces/inkscape"
   version="1.1"
   id="svg10"
   xml:space="preserve"
   width="618.14502"
   height="361.33768"
   viewBox="0 0 927.21753 542.00652"
   sodipodi:docname="preamp-wave-150mV.svg"
   inkscape:version="1.0.1 (c497b03c, 2020-09-10)"><metadata
     id="metadata16"><rdf:RDF><cc:Work
         rdf:about=""><dc:format>image/svg+xml</dc:format><dc:type
           rdf:resource="http://purl.org/dc/dcmitype/StillImage" /><dc:title></dc:title></cc:Work></rdf:RDF></metadata><defs
     id="defs14"><clipPath
       clipPathUnits="userSpaceOnUse"
       id="clipPath28"><path
         d="m 375,299.582 h 1729.17 v 2908.34 H 375 Z"
         id="path26" /></clipPath><clipPath
       clipPathUnits="userSpaceOnUse"
       id="clipPath226"><path
         d="m 500,370.418 h 720.832 v 2587.5 H 500 Z"
         id="path224" /></clipPath><clipPath
       clipPathUnits="userSpaceOnUse"
       id="clipPath236"><path
         d="m 375,299.582 h 1729.17 v 2908.34 H 375 Z"
         id="path234" /></clipPath><clipPath
       clipPathUnits="userSpaceOnUse"
       id="clipPath250"><path
         d="m 1300,370.418 h 720.832 v 2587.5 H 1300 Z"
         id="path248" /></clipPath></defs><sodipodi:namedview
     pagecolor="#ffffff"
     bordercolor="#666666"
     borderopacity="1"
     objecttolerance="10"
     gridtolerance="10"
     guidetolerance="10"
     inkscape:pageopacity="0"
     inkscape:pageshadow="2"
     inkscape:window-width="1338"
     inkscape:window-height="775"
     id="namedview12"
     showgrid="false"
     fit-margin-top="0"
     fit-margin-left="0"
     fit-margin-right="0"
     fit-margin-bottom="0"
     inkscape:zoom="0.71980899"
     inkscape:cx="199.69151"
     inkscape:cy="270.21602"
     inkscape:window-x="0"
     inkscape:window-y="23"
     inkscape:window-maximized="0"
     inkscape:current-layer="g18"
     inkscape:document-rotation="0"
     scale-x="1.5" /><g
     id="g18"
     inkscape:groupmode="layer"
     inkscape:label="ink_ext_XXXXXX"
     transform="matrix(0,-1.3333333,-1.3333333,0,1025.605,667.07604)"><g
       id="g20"
       transform="scale(0.24)"><g
         id="g22"><g
           id="g24"
           clip-path="url(#clipPath28)"><path
             d="M 500,2955.53 H 458.332"
             style="fill:none;stroke:#969696;stroke-width:4.16667;stroke-linecap:butt;stroke-linejoin:miter;stroke-miterlimit:10;stroke-dasharray:none;stroke-opacity:1"
             id="path30" /><g
             id="g32"
             transform="scale(4.16667)"><text
               transform="matrix(0,-1,-1,0,94.0003,721.971)"
               style="font-variant:normal;font-weight:normal;font-size:14px;font-family:Menlo;-inkscape-font-specification:Menlo-Regular;writing-mode:lr-tb;fill:#969696;fill-opacity:1;fill-rule:nonzero;stroke:none"
               id="text36"><tspan
                 x="0 8.4274139 16.855413"
                 y="0"
                 sodipodi:role="line"
                 id="tspan34">0ms</tspan></text></g><path
             d="M 500,2697.17 H 458.332"
             style="fill:none;stroke:#969696;stroke-width:4.16667;stroke-linecap:butt;stroke-linejoin:miter;stroke-miterlimit:10;stroke-dasharray:none;stroke-opacity:1"
             id="path38" /><g
             id="g40"
             transform="scale(4.16667)"><text
               transform="matrix(0,-1,-1,0,94.0003,659.963)"
               style="font-variant:normal;font-weight:normal;font-size:14px;font-family:Menlo;-inkscape-font-specification:Menlo-Regular;writing-mode:lr-tb;fill:#969696;fill-opacity:1;fill-rule:nonzero;stroke:none"
               id="text44"><tspan
                 x="0 8.4274139 16.855413"
                 y="0"
                 sodipodi:role="line"
                 id="tspan42">1ms</tspan></text></g><path
             d="M 500,2438.81 H 458.332"
             style="fill:none;stroke:#969696;stroke-width:4.16667;stroke-linecap:butt;stroke-linejoin:miter;stroke-miterlimit:10;stroke-dasharray:none;stroke-opacity:1"
             id="path46" /><g
             id="g48"
             transform="scale(4.16667)"><text
               transform="matrix(0,-1,-1,0,94.0003,597.957)"
               style="font-variant:normal;font-weight:normal;font-size:14px;font-family:Menlo;-inkscape-font-specification:Menlo-Regular;writing-mode:lr-tb;fill:#969696;fill-opacity:1;fill-rule:nonzero;stroke:none"
               id="text52"><tspan
                 x="0 8.4280005 16.856001"
                 y="0"
                 sodipodi:role="line"
                 id="tspan50">2ms</tspan></text></g><path
             d="M 500,2180.45 H 458.332"
             style="fill:none;stroke:#969696;stroke-width:4.16667;stroke-linecap:butt;stroke-linejoin:miter;stroke-miterlimit:10;stroke-dasharray:none;stroke-opacity:1"
             id="path54" /><g
             id="g56"
             transform="scale(4.16667)"><text
               transform="matrix(0,-1,-1,0,94.0003,535.95)"
               style="font-variant:normal;font-weight:normal;font-size:14px;font-family:Menlo;-inkscape-font-specification:Menlo-Regular;writing-mode:lr-tb;fill:#969696;fill-opacity:1;fill-rule:nonzero;stroke:none"
               id="text60"><tspan
                 x="0 8.4280005 16.855413"
                 y="0"
                 sodipodi:role="line"
                 id="tspan58">3ms</tspan></text></g><path
             d="M 500,1922.08 H 458.332"
             style="fill:none;stroke:#969696;stroke-width:4.16667;stroke-linecap:butt;stroke-linejoin:miter;stroke-miterlimit:10;stroke-dasharray:none;stroke-opacity:1"
             id="path62" /><g
             id="g64"
             transform="scale(4.16667)"><text
               transform="matrix(0,-1,-1,0,94.0003,473.943)"
               style="font-variant:normal;font-weight:normal;font-size:14px;font-family:Menlo;-inkscape-font-specification:Menlo-Regular;writing-mode:lr-tb;fill:#969696;fill-opacity:1;fill-rule:nonzero;stroke:none"
               id="text68"><tspan
                 x="0 8.4280005 16.855413"
                 y="0"
                 sodipodi:role="line"
                 id="tspan66">4ms</tspan></text></g><path
             d="M 500,1663.72 H 458.332"
             style="fill:none;stroke:#969696;stroke-width:4.16667;stroke-linecap:butt;stroke-linejoin:miter;stroke-miterlimit:10;stroke-dasharray:none;stroke-opacity:1"
             id="path70" /><g
             id="g72"
             transform="scale(4.16667)"><text
               transform="matrix(0,-1,-1,0,94.0003,411.936)"
               style="font-variant:normal;font-weight:normal;font-size:14px;font-family:Menlo;-inkscape-font-specification:Menlo-Regular;writing-mode:lr-tb;fill:#969696;fill-opacity:1;fill-rule:nonzero;stroke:none"
               id="text76"><tspan
                 x="0 8.4280005 16.855413"
                 y="0"
                 sodipodi:role="line"
                 id="tspan74">5ms</tspan></text></g><path
             d="M 500,1405.36 H 458.332"
             style="fill:none;stroke:#969696;stroke-width:4.16667;stroke-linecap:butt;stroke-linejoin:miter;stroke-miterlimit:10;stroke-dasharray:none;stroke-opacity:1"
             id="path78" /><g
             id="g80"
             transform="scale(4.16667)"><text
               transform="matrix(0,-1,-1,0,94.0003,349.928)"
               style="font-variant:normal;font-weight:normal;font-size:14px;font-family:Menlo;-inkscape-font-specification:Menlo-Regular;writing-mode:lr-tb;fill:#969696;fill-opacity:1;fill-rule:nonzero;stroke:none"
               id="text84"><tspan
                 x="0 8.4274139 16.855413"
                 y="0"
                 sodipodi:role="line"
                 id="tspan82">6ms</tspan></text></g><path
             d="M 500,1146.99 H 458.332"
             style="fill:none;stroke:#969696;stroke-width:4.16667;stroke-linecap:butt;stroke-linejoin:miter;stroke-miterlimit:10;stroke-dasharray:none;stroke-opacity:1"
             id="path86" /><g
             id="g88"
             transform="scale(4.16667)"><text
               transform="matrix(0,-1,-1,0,94.0003,287.921)"
               style="font-variant:normal;font-weight:normal;font-size:14px;font-family:Menlo;-inkscape-font-specification:Menlo-Regular;writing-mode:lr-tb;fill:#969696;fill-opacity:1;fill-rule:nonzero;stroke:none"
               id="text92"><tspan
                 x="0 8.4274139 16.855413"
                 y="0"
                 sodipodi:role="line"
                 id="tspan90">7ms</tspan></text></g><path
             d="M 500,888.633 H 458.332"
             style="fill:none;stroke:#969696;stroke-width:4.16667;stroke-linecap:butt;stroke-linejoin:miter;stroke-miterlimit:10;stroke-dasharray:none;stroke-opacity:1"
             id="path94" /><g
             id="g96"
             transform="scale(4.16667)"><text
               transform="matrix(0,-1,-1,0,94.0003,225.915)"
               style="font-variant:normal;font-weight:normal;font-size:14px;font-family:Menlo;-inkscape-font-specification:Menlo-Regular;writing-mode:lr-tb;fill:#969696;fill-opacity:1;fill-rule:nonzero;stroke:none"
               id="text100"><tspan
                 x="0 8.4280005 16.856001"
                 y="0"
                 sodipodi:role="line"
                 id="tspan98">8ms</tspan></text></g><path
             d="M 500,630.27 H 458.332"
             style="fill:none;stroke:#969696;stroke-width:4.16667;stroke-linecap:butt;stroke-linejoin:miter;stroke-miterlimit:10;stroke-dasharray:none;stroke-opacity:1"
             id="path102" /><g
             id="g104"
             transform="scale(4.16667)"><text
               transform="matrix(0,-1,-1,0,94.0003,163.908)"
               style="font-variant:normal;font-weight:normal;font-size:14px;font-family:Menlo;-inkscape-font-specification:Menlo-Regular;writing-mode:lr-tb;fill:#969696;fill-opacity:1;fill-rule:nonzero;stroke:none"
               id="text108"><tspan
                 x="0 8.4280005 16.855413"
                 y="0"
                 sodipodi:role="line"
                 id="tspan106">9ms</tspan></text></g><path
             d="M 500,371.906 H 458.332"
             style="fill:none;stroke:#969696;stroke-width:4.16667;stroke-linecap:butt;stroke-linejoin:miter;stroke-miterlimit:10;stroke-dasharray:none;stroke-opacity:1"
             id="path110" /><g
             id="g112"
             transform="scale(4.16667)"><text
               transform="matrix(0,-1,-1,0,94.0003,106.115)"
               style="font-variant:normal;font-weight:normal;font-size:14px;font-family:Menlo;-inkscape-font-specification:Menlo-Regular;writing-mode:lr-tb;fill:#969696;fill-opacity:1;fill-rule:nonzero;stroke:none"
               id="text118"><tspan
                 x="0 8.4274139 16.855413 25.283415"
                 y="0"
                 sodipodi:role="line"
                 id="tspan114">10ms</tspan><tspan
                 x="-621.64203 -630.07013 -638.49921 -646.92731"
                 y="-20"
                 sodipodi:role="line"
                 id="tspan116">V52-</tspan></text></g><path
             d="m 500,2955.53 v 41.67"
             style="fill:none;stroke:#969696;stroke-width:4.16667;stroke-linecap:butt;stroke-linejoin:miter;stroke-miterlimit:10;stroke-dasharray:none;stroke-opacity:1"
             id="path120" /><g
             id="g122"
             transform="scale(4.16667)"><text
               transform="matrix(0,-1,-1,0,148.5,727.757)"
               style="font-variant:normal;font-weight:normal;font-size:14px;font-family:Menlo;-inkscape-font-specification:Menlo-Regular;writing-mode:lr-tb;fill:#969696;fill-opacity:1;fill-rule:nonzero;stroke:none"
               id="text126"><tspan
                 x="0 -8.4281301 -16.857189 -25.28532"
                 y="0"
                 sodipodi:role="line"
                 id="tspan124">V51-</tspan></text></g><path
             d="m 643.75,2955.53 v 41.67"
             style="fill:none;stroke:#969696;stroke-width:4.16667;stroke-linecap:butt;stroke-linejoin:miter;stroke-miterlimit:10;stroke-dasharray:none;stroke-opacity:1"
             id="path128" /><g
             id="g130"
             transform="scale(4.16667)"><text
               transform="matrix(0,-1,-1,0,183,727.757)"
               style="font-variant:normal;font-weight:normal;font-size:14px;font-family:Menlo;-inkscape-font-specification:Menlo-Regular;writing-mode:lr-tb;fill:#969696;fill-opacity:1;fill-rule:nonzero;stroke:none"
               id="text134"><tspan
                 x="0 -8.4281301 -16.857189"
                 y="0"
                 sodipodi:role="line"
                 id="tspan132">V5-</tspan></text></g><path
             d="m 787.5,2955.53 v 41.67"
             style="fill:none;stroke:#969696;stroke-width:4.16667;stroke-linecap:butt;stroke-linejoin:miter;stroke-miterlimit:10;stroke-dasharray:none;stroke-opacity:1"
             id="path136" /><g
             id="g138"
             transform="scale(4.16667)"><text
               transform="matrix(0,-1,-1,0,217.5,727.757)"
               style="font-variant:normal;font-weight:normal;font-size:14px;font-family:Menlo;-inkscape-font-specification:Menlo-Regular;writing-mode:lr-tb;fill:#969696;fill-opacity:1;fill-rule:nonzero;stroke:none"
               id="text142"><tspan
                 x="0 -8.4281301"
                 y="0"
                 sodipodi:role="line"
                 id="tspan140">V5</tspan></text></g><path
             d="m 931.25,2955.53 v 41.67"
             style="fill:none;stroke:#969696;stroke-width:4.16667;stroke-linecap:butt;stroke-linejoin:miter;stroke-miterlimit:10;stroke-dasharray:none;stroke-opacity:1"
             id="path144" /><g
             id="g146"
             transform="scale(4.16667)"><text
               transform="matrix(0,-1,-1,0,252,727.757)"
               style="font-variant:normal;font-weight:normal;font-size:14px;font-family:Menlo;-inkscape-font-specification:Menlo-Regular;writing-mode:lr-tb;fill:#969696;fill-opacity:1;fill-rule:nonzero;stroke:none"
               id="text150"><tspan
                 x="0 -8.4281301 -16.857189"
                 y="0"
                 sodipodi:role="line"
                 id="tspan148">V51</tspan></text></g><path
             d="m 1075,2955.53 v 41.67"
             style="fill:none;stroke:#969696;stroke-width:4.16667;stroke-linecap:butt;stroke-linejoin:miter;stroke-miterlimit:10;stroke-dasharray:none;stroke-opacity:1"
             id="path152" /><g
             id="g154"
             transform="scale(4.16667)"><text
               transform="matrix(0,-1,-1,0,286.5,727.757)"
               style="font-variant:normal;font-weight:normal;font-size:14px;font-family:Menlo;-inkscape-font-specification:Menlo-Regular;writing-mode:lr-tb;fill:#969696;fill-opacity:1;fill-rule:nonzero;stroke:none"
               id="text158"><tspan
                 x="0 -8.4281301 -16.857189"
                 y="0"
                 sodipodi:role="line"
                 id="tspan156">V52</tspan></text></g><path
             d="m 1218.75,2955.53 v 41.67"
             style="fill:none;stroke:#969696;stroke-width:4.16667;stroke-linecap:butt;stroke-linejoin:miter;stroke-miterlimit:10;stroke-dasharray:none;stroke-opacity:1"
             id="path160" /><path
             d="m 500,371.906 h 718.75 v 2583.63 H 500 Z"
             style="fill:none;stroke:#969696;stroke-width:4.16667;stroke-linecap:butt;stroke-linejoin:miter;stroke-miterlimit:10;stroke-dasharray:none;stroke-opacity:1"
             id="path162" /><g
             id="g164"
             transform="scale(4.16667)"><text
               transform="matrix(0,-1,-1,0,306.5,727.757)"
               style="font-variant:normal;font-weight:normal;font-size:14px;font-family:Menlo;-inkscape-font-specification:Menlo-Regular;writing-mode:lr-tb;fill:#afafaf;fill-opacity:1;fill-rule:nonzero;stroke:none"
               id="text168"><tspan
                 x="0 -8.4281301 -16.857189 -25.28532 -33.714378 -42.14344"
                 y="0"
                 sodipodi:role="line"
                 id="tspan166">Vm051-</tspan></text></g><path
             d="m 1302.08,2955.53 v 41.67"
             style="fill:none;stroke:#afafaf;stroke-width:4.16667;stroke-linecap:butt;stroke-linejoin:miter;stroke-miterlimit:10;stroke-dasharray:none;stroke-opacity:1"
             id="path170" /><g
             id="g172"
             transform="scale(4.16667)"><text
               transform="matrix(0,-1,-1,0,341,727.757)"
               style="font-variant:normal;font-weight:normal;font-size:14px;font-family:Menlo;-inkscape-font-specification:Menlo-Regular;writing-mode:lr-tb;fill:#afafaf;fill-opacity:1;fill-rule:nonzero;stroke:none"
               id="text176"><tspan
                 x="0 -8.4281301 -16.857189 -25.28532 -33.714378"
                 y="0"
                 sodipodi:role="line"
                 id="tspan174">Vm09-</tspan></text></g><path
             d="m 1445.83,2955.53 v 41.67"
             style="fill:none;stroke:#afafaf;stroke-width:4.16667;stroke-linecap:butt;stroke-linejoin:miter;stroke-miterlimit:10;stroke-dasharray:none;stroke-opacity:1"
             id="path178" /><g
             id="g180"
             transform="scale(4.16667)"><text
               transform="matrix(0,-1,-1,0,375.5,727.757)"
               style="font-variant:normal;font-weight:normal;font-size:14px;font-family:Menlo;-inkscape-font-specification:Menlo-Regular;writing-mode:lr-tb;fill:#afafaf;fill-opacity:1;fill-rule:nonzero;stroke:none"
               id="text184"><tspan
                 x="0 -8.4281301 -16.857189 -25.28532 -33.714378"
                 y="0"
                 sodipodi:role="line"
                 id="tspan182">Vm03-</tspan></text></g><path
             d="m 1589.58,2955.53 v 41.67"
             style="fill:none;stroke:#afafaf;stroke-width:4.16667;stroke-linecap:butt;stroke-linejoin:miter;stroke-miterlimit:10;stroke-dasharray:none;stroke-opacity:1"
             id="path186" /><g
             id="g188"
             transform="scale(4.16667)"><text
               transform="matrix(0,-1,-1,0,410,727.757)"
               style="font-variant:normal;font-weight:normal;font-size:14px;font-family:Menlo;-inkscape-font-specification:Menlo-Regular;writing-mode:lr-tb;fill:#afafaf;fill-opacity:1;fill-rule:nonzero;stroke:none"
               id="text192"><tspan
                 x="0 -8.4281301 -16.857189 -25.28532"
                 y="0"
                 sodipodi:role="line"
                 id="tspan190">Vm03</tspan></text></g><path
             d="m 1733.33,2955.53 v 41.67"
             style="fill:none;stroke:#afafaf;stroke-width:4.16667;stroke-linecap:butt;stroke-linejoin:miter;stroke-miterlimit:10;stroke-dasharray:none;stroke-opacity:1"
             id="path194" /><g
             id="g196"
             transform="scale(4.16667)"><text
               transform="matrix(0,-1,-1,0,444.5,727.757)"
               style="font-variant:normal;font-weight:normal;font-size:14px;font-family:Menlo;-inkscape-font-specification:Menlo-Regular;writing-mode:lr-tb;fill:#afafaf;fill-opacity:1;fill-rule:nonzero;stroke:none"
               id="text200"><tspan
                 x="0 -8.4281301 -16.857189 -25.28532"
                 y="0"
                 sodipodi:role="line"
                 id="tspan198">Vm09</tspan></text></g><path
             d="m 1877.08,2955.53 v 41.67"
             style="fill:none;stroke:#afafaf;stroke-width:4.16667;stroke-linecap:butt;stroke-linejoin:miter;stroke-miterlimit:10;stroke-dasharray:none;stroke-opacity:1"
             id="path202" /><g
             id="g204"
             transform="scale(4.16667)"><text
               transform="matrix(0,-1,-1,0,479,727.757)"
               style="font-variant:normal;font-weight:normal;font-size:14px;font-family:Menlo;-inkscape-font-specification:Menlo-Regular;writing-mode:lr-tb;fill:#afafaf;fill-opacity:1;fill-rule:nonzero;stroke:none"
               id="text208"><tspan
                 x="0 -8.4281301 -16.857189 -25.28532 -33.714378"
                 y="0"
                 sodipodi:role="line"
                 id="tspan206">Vm051</tspan></text></g><path
             d="m 2020.83,2955.53 v 41.67"
             style="fill:none;stroke:#afafaf;stroke-width:4.16667;stroke-linecap:butt;stroke-linejoin:miter;stroke-miterlimit:10;stroke-dasharray:none;stroke-opacity:1"
             id="path210" /><path
             d="m 1302.08,371.906 h 718.75 v 2583.63 h -718.75 z"
             style="fill:none;stroke:#afafaf;stroke-width:4.16667;stroke-linecap:butt;stroke-linejoin:miter;stroke-miterlimit:10;stroke-dasharray:none;stroke-opacity:1"
             id="path212" /><g
             id="g214"
             transform="scale(4.16667)"><text
               transform="matrix(0,-1,-1,0,296,428.828)"
               style="font-variant:normal;font-weight:normal;font-size:14px;font-family:Menlo;-inkscape-font-specification:Menlo-Regular;writing-mode:lr-tb;fill:#0eff00;fill-opacity:1;fill-rule:nonzero;stroke:none"
               id="text218"><tspan
                 x="0 8.4280005 16.855413 25.283415 33.711414 42.138828 50.56683"
                 y="0"
                 sodipodi:role="line"
                 id="tspan216">V(vout)</tspan></text></g></g></g><g
         id="g220"><g
           id="g222"
           clip-path="url(#clipPath226)"><path
             d="m 823.5,2955.53 v 0 l -24.246,-6.67 -36.754,-10.34 -35.277,-10.33 -33.231,-10.33 -30.816,-10.34 -28.141,-10.33 -25.199,-10.34 -21.945,-10.33 -18.547,-10.34 -15.121,-10.33 -11.633,-10.33 -8.113,-10.34 -4.582,-10.34 -1.055,-10.33 2.469,-10.33 5.964,-10.34 9.438,-10.33 12.867,-10.34 16.242,-10.33 19.535,-10.34 22.711,-10.33 25.789,-10.33 28.68,-10.34 31.192,-10.34 33.371,-10.33 35.246,-10.33 36.695,-10.34 37.691,-10.33 38.192,-10.34 38.168,-10.33 37.594,-10.34 36.488,-10.33 34.948,-10.33 32.91,-10.34 30.38,-10.34 27.42,-10.33 24.1,-10.33 20.45,-10.34 16.54,-10.33 12.4,-10.34 8.11,-10.33 3.84,-10.34 -0.32,-9.01 -4.18,-9.43 -8.75,-10.33 -12.97,-10.34 -17.11,-10.33 -21.05,-10.34 -24.71,-10.33 -28.05,-10.33 -31.01,-10.34 -33.56,-10.34 -35.599,-10.33 -37.133,-10.33 -38.176,-10.34 -38.691,-10.33 -38.633,-10.34 -38.035,-10.33 -36.922,-10.34 -35.324,-10.33 -33.301,-10.33 -30.894,-10.34 -28.223,-10.34 -25.293,-10.33 -22.047,-10.33 -18.652,-10.34 -15.231,-10.33 -11.742,-10.34 -8.226,-10.33 -4.696,-10.34 -1.168,-10.33 2.352,-10.33 5.847,-10.34 9.325,-10.34 12.754,-10.33 16.132,-10.33 19.422,-10.34 22.606,-10.33 25.687,-10.34 28.586,-10.33 31.11,-10.34 33.3,-10.33 35.188,-10.33 36.656,-10.34 37.664,-10.34 38.18,-10.33 38.176,-10.33 37.621,-10.34 36.535,-10.33 35.005,-10.34 32.99,-10.33 30.47,-10.34 27.53,-10.33 24.22,-10.33 20.58,-10.34 16.67,-10.34 12.55,-10.33 8.25,-10.33 4.02,-10.34 -0.18,-8.82 -4.2,-9.77 -8.63,-10.33 -12.88,-10.33 -17.03,-10.34 -20.97,-10.33 -24.63,-10.34 -27.99,-10.33 -30.96,-10.33 -33.51,-10.34 -35.559,-10.34 -37.102,-10.33 -38.156,-10.33 -38.683,-10.34 -38.637,-10.33 -38.047,-10.34 -36.941,-10.33 -35.356,-10.34 -33.336,-10.33 -30.937,-10.33 -28.274,-10.34 -25.351,-10.34 -22.106,-10.33 -18.711,-10.33 -15.293,-10.34 -11.808,-10.33 -8.289,-10.34 -4.766,-10.33 -1.234,-10.34 2.285,-10.33 5.785,-10.33 9.254,-10.34 12.687,-10.34 16.067,-10.33 19.359,-10.33 22.539,-10.34 25.633,-10.33 28.531,-10.34 31.059,-10.33 33.258,-10.34 35.152,-10.33 36.629,-10.33 37.652,-10.34 38.172,-10.34 38.184,-10.33 37.633,-10.33 36.562,-10.34 35.045,-10.33 33.03,-10.34 30.53,-10.33 27.59,-10.34 24.29,-10.33 20.65,-10.33 16.75,-10.34 12.63,-10.33 8.34,-10.34 4.1,-10.33 -0.13,-8.94 -4.19,-9.83 -8.61,-10.33 -12.87,-10.33 -17.01,-10.34 -20.96,-10.33 -24.63,-10.34 -27.98,-10.33 -30.95,-10.34 -33.5,-10.33 -35.551,-10.33 -37.094,-10.34 -38.152,-10.33 -38.68,-10.34 -38.632,-10.33 -38.047,-10.34 -36.942,-10.33 -35.355,-10.34 -33.34,-10.33 -30.941,-10.33 -28.278,-10.34 -25.355,-10.33 -22.11,-10.34 -18.718,-10.33 -15.297,-10.34 -11.817,-10.33 -8.296,-10.34 -4.774,-10.33 -1.242,-10.34 2.277,-10.33 5.774,-10.33 9.246,-10.34 12.679,-10.33 16.055,-10.34 19.352,-10.334 22.531,-10.332 25.621,-10.336 28.524,-10.332 31.05,-10.336 33.254,-10.336 35.145,-10.332 36.629,-10.336 37.644,-10.336 38.172,-10.332 38.184,-10.336 37.636,-10.336 36.563,-10.332 35.055,-10.336 33.04,-10.332 30.53,-10.336 27.6,-10.336 24.29,-10.332 20.67,-10.336 16.76,-10.336 12.65,-10.332 8.35,-10.336 4.11,-10.336 -0.13,-8.961 -4.18,-9.824 -8.61,-10.332 -12.87,-10.336 -17.01,-10.336 -20.95,-10.332 -24.63,-10.336 -27.98,-10.336 -30.94,-10.332 -33.5,-10.336 -35.552,-10.336 -37.09,-10.332 -38.152,-10.336 -38.68,-10.332 -38.629,-10.336 -38.043,-10.335 -36.941,-10.333 -35.352,-10.335 -33.34,-10.336 -30.937,-10.332 -28.277,-10.336 -25.352,-10.336 -22.109,-10.332 -18.719,-10.336 -15.297,-10.332 -11.816,-10.336 -8.297,-10.336 -4.774,-10.332 -1.242,-10.336 2.277,-10.336 5.774,-10.332 9.242,-10.336 12.68,-10.332 16.051,-10.336 19.351,-10.336 22.531,-10.332 25.618,-10.336 28.007,-10.336 4.063,-1.422"
             style="fill:none;stroke:#0eff00;stroke-width:4.16667;stroke-linecap:butt;stroke-linejoin:miter;stroke-miterlimit:1;stroke-dasharray:none;stroke-opacity:1"
             id="path228" /></g></g><g
         id="g230"><g
           id="g232"
           clip-path="url(#clipPath236)"><g
             id="g238"
             transform="scale(4.16667)"><text
               transform="matrix(0,-1,-1,0,489,424.614)"
               style="font-variant:normal;font-weight:normal;font-size:14px;font-family:Menlo;-inkscape-font-specification:Menlo-Regular;writing-mode:lr-tb;fill:#0000ff;fill-opacity:1;fill-rule:nonzero;stroke:none"
               id="text242"><tspan
                 x="0 8.4280005 16.856001 25.283415 33.711414 42.139416"
                 y="0"
                 sodipodi:role="line"
                 id="tspan240">V(vin)</tspan></text></g></g></g><g
         id="g244"><g
           id="g246"
           clip-path="url(#clipPath250)"><path
             d="m 1661.46,2955.53 v 0 l 25.64,-6.67 39.4,-10.34 38.61,-10.33 37.34,-10.33 35.62,-10.34 33.46,-10.33 30.9,-10.34 27.95,-10.33 24.66,-10.34 21.09,-10.33 17.23,-10.33 13.18,-10.34 8.97,-10.34 4.64,-10.33 0.26,-10.33 -4.13,-10.34 -8.46,-10.33 -12.69,-10.34 -16.77,-10.33 -20.65,-10.34 -24.25,-10.33 -27.58,-10.33 -30.57,-10.34 -33.18,-10.34 -35.39,-10.33 -37.16,-10.33 -38.49,-10.34 -39.33,-10.33 -39.71,-10.34 -39.59,-10.33 -38.98,-10.34 -37.92,-10.33 -36.38,-10.33 -34.39,-10.34 -32,-10.34 -29.2,-10.33 -26.04,-10.33 -22.59,-10.34 -18.83,-10.33 -14.86,-10.34 -10.71,-10.33 -6.42,-10.34 -2.04,-9.01 1.45,-9.43 5.76,-10.33 10.07,-10.34 14.24,-10.33 18.25,-10.34 22.03,-10.33 25.55,-10.33 28.74,-10.34 31.6,-10.34 34.06,-10.33 36.1,-10.33 37.71,-10.34 38.86,-10.33 39.53,-10.34 39.72,-10.33 39.42,-10.34 38.64,-10.33 37.4,-10.33 35.68,-10.34 33.54,-10.34 30.99,-10.33 28.05,-10.33 24.78,-10.34 21.21,-10.33 17.37,-10.34 13.32,-10.33 9.11,-10.34 4.78,-10.33 0.41,-10.33 -3.98,-10.34 -8.32,-10.34 -12.55,-10.33 -16.64,-10.33 -20.51,-10.34 -24.15,-10.33 -27.47,-10.34 -30.47,-10.33 -33.1,-10.34 -35.32,-10.33 -37.12,-10.33 -38.44,-10.34 -39.31,-10.34 -39.7,-10.33 -39.6,-10.33 -39.02,-10.34 -37.96,-10.33 -36.44,-10.34 -34.47,-10.33 -32.08,-10.34 -29.3,-10.33 -26.16,-10.33 -22.7,-10.34 -18.96,-10.34 -15,-10.33 -10.85,-10.33 -6.56,-10.34 -2.16,-8.82 1.35,-9.77 5.68,-10.33 9.98,-10.33 14.16,-10.34 18.18,-10.33 21.96,-10.34 25.47,-10.33 28.69,-10.33 31.54,-10.34 34.02,-10.34 36.07,-10.33 37.68,-10.33 38.84,-10.34 39.52,-10.33 39.72,-10.34 39.44,-10.33 38.66,-10.34 37.42,-10.33 35.72,-10.33 33.59,-10.34 31.04,-10.34 28.11,-10.33 24.85,-10.33 21.28,-10.34 17.45,-10.33 13.4,-10.34 9.19,-10.33 4.87,-10.34 0.49,-10.33 -3.89,-10.33 -8.23,-10.34 -12.48,-10.34 -16.55,-10.33 -20.44,-10.33 -24.08,-10.34 -27.41,-10.33 -30.42,-10.34 -33.05,-10.33 -35.28,-10.34 -37.08,-10.33 -38.43,-10.33 -39.3,-10.34 -39.7,-10.34 -39.6,-10.33 -39.04,-10.33 -37.98,-10.34 -36.47,-10.33 -34.52,-10.34 -32.12,-10.33 -29.36,-10.34 -26.23,-10.33 -22.77,-10.33 -19.04,-10.34 -15.08,-10.33 -10.93,-10.34 -6.65,-10.33 -2.23,-8.94 1.33,-9.83 5.67,-10.33 9.97,-10.33 14.15,-10.34 18.16,-10.33 21.95,-10.34 25.47,-10.33 28.68,-10.34 31.53,-10.33 34.01,-10.33 36.07,-10.34 37.68,-10.33 38.84,-10.34 39.52,-10.33 39.72,-10.34 39.43,-10.33 38.66,-10.34 37.43,-10.33 35.72,-10.33 33.6,-10.34 31.05,-10.33 28.12,-10.34 24.86,-10.33 21.29,-10.34 17.45,-10.33 13.41,-10.34 9.21,-10.33 4.88,-10.34 0.51,-10.33 -3.88,-10.33 -8.23,-10.34 -12.46,-10.33 -16.54,-10.34 -20.44,-10.334 -24.06,-10.332 -27.4,-10.336 -30.41,-10.332 -33.05,-10.336 -35.27,-10.336 -37.08,-10.332 -38.42,-10.336 -39.3,-10.336 -39.7,-10.332 -39.61,-10.336 -39.03,-10.336 -37.99,-10.332 -36.48,-10.336 -34.51,-10.332 -32.14,-10.336 -29.37,-10.336 -26.23,-10.332 -22.78,-10.336 -19.05,-10.336 -15.09,-10.332 -10.94,-10.336 -6.67,-10.336 -2.24,-8.961 1.33,-9.824 5.66,-10.332 9.97,-10.336 14.15,-10.336 18.16,-10.332 21.95,-10.336 25.47,-10.336 28.68,-10.332 31.53,-10.336 34.01,-10.336 36.06,-10.332 37.68,-10.336 38.84,-10.332 39.52,-10.336 39.72,-10.335 39.43,-10.333 38.67,-10.335 37.42,-10.336 35.73,-10.332 33.59,-10.336 31.06,-10.336 28.12,-10.332 24.86,-10.336 21.29,-10.332 17.46,-10.336 13.41,-10.336 9.21,-10.332 4.88,-10.336 0.51,-10.336 -3.88,-10.332 -8.22,-10.336 -12.46,-10.332 -16.55,-10.336 -20.43,-10.336 -24.06,-10.332 -27.4,-10.336 -30.41,-10.336 -4.4,-1.422"
             style="fill:none;stroke:#0000ff;stroke-width:4.16667;stroke-linecap:butt;stroke-linejoin:miter;stroke-miterlimit:1;stroke-dasharray:none;stroke-opacity:1"
             id="path252" /></g></g></g></g></svg>
