<?xml version="1.0" encoding="UTF-8" standalone="no"?>
<svg
   xmlns:dc="http://purl.org/dc/elements/1.1/"
   xmlns:cc="http://creativecommons.org/ns#"
   xmlns:rdf="http://www.w3.org/1999/02/22-rdf-syntax-ns#"
   xmlns:svg="http://www.w3.org/2000/svg"
   xmlns="http://www.w3.org/2000/svg"
   version="1.1"
   id="svg10"
   xml:space="preserve"
   width="484.85068"
   height="204.68739"
   viewBox="0 0 484.85068 204.68739"><metadata
     id="metadata16"><rdf:RDF><cc:Work
         rdf:about=""><dc:format>image/svg+xml</dc:format><dc:type
           rdf:resource="http://purl.org/dc/dcmitype/StillImage" /><dc:title></dc:title></cc:Work></rdf:RDF></metadata><defs
     id="defs14"><clipPath
       clipPathUnits="userSpaceOnUse"
       id="clipPath28"><path
         d="M 300,375 H 2179.17 V 3133.33 H 300 Z"
         id="path26" /></clipPath></defs><g
     id="g18"
     transform="matrix(1.3333333,0,0,-1.3333333,-104.11015,660.08822)"><g
       id="g20"
       transform="scale(0.24)"><g
         id="g22"><g
           id="g24"
           clip-path="url(#clipPath28)"><path
             d="M 1230.34,1975.6 V 1580.16"
             style="fill:none;stroke:#ffffff;stroke-width:4.16667;stroke-linecap:butt;stroke-linejoin:miter;stroke-miterlimit:10;stroke-dasharray:none;stroke-opacity:1"
             id="path30" /><path
             d="M 1195.19,1975.6 V 1580.16"
             style="fill:none;stroke:#ffffff;stroke-width:4.16667;stroke-linecap:butt;stroke-linejoin:miter;stroke-miterlimit:10;stroke-dasharray:none;stroke-opacity:1"
             id="path32" /><path
             d="m 1104.74,1691.82 c 3.44,-3.43 3.44,-8.99 0,-12.43 -3.43,-3.43 -8.99,-3.43 -12.42,0 -3.44,3.44 -3.44,9 0,12.43 3.43,3.43 8.99,3.43 12.42,0"
             style="fill:none;stroke:#ffffff;stroke-width:4.16667;stroke-linecap:butt;stroke-linejoin:miter;stroke-miterlimit:10;stroke-dasharray:none;stroke-opacity:1"
             id="path34" /><path
             d="m 1091.25,1771.98 3.91,3.38 4.38,2.76 4.72,2.1 4.99,1.38 5.13,0.63 5.17,-0.13 5.09,-0.88 4.91,-1.62 4.63,-2.33 4.22,-2.98 3.75,-3.56 3.18,-4.08 2.55,-4.5 1.86,-4.83 1.14,-5.04 0.37,-5.16 -0.37,-5.16 -1.14,-5.04 -1.86,-4.83 -2.55,-4.5 -3.18,-4.07 -3.75,-3.57 -4.22,-2.98 -4.63,-2.32 -4.91,-1.63 -5.09,-0.88 -5.17,-0.12 -5.13,0.63 -4.99,1.38 -4.72,2.09 -4.38,2.77 -3.91,3.38"
             style="fill:none;stroke:#ffffff;stroke-width:4.16667;stroke-linecap:butt;stroke-linejoin:miter;stroke-miterlimit:10;stroke-dasharray:none;stroke-opacity:1"
             id="path36" /><path
             d="m 1091.25,1719.25 3.23,2.86 3.55,2.44 3.83,1.98 4.04,1.51 4.19,0.99 4.29,0.47 4.31,-0.05 4.27,-0.58 4.17,-1.1 4,-1.6 3.78,-2.08 3.49,-2.52 3.16,-2.94 2.78,-3.29 2.35,-3.62 1.89,-3.87 1.4,-4.08 0.9,-4.22 0.36,-4.29 -0.15,-4.31 -0.69,-4.25 -1.2,-4.15 -1.7,-3.96 -2.17,-3.72 -2.61,-3.43 -3.01,-3.09 -3.37,-2.69 -3.67,-2.26 -3.92,-1.8 -4.11,-1.3 -4.23,-0.79 -4.3,-0.26"
             style="fill:none;stroke:#ffffff;stroke-width:4.16667;stroke-linecap:butt;stroke-linejoin:miter;stroke-miterlimit:10;stroke-dasharray:none;stroke-opacity:1"
             id="path38" /><path
             d="m 1116.11,1835 4.3,-0.27 4.23,-0.78 4.11,-1.31 3.92,-1.79 3.67,-2.26 3.37,-2.7 3.01,-3.09 2.61,-3.42 2.17,-3.73 1.7,-3.96 1.2,-4.14 0.69,-4.26 0.15,-4.31 -0.36,-4.29 -0.9,-4.22 -1.4,-4.08 -1.89,-3.87 -2.35,-3.61 -2.78,-3.3 -3.16,-2.93 -3.49,-2.53 -3.78,-2.08 -4,-1.6 -4.17,-1.1 -4.27,-0.58 -4.31,-0.05 -4.29,0.47 -4.19,1 -4.04,1.5 -3.83,1.99 -3.55,2.44 -3.23,2.85"
             style="fill:none;stroke:#ffffff;stroke-width:4.16667;stroke-linecap:butt;stroke-linejoin:miter;stroke-miterlimit:10;stroke-dasharray:none;stroke-opacity:1"
             id="path40" /><g
             id="g42"
             transform="scale(4.16667)"><text
               transform="matrix(1,0,0,-1,247.829,422.745)"
               style="font-variant:normal;font-weight:normal;font-size:11.5995px;font-family:Geneva;-inkscape-font-specification:Geneva;writing-mode:lr-tb;fill:#999999;fill-opacity:1;fill-rule:nonzero;stroke:none"
               id="text46"><tspan
                 x="0 6.7683091"
                 y="0"
                 id="tspan44">L1</tspan></text><text
               transform="matrix(1,0,0,-1,235.1756,415.28156)"
               style="font-variant:normal;font-weight:normal;font-size:7.73302px;font-family:Geneva;-inkscape-font-specification:Geneva;writing-mode:lr-tb;fill:#999999;fill-opacity:1;fill-rule:nonzero;stroke:none"
               id="text50"><tspan
                 x="0 5.154057 10.308114 12.655087 17.809143"
                 y="0"
                 id="tspan48">52.9m</tspan></text></g><path
             d="m 790.965,1729.55 h 17.574"
             style="fill:none;stroke:#ffffff;stroke-width:4.16667;stroke-linecap:butt;stroke-linejoin:miter;stroke-miterlimit:10;stroke-dasharray:none;stroke-opacity:1"
             id="path52" /><path
             d="m 790.965,1624.1 h 17.574"
             style="fill:none;stroke:#ffffff;stroke-width:4.16667;stroke-linecap:butt;stroke-linejoin:miter;stroke-miterlimit:10;stroke-dasharray:none;stroke-opacity:1"
             id="path54" /><path
             d="m 799.754,1738.34 v -17.58"
             style="fill:none;stroke:#ffffff;stroke-width:4.16667;stroke-linecap:butt;stroke-linejoin:miter;stroke-miterlimit:10;stroke-dasharray:none;stroke-opacity:1"
             id="path56" /><path
             d="m 799.754,1588.95 v 17.57"
             style="fill:none;stroke:#ffffff;stroke-width:4.16667;stroke-linecap:butt;stroke-linejoin:miter;stroke-miterlimit:10;stroke-dasharray:none;stroke-opacity:1"
             id="path58" /><path
             d="m 799.754,1764.7 v -17.58"
             style="fill:none;stroke:#ffffff;stroke-width:4.16667;stroke-linecap:butt;stroke-linejoin:miter;stroke-miterlimit:10;stroke-dasharray:none;stroke-opacity:1"
             id="path60" /><path
             d="m 849.465,1726.53 c 27.453,-27.45 27.453,-71.96 0,-99.42 -27.457,-27.45 -71.969,-27.45 -99.422,0 -27.453,27.46 -27.453,71.97 0,99.42 27.453,27.45 71.965,27.45 99.422,0"
             style="fill:none;stroke:#ffffff;stroke-width:4.16667;stroke-linecap:butt;stroke-linejoin:miter;stroke-miterlimit:10;stroke-dasharray:none;stroke-opacity:1"
             id="path62" /><path
             d="m 852.477,1676.82 -0.125,-2.58 -0.379,-2.56 -0.629,-2.51 -0.871,-2.44 -1.106,-2.34 -1.332,-2.21 -1.539,-2.08 -1.738,-1.92 -1.918,-1.74 -2.078,-1.54 -2.219,-1.33 -2.34,-1.11 -2.433,-0.87 -2.512,-0.63 -2.559,-0.37 -2.582,-0.13 -2.586,0.13 -2.558,0.37 -2.508,0.63 -2.438,0.87 -2.339,1.11 -2.219,1.33 -2.078,1.54 -1.918,1.74 -1.735,1.92 -1.543,2.08 -1.328,2.21 -1.105,2.34 -0.875,2.44 -0.629,2.51 -0.379,2.56 -0.125,2.58"
             style="fill:none;stroke:#ffffff;stroke-width:4.16667;stroke-linecap:butt;stroke-linejoin:miter;stroke-miterlimit:10;stroke-dasharray:none;stroke-opacity:1"
             id="path64" /><path
             d="m 747.027,1676.82 0.129,2.59 0.379,2.55 0.629,2.51 0.871,2.44 1.106,2.34 1.332,2.22 1.539,2.08 1.738,1.91 1.918,1.74 2.078,1.54 2.219,1.33 2.336,1.11 2.437,0.87 2.508,0.63 2.563,0.38 2.582,0.12 2.586,-0.12 2.558,-0.38 2.508,-0.63 2.437,-0.87 2.336,-1.11 2.219,-1.33 2.078,-1.54 1.918,-1.74 1.739,-1.91 1.539,-2.08 1.332,-2.22 1.105,-2.34 0.871,-2.44 0.629,-2.51 0.379,-2.55 0.129,-2.59"
             style="fill:none;stroke:#ffffff;stroke-width:4.16667;stroke-linecap:butt;stroke-linejoin:miter;stroke-miterlimit:10;stroke-dasharray:none;stroke-opacity:1"
             id="path66" /><g
             id="g68"
             transform="scale(4.16667)"><text
               transform="matrix(1,0,0,-1,77.5275,397.437)"
               style="font-variant:normal;font-weight:normal;font-size:11.5995px;font-family:Geneva;-inkscape-font-specification:Geneva;writing-mode:lr-tb;fill:#999999;fill-opacity:1;fill-rule:nonzero;stroke:none"
               id="text74"><tspan
                 x="0 7.0292969 9.8386908 18.056938 24.73477 29.917425 37.648491 41.516918 49.247982 56.979065 64.710129 68.578568 76.309631 84.04071"
                 y="0"
                 id="tspan70">SINE(0 325 50)</tspan><tspan
                 x="127.067 135.50099 138.22804"
                 y="-21.09"
                 id="tspan72">Vin</tspan></text><text
               transform="matrix(1,0,0,-1,77.5275,386.2826)"
               style="font-variant:normal;font-weight:normal;font-size:7.73302px;font-family:Geneva;-inkscape-font-specification:Geneva;writing-mode:lr-tb;fill:#999999;fill-opacity:1;fill-rule:nonzero;stroke:none"
               id="text78"><tspan
                 x="0 4.6862102 8.6246319 13.07653 16.063028 21.217085 26.371149 28.715799 33.869858 39.023922 44.177979"
                 y="0"
                 id="tspan76">Rser=0.0001</tspan></text></g><path
             d="m 1315.64,1832.42 c 3.43,-3.43 3.43,-8.99 0,-12.42 -3.43,-3.44 -8.99,-3.44 -12.43,0 -3.42,3.43 -3.42,8.99 0,12.42 3.44,3.44 9,3.44 12.43,0"
             style="fill:none;stroke:#ffffff;stroke-width:4.16667;stroke-linecap:butt;stroke-linejoin:miter;stroke-miterlimit:10;stroke-dasharray:none;stroke-opacity:1"
             id="path80" /><path
             d="m 1316.71,1862.87 -3.92,-3.38 -4.37,-2.77 -4.72,-2.09 -4.99,-1.38 -5.13,-0.64 -5.17,0.13 -5.1,0.89 -4.91,1.62 -4.61,2.32 -4.24,2.98 -3.74,3.57 -3.18,4.08 -2.55,4.5 -1.86,4.82 -1.13,5.05 -0.39,5.15 0.39,5.16 1.13,5.05 1.86,4.82 2.55,4.5 3.18,4.08 3.74,3.56 4.24,2.98 4.61,2.33 4.91,1.62 5.1,0.88 5.17,0.13 5.13,-0.63 4.99,-1.38 4.72,-2.1 4.37,-2.77 3.92,-3.37"
             style="fill:none;stroke:#ffffff;stroke-width:4.16667;stroke-linecap:butt;stroke-linejoin:miter;stroke-miterlimit:10;stroke-dasharray:none;stroke-opacity:1"
             id="path82" /><path
             d="m 1291.86,1799.85 -4.31,0.26 -4.24,0.79 -4.11,1.3 -3.91,1.8 -3.68,2.26 -3.36,2.69 -3.01,3.09 -2.61,3.43 -2.17,3.73 -1.7,3.96 -1.2,4.14 -0.68,4.25 -0.17,4.31 0.38,4.3 0.89,4.21 1.4,4.08 1.89,3.87 2.35,3.62 2.78,3.29 3.15,2.94 3.5,2.53 3.77,2.07 4.01,1.6 4.17,1.1 4.27,0.58 4.31,0.06 4.28,-0.48 4.2,-1 4.04,-1.5 3.83,-1.99 3.55,-2.43 3.23,-2.86"
             style="fill:none;stroke:#ffffff;stroke-width:4.16667;stroke-linecap:butt;stroke-linejoin:miter;stroke-miterlimit:10;stroke-dasharray:none;stroke-opacity:1"
             id="path84" /><path
             d="m 1316.71,1915.59 -3.23,-2.85 -3.55,-2.44 -3.83,-1.99 -4.04,-1.5 -4.2,-0.99 -4.28,-0.48 -4.31,0.05 -4.27,0.58 -4.17,1.1 -4.01,1.6 -3.77,2.08 -3.5,2.53 -3.15,2.93 -2.78,3.3 -2.35,3.61 -1.89,3.88 -1.4,4.07 -0.89,4.22 -0.38,4.3 0.17,4.3 0.68,4.26 1.2,4.14 1.7,3.96 2.17,3.73 2.61,3.43 3.01,3.08 3.36,2.69 3.68,2.27 3.91,1.79 4.11,1.3 4.24,0.79 4.31,0.27"
             style="fill:none;stroke:#ffffff;stroke-width:4.16667;stroke-linecap:butt;stroke-linejoin:miter;stroke-miterlimit:10;stroke-dasharray:none;stroke-opacity:1"
             id="path86" /><g
             id="g88"
             transform="scale(4.16667)"><text
               transform="matrix(1,0,0,-1,322.435,455.962)"
               style="font-variant:normal;font-weight:normal;font-size:11.5995px;font-family:Geneva;-inkscape-font-specification:Geneva;writing-mode:lr-tb;fill:#999999;fill-opacity:1;fill-rule:nonzero;stroke:none"
               id="text92"><tspan
                 x="0 6.7683091"
                 y="0"
                 id="tspan90">L2</tspan></text><text
               transform="matrix(1,0,0,-1,321.82187,446.38919)"
               style="font-variant:normal;font-weight:normal;font-size:7.73302px;font-family:Geneva;-inkscape-font-specification:Geneva;writing-mode:lr-tb;fill:#999999;fill-opacity:1;fill-rule:nonzero;stroke:none"
               id="text96"><tspan
                 x="0 5.154057 10.308114"
                 y="0"
                 id="tspan94">40m</tspan></text></g><path
             d="m 1315.64,1621.52 c 3.43,-3.43 3.43,-8.99 0,-12.43 -3.43,-3.43 -8.99,-3.43 -12.43,0 -3.42,3.44 -3.42,9 0,12.43 3.44,3.43 9,3.43 12.43,0"
             style="fill:none;stroke:#ffffff;stroke-width:4.16667;stroke-linecap:butt;stroke-linejoin:miter;stroke-miterlimit:10;stroke-dasharray:none;stroke-opacity:1"
             id="path98" /><path
             d="m 1316.71,1651.96 -3.92,-3.37 -4.37,-2.77 -4.72,-2.09 -4.99,-1.38 -5.13,-0.64 -5.17,0.13 -5.1,0.89 -4.91,1.62 -4.61,2.32 -4.24,2.98 -3.74,3.56 -3.18,4.08 -2.55,4.5 -1.86,4.83 -1.13,5.04 -0.39,5.16 0.39,5.16 1.13,5.05 1.86,4.82 2.55,4.5 3.18,4.08 3.74,3.56 4.24,2.98 4.61,2.33 4.91,1.62 5.1,0.88 5.17,0.13 5.13,-0.63 4.99,-1.38 4.72,-2.1 4.37,-2.77 3.92,-3.37"
             style="fill:none;stroke:#ffffff;stroke-width:4.16667;stroke-linecap:butt;stroke-linejoin:miter;stroke-miterlimit:10;stroke-dasharray:none;stroke-opacity:1"
             id="path100" /><path
             d="m 1291.86,1588.95 -4.31,0.26 -4.24,0.79 -4.11,1.3 -3.91,1.8 -3.68,2.26 -3.36,2.69 -3.01,3.09 -2.61,3.43 -2.17,3.72 -1.7,3.96 -1.2,4.14 -0.68,4.26 -0.17,4.31 0.38,4.29 0.89,4.22 1.4,4.08 1.89,3.87 2.35,3.62 2.78,3.3 3.15,2.93 3.5,2.52 3.77,2.08 4.01,1.6 4.17,1.1 4.27,0.58 4.31,0.05 4.28,-0.47 4.2,-1 4.04,-1.5 3.83,-1.98 3.55,-2.44 3.23,-2.86"
             style="fill:none;stroke:#ffffff;stroke-width:4.16667;stroke-linecap:butt;stroke-linejoin:miter;stroke-miterlimit:10;stroke-dasharray:none;stroke-opacity:1"
             id="path102" /><path
             d="m 1316.71,1704.69 -3.23,-2.85 -3.55,-2.44 -3.83,-1.99 -4.04,-1.5 -4.2,-1 -4.28,-0.47 -4.31,0.05 -4.27,0.58 -4.17,1.1 -4.01,1.6 -3.77,2.08 -3.5,2.53 -3.15,2.93 -2.78,3.3 -2.35,3.61 -1.89,3.87 -1.4,4.08 -0.89,4.22 -0.38,4.29 0.17,4.31 0.68,4.26 1.2,4.14 1.7,3.96 2.17,3.72 2.61,3.44 3.01,3.08 3.36,2.7 3.68,2.26 3.91,1.79 4.11,1.3 4.24,0.79 4.31,0.27"
             style="fill:none;stroke:#ffffff;stroke-width:4.16667;stroke-linecap:butt;stroke-linejoin:miter;stroke-miterlimit:10;stroke-dasharray:none;stroke-opacity:1"
             id="path104" /><g
             id="g106"
             transform="scale(4.16667)"><text
               transform="matrix(1,0,0,-1,318.744,402.71)"
               style="font-variant:normal;font-weight:normal;font-size:11.5995px;font-family:Geneva;-inkscape-font-specification:Geneva;writing-mode:lr-tb;fill:#999999;fill-opacity:1;fill-rule:nonzero;stroke:none"
               id="text110"><tspan
                 x="0 6.7683091"
                 y="0"
                 id="tspan108">L3</tspan></text><text
               transform="matrix(1,0,0,-1,318.89494,393.665)"
               style="font-variant:normal;font-weight:normal;font-size:7.73302px;font-family:Geneva;-inkscape-font-specification:Geneva;writing-mode:lr-tb;fill:#999999;fill-opacity:1;fill-rule:nonzero;stroke:none"
               id="text114"><tspan
                 x="0 5.154057 10.308114 12.655087 17.809143 22.959421"
                 y="0"
                 id="tspan112">39.69µ</tspan></text></g><path
             d="m 1502.75,2008.93 h 82.74 l 24.17,-33.33 -24.17,-33.33 h -82.74 z"
             style="fill:none;stroke:#ffffff;stroke-width:4.16667;stroke-linecap:butt;stroke-linejoin:miter;stroke-miterlimit:10;stroke-dasharray:none;stroke-opacity:1"
             id="path116" /><g
             id="g118"
             transform="scale(4.16667)"><text
               transform="matrix(1,0,0,-1,362.243,469.144)"
               style="font-variant:normal;font-weight:normal;font-size:11.5995px;font-family:Geneva;-inkscape-font-specification:Geneva;writing-mode:lr-tb;fill:#999999;fill-opacity:1;fill-rule:nonzero;stroke:none"
               id="text122"><tspan
                 x="0 8.433979"
                 y="0"
                 id="tspan120">AC</tspan></text></g><path
             d="m 1502.75,1798.03 h 127.42 l 24.16,-33.33 -24.16,-33.34 h -127.42 z"
             style="fill:none;stroke:#ffffff;stroke-width:4.16667;stroke-linecap:butt;stroke-linejoin:miter;stroke-miterlimit:10;stroke-dasharray:none;stroke-opacity:1"
             id="path124" /><g
             id="g126"
             transform="scale(4.16667)"><text
               transform="matrix(1,0,0,-1,362.243,418.527)"
               style="font-variant:normal;font-weight:normal;font-size:11.5995px;font-family:Geneva;-inkscape-font-specification:Geneva;writing-mode:lr-tb;fill:#999999;fill-opacity:1;fill-rule:nonzero;stroke:none"
               id="text130"><tspan
                 x="0 7.9978561 18.976782"
                 y="0"
                 id="tspan128">HW+</tspan></text></g><path
             d="m 1507.15,1870.15 h 61.51 l -30.75,-30.76 z"
             style="fill:none;stroke:#ffffff;stroke-width:4.16667;stroke-linecap:butt;stroke-linejoin:miter;stroke-miterlimit:10;stroke-dasharray:none;stroke-opacity:1"
             id="path132" /><path
             d="m 1502.75,1622.28 h 113.52 l 24.16,-33.33 -24.16,-33.34 h -113.52 z"
             style="fill:none;stroke:#ffffff;stroke-width:4.16667;stroke-linecap:butt;stroke-linejoin:miter;stroke-miterlimit:10;stroke-dasharray:none;stroke-opacity:1"
             id="path134" /><g
             id="g136"
             transform="scale(4.16667)"><text
               transform="matrix(1,0,0,-1,362.243,376.347)"
               style="font-variant:normal;font-weight:normal;font-size:11.5995px;font-family:Geneva;-inkscape-font-specification:Geneva;writing-mode:lr-tb;fill:#999999;fill-opacity:1;fill-rule:nonzero;stroke:none"
               id="text144"><tspan
                 x="0 7.9978561 18.976782"
                 y="0"
                 id="tspan138">HW-</tspan><tspan
                 x="-102.814 -95.12236 -91.258583 -84.494934 -76.768494 -72.904716 -66.141068 -58.414631 -54.550854 -47.787205 -40.060768 -36.196991"
                 y="-109.668"
                 id="tspan140">K L1 L2 L3 1</tspan></text></g><g
             id="g146"
             transform="scale(4.16667)"><text
               transform="matrix(1,0,0,-1,259.429,355.257)"
               style="font-variant:normal;font-weight:normal;font-size:11.5995px;font-family:Geneva;-inkscape-font-specification:Geneva;writing-mode:lr-tb;fill:#999999;fill-opacity:1;fill-rule:nonzero;stroke:none"
               id="text152"><tspan
                 x="0 6.7683091 11.248031 13.972741 17.489704 21.358139 29.089205 36.820271 44.551308 48.419743 56.853722 65.287697 72.843628 76.712036 81.191788 91.561737"
                 y="0"
                 id="tspan148">Pri: 230 VAC rms</tspan><tspan
                 x="0 7.0292969 13.707123 20.033508 23.550472 27.418905 35.149971 42.881008 50.612072 54.480507 62.914486 71.348465 78.904366 82.772804 87.252556 97.622505 103.53011 107.04707 110.9155 118.64658 122.16354 129.89461 133.76303 142.19702 150.631 158.1869 162.05533 166.53505 176.905"
                 y="11.5997"
                 id="tspan150">Sec: 200 VAC rms; 6.3 VAC rms</tspan></text></g><path
             d="M 1502.75,1975.6 H 1291.86"
             style="fill:none;stroke:#ffffff;stroke-width:4.16667;stroke-linecap:butt;stroke-linejoin:miter;stroke-miterlimit:10;stroke-dasharray:none;stroke-opacity:1"
             id="path154" /><path
             d="m 1537.91,1905.3 h -70.3"
             style="fill:none;stroke:#ffffff;stroke-width:4.16667;stroke-linecap:butt;stroke-linejoin:miter;stroke-miterlimit:10;stroke-dasharray:none;stroke-opacity:1"
             id="path156" /><path
             d="m 1537.91,1870.15 v 35.15"
             style="fill:none;stroke:#ffffff;stroke-width:4.16667;stroke-linecap:butt;stroke-linejoin:miter;stroke-miterlimit:10;stroke-dasharray:none;stroke-opacity:1"
             id="path158" /><path
             d="M 1116.11,1835 H 799.754"
             style="fill:none;stroke:#ffffff;stroke-width:4.16667;stroke-linecap:butt;stroke-linejoin:miter;stroke-miterlimit:10;stroke-dasharray:none;stroke-opacity:1"
             id="path160" /><path
             d="M 1467.61,1799.85 V 1905.3"
             style="fill:none;stroke:#ffffff;stroke-width:4.16667;stroke-linecap:butt;stroke-linejoin:miter;stroke-miterlimit:10;stroke-dasharray:none;stroke-opacity:1"
             id="path162" /><path
             d="M 1467.61,1799.85 H 1291.86"
             style="fill:none;stroke:#ffffff;stroke-width:4.16667;stroke-linecap:butt;stroke-linejoin:miter;stroke-miterlimit:10;stroke-dasharray:none;stroke-opacity:1"
             id="path164" /><path
             d="M 799.754,1764.7 V 1835"
             style="fill:none;stroke:#ffffff;stroke-width:4.16667;stroke-linecap:butt;stroke-linejoin:miter;stroke-miterlimit:10;stroke-dasharray:none;stroke-opacity:1"
             id="path166" /><path
             d="M 1502.75,1764.7 H 1291.86"
             style="fill:none;stroke:#ffffff;stroke-width:4.16667;stroke-linecap:butt;stroke-linejoin:miter;stroke-miterlimit:10;stroke-dasharray:none;stroke-opacity:1"
             id="path168" /><path
             d="M 1502.75,1588.95 H 1291.86"
             style="fill:none;stroke:#ffffff;stroke-width:4.16667;stroke-linecap:butt;stroke-linejoin:miter;stroke-miterlimit:10;stroke-dasharray:none;stroke-opacity:1"
             id="path170" /><path
             d="m 799.754,1553.8 v 35.15"
             style="fill:none;stroke:#ffffff;stroke-width:4.16667;stroke-linecap:butt;stroke-linejoin:miter;stroke-miterlimit:10;stroke-dasharray:none;stroke-opacity:1"
             id="path172" /><path
             d="m 1116.11,1553.8 v 105.45"
             style="fill:none;stroke:#ffffff;stroke-width:4.16667;stroke-linecap:butt;stroke-linejoin:miter;stroke-miterlimit:10;stroke-dasharray:none;stroke-opacity:1"
             id="path174" /><path
             d="M 1116.11,1553.8 H 799.754"
             style="fill:none;stroke:#ffffff;stroke-width:4.16667;stroke-linecap:butt;stroke-linejoin:miter;stroke-miterlimit:10;stroke-dasharray:none;stroke-opacity:1"
             id="path176" /></g></g></g></g></svg>
