<?xml version="1.0" encoding="UTF-8" standalone="no"?>
<svg
   xmlns:dc="http://purl.org/dc/elements/1.1/"
   xmlns:cc="http://creativecommons.org/ns#"
   xmlns:rdf="http://www.w3.org/1999/02/22-rdf-syntax-ns#"
   xmlns:svg="http://www.w3.org/2000/svg"
   xmlns="http://www.w3.org/2000/svg"
   version="1.1"
   id="svg10"
   xml:space="preserve"
   width="442.78308"
   height="212.75458"
   viewBox="0 0 442.78308 212.75457"><metadata
     id="metadata16"><rdf:RDF><cc:Work
         rdf:about=""><dc:format>image/svg+xml</dc:format><dc:type
           rdf:resource="http://purl.org/dc/dcmitype/StillImage" /><dc:title></dc:title></cc:Work></rdf:RDF></metadata><defs
     id="defs14"><clipPath
       clipPathUnits="userSpaceOnUse"
       id="clipPath28"><path
         d="M 300,375 H 2179.17 V 3133.33 H 300 Z"
         id="path26" /></clipPath></defs><g
     id="g18"
     transform="matrix(1.3333333,0,0,-1.3333333,-104.25313,665.47188)"><g
       id="g20"
       transform="scale(0.24)"><g
         id="g22"><g
           id="g24"
           clip-path="url(#clipPath28)"><path
             d="M 1266.18,1984 V 1572.97"
             style="fill:none;stroke:#ffffff;stroke-width:4.16667;stroke-linecap:butt;stroke-linejoin:miter;stroke-miterlimit:10;stroke-dasharray:none;stroke-opacity:1"
             id="path30" /><path
             d="M 1229.65,1984 V 1572.97"
             style="fill:none;stroke:#ffffff;stroke-width:4.16667;stroke-linecap:butt;stroke-linejoin:miter;stroke-miterlimit:10;stroke-dasharray:none;stroke-opacity:1"
             id="path32" /><path
             d="m 1135.64,1689.04 c 3.56,-3.57 3.56,-9.35 0,-12.92 -3.57,-3.57 -9.35,-3.57 -12.92,0 -3.57,3.57 -3.57,9.35 0,12.92 3.57,3.57 9.35,3.57 12.92,0"
             style="fill:none;stroke:#ffffff;stroke-width:4.16667;stroke-linecap:butt;stroke-linejoin:miter;stroke-miterlimit:10;stroke-dasharray:none;stroke-opacity:1"
             id="path34" /><path
             d="m 1121.61,1772.35 4.07,3.51 4.54,2.88 4.92,2.17 5.18,1.44 5.33,0.66 5.38,-0.13 5.29,-0.92 5.11,-1.69 4.8,-2.42 4.39,-3.09 3.9,-3.71 3.3,-4.24 2.65,-4.67 1.94,-5.02 1.18,-5.24 0.39,-5.36 -0.39,-5.36 -1.18,-5.25 -1.94,-5.02 -2.65,-4.67 -3.3,-4.24 -3.9,-3.71 -4.39,-3.09 -4.8,-2.42 -5.11,-1.69 -5.29,-0.91 -5.38,-0.14 -5.33,0.66 -5.18,1.44 -4.92,2.17 -4.54,2.88 -4.07,3.51"
             style="fill:none;stroke:#ffffff;stroke-width:4.16667;stroke-linecap:butt;stroke-linejoin:miter;stroke-miterlimit:10;stroke-dasharray:none;stroke-opacity:1"
             id="path36" /><path
             d="m 1121.61,1717.55 3.36,2.97 3.69,2.53 3.98,2.06 4.2,1.57 4.36,1.03 4.45,0.49 4.48,-0.05 4.44,-0.6 4.34,-1.15 4.16,-1.66 3.92,-2.16 3.63,-2.63 3.29,-3.04 2.88,-3.43 2.44,-3.76 1.97,-4.02 1.46,-4.24 0.93,-4.39 0.38,-4.46 -0.17,-4.48 -0.71,-4.42 -1.25,-4.3 -1.76,-4.12 -2.26,-3.88 -2.71,-3.56 -3.13,-3.21 -3.5,-2.8 -3.81,-2.35 -4.08,-1.86 -4.27,-1.36 -4.4,-0.82 -4.47,-0.27"
             style="fill:none;stroke:#ffffff;stroke-width:4.16667;stroke-linecap:butt;stroke-linejoin:miter;stroke-miterlimit:10;stroke-dasharray:none;stroke-opacity:1"
             id="path38" /><path
             d="m 1147.45,1837.86 4.47,-0.28 4.4,-0.82 4.27,-1.35 4.08,-1.87 3.81,-2.35 3.5,-2.8 3.13,-3.21 2.71,-3.56 2.26,-3.87 1.76,-4.12 1.25,-4.31 0.71,-4.42 0.17,-4.48 -0.38,-4.46 -0.93,-4.39 -1.46,-4.23 -1.97,-4.03 -2.44,-3.76 -2.88,-3.42 -3.29,-3.05 -3.63,-2.63 -3.92,-2.16 -4.16,-1.66 -4.34,-1.15 -4.44,-0.6 -4.48,-0.05 -4.45,0.49 -4.36,1.04 -4.2,1.56 -3.98,2.06 -3.69,2.54 -3.36,2.96"
             style="fill:none;stroke:#ffffff;stroke-width:4.16667;stroke-linecap:butt;stroke-linejoin:miter;stroke-miterlimit:10;stroke-dasharray:none;stroke-opacity:1"
             id="path40" /><g
             id="g42"
             transform="scale(4.16667)"><text
               transform="matrix(1,0,0,-1,254.561,423.932)"
               style="font-variant:normal;font-weight:normal;font-size:12.0567px;font-family:Geneva;-inkscape-font-specification:Geneva;writing-mode:lr-tb;fill:#999999;fill-opacity:1;fill-rule:nonzero;stroke:none"
               id="text46"><tspan
                 x="0 7.0350914"
                 y="0"
                 id="tspan44">L1</tspan></text><text
               transform="matrix(1,0,0,-1,241.4088,416.11606)"
               style="font-variant:normal;font-weight:normal;font-size:8.03777px;font-family:Geneva;-inkscape-font-specification:Geneva;writing-mode:lr-tb;fill:#999999;fill-opacity:1;fill-rule:nonzero;stroke:none"
               id="text50"><tspan
                 x="0 5.3571787 10.714357 13.153816 18.510994"
                 y="0"
                 id="tspan48">52.9m</tspan></text></g><path
             d="m 809.492,1728.25 h 18.27"
             style="fill:none;stroke:#ffffff;stroke-width:4.16667;stroke-linecap:butt;stroke-linejoin:miter;stroke-miterlimit:10;stroke-dasharray:none;stroke-opacity:1"
             id="path52" /><path
             d="m 809.492,1618.64 h 18.27"
             style="fill:none;stroke:#ffffff;stroke-width:4.16667;stroke-linecap:butt;stroke-linejoin:miter;stroke-miterlimit:10;stroke-dasharray:none;stroke-opacity:1"
             id="path54" /><path
             d="m 818.625,1737.38 v -18.27"
             style="fill:none;stroke:#ffffff;stroke-width:4.16667;stroke-linecap:butt;stroke-linejoin:miter;stroke-miterlimit:10;stroke-dasharray:none;stroke-opacity:1"
             id="path56" /><path
             d="m 818.625,1582.11 v 18.27"
             style="fill:none;stroke:#ffffff;stroke-width:4.16667;stroke-linecap:butt;stroke-linejoin:miter;stroke-miterlimit:10;stroke-dasharray:none;stroke-opacity:1"
             id="path58" /><path
             d="m 818.625,1764.79 v -18.27"
             style="fill:none;stroke:#ffffff;stroke-width:4.16667;stroke-linecap:butt;stroke-linejoin:miter;stroke-miterlimit:10;stroke-dasharray:none;stroke-opacity:1"
             id="path60" /><path
             d="m 870.297,1725.11 c 28.535,-28.53 28.535,-74.8 0,-103.33 -28.539,-28.54 -74.801,-28.54 -103.34,0 -28.535,28.53 -28.535,74.8 0,103.33 28.539,28.54 74.801,28.54 103.34,0"
             style="fill:none;stroke:#ffffff;stroke-width:4.16667;stroke-linecap:butt;stroke-linejoin:miter;stroke-miterlimit:10;stroke-dasharray:none;stroke-opacity:1"
             id="path62" /><path
             d="m 873.43,1673.45 -0.133,-2.69 -0.395,-2.66 -0.652,-2.61 -0.906,-2.53 -1.149,-2.43 -1.382,-2.31 -1.602,-2.16 -1.809,-1.99 -1.992,-1.8 -2.16,-1.61 -2.305,-1.38 -2.429,-1.15 -2.532,-0.91 -2.609,-0.65 -2.66,-0.39 -2.688,-0.14 -2.683,0.14 -2.66,0.39 -2.61,0.65 -2.531,0.91 -2.434,1.15 -2.304,1.38 -2.16,1.61 -1.993,1.8 -1.804,1.99 -1.602,2.16 -1.383,2.31 -1.152,2.43 -0.902,2.53 -0.657,2.61 -0.394,2.66 -0.133,2.69"
             style="fill:none;stroke:#ffffff;stroke-width:4.16667;stroke-linecap:butt;stroke-linejoin:miter;stroke-miterlimit:10;stroke-dasharray:none;stroke-opacity:1"
             id="path64" /><path
             d="m 763.824,1673.45 0.133,2.68 0.395,2.66 0.652,2.61 0.906,2.53 1.149,2.43 1.382,2.31 1.602,2.16 1.805,1.99 1.996,1.81 2.16,1.6 2.305,1.38 2.429,1.15 2.532,0.91 2.609,0.65 2.66,0.39 2.688,0.14 2.683,-0.14 2.66,-0.39 2.61,-0.65 2.531,-0.91 2.43,-1.15 2.308,-1.38 2.16,-1.6 1.993,-1.81 1.804,-1.99 1.602,-2.16 1.383,-2.31 1.148,-2.43 0.906,-2.53 0.657,-2.61 0.394,-2.66 0.129,-2.68"
             style="fill:none;stroke:#ffffff;stroke-width:4.16667;stroke-linecap:butt;stroke-linejoin:miter;stroke-miterlimit:10;stroke-dasharray:none;stroke-opacity:1"
             id="path66" /><g
             id="g68"
             transform="scale(4.16667)"><text
               transform="matrix(1,0,0,-1,77.5481,397.627)"
               style="font-variant:normal;font-weight:normal;font-size:12.0567px;font-family:Geneva;-inkscape-font-specification:Geneva;writing-mode:lr-tb;fill:#999999;fill-opacity:1;fill-rule:nonzero;stroke:none"
               id="text74"><tspan
                 x="0 7.3063602 10.226484 18.768663 25.709696 31.096632 39.132423 43.153332 51.189129 59.224915 67.260696 71.281616 79.317413 87.353195"
                 y="0"
                 id="tspan70">SINE(0 230 50)</tspan><tspan
                 x="132.075 140.84142 143.67595"
                 y="-21.9216"
                 id="tspan72">Vin</tspan></text></g><path
             d="m 1354.85,1835.18 c 3.56,-3.57 3.56,-9.35 0,-12.92 -3.57,-3.56 -9.35,-3.56 -12.92,0 -3.57,3.57 -3.57,9.35 0,12.92 3.57,3.57 9.35,3.57 12.92,0"
             style="fill:none;stroke:#ffffff;stroke-width:4.16667;stroke-linecap:butt;stroke-linejoin:miter;stroke-miterlimit:10;stroke-dasharray:none;stroke-opacity:1"
             id="path76" /><path
             d="m 1355.96,1866.82 -4.07,-3.51 -4.55,-2.87 -4.91,-2.18 -5.18,-1.44 -5.34,-0.66 -5.37,0.14 -5.3,0.91 -5.1,1.69 -4.8,2.42 -4.39,3.09 -3.9,3.71 -3.31,4.24 -2.65,4.68 -1.93,5.01 -1.18,5.25 -0.39,5.36 0.39,5.36 1.18,5.24 1.93,5.02 2.65,4.67 3.31,4.24 3.9,3.71 4.39,3.1 4.8,2.41 5.1,1.69 5.3,0.92 5.37,0.13 5.34,-0.66 5.18,-1.44 4.91,-2.17 4.55,-2.88 4.07,-3.51"
             style="fill:none;stroke:#ffffff;stroke-width:4.16667;stroke-linecap:butt;stroke-linejoin:miter;stroke-miterlimit:10;stroke-dasharray:none;stroke-opacity:1"
             id="path78" /><path
             d="m 1330.12,1801.32 -4.47,0.27 -4.41,0.82 -4.27,1.36 -4.07,1.86 -3.82,2.35 -3.49,2.81 -3.13,3.2 -2.72,3.56 -2.25,3.88 -1.77,4.12 -1.25,4.3 -0.71,4.42 -0.16,4.48 0.38,4.46 0.93,4.39 1.46,4.24 1.96,4.02 2.45,3.76 2.88,3.43 3.29,3.05 3.62,2.62 3.93,2.16 4.16,1.67 4.33,1.14 4.44,0.6 4.48,0.05 4.46,-0.49 4.36,-1.03 4.2,-1.57 3.97,-2.06 3.7,-2.53 3.36,-2.97"
             style="fill:none;stroke:#ffffff;stroke-width:4.16667;stroke-linecap:butt;stroke-linejoin:miter;stroke-miterlimit:10;stroke-dasharray:none;stroke-opacity:1"
             id="path80" /><path
             d="m 1355.96,1921.63 -3.36,-2.97 -3.7,-2.54 -3.97,-2.06 -4.2,-1.56 -4.36,-1.04 -4.46,-0.49 -4.48,0.05 -4.44,0.61 -4.33,1.14 -4.16,1.66 -3.93,2.16 -3.62,2.63 -3.29,3.05 -2.88,3.43 -2.45,3.75 -1.96,4.03 -1.46,4.23 -0.93,4.39 -0.38,4.46 0.16,4.48 0.71,4.42 1.25,4.31 1.77,4.12 2.25,3.87 2.72,3.56 3.13,3.21 3.49,2.8 3.82,2.35 4.07,1.87 4.27,1.35 4.41,0.82 4.47,0.28"
             style="fill:none;stroke:#ffffff;stroke-width:4.16667;stroke-linecap:butt;stroke-linejoin:miter;stroke-miterlimit:10;stroke-dasharray:none;stroke-opacity:1"
             id="path82" /><g
             id="g84"
             transform="scale(4.16667)"><text
               transform="matrix(1,0,0,-1,332.108,458.458)"
               style="font-variant:normal;font-weight:normal;font-size:12.0567px;font-family:Geneva;-inkscape-font-specification:Geneva;writing-mode:lr-tb;fill:#999999;fill-opacity:1;fill-rule:nonzero;stroke:none"
               id="text88"><tspan
                 x="0 7.0350914"
                 y="0"
                 id="tspan86">L2</tspan></text><text
               transform="matrix(1,0,0,-1,331.4705,448.4492)"
               style="font-variant:normal;font-weight:normal;font-size:8.03777px;font-family:Geneva;-inkscape-font-specification:Geneva;writing-mode:lr-tb;fill:#999999;fill-opacity:1;fill-rule:nonzero;stroke:none"
               id="text92"><tspan
                 x="0 5.3571787 10.714357"
                 y="0"
                 id="tspan90">40m</tspan></text></g><path
             d="m 1354.85,1615.97 c 3.56,-3.57 3.56,-9.35 0,-12.92 -3.57,-3.57 -9.35,-3.57 -12.92,0 -3.57,3.57 -3.57,9.35 0,12.92 3.57,3.57 9.35,3.57 12.92,0"
             style="fill:none;stroke:#ffffff;stroke-width:4.16667;stroke-linecap:butt;stroke-linejoin:miter;stroke-miterlimit:10;stroke-dasharray:none;stroke-opacity:1"
             id="path94" /><path
             d="m 1355.96,1647.61 -4.07,-3.51 -4.55,-2.88 -4.91,-2.17 -5.18,-1.44 -5.34,-0.66 -5.37,0.14 -5.3,0.91 -5.1,1.69 -4.8,2.42 -4.39,3.09 -3.9,3.71 -3.31,4.24 -2.65,4.67 -1.93,5.02 -1.18,5.25 -0.39,5.36 0.39,5.35 1.18,5.25 1.93,5.02 2.65,4.67 3.31,4.24 3.9,3.71 4.39,3.09 4.8,2.42 5.1,1.69 5.3,0.91 5.37,0.14 5.34,-0.66 5.18,-1.44 4.91,-2.17 4.55,-2.88 4.07,-3.51"
             style="fill:none;stroke:#ffffff;stroke-width:4.16667;stroke-linecap:butt;stroke-linejoin:miter;stroke-miterlimit:10;stroke-dasharray:none;stroke-opacity:1"
             id="path96" /><path
             d="m 1330.12,1582.11 -4.47,0.27 -4.41,0.82 -4.27,1.35 -4.07,1.87 -3.82,2.35 -3.49,2.8 -3.13,3.21 -2.72,3.56 -2.25,3.87 -1.77,4.12 -1.25,4.31 -0.71,4.42 -0.16,4.48 0.38,4.46 0.93,4.39 1.46,4.24 1.96,4.02 2.45,3.76 2.88,3.43 3.29,3.04 3.62,2.63 3.93,2.16 4.16,1.66 4.33,1.15 4.44,0.6 4.48,0.05 4.46,-0.49 4.36,-1.03 4.2,-1.57 3.97,-2.06 3.7,-2.53 3.36,-2.97"
             style="fill:none;stroke:#ffffff;stroke-width:4.16667;stroke-linecap:butt;stroke-linejoin:miter;stroke-miterlimit:10;stroke-dasharray:none;stroke-opacity:1"
             id="path98" /><path
             d="m 1355.96,1702.41 -3.36,-2.96 -3.7,-2.54 -3.97,-2.06 -4.2,-1.56 -4.36,-1.04 -4.46,-0.49 -4.48,0.05 -4.44,0.6 -4.33,1.15 -4.16,1.66 -3.93,2.16 -3.62,2.63 -3.29,3.04 -2.88,3.43 -2.45,3.76 -1.96,4.03 -1.46,4.23 -0.93,4.39 -0.38,4.46 0.16,4.48 0.71,4.42 1.25,4.31 1.77,4.12 2.25,3.87 2.72,3.56 3.13,3.21 3.49,2.8 3.82,2.35 4.07,1.87 4.27,1.35 4.41,0.82 4.47,0.28"
             style="fill:none;stroke:#ffffff;stroke-width:4.16667;stroke-linecap:butt;stroke-linejoin:miter;stroke-miterlimit:10;stroke-dasharray:none;stroke-opacity:1"
             id="path100" /><g
             id="g102"
             transform="scale(4.16667)"><text
               transform="matrix(1,0,0,-1,328.271,403.107)"
               style="font-variant:normal;font-weight:normal;font-size:12.0567px;font-family:Geneva;-inkscape-font-specification:Geneva;writing-mode:lr-tb;fill:#999999;fill-opacity:1;fill-rule:nonzero;stroke:none"
               id="text106"><tspan
                 x="0 7.0350914"
                 y="0"
                 id="tspan104">L3</tspan></text><text
               transform="matrix(1,0,0,-1,328.42756,393.64669)"
               style="font-variant:normal;font-weight:normal;font-size:8.03777px;font-family:Geneva;-inkscape-font-specification:Geneva;writing-mode:lr-tb;fill:#999999;fill-opacity:1;fill-rule:nonzero;stroke:none"
               id="text110"><tspan
                 x="0 5.3571787 10.714357 13.153816 18.510994 23.864277"
                 y="0"
                 id="tspan108">39.69µ</tspan></text></g><path
             d="m 1549.33,2017.33 h 86 l 25.12,-33.33 -25.12,-33.34 h -86 z"
             style="fill:none;stroke:#ffffff;stroke-width:4.16667;stroke-linecap:butt;stroke-linejoin:miter;stroke-miterlimit:10;stroke-dasharray:none;stroke-opacity:1"
             id="path112" /><g
             id="g114"
             transform="scale(4.16667)"><text
               transform="matrix(1,0,0,-1,373.484,472.159)"
               style="font-variant:normal;font-weight:normal;font-size:12.0567px;font-family:Geneva;-inkscape-font-specification:Geneva;writing-mode:lr-tb;fill:#999999;fill-opacity:1;fill-rule:nonzero;stroke:none"
               id="text118"><tspan
                 x="0 8.7664223"
                 y="0"
                 id="tspan116">AC</tspan></text></g><path
             d="m 1549.33,1798.12 h 132.44 l 25.11,-33.33 -25.11,-33.34 h -132.44 z"
             style="fill:none;stroke:#ffffff;stroke-width:4.16667;stroke-linecap:butt;stroke-linejoin:miter;stroke-miterlimit:10;stroke-dasharray:none;stroke-opacity:1"
             id="path120" /><g
             id="g122"
             transform="scale(4.16667)"><text
               transform="matrix(1,0,0,-1,373.484,419.548)"
               style="font-variant:normal;font-weight:normal;font-size:12.0567px;font-family:Geneva;-inkscape-font-specification:Geneva;writing-mode:lr-tb;fill:#999999;fill-opacity:1;fill-rule:nonzero;stroke:none"
               id="text126"><tspan
                 x="0 8.3130722 19.724762"
                 y="0"
                 id="tspan124">HW+</tspan></text></g><path
             d="m 1553.9,1874.39 h 63.94 l -31.97,-31.97 z"
             style="fill:none;stroke:#ffffff;stroke-width:4.16667;stroke-linecap:butt;stroke-linejoin:miter;stroke-miterlimit:10;stroke-dasharray:none;stroke-opacity:1"
             id="path128" /><path
             d="m 1549.33,1615.44 h 117.99 l 25.12,-33.33 -25.12,-33.34 h -117.99 z"
             style="fill:none;stroke:#ffffff;stroke-width:4.16667;stroke-linecap:butt;stroke-linejoin:miter;stroke-miterlimit:10;stroke-dasharray:none;stroke-opacity:1"
             id="path130" /><g
             id="g132"
             transform="scale(4.16667)"><text
               transform="matrix(1,0,0,-1,373.484,375.706)"
               style="font-variant:normal;font-weight:normal;font-size:12.0567px;font-family:Geneva;-inkscape-font-specification:Geneva;writing-mode:lr-tb;fill:#999999;fill-opacity:1;fill-rule:nonzero;stroke:none"
               id="text140"><tspan
                 x="0 8.3130722 19.724762"
                 y="0"
                 id="tspan134">HW-</tspan><tspan
                 x="-106.866 -98.871208 -94.855125 -87.824867 -79.793892 -75.777809 -68.747551 -60.716599 -56.700516 -49.670258 -41.639282 -37.623199"
                 y="-113.99"
                 id="tspan136">K L1 L2 L3 1</tspan></text></g><g
             id="g142"
             transform="scale(4.16667)"><text
               transform="matrix(1,0,0,-1,266.618,353.784)"
               style="font-variant:normal;font-weight:normal;font-size:12.0567px;font-family:Geneva;-inkscape-font-specification:Geneva;writing-mode:lr-tb;fill:#999999;fill-opacity:1;fill-rule:nonzero;stroke:none"
               id="text148"><tspan
                 x="0 7.0350914 11.695013 14.522302 18.181517 22.202404 30.238188 38.273972 46.309784 50.330673 59.101929 67.873184"
                 y="0"
                 id="tspan144">Pri: 230 VAC</tspan><tspan
                 x="0 7.3063602 14.247416 20.823151 24.478733 28.49962 36.535404 44.571217 52.607002 56.627888 65.39431 74.160736 82.014481 85.670059 89.690979 97.726761 101.38234 109.41813 113.43904 122.20547 130.97189"
                 y="12.0563"
                 id="tspan146">Sec: 200 VAC; 6.3 VAC</tspan></text></g><path
             d="M 1549.33,1984 H 1330.12"
             style="fill:none;stroke:#ffffff;stroke-width:4.16667;stroke-linecap:butt;stroke-linejoin:miter;stroke-miterlimit:10;stroke-dasharray:none;stroke-opacity:1"
             id="path150" /><path
             d="M 1585.87,1910.93 H 1512.8"
             style="fill:none;stroke:#ffffff;stroke-width:4.16667;stroke-linecap:butt;stroke-linejoin:miter;stroke-miterlimit:10;stroke-dasharray:none;stroke-opacity:1"
             id="path152" /><path
             d="m 1585.87,1874.39 v 36.54"
             style="fill:none;stroke:#ffffff;stroke-width:4.16667;stroke-linecap:butt;stroke-linejoin:miter;stroke-miterlimit:10;stroke-dasharray:none;stroke-opacity:1"
             id="path154" /><path
             d="M 1147.45,1837.86 H 818.625"
             style="fill:none;stroke:#ffffff;stroke-width:4.16667;stroke-linecap:butt;stroke-linejoin:miter;stroke-miterlimit:10;stroke-dasharray:none;stroke-opacity:1"
             id="path156" /><path
             d="m 1512.8,1801.32 v 109.61"
             style="fill:none;stroke:#ffffff;stroke-width:4.16667;stroke-linecap:butt;stroke-linejoin:miter;stroke-miterlimit:10;stroke-dasharray:none;stroke-opacity:1"
             id="path158" /><path
             d="M 1512.8,1801.32 H 1330.12"
             style="fill:none;stroke:#ffffff;stroke-width:4.16667;stroke-linecap:butt;stroke-linejoin:miter;stroke-miterlimit:10;stroke-dasharray:none;stroke-opacity:1"
             id="path160" /><path
             d="m 818.625,1764.79 v 73.07"
             style="fill:none;stroke:#ffffff;stroke-width:4.16667;stroke-linecap:butt;stroke-linejoin:miter;stroke-miterlimit:10;stroke-dasharray:none;stroke-opacity:1"
             id="path162" /><path
             d="M 1549.33,1764.79 H 1330.12"
             style="fill:none;stroke:#ffffff;stroke-width:4.16667;stroke-linecap:butt;stroke-linejoin:miter;stroke-miterlimit:10;stroke-dasharray:none;stroke-opacity:1"
             id="path164" /><path
             d="M 1549.33,1582.11 H 1330.12"
             style="fill:none;stroke:#ffffff;stroke-width:4.16667;stroke-linecap:butt;stroke-linejoin:miter;stroke-miterlimit:10;stroke-dasharray:none;stroke-opacity:1"
             id="path166" /><path
             d="m 818.625,1545.57 v 36.54"
             style="fill:none;stroke:#ffffff;stroke-width:4.16667;stroke-linecap:butt;stroke-linejoin:miter;stroke-miterlimit:10;stroke-dasharray:none;stroke-opacity:1"
             id="path168" /><path
             d="m 1147.45,1545.57 v 109.61"
             style="fill:none;stroke:#ffffff;stroke-width:4.16667;stroke-linecap:butt;stroke-linejoin:miter;stroke-miterlimit:10;stroke-dasharray:none;stroke-opacity:1"
             id="path170" /><path
             d="M 1147.45,1545.57 H 818.625"
             style="fill:none;stroke:#ffffff;stroke-width:4.16667;stroke-linecap:butt;stroke-linejoin:miter;stroke-miterlimit:10;stroke-dasharray:none;stroke-opacity:1"
             id="path172" /></g></g></g></g></svg>
