<?xml version="1.0" encoding="UTF-8" standalone="no"?>
<svg
   xmlns:dc="http://purl.org/dc/elements/1.1/"
   xmlns:cc="http://creativecommons.org/ns#"
   xmlns:rdf="http://www.w3.org/1999/02/22-rdf-syntax-ns#"
   xmlns:svg="http://www.w3.org/2000/svg"
   xmlns="http://www.w3.org/2000/svg"
   version="1.1"
   id="svg673"
   xml:space="preserve"
   width="930.66876"
   height="541.16113"
   viewBox="0 0 930.66875 541.16113"><metadata
     id="metadata679"><rdf:RDF><cc:Work
         rdf:about=""><dc:format>image/svg+xml</dc:format><dc:type
           rdf:resource="http://purl.org/dc/dcmitype/StillImage" /><dc:title></dc:title></cc:Work></rdf:RDF></metadata><defs
     id="defs677"><clipPath
       clipPathUnits="userSpaceOnUse"
       id="clipPath691"><path
         d="m 375,299.582 h 1729.17 v 2908.34 H 375 Z"
         id="path689" /></clipPath><clipPath
       clipPathUnits="userSpaceOnUse"
       id="clipPath879"><path
         d="m 500,370.418 h 1520.83 v 2620.83 H 500 Z"
         id="path877" /></clipPath></defs><g
     id="g681"
     transform="matrix(0,-1.3333333,-1.3333333,0,1026.535,666.18281)"><g
       id="g683"
       transform="scale(0.24)"><g
         id="g685"><g
           id="g687"
           clip-path="url(#clipPath691)"><path
             d="M 500,2990.65 H 458.332"
             style="fill:none;stroke:#afafaf;stroke-width:4.16667;stroke-linecap:butt;stroke-linejoin:miter;stroke-miterlimit:10;stroke-dasharray:none;stroke-opacity:1"
             id="path693" /><g
             id="g695"
             transform="scale(4.16667)"><text
               transform="matrix(0,-1,-1,0,94.0003,726.186)"
               style="font-style:italic;font-variant:normal;font-weight:normal;font-size:14px;font-family:Menlo;-inkscape-font-specification:Menlo-Regular;writing-mode:lr-tb;fill:#afafaf;fill-opacity:1;fill-rule:nonzero;stroke:none"
               id="text699"><tspan
                 x="0 8.4280005"
                 y="0"
                 id="tspan697">0V</tspan></text></g><path
             d="M 500,2728.78 H 458.332"
             style="fill:none;stroke:#afafaf;stroke-width:4.16667;stroke-linecap:butt;stroke-linejoin:miter;stroke-miterlimit:10;stroke-dasharray:none;stroke-opacity:1"
             id="path701" /><g
             id="g703"
             transform="scale(4.16667)"><text
               transform="matrix(0,-1,-1,0,94.0003,667.55)"
               style="font-style:italic;font-variant:normal;font-weight:normal;font-size:14px;font-family:Menlo;-inkscape-font-specification:Menlo-Regular;writing-mode:lr-tb;fill:#afafaf;fill-opacity:1;fill-rule:nonzero;stroke:none"
               id="text707"><tspan
                 x="0 8.4280005 16.855413"
                 y="0"
                 id="tspan705">60V</tspan></text></g><path
             d="M 500,2466.9 H 458.332"
             style="fill:none;stroke:#afafaf;stroke-width:4.16667;stroke-linecap:butt;stroke-linejoin:miter;stroke-miterlimit:10;stroke-dasharray:none;stroke-opacity:1"
             id="path709" /><g
             id="g711"
             transform="scale(4.16667)"><text
               transform="matrix(0,-1,-1,0,94.0003,608.914)"
               style="font-style:italic;font-variant:normal;font-weight:normal;font-size:14px;font-family:Menlo;-inkscape-font-specification:Menlo-Regular;writing-mode:lr-tb;fill:#afafaf;fill-opacity:1;fill-rule:nonzero;stroke:none"
               id="text715"><tspan
                 x="0 8.4274139 16.855413 25.283415"
                 y="0"
                 id="tspan713">120V</tspan></text></g><path
             d="M 500,2205.03 H 458.332"
             style="fill:none;stroke:#afafaf;stroke-width:4.16667;stroke-linecap:butt;stroke-linejoin:miter;stroke-miterlimit:10;stroke-dasharray:none;stroke-opacity:1"
             id="path717" /><g
             id="g719"
             transform="scale(4.16667)"><text
               transform="matrix(0,-1,-1,0,94.0003,546.065)"
               style="font-style:italic;font-variant:normal;font-weight:normal;font-size:14px;font-family:Menlo;-inkscape-font-specification:Menlo-Regular;writing-mode:lr-tb;fill:#afafaf;fill-opacity:1;fill-rule:nonzero;stroke:none"
               id="text723"><tspan
                 x="0 8.4280005 16.856001 25.283415"
                 y="0"
                 id="tspan721">180V</tspan></text></g><path
             d="M 500,1943.15 H 458.332"
             style="fill:none;stroke:#afafaf;stroke-width:4.16667;stroke-linecap:butt;stroke-linejoin:miter;stroke-miterlimit:10;stroke-dasharray:none;stroke-opacity:1"
             id="path725" /><g
             id="g727"
             transform="scale(4.16667)"><text
               transform="matrix(0,-1,-1,0,94.0003,483.215)"
               style="font-style:italic;font-variant:normal;font-weight:normal;font-size:14px;font-family:Menlo;-inkscape-font-specification:Menlo-Regular;writing-mode:lr-tb;fill:#afafaf;fill-opacity:1;fill-rule:nonzero;stroke:none"
               id="text731"><tspan
                 x="0 8.4280005 16.856001 25.283415"
                 y="0"
                 id="tspan729">240V</tspan></text></g><path
             d="M 500,1681.28 H 458.332"
             style="fill:none;stroke:#afafaf;stroke-width:4.16667;stroke-linecap:butt;stroke-linejoin:miter;stroke-miterlimit:10;stroke-dasharray:none;stroke-opacity:1"
             id="path733" /><g
             id="g735"
             transform="scale(4.16667)"><text
               transform="matrix(0,-1,-1,0,94.0003,420.365)"
               style="font-style:italic;font-variant:normal;font-weight:normal;font-size:14px;font-family:Menlo;-inkscape-font-specification:Menlo-Regular;writing-mode:lr-tb;fill:#afafaf;fill-opacity:1;fill-rule:nonzero;stroke:none"
               id="text739"><tspan
                 x="0 8.4280005 16.856001 25.283415"
                 y="0"
                 id="tspan737">300V</tspan></text></g><path
             d="M 500,1419.41 H 458.332"
             style="fill:none;stroke:#afafaf;stroke-width:4.16667;stroke-linecap:butt;stroke-linejoin:miter;stroke-miterlimit:10;stroke-dasharray:none;stroke-opacity:1"
             id="path741" /><g
             id="g743"
             transform="scale(4.16667)"><text
               transform="matrix(0,-1,-1,0,94.0003,357.515)"
               style="font-style:italic;font-variant:normal;font-weight:normal;font-size:14px;font-family:Menlo;-inkscape-font-specification:Menlo-Regular;writing-mode:lr-tb;fill:#afafaf;fill-opacity:1;fill-rule:nonzero;stroke:none"
               id="text747"><tspan
                 x="0 8.4280005 16.855413 25.283415"
                 y="0"
                 id="tspan745">360V</tspan></text></g><path
             d="M 500,1157.53 H 458.332"
             style="fill:none;stroke:#afafaf;stroke-width:4.16667;stroke-linecap:butt;stroke-linejoin:miter;stroke-miterlimit:10;stroke-dasharray:none;stroke-opacity:1"
             id="path749" /><g
             id="g751"
             transform="scale(4.16667)"><text
               transform="matrix(0,-1,-1,0,94.0003,294.665)"
               style="font-style:italic;font-variant:normal;font-weight:normal;font-size:14px;font-family:Menlo;-inkscape-font-specification:Menlo-Regular;writing-mode:lr-tb;fill:#afafaf;fill-opacity:1;fill-rule:nonzero;stroke:none"
               id="text755"><tspan
                 x="0 8.4280005 16.855413 25.283415"
                 y="0"
                 id="tspan753">420V</tspan></text></g><path
             d="M 500,895.656 H 458.332"
             style="fill:none;stroke:#afafaf;stroke-width:4.16667;stroke-linecap:butt;stroke-linejoin:miter;stroke-miterlimit:10;stroke-dasharray:none;stroke-opacity:1"
             id="path757" /><g
             id="g759"
             transform="scale(4.16667)"><text
               transform="matrix(0,-1,-1,0,94.0003,231.815)"
               style="font-style:italic;font-variant:normal;font-weight:normal;font-size:14px;font-family:Menlo;-inkscape-font-specification:Menlo-Regular;writing-mode:lr-tb;fill:#afafaf;fill-opacity:1;fill-rule:nonzero;stroke:none"
               id="text763"><tspan
                 x="0 8.4280005 16.855413 25.283415"
                 y="0"
                 id="tspan761">480V</tspan></text></g><path
             d="M 500,633.781 H 458.332"
             style="fill:none;stroke:#afafaf;stroke-width:4.16667;stroke-linecap:butt;stroke-linejoin:miter;stroke-miterlimit:10;stroke-dasharray:none;stroke-opacity:1"
             id="path765" /><g
             id="g767"
             transform="scale(4.16667)"><text
               transform="matrix(0,-1,-1,0,94.0003,168.965)"
               style="font-style:italic;font-variant:normal;font-weight:normal;font-size:14px;font-family:Menlo;-inkscape-font-specification:Menlo-Regular;writing-mode:lr-tb;fill:#afafaf;fill-opacity:1;fill-rule:nonzero;stroke:none"
               id="text771"><tspan
                 x="0 8.4280005 16.855413 25.283415"
                 y="0"
                 id="tspan769">540V</tspan></text></g><path
             d="M 500,371.906 H 458.332"
             style="fill:none;stroke:#afafaf;stroke-width:4.16667;stroke-linecap:butt;stroke-linejoin:miter;stroke-miterlimit:10;stroke-dasharray:none;stroke-opacity:1"
             id="path773" /><g
             id="g775"
             transform="scale(4.16667)"><text
               transform="matrix(0,-1,-1,0,94.0003,106.115)"
               style="font-style:italic;font-variant:normal;font-weight:normal;font-size:14px;font-family:Menlo;-inkscape-font-specification:Menlo-Regular;writing-mode:lr-tb;fill:#afafaf;fill-opacity:1;fill-rule:nonzero;stroke:none"
               id="text781"><tspan
                 x="0 8.4274139 16.855413 25.283415"
                 y="0"
                 id="tspan777">600V</tspan><tspan
                 x="-630.07001 -638.49908 -646.92719 -655.35626 -663.78534"
                 y="-20"
                 id="tspan779">Am0.0</tspan></text></g><path
             d="m 500,2990.65 v 41.67"
             style="fill:none;stroke:#afafaf;stroke-width:4.16667;stroke-linecap:butt;stroke-linejoin:miter;stroke-miterlimit:10;stroke-dasharray:none;stroke-opacity:1"
             id="path783" /><g
             id="g785"
             transform="scale(4.16667)"><text
               transform="matrix(0,-1,-1,0,150.5,736.185)"
               style="font-style:italic;font-variant:normal;font-weight:normal;font-size:14px;font-family:Menlo;-inkscape-font-specification:Menlo-Regular;writing-mode:lr-tb;fill:#afafaf;fill-opacity:1;fill-rule:nonzero;stroke:none"
               id="text789"><tspan
                 x="0 -8.42906 -16.857189 -25.286249 -33.715309"
                 y="0"
                 id="tspan787">Am9.0</tspan></text></g><path
             d="m 652.082,2990.65 v 41.67"
             style="fill:none;stroke:#afafaf;stroke-width:4.16667;stroke-linecap:butt;stroke-linejoin:miter;stroke-miterlimit:10;stroke-dasharray:none;stroke-opacity:1"
             id="path791" /><g
             id="g793"
             transform="scale(4.16667)"><text
               transform="matrix(0,-1,-1,0,187,736.185)"
               style="font-style:italic;font-variant:normal;font-weight:normal;font-size:14px;font-family:Menlo;-inkscape-font-specification:Menlo-Regular;writing-mode:lr-tb;fill:#afafaf;fill-opacity:1;fill-rule:nonzero;stroke:none"
               id="text797"><tspan
                 x="0 -8.42906 -16.857189 -25.286249 -33.715309"
                 y="0"
                 id="tspan795">Am8.1</tspan></text></g><path
             d="m 804.168,2990.65 v 41.67"
             style="fill:none;stroke:#afafaf;stroke-width:4.16667;stroke-linecap:butt;stroke-linejoin:miter;stroke-miterlimit:10;stroke-dasharray:none;stroke-opacity:1"
             id="path799" /><g
             id="g801"
             transform="scale(4.16667)"><text
               transform="matrix(0,-1,-1,0,223.5,736.185)"
               style="font-style:italic;font-variant:normal;font-weight:normal;font-size:14px;font-family:Menlo;-inkscape-font-specification:Menlo-Regular;writing-mode:lr-tb;fill:#afafaf;fill-opacity:1;fill-rule:nonzero;stroke:none"
               id="text805"><tspan
                 x="0 -8.42906 -16.857189 -25.286249 -33.715309"
                 y="0"
                 id="tspan803">Am7.2</tspan></text></g><path
             d="m 956.25,2990.65 v 41.67"
             style="fill:none;stroke:#afafaf;stroke-width:4.16667;stroke-linecap:butt;stroke-linejoin:miter;stroke-miterlimit:10;stroke-dasharray:none;stroke-opacity:1"
             id="path807" /><g
             id="g809"
             transform="scale(4.16667)"><text
               transform="matrix(0,-1,-1,0,260,736.185)"
               style="font-style:italic;font-variant:normal;font-weight:normal;font-size:14px;font-family:Menlo;-inkscape-font-specification:Menlo-Regular;writing-mode:lr-tb;fill:#afafaf;fill-opacity:1;fill-rule:nonzero;stroke:none"
               id="text813"><tspan
                 x="0 -8.42906 -16.857189 -25.286249 -33.715309"
                 y="0"
                 id="tspan811">Am6.3</tspan></text></g><path
             d="m 1108.33,2990.65 v 41.67"
             style="fill:none;stroke:#afafaf;stroke-width:4.16667;stroke-linecap:butt;stroke-linejoin:miter;stroke-miterlimit:10;stroke-dasharray:none;stroke-opacity:1"
             id="path815" /><g
             id="g817"
             transform="scale(4.16667)"><text
               transform="matrix(0,-1,-1,0,296.5,736.185)"
               style="font-style:italic;font-variant:normal;font-weight:normal;font-size:14px;font-family:Menlo;-inkscape-font-specification:Menlo-Regular;writing-mode:lr-tb;fill:#afafaf;fill-opacity:1;fill-rule:nonzero;stroke:none"
               id="text821"><tspan
                 x="0 -8.42906 -16.857189 -25.286249 -33.715309"
                 y="0"
                 id="tspan819">Am5.4</tspan></text></g><path
             d="m 1260.42,2990.65 v 41.67"
             style="fill:none;stroke:#afafaf;stroke-width:4.16667;stroke-linecap:butt;stroke-linejoin:miter;stroke-miterlimit:10;stroke-dasharray:none;stroke-opacity:1"
             id="path823" /><g
             id="g825"
             transform="scale(4.16667)"><text
               transform="matrix(0,-1,-1,0,333,736.185)"
               style="font-style:italic;font-variant:normal;font-weight:normal;font-size:14px;font-family:Menlo;-inkscape-font-specification:Menlo-Regular;writing-mode:lr-tb;fill:#afafaf;fill-opacity:1;fill-rule:nonzero;stroke:none"
               id="text829"><tspan
                 x="0 -8.42906 -16.857189 -25.286249 -33.715309"
                 y="0"
                 id="tspan827">Am4.5</tspan></text></g><path
             d="m 1412.5,2990.65 v 41.67"
             style="fill:none;stroke:#afafaf;stroke-width:4.16667;stroke-linecap:butt;stroke-linejoin:miter;stroke-miterlimit:10;stroke-dasharray:none;stroke-opacity:1"
             id="path831" /><g
             id="g833"
             transform="scale(4.16667)"><text
               transform="matrix(0,-1,-1,0,369.5,736.185)"
               style="font-style:italic;font-variant:normal;font-weight:normal;font-size:14px;font-family:Menlo;-inkscape-font-specification:Menlo-Regular;writing-mode:lr-tb;fill:#afafaf;fill-opacity:1;fill-rule:nonzero;stroke:none"
               id="text837"><tspan
                 x="0 -8.42906 -16.857189 -25.286249 -33.715309"
                 y="0"
                 id="tspan835">Am3.6</tspan></text></g><path
             d="m 1564.58,2990.65 v 41.67"
             style="fill:none;stroke:#afafaf;stroke-width:4.16667;stroke-linecap:butt;stroke-linejoin:miter;stroke-miterlimit:10;stroke-dasharray:none;stroke-opacity:1"
             id="path839" /><g
             id="g841"
             transform="scale(4.16667)"><text
               transform="matrix(0,-1,-1,0,406,736.185)"
               style="font-style:italic;font-variant:normal;font-weight:normal;font-size:14px;font-family:Menlo;-inkscape-font-specification:Menlo-Regular;writing-mode:lr-tb;fill:#afafaf;fill-opacity:1;fill-rule:nonzero;stroke:none"
               id="text845"><tspan
                 x="0 -8.42906 -16.857189 -25.286249 -33.715309"
                 y="0"
                 id="tspan843">Am2.7</tspan></text></g><path
             d="m 1716.67,2990.65 v 41.67"
             style="fill:none;stroke:#afafaf;stroke-width:4.16667;stroke-linecap:butt;stroke-linejoin:miter;stroke-miterlimit:10;stroke-dasharray:none;stroke-opacity:1"
             id="path847" /><g
             id="g849"
             transform="scale(4.16667)"><text
               transform="matrix(0,-1,-1,0,442.5,736.185)"
               style="font-style:italic;font-variant:normal;font-weight:normal;font-size:14px;font-family:Menlo;-inkscape-font-specification:Menlo-Regular;writing-mode:lr-tb;fill:#afafaf;fill-opacity:1;fill-rule:nonzero;stroke:none"
               id="text853"><tspan
                 x="0 -8.42906 -16.857189 -25.286249 -33.715309"
                 y="0"
                 id="tspan851">Am1.8</tspan></text></g><path
             d="m 1868.75,2990.65 v 41.67"
             style="fill:none;stroke:#afafaf;stroke-width:4.16667;stroke-linecap:butt;stroke-linejoin:miter;stroke-miterlimit:10;stroke-dasharray:none;stroke-opacity:1"
             id="path855" /><g
             id="g857"
             transform="scale(4.16667)"><text
               transform="matrix(0,-1,-1,0,479,736.185)"
               style="font-style:italic;font-variant:normal;font-weight:normal;font-size:14px;font-family:Menlo;-inkscape-font-specification:Menlo-Regular;writing-mode:lr-tb;fill:#afafaf;fill-opacity:1;fill-rule:nonzero;stroke:none"
               id="text861"><tspan
                 x="0 -8.42906 -16.857189 -25.286249 -33.715309"
                 y="0"
                 id="tspan859">Am0.9</tspan></text></g><path
             d="m 2020.83,2990.65 v 41.67"
             style="fill:none;stroke:#afafaf;stroke-width:4.16667;stroke-linecap:butt;stroke-linejoin:miter;stroke-miterlimit:10;stroke-dasharray:none;stroke-opacity:1"
             id="path863" /><path
             d="m 500,371.906 h 1520.83 v 2618.75 H 500 Z"
             style="fill:none;stroke:#afafaf;stroke-width:4.16667;stroke-linecap:butt;stroke-linejoin:miter;stroke-miterlimit:10;stroke-dasharray:none;stroke-opacity:1"
             id="path865" /><g
             id="g867"
             transform="scale(4.16667)"><text
               transform="matrix(0,-1,-1,0,489,454.328)"
               style="font-style:italic;font-variant:normal;font-weight:normal;font-size:14px;font-family:Menlo;-inkscape-font-specification:Menlo-Regular;writing-mode:lr-tb;fill:#0eff00;fill-opacity:1;fill-rule:nonzero;stroke:none"
               id="text871"><tspan
                 x="0 8.4274139 16.855413 25.283415 33.710827 42.138828 50.566242 58.994244 67.422241 75.849655 84.277657 92.705658"
                 y="0"
                 id="tspan869">Ix(U1:Anode)</tspan></text></g></g></g><g
         id="g873"><g
           id="g875"
           clip-path="url(#clipPath879)"><path
             d="m 500,2990.65 v 0 l 62.699,-4.36 62.145,-4.37 61.074,-4.36 59.535,-4.36 57.594,-4.37 55.34,-4.37 52.855,-4.36 50.231,-4.37 47.527,-4.36 44.82,-4.36 42.14,-4.37 39.56,-4.36 37.05,-4.37 34.7,-4.36 32.47,-4.37 30.37,-4.36 28.42,-4.37 26.6,-4.36 24.91,-4.36 23.35,-4.37 22.6,-4.36 20.51,-4.37 19.27,-4.36 18.14,-4.37 17.08,-4.36 16.1,-4.37 15.21,-4.36 14.37,-4.36 13.59,-4.37 12.87,-4.37 12.21,-4.36 11.59,-4.37 11,-4.36 10.47,-4.36 9.97,-4.37 9.5,-4.36 9.06,-4.37 8.64,-4.36 8.27,-4.37 7.9,-4.36 7.56,-4.37 7.25,-4.36 6.95,-4.36 6.66,-4.37 6.4,-4.36 6.15,-4.37 5.91,-4.36 5.69,-4.37 5.48,-4.36 5.27,-4.37 5.09,-4.36 4.9,-4.36 4.74,-4.37 4.57,-4.37 4.42,-4.36 4.27,-4.37 4.13,-4.36 4,-4.36 3.87,-4.37 3.75,-4.36 3.63,-4.37 3.53,-4.36 3.42,-4.37 3.31,-4.36 3.22,-4.37 3.13,-4.36 3.03,-4.36 2.96,-4.37 2.87,-4.36 2.79,-4.37 2.72,-4.36 2.65,-4.37 2.57,-4.36 2.51,-4.37 2.45,-4.36 2.38,-4.36 2.32,-4.37 2.27,-4.37 2.21,-4.36 2.16,-4.37 2.11,-4.36 2.05,-4.36 2.01,-4.37 1.96,-4.36 1.92,-4.37 1.88,-4.36 1.83,-4.37 1.79,-4.36 1.75,-4.37 1.72,-4.36 1.68,-4.36 1.64,-4.37 1.61,-4.36 1.57,-4.37 1.54,-4.36 1.51,-4.37 1.48,-4.36 1.46,-4.37 1.42,-4.36 1.39,-4.36 1.38,-4.37 1.33,-4.37 1.32,-4.36 1.29,-4.37 1.27,-4.36 1.24,-4.36 1.22,-4.37 1.2,-4.36 1.18,-4.37 1.16,-4.36 1.13,-4.37 1.12,-4.36 1.1,-4.37 1.07,-4.36 1.06,-4.36 1.04,-4.37 1.03,-4.36 1,-4.37 0.99,-4.36 0.98,-4.37 0.96,-4.36 0.94,-4.37 0.93,-4.36 0.91,-4.36 0.9,-4.37 0.88,-4.37 0.87,-4.36 0.86,-4.36 0.84,-4.37 0.84,-4.36 0.81,-4.37 0.81,-4.36 0.79,-4.37 0.78,-4.36 0.78,-4.37 0.76,-4.36 0.75,-4.36 0.73,-4.37 0.73,-4.36 0.72,-4.37 0.71,-4.36 0.7,-4.37 0.68,-4.36 0.68,-4.37 0.67,-4.36 0.66,-4.36 0.65,-4.37 0.65,-4.36 0.63,-4.37 0.63,-4.37 0.61,-4.36 0.61,-4.36 0.6,-4.37 0.6,-4.36 0.58,-4.37 0.58,-4.36 0.58,-4.37 0.56,-4.36 0.56,-4.37 0.55,-4.36 0.54,-4.36 0.54,-4.37 0.53,-4.36 0.52,-4.37 0.52,-4.36 0.51,-4.37 0.51,-4.36 0.5,-4.37 0.49,-4.36 0.49,-4.36 0.48,-4.37 0.48,-4.36 0.47,-4.37 0.46,-4.37 0.47,-4.36 0.45,-4.36 0.45,-4.37 0.44,-4.36 0.44,-4.37 0.44,-4.36 0.43,-4.37 0.43,-4.36 0.42,-4.37 0.41,-4.36 0.42,-4.36 0.4,-4.37 0.41,-4.36 0.4,-4.37 0.39,-4.36 0.39,-4.37 0.39,-4.36 0.38,-4.37 0.38,-4.36 0.38,-4.36 0.37,-4.37 0.37,-4.36 0.36,-4.37 0.36,-4.37 0.36,-4.36 0.35,-4.36 0.35,-4.37 0.34,-4.36 0.35,-4.37 0.34,-4.36 0.33,-4.37 0.34,-4.36 0.32,-4.37 0.33,-4.36 0.33,-4.36 0.32,-4.37 0.31,-4.36 0.32,-4.37 0.31,-4.36 0.31,-4.37 0.3,-4.36 0.31,-4.37 0.3,-4.36 0.29,-4.36 0.3,-4.37 0.29,-4.36 0.29,-4.37 0.28,-4.37 0.29,-4.36 0.28,-4.36 0.28,-4.37 0.27,-4.36 0.28,-4.37 0.27,-4.36 0.27,-4.37 0.27,-4.36 0.26,-4.37 0.26,-4.36 0.27,-4.36 0.25,-4.37 0.26,-4.36 0.25,-4.37 0.26,-4.36 0.25,-4.37 0.24,-4.36 0.25,-4.37 0.24,-4.36 0.24,-4.36 0.24,-4.37 0.24,-4.36 0.23,-4.37 0.24,-4.37 0.23,-4.36 0.23,-4.36 0.22,-4.37 0.23,-4.36 0.23,-4.37 0.22,-4.36 0.22,-4.37 0.22,-4.36 0.22,-4.37 0.21,-4.36 0.22,-4.36 0.21,-4.37 0.21,-4.36 0.21,-4.37 0.21,-4.36 0.2,-4.37 0.21,-4.36 0.2,-4.37 0.2,-4.36 0.2,-4.36 0.2,-4.37 0.2,-4.36 0.19,-4.37 0.19,-4.37 0.2,-4.36 0.19,-4.36 0.19,-4.37 0.18,-4.36 0.19,-4.37 0.19,-4.36 0.18,-4.37 0.19,-4.36 0.18,-4.37 0.18,-4.36 0.18,-4.36 0.18,-4.37 0.17,-4.36 0.18,-4.37 0.17,-4.36 0.18,-4.37 0.16,-4.36 0.17,-4.37 0.17,-4.36 0.17,-4.36 0.17,-4.37 0.17,-4.36 0.16,-4.37 0.16,-4.37 0.17,-4.36 0.16,-4.36 0.16,-4.37 0.16,-4.36 0.16,-4.37 0.15,-4.36 0.16,-4.37 0.15,-4.36 0.16,-4.37 0.15,-4.36 0.15,-4.36 0.15,-4.37 0.15,-4.36 0.15,-4.37 0.15,-4.36 0.15,-4.37 0.14,-4.36 0.15,-4.36 0.15,-4.37 0.14,-4.36 0.14,-4.37 0.14,-4.36 0.14,-4.37 0.14,-4.36 0.14,-4.37 0.14,-4.36 0.14,-4.36 0.13,-4.37 0.14,-4.37 0.13,-4.36 0.14,-4.37 0.13,-4.36 0.13,-4.36 0.13,-4.37 0.13,-4.36 0.14,-4.37 0.12,-4.36 0.13,-4.37 0.13,-4.36 0.13,-4.37 0.12,-4.36 0.13,-4.36 0.12,-4.37 0.12,-4.36 0.13,-4.37 0.12,-4.36 0.12,-4.37 0.12,-4.36 0.12,-4.37 0.12,-4.36 0.12,-4.36 0.12,-4.37 0.12,-4.37 0.11,-4.36 0.12,-4.37 0.12,-4.36 0.11,-4.36 0.11,-4.37 0.12,-4.36 0.11,-4.37 0.11,-4.36 0.11,-4.37 0.12,-4.36 0.11,-4.37 0.1,-4.36 0.11,-4.36 0.11,-4.37 0.11,-4.36 0.11,-4.37 0.1,-4.36 0.11,-4.37 0.11,-4.36 0.1,-4.37 0.11,-4.36 0.1,-4.36 0.1,-4.37 0.1,-4.37 0.11,-4.36 0.1,-4.37 0.1,-4.36 0.1,-4.36 0.1,-4.37 0.1,-4.36 0.1,-4.37 0.1,-4.36 0.1,-4.37 0.09,-4.36 0.1,-4.37 0.1,-4.36 0.09,-4.36 0.1,-4.37 0.09,-4.36 0.1,-4.37 0.09,-4.36 0.1,-4.37 0.09,-4.36 0.09,-4.37 0.09,-4.36 0.09,-4.36 0.1,-4.37 0.09,-4.37 0.09,-4.36 0.09,-4.37 0.09,-4.36 0.09,-4.36 0.08,-4.37 0.09,-4.36 0.09,-4.37 0.08,-4.36 0.09,-4.37 0.09,-4.36 0.09,-4.37 0.08,-4.36 0.08,-4.36 0.09,-4.37 0.08,-4.36 0.09,-4.37 0.08,-4.36 0.08,-4.37 0.09,-4.36 0.08,-4.37 0.08,-4.36 0.08,-4.36 0.08,-4.37 0.08,-4.37 0.08,-4.36 0.08,-4.37 0.08,-4.36 0.08,-4.36 0.08,-4.37 0.08,-4.36 0.07,-4.37 0.08,-4.36 0.08,-4.37 0.08,-4.36 0.07,-4.37 0.08,-4.36 0.08,-4.36 0.07,-4.37 0.08,-4.36 0.07,-4.37 0.08,-4.36 0.07,-4.37 0.07,-4.36 0.07,-4.37 0.08,-4.36 0.07,-4.36 0.07,-4.37 0.08,-4.37 0.07,-4.36 0.07,-4.37 0.07,-4.36 0.07,-4.36 0.07,-4.37 0.07,-4.36 0.07,-4.37 0.07,-4.36 0.07,-4.37 0.07,-4.36 0.07,-4.37 0.07,-4.36 0.06,-4.36 0.07,-4.371 0.07,-4.363 0.07,-4.363 0.06,-4.368 0.07,-4.363 0.07,-4.363 0.06,-4.367 0.07,-4.364 0.07,-4.363 0.06,-4.367 0.06,-4.363 0.07,-4.364 0.06,-4.367 0.07,-4.363 0.06,-4.363 0.06,-4.368 0.07,-4.363 0.06,-4.363 0.06,-4.367 0.06,-4.364 0.07,-4.363 0.06,-4.367 0.06,-4.363 0.06,-4.364 0.06,-4.367 0.07,-4.363 0.05,-4.363 0.07,-4.368 0.06,-4.363 0.05,-4.363 0.07,-4.367 0.06,-4.364 0.05,-4.363 0.06,-4.367 0.06,-4.363 0.06,-4.364 0.06,-4.367 0.06,-4.363 0.06,-4.363 0.05,-4.364 0.06,-4.367 0.05,-4.363 0.06,-4.364 0.06,-4.367 0.06,-4.363 0.05,-4.363 0.06,-4.367 0.05,-4.364 0.06,-4.363 0.05,-4.367 0.06,-4.363 0.05,-4.364 0.06,-4.367 0.05,-4.363"
             style="fill:none;stroke:#0eff00;stroke-width:4.16667;stroke-linecap:butt;stroke-linejoin:miter;stroke-miterlimit:1;stroke-dasharray:none;stroke-opacity:1"
             id="path881" /><path
             d="m 1951.78,764.719 v 0 l 0.06,-4.364 0.05,-4.367 0.06,-4.363 0.05,-4.363 0.05,-4.367 0.06,-4.364 0.05,-4.363 0.05,-4.367 0.05,-4.363 0.05,-4.364 0.06,-4.367 0.05,-4.363 0.05,-4.367 0.05,-4.364 0.05,-4.363 0.06,-4.363 0.05,-4.367 0.05,-4.364 0.05,-4.363 0.05,-4.367 0.05,-4.363 0.05,-4.364 0.05,-4.367 0.05,-4.363 0.04,-4.364 0.06,-4.367 0.04,-4.363 0.05,-4.363 0.05,-4.367 0.05,-4.364 0.05,-4.363 0.05,-4.367 0.04,-4.363 0.05,-4.364 0.05,-4.367 0.05,-4.363 0.04,-4.364 0.05,-4.367 0.05,-4.363 0.05,-4.363 0.04,-4.367 0.05,-4.364 0.04,-4.363 0.05,-4.367 0.05,-4.363 0.04,-4.364 0.05,-4.367 0.04,-4.363 0.05,-4.364 0.04,-4.367 0.05,-4.363 0.04,-4.363 0.05,-4.367 0.04,-4.364 0.05,-4.363 0.04,-4.367 0.05,-4.363 0.04,-4.364 0.04,-4.367 0.05,-4.363 0.04,-4.364 0.04,-4.367 0.04,-4.363 0.05,-4.363 0.04,-4.367 0.04,-4.364 0.05,-4.363 0.04,-4.367 0.04,-4.363 0.04,-4.364 0.04,-4.367 0.05,-4.363 0.04,-4.364 0.04,-4.367 0.04,-4.363 0.04,-4.363 0.04,-4.367 0.04,-4.364 0.05,-4.363 0.04,-4.367 0.03,-4.363 0.05,-4.364 0.04,-4.367 0.04,-4.363 0.03,-4.364 0.05,-4.367 0.04,-4.363 0.04,-4.363 0.03,-4.367 0.04,-4.364"
             style="fill:none;stroke:#0eff00;stroke-width:4.16667;stroke-linecap:butt;stroke-linejoin:miter;stroke-miterlimit:1;stroke-dasharray:none;stroke-opacity:1"
             id="path883" /><path
             d="m 500,2990.65 v 0 l 52.789,-4.36 52.324,-4.37 51.422,-4.36 50.121,-4.36 48.492,-4.37 46.594,-4.37 44.504,-4.36 42.289,-4.37 40.02,-4.36 37.73,-4.36 35.485,-4.37 33.3,-4.36 31.2,-4.37 29.22,-4.36 27.33,-4.37 25.57,-4.36 23.93,-4.37 22.39,-4.36 20.98,-4.36 19.66,-4.37 19.03,-4.36 17.26,-4.37 16.24,-4.36 15.26,-4.37 14.38,-4.36 13.56,-4.37 12.8,-4.36 12.1,-4.36 11.45,-4.37 10.84,-4.37 10.27,-4.36 9.76,-4.37 9.27,-4.36 8.81,-4.36 8.39,-4.37 8,-4.36 7.62,-4.37 7.29,-4.36 6.95,-4.37 6.66,-4.36 6.37,-4.37 6.09,-4.36 5.86,-4.36 5.6,-4.37 5.4,-4.36 5.17,-4.37 4.98,-4.36 4.79,-4.37 4.61,-4.36 4.44,-4.37 4.28,-4.36 4.13,-4.36 3.99,-4.37 3.85,-4.37 3.72,-4.36 3.59,-4.37 3.48,-4.36 3.37,-4.36 3.26,-4.37 3.16,-4.36 3.05,-4.37 2.97,-4.36 2.88,-4.37 2.79,-4.36 2.71,-4.37 2.63,-4.36 2.56,-4.36 2.49,-4.37 2.42,-4.36 2.35,-4.37 2.29,-4.36 2.22,-4.37 2.17,-4.36 2.11,-4.37 2.06,-4.36 2.01,-4.36 1.96,-4.37 1.9,-4.37 1.87,-4.36 1.81,-4.37 1.78,-4.36 1.73,-4.36 1.69,-4.37 1.65,-4.36 1.61,-4.37 1.58,-4.36 1.55,-4.37 1.51,-4.36 1.47,-4.37 1.45,-4.36 1.41,-4.36 1.38,-4.37 1.36,-4.36 1.32,-4.37 1.3,-4.36 1.27,-4.37 1.25,-4.36 1.22,-4.37 1.2,-4.36 1.18,-4.36 1.14,-4.37 1.14,-4.37 1.1,-4.36 1.09,-4.37 1.07,-4.36 1.05,-4.36 1.02,-4.37 1.01,-4.36 0.99,-4.37 0.98,-4.36 0.95,-4.37 0.94,-4.36 0.93,-4.37 0.9,-4.36 0.9,-4.36 0.87,-4.37 0.87,-4.36 0.84,-4.37 0.83,-4.36 0.83,-4.37 0.8,-4.36 0.8,-4.37 0.78,-4.36 0.76,-4.36 0.76,-4.37 0.75,-4.37 0.73,-4.36 0.72,-4.36 0.71,-4.37 0.7,-4.36 0.69,-4.37 0.68,-4.36 0.67,-4.37 0.66,-4.36 0.64,-4.37 0.65,-4.36 0.63,-4.36 0.62,-4.37 0.61,-4.36 0.6,-4.37 0.6,-4.36 0.59,-4.37 0.58,-4.36 0.57,-4.37 0.56,-4.36 0.56,-4.36 0.55,-4.37 0.54,-4.36 0.53,-4.37 0.53,-4.37 0.52,-4.36 0.51,-4.36 0.51,-4.37 0.5,-4.36 0.49,-4.37 0.49,-4.36 0.48,-4.37 0.48,-4.36 0.46,-4.37 0.47,-4.36 0.46,-4.36 0.45,-4.37 0.45,-4.36 0.44,-4.37 0.43,-4.36 0.43,-4.37 0.43,-4.36 0.42,-4.37 0.42,-4.36 0.41,-4.36 0.4,-4.37 0.4,-4.36 0.4,-4.37 0.39,-4.37 0.39,-4.36 0.38,-4.36 0.38,-4.37 0.38,-4.36 0.37,-4.37 0.36,-4.36 0.37,-4.37 0.35,-4.36 0.36,-4.37 0.35,-4.36 0.35,-4.36 0.34,-4.37 0.34,-4.36 0.34,-4.37 0.33,-4.36 0.33,-4.37 0.33,-4.36 0.32,-4.37 0.32,-4.36 0.31,-4.36 0.32,-4.37 0.3,-4.36 0.31,-4.37 0.3,-4.37 0.3,-4.36 0.3,-4.36 0.29,-4.37 0.3,-4.36 0.28,-4.37 0.29,-4.36 0.28,-4.37 0.28,-4.36 0.28,-4.37 0.27,-4.36 0.28,-4.36 0.27,-4.37 0.26,-4.36 0.27,-4.37 0.26,-4.36 0.26,-4.37 0.26,-4.36 0.25,-4.37 0.25,-4.36 0.25,-4.36 0.25,-4.37 0.25,-4.36 0.24,-4.37 0.24,-4.37 0.24,-4.36 0.24,-4.36 0.24,-4.37 0.23,-4.36 0.23,-4.37 0.23,-4.36 0.22,-4.37 0.23,-4.36 0.22,-4.37 0.23,-4.36 0.21,-4.36 0.22,-4.37 0.21,-4.36 0.22,-4.37 0.21,-4.36 0.21,-4.37 0.21,-4.36 0.2,-4.37 0.21,-4.36 0.2,-4.36 0.2,-4.37 0.2,-4.36 0.2,-4.37 0.2,-4.37 0.19,-4.36 0.2,-4.36 0.19,-4.37 0.19,-4.36 0.19,-4.37 0.19,-4.36 0.18,-4.37 0.19,-4.36 0.18,-4.37 0.18,-4.36 0.18,-4.36 0.18,-4.37 0.18,-4.36 0.18,-4.37 0.17,-4.36 0.17,-4.37 0.17,-4.36 0.18,-4.37 0.16,-4.36 0.17,-4.36 0.17,-4.37 0.16,-4.36 0.17,-4.37 0.16,-4.37 0.17,-4.36 0.16,-4.36 0.16,-4.37 0.15,-4.36 0.16,-4.37 0.16,-4.36 0.15,-4.37 0.16,-4.36 0.15,-4.37 0.15,-4.36 0.15,-4.36 0.15,-4.37 0.15,-4.36 0.15,-4.37 0.15,-4.36 0.14,-4.37 0.14,-4.36 0.15,-4.37 0.14,-4.36 0.14,-4.36 0.14,-4.37 0.14,-4.36 0.14,-4.37 0.14,-4.37 0.14,-4.36 0.13,-4.36 0.14,-4.37 0.13,-4.36 0.13,-4.37 0.14,-4.36 0.13,-4.37 0.13,-4.36 0.13,-4.37 0.13,-4.36 0.13,-4.36 0.12,-4.37 0.13,-4.36 0.12,-4.37 0.13,-4.36 0.12,-4.37 0.13,-4.36 0.12,-4.36 0.12,-4.37 0.12,-4.36 0.12,-4.37 0.12,-4.36 0.12,-4.37 0.12,-4.36 0.11,-4.37 0.12,-4.36 0.11,-4.36 0.12,-4.37 0.11,-4.37 0.12,-4.36 0.11,-4.37 0.11,-4.36 0.11,-4.36 0.11,-4.37 0.11,-4.36 0.11,-4.37 0.11,-4.36 0.11,-4.37 0.11,-4.36 0.1,-4.37 0.11,-4.36 0.11,-4.36 0.1,-4.37 0.1,-4.36 0.11,-4.37 0.1,-4.36 0.1,-4.37 0.1,-4.36 0.1,-4.37 0.11,-4.36 0.1,-4.36 0.1,-4.37 0.09,-4.37 0.1,-4.36 0.1,-4.37 0.1,-4.36 0.09,-4.36 0.1,-4.37 0.09,-4.36 0.1,-4.37 0.1,-4.36 0.09,-4.37 0.09,-4.36 0.1,-4.37 0.09,-4.36 0.09,-4.36 0.09,-4.37 0.09,-4.36 0.09,-4.37 0.09,-4.36 0.09,-4.37 0.09,-4.36 0.09,-4.37 0.09,-4.36 0.09,-4.36 0.08,-4.37 0.09,-4.37 0.08,-4.36 0.09,-4.37 0.09,-4.36 0.08,-4.36 0.08,-4.37 0.09,-4.36 0.08,-4.37 0.08,-4.36 0.09,-4.37 0.08,-4.36 0.08,-4.37 0.08,-4.36 0.08,-4.36 0.08,-4.37 0.08,-4.36 0.08,-4.37 0.08,-4.36 0.08,-4.37 0.08,-4.36 0.07,-4.37 0.08,-4.36 0.08,-4.36 0.08,-4.37 0.07,-4.37 0.08,-4.36 0.08,-4.37 0.07,-4.36 0.07,-4.36 0.08,-4.37 0.07,-4.36 0.08,-4.37 0.07,-4.36 0.07,-4.37 0.08,-4.36 0.07,-4.37 0.07,-4.36 0.07,-4.36 0.07,-4.37 0.07,-4.36 0.07,-4.37 0.08,-4.36 0.07,-4.37 0.06,-4.36 0.07,-4.37 0.07,-4.36 0.07,-4.36 0.07,-4.37 0.07,-4.37 0.06,-4.36 0.07,-4.37 0.07,-4.36 0.07,-4.36 0.06,-4.37 0.07,-4.36 0.06,-4.37 0.07,-4.36 0.06,-4.37 0.07,-4.36 0.06,-4.37 0.06,-4.36 0.07,-4.36 0.06,-4.37 0.07,-4.36 0.06,-4.37 0.06,-4.36 0.06,-4.37 0.07,-4.36 0.06,-4.37 0.06,-4.36 0.06,-4.36 0.06,-4.37 0.06,-4.37 0.06,-4.36 0.06,-4.37 0.06,-4.36 0.06,-4.36 0.06,-4.37 0.06,-4.36 0.06,-4.37 0.06,-4.36 0.06,-4.37 0.05,-4.36 0.06,-4.37 0.06,-4.36 0.06,-4.36 0.06,-4.371 0.05,-4.363 0.06,-4.363 0.05,-4.368 0.06,-4.363 0.06,-4.363 0.05,-4.367 0.06,-4.364 0.05,-4.363 0.06,-4.367 0.05,-4.363 0.05,-4.364 0.06,-4.367 0.05,-4.363 0.06,-4.363 0.05,-4.368 0.05,-4.363 0.05,-4.363 0.06,-4.367 0.05,-4.364 0.05,-4.363 0.06,-4.367 0.05,-4.363 0.05,-4.364 0.05,-4.367 0.05,-4.363 0.05,-4.363 0.05,-4.368 0.06,-4.363 0.05,-4.363 0.05,-4.367 0.05,-4.364 0.04,-4.363 0.06,-4.367 0.05,-4.363 0.04,-4.364 0.05,-4.367 0.05,-4.363 0.05,-4.363 0.05,-4.364 0.04,-4.367 0.06,-4.363 0.04,-4.364 0.05,-4.367 0.05,-4.363 0.04,-4.363 0.05,-4.367 0.05,-4.364 0.04,-4.363 0.05,-4.367 0.05,-4.363 0.04,-4.364 0.05,-4.367 0.04,-4.363"
             style="fill:none;stroke:#0000ff;stroke-width:4.16667;stroke-linecap:butt;stroke-linejoin:miter;stroke-miterlimit:1;stroke-dasharray:none;stroke-opacity:1"
             id="path885" /><path
             d="m 1722.32,764.719 v 0 l 0.05,-4.364 0.05,-4.367 0.04,-4.363 0.05,-4.363 0.04,-4.367 0.05,-4.364 0.04,-4.363 0.05,-4.367 0.04,-4.363 0.04,-4.364 0.05,-4.367 0.04,-4.363 0.05,-4.367 0.04,-4.364 0.04,-4.363 0.05,-4.363 0.04,-4.367 0.04,-4.364 0.04,-4.363 0.05,-4.367 0.04,-4.363 0.04,-4.364 0.04,-4.367 0.05,-4.363 0.03,-4.364 0.05,-4.367 0.04,-4.363 0.04,-4.363 0.04,-4.367 0.04,-4.364 0.04,-4.363 0.04,-4.367 0.04,-4.363 0.04,-4.364 0.04,-4.367 0.04,-4.363 0.04,-4.364 0.04,-4.367 0.04,-4.363 0.04,-4.363 0.04,-4.367 0.04,-4.364 0.04,-4.363 0.04,-4.367 0.03,-4.363 0.04,-4.364 0.04,-4.367 0.04,-4.363 0.04,-4.364 0.04,-4.367 0.04,-4.363 0.03,-4.363 0.04,-4.367 0.04,-4.364 0.03,-4.363 0.04,-4.367 0.04,-4.363 0.04,-4.364 0.03,-4.367 0.04,-4.363 0.04,-4.364 0.03,-4.367 0.04,-4.363 0.04,-4.363 0.03,-4.367 0.04,-4.364 0.03,-4.363 0.04,-4.367 0.03,-4.363 0.04,-4.364 0.03,-4.367 0.04,-4.363 0.04,-4.364 0.03,-4.367 0.03,-4.363 0.04,-4.363 0.03,-4.367 0.04,-4.364 0.03,-4.363 0.03,-4.367 0.04,-4.363 0.03,-4.364 0.04,-4.367 0.03,-4.363 0.04,-4.364 0.03,-4.367 0.03,-4.363 0.03,-4.363 0.04,-4.367 0.03,-4.364"
             style="fill:none;stroke:#0000ff;stroke-width:4.16667;stroke-linecap:butt;stroke-linejoin:miter;stroke-miterlimit:1;stroke-dasharray:none;stroke-opacity:1"
             id="path887" /><path
             d="m 500,2990.65 v 0 l 43.465,-4.36 43.082,-4.37 42.34,-4.36 41.269,-4.36 39.926,-4.37 38.363,-4.37 36.641,-4.36 34.82,-4.37 32.949,-4.36 31.071,-4.36 29.215,-4.37 27.418,-4.36 25.691,-4.37 24.055,-4.36 22.505,-4.37 21.05,-4.36 19.71,-4.37 18.43,-4.36 17.27,-4.36 16.19,-4.37 15.67,-4.36 14.22,-4.37 13.36,-4.36 12.57,-4.37 11.84,-4.36 11.17,-4.37 10.53,-4.36 9.97,-4.36 9.42,-4.37 8.92,-4.37 8.47,-4.36 8.03,-4.37 7.63,-4.36 7.26,-4.36 6.91,-4.37 6.58,-4.36 6.28,-4.37 6,-4.36 5.72,-4.37 5.48,-4.36 5.24,-4.37 5.03,-4.36 4.81,-4.36 4.63,-4.37 4.43,-4.36 4.26,-4.37 4.1,-4.36 3.94,-4.37 3.8,-4.36 3.66,-4.37 3.52,-4.36 3.4,-4.36 3.29,-4.37 3.17,-4.37 3.06,-4.36 2.96,-4.37 2.86,-4.36 2.78,-4.36 2.68,-4.37 2.6,-4.36 2.52,-4.37 2.44,-4.36 2.37,-4.37 2.3,-4.36 2.23,-4.37 2.17,-4.36 2.1,-4.36 2.05,-4.37 1.99,-4.36 1.94,-4.37 1.88,-4.36 1.84,-4.37 1.78,-4.36 1.74,-4.37 1.7,-4.36 1.65,-4.36 1.61,-4.37 1.57,-4.37 1.53,-4.36 1.5,-4.37 1.46,-4.36 1.42,-4.36 1.4,-4.37 1.36,-4.36 1.33,-4.37 1.3,-4.36 1.27,-4.37 1.24,-4.36 1.21,-4.37 1.19,-4.36 1.16,-4.36 1.15,-4.37 1.11,-4.36 1.09,-4.37 1.07,-4.36 1.05,-4.37 1.02,-4.36 1.01,-4.37 0.99,-4.36 0.96,-4.36 0.95,-4.37 0.93,-4.37 0.92,-4.36 0.89,-4.37 0.88,-4.36 0.86,-4.36 0.85,-4.37 0.83,-4.36 0.82,-4.37 0.8,-4.36 0.79,-4.37 0.77,-4.36 0.76,-4.37 0.74,-4.36 0.74,-4.36 0.72,-4.37 0.71,-4.36 0.7,-4.37 0.68,-4.36 0.68,-4.37 0.66,-4.36 0.66,-4.37 0.64,-4.36 0.63,-4.36 0.62,-4.37 0.62,-4.37 0.6,-4.36 0.6,-4.36 0.58,-4.37 0.58,-4.36 0.56,-4.37 0.57,-4.36 0.55,-4.37 0.54,-4.36 0.53,-4.37 0.53,-4.36 0.52,-4.36 0.51,-4.37 0.5,-4.36 0.5,-4.37 0.49,-4.36 0.49,-4.37 0.47,-4.36 0.48,-4.37 0.46,-4.36 0.46,-4.36 0.45,-4.37 0.44,-4.36 0.44,-4.37 0.44,-4.37 0.42,-4.36 0.43,-4.36 0.41,-4.37 0.42,-4.36 0.4,-4.37 0.4,-4.36 0.4,-4.37 0.39,-4.36 0.39,-4.37 0.38,-4.36 0.37,-4.36 0.38,-4.37 0.36,-4.36 0.37,-4.37 0.36,-4.36 0.35,-4.37 0.35,-4.36 0.35,-4.37 0.34,-4.36 0.34,-4.36 0.33,-4.37 0.33,-4.36 0.33,-4.37 0.32,-4.37 0.32,-4.36 0.32,-4.36 0.31,-4.37 0.31,-4.36 0.31,-4.37 0.3,-4.36 0.29,-4.37 0.3,-4.36 0.29,-4.37 0.29,-4.36 0.29,-4.36 0.28,-4.37 0.28,-4.36 0.28,-4.37 0.27,-4.36 0.27,-4.37 0.27,-4.36 0.26,-4.37 0.27,-4.36 0.26,-4.36 0.26,-4.37 0.25,-4.36 0.25,-4.37 0.25,-4.37 0.25,-4.36 0.24,-4.36 0.24,-4.37 0.25,-4.36 0.23,-4.37 0.24,-4.36 0.23,-4.37 0.23,-4.36 0.23,-4.37 0.23,-4.36 0.22,-4.36 0.22,-4.37 0.22,-4.36 0.22,-4.37 0.21,-4.36 0.22,-4.37 0.21,-4.36 0.21,-4.37 0.21,-4.36 0.21,-4.36 0.2,-4.37 0.2,-4.36 0.2,-4.37 0.2,-4.37 0.2,-4.36 0.19,-4.36 0.2,-4.37 0.19,-4.36 0.19,-4.37 0.19,-4.36 0.18,-4.37 0.19,-4.36 0.18,-4.37 0.18,-4.36 0.18,-4.36 0.18,-4.37 0.18,-4.36 0.18,-4.37 0.17,-4.36 0.17,-4.37 0.18,-4.36 0.17,-4.37 0.17,-4.36 0.16,-4.36 0.17,-4.37 0.16,-4.36 0.17,-4.37 0.16,-4.37 0.16,-4.36 0.16,-4.36 0.16,-4.37 0.15,-4.36 0.16,-4.37 0.15,-4.36 0.15,-4.37 0.16,-4.36 0.15,-4.37 0.15,-4.36 0.14,-4.36 0.15,-4.37 0.15,-4.36 0.14,-4.37 0.15,-4.36 0.14,-4.37 0.14,-4.36 0.14,-4.37 0.14,-4.36 0.14,-4.36 0.14,-4.37 0.13,-4.36 0.14,-4.37 0.13,-4.37 0.14,-4.36 0.13,-4.36 0.13,-4.37 0.13,-4.36 0.13,-4.37 0.13,-4.36 0.13,-4.37 0.13,-4.36 0.12,-4.37 0.13,-4.36 0.12,-4.36 0.12,-4.37 0.13,-4.36 0.12,-4.37 0.12,-4.36 0.12,-4.37 0.12,-4.36 0.11,-4.37 0.12,-4.36 0.12,-4.36 0.11,-4.37 0.12,-4.36 0.11,-4.37 0.12,-4.37 0.11,-4.36 0.11,-4.36 0.11,-4.37 0.11,-4.36 0.11,-4.37 0.11,-4.36 0.11,-4.37 0.1,-4.36 0.11,-4.37 0.11,-4.36 0.11,-4.36 0.1,-4.37 0.1,-4.36 0.11,-4.37 0.1,-4.36 0.1,-4.37 0.1,-4.36 0.1,-4.36 0.1,-4.37 0.1,-4.36 0.1,-4.37 0.1,-4.36 0.1,-4.37 0.09,-4.36 0.1,-4.37 0.1,-4.36 0.09,-4.36 0.1,-4.37 0.09,-4.37 0.09,-4.36 0.1,-4.37 0.09,-4.36 0.09,-4.36 0.09,-4.37 0.09,-4.36 0.09,-4.37 0.09,-4.36 0.09,-4.37 0.09,-4.36 0.09,-4.37 0.08,-4.36 0.09,-4.36 0.09,-4.37 0.08,-4.36 0.09,-4.37 0.08,-4.36 0.09,-4.37 0.08,-4.36 0.09,-4.37 0.08,-4.36 0.08,-4.36 0.08,-4.37 0.08,-4.37 0.08,-4.36 0.08,-4.37 0.08,-4.36 0.08,-4.36 0.08,-4.37 0.08,-4.36 0.08,-4.37 0.08,-4.36 0.08,-4.37 0.07,-4.36 0.08,-4.37 0.08,-4.36 0.07,-4.36 0.07,-4.37 0.08,-4.36 0.08,-4.37 0.07,-4.36 0.07,-4.37 0.08,-4.36 0.07,-4.37 0.07,-4.36 0.07,-4.36 0.07,-4.37 0.07,-4.37 0.07,-4.36 0.08,-4.37 0.07,-4.36 0.07,-4.36 0.07,-4.37 0.07,-4.36 0.06,-4.37 0.07,-4.36 0.07,-4.37 0.07,-4.36 0.07,-4.37 0.06,-4.36 0.07,-4.36 0.07,-4.37 0.06,-4.36 0.06,-4.37 0.07,-4.36 0.06,-4.37 0.07,-4.36 0.06,-4.37 0.07,-4.36 0.06,-4.36 0.06,-4.37 0.07,-4.37 0.06,-4.36 0.06,-4.37 0.06,-4.36 0.07,-4.36 0.06,-4.37 0.06,-4.36 0.06,-4.37 0.06,-4.36 0.06,-4.37 0.06,-4.36 0.06,-4.37 0.06,-4.36 0.06,-4.36 0.05,-4.37 0.06,-4.36 0.06,-4.37 0.06,-4.36 0.06,-4.37 0.05,-4.36 0.06,-4.37 0.06,-4.36 0.05,-4.36 0.06,-4.37 0.05,-4.37 0.06,-4.36 0.06,-4.37 0.05,-4.36 0.06,-4.36 0.05,-4.37 0.06,-4.36 0.05,-4.37 0.05,-4.36 0.06,-4.37 0.05,-4.36 0.05,-4.37 0.06,-4.36 0.05,-4.36 0.05,-4.37 0.05,-4.36 0.05,-4.37 0.05,-4.36 0.06,-4.37 0.05,-4.36 0.05,-4.37 0.05,-4.36 0.05,-4.36 0.05,-4.37 0.05,-4.37 0.05,-4.36 0.05,-4.37 0.05,-4.36 0.05,-4.36 0.05,-4.37 0.05,-4.36 0.04,-4.37 0.05,-4.36 0.05,-4.37 0.05,-4.36 0.04,-4.37 0.05,-4.36 0.05,-4.36 0.05,-4.371 0.04,-4.363 0.05,-4.363 0.05,-4.368 0.04,-4.363 0.05,-4.363 0.04,-4.367 0.05,-4.364 0.05,-4.363 0.04,-4.367 0.05,-4.363 0.04,-4.364 0.05,-4.367 0.04,-4.363 0.04,-4.363 0.05,-4.368 0.04,-4.363 0.04,-4.363 0.05,-4.367 0.04,-4.364 0.04,-4.363 0.05,-4.367 0.04,-4.363 0.04,-4.364 0.05,-4.367 0.04,-4.363 0.04,-4.363 0.04,-4.368 0.04,-4.363 0.04,-4.363 0.05,-4.367 0.03,-4.364 0.05,-4.363 0.04,-4.367 0.04,-4.363 0.04,-4.364 0.04,-4.367 0.04,-4.363 0.04,-4.363 0.04,-4.364 0.04,-4.367 0.04,-4.363 0.04,-4.364 0.04,-4.367 0.04,-4.363 0.04,-4.363 0.04,-4.367 0.03,-4.364 0.04,-4.363 0.04,-4.367 0.04,-4.363 0.04,-4.364 0.03,-4.367 0.04,-4.363"
             style="fill:none;stroke:#ff0000;stroke-width:4.16667;stroke-linecap:butt;stroke-linejoin:miter;stroke-miterlimit:1;stroke-dasharray:none;stroke-opacity:1"
             id="path889" /><path
             d="m 1506.42,764.719 v 0 l 0.04,-4.364 0.04,-4.367 0.04,-4.363 0.03,-4.363 0.04,-4.367 0.03,-4.364 0.04,-4.363 0.04,-4.367 0.03,-4.363 0.04,-4.364 0.04,-4.367 0.03,-4.363 0.04,-4.367 0.03,-4.364 0.04,-4.363 0.03,-4.363 0.04,-4.367 0.03,-4.364 0.04,-4.363 0.03,-4.367 0.04,-4.363 0.03,-4.364 0.04,-4.367 0.04,-4.363 0.03,-4.364 0.03,-4.367 0.04,-4.363 0.03,-4.363 0.03,-4.367 0.04,-4.364 0.03,-4.363 0.03,-4.367 0.04,-4.363 0.03,-4.364 0.03,-4.367 0.04,-4.363 0.03,-4.364 0.03,-4.367 0.04,-4.363 0.03,-4.363 0.03,-4.367 0.03,-4.364 0.03,-4.363 0.04,-4.367 0.03,-4.363 0.03,-4.364 0.03,-4.367 0.03,-4.363 0.03,-4.364 0.04,-4.367 0.02,-4.363 0.04,-4.363 0.03,-4.367 0.03,-4.364 0.03,-4.363 0.03,-4.367 0.03,-4.363 0.03,-4.364 0.03,-4.367 0.03,-4.363 0.03,-4.364 0.03,-4.367 0.03,-4.363 0.03,-4.363 0.03,-4.367 0.03,-4.364 0.03,-4.363 0.03,-4.367 0.03,-4.363 0.03,-4.364 0.03,-4.367 0.03,-4.363 0.02,-4.364 0.03,-4.367 0.03,-4.363 0.03,-4.363 0.03,-4.367 0.03,-4.364 0.03,-4.363 0.02,-4.367 0.03,-4.363 0.03,-4.364 0.03,-4.367 0.03,-4.363 0.02,-4.364 0.03,-4.367 0.03,-4.363 0.03,-4.363 0.02,-4.367 0.03,-4.364"
             style="fill:none;stroke:#ff0000;stroke-width:4.16667;stroke-linecap:butt;stroke-linejoin:miter;stroke-miterlimit:1;stroke-dasharray:none;stroke-opacity:1"
             id="path891" /><path
             d="m 500,2990.65 v 0 l 34.766,-4.36 34.457,-4.37 33.867,-4.36 33.008,-4.36 31.933,-4.37 30.684,-4.37 29.308,-4.36 27.852,-4.37 26.355,-4.36 24.848,-4.36 23.371,-4.37 21.93,-4.36 20.551,-4.37 19.238,-4.36 18,-4.37 16.84,-4.36 15.758,-4.37 14.75,-4.36 13.812,-4.36 12.945,-4.37 12.532,-4.36 11.375,-4.37 10.68,-4.36 10.06,-4.37 9.47,-4.36 8.93,-4.37 8.43,-4.36 7.97,-4.36 7.53,-4.37 7.14,-4.37 6.77,-4.36 6.43,-4.37 6.1,-4.36 5.81,-4.36 5.52,-4.37 5.27,-4.36 5.02,-4.37 4.8,-4.36 4.58,-4.37 4.38,-4.36 4.19,-4.37 4.02,-4.36 3.85,-4.36 3.7,-4.37 3.55,-4.36 3.41,-4.37 3.27,-4.36 3.16,-4.37 3.03,-4.36 2.93,-4.37 2.82,-4.36 2.72,-4.36 2.62,-4.37 2.54,-4.37 2.45,-4.36 2.37,-4.37 2.29,-4.36 2.21,-4.36 2.15,-4.37 2.08,-4.36 2.02,-4.37 1.95,-4.36 1.89,-4.37 1.84,-4.36 1.79,-4.37 1.73,-4.36 1.69,-4.36 1.63,-4.37 1.6,-4.36 1.54,-4.37 1.51,-4.36 1.47,-4.37 1.43,-4.36 1.39,-4.37 1.36,-4.36 1.32,-4.36 1.29,-4.37 1.25,-4.37 1.23,-4.36 1.19,-4.37 1.17,-4.36 1.14,-4.36 1.12,-4.37 1.08,-4.36 1.07,-4.37 1.03,-4.36 1.02,-4.37 1,-4.36 0.97,-4.37 0.95,-4.36 0.93,-4.36 0.91,-4.37 0.89,-4.36 0.87,-4.37 0.86,-4.36 0.84,-4.37 0.82,-4.36 0.8,-4.37 0.79,-4.36 0.78,-4.36 0.75,-4.37 0.75,-4.37 0.73,-4.36 0.72,-4.37 0.7,-4.36 0.69,-4.36 0.68,-4.37 0.66,-4.36 0.65,-4.37 0.64,-4.36 0.63,-4.37 0.62,-4.36 0.61,-4.37 0.6,-4.36 0.59,-4.36 0.57,-4.37 0.57,-4.36 0.56,-4.37 0.55,-4.36 0.54,-4.37 0.53,-4.36 0.52,-4.37 0.51,-4.36 0.51,-4.36 0.5,-4.37 0.49,-4.37 0.48,-4.36 0.48,-4.36 0.46,-4.37 0.46,-4.36 0.46,-4.37 0.45,-4.36 0.44,-4.37 0.43,-4.36 0.43,-4.37 0.42,-4.36 0.42,-4.36 0.41,-4.37 0.4,-4.36 0.4,-4.37 0.39,-4.36 0.39,-4.37 0.38,-4.36 0.37,-4.37 0.37,-4.36 0.37,-4.36 0.36,-4.37 0.36,-4.36 0.35,-4.37 0.35,-4.37 0.34,-4.36 0.34,-4.36 0.33,-4.37 0.33,-4.36 0.32,-4.37 0.33,-4.36 0.31,-4.37 0.32,-4.36 0.3,-4.37 0.31,-4.36 0.3,-4.36 0.3,-4.37 0.29,-4.36 0.29,-4.37 0.29,-4.36 0.28,-4.37 0.28,-4.36 0.28,-4.37 0.28,-4.36 0.27,-4.36 0.26,-4.37 0.27,-4.36 0.26,-4.37 0.26,-4.37 0.25,-4.36 0.25,-4.36 0.25,-4.37 0.25,-4.36 0.25,-4.37 0.24,-4.36 0.24,-4.37 0.23,-4.36 0.24,-4.37 0.23,-4.36 0.23,-4.36 0.22,-4.37 0.23,-4.36 0.22,-4.37 0.22,-4.36 0.21,-4.37 0.22,-4.36 0.21,-4.37 0.21,-4.36 0.21,-4.36 0.2,-4.37 0.21,-4.36 0.2,-4.37 0.2,-4.37 0.2,-4.36 0.19,-4.36 0.19,-4.37 0.2,-4.36 0.19,-4.37 0.18,-4.36 0.19,-4.37 0.19,-4.36 0.18,-4.37 0.18,-4.36 0.18,-4.36 0.18,-4.37 0.17,-4.36 0.18,-4.37 0.17,-4.36 0.17,-4.37 0.17,-4.36 0.17,-4.37 0.16,-4.36 0.17,-4.36 0.16,-4.37 0.17,-4.36 0.16,-4.37 0.15,-4.37 0.16,-4.36 0.16,-4.36 0.15,-4.37 0.15,-4.36 0.16,-4.37 0.15,-4.36 0.15,-4.37 0.14,-4.36 0.15,-4.37 0.15,-4.36 0.14,-4.36 0.15,-4.37 0.14,-4.36 0.14,-4.37 0.14,-4.36 0.13,-4.37 0.14,-4.36 0.14,-4.37 0.14,-4.36 0.13,-4.36 0.13,-4.37 0.13,-4.36 0.13,-4.37 0.13,-4.37 0.13,-4.36 0.13,-4.36 0.12,-4.37 0.13,-4.36 0.12,-4.37 0.13,-4.36 0.12,-4.37 0.12,-4.36 0.12,-4.37 0.12,-4.36 0.12,-4.36 0.12,-4.37 0.12,-4.36 0.11,-4.37 0.12,-4.36 0.11,-4.37 0.11,-4.36 0.12,-4.37 0.1,-4.36 0.12,-4.36 0.11,-4.37 0.11,-4.36 0.11,-4.37 0.1,-4.37 0.11,-4.36 0.11,-4.36 0.1,-4.37 0.1,-4.36 0.11,-4.37 0.1,-4.36 0.1,-4.37 0.1,-4.36 0.11,-4.37 0.1,-4.36 0.09,-4.36 0.1,-4.37 0.1,-4.36 0.1,-4.37 0.1,-4.36 0.09,-4.37 0.1,-4.36 0.09,-4.37 0.09,-4.36 0.1,-4.36 0.09,-4.37 0.09,-4.36 0.09,-4.37 0.09,-4.37 0.09,-4.36 0.09,-4.36 0.09,-4.37 0.09,-4.36 0.09,-4.37 0.09,-4.36 0.08,-4.37 0.09,-4.36 0.08,-4.37 0.09,-4.36 0.08,-4.36 0.09,-4.37 0.08,-4.36 0.08,-4.37 0.08,-4.36 0.09,-4.37 0.08,-4.36 0.08,-4.36 0.08,-4.37 0.08,-4.36 0.07,-4.37 0.08,-4.36 0.08,-4.37 0.08,-4.36 0.08,-4.37 0.08,-4.36 0.07,-4.36 0.08,-4.37 0.07,-4.37 0.08,-4.36 0.07,-4.37 0.07,-4.36 0.07,-4.36 0.08,-4.37 0.07,-4.36 0.07,-4.37 0.07,-4.36 0.08,-4.37 0.07,-4.36 0.07,-4.37 0.07,-4.36 0.07,-4.36 0.07,-4.37 0.07,-4.36 0.06,-4.37 0.07,-4.36 0.07,-4.37 0.07,-4.36 0.06,-4.37 0.07,-4.36 0.06,-4.36 0.07,-4.37 0.06,-4.37 0.07,-4.36 0.06,-4.37 0.07,-4.36 0.06,-4.36 0.06,-4.37 0.07,-4.36 0.06,-4.37 0.06,-4.36 0.06,-4.37 0.07,-4.36 0.05,-4.37 0.07,-4.36 0.06,-4.36 0.06,-4.37 0.06,-4.36 0.06,-4.37 0.06,-4.36 0.06,-4.37 0.06,-4.36 0.05,-4.37 0.06,-4.36 0.06,-4.36 0.06,-4.37 0.05,-4.37 0.06,-4.36 0.05,-4.37 0.06,-4.36 0.06,-4.36 0.05,-4.37 0.06,-4.36 0.05,-4.37 0.06,-4.36 0.05,-4.37 0.06,-4.36 0.05,-4.37 0.05,-4.36 0.06,-4.36 0.05,-4.37 0.05,-4.36 0.06,-4.37 0.05,-4.36 0.05,-4.37 0.05,-4.36 0.05,-4.37 0.05,-4.36 0.05,-4.36 0.05,-4.37 0.05,-4.37 0.05,-4.36 0.05,-4.37 0.05,-4.36 0.05,-4.36 0.05,-4.37 0.05,-4.36 0.05,-4.37 0.05,-4.36 0.04,-4.37 0.05,-4.36 0.05,-4.37 0.05,-4.36 0.04,-4.36 0.05,-4.37 0.05,-4.36 0.05,-4.37 0.04,-4.36 0.05,-4.37 0.04,-4.36 0.05,-4.37 0.04,-4.36 0.05,-4.36 0.04,-4.37 0.05,-4.37 0.04,-4.36 0.04,-4.37 0.05,-4.36 0.04,-4.36 0.05,-4.37 0.04,-4.36 0.04,-4.37 0.05,-4.36 0.04,-4.37 0.04,-4.36 0.05,-4.37 0.04,-4.36 0.04,-4.36 0.04,-4.37 0.04,-4.36 0.05,-4.37 0.04,-4.36 0.04,-4.37 0.04,-4.36 0.04,-4.37 0.04,-4.36 0.04,-4.36 0.04,-4.37 0.04,-4.37 0.04,-4.36 0.04,-4.37 0.04,-4.36 0.04,-4.36 0.04,-4.37 0.03,-4.36 0.04,-4.37 0.04,-4.36 0.04,-4.37 0.04,-4.36 0.04,-4.37 0.04,-4.36 0.03,-4.36 0.04,-4.371 0.04,-4.363 0.03,-4.363 0.04,-4.368 0.04,-4.363 0.04,-4.363 0.03,-4.367 0.04,-4.364 0.04,-4.363 0.03,-4.367 0.04,-4.363 0.03,-4.364 0.04,-4.367 0.03,-4.363 0.04,-4.363 0.04,-4.368 0.03,-4.363 0.04,-4.363 0.03,-4.367 0.03,-4.364 0.04,-4.363 0.03,-4.367 0.04,-4.363 0.03,-4.364 0.03,-4.367 0.04,-4.363 0.03,-4.363 0.04,-4.368 0.03,-4.363 0.03,-4.363 0.03,-4.367 0.04,-4.364 0.03,-4.363 0.03,-4.367 0.04,-4.363 0.03,-4.364 0.03,-4.367 0.03,-4.363 0.04,-4.363 0.03,-4.364 0.03,-4.367 0.03,-4.363 0.03,-4.364 0.03,-4.367 0.03,-4.363 0.03,-4.363 0.04,-4.367 0.03,-4.364 0.03,-4.363 0.03,-4.367 0.03,-4.363 0.03,-4.364 0.03,-4.367 0.03,-4.363"
             style="fill:none;stroke:#00afaf;stroke-width:4.16667;stroke-linecap:butt;stroke-linejoin:miter;stroke-miterlimit:1;stroke-dasharray:none;stroke-opacity:1"
             id="path893" /><path
             d="m 1304.98,764.719 v 0 l 0.03,-4.364 0.03,-4.367 0.03,-4.363 0.03,-4.363 0.03,-4.367 0.03,-4.364 0.03,-4.363 0.02,-4.367 0.04,-4.363 0.02,-4.364 0.03,-4.367 0.03,-4.363 0.03,-4.367 0.03,-4.364 0.03,-4.363 0.03,-4.363 0.03,-4.367 0.02,-4.364 0.03,-4.363 0.03,-4.367 0.03,-4.363 0.02,-4.364 0.03,-4.367 0.03,-4.363 0.03,-4.364 0.02,-4.367 0.03,-4.363 0.03,-4.363 0.02,-4.367 0.03,-4.364 0.03,-4.363 0.03,-4.367 0.02,-4.363 0.03,-4.364 0.02,-4.367 0.03,-4.363 0.03,-4.364 0.02,-4.367 0.03,-4.363 0.03,-4.363 0.02,-4.367 0.03,-4.364 0.02,-4.363 0.03,-4.367 0.02,-4.363 0.03,-4.364 0.02,-4.367 0.03,-4.363 0.02,-4.364 0.03,-4.367 0.03,-4.363 0.02,-4.363 0.03,-4.367 0.02,-4.364 0.02,-4.363 0.03,-4.367 0.02,-4.363 0.03,-4.364 0.02,-4.367 0.02,-4.363 0.03,-4.364 0.02,-4.367 0.03,-4.363 0.02,-4.363 0.02,-4.367 0.03,-4.364 0.02,-4.363 0.03,-4.367 0.02,-4.363 0.02,-4.364 0.03,-4.367 0.02,-4.363 0.02,-4.364 0.03,-4.367 0.02,-4.363 0.02,-4.363 0.02,-4.367 0.03,-4.364 0.02,-4.363 0.02,-4.367 0.02,-4.363 0.03,-4.364 0.02,-4.367 0.02,-4.363 0.02,-4.364 0.03,-4.367 0.01,-4.363 0.03,-4.363 0.02,-4.367 0.02,-4.364"
             style="fill:none;stroke:#00afaf;stroke-width:4.16667;stroke-linecap:butt;stroke-linejoin:miter;stroke-miterlimit:1;stroke-dasharray:none;stroke-opacity:1"
             id="path895" /><path
             d="m 500,2990.65 v 0 l 26.738,-4.36 26.504,-4.37 26.043,-4.36 25.391,-4.36 24.558,-4.37 23.602,-4.37 22.543,-4.36 21.422,-4.37 20.265,-4.36 19.114,-4.36 17.972,-4.37 16.868,-4.36 15.804,-4.37 14.797,-4.36 13.848,-4.37 12.953,-4.36 12.117,-4.37 11.344,-4.36 10.625,-4.36 9.957,-4.37 9.637,-4.36 8.746,-4.37 8.222,-4.36 7.731,-4.37 7.285,-4.36 6.871,-4.37 6.481,-4.36 6.128,-4.36 5.797,-4.37 5.492,-4.37 5.204,-4.36 4.941,-4.37 4.695,-4.36 4.465,-4.36 4.25,-4.37 4.051,-4.36 3.863,-4.37 3.688,-4.36 3.523,-4.37 3.371,-4.36 3.223,-4.37 3.094,-4.36 2.961,-4.36 2.843,-4.37 2.723,-4.36 2.63,-4.37 2.52,-4.36 2.42,-4.37 2.34,-4.36 2.25,-4.37 2.17,-4.36 2.09,-4.36 2.02,-4.37 1.95,-4.37 1.88,-4.36 1.82,-4.37 1.77,-4.36 1.7,-4.36 1.65,-4.37 1.6,-4.36 1.55,-4.37 1.5,-4.36 1.46,-4.37 1.41,-4.36 1.38,-4.37 1.33,-4.36 1.3,-4.36 1.26,-4.37 1.22,-4.36 1.19,-4.37 1.16,-4.36 1.13,-4.37 1.1,-4.36 1.07,-4.37 1.04,-4.36 1.02,-4.36 0.99,-4.37 0.97,-4.37 0.94,-4.36 0.92,-4.37 0.9,-4.36 0.87,-4.36 0.86,-4.37 0.84,-4.36 0.82,-4.37 0.8,-4.36 0.78,-4.37 0.76,-4.36 0.75,-4.37 0.73,-4.36 0.71,-4.36 0.7,-4.37 0.69,-4.36 0.67,-4.37 0.66,-4.36 0.64,-4.37 0.64,-4.36 0.62,-4.37 0.6,-4.36 0.6,-4.36 0.58,-4.37 0.57,-4.37 0.57,-4.36 0.55,-4.37 0.54,-4.36 0.53,-4.36 0.52,-4.37 0.51,-4.36 0.5,-4.37 0.49,-4.36 0.49,-4.37 0.47,-4.36 0.47,-4.37 0.46,-4.36 0.45,-4.36 0.45,-4.37 0.43,-4.36 0.43,-4.37 0.42,-4.36 0.42,-4.37 0.41,-4.36 0.4,-4.37 0.4,-4.36 0.39,-4.36 0.38,-4.37 0.37,-4.37 0.37,-4.36 0.37,-4.36 0.36,-4.37 0.36,-4.36 0.34,-4.37 0.35,-4.36 0.34,-4.37 0.33,-4.36 0.33,-4.37 0.33,-4.36 0.31,-4.36 0.32,-4.37 0.31,-4.36 0.31,-4.37 0.3,-4.36 0.29,-4.37 0.3,-4.36 0.29,-4.37 0.28,-4.36 0.29,-4.36 0.27,-4.37 0.28,-4.36 0.27,-4.37 0.26,-4.37 0.27,-4.36 0.26,-4.36 0.25,-4.37 0.26,-4.36 0.25,-4.37 0.24,-4.36 0.25,-4.37 0.24,-4.36 0.24,-4.37 0.23,-4.36 0.23,-4.36 0.23,-4.37 0.23,-4.36 0.22,-4.37 0.22,-4.36 0.22,-4.37 0.22,-4.36 0.21,-4.37 0.21,-4.36 0.21,-4.36 0.2,-4.37 0.21,-4.36 0.2,-4.37 0.19,-4.37 0.2,-4.36 0.2,-4.36 0.19,-4.37 0.19,-4.36 0.19,-4.37 0.18,-4.36 0.19,-4.37 0.18,-4.36 0.18,-4.37 0.18,-4.36 0.17,-4.36 0.17,-4.37 0.18,-4.36 0.17,-4.37 0.17,-4.36 0.16,-4.37 0.17,-4.36 0.16,-4.37 0.16,-4.36 0.16,-4.36 0.16,-4.37 0.16,-4.36 0.15,-4.37 0.16,-4.37 0.15,-4.36 0.15,-4.36 0.15,-4.37 0.14,-4.36 0.15,-4.37 0.14,-4.36 0.15,-4.37 0.14,-4.36 0.14,-4.37 0.14,-4.36 0.14,-4.36 0.13,-4.37 0.14,-4.36 0.13,-4.37 0.14,-4.36 0.13,-4.37 0.13,-4.36 0.13,-4.37 0.12,-4.36 0.13,-4.36 0.13,-4.37 0.12,-4.36 0.12,-4.37 0.13,-4.37 0.12,-4.36 0.12,-4.36 0.12,-4.37 0.12,-4.36 0.11,-4.37 0.12,-4.36 0.11,-4.37 0.12,-4.36 0.11,-4.37 0.11,-4.36 0.11,-4.36 0.11,-4.37 0.11,-4.36 0.11,-4.37 0.11,-4.36 0.1,-4.37 0.11,-4.36 0.1,-4.37 0.11,-4.36 0.1,-4.36 0.1,-4.37 0.1,-4.36 0.11,-4.37 0.09,-4.37 0.1,-4.36 0.1,-4.36 0.1,-4.37 0.09,-4.36 0.1,-4.37 0.09,-4.36 0.1,-4.37 0.09,-4.36 0.1,-4.37 0.09,-4.36 0.09,-4.36 0.09,-4.37 0.09,-4.36 0.09,-4.37 0.09,-4.36 0.08,-4.37 0.09,-4.36 0.09,-4.37 0.08,-4.36 0.09,-4.36 0.08,-4.37 0.09,-4.36 0.08,-4.37 0.08,-4.37 0.09,-4.36 0.08,-4.36 0.08,-4.37 0.08,-4.36 0.08,-4.37 0.08,-4.36 0.08,-4.37 0.08,-4.36 0.07,-4.37 0.08,-4.36 0.08,-4.36 0.07,-4.37 0.07,-4.36 0.08,-4.37 0.08,-4.36 0.07,-4.37 0.07,-4.36 0.08,-4.37 0.07,-4.36 0.07,-4.36 0.07,-4.37 0.07,-4.36 0.07,-4.37 0.07,-4.37 0.07,-4.36 0.07,-4.36 0.07,-4.37 0.06,-4.36 0.07,-4.37 0.07,-4.36 0.07,-4.37 0.06,-4.36 0.07,-4.37 0.06,-4.36 0.07,-4.36 0.06,-4.37 0.06,-4.36 0.07,-4.37 0.06,-4.36 0.07,-4.37 0.06,-4.36 0.06,-4.36 0.06,-4.37 0.06,-4.36 0.06,-4.37 0.06,-4.36 0.06,-4.37 0.06,-4.36 0.06,-4.37 0.06,-4.36 0.06,-4.36 0.06,-4.37 0.06,-4.37 0.05,-4.36 0.06,-4.37 0.06,-4.36 0.05,-4.36 0.06,-4.37 0.06,-4.36 0.05,-4.37 0.06,-4.36 0.05,-4.37 0.06,-4.36 0.05,-4.37 0.05,-4.36 0.06,-4.36 0.05,-4.37 0.05,-4.36 0.06,-4.37 0.05,-4.36 0.05,-4.37 0.05,-4.36 0.05,-4.37 0.05,-4.36 0.05,-4.36 0.06,-4.37 0.04,-4.37 0.05,-4.36 0.05,-4.37 0.05,-4.36 0.05,-4.36 0.05,-4.37 0.05,-4.36 0.05,-4.37 0.04,-4.36 0.05,-4.37 0.05,-4.36 0.05,-4.37 0.04,-4.36 0.05,-4.36 0.04,-4.37 0.05,-4.36 0.05,-4.37 0.04,-4.36 0.05,-4.37 0.04,-4.36 0.05,-4.37 0.04,-4.36 0.05,-4.36 0.04,-4.37 0.04,-4.37 0.05,-4.36 0.04,-4.37 0.05,-4.36 0.04,-4.36 0.04,-4.37 0.04,-4.36 0.04,-4.37 0.05,-4.36 0.04,-4.37 0.04,-4.36 0.04,-4.37 0.04,-4.36 0.04,-4.36 0.04,-4.37 0.05,-4.36 0.04,-4.37 0.03,-4.36 0.04,-4.37 0.05,-4.36 0.04,-4.37 0.03,-4.36 0.04,-4.36 0.04,-4.37 0.04,-4.37 0.04,-4.36 0.04,-4.37 0.03,-4.36 0.04,-4.36 0.04,-4.37 0.04,-4.36 0.03,-4.37 0.04,-4.36 0.04,-4.37 0.04,-4.36 0.03,-4.37 0.04,-4.36 0.04,-4.36 0.03,-4.37 0.04,-4.36 0.03,-4.37 0.04,-4.36 0.04,-4.37 0.03,-4.36 0.03,-4.37 0.04,-4.36 0.03,-4.36 0.04,-4.37 0.03,-4.37 0.04,-4.36 0.03,-4.37 0.03,-4.36 0.04,-4.36 0.03,-4.37 0.04,-4.36 0.03,-4.37 0.03,-4.36 0.03,-4.37 0.04,-4.36 0.03,-4.37 0.03,-4.36 0.04,-4.36 0.03,-4.37 0.03,-4.36 0.03,-4.37 0.03,-4.36 0.03,-4.37 0.03,-4.36 0.03,-4.37 0.04,-4.36 0.03,-4.36 0.03,-4.37 0.03,-4.37 0.03,-4.36 0.03,-4.37 0.03,-4.36 0.03,-4.36 0.03,-4.37 0.03,-4.36 0.03,-4.37 0.03,-4.36 0.03,-4.37 0.03,-4.36 0.03,-4.37 0.03,-4.36 0.03,-4.36 0.03,-4.371 0.03,-4.363 0.02,-4.363 0.03,-4.368 0.03,-4.363 0.03,-4.363 0.03,-4.367 0.02,-4.364 0.03,-4.363 0.03,-4.367 0.03,-4.363 0.03,-4.364 0.02,-4.367 0.03,-4.363 0.03,-4.363 0.03,-4.368 0.02,-4.363 0.03,-4.363 0.02,-4.367 0.03,-4.364 0.03,-4.363 0.03,-4.367 0.02,-4.363 0.03,-4.364 0.02,-4.367 0.03,-4.363 0.02,-4.363 0.03,-4.368 0.03,-4.363 0.02,-4.363 0.03,-4.367 0.02,-4.364 0.03,-4.363 0.02,-4.367 0.03,-4.363 0.02,-4.364 0.03,-4.367 0.02,-4.363 0.03,-4.363 0.02,-4.364 0.03,-4.367 0.02,-4.363 0.02,-4.364 0.03,-4.367 0.02,-4.363 0.03,-4.363 0.02,-4.367 0.02,-4.364 0.03,-4.363 0.02,-4.367 0.02,-4.363 0.03,-4.364 0.02,-4.367 0.03,-4.363"
             style="fill:none;stroke:#ff00ff;stroke-width:4.16667;stroke-linecap:butt;stroke-linejoin:miter;stroke-miterlimit:1;stroke-dasharray:none;stroke-opacity:1"
             id="path897" /><path
             d="m 1119.13,764.719 v 0 l 0.02,-4.364 0.02,-4.367 0.03,-4.363 0.02,-4.363 0.02,-4.367 0.02,-4.364 0.03,-4.363 0.02,-4.367 0.02,-4.363 0.02,-4.364 0.03,-4.367 0.02,-4.363 0.02,-4.367 0.02,-4.364 0.02,-4.363 0.02,-4.363 0.02,-4.367 0.03,-4.364 0.02,-4.363 0.02,-4.367 0.02,-4.363 0.02,-4.364 0.02,-4.367 0.03,-4.363 0.02,-4.364 0.02,-4.367 0.02,-4.363 0.02,-4.363 0.02,-4.367 0.02,-4.364 0.02,-4.363 0.02,-4.367 0.02,-4.363 0.02,-4.364 0.02,-4.367 0.02,-4.363 0.02,-4.364 0.03,-4.367 0.01,-4.363 0.02,-4.363 0.02,-4.367 0.02,-4.364 0.02,-4.363 0.02,-4.367 0.02,-4.363 0.02,-4.364 0.02,-4.367 0.02,-4.363 0.02,-4.364 0.02,-4.367 0.02,-4.363 0.02,-4.363 0.01,-4.367 0.02,-4.364 0.02,-4.363 0.02,-4.367 0.02,-4.363 0.02,-4.364 0.02,-4.367 0.02,-4.363 0.02,-4.364 0.02,-4.367 0.01,-4.363 0.02,-4.363 0.02,-4.367 0.02,-4.364 0.02,-4.363 0.02,-4.367 0.01,-4.363 0.02,-4.364 0.02,-4.367 0.02,-4.363 0.01,-4.364 0.02,-4.367 0.02,-4.363 0.02,-4.363 0.01,-4.367 0.02,-4.364 0.02,-4.363 0.02,-4.367 0.01,-4.363 0.02,-4.364 0.02,-4.367 0.01,-4.363 0.02,-4.364 0.02,-4.367 0.01,-4.363 0.02,-4.363 0.02,-4.367 0.01,-4.364"
             style="fill:none;stroke:#ff00ff;stroke-width:4.16667;stroke-linecap:butt;stroke-linejoin:miter;stroke-miterlimit:1;stroke-dasharray:none;stroke-opacity:1"
             id="path899" /><path
             d="m 500,2990.65 v 0 l 19.445,-4.36 19.278,-4.37 18.945,-4.36 18.465,-4.36 17.863,-4.37 17.164,-4.37 16.395,-4.36 15.578,-4.37 14.742,-4.36 13.902,-4.36 13.071,-4.37 12.269,-4.36 11.492,-4.37 10.762,-4.36 10.07,-4.37 9.422,-4.36 8.813,-4.37 8.25,-4.36 7.726,-4.36 7.243,-4.37 7.011,-4.36 6.36,-4.37 5.98,-4.36 5.625,-4.37 5.297,-4.36 4.996,-4.37 4.715,-4.36 4.457,-4.36 4.215,-4.37 3.996,-4.37 3.785,-4.36 3.594,-4.37 3.414,-4.36 3.246,-4.36 3.09,-4.37 2.949,-4.36 2.809,-4.37 2.683,-4.36 2.563,-4.37 2.449,-4.36 2.348,-4.37 2.246,-4.36 2.156,-4.36 2.066,-4.37 1.985,-4.36 1.906,-4.37 1.836,-4.36 1.762,-4.37 1.699,-4.36 1.637,-4.37 1.578,-4.36 1.523,-4.36 1.469,-4.37 1.418,-4.37 1.367,-4.36 1.328,-4.37 1.281,-4.36 1.239,-4.36 1.199,-4.37 1.164,-4.36 1.129,-4.37 1.09,-4.36 1.062,-4.37 1.028,-4.36 1,-4.37 0.968,-4.36 0.942,-4.36 0.918,-4.37 0.89,-4.36 0.867,-4.37 0.84,-4.36 0.821,-4.37 0.8,-4.36 0.778,-4.37 0.758,-4.36 0.742,-4.36 0.719,-4.37 0.703,-4.37 0.687,-4.36 0.668,-4.37 0.652,-4.36 0.637,-4.36 0.625,-4.37 0.61,-4.36 0.593,-4.37 0.582,-4.36 0.567,-4.37 0.558,-4.36 0.543,-4.37 0.532,-4.36 0.519,-4.36 0.512,-4.37 0.496,-4.36 0.488,-4.37 0.481,-4.36 0.468,-4.37 0.457,-4.36 0.454,-4.37 0.441,-4.36 0.43,-4.36 0.425,-4.37 0.418,-4.37 0.407,-4.36 0.402,-4.37 0.391,-4.36 0.386,-4.36 0.379,-4.37 0.371,-4.36 0.368,-4.37 0.359,-4.36 0.351,-4.37 0.344,-4.36 0.34,-4.37 0.336,-4.36 0.328,-4.36 0.324,-4.37 0.317,-4.36 0.312,-4.37 0.309,-4.36 0.301,-4.37 0.296,-4.36 0.293,-4.37 0.286,-4.36 0.285,-4.36 0.277,-4.37 0.274,-4.37 0.273,-4.36 0.266,-4.36 0.261,-4.37 0.258,-4.36 0.254,-4.37 0.25,-4.36 0.246,-4.37 0.242,-4.36 0.239,-4.37 0.238,-4.36 0.23,-4.36 0.231,-4.37 0.222,-4.36 0.223,-4.37 0.223,-4.36 0.215,-4.37 0.214,-4.36 0.211,-4.37 0.207,-4.36 0.204,-4.36 0.203,-4.37 0.199,-4.36 0.195,-4.37 0.196,-4.37 0.191,-4.36 0.187,-4.36 0.188,-4.37 0.184,-4.36 0.183,-4.37 0.18,-4.36 0.176,-4.37 0.175,-4.36 0.172,-4.37 0.172,-4.36 0.168,-4.36 0.168,-4.37 0.164,-4.36 0.16,-4.37 0.164,-4.36 0.157,-4.37 0.156,-4.36 0.156,-4.37 0.152,-4.36 0.153,-4.36 0.148,-4.37 0.149,-4.36 0.144,-4.37 0.145,-4.37 0.144,-4.36 0.141,-4.36 0.141,-4.37 0.136,-4.36 0.137,-4.37 0.137,-4.36 0.132,-4.37 0.133,-4.36 0.129,-4.37 0.129,-4.36 0.129,-4.36 0.125,-4.37 0.125,-4.36 0.125,-4.37 0.125,-4.36 0.121,-4.37 0.117,-4.36 0.121,-4.37 0.118,-4.36 0.117,-4.36 0.113,-4.37 0.113,-4.36 0.114,-4.37 0.113,-4.37 0.109,-4.36 0.11,-4.36 0.109,-4.37 0.105,-4.36 0.106,-4.37 0.105,-4.36 0.106,-4.37 0.105,-4.36 0.102,-4.37 0.101,-4.36 0.098,-4.36 0.102,-4.37 0.097,-4.36 0.098,-4.37 0.098,-4.36 0.093,-4.37 0.094,-4.36 0.094,-4.37 0.094,-4.36 0.093,-4.36 0.09,-4.37 0.09,-4.36 0.09,-4.37 0.09,-4.37 0.09,-4.36 0.086,-4.36 0.086,-4.37 0.085,-4.36 0.086,-4.37 0.082,-4.36 0.086,-4.37 0.082,-4.36 0.082,-4.37 0.082,-4.36 0.082,-4.36 0.079,-4.37 0.078,-4.36 0.078,-4.37 0.078,-4.36 0.078,-4.37 0.078,-4.36 0.074,-4.37 0.079,-4.36 0.074,-4.36 0.074,-4.37 0.074,-4.36 0.071,-4.37 0.074,-4.37 0.07,-4.36 0.074,-4.36 0.071,-4.37 0.07,-4.36 0.066,-4.37 0.071,-4.36 0.07,-4.37 0.066,-4.36 0.067,-4.37 0.066,-4.36 0.067,-4.36 0.066,-4.37 0.066,-4.36 0.067,-4.37 0.062,-4.36 0.063,-4.37 0.066,-4.36 0.063,-4.37 0.062,-4.36 0.063,-4.36 0.058,-4.37 0.063,-4.36 0.058,-4.37 0.063,-4.37 0.058,-4.36 0.059,-4.36 0.059,-4.37 0.058,-4.36 0.059,-4.37 0.058,-4.36 0.059,-4.37 0.055,-4.36 0.054,-4.37 0.059,-4.36 0.055,-4.36 0.054,-4.37 0.055,-4.36 0.055,-4.37 0.054,-4.36 0.055,-4.37 0.051,-4.36 0.055,-4.37 0.05,-4.36 0.055,-4.36 0.051,-4.37 0.051,-4.36 0.05,-4.37 0.051,-4.37 0.051,-4.36 0.051,-4.36 0.047,-4.37 0.05,-4.36 0.051,-4.37 0.047,-4.36 0.051,-4.37 0.047,-4.36 0.047,-4.37 0.046,-4.36 0.047,-4.36 0.047,-4.37 0.047,-4.36 0.047,-4.37 0.047,-4.36 0.047,-4.37 0.043,-4.36 0.047,-4.36 0.043,-4.37 0.046,-4.36 0.043,-4.37 0.043,-4.36 0.043,-4.37 0.043,-4.36 0.043,-4.37 0.043,-4.36 0.043,-4.36 0.043,-4.37 0.043,-4.37 0.043,-4.36 0.039,-4.37 0.043,-4.36 0.039,-4.36 0.043,-4.37 0.039,-4.36 0.039,-4.37 0.043,-4.36 0.039,-4.37 0.039,-4.36 0.039,-4.37 0.04,-4.36 0.039,-4.36 0.039,-4.37 0.039,-4.36 0.035,-4.37 0.039,-4.36 0.039,-4.37 0.035,-4.36 0.039,-4.37 0.035,-4.36 0.039,-4.36 0.036,-4.37 0.039,-4.37 0.035,-4.36 0.035,-4.37 0.035,-4.36 0.035,-4.36 0.035,-4.37 0.036,-4.36 0.035,-4.37 0.035,-4.36 0.035,-4.37 0.035,-4.36 0.035,-4.37 0.032,-4.36 0.035,-4.36 0.035,-4.37 0.031,-4.36 0.035,-4.37 0.032,-4.36 0.035,-4.37 0.031,-4.36 0.031,-4.37 0.035,-4.36 0.032,-4.36 0.031,-4.37 0.031,-4.37 0.031,-4.36 0.032,-4.37 0.035,-4.36 0.027,-4.36 0.031,-4.37 0.032,-4.36 0.031,-4.37 0.031,-4.36 0.031,-4.37 0.032,-4.36 0.027,-4.37 0.031,-4.36 0.031,-4.36 0.028,-4.37 0.031,-4.36 0.027,-4.37 0.032,-4.36 0.027,-4.37 0.027,-4.36 0.032,-4.37 0.027,-4.36 0.027,-4.36 0.032,-4.37 0.027,-4.37 0.027,-4.36 0.028,-4.37 0.027,-4.36 0.027,-4.36 0.028,-4.37 0.027,-4.36 0.027,-4.37 0.028,-4.36 0.027,-4.37 0.027,-4.36 0.028,-4.37 0.023,-4.36 0.027,-4.36 0.028,-4.37 0.027,-4.36 0.024,-4.37 0.027,-4.36 0.023,-4.37 0.028,-4.36 0.023,-4.37 0.027,-4.36 0.024,-4.36 0.027,-4.37 0.024,-4.37 0.027,-4.36 0.023,-4.37 0.024,-4.36 0.023,-4.36 0.028,-4.37 0.023,-4.36 0.024,-4.37 0.023,-4.36 0.023,-4.37 0.028,-4.36 0.023,-4.37 0.024,-4.36 0.023,-4.36 0.024,-4.37 0.023,-4.36 0.023,-4.37 0.024,-4.36 0.019,-4.37 0.024,-4.36 0.023,-4.37 0.024,-4.36 0.023,-4.36 0.02,-4.37 0.023,-4.37 0.024,-4.36 0.019,-4.37 0.024,-4.36 0.023,-4.36 0.019,-4.37 0.024,-4.36 0.019,-4.37 0.024,-4.36 0.019,-4.37 0.024,-4.36 0.019,-4.37 0.024,-4.36 0.019,-4.36 0.024,-4.371 0.019,-4.363 0.02,-4.363 0.023,-4.368 0.02,-4.363 0.019,-4.363 0.02,-4.367 0.023,-4.364 0.02,-4.363 0.019,-4.367 0.02,-4.363 0.019,-4.364 0.02,-4.367 0.02,-4.363 0.019,-4.363 0.02,-4.368 0.023,-4.363 0.016,-4.363 0.019,-4.367 0.02,-4.364 0.019,-4.363 0.02,-4.367 0.019,-4.363 0.02,-4.364 0.019,-4.367 0.02,-4.363 0.019,-4.363 0.016,-4.368 0.02,-4.363 0.019,-4.363 0.02,-4.367 0.015,-4.364 0.02,-4.363 0.019,-4.367 0.016,-4.363 0.019,-4.364 0.02,-4.367 0.016,-4.363 0.019,-4.363 0.016,-4.364 0.019,-4.367 0.02,-4.363 0.015,-4.364 0.016,-4.367 0.02,-4.363 0.015,-4.363 0.02,-4.367 0.015,-4.364 0.02,-4.363 0.016,-4.367 0.015,-4.363 0.02,-4.364 0.015,-4.367 0.016,-4.363"
             style="fill:none;stroke:#808080;stroke-width:4.16667;stroke-linecap:butt;stroke-linejoin:miter;stroke-miterlimit:1;stroke-dasharray:none;stroke-opacity:1"
             id="path901" /><path
             d="m 950.293,764.719 v 0 l 0.02,-4.364 0.015,-4.367 0.016,-4.363 0.015,-4.363 0.02,-4.367 0.016,-4.364 0.015,-4.363 0.016,-4.367 0.015,-4.363 0.02,-4.364 0.016,-4.367 0.015,-4.363 0.016,-4.367 0.015,-4.364 0.016,-4.363 0.016,-4.363 0.015,-4.367 0.016,-4.364 0.016,-4.363 0.015,-4.367 0.016,-4.363 0.015,-4.364 0.016,-4.367 0.016,-4.363 0.015,-4.364 0.016,-4.367 0.016,-4.363 0.015,-4.363 0.016,-4.367 0.015,-4.364 0.012,-4.363 0.016,-4.367 0.015,-4.363 0.016,-4.364 0.016,-4.367 0.011,-4.363 0.016,-4.364 0.016,-4.367 0.015,-4.363 0.012,-4.363 0.016,-4.367 0.015,-4.364 0.012,-4.363 0.016,-4.367 0.015,-4.363 0.012,-4.364 0.016,-4.367 0.015,-4.363 0.012,-4.364 0.016,-4.367 0.011,-4.363 0.016,-4.363 0.012,-4.367 0.015,-4.364 0.012,-4.363 0.016,-4.367 0.011,-4.363 0.016,-4.364 0.012,-4.367 0.015,-4.363 0.012,-4.364 0.016,-4.367 0.011,-4.363 0.012,-4.363 0.016,-4.367 0.011,-4.364 0.016,-4.363 0.012,-4.367 0.011,-4.363 0.016,-4.364 0.012,-4.367 0.011,-4.363 0.016,-4.364 0.012,-4.367 0.012,-4.363 0.011,-4.363 0.016,-4.367 0.012,-4.364 0.011,-4.363 0.012,-4.367 0.016,-4.363 0.011,-4.364 0.012,-4.367 0.012,-4.363 0.012,-4.364 0.015,-4.367 0.012,-4.363 0.012,-4.363 0.011,-4.367 0.012,-4.364"
             style="fill:none;stroke:#808080;stroke-width:4.16667;stroke-linecap:butt;stroke-linejoin:miter;stroke-miterlimit:1;stroke-dasharray:none;stroke-opacity:1"
             id="path903" /><path
             d="m 500,2990.65 v 0 l 12.973,-4.36 12.863,-4.37 12.637,-4.36 12.32,-4.36 11.918,-4.37 11.449,-4.37 10.938,-4.36 10.394,-4.37 9.836,-4.36 9.274,-4.36 8.722,-4.37 8.184,-4.36 7.668,-4.37 7.179,-4.36 6.719,-4.37 6.285,-4.36 5.879,-4.37 5.504,-4.36 5.156,-4.36 4.832,-4.37 4.676,-4.36 4.246,-4.37 3.989,-4.36 3.754,-4.37 3.531,-4.36 3.336,-4.37 3.144,-4.36 2.973,-4.36 2.812,-4.37 2.664,-4.37 2.528,-4.36 2.398,-4.37 2.278,-4.36 2.164,-4.36 2.062,-4.37 1.965,-4.36 1.875,-4.37 1.789,-4.36 1.711,-4.37 1.637,-4.36 1.562,-4.37 1.5,-4.36 1.438,-4.36 1.379,-4.37 1.324,-4.36 1.273,-4.37 1.223,-4.36 1.18,-4.37 1.132,-4.36 1.09,-4.37 1.055,-4.36 1.012,-4.36 0.98,-4.37 0.945,-4.37 0.918,-4.36 0.883,-4.37 0.856,-4.36 0.824,-4.36 0.801,-4.37 0.777,-4.36 0.754,-4.37 0.727,-4.36 0.707,-4.37 0.687,-4.36 0.668,-4.37 0.645,-4.36 0.628,-4.36 0.614,-4.37 0.594,-4.36 0.578,-4.37 0.562,-4.36 0.547,-4.37 0.531,-4.36 0.52,-4.37 0.508,-4.36 0.492,-4.36 0.48,-4.37 0.469,-4.37 0.457,-4.36 0.449,-4.37 0.434,-4.36 0.426,-4.36 0.414,-4.37 0.406,-4.36 0.398,-4.37 0.387,-4.36 0.379,-4.37 0.371,-4.36 0.363,-4.37 0.356,-4.36 0.348,-4.36 0.339,-4.37 0.332,-4.36 0.329,-4.37 0.316,-4.36 0.312,-4.37 0.309,-4.36 0.301,-4.37 0.293,-4.36 0.289,-4.36 0.281,-4.37 0.277,-4.37 0.274,-4.36 0.269,-4.37 0.262,-4.36 0.258,-4.36 0.25,-4.37 0.25,-4.36 0.242,-4.37 0.238,-4.36 0.239,-4.37 0.23,-4.36 0.227,-4.37 0.222,-4.36 0.219,-4.36 0.215,-4.37 0.211,-4.36 0.211,-4.37 0.203,-4.36 0.203,-4.37 0.199,-4.36 0.192,-4.37 0.195,-4.36 0.188,-4.36 0.187,-4.37 0.18,-4.37 0.179,-4.36 0.18,-4.36 0.176,-4.37 0.172,-4.36 0.168,-4.37 0.168,-4.36 0.164,-4.37 0.16,-4.36 0.16,-4.37 0.156,-4.36 0.157,-4.36 0.152,-4.37 0.152,-4.36 0.149,-4.37 0.144,-4.36 0.145,-4.37 0.144,-4.36 0.141,-4.37 0.137,-4.36 0.136,-4.36 0.137,-4.37 0.133,-4.36 0.129,-4.37 0.129,-4.37 0.129,-4.36 0.125,-4.36 0.125,-4.37 0.125,-4.36 0.121,-4.37 0.117,-4.36 0.121,-4.37 0.117,-4.36 0.113,-4.37 0.114,-4.36 0.113,-4.36 0.109,-4.37 0.114,-4.36 0.105,-4.37 0.109,-4.36 0.106,-4.37 0.105,-4.36 0.102,-4.37 0.102,-4.36 0.101,-4.36 0.102,-4.37 0.097,-4.36 0.098,-4.37 0.098,-4.37 0.093,-4.36 0.094,-4.36 0.094,-4.37 0.09,-4.36 0.093,-4.37 0.09,-4.36 0.09,-4.37 0.086,-4.36 0.09,-4.37 0.086,-4.36 0.082,-4.36 0.086,-4.37 0.082,-4.36 0.086,-4.37 0.082,-4.36 0.078,-4.37 0.082,-4.36 0.078,-4.37 0.078,-4.36 0.078,-4.36 0.079,-4.37 0.074,-4.36 0.074,-4.37 0.074,-4.37 0.074,-4.36 0.075,-4.36 0.074,-4.37 0.07,-4.36 0.07,-4.37 0.071,-4.36 0.07,-4.37 0.066,-4.36 0.071,-4.37 0.066,-4.36 0.067,-4.36 0.066,-4.37 0.066,-4.36 0.067,-4.37 0.062,-4.36 0.067,-4.37 0.062,-4.36 0.063,-4.37 0.062,-4.36 0.059,-4.36 0.062,-4.37 0.059,-4.36 0.062,-4.37 0.059,-4.37 0.059,-4.36 0.058,-4.36 0.059,-4.37 0.054,-4.36 0.059,-4.37 0.055,-4.36 0.058,-4.37 0.055,-4.36 0.055,-4.37 0.054,-4.36 0.051,-4.36 0.055,-4.37 0.055,-4.36 0.05,-4.37 0.051,-4.36 0.055,-4.37 0.051,-4.36 0.05,-4.37 0.051,-4.36 0.047,-4.36 0.051,-4.37 0.051,-4.36 0.046,-4.37 0.047,-4.37 0.051,-4.36 0.047,-4.36 0.047,-4.37 0.047,-4.36 0.047,-4.37 0.047,-4.36 0.042,-4.37 0.047,-4.36 0.043,-4.37 0.047,-4.36 0.043,-4.36 0.043,-4.37 0.047,-4.36 0.043,-4.37 0.043,-4.36 0.043,-4.37 0.039,-4.36 0.043,-4.37 0.043,-4.36 0.039,-4.36 0.043,-4.37 0.039,-4.36 0.043,-4.37 0.039,-4.37 0.039,-4.36 0.039,-4.36 0.039,-4.37 0.039,-4.36 0.039,-4.37 0.039,-4.36 0.039,-4.37 0.036,-4.36 0.039,-4.37 0.039,-4.36 0.035,-4.36 0.039,-4.37 0.035,-4.36 0.035,-4.37 0.035,-4.36 0.04,-4.37 0.035,-4.36 0.035,-4.37 0.035,-4.36 0.035,-4.36 0.031,-4.37 0.036,-4.36 0.035,-4.37 0.035,-4.37 0.031,-4.36 0.035,-4.36 0.032,-4.37 0.035,-4.36 0.031,-4.37 0.031,-4.36 0.035,-4.37 0.032,-4.36 0.031,-4.37 0.031,-4.36 0.031,-4.36 0.032,-4.37 0.031,-4.36 0.031,-4.37 0.031,-4.36 0.032,-4.37 0.027,-4.36 0.031,-4.36 0.031,-4.37 0.028,-4.36 0.031,-4.37 0.027,-4.36 0.032,-4.37 0.027,-4.36 0.031,-4.37 0.028,-4.36 0.027,-4.36 0.027,-4.37 0.031,-4.37 0.028,-4.36 0.027,-4.37 0.028,-4.36 0.027,-4.36 0.027,-4.37 0.028,-4.36 0.027,-4.37 0.023,-4.36 0.028,-4.37 0.027,-4.36 0.027,-4.37 0.024,-4.36 0.027,-4.36 0.027,-4.37 0.024,-4.36 0.027,-4.37 0.024,-4.36 0.027,-4.37 0.023,-4.36 0.024,-4.37 0.027,-4.36 0.024,-4.36 0.023,-4.37 0.027,-4.37 0.024,-4.36 0.023,-4.37 0.024,-4.36 0.023,-4.36 0.024,-4.37 0.023,-4.36 0.024,-4.37 0.023,-4.36 0.023,-4.37 0.024,-4.36 0.023,-4.37 0.02,-4.36 0.023,-4.36 0.024,-4.37 0.023,-4.36 0.02,-4.37 0.023,-4.36 0.024,-4.37 0.019,-4.36 0.024,-4.37 0.019,-4.36 0.023,-4.36 0.02,-4.37 0.023,-4.37 0.02,-4.36 0.023,-4.37 0.02,-4.36 0.019,-4.36 0.024,-4.37 0.019,-4.36 0.02,-4.37 0.02,-4.36 0.023,-4.37 0.019,-4.36 0.02,-4.37 0.02,-4.36 0.019,-4.36 0.02,-4.37 0.019,-4.36 0.02,-4.37 0.019,-4.36 0.02,-4.37 0.019,-4.36 0.02,-4.37 0.019,-4.36 0.02,-4.36 0.015,-4.37 0.02,-4.37 0.02,-4.36 0.019,-4.37 0.02,-4.36 0.015,-4.36 0.02,-4.37 0.015,-4.36 0.02,-4.37 0.019,-4.36 0.016,-4.37 0.02,-4.36 0.015,-4.37 0.02,-4.36 0.015,-4.36 0.02,-4.37 0.016,-4.36 0.019,-4.37 0.016,-4.36 0.019,-4.37 0.016,-4.36 0.015,-4.37 0.02,-4.36 0.016,-4.36 0.015,-4.37 0.02,-4.37 0.015,-4.36 0.016,-4.37 0.016,-4.36 0.015,-4.36 0.02,-4.37 0.015,-4.36 0.016,-4.37 0.016,-4.36 0.015,-4.37 0.016,-4.36 0.016,-4.37 0.015,-4.36 0.016,-4.36 0.015,-4.37 0.016,-4.36 0.016,-4.37 0.015,-4.36 0.016,-4.37 0.016,-4.36 0.015,-4.37 0.016,-4.36 0.015,-4.36 0.012,-4.37 0.016,-4.37 0.015,-4.36 0.016,-4.37 0.016,-4.36 0.011,-4.36 0.016,-4.37 0.016,-4.36 0.011,-4.37 0.016,-4.36 0.016,-4.37 0.011,-4.36 0.016,-4.37 0.016,-4.36 0.011,-4.36 0.016,-4.371 0.012,-4.363 0.015,-4.363 0.016,-4.368 0.012,-4.363 0.015,-4.363 0.012,-4.367 0.016,-4.364 0.011,-4.363 0.016,-4.367 0.012,-4.363 0.011,-4.364 0.016,-4.367 0.012,-4.363 0.015,-4.363 0.012,-4.368 0.012,-4.363 0.015,-4.363 0.012,-4.367 0.012,-4.364 0.015,-4.363 0.012,-4.367 0.012,-4.363 0.012,-4.364 0.015,-4.367 0.012,-4.363 0.012,-4.363 0.011,-4.368 0.012,-4.363 0.016,-4.363 0.011,-4.367 0.012,-4.364 0.012,-4.363 0.012,-4.367 0.011,-4.363 0.012,-4.364 0.012,-4.367 0.011,-4.363 0.016,-4.363 0.012,-4.364 0.012,-4.367 0.011,-4.363 0.012,-4.364 0.012,-4.367 0.011,-4.363 0.012,-4.363 0.012,-4.367 0.008,-4.364 0.011,-4.363 0.012,-4.367 0.012,-4.363 0.012,-4.364 0.011,-4.367 0.012,-4.363"
             style="fill:none;stroke:#038000;stroke-width:4.16667;stroke-linecap:butt;stroke-linejoin:miter;stroke-miterlimit:1;stroke-dasharray:none;stroke-opacity:1"
             id="path905" /><path
             d="m 800.418,764.719 v 0 l 0.012,-4.364 0.011,-4.367 0.012,-4.363 0.008,-4.363 0.012,-4.367 0.011,-4.364 0.012,-4.363 0.012,-4.367 0.008,-4.363 0.011,-4.364 0.012,-4.367 0.012,-4.363 0.008,-4.367 0.011,-4.364 0.012,-4.363 0.012,-4.363 0.008,-4.367 0.011,-4.364 0.012,-4.363 0.008,-4.367 0.012,-4.363 0.011,-4.364 0.008,-4.367 0.012,-4.363 0.008,-4.364 0.011,-4.367 0.012,-4.363 0.008,-4.363 0.012,-4.367 0.007,-4.364 0.012,-4.363 0.008,-4.367 0.012,-4.363 0.011,-4.364 0.008,-4.367 0.012,-4.363 0.008,-4.364 0.011,-4.367 0.008,-4.363 0.012,-4.363 0.008,-4.367 0.011,-4.364 0.008,-4.363 0.008,-4.367 0.012,-4.363 0.008,-4.364 0.011,-4.367 0.008,-4.363 0.012,-4.364 0.008,-4.367 0.008,-4.363 0.011,-4.363 0.008,-4.367 0.008,-4.364 0.012,-4.363 0.007,-4.367 0.008,-4.363 0.012,-4.364 0.008,-4.367 0.008,-4.363 0.011,-4.364 0.008,-4.367 0.008,-4.363 0.008,-4.363 0.011,-4.367 0.008,-4.364 0.008,-4.363 0.008,-4.367 0.012,-4.363 0.007,-4.364 0.008,-4.367 0.008,-4.363 0.012,-4.364 0.008,-4.367 0.007,-4.363 0.008,-4.363 0.008,-4.367 0.008,-4.364 0.012,-4.363 0.007,-4.367 0.008,-4.363 0.008,-4.364 0.008,-4.367 0.008,-4.363 0.007,-4.364 0.012,-4.367 0.008,-4.363 0.008,-4.363 0.008,-4.367 0.007,-4.364"
             style="fill:none;stroke:#038000;stroke-width:4.16667;stroke-linecap:butt;stroke-linejoin:miter;stroke-miterlimit:1;stroke-dasharray:none;stroke-opacity:1"
             id="path907" /><path
             d="m 500,2990.65 v 0 l 8.918,-4.36 8.84,-4.37 8.687,-4.36 8.465,-4.36 8.195,-4.37 7.872,-4.37 7.515,-4.36 7.145,-4.37 6.761,-4.36 6.375,-4.36 5.993,-4.37 5.629,-4.36 5.269,-4.37 4.934,-4.36 4.621,-4.37 4.32,-4.36 4.039,-4.37 3.785,-4.36 3.543,-4.36 3.321,-4.37 3.214,-4.36 2.918,-4.37 2.743,-4.36 2.578,-4.37 2.429,-4.36 2.289,-4.37 2.165,-4.36 2.042,-4.36 1.934,-4.37 1.832,-4.37 1.734,-4.36 1.649,-4.37 1.566,-4.36 1.489,-4.36 1.418,-4.37 1.351,-4.36 1.289,-4.37 1.231,-4.36 1.175,-4.37 1.122,-4.36 1.078,-4.37 1.031,-4.36 0.988,-4.36 0.946,-4.37 0.91,-4.36 0.875,-4.37 0.843,-4.36 0.809,-4.37 0.777,-4.36 0.75,-4.37 0.723,-4.36 0.699,-4.36 0.672,-4.37 0.652,-4.37 0.629,-4.36 0.606,-4.37 0.59,-4.36 0.566,-4.36 0.551,-4.37 0.535,-4.36 0.516,-4.37 0.5,-4.36 0.488,-4.37 0.473,-4.36 0.457,-4.37 0.445,-4.36 0.43,-4.36 0.421,-4.37 0.407,-4.36 0.398,-4.37 0.387,-4.36 0.375,-4.37 0.367,-4.36 0.359,-4.37 0.348,-4.36 0.336,-4.36 0.332,-4.37 0.324,-4.37 0.313,-4.36 0.308,-4.37 0.297,-4.36 0.293,-4.36 0.285,-4.37 0.282,-4.36 0.273,-4.37 0.266,-4.36 0.261,-4.37 0.254,-4.36 0.25,-4.37 0.243,-4.36 0.238,-4.36 0.234,-4.37 0.231,-4.36 0.222,-4.37 0.219,-4.36 0.215,-4.37 0.211,-4.36 0.207,-4.37 0.203,-4.36 0.195,-4.36 0.196,-4.37 0.191,-4.37 0.188,-4.36 0.183,-4.37 0.18,-4.36 0.179,-4.36 0.172,-4.37 0.172,-4.36 0.168,-4.37 0.164,-4.36 0.16,-4.37 0.161,-4.36 0.156,-4.37 0.152,-4.36 0.149,-4.36 0.148,-4.37 0.148,-4.36 0.141,-4.37 0.141,-4.36 0.14,-4.37 0.137,-4.36 0.133,-4.37 0.133,-4.36 0.129,-4.36 0.129,-4.37 0.125,-4.37 0.125,-4.36 0.121,-4.36 0.117,-4.37 0.121,-4.36 0.117,-4.37 0.113,-4.36 0.114,-4.37 0.109,-4.36 0.109,-4.37 0.11,-4.36 0.105,-4.36 0.106,-4.37 0.105,-4.36 0.102,-4.37 0.101,-4.36 0.098,-4.37 0.098,-4.36 0.097,-4.37 0.094,-4.36 0.094,-4.36 0.094,-4.37 0.089,-4.36 0.09,-4.37 0.09,-4.37 0.09,-4.36 0.086,-4.36 0.086,-4.37 0.082,-4.36 0.086,-4.37 0.082,-4.36 0.082,-4.37 0.078,-4.36 0.078,-4.37 0.082,-4.36 0.074,-4.36 0.078,-4.37 0.075,-4.36 0.074,-4.37 0.074,-4.36 0.074,-4.37 0.071,-4.36 0.07,-4.37 0.07,-4.36 0.071,-4.36 0.07,-4.37 0.066,-4.36 0.067,-4.37 0.066,-4.37 0.066,-4.36 0.063,-4.36 0.066,-4.37 0.063,-4.36 0.062,-4.37 0.063,-4.36 0.062,-4.37 0.059,-4.36 0.059,-4.37 0.062,-4.36 0.059,-4.36 0.058,-4.37 0.055,-4.36 0.059,-4.37 0.054,-4.36 0.055,-4.37 0.055,-4.36 0.054,-4.37 0.055,-4.36 0.055,-4.36 0.05,-4.37 0.055,-4.36 0.051,-4.37 0.051,-4.37 0.05,-4.36 0.051,-4.36 0.051,-4.37 0.047,-4.36 0.051,-4.37 0.047,-4.36 0.046,-4.37 0.047,-4.36 0.047,-4.37 0.047,-4.36 0.047,-4.36 0.047,-4.37 0.043,-4.36 0.047,-4.37 0.043,-4.36 0.043,-4.37 0.043,-4.36 0.043,-4.37 0.043,-4.36 0.042,-4.36 0.043,-4.37 0.043,-4.36 0.039,-4.37 0.043,-4.37 0.04,-4.36 0.039,-4.36 0.039,-4.37 0.039,-4.36 0.039,-4.37 0.039,-4.36 0.039,-4.37 0.039,-4.36 0.035,-4.37 0.039,-4.36 0.035,-4.36 0.039,-4.37 0.036,-4.36 0.035,-4.37 0.039,-4.36 0.035,-4.37 0.035,-4.36 0.035,-4.37 0.031,-4.36 0.036,-4.36 0.035,-4.37 0.035,-4.36 0.031,-4.37 0.035,-4.37 0.032,-4.36 0.031,-4.36 0.035,-4.37 0.031,-4.36 0.032,-4.37 0.031,-4.36 0.031,-4.37 0.031,-4.36 0.032,-4.37 0.031,-4.36 0.031,-4.36 0.031,-4.37 0.028,-4.36 0.031,-4.37 0.027,-4.36 0.031,-4.37 0.028,-4.36 0.031,-4.37 0.027,-4.36 0.028,-4.36 0.031,-4.37 0.027,-4.36 0.028,-4.37 0.027,-4.37 0.027,-4.36 0.028,-4.36 0.027,-4.37 0.027,-4.36 0.024,-4.37 0.027,-4.36 0.028,-4.37 0.027,-4.36 0.023,-4.37 0.028,-4.36 0.023,-4.36 0.027,-4.37 0.024,-4.36 0.027,-4.37 0.024,-4.36 0.023,-4.37 0.024,-4.36 0.027,-4.37 0.023,-4.36 0.024,-4.36 0.023,-4.37 0.024,-4.36 0.023,-4.37 0.023,-4.37 0.024,-4.36 0.023,-4.36 0.024,-4.37 0.019,-4.36 0.024,-4.37 0.023,-4.36 0.024,-4.37 0.019,-4.36 0.024,-4.37 0.019,-4.36 0.024,-4.36 0.019,-4.37 0.024,-4.36 0.019,-4.37 0.024,-4.36 0.019,-4.37 0.02,-4.36 0.023,-4.36 0.02,-4.37 0.019,-4.36 0.02,-4.37 0.023,-4.36 0.02,-4.37 0.019,-4.36 0.02,-4.37 0.019,-4.36 0.02,-4.36 0.019,-4.37 0.02,-4.37 0.019,-4.36 0.016,-4.37 0.019,-4.36 0.02,-4.36 0.02,-4.37 0.019,-4.36 0.016,-4.37 0.019,-4.36 0.02,-4.37 0.015,-4.36 0.02,-4.37 0.019,-4.36 0.016,-4.36 0.02,-4.37 0.015,-4.36 0.02,-4.37 0.015,-4.36 0.02,-4.37 0.016,-4.36 0.015,-4.37 0.02,-4.36 0.015,-4.36 0.016,-4.37 0.019,-4.37 0.016,-4.36 0.016,-4.37 0.015,-4.36 0.02,-4.36 0.015,-4.37 0.016,-4.36 0.016,-4.37 0.015,-4.36 0.016,-4.37 0.016,-4.36 0.015,-4.37 0.016,-4.36 0.015,-4.36 0.016,-4.37 0.016,-4.36 0.015,-4.37 0.016,-4.36 0.016,-4.37 0.011,-4.36 0.016,-4.37 0.016,-4.36 0.015,-4.36 0.016,-4.37 0.012,-4.37 0.015,-4.36 0.016,-4.37 0.012,-4.36 0.015,-4.36 0.016,-4.37 0.011,-4.36 0.016,-4.37 0.016,-4.36 0.011,-4.37 0.016,-4.36 0.012,-4.37 0.015,-4.36 0.012,-4.36 0.016,-4.37 0.011,-4.36 0.016,-4.37 0.012,-4.36 0.012,-4.37 0.015,-4.36 0.012,-4.37 0.016,-4.36 0.011,-4.36 0.012,-4.37 0.016,-4.37 0.011,-4.36 0.012,-4.37 0.012,-4.36 0.015,-4.36 0.012,-4.37 0.012,-4.36 0.012,-4.37 0.011,-4.36 0.012,-4.37 0.016,-4.36 0.011,-4.37 0.012,-4.36 0.012,-4.36 0.011,-4.37 0.012,-4.36 0.012,-4.37 0.012,-4.36 0.011,-4.37 0.012,-4.36 0.012,-4.37 0.011,-4.36 0.012,-4.36 0.012,-4.37 0.012,-4.37 0.011,-4.36 0.012,-4.37 0.012,-4.36 0.012,-4.36 0.007,-4.37 0.012,-4.36 0.012,-4.37 0.011,-4.36 0.012,-4.37 0.012,-4.36 0.008,-4.37 0.011,-4.36 0.012,-4.36 0.012,-4.37 0.008,-4.36 0.011,-4.37 0.012,-4.36 0.012,-4.37 0.008,-4.36 0.011,-4.37 0.012,-4.36 0.008,-4.36 0.012,-4.37 0.007,-4.37 0.012,-4.36 0.012,-4.37 0.008,-4.36 0.011,-4.36 0.008,-4.37 0.012,-4.36 0.008,-4.37 0.011,-4.36 0.012,-4.37 0.008,-4.36 0.012,-4.37 0.008,-4.36 0.007,-4.36 0.012,-4.371 0.008,-4.363 0.012,-4.363 0.007,-4.368 0.012,-4.363 0.008,-4.363 0.012,-4.367 0.007,-4.364 0.008,-4.363 0.012,-4.367 0.008,-4.363 0.008,-4.364 0.011,-4.367 0.008,-4.363 0.008,-4.363 0.012,-4.368 0.008,-4.363 0.007,-4.363 0.012,-4.367 0.008,-4.364 0.008,-4.363 0.007,-4.367 0.012,-4.363 0.008,-4.364 0.008,-4.367 0.008,-4.363 0.007,-4.363 0.012,-4.368 0.008,-4.363 0.008,-4.363 0.008,-4.367 0.007,-4.364 0.012,-4.363 0.008,-4.367 0.008,-4.363 0.008,-4.364 0.007,-4.367 0.008,-4.363 0.008,-4.363 0.008,-4.364 0.008,-4.367 0.011,-4.363 0.008,-4.364 0.008,-4.367 0.008,-4.363 0.008,-4.363 0.007,-4.367 0.008,-4.364 0.008,-4.363 0.008,-4.367 0.008,-4.363 0.007,-4.364 0.008,-4.367 0.008,-4.363"
             style="fill:none;stroke:#0000b1;stroke-width:4.16667;stroke-linecap:butt;stroke-linejoin:miter;stroke-miterlimit:1;stroke-dasharray:none;stroke-opacity:1"
             id="path909" /><path
             d="m 706.496,764.719 v 0 l 0.008,-4.364 0.008,-4.367 0.008,-4.363 0.007,-4.363 0.008,-4.367 0.008,-4.364 0.004,-4.363 0.008,-4.367 0.008,-4.363 0.007,-4.364 0.008,-4.367 0.008,-4.363 0.008,-4.367 0.008,-4.364 0.007,-4.363 0.004,-4.363 0.008,-4.367 0.008,-4.364 0.008,-4.363 0.008,-4.367 0.007,-4.363 0.008,-4.364 0.004,-4.367 0.008,-4.363 0.008,-4.364 0.008,-4.367 0.007,-4.363 0.004,-4.363 0.008,-4.367 0.008,-4.364 0.008,-4.363 0.004,-4.367 0.007,-4.363 0.008,-4.364 0.008,-4.367 0.004,-4.363 0.008,-4.364 0.008,-4.367 0.003,-4.363 0.008,-4.363 0.008,-4.367 0.008,-4.364 0.004,-4.363 0.008,-4.367 0.007,-4.363 0.004,-4.364 0.008,-4.367 0.008,-4.363 0.004,-4.364 0.008,-4.367 0.004,-4.363 0.007,-4.363 0.008,-4.367 0.004,-4.364 0.008,-4.363 0.008,-4.367 0.004,-4.363 0.007,-4.364 0.004,-4.367 0.008,-4.363 0.008,-4.364 0.004,-4.367 0.008,-4.363 0.004,-4.363 0.007,-4.367 0.004,-4.364 0.008,-4.363 0.004,-4.367 0.008,-4.363 0.004,-4.364 0.008,-4.367 0.007,-4.363 0.004,-4.364 0.008,-4.367 0.004,-4.363 0.008,-4.363 0.004,-4.367 0.008,-4.364 0.003,-4.363 0.004,-4.367 0.008,-4.363 0.004,-4.364 0.008,-4.367 0.004,-4.363 0.008,-4.364 0.004,-4.367 0.007,-4.363 0.004,-4.363 0.008,-4.367 0.004,-4.364"
             style="fill:none;stroke:#0000b1;stroke-width:4.16667;stroke-linecap:butt;stroke-linejoin:miter;stroke-miterlimit:1;stroke-dasharray:none;stroke-opacity:1"
             id="path911" /><path
             d="m 500,2990.65 v 0 l 5.402,-4.36 5.36,-4.37 5.261,-4.36 5.133,-4.36 4.961,-4.37 4.77,-4.37 4.558,-4.36 4.328,-4.37 4.094,-4.36 3.863,-4.36 3.633,-4.37 3.41,-4.36 3.192,-4.37 2.992,-4.36 2.797,-4.37 2.617,-4.36 2.449,-4.37 2.293,-4.36 2.149,-4.36 2.011,-4.37 1.95,-4.36 1.765,-4.37 1.664,-4.36 1.563,-4.37 1.473,-4.36 1.386,-4.37 1.309,-4.36 1.238,-4.36 1.172,-4.37 1.109,-4.37 1.055,-4.36 0.996,-4.37 0.949,-4.36 0.903,-4.36 0.859,-4.37 0.82,-4.36 0.778,-4.37 0.746,-4.36 0.715,-4.37 0.679,-4.36 0.653,-4.37 0.625,-4.36 0.597,-4.36 0.575,-4.37 0.55,-4.36 0.532,-4.37 0.507,-4.36 0.493,-4.37 0.472,-4.36 0.453,-4.37 0.438,-4.36 0.422,-4.36 0.41,-4.37 0.394,-4.37 0.379,-4.36 0.371,-4.37 0.356,-4.36 0.344,-4.36 0.332,-4.37 0.324,-4.36 0.312,-4.37 0.305,-4.36 0.293,-4.37 0.289,-4.36 0.277,-4.37 0.27,-4.36 0.262,-4.36 0.254,-4.37 0.246,-4.36 0.242,-4.37 0.234,-4.36 0.227,-4.37 0.223,-4.36 0.214,-4.37 0.211,-4.36 0.207,-4.36 0.2,-4.37 0.195,-4.37 0.191,-4.36 0.184,-4.37 0.183,-4.36 0.176,-4.36 0.176,-4.37 0.168,-4.36 0.164,-4.37 0.164,-4.36 0.156,-4.37 0.157,-4.36 0.148,-4.37 0.148,-4.36 0.145,-4.36 0.141,-4.37 0.14,-4.36 0.137,-4.37 0.133,-4.36 0.129,-4.37 0.129,-4.36 0.125,-4.37 0.121,-4.36 0.121,-4.36 0.117,-4.37 0.117,-4.37 0.113,-4.36 0.11,-4.37 0.109,-4.36 0.11,-4.36 0.101,-4.37 0.106,-4.36 0.101,-4.37 0.098,-4.36 0.097,-4.37 0.098,-4.36 0.094,-4.37 0.094,-4.36 0.089,-4.36 0.09,-4.37 0.09,-4.36 0.086,-4.37 0.086,-4.36 0.086,-4.37 0.082,-4.36 0.078,-4.37 0.082,-4.36 0.078,-4.36 0.078,-4.37 0.075,-4.37 0.078,-4.36 0.074,-4.36 0.07,-4.37 0.071,-4.36 0.074,-4.37 0.066,-4.36 0.071,-4.37 0.066,-4.36 0.066,-4.37 0.067,-4.36 0.062,-4.36 0.067,-4.37 0.062,-4.36 0.063,-4.37 0.058,-4.36 0.063,-4.37 0.058,-4.36 0.059,-4.37 0.059,-4.36 0.054,-4.36 0.055,-4.37 0.059,-4.36 0.054,-4.37 0.051,-4.37 0.055,-4.36 0.054,-4.36 0.051,-4.37 0.051,-4.36 0.051,-4.37 0.05,-4.36 0.047,-4.37 0.051,-4.36 0.047,-4.37 0.047,-4.36 0.047,-4.36 0.047,-4.37 0.047,-4.36 0.042,-4.37 0.047,-4.36 0.043,-4.37 0.043,-4.36 0.043,-4.37 0.043,-4.36 0.043,-4.36 0.039,-4.37 0.043,-4.36 0.039,-4.37 0.043,-4.37 0.039,-4.36 0.039,-4.36 0.039,-4.37 0.04,-4.36 0.035,-4.37 0.039,-4.36 0.035,-4.37 0.039,-4.36 0.035,-4.37 0.035,-4.36 0.035,-4.36 0.036,-4.37 0.035,-4.36 0.035,-4.37 0.035,-4.36 0.031,-4.37 0.035,-4.36 0.032,-4.37 0.035,-4.36 0.031,-4.36 0.031,-4.37 0.032,-4.36 0.031,-4.37 0.031,-4.37 0.031,-4.36 0.032,-4.36 0.031,-4.37 0.027,-4.36 0.031,-4.37 0.028,-4.36 0.031,-4.37 0.027,-4.36 0.028,-4.37 0.031,-4.36 0.027,-4.36 0.028,-4.37 0.027,-4.36 0.027,-4.37 0.028,-4.36 0.023,-4.37 0.027,-4.36 0.028,-4.37 0.023,-4.36 0.028,-4.36 0.023,-4.37 0.027,-4.36 0.024,-4.37 0.027,-4.37 0.024,-4.36 0.023,-4.36 0.023,-4.37 0.024,-4.36 0.023,-4.37 0.024,-4.36 0.023,-4.37 0.024,-4.36 0.023,-4.37 0.024,-4.36 0.023,-4.36 0.02,-4.37 0.023,-4.36 0.023,-4.37 0.02,-4.36 0.023,-4.37 0.02,-4.36 0.019,-4.37 0.024,-4.36 0.019,-4.36 0.02,-4.37 0.023,-4.36 0.02,-4.37 0.019,-4.37 0.02,-4.36 0.019,-4.36 0.02,-4.37 0.02,-4.36 0.019,-4.37 0.02,-4.36 0.019,-4.37 0.02,-4.36 0.019,-4.37 0.016,-4.36 0.019,-4.36 0.02,-4.37 0.016,-4.36 0.019,-4.37 0.02,-4.36 0.015,-4.37 0.02,-4.36 0.015,-4.37 0.02,-4.36 0.016,-4.36 0.015,-4.37 0.02,-4.36 0.015,-4.37 0.016,-4.37 0.019,-4.36 0.016,-4.36 0.016,-4.37 0.015,-4.36 0.016,-4.37 0.016,-4.36 0.015,-4.37 0.016,-4.36 0.015,-4.37 0.016,-4.36 0.016,-4.36 0.015,-4.37 0.016,-4.36 0.016,-4.37 0.015,-4.36 0.016,-4.37 0.012,-4.36 0.015,-4.37 0.016,-4.36 0.015,-4.36 0.012,-4.37 0.016,-4.36 0.015,-4.37 0.012,-4.37 0.016,-4.36 0.011,-4.36 0.016,-4.37 0.012,-4.36 0.015,-4.37 0.012,-4.36 0.016,-4.37 0.011,-4.36 0.016,-4.37 0.012,-4.36 0.012,-4.36 0.015,-4.37 0.012,-4.36 0.012,-4.37 0.015,-4.36 0.012,-4.37 0.012,-4.36 0.011,-4.36 0.012,-4.37 0.016,-4.36 0.011,-4.37 0.012,-4.36 0.012,-4.37 0.012,-4.36 0.011,-4.37 0.012,-4.36 0.012,-4.36 0.011,-4.37 0.012,-4.37 0.012,-4.36 0.012,-4.37 0.011,-4.36 0.012,-4.36 0.012,-4.37 0.012,-4.36 0.011,-4.37 0.012,-4.36 0.008,-4.37 0.011,-4.36 0.012,-4.37 0.012,-4.36 0.008,-4.36 0.011,-4.37 0.012,-4.36 0.012,-4.37 0.008,-4.36 0.011,-4.37 0.012,-4.36 0.008,-4.37 0.012,-4.36 0.011,-4.36 0.008,-4.37 0.012,-4.37 0.008,-4.36 0.011,-4.37 0.012,-4.36 0.008,-4.36 0.012,-4.37 0.008,-4.36 0.011,-4.37 0.008,-4.36 0.012,-4.37 0.008,-4.36 0.007,-4.37 0.012,-4.36 0.008,-4.36 0.012,-4.37 0.007,-4.36 0.008,-4.37 0.012,-4.36 0.008,-4.37 0.008,-4.36 0.011,-4.37 0.008,-4.36 0.008,-4.36 0.012,-4.37 0.007,-4.37 0.008,-4.36 0.008,-4.37 0.012,-4.36 0.008,-4.36 0.007,-4.37 0.008,-4.36 0.008,-4.37 0.012,-4.36 0.008,-4.37 0.007,-4.36 0.008,-4.37 0.008,-4.36 0.008,-4.36 0.008,-4.37 0.007,-4.36 0.012,-4.37 0.008,-4.36 0.008,-4.37 0.008,-4.36 0.007,-4.37 0.008,-4.36 0.008,-4.36 0.008,-4.37 0.008,-4.37 0.008,-4.36 0.007,-4.37 0.008,-4.36 0.008,-4.36 0.008,-4.37 0.008,-4.36 0.007,-4.37 0.004,-4.36 0.008,-4.37 0.008,-4.36 0.008,-4.37 0.008,-4.36 0.007,-4.36 0.008,-4.37 0.008,-4.36 0.008,-4.37 0.004,-4.36 0.008,-4.37 0.007,-4.36 0.008,-4.37 0.008,-4.36 0.004,-4.36 0.008,-4.37 0.007,-4.37 0.008,-4.36 0.004,-4.37 0.008,-4.36 0.008,-4.36 0.008,-4.37 0.004,-4.36 0.007,-4.37 0.008,-4.36 0.008,-4.37 0.004,-4.36 0.008,-4.37 0.008,-4.36 0.003,-4.36 0.008,-4.37 0.008,-4.36 0.004,-4.37 0.008,-4.36 0.008,-4.37 0.003,-4.36 0.008,-4.37 0.004,-4.36 0.008,-4.36 0.008,-4.37 0.004,-4.37 0.008,-4.36 0.003,-4.37 0.008,-4.36 0.008,-4.36 0.004,-4.37 0.008,-4.36 0.004,-4.37 0.008,-4.36 0.003,-4.37 0.008,-4.36 0.004,-4.37 0.008,-4.36 0.004,-4.36 0.008,-4.371 0.004,-4.363 0.007,-4.363 0.004,-4.368 0.008,-4.363 0.004,-4.363 0.008,-4.367 0.004,-4.364 0.004,-4.363 0.007,-4.367 0.004,-4.363 0.008,-4.364 0.004,-4.367 0.008,-4.363 0.004,-4.363 0.004,-4.368 0.008,-4.363 0.003,-4.363 0.008,-4.367 0.004,-4.364 0.004,-4.363 0.008,-4.367 0.004,-4.363 0.004,-4.364 0.007,-4.367 0.004,-4.363 0.004,-4.363 0.008,-4.368 0.004,-4.363 0.004,-4.363 0.008,-4.367 0.004,-4.364 0.004,-4.363 0.007,-4.367 0.004,-4.363 0.004,-4.364 0.008,-4.367 0.004,-4.363 0.004,-4.363 0.004,-4.364 0.008,-4.367 0.003,-4.363 0.004,-4.364 0.004,-4.367 0.008,-4.363 0.004,-4.363 0.004,-4.367 0.004,-4.364 0.008,-4.363 0.003,-4.367 0.004,-4.363 0.004,-4.364 0.004,-4.367 0.008,-4.363"
             style="fill:none;stroke:#af8000;stroke-width:4.16667;stroke-linecap:butt;stroke-linejoin:miter;stroke-miterlimit:1;stroke-dasharray:none;stroke-opacity:1"
             id="path913" /><path
             d="m 625.125,764.719 v 0 l 0.004,-4.364 0.004,-4.367 0.004,-4.363 0.004,-4.363 0.004,-4.367 0.007,-4.364 0.004,-4.363 0.004,-4.367 0.004,-4.363 0.004,-4.364 0.004,-4.367 0.008,-4.363 0.004,-4.367 0.004,-4.364 0.003,-4.363 0.004,-4.363 0.004,-4.367 0.004,-4.364 0.004,-4.363 0.008,-4.367 0.004,-4.363 0.004,-4.364 0.004,-4.367 0.003,-4.363 0.004,-4.364 0.004,-4.367 0.004,-4.363 0.004,-4.363 0.004,-4.367 0.004,-4.364 0.008,-4.363 0.004,-4.367 0.004,-4.363 0.003,-4.364 0.004,-4.367 0.004,-4.363 0.004,-4.364 0.004,-4.367 0.004,-4.363 0.004,-4.363 0.004,-4.367 0.004,-4.364 0.004,-4.363 0.004,-4.367 0.003,-4.363 0.004,-4.364 0.004,-4.367 0.004,-4.363 0.004,-4.364 0.004,-4.367 0.004,-4.363 0.004,-4.363 0.004,-4.367 0.004,-4.364 0.003,-4.363 0.004,-4.367 0.004,-4.363 0.004,-4.364 0.004,-4.367 0.004,-4.363 0.004,-4.364 0.004,-4.367 0.004,-4.363 0.004,-4.363 0.004,-4.367 0.003,-4.364 v -4.363 l 0.004,-4.367 0.004,-4.363 0.004,-4.364 0.004,-4.367 0.004,-4.363 0.004,-4.364 0.004,-4.367 0.004,-4.363 0.004,-4.363 0.004,-4.367 0.003,-4.364 v -4.363 l 0.004,-4.367 0.004,-4.363 0.004,-4.364 0.004,-4.367 0.004,-4.363 0.004,-4.364 0.004,-4.367 0.004,-4.363 v -4.363 l 0.004,-4.367 0.003,-4.364"
             style="fill:none;stroke:#af8000;stroke-width:4.16667;stroke-linecap:butt;stroke-linejoin:miter;stroke-miterlimit:1;stroke-dasharray:none;stroke-opacity:1"
             id="path915" /><path
             d="m 500,2990.65 v 0 l 2.535,-4.36 2.508,-4.37 2.469,-4.36 2.406,-4.36 2.328,-4.37 2.234,-4.37 2.137,-4.36 2.028,-4.37 1.921,-4.36 1.809,-4.36 1.703,-4.37 1.598,-4.36 1.5,-4.37 1.402,-4.36 1.309,-4.37 1.23,-4.36 1.149,-4.37 1.074,-4.36 1.004,-4.36 0.945,-4.37 0.914,-4.36 0.828,-4.37 0.778,-4.36 0.734,-4.37 0.687,-4.36 0.653,-4.37 0.613,-4.36 0.582,-4.36 0.547,-4.37 0.523,-4.37 0.493,-4.36 0.468,-4.37 0.446,-4.36 0.422,-4.36 0.402,-4.37 0.383,-4.36 0.367,-4.37 0.348,-4.36 0.336,-4.37 0.32,-4.36 0.305,-4.37 0.292,-4.36 0.282,-4.36 0.269,-4.37 0.258,-4.36 0.246,-4.37 0.238,-4.36 0.231,-4.37 0.223,-4.36 0.214,-4.37 0.204,-4.36 0.199,-4.36 0.191,-4.37 0.184,-4.37 0.179,-4.36 0.172,-4.37 0.168,-4.36 0.16,-4.36 0.157,-4.37 0.152,-4.36 0.148,-4.37 0.141,-4.36 0.137,-4.37 0.137,-4.36 0.128,-4.37 0.125,-4.36 0.125,-4.36 0.118,-4.37 0.117,-4.36 0.113,-4.37 0.109,-4.36 0.106,-4.37 0.105,-4.36 0.102,-4.37 0.098,-4.36 0.097,-4.36 0.094,-4.37 0.09,-4.37 0.09,-4.36 0.09,-4.37 0.082,-4.36 0.086,-4.36 0.078,-4.37 0.082,-4.36 0.074,-4.37 0.078,-4.36 0.074,-4.37 0.071,-4.36 0.074,-4.37 0.066,-4.36 0.071,-4.36 0.066,-4.37 0.062,-4.36 0.067,-4.37 0.058,-4.36 0.063,-4.37 0.059,-4.36 0.058,-4.37 0.059,-4.36 0.058,-4.36 0.055,-4.37 0.055,-4.37 0.05,-4.36 0.055,-4.37 0.051,-4.36 0.051,-4.36 0.047,-4.37 0.05,-4.36 0.047,-4.37 0.047,-4.36 0.043,-4.37 0.047,-4.36 0.043,-4.37 0.043,-4.36 0.043,-4.36 0.043,-4.37 0.043,-4.36 0.039,-4.37 0.039,-4.36 0.043,-4.37 0.035,-4.36 0.039,-4.37 0.039,-4.36 0.035,-4.36 0.039,-4.37 0.036,-4.37 0.035,-4.36 0.035,-4.36 0.031,-4.37 0.035,-4.36 0.032,-4.37 0.035,-4.36 0.031,-4.37 0.031,-4.36 0.031,-4.37 0.032,-4.36 0.031,-4.36 0.027,-4.37 0.032,-4.36 0.027,-4.37 0.027,-4.36 0.031,-4.37 0.028,-4.36 0.027,-4.37 0.027,-4.36 0.028,-4.36 0.023,-4.37 0.028,-4.36 0.027,-4.37 0.023,-4.37 0.024,-4.36 0.027,-4.36 0.024,-4.37 0.023,-4.36 0.023,-4.37 0.024,-4.36 0.023,-4.37 0.024,-4.36 0.023,-4.37 0.02,-4.36 0.023,-4.36 0.02,-4.37 0.023,-4.36 0.02,-4.37 0.023,-4.36 0.02,-4.37 0.019,-4.36 0.02,-4.37 0.023,-4.36 0.02,-4.36 0.019,-4.37 0.02,-4.36 0.015,-4.37 0.02,-4.37 0.019,-4.36 0.02,-4.36 0.016,-4.37 0.019,-4.36 0.016,-4.37 0.019,-4.36 0.016,-4.37 0.019,-4.36 0.016,-4.37 0.02,-4.36 0.015,-4.36 0.016,-4.37 0.015,-4.36 0.016,-4.37 0.016,-4.36 0.015,-4.37 0.016,-4.36 0.016,-4.37 0.015,-4.36 0.016,-4.36 0.015,-4.37 0.016,-4.36 0.016,-4.37 0.011,-4.37 0.016,-4.36 0.016,-4.36 0.011,-4.37 0.016,-4.36 0.012,-4.37 0.015,-4.36 0.012,-4.37 0.016,-4.36 0.011,-4.37 0.016,-4.36 0.012,-4.36 0.012,-4.37 0.015,-4.36 0.012,-4.37 0.012,-4.36 0.011,-4.37 0.012,-4.36 0.016,-4.37 0.011,-4.36 0.012,-4.36 0.012,-4.37 0.012,-4.36 0.011,-4.37 0.012,-4.37 0.012,-4.36 0.011,-4.36 0.008,-4.37 0.012,-4.36 0.012,-4.37 0.011,-4.36 0.012,-4.37 0.012,-4.36 0.008,-4.37 0.011,-4.36 0.012,-4.36 0.008,-4.37 0.012,-4.36 0.011,-4.37 0.008,-4.36 0.012,-4.37 0.008,-4.36 0.011,-4.37 0.008,-4.36 0.012,-4.36 0.008,-4.37 0.011,-4.36 0.008,-4.37 0.012,-4.37 0.008,-4.36 0.008,-4.36 0.011,-4.37 0.008,-4.36 0.008,-4.37 0.012,-4.36 0.007,-4.37 0.008,-4.36 0.012,-4.37 0.008,-4.36 0.008,-4.36 0.007,-4.37 0.008,-4.36 0.012,-4.37 0.008,-4.36 0.008,-4.37 0.007,-4.36 0.008,-4.37 0.008,-4.36 0.008,-4.36 0.008,-4.37 0.007,-4.36 0.008,-4.37 0.008,-4.37 0.008,-4.36 0.008,-4.36 0.008,-4.37 0.007,-4.36 0.008,-4.37 0.008,-4.36 0.008,-4.37 0.008,-4.36 0.007,-4.37 0.008,-4.36 0.004,-4.36 0.008,-4.37 0.008,-4.36 0.008,-4.37 0.007,-4.36 0.004,-4.37 0.008,-4.36 0.008,-4.37 0.008,-4.36 0.004,-4.36 0.007,-4.37 0.008,-4.36 0.008,-4.37 0.004,-4.37 0.008,-4.36 0.008,-4.36 0.003,-4.37 0.008,-4.36 0.008,-4.37 0.004,-4.36 0.008,-4.37 0.004,-4.36 0.008,-4.37 0.007,-4.36 0.004,-4.36 0.008,-4.37 0.004,-4.36 0.008,-4.37 0.004,-4.36 0.008,-4.37 0.003,-4.36 0.008,-4.36 0.004,-4.37 0.008,-4.36 0.004,-4.37 0.008,-4.36 0.004,-4.37 0.007,-4.36 0.004,-4.37 0.008,-4.36 0.004,-4.36 0.004,-4.37 0.008,-4.37 0.004,-4.36 0.007,-4.37 0.004,-4.36 0.004,-4.36 0.008,-4.37 0.004,-4.36 0.004,-4.37 0.008,-4.36 0.004,-4.37 0.004,-4.36 0.007,-4.37 0.004,-4.36 0.004,-4.36 0.008,-4.37 0.004,-4.36 0.004,-4.37 0.004,-4.36 0.007,-4.37 0.004,-4.36 0.004,-4.37 0.004,-4.36 0.008,-4.36 0.004,-4.37 0.004,-4.37 0.004,-4.36 0.004,-4.37 0.007,-4.36 0.004,-4.36 0.004,-4.37 0.004,-4.36 0.004,-4.37 0.008,-4.36 0.004,-4.37 0.004,-4.36 0.004,-4.37 0.004,-4.36 0.003,-4.36 0.004,-4.37 0.004,-4.36 0.008,-4.37 0.004,-4.36 0.004,-4.37 0.004,-4.36 0.004,-4.37 0.004,-4.36 0.003,-4.36 0.004,-4.37 0.004,-4.37 0.004,-4.36 0.004,-4.37 0.004,-4.36 0.004,-4.36 0.008,-4.37 0.004,-4.36 0.004,-4.37 0.003,-4.36 0.004,-4.37 0.004,-4.36 0.004,-4.37 0.004,-4.36 0.004,-4.36 0.004,-4.37 0.004,-4.36 0.004,-4.37 0.004,-4.36 v -4.37 l 0.004,-4.36 0.003,-4.37 0.004,-4.36 0.004,-4.36 0.004,-4.37 0.004,-4.37 0.004,-4.36 0.004,-4.37 0.004,-4.36 0.004,-4.36 0.004,-4.37 0.003,-4.36 0.004,-4.37 0.004,-4.36 v -4.37 l 0.004,-4.36 0.004,-4.37 0.004,-4.36 0.004,-4.36 0.004,-4.37 0.004,-4.36 0.004,-4.37 v -4.36 l 0.004,-4.37 0.003,-4.36 0.004,-4.37 0.004,-4.36 0.004,-4.36 0.004,-4.37 v -4.37 l 0.004,-4.36 0.004,-4.37 0.004,-4.36 0.004,-4.36 v -4.37 l 0.004,-4.36 0.004,-4.37 0.003,-4.36 0.004,-4.37 v -4.36 l 0.004,-4.37 0.004,-4.36 0.004,-4.36 0.004,-4.37 v -4.36 l 0.004,-4.37 0.004,-4.36 0.004,-4.37 v -4.36 l 0.004,-4.37 0.003,-4.36 0.004,-4.36 v -4.37 l 0.004,-4.37 0.004,-4.36 0.004,-4.37 v -4.36 l 0.004,-4.36 0.004,-4.37 0.004,-4.36 v -4.37 l 0.004,-4.36 0.004,-4.37 v -4.36 l 0.004,-4.37 0.003,-4.36 0.004,-4.36 v -4.371 l 0.004,-4.363 0.004,-4.363 v -4.368 l 0.004,-4.363 0.004,-4.363 v -4.367 l 0.004,-4.364 0.004,-4.363 v -4.367 l 0.004,-4.363 0.004,-4.364 v -4.367 l 0.004,-4.363 0.003,-4.363 v -4.368 l 0.004,-4.363 0.004,-4.363 v -4.367 l 0.004,-4.364 0.004,-4.363 v -4.367 l 0.004,-4.363 0.004,-4.364 v -4.367 l 0.004,-4.363 0.004,-4.363 v -4.368 l 0.004,-4.363 v -4.363 l 0.003,-4.367 0.004,-4.364 v -4.363 l 0.004,-4.367 v -4.363 l 0.004,-4.364 0.004,-4.367 v -4.363 l 0.004,-4.363 v -4.364 l 0.004,-4.367 0.004,-4.363 v -4.364 l 0.004,-4.367 V 804 l 0.004,-4.363 0.004,-4.367 v -4.364 l 0.003,-4.363 v -4.367 l 0.004,-4.363 v -4.364 l 0.004,-4.367 v -4.363"
             style="fill:none;stroke:#7f0081;stroke-width:4.16667;stroke-linecap:butt;stroke-linejoin:miter;stroke-miterlimit:1;stroke-dasharray:none;stroke-opacity:1"
             id="path917" /><path
             d="m 558.656,764.719 v 0 l 0.004,-4.364 0.004,-4.367 v -4.363 l 0.004,-4.363 v -4.367 l 0.004,-4.364 v -4.363 l 0.004,-4.367 v -4.363 l 0.004,-4.364 0.004,-4.367 v -4.363 l 0.004,-4.367 v -4.364 l 0.003,-4.363 v -4.363 l 0.004,-4.367 v -4.364 l 0.004,-4.363 v -4.367 l 0.004,-4.363 v -4.364 l 0.004,-4.367 v -4.363 l 0.004,-4.364 v -4.367 l 0.004,-4.363 v -4.363 l 0.004,-4.367 v -4.364 l 0.004,-4.363 v -4.367 l 0.004,-4.363 v -4.364 l 0.003,-4.367 v -4.363 l 0.004,-4.364 v -4.367 l 0.004,-4.363 v -4.363 l 0.004,-4.367 v -4.364 l 0.004,-4.363 v -4.367 l 0.004,-4.363 v -4.364 l 0.004,-4.367 v -4.363 l 0.004,-4.364 v -4.367 l 0.004,-4.363 v -4.363 -4.367 l 0.004,-4.364 v -4.363 l 0.004,-4.367 v -4.363 l 0.003,-4.364 v -4.367 l 0.004,-4.363 v -4.364 l 0.004,-4.367 v -4.363 -4.363 l 0.004,-4.367 v -4.364 l 0.004,-4.363 v -4.367 l 0.004,-4.363 v -4.364 -4.367 l 0.004,-4.363 v -4.364 l 0.004,-4.367 v -4.363 l 0.004,-4.363 v -4.367 -4.364 l 0.004,-4.363 v -4.367 l 0.004,-4.363 v -4.364 l 0.003,-4.367 v -4.363 -4.364 l 0.004,-4.367 V 385 l 0.004,-4.363 v -4.367 -4.364"
             style="fill:none;stroke:#7f0081;stroke-width:4.16667;stroke-linecap:butt;stroke-linejoin:miter;stroke-miterlimit:1;stroke-dasharray:none;stroke-opacity:1"
             id="path919" /></g></g></g></g></svg>
