<?xml version="1.0" encoding="UTF-8" standalone="no"?>
<svg
   xmlns:dc="http://purl.org/dc/elements/1.1/"
   xmlns:cc="http://creativecommons.org/ns#"
   xmlns:rdf="http://www.w3.org/1999/02/22-rdf-syntax-ns#"
   xmlns:svg="http://www.w3.org/2000/svg"
   xmlns="http://www.w3.org/2000/svg"
   version="1.1"
   id="svg10"
   xml:space="preserve"
   width="906.29535"
   height="542.00653"
   viewBox="0 0 906.29533 542.00653"><metadata
     id="metadata16"><rdf:RDF><cc:Work
         rdf:about=""><dc:format>image/svg+xml</dc:format><dc:type
           rdf:resource="http://purl.org/dc/dcmitype/StillImage" /><dc:title></dc:title></cc:Work></rdf:RDF></metadata><defs
     id="defs14"><clipPath
       clipPathUnits="userSpaceOnUse"
       id="clipPath28"><path
         d="m 375,299.582 h 1729.17 v 2908.34 H 375 Z"
         id="path26" /></clipPath><clipPath
       clipPathUnits="userSpaceOnUse"
       id="clipPath192"><path
         d="m 500,370.418 h 1520.83 v 2658.33 H 500 Z"
         id="path190" /></clipPath></defs><g
     id="g18"
     transform="matrix(0,-1.3333333,-1.3333333,0,1024.6386,667.07604)"><g
       id="g20"
       transform="scale(0.24)"><g
         id="g22"><g
           id="g24"
           clip-path="url(#clipPath28)"><path
             d="M 500,3025.77 H 458.332"
             style="fill:none;stroke:#afafaf;stroke-width:4.16667;stroke-linecap:butt;stroke-linejoin:miter;stroke-miterlimit:10;stroke-dasharray:none;stroke-opacity:1"
             id="path30" /><g
             id="g32"
             transform="scale(4.16667)"><text
               transform="matrix(0,-1,-1,0,94.0003,734.614)"
               style="font-variant:normal;font-weight:normal;font-size:14px;font-family:Menlo;-inkscape-font-specification:Menlo-Regular;writing-mode:lr-tb;fill:#afafaf;fill-opacity:1;fill-rule:nonzero;stroke:none"
               id="text36"><tspan
                 x="0 8.4274139"
                 y="0"
                 id="tspan34">0V</tspan></text></g><path
             d="M 500,2671.92 H 458.332"
             style="fill:none;stroke:#afafaf;stroke-width:4.16667;stroke-linecap:butt;stroke-linejoin:miter;stroke-miterlimit:10;stroke-dasharray:none;stroke-opacity:1"
             id="path38" /><g
             id="g40"
             transform="scale(4.16667)"><text
               transform="matrix(0,-1,-1,0,94.0003,653.904)"
               style="font-variant:normal;font-weight:normal;font-size:14px;font-family:Menlo;-inkscape-font-specification:Menlo-Regular;writing-mode:lr-tb;fill:#afafaf;fill-opacity:1;fill-rule:nonzero;stroke:none"
               id="text44"><tspan
                 x="0 8.4274139 16.855413"
                 y="0"
                 id="tspan42">50V</tspan></text></g><path
             d="M 500,2318.07 H 458.332"
             style="fill:none;stroke:#afafaf;stroke-width:4.16667;stroke-linecap:butt;stroke-linejoin:miter;stroke-miterlimit:10;stroke-dasharray:none;stroke-opacity:1"
             id="path46" /><g
             id="g48"
             transform="scale(4.16667)"><text
               transform="matrix(0,-1,-1,0,94.0003,573.195)"
               style="font-variant:normal;font-weight:normal;font-size:14px;font-family:Menlo;-inkscape-font-specification:Menlo-Regular;writing-mode:lr-tb;fill:#afafaf;fill-opacity:1;fill-rule:nonzero;stroke:none"
               id="text52"><tspan
                 x="0 8.4274139 16.855413 25.283415"
                 y="0"
                 id="tspan50">100V</tspan></text></g><path
             d="M 500,1964.23 H 458.332"
             style="fill:none;stroke:#afafaf;stroke-width:4.16667;stroke-linecap:butt;stroke-linejoin:miter;stroke-miterlimit:10;stroke-dasharray:none;stroke-opacity:1"
             id="path54" /><g
             id="g56"
             transform="scale(4.16667)"><text
               transform="matrix(0,-1,-1,0,94.0003,488.272)"
               style="font-variant:normal;font-weight:normal;font-size:14px;font-family:Menlo;-inkscape-font-specification:Menlo-Regular;writing-mode:lr-tb;fill:#afafaf;fill-opacity:1;fill-rule:nonzero;stroke:none"
               id="text60"><tspan
                 x="0 8.4280005 16.855413 25.283415"
                 y="0"
                 id="tspan58">150V</tspan></text></g><path
             d="M 500,1610.38 H 458.332"
             style="fill:none;stroke:#afafaf;stroke-width:4.16667;stroke-linecap:butt;stroke-linejoin:miter;stroke-miterlimit:10;stroke-dasharray:none;stroke-opacity:1"
             id="path62" /><g
             id="g64"
             transform="scale(4.16667)"><text
               transform="matrix(0,-1,-1,0,94.0003,403.348)"
               style="font-variant:normal;font-weight:normal;font-size:14px;font-family:Menlo;-inkscape-font-specification:Menlo-Regular;writing-mode:lr-tb;fill:#afafaf;fill-opacity:1;fill-rule:nonzero;stroke:none"
               id="text68"><tspan
                 x="0 8.4280005 16.856001 25.283415"
                 y="0"
                 id="tspan66">200V</tspan></text></g><path
             d="M 500,1256.53 H 458.332"
             style="fill:none;stroke:#afafaf;stroke-width:4.16667;stroke-linecap:butt;stroke-linejoin:miter;stroke-miterlimit:10;stroke-dasharray:none;stroke-opacity:1"
             id="path70" /><g
             id="g72"
             transform="scale(4.16667)"><text
               transform="matrix(0,-1,-1,0,94.0003,318.424)"
               style="font-variant:normal;font-weight:normal;font-size:14px;font-family:Menlo;-inkscape-font-specification:Menlo-Regular;writing-mode:lr-tb;fill:#afafaf;fill-opacity:1;fill-rule:nonzero;stroke:none"
               id="text76"><tspan
                 x="0 8.4274139 16.855413 25.282827"
                 y="0"
                 id="tspan74">250V</tspan></text></g><path
             d="M 500,902.68 H 458.332"
             style="fill:none;stroke:#afafaf;stroke-width:4.16667;stroke-linecap:butt;stroke-linejoin:miter;stroke-miterlimit:10;stroke-dasharray:none;stroke-opacity:1"
             id="path78" /><g
             id="g80"
             transform="scale(4.16667)"><text
               transform="matrix(0,-1,-1,0,94.0003,233.5)"
               style="font-variant:normal;font-weight:normal;font-size:14px;font-family:Menlo;-inkscape-font-specification:Menlo-Regular;writing-mode:lr-tb;fill:#afafaf;fill-opacity:1;fill-rule:nonzero;stroke:none"
               id="text84"><tspan
                 x="0 8.4274139 16.855413 25.283415"
                 y="0"
                 id="tspan82">300V</tspan></text></g><path
             d="M 500,548.832 H 458.332"
             style="fill:none;stroke:#afafaf;stroke-width:4.16667;stroke-linecap:butt;stroke-linejoin:miter;stroke-miterlimit:10;stroke-dasharray:none;stroke-opacity:1"
             id="path86" /><g
             id="g88"
             transform="scale(4.16667)"><text
               transform="matrix(0,-1,-1,0,94.0003,148.577)"
               style="font-variant:normal;font-weight:normal;font-size:14px;font-family:Menlo;-inkscape-font-specification:Menlo-Regular;writing-mode:lr-tb;fill:#afafaf;fill-opacity:1;fill-rule:nonzero;stroke:none"
               id="text94"><tspan
                 x="0 8.4280005 16.855413 25.283415"
                 y="0"
                 id="tspan90">350V</tspan><tspan
                 x="-596.03699 -604.46515 -612.89417"
                 y="-20"
                 id="tspan92">Am0</tspan></text></g><path
             d="m 500,3025.77 v 41.67"
             style="fill:none;stroke:#afafaf;stroke-width:4.16667;stroke-linecap:butt;stroke-linejoin:miter;stroke-miterlimit:10;stroke-dasharray:none;stroke-opacity:1"
             id="path96" /><g
             id="g98"
             transform="scale(4.16667)"><text
               transform="matrix(0,-1,-1,0,150.5,744.614)"
               style="font-variant:normal;font-weight:normal;font-size:14px;font-family:Menlo;-inkscape-font-specification:Menlo-Regular;writing-mode:lr-tb;fill:#afafaf;fill-opacity:1;fill-rule:nonzero;stroke:none"
               id="text102"><tspan
                 x="0 -8.4281301 -16.857189"
                 y="0"
                 id="tspan100">Am1</tspan></text></g><path
             d="m 652.082,3025.77 v 41.67"
             style="fill:none;stroke:#afafaf;stroke-width:4.16667;stroke-linecap:butt;stroke-linejoin:miter;stroke-miterlimit:10;stroke-dasharray:none;stroke-opacity:1"
             id="path104" /><g
             id="g106"
             transform="scale(4.16667)"><text
               transform="matrix(0,-1,-1,0,187,744.614)"
               style="font-variant:normal;font-weight:normal;font-size:14px;font-family:Menlo;-inkscape-font-specification:Menlo-Regular;writing-mode:lr-tb;fill:#afafaf;fill-opacity:1;fill-rule:nonzero;stroke:none"
               id="text110"><tspan
                 x="0 -8.4281301 -16.857189"
                 y="0"
                 id="tspan108">Am2</tspan></text></g><path
             d="m 804.168,3025.77 v 41.67"
             style="fill:none;stroke:#afafaf;stroke-width:4.16667;stroke-linecap:butt;stroke-linejoin:miter;stroke-miterlimit:10;stroke-dasharray:none;stroke-opacity:1"
             id="path112" /><g
             id="g114"
             transform="scale(4.16667)"><text
               transform="matrix(0,-1,-1,0,223.5,744.614)"
               style="font-variant:normal;font-weight:normal;font-size:14px;font-family:Menlo;-inkscape-font-specification:Menlo-Regular;writing-mode:lr-tb;fill:#afafaf;fill-opacity:1;fill-rule:nonzero;stroke:none"
               id="text118"><tspan
                 x="0 -8.4281301 -16.857189"
                 y="0"
                 id="tspan116">Am3</tspan></text></g><path
             d="m 956.25,3025.77 v 41.67"
             style="fill:none;stroke:#afafaf;stroke-width:4.16667;stroke-linecap:butt;stroke-linejoin:miter;stroke-miterlimit:10;stroke-dasharray:none;stroke-opacity:1"
             id="path120" /><g
             id="g122"
             transform="scale(4.16667)"><text
               transform="matrix(0,-1,-1,0,260,744.614)"
               style="font-variant:normal;font-weight:normal;font-size:14px;font-family:Menlo;-inkscape-font-specification:Menlo-Regular;writing-mode:lr-tb;fill:#afafaf;fill-opacity:1;fill-rule:nonzero;stroke:none"
               id="text126"><tspan
                 x="0 -8.4281301 -16.857189"
                 y="0"
                 id="tspan124">Am4</tspan></text></g><path
             d="m 1108.33,3025.77 v 41.67"
             style="fill:none;stroke:#afafaf;stroke-width:4.16667;stroke-linecap:butt;stroke-linejoin:miter;stroke-miterlimit:10;stroke-dasharray:none;stroke-opacity:1"
             id="path128" /><g
             id="g130"
             transform="scale(4.16667)"><text
               transform="matrix(0,-1,-1,0,296.5,744.614)"
               style="font-variant:normal;font-weight:normal;font-size:14px;font-family:Menlo;-inkscape-font-specification:Menlo-Regular;writing-mode:lr-tb;fill:#afafaf;fill-opacity:1;fill-rule:nonzero;stroke:none"
               id="text134"><tspan
                 x="0 -8.4281301 -16.857189"
                 y="0"
                 id="tspan132">Am5</tspan></text></g><path
             d="m 1260.42,3025.77 v 41.67"
             style="fill:none;stroke:#afafaf;stroke-width:4.16667;stroke-linecap:butt;stroke-linejoin:miter;stroke-miterlimit:10;stroke-dasharray:none;stroke-opacity:1"
             id="path136" /><g
             id="g138"
             transform="scale(4.16667)"><text
               transform="matrix(0,-1,-1,0,333,744.614)"
               style="font-variant:normal;font-weight:normal;font-size:14px;font-family:Menlo;-inkscape-font-specification:Menlo-Regular;writing-mode:lr-tb;fill:#afafaf;fill-opacity:1;fill-rule:nonzero;stroke:none"
               id="text142"><tspan
                 x="0 -8.4281301 -16.857189"
                 y="0"
                 id="tspan140">Am6</tspan></text></g><path
             d="m 1412.5,3025.77 v 41.67"
             style="fill:none;stroke:#afafaf;stroke-width:4.16667;stroke-linecap:butt;stroke-linejoin:miter;stroke-miterlimit:10;stroke-dasharray:none;stroke-opacity:1"
             id="path144" /><g
             id="g146"
             transform="scale(4.16667)"><text
               transform="matrix(0,-1,-1,0,369.5,744.614)"
               style="font-variant:normal;font-weight:normal;font-size:14px;font-family:Menlo;-inkscape-font-specification:Menlo-Regular;writing-mode:lr-tb;fill:#afafaf;fill-opacity:1;fill-rule:nonzero;stroke:none"
               id="text150"><tspan
                 x="0 -8.4281301 -16.857189"
                 y="0"
                 id="tspan148">Am7</tspan></text></g><path
             d="m 1564.58,3025.77 v 41.67"
             style="fill:none;stroke:#afafaf;stroke-width:4.16667;stroke-linecap:butt;stroke-linejoin:miter;stroke-miterlimit:10;stroke-dasharray:none;stroke-opacity:1"
             id="path152" /><g
             id="g154"
             transform="scale(4.16667)"><text
               transform="matrix(0,-1,-1,0,406,744.614)"
               style="font-variant:normal;font-weight:normal;font-size:14px;font-family:Menlo;-inkscape-font-specification:Menlo-Regular;writing-mode:lr-tb;fill:#afafaf;fill-opacity:1;fill-rule:nonzero;stroke:none"
               id="text158"><tspan
                 x="0 -8.4281301 -16.857189"
                 y="0"
                 id="tspan156">Am8</tspan></text></g><path
             d="m 1716.67,3025.77 v 41.67"
             style="fill:none;stroke:#afafaf;stroke-width:4.16667;stroke-linecap:butt;stroke-linejoin:miter;stroke-miterlimit:10;stroke-dasharray:none;stroke-opacity:1"
             id="path160" /><g
             id="g162"
             transform="scale(4.16667)"><text
               transform="matrix(0,-1,-1,0,442.5,744.614)"
               style="font-variant:normal;font-weight:normal;font-size:14px;font-family:Menlo;-inkscape-font-specification:Menlo-Regular;writing-mode:lr-tb;fill:#afafaf;fill-opacity:1;fill-rule:nonzero;stroke:none"
               id="text166"><tspan
                 x="0 -8.4281301 -16.857189"
                 y="0"
                 id="tspan164">Am9</tspan></text></g><path
             d="m 1868.75,3025.77 v 41.67"
             style="fill:none;stroke:#afafaf;stroke-width:4.16667;stroke-linecap:butt;stroke-linejoin:miter;stroke-miterlimit:10;stroke-dasharray:none;stroke-opacity:1"
             id="path168" /><g
             id="g170"
             transform="scale(4.16667)"><text
               transform="matrix(0,-1,-1,0,479,744.614)"
               style="font-variant:normal;font-weight:normal;font-size:14px;font-family:Menlo;-inkscape-font-specification:Menlo-Regular;writing-mode:lr-tb;fill:#afafaf;fill-opacity:1;fill-rule:nonzero;stroke:none"
               id="text174"><tspan
                 x="0 -8.4281301 -16.857189 -25.286249"
                 y="0"
                 id="tspan172">Am01</tspan></text></g><path
             d="m 2020.83,3025.77 v 41.67"
             style="fill:none;stroke:#afafaf;stroke-width:4.16667;stroke-linecap:butt;stroke-linejoin:miter;stroke-miterlimit:10;stroke-dasharray:none;stroke-opacity:1"
             id="path176" /><path
             d="m 500,371.906 h 1520.83 v 2653.87 H 500 Z"
             style="fill:none;stroke:#afafaf;stroke-width:4.16667;stroke-linecap:butt;stroke-linejoin:miter;stroke-miterlimit:10;stroke-dasharray:none;stroke-opacity:1"
             id="path178" /><g
             id="g180"
             transform="scale(4.16667)"><text
               transform="matrix(0,-1,-1,0,489,458.757)"
               style="font-variant:normal;font-weight:normal;font-size:14px;font-family:Menlo;-inkscape-font-specification:Menlo-Regular;writing-mode:lr-tb;fill:#0eff00;fill-opacity:1;fill-rule:nonzero;stroke:none"
               id="text184"><tspan
                 x="0 8.4274139 16.855413 25.283415 33.710827 42.138828 50.566242 58.994244 67.422241 75.849655 84.277657 92.705658"
                 y="0"
                 id="tspan182">Ix(U1:Plate)</tspan></text></g></g></g><g
         id="g186"><g
           id="g188"
           clip-path="url(#clipPath192)"><path
             d="m 500,3025.77 v 0 -2377.86 l 0.027,-7.078 0.227,-7.078 0.348,-7.078 0.433,-7.074 0.508,-7.079 0.574,-7.078 0.629,-7.074 0.68,-7.078 0.73,-7.078 0.774,-7.074 0.82,-7.078 0.859,-7.079 0.899,-7.078 0.933,-7.074 0.973,-7.078 1.004,-7.078 1.039,-7.078 1.074,-7.075 1.102,-7.078 1.133,-7.078 1.164,-7.074 1.195,-7.078 1.219,-7.078 1.25,-7.074 1.277,-7.079 1.301,-7.078 1.328,-7.078 1.355,-7.074 1.379,-7.078 1.403,-7.078 1.429,-7.075 1.45,-7.078 1.476,-7.078 1.5,-7.074 1.52,-7.078 1.543,-7.078 1.566,-7.078 1.586,-7.075 1.609,-7.078"
             style="fill:none;stroke:#0eff00;stroke-width:4.16667;stroke-linecap:butt;stroke-linejoin:miter;stroke-miterlimit:1;stroke-dasharray:none;stroke-opacity:1"
             id="path194" /><path
             d="m 500,3025.77 v 0 -2045.243 l 0.172,-7.078 0.32,-7.078 0.41,-7.074 0.493,-7.078 0.554,-7.078 0.61,-7.078 0.668,-7.075 0.718,-7.078 0.762,-7.078 0.805,-7.074 0.847,-7.078 0.887,-7.078 0.926,-7.079 0.961,-7.074 0.996,-7.078 1.031,-7.078 1.063,-7.074 1.093,-7.078 1.125,-7.078 1.157,-7.075 1.183,-7.078 1.211,-7.078 1.242,-7.078 1.27,-7.074 1.293,-7.078 1.324,-7.079 1.344,-7.074 1.375,-7.078 1.394,-7.078 1.422,-7.074 1.446,-7.078 1.468,-7.078 1.493,-7.079 1.511,-7.074 1.539,-7.078 1.559,-7.078 1.578,-7.078 1.605,-7.074 1.622,-7.079 1.644,-7.078 1.664,-7.074 1.688,-7.078 1.707,-7.078 1.722,-7.074 1.746,-7.078 1.766,-7.079 1.785,-7.074 1.801,-7.078 1.824,-7.078 1.84,-7.078 1.859,-7.074 1.879,-7.079 1.895,-7.078 1.914,-7.074 1.934,-7.078 1.949,-7.078 1.965,-7.074 1.984,-7.078 2,-7.079 2.02,-7.078 2.035,-7.074 2.05,-7.078 2.071,-7.078 2.082,-7.078 2.101,-7.075 2.121,-7.078 2.133,-7.078 2.149,-7.074 2.164,-7.078 2.183,-7.078 2.196,-7.074 2.215,-7.079 2.226,-7.078 2.242,-7.078 2.258,-7.074 2.274,-7.078 2.289,-7.078 2.304,-7.075 2.317,-7.078 2.336,-7.078 2.347,-7.074 2.36,-7.078 2.379,-7.078 2.39,-7.078 2.406,-7.075 2.418,-7.078"
             style="fill:none;stroke:#0000ff;stroke-width:4.16667;stroke-linecap:butt;stroke-linejoin:miter;stroke-miterlimit:1;stroke-dasharray:none;stroke-opacity:1"
             id="path196" /><path
             d="m 500,3025.77 v 0 -1705.55 l 0.105,-7.08 0.286,-7.07 0.386,-7.08 0.469,-7.08 0.535,-7.07 0.598,-7.08 0.652,-7.08 0.703,-7.07 0.75,-7.08 0.793,-7.08 0.836,-7.07 0.875,-7.08 0.914,-7.08 0.953,-7.08 0.985,-7.07 1.023,-7.08 1.051,-7.08 1.086,-7.07 1.117,-7.08 1.149,-7.08 1.175,-7.07 1.204,-7.08 1.234,-7.08 1.262,-7.07 1.285,-7.08 1.316,-7.08 1.336,-7.08 1.367,-7.07 1.391,-7.08 1.414,-7.08 1.438,-7.07 1.46,-7.08 1.485,-7.08 1.508,-7.07 1.531,-7.08 1.551,-7.08 1.578,-7.08 1.594,-7.07 1.617,-7.08 1.64,-7.08 1.657,-7.07 1.679,-7.08 1.703,-7.08 1.719,-7.07 1.738,-7.08 1.762,-7.08 1.778,-7.078 1.796,-7.075 1.817,-7.078 1.836,-7.078 1.855,-7.074 1.871,-7.078 1.891,-7.078 1.91,-7.078 1.926,-7.075 1.945,-7.078 1.961,-7.078 1.981,-7.074 1.996,-7.078 2.011,-7.078 2.032,-7.079 2.047,-7.074 2.062,-7.078 2.082,-7.078 2.098,-7.074 2.113,-7.078 2.129,-7.078 2.144,-7.075 2.161,-7.078 2.175,-7.078 2.196,-7.078 2.207,-7.074 2.222,-7.078 2.239,-7.079 2.254,-7.074 2.269,-7.078 2.285,-7.078 2.297,-7.074 2.317,-7.078 2.328,-7.078 2.343,-7.079 2.36,-7.074 2.371,-7.078 2.387,-7.078 2.402,-7.078 2.414,-7.074 2.43,-7.079 2.441,-7.078 2.461,-7.074 2.469,-7.078 2.484,-7.078 2.5,-7.074 2.512,-7.078 2.527,-7.079 2.539,-7.074 2.555,-7.078 2.566,-7.078 2.578,-7.078 2.594,-7.074 2.606,-7.079 2.621,-7.078 2.633,-7.074 2.644,-7.078 2.66,-7.078 2.668,-7.074 2.684,-7.078 2.699,-7.079 2.707,-7.078 2.723,-7.074 2.734,-7.078 2.746,-7.078 2.762,-7.078 2.769,-7.075 2.786,-7.078 2.797,-7.078 2.808,-7.074 2.82,-7.078 2.832,-7.078 2.848,-7.074 2.856,-7.079 2.867,-7.078 2.883,-7.078 2.89,-7.074 2.906,-7.078 2.915,-7.078 2.929,-7.075 2.938,-7.078 2.953,-7.078 2.961,-7.074 2.976,-7.078 2.985,-7.078 2.996,-7.078 3.012,-7.075 3.019,-7.078"
             style="fill:none;stroke:#ff0000;stroke-width:4.16667;stroke-linecap:butt;stroke-linejoin:miter;stroke-miterlimit:1;stroke-dasharray:none;stroke-opacity:1"
             id="path198" /><path
             d="m 500,3025.77 v 0 -1365.86 l 0.047,-7.07 0.25,-7.08 0.363,-7.08 0.445,-7.07 0.52,-7.08 0.578,-7.08 0.637,-7.07 0.691,-7.08 0.735,-7.08 0.781,-7.08 0.824,-7.07 0.867,-7.08 0.903,-7.08 0.941,-7.07 0.977,-7.08 1.007,-7.08 1.047,-7.07 1.075,-7.08 1.109,-7.08 1.137,-7.07 1.168,-7.08 1.199,-7.08 1.222,-7.08 1.254,-7.07 1.282,-7.08 1.304,-7.08 1.332,-7.07 1.36,-7.08 1.383,-7.08 1.406,-7.07 1.429,-7.08 1.457,-7.08 1.477,-7.07 1.504,-7.08 1.523,-7.08 1.547,-7.08 1.567,-7.07 1.59,-7.08 1.613,-7.08 1.633,-7.07 1.652,-7.08 1.672,-7.08 1.695,-7.07 1.715,-7.08 1.734,-7.08 1.754,-7.07 1.774,-7.08 1.793,-7.08 1.808,-7.08 1.832,-7.07 1.848,-7.08 1.867,-7.08 1.887,-7.07 1.902,-7.08 1.922,-7.08 1.941,-7.07 1.954,-7.08 1.976,-7.08 1.992,-7.07 2.008,-7.08 2.024,-7.08 2.043,-7.08 2.058,-7.07 2.078,-7.08 2.09,-7.08 2.11,-7.07 2.125,-7.08 2.14,-7.08 2.156,-7.07 2.172,-7.08 2.188,-7.08 2.203,-7.07 2.219,-7.08 2.234,-7.08 2.25,-7.08 2.266,-7.07 2.281,-7.08 2.293,-7.08 2.312,-7.07 2.325,-7.08 2.339,-7.08 2.352,-7.07 2.367,-7.08 2.383,-7.08 2.398,-7.08 2.411,-7.07 2.425,-7.08 2.442,-7.08 2.453,-7.07 2.469,-7.08 2.48,-7.08 2.496,-7.07 2.508,-7.08 2.52,-7.08 2.539,-7.078 2.546,-7.075 2.563,-7.078 2.578,-7.078 2.59,-7.074 2.602,-7.078 2.617,-7.078 2.625,-7.078 2.644,-7.075 2.653,-7.078 2.668,-7.078 2.679,-7.074 2.696,-7.078 2.703,-7.078 2.718,-7.079 2.731,-7.074 2.746,-7.078 2.754,-7.078 2.769,-7.074 2.782,-7.078 2.793,-7.078 2.804,-7.075 2.817,-7.078 2.828,-7.078 2.844,-7.078 2.851,-7.074 2.867,-7.078 2.875,-7.079 2.891,-7.074 2.902,-7.078 2.91,-7.078 2.926,-7.074 2.938,-7.078 2.945,-7.078 2.961,-7.079 2.969,-7.074 2.984,-7.078 2.992,-7.078 3.008,-7.078 3.016,-7.074 3.027,-7.079 3.039,-7.078 3.051,-7.074 3.062,-7.078 3.075,-7.078 3.082,-7.074 3.097,-7.078 3.106,-7.079 3.117,-7.074 3.129,-7.078 3.137,-7.078 3.152,-7.078 3.16,-7.074 3.172,-7.079 3.184,-7.078 3.191,-7.074 3.203,-7.078 3.215,-7.078 3.227,-7.074 3.234,-7.078 3.246,-7.079 3.258,-7.078 3.265,-7.074 3.278,-7.078 3.289,-7.078 3.301,-7.078 3.308,-7.075 3.321,-7.078 3.328,-7.078 3.34,-7.074 3.351,-7.078 3.359,-7.078 3.372,-7.074 3.378,-7.079 3.391,-7.078 3.402,-7.078 3.411,-7.074 3.421,-7.078 3.43,-7.078 3.442,-7.075 3.449,-7.078 3.461,-7.078 3.472,-7.074 3.481,-7.078 3.488,-7.078 3.5,-7.078 3.512,-7.075 3.519,-7.078"
             style="fill:none;stroke:#00afaf;stroke-width:4.16667;stroke-linecap:butt;stroke-linejoin:miter;stroke-miterlimit:1;stroke-dasharray:none;stroke-opacity:1"
             id="path200" /><path
             d="m 500,3025.77 v 0 -1026.16 l 0.008,-7.07 0.203,-7.08 0.336,-7.08 0.422,-7.08 0.5,-7.07 0.562,-7.08 0.621,-7.08 0.676,-7.07 0.723,-7.08 0.769,-7.08 0.813,-7.08 0.851,-7.07 0.895,-7.08 0.93,-7.08 0.964,-7.07 1.004,-7.08 1.036,-7.08 1.066,-7.07 1.098,-7.08 1.128,-7.08 1.161,-7.08 1.191,-7.07 1.215,-7.08 1.246,-7.08 1.273,-7.07 1.297,-7.08 1.325,-7.08 1.351,-7.07 1.375,-7.08 1.402,-7.08 1.422,-7.08 1.45,-7.07 1.472,-7.08 1.492,-7.08 1.52,-7.07 1.539,-7.08 1.562,-7.08 1.586,-7.08 1.606,-7.07 1.625,-7.08 1.648,-7.08 1.668,-7.07 1.688,-7.08 1.707,-7.08 1.73,-7.08 1.746,-7.07 1.77,-7.08 1.785,-7.08 1.809,-7.07 1.824,-7.08 1.844,-7.08 1.859,-7.07 1.883,-7.08 1.898,-7.08 1.914,-7.07 1.938,-7.08 1.949,-7.08 1.969,-7.08 1.988,-7.07 2.004,-7.08 2.019,-7.08 2.04,-7.07 2.054,-7.08 2.071,-7.08 2.085,-7.07 2.106,-7.08 2.117,-7.08 2.137,-7.07 2.152,-7.08 2.168,-7.08 2.184,-7.08 2.199,-7.07 2.215,-7.08 2.23,-7.08 2.246,-7.07 2.262,-7.08 2.274,-7.08 2.293,-7.07 2.304,-7.08 2.321,-7.08 2.335,-7.07 2.348,-7.08 2.363,-7.08 2.379,-7.08 2.395,-7.07 2.406,-7.08 2.422,-7.08 2.434,-7.07 2.453,-7.08 2.461,-7.08 2.476,-7.07 2.492,-7.08 2.504,-7.08 2.52,-7.07 2.531,-7.08 2.547,-7.08 2.559,-7.08 2.574,-7.07 2.582,-7.08 2.601,-7.08 2.61,-7.07 2.625,-7.08 2.64,-7.08 2.649,-7.07 2.664,-7.08 2.676,-7.08 2.691,-7.07 2.703,-7.08 2.715,-7.08 2.727,-7.08 2.738,-7.07 2.754,-7.08 2.765,-7.08 2.774,-7.07 2.793,-7.08 2.801,-7.08 2.812,-7.07 2.824,-7.08 2.84,-7.08 2.852,-7.07 2.859,-7.08 2.875,-7.08 2.887,-7.08 2.898,-7.07 2.906,-7.08 2.922,-7.08 2.934,-7.07 2.945,-7.08 2.957,-7.08 2.965,-7.07 2.981,-7.08 2.992,-7.08 3,-7.08 3.015,-7.07 3.024,-7.08 3.035,-7.08 3.047,-7.07 3.062,-7.08 3.067,-7.08 3.082,-7.07 3.094,-7.08 3.101,-7.08 3.113,-7.078 3.125,-7.075 3.137,-7.078 3.149,-7.078 3.156,-7.074 3.168,-7.078 3.179,-7.078 3.192,-7.078 3.199,-7.075 3.211,-7.078 3.223,-7.078 3.234,-7.074 3.242,-7.078 3.254,-7.078 3.266,-7.079 3.273,-7.074 3.285,-7.078 3.297,-7.078 3.305,-7.074 3.316,-7.078 3.328,-7.078 3.336,-7.075 3.348,-7.078 3.356,-7.078 3.371,-7.078 3.375,-7.074 3.386,-7.078 3.399,-7.079 3.41,-7.074 3.418,-7.078 3.426,-7.078 3.437,-7.074 3.449,-7.078 3.457,-7.078 3.469,-7.079 3.477,-7.074 3.488,-7.078 3.496,-7.078 3.508,-7.078 3.519,-7.074 3.524,-7.079 3.539,-7.078 3.543,-7.074 3.559,-7.078 3.562,-7.078 3.574,-7.074 3.586,-7.078 3.594,-7.079 3.601,-7.074 3.614,-7.078 3.625,-7.078 3.629,-7.078 3.64,-7.074 3.653,-7.079 3.66,-7.078 3.668,-7.074 3.679,-7.078 3.688,-7.078 3.695,-7.074 3.707,-7.078 3.717,-7.079 3.72,-7.078 3.74,-7.074 3.74,-7.078 3.76,-7.078 3.76,-7.078 3.77,-7.075 3.77,-7.078 3.79,-7.078 3.8,-7.074 3.81,-7.078 3.81,-7.078 3.83,-7.074 3.83,-7.079 3.84,-7.078 3.86,-7.078 3.86,-7.074 3.86,-7.078 3.88,-7.078 3.89,-7.075 3.89,-7.078 3.91,-7.078 3.91,-7.074 3.93,-7.078 3.92,-7.078 3.94,-7.078 3.95,-7.075 3.96,-7.078"
             style="fill:none;stroke:#ff00ff;stroke-width:4.16667;stroke-linecap:butt;stroke-linejoin:miter;stroke-miterlimit:1;stroke-dasharray:none;stroke-opacity:1"
             id="path202" /><path
             d="m 500,3025.77 v 0 -693.54 l 0.137,-7.08 0.304,-7.08 0.399,-7.07 0.48,-7.08 0.547,-7.08 0.606,-7.07 0.656,-7.08 0.711,-7.08 0.758,-7.07 0.8,-7.08 0.84,-7.08 0.883,-7.08 0.918,-7.07 0.957,-7.08 0.992,-7.08 1.024,-7.07 1.058,-7.08 1.09,-7.08 1.121,-7.07 1.153,-7.08 1.179,-7.08 1.211,-7.07 1.235,-7.08 1.265,-7.08 1.293,-7.08 1.317,-7.07 1.343,-7.08 1.368,-7.08 1.394,-7.07 1.418,-7.08 1.441,-7.08 1.465,-7.07 1.489,-7.08 1.511,-7.08 1.532,-7.07 1.558,-7.08 1.574,-7.08 1.602,-7.08 1.621,-7.07 1.641,-7.08 1.66,-7.08 1.683,-7.07 1.704,-7.08 1.722,-7.08 1.742,-7.07 1.762,-7.08 1.785,-7.08 1.797,-7.07 1.82,-7.08 1.84,-7.08 1.856,-7.08 1.875,-7.07 1.894,-7.08 1.91,-7.08 1.93,-7.07 1.945,-7.08 1.965,-7.08 1.985,-7.08 1.996,-7.07 2.015,-7.08 2.036,-7.08 2.046,-7.07 2.067,-7.08 2.082,-7.08 2.101,-7.07 2.114,-7.08 2.132,-7.08 2.149,-7.08 2.164,-7.07 2.176,-7.08 2.195,-7.08 2.211,-7.07 2.227,-7.08 2.242,-7.08 2.254,-7.07 2.273,-7.08 2.285,-7.08 2.301,-7.08 2.316,-7.07 2.332,-7.08 2.344,-7.08 2.36,-7.07 2.375,-7.08 2.39,-7.08 2.403,-7.08 2.418,-7.07 2.429,-7.08 2.446,-7.08 2.46,-7.07 2.473,-7.08 2.488,-7.08 2.5,-7.08 2.516,-7.07 2.527,-7.08 2.543,-7.08 2.555,-7.07 2.57,-7.08 2.578,-7.08 2.598,-7.07 2.606,-7.08 2.621,-7.08 2.636,-7.07 2.649,-7.08 2.66,-7.08 2.672,-7.08 2.683,-7.07 2.7,-7.08 2.711,-7.08 2.722,-7.07 2.739,-7.08 2.75,-7.08 2.757,-7.07 2.774,-7.08 2.789,-7.08 2.797,-7.07 2.808,-7.08 2.825,-7.08 2.836,-7.08 2.843,-7.07 2.86,-7.08 2.871,-7.08 2.883,-7.07 2.894,-7.08 2.906,-7.08 2.918,-7.07 2.93,-7.08 2.941,-7.08 2.954,-7.07 2.964,-7.08 2.973,-7.08 2.988,-7.08 3,-7.07 3.012,-7.08 3.02,-7.08 3.035,-7.07 3.043,-7.08 3.054,-7.08 3.067,-7.07 3.078,-7.08 3.09,-7.08 3.097,-7.07 3.114,-7.08 3.121,-7.08 3.133,-7.08 3.144,-7.07 3.152,-7.08 3.168,-7.08 3.176,-7.07 3.188,-7.08 3.195,-7.08 3.211,-7.07 3.219,-7.08 3.23,-7.08 3.238,-7.07 3.25,-7.08 3.262,-7.08 3.274,-7.08 3.281,-7.07 3.293,-7.08 3.305,-7.08 3.312,-7.07 3.324,-7.08 3.332,-7.08 3.344,-7.07 3.355,-7.08 3.368,-7.08 3.371,-7.07 3.386,-7.08 3.395,-7.08 3.406,-7.08 3.414,-7.07 3.426,-7.08 3.434,-7.08 3.445,-7.07 3.457,-7.08 3.465,-7.08 3.473,-7.07 3.488,-7.08 3.492,-7.08 3.504,-7.08 3.516,-7.07 3.523,-7.08 3.531,-7.08 3.543,-7.07 3.555,-7.08 3.562,-7.08 3.571,-7.07 3.582,-7.08 3.59,-7.08 3.601,-7.078 3.61,-7.075 3.621,-7.078 3.629,-7.078 3.64,-7.074 3.645,-7.078 3.66,-7.078 3.664,-7.078 3.676,-7.075 3.687,-7.078 3.692,-7.078 3.707,-7.074 3.711,-7.078 3.72,-7.078 3.73,-7.079 3.74,-7.074 3.75,-7.078 3.76,-7.078 3.77,-7.074 3.78,-7.078 3.78,-7.078 3.8,-7.075 3.8,-7.078 3.81,-7.078 3.83,-7.078 3.83,-7.074 3.84,-7.078 3.84,-7.079 3.86,-7.074 3.87,-7.078 3.88,-7.078 3.88,-7.074 3.89,-7.078 3.91,-7.078 3.91,-7.079 3.91,-7.074 3.93,-7.078 3.94,-7.078 3.94,-7.078 3.96,-7.074 3.96,-7.079 3.97,-7.078 3.98,-7.074 3.99,-7.078 4,-7.078 4,-7.074 4.02,-7.078 4.02,-7.079 4.03,-7.074 4.04,-7.078 4.05,-7.078 4.06,-7.078 4.06,-7.074 4.07,-7.079 4.09,-7.078 4.09,-7.074 4.1,-7.078 4.1,-7.078 4.12,-7.074 4.12,-7.078 4.13,-7.079 4.14,-7.078 4.15,-7.074 4.16,-7.078 4.16,-7.078 4.17,-7.078 4.19,-7.075 4.19,-7.078 4.2,-7.078 4.2,-7.074 4.21,-7.078 4.23,-7.078 4.23,-7.074 4.23,-7.079 4.25,-7.078 4.25,-7.078 4.27,-7.074 4.27,-7.078 4.28,-7.078 4.28,-7.075 4.3,-7.078 4.3,-7.078 4.31,-7.074 4.32,-7.078 4.32,-7.078 4.34,-7.078 4.34,-7.075 4.35,-7.078"
             style="fill:none;stroke:#808080;stroke-width:4.16667;stroke-linecap:butt;stroke-linejoin:miter;stroke-miterlimit:1;stroke-dasharray:none;stroke-opacity:1"
             id="path204" /><path
             d="m 500,3025.77 v 0 -353.85 l 0.074,-7.07 0.27,-7.08 0.375,-7.08 0.457,-7.08 0.527,-7.07 0.59,-7.08 0.645,-7.08 0.695,-7.07 0.742,-7.08 0.789,-7.08 0.832,-7.08 0.867,-7.07 0.91,-7.08 0.946,-7.08 0.984,-7.07 1.016,-7.08 1.047,-7.08 1.082,-7.07 1.113,-7.08 1.141,-7.08 1.171,-7.08 1.204,-7.07 1.226,-7.08 1.258,-7.08 1.285,-7.07 1.309,-7.08 1.336,-7.08 1.363,-7.07 1.383,-7.08 1.414,-7.08 1.433,-7.07 1.457,-7.08 1.485,-7.08 1.504,-7.08 1.527,-7.07 1.551,-7.08 1.57,-7.08 1.594,-7.07 1.613,-7.08 1.637,-7.08 1.656,-7.07 1.676,-7.08 1.695,-7.08 1.719,-7.07 1.738,-7.08 1.754,-7.08 1.778,-7.08 1.796,-7.07 1.813,-7.08 1.832,-7.08 1.851,-7.07 1.872,-7.08 1.886,-7.08 1.907,-7.07 1.925,-7.08 1.942,-7.08 1.957,-7.07 1.976,-7.08 1.996,-7.08 2.012,-7.08 2.027,-7.07 2.043,-7.08 2.063,-7.08 2.078,-7.07 2.094,-7.08 2.113,-7.08 2.125,-7.07 2.145,-7.08 2.156,-7.08 2.176,-7.07 2.191,-7.08 2.203,-7.08 2.223,-7.08 2.238,-7.07 2.25,-7.08 2.27,-7.08 2.281,-7.07 2.297,-7.08 2.312,-7.08 2.325,-7.07 2.343,-7.08 2.356,-7.08 2.371,-7.07 2.383,-7.08 2.398,-7.08 2.414,-7.08 2.43,-7.07 2.441,-7.08 2.453,-7.08 2.469,-7.07 2.484,-7.08 2.497,-7.08 2.511,-7.07 2.524,-7.08 2.539,-7.08 2.551,-7.07 2.566,-7.08 2.578,-7.08 2.59,-7.08 2.605,-7.07 2.618,-7.08 2.629,-7.08 2.644,-7.07 2.656,-7.08 2.668,-7.08 2.684,-7.08 2.695,-7.07 2.707,-7.08 2.719,-7.08 2.734,-7.07 2.746,-7.08 2.758,-7.08 2.77,-7.07 2.781,-7.08 2.797,-7.08 2.805,-7.08 2.82,-7.07 2.828,-7.08 2.844,-7.08 2.855,-7.07 2.867,-7.08 2.879,-7.08 2.891,-7.07 2.906,-7.08 2.914,-7.08 2.926,-7.08 2.938,-7.07 2.949,-7.08 2.961,-7.08 2.972,-7.07 2.985,-7.08 2.996,-7.08 3.008,-7.08 3.015,-7.07 3.032,-7.08 3.039,-7.08 3.054,-7.07 3.063,-7.08 3.074,-7.08 3.086,-7.08 3.098,-7.07 3.105,-7.08 3.121,-7.08 3.129,-7.07 3.141,-7.08 3.152,-7.08 3.16,-7.07 3.176,-7.08 3.184,-7.08 3.195,-7.07 3.203,-7.08 3.219,-7.08 3.226,-7.08 3.235,-7.07 3.25,-7.08 3.257,-7.08 3.27,-7.07 3.277,-7.08 3.289,-7.08 3.301,-7.07 3.313,-7.08 3.32,-7.08 3.332,-7.07 3.34,-7.08 3.351,-7.08 3.364,-7.08 3.371,-7.07 3.383,-7.08 3.39,-7.08 3.403,-7.07 3.414,-7.08 3.422,-7.08 3.433,-7.07 3.442,-7.08 3.453,-7.08 3.461,-7.07 3.472,-7.08 3.481,-7.08 3.492,-7.08 3.5,-7.07 3.512,-7.08 3.519,-7.08 3.531,-7.07 3.543,-7.08 3.547,-7.08 3.563,-7.07 3.566,-7.08 3.582,-7.08 3.586,-7.07 3.598,-7.08 3.609,-7.08 3.617,-7.08 3.625,-7.07 3.637,-7.08 3.645,-7.08 3.656,-7.07 3.66,-7.08 3.676,-7.08 3.683,-7.07 3.692,-7.08 3.699,-7.08 3.711,-7.07 3.719,-7.08 3.73,-7.08 3.74,-7.08 3.74,-7.07 3.76,-7.08 3.76,-7.08 3.78,-7.07 3.78,-7.08 3.8,-7.08 3.8,-7.07 3.81,-7.08 3.82,-7.08 3.82,-7.07 3.84,-7.08 3.85,-7.08 3.85,-7.08 3.87,-7.07 3.87,-7.08 3.88,-7.08 3.89,-7.07 3.9,-7.08 3.91,-7.08 3.92,-7.07 3.92,-7.08 3.94,-7.08 3.94,-7.08 3.95,-7.07 3.96,-7.08 3.97,-7.08 3.98,-7.07 3.98,-7.08 4,-7.08 4,-7.07 4.01,-7.08 4.02,-7.08 4.03,-7.078 4.04,-7.075 4.05,-7.078 4.05,-7.078 4.06,-7.074 4.07,-7.078 4.08,-7.078 4.09,-7.078 4.1,-7.075 4.1,-7.078 4.11,-7.078 4.13,-7.074 4.12,-7.078 4.14,-7.078 4.15,-7.079 4.15,-7.074 4.17,-7.078 4.17,-7.078 4.17,-7.074 4.19,-7.078 4.2,-7.078 4.2,-7.075 4.21,-7.078 4.22,-7.078 4.23,-7.078 4.24,-7.074 4.24,-7.078 4.25,-7.079 4.26,-7.074 4.27,-7.078 4.27,-7.078 4.29,-7.074 4.29,-7.078 4.3,-7.078 4.31,-7.079 4.31,-7.074 4.33,-7.078 4.33,-7.078 4.34,-7.078 4.35,-7.074 4.35,-7.079 4.37,-7.078 4.37,-7.074 4.38,-7.078 4.38,-7.078 4.4,-7.074 4.4,-7.078 4.41,-7.079 4.42,-7.074 4.42,-7.078 4.44,-7.078 4.44,-7.078 4.45,-7.074 4.46,-7.079 4.46,-7.078 4.47,-7.074 4.48,-7.078 4.49,-7.078 4.49,-7.074 4.5,-7.078 4.52,-7.079 4.51,-7.078 4.52,-7.074 4.54,-7.078 4.54,-7.078 4.55,-7.078 4.55,-7.075 4.56,-7.078 4.57,-7.078 4.58,-7.074 4.59,-7.078 4.59,-7.078 4.6,-7.074 4.61,-7.079 4.61,-7.078 4.63,-7.078 4.63,-7.074 4.63,-7.078 4.65,-7.078 4.65,-7.075 4.66,-7.078 4.66,-7.078 4.68,-7.074 4.68,-7.078 4.69,-7.078 4.7,-7.078 4.7,-7.075 4.71,-7.078"
             style="fill:none;stroke:#038000;stroke-width:4.16667;stroke-linecap:butt;stroke-linejoin:miter;stroke-miterlimit:1;stroke-dasharray:none;stroke-opacity:1"
             id="path206" /><path
             d="m 500,3025.77 v 0 -14.15 l 0.027,-7.08 0.227,-7.08 0.348,-7.07 0.437,-7.08 0.508,-7.08 0.574,-7.07 0.629,-7.08 0.68,-7.08 0.73,-7.07 0.774,-7.08 0.82,-7.08 0.859,-7.07 0.899,-7.08 0.933,-7.08 0.973,-7.08 1.008,-7.07 1.039,-7.08 1.07,-7.08 1.106,-7.07 1.132,-7.08 1.165,-7.08 1.191,-7.07 1.223,-7.08 1.25,-7.08 1.273,-7.08 1.305,-7.07 1.328,-7.08 1.355,-7.08 1.379,-7.07 1.403,-7.08 1.429,-7.08 1.449,-7.08 1.477,-7.07 1.496,-7.08 1.524,-7.08 1.543,-7.07 1.566,-7.08 1.586,-7.08 1.609,-7.07 1.629,-7.08 1.649,-7.08 1.671,-7.08 1.692,-7.07 1.711,-7.08 1.73,-7.08 1.754,-7.07 1.77,-7.08 1.789,-7.08 1.808,-7.07 1.828,-7.08 1.848,-7.08 1.863,-7.08 1.883,-7.07 1.903,-7.08 1.918,-7.08 1.937,-7.07 1.953,-7.08 1.973,-7.08 1.988,-7.08 2.008,-7.07 2.023,-7.08 2.039,-7.08 2.055,-7.07 2.074,-7.08 2.09,-7.08 2.106,-7.07 2.121,-7.08 2.14,-7.08 2.153,-7.08 2.172,-7.07 2.187,-7.08 2.199,-7.08 2.219,-7.07 2.231,-7.08 2.246,-7.08 2.265,-7.07 2.278,-7.08 2.293,-7.08 2.308,-7.07 2.32,-7.08 2.34,-7.08 2.352,-7.08 2.363,-7.07 2.383,-7.08 2.394,-7.08 2.411,-7.07 2.422,-7.08 2.437,-7.08 2.453,-7.07 2.465,-7.08 2.48,-7.08 2.493,-7.07 2.507,-7.08 2.52,-7.08 2.535,-7.08 2.547,-7.07 2.559,-7.08 2.574,-7.08 2.59,-7.07 2.597,-7.08 2.618,-7.08 2.625,-7.07 2.64,-7.08 2.652,-7.08 2.665,-7.07 2.679,-7.08 2.692,-7.08 2.703,-7.08 2.719,-7.07 2.726,-7.08 2.742,-7.08 2.754,-7.07 2.766,-7.08 2.781,-7.08 2.789,-7.07 2.805,-7.08 2.816,-7.08 2.828,-7.07 2.84,-7.08 2.852,-7.08 2.863,-7.08 2.875,-7.07 2.887,-7.08 2.898,-7.08 2.914,-7.07 2.922,-7.08 2.934,-7.08 2.945,-7.07 2.961,-7.08 2.969,-7.08 2.98,-7.07 2.992,-7.08 3.004,-7.08 3.016,-7.08 3.027,-7.07 3.035,-7.08 3.051,-7.08 3.059,-7.07 3.074,-7.08 3.082,-7.08 3.094,-7.07 3.101,-7.08 3.118,-7.08 3.125,-7.07 3.14,-7.08 3.149,-7.08 3.156,-7.08 3.172,-7.07 3.179,-7.08 3.192,-7.08 3.203,-7.07 3.215,-7.08 3.222,-7.08 3.235,-7.08 3.246,-7.07 3.254,-7.08 3.265,-7.08 3.278,-7.07 3.285,-7.08 3.297,-7.08 3.308,-7.07 3.317,-7.08 3.328,-7.08 3.34,-7.08 3.347,-7.07 3.36,-7.08 3.371,-7.08 3.379,-7.07 3.387,-7.08 3.402,-7.08 3.406,-7.07 3.422,-7.08 3.43,-7.08 3.437,-7.08 3.449,-7.07 3.461,-7.08 3.469,-7.08 3.481,-7.07 3.488,-7.08 3.496,-7.08 3.512,-7.08 3.515,-7.07 3.528,-7.08 3.539,-7.08 3.547,-7.07 3.558,-7.08 3.567,-7.08 3.574,-7.08 3.586,-7.07 3.597,-7.08 3.602,-7.08 3.617,-7.07 3.621,-7.08 3.633,-7.08 3.645,-7.07 3.652,-7.08 3.66,-7.08 3.672,-7.07 3.68,-7.08 3.687,-7.08 3.699,-7.08 3.707,-7.07 3.718,-7.08 3.72,-7.08 3.74,-7.07 3.74,-7.08 3.76,-7.08 3.76,-7.07 3.77,-7.08 3.78,-7.08 3.79,-7.07 3.8,-7.08 3.81,-7.08 3.82,-7.08 3.82,-7.07 3.84,-7.08 3.84,-7.08 3.85,-7.07 3.86,-7.08 3.88,-7.08 3.87,-7.07 3.89,-7.08 3.9,-7.08 3.91,-7.07 3.91,-7.08 3.92,-7.08 3.94,-7.08 3.93,-7.07 3.95,-7.08 3.96,-7.08 3.97,-7.07 3.97,-7.08 3.98,-7.08 4,-7.07 4,-7.08 4.01,-7.08 4.02,-7.07 4.02,-7.08 4.04,-7.08 4.04,-7.08 4.05,-7.07 4.06,-7.08 4.07,-7.08 4.08,-7.07 4.08,-7.08 4.1,-7.08 4.1,-7.07 4.11,-7.08 4.12,-7.08 4.13,-7.07 4.13,-7.08 4.15,-7.08 4.15,-7.08 4.16,-7.07 4.17,-7.08 4.17,-7.08 4.19,-7.07 4.19,-7.08 4.2,-7.08 4.21,-7.07 4.22,-7.08 4.23,-7.08 4.23,-7.07 4.24,-7.08 4.25,-7.08 4.26,-7.08 4.26,-7.07 4.28,-7.08 4.28,-7.08 4.29,-7.07 4.3,-7.08 4.3,-7.08 4.31,-7.07 4.33,-7.08 4.33,-7.08 4.34,-7.08 4.34,-7.07 4.35,-7.08 4.36,-7.08 4.37,-7.07 4.38,-7.08 4.38,-7.08 4.4,-7.07 4.4,-7.08 4.4,-7.08 4.42,-7.078 4.42,-7.075 4.43,-7.078 4.44,-7.078 4.45,-7.074 4.45,-7.078 4.47,-7.078 4.47,-7.078 4.47,-7.075 4.49,-7.078 4.49,-7.078 4.5,-7.074 4.51,-7.078 4.51,-7.078 4.53,-7.079 4.53,-7.074 4.54,-7.078 4.54,-7.078 4.55,-7.074 4.56,-7.078 4.57,-7.078 4.58,-7.075 4.58,-7.078 4.59,-7.078 4.6,-7.078 4.61,-7.074 4.61,-7.078 4.62,-7.079 4.63,-7.074 4.63,-7.078 4.64,-7.078 4.65,-7.074 4.66,-7.078 4.67,-7.078 4.67,-7.079 4.67,-7.074 4.69,-7.078 4.7,-7.078 4.69,-7.078 4.72,-7.074 4.71,-7.079 4.72,-7.078 4.73,-7.074 4.74,-7.078 4.74,-7.078 4.76,-7.074 4.76,-7.078 4.76,-7.079 4.78,-7.074 4.78,-7.078 4.78,-7.078 4.8,-7.078 4.8,-7.074 4.81,-7.079 4.81,-7.078 4.83,-7.074 4.83,-7.078 4.84,-7.078 4.84,-7.074 4.85,-7.078 4.86,-7.079 4.86,-7.078 4.88,-7.074 4.88,-7.078 4.88,-7.078 4.9,-7.078 4.9,-7.075 4.91,-7.078 4.91,-7.078 4.92,-7.074 4.93,-7.078 4.94,-7.078 4.94,-7.074 4.95,-7.079 4.95,-7.078 4.97,-7.078 4.97,-7.074 4.98,-7.078 4.98,-7.078 4.99,-7.075 5,-7.078 5,-7.078 5.01,-7.074 5.02,-7.078 5.03,-7.078 5.03,-7.078 5.04,-7.075 5.04,-7.078"
             style="fill:none;stroke:#0000b1;stroke-width:4.16667;stroke-linecap:butt;stroke-linejoin:miter;stroke-miterlimit:1;stroke-dasharray:none;stroke-opacity:1"
             id="path208" /><path
             d="m 552.656,3025.77 v 0 l 1.766,-7.07 1.785,-7.08 1.805,-7.08 1.82,-7.08 1.84,-7.07 1.859,-7.08 1.879,-7.08 1.899,-7.07 1.91,-7.08 1.933,-7.08 1.95,-7.07 1.968,-7.08 1.981,-7.08 2.004,-7.07 2.015,-7.08 2.039,-7.08 2.051,-7.08 2.067,-7.07 2.086,-7.08 2.101,-7.08 2.117,-7.07 2.133,-7.08 2.152,-7.08 2.164,-7.07 2.184,-7.08 2.195,-7.08 2.211,-7.08 2.231,-7.07 2.242,-7.08 2.258,-7.08 2.273,-7.07 2.289,-7.08 2.305,-7.08 2.316,-7.08 2.336,-7.07 2.348,-7.08 2.359,-7.08 2.379,-7.07 2.391,-7.08 2.406,-7.08 2.418,-7.07 2.434,-7.08 2.449,-7.08 2.461,-7.08 2.473,-7.07 2.492,-7.08 2.5,-7.08 2.519,-7.07 2.528,-7.08 2.546,-7.08 2.555,-7.07 2.57,-7.08 2.586,-7.08 2.594,-7.08 2.613,-7.07 2.622,-7.08 2.636,-7.08 2.649,-7.07 2.664,-7.08 2.672,-7.08 2.687,-7.08 2.703,-7.07 2.711,-7.08 2.727,-7.08 2.738,-7.07 2.75,-7.08 2.762,-7.08 2.777,-7.07 2.785,-7.08 2.801,-7.08 2.813,-7.08 2.824,-7.07 2.836,-7.08 2.847,-7.08 2.864,-7.07 2.871,-7.08 2.883,-7.08 2.898,-7.07 2.906,-7.08 2.918,-7.08 2.934,-7.07 2.941,-7.08 2.957,-7.08 2.965,-7.08 2.977,-7.07 2.988,-7.08 3.004,-7.08 3.012,-7.07 3.023,-7.08 3.031,-7.08 3.047,-7.07 3.059,-7.08 3.066,-7.08 3.078,-7.07 3.094,-7.08 3.102,-7.08 3.109,-7.08 3.125,-7.07 3.137,-7.08 3.144,-7.08 3.156,-7.07 3.168,-7.08 3.176,-7.08 3.188,-7.07 3.199,-7.08 3.211,-7.08 3.222,-7.07 3.231,-7.08 3.242,-7.08 3.25,-7.08 3.266,-7.07 3.273,-7.08 3.281,-7.08 3.293,-7.07 3.305,-7.08 3.316,-7.08 3.325,-7.07 3.336,-7.08 3.347,-7.08 3.356,-7.07 3.367,-7.08 3.375,-7.08 3.387,-7.08 3.394,-7.07 3.41,-7.08 3.414,-7.08 3.426,-7.07 3.438,-7.08 3.445,-7.08 3.457,-7.07 3.469,-7.08 3.476,-7.08 3.485,-7.07 3.496,-7.08 3.504,-7.08 3.515,-7.08 3.528,-7.07 3.535,-7.08 3.543,-7.08 3.555,-7.07 3.562,-7.08 3.574,-7.08 3.582,-7.07 3.594,-7.08 3.602,-7.08 3.613,-7.07 3.621,-7.08 3.629,-7.08 3.64,-7.08 3.649,-7.07 3.66,-7.08 3.664,-7.08 3.68,-7.07 3.687,-7.08 3.696,-7.08 3.703,-7.08 3.716,-7.07 3.72,-7.08 3.74,-7.08 3.74,-7.07 3.75,-7.08 3.76,-7.08 3.77,-7.07 3.78,-7.08 3.78,-7.08 3.8,-7.08 3.8,-7.07 3.82,-7.08 3.82,-7.08 3.84,-7.07 3.84,-7.08 3.85,-7.08 3.85,-7.07 3.87,-7.08 3.88,-7.08 3.89,-7.08 3.89,-7.07 3.9,-7.08 3.91,-7.08 3.92,-7.07 3.93,-7.08 3.94,-7.08 3.95,-7.08 3.95,-7.07 3.96,-7.08 3.98,-7.08 3.98,-7.07 3.99,-7.08 4,-7.08 4,-7.08 4.02,-7.07 4.02,-7.08 4.04,-7.08 4.04,-7.07 4.05,-7.08 4.06,-7.08 4.06,-7.07 4.08,-7.08 4.08,-7.08 4.09,-7.07 4.1,-7.08 4.11,-7.08 4.11,-7.08 4.13,-7.07 4.13,-7.08 4.15,-7.08 4.14,-7.07 4.16,-7.08 4.17,-7.08 4.17,-7.07 4.18,-7.08 4.2,-7.08 4.19,-7.07 4.21,-7.08 4.22,-7.08 4.22,-7.08 4.23,-7.07 4.24,-7.08 4.25,-7.08 4.25,-7.07 4.27,-7.08 4.27,-7.08 4.28,-7.07 4.28,-7.08 4.3,-7.08 4.3,-7.07 4.32,-7.08 4.31,-7.08 4.33,-7.08 4.34,-7.07 4.34,-7.08 4.35,-7.08 4.36,-7.07 4.37,-7.08 4.37,-7.08 4.38,-7.07 4.39,-7.08 4.4,-7.08 4.41,-7.07 4.41,-7.08 4.42,-7.08 4.43,-7.08 4.44,-7.07 4.44,-7.08 4.45,-7.08 4.46,-7.07 4.47,-7.08 4.48,-7.08 4.48,-7.07 4.49,-7.08 4.5,-7.08 4.5,-7.07 4.52,-7.08 4.52,-7.08 4.52,-7.08 4.54,-7.07 4.54,-7.08 4.56,-7.08 4.55,-7.07 4.57,-7.08 4.57,-7.08 4.58,-7.07 4.59,-7.08 4.6,-7.08 4.6,-7.07 4.61,-7.08 4.62,-7.08 4.62,-7.08 4.64,-7.07 4.64,-7.08 4.65,-7.08 4.65,-7.07 4.66,-7.08 4.68,-7.08 4.67,-7.07 4.68,-7.08 4.7,-7.08 4.7,-7.08 4.7,-7.07 4.72,-7.08 4.72,-7.08 4.72,-7.07 4.74,-7.08 4.74,-7.08 4.75,-7.07 4.76,-7.08 4.76,-7.08 4.77,-7.078 4.78,-7.075 4.79,-7.078 4.79,-7.078 4.8,-7.074 4.81,-7.078 4.81,-7.078 4.82,-7.078 4.83,-7.075 4.84,-7.078 4.84,-7.078 4.85,-7.074 4.85,-7.078 4.87,-7.078 4.87,-7.079 4.88,-7.074 4.88,-7.078 4.89,-7.078 4.9,-7.074 4.91,-7.078 4.91,-7.078 4.92,-7.075 4.93,-7.078 4.93,-7.078 4.94,-7.078 4.95,-7.074 4.95,-7.078 4.96,-7.079 4.97,-7.074 4.98,-7.078 4.98,-7.078 4.99,-7.074 4.99,-7.078 5.01,-7.078 5,-7.079 5.02,-7.074 5.02,-7.078 5.03,-7.078 5.04,-7.078 5.04,-7.074 5.05,-7.079 5.06,-7.078 5.06,-7.074 5.07,-7.078 5.08,-7.078 5.08,-7.074 5.09,-7.078 5.1,-7.079 5.11,-7.074 5.11,-7.078 5.11,-7.078 5.13,-7.078 5.13,-7.074 5.14,-7.079 5.14,-7.078 5.15,-7.074 5.16,-7.078 5.16,-7.078 5.17,-7.074 5.18,-7.078 5.19,-7.079 5.18,-7.078 5.2,-7.074 5.21,-7.078 5.21,-7.078 5.21,-7.078 5.23,-7.075 5.23,-7.078 5.23,-7.078 5.25,-7.074 5.25,-7.078 5.25,-7.078 5.27,-7.074 5.27,-7.079 5.27,-7.078 5.28,-7.078 5.29,-7.074 5.3,-7.078 5.3,-7.078 5.31,-7.075 5.31,-7.078 5.32,-7.078 5.33,-7.074 5.33,-7.078 5.34,-7.078 5.35,-7.078 5.35,-7.075 5.36,-7.078"
             style="fill:none;stroke:#af8000;stroke-width:4.16667;stroke-linecap:butt;stroke-linejoin:miter;stroke-miterlimit:1;stroke-dasharray:none;stroke-opacity:1"
             id="path210" /></g></g></g></g></svg>
