<?xml version="1.0" encoding="UTF-8" standalone="no"?>
<svg
   xmlns:dc="http://purl.org/dc/elements/1.1/"
   xmlns:cc="http://creativecommons.org/ns#"
   xmlns:rdf="http://www.w3.org/1999/02/22-rdf-syntax-ns#"
   xmlns:svg="http://www.w3.org/2000/svg"
   xmlns="http://www.w3.org/2000/svg"
   version="1.1"
   id="svg10"
   xml:space="preserve"
   width="604.84088"
   height="361.33768"
   viewBox="0 0 907.26131 542.00654"><metadata
     id="metadata16"><rdf:RDF><cc:Work
         rdf:about=""><dc:format>image/svg+xml</dc:format><dc:type
           rdf:resource="http://purl.org/dc/dcmitype/StillImage" /><dc:title></dc:title></cc:Work></rdf:RDF></metadata><defs
     id="defs14"><clipPath
       clipPathUnits="userSpaceOnUse"
       id="clipPath28"><path
         d="m 375,299.582 h 1729.17 v 2908.34 H 375 Z"
         id="path26" /></clipPath><clipPath
       clipPathUnits="userSpaceOnUse"
       id="clipPath160"><path
         d="m 500,370.418 h 1520.83 v 2691.66 H 500 Z"
         id="path158" /></clipPath></defs><g
     id="g18"
     transform="matrix(0,-1.3333333,-1.3333333,0,1025.6046,667.07604)"><g
       id="g20"
       transform="scale(0.24)"><g
         id="g22"><g
           id="g24"
           clip-path="url(#clipPath28)"><path
             d="M 500,3060.89 H 458.332"
             style="fill:none;stroke:#afafaf;stroke-width:4.16667;stroke-linecap:butt;stroke-linejoin:miter;stroke-miterlimit:10;stroke-dasharray:none;stroke-opacity:1"
             id="path30" /><g
             id="g32"
             transform="scale(4.16667)"><text
               transform="matrix(0,-1,-1,0,94.0003,743.043)"
               style="font-variant:normal;font-weight:normal;font-size:14px;font-family:Menlo;-inkscape-font-specification:Menlo-Regular;writing-mode:lr-tb;fill:#afafaf;fill-opacity:1;fill-rule:nonzero;stroke:none"
               id="text36"><tspan
                 x="0 8.4280005"
                 y="0"
                 id="tspan34">0V</tspan></text></g><path
             d="M 500,2702.36 H 458.332"
             style="fill:none;stroke:#afafaf;stroke-width:4.16667;stroke-linecap:butt;stroke-linejoin:miter;stroke-miterlimit:10;stroke-dasharray:none;stroke-opacity:1"
             id="path38" /><g
             id="g40"
             transform="scale(4.16667)"><text
               transform="matrix(0,-1,-1,0,94.0003,661.209)"
               style="font-variant:normal;font-weight:normal;font-size:14px;font-family:Menlo;-inkscape-font-specification:Menlo-Regular;writing-mode:lr-tb;fill:#afafaf;fill-opacity:1;fill-rule:nonzero;stroke:none"
               id="text44"><tspan
                 x="0 8.4280005 16.855413"
                 y="0"
                 id="tspan42">50V</tspan></text></g><path
             d="M 500,2343.83 H 458.332"
             style="fill:none;stroke:#afafaf;stroke-width:4.16667;stroke-linecap:butt;stroke-linejoin:miter;stroke-miterlimit:10;stroke-dasharray:none;stroke-opacity:1"
             id="path46" /><g
             id="g48"
             transform="scale(4.16667)"><text
               transform="matrix(0,-1,-1,0,94.0003,579.376)"
               style="font-variant:normal;font-weight:normal;font-size:14px;font-family:Menlo;-inkscape-font-specification:Menlo-Regular;writing-mode:lr-tb;fill:#afafaf;fill-opacity:1;fill-rule:nonzero;stroke:none"
               id="text52"><tspan
                 x="0 8.4274139 16.855413 25.283415"
                 y="0"
                 id="tspan50">100V</tspan></text></g><path
             d="M 500,1985.3 H 458.332"
             style="fill:none;stroke:#afafaf;stroke-width:4.16667;stroke-linecap:butt;stroke-linejoin:miter;stroke-miterlimit:10;stroke-dasharray:none;stroke-opacity:1"
             id="path54" /><g
             id="g56"
             transform="scale(4.16667)"><text
               transform="matrix(0,-1,-1,0,94.0003,493.328)"
               style="font-variant:normal;font-weight:normal;font-size:14px;font-family:Menlo;-inkscape-font-specification:Menlo-Regular;writing-mode:lr-tb;fill:#afafaf;fill-opacity:1;fill-rule:nonzero;stroke:none"
               id="text60"><tspan
                 x="0 8.4274139 16.855413 25.283415"
                 y="0"
                 id="tspan58">150V</tspan></text></g><path
             d="M 500,1626.77 H 458.332"
             style="fill:none;stroke:#afafaf;stroke-width:4.16667;stroke-linecap:butt;stroke-linejoin:miter;stroke-miterlimit:10;stroke-dasharray:none;stroke-opacity:1"
             id="path62" /><g
             id="g64"
             transform="scale(4.16667)"><text
               transform="matrix(0,-1,-1,0,94.0003,407.281)"
               style="font-variant:normal;font-weight:normal;font-size:14px;font-family:Menlo;-inkscape-font-specification:Menlo-Regular;writing-mode:lr-tb;fill:#afafaf;fill-opacity:1;fill-rule:nonzero;stroke:none"
               id="text68"><tspan
                 x="0 8.4274139 16.855413 25.283415"
                 y="0"
                 id="tspan66">200V</tspan></text></g><path
             d="M 500,1268.23 H 458.332"
             style="fill:none;stroke:#afafaf;stroke-width:4.16667;stroke-linecap:butt;stroke-linejoin:miter;stroke-miterlimit:10;stroke-dasharray:none;stroke-opacity:1"
             id="path70" /><g
             id="g72"
             transform="scale(4.16667)"><text
               transform="matrix(0,-1,-1,0,94.0003,321.233)"
               style="font-variant:normal;font-weight:normal;font-size:14px;font-family:Menlo;-inkscape-font-specification:Menlo-Regular;writing-mode:lr-tb;fill:#afafaf;fill-opacity:1;fill-rule:nonzero;stroke:none"
               id="text76"><tspan
                 x="0 8.4274139 16.855413 25.283415"
                 y="0"
                 id="tspan74">250V</tspan></text></g><path
             d="M 500,909.703 H 458.332"
             style="fill:none;stroke:#afafaf;stroke-width:4.16667;stroke-linecap:butt;stroke-linejoin:miter;stroke-miterlimit:10;stroke-dasharray:none;stroke-opacity:1"
             id="path78" /><g
             id="g80"
             transform="scale(4.16667)"><text
               transform="matrix(0,-1,-1,0,94.0003,235.186)"
               style="font-variant:normal;font-weight:normal;font-size:14px;font-family:Menlo;-inkscape-font-specification:Menlo-Regular;writing-mode:lr-tb;fill:#afafaf;fill-opacity:1;fill-rule:nonzero;stroke:none"
               id="text84"><tspan
                 x="0 8.4274139 16.855413 25.283415"
                 y="0"
                 id="tspan82">300V</tspan></text></g><path
             d="M 500,551.172 H 458.332"
             style="fill:none;stroke:#afafaf;stroke-width:4.16667;stroke-linecap:butt;stroke-linejoin:miter;stroke-miterlimit:10;stroke-dasharray:none;stroke-opacity:1"
             id="path86" /><g
             id="g88"
             transform="scale(4.16667)"><text
               transform="matrix(0,-1,-1,0,94.0003,149.138)"
               style="font-variant:normal;font-weight:normal;font-size:14px;font-family:Menlo;-inkscape-font-specification:Menlo-Regular;writing-mode:lr-tb;fill:#afafaf;fill-opacity:1;fill-rule:nonzero;stroke:none"
               id="text94"><tspan
                 x="0 8.4274139 16.855413 25.283415"
                 y="0"
                 id="tspan90">350V</tspan><tspan
                 x="-603.90399 -612.33307 -620.76215"
                 y="-20"
                 id="tspan92">Am0</tspan></text></g><path
             d="m 500,3060.89 v 41.67"
             style="fill:none;stroke:#afafaf;stroke-width:4.16667;stroke-linecap:butt;stroke-linejoin:miter;stroke-miterlimit:10;stroke-dasharray:none;stroke-opacity:1"
             id="path96" /><g
             id="g98"
             transform="scale(4.16667)"><text
               transform="matrix(0,-1,-1,0,174.833,753.042)"
               style="font-variant:normal;font-weight:normal;font-size:14px;font-family:Menlo;-inkscape-font-specification:Menlo-Regular;writing-mode:lr-tb;fill:#afafaf;fill-opacity:1;fill-rule:nonzero;stroke:none"
               id="text102"><tspan
                 x="0 -8.42906 -16.85812"
                 y="0"
                 id="tspan100">Am1</tspan></text></g><path
             d="m 753.473,3060.89 v 41.67"
             style="fill:none;stroke:#afafaf;stroke-width:4.16667;stroke-linecap:butt;stroke-linejoin:miter;stroke-miterlimit:10;stroke-dasharray:none;stroke-opacity:1"
             id="path104" /><g
             id="g106"
             transform="scale(4.16667)"><text
               transform="matrix(0,-1,-1,0,235.667,753.042)"
               style="font-variant:normal;font-weight:normal;font-size:14px;font-family:Menlo;-inkscape-font-specification:Menlo-Regular;writing-mode:lr-tb;fill:#afafaf;fill-opacity:1;fill-rule:nonzero;stroke:none"
               id="text110"><tspan
                 x="0 -8.42906 -16.85812"
                 y="0"
                 id="tspan108">Am2</tspan></text></g><path
             d="m 1006.95,3060.89 v 41.67"
             style="fill:none;stroke:#afafaf;stroke-width:4.16667;stroke-linecap:butt;stroke-linejoin:miter;stroke-miterlimit:10;stroke-dasharray:none;stroke-opacity:1"
             id="path112" /><g
             id="g114"
             transform="scale(4.16667)"><text
               transform="matrix(0,-1,-1,0,296.5,753.042)"
               style="font-variant:normal;font-weight:normal;font-size:14px;font-family:Menlo;-inkscape-font-specification:Menlo-Regular;writing-mode:lr-tb;fill:#afafaf;fill-opacity:1;fill-rule:nonzero;stroke:none"
               id="text118"><tspan
                 x="0 -8.42906 -16.85812"
                 y="0"
                 id="tspan116">Am3</tspan></text></g><path
             d="m 1260.42,3060.89 v 41.67"
             style="fill:none;stroke:#afafaf;stroke-width:4.16667;stroke-linecap:butt;stroke-linejoin:miter;stroke-miterlimit:10;stroke-dasharray:none;stroke-opacity:1"
             id="path120" /><g
             id="g122"
             transform="scale(4.16667)"><text
               transform="matrix(0,-1,-1,0,357.334,753.042)"
               style="font-variant:normal;font-weight:normal;font-size:14px;font-family:Menlo;-inkscape-font-specification:Menlo-Regular;writing-mode:lr-tb;fill:#afafaf;fill-opacity:1;fill-rule:nonzero;stroke:none"
               id="text126"><tspan
                 x="0 -8.42906 -16.85812"
                 y="0"
                 id="tspan124">Am4</tspan></text></g><path
             d="m 1513.89,3060.89 v 41.67"
             style="fill:none;stroke:#afafaf;stroke-width:4.16667;stroke-linecap:butt;stroke-linejoin:miter;stroke-miterlimit:10;stroke-dasharray:none;stroke-opacity:1"
             id="path128" /><g
             id="g130"
             transform="scale(4.16667)"><text
               transform="matrix(0,-1,-1,0,418.166,753.042)"
               style="font-variant:normal;font-weight:normal;font-size:14px;font-family:Menlo;-inkscape-font-specification:Menlo-Regular;writing-mode:lr-tb;fill:#afafaf;fill-opacity:1;fill-rule:nonzero;stroke:none"
               id="text134"><tspan
                 x="0 -8.42906 -16.85812"
                 y="0"
                 id="tspan132">Am5</tspan></text></g><path
             d="m 1767.36,3060.89 v 41.67"
             style="fill:none;stroke:#afafaf;stroke-width:4.16667;stroke-linecap:butt;stroke-linejoin:miter;stroke-miterlimit:10;stroke-dasharray:none;stroke-opacity:1"
             id="path136" /><g
             id="g138"
             transform="scale(4.16667)"><text
               transform="matrix(0,-1,-1,0,479,753.042)"
               style="font-variant:normal;font-weight:normal;font-size:14px;font-family:Menlo;-inkscape-font-specification:Menlo-Regular;writing-mode:lr-tb;fill:#afafaf;fill-opacity:1;fill-rule:nonzero;stroke:none"
               id="text142"><tspan
                 x="0 -8.42906 -16.85812"
                 y="0"
                 id="tspan140">Am6</tspan></text></g><path
             d="m 2020.83,3060.89 v 41.67"
             style="fill:none;stroke:#afafaf;stroke-width:4.16667;stroke-linecap:butt;stroke-linejoin:miter;stroke-miterlimit:10;stroke-dasharray:none;stroke-opacity:1"
             id="path144" /><path
             d="m 500,371.906 h 1520.83 v 2688.98 H 500 Z"
             style="fill:none;stroke:#afafaf;stroke-width:4.16667;stroke-linecap:butt;stroke-linejoin:miter;stroke-miterlimit:10;stroke-dasharray:none;stroke-opacity:1"
             id="path146" /><g
             id="g148"
             transform="scale(4.16667)"><text
               transform="matrix(0,-1,-1,0,489,462.686)"
               style="font-variant:normal;font-weight:normal;font-size:14px;font-family:Menlo;-inkscape-font-specification:Menlo-Regular;writing-mode:lr-tb;fill:#0eff00;fill-opacity:1;fill-rule:nonzero;stroke:none"
               id="text152"><tspan
                 x="0 8.4280005 16.855413 25.283415 33.711414 42.138828 50.56683 58.994244 67.422241 75.850243 84.277657 92.705658"
                 y="0"
                 id="tspan150">Ix(U1:Plate)</tspan></text></g></g></g><g
         id="g154"><g
           id="g156"
           clip-path="url(#clipPath160)"><path
             d="m 500,3060.89 v 0 -50.19 l 0.004,-7.17 v -7.17 -7.18 -7.16 -7.18 -7.17 -7.17 -7.17 -7.17 -7.17 -7.17 -7.17 -7.17 -7.17 -7.17 -7.17 l 0.004,-7.17 v -7.17 -7.18 -7.16 -7.18 -7.17 -7.17 -7.17 -7.17 -7.17 -7.17 -7.17 -7.17 -7.17 -7.17 l 0.004,-7.17 v -7.17 -7.18 -7.16 -7.18 -7.17 -7.17 -7.17 -7.17 -7.17 -7.17 -7.17 -7.17 -7.17 -7.17 l 0.004,-7.17 v -7.17 -7.17 -7.18 -7.16 -7.18 -7.17 -7.17 -7.17 -7.17 -7.17 -7.17 -7.17 -7.17 -7.17 -7.17 l 0.004,-7.17 v -7.17 -7.17 -7.17 -7.17 -7.18 -7.17 -7.17 -7.17 -7.17 -7.17 -7.17 -7.17 -7.17 -7.17 l 0.003,-7.17 v -7.17 -7.17 -7.17 -7.17 -7.17 -7.18 -7.16 -7.18 -7.17 -7.17 -7.17 -7.17 -7.17 -7.17 -7.17 l 0.004,-7.17 v -7.17 -7.17 -7.18 -7.16 -7.18 -7.17 -7.17 -7.17 -7.17 -7.17 -7.17 -7.17 -7.17 -7.17 l 0.004,-7.17 v -7.17 -7.17 -7.17 -7.18 -7.16 -7.18 -7.16 -7.18 -7.17 -7.17 -7.17 -7.17 -7.17 -7.17 l 0.004,-7.17 v -7.17 -7.17 -7.17 -7.17 -7.17 -7.17 -7.18 -7.16 -7.18 -7.17 -7.17 -7.17 -7.17 -7.17 -7.17 l 0.004,-7.17 v -7.17 -7.17 -7.17 -7.17 -7.17 -7.17 -7.18 -7.16 -7.18 -7.17 -7.17 -7.17 -7.17 -7.17 l 0.004,-7.17 v -7.17 -7.17 -7.17 -7.17 -7.18 -7.16 -7.18 -7.16 -7.18 -7.17 -7.17 -7.17 -7.17 -7.17 -7.17 l 0.004,-7.17 v -7.17 -7.17 -7.17 -7.17 -7.17 -7.17 -7.18 -7.16 -7.18 -7.17 -7.17 -7.17 -7.17 -7.17 l 0.004,-7.17 v -7.17 -7.17 -7.17 -7.17 -7.17 -7.17 -7.17 -7.18 -7.16 -7.18 -7.17 -7.17 -7.17 -7.17 -7.17 l 0.004,-7.17 v -7.17 -7.17 -7.17 -7.17 -7.17 -7.17 -7.17 -7.17 -7.17 -7.18 -7.16 -7.18 -7.17 -7.17 l 0.004,-7.17 v -7.17 -7.17 -7.17 -7.17 -7.17 -7.17 -7.17 -7.18 -7.16 -7.18 -7.17 -7.16 -7.18 -7.17 l 0.004,-7.17 v -7.17 -7.17 -7.17 -7.17 -7.17 -7.17 -7.17 -7.17 -7.18 -7.16 -7.18 -7.17 -7.17 -7.17 -7.17 l 0.003,-7.17 v -7.17 -7.17 -7.17 -7.17 -7.17 -7.17 -7.17 -7.17 -7.18 -7.16 -7.18 -7.16 -7.18 -7.17 l 0.004,-7.17 v -7.17 -7.17 -7.17 -7.17 -7.17 -7.17 -7.17 -7.17 -7.17 -7.17 -7.17 -7.18 -7.16 -7.18 -7.17 l 0.004,-7.17 v -7.17 -7.17 -7.168 -7.172 -7.172 -7.172 -7.168 -7.171 -7.172 -7.168 -7.172 -7.172 -7.168 -7.172 l 0.004,-7.172 v -7.168 -7.172 -7.171 -7.168 -7.172 -7.172 l 0.168,-7.168 0.317,-7.172 0.41,-7.172 0.488,-7.168 0.555,-7.172 0.613,-7.172 0.664,-7.171 0.719,-7.168 0.761,-7.172 0.805,-7.168 0.848,-7.172 0.887,-7.172 0.925,-7.172 0.961,-7.168 0.996,-7.172 1.032,-7.172 1.062,-7.168 1.098,-7.171 1.125,-7.172 1.156,-7.168 1.184,-7.172 1.214,-7.172 1.243,-7.168 1.269,-7.172 1.293,-7.172 1.324,-7.168 1.348,-7.172 1.375,-7.172 1.395,-7.167 1.425,-7.172 1.446,-7.172 1.468,-7.172 1.493,-7.168 1.515,-7.172 1.539,-7.172 1.563,-7.168 1.582,-7.172 1.601,-7.172 1.625,-7.168 1.649,-7.171 1.668,-7.172 1.687,-7.168 1.707,-7.172 1.727,-7.172 1.746,-7.168 1.769,-7.172 1.786,-7.172 1.804,-7.168 1.825,-7.172 1.843,-7.171 1.864,-7.168 1.878,-7.172 1.899,-7.172 1.918,-7.172 1.933,-7.168 1.954,-7.172 1.968,-7.168 1.985,-7.172 2.004,-7.172 2.023,-7.171 2.039,-7.168 2.055,-7.172 2.07,-7.172 2.09,-7.168 2.102,-7.172 2.121,-7.172 2.136,-7.168 2.157,-7.172"
             style="fill:none;stroke:#0eff00;stroke-width:4.16667;stroke-linecap:butt;stroke-linejoin:miter;stroke-miterlimit:1;stroke-dasharray:none;stroke-opacity:1"
             id="path162" /><path
             d="m 500,3060.89 v 0 -50.19 l 0.004,-7.17 v -7.17 -7.18 -7.16 -7.18 -7.17 -7.17 -7.17 -7.17 -7.17 -7.17 -7.17 -7.17 -7.17 -7.17 -7.17 l 0.004,-7.17 v -7.17 -7.18 -7.16 -7.18 -7.17 -7.17 -7.17 -7.17 -7.17 -7.17 -7.17 -7.17 -7.17 -7.17 l 0.004,-7.17 v -7.17 -7.18 -7.16 -7.18 -7.17 -7.17 -7.17 -7.17 -7.17 -7.17 -7.17 -7.17 -7.17 -7.17 l 0.004,-7.17 v -7.17 -7.17 -7.18 -7.16 -7.18 -7.17 -7.17 -7.17 -7.17 -7.17 -7.17 -7.17 -7.17 -7.17 -7.17 l 0.004,-7.17 v -7.17 -7.17 -7.17 -7.17 -7.18 -7.17 -7.17 -7.17 -7.17 -7.17 -7.17 -7.17 -7.17 -7.17 l 0.003,-7.17 v -7.17 -7.17 -7.17 -7.17 -7.17 -7.18 -7.16 -7.18 -7.17 -7.17 -7.17 -7.17 -7.17 -7.17 -7.17 l 0.004,-7.17 v -7.17 -7.17 -7.18 -7.16 -7.18 -7.17 -7.17 -7.17 -7.17 -7.17 -7.17 -7.17 -7.17 -7.17 l 0.004,-7.17 v -7.17 -7.17 -7.17 -7.18 -7.16 -7.18 -7.16 -7.18 -7.17 -7.17 -7.17 -7.17 -7.17 -7.17 l 0.004,-7.17 v -7.17 -7.17 -7.17 -7.17 -7.17 -7.17 -7.18 -7.16 -7.18 -7.17 -7.17 -7.17 -7.17 -7.17 -7.17 l 0.004,-7.17 v -7.17 -7.17 -7.17 -7.17 -7.17 -7.17 -7.18 -7.16 -7.18 -7.17 -7.17 -7.17 -7.17 -7.17 l 0.004,-7.17 v -7.17 -7.17 -7.17 -7.17 -7.18 -7.16 -7.18 -7.16 -7.18 -7.17 -7.17 -7.17 -7.17 -7.17 -7.17 l 0.004,-7.17 v -7.17 -7.17 -7.17 -7.17 -7.17 -7.17 -7.18 -7.16 -7.18 -7.17 -7.17 -7.17 -7.17 -7.17 l 0.004,-7.17 v -7.17 -7.17 -7.17 -7.17 -7.17 -7.17 -7.17 -7.18 -7.16 -7.18 -7.17 -7.17 -7.17 -7.17 -7.17 l 0.004,-7.17 v -7.17 -7.17 -7.17 -7.17 -7.17 -7.17 -7.17 -7.17 -7.17 -7.18 -7.16 -7.18 -7.17 -7.17 l 0.004,-7.17 v -7.17 -7.17 -7.17 -7.17 -7.17 -7.17 -7.17 -7.18 -7.16 -7.18 -7.17 -7.16 -7.18 -7.17 l 0.004,-7.17 v -7.17 -7.17 -7.17 -7.17 -7.17 -7.17 -7.17 -7.17 -7.18 -7.16 -7.18 -7.17 -7.17 -7.17 -7.17 l 0.003,-7.17 v -7.17 -7.17 -7.17 -7.17 -7.17 -7.17 -7.17 l 0.09,-7.17 0.297,-7.18 0.414,-7.16 0.5,-7.18 0.574,-7.16 0.641,-7.18 0.703,-7.17 0.758,-7.17 0.809,-7.17 0.859,-7.17 0.902,-7.17 0.946,-7.17 0.988,-7.17 1.031,-7.17 1.067,-7.17 1.105,-7.17 1.141,-7.17 1.172,-7.17 1.21,-7.17 1.243,-7.18 1.273,-7.16 1.305,-7.18 1.336,-7.17 1.367,-7.17 1.394,-7.17 1.426,-7.17 1.453,-7.168 1.477,-7.172 1.508,-7.172 1.535,-7.172 1.558,-7.168 1.586,-7.171 1.61,-7.172 1.636,-7.168 1.661,-7.172 1.683,-7.172 1.707,-7.168 1.731,-7.172 1.758,-7.172 1.777,-7.168 1.797,-7.172 1.824,-7.171 1.844,-7.168 1.867,-7.172 1.887,-7.172 1.91,-7.168 1.929,-7.172 1.954,-7.172 1.972,-7.168 1.992,-7.172 2.012,-7.172 2.031,-7.171 2.055,-7.168 2.07,-7.172 2.094,-7.168 2.11,-7.172 2.128,-7.172 2.149,-7.172 2.168,-7.168 2.187,-7.172 2.203,-7.172 2.223,-7.168 2.242,-7.171 2.258,-7.172 2.277,-7.168 2.293,-7.172 2.313,-7.172 2.332,-7.168 2.348,-7.172 2.363,-7.172 2.379,-7.168 2.398,-7.172 2.418,-7.172 2.43,-7.167 2.449,-7.172 2.465,-7.172 2.48,-7.172 2.497,-7.168 2.515,-7.172 2.531,-7.172 2.543,-7.168 2.563,-7.172 2.578,-7.172 2.594,-7.168 2.609,-7.171 2.621,-7.172 2.641,-7.168 2.656,-7.172 2.668,-7.172 2.688,-7.168 2.699,-7.172 2.715,-7.172 2.73,-7.168 2.746,-7.172 2.758,-7.171 2.773,-7.168 2.79,-7.172 2.804,-7.172 2.817,-7.172 2.832,-7.168 2.847,-7.172 2.864,-7.168 2.875,-7.172 2.886,-7.172 2.903,-7.171 2.918,-7.168 2.929,-7.172 2.946,-7.172 2.957,-7.168 2.972,-7.172 2.989,-7.172 2.996,-7.168 3.015,-7.172"
             style="fill:none;stroke:#0000ff;stroke-width:4.16667;stroke-linecap:butt;stroke-linejoin:miter;stroke-miterlimit:1;stroke-dasharray:none;stroke-opacity:1"
             id="path164" /><path
             d="m 500,3060.89 v 0 -50.19 l 0.004,-7.17 v -7.17 -7.18 -7.16 -7.18 -7.17 -7.17 -7.17 -7.17 -7.17 -7.17 -7.17 -7.17 -7.17 -7.17 -7.17 l 0.004,-7.17 v -7.17 -7.18 -7.16 -7.18 -7.17 -7.17 -7.17 -7.17 -7.17 -7.17 -7.17 -7.17 -7.17 -7.17 l 0.004,-7.17 v -7.17 -7.18 -7.16 -7.18 -7.17 -7.17 -7.17 -7.17 -7.17 -7.17 -7.17 -7.17 -7.17 -7.17 l 0.004,-7.17 v -7.17 -7.17 -7.18 -7.16 -7.18 -7.17 -7.17 -7.17 -7.17 -7.17 -7.17 -7.17 -7.17 -7.17 -7.17 l 0.004,-7.17 v -7.17 -7.17 -7.17 -7.17 -7.18 -7.17 -7.17 -7.17 -7.17 -7.17 -7.17 -7.17 -7.17 -7.17 l 0.003,-7.17 v -7.17 -7.17 -7.17 -7.17 -7.17 -7.18 -7.16 -7.18 -7.17 -7.17 -7.17 -7.17 -7.17 -7.17 -7.17 l 0.004,-7.17 v -7.17 -7.17 -7.18 -7.16 -7.18 -7.17 -7.17 -7.17 -7.17 -7.17 -7.17 -7.17 -7.17 -7.17 l 0.004,-7.17 v -7.17 -7.17 -7.17 -7.18 -7.16 -7.18 -7.16 -7.18 -7.17 -7.17 -7.17 -7.17 -7.17 -7.17 l 0.004,-7.17 v -7.17 -7.17 -7.17 -7.17 -7.17 -7.17 -7.18 -7.16 -7.18 -7.17 -7.17 -7.17 -7.17 -7.17 -7.17 l 0.004,-7.17 v -7.17 -7.17 -7.17 -7.17 -7.17 -7.17 -7.18 -7.16 -7.18 -7.17 -7.17 -7.17 -7.17 -7.17 l 0.004,-7.17 v -7.17 -7.17 -7.17 -7.17 -7.18 -7.16 -7.18 -7.16 -7.18 -7.17 -7.17 -7.17 -7.17 -7.17 -7.17 l 0.004,-7.17 v -7.17 -7.17 -7.17 -7.17 -7.17 -7.17 -7.18 -7.16 -7.18 -7.17 -7.17 -7.17 -7.17 -7.17 l 0.004,-7.17 v -7.17 -7.17 -7.17 -7.17 -7.17 -7.17 -7.17 -7.18 -7.16 -7.18 -7.17 -7.17 -7.17 -7.17 -7.17 l 0.004,-7.17 v -7.17 -7.17 -7.17 -7.17 -7.17 -7.17 -7.17 -7.17 l 0.027,-7.17 0.258,-7.18 0.402,-7.16 0.508,-7.18 0.594,-7.17 0.664,-7.17 0.734,-7.17 0.797,-7.17 0.852,-7.17 0.902,-7.17 0.957,-7.17 1.004,-7.17 1.051,-7.17 1.093,-7.17 1.133,-7.18 1.176,-7.16 1.215,-7.18 1.254,-7.17 1.289,-7.16 1.328,-7.18 1.359,-7.17 1.395,-7.17 1.43,-7.17 1.461,-7.17 1.492,-7.17 1.523,-7.17 1.555,-7.17 1.582,-7.17 1.617,-7.17 1.641,-7.17 1.672,-7.18 1.699,-7.16 1.726,-7.18 1.75,-7.17 1.782,-7.17 1.804,-7.17 1.832,-7.17 1.86,-7.17 1.882,-7.17 1.907,-7.17 1.929,-7.17 1.957,-7.17 1.981,-7.17 2.004,-7.17 2.027,-7.17 2.051,-7.17 2.07,-7.18 2.098,-7.16 2.117,-7.18 2.141,-7.16 2.16,-7.18 2.183,-7.17 2.204,-7.17 2.226,-7.17 2.25,-7.17 2.266,-7.17 2.289,-7.17 2.308,-7.17 2.332,-7.17 2.348,-7.17 2.371,-7.17 2.387,-7.17 2.41,-7.17 2.43,-7.17 2.445,-7.18 2.469,-7.16 2.484,-7.18 2.508,-7.17 2.523,-7.17 2.543,-7.17 2.559,-7.17 2.578,-7.168 2.598,-7.172 2.617,-7.172 2.633,-7.172 2.652,-7.168 2.668,-7.171 2.688,-7.172 2.703,-7.168 2.719,-7.172 2.742,-7.172 2.754,-7.168 2.773,-7.172 2.789,-7.172 2.809,-7.168 2.82,-7.172 2.84,-7.171 2.859,-7.168 2.871,-7.172 2.891,-7.172 2.906,-7.168 2.922,-7.172 2.938,-7.172 2.953,-7.168 2.968,-7.172 2.989,-7.172 3,-7.171 3.019,-7.168 3.032,-7.172 3.046,-7.168 3.067,-7.172 3.078,-7.172 3.094,-7.172 3.109,-7.168 3.125,-7.172 3.141,-7.172 3.156,-7.168 3.168,-7.171 3.183,-7.172 3.2,-7.168 3.215,-7.172 3.23,-7.172 3.242,-7.168 3.258,-7.172 3.273,-7.172 3.286,-7.168 3.3,-7.172 3.317,-7.172 3.328,-7.167 3.344,-7.172 3.359,-7.172 3.371,-7.172 3.387,-7.168 3.398,-7.172 3.414,-7.172 3.43,-7.168 3.441,-7.172 3.454,-7.172 3.468,-7.168 3.481,-7.171 3.496,-7.172 3.512,-7.168 3.519,-7.172 3.539,-7.172 3.547,-7.168 3.563,-7.172 3.578,-7.172 3.586,-7.168 3.605,-7.172 3.613,-7.171 3.629,-7.168 3.641,-7.172 3.652,-7.172 3.668,-7.172 3.68,-7.168 3.695,-7.172 3.703,-7.168 3.719,-7.172 3.731,-7.172 3.746,-7.171 3.754,-7.168 3.769,-7.172 3.781,-7.172 3.793,-7.168 3.809,-7.172 3.816,-7.172 3.832,-7.168 3.844,-7.172"
             style="fill:none;stroke:#ff0000;stroke-width:4.16667;stroke-linecap:butt;stroke-linejoin:miter;stroke-miterlimit:1;stroke-dasharray:none;stroke-opacity:1"
             id="path166" /><path
             d="m 500,3060.89 v 0 -50.19 l 0.004,-7.17 v -7.17 -7.18 -7.16 -7.18 -7.17 -7.17 -7.17 -7.17 -7.17 -7.17 -7.17 -7.17 -7.17 -7.17 -7.17 l 0.004,-7.17 v -7.17 -7.18 -7.16 -7.18 -7.17 -7.17 -7.17 -7.17 -7.17 -7.17 -7.17 -7.17 -7.17 -7.17 l 0.004,-7.17 v -7.17 -7.18 -7.16 -7.18 -7.17 -7.17 -7.17 -7.17 -7.17 -7.17 -7.17 -7.17 -7.17 -7.17 l 0.004,-7.17 v -7.17 -7.17 -7.18 -7.16 -7.18 -7.17 -7.17 -7.17 -7.17 -7.17 -7.17 -7.17 -7.17 -7.17 -7.17 l 0.004,-7.17 v -7.17 -7.17 -7.17 -7.17 -7.18 -7.17 -7.17 -7.17 -7.17 -7.17 -7.17 -7.17 -7.17 -7.17 l 0.003,-7.17 v -7.17 -7.17 -7.17 -7.17 -7.17 -7.18 -7.16 -7.18 -7.17 -7.17 -7.17 -7.17 -7.17 -7.17 -7.17 l 0.004,-7.17 v -7.17 -7.17 -7.18 -7.16 -7.18 -7.17 -7.17 -7.17 -7.17 -7.17 -7.17 -7.17 -7.17 -7.17 l 0.004,-7.17 v -7.17 -7.17 -7.17 -7.18 -7.16 -7.18 -7.16 -7.18 -7.17 -7.17 -7.17 -7.17 -7.17 -7.17 l 0.004,-7.17 v -7.17 -7.17 -7.17 -7.17 -7.17 -7.17 -7.18 -7.16 -7.18 -7.17 -7.17 -7.17 -7.17 -7.17 -7.17 l 0.004,-7.17 v -7.17 -7.17 -7.17 -7.17 -7.17 -7.17 -7.18 -7.16 -7.18 -7.17 -7.17 -7.17 -7.17 -7.17 l 0.004,-7.17 v -7.17 -7.17 -7.17 -7.17 -7.18 -7.16 -7.18 -7.16 -7.18 -7.17 -7.17 l 0.184,-7.17 0.382,-7.17 0.504,-7.17 0.606,-7.17 0.683,-7.17 0.762,-7.17 0.828,-7.17 0.895,-7.17 0.949,-7.17 1.004,-7.17 1.058,-7.17 1.106,-7.18 1.156,-7.16 1.199,-7.18 1.243,-7.17 1.289,-7.17 1.328,-7.17 1.367,-7.17 1.41,-7.17 1.442,-7.17 1.484,-7.17 1.516,-7.17 1.554,-7.17 1.586,-7.17 1.621,-7.17 1.656,-7.17 1.688,-7.17 1.719,-7.18 1.746,-7.16 1.781,-7.18 1.809,-7.17 1.84,-7.17 1.871,-7.17 1.898,-7.17 1.926,-7.17 1.953,-7.17 1.98,-7.17 2.008,-7.17 2.035,-7.17 2.063,-7.17 2.086,-7.17 2.113,-7.17 2.141,-7.17 2.164,-7.17 2.187,-7.17 2.215,-7.18 2.238,-7.16 2.262,-7.18 2.285,-7.17 2.309,-7.17 2.332,-7.17 2.355,-7.17 2.379,-7.17 2.403,-7.17 2.422,-7.17 2.445,-7.17 2.469,-7.17 2.492,-7.17 2.511,-7.18 2.532,-7.16 2.554,-7.18 2.575,-7.17 2.597,-7.16 2.617,-7.18 2.637,-7.17 2.66,-7.17 2.68,-7.17 2.699,-7.17 2.719,-7.17 2.738,-7.17 2.758,-7.17 2.777,-7.17 2.797,-7.17 2.817,-7.17 2.836,-7.18 2.855,-7.16 2.875,-7.18 2.895,-7.17 2.91,-7.17 2.93,-7.17 2.949,-7.17 2.968,-7.17 2.985,-7.17 3.004,-7.17 3.019,-7.17 3.039,-7.17 3.059,-7.17 3.074,-7.17 3.094,-7.17 3.109,-7.17 3.125,-7.18 3.145,-7.16 3.164,-7.18 3.18,-7.16 3.195,-7.18 3.211,-7.17 3.23,-7.17 3.246,-7.17 3.266,-7.17 3.277,-7.17 3.297,-7.17 3.313,-7.17 3.332,-7.17 3.344,-7.17 3.363,-7.17 3.375,-7.17 3.394,-7.17 3.41,-7.17 3.426,-7.18 3.442,-7.16 3.457,-7.18 3.472,-7.17 3.493,-7.17 3.503,-7.17 3.52,-7.17 3.535,-7.168 3.551,-7.172 3.562,-7.172 3.582,-7.172 3.598,-7.168 3.609,-7.171 3.625,-7.172 3.641,-7.168 3.656,-7.172 3.672,-7.172 3.688,-7.168 3.699,-7.172 3.715,-7.172 3.73,-7.168 3.742,-7.172 3.762,-7.171 3.774,-7.168 3.785,-7.172 3.801,-7.172 3.816,-7.168 3.832,-7.172 3.844,-7.172 3.859,-7.168 3.871,-7.172 3.887,-7.172 3.902,-7.171 3.914,-7.168 3.93,-7.172 3.941,-7.168 3.957,-7.172 3.969,-7.172 3.985,-7.172 3.996,-7.168 4.011,-7.172 4.024,-7.172 4.035,-7.168 4.055,-7.171 4.062,-7.172 4.078,-7.168 4.09,-7.172 4.106,-7.172 4.117,-7.168 4.133,-7.172 4.144,-7.172 4.156,-7.168 4.168,-7.172 4.184,-7.172 4.199,-7.167 4.207,-7.172 4.223,-7.172 4.234,-7.172 4.25,-7.168 4.258,-7.172 4.273,-7.172 4.286,-7.168 4.3,-7.172 4.313,-7.172 4.324,-7.168 4.332,-7.171 4.35,-7.172 4.37,-7.168 4.37,-7.172 4.38,-7.172 4.41,-7.168 4.41,-7.172 4.42,-7.172 4.43,-7.168 4.45,-7.172 4.46,-7.171 4.47,-7.168 4.49,-7.172 4.49,-7.172 4.52,-7.172 4.52,-7.168 4.53,-7.172 4.54,-7.168 4.56,-7.172 4.57,-7.172 4.58,-7.171 4.59,-7.168 4.61,-7.172 4.61,-7.172 4.63,-7.168 4.64,-7.172 4.65,-7.172 4.67,-7.168 4.67,-7.172"
             style="fill:none;stroke:#00afaf;stroke-width:4.16667;stroke-linecap:butt;stroke-linejoin:miter;stroke-miterlimit:1;stroke-dasharray:none;stroke-opacity:1"
             id="path168" /><path
             d="m 500,3060.89 v 0 -50.19 l 0.004,-7.17 v -7.17 -7.18 -7.16 -7.18 -7.17 -7.17 -7.17 -7.17 -7.17 -7.17 -7.17 -7.17 -7.17 -7.17 -7.17 l 0.004,-7.17 v -7.17 -7.18 -7.16 -7.18 -7.17 -7.17 -7.17 -7.17 -7.17 -7.17 -7.17 -7.17 -7.17 -7.17 l 0.004,-7.17 v -7.17 -7.18 -7.16 -7.18 -7.17 -7.17 -7.17 -7.17 -7.17 -7.17 -7.17 -7.17 -7.17 -7.17 l 0.004,-7.17 v -7.17 -7.17 -7.18 -7.16 -7.18 -7.17 -7.17 -7.17 -7.17 -7.17 -7.17 -7.17 -7.17 -7.17 -7.17 l 0.004,-7.17 v -7.17 -7.17 -7.17 -7.17 -7.18 -7.17 -7.17 -7.17 -7.17 -7.17 -7.17 -7.17 -7.17 -7.17 l 0.003,-7.17 v -7.17 -7.17 -7.17 -7.17 -7.17 -7.18 -7.16 -7.18 -7.17 -7.17 -7.17 -7.17 -7.17 -7.17 -7.17 l 0.004,-7.17 v -7.17 -7.17 -7.18 -7.16 -7.18 -7.17 -7.17 -7.17 -7.17 -7.17 -7.17 -7.17 -7.17 -7.17 l 0.004,-7.17 v -7.17 -7.17 -7.17 -7.18 -7.16 -7.18 -7.16 -7.18 -7.17 -7.17 -7.17 -7.17 l 0.09,-7.17 0.348,-7.17 0.496,-7.17 0.605,-7.17 0.703,-7.17 0.782,-7.17 0.859,-7.17 0.926,-7.17 0.988,-7.17 1.051,-7.18 1.105,-7.16 1.164,-7.18 1.211,-7.17 1.262,-7.17 1.309,-7.17 1.355,-7.17 1.403,-7.17 1.441,-7.17 1.488,-7.17 1.524,-7.17 1.566,-7.17 1.606,-7.17 1.644,-7.17 1.68,-7.17 1.715,-7.17 1.75,-7.18 1.785,-7.16 1.82,-7.18 1.856,-7.17 1.886,-7.17 1.918,-7.17 1.953,-7.17 1.981,-7.17 2.012,-7.17 2.042,-7.17 2.075,-7.17 2.101,-7.17 2.133,-7.17 2.16,-7.18 2.192,-7.16 2.214,-7.18 2.247,-7.16 2.269,-7.18 2.301,-7.17 2.324,-7.17 2.352,-7.17 2.379,-7.17 2.406,-7.17 2.43,-7.17 2.453,-7.17 2.48,-7.17 2.504,-7.17 2.527,-7.17 2.555,-7.17 2.578,-7.17 2.602,-7.17 2.625,-7.18 2.648,-7.16 2.672,-7.18 2.695,-7.17 2.715,-7.17 2.742,-7.17 2.762,-7.17 2.785,-7.17 2.809,-7.17 2.828,-7.17 2.852,-7.17 2.871,-7.17 2.894,-7.17 2.914,-7.17 2.938,-7.17 2.957,-7.17 2.976,-7.18 3,-7.16 3.02,-7.18 3.039,-7.17 3.062,-7.17 3.079,-7.17 3.101,-7.17 3.121,-7.17 3.141,-7.17 3.16,-7.17 3.176,-7.17 3.199,-7.17 3.219,-7.17 3.238,-7.17 3.254,-7.17 3.277,-7.17 3.293,-7.17 3.313,-7.17 3.332,-7.18 3.351,-7.16 3.368,-7.18 3.386,-7.17 3.406,-7.17 3.422,-7.17 3.442,-7.17 3.461,-7.17 3.476,-7.17 3.492,-7.17 3.516,-7.17 3.527,-7.17 3.551,-7.17 3.563,-7.18 3.582,-7.16 3.601,-7.18 3.617,-7.17 3.633,-7.16 3.653,-7.18 3.668,-7.17 3.683,-7.17 3.703,-7.17 3.715,-7.17 3.738,-7.17 3.75,-7.17 3.77,-7.17 3.781,-7.17 3.801,-7.17 3.82,-7.17 3.832,-7.18 3.848,-7.16 3.867,-7.18 3.883,-7.17 3.895,-7.17 3.914,-7.17 3.929,-7.17 3.946,-7.17 3.961,-7.17 3.976,-7.17 3.992,-7.17 4.008,-7.17 4.02,-7.17 4.039,-7.17 4.054,-7.17 4.067,-7.17 4.086,-7.18 4.097,-7.16 4.114,-7.18 4.132,-7.16 4.141,-7.18 4.16,-7.17 4.176,-7.17 4.188,-7.17 4.203,-7.17 4.218,-7.17 4.235,-7.17 4.246,-7.17 4.266,-7.17 4.277,-7.17 4.289,-7.17 4.305,-7.17 4.32,-7.17 4.336,-7.17 4.348,-7.18 4.363,-7.16 4.379,-7.18 4.39,-7.17 4.407,-7.17 4.418,-7.17 4.433,-7.17 4.449,-7.168 4.461,-7.172 4.477,-7.172 4.488,-7.172 4.504,-7.168 4.516,-7.171 4.527,-7.172 4.55,-7.168 4.56,-7.172 4.57,-7.172 4.58,-7.168 4.6,-7.172 4.61,-7.172 4.63,-7.168 4.64,-7.172 4.65,-7.171 4.66,-7.168 4.68,-7.172 4.7,-7.172 4.7,-7.168 4.72,-7.172 4.73,-7.172 4.75,-7.168 4.76,-7.172 4.77,-7.172 4.78,-7.171 4.8,-7.168 4.81,-7.172 4.82,-7.168 4.84,-7.172 4.84,-7.172 4.86,-7.172 4.88,-7.168 4.89,-7.172 4.89,-7.172 4.92,-7.168 4.92,-7.171 4.94,-7.172 4.95,-7.168 4.96,-7.172 4.97,-7.172 4.99,-7.168 5,-7.172 5.01,-7.172 5.03,-7.168 5.04,-7.172 5.04,-7.172 5.07,-7.167 5.07,-7.172 5.09,-7.172 5.09,-7.172 5.11,-7.168 5.12,-7.172 5.14,-7.172 5.15,-7.168 5.16,-7.172 5.17,-7.172 5.18,-7.168 5.19,-7.171 5.21,-7.172 5.22,-7.168 5.23,-7.172 5.24,-7.172 5.25,-7.168 5.27,-7.172 5.28,-7.172 5.29,-7.168 5.3,-7.172 5.31,-7.171 5.32,-7.168 5.34,-7.172 5.35,-7.172 5.36,-7.172 5.37,-7.168 5.38,-7.172 5.4,-7.168 5.4,-7.172 5.42,-7.172 5.43,-7.171 5.44,-7.168 5.45,-7.172 5.46,-7.172 5.47,-7.168 5.49,-7.172 5.5,-7.172 5.51,-7.168 5.52,-7.172"
             style="fill:none;stroke:#ff00ff;stroke-width:4.16667;stroke-linecap:butt;stroke-linejoin:miter;stroke-miterlimit:1;stroke-dasharray:none;stroke-opacity:1"
             id="path170" /><path
             d="m 500,3060.89 v 0 -50.19 l 0.004,-7.17 v -7.17 -7.18 -7.16 -7.18 -7.17 -7.17 -7.17 -7.17 -7.17 -7.17 -7.17 -7.17 -7.17 -7.17 -7.17 l 0.004,-7.17 v -7.17 -7.18 -7.16 -7.18 -7.17 -7.17 -7.17 -7.17 -7.17 -7.17 -7.17 -7.17 -7.17 -7.17 l 0.004,-7.17 v -7.17 -7.18 -7.16 -7.18 -7.17 -7.17 -7.17 -7.17 -7.17 -7.17 -7.17 -7.17 -7.17 -7.17 l 0.004,-7.17 v -7.17 -7.17 -7.18 -7.16 -7.18 -7.17 -7.17 -7.17 -7.17 -7.17 -7.17 -7.17 -7.17 -7.17 -7.17 l 0.004,-7.17 v -7.17 -7.17 -7.17 -7.17 -7.18 -7.17 -7.17 -7.17 -7.17 -7.17 -7.17 -7.17 -7.17 l 0.015,-7.17 0.293,-7.17 0.473,-7.17 0.605,-7.17 0.707,-7.17 0.797,-7.17 0.883,-7.17 0.953,-7.18 1.027,-7.16 1.09,-7.18 1.149,-7.17 1.211,-7.17 1.265,-7.17 1.321,-7.17 1.371,-7.17 1.418,-7.17 1.468,-7.17 1.516,-7.17 1.559,-7.17 1.601,-7.17 1.649,-7.18 1.687,-7.16 1.727,-7.18 1.769,-7.17 1.805,-7.17 1.844,-7.17 1.882,-7.17 1.918,-7.17 1.957,-7.17 1.989,-7.17 2.023,-7.17 2.059,-7.17 2.094,-7.17 2.125,-7.17 2.156,-7.17 2.191,-7.17 2.219,-7.18 2.254,-7.16 2.281,-7.18 2.313,-7.16 2.343,-7.18 2.375,-7.17 2.403,-7.17 2.429,-7.17 2.461,-7.17 2.489,-7.17 2.515,-7.17 2.543,-7.17 2.571,-7.17 2.597,-7.17 2.625,-7.17 2.653,-7.17 2.675,-7.17 2.703,-7.17 2.731,-7.18 2.754,-7.16 2.777,-7.18 2.805,-7.17 2.832,-7.17 2.855,-7.17 2.875,-7.17 2.907,-7.17 2.925,-7.17 2.95,-7.17 2.976,-7.17 2.996,-7.17 3.024,-7.17 3.043,-7.17 3.066,-7.17 3.09,-7.17 3.113,-7.18 3.133,-7.16 3.16,-7.18 3.176,-7.17 3.203,-7.17 3.223,-7.17 3.246,-7.17 3.265,-7.17 3.286,-7.17 3.308,-7.17 3.332,-7.17 3.352,-7.17 3.371,-7.17 3.39,-7.18 3.415,-7.16 3.433,-7.18 3.453,-7.16 3.477,-7.18 3.492,-7.17 3.516,-7.17 3.535,-7.17 3.554,-7.17 3.571,-7.17 3.594,-7.17 3.613,-7.17 3.633,-7.17 3.652,-7.17 3.668,-7.17 3.691,-7.17 3.707,-7.17 3.731,-7.17 3.746,-7.18 3.762,-7.16 3.785,-7.18 3.801,-7.17 3.82,-7.17 3.84,-7.17 3.859,-7.17 3.875,-7.17 3.891,-7.17 3.91,-7.17 3.93,-7.17 3.949,-7.17 3.965,-7.17 3.98,-7.17 4,-7.17 4.02,-7.17 4.035,-7.18 4.051,-7.16 4.07,-7.18 4.086,-7.17 4.101,-7.17 4.125,-7.17 4.137,-7.17 4.156,-7.17 4.168,-7.17 4.192,-7.17 4.203,-7.17 4.223,-7.17 4.238,-7.17 4.254,-7.17 4.273,-7.17 4.289,-7.17 4.305,-7.17 4.32,-7.17 4.336,-7.18 4.352,-7.16 4.371,-7.18 4.383,-7.17 4.402,-7.17 4.418,-7.17 4.434,-7.17 4.445,-7.17 4.465,-7.17 4.48,-7.17 4.496,-7.17 4.512,-7.17 4.527,-7.17 4.543,-7.18 4.559,-7.16 4.574,-7.18 4.586,-7.17 4.606,-7.16 4.617,-7.18 4.636,-7.17 4.649,-7.17 4.664,-7.17 4.68,-7.17 4.695,-7.17 4.711,-7.17 4.725,-7.17 4.74,-7.17 4.75,-7.17 4.77,-7.17 4.78,-7.18 4.8,-7.16 4.81,-7.18 4.83,-7.17 4.85,-7.17 4.85,-7.17 4.87,-7.17 4.89,-7.17 4.9,-7.17 4.91,-7.17 4.93,-7.17 4.94,-7.17 4.96,-7.17 4.97,-7.17 4.98,-7.17 5,-7.17 5.01,-7.18 5.03,-7.16 5.04,-7.18 5.06,-7.16 5.07,-7.18 5.08,-7.17 5.1,-7.17 5.1,-7.17 5.13,-7.17 5.14,-7.17 5.15,-7.17 5.16,-7.17 5.18,-7.17 5.19,-7.17 5.21,-7.17 5.22,-7.17 5.23,-7.17 5.25,-7.17 5.26,-7.18 5.27,-7.16 5.28,-7.18 5.3,-7.17 5.32,-7.17 5.32,-7.17 5.34,-7.17 5.35,-7.168 5.37,-7.172 5.38,-7.172 5.39,-7.172 5.4,-7.168 5.42,-7.171 5.43,-7.172 5.44,-7.168 5.46,-7.172 5.47,-7.172 5.48,-7.168 5.49,-7.172 5.51,-7.172 5.52,-7.168 5.53,-7.172 5.55,-7.171 5.56,-7.168 5.57,-7.172 5.58,-7.172 5.6,-7.168 5.61,-7.172 5.62,-7.172 5.63,-7.168 5.64,-7.172 5.66,-7.172 5.68,-7.171 5.68,-7.168 5.7,-7.172 5.7,-7.168 5.72,-7.172 5.74,-7.172 5.74,-7.172 5.76,-7.168 5.76,-7.172 5.79,-7.172 5.79,-7.168 5.8,-7.171 5.82,-7.172 5.83,-7.168 5.84,-7.172 5.86,-7.172 5.86,-7.168 5.88,-7.172 5.89,-7.172 5.9,-7.168 5.92,-7.172 5.92,-7.172 5.94,-7.167 5.95,-7.172 5.96,-7.172 5.97,-7.172 5.98,-7.168 6,-7.172 6.01,-7.172 6.02,-7.168 6.03,-7.172 6.04,-7.172 6.06,-7.168 6.06,-7.171 6.08,-7.172 6.09,-7.168 6.1,-7.172 6.11,-7.172 6.13,-7.168 6.13,-7.172 6.15,-7.172 6.15,-7.168 6.18,-7.172 6.17,-7.171 6.2,-7.168 6.2,-7.172 6.21,-7.172 6.23,-7.172 6.24,-7.168 6.25,-7.172 6.26,-7.168 6.27,-7.172 6.28,-7.172 6.29,-7.171 6.31,-7.168 6.32,-7.172 6.32,-7.172 6.34,-7.168 6.35,-7.172 6.36,-7.172 6.37,-7.168 6.38,-7.172"
             style="fill:none;stroke:#808080;stroke-width:4.16667;stroke-linecap:butt;stroke-linejoin:miter;stroke-miterlimit:1;stroke-dasharray:none;stroke-opacity:1"
             id="path172" /><path
             d="m 500,3060.89 v 0 -50.19 l 0.004,-7.17 v -7.17 -7.18 -7.16 -7.18 -7.17 -7.17 -7.17 -7.17 -7.17 -7.17 -7.17 -7.17 -7.17 -7.17 -7.17 l 0.004,-7.17 v -7.17 -7.18 -7.16 -7.18 -7.17 -7.17 -7.17 -7.17 -7.17 -7.17 -7.17 -7.17 -7.17 -7.17 l 0.004,-7.17 0.179,-7.17 0.438,-7.18 0.586,-7.16 0.699,-7.18 0.805,-7.17 0.89,-7.17 0.973,-7.17 1.051,-7.17 1.121,-7.17 1.184,-7.17 1.25,-7.17 1.308,-7.17 1.367,-7.17 1.422,-7.17 1.477,-7.17 1.523,-7.17 1.578,-7.17 1.625,-7.18 1.672,-7.16 1.719,-7.18 1.762,-7.17 1.808,-7.17 1.848,-7.17 1.891,-7.17 1.933,-7.17 1.969,-7.17 2.012,-7.17 2.05,-7.17 2.086,-7.17 2.125,-7.17 2.16,-7.17 2.196,-7.17 2.234,-7.17 2.266,-7.17 2.301,-7.17 2.335,-7.18 2.368,-7.17 2.402,-7.17 2.434,-7.17 2.464,-7.17 2.5,-7.17 2.528,-7.17 2.558,-7.17 2.594,-7.17 2.617,-7.17 2.653,-7.17 2.679,-7.17 2.707,-7.17 2.739,-7.17 2.765,-7.17 2.797,-7.17 2.82,-7.18 2.852,-7.16 2.879,-7.18 2.906,-7.17 2.93,-7.17 2.961,-7.17 2.984,-7.17 3.012,-7.17 3.039,-7.17 3.062,-7.17 3.09,-7.17 3.114,-7.17 3.14,-7.17 3.164,-7.18 3.192,-7.16 3.211,-7.18 3.238,-7.17 3.266,-7.17 3.285,-7.17 3.312,-7.17 3.332,-7.17 3.36,-7.17 3.382,-7.17 3.403,-7.17 3.429,-7.17 3.45,-7.17 3.476,-7.17 3.496,-7.17 3.516,-7.17 3.543,-7.18 3.562,-7.16 3.586,-7.18 3.606,-7.16 3.629,-7.18 3.652,-7.17 3.672,-7.17 3.695,-7.17 3.715,-7.17 3.734,-7.17 3.758,-7.17 3.778,-7.17 3.8,-7.17 3.821,-7.17 3.84,-7.17 3.859,-7.17 3.883,-7.17 3.898,-7.17 3.922,-7.18 3.941,-7.16 3.965,-7.18 3.981,-7.17 4,-7.17 4.023,-7.17 4.039,-7.17 4.059,-7.17 4.082,-7.17 4.098,-7.17 4.117,-7.17 4.136,-7.17 4.157,-7.17 4.176,-7.17 4.195,-7.17 4.211,-7.17 4.23,-7.18 4.254,-7.16 4.266,-7.18 4.289,-7.17 4.305,-7.17 4.324,-7.17 4.34,-7.17 4.363,-7.17 4.375,-7.17 4.398,-7.17 4.414,-7.17 4.43,-7.17 4.449,-7.17 4.469,-7.18 4.484,-7.16 4.504,-7.18 4.52,-7.16 4.539,-7.18 4.555,-7.17 4.57,-7.17 4.59,-7.17 4.605,-7.17 4.625,-7.17 4.641,-7.17 4.656,-7.17 4.676,-7.17 4.691,-7.17 4.707,-7.17 4.727,-7.17 4.742,-7.17 4.758,-7.17 4.773,-7.18 4.793,-7.16 4.809,-7.18 4.824,-7.17 4.84,-7.17 4.855,-7.17 4.875,-7.17 4.887,-7.17 4.904,-7.17 4.92,-7.17 4.94,-7.17 4.95,-7.17 4.97,-7.17 4.99,-7.17 5,-7.17 5.02,-7.17 5.03,-7.18 5.05,-7.16 5.06,-7.18 5.08,-7.17 5.1,-7.17 5.11,-7.17 5.12,-7.17 5.14,-7.17 5.16,-7.17 5.17,-7.17 5.19,-7.17 5.2,-7.17 5.22,-7.17 5.23,-7.17 5.25,-7.17 5.26,-7.17 5.28,-7.17 5.29,-7.17 5.31,-7.18 5.32,-7.16 5.34,-7.18 5.35,-7.17 5.37,-7.17 5.38,-7.17 5.39,-7.17 5.41,-7.17 5.43,-7.17 5.44,-7.17 5.45,-7.17 5.47,-7.17 5.48,-7.17 5.5,-7.18 5.51,-7.16 5.53,-7.18 5.54,-7.17 5.55,-7.16 5.57,-7.18 5.58,-7.17 5.6,-7.17 5.61,-7.17 5.63,-7.17 5.64,-7.17 5.65,-7.17 5.67,-7.17 5.68,-7.17 5.69,-7.17 5.71,-7.17 5.72,-7.18 5.74,-7.16 5.75,-7.18 5.76,-7.17 5.78,-7.17 5.79,-7.17 5.81,-7.17 5.81,-7.17 5.84,-7.17 5.84,-7.17 5.86,-7.17 5.87,-7.17 5.89,-7.17 5.9,-7.17 5.91,-7.17 5.93,-7.17 5.94,-7.18 5.95,-7.16 5.96,-7.18 5.98,-7.16 6,-7.18 6,-7.17 6.02,-7.17 6.03,-7.17 6.04,-7.17 6.06,-7.17 6.07,-7.17 6.09,-7.17 6.09,-7.17 6.11,-7.17 6.13,-7.17 6.13,-7.17 6.15,-7.17 6.16,-7.17 6.17,-7.18 6.19,-7.16 6.2,-7.18 6.21,-7.17 6.23,-7.17 6.23,-7.17 6.25,-7.17 6.27,-7.168 6.27,-7.172 6.29,-7.172 6.3,-7.172 6.31,-7.168 6.33,-7.171 6.34,-7.172 6.35,-7.168 6.36,-7.172 6.37,-7.172 6.39,-7.168 6.4,-7.172 6.41,-7.172 6.43,-7.168 6.44,-7.172 6.45,-7.171 6.46,-7.168 6.47,-7.172 6.48,-7.172 6.5,-7.168 6.51,-7.172 6.53,-7.172 6.53,-7.168 6.54,-7.172 6.56,-7.172 6.57,-7.171 6.58,-7.168 6.6,-7.172 6.61,-7.168 6.62,-7.172 6.62,-7.172 6.65,-7.172 6.65,-7.168 6.67,-7.172 6.67,-7.172 6.7,-7.168 6.7,-7.171 6.71,-7.172 6.72,-7.168 6.74,-7.172 6.75,-7.172 6.76,-7.168 6.77,-7.172 6.78,-7.172 6.8,-7.168 6.81,-7.172 6.81,-7.172 6.83,-7.167 6.84,-7.172 6.86,-7.172 6.86,-7.172 6.87,-7.168 6.89,-7.172 6.9,-7.172 6.91,-7.168 6.92,-7.172 6.93,-7.172 6.95,-7.168 6.95,-7.171 6.97,-7.172 6.98,-7.168 6.99,-7.172 7,-7.172 7.01,-7.168 7.03,-7.172 7.03,-7.172 7.04,-7.168 7.06,-7.172 7.07,-7.171 7.08,-7.168 7.09,-7.172 7.1,-7.172 7.12,-7.172 7.12,-7.168 7.13,-7.172 7.15,-7.168 7.16,-7.172 7.17,-7.172 7.17,-7.171 7.19,-7.168 7.2,-7.172 7.22,-7.172 7.22,-7.168 7.23,-7.172 7.25,-7.172 7.25,-7.168 7.27,-7.172"
             style="fill:none;stroke:#038000;stroke-width:4.16667;stroke-linecap:butt;stroke-linejoin:miter;stroke-miterlimit:1;stroke-dasharray:none;stroke-opacity:1"
             id="path174" /><path
             d="m 500,3060.89 v 0 l 2.082,-7.17 1.469,-7.17 1.351,-7.17 1.344,-7.17 1.367,-7.17 1.41,-7.17 1.457,-7.17 1.508,-7.17 1.559,-7.17 1.609,-7.18 1.66,-7.16 1.711,-7.18 1.758,-7.17 1.805,-7.17 1.851,-7.17 1.899,-7.17 1.945,-7.17 1.985,-7.17 2.031,-7.17 2.074,-7.17 2.113,-7.17 2.153,-7.17 2.195,-7.17 2.234,-7.17 2.274,-7.17 2.308,-7.18 2.352,-7.16 2.383,-7.18 2.422,-7.17 2.461,-7.17 2.492,-7.17 2.527,-7.17 2.563,-7.17 2.597,-7.17 2.629,-7.17 2.664,-7.17 2.696,-7.17 2.726,-7.17 2.762,-7.17 2.793,-7.17 2.824,-7.18 2.852,-7.16 2.886,-7.18 2.914,-7.17 2.946,-7.17 2.976,-7.17 3.004,-7.17 3.035,-7.17 3.059,-7.17 3.094,-7.17 3.117,-7.17 3.148,-7.17 3.176,-7.17 3.203,-7.17 3.231,-7.17 3.254,-7.17 3.285,-7.18 3.312,-7.16 3.336,-7.18 3.363,-7.17 3.391,-7.17 3.414,-7.17 3.441,-7.17 3.469,-7.17 3.489,-7.17 3.519,-7.17 3.543,-7.17 3.566,-7.17 3.59,-7.17 3.617,-7.17 3.637,-7.17 3.664,-7.17 3.692,-7.17 3.711,-7.17 3.734,-7.18 3.758,-7.17 3.785,-7.17 3.805,-7.17 3.828,-7.17 3.851,-7.17 3.875,-7.17 3.895,-7.17 3.922,-7.17 3.941,-7.17 3.965,-7.17 3.984,-7.17 4.008,-7.17 4.031,-7.17 4.051,-7.17 4.074,-7.17 4.098,-7.18 4.117,-7.16 4.137,-7.18 4.16,-7.17 4.18,-7.17 4.199,-7.17 4.223,-7.17 4.246,-7.17 4.261,-7.17 4.286,-7.17 4.304,-7.17 4.325,-7.17 4.347,-7.17 4.363,-7.18 4.387,-7.16 4.406,-7.18 4.426,-7.17 4.446,-7.17 4.468,-7.17 4.485,-7.17 4.504,-7.17 4.523,-7.17 4.547,-7.17 4.562,-7.17 4.582,-7.17 4.602,-7.17 4.621,-7.17 4.637,-7.17 4.66,-7.17 4.68,-7.18 4.695,-7.16 4.715,-7.18 4.734,-7.16 4.75,-7.18 4.774,-7.17 4.789,-7.17 4.804,-7.17 4.828,-7.17 4.844,-7.17 4.86,-7.17 4.882,-7.17 4.899,-7.17 4.914,-7.17 4.934,-7.17 4.953,-7.17 4.968,-7.17 4.989,-7.17 5.004,-7.18 5.023,-7.16 5.039,-7.18 5.059,-7.17 5.074,-7.17 5.093,-7.17 5.11,-7.17 5.13,-7.17 5.14,-7.17 5.16,-7.17 5.18,-7.17 5.19,-7.17 5.22,-7.17 5.23,-7.17 5.24,-7.17 5.26,-7.17 5.28,-7.18 5.3,-7.16 5.31,-7.18 5.33,-7.17 5.34,-7.17 5.37,-7.17 5.37,-7.17 5.4,-7.17 5.41,-7.17 5.43,-7.17 5.44,-7.17 5.46,-7.17 5.47,-7.17 5.5,-7.18 5.5,-7.16 5.53,-7.18 5.54,-7.16 5.56,-7.18 5.57,-7.17 5.58,-7.17 5.61,-7.17 5.61,-7.17 5.64,-7.17 5.65,-7.17 5.66,-7.17 5.68,-7.17 5.7,-7.17 5.71,-7.17 5.73,-7.17 5.74,-7.17 5.76,-7.17 5.77,-7.18 5.79,-7.16 5.81,-7.18 5.81,-7.17 5.84,-7.17 5.85,-7.17 5.86,-7.17 5.88,-7.17 5.89,-7.17 5.91,-7.17 5.93,-7.17 5.94,-7.17 5.95,-7.17 5.97,-7.17 5.98,-7.17 6,-7.17 6.01,-7.18 6.03,-7.16 6.04,-7.18 6.06,-7.17 6.07,-7.17 6.08,-7.17 6.1,-7.17 6.12,-7.17 6.12,-7.17 6.15,-7.17 6.15,-7.17 6.17,-7.17 6.19,-7.17 6.2,-7.17 6.22,-7.17 6.22,-7.17 6.25,-7.17 6.25,-7.17 6.27,-7.18 6.29,-7.16 6.29,-7.18 6.32,-7.17 6.33,-7.17 6.34,-7.17 6.35,-7.17 6.37,-7.17 6.38,-7.17 6.4,-7.17 6.41,-7.17 6.42,-7.17 6.43,-7.17 6.46,-7.18 6.46,-7.16 6.48,-7.18 6.49,-7.17 6.51,-7.16 6.51,-7.18 6.54,-7.17 6.54,-7.17 6.56,-7.17 6.57,-7.17 6.59,-7.17 6.6,-7.17 6.61,-7.17 6.62,-7.17 6.64,-7.17 6.66,-7.17 6.66,-7.18 6.68,-7.16 6.69,-7.18 6.71,-7.17 6.72,-7.17 6.73,-7.17 6.74,-7.17 6.76,-7.17 6.77,-7.17 6.78,-7.17 6.8,-7.17 6.81,-7.17 6.82,-7.17 6.83,-7.17 6.86,-7.17 6.86,-7.17 6.87,-7.18 6.89,-7.16 6.9,-7.18 6.91,-7.16 6.92,-7.18 6.94,-7.17 6.95,-7.17 6.96,-7.17 6.98,-7.17 6.99,-7.17 7,-7.17 7.01,-7.17 7.03,-7.17 7.04,-7.17 7.05,-7.17 7.06,-7.17 7.07,-7.17 7.09,-7.17 7.1,-7.18 7.12,-7.16 7.12,-7.18 7.14,-7.17 7.15,-7.17 7.16,-7.17 7.18,-7.17 7.19,-7.168 7.19,-7.172 7.22,-7.172 7.22,-7.172 7.23,-7.168 7.25,-7.171 7.26,-7.172 7.27,-7.168 7.29,-7.172 7.3,-7.172 7.3,-7.168 7.33,-7.172 7.33,-7.172 7.34,-7.168 7.36,-7.172 7.37,-7.171 7.38,-7.168 7.39,-7.172 7.4,-7.172 7.42,-7.168 7.43,-7.172 7.44,-7.172 7.45,-7.168 7.46,-7.172 7.48,-7.172 7.49,-7.171 7.5,-7.168 7.51,-7.172 7.52,-7.168 7.53,-7.172 7.55,-7.172 7.56,-7.172 7.57,-7.168 7.58,-7.172 7.59,-7.172 7.6,-7.168 7.62,-7.171 7.63,-7.172 7.63,-7.168 7.65,-7.172 7.66,-7.172 7.68,-7.168 7.68,-7.172 7.7,-7.172 7.71,-7.168 7.71,-7.172 7.74,-7.172 7.74,-7.167 7.75,-7.172 7.77,-7.172 7.77,-7.172 7.79,-7.168 7.8,-7.172 7.8,-7.172 7.83,-7.168 7.83,-7.172 7.84,-7.172 7.86,-7.168 7.86,-7.171 7.88,-7.172 7.89,-7.168 7.9,-7.172 7.91,-7.172 7.92,-7.168 7.93,-7.172 7.94,-7.172 7.96,-7.168 7.97,-7.172 7.97,-7.171 7.99,-7.168 8,-7.172 8.01,-7.172 8.02,-7.172 8.03,-7.168 8.05,-7.172 8.05,-7.168 8.07,-7.172 8.07,-7.172 8.09,-7.171 8.1,-7.168 8.11,-7.172 8.12,-7.172 8.13,-7.168 8.14,-7.172 8.15,-7.172 8.16,-7.168 8.17,-7.172"
             style="fill:none;stroke:#0000b1;stroke-width:4.16667;stroke-linecap:butt;stroke-linejoin:miter;stroke-miterlimit:1;stroke-dasharray:none;stroke-opacity:1"
             id="path176" /><path
             d="m 500,3060.89 v 0 l 49.094,-7.17 20.312,-7.17 12.16,-7.17 8.735,-7.17 6.98,-7.17 5.973,-7.17 5.344,-7.17 4.933,-7.17 4.645,-7.17 4.449,-7.18 4.301,-7.16 4.199,-7.18 4.121,-7.17 4.067,-7.17 4.023,-7.17 3.996,-7.17 3.973,-7.17 3.961,-7.17 3.957,-7.17 3.949,-7.17 3.953,-7.17 3.961,-7.17 3.961,-7.17 3.976,-7.17 3.981,-7.17 4,-7.18 4.008,-7.16 4.023,-7.18 4.039,-7.17 4.059,-7.17 4.07,-7.17 4.09,-7.17 4.109,-7.17 4.125,-7.17 4.149,-7.17 4.164,-7.17 4.183,-7.17 4.2,-7.17 4.222,-7.17 4.243,-7.17 4.261,-7.18 4.285,-7.16 4.301,-7.18 4.324,-7.17 4.34,-7.17 4.364,-7.17 4.382,-7.17 4.407,-7.17 4.421,-7.17 4.446,-7.17 4.465,-7.17 4.484,-7.17 4.508,-7.17 4.523,-7.17 4.547,-7.17 4.567,-7.17 4.585,-7.18 4.61,-7.16 4.625,-7.18 4.648,-7.17 4.668,-7.17 4.684,-7.17 4.707,-7.17 4.73,-7.17 4.746,-7.17 4.766,-7.17 4.789,-7.17 4.805,-7.17 4.824,-7.17 4.848,-7.17 4.863,-7.17 4.887,-7.17 4.902,-7.17 4.926,-7.17 4.941,-7.18 4.961,-7.17 4.985,-7.17 5,-7.17 5.019,-7.17 5.039,-7.17 5.055,-7.17 5.078,-7.17 5.094,-7.17 5.113,-7.17 5.133,-7.17 5.152,-7.17 5.172,-7.17 5.187,-7.17 5.208,-7.17 5.226,-7.17 5.242,-7.18 5.266,-7.16 5.281,-7.18 5.302,-7.17 5.31,-7.17 5.34,-7.17 5.35,-7.17 5.37,-7.17 5.39,-7.17 5.41,-7.17 5.42,-7.17 5.45,-7.17 5.46,-7.17 5.48,-7.18 5.49,-7.16 5.52,-7.18 5.52,-7.17 5.56,-7.17 5.56,-7.17 5.58,-7.17 5.61,-7.17 5.61,-7.17 5.64,-7.17 5.65,-7.17 5.67,-7.17 5.69,-7.17 5.7,-7.17 5.72,-7.17 5.74,-7.17 5.75,-7.18 5.77,-7.16 5.79,-7.18 5.81,-7.16 5.82,-7.18 5.84,-7.17 5.85,-7.17 5.88,-7.17 5.88,-7.17 5.9,-7.17 5.93,-7.17 5.93,-7.17 5.96,-7.17 5.97,-7.17 5.98,-7.17 6.01,-7.17 6.01,-7.17 6.04,-7.17 6.05,-7.18 6.07,-7.16 6.08,-7.18 6.1,-7.17 6.11,-7.17 6.14,-7.17 6.14,-7.17 6.16,-7.17 6.18,-7.17 6.19,-7.17 6.22,-7.17 6.22,-7.17 6.24,-7.17 6.26,-7.17 6.27,-7.17 6.29,-7.17 6.3,-7.18 6.32,-7.16 6.33,-7.18 6.35,-7.17 6.37,-7.17 6.37,-7.17 6.4,-7.17 6.41,-7.17 6.42,-7.17 6.45,-7.17 6.45,-7.17 6.48,-7.17 6.48,-7.17 6.5,-7.18 6.52,-7.16 6.53,-7.18 6.54,-7.16 6.56,-7.18 6.58,-7.17 6.59,-7.17 6.61,-7.17 6.61,-7.17 6.64,-7.17 6.65,-7.17 6.66,-7.17 6.68,-7.17 6.69,-7.17 6.71,-7.17 6.72,-7.17 6.74,-7.17 6.75,-7.17 6.76,-7.18 6.78,-7.16 6.8,-7.18 6.81,-7.17 6.82,-7.17 6.84,-7.17 6.85,-7.17 6.86,-7.17 6.88,-7.17 6.9,-7.17 6.91,-7.17 6.92,-7.17 6.93,-7.17 6.96,-7.17 6.96,-7.17 6.98,-7.17 6.99,-7.18 7.01,-7.16 7.02,-7.18 7.03,-7.17 7.05,-7.17 7.06,-7.17 7.08,-7.17 7.09,-7.17 7.1,-7.17 7.12,-7.17 7.13,-7.17 7.14,-7.17 7.16,-7.17 7.17,-7.17 7.18,-7.17 7.2,-7.17 7.21,-7.17 7.23,-7.17 7.24,-7.18 7.25,-7.16 7.27,-7.18 7.28,-7.17 7.29,-7.17 7.31,-7.17 7.32,-7.17 7.33,-7.17 7.35,-7.17 7.36,-7.17 7.37,-7.17 7.38,-7.17 7.4,-7.17 7.42,-7.18 7.42,-7.16 7.44,-7.18 7.45,-7.17 7.47,-7.16 7.48,-7.18 7.49,-7.17 7.5,-7.17 7.52,-7.17 7.53,-7.17 7.54,-7.17 7.56,-7.17 7.57,-7.17 7.58,-7.17 7.59,-7.17 7.61,-7.17 7.62,-7.18 7.64,-7.16 7.64,-7.18 7.66,-7.17 7.67,-7.17 7.69,-7.17 7.69,-7.17 7.71,-7.17 7.72,-7.17 7.74,-7.17 7.74,-7.17 7.77,-7.17 7.77,-7.17 7.78,-7.17 7.8,-7.17 7.81,-7.17 7.82,-7.18 7.84,-7.16 7.84,-7.18 7.87,-7.16 7.87,-7.18 7.88,-7.17 7.9,-7.17 7.91,-7.17 7.92,-7.17 7.94,-7.17 7.94,-7.17 7.96,-7.17 7.97,-7.17 7.98,-7.17 8,-7.17 8.01,-7.17 8.02,-7.17 8.03,-7.17 8.05,-7.18 8.05,-7.16 8.07,-7.18 8.08,-7.17 8.09,-7.17 8.11,-7.17 8.12,-7.17 8.12,-7.168 8.15,-7.172 8.15,-7.172 8.16,-7.172 8.18,-7.168 8.19,-7.171 8.2,-7.172 8.21,-7.168 8.23,-7.172 8.23,-7.172 8.25,-7.168 8.26,-7.172 8.27,-7.172 8.29,-7.168 8.29,-7.172 8.31,-7.171 8.32,-7.168 8.33,-7.172 8.34,-7.172 8.35,-7.168 8.37,-7.172 8.38,-7.172 8.38,-7.168 8.41,-7.172 8.41,-7.172 8.42,-7.171 8.44,-7.168 8.45,-7.172 8.45,-7.168 8.48,-7.172 8.48,-7.172 8.49,-7.172 8.5,-7.168 8.52,-7.172 8.53,-7.172 8.54,-7.168 8.55,-7.171 8.56,-7.172 8.57,-7.168 8.59,-7.172 8.6,-7.172 8.6,-7.168 8.62,-7.172 8.63,-7.172 8.64,-7.168 8.65,-7.172 8.67,-7.172 8.67,-7.167 8.69,-7.172 8.7,-7.172 8.71,-7.172 8.72,-7.168 8.73,-7.172 8.74,-7.172 8.76,-7.168 8.76,-7.172 8.78,-7.172 8.78,-7.168 8.8,-7.171 8.81,-7.172 8.82,-7.168 8.83,-7.172 8.85,-7.172 8.85,-7.168 8.86,-7.172 8.88,-7.172 8.89,-7.168 8.9,-7.172 8.9,-7.171 8.92,-7.168 8.93,-7.172 8.94,-7.172 8.96,-7.172 8.96,-7.168 8.97,-7.172 8.99,-7.168 9,-7.172 9,-7.172 9.02,-7.171 9.03,-7.168 9.04,-7.172 9.05,-7.172 9.06,-7.168 9.07,-7.172 9.08,-7.172 9.1,-7.168 9.1,-7.172"
             style="fill:none;stroke:#af8000;stroke-width:4.16667;stroke-linecap:butt;stroke-linejoin:miter;stroke-miterlimit:1;stroke-dasharray:none;stroke-opacity:1"
             id="path178" /></g></g></g></g></svg>
