<?xml version="1.0" encoding="UTF-8" standalone="no"?>
<svg
   xmlns:dc="http://purl.org/dc/elements/1.1/"
   xmlns:cc="http://creativecommons.org/ns#"
   xmlns:rdf="http://www.w3.org/1999/02/22-rdf-syntax-ns#"
   xmlns:svg="http://www.w3.org/2000/svg"
   xmlns="http://www.w3.org/2000/svg"
   version="1.1"
   id="svg172"
   xml:space="preserve"
   width="619.03198"
   height="361.33768"
   viewBox="0 0 928.54796 542.00654"><metadata
     id="metadata178"><rdf:RDF><cc:Work
         rdf:about=""><dc:format>image/svg+xml</dc:format><dc:type
           rdf:resource="http://purl.org/dc/dcmitype/StillImage" /><dc:title></dc:title></cc:Work></rdf:RDF></metadata><defs
     id="defs176"><clipPath
       clipPathUnits="userSpaceOnUse"
       id="clipPath190"><path
         d="m 375,299.582 h 1729.17 v 2908.34 H 375 Z"
         id="path188" /></clipPath><clipPath
       clipPathUnits="userSpaceOnUse"
       id="clipPath338"><path
         d="m 500,370.418 h 1520.83 v 2658.33 H 500 Z"
         id="path336" /></clipPath></defs><g
     id="g180"
     transform="matrix(0,-1.3333333,-1.3333333,0,1025.6048,667.07604)"><g
       id="g182"
       transform="scale(0.24)"><g
         id="g184"><g
           id="g186"
           clip-path="url(#clipPath190)"><path
             d="M 500,3025.77 H 458.332"
             style="fill:none;stroke:#afafaf;stroke-width:4.16667;stroke-linecap:butt;stroke-linejoin:miter;stroke-miterlimit:10;stroke-dasharray:none;stroke-opacity:1"
             id="path192" /><g
             id="g194"
             transform="scale(4.16667)"><text
               transform="matrix(0,-1,-1,0,94.0003,734.614)"
               style="font-variant:normal;font-weight:normal;font-size:14px;font-family:Menlo;-inkscape-font-specification:Menlo-Regular;writing-mode:lr-tb;fill:#afafaf;fill-opacity:1;fill-rule:nonzero;stroke:none"
               id="text198"><tspan
                 x="0 8.4274139"
                 y="0"
                 id="tspan196">0V</tspan></text></g><path
             d="M 500,2760.39 H 458.332"
             style="fill:none;stroke:#afafaf;stroke-width:4.16667;stroke-linecap:butt;stroke-linejoin:miter;stroke-miterlimit:10;stroke-dasharray:none;stroke-opacity:1"
             id="path200" /><g
             id="g202"
             transform="scale(4.16667)"><text
               transform="matrix(0,-1,-1,0,94.0003,675.136)"
               style="font-variant:normal;font-weight:normal;font-size:14px;font-family:Menlo;-inkscape-font-specification:Menlo-Regular;writing-mode:lr-tb;fill:#afafaf;fill-opacity:1;fill-rule:nonzero;stroke:none"
               id="text206"><tspan
                 x="0 8.4280005 16.856001"
                 y="0"
                 id="tspan204">40V</tspan></text></g><path
             d="M 500,2495 H 458.332"
             style="fill:none;stroke:#afafaf;stroke-width:4.16667;stroke-linecap:butt;stroke-linejoin:miter;stroke-miterlimit:10;stroke-dasharray:none;stroke-opacity:1"
             id="path208" /><g
             id="g210"
             transform="scale(4.16667)"><text
               transform="matrix(0,-1,-1,0,94.0003,611.443)"
               style="font-variant:normal;font-weight:normal;font-size:14px;font-family:Menlo;-inkscape-font-specification:Menlo-Regular;writing-mode:lr-tb;fill:#afafaf;fill-opacity:1;fill-rule:nonzero;stroke:none"
               id="text214"><tspan
                 x="0 8.4280005 16.856001"
                 y="0"
                 id="tspan212">80V</tspan></text></g><path
             d="M 500,2229.61 H 458.332"
             style="fill:none;stroke:#afafaf;stroke-width:4.16667;stroke-linecap:butt;stroke-linejoin:miter;stroke-miterlimit:10;stroke-dasharray:none;stroke-opacity:1"
             id="path216" /><g
             id="g218"
             transform="scale(4.16667)"><text
               transform="matrix(0,-1,-1,0,94.0003,551.964)"
               style="font-variant:normal;font-weight:normal;font-size:14px;font-family:Menlo;-inkscape-font-specification:Menlo-Regular;writing-mode:lr-tb;fill:#afafaf;fill-opacity:1;fill-rule:nonzero;stroke:none"
               id="text222"><tspan
                 x="0 8.4280005 16.855413 25.283415"
                 y="0"
                 id="tspan220">120V</tspan></text></g><path
             d="M 500,1964.23 H 458.332"
             style="fill:none;stroke:#afafaf;stroke-width:4.16667;stroke-linecap:butt;stroke-linejoin:miter;stroke-miterlimit:10;stroke-dasharray:none;stroke-opacity:1"
             id="path224" /><g
             id="g226"
             transform="scale(4.16667)"><text
               transform="matrix(0,-1,-1,0,94.0003,488.272)"
               style="font-variant:normal;font-weight:normal;font-size:14px;font-family:Menlo;-inkscape-font-specification:Menlo-Regular;writing-mode:lr-tb;fill:#afafaf;fill-opacity:1;fill-rule:nonzero;stroke:none"
               id="text230"><tspan
                 x="0 8.4280005 16.855413 25.283415"
                 y="0"
                 id="tspan228">160V</tspan></text></g><path
             d="M 500,1698.84 H 458.332"
             style="fill:none;stroke:#afafaf;stroke-width:4.16667;stroke-linecap:butt;stroke-linejoin:miter;stroke-miterlimit:10;stroke-dasharray:none;stroke-opacity:1"
             id="path232" /><g
             id="g234"
             transform="scale(4.16667)"><text
               transform="matrix(0,-1,-1,0,94.0003,424.579)"
               style="font-variant:normal;font-weight:normal;font-size:14px;font-family:Menlo;-inkscape-font-specification:Menlo-Regular;writing-mode:lr-tb;fill:#afafaf;fill-opacity:1;fill-rule:nonzero;stroke:none"
               id="text238"><tspan
                 x="0 8.4280005 16.855413 25.283415"
                 y="0"
                 id="tspan236">200V</tspan></text></g><path
             d="M 500,1433.45 H 458.332"
             style="fill:none;stroke:#afafaf;stroke-width:4.16667;stroke-linecap:butt;stroke-linejoin:miter;stroke-miterlimit:10;stroke-dasharray:none;stroke-opacity:1"
             id="path240" /><g
             id="g242"
             transform="scale(4.16667)"><text
               transform="matrix(0,-1,-1,0,94.0003,360.886)"
               style="font-variant:normal;font-weight:normal;font-size:14px;font-family:Menlo;-inkscape-font-specification:Menlo-Regular;writing-mode:lr-tb;fill:#afafaf;fill-opacity:1;fill-rule:nonzero;stroke:none"
               id="text246"><tspan
                 x="0 8.4280005 16.855413 25.283415"
                 y="0"
                 id="tspan244">240V</tspan></text></g><path
             d="M 500,1168.07 H 458.332"
             style="fill:none;stroke:#afafaf;stroke-width:4.16667;stroke-linecap:butt;stroke-linejoin:miter;stroke-miterlimit:10;stroke-dasharray:none;stroke-opacity:1"
             id="path248" /><g
             id="g250"
             transform="scale(4.16667)"><text
               transform="matrix(0,-1,-1,0,94.0003,297.193)"
               style="font-variant:normal;font-weight:normal;font-size:14px;font-family:Menlo;-inkscape-font-specification:Menlo-Regular;writing-mode:lr-tb;fill:#afafaf;fill-opacity:1;fill-rule:nonzero;stroke:none"
               id="text254"><tspan
                 x="0 8.4274139 16.855413 25.283415"
                 y="0"
                 id="tspan252">280V</tspan></text></g><path
             d="M 500,902.68 H 458.332"
             style="fill:none;stroke:#afafaf;stroke-width:4.16667;stroke-linecap:butt;stroke-linejoin:miter;stroke-miterlimit:10;stroke-dasharray:none;stroke-opacity:1"
             id="path256" /><g
             id="g258"
             transform="scale(4.16667)"><text
               transform="matrix(0,-1,-1,0,94.0003,233.5)"
               style="font-variant:normal;font-weight:normal;font-size:14px;font-family:Menlo;-inkscape-font-specification:Menlo-Regular;writing-mode:lr-tb;fill:#afafaf;fill-opacity:1;fill-rule:nonzero;stroke:none"
               id="text262"><tspan
                 x="0 8.4274139 16.855413 25.283415"
                 y="0"
                 id="tspan260">320V</tspan></text></g><path
             d="M 500,637.293 H 458.332"
             style="fill:none;stroke:#afafaf;stroke-width:4.16667;stroke-linecap:butt;stroke-linejoin:miter;stroke-miterlimit:10;stroke-dasharray:none;stroke-opacity:1"
             id="path264" /><g
             id="g266"
             transform="scale(4.16667)"><text
               transform="matrix(0,-1,-1,0,94.0003,169.808)"
               style="font-variant:normal;font-weight:normal;font-size:14px;font-family:Menlo;-inkscape-font-specification:Menlo-Regular;writing-mode:lr-tb;fill:#afafaf;fill-opacity:1;fill-rule:nonzero;stroke:none"
               id="text270"><tspan
                 x="0 8.4274139 16.855413 25.283415"
                 y="0"
                 id="tspan268">360V</tspan></text></g><path
             d="M 500,371.906 H 458.332"
             style="fill:none;stroke:#afafaf;stroke-width:4.16667;stroke-linecap:butt;stroke-linejoin:miter;stroke-miterlimit:10;stroke-dasharray:none;stroke-opacity:1"
             id="path272" /><g
             id="g274"
             transform="scale(4.16667)"><text
               transform="matrix(0,-1,-1,0,94.0003,106.115)"
               style="font-variant:normal;font-weight:normal;font-size:14px;font-family:Menlo;-inkscape-font-specification:Menlo-Regular;writing-mode:lr-tb;fill:#afafaf;fill-opacity:1;fill-rule:nonzero;stroke:none"
               id="text280"><tspan
                 x="0 8.4274139 16.855413 25.283415"
                 y="0"
                 id="tspan276">400V</tspan><tspan
                 x="-638.49902 -646.92712 -655.3562"
                 y="-20"
                 id="tspan278">Am0</tspan></text></g><path
             d="m 500,3025.77 v 41.67"
             style="fill:none;stroke:#afafaf;stroke-width:4.16667;stroke-linecap:butt;stroke-linejoin:miter;stroke-miterlimit:10;stroke-dasharray:none;stroke-opacity:1"
             id="path282" /><g
             id="g284"
             transform="scale(4.16667)"><text
               transform="matrix(0,-1,-1,0,187,744.614)"
               style="font-variant:normal;font-weight:normal;font-size:14px;font-family:Menlo;-inkscape-font-specification:Menlo-Regular;writing-mode:lr-tb;fill:#afafaf;fill-opacity:1;fill-rule:nonzero;stroke:none"
               id="text288"><tspan
                 x="0 -8.4281301 -16.857189 -25.286249"
                 y="0"
                 id="tspan286">Am01</tspan></text></g><path
             d="m 804.168,3025.77 v 41.67"
             style="fill:none;stroke:#afafaf;stroke-width:4.16667;stroke-linecap:butt;stroke-linejoin:miter;stroke-miterlimit:10;stroke-dasharray:none;stroke-opacity:1"
             id="path290" /><g
             id="g292"
             transform="scale(4.16667)"><text
               transform="matrix(0,-1,-1,0,260,744.614)"
               style="font-variant:normal;font-weight:normal;font-size:14px;font-family:Menlo;-inkscape-font-specification:Menlo-Regular;writing-mode:lr-tb;fill:#afafaf;fill-opacity:1;fill-rule:nonzero;stroke:none"
               id="text296"><tspan
                 x="0 -8.4281301 -16.857189 -25.286249"
                 y="0"
                 id="tspan294">Am02</tspan></text></g><path
             d="m 1108.33,3025.77 v 41.67"
             style="fill:none;stroke:#afafaf;stroke-width:4.16667;stroke-linecap:butt;stroke-linejoin:miter;stroke-miterlimit:10;stroke-dasharray:none;stroke-opacity:1"
             id="path298" /><g
             id="g300"
             transform="scale(4.16667)"><text
               transform="matrix(0,-1,-1,0,333,744.614)"
               style="font-variant:normal;font-weight:normal;font-size:14px;font-family:Menlo;-inkscape-font-specification:Menlo-Regular;writing-mode:lr-tb;fill:#afafaf;fill-opacity:1;fill-rule:nonzero;stroke:none"
               id="text304"><tspan
                 x="0 -8.4281301 -16.857189 -25.286249"
                 y="0"
                 id="tspan302">Am03</tspan></text></g><path
             d="m 1412.5,3025.77 v 41.67"
             style="fill:none;stroke:#afafaf;stroke-width:4.16667;stroke-linecap:butt;stroke-linejoin:miter;stroke-miterlimit:10;stroke-dasharray:none;stroke-opacity:1"
             id="path306" /><g
             id="g308"
             transform="scale(4.16667)"><text
               transform="matrix(0,-1,-1,0,406,744.614)"
               style="font-variant:normal;font-weight:normal;font-size:14px;font-family:Menlo;-inkscape-font-specification:Menlo-Regular;writing-mode:lr-tb;fill:#afafaf;fill-opacity:1;fill-rule:nonzero;stroke:none"
               id="text312"><tspan
                 x="0 -8.4281301 -16.857189 -25.286249"
                 y="0"
                 id="tspan310">Am04</tspan></text></g><path
             d="m 1716.67,3025.77 v 41.67"
             style="fill:none;stroke:#afafaf;stroke-width:4.16667;stroke-linecap:butt;stroke-linejoin:miter;stroke-miterlimit:10;stroke-dasharray:none;stroke-opacity:1"
             id="path314" /><g
             id="g316"
             transform="scale(4.16667)"><text
               transform="matrix(0,-1,-1,0,479,744.614)"
               style="font-variant:normal;font-weight:normal;font-size:14px;font-family:Menlo;-inkscape-font-specification:Menlo-Regular;writing-mode:lr-tb;fill:#afafaf;fill-opacity:1;fill-rule:nonzero;stroke:none"
               id="text320"><tspan
                 x="0 -8.4281301 -16.857189 -25.286249"
                 y="0"
                 id="tspan318">Am05</tspan></text></g><path
             d="m 2020.83,3025.77 v 41.67"
             style="fill:none;stroke:#afafaf;stroke-width:4.16667;stroke-linecap:butt;stroke-linejoin:miter;stroke-miterlimit:10;stroke-dasharray:none;stroke-opacity:1"
             id="path322" /><path
             d="m 500,371.906 h 1520.83 v 2653.87 H 500 Z"
             style="fill:none;stroke:#afafaf;stroke-width:4.16667;stroke-linecap:butt;stroke-linejoin:miter;stroke-miterlimit:10;stroke-dasharray:none;stroke-opacity:1"
             id="path324" /><g
             id="g326"
             transform="scale(4.16667)"><text
               transform="matrix(0,-1,-1,0,489,458.757)"
               style="font-variant:normal;font-weight:normal;font-size:14px;font-family:Menlo;-inkscape-font-specification:Menlo-Regular;writing-mode:lr-tb;fill:#0eff00;fill-opacity:1;fill-rule:nonzero;stroke:none"
               id="text330"><tspan
                 x="0 8.4274139 16.855413 25.283415 33.710827 42.138828 50.566242 58.994244 67.422241 75.849655 84.277657 92.705658"
                 y="0"
                 id="tspan328">Ix(U1:Plate)</tspan></text></g></g></g><g
         id="g332"><g
           id="g334"
           clip-path="url(#clipPath338)"><path
             d="m 500,3025.77 v 0 -417.98 l 0.004,-6.64 v -6.63 -6.64 -6.63 -6.64 -6.63 -6.64 -6.63 -6.64 -6.63 -6.64 -6.63 -6.63 -6.64 -6.63 -6.64 -6.63 -6.64 -6.63 -6.64 -6.63 -6.64 -6.63 -6.64 -6.63 -6.63 -6.64 -6.63 -6.64 -6.63 -6.64 -6.63 -6.64 -6.63 -6.64 -6.63 -6.64 -6.63 -6.63 -6.64 -6.63 -6.64 -6.63 -6.64 -6.63 -6.64 -6.63 -6.64 -6.63 -6.64 -6.63 -6.63 -6.64 -6.63 -6.64 -6.63 -6.64 -6.63 -6.64 -6.63 -6.64 -6.63 -6.64 -6.63 -6.63 -6.64 -6.63 -6.64 -6.63 -6.64 -6.63 -6.64 -6.63 -6.64 -6.63 -6.64 -6.63 -6.63 -6.64 -6.63 -6.64 -6.63 -6.64 -6.63 -6.64 -6.63 -6.64 -6.63 -6.64 -6.63 -6.63 -6.64 -6.63 -6.64 -6.63 -6.64 -6.63 -6.64 -6.63 -6.64 -6.63 -6.64 -6.63 -6.64 -6.63 -6.64 -6.63 -6.64 -6.63 -6.63 -6.64 -6.63 -6.64 -6.63 -6.64 -6.63 -6.64 -6.63 -6.64 -6.63 -6.64 -6.63 -6.64 -6.63 -6.64 -6.63 -6.63 -6.64 -6.63 l 0.004,-6.64 v -6.63 -6.64 -6.63 -6.64 -6.63 -6.64 -6.63 -6.64 -6.63 -6.64 -6.63 -6.64 -6.63 -6.63 -6.64 -6.63 -6.64 -6.63 -6.64 -6.63 -6.64 -6.63 -6.64 -6.63 -6.64 -6.63 -6.64 -6.63 -6.63 -6.64 -6.63 -6.64 -6.63 -6.64 -6.63 -6.64 -6.63 -6.64 -6.63 -6.64 -6.63 -6.63 -6.64 -6.63 -6.64 -6.63 -6.64 -6.63 -6.64 -6.63 -6.64 -6.63 -6.64 -6.63 -6.63 -6.64 -6.63 -6.64 -6.63 -6.64 -6.63 -6.64 -6.63 -6.64 -6.63 -6.64 -6.63 -6.63 -6.64 -6.63 -6.64 -6.63 -6.64 -6.63 -6.64 -6.63 -6.64 -6.63 -6.64 -6.63 -6.63 -6.64 -6.63 -6.64 -6.63 -6.64 -6.63 -6.64 -6.63 -6.64 -6.63 -6.64 -6.63 -6.63 -6.64 -6.63 -6.64 -6.63 -6.64 -6.63 -6.64 -6.63 -6.64 -6.63 -6.64 -6.63 -6.64 -6.63 -6.64 -6.63 -6.63 -6.64 -6.634 -6.636 -6.633 -6.637 l 0.004,-6.633 v -6.636 -6.633 -6.637 -6.633 -6.636 -6.633 -6.637 -6.633 -6.636 -6.633 -6.637 -6.633 -6.637 -6.632 -6.633 -6.637 l 0.004,-6.633 v -6.636 -6.633 -6.637 -6.633 -6.636 l 0.004,-6.633 v -6.637 -6.633 -6.637 l 0.003,-6.632 v -6.637 l 0.004,-6.633 v -6.637 l 0.004,-6.632 v -6.637 l 0.004,-6.633 0.004,-6.633 0.004,-6.636 0.004,-6.633 0.004,-6.637 0.004,-6.633 0.004,-6.637 0.007,-6.632 0.008,-6.637 0.004,-6.633 0.008,-6.637 0.012,-6.632 0.007,-6.637 0.012,-6.633 0.012,-6.637 0.012,-6.632 0.015,-6.637 0.016,-6.633 0.016,-6.637 0.019,-6.633 0.023,-6.636 0.024,-6.633 0.023,-6.633 0.028,-6.637 0.031,-6.632 0.035,-6.637 0.035,-6.633 0.043,-6.637 0.043,-6.632 0.051,-6.637 0.051,-6.633 0.058,-6.637 0.067,-6.633 0.07,-6.636 0.074,-6.633 0.086,-6.637 0.09,-6.633 0.098,-6.636 0.109,-6.633 0.117,-6.633 0.129,-6.637 0.141,-6.632 0.152,-6.637 0.164,-6.633 0.18,-6.637 0.191,-6.633 0.211,-6.636 0.227,-6.633 0.25,-6.637 0.265,-6.633 0.29,-6.636 0.312,-6.633 0.336,-6.637 0.363,-6.633 0.395,-6.636 0.422,-6.633 0.457,-6.637 0.488,-6.633"
             style="fill:none;stroke:#0eff00;stroke-width:4.16667;stroke-linecap:butt;stroke-linejoin:miter;stroke-miterlimit:1;stroke-dasharray:none;stroke-opacity:1"
             id="path340" /><path
             d="m 500,3025.77 v 0 -417.98 l 0.004,-6.64 v -6.63 -6.64 -6.63 -6.64 -6.63 -6.64 -6.63 -6.64 -6.63 -6.64 -6.63 -6.63 -6.64 -6.63 -6.64 -6.63 -6.64 -6.63 -6.64 -6.63 -6.64 -6.63 -6.64 -6.63 -6.63 -6.64 -6.63 -6.64 -6.63 -6.64 -6.63 -6.64 -6.63 -6.64 -6.63 -6.64 -6.63 -6.63 -6.64 -6.63 -6.64 -6.63 -6.64 -6.63 -6.64 -6.63 -6.64 -6.63 -6.64 -6.63 -6.63 -6.64 -6.63 -6.64 -6.63 -6.64 -6.63 -6.64 -6.63 -6.64 -6.63 -6.64 -6.63 -6.63 -6.64 -6.63 -6.64 -6.63 -6.64 -6.63 -6.64 -6.63 -6.64 -6.63 -6.64 -6.63 -6.63 -6.64 -6.63 -6.64 -6.63 -6.64 -6.63 -6.64 -6.63 -6.64 -6.63 -6.64 -6.63 -6.63 -6.64 -6.63 -6.64 -6.63 -6.64 -6.63 -6.64 -6.63 -6.64 -6.63 -6.64 -6.63 -6.64 -6.63 -6.64 -6.63 -6.64 -6.63 -6.63 -6.64 -6.63 -6.64 -6.63 -6.64 -6.63 -6.64 -6.63 -6.64 -6.63 -6.64 -6.63 -6.64 -6.63 -6.64 -6.63 -6.63 -6.64 -6.63 l 0.004,-6.64 v -6.63 -6.64 -6.63 -6.64 -6.63 -6.64 -6.63 -6.64 -6.63 -6.64 -6.63 -6.64 -6.63 -6.63 -6.64 -6.63 -6.64 -6.63 -6.64 -6.63 -6.64 -6.63 -6.64 -6.63 -6.64 -6.63 -6.64 -6.63 -6.63 -6.64 -6.63 -6.64 -6.63 -6.64 -6.63 -6.64 -6.63 -6.64 -6.63 -6.64 -6.63 -6.63 -6.64 -6.63 -6.64 -6.63 -6.64 -6.63 -6.64 -6.63 -6.64 -6.63 -6.64 -6.63 -6.63 -6.64 -6.63 -6.64 -6.63 -6.64 -6.63 -6.64 -6.63 -6.64 -6.63 -6.64 -6.63 -6.63 -6.64 -6.63 -6.64 -6.63 -6.64 -6.63 -6.64 -6.63 -6.64 -6.63 -6.64 -6.63 -6.63 -6.64 -6.63 -6.64 -6.63 -6.64 -6.63 -6.64 -6.63 -6.64 -6.63 -6.64 -6.63 l 0.004,-6.63 v -6.64 -6.63 -6.64 -6.63 -6.64 -6.63 -6.64 -6.63 -6.64 l 0.004,-6.63 v -6.64 -6.63 -6.64 -6.63 l 0.004,-6.64 v -6.63 l 0.003,-6.63 v -6.64 -6.634 l 0.004,-6.636 0.004,-6.633 v -6.637 l 0.004,-6.633 0.004,-6.636 0.004,-6.633 0.004,-6.637 0.008,-6.633 0.004,-6.636 0.007,-6.633 0.004,-6.637 0.008,-6.633 0.012,-6.636 0.008,-6.633 0.011,-6.637 0.012,-6.633 0.016,-6.637 0.015,-6.632 0.016,-6.633 0.02,-6.637 0.019,-6.633 0.023,-6.636 0.028,-6.633 0.031,-6.637 0.031,-6.633 0.035,-6.636 0.04,-6.633 0.043,-6.637 0.05,-6.633 0.051,-6.637 0.063,-6.632 0.062,-6.637 0.074,-6.633 0.078,-6.637 0.09,-6.632 0.094,-6.637 0.105,-6.633 0.118,-6.633 0.129,-6.636 0.14,-6.633 0.156,-6.637 0.168,-6.633 0.184,-6.637 0.203,-6.632 0.223,-6.637 0.242,-6.633 0.262,-6.637 0.289,-6.632 0.312,-6.637 0.344,-6.633 0.371,-6.637 0.402,-6.632 0.438,-6.637 0.477,-6.633 0.515,-6.637 0.559,-6.633 0.605,-6.636 0.653,-6.633 0.703,-6.633 0.761,-6.637 0.821,-6.632 0.883,-6.637 0.949,-6.633 1.019,-6.637 1.094,-6.632 1.176,-6.637 1.254,-6.633 1.343,-6.637 1.438,-6.633 1.531,-6.636 1.633,-6.633 1.738,-6.637 1.852,-6.633 1.965,-6.636 2.082,-6.633 2.211,-6.633 2.336,-6.637 2.468,-6.632 2.61,-6.637 2.75,-6.633 2.898,-6.637 3.043,-6.633 3.203,-6.636 3.36,-6.633 3.519,-6.637 3.684,-6.633 3.851,-6.636 4.02,-6.633 4.195,-6.637 4.371,-6.633 4.547,-6.636 4.727,-6.633 4.847,-6.637 5.09,-6.633"
             style="fill:none;stroke:#0000ff;stroke-width:4.16667;stroke-linecap:butt;stroke-linejoin:miter;stroke-miterlimit:1;stroke-dasharray:none;stroke-opacity:1"
             id="path342" /><path
             d="m 500,3025.77 v 0 -417.98 l 0.004,-6.64 v -6.63 -6.64 -6.63 -6.64 -6.63 -6.64 -6.63 -6.64 -6.63 -6.64 -6.63 -6.63 -6.64 -6.63 -6.64 -6.63 -6.64 -6.63 -6.64 -6.63 -6.64 -6.63 -6.64 -6.63 -6.63 -6.64 -6.63 -6.64 -6.63 -6.64 -6.63 -6.64 -6.63 -6.64 -6.63 -6.64 -6.63 -6.63 -6.64 -6.63 -6.64 -6.63 -6.64 -6.63 -6.64 -6.63 -6.64 -6.63 -6.64 -6.63 -6.63 -6.64 -6.63 -6.64 -6.63 -6.64 -6.63 -6.64 -6.63 -6.64 -6.63 -6.64 -6.63 -6.63 -6.64 -6.63 -6.64 -6.63 -6.64 -6.63 -6.64 -6.63 -6.64 -6.63 -6.64 -6.63 -6.63 -6.64 -6.63 -6.64 -6.63 -6.64 -6.63 -6.64 -6.63 -6.64 -6.63 -6.64 -6.63 -6.63 -6.64 -6.63 -6.64 -6.63 -6.64 -6.63 -6.64 -6.63 -6.64 -6.63 -6.64 -6.63 -6.64 -6.63 -6.64 -6.63 -6.64 -6.63 -6.63 -6.64 -6.63 -6.64 -6.63 -6.64 -6.63 -6.64 -6.63 -6.64 -6.63 -6.64 -6.63 -6.64 -6.63 -6.64 -6.63 -6.63 -6.64 -6.63 l 0.004,-6.64 v -6.63 -6.64 -6.63 -6.64 -6.63 -6.64 -6.63 -6.64 -6.63 -6.64 -6.63 -6.64 -6.63 -6.63 -6.64 -6.63 -6.64 -6.63 -6.64 -6.63 -6.64 -6.63 -6.64 -6.63 -6.64 -6.63 -6.64 -6.63 -6.63 -6.64 -6.63 -6.64 -6.63 -6.64 -6.63 -6.64 -6.63 -6.64 -6.63 -6.64 -6.63 -6.63 -6.64 -6.63 -6.64 -6.63 -6.64 -6.63 -6.64 -6.63 -6.64 -6.63 -6.64 -6.63 -6.63 -6.64 -6.63 -6.64 -6.63 -6.64 -6.63 -6.64 -6.63 -6.64 -6.63 l 0.004,-6.64 v -6.63 -6.63 -6.64 -6.63 -6.64 -6.63 l 0.004,-6.64 v -6.63 -6.64 -6.63 l 0.004,-6.64 v -6.63 l 0.003,-6.64 v -6.63 l 0.004,-6.63 0.004,-6.64 v -6.63 l 0.004,-6.64 0.004,-6.63 0.008,-6.64 0.004,-6.63 0.008,-6.64 0.004,-6.63 0.011,-6.64 0.008,-6.63 0.008,-6.64 0.012,-6.63 0.015,-6.63 0.016,-6.64 0.015,-6.63 0.02,-6.64 0.02,-6.63 0.023,-6.64 0.027,-6.63 0.032,-6.64 0.035,-6.63 0.039,-6.64 0.043,-6.63 0.047,-6.64 0.054,-6.63 0.063,-6.64 0.066,-6.63 0.074,-6.64 0.086,-6.63 0.094,-6.63 0.102,-6.64 0.117,-6.634 0.129,-6.636 0.14,-6.633 0.161,-6.637 0.175,-6.633 0.192,-6.636 0.215,-6.633 0.238,-6.637 0.262,-6.633 0.289,-6.636 0.316,-6.633 0.348,-6.637 0.383,-6.633 0.421,-6.636 0.461,-6.633 0.504,-6.637 0.551,-6.633 0.602,-6.637 0.656,-6.632 0.719,-6.633 0.777,-6.637 0.848,-6.633 0.918,-6.636 0.996,-6.633 1.078,-6.637 1.164,-6.633 1.258,-6.636 1.355,-6.633 1.457,-6.637 1.57,-6.633 1.68,-6.637 1.805,-6.632 1.926,-6.637 2.062,-6.633 2.195,-6.637 2.34,-6.632 2.489,-6.637 2.64,-6.633 2.801,-6.633 2.965,-6.636 3.133,-6.633 3.3,-6.637 3.481,-6.633 3.664,-6.637 3.844,-6.632 4.031,-6.637 4.223,-6.633 4.418,-6.637 4.609,-6.632 4.805,-6.637 5.004,-6.633 5.203,-6.637 5.402,-6.632 5.539,-6.637 5.801,-6.633 6.004,-6.637 6.203,-6.633 6.398,-6.636 6.598,-6.633 6.789,-6.633 6.988,-6.637 7.176,-6.632 7.367,-6.637 7.555,-6.633 7.738,-6.637 7.922,-6.632 8.102,-6.637 8.281,-6.633 8.453,-6.637 8.621,-6.633 8.793,-6.636 8.957,-6.633 9.117,-6.637 9.278,-6.633 9.433,-6.636 9.586,-6.633 9.735,-6.633 9.882,-6.637 10.024,-6.632 10.168,-6.637 10.301,-6.633 10.441,-6.637 10.566,-6.633 10.7,-6.636 10.828,-6.633 10.949,-6.637 11.07,-6.633 11.188,-6.636 11.304,-6.633 11.418,-6.637 11.532,-6.633 11.64,-6.636 11.746,-6.633 11.848,-6.637 11.953,-6.633"
             style="fill:none;stroke:#ff0000;stroke-width:4.16667;stroke-linecap:butt;stroke-linejoin:miter;stroke-miterlimit:1;stroke-dasharray:none;stroke-opacity:1"
             id="path344" /><path
             d="m 500,3025.77 v 0 -417.98 l 0.004,-6.64 v -6.63 -6.64 -6.63 -6.64 -6.63 -6.64 -6.63 -6.64 -6.63 -6.64 -6.63 -6.63 -6.64 -6.63 -6.64 -6.63 -6.64 -6.63 -6.64 -6.63 -6.64 -6.63 -6.64 -6.63 -6.63 -6.64 -6.63 -6.64 -6.63 -6.64 -6.63 -6.64 -6.63 -6.64 -6.63 -6.64 -6.63 -6.63 -6.64 -6.63 -6.64 -6.63 -6.64 -6.63 -6.64 -6.63 -6.64 -6.63 -6.64 -6.63 -6.63 -6.64 -6.63 -6.64 -6.63 -6.64 -6.63 -6.64 -6.63 -6.64 -6.63 -6.64 -6.63 -6.63 -6.64 -6.63 -6.64 -6.63 -6.64 -6.63 -6.64 -6.63 -6.64 -6.63 -6.64 -6.63 -6.63 -6.64 -6.63 -6.64 -6.63 -6.64 -6.63 -6.64 -6.63 -6.64 -6.63 -6.64 -6.63 -6.63 -6.64 -6.63 -6.64 -6.63 -6.64 -6.63 -6.64 -6.63 -6.64 -6.63 -6.64 -6.63 -6.64 -6.63 -6.64 -6.63 -6.64 -6.63 -6.63 -6.64 -6.63 -6.64 -6.63 -6.64 -6.63 -6.64 -6.63 -6.64 -6.63 -6.64 -6.63 -6.64 -6.63 -6.64 -6.63 -6.63 -6.64 -6.63 l 0.004,-6.64 v -6.63 -6.64 -6.63 -6.64 -6.63 -6.64 -6.63 -6.64 -6.63 -6.64 -6.63 -6.64 -6.63 -6.63 -6.64 -6.63 -6.64 -6.63 -6.64 -6.63 -6.64 -6.63 -6.64 -6.63 -6.64 -6.63 -6.64 -6.63 -6.63 -6.64 -6.63 -6.64 -6.63 -6.64 -6.63 -6.64 l 0.004,-6.63 v -6.64 -6.63 -6.64 -6.63 l 0.004,-6.63 v -6.64 -6.63 l 0.004,-6.64 v -6.63 l 0.003,-6.64 0.004,-6.63 0.004,-6.64 0.004,-6.63 0.004,-6.64 0.004,-6.63 0.008,-6.64 0.008,-6.63 0.007,-6.63 0.008,-6.64 0.012,-6.63 0.012,-6.64 0.015,-6.63 0.016,-6.64 0.019,-6.63 0.024,-6.64 0.023,-6.63 0.028,-6.64 0.035,-6.63 0.035,-6.64 0.043,-6.63 0.047,-6.63 0.058,-6.64 0.059,-6.63 0.074,-6.64 0.078,-6.63 0.09,-6.64 0.102,-6.63 0.117,-6.64 0.129,-6.63 0.148,-6.64 0.164,-6.63 0.184,-6.64 0.207,-6.63 0.234,-6.63 0.258,-6.64 0.293,-6.63 0.324,-6.64 0.36,-6.63 0.398,-6.64 0.445,-6.63 0.497,-6.64 0.546,-6.63 0.602,-6.64 0.668,-6.63 0.734,-6.64 0.809,-6.63 0.887,-6.63 0.972,-6.64 1.063,-6.63 1.16,-6.64 1.266,-6.63 1.379,-6.64 1.496,-6.63 1.621,-6.64 1.758,-6.63 1.894,-6.64 2.039,-6.63 2.195,-6.64 2.36,-6.63 2.523,-6.64 2.696,-6.63 2.878,-6.64 3.063,-6.63 3.254,-6.63 3.453,-6.64 3.648,-6.634 3.856,-6.636 4.066,-6.633 4.274,-6.637 4.492,-6.633 4.707,-6.636 4.922,-6.633 5.144,-6.637 5.36,-6.633 5.582,-6.636 5.801,-6.633 6.015,-6.637 6.168,-6.633 6.449,-6.636 6.664,-6.633 6.875,-6.637 7.082,-6.633 7.29,-6.637 7.492,-6.632 7.687,-6.633 7.883,-6.637 8.078,-6.633 8.266,-6.636 8.449,-6.633 8.629,-6.637 8.805,-6.633 8.98,-6.636 9.148,-6.633 9.313,-6.637 9.477,-6.633 9.632,-6.637 9.786,-6.632 9.937,-6.637 10.082,-6.633 10.227,-6.637 10.363,-6.632 10.5,-6.637 10.637,-6.633 10.765,-6.633 10.891,-6.636 11.012,-6.633 11.136,-6.637 11.254,-6.633 11.367,-6.637 11.485,-6.632 11.59,-6.637 11.699,-6.633 11.805,-6.637 11.91,-6.632 12.007,-6.637 12.106,-6.633 12.207,-6.637 12.292,-6.632 12.4,-6.637 12.48,-6.633 12.57,-6.637 12.66,-6.633 12.75,-6.636 12.83,-6.633 12.91,-6.633 12.99,-6.637 13.08,-6.632 13.15,-6.637 13.23,-6.633 13.31,-6.637 13.38,-6.632 13.45,-6.637 13.53,-6.633 13.6,-6.637 13.67,-6.633 13.73,-6.636 13.81,-6.633 13.87,-6.637 13.94,-6.633 14.01,-6.636 14.07,-6.633 14.14,-6.633 14.19,-6.637 14.26,-6.632 14.32,-6.637 14.39,-6.633 14.44,-6.637 14.5,-6.633 14.56,-6.636 14.62,-6.633 14.67,-6.637 14.74,-6.633 14.79,-6.636 14.84,-6.633 14.9,-6.637 14.95,-6.633 15.01,-6.636 15.06,-6.633 15.12,-6.637 15.16,-6.633"
             style="fill:none;stroke:#00afaf;stroke-width:4.16667;stroke-linecap:butt;stroke-linejoin:miter;stroke-miterlimit:1;stroke-dasharray:none;stroke-opacity:1"
             id="path346" /><path
             d="m 500,3025.77 v 0 -417.98 l 0.004,-6.64 v -6.63 -6.64 -6.63 -6.64 -6.63 -6.64 -6.63 -6.64 -6.63 -6.64 -6.63 -6.63 -6.64 -6.63 -6.64 -6.63 -6.64 -6.63 -6.64 -6.63 -6.64 -6.63 -6.64 -6.63 -6.63 -6.64 -6.63 -6.64 -6.63 -6.64 -6.63 -6.64 -6.63 -6.64 -6.63 -6.64 -6.63 -6.63 -6.64 -6.63 -6.64 -6.63 -6.64 -6.63 -6.64 -6.63 -6.64 -6.63 -6.64 -6.63 -6.63 -6.64 -6.63 -6.64 -6.63 -6.64 -6.63 -6.64 -6.63 -6.64 -6.63 -6.64 -6.63 -6.63 -6.64 -6.63 -6.64 -6.63 -6.64 -6.63 -6.64 -6.63 -6.64 -6.63 -6.64 -6.63 -6.63 -6.64 -6.63 -6.64 -6.63 -6.64 -6.63 -6.64 -6.63 -6.64 -6.63 -6.64 -6.63 -6.63 -6.64 -6.63 -6.64 -6.63 -6.64 -6.63 -6.64 -6.63 -6.64 -6.63 -6.64 -6.63 -6.64 -6.63 -6.64 -6.63 -6.64 -6.63 -6.63 -6.64 -6.63 -6.64 -6.63 -6.64 -6.63 -6.64 -6.63 -6.64 -6.63 -6.64 -6.63 l 0.004,-6.64 v -6.63 -6.64 -6.63 -6.63 -6.64 -6.63 -6.64 -6.63 -6.64 -6.63 -6.64 -6.63 l 0.004,-6.64 v -6.63 -6.64 -6.63 l 0.004,-6.64 v -6.63 l 0.004,-6.64 v -6.63 l 0.003,-6.63 0.004,-6.64 0.004,-6.63 0.008,-6.64 0.004,-6.63 0.008,-6.64 0.008,-6.63 0.011,-6.64 0.012,-6.63 0.012,-6.64 0.019,-6.63 0.02,-6.64 0.019,-6.63 0.028,-6.64 0.031,-6.63 0.035,-6.63 0.043,-6.64 0.051,-6.63 0.055,-6.64 0.066,-6.63 0.074,-6.64 0.09,-6.63 0.102,-6.64 0.113,-6.63 0.137,-6.64 0.152,-6.63 0.176,-6.64 0.199,-6.63 0.23,-6.63 0.258,-6.64 0.297,-6.63 0.336,-6.64 0.379,-6.63 0.43,-6.64 0.484,-6.63 0.543,-6.64 0.613,-6.63 0.684,-6.64 0.765,-6.63 0.856,-6.64 0.949,-6.63 1.055,-6.63 1.168,-6.64 1.289,-6.63 1.418,-6.64 1.558,-6.63 1.711,-6.64 1.864,-6.63 2.035,-6.64 2.211,-6.63 2.394,-6.64 2.59,-6.63 2.789,-6.64 3,-6.63 3.215,-6.63 3.434,-6.64 3.664,-6.63 3.894,-6.64 4.129,-6.63 4.371,-6.64 4.61,-6.63 4.851,-6.64 5.098,-6.63 5.34,-6.64 5.586,-6.63 5.824,-6.64 6.066,-6.63 6.305,-6.63 6.539,-6.64 6.769,-6.63 6.934,-6.64 7.223,-6.63 7.445,-6.64 7.656,-6.63 7.871,-6.64 8.071,-6.63 8.273,-6.64 8.469,-6.63 8.66,-6.64 8.844,-6.63 9.027,-6.63 9.199,-6.64 9.371,-6.63 9.536,-6.64 9.695,-6.63 9.855,-6.64 10.004,-6.63 10.157,-6.64 10.296,-6.63 10.438,-6.64 10.574,-6.63 10.707,-6.64 10.836,-6.63 10.961,-6.64 11.082,-6.63 11.199,-6.64 11.321,-6.63 11.429,-6.63 11.543,-6.64 11.649,-6.634 11.754,-6.636 11.855,-6.633 11.957,-6.637 12.059,-6.633 12.148,-6.636 12.246,-6.633 12.34,-6.637 12.426,-6.633 12.515,-6.636 12.61,-6.633 12.68,-6.637 12.77,-6.633 12.85,-6.636 12.94,-6.633 13.01,-6.637 13.09,-6.633 13.17,-6.637 13.24,-6.632 13.31,-6.633 13.39,-6.637 13.46,-6.633 13.53,-6.636 13.6,-6.633 13.67,-6.637 13.73,-6.633 13.8,-6.636 13.87,-6.633 13.93,-6.637 14,-6.633 14.06,-6.637 14.13,-6.632 14.18,-6.637 14.25,-6.633 14.3,-6.637 14.36,-6.632 14.43,-6.637 14.48,-6.633 14.54,-6.633 14.6,-6.636 14.65,-6.633 14.71,-6.637 14.77,-6.633 14.82,-6.637 14.88,-6.632 14.92,-6.637 14.98,-6.633 15.04,-6.637 15.08,-6.632 15.14,-6.637 15.19,-6.633 15.24,-6.637 15.29,-6.632 15.35,-6.637 15.39,-6.633 15.43,-6.637 15.49,-6.633 15.54,-6.636 15.59,-6.633 15.63,-6.633 15.68,-6.637 15.73,-6.632 15.77,-6.637 15.82,-6.633 15.87,-6.637 15.91,-6.632 15.96,-6.637 16,-6.633 16.05,-6.637 16.09,-6.633 16.13,-6.636 16.18,-6.633 16.22,-6.637 16.27,-6.633 16.31,-6.636 16.35,-6.633 16.4,-6.633 16.43,-6.637 16.48,-6.632 16.52,-6.637 16.56,-6.633 16.6,-6.637 16.65,-6.633 16.68,-6.636 16.72,-6.633 16.77,-6.637 16.8,-6.633 16.85,-6.636 16.88,-6.633 16.92,-6.637 16.97,-6.633 17,-6.636 17.04,-6.633 17.07,-6.637 17.12,-6.633"
             style="fill:none;stroke:#ff00ff;stroke-width:4.16667;stroke-linecap:butt;stroke-linejoin:miter;stroke-miterlimit:1;stroke-dasharray:none;stroke-opacity:1"
             id="path348" /><path
             d="m 500,3025.77 v 0 -417.98 l 0.004,-6.64 v -6.63 -6.64 -6.63 -6.64 -6.63 -6.64 -6.63 -6.64 -6.63 -6.64 -6.63 -6.63 -6.64 -6.63 -6.64 -6.63 -6.64 -6.63 -6.64 -6.63 -6.64 -6.63 -6.64 -6.63 -6.63 -6.64 -6.63 -6.64 -6.63 -6.64 -6.63 -6.64 -6.63 -6.64 -6.63 -6.64 -6.63 -6.63 -6.64 -6.63 -6.64 -6.63 -6.64 -6.63 -6.64 -6.63 -6.64 -6.63 -6.64 -6.63 -6.63 -6.64 -6.63 -6.64 -6.63 -6.64 -6.63 -6.64 -6.63 -6.64 -6.63 -6.64 -6.63 -6.63 -6.64 -6.63 -6.64 -6.63 -6.64 -6.63 -6.64 -6.63 -6.64 -6.63 -6.64 -6.63 -6.63 -6.64 -6.63 -6.64 -6.63 -6.64 -6.63 -6.64 -6.63 -6.64 -6.63 -6.64 -6.63 -6.63 -6.64 -6.63 -6.64 -6.63 -6.64 -6.63 l 0.004,-6.64 v -6.63 -6.64 -6.63 -6.64 -6.63 -6.64 l 0.004,-6.63 v -6.64 -6.63 l 0.004,-6.64 0.004,-6.63 0.003,-6.63 0.004,-6.64 0.004,-6.63 0.008,-6.64 0.004,-6.63 0.012,-6.64 0.011,-6.63 0.012,-6.64 0.02,-6.63 0.019,-6.64 0.024,-6.63 0.027,-6.64 0.035,-6.63 0.043,-6.64 0.051,-6.63 0.058,-6.64 0.075,-6.63 0.086,-6.63 0.097,-6.64 0.121,-6.63 0.141,-6.64 0.164,-6.63 0.195,-6.64 0.227,-6.63 0.266,-6.64 0.308,-6.63 0.356,-6.64 0.414,-6.63 0.48,-6.64 0.547,-6.63 0.633,-6.64 0.719,-6.63 0.824,-6.64 0.93,-6.63 1.058,-6.63 1.188,-6.64 1.336,-6.63 1.496,-6.64 1.668,-6.63 1.851,-6.64 2.047,-6.63 2.254,-6.64 2.477,-6.63 2.703,-6.64 2.945,-6.63 3.195,-6.64 3.449,-6.63 3.711,-6.64 3.981,-6.63 4.254,-6.63 4.527,-6.64 4.805,-6.63 5.082,-6.64 5.355,-6.63 5.625,-6.64 5.903,-6.63 6.164,-6.64 6.429,-6.63 6.684,-6.64 6.938,-6.63 7.183,-6.64 7.356,-6.63 7.656,-6.63 7.883,-6.64 8.101,-6.63 8.313,-6.64 8.519,-6.63 8.719,-6.64 8.91,-6.63 9.094,-6.64 9.273,-6.63 9.45,-6.64 9.617,-6.63 9.777,-6.64 9.938,-6.63 10.086,-6.63 10.234,-6.64 10.375,-6.63 10.516,-6.64 10.648,-6.63 10.777,-6.64 10.903,-6.63 11.023,-6.64 11.145,-6.63 11.261,-6.64 11.371,-6.63 11.481,-6.64 11.59,-6.63 11.691,-6.63 11.793,-6.64 11.895,-6.63 11.988,-6.64 12.082,-6.63 12.18,-6.64 12.265,-6.63 12.356,-6.64 12.445,-6.63 12.527,-6.64 12.616,-6.63 12.69,-6.64 12.78,-6.63 12.85,-6.63 12.93,-6.64 13.01,-6.63 13.09,-6.64 13.15,-6.63 13.24,-6.64 13.3,-6.63 13.37,-6.64 13.45,-6.63 13.51,-6.64 13.58,-6.63 13.65,-6.64 13.71,-6.63 13.78,-6.63 13.84,-6.64 13.91,-6.63 13.97,-6.64 14.03,-6.63 14.1,-6.64 14.15,-6.63 14.22,-6.64 14.27,-6.63 14.33,-6.64 14.39,-6.63 14.45,-6.64 14.51,-6.63 14.56,-6.64 14.62,-6.63 14.67,-6.64 14.73,-6.63 14.78,-6.63 14.84,-6.64 14.89,-6.634 14.94,-6.636 15,-6.633 15.04,-6.637 15.11,-6.633 15.14,-6.636 15.21,-6.633 15.25,-6.637 15.3,-6.633 15.35,-6.636 15.4,-6.633 15.44,-6.637 15.5,-6.633 15.55,-6.636 15.59,-6.633 15.64,-6.637 15.68,-6.633 15.74,-6.637 15.78,-6.632 15.82,-6.633 15.87,-6.637 15.92,-6.633 15.96,-6.636 16,-6.633 16.05,-6.637 16.1,-6.633 16.14,-6.636 16.18,-6.633 16.23,-6.637 16.26,-6.633 16.31,-6.637 16.36,-6.632 16.39,-6.637 16.44,-6.633 16.48,-6.637 16.52,-6.632 16.56,-6.637 16.6,-6.633 16.65,-6.633 16.68,-6.636 16.73,-6.633 16.76,-6.637 16.81,-6.633 16.84,-6.637 16.88,-6.632 16.93,-6.637 16.96,-6.633 17,-6.637 17.04,-6.632 17.07,-6.637 17.12,-6.633 17.15,-6.637 17.19,-6.632 17.23,-6.637 17.27,-6.633 17.3,-6.637 17.34,-6.633 17.38,-6.636 17.41,-6.633 17.45,-6.633 17.49,-6.637 17.52,-6.632 17.56,-6.637 17.59,-6.633 17.63,-6.637 17.67,-6.632 17.7,-6.637 17.73,-6.633 17.77,-6.637 17.81,-6.633 17.84,-6.636 17.87,-6.633 17.91,-6.637 17.94,-6.633 17.98,-6.636 18.01,-6.633 18.04,-6.633 18.08,-6.637 18.11,-6.632 18.15,-6.637 18.17,-6.633 18.21,-6.637 18.25,-6.633 18.27,-6.636 18.31,-6.633 18.34,-6.637 18.37,-6.633 18.41,-6.636 18.44,-6.633 18.47,-6.637 18.5,-6.633 18.53,-6.636 18.56,-6.633 18.6,-6.637 18.63,-6.633"
             style="fill:none;stroke:#808080;stroke-width:4.16667;stroke-linecap:butt;stroke-linejoin:miter;stroke-miterlimit:1;stroke-dasharray:none;stroke-opacity:1"
             id="path350" /><path
             d="m 500,3025.77 v 0 -417.98 l 0.004,-6.64 v -6.63 -6.64 -6.63 -6.64 -6.63 -6.64 -6.63 -6.64 -6.63 -6.64 -6.63 -6.63 -6.64 -6.63 -6.64 -6.63 -6.64 -6.63 -6.64 -6.63 -6.64 -6.63 -6.64 -6.63 -6.63 -6.64 -6.63 -6.64 -6.63 -6.64 -6.63 -6.64 -6.63 -6.64 -6.63 -6.64 -6.63 -6.63 -6.64 -6.63 -6.64 -6.63 -6.64 -6.63 -6.64 -6.63 -6.64 -6.63 -6.64 -6.63 -6.63 -6.64 -6.63 -6.64 -6.63 -6.64 -6.63 -6.64 -6.63 -6.64 -6.63 -6.64 -6.63 -6.63 -6.64 -6.63 -6.64 l 0.004,-6.63 v -6.64 -6.63 -6.64 l 0.004,-6.63 v -6.64 l 0.004,-6.63 0.004,-6.64 0.007,-6.63 0.004,-6.63 0.008,-6.64 0.012,-6.63 0.015,-6.64 0.016,-6.63 0.023,-6.64 0.028,-6.63 0.035,-6.64 0.043,-6.63 0.055,-6.64 0.066,-6.63 0.082,-6.64 0.106,-6.63 0.125,-6.63 0.156,-6.64 0.191,-6.63 0.231,-6.64 0.277,-6.63 0.336,-6.64 0.402,-6.63 0.481,-6.64 0.57,-6.63 0.676,-6.64 0.793,-6.63 0.93,-6.64 1.078,-6.63 1.25,-6.64 1.437,-6.63 1.641,-6.64 1.863,-6.63 2.106,-6.64 2.363,-6.63 2.633,-6.63 2.921,-6.64 3.215,-6.63 3.524,-6.64 3.84,-6.63 4.156,-6.64 4.476,-6.63 4.797,-6.64 5.117,-6.63 5.434,-6.64 5.746,-6.63 6.051,-6.64 6.348,-6.63 6.632,-6.64 6.914,-6.63 7.188,-6.64 7.441,-6.63 7.696,-6.63 7.879,-6.64 8.171,-6.63 8.391,-6.64 8.606,-6.63 8.808,-6.64 9,-6.63 9.192,-6.64 9.367,-6.63 9.539,-6.64 9.707,-6.63 9.867,-6.64 10.016,-6.63 10.168,-6.64 10.308,-6.63 10.446,-6.64 10.578,-6.63 10.707,-6.63 10.828,-6.64 10.953,-6.63 11.066,-6.64 11.184,-6.63 11.293,-6.64 11.398,-6.63 11.504,-6.64 11.61,-6.63 11.703,-6.64 11.804,-6.63 11.899,-6.64 11.992,-6.63 12.082,-6.64 12.172,-6.63 12.258,-6.63 12.344,-6.64 12.429,-6.63 12.512,-6.64 12.59,-6.63 12.674,-6.64 12.75,-6.63 12.83,-6.64 12.9,-6.63 12.98,-6.64 13.05,-6.63 13.12,-6.64 13.2,-6.63 13.27,-6.63 13.33,-6.64 13.4,-6.63 13.48,-6.64 13.54,-6.63 13.6,-6.64 13.67,-6.63 13.74,-6.64 13.79,-6.63 13.87,-6.64 13.92,-6.63 13.99,-6.64 14.04,-6.63 14.11,-6.63 14.16,-6.64 14.23,-6.63 14.29,-6.64 14.34,-6.63 14.4,-6.64 14.45,-6.63 14.52,-6.64 14.57,-6.63 14.62,-6.64 14.68,-6.63 14.73,-6.64 14.79,-6.63 14.84,-6.63 14.89,-6.64 14.95,-6.63 14.99,-6.64 15.05,-6.63 15.1,-6.64 15.15,-6.63 15.2,-6.64 15.26,-6.63 15.3,-6.64 15.35,-6.63 15.4,-6.64 15.44,-6.63 15.5,-6.63 15.54,-6.64 15.6,-6.63 15.63,-6.64 15.69,-6.63 15.73,-6.64 15.77,-6.63 15.83,-6.64 15.87,-6.63 15.91,-6.64 15.96,-6.63 16,-6.64 16.05,-6.63 16.09,-6.63 16.14,-6.64 16.18,-6.63 16.22,-6.64 16.27,-6.63 16.3,-6.64 16.36,-6.63 16.39,-6.64 16.43,-6.63 16.48,-6.64 16.52,-6.63 16.55,-6.64 16.61,-6.63 16.64,-6.64 16.68,-6.63 16.72,-6.64 16.76,-6.63 16.8,-6.63 16.84,-6.64 16.88,-6.634 16.92,-6.636 16.96,-6.633 17,-6.637 17.03,-6.633 17.07,-6.636 17.12,-6.633 17.15,-6.637 17.19,-6.633 17.22,-6.636 17.26,-6.633 17.3,-6.637 17.34,-6.633 17.37,-6.636 17.41,-6.633 17.45,-6.637 17.48,-6.633 17.52,-6.637 17.56,-6.632 17.59,-6.633 17.63,-6.637 17.66,-6.633 17.7,-6.636 17.73,-6.633 17.77,-6.637 17.8,-6.633 17.84,-6.636 17.87,-6.633 17.9,-6.637 17.94,-6.633 17.97,-6.637 18.01,-6.632 18.05,-6.637 18.07,-6.633 18.11,-6.637 18.14,-6.632 18.18,-6.637 18.2,-6.633 18.24,-6.633 18.27,-6.636 18.31,-6.633 18.34,-6.637 18.37,-6.633 18.4,-6.637 18.44,-6.632 18.46,-6.637 18.5,-6.633 18.54,-6.637 18.55,-6.632 18.6,-6.637 18.62,-6.633 18.66,-6.637 18.69,-6.632 18.72,-6.637 18.74,-6.633 18.78,-6.637 18.81,-6.633 18.84,-6.636 18.87,-6.633 18.9,-6.633 18.93,-6.637 18.97,-6.632 18.99,-6.637 19.02,-6.633 19.05,-6.637 19.08,-6.632 19.11,-6.637 19.14,-6.633 19.16,-6.637 19.2,-6.633 19.23,-6.636 19.25,-6.633 19.29,-6.637 19.31,-6.633 19.34,-6.636 19.37,-6.633 19.4,-6.633 19.43,-6.637 19.45,-6.632 19.49,-6.637 19.51,-6.633 19.54,-6.637 19.57,-6.633 19.59,-6.636 19.63,-6.633 19.65,-6.637 19.68,-6.633 19.7,-6.636 19.73,-6.633 19.76,-6.637 19.79,-6.633 19.82,-6.636 19.84,-6.633 19.86,-6.637 19.9,-6.633"
             style="fill:none;stroke:#038000;stroke-width:4.16667;stroke-linecap:butt;stroke-linejoin:miter;stroke-miterlimit:1;stroke-dasharray:none;stroke-opacity:1"
             id="path352" /><path
             d="m 500,3025.77 v 0 -417.98 l 0.004,-6.64 v -6.63 -6.64 -6.63 -6.64 -6.63 -6.64 -6.63 -6.64 -6.63 -6.64 -6.63 -6.63 -6.64 -6.63 -6.64 -6.63 -6.64 -6.63 -6.64 -6.63 -6.64 -6.63 -6.64 -6.63 -6.63 -6.64 -6.63 -6.64 -6.63 -6.64 -6.63 -6.64 -6.63 -6.64 -6.63 l 0.004,-6.64 v -6.63 -6.63 l 0.004,-6.64 0.004,-6.63 0.004,-6.64 0.007,-6.63 0.012,-6.64 0.016,-6.63 0.019,-6.64 0.028,-6.63 0.035,-6.64 0.051,-6.63 0.062,-6.64 0.086,-6.63 0.113,-6.63 0.149,-6.64 0.195,-6.63 0.25,-6.64 0.316,-6.63 0.407,-6.64 0.507,-6.63 0.637,-6.64 0.785,-6.63 0.965,-6.64 1.168,-6.63 1.402,-6.64 1.665,-6.63 1.957,-6.63 2.277,-6.64 2.613,-6.63 2.973,-6.64 3.348,-6.63 3.73,-6.64 4.117,-6.63 4.508,-6.64 4.895,-6.63 5.269,-6.64 5.637,-6.63 5.988,-6.64 6.328,-6.63 6.656,-6.63 6.961,-6.64 7.254,-6.63 7.532,-6.64 7.792,-6.63 8.043,-6.64 8.278,-6.63 8.457,-6.64 8.715,-6.63 8.914,-6.64 9.105,-6.63 9.281,-6.64 9.457,-6.63 9.618,-6.63 9.777,-6.64 9.926,-6.63 10.074,-6.64 10.207,-6.63 10.348,-6.64 10.472,-6.63 10.602,-6.64 10.719,-6.63 10.84,-6.64 10.949,-6.63 11.062,-6.64 11.172,-6.63 11.277,-6.64 11.379,-6.63 11.477,-6.64 11.578,-6.63 11.672,-6.64 11.766,-6.63 11.859,-6.63 11.945,-6.64 12.035,-6.63 12.125,-6.64 12.207,-6.63 12.293,-6.64 12.371,-6.63 12.458,-6.64 12.535,-6.63 12.609,-6.64 12.688,-6.63 12.77,-6.64 12.84,-6.63 12.92,-6.64 12.99,-6.63 13.05,-6.64 13.14,-6.63 13.2,-6.63 13.27,-6.64 13.34,-6.63 13.4,-6.64 13.47,-6.63 13.54,-6.64 13.61,-6.63 13.67,-6.64 13.73,-6.63 13.8,-6.64 13.85,-6.63 13.93,-6.64 13.98,-6.63 14.04,-6.64 14.1,-6.63 14.16,-6.64 14.22,-6.63 14.28,-6.63 14.34,-6.64 14.39,-6.63 14.45,-6.64 14.51,-6.63 14.56,-6.64 14.61,-6.63 14.68,-6.64 14.72,-6.63 14.78,-6.64 14.84,-6.63 14.88,-6.64 14.94,-6.63 14.99,-6.64 15.04,-6.63 15.09,-6.63 15.15,-6.64 15.19,-6.63 15.24,-6.64 15.3,-6.63 15.34,-6.64 15.39,-6.63 15.44,-6.64 15.49,-6.63 15.53,-6.64 15.59,-6.63 15.63,-6.64 15.68,-6.63 15.72,-6.63 15.77,-6.64 15.82,-6.63 15.86,-6.64 15.9,-6.63 15.96,-6.64 15.99,-6.63 16.05,-6.64 16.08,-6.63 16.13,-6.64 16.17,-6.63 16.22,-6.64 16.26,-6.63 16.3,-6.63 16.34,-6.64 16.39,-6.63 16.43,-6.64 16.47,-6.63 16.51,-6.64 16.55,-6.63 16.6,-6.64 16.63,-6.63 16.68,-6.64 16.71,-6.63 16.76,-6.64 16.79,-6.63 16.84,-6.63 16.87,-6.64 16.92,-6.63 16.95,-6.64 16.99,-6.63 17.03,-6.64 17.07,-6.63 17.11,-6.64 17.15,-6.63 17.18,-6.64 17.22,-6.63 17.26,-6.64 17.29,-6.63 17.33,-6.63 17.38,-6.64 17.4,-6.63 17.44,-6.64 17.48,-6.63 17.52,-6.64 17.55,-6.63 17.59,-6.64 17.62,-6.63 17.65,-6.64 17.7,-6.63 17.72,-6.64 17.77,-6.63 17.8,-6.63 17.83,-6.64 17.87,-6.63 17.9,-6.64 17.94,-6.63 17.97,-6.64 18,-6.63 18.04,-6.64 18.07,-6.63 18.11,-6.64 18.13,-6.63 18.18,-6.64 18.2,-6.63 18.24,-6.64 18.27,-6.63 18.3,-6.64 18.34,-6.63 18.37,-6.63 18.39,-6.64 18.44,-6.634 18.46,-6.636 18.5,-6.633 18.53,-6.637 18.55,-6.633 18.59,-6.636 18.63,-6.633 18.65,-6.637 18.68,-6.633 18.72,-6.636 18.75,-6.633 18.77,-6.637 18.81,-6.633 18.84,-6.636 18.86,-6.633 18.9,-6.637 18.93,-6.633 18.96,-6.637 18.99,-6.632 19.02,-6.633 19.05,-6.637 19.08,-6.633 19.11,-6.636 19.13,-6.633 19.17,-6.637 19.19,-6.633 19.23,-6.636 19.25,-6.633 19.28,-6.637 19.32,-6.633 19.34,-6.637 19.36,-6.632 19.4,-6.637 19.43,-6.633 19.45,-6.637 19.48,-6.632 19.51,-6.637 19.54,-6.633 19.56,-6.633 19.6,-6.636 19.62,-6.633 19.65,-6.637 19.68,-6.633 19.7,-6.637 19.73,-6.632 19.76,-6.637 19.79,-6.633 19.81,-6.637 19.84,-6.632 19.87,-6.637 19.89,-6.633 19.92,-6.637 19.95,-6.632 19.97,-6.637 20.01,-6.633 20.02,-6.637 20.05,-6.633 20.09,-6.636 20.1,-6.633 20.13,-6.633 20.16,-6.637 20.18,-6.632 20.21,-6.637 20.24,-6.633 20.26,-6.637 20.29,-6.632 20.31,-6.637 20.34,-6.633 20.36,-6.637 20.39,-6.633 20.41,-6.636 20.44,-6.633 20.47,-6.637 20.49,-6.633 20.51,-6.636 20.54,-6.633 20.56,-6.633 20.59,-6.637 20.62,-6.632 20.63,-6.637 20.67,-6.633 20.69,-6.637 20.71,-6.633 20.73,-6.636 20.76,-6.633 20.79,-6.637 20.81,-6.633 20.83,-6.636 20.86,-6.633 20.88,-6.637 20.9,-6.633 20.93,-6.636 20.95,-6.633 20.98,-6.637 21,-6.633"
             style="fill:none;stroke:#0000b1;stroke-width:4.16667;stroke-linecap:butt;stroke-linejoin:miter;stroke-miterlimit:1;stroke-dasharray:none;stroke-opacity:1"
             id="path354" /><path
             d="m 500,3025.77 v 0 -398.08 l 0.004,-6.63 v -6.64 -6.63 -6.64 -6.63 -6.64 l 0.004,-6.63 v -6.64 l 0.008,-6.63 0.004,-6.64 0.015,-6.63 0.02,-6.64 0.031,-6.63 0.047,-6.64 0.07,-6.63 0.11,-6.63 0.16,-6.64 0.234,-6.63 0.336,-6.64 0.473,-6.63 0.648,-6.64 0.879,-6.63 1.156,-6.64 1.496,-6.63 1.887,-6.64 2.32,-6.63 2.793,-6.64 3.285,-6.63 3.786,-6.63 4.281,-6.64 4.766,-6.63 5.226,-6.64 5.66,-6.63 6.063,-6.64 6.437,-6.63 6.785,-6.64 7.102,-6.63 7.398,-6.64 7.668,-6.63 7.922,-6.64 8.156,-6.63 8.379,-6.63 8.559,-6.64 8.781,-6.63 8.961,-6.64 9.137,-6.63 9.301,-6.64 9.457,-6.63 9.609,-6.64 9.754,-6.63 9.895,-6.64 10.027,-6.63 10.16,-6.64 10.285,-6.63 10.406,-6.63 10.528,-6.64 10.64,-6.63 10.754,-6.64 10.867,-6.63 10.973,-6.64 11.074,-6.63 11.18,-6.64 11.281,-6.63 11.379,-6.64 11.477,-6.63 11.57,-6.64 11.664,-6.63 11.754,-6.63 11.844,-6.64 11.933,-6.63 12.02,-6.64 12.105,-6.63 12.188,-6.64 12.273,-6.63 12.352,-6.64 12.433,-6.63 12.512,-6.64 12.59,-6.63 12.668,-6.64 12.74,-6.63 12.82,-6.63 12.89,-6.64 12.96,-6.63 13.04,-6.64 13.11,-6.63 13.17,-6.64 13.25,-6.63 13.32,-6.64 13.38,-6.63 13.45,-6.64 13.52,-6.63 13.58,-6.64 13.65,-6.63 13.71,-6.63 13.77,-6.64 13.84,-6.63 13.9,-6.64 13.96,-6.63 14.02,-6.64 14.08,-6.63 14.14,-6.64 14.2,-6.63 14.26,-6.64 14.32,-6.63 14.38,-6.64 14.43,-6.63 14.49,-6.64 14.54,-6.63 14.6,-6.64 14.65,-6.63 14.71,-6.64 14.76,-6.63 14.82,-6.63 14.87,-6.64 14.92,-6.63 14.98,-6.64 15.03,-6.63 15.08,-6.64 15.12,-6.63 15.18,-6.64 15.24,-6.63 15.28,-6.64 15.32,-6.63 15.38,-6.64 15.43,-6.63 15.48,-6.64 15.52,-6.63 15.57,-6.64 15.62,-6.63 15.67,-6.63 15.71,-6.64 15.76,-6.63 15.81,-6.64 15.85,-6.63 15.9,-6.64 15.94,-6.63 15.99,-6.64 16.03,-6.63 16.07,-6.64 16.12,-6.63 16.17,-6.64 16.2,-6.63 16.25,-6.64 16.3,-6.63 16.33,-6.64 16.38,-6.63 16.42,-6.63 16.46,-6.64 16.51,-6.63 16.54,-6.64 16.59,-6.63 16.63,-6.64 16.67,-6.63 16.7,-6.64 16.75,-6.63 16.79,-6.64 16.84,-6.63 16.86,-6.64 16.91,-6.63 16.95,-6.64 16.99,-6.63 17.02,-6.63 17.06,-6.64 17.1,-6.63 17.14,-6.64 17.18,-6.63 17.22,-6.64 17.25,-6.63 17.29,-6.64 17.33,-6.63 17.36,-6.64 17.41,-6.63 17.43,-6.64 17.48,-6.63 17.51,-6.63 17.55,-6.64 17.58,-6.63 17.62,-6.64 17.65,-6.63 17.69,-6.64 17.73,-6.63 17.76,-6.64 17.79,-6.63 17.83,-6.64 17.87,-6.63 17.9,-6.64 17.93,-6.63 17.96,-6.63 18,-6.64 18.04,-6.63 18.07,-6.64 18.1,-6.63 18.14,-6.64 18.17,-6.63 18.2,-6.64 18.23,-6.63 18.27,-6.64 18.3,-6.63 18.34,-6.64 18.36,-6.63 18.4,-6.63 18.43,-6.64 18.46,-6.63 18.49,-6.64 18.53,-6.63 18.56,-6.64 18.59,-6.63 18.62,-6.64 18.65,-6.63 18.68,-6.64 18.71,-6.63 18.75,-6.64 18.77,-6.63 18.81,-6.63 18.83,-6.64 18.87,-6.63 18.9,-6.64 18.93,-6.63 18.96,-6.64 18.98,-6.63 19.02,-6.64 19.05,-6.63 19.08,-6.64 19.1,-6.63 19.14,-6.64 19.16,-6.63 19.2,-6.63 19.22,-6.64 19.25,-6.63 19.29,-6.64 19.3,-6.63 19.34,-6.64 19.37,-6.63 19.4,-6.64 19.42,-6.63 19.45,-6.64 19.49,-6.63 19.51,-6.64 19.53,-6.63 19.57,-6.64 19.59,-6.63 19.62,-6.64 19.65,-6.63 19.68,-6.63 19.7,-6.64 19.73,-6.634 19.76,-6.636 19.78,-6.633 19.82,-6.637 19.84,-6.633 19.86,-6.636 19.9,-6.633 19.92,-6.637 19.95,-6.633 19.97,-6.636 20,-6.633 20.03,-6.637 20.05,-6.633 20.08,-6.636 20.1,-6.633 20.14,-6.637 20.15,-6.633 20.19,-6.637 20.21,-6.632 20.23,-6.633 20.26,-6.637 20.29,-6.633 20.31,-6.636 20.34,-6.633 20.36,-6.637 20.39,-6.633 20.41,-6.636 20.45,-6.633 20.46,-6.637 20.49,-6.633 20.51,-6.637 20.54,-6.632 20.57,-6.637 20.59,-6.633 20.61,-6.637 20.64,-6.632 20.66,-6.637 20.69,-6.633 20.71,-6.633 20.74,-6.636 20.75,-6.633 20.79,-6.637 20.81,-6.633 20.83,-6.637 20.86,-6.632 20.88,-6.637 20.91,-6.633 20.92,-6.637 20.96,-6.632 20.97,-6.637 21,-6.633 21.03,-6.637 21.05,-6.632 21.07,-6.637 21.09,-6.633 21.12,-6.637 21.14,-6.633 21.16,-6.636 21.19,-6.633 21.21,-6.633 21.23,-6.637 21.26,-6.632 21.28,-6.637 21.3,-6.633 21.32,-6.637 21.36,-6.632 21.37,-6.637 21.39,-6.633 21.42,-6.637 21.43,-6.633 21.46,-6.636 21.49,-6.633 21.5,-6.637 21.53,-6.633 21.55,-6.636 21.57,-6.633 21.6,-6.633 21.62,-6.637 21.63,-6.632 21.67,-6.637 21.68,-6.633 21.7,-6.637 21.73,-6.633 21.74,-6.636 21.77,-6.633 21.8,-6.637 21.81,-6.633 21.84,-6.636 21.85,-6.633 21.88,-6.637 21.9,-6.633 21.92,-6.636 21.94,-6.633 21.96,-6.637 21.99,-6.633"
             style="fill:none;stroke:#af8000;stroke-width:4.16667;stroke-linecap:butt;stroke-linejoin:miter;stroke-miterlimit:1;stroke-dasharray:none;stroke-opacity:1"
             id="path356" /><path
             d="m 500,3025.77 v 0 -192.4 l 0.004,-6.64 v -6.63 l 0.008,-6.64 0.011,-6.63 0.032,-6.64 0.066,-6.63 0.137,-6.63 0.269,-6.64 0.493,-6.64 0.839,-6.63 1.329,-6.63 1.933,-6.64 2.606,-6.63 3.289,-6.64 3.933,-6.63 4.52,-6.64 5.027,-6.63 5.477,-6.64 5.871,-6.63 6.219,-6.64 6.535,-6.63 6.824,-6.64 7.082,-6.63 7.332,-6.64 7.559,-6.63 7.773,-6.64 7.98,-6.63 8.161,-6.63 8.359,-6.64 8.543,-6.63 8.715,-6.64 8.879,-6.63 9.039,-6.64 9.191,-6.63 9.344,-6.64 9.488,-6.63 9.633,-6.64 9.766,-6.63 9.902,-6.64 10.027,-6.63 10.16,-6.64 10.282,-6.63 10.402,-6.64 10.52,-6.63 10.632,-6.64 10.747,-6.63 10.859,-6.63 10.965,-6.64 11.07,-6.63 11.176,-6.64 11.277,-6.63 11.375,-6.64 11.473,-6.63 11.57,-6.64 11.664,-6.63 11.758,-6.64 11.848,-6.63 11.937,-6.64 12.028,-6.63 12.109,-6.63 12.199,-6.64 12.281,-6.63 12.364,-6.64 12.449,-6.63 12.523,-6.64 12.607,-6.63 12.68,-6.64 12.76,-6.63 12.84,-6.64 12.91,-6.63 12.98,-6.64 13.06,-6.63 13.13,-6.63 13.2,-6.64 13.27,-6.63 13.34,-6.64 13.41,-6.63 13.48,-6.64 13.54,-6.63 13.61,-6.64 13.68,-6.63 13.74,-6.64 13.81,-6.63 13.86,-6.64 13.93,-6.63 14,-6.63 14.05,-6.64 14.11,-6.63 14.18,-6.64 14.23,-6.63 14.3,-6.64 14.35,-6.63 14.4,-6.64 14.47,-6.63 14.53,-6.64 14.57,-6.63 14.64,-6.64 14.69,-6.63 14.75,-6.63 14.8,-6.64 14.85,-6.63 14.91,-6.64 14.96,-6.63 15.01,-6.64 15.06,-6.63 15.12,-6.64 15.17,-6.63 15.22,-6.64 15.26,-6.63 15.32,-6.64 15.37,-6.63 15.42,-6.63 15.46,-6.64 15.52,-6.63 15.56,-6.64 15.61,-6.63 15.66,-6.64 15.7,-6.63 15.76,-6.64 15.79,-6.63 15.85,-6.64 15.89,-6.63 15.94,-6.64 15.98,-6.63 16.02,-6.63 16.07,-6.64 16.12,-6.63 16.16,-6.64 16.2,-6.63 16.25,-6.64 16.29,-6.63 16.33,-6.64 16.37,-6.63 16.42,-6.64 16.46,-6.63 16.5,-6.64 16.54,-6.63 16.59,-6.64 16.62,-6.63 16.67,-6.64 16.7,-6.63 16.75,-6.64 16.79,-6.63 16.83,-6.63 16.86,-6.64 16.91,-6.63 16.95,-6.64 16.98,-6.63 17.03,-6.64 17.06,-6.63 17.1,-6.64 17.14,-6.63 17.18,-6.64 17.21,-6.63 17.26,-6.64 17.28,-6.63 17.33,-6.64 17.37,-6.63 17.4,-6.64 17.44,-6.63 17.47,-6.63 17.51,-6.64 17.55,-6.63 17.59,-6.64 17.61,-6.63 17.66,-6.64 17.69,-6.63 17.73,-6.64 17.76,-6.63 17.79,-6.64 17.84,-6.63 17.86,-6.64 17.9,-6.63 17.93,-6.64 17.97,-6.63 18.01,-6.64 18.03,-6.63 18.07,-6.63 18.1,-6.64 18.14,-6.63 18.17,-6.64 18.21,-6.63 18.23,-6.64 18.27,-6.63 18.3,-6.64 18.34,-6.63 18.37,-6.64 18.4,-6.63 18.43,-6.64 18.46,-6.63 18.5,-6.64 18.53,-6.63 18.56,-6.63 18.59,-6.64 18.62,-6.63 18.65,-6.64 18.69,-6.63 18.71,-6.64 18.75,-6.63 18.78,-6.64 18.81,-6.63 18.83,-6.64 18.88,-6.63 18.89,-6.64 18.93,-6.63 18.96,-6.63 18.99,-6.64 19.02,-6.63 19.05,-6.64 19.08,-6.63 19.11,-6.64 19.14,-6.63 19.17,-6.64 19.19,-6.63 19.23,-6.64 19.25,-6.63 19.29,-6.64 19.31,-6.63 19.34,-6.63 19.37,-6.64 19.4,-6.63 19.43,-6.64 19.45,-6.63 19.49,-6.64 19.51,-6.63 19.54,-6.64 19.57,-6.63 19.59,-6.64 19.62,-6.63 19.66,-6.64 19.68,-6.63 19.7,-6.63 19.73,-6.64 19.77,-6.63 19.79,-6.64 19.81,-6.63 19.84,-6.64 19.87,-6.63 19.9,-6.64 19.92,-6.63 19.95,-6.64 19.97,-6.63 20.01,-6.64 20.03,-6.63 20.05,-6.63 20.09,-6.64 20.1,-6.63 20.13,-6.64 20.16,-6.63 20.19,-6.64 20.21,-6.63 20.24,-6.64 20.27,-6.63 20.29,-6.64 20.31,-6.63 20.34,-6.64 20.37,-6.63 20.39,-6.63 20.41,-6.64 20.45,-6.63 20.46,-6.64 20.49,-6.63 20.52,-6.64 20.54,-6.63 20.57,-6.64 20.59,-6.63 20.62,-6.64 20.64,-6.63 20.66,-6.64 20.69,-6.63 20.72,-6.64 20.74,-6.63 20.76,-6.64 20.78,-6.63 20.82,-6.63 20.83,-6.64 20.86,-6.634 20.89,-6.636 20.9,-6.633 20.94,-6.637 20.95,-6.633 20.98,-6.636 21,-6.633 21.03,-6.637 21.05,-6.633 21.07,-6.636 21.1,-6.633 21.12,-6.637 21.14,-6.633 21.16,-6.636 21.2,-6.633 21.21,-6.637 21.23,-6.633 21.26,-6.637 21.28,-6.632 21.31,-6.633 21.32,-6.637 21.35,-6.633 21.38,-6.636 21.39,-6.633 21.42,-6.637 21.44,-6.633 21.46,-6.636 21.49,-6.633 21.51,-6.637 21.52,-6.633 21.56,-6.637 21.57,-6.632 21.6,-6.637 21.62,-6.633 21.64,-6.637 21.66,-6.632 21.69,-6.637 21.7,-6.633 21.73,-6.633 21.75,-6.636 21.78,-6.633 21.79,-6.637 21.82,-6.633 21.83,-6.637 21.86,-6.632 21.88,-6.637 21.9,-6.633 21.93,-6.637 21.94,-6.632 21.97,-6.637 21.98,-6.633 22.01,-6.637 22.03,-6.632 22.05,-6.637 22.07,-6.633 22.09,-6.637 22.11,-6.633 22.14,-6.636 22.15,-6.633 22.18,-6.633 22.2,-6.637 22.21,-6.632 22.24,-6.637 22.26,-6.633 22.28,-6.637 22.3,-6.632 22.32,-6.637 22.34,-6.633 22.36,-6.637 22.38,-6.633 22.4,-6.636 22.43,-6.633 22.44,-6.637 22.46,-6.633 22.48,-6.636 22.5,-6.633 22.53,-6.633 22.54,-6.637 22.56,-6.632 22.59,-6.637 22.6,-6.633 22.62,-6.637 22.65,-6.633 22.66,-6.636 22.68,-6.633 22.7,-6.637 22.72,-6.633 22.74,-6.636 22.76,-6.633 22.78,-6.637 22.8,-6.633 22.82,-6.636 22.84,-6.633 22.86,-6.637 22.87,-6.633"
             style="fill:none;stroke:#7f0081;stroke-width:4.16667;stroke-linecap:butt;stroke-linejoin:miter;stroke-miterlimit:1;stroke-dasharray:none;stroke-opacity:1"
             id="path358" /><path
             d="m 500,3025.77 v 0 l 3.023,-6.63 4.418,-6.64 5.164,-6.63 5.715,-6.64 6.168,-6.63 6.551,-6.64 6.887,-6.63 7.187,-6.63 7.465,-6.64 7.719,-6.63 7.953,-6.64 8.172,-6.63 8.383,-6.64 8.574,-6.63 8.762,-6.64 8.941,-6.63 9.109,-6.64 9.27,-6.63 9.426,-6.64 9.578,-6.63 9.723,-6.63 9.859,-6.64 10,-6.63 10.129,-6.64 10.254,-6.63 10.379,-6.64 10.5,-6.63 10.617,-6.64 10.734,-6.63 10.844,-6.64 10.953,-6.63 11.059,-6.64 11.16,-6.63 11.265,-6.64 11.368,-6.63 11.461,-6.63 11.558,-6.64 11.656,-6.64 11.743,-6.63 11.836,-6.63 11.925,-6.64 12.012,-6.63 12.102,-6.64 12.183,-6.63 12.266,-6.64 12.347,-6.63 12.43,-6.64 12.512,-6.63 12.586,-6.64 12.664,-6.63 12.74,-6.64 12.82,-6.63 12.89,-6.64 12.96,-6.63 13.04,-6.64 13.11,-6.63 13.17,-6.63 13.25,-6.64 13.32,-6.63 13.38,-6.64 13.45,-6.63 13.52,-6.64 13.58,-6.63 13.65,-6.64 13.71,-6.63 13.78,-6.64 13.84,-6.63 13.9,-6.64 13.96,-6.63 14.02,-6.64 14.08,-6.63 14.15,-6.64 14.2,-6.63 14.26,-6.64 14.31,-6.63 14.38,-6.63 14.43,-6.64 14.49,-6.63 14.54,-6.64 14.6,-6.63 14.66,-6.64 14.7,-6.63 14.77,-6.64 14.82,-6.63 14.86,-6.64 14.93,-6.63 14.97,-6.64 15.03,-6.63 15.07,-6.63 15.13,-6.64 15.18,-6.63 15.22,-6.64 15.28,-6.63 15.33,-6.64 15.38,-6.63 15.42,-6.64 15.48,-6.63 15.52,-6.64 15.57,-6.63 15.61,-6.64 15.66,-6.63 15.72,-6.63 15.75,-6.64 15.8,-6.63 15.85,-6.64 15.89,-6.63 15.94,-6.64 15.98,-6.63 16.03,-6.64 16.07,-6.63 16.12,-6.64 16.16,-6.63 16.2,-6.64 16.24,-6.63 16.29,-6.63 16.33,-6.64 16.38,-6.63 16.41,-6.64 16.46,-6.63 16.49,-6.64 16.55,-6.63 16.58,-6.64 16.62,-6.63 16.66,-6.64 16.7,-6.63 16.75,-6.64 16.78,-6.63 16.82,-6.63 16.86,-6.64 16.9,-6.63 16.94,-6.64 16.98,-6.63 17.02,-6.64 17.05,-6.63 17.1,-6.64 17.13,-6.63 17.17,-6.64 17.21,-6.63 17.24,-6.64 17.28,-6.63 17.32,-6.63 17.36,-6.64 17.39,-6.63 17.43,-6.64 17.47,-6.63 17.5,-6.64 17.54,-6.63 17.57,-6.64 17.61,-6.63 17.65,-6.64 17.68,-6.63 17.71,-6.64 17.75,-6.63 17.79,-6.63 17.82,-6.64 17.85,-6.63 17.89,-6.64 17.92,-6.63 17.96,-6.64 17.99,-6.63 18.03,-6.64 18.06,-6.63 18.09,-6.64 18.12,-6.63 18.16,-6.64 18.19,-6.63 18.22,-6.64 18.26,-6.63 18.29,-6.64 18.33,-6.63 18.35,-6.64 18.39,-6.63 18.42,-6.63 18.44,-6.64 18.49,-6.63 18.51,-6.64 18.55,-6.63 18.58,-6.64 18.61,-6.63 18.64,-6.64 18.67,-6.63 18.7,-6.64 18.73,-6.63 18.76,-6.64 18.8,-6.63 18.82,-6.64 18.86,-6.63 18.89,-6.64 18.91,-6.63 18.95,-6.63 18.97,-6.64 19.01,-6.63 19.03,-6.64 19.07,-6.63 19.09,-6.64 19.13,-6.63 19.15,-6.64 19.18,-6.63 19.21,-6.64 19.24,-6.63 19.27,-6.64 19.3,-6.63 19.33,-6.64 19.35,-6.63 19.38,-6.64 19.41,-6.63 19.45,-6.63 19.46,-6.64 19.5,-6.63 19.52,-6.64 19.56,-6.63 19.58,-6.64 19.61,-6.63 19.63,-6.64 19.67,-6.63 19.69,-6.64 19.71,-6.63 19.75,-6.64 19.77,-6.63 19.8,-6.64 19.83,-6.63 19.85,-6.63 19.88,-6.64 19.91,-6.63 19.94,-6.64 19.95,-6.63 19.99,-6.64 20.02,-6.63 20.04,-6.64 20.06,-6.63 20.09,-6.64 20.12,-6.63 20.15,-6.64 20.17,-6.63 20.19,-6.63 20.22,-6.64 20.25,-6.63 20.28,-6.64 20.29,-6.63 20.33,-6.64 20.35,-6.63 20.38,-6.64 20.39,-6.63 20.43,-6.64 20.45,-6.63 20.48,-6.64 20.5,-6.63 20.52,-6.63 20.56,-6.64 20.57,-6.63 20.6,-6.64 20.62,-6.63 20.66,-6.64 20.67,-6.63 20.7,-6.64 20.72,-6.63 20.75,-6.64 20.77,-6.63 20.8,-6.64 20.81,-6.63 20.85,-6.63 20.86,-6.64 20.89,-6.63 20.92,-6.64 20.94,-6.63 20.96,-6.64 20.99,-6.63 21.01,-6.64 21.03,-6.63 21.06,-6.64 21.08,-6.63 21.1,-6.64 21.13,-6.63 21.15,-6.63 21.17,-6.64 21.2,-6.63 21.22,-6.64 21.24,-6.63 21.27,-6.64 21.28,-6.63 21.32,-6.64 21.33,-6.63 21.35,-6.64 21.38,-6.63 21.41,-6.64 21.43,-6.63 21.44,-6.63 21.47,-6.64 21.49,-6.63 21.51,-6.64 21.54,-6.63 21.56,-6.64 21.58,-6.63 21.6,-6.64 21.63,-6.63 21.64,-6.64 21.67,-6.63 21.69,-6.64 21.71,-6.63 21.74,-6.64 21.76,-6.63 21.78,-6.64 21.79,-6.63 21.82,-6.63 21.85,-6.64 21.86,-6.634 21.89,-6.636 21.9,-6.633 21.93,-6.637 21.95,-6.633 21.97,-6.636 22,-6.633 22.01,-6.637 22.03,-6.633 22.06,-6.636 22.07,-6.633 22.1,-6.637 22.12,-6.633 22.14,-6.636 22.16,-6.633 22.18,-6.637 22.2,-6.633 22.22,-6.637 22.25,-6.632 22.26,-6.633 22.28,-6.637 22.31,-6.633 22.32,-6.636 22.35,-6.633 22.36,-6.637 22.39,-6.633 22.41,-6.636 22.42,-6.633 22.45,-6.637 22.47,-6.633 22.49,-6.637 22.5,-6.632 22.53,-6.637 22.54,-6.633 22.57,-6.637 22.59,-6.632 22.61,-6.637 22.62,-6.633 22.65,-6.633 22.67,-6.636 22.68,-6.633 22.71,-6.637 22.72,-6.633 22.75,-6.637 22.76,-6.632 22.79,-6.637 22.81,-6.633 22.82,-6.637 22.84,-6.632 22.86,-6.637 22.88,-6.633 22.9,-6.637 22.92,-6.632 22.94,-6.637 22.96,-6.633 22.97,-6.637 23,-6.633 23.02,-6.636 23.03,-6.633 23.06,-6.633 23.07,-6.637 23.09,-6.632 23.11,-6.637 23.13,-6.633 23.15,-6.637 23.17,-6.632 23.18,-6.637 23.2,-6.633 23.23,-6.637 23.24,-6.633 23.26,-6.636 23.28,-6.633 23.3,-6.637 23.31,-6.633 23.33,-6.636 23.36,-6.633 23.37,-6.633 23.39,-6.637 23.4,-6.632 23.43,-6.637 23.44,-6.633 23.47,-6.637 23.48,-6.633 23.5,-6.636 23.52,-6.633 23.53,-6.637 23.55,-6.633 23.57,-6.636 23.59,-6.633 23.61,-6.637 23.62,-6.633 23.64,-6.636 23.67,-6.633 23.68,-6.637 23.69,-6.633"
             style="fill:none;stroke:#800000;stroke-width:4.16667;stroke-linecap:butt;stroke-linejoin:miter;stroke-miterlimit:1;stroke-dasharray:none;stroke-opacity:1"
             id="path360" /></g></g></g></g></svg>
